<?xml version="1.0" encoding="us-ascii" standalone="no"?><svg xmlns="http://www.w3.org/2000/svg" xmlns:xlink="http://www.w3.org/1999/xlink" contentStyleType="text/css" height="651px" preserveAspectRatio="none" style="width:3760px;height:651px;" version="1.1" viewBox="0 0 3760 651" width="3760px" zoomAndPan="magnify"><defs/><g><!--class digitalocean_alert_policy--><g id="elem_digitalocean_alert_policy"><rect codeLine="22" fill="#3D176E" height="39.7891" id="digitalocean_alert_policy" rx="2.5" ry="2.5" style="stroke:#000D19;stroke-width:0.5;" width="248" x="7" y="106.79"/><ellipse cx="22" cy="126.6845" fill="#ADD1B2" rx="11" ry="11" style="stroke:#181818;stroke-width:1.0;"/><path d="M24.9688,132.3252 Q24.3906,132.622 23.75,132.7627 Q23.1094,132.9189 22.4063,132.9189 Q19.9063,132.9189 18.5781,131.2783 Q17.2656,129.622 17.2656,126.497 Q17.2656,123.372 18.5781,121.7158 Q19.9063,120.0595 22.4063,120.0595 Q23.1094,120.0595 23.75,120.2158 Q24.4063,120.372 24.9688,120.6689 L24.9688,123.3877 Q24.3438,122.8095 23.75,122.5439 Q23.1563,122.2627 22.5313,122.2627 Q21.1875,122.2627 20.5,123.3408 Q19.8125,124.4033 19.8125,126.497 Q19.8125,128.5908 20.5,129.6689 Q21.1875,130.7314 22.5313,130.7314 Q23.1563,130.7314 23.75,130.4658 Q24.3438,130.1845 24.9688,129.6064 L24.9688,132.3252 Z " fill="#000000"/><text fill="#D9B8FF" font-family="Helvetica" font-size="17" lengthAdjust="spacing" textLength="206" x="41" y="132.5698">digitalocean_alert_policy</text></g><!--class digitalocean_app--><g id="elem_digitalocean_app"><rect codeLine="24" fill="#3D176E" height="39.7891" id="digitalocean_app" rx="2.5" ry="2.5" style="stroke:#000D19;stroke-width:0.5;" width="182" x="2263" y="406.15"/><ellipse cx="2278" cy="426.0445" fill="#ADD1B2" rx="11" ry="11" style="stroke:#181818;stroke-width:1.0;"/><path d="M2280.9688,431.6852 Q2280.3906,431.982 2279.75,432.1227 Q2279.1094,432.2789 2278.4063,432.2789 Q2275.9063,432.2789 2274.5781,430.6383 Q2273.2656,428.982 2273.2656,425.857 Q2273.2656,422.732 2274.5781,421.0758 Q2275.9063,419.4195 2278.4063,419.4195 Q2279.1094,419.4195 2279.75,419.5758 Q2280.4063,419.732 2280.9688,420.0289 L2280.9688,422.7477 Q2280.3438,422.1695 2279.75,421.9039 Q2279.1563,421.6227 2278.5313,421.6227 Q2277.1875,421.6227 2276.5,422.7008 Q2275.8125,423.7633 2275.8125,425.857 Q2275.8125,427.9508 2276.5,429.0289 Q2277.1875,430.0914 2278.5313,430.0914 Q2279.1563,430.0914 2279.75,429.8258 Q2280.3438,429.5445 2280.9688,428.9664 L2280.9688,431.6852 Z " fill="#000000"/><text fill="#D9B8FF" font-family="Helvetica" font-size="17" lengthAdjust="spacing" textLength="140" x="2297" y="431.9298">digitalocean_app</text></g><!--class digitalocean_cdn_endpoint--><g id="elem_digitalocean_cdn_endpoint"><rect codeLine="26" fill="#3D176E" height="39.7891" id="digitalocean_cdn_endpoint" rx="2.5" ry="2.5" style="stroke:#000D19;stroke-width:0.5;" width="264" x="361" y="106.79"/><ellipse cx="376" cy="126.6845" fill="#ADD1B2" rx="11" ry="11" style="stroke:#181818;stroke-width:1.0;"/><path d="M378.9688,132.3252 Q378.3906,132.622 377.75,132.7627 Q377.1094,132.9189 376.4063,132.9189 Q373.9063,132.9189 372.5781,131.2783 Q371.2656,129.622 371.2656,126.497 Q371.2656,123.372 372.5781,121.7158 Q373.9063,120.0595 376.4063,120.0595 Q377.1094,120.0595 377.75,120.2158 Q378.4063,120.372 378.9688,120.6689 L378.9688,123.3877 Q378.3438,122.8095 377.75,122.5439 Q377.1563,122.2627 376.5313,122.2627 Q375.1875,122.2627 374.5,123.3408 Q373.8125,124.4033 373.8125,126.497 Q373.8125,128.5908 374.5,129.6689 Q375.1875,130.7314 376.5313,130.7314 Q377.1563,130.7314 377.75,130.4658 Q378.3438,130.1845 378.9688,129.6064 L378.9688,132.3252 Z " fill="#000000"/><text fill="#D9B8FF" font-family="Helvetica" font-size="17" lengthAdjust="spacing" textLength="222" x="395" y="132.5698">digitalocean_cdn_endpoint</text></g><!--class digitalocean_certificate--><g id="elem_digitalocean_certificate"><rect codeLine="28" fill="#3D176E" height="39.7891" id="digitalocean_certificate" rx="2.5" ry="2.5" style="stroke:#000D19;stroke-width:0.5;" width="235" x="660.5" y="106.79"/><ellipse cx="675.5" cy="126.6845" fill="#ADD1B2" rx="11" ry="11" style="stroke:#181818;stroke-width:1.0;"/><path d="M678.4688,132.3252 Q677.8906,132.622 677.25,132.7627 Q676.6094,132.9189 675.9063,132.9189 Q673.4063,132.9189 672.0781,131.2783 Q670.7656,129.622 670.7656,126.497 Q670.7656,123.372 672.0781,121.7158 Q673.4063,120.0595 675.9063,120.0595 Q676.6094,120.0595 677.25,120.2158 Q677.9063,120.372 678.4688,120.6689 L678.4688,123.3877 Q677.8438,122.8095 677.25,122.5439 Q676.6563,122.2627 676.0313,122.2627 Q674.6875,122.2627 674,123.3408 Q673.3125,124.4033 673.3125,126.497 Q673.3125,128.5908 674,129.6689 Q674.6875,130.7314 676.0313,130.7314 Q676.6563,130.7314 677.25,130.4658 Q677.8438,130.1845 678.4688,129.6064 L678.4688,132.3252 Z " fill="#000000"/><text fill="#D9B8FF" font-family="Helvetica" font-size="17" lengthAdjust="spacing" textLength="193" x="694.5" y="132.5698">digitalocean_certificate</text></g><!--class digitalocean_container_registry--><g id="elem_digitalocean_container_registry"><rect codeLine="30" fill="#3D176E" height="39.7891" id="digitalocean_container_registry" rx="2.5" ry="2.5" style="stroke:#000D19;stroke-width:0.5;" width="304" x="663" y="206.57"/><ellipse cx="678" cy="226.4645" fill="#ADD1B2" rx="11" ry="11" style="stroke:#181818;stroke-width:1.0;"/><path d="M680.9688,232.1052 Q680.3906,232.402 679.75,232.5427 Q679.1094,232.6989 678.4063,232.6989 Q675.9063,232.6989 674.5781,231.0583 Q673.2656,229.402 673.2656,226.277 Q673.2656,223.152 674.5781,221.4958 Q675.9063,219.8395 678.4063,219.8395 Q679.1094,219.8395 679.75,219.9958 Q680.4063,220.152 680.9688,220.4489 L680.9688,223.1677 Q680.3438,222.5895 679.75,222.3239 Q679.1563,222.0427 678.5313,222.0427 Q677.1875,222.0427 676.5,223.1208 Q675.8125,224.1833 675.8125,226.277 Q675.8125,228.3708 676.5,229.4489 Q677.1875,230.5114 678.5313,230.5114 Q679.1563,230.5114 679.75,230.2458 Q680.3438,229.9645 680.9688,229.3864 L680.9688,232.1052 Z " fill="#000000"/><text fill="#D9B8FF" font-family="Helvetica" font-size="17" lengthAdjust="spacing" textLength="262" x="697" y="232.3498">digitalocean_container_registry</text></g><!--class digitalocean_container_registry_repository--><g id="elem_digitalocean_container_registry_repository"><rect codeLine="32" fill="#3D176E" height="39.7891" id="digitalocean_container_registry_repository" rx="2.5" ry="2.5" style="stroke:#000D19;stroke-width:0.5;" width="397" x="411.5" y="306.36"/><ellipse cx="426.5" cy="326.2545" fill="#ADD1B2" rx="11" ry="11" style="stroke:#181818;stroke-width:1.0;"/><path d="M429.4688,331.8952 Q428.8906,332.192 428.25,332.3327 Q427.6094,332.4889 426.9063,332.4889 Q424.4063,332.4889 423.0781,330.8483 Q421.7656,329.192 421.7656,326.067 Q421.7656,322.942 423.0781,321.2858 Q424.4063,319.6295 426.9063,319.6295 Q427.6094,319.6295 428.25,319.7858 Q428.9063,319.942 429.4688,320.2389 L429.4688,322.9577 Q428.8438,322.3795 428.25,322.1139 Q427.6563,321.8327 427.0313,321.8327 Q425.6875,321.8327 425,322.9108 Q424.3125,323.9733 424.3125,326.067 Q424.3125,328.1608 425,329.2389 Q425.6875,330.3014 427.0313,330.3014 Q427.6563,330.3014 428.25,330.0358 Q428.8438,329.7545 429.4688,329.1764 L429.4688,331.8952 Z " fill="#000000"/><text fill="#D9B8FF" font-family="Helvetica" font-size="17" lengthAdjust="spacing" textLength="355" x="445.5" y="332.1398">digitalocean_container_registry_repository</text></g><!--class digitalocean_container_registry_repository_tag--><g id="elem_digitalocean_container_registry_repository_tag"><rect codeLine="34" fill="#3D176E" height="39.7891" id="digitalocean_container_registry_repository_tag" rx="2.5" ry="2.5" style="stroke:#000D19;stroke-width:0.5;" width="433" x="242.5" y="406.15"/><ellipse cx="257.5" cy="426.0445" fill="#ADD1B2" rx="11" ry="11" style="stroke:#181818;stroke-width:1.0;"/><path d="M260.4688,431.6852 Q259.8906,431.982 259.25,432.1227 Q258.6094,432.2789 257.9063,432.2789 Q255.4063,432.2789 254.0781,430.6383 Q252.7656,428.982 252.7656,425.857 Q252.7656,422.732 254.0781,421.0758 Q255.4063,419.4195 257.9063,419.4195 Q258.6094,419.4195 259.25,419.5758 Q259.9063,419.732 260.4688,420.0289 L260.4688,422.7477 Q259.8438,422.1695 259.25,421.9039 Q258.6563,421.6227 258.0313,421.6227 Q256.6875,421.6227 256,422.7008 Q255.3125,423.7633 255.3125,425.857 Q255.3125,427.9508 256,429.0289 Q256.6875,430.0914 258.0313,430.0914 Q258.6563,430.0914 259.25,429.8258 Q259.8438,429.5445 260.4688,428.9664 L260.4688,431.6852 Z " fill="#000000"/><text fill="#D9B8FF" font-family="Helvetica" font-size="17" lengthAdjust="spacing" textLength="391" x="276.5" y="431.9298">digitalocean_container_registry_repository_tag</text></g><!--class digitalocean_database--><g id="elem_digitalocean_database"><rect codeLine="36" fill="#3D176E" height="39.7891" id="digitalocean_database" rx="2.5" ry="2.5" style="stroke:#000D19;stroke-width:0.5;" width="227" x="2240.5" y="306.36"/><ellipse cx="2255.5" cy="326.2545" fill="#ADD1B2" rx="11" ry="11" style="stroke:#181818;stroke-width:1.0;"/><path d="M2258.4688,331.8952 Q2257.8906,332.192 2257.25,332.3327 Q2256.6094,332.4889 2255.9063,332.4889 Q2253.4063,332.4889 2252.0781,330.8483 Q2250.7656,329.192 2250.7656,326.067 Q2250.7656,322.942 2252.0781,321.2858 Q2253.4063,319.6295 2255.9063,319.6295 Q2256.6094,319.6295 2257.25,319.7858 Q2257.9063,319.942 2258.4688,320.2389 L2258.4688,322.9577 Q2257.8438,322.3795 2257.25,322.1139 Q2256.6563,321.8327 2256.0313,321.8327 Q2254.6875,321.8327 2254,322.9108 Q2253.3125,323.9733 2253.3125,326.067 Q2253.3125,328.1608 2254,329.2389 Q2254.6875,330.3014 2256.0313,330.3014 Q2256.6563,330.3014 2257.25,330.0358 Q2257.8438,329.7545 2258.4688,329.1764 L2258.4688,331.8952 Z " fill="#000000"/><text fill="#D9B8FF" font-family="Helvetica" font-size="17" lengthAdjust="spacing" textLength="185" x="2274.5" y="332.1398">digitalocean_database</text></g><!--class digitalocean_domain--><g id="elem_digitalocean_domain"><rect codeLine="38" fill="#3D176E" height="39.7891" id="digitalocean_domain" rx="2.5" ry="2.5" style="stroke:#000D19;stroke-width:0.5;" width="215" x="3090.5" y="306.36"/><ellipse cx="3105.5" cy="326.2545" fill="#ADD1B2" rx="11" ry="11" style="stroke:#181818;stroke-width:1.0;"/><path d="M3108.4688,331.8952 Q3107.8906,332.192 3107.25,332.3327 Q3106.6094,332.4889 3105.9063,332.4889 Q3103.4063,332.4889 3102.0781,330.8483 Q3100.7656,329.192 3100.7656,326.067 Q3100.7656,322.942 3102.0781,321.2858 Q3103.4063,319.6295 3105.9063,319.6295 Q3106.6094,319.6295 3107.25,319.7858 Q3107.9063,319.942 3108.4688,320.2389 L3108.4688,322.9577 Q3107.8438,322.3795 3107.25,322.1139 Q3106.6563,321.8327 3106.0313,321.8327 Q3104.6875,321.8327 3104,322.9108 Q3103.3125,323.9733 3103.3125,326.067 Q3103.3125,328.1608 3104,329.2389 Q3104.6875,330.3014 3106.0313,330.3014 Q3106.6563,330.3014 3107.25,330.0358 Q3107.8438,329.7545 3108.4688,329.1764 L3108.4688,331.8952 Z " fill="#000000"/><text fill="#D9B8FF" font-family="Helvetica" font-size="17" lengthAdjust="spacing" textLength="173" x="3124.5" y="332.1398">digitalocean_domain</text></g><!--class digitalocean_domain_record--><g id="elem_digitalocean_domain_record"><rect codeLine="40" fill="#3D176E" height="39.7891" id="digitalocean_domain_record" rx="2.5" ry="2.5" style="stroke:#000D19;stroke-width:0.5;" width="276" x="3140" y="406.15"/><ellipse cx="3155" cy="426.0445" fill="#ADD1B2" rx="11" ry="11" style="stroke:#181818;stroke-width:1.0;"/><path d="M3157.9688,431.6852 Q3157.3906,431.982 3156.75,432.1227 Q3156.1094,432.2789 3155.4063,432.2789 Q3152.9063,432.2789 3151.5781,430.6383 Q3150.2656,428.982 3150.2656,425.857 Q3150.2656,422.732 3151.5781,421.0758 Q3152.9063,419.4195 3155.4063,419.4195 Q3156.1094,419.4195 3156.75,419.5758 Q3157.4063,419.732 3157.9688,420.0289 L3157.9688,422.7477 Q3157.3438,422.1695 3156.75,421.9039 Q3156.1563,421.6227 3155.5313,421.6227 Q3154.1875,421.6227 3153.5,422.7008 Q3152.8125,423.7633 3152.8125,425.857 Q3152.8125,427.9508 3153.5,429.0289 Q3154.1875,430.0914 3155.5313,430.0914 Q3156.1563,430.0914 3156.75,429.8258 Q3157.3438,429.5445 3157.9688,428.9664 L3157.9688,431.6852 Z " fill="#000000"/><text fill="#D9B8FF" font-family="Helvetica" font-size="17" lengthAdjust="spacing" textLength="234" x="3174" y="431.9298">digitalocean_domain_record</text></g><!--class digitalocean_droplet--><g id="elem_digitalocean_droplet"><rect codeLine="42" fill="#3D176E" height="39.7891" id="digitalocean_droplet" rx="2.5" ry="2.5" style="stroke:#000D19;stroke-width:0.5;" width="211" x="1868.5" y="406.15"/><ellipse cx="1883.5" cy="426.0445" fill="#ADD1B2" rx="11" ry="11" style="stroke:#181818;stroke-width:1.0;"/><path d="M1886.4688,431.6852 Q1885.8906,431.982 1885.25,432.1227 Q1884.6094,432.2789 1883.9063,432.2789 Q1881.4063,432.2789 1880.0781,430.6383 Q1878.7656,428.982 1878.7656,425.857 Q1878.7656,422.732 1880.0781,421.0758 Q1881.4063,419.4195 1883.9063,419.4195 Q1884.6094,419.4195 1885.25,419.5758 Q1885.9063,419.732 1886.4688,420.0289 L1886.4688,422.7477 Q1885.8438,422.1695 1885.25,421.9039 Q1884.6563,421.6227 1884.0313,421.6227 Q1882.6875,421.6227 1882,422.7008 Q1881.3125,423.7633 1881.3125,425.857 Q1881.3125,427.9508 1882,429.0289 Q1882.6875,430.0914 1884.0313,430.0914 Q1884.6563,430.0914 1885.25,429.8258 Q1885.8438,429.5445 1886.4688,428.9664 L1886.4688,431.6852 Z " fill="#000000"/><text fill="#D9B8FF" font-family="Helvetica" font-size="17" lengthAdjust="spacing" textLength="169" x="1902.5" y="431.9298">digitalocean_droplet</text></g><!--class digitalocean_firewall--><g id="elem_digitalocean_firewall"><rect codeLine="44" fill="#3D176E" height="39.7891" id="digitalocean_firewall" rx="2.5" ry="2.5" style="stroke:#000D19;stroke-width:0.5;" width="215" x="1143.5" y="206.57"/><ellipse cx="1158.5" cy="226.4645" fill="#ADD1B2" rx="11" ry="11" style="stroke:#181818;stroke-width:1.0;"/><path d="M1161.4688,232.1052 Q1160.8906,232.402 1160.25,232.5427 Q1159.6094,232.6989 1158.9063,232.6989 Q1156.4063,232.6989 1155.0781,231.0583 Q1153.7656,229.402 1153.7656,226.277 Q1153.7656,223.152 1155.0781,221.4958 Q1156.4063,219.8395 1158.9063,219.8395 Q1159.6094,219.8395 1160.25,219.9958 Q1160.9063,220.152 1161.4688,220.4489 L1161.4688,223.1677 Q1160.8438,222.5895 1160.25,222.3239 Q1159.6563,222.0427 1159.0313,222.0427 Q1157.6875,222.0427 1157,223.1208 Q1156.3125,224.1833 1156.3125,226.277 Q1156.3125,228.3708 1157,229.4489 Q1157.6875,230.5114 1159.0313,230.5114 Q1159.6563,230.5114 1160.25,230.2458 Q1160.8438,229.9645 1161.4688,229.3864 L1161.4688,232.1052 Z " fill="#000000"/><text fill="#D9B8FF" font-family="Helvetica" font-size="17" lengthAdjust="spacing" textLength="173" x="1177.5" y="232.3498">digitalocean_firewall</text></g><!--class digitalocean_floating_ip--><g id="elem_digitalocean_floating_ip"><rect codeLine="46" fill="#3D176E" height="39.7891" id="digitalocean_floating_ip" rx="2.5" ry="2.5" style="stroke:#000D19;stroke-width:0.5;" width="240" x="2578" y="505.94"/><ellipse cx="2593" cy="525.8345" fill="#ADD1B2" rx="11" ry="11" style="stroke:#181818;stroke-width:1.0;"/><path d="M2595.9688,531.4752 Q2595.3906,531.772 2594.75,531.9127 Q2594.1094,532.0689 2593.4063,532.0689 Q2590.9063,532.0689 2589.5781,530.4283 Q2588.2656,528.772 2588.2656,525.647 Q2588.2656,522.522 2589.5781,520.8658 Q2590.9063,519.2095 2593.4063,519.2095 Q2594.1094,519.2095 2594.75,519.3658 Q2595.4063,519.522 2595.9688,519.8189 L2595.9688,522.5377 Q2595.3438,521.9595 2594.75,521.6939 Q2594.1563,521.4127 2593.5313,521.4127 Q2592.1875,521.4127 2591.5,522.4908 Q2590.8125,523.5533 2590.8125,525.647 Q2590.8125,527.7408 2591.5,528.8189 Q2592.1875,529.8814 2593.5313,529.8814 Q2594.1563,529.8814 2594.75,529.6158 Q2595.3438,529.3345 2595.9688,528.7564 L2595.9688,531.4752 Z " fill="#000000"/><text fill="#D9B8FF" font-family="Helvetica" font-size="17" lengthAdjust="spacing" textLength="198" x="2612" y="531.7198">digitalocean_floating_ip</text></g><!--class digitalocean_image--><g id="elem_digitalocean_image"><rect codeLine="48" fill="#3D176E" height="39.7891" id="digitalocean_image" rx="2.5" ry="2.5" style="stroke:#000D19;stroke-width:0.5;" width="204" x="2034" y="206.57"/><ellipse cx="2049" cy="226.4645" fill="#ADD1B2" rx="11" ry="11" style="stroke:#181818;stroke-width:1.0;"/><path d="M2051.9688,232.1052 Q2051.3906,232.402 2050.75,232.5427 Q2050.1094,232.6989 2049.4063,232.6989 Q2046.9063,232.6989 2045.5781,231.0583 Q2044.2656,229.402 2044.2656,226.277 Q2044.2656,223.152 2045.5781,221.4958 Q2046.9063,219.8395 2049.4063,219.8395 Q2050.1094,219.8395 2050.75,219.9958 Q2051.4063,220.152 2051.9688,220.4489 L2051.9688,223.1677 Q2051.3438,222.5895 2050.75,222.3239 Q2050.1563,222.0427 2049.5313,222.0427 Q2048.1875,222.0427 2047.5,223.1208 Q2046.8125,224.1833 2046.8125,226.277 Q2046.8125,228.3708 2047.5,229.4489 Q2048.1875,230.5114 2049.5313,230.5114 Q2050.1563,230.5114 2050.75,230.2458 Q2051.3438,229.9645 2051.9688,229.3864 L2051.9688,232.1052 Z " fill="#000000"/><text fill="#D9B8FF" font-family="Helvetica" font-size="17" lengthAdjust="spacing" textLength="162" x="2068" y="232.3498">digitalocean_image</text></g><!--class digitalocean_kubernetes_cluster--><g id="elem_digitalocean_kubernetes_cluster"><rect codeLine="50" fill="#3D176E" height="39.7891" id="digitalocean_kubernetes_cluster" rx="2.5" ry="2.5" style="stroke:#000D19;stroke-width:0.5;" width="311" x="1610.5" y="306.36"/><ellipse cx="1625.5" cy="326.2545" fill="#ADD1B2" rx="11" ry="11" style="stroke:#181818;stroke-width:1.0;"/><path d="M1628.4688,331.8952 Q1627.8906,332.192 1627.25,332.3327 Q1626.6094,332.4889 1625.9063,332.4889 Q1623.4063,332.4889 1622.0781,330.8483 Q1620.7656,329.192 1620.7656,326.067 Q1620.7656,322.942 1622.0781,321.2858 Q1623.4063,319.6295 1625.9063,319.6295 Q1626.6094,319.6295 1627.25,319.7858 Q1627.9063,319.942 1628.4688,320.2389 L1628.4688,322.9577 Q1627.8438,322.3795 1627.25,322.1139 Q1626.6563,321.8327 1626.0313,321.8327 Q1624.6875,321.8327 1624,322.9108 Q1623.3125,323.9733 1623.3125,326.067 Q1623.3125,328.1608 1624,329.2389 Q1624.6875,330.3014 1626.0313,330.3014 Q1626.6563,330.3014 1627.25,330.0358 Q1627.8438,329.7545 1628.4688,329.1764 L1628.4688,331.8952 Z " fill="#000000"/><text fill="#D9B8FF" font-family="Helvetica" font-size="17" lengthAdjust="spacing" textLength="269" x="1644.5" y="332.1398">digitalocean_kubernetes_cluster</text></g><!--class digitalocean_load_balancer--><g id="elem_digitalocean_load_balancer"><rect codeLine="52" fill="#3D176E" height="39.7891" id="digitalocean_load_balancer" rx="2.5" ry="2.5" style="stroke:#000D19;stroke-width:0.5;" width="267" x="1238.5" y="306.36"/><ellipse cx="1253.5" cy="326.2545" fill="#ADD1B2" rx="11" ry="11" style="stroke:#181818;stroke-width:1.0;"/><path d="M1256.4688,331.8952 Q1255.8906,332.192 1255.25,332.3327 Q1254.6094,332.4889 1253.9063,332.4889 Q1251.4063,332.4889 1250.0781,330.8483 Q1248.7656,329.192 1248.7656,326.067 Q1248.7656,322.942 1250.0781,321.2858 Q1251.4063,319.6295 1253.9063,319.6295 Q1254.6094,319.6295 1255.25,319.7858 Q1255.9063,319.942 1256.4688,320.2389 L1256.4688,322.9577 Q1255.8438,322.3795 1255.25,322.1139 Q1254.6563,321.8327 1254.0313,321.8327 Q1252.6875,321.8327 1252,322.9108 Q1251.3125,323.9733 1251.3125,326.067 Q1251.3125,328.1608 1252,329.2389 Q1252.6875,330.3014 1254.0313,330.3014 Q1254.6563,330.3014 1255.25,330.0358 Q1255.8438,329.7545 1256.4688,329.1764 L1256.4688,331.8952 Z " fill="#000000"/><text fill="#D9B8FF" font-family="Helvetica" font-size="17" lengthAdjust="spacing" textLength="225" x="1272.5" y="332.1398">digitalocean_load_balancer</text></g><!--class digitalocean_project--><g id="elem_digitalocean_project"><rect codeLine="54" fill="#3D176E" height="39.7891" id="digitalocean_project" rx="2.5" ry="2.5" style="stroke:#000D19;stroke-width:0.5;" width="209" x="2486.5" y="206.57"/><ellipse cx="2501.5" cy="226.4645" fill="#ADD1B2" rx="11" ry="11" style="stroke:#181818;stroke-width:1.0;"/><path d="M2504.4688,232.1052 Q2503.8906,232.402 2503.25,232.5427 Q2502.6094,232.6989 2501.9063,232.6989 Q2499.4063,232.6989 2498.0781,231.0583 Q2496.7656,229.402 2496.7656,226.277 Q2496.7656,223.152 2498.0781,221.4958 Q2499.4063,219.8395 2501.9063,219.8395 Q2502.6094,219.8395 2503.25,219.9958 Q2503.9063,220.152 2504.4688,220.4489 L2504.4688,223.1677 Q2503.8438,222.5895 2503.25,222.3239 Q2502.6563,222.0427 2502.0313,222.0427 Q2500.6875,222.0427 2500,223.1208 Q2499.3125,224.1833 2499.3125,226.277 Q2499.3125,228.3708 2500,229.4489 Q2500.6875,230.5114 2502.0313,230.5114 Q2502.6563,230.5114 2503.25,230.2458 Q2503.8438,229.9645 2504.4688,229.3864 L2504.4688,232.1052 Z " fill="#000000"/><text fill="#D9B8FF" font-family="Helvetica" font-size="17" lengthAdjust="spacing" textLength="167" x="2520.5" y="232.3498">digitalocean_project</text></g><!--class digitalocean_region--><g id="elem_digitalocean_region"><rect codeLine="56" fill="#3D176E" height="39.7891" id="digitalocean_region" rx="2.5" ry="2.5" style="stroke:#000D19;stroke-width:0.5;" width="205" x="1834.5" y="106.79"/><ellipse cx="1849.5" cy="126.6845" fill="#ADD1B2" rx="11" ry="11" style="stroke:#181818;stroke-width:1.0;"/><path d="M1852.4688,132.3252 Q1851.8906,132.622 1851.25,132.7627 Q1850.6094,132.9189 1849.9063,132.9189 Q1847.4063,132.9189 1846.0781,131.2783 Q1844.7656,129.622 1844.7656,126.497 Q1844.7656,123.372 1846.0781,121.7158 Q1847.4063,120.0595 1849.9063,120.0595 Q1850.6094,120.0595 1851.25,120.2158 Q1851.9063,120.372 1852.4688,120.6689 L1852.4688,123.3877 Q1851.8438,122.8095 1851.25,122.5439 Q1850.6563,122.2627 1850.0313,122.2627 Q1848.6875,122.2627 1848,123.3408 Q1847.3125,124.4033 1847.3125,126.497 Q1847.3125,128.5908 1848,129.6689 Q1848.6875,130.7314 1850.0313,130.7314 Q1850.6563,130.7314 1851.25,130.4658 Q1851.8438,130.1845 1852.4688,129.6064 L1852.4688,132.3252 Z " fill="#000000"/><text fill="#D9B8FF" font-family="Helvetica" font-size="17" lengthAdjust="spacing" textLength="163" x="1868.5" y="132.5698">digitalocean_region</text></g><!--class digitalocean_resource--><g id="elem_digitalocean_resource"><rect codeLine="58" fill="#3D176E" height="39.7891" id="digitalocean_resource" rx="2.5" ry="2.5" style="stroke:#000D19;stroke-width:0.5;" width="223" x="3011.5" y="106.79"/><ellipse cx="3026.5" cy="126.6845" fill="#ADD1B2" rx="11" ry="11" style="stroke:#181818;stroke-width:1.0;"/><path d="M3029.4688,132.3252 Q3028.8906,132.622 3028.25,132.7627 Q3027.6094,132.9189 3026.9063,132.9189 Q3024.4063,132.9189 3023.0781,131.2783 Q3021.7656,129.622 3021.7656,126.497 Q3021.7656,123.372 3023.0781,121.7158 Q3024.4063,120.0595 3026.9063,120.0595 Q3027.6094,120.0595 3028.25,120.2158 Q3028.9063,120.372 3029.4688,120.6689 L3029.4688,123.3877 Q3028.8438,122.8095 3028.25,122.5439 Q3027.6563,122.2627 3027.0313,122.2627 Q3025.6875,122.2627 3025,123.3408 Q3024.3125,124.4033 3024.3125,126.497 Q3024.3125,128.5908 3025,129.6689 Q3025.6875,130.7314 3027.0313,130.7314 Q3027.6563,130.7314 3028.25,130.4658 Q3028.8438,130.1845 3029.4688,129.6064 L3029.4688,132.3252 Z " fill="#000000"/><text fill="#D9B8FF" font-family="Helvetica" font-size="17" lengthAdjust="spacing" textLength="181" x="3045.5" y="132.5698">digitalocean_resource</text></g><!--class digitalocean_snapshot--><g id="elem_digitalocean_snapshot"><rect codeLine="60" fill="#3D176E" height="39.7891" id="digitalocean_snapshot" rx="2.5" ry="2.5" style="stroke:#000D19;stroke-width:0.5;" width="227" x="1966.5" y="605.73"/><ellipse cx="1981.5" cy="625.6245" fill="#ADD1B2" rx="11" ry="11" style="stroke:#181818;stroke-width:1.0;"/><path d="M1984.4688,631.2652 Q1983.8906,631.562 1983.25,631.7027 Q1982.6094,631.8589 1981.9063,631.8589 Q1979.4063,631.8589 1978.0781,630.2183 Q1976.7656,628.562 1976.7656,625.437 Q1976.7656,622.312 1978.0781,620.6558 Q1979.4063,618.9995 1981.9063,618.9995 Q1982.6094,618.9995 1983.25,619.1558 Q1983.9063,619.312 1984.4688,619.6089 L1984.4688,622.3277 Q1983.8438,621.7495 1983.25,621.4839 Q1982.6563,621.2027 1982.0313,621.2027 Q1980.6875,621.2027 1980,622.2808 Q1979.3125,623.3433 1979.3125,625.437 Q1979.3125,627.5308 1980,628.6089 Q1980.6875,629.6714 1982.0313,629.6714 Q1982.6563,629.6714 1983.25,629.4058 Q1983.8438,629.1245 1984.4688,628.5464 L1984.4688,631.2652 Z " fill="#000000"/><text fill="#D9B8FF" font-family="Helvetica" font-size="17" lengthAdjust="spacing" textLength="185" x="2000.5" y="631.5098">digitalocean_snapshot</text></g><!--class digitalocean_space--><g id="elem_digitalocean_space"><rect codeLine="62" fill="#3D176E" height="39.7891" id="digitalocean_space" rx="2.5" ry="2.5" style="stroke:#000D19;stroke-width:0.5;" width="198" x="2787" y="306.36"/><ellipse cx="2802" cy="326.2545" fill="#ADD1B2" rx="11" ry="11" style="stroke:#181818;stroke-width:1.0;"/><path d="M2804.9688,331.8952 Q2804.3906,332.192 2803.75,332.3327 Q2803.1094,332.4889 2802.4063,332.4889 Q2799.9063,332.4889 2798.5781,330.8483 Q2797.2656,329.192 2797.2656,326.067 Q2797.2656,322.942 2798.5781,321.2858 Q2799.9063,319.6295 2802.4063,319.6295 Q2803.1094,319.6295 2803.75,319.7858 Q2804.4063,319.942 2804.9688,320.2389 L2804.9688,322.9577 Q2804.3438,322.3795 2803.75,322.1139 Q2803.1563,321.8327 2802.5313,321.8327 Q2801.1875,321.8327 2800.5,322.9108 Q2799.8125,323.9733 2799.8125,326.067 Q2799.8125,328.1608 2800.5,329.2389 Q2801.1875,330.3014 2802.5313,330.3014 Q2803.1563,330.3014 2803.75,330.0358 Q2804.3438,329.7545 2804.9688,329.1764 L2804.9688,331.8952 Z " fill="#000000"/><text fill="#D9B8FF" font-family="Helvetica" font-size="17" lengthAdjust="spacing" textLength="156" x="2821" y="332.1398">digitalocean_space</text></g><!--class digitalocean_ssh_key--><g id="elem_digitalocean_ssh_key"><rect codeLine="64" fill="#3D176E" height="39.7891" id="digitalocean_ssh_key" rx="2.5" ry="2.5" style="stroke:#000D19;stroke-width:0.5;" width="218" x="3411" y="106.79"/><ellipse cx="3426" cy="126.6845" fill="#ADD1B2" rx="11" ry="11" style="stroke:#181818;stroke-width:1.0;"/><path d="M3428.9688,132.3252 Q3428.3906,132.622 3427.75,132.7627 Q3427.1094,132.9189 3426.4063,132.9189 Q3423.9063,132.9189 3422.5781,131.2783 Q3421.2656,129.622 3421.2656,126.497 Q3421.2656,123.372 3422.5781,121.7158 Q3423.9063,120.0595 3426.4063,120.0595 Q3427.1094,120.0595 3427.75,120.2158 Q3428.4063,120.372 3428.9688,120.6689 L3428.9688,123.3877 Q3428.3438,122.8095 3427.75,122.5439 Q3427.1563,122.2627 3426.5313,122.2627 Q3425.1875,122.2627 3424.5,123.3408 Q3423.8125,124.4033 3423.8125,126.497 Q3423.8125,128.5908 3424.5,129.6689 Q3425.1875,130.7314 3426.5313,130.7314 Q3427.1563,130.7314 3427.75,130.4658 Q3428.3438,130.1845 3428.9688,129.6064 L3428.9688,132.3252 Z " fill="#000000"/><text fill="#D9B8FF" font-family="Helvetica" font-size="17" lengthAdjust="spacing" textLength="176" x="3445" y="132.5698">digitalocean_ssh_key</text></g><!--class digitalocean_team--><g id="elem_digitalocean_team"><rect codeLine="66" fill="#3D176E" height="39.7891" id="digitalocean_team" rx="2.5" ry="2.5" style="stroke:#000D19;stroke-width:0.5;" width="196" x="1924" y="7"/><ellipse cx="1939" cy="26.8945" fill="#ADD1B2" rx="11" ry="11" style="stroke:#181818;stroke-width:1.0;"/><path d="M1941.9688,32.5352 Q1941.3906,32.832 1940.75,32.9727 Q1940.1094,33.1289 1939.4063,33.1289 Q1936.9063,33.1289 1935.5781,31.4883 Q1934.2656,29.832 1934.2656,26.707 Q1934.2656,23.582 1935.5781,21.9258 Q1936.9063,20.2695 1939.4063,20.2695 Q1940.1094,20.2695 1940.75,20.4258 Q1941.4063,20.582 1941.9688,20.8789 L1941.9688,23.5977 Q1941.3438,23.0195 1940.75,22.7539 Q1940.1563,22.4727 1939.5313,22.4727 Q1938.1875,22.4727 1937.5,23.5508 Q1936.8125,24.6133 1936.8125,26.707 Q1936.8125,28.8008 1937.5,29.8789 Q1938.1875,30.9414 1939.5313,30.9414 Q1940.1563,30.9414 1940.75,30.6758 Q1941.3438,30.3945 1941.9688,29.8164 L1941.9688,32.5352 Z " fill="#000000"/><text fill="#D9B8FF" font-family="Helvetica" font-size="17" lengthAdjust="spacing" textLength="154" x="1958" y="32.7798">digitalocean_team</text></g><!--class digitalocean_volume--><g id="elem_digitalocean_volume"><rect codeLine="68" fill="#3D176E" height="39.7891" id="digitalocean_volume" rx="2.5" ry="2.5" style="stroke:#000D19;stroke-width:0.5;" width="215" x="2065.5" y="505.94"/><ellipse cx="2080.5" cy="525.8345" fill="#ADD1B2" rx="11" ry="11" style="stroke:#181818;stroke-width:1.0;"/><path d="M2083.4688,531.4752 Q2082.8906,531.772 2082.25,531.9127 Q2081.6094,532.0689 2080.9063,532.0689 Q2078.4063,532.0689 2077.0781,530.4283 Q2075.7656,528.772 2075.7656,525.647 Q2075.7656,522.522 2077.0781,520.8658 Q2078.4063,519.2095 2080.9063,519.2095 Q2081.6094,519.2095 2082.25,519.3658 Q2082.9063,519.522 2083.4688,519.8189 L2083.4688,522.5377 Q2082.8438,521.9595 2082.25,521.6939 Q2081.6563,521.4127 2081.0313,521.4127 Q2079.6875,521.4127 2079,522.4908 Q2078.3125,523.5533 2078.3125,525.647 Q2078.3125,527.7408 2079,528.8189 Q2079.6875,529.8814 2081.0313,529.8814 Q2081.6563,529.8814 2082.25,529.6158 Q2082.8438,529.3345 2083.4688,528.7564 L2083.4688,531.4752 Z " fill="#000000"/><text fill="#D9B8FF" font-family="Helvetica" font-size="17" lengthAdjust="spacing" textLength="173" x="2099.5" y="531.7198">digitalocean_volume</text></g><!--class digitalocean_vpc--><g id="elem_digitalocean_vpc"><rect codeLine="70" fill="#3D176E" height="39.7891" id="digitalocean_vpc" rx="2.5" ry="2.5" style="stroke:#000D19;stroke-width:0.5;" width="180" x="1535" y="206.57"/><ellipse cx="1550" cy="226.4645" fill="#ADD1B2" rx="11" ry="11" style="stroke:#181818;stroke-width:1.0;"/><path d="M1552.9688,232.1052 Q1552.3906,232.402 1551.75,232.5427 Q1551.1094,232.6989 1550.4063,232.6989 Q1547.9063,232.6989 1546.5781,231.0583 Q1545.2656,229.402 1545.2656,226.277 Q1545.2656,223.152 1546.5781,221.4958 Q1547.9063,219.8395 1550.4063,219.8395 Q1551.1094,219.8395 1551.75,219.9958 Q1552.4063,220.152 1552.9688,220.4489 L1552.9688,223.1677 Q1552.3438,222.5895 1551.75,222.3239 Q1551.1563,222.0427 1550.5313,222.0427 Q1549.1875,222.0427 1548.5,223.1208 Q1547.8125,224.1833 1547.8125,226.277 Q1547.8125,228.3708 1548.5,229.4489 Q1549.1875,230.5114 1550.5313,230.5114 Q1551.1563,230.5114 1551.75,230.2458 Q1552.3438,229.9645 1552.9688,229.3864 L1552.9688,232.1052 Z " fill="#000000"/><text fill="#D9B8FF" font-family="Helvetica" font-size="17" lengthAdjust="spacing" textLength="138" x="1569" y="232.3498">digitalocean_vpc</text></g><!--link digitalocean_container_registry to digitalocean_container_registry_repository--><g id="link_digitalocean_container_registry_digitalocean_container_registry_repository"><path codeLine="72" d="M774.5,246.79 C738.56,263.93 691.7454,286.2667 655.8354,303.3967 " fill="none" id="digitalocean_container_registry-to-digitalocean_container_registry_repository" style="stroke:#1A83AF;stroke-width:2.0;"/><polygon fill="#1A83AF" points="650.42,305.98,660.2653,305.7153,654.9328,303.8273,656.8209,298.4948,650.42,305.98" style="stroke:#1A83AF;stroke-width:2.0;"/></g><!--link digitalocean_container_registry_repository to digitalocean_container_registry_repository_tag--><g id="link_digitalocean_container_registry_repository_digitalocean_container_registry_repository_tag"><path codeLine="73" d="M580.17,346.58 C553.69,363.72 520.2561,385.3784 493.8061,402.5084 " fill="none" id="digitalocean_container_registry_repository-to-digitalocean_container_registry_repository_tag" style="stroke:#1A83AF;stroke-width:2.0;"/><polygon fill="#1A83AF" points="488.77,405.77,498.4985,404.2351,492.9667,403.052,494.1498,397.5203,488.77,405.77" style="stroke:#1A83AF;stroke-width:2.0;"/></g><!--link digitalocean_database to digitalocean_app--><g id="link_digitalocean_database_digitalocean_app"><path codeLine="74" d="M2354,346.58 C2354,363.72 2354,382.64 2354,399.77 " fill="none" id="digitalocean_database-to-digitalocean_app" style="stroke:#1A83AF;stroke-width:2.0;"/><polygon fill="#1A83AF" points="2354,405.77,2358,396.77,2354,400.77,2350,396.77,2354,405.77" style="stroke:#1A83AF;stroke-width:2.0;"/></g><!--link digitalocean_domain to digitalocean_domain_record--><g id="link_digitalocean_domain_digitalocean_domain_record"><path codeLine="75" d="M3213.81,346.58 C3227.83,363.72 3244.4098,383.9969 3258.4298,401.1269 " fill="none" id="digitalocean_domain-to-digitalocean_domain_record" style="stroke:#1A83AF;stroke-width:2.0;"/><polygon fill="#1A83AF" points="3262.23,405.77,3259.6252,396.2718,3259.0632,401.9007,3253.4343,401.3387,3262.23,405.77" style="stroke:#1A83AF;stroke-width:2.0;"/></g><!--link digitalocean_droplet to digitalocean_floating_ip--><g id="link_digitalocean_droplet_digitalocean_floating_ip"><path codeLine="76" d="M2079.66,441.32 C2212.12,459.21 2432.684,488.9967 2571.694,507.7767 " fill="none" id="digitalocean_droplet-to-digitalocean_floating_ip" style="stroke:#1A83AF;stroke-width:2.0;"/><polygon fill="#1A83AF" points="2577.64,508.58,2569.2566,503.4111,2572.685,507.9106,2568.1855,511.3391,2577.64,508.58" style="stroke:#1A83AF;stroke-width:2.0;"/></g><!--link digitalocean_droplet to digitalocean_snapshot--><g id="link_digitalocean_droplet_digitalocean_snapshot"><path codeLine="77" d="M1984.36,446.35 C2004.62,484.12 2046.463,562.1231 2066.763,599.9531 " fill="none" id="digitalocean_droplet-to-digitalocean_snapshot" style="stroke:#1A83AF;stroke-width:2.0;"/><polygon fill="#1A83AF" points="2069.6,605.24,2068.8691,595.4183,2067.2358,600.8342,2061.8199,599.201,2069.6,605.24" style="stroke:#1A83AF;stroke-width:2.0;"/></g><!--link digitalocean_droplet to digitalocean_volume--><g id="link_digitalocean_droplet_digitalocean_volume"><path codeLine="78" d="M2013.32,446.37 C2048.2,463.51 2093.5153,485.7732 2128.3853,502.9132 " fill="none" id="digitalocean_droplet-to-digitalocean_volume" style="stroke:#1A83AF;stroke-width:2.0;"/><polygon fill="#1A83AF" points="2133.77,505.56,2127.4575,498.0001,2129.2828,503.3544,2123.9285,505.1796,2133.77,505.56" style="stroke:#1A83AF;stroke-width:2.0;"/></g><!--link digitalocean_firewall to digitalocean_droplet--><g id="link_digitalocean_firewall_digitalocean_droplet"><path codeLine="79" d="M1236.71,246.85 C1219.53,272.69 1195.97,318.36 1221,346.15 C1263.5,393.34 1664.9342,414.0144 1862.1142,421.4344 " fill="none" id="digitalocean_firewall-to-digitalocean_droplet" style="stroke:#1A83AF;stroke-width:2.0;"/><polygon fill="#1A83AF" points="1868.11,421.66,1859.2668,417.3244,1863.1135,421.472,1858.9659,425.3187,1868.11,421.66" style="stroke:#1A83AF;stroke-width:2.0;"/></g><!--link digitalocean_image to digitalocean_droplet--><g id="link_digitalocean_image_digitalocean_droplet"><path codeLine="80" d="M2120.17,246.77 C2089.2,284.55 2024.7144,363.1904 1993.6944,401.0204 " fill="none" id="digitalocean_image-to-digitalocean_droplet" style="stroke:#1A83AF;stroke-width:2.0;"/><polygon fill="#1A83AF" points="1989.89,405.66,1998.6897,401.2368,1993.0604,401.7936,1992.5036,396.1642,1989.89,405.66" style="stroke:#1A83AF;stroke-width:2.0;"/></g><!--link digitalocean_kubernetes_cluster to digitalocean_droplet--><g id="link_digitalocean_kubernetes_cluster_digitalocean_droplet"><path codeLine="81" d="M1807.09,346.58 C1843.56,363.72 1891.12,386.0874 1927.56,403.2174 " fill="none" id="digitalocean_kubernetes_cluster-to-digitalocean_droplet" style="stroke:#1A83AF;stroke-width:2.0;"/><polygon fill="#1A83AF" points="1932.99,405.77,1926.5468,398.3212,1928.465,403.6429,1923.1434,405.5611,1932.99,405.77" style="stroke:#1A83AF;stroke-width:2.0;"/></g><!--link digitalocean_load_balancer to digitalocean_droplet--><g id="link_digitalocean_load_balancer_digitalocean_droplet"><path codeLine="82" d="M1491.3,346.64 C1601.16,364.48 1756.6976,389.7482 1862.1176,406.8682 " fill="none" id="digitalocean_load_balancer-to-digitalocean_droplet" style="stroke:#1A83AF;stroke-width:2.0;"/><polygon fill="#1A83AF" points="1868.04,407.83,1859.7976,402.439,1863.1047,407.0285,1858.5152,410.3356,1868.04,407.83" style="stroke:#1A83AF;stroke-width:2.0;"/></g><!--link digitalocean_project to digitalocean_database--><g id="link_digitalocean_project_digitalocean_database"><path codeLine="83" d="M2544.18,246.79 C2502.63,263.93 2447.7965,286.5617 2406.2765,303.6917 " fill="none" id="digitalocean_project-to-digitalocean_database" style="stroke:#1A83AF;stroke-width:2.0;"/><polygon fill="#1A83AF" points="2400.73,305.98,2410.5753,306.2452,2405.3521,304.0731,2407.5242,298.8498,2400.73,305.98" style="stroke:#1A83AF;stroke-width:2.0;"/></g><!--link digitalocean_project to digitalocean_domain--><g id="link_digitalocean_project_digitalocean_domain"><path codeLine="84" d="M2695.69,244.34 C2805.91,262.09 2972.6764,288.9553 3084.1164,306.9153 " fill="none" id="digitalocean_project-to-digitalocean_domain" style="stroke:#1A83AF;stroke-width:2.0;"/><polygon fill="#1A83AF" points="3090.04,307.87,3081.7911,302.489,3085.1037,307.0745,3080.5182,310.3871,3090.04,307.87" style="stroke:#1A83AF;stroke-width:2.0;"/></g><!--link digitalocean_project to digitalocean_droplet--><g id="link_digitalocean_project_digitalocean_droplet"><path codeLine="85" d="M2579.79,246.82 C2562.97,273.93 2528.46,322.55 2485,346.15 C2416.96,383.1 2214.578,405.5667 2085.888,416.6167 " fill="none" id="digitalocean_project-to-digitalocean_droplet" style="stroke:#1A83AF;stroke-width:2.0;"/><polygon fill="#1A83AF" points="2079.91,417.13,2089.2192,420.3454,2084.8917,416.7022,2088.5348,412.3747,2079.91,417.13" style="stroke:#1A83AF;stroke-width:2.0;"/></g><!--link digitalocean_project to digitalocean_floating_ip--><g id="link_digitalocean_project_digitalocean_floating_ip"><path codeLine="86" d="M2597.86,246.52 C2617.14,300.11 2669.6486,446.0544 2689.0286,499.9144 " fill="none" id="digitalocean_project-to-digitalocean_floating_ip" style="stroke:#1A83AF;stroke-width:2.0;"/><polygon fill="#1A83AF" points="2691.06,505.56,2691.7766,495.7372,2689.3671,500.8553,2684.2491,498.4458,2691.06,505.56" style="stroke:#1A83AF;stroke-width:2.0;"/></g><!--link digitalocean_project to digitalocean_kubernetes_cluster--><g id="link_digitalocean_project_digitalocean_kubernetes_cluster"><path codeLine="87" d="M2486.09,239.9 C2343.42,256.82 2093.0483,286.4939 1927.8283,306.0739 " fill="none" id="digitalocean_project-to-digitalocean_kubernetes_cluster" style="stroke:#1A83AF;stroke-width:2.0;"/><polygon fill="#1A83AF" points="1921.87,306.78,1931.2782,309.693,1926.8353,306.1916,1930.3367,301.7486,1921.87,306.78" style="stroke:#1A83AF;stroke-width:2.0;"/></g><!--link digitalocean_project to digitalocean_load_balancer--><g id="link_digitalocean_project_digitalocean_load_balancer"><path codeLine="88" d="M2486.09,235.54 C2304.23,249.58 1918.65,279.57 1593,306.36 C1564.79,308.68 1540.5383,310.7207 1511.7783,313.1707 " fill="none" id="digitalocean_project-to-digitalocean_load_balancer" style="stroke:#1A83AF;stroke-width:2.0;"/><polygon fill="#1A83AF" points="1505.8,313.68,1515.107,316.9016,1510.782,313.2556,1514.428,308.9305,1505.8,313.68" style="stroke:#1A83AF;stroke-width:2.0;"/></g><!--link digitalocean_project to digitalocean_space--><g id="link_digitalocean_project_digitalocean_space"><path codeLine="89" d="M2649.28,246.79 C2700.92,263.91 2770.2144,286.8832 2821.8944,304.0032 " fill="none" id="digitalocean_project-to-digitalocean_space" style="stroke:#1A83AF;stroke-width:2.0;"/><polygon fill="#1A83AF" points="2827.59,305.89,2820.3044,299.2627,2822.8437,304.3177,2817.7887,306.8569,2827.59,305.89" style="stroke:#1A83AF;stroke-width:2.0;"/></g><!--link digitalocean_project to digitalocean_volume--><g id="link_digitalocean_project_digitalocean_volume"><path codeLine="90" d="M2585.78,246.75 C2572.93,290.17 2535.46,395.76 2463,445.94 C2409.38,483.07 2344.8855,501.6891 2286.8855,512.1091 " fill="none" id="digitalocean_project-to-digitalocean_volume" style="stroke:#1A83AF;stroke-width:2.0;"/><polygon fill="#1A83AF" points="2280.98,513.17,2290.5455,515.5156,2285.9012,512.2859,2289.1309,507.6416,2280.98,513.17" style="stroke:#1A83AF;stroke-width:2.0;"/></g><!--link digitalocean_region to digitalocean_app--><g id="link_digitalocean_region_digitalocean_app"><path codeLine="91" d="M1946.25,147.07 C1959.16,172.5 1984.67,217.28 2017,246.36 C2102.91,323.65 2222.6746,376.4601 2293.7946,403.6101 " fill="none" id="digitalocean_region-to-digitalocean_app" style="stroke:#1A83AF;stroke-width:2.0;"/><polygon fill="#1A83AF" points="2299.4,405.75,2292.4184,398.8032,2294.7288,403.9668,2289.5653,406.2772,2299.4,405.75" style="stroke:#1A83AF;stroke-width:2.0;"/></g><!--link digitalocean_region to digitalocean_container_registry--><g id="link_digitalocean_region_digitalocean_container_registry"><path codeLine="92" d="M1834.02,135.56 C1660.59,149 1299.24,177.7 994,206.57 C985.29,207.4 982.311,207.6808 973.291,208.5708 " fill="none" id="digitalocean_region-to-digitalocean_container_registry" style="stroke:#1A83AF;stroke-width:2.0;"/><polygon fill="#1A83AF" points="967.32,209.16,976.6693,212.2569,972.2958,208.669,975.8837,204.2956,967.32,209.16" style="stroke:#1A83AF;stroke-width:2.0;"/></g><!--link digitalocean_region to digitalocean_database--><g id="link_digitalocean_region_digitalocean_database"><path codeLine="93" d="M2039.71,136.64 C2105.35,146.19 2190.03,165.9 2255,206.57 C2295.48,231.92 2324.4685,274.2399 2340.2385,300.8199 " fill="none" id="digitalocean_region-to-digitalocean_database" style="stroke:#1A83AF;stroke-width:2.0;"/><polygon fill="#1A83AF" points="2343.3,305.98,2342.1478,296.1988,2340.7487,301.6799,2335.2676,300.2808,2343.3,305.98" style="stroke:#1A83AF;stroke-width:2.0;"/></g><!--link digitalocean_region to digitalocean_droplet--><g id="link_digitalocean_region_digitalocean_droplet"><path codeLine="94" d="M1939.37,146.73 C1946.04,200.32 1964.1593,345.9559 1970.8593,399.8159 " fill="none" id="digitalocean_region-to-digitalocean_droplet" style="stroke:#1A83AF;stroke-width:2.0;"/><polygon fill="#1A83AF" points="1971.6,405.77,1974.4584,396.3451,1970.9828,400.8082,1966.5196,397.3326,1971.6,405.77" style="stroke:#1A83AF;stroke-width:2.0;"/></g><!--link digitalocean_region to digitalocean_floating_ip--><g id="link_digitalocean_region_digitalocean_floating_ip"><path codeLine="95" d="M2039.87,130.61 C2240.57,137.4 2668.69,157.53 2713,206.57 C2790.69,292.56 2733.6067,445.4726 2709.4167,500.1726 " fill="none" id="digitalocean_region-to-digitalocean_floating_ip" style="stroke:#1A83AF;stroke-width:2.0;"/><polygon fill="#1A83AF" points="2706.99,505.66,2714.2883,499.0467,2709.0122,501.0872,2706.9718,495.8112,2706.99,505.66" style="stroke:#1A83AF;stroke-width:2.0;"/></g><!--link digitalocean_region to digitalocean_image--><g id="link_digitalocean_region_digitalocean_image"><path codeLine="96" d="M1976.32,147 C2011.2,164.14 2056.5147,186.4145 2091.3847,203.5445 " fill="none" id="digitalocean_region-to-digitalocean_image" style="stroke:#1A83AF;stroke-width:2.0;"/><polygon fill="#1A83AF" points="2096.77,206.19,2090.4558,198.6315,2092.2823,203.9854,2086.9284,205.8119,2096.77,206.19" style="stroke:#1A83AF;stroke-width:2.0;"/></g><!--link digitalocean_region to digitalocean_kubernetes_cluster--><g id="link_digitalocean_region_digitalocean_kubernetes_cluster"><path codeLine="97" d="M1920.29,146.98 C1887.6,184.76 1819.4458,263.5026 1786.7058,301.3426 " fill="none" id="digitalocean_region-to-digitalocean_kubernetes_cluster" style="stroke:#1A83AF;stroke-width:2.0;"/><polygon fill="#1A83AF" points="1782.78,305.88,1791.6937,301.6912,1786.0515,302.0989,1785.6438,296.4567,1782.78,305.88" style="stroke:#1A83AF;stroke-width:2.0;"/></g><!--link digitalocean_region to digitalocean_load_balancer--><g id="link_digitalocean_region_digitalocean_load_balancer"><path codeLine="98" d="M1834.25,132.74 C1746.43,140.33 1618.56,159.28 1517,206.57 C1464.21,231.16 1418.4618,275.0205 1393.2518,301.8105 " fill="none" id="digitalocean_region-to-digitalocean_load_balancer" style="stroke:#1A83AF;stroke-width:2.0;"/><polygon fill="#1A83AF" points="1389.14,306.18,1398.2208,302.3669,1392.5665,302.5387,1392.3947,296.8845,1389.14,306.18" style="stroke:#1A83AF;stroke-width:2.0;"/></g><!--link digitalocean_region to digitalocean_snapshot--><g id="link_digitalocean_region_digitalocean_snapshot"><path codeLine="99" d="M1834.1,128.47 C1644.29,131.43 1247.35,145.03 1126,206.57 C1062.93,238.57 1020,254.53 1020,325.26 C1020,325.26 1020,325.26 1020,427.05 C1020,522.46 1686.313,590.6852 1960.083,614.7252 " fill="none" id="digitalocean_region-to-digitalocean_snapshot" style="stroke:#1A83AF;stroke-width:2.0;"/><polygon fill="#1A83AF" points="1966.06,615.25,1957.4444,610.4781,1961.0792,614.8126,1956.7446,618.4474,1966.06,615.25" style="stroke:#1A83AF;stroke-width:2.0;"/></g><!--link digitalocean_region to digitalocean_space--><g id="link_digitalocean_region_digitalocean_space"><path codeLine="100" d="M2039.76,128.35 C2234.26,131.08 2648.09,144.27 2775,206.57 C2820.59,228.95 2853.7071,273.4855 2871.2771,300.9555 " fill="none" id="digitalocean_region-to-digitalocean_space" style="stroke:#1A83AF;stroke-width:2.0;"/><polygon fill="#1A83AF" points="2874.51,306.01,2873.0303,296.2729,2871.8159,301.7979,2866.2909,300.5835,2874.51,306.01" style="stroke:#1A83AF;stroke-width:2.0;"/></g><!--link digitalocean_region to digitalocean_vpc--><g id="link_digitalocean_region_digitalocean_vpc"><path codeLine="101" d="M1875.36,147 C1820.75,164.12 1747.1553,187.1854 1692.5053,204.3154 " fill="none" id="digitalocean_region-to-digitalocean_vpc" style="stroke:#1A83AF;stroke-width:2.0;"/><polygon fill="#1A83AF" points="1686.78,206.11,1696.5644,207.235,1691.5511,204.6145,1694.1716,199.6012,1686.78,206.11" style="stroke:#1A83AF;stroke-width:2.0;"/></g><!--link digitalocean_team to digitalocean_alert_policy--><g id="link_digitalocean_team_digitalocean_alert_policy"><path codeLine="102" d="M1923.71,29.62 C1658.41,34.88 905.7,53.71 282,106.79 C273.31,107.52 270.3277,107.7681 261.3077,108.7081 " fill="none" id="digitalocean_team-to-digitalocean_alert_policy" style="stroke:#1A83AF;stroke-width:2.0;"/><polygon fill="#1A83AF" points="255.34,109.33,264.7061,112.3756,260.3131,108.8117,263.8769,104.4187,255.34,109.33" style="stroke:#1A83AF;stroke-width:2.0;"/></g><!--link digitalocean_team to digitalocean_app--><g id="link_digitalocean_team_digitalocean_app"><path codeLine="103" d="M2120.28,30.3 C2247.13,35.61 2473.56,52.59 2659,106.79 C2757.8,135.66 2779.77,153.56 2868,206.57 C2931.96,245 2969.4,239.75 3003,306.36 C3010.96,322.15 3014.73,332.92 3003,346.15 C2966.64,387.2 2621.331,410.9016 2451.301,420.2216 " fill="none" id="digitalocean_team-to-digitalocean_app" style="stroke:#1A83AF;stroke-width:2.0;"/><polygon fill="#1A83AF" points="2445.31,420.55,2454.5154,424.0514,2450.3025,420.2763,2454.0776,416.0634,2445.31,420.55" style="stroke:#1A83AF;stroke-width:2.0;"/></g><!--link digitalocean_team to digitalocean_cdn_endpoint--><g id="link_digitalocean_team_digitalocean_cdn_endpoint"><path codeLine="104" d="M1923.6,31.22 C1697.21,39.37 1122.1,62.96 643,106.79 C637.25,107.31 637.3485,107.276 631.4185,107.886 " fill="none" id="digitalocean_team-to-digitalocean_cdn_endpoint" style="stroke:#1A83AF;stroke-width:2.0;"/><polygon fill="#1A83AF" points="625.45,108.5,634.8121,111.5581,630.4238,107.9884,633.9935,103.6001,625.45,108.5" style="stroke:#1A83AF;stroke-width:2.0;"/></g><!--link digitalocean_team to digitalocean_certificate--><g id="link_digitalocean_team_digitalocean_certificate"><path codeLine="105" d="M1923.69,33.03 C1731.27,43.52 1291.51,69.58 923,106.79 C914.16,107.68 910.9904,107.9918 901.8104,109.0518 " fill="none" id="digitalocean_team-to-digitalocean_certificate" style="stroke:#1A83AF;stroke-width:2.0;"/><polygon fill="#1A83AF" points="895.85,109.74,905.2494,112.6812,900.817,109.1665,904.3318,104.734,895.85,109.74" style="stroke:#1A83AF;stroke-width:2.0;"/></g><!--link digitalocean_team to digitalocean_container_registry--><g id="link_digitalocean_team_digitalocean_container_registry"><path codeLine="106" d="M1923.83,31.51 C1713.38,39.99 1224.98,63.76 1065,106.79 C1043.16,112.66 923.633,171.3997 859.043,203.4997 " fill="none" id="digitalocean_team-to-digitalocean_container_registry" style="stroke:#1A83AF;stroke-width:2.0;"/><polygon fill="#1A83AF" points="853.67,206.17,863.5098,205.7466,858.1475,203.9448,859.9494,198.5825,853.67,206.17" style="stroke:#1A83AF;stroke-width:2.0;"/></g><!--link digitalocean_team to digitalocean_container_registry_repository--><g id="link_digitalocean_team_digitalocean_container_registry_repository"><path codeLine="107" d="M1923.87,28.77 C1697.56,31.84 1145.13,45.56 971,106.79 C941.51,117.15 941.66,134.08 913,146.57 C801.51,195.19 735.1,123.79 646,206.57 C617.92,232.66 611.7904,273.8575 610.4704,300.1875 " fill="none" id="digitalocean_team-to-digitalocean_container_registry_repository" style="stroke:#1A83AF;stroke-width:2.0;"/><polygon fill="#1A83AF" points="610.17,306.18,614.6156,297.3916,610.4204,301.1863,606.6256,296.991,610.17,306.18" style="stroke:#1A83AF;stroke-width:2.0;"/></g><!--link digitalocean_team to digitalocean_container_registry_repository_tag--><g id="link_digitalocean_team_digitalocean_container_registry_repository_tag"><path codeLine="108" d="M1923.52,28.81 C1572.11,32.56 397.78,49.37 343,106.79 C258.15,195.71 385.0508,347.198 436.0208,401.428 " fill="none" id="digitalocean_team-to-digitalocean_container_registry_repository_tag" style="stroke:#1A83AF;stroke-width:2.0;"/><polygon fill="#1A83AF" points="440.13,405.8,436.8809,396.5025,436.7057,402.1567,431.0515,401.9814,440.13,405.8" style="stroke:#1A83AF;stroke-width:2.0;"/></g><!--link digitalocean_team to digitalocean_database--><g id="link_digitalocean_team_digitalocean_database"><path codeLine="109" d="M2120.42,35.42 C2217.14,45.11 2354.92,65.82 2388,106.79 C2435.87,166.07 2392.0189,259.5503 2368.5789,300.9003 " fill="none" id="digitalocean_team-to-digitalocean_database" style="stroke:#1A83AF;stroke-width:2.0;"/><polygon fill="#1A83AF" points="2365.62,306.12,2373.5381,300.2631,2368.0857,301.7703,2366.5785,296.3179,2365.62,306.12" style="stroke:#1A83AF;stroke-width:2.0;"/></g><!--link digitalocean_team to digitalocean_domain--><g id="link_digitalocean_team_digitalocean_domain"><path codeLine="110" d="M2120.34,30.57 C2405.24,38.8 3213.45,65.68 3252,106.79 C3305.19,163.5 3246.5728,259.1858 3216.2628,301.1558 " fill="none" id="digitalocean_team-to-digitalocean_domain" style="stroke:#1A83AF;stroke-width:2.0;"/><polygon fill="#1A83AF" points="3212.75,306.02,3221.262,301.0656,3215.6773,301.9665,3214.7764,296.3819,3212.75,306.02" style="stroke:#1A83AF;stroke-width:2.0;"/></g><!--link digitalocean_team to digitalocean_domain_record--><g id="link_digitalocean_team_digitalocean_domain_record"><path codeLine="111" d="M2120.49,27.18 C2402.86,26.08 3200.61,29.89 3287,106.79 C3367.36,178.31 3350.57,242.16 3323,346.15 C3317.14,368.25 3306.9348,385.7245 3296.1948,400.9745 " fill="none" id="digitalocean_team-to-digitalocean_domain_record" style="stroke:#1A83AF;stroke-width:2.0;"/><polygon fill="#1A83AF" points="3292.74,405.88,3301.1926,400.8249,3295.619,401.792,3294.6518,396.2185,3292.74,405.88" style="stroke:#1A83AF;stroke-width:2.0;"/></g><!--link digitalocean_team to digitalocean_droplet--><g id="link_digitalocean_team_digitalocean_droplet"><path codeLine="112" d="M1923.59,30.38 C1708.39,38.32 1208.57,71.26 1126,206.57 C1088.38,268.22 1197.31,342.99 1203,346.15 C1314.55,408.23 1678.3207,421.5293 1862.2307,424.3093 " fill="none" id="digitalocean_team-to-digitalocean_droplet" style="stroke:#1A83AF;stroke-width:2.0;"/><polygon fill="#1A83AF" points="1868.23,424.4,1859.2915,420.2644,1863.2306,424.3244,1859.1706,428.2635,1868.23,424.4" style="stroke:#1A83AF;stroke-width:2.0;"/></g><!--link digitalocean_team to digitalocean_firewall--><g id="link_digitalocean_team_digitalocean_firewall"><path codeLine="113" d="M1923.55,32.96 C1769.38,42.09 1478.88,64.4 1385,106.79 C1334.02,129.8 1292.3042,174.5067 1269.7642,201.7567 " fill="none" id="digitalocean_team-to-digitalocean_firewall" style="stroke:#1A83AF;stroke-width:2.0;"/><polygon fill="#1A83AF" points="1265.94,206.38,1274.7586,201.9945,1269.1269,202.5272,1268.5941,196.8955,1265.94,206.38" style="stroke:#1A83AF;stroke-width:2.0;"/></g><!--link digitalocean_team to digitalocean_floating_ip--><g id="link_digitalocean_team_digitalocean_floating_ip"><path codeLine="114" d="M2120.34,29.55 C2463,35.71 3586.82,59.47 3647,106.79 C3690.23,140.78 3682,170.48 3682,225.47 C3682,225.47 3682,225.47 3682,327.26 C3682,501.61 3086.6599,524.0753 2824.1699,525.5953 " fill="none" id="digitalocean_team-to-digitalocean_floating_ip" style="stroke:#1A83AF;stroke-width:2.0;"/><polygon fill="#1A83AF" points="2818.17,525.63,2827.193,529.5778,2823.1699,525.601,2827.1467,521.578,2818.17,525.63" style="stroke:#1A83AF;stroke-width:2.0;"/></g><!--link digitalocean_team to digitalocean_image--><g id="link_digitalocean_team_digitalocean_image"><path codeLine="115" d="M2033.14,47.2 C2054.93,84.97 2099.9917,163.0528 2121.8217,200.8928 " fill="none" id="digitalocean_team-to-digitalocean_image" style="stroke:#1A83AF;stroke-width:2.0;"/><polygon fill="#1A83AF" points="2124.82,206.09,2123.7874,196.2954,2122.3215,201.759,2116.8578,200.2931,2124.82,206.09" style="stroke:#1A83AF;stroke-width:2.0;"/></g><!--link digitalocean_team to digitalocean_kubernetes_cluster--><g id="link_digitalocean_team_digitalocean_kubernetes_cluster"><path codeLine="116" d="M1923.58,45.13 C1885.32,56.57 1844.23,75.51 1817,106.79 C1766.23,165.09 1763.3356,258.3332 1764.6856,299.9732 " fill="none" id="digitalocean_team-to-digitalocean_kubernetes_cluster" style="stroke:#1A83AF;stroke-width:2.0;"/><polygon fill="#1A83AF" points="1764.88,305.97,1768.5863,296.8451,1764.718,300.9726,1760.5905,297.1043,1764.88,305.97" style="stroke:#1A83AF;stroke-width:2.0;"/></g><!--link digitalocean_team to digitalocean_load_balancer--><g id="link_digitalocean_team_digitalocean_load_balancer"><path codeLine="117" d="M1923.63,35.54 C1799.9,49.87 1586.96,90.74 1449,206.57 C1415.89,234.37 1394.3944,274.5785 1382.6444,300.4085 " fill="none" id="digitalocean_team-to-digitalocean_load_balancer" style="stroke:#1A83AF;stroke-width:2.0;"/><polygon fill="#1A83AF" points="1380.16,305.87,1387.5276,299.3341,1382.2303,301.3188,1380.2456,296.0215,1380.16,305.87" style="stroke:#1A83AF;stroke-width:2.0;"/></g><!--link digitalocean_team to digitalocean_project--><g id="link_digitalocean_team_digitalocean_project"><path codeLine="118" d="M2120.07,30.36 C2211.9,36.1 2350.82,53.8 2459,106.79 C2508.54,131.05 2549.4937,174.805 2571.9537,201.695 " fill="none" id="digitalocean_team-to-digitalocean_project" style="stroke:#1A83AF;stroke-width:2.0;"/><polygon fill="#1A83AF" points="2575.8,206.3,2573.1005,196.8283,2572.5947,202.4625,2566.9605,201.9568,2575.8,206.3" style="stroke:#1A83AF;stroke-width:2.0;"/></g><!--link digitalocean_team to digitalocean_region--><g id="link_digitalocean_team_digitalocean_region"><path codeLine="119" d="M2005.21,47.21 C1990.31,64.35 1972.5862,84.7416 1957.6962,101.8716 " fill="none" id="digitalocean_team-to-digitalocean_region" style="stroke:#1A83AF;stroke-width:2.0;"/><polygon fill="#1A83AF" points="1953.76,106.4,1962.6832,102.2316,1957.0402,102.6264,1956.6454,96.9833,1953.76,106.4" style="stroke:#1A83AF;stroke-width:2.0;"/></g><!--link digitalocean_team to digitalocean_resource--><g id="link_digitalocean_team_digitalocean_resource"><path codeLine="120" d="M2120.25,34.17 C2294.64,45.71 2669.63,72.3 2985,106.79 C2993.53,107.72 2996.3948,108.0282 3005.2648,109.1182 " fill="none" id="digitalocean_team-to-digitalocean_resource" style="stroke:#1A83AF;stroke-width:2.0;"/><polygon fill="#1A83AF" points="3011.22,109.85,3002.7751,104.7821,3006.2573,109.2402,3001.7993,112.7224,3011.22,109.85" style="stroke:#1A83AF;stroke-width:2.0;"/></g><!--link digitalocean_team to digitalocean_snapshot--><g id="link_digitalocean_team_digitalocean_snapshot"><path codeLine="121" d="M2120.37,29.9 C2468,37.35 3621.32,65.11 3688,106.79 C3739,138.66 3753,165.33 3753,225.47 C3753,225.47 3753,225.47 3753,427.05 C3753,584.43 2576.2192,616.7393 2199.6792,623.0593 " fill="none" id="digitalocean_team-to-digitalocean_snapshot" style="stroke:#1A83AF;stroke-width:2.0;"/><polygon fill="#1A83AF" points="2193.68,623.16,2202.7459,627.0084,2198.6793,623.0761,2202.6116,619.0095,2193.68,623.16" style="stroke:#1A83AF;stroke-width:2.0;"/></g><!--link digitalocean_team to digitalocean_space--><g id="link_digitalocean_team_digitalocean_space"><path codeLine="122" d="M2120.39,38.14 C2311.02,59.81 2721.26,115.87 2827,206.57 C2857.91,233.09 2872.6994,273.8919 2879.8594,300.1119 " fill="none" id="digitalocean_team-to-digitalocean_space" style="stroke:#1A83AF;stroke-width:2.0;"/><polygon fill="#1A83AF" points="2881.44,305.9,2882.9279,296.1642,2880.1229,301.0766,2875.2104,298.2716,2881.44,305.9" style="stroke:#1A83AF;stroke-width:2.0;"/></g><!--link digitalocean_team to digitalocean_ssh_key--><g id="link_digitalocean_team_digitalocean_ssh_key"><path codeLine="123" d="M2120.49,30.89 C2345.03,38.31 2911.97,60.4 3384,106.79 C3392.66,107.64 3395.6528,107.9143 3404.6428,108.9943 " fill="none" id="digitalocean_team-to-digitalocean_ssh_key" style="stroke:#1A83AF;stroke-width:2.0;"/><polygon fill="#1A83AF" points="3410.6,109.71,3402.1414,104.6651,3405.6357,109.1136,3401.1871,112.608,3410.6,109.71" style="stroke:#1A83AF;stroke-width:2.0;"/></g><!--link digitalocean_team to digitalocean_volume--><g id="link_digitalocean_team_digitalocean_volume"><path codeLine="124" d="M2067.29,47.12 C2123.29,73.69 2215.98,127.48 2255,206.57 C2275.61,248.34 2239.3,262.73 2223,306.36 C2196.45,377.44 2182.2156,461.0642 2176.5156,499.7042 " fill="none" id="digitalocean_team-to-digitalocean_volume" style="stroke:#1A83AF;stroke-width:2.0;"/><polygon fill="#1A83AF" points="2175.64,505.64,2180.9106,497.3201,2176.3697,500.6935,2172.9963,496.1526,2175.64,505.64" style="stroke:#1A83AF;stroke-width:2.0;"/></g><!--link digitalocean_team to digitalocean_vpc--><g id="link_digitalocean_team_digitalocean_vpc"><path codeLine="125" d="M1923.74,42.68 C1867.66,54.18 1797.66,73.91 1742,106.79 C1697.66,132.98 1662.0185,175.3364 1642.2285,201.6264 " fill="none" id="digitalocean_team-to-digitalocean_vpc" style="stroke:#1A83AF;stroke-width:2.0;"/><polygon fill="#1A83AF" points="1638.62,206.42,1647.2284,201.6352,1641.627,202.4253,1640.8369,196.8239,1638.62,206.42" style="stroke:#1A83AF;stroke-width:2.0;"/></g><!--link digitalocean_volume to digitalocean_snapshot--><g id="link_digitalocean_volume_digitalocean_snapshot"><path codeLine="126" d="M2154.63,546.16 C2138.32,563.3 2118.7634,583.8609 2102.4734,601.0009 " fill="none" id="digitalocean_volume-to-digitalocean_snapshot" style="stroke:#1A83AF;stroke-width:2.0;"/><polygon fill="#1A83AF" points="2098.34,605.35,2107.4396,601.582,2101.7845,601.7257,2101.6407,596.0707,2098.34,605.35" style="stroke:#1A83AF;stroke-width:2.0;"/></g><!--link digitalocean_vpc to digitalocean_database--><g id="link_digitalocean_vpc_digitalocean_database"><path codeLine="127" d="M1715.49,239.61 C1848.18,257.41 2089.5232,289.7825 2234.3332,309.2025 " fill="none" id="digitalocean_vpc-to-digitalocean_database" style="stroke:#1A83AF;stroke-width:2.0;"/><polygon fill="#1A83AF" points="2240.28,310,2231.8915,304.8392,2235.3244,309.3354,2230.8282,312.7683,2240.28,310" style="stroke:#1A83AF;stroke-width:2.0;"/></g><!--link digitalocean_vpc to digitalocean_droplet--><g id="link_digitalocean_vpc_digitalocean_droplet"><path codeLine="128" d="M1610.63,246.46 C1593.3,271.85 1569.29,317.03 1593,346.15 C1627.17,388.13 1761.8858,407.9039 1862.3358,417.2539 " fill="none" id="digitalocean_vpc-to-digitalocean_droplet" style="stroke:#1A83AF;stroke-width:2.0;"/><polygon fill="#1A83AF" points="1868.31,417.81,1859.7195,412.9931,1863.3315,417.3466,1858.978,420.9587,1868.31,417.81" style="stroke:#1A83AF;stroke-width:2.0;"/></g><!--link digitalocean_vpc to digitalocean_kubernetes_cluster--><g id="link_digitalocean_vpc_digitalocean_kubernetes_cluster"><path codeLine="129" d="M1652.86,246.79 C1677.58,263.93 1708.5697,285.4307 1733.2697,302.5607 " fill="none" id="digitalocean_vpc-to-digitalocean_kubernetes_cluster" style="stroke:#1A83AF;stroke-width:2.0;"/><polygon fill="#1A83AF" points="1738.2,305.98,1733.084,297.5641,1734.0914,303.1306,1728.5249,304.1379,1738.2,305.98" style="stroke:#1A83AF;stroke-width:2.0;"/></g><!--link digitalocean_vpc to digitalocean_load_balancer--><g id="link_digitalocean_vpc_digitalocean_load_balancer"><path codeLine="130" d="M1575.02,246.79 C1530.66,263.93 1471.7965,286.6869 1427.4765,303.8169 " fill="none" id="digitalocean_vpc-to-digitalocean_load_balancer" style="stroke:#1A83AF;stroke-width:2.0;"/><polygon fill="#1A83AF" points="1421.88,305.98,1431.7168,306.4664,1426.5438,304.1774,1428.8327,299.0043,1421.88,305.98" style="stroke:#1A83AF;stroke-width:2.0;"/></g><!--SRC=[fPTDRzim38Rl_XK6UYxGBDZINWPa1OhjKWphRiDWA1QTQ94bGr9IPCF- - -GusHnRDClk5eJlGtszfEIDaf13tOH3NaEz0kSplrMc4KxK-T8v-tnljNNvLLM9QhuO1X-i2QJWKTIGVmIzXw1ACLHytQXoQy3x_4qlz46KsxMpEoExzC49usC8JEYfxhNmVXc2KwjTWDvavDtgjgg6oc7IgxcSBTx1I6QT17UItDpSoDdTK48EDRdkluedzHFoMN_J7cs0qJH7GnnLaxDi5Rr9ZXPwZgDp_2oaL6QTl-tzzwMRapFWBlv_sWXfdrjr9RJl3-C3EB3XqC3zQ5LmTokhHLBy2HENxSxbKgrL4DgM84mXDBXGD5Qhyf3_odudDKs3XKff2Z2oiSe4L1D7K5NSdm2e9EwbK75Z2WThvOCxl5mPVpJMgs1V2HL1h35GYY1MmgFpbhQEUQUZSQWocWqLETjeG3UlKWwUXTPeN5iHedSAXPwHgiKQNS5s5xkMWG2-AFMkzH2cZ0F9OYMqC2KkQfpz0IMwcdRxhS6ZtkvSYSxL6z7uZKMpnmut0VjDiGNK8W5Y2I6nlTMx6asyRyfZY3BqzRUhsV9sldpuVlsUOS-COVzN3j5MG9RsFPunDeKiLGiuSL4EMR88SBZdSovwjWsNwuuzIvVZn3Axn5cY1fbGeZQP6IvhbWcVQta2Ezc4pHsTmAPUDqdKEJGwFW1kXei3uCB7ViQ5KguzjLr6CPF4kA4m4wIzGsCf4v0KwW6IF1Okaw5iGoQOS0t9fhiTZOszHZBnvil6b-Y4otflJHuuj2UXxxzAUU2_fogF8wg1ZQCFWF_9DBxdYMpf6gMWH7D_4P9y6L1agXqGpFaEvq5O1o6uHFyW2Afx4FX4xo38qzt2OheUmKIwLpuBIdSr2XhtD8heFX9OJEh2fP1XupnzON3NttvwSAkNO5BrD8rGVfscB-pw1m00]--></g></svg>