<svg xmlns="http://www.w3.org/2000/svg" width="605" height="1235" viewBox="0 0 605 1235"><rect width="389" height="100.383" x="7" y="1088.64" fill="#3D176E" rx="2.5" ry="2.5" style="stroke:#000d19;stroke-width:.5"/><circle cx="22" cy="1108.534" r="11" fill="#ADD1B2" style="stroke:#181818;stroke-width:1"/><path d="M24.969 1114.175q-.578.297-1.219.438-.64.156-1.344.156-2.5 0-3.828-1.64-1.312-1.657-1.312-4.782t1.312-4.781q1.328-1.657 3.828-1.657.703 0 1.344.157.656.156 1.219.453v2.719q-.625-.579-1.219-.844-.594-.281-1.219-.281-1.343 0-2.031 1.078-.687 1.062-.687 3.156t.687 3.172q.688 1.062 2.031 1.062.625 0 1.219-.265.594-.282 1.219-.86z"/><text x="41" y="1114.42" fill="#D9B8FF" font-family="Helvetica" font-size="17" textLength="347">azure_elastic_pool_per_database_settings</text><path d="M8 1128.429h387" style="stroke:#000d19;stroke-width:.5"/><text x="18" y="1150.424" fill="#D9B8FF" font-family="sans-serif" font-size="14" font-weight="bold" textLength="104">max_capacity</text><text x="122" y="1150.424" fill="#D9B8FF" font-family="sans-serif" font-size="14" textLength="57">: double</text><text x="18" y="1176.721" fill="#D9B8FF" font-family="sans-serif" font-size="14" font-weight="bold" textLength="100">min_capacity</text><text x="118" y="1176.721" fill="#D9B8FF" font-family="sans-serif" font-size="14" textLength="57">: double</text><rect width="131" height="179.273" x="431" y="1049.2" fill="#3D176E" rx="2.5" ry="2.5" style="stroke:#000d19;stroke-width:.5"/><circle cx="448.25" cy="1069.094" r="11" fill="#ADD1B2" style="stroke:#181818;stroke-width:1"/><path d="M451.219 1074.735q-.578.297-1.219.438-.64.156-1.344.156-2.5 0-3.828-1.64-1.312-1.657-1.312-4.782t1.312-4.781q1.328-1.657 3.828-1.657.703 0 1.344.157.656.156 1.219.453v2.719q-.625-.579-1.219-.844-.594-.281-1.219-.281-1.344 0-2.031 1.078-.687 1.062-.687 3.156t.687 3.172q.688 1.062 2.031 1.062.625 0 1.219-.265.594-.282 1.219-.86z"/><text x="467.75" y="1074.98" fill="#D9B8FF" font-family="Helvetica" font-size="17" textLength="84">azure_sku</text><path d="M432 1088.989h129" style="stroke:#000d19;stroke-width:.5"/><text x="442" y="1110.984" fill="#D9B8FF" font-family="sans-serif" font-size="14" font-weight="bold" textLength="65">capacity</text><text x="507" y="1110.984" fill="#D9B8FF" font-family="sans-serif" font-size="14" textLength="44">: int64</text><text x="442" y="1137.281" fill="#D9B8FF" font-family="sans-serif" font-size="14" font-weight="bold" textLength="46">family</text><text x="488" y="1137.281" fill="#D9B8FF" font-family="sans-serif" font-size="14" textLength="48">: string</text><text x="442" y="1163.578" fill="#D9B8FF" font-family="sans-serif" font-size="14" font-weight="bold" textLength="43">name</text><text x="485" y="1163.578" fill="#D9B8FF" font-family="sans-serif" font-size="14" textLength="48">: string</text><text x="442" y="1189.875" fill="#D9B8FF" font-family="sans-serif" font-size="14" font-weight="bold" textLength="32">size</text><text x="474" y="1189.875" fill="#D9B8FF" font-family="sans-serif" font-size="14" textLength="48">: string</text><text x="442" y="1216.172" fill="#D9B8FF" font-family="sans-serif" font-size="14" font-weight="bold" textLength="27">tier</text><text x="469" y="1216.172" fill="#D9B8FF" font-family="sans-serif" font-size="14" textLength="48">: string</text><rect width="499" height="389.648" x="99" y="599.55" fill="#3D176E" rx="2.5" ry="2.5" style="stroke:#000d19;stroke-width:.5"/><circle cx="216.75" cy="619.444" r="11" fill="#ADD1B2" style="stroke:#181818;stroke-width:1"/><path d="M219.719 625.085q-.578.297-1.219.438-.64.156-1.344.156-2.5 0-3.828-1.64-1.312-1.657-1.312-4.782t1.312-4.781q1.328-1.657 3.828-1.657.703 0 1.344.157.656.156 1.219.453v2.719q-.625-.579-1.219-.844-.594-.281-1.219-.281-1.344 0-2.031 1.078-.687 1.062-.687 3.156t.687 3.172q.688 1.062 2.031 1.062.625 0 1.219-.265.594-.282 1.219-.86z"/><text x="242.25" y="625.33" fill="#D9B8FF" font-family="Helvetica" font-size="17" textLength="245">azure_sql_server_elastic_pool</text><path d="M100 639.339h497" style="stroke:#000d19;stroke-width:.5"/><text x="110" y="661.334" fill="#D9B8FF" font-family="sans-serif" font-size="14" font-weight="bold" textLength="107">creation_date</text><text x="217" y="661.334" fill="#D9B8FF" font-family="sans-serif" font-size="14" textLength="70">: datetime</text><text x="110" y="687.631" fill="#D9B8FF" font-family="sans-serif" font-size="14" font-weight="bold" textLength="132">elastic_pool_kind</text><text x="242" y="687.631" fill="#D9B8FF" font-family="sans-serif" font-size="14" textLength="48">: string</text><text x="110" y="713.928" fill="#D9B8FF" font-family="sans-serif" font-size="14" font-weight="bold" textLength="127">elastic_pool_sku</text><text x="237" y="713.928" fill="#D9B8FF" font-family="sans-serif" font-size="14" textLength="80">: azure_sku</text><text x="110" y="740.225" fill="#D9B8FF" font-family="sans-serif" font-size="14" font-weight="bold" textLength="234">high_availability_replica_count</text><text x="344" y="740.225" fill="#D9B8FF" font-family="sans-serif" font-size="14" textLength="44">: int64</text><text x="110" y="766.522" fill="#D9B8FF" font-family="sans-serif" font-size="14" font-weight="bold" textLength="98">license_type</text><text x="208" y="766.522" fill="#D9B8FF" font-family="sans-serif" font-size="14" textLength="48">: string</text><text x="110" y="792.819" fill="#D9B8FF" font-family="sans-serif" font-size="14" font-weight="bold" textLength="62">location</text><text x="172" y="792.819" fill="#D9B8FF" font-family="sans-serif" font-size="14" textLength="48">: string</text><text x="110" y="819.115" fill="#D9B8FF" font-family="sans-serif" font-size="14" font-weight="bold" textLength="234">maintenance_configuration_id</text><text x="344" y="819.115" fill="#D9B8FF" font-family="sans-serif" font-size="14" textLength="48">: string</text><text x="110" y="845.412" fill="#D9B8FF" font-family="sans-serif" font-size="14" font-weight="bold" textLength="122">max_size_bytes</text><text x="232" y="845.412" fill="#D9B8FF" font-family="sans-serif" font-size="14" textLength="44">: int64</text><text x="110" y="871.709" fill="#D9B8FF" font-family="sans-serif" font-size="14" font-weight="bold" textLength="100">min_capacity</text><text x="210" y="871.709" fill="#D9B8FF" font-family="sans-serif" font-size="14" textLength="57">: double</text><text x="110" y="898.006" fill="#D9B8FF" font-family="sans-serif" font-size="14" font-weight="bold" textLength="177">per_database_settings</text><text x="287" y="898.006" fill="#D9B8FF" font-family="sans-serif" font-size="14" textLength="300">: azure_elastic_pool_per_database_settings</text><text x="110" y="924.303" fill="#D9B8FF" font-family="sans-serif" font-size="14" font-weight="bold" textLength="40">state</text><text x="150" y="924.303" fill="#D9B8FF" font-family="sans-serif" font-size="14" textLength="48">: string</text><text x="110" y="950.6" fill="#D9B8FF" font-family="sans-serif" font-size="14" font-weight="bold" textLength="35">type</text><text x="145" y="950.6" fill="#D9B8FF" font-family="sans-serif" font-size="14" textLength="48">: string</text><text x="110" y="976.897" fill="#D9B8FF" font-family="sans-serif" font-size="14" font-weight="bold" textLength="128">zone_redundant</text><text x="238" y="976.897" fill="#D9B8FF" font-family="sans-serif" font-size="14" textLength="65">: boolean</text><rect width="200" height="39.789" x="248.5" y="438.76" fill="#3D176E" rx="2.5" ry="2.5" style="stroke:#000d19;stroke-width:.5"/><circle cx="263.5" cy="458.654" r="11" fill="#ADD1B2" style="stroke:#181818;stroke-width:1"/><path d="M266.469 464.295q-.578.297-1.219.438-.64.156-1.344.156-2.5 0-3.828-1.64-1.312-1.657-1.312-4.782t1.312-4.781q1.328-1.656 3.828-1.656.703 0 1.344.156.656.156 1.219.453v2.719q-.625-.579-1.219-.844-.594-.281-1.219-.281-1.344 0-2.031 1.078-.687 1.062-.687 3.156t.687 3.172q.688 1.062 2.031 1.062.625 0 1.219-.265.594-.281 1.219-.86z"/><text x="282.5" y="464.54" fill="#D9B8FF" font-family="Helvetica" font-size="17" textLength="158">microsoft_resource</text><rect width="227" height="310.758" x="235" y="7" fill="#3D176E" rx="2.5" ry="2.5" style="stroke:#000d19;stroke-width:.5"/><circle cx="303.75" cy="26.895" r="11" fill="#ADD1B2" style="stroke:#181818;stroke-width:1"/><path d="M306.719 32.535q-.578.297-1.219.438-.64.156-1.344.156-2.5 0-3.828-1.64-1.312-1.657-1.312-4.782t1.312-4.781q1.328-1.656 3.828-1.656.703 0 1.344.156.656.156 1.219.453v2.719q-.625-.578-1.219-.844-.594-.281-1.219-.281-1.344 0-2.031 1.078-.687 1.062-.687 3.156t.687 3.172q.688 1.062 2.031 1.062.625 0 1.219-.265.594-.281 1.219-.86z"/><text x="329.25" y="32.78" fill="#D9B8FF" font-family="Helvetica" font-size="17" textLength="71">resource</text><path d="M236 46.789h225" style="stroke:#000d19;stroke-width:.5"/><text x="246" y="68.784" fill="#D9B8FF" font-family="sans-serif" font-size="14" font-weight="bold" textLength="29">age</text><text x="275" y="68.784" fill="#D9B8FF" font-family="sans-serif" font-size="14" textLength="66">: duration</text><text x="246" y="95.081" fill="#D9B8FF" font-family="sans-serif" font-size="14" font-weight="bold" textLength="43">atime</text><text x="289" y="95.081" fill="#D9B8FF" font-family="sans-serif" font-size="14" textLength="70">: datetime</text><text x="246" y="121.378" fill="#D9B8FF" font-family="sans-serif" font-size="14" font-weight="bold" textLength="43">ctime</text><text x="289" y="121.378" fill="#D9B8FF" font-family="sans-serif" font-size="14" textLength="70">: datetime</text><text x="246" y="147.675" fill="#D9B8FF" font-family="sans-serif" font-size="14" font-weight="bold" textLength="14">id</text><text x="260" y="147.675" fill="#D9B8FF" font-family="sans-serif" font-size="14" textLength="48">: string</text><text x="246" y="173.972" fill="#D9B8FF" font-family="sans-serif" font-size="14" font-weight="bold" textLength="33">kind</text><text x="279" y="173.972" fill="#D9B8FF" font-family="sans-serif" font-size="14" textLength="48">: string</text><text x="246" y="200.269" fill="#D9B8FF" font-family="sans-serif" font-size="14" font-weight="bold" textLength="90">last_access</text><text x="336" y="200.269" fill="#D9B8FF" font-family="sans-serif" font-size="14" textLength="66">: duration</text><text x="246" y="226.565" fill="#D9B8FF" font-family="sans-serif" font-size="14" font-weight="bold" textLength="90">last_update</text><text x="336" y="226.565" fill="#D9B8FF" font-family="sans-serif" font-size="14" textLength="66">: duration</text><text x="246" y="252.862" fill="#D9B8FF" font-family="sans-serif" font-size="14" font-weight="bold" textLength="48">mtime</text><text x="294" y="252.862" fill="#D9B8FF" font-family="sans-serif" font-size="14" textLength="70">: datetime</text><text x="246" y="279.159" fill="#D9B8FF" font-family="sans-serif" font-size="14" font-weight="bold" textLength="43">name</text><text x="289" y="279.159" fill="#D9B8FF" font-family="sans-serif" font-size="14" textLength="48">: string</text><text x="246" y="305.456" fill="#D9B8FF" font-family="sans-serif" font-size="14" font-weight="bold" textLength="34">tags</text><text x="280" y="305.456" fill="#D9B8FF" font-family="sans-serif" font-size="14" textLength="171">: dictionary[string, string]</text><path fill="none" d="M265.12 989.62c-15.75 36.68-28.513 66.416-40.064 93.326" style="stroke:#ffaf37;stroke-width:2"/><path fill="#FFAF37" d="m222.69 1088.46 7.226-6.693-5.254 2.098-2.098-5.253z" style="stroke:#ffaf37;stroke-width:2"/><path fill="none" d="M432.45 989.62c8.93 20.68 15.303 35.391 23.303 53.931" style="stroke:#ffaf37;stroke-width:2"/><path fill="#FFAF37" d="m458.13 1049.06.107-9.848-2.088 5.257-5.257-2.088z" style="stroke:#ffaf37;stroke-width:2"/><path fill="none" d="M348.5 497.04v102.41m0-120.41-6 18h12zm0-143.2v102.83m0-120.83-6 18h12z" style="stroke:#ffaf37;stroke-width:2"/></svg>