<?xml version="1.0" encoding="us-ascii" standalone="no"?><svg xmlns="http://www.w3.org/2000/svg" xmlns:xlink="http://www.w3.org/1999/xlink" contentStyleType="text/css" height="1059px" preserveAspectRatio="none" style="width:739px;height:1059px;" version="1.1" viewBox="0 0 739 1059" width="739px" zoomAndPan="magnify"><defs/><g><!--class gateway--><g id="elem_gateway"><rect codeLine="23" fill="#3D176E" height="39.7891" id="gateway" rx="2.5" ry="2.5" style="stroke:#000D19;stroke-width:0.5;" width="114" x="227" y="495.35"/><ellipse cx="242" cy="515.2445" fill="#ADD1B2" rx="11" ry="11" style="stroke:#181818;stroke-width:1.0;"/><path d="M244.9688,520.8852 Q244.3906,521.182 243.75,521.3227 Q243.1094,521.4789 242.4063,521.4789 Q239.9063,521.4789 238.5781,519.8383 Q237.2656,518.182 237.2656,515.057 Q237.2656,511.932 238.5781,510.2758 Q239.9063,508.6195 242.4063,508.6195 Q243.1094,508.6195 243.75,508.7758 Q244.4063,508.932 244.9688,509.2289 L244.9688,511.9477 Q244.3438,511.3695 243.75,511.1039 Q243.1563,510.8227 242.5313,510.8227 Q241.1875,510.8227 240.5,511.9008 Q239.8125,512.9633 239.8125,515.057 Q239.8125,517.1508 240.5,518.2289 Q241.1875,519.2914 242.5313,519.2914 Q243.1563,519.2914 243.75,519.0258 Q244.3438,518.7445 244.9688,518.1664 L244.9688,520.8852 Z " fill="#000000"/><text fill="#D9B8FF" font-family="Helvetica" font-size="17" lengthAdjust="spacing" textLength="72" x="261" y="521.1298">gateway</text></g><!--class gcp_deprecation_status--><g id="elem_gcp_deprecation_status"><rect codeLine="26" fill="#3D176E" height="179.2734" id="gcp_deprecation_status" rx="2.5" ry="2.5" style="stroke:#000D19;stroke-width:0.5;" width="237" x="495.5" y="873.12"/><ellipse cx="510.5" cy="893.0145" fill="#ADD1B2" rx="11" ry="11" style="stroke:#181818;stroke-width:1.0;"/><path d="M513.4688,898.6552 Q512.8906,898.952 512.25,899.0927 Q511.6094,899.2489 510.9063,899.2489 Q508.4063,899.2489 507.0781,897.6083 Q505.7656,895.952 505.7656,892.827 Q505.7656,889.702 507.0781,888.0458 Q508.4063,886.3895 510.9063,886.3895 Q511.6094,886.3895 512.25,886.5458 Q512.9063,886.702 513.4688,886.9989 L513.4688,889.7177 Q512.8438,889.1395 512.25,888.8739 Q511.6563,888.5927 511.0313,888.5927 Q509.6875,888.5927 509,889.6708 Q508.3125,890.7333 508.3125,892.827 Q508.3125,894.9208 509,895.9989 Q509.6875,897.0614 511.0313,897.0614 Q511.6563,897.0614 512.25,896.7958 Q512.8438,896.5145 513.4688,895.9364 L513.4688,898.6552 Z " fill="#000000"/><text fill="#D9B8FF" font-family="Helvetica" font-size="17" lengthAdjust="spacing" textLength="195" x="529.5" y="898.8998">gcp_deprecation_status</text><line style="stroke:#000D19;stroke-width:0.5;" x1="496.5" x2="731.5" y1="912.9091" y2="912.9091"/><text fill="#D9B8FF" font-family="sans-serif" font-size="14" font-weight="bold" lengthAdjust="spacing" textLength="60" x="506.5" y="934.9042">deleted</text><text fill="#D9B8FF" font-family="sans-serif" font-size="14" lengthAdjust="spacing" textLength="48" x="566.5" y="934.9042">: string</text><text fill="#D9B8FF" font-family="sans-serif" font-size="14" font-weight="bold" lengthAdjust="spacing" textLength="91" x="506.5" y="961.2011">deprecated</text><text fill="#D9B8FF" font-family="sans-serif" font-size="14" lengthAdjust="spacing" textLength="48" x="597.5" y="961.2011">: string</text><text fill="#D9B8FF" font-family="sans-serif" font-size="14" font-weight="bold" lengthAdjust="spacing" textLength="69" x="506.5" y="987.4979">obsolete</text><text fill="#D9B8FF" font-family="sans-serif" font-size="14" lengthAdjust="spacing" textLength="48" x="575.5" y="987.4979">: string</text><text fill="#D9B8FF" font-family="sans-serif" font-size="14" font-weight="bold" lengthAdjust="spacing" textLength="99" x="506.5" y="1013.7948">replacement</text><text fill="#D9B8FF" font-family="sans-serif" font-size="14" lengthAdjust="spacing" textLength="48" x="605.5" y="1013.7948">: string</text><text fill="#D9B8FF" font-family="sans-serif" font-size="14" font-weight="bold" lengthAdjust="spacing" textLength="40" x="506.5" y="1040.0917">state</text><text fill="#D9B8FF" font-family="sans-serif" font-size="14" lengthAdjust="spacing" textLength="48" x="546.5" y="1040.0917">: string</text></g><!--class gcp_external_vpn_gateway--><g id="elem_gcp_external_vpn_gateway"><rect codeLine="33" fill="#3D176E" height="100.3828" id="gcp_external_vpn_gateway" rx="2.5" ry="2.5" style="stroke:#000D19;stroke-width:0.5;" width="554" x="7" y="712.73"/><ellipse cx="160.75" cy="732.6245" fill="#ADD1B2" rx="11" ry="11" style="stroke:#181818;stroke-width:1.0;"/><path d="M163.7188,738.2652 Q163.1406,738.562 162.5,738.7027 Q161.8594,738.8589 161.1563,738.8589 Q158.6563,738.8589 157.3281,737.2183 Q156.0156,735.562 156.0156,732.437 Q156.0156,729.312 157.3281,727.6558 Q158.6563,725.9995 161.1563,725.9995 Q161.8594,725.9995 162.5,726.1558 Q163.1563,726.312 163.7188,726.6089 L163.7188,729.3277 Q163.0938,728.7495 162.5,728.4839 Q161.9063,728.2027 161.2813,728.2027 Q159.9375,728.2027 159.25,729.2808 Q158.5625,730.3433 158.5625,732.437 Q158.5625,734.5308 159.25,735.6089 Q159.9375,736.6714 161.2813,736.6714 Q161.9063,736.6714 162.5,736.4058 Q163.0938,736.1245 163.7188,735.5464 L163.7188,738.2652 Z " fill="#000000"/><text fill="#D9B8FF" font-family="Helvetica" font-size="17" lengthAdjust="spacing" textLength="228" x="186.25" y="738.5098">gcp_external_vpn_gateway</text><line style="stroke:#000D19;stroke-width:0.5;" x1="8" x2="560" y1="752.5191" y2="752.5191"/><text fill="#D9B8FF" font-family="sans-serif" font-size="14" font-weight="bold" lengthAdjust="spacing" textLength="262" x="18" y="774.5142">external_vpn_gateway_interfaces</text><text fill="#D9B8FF" font-family="sans-serif" font-size="14" lengthAdjust="spacing" textLength="270" x="280" y="774.5142">: gcp_external_vpn_gateway_interface[]</text><text fill="#D9B8FF" font-family="sans-serif" font-size="14" font-weight="bold" lengthAdjust="spacing" textLength="136" x="18" y="800.8111">redundancy_type</text><text fill="#D9B8FF" font-family="sans-serif" font-size="14" lengthAdjust="spacing" textLength="48" x="154" y="800.8111">: string</text></g><!--class gcp_external_vpn_gateway_interface--><g id="elem_gcp_external_vpn_gateway_interface"><rect codeLine="37" fill="#3D176E" height="100.3828" id="gcp_external_vpn_gateway_interface" rx="2.5" ry="2.5" style="stroke:#000D19;stroke-width:0.5;" width="353" x="107.5" y="912.56"/><ellipse cx="122.5" cy="932.4545" fill="#ADD1B2" rx="11" ry="11" style="stroke:#181818;stroke-width:1.0;"/><path d="M125.4688,938.0952 Q124.8906,938.392 124.25,938.5327 Q123.6094,938.6889 122.9063,938.6889 Q120.4063,938.6889 119.0781,937.0483 Q117.7656,935.392 117.7656,932.267 Q117.7656,929.142 119.0781,927.4858 Q120.4063,925.8295 122.9063,925.8295 Q123.6094,925.8295 124.25,925.9858 Q124.9063,926.142 125.4688,926.4389 L125.4688,929.1577 Q124.8438,928.5795 124.25,928.3139 Q123.6563,928.0327 123.0313,928.0327 Q121.6875,928.0327 121,929.1108 Q120.3125,930.1733 120.3125,932.267 Q120.3125,934.3608 121,935.4389 Q121.6875,936.5014 123.0313,936.5014 Q123.6563,936.5014 124.25,936.2358 Q124.8438,935.9545 125.4688,935.3764 L125.4688,938.0952 Z " fill="#000000"/><text fill="#D9B8FF" font-family="Helvetica" font-size="17" lengthAdjust="spacing" textLength="311" x="141.5" y="938.3398">gcp_external_vpn_gateway_interface</text><line style="stroke:#000D19;stroke-width:0.5;" x1="108.5" x2="459.5" y1="952.3491" y2="952.3491"/><text fill="#D9B8FF" font-family="sans-serif" font-size="14" font-weight="bold" lengthAdjust="spacing" textLength="14" x="118.5" y="974.3442">id</text><text fill="#D9B8FF" font-family="sans-serif" font-size="14" lengthAdjust="spacing" textLength="44" x="132.5" y="974.3442">: int64</text><text fill="#D9B8FF" font-family="sans-serif" font-size="14" font-weight="bold" lengthAdjust="spacing" textLength="85" x="118.5" y="1000.6411">ip_address</text><text fill="#D9B8FF" font-family="sans-serif" font-size="14" lengthAdjust="spacing" textLength="48" x="203.5" y="1000.6411">: string</text></g><!--class gcp_resource--><g id="elem_gcp_resource"><rect codeLine="41" fill="#3D176E" height="152.9766" id="gcp_resource" rx="2.5" ry="2.5" style="stroke:#000D19;stroke-width:0.5;" width="348" x="376" y="438.76"/><ellipse cx="486.75" cy="458.6545" fill="#ADD1B2" rx="11" ry="11" style="stroke:#181818;stroke-width:1.0;"/><path d="M489.7188,464.2952 Q489.1406,464.592 488.5,464.7327 Q487.8594,464.8889 487.1563,464.8889 Q484.6563,464.8889 483.3281,463.2483 Q482.0156,461.592 482.0156,458.467 Q482.0156,455.342 483.3281,453.6858 Q484.6563,452.0295 487.1563,452.0295 Q487.8594,452.0295 488.5,452.1858 Q489.1563,452.342 489.7188,452.6389 L489.7188,455.3577 Q489.0938,454.7795 488.5,454.5139 Q487.9063,454.2327 487.2813,454.2327 Q485.9375,454.2327 485.25,455.3108 Q484.5625,456.3733 484.5625,458.467 Q484.5625,460.5608 485.25,461.6389 Q485.9375,462.7014 487.2813,462.7014 Q487.9063,462.7014 488.5,462.4358 Q489.0938,462.1545 489.7188,461.5764 L489.7188,464.2952 Z " fill="#000000"/><text fill="#D9B8FF" font-family="Helvetica" font-size="17" lengthAdjust="spacing" textLength="108" x="512.25" y="464.5398">gcp_resource</text><line style="stroke:#000D19;stroke-width:0.5;" x1="377" x2="723" y1="478.5491" y2="478.5491"/><text fill="#D9B8FF" font-family="sans-serif" font-size="14" font-weight="bold" lengthAdjust="spacing" textLength="151" x="387" y="500.5442">deprecation_status</text><text fill="#D9B8FF" font-family="sans-serif" font-size="14" lengthAdjust="spacing" textLength="175" x="538" y="500.5442">: gcp_deprecation_status</text><text fill="#D9B8FF" font-family="sans-serif" font-size="14" font-weight="bold" lengthAdjust="spacing" textLength="89" x="387" y="526.8411">description</text><text fill="#D9B8FF" font-family="sans-serif" font-size="14" lengthAdjust="spacing" textLength="48" x="476" y="526.8411">: string</text><text fill="#D9B8FF" font-family="sans-serif" font-size="14" font-weight="bold" lengthAdjust="spacing" textLength="128" x="387" y="553.1379">label_fingerprint</text><text fill="#D9B8FF" font-family="sans-serif" font-size="14" lengthAdjust="spacing" textLength="48" x="515" y="553.1379">: string</text><text fill="#D9B8FF" font-family="sans-serif" font-size="14" font-weight="bold" lengthAdjust="spacing" textLength="27" x="387" y="579.4348">link</text><text fill="#D9B8FF" font-family="sans-serif" font-size="14" lengthAdjust="spacing" textLength="48" x="414" y="579.4348">: string</text></g><!--class resource--><g id="elem_resource"><rect codeLine="47" fill="#3D176E" height="310.7578" id="resource" rx="2.5" ry="2.5" style="stroke:#000D19;stroke-width:0.5;" width="227" x="302.5" y="7"/><ellipse cx="371.25" cy="26.8945" fill="#ADD1B2" rx="11" ry="11" style="stroke:#181818;stroke-width:1.0;"/><path d="M374.2188,32.5352 Q373.6406,32.832 373,32.9727 Q372.3594,33.1289 371.6563,33.1289 Q369.1563,33.1289 367.8281,31.4883 Q366.5156,29.832 366.5156,26.707 Q366.5156,23.582 367.8281,21.9258 Q369.1563,20.2695 371.6563,20.2695 Q372.3594,20.2695 373,20.4258 Q373.6563,20.582 374.2188,20.8789 L374.2188,23.5977 Q373.5938,23.0195 373,22.7539 Q372.4063,22.4727 371.7813,22.4727 Q370.4375,22.4727 369.75,23.5508 Q369.0625,24.6133 369.0625,26.707 Q369.0625,28.8008 369.75,29.8789 Q370.4375,30.9414 371.7813,30.9414 Q372.4063,30.9414 373,30.6758 Q373.5938,30.3945 374.2188,29.8164 L374.2188,32.5352 Z " fill="#000000"/><text fill="#D9B8FF" font-family="Helvetica" font-size="17" lengthAdjust="spacing" textLength="71" x="396.75" y="32.7798">resource</text><line style="stroke:#000D19;stroke-width:0.5;" x1="303.5" x2="528.5" y1="46.7891" y2="46.7891"/><text fill="#D9B8FF" font-family="sans-serif" font-size="14" font-weight="bold" lengthAdjust="spacing" textLength="29" x="313.5" y="68.7842">age</text><text fill="#D9B8FF" font-family="sans-serif" font-size="14" lengthAdjust="spacing" textLength="66" x="342.5" y="68.7842">: duration</text><text fill="#D9B8FF" font-family="sans-serif" font-size="14" font-weight="bold" lengthAdjust="spacing" textLength="43" x="313.5" y="95.0811">atime</text><text fill="#D9B8FF" font-family="sans-serif" font-size="14" lengthAdjust="spacing" textLength="70" x="356.5" y="95.0811">: datetime</text><text fill="#D9B8FF" font-family="sans-serif" font-size="14" font-weight="bold" lengthAdjust="spacing" textLength="43" x="313.5" y="121.3779">ctime</text><text fill="#D9B8FF" font-family="sans-serif" font-size="14" lengthAdjust="spacing" textLength="70" x="356.5" y="121.3779">: datetime</text><text fill="#D9B8FF" font-family="sans-serif" font-size="14" font-weight="bold" lengthAdjust="spacing" textLength="14" x="313.5" y="147.6748">id</text><text fill="#D9B8FF" font-family="sans-serif" font-size="14" lengthAdjust="spacing" textLength="48" x="327.5" y="147.6748">: string</text><text fill="#D9B8FF" font-family="sans-serif" font-size="14" font-weight="bold" lengthAdjust="spacing" textLength="33" x="313.5" y="173.9717">kind</text><text fill="#D9B8FF" font-family="sans-serif" font-size="14" lengthAdjust="spacing" textLength="48" x="346.5" y="173.9717">: string</text><text fill="#D9B8FF" font-family="sans-serif" font-size="14" font-weight="bold" lengthAdjust="spacing" textLength="90" x="313.5" y="200.2686">last_access</text><text fill="#D9B8FF" font-family="sans-serif" font-size="14" lengthAdjust="spacing" textLength="66" x="403.5" y="200.2686">: duration</text><text fill="#D9B8FF" font-family="sans-serif" font-size="14" font-weight="bold" lengthAdjust="spacing" textLength="90" x="313.5" y="226.5654">last_update</text><text fill="#D9B8FF" font-family="sans-serif" font-size="14" lengthAdjust="spacing" textLength="66" x="403.5" y="226.5654">: duration</text><text fill="#D9B8FF" font-family="sans-serif" font-size="14" font-weight="bold" lengthAdjust="spacing" textLength="48" x="313.5" y="252.8623">mtime</text><text fill="#D9B8FF" font-family="sans-serif" font-size="14" lengthAdjust="spacing" textLength="70" x="361.5" y="252.8623">: datetime</text><text fill="#D9B8FF" font-family="sans-serif" font-size="14" font-weight="bold" lengthAdjust="spacing" textLength="43" x="313.5" y="279.1592">name</text><text fill="#D9B8FF" font-family="sans-serif" font-size="14" lengthAdjust="spacing" textLength="48" x="356.5" y="279.1592">: string</text><text fill="#D9B8FF" font-family="sans-serif" font-size="14" font-weight="bold" lengthAdjust="spacing" textLength="34" x="313.5" y="305.4561">tags</text><text fill="#D9B8FF" font-family="sans-serif" font-size="14" lengthAdjust="spacing" textLength="171" x="347.5" y="305.4561">: dictionary[string, string]</text></g><!--reverse link resource to gateway--><g id="link_resource_gateway"><path codeLine="59" d="M351.4733,334.8877 C325.4233,404.1477 304.05,460.94 291.25,494.96 " fill="none" id="resource-backto-gateway" style="stroke:#FFAF37;stroke-width:2.0;"/><polygon fill="none" points="357.81,318.04,345.8573,332.7755,357.0892,337,357.81,318.04" style="stroke:#FFAF37;stroke-width:2.0;"/></g><!--reverse link gateway to gcp_external_vpn_gateway--><g id="link_gateway_gcp_external_vpn_gateway"><path codeLine="60" d="M284,553.52 C284,591.31 284,658.14 284,712.56 " fill="none" id="gateway-backto-gcp_external_vpn_gateway" style="stroke:#FFAF37;stroke-width:2.0;"/><polygon fill="none" points="284,535.52,278,553.52,290,553.52,284,535.52" style="stroke:#FFAF37;stroke-width:2.0;"/></g><!--link gcp_external_vpn_gateway to gcp_deprecation_status--><g id="link_gcp_external_vpn_gateway_gcp_deprecation_status"><path codeLine="61" d="M375.02,813.55 C407.75,831.82 444.79,852.98 478,873.12 C483.66,876.55 484.3376,876.9271 490.1476,880.5471 " fill="none" id="gcp_external_vpn_gateway-to-gcp_deprecation_status" style="stroke:#FFAF37;stroke-width:2.0;"/><polygon fill="#FFAF37" points="495.24,883.72,489.7166,875.5657,490.9963,881.0759,485.4861,882.3556,495.24,883.72" style="stroke:#FFAF37;stroke-width:2.0;"/></g><!--link gcp_external_vpn_gateway to gcp_external_vpn_gateway_interface--><g id="link_gcp_external_vpn_gateway_gcp_external_vpn_gateway_interface"><path codeLine="62" d="M284,813.59 C284,843.69 284,875.96 284,906.07 " fill="none" id="gcp_external_vpn_gateway-to-gcp_external_vpn_gateway_interface" style="stroke:#FFAF37;stroke-width:2.0;"/><polygon fill="#FFAF37" points="284,912.07,288,903.07,284,907.07,280,903.07,284,912.07" style="stroke:#FFAF37;stroke-width:2.0;"/></g><!--reverse link gcp_resource to gcp_external_vpn_gateway--><g id="link_gcp_resource_gcp_external_vpn_gateway"><path codeLine="63" d="M454.7974,604.1732 C412.3574,643.3732 374.98,677.9 337.59,712.43 " fill="none" id="gcp_resource-backto-gcp_external_vpn_gateway" style="stroke:#FFAF37;stroke-width:2.0;"/><polygon fill="none" points="468.02,591.96,450.7263,599.7656,458.8684,608.5807,468.02,591.96" style="stroke:#FFAF37;stroke-width:2.0;"/></g><!--link gcp_resource to gcp_deprecation_status--><g id="link_gcp_resource_gcp_deprecation_status"><path codeLine="64" d="M560.89,592.07 C572.06,669.82 588.5667,784.721 600.3767,866.921 " fill="none" id="gcp_resource-to-gcp_deprecation_status" style="stroke:#FFAF37;stroke-width:2.0;"/><polygon fill="#FFAF37" points="601.23,872.86,603.9094,863.3826,600.5189,867.9108,595.9907,864.5203,601.23,872.86" style="stroke:#FFAF37;stroke-width:2.0;"/></g><!--reverse link resource to gcp_resource--><g id="link_resource_gcp_resource"><path codeLine="65" d="M481.49,334.8562 C497.41,376.5562 507.53,403.04 521,438.31 " fill="none" id="resource-backto-gcp_resource" style="stroke:#FFAF37;stroke-width:2.0;"/><polygon fill="none" points="475.07,318.04,475.8846,336.9962,487.0954,332.7162,475.07,318.04" style="stroke:#FFAF37;stroke-width:2.0;"/></g><!--SRC=[bPFRRjim38Rl_HG6UcSiGBDkJJCC0xe0mtPJ3ElkYi9W93eHOai29JVB3ky-oOT4FYNRdVNp4_cJehU2Ouo5jeUum6ADP2Ap4r83GH7V4wdzIkMAugiiW-ncqGz-Kj9U11wWmFWpvYze1OC-yNqhs4wYCV7h8FGHs6v3gfIyJcy9f74Xb3QWLZaOSsyjYNLfCJ33b-kxBEkJ_QHNDto-kCK1feWZDSZrzJMVB_l8nL9d-puIZ-8dnlDmQ0_Aui3ce4H5dNNfYS3aeD4sFkdnAt0kv2P-6sZVQayaaJhwunQusdiwWzo4POn5GcKF6bU3hd1vnxF5AFnb2ewO7rsy0OjxECI_ekXFAp6TSjI43AnGCZKMR6aSaIGSSxJ8a-ITAq7EPgNLQ4zMQwCyt149TGuC2xTx7TsN2CdG2lvmpKZ8qnSjqvFT91aBf48wCNCrZ4ytTV-4FJrNjhYR3qXsIFtC_iF8AL5bILGpSDhj6t_IgNjwSZ_aH4ONKYKrTuSZRpiOHYhSC1BQYvrHvh36FCtS0KaxhJleNCZTY9cE4TXK4-0bLIMzOaLHQwvh_-qqDgA9xWguTUGzRyQcm5WpaQ125IarRzOWY1GZTIGKtRsoiAap2kQl0HsUwjYhXdbshHwRVFzxDfkrcn-rAzMe4myTJQxYRFPXwfKktZc_Kb5dH_x1tv4zusaaNoj5Vm40]--></g></svg>