<svg xmlns="http://www.w3.org/2000/svg" width="3634" height="352" viewBox="0 0 3634 352"><rect width="251" height="39.789" x="7" y="7" fill="#3D176E" rx="2.5" ry="2.5" style="stroke:#000d19;stroke-width:.5"/><circle cx="22" cy="26.895" r="11" fill="#ADD1B2" style="stroke:#181818;stroke-width:1"/><path d="M24.969 32.535q-.578.297-1.219.438-.64.156-1.344.156-2.5 0-3.828-1.64-1.312-1.657-1.312-4.782t1.312-4.781q1.328-1.656 3.828-1.656.703 0 1.344.156.656.156 1.219.453v2.719q-.625-.578-1.219-.844-.594-.281-1.219-.281-1.343 0-2.031 1.078-.687 1.062-.687 3.156t.687 3.172q.688 1.062 2.031 1.062.625 0 1.219-.265.594-.281 1.219-.86z"/><text x="41" y="32.78" fill="#D9B8FF" font-family="Helvetica" font-size="17" textLength="209">aws_athena_work_group</text><rect width="171" height="39.789" x="333" y="206.58" fill="#3D176E" rx="2.5" ry="2.5" style="stroke:#000d19;stroke-width:.5"/><circle cx="348" cy="226.475" r="11" fill="#ADD1B2" style="stroke:#181818;stroke-width:1"/><path d="M350.969 232.115q-.578.297-1.219.438-.64.156-1.344.156-2.5 0-3.828-1.64-1.312-1.657-1.312-4.782t1.312-4.781q1.328-1.656 3.828-1.656.703 0 1.344.156.656.156 1.219.453v2.719q-.625-.578-1.219-.844-.594-.281-1.219-.281-1.344 0-2.031 1.078-.687 1.062-.687 3.156t.687 3.172q.688 1.062 2.031 1.062.625 0 1.219-.265.594-.281 1.219-.86z"/><text x="367" y="232.36" fill="#D9B8FF" font-family="Helvetica" font-size="17" textLength="129">aws_cloud_trail</text><rect width="274" height="39.789" x="539.5" y="206.58" fill="#3D176E" rx="2.5" ry="2.5" style="stroke:#000d19;stroke-width:.5"/><circle cx="554.5" cy="226.475" r="11" fill="#ADD1B2" style="stroke:#181818;stroke-width:1"/><path d="M557.469 232.115q-.578.297-1.219.438-.64.156-1.344.156-2.5 0-3.828-1.64-1.312-1.657-1.312-4.782t1.312-4.781q1.328-1.656 3.828-1.656.703 0 1.344.156.656.156 1.219.453v2.719q-.625-.578-1.219-.844-.594-.281-1.219-.281-1.343 0-2.031 1.078-.687 1.062-.687 3.156t.687 3.172q.688 1.062 2.031 1.062.625 0 1.219-.265.594-.281 1.219-.86z"/><text x="573.5" y="232.36" fill="#D9B8FF" font-family="Helvetica" font-size="17" textLength="232">aws_cloudfront_distribution</text><rect width="192" height="39.789" x="848.5" y="206.58" fill="#3D176E" rx="2.5" ry="2.5" style="stroke:#000d19;stroke-width:.5"/><circle cx="863.5" cy="226.475" r="11" fill="#ADD1B2" style="stroke:#181818;stroke-width:1"/><path d="M866.469 232.115q-.578.297-1.219.438-.64.156-1.344.156-2.5 0-3.828-1.64-1.312-1.657-1.312-4.782t1.312-4.781q1.328-1.656 3.828-1.656.703 0 1.344.156.656.156 1.219.453v2.719q-.625-.578-1.219-.844-.594-.281-1.219-.281-1.343 0-2.031 1.078-.687 1.062-.687 3.156t.687 3.172q.688 1.062 2.031 1.062.625 0 1.219-.265.594-.281 1.219-.86z"/><text x="882.5" y="232.36" fill="#D9B8FF" font-family="Helvetica" font-size="17" textLength="150">aws_ec2_flow_log</text><rect width="175" height="39.789" x="1076" y="206.58" fill="#3D176E" rx="2.5" ry="2.5" style="stroke:#000d19;stroke-width:.5"/><circle cx="1091" cy="226.475" r="11" fill="#ADD1B2" style="stroke:#181818;stroke-width:1"/><path d="M1093.969 232.115q-.578.297-1.219.438-.64.156-1.344.156-2.5 0-3.828-1.64-1.312-1.657-1.312-4.782t1.312-4.781q1.328-1.656 3.828-1.656.703 0 1.344.156.656.156 1.219.453v2.719q-.625-.578-1.219-.844-.594-.281-1.219-.281-1.343 0-2.031 1.078-.687 1.062-.687 3.156t.687 3.172q.688 1.062 2.031 1.062.625 0 1.219-.265.594-.281 1.219-.86z"/><text x="1110" y="232.36" fill="#D9B8FF" font-family="Helvetica" font-size="17" textLength="133">aws_ecs_cluster</text><rect width="137" height="39.789" x="1286" y="206.58" fill="#3D176E" rx="2.5" ry="2.5" style="stroke:#000d19;stroke-width:.5"/><circle cx="1301" cy="226.475" r="11" fill="#ADD1B2" style="stroke:#181818;stroke-width:1"/><path d="M1303.969 232.115q-.578.297-1.219.438-.64.156-1.344.156-2.5 0-3.828-1.64-1.312-1.657-1.312-4.782t1.312-4.781q1.328-1.656 3.828-1.656.703 0 1.344.156.656.156 1.219.453v2.719q-.625-.578-1.219-.844-.594-.281-1.219-.281-1.343 0-2.031 1.078-.687 1.062-.687 3.156t.687 3.172q.688 1.062 2.031 1.062.625 0 1.219-.265.594-.281 1.219-.86z"/><text x="1320" y="232.36" fill="#D9B8FF" font-family="Helvetica" font-size="17" textLength="95">aws_region</text><rect width="168" height="39.789" x="1489.5" y="306.37" fill="#3D176E" rx="2.5" ry="2.5" style="stroke:#000d19;stroke-width:.5"/><circle cx="1504.5" cy="326.264" r="11" fill="#ADD1B2" style="stroke:#181818;stroke-width:1"/><path d="M1507.469 331.905q-.578.297-1.219.438-.64.156-1.344.156-2.5 0-3.828-1.64-1.312-1.657-1.312-4.782t1.312-4.781q1.328-1.656 3.828-1.656.703 0 1.344.156.656.156 1.219.453v2.719q-.625-.579-1.219-.844-.594-.281-1.219-.281-1.343 0-2.031 1.078-.687 1.062-.687 3.156t.687 3.172q.688 1.062 2.031 1.062.625 0 1.219-.265.594-.281 1.219-.86z"/><text x="1523.5" y="332.15" fill="#D9B8FF" font-family="Helvetica" font-size="17" textLength="126">aws_s3_bucket</text><rect width="288" height="39.789" x="346.5" y="7" fill="#3D176E" rx="2.5" ry="2.5" style="stroke:#000d19;stroke-width:.5"/><circle cx="361.5" cy="26.895" r="11" fill="#ADD1B2" style="stroke:#181818;stroke-width:1"/><path d="M364.469 32.535q-.578.297-1.219.438-.64.156-1.344.156-2.5 0-3.828-1.64-1.312-1.657-1.312-4.782t1.312-4.781q1.328-1.656 3.828-1.656.703 0 1.344.156.656.156 1.219.453v2.719q-.625-.578-1.219-.844-.594-.281-1.219-.281-1.344 0-2.031 1.078-.687 1.062-.687 3.156t.687 3.172q.688 1.062 2.031 1.062.625 0 1.219-.265.594-.281 1.219-.86z"/><text x="380.5" y="32.78" fill="#D9B8FF" font-family="Helvetica" font-size="17" textLength="246">aws_sagemaker_auto_ml_job</text><rect width="317" height="39.789" x="2328" y="206.58" fill="#3D176E" rx="2.5" ry="2.5" style="stroke:#000d19;stroke-width:.5"/><circle cx="2343" cy="226.475" r="11" fill="#ADD1B2" style="stroke:#181818;stroke-width:1"/><path d="M2345.969 232.115q-.578.297-1.219.438-.64.156-1.344.156-2.5 0-3.828-1.64-1.312-1.657-1.312-4.782t1.312-4.781q1.328-1.656 3.828-1.656.703 0 1.344.156.656.156 1.219.453v2.719q-.625-.578-1.219-.844-.594-.281-1.219-.281-1.343 0-2.031 1.078-.687 1.062-.687 3.156t.687 3.172q.688 1.062 2.031 1.062.625 0 1.219-.265.594-.281 1.219-.86z"/><text x="2362" y="232.36" fill="#D9B8FF" font-family="Helvetica" font-size="17" textLength="275">aws_sagemaker_compilation_job</text><rect width="248" height="39.789" x="2679.5" y="206.58" fill="#3D176E" rx="2.5" ry="2.5" style="stroke:#000d19;stroke-width:.5"/><circle cx="2694.5" cy="226.475" r="11" fill="#ADD1B2" style="stroke:#181818;stroke-width:1"/><path d="M2697.469 232.115q-.578.297-1.219.438-.64.156-1.344.156-2.5 0-3.828-1.64-1.312-1.657-1.312-4.782t1.312-4.781q1.328-1.656 3.828-1.656.703 0 1.344.156.656.156 1.219.453v2.719q-.625-.578-1.219-.844-.594-.281-1.219-.281-1.343 0-2.031 1.078-.687 1.062-.687 3.156t.687 3.172q.688 1.062 2.031 1.062.625 0 1.219-.265.594-.281 1.219-.86z"/><text x="2713.5" y="232.36" fill="#D9B8FF" font-family="Helvetica" font-size="17" textLength="206">aws_sagemaker_domain</text><rect width="259" height="39.789" x="3033" y="206.58" fill="#3D176E" rx="2.5" ry="2.5" style="stroke:#000d19;stroke-width:.5"/><circle cx="3048" cy="226.475" r="11" fill="#ADD1B2" style="stroke:#181818;stroke-width:1"/><path d="M3050.969 232.115q-.578.297-1.219.438-.64.156-1.344.156-2.5 0-3.828-1.64-1.312-1.657-1.312-4.782t1.312-4.781q1.328-1.656 3.828-1.656.703 0 1.344.156.656.156 1.219.453v2.719q-.625-.578-1.219-.844-.594-.281-1.219-.281-1.343 0-2.031 1.078-.687 1.062-.687 3.156t.687 3.172q.688 1.062 2.031 1.062.625 0 1.219-.265.594-.281 1.219-.86z"/><text x="3067" y="232.36" fill="#D9B8FF" font-family="Helvetica" font-size="17" textLength="217">aws_sagemaker_endpoint</text><rect width="428" height="39.789" x="1190.5" y="106.79" fill="#3D176E" rx="2.5" ry="2.5" style="stroke:#000d19;stroke-width:.5"/><circle cx="1205.5" cy="126.684" r="11" fill="#ADD1B2" style="stroke:#181818;stroke-width:1"/><path d="M1208.469 132.325q-.578.297-1.219.438-.64.156-1.344.156-2.5 0-3.828-1.64-1.312-1.657-1.312-4.782t1.312-4.781q1.328-1.656 3.828-1.656.703 0 1.344.156.656.156 1.219.453v2.719q-.625-.579-1.219-.844-.594-.281-1.219-.281-1.343 0-2.031 1.078-.687 1.062-.687 3.156t.687 3.172q.688 1.062 2.031 1.062.625 0 1.219-.265.594-.281 1.219-.86z"/><text x="1224.5" y="132.57" fill="#D9B8FF" font-family="Helvetica" font-size="17" textLength="386">aws_sagemaker_hyper_parameter_tuning_job</text><rect width="457" height="39.789" x="2843" y="106.79" fill="#3D176E" rx="2.5" ry="2.5" style="stroke:#000d19;stroke-width:.5"/><circle cx="2858" cy="126.684" r="11" fill="#ADD1B2" style="stroke:#181818;stroke-width:1"/><path d="M2860.969 132.325q-.578.297-1.219.438-.64.156-1.344.156-2.5 0-3.828-1.64-1.312-1.657-1.312-4.782t1.312-4.781q1.328-1.656 3.828-1.656.703 0 1.344.156.656.156 1.219.453v2.719q-.625-.579-1.219-.844-.594-.281-1.219-.281-1.343 0-2.031 1.078-.687 1.062-.687 3.156t.687 3.172q.688 1.062 2.031 1.062.625 0 1.219-.265.594-.281 1.219-.86z"/><text x="2877" y="132.57" fill="#D9B8FF" font-family="Helvetica" font-size="17" textLength="415">aws_sagemaker_inference_recommendations_job</text><rect width="285" height="39.789" x="1724" y="106.79" fill="#3D176E" rx="2.5" ry="2.5" style="stroke:#000d19;stroke-width:.5"/><circle cx="1739" cy="126.684" r="11" fill="#ADD1B2" style="stroke:#181818;stroke-width:1"/><path d="M1741.969 132.325q-.578.297-1.219.438-.64.156-1.344.156-2.5 0-3.828-1.64-1.312-1.657-1.312-4.782t1.312-4.781q1.328-1.656 3.828-1.656.703 0 1.344.156.656.156 1.219.453v2.719q-.625-.579-1.219-.844-.594-.281-1.219-.281-1.343 0-2.031 1.078-.687 1.062-.687 3.156t.687 3.172q.688 1.062 2.031 1.062.625 0 1.219-.265.594-.281 1.219-.86z"/><text x="1758" y="132.57" fill="#D9B8FF" font-family="Helvetica" font-size="17" textLength="243">aws_sagemaker_labeling_job</text><rect width="237" height="39.789" x="2014" y="7" fill="#3D176E" rx="2.5" ry="2.5" style="stroke:#000d19;stroke-width:.5"/><circle cx="2029" cy="26.895" r="11" fill="#ADD1B2" style="stroke:#181818;stroke-width:1"/><path d="M2031.969 32.535q-.578.297-1.219.438-.64.156-1.344.156-2.5 0-3.828-1.64-1.312-1.657-1.312-4.782t1.312-4.781q1.328-1.656 3.828-1.656.703 0 1.344.156.656.156 1.219.453v2.719q-.625-.578-1.219-.844-.594-.281-1.219-.281-1.343 0-2.031 1.078-.687 1.062-.687 3.156t.687 3.172q.688 1.062 2.031 1.062.625 0 1.219-.265.594-.281 1.219-.86z"/><text x="2048" y="32.78" fill="#D9B8FF" font-family="Helvetica" font-size="17" textLength="195">aws_sagemaker_model</text><rect width="306" height="39.789" x="55.5" y="106.79" fill="#3D176E" rx="2.5" ry="2.5" style="stroke:#000d19;stroke-width:.5"/><circle cx="70.5" cy="126.684" r="11" fill="#ADD1B2" style="stroke:#181818;stroke-width:1"/><path d="M73.469 132.325q-.578.297-1.219.438-.64.156-1.344.156-2.5 0-3.828-1.64-1.312-1.657-1.312-4.782t1.312-4.781q1.328-1.656 3.828-1.656.703 0 1.344.156.656.156 1.219.453v2.719q-.625-.579-1.219-.844-.594-.281-1.219-.281-1.344 0-2.031 1.078-.687 1.062-.687 3.156t.687 3.172q.688 1.062 2.031 1.062.625 0 1.219-.265.594-.281 1.219-.86z"/><text x="89.5" y="132.57" fill="#D9B8FF" font-family="Helvetica" font-size="17" textLength="264">aws_sagemaker_processing_job</text><rect width="285" height="39.789" x="1529" y="206.58" fill="#3D176E" rx="2.5" ry="2.5" style="stroke:#000d19;stroke-width:.5"/><circle cx="1544" cy="226.475" r="11" fill="#ADD1B2" style="stroke:#181818;stroke-width:1"/><path d="M1546.969 232.115q-.578.297-1.219.438-.64.156-1.344.156-2.5 0-3.828-1.64-1.312-1.657-1.312-4.782t1.312-4.781q1.328-1.656 3.828-1.656.703 0 1.344.156.656.156 1.219.453v2.719q-.625-.578-1.219-.844-.594-.281-1.219-.281-1.343 0-2.031 1.078-.687 1.062-.687 3.156t.687 3.172q.688 1.062 2.031 1.062.625 0 1.219-.265.594-.281 1.219-.86z"/><text x="1563" y="232.36" fill="#D9B8FF" font-family="Helvetica" font-size="17" textLength="243">aws_sagemaker_training_job</text><rect width="302" height="39.789" x="1919.5" y="206.58" fill="#3D176E" rx="2.5" ry="2.5" style="stroke:#000d19;stroke-width:.5"/><circle cx="1934.5" cy="226.475" r="11" fill="#ADD1B2" style="stroke:#181818;stroke-width:1"/><path d="M1937.469 232.115q-.578.297-1.219.438-.64.156-1.344.156-2.5 0-3.828-1.64-1.312-1.657-1.312-4.782t1.312-4.781q1.328-1.656 3.828-1.656.703 0 1.344.156.656.156 1.219.453v2.719q-.625-.578-1.219-.844-.594-.281-1.219-.281-1.343 0-2.031 1.078-.687 1.062-.687 3.156t.687 3.172q.688 1.062 2.031 1.062.625 0 1.219-.265.594-.281 1.219-.86z"/><text x="1953.5" y="232.36" fill="#D9B8FF" font-family="Helvetica" font-size="17" textLength="260">aws_sagemaker_transform_job</text><rect width="300" height="39.789" x="3327.5" y="206.58" fill="#3D176E" rx="2.5" ry="2.5" style="stroke:#000d19;stroke-width:.5"/><circle cx="3342.5" cy="226.475" r="11" fill="#ADD1B2" style="stroke:#181818;stroke-width:1"/><path d="M3345.469 232.115q-.578.297-1.219.438-.64.156-1.344.156-2.5 0-3.828-1.64-1.312-1.657-1.312-4.782t1.312-4.781q1.328-1.656 3.828-1.656.703 0 1.344.156.656.156 1.219.453v2.719q-.625-.578-1.219-.844-.594-.281-1.219-.281-1.343 0-2.031 1.078-.687 1.062-.687 3.156t.687 3.172q.688 1.062 2.031 1.062.625 0 1.219-.265.594-.281 1.219-.86z"/><text x="3361.5" y="232.36" fill="#D9B8FF" font-family="Helvetica" font-size="17" textLength="258">aws_ssm_resource_compliance</text><path fill="none" d="M97.93 47.19c-35.56 22.48-82.8 61.41-60.43 99.39 46.42 78.82 92.15 74.32 180 99.79 240.36 69.68 1008.28 78.03 1265.79 78.86" style="stroke:#1a83af;stroke-width:2"/><path fill="#1A83AF" d="m1489.29 325.25-8.987-4.029 3.987 4.013-4.013 3.987z" style="stroke:#1a83af;stroke-width:2"/><path fill="none" d="M147.52 47.22c13.32 17.14 28.997 37.323 42.317 54.453" style="stroke:#1a83af;stroke-width:2"/><path fill="#1A83AF" d="m193.52 106.41-2.367-9.56-.702 5.613-5.613-.703z" style="stroke:#1a83af;stroke-width:2"/><path fill="none" d="M504.38 243.94c5.78.89 11.53 1.71 17.12 2.43 358.3 46.17 783.015 67.775 961.835 75.375" style="stroke:#1a83af;stroke-width:2"/><path fill="#1A83AF" d="m1489.33 322-8.822-4.379 3.826 4.167-4.166 3.826z" style="stroke:#1a83af;stroke-width:2"/><path fill="none" d="M813.77 244.43c5.65.66 11.24 1.31 16.73 1.94 238.58 27.3 514.68 55.764 652.58 69.774" style="stroke:#1a83af;stroke-width:2"/><path fill="#1A83AF" d="m1489.05 316.75-8.55-4.89 3.576 4.385-4.384 3.575z" style="stroke:#1a83af;stroke-width:2"/><path fill="none" d="M1040.89 243.54c5.96.96 11.86 1.91 17.61 2.83 151.63 24.18 322.677 50.09 424.717 65.41" style="stroke:#1a83af;stroke-width:2"/><path fill="#1A83AF" d="m1489.15 312.67-8.306-5.292 3.361 4.55-4.55 3.361z" style="stroke:#1a83af;stroke-width:2"/><path fill="none" d="M1244.5 246.8c71.76 17.11 170.164 40.578 241.984 57.708" style="stroke:#1a83af;stroke-width:2"/><path fill="#1A83AF" d="m1492.32 305.9-7.826-5.979 2.962 4.819-4.818 2.963z" style="stroke:#1a83af;stroke-width:2"/><path fill="none" d="M1397.77 246.8c38.39 17.14 88.712 39.602 127.072 56.742" style="stroke:#1a83af;stroke-width:2"/><path fill="#1A83AF" d="m1530.32 305.99-6.585-7.324 2.02 5.284-5.284 2.02z" style="stroke:#1a83af;stroke-width:2"/><path fill="none" d="M472.96 47.11c-21.79 23.72-60.28 65.14-94.46 99.47-27.28 27.41-47.77 24.46-63 60-6.97 16.26-12.11 26.9 0 39.79 40.22 42.82 892.212 69.158 1167.672 76.588" style="stroke:#1a83af;stroke-width:2"/><path fill="#1A83AF" d="m1489.17 323.12-8.889-4.241 3.89 4.106-4.106 3.89z" style="stroke:#1a83af;stroke-width:2"/><path fill="none" d="M434.79 47.22c-49.44 17.14-115.621 40.094-165.021 57.224" style="stroke:#1a83af;stroke-width:2"/><path fill="#1A83AF" d="m264.1 106.41 9.814.83-5.09-2.468 2.469-5.09z" style="stroke:#1a83af;stroke-width:2"/><path fill="none" d="M634.9 28.82c290.4 3.14 924.03 16.99 1000.6 77.97 30.15 24.01 35.6 66.472 36.23 93.452" style="stroke:#1a83af;stroke-width:2"/><path fill="#1A83AF" d="m1671.87 206.24 3.789-9.09-3.906 4.091-4.092-3.905z" style="stroke:#1a83af;stroke-width:2"/><path fill="none" d="M634.68 31.04C1006.17 39.7 1970.97 66 2026.5 106.79c31.88 23.42 40.147 66.604 42.567 93.734" style="stroke:#1a83af;stroke-width:2"/><path fill="#1A83AF" d="m2069.6 206.5 3.185-9.32-3.63 4.34-4.339-3.629z" style="stroke:#1a83af;stroke-width:2"/><path fill="none" d="M2327.73 244.48c-194.73 20.86-511.694 54.811-663.924 71.111" style="stroke:#1a83af;stroke-width:2"/><path fill="#1A83AF" d="m1657.84 316.23 9.375 3.02-4.403-3.552 3.551-4.403z" style="stroke:#1a83af;stroke-width:2"/><path fill="none" d="M2679.37 244.54c-5.7.65-11.34 1.26-16.87 1.83-373.82 38.55-815.759 64.388-998.829 74.228" style="stroke:#1a83af;stroke-width:2"/><path fill="#1A83AF" d="m1657.68 320.92 9.202 3.511-4.21-3.78 3.78-4.208z" style="stroke:#1a83af;stroke-width:2"/><path fill="none" d="M3032.75 243.85c-8.87.91-17.69 1.77-26.25 2.52-511.3 44.99-1121.623 68.456-1342.873 75.986" style="stroke:#1a83af;stroke-width:2"/><path fill="#1A83AF" d="m1657.63 322.56 9.13 3.692-4.133-3.862 3.862-4.134z" style="stroke:#1a83af;stroke-width:2"/><path fill="none" d="M1421.01 146.99c32.31 37.77 99.65 116.5 132.01 154.33" style="stroke:#1a83af;stroke-width:2"/><path fill="#1A83AF" d="m1556.92 305.88-2.81-9.44-.44 5.64-5.64-.44z" style="stroke:#1a83af;stroke-width:2"/><path fill="none" d="M1457.25 147.01c46.81 17.14 109.196 39.986 155.976 57.126" style="stroke:#1a83af;stroke-width:2"/><path fill="#1A83AF" d="m1618.86 206.2-7.074-6.852 2.38 5.132-5.133 2.38z" style="stroke:#1a83af;stroke-width:2"/><path fill="none" d="M3058.12 146.74c-20.71 27.71-63.41 78.13-113.62 99.63-117.94 50.5-1000.821 71.732-1280.811 77.252" style="stroke:#1a83af;stroke-width:2"/><path fill="#1A83AF" d="m1657.69 323.74 9.077 3.822-4.078-3.92 3.92-4.079z" style="stroke:#1a83af;stroke-width:2"/><path fill="none" d="M3089.48 147.01c15.95 17.14 35.054 37.656 50.994 54.796" style="stroke:#1a83af;stroke-width:2"/><path fill="#1A83AF" d="m3144.56 206.2-3.2-9.314-.205 5.653-5.653-.206z" style="stroke:#1a83af;stroke-width:2"/><path fill="none" d="M1866.2 146.9c-1.46 26.06-7.95 72.45-34.7 99.47-45.64 46.1-111.47 64.563-167.74 72.583" style="stroke:#1a83af;stroke-width:2"/><path fill="#1A83AF" d="m1657.82 319.8 9.474 2.69-4.524-3.396 3.396-4.524z" style="stroke:#1a83af;stroke-width:2"/><path fill="none" d="M1827.97 147.01c-34.18 17.14-78.497 39.36-112.657 56.5" style="stroke:#1a83af;stroke-width:2"/><path fill="#1A83AF" d="m1709.95 206.2 9.838-.461-5.369-1.781 1.781-5.37z" style="stroke:#1a83af;stroke-width:2"/><path fill="none" d="M1906.8 147.01c35.77 17.14 82.33 39.456 118.07 56.596" style="stroke:#1a83af;stroke-width:2"/><path fill="#1A83AF" d="m2030.28 206.2-6.385-7.498 1.877 5.336-5.337 1.877z" style="stroke:#1a83af;stroke-width:2"/><path fill="none" d="M2155.24 47.16c45.44 40.73 138.56 136.96 83.26 199.21-37.98 42.75-404.388 66.086-574.738 74.736" style="stroke:#1a83af;stroke-width:2"/><path fill="#1A83AF" d="m1657.77 321.41 9.191 3.538-4.197-3.792 3.792-4.197z" style="stroke:#1a83af;stroke-width:2"/><path fill="none" d="M2079.95 47.22c-46.64 17.14-108.778 39.99-155.378 57.12" style="stroke:#1a83af;stroke-width:2"/><path fill="#1A83AF" d="m1918.94 106.41 9.827.65-5.134-2.375 2.374-5.135z" style="stroke:#1a83af;stroke-width:2"/><path fill="none" d="M2126.44 47.2c-11.85 37.77-36.194 115.335-48.064 153.165" style="stroke:#1a83af;stroke-width:2"/><path fill="#1A83AF" d="m2076.58 206.09 6.511-7.39-5.014 2.62-2.62-5.015z" style="stroke:#1a83af;stroke-width:2"/><path fill="none" d="M209.59 146.64c2.69 27.1 11.95 76.23 43.91 99.73 99.3 73.02 954.88 79.049 1229.96 79.099" style="stroke:#1a83af;stroke-width:2"/><path fill="#1A83AF" d="m1489.46 325.47-9-4 4 4-4 4z" style="stroke:#1a83af;stroke-width:2"/><path fill="none" d="M361.73 136.63c233.05 13.79 690.53 41.65 1078.77 69.95 28.49 2.08 52.97 3.978 82.11 6.328" style="stroke:#1a83af;stroke-width:2"/><path fill="#1A83AF" d="m1528.59 213.39-8.65-4.71 3.666 4.308-4.308 3.666z" style="stroke:#1a83af;stroke-width:2"/><path fill="none" d="M1652.14 246.8c-17.18 17.14-37.904 37.811-55.074 54.951" style="stroke:#1a83af;stroke-width:2"/><path fill="#1A83AF" d="m1592.82 305.99 9.196-3.528-5.657-.004.005-5.657z" style="stroke:#1a83af;stroke-width:2"/><path fill="none" d="M1972.01 246.85c-91.83 18.07-221.443 43.582-308.383 60.682" style="stroke:#1a83af;stroke-width:2"/><path fill="#1A83AF" d="m1657.74 308.69 9.603 2.188-4.697-3.153 3.153-4.697z" style="stroke:#1a83af;stroke-width:2"/><path fill="none" d="M3327.34 244.87c-6.03.53-11.99 1.04-17.84 1.5-633.86 49.99-1394.622 70.999-1645.872 76.919" style="stroke:#1a83af;stroke-width:2"/><path fill="#1A83AF" d="m1657.63 323.43 9.092 3.787-4.093-3.905 3.904-4.093z" style="stroke:#1a83af;stroke-width:2"/></svg>