<svg xmlns="http://www.w3.org/2000/svg" width="3147" height="451" viewBox="0 0 3147 451"><rect width="245" height="39.789" x="1979.5" y="7" fill="#3D176E" rx="2.5" ry="2.5" style="stroke:#000d19;stroke-width:.5"/><circle cx="1994.5" cy="26.895" r="11" fill="#ADD1B2" style="stroke:#181818;stroke-width:1"/><path d="M1997.469 32.535q-.578.297-1.219.438-.64.156-1.344.156-2.5 0-3.828-1.64-1.312-1.657-1.312-4.782t1.312-4.781q1.328-1.656 3.828-1.656.703 0 1.344.156.656.156 1.219.453v2.719q-.625-.578-1.219-.844-.594-.281-1.219-.281-1.343 0-2.031 1.078-.687 1.062-.687 3.156t.687 3.172q.688 1.062 2.031 1.062.625 0 1.219-.265.594-.281 1.219-.86z"/><text x="2013.5" y="32.78" fill="#D9B8FF" font-family="Helvetica" font-size="17" textLength="203">aws_ec2_security_group</text><rect width="179" height="39.789" x="2259.5" y="7" fill="#3D176E" rx="2.5" ry="2.5" style="stroke:#000d19;stroke-width:.5"/><circle cx="2274.5" cy="26.895" r="11" fill="#ADD1B2" style="stroke:#181818;stroke-width:1"/><path d="M2277.469 32.535q-.578.297-1.219.438-.64.156-1.344.156-2.5 0-3.828-1.64-1.312-1.657-1.312-4.782t1.312-4.781q1.328-1.656 3.828-1.656.703 0 1.344.156.656.156 1.219.453v2.719q-.625-.578-1.219-.844-.594-.281-1.219-.281-1.343 0-2.031 1.078-.687 1.062-.687 3.156t.687 3.172q.688 1.062 2.031 1.062.625 0 1.219-.265.594-.281 1.219-.86z"/><text x="2293.5" y="32.78" fill="#D9B8FF" font-family="Helvetica" font-size="17" textLength="137">aws_ec2_subnet</text><rect width="157" height="39.789" x="2513.5" y="7" fill="#3D176E" rx="2.5" ry="2.5" style="stroke:#000d19;stroke-width:.5"/><circle cx="2528.5" cy="26.895" r="11" fill="#ADD1B2" style="stroke:#181818;stroke-width:1"/><path d="M2531.469 32.535q-.578.297-1.219.438-.64.156-1.344.156-2.5 0-3.828-1.64-1.312-1.657-1.312-4.782t1.312-4.781q1.328-1.656 3.828-1.656.703 0 1.344.156.656.156 1.219.453v2.719q-.625-.578-1.219-.844-.594-.281-1.219-.281-1.343 0-2.031 1.078-.687 1.062-.687 3.156t.687 3.172q.688 1.062 2.031 1.062.625 0 1.219-.265.594-.281 1.219-.86z"/><text x="2547.5" y="32.78" fill="#D9B8FF" font-family="Helvetica" font-size="17" textLength="115">aws_iam_role</text><rect width="158" height="39.789" x="1675" y="206.58" fill="#3D176E" rx="2.5" ry="2.5" style="stroke:#000d19;stroke-width:.5"/><circle cx="1690" cy="226.475" r="11" fill="#ADD1B2" style="stroke:#181818;stroke-width:1"/><path d="M1692.969 232.115q-.578.297-1.219.438-.64.156-1.344.156-2.5 0-3.828-1.64-1.312-1.657-1.312-4.782t1.312-4.781q1.328-1.656 3.828-1.656.703 0 1.344.156.656.156 1.219.453v2.719q-.625-.578-1.219-.844-.594-.281-1.219-.281-1.343 0-2.031 1.078-.687 1.062-.687 3.156t.687 3.172q.688 1.062 2.031 1.062.625 0 1.219-.265.594-.281 1.219-.86z"/><text x="1709" y="232.36" fill="#D9B8FF" font-family="Helvetica" font-size="17" textLength="116">aws_kms_key</text><rect width="168" height="39.789" x="1868" y="206.58" fill="#3D176E" rx="2.5" ry="2.5" style="stroke:#000d19;stroke-width:.5"/><circle cx="1883" cy="226.475" r="11" fill="#ADD1B2" style="stroke:#181818;stroke-width:1"/><path d="M1885.969 232.115q-.578.297-1.219.438-.64.156-1.344.156-2.5 0-3.828-1.64-1.312-1.657-1.312-4.782t1.312-4.781q1.328-1.656 3.828-1.656.703 0 1.344.156.656.156 1.219.453v2.719q-.625-.578-1.219-.844-.594-.281-1.219-.281-1.343 0-2.031 1.078-.687 1.062-.687 3.156t.687 3.172q.688 1.062 2.031 1.062.625 0 1.219-.265.594-.281 1.219-.86z"/><text x="1902" y="232.36" fill="#D9B8FF" font-family="Helvetica" font-size="17" textLength="126">aws_s3_bucket</text><rect width="215" height="39.789" x="1892.5" y="306.37" fill="#3D176E" rx="2.5" ry="2.5" style="stroke:#000d19;stroke-width:.5"/><circle cx="1907.5" cy="326.264" r="11" fill="#ADD1B2" style="stroke:#181818;stroke-width:1"/><path d="M1910.469 331.905q-.578.297-1.219.438-.64.156-1.344.156-2.5 0-3.828-1.64-1.312-1.657-1.312-4.782t1.312-4.781q1.328-1.656 3.828-1.656.703 0 1.344.156.656.156 1.219.453v2.719q-.625-.579-1.219-.844-.594-.281-1.219-.281-1.343 0-2.031 1.078-.687 1.062-.687 3.156t.687 3.172q.688 1.062 2.031 1.062.625 0 1.219-.265.594-.281 1.219-.86z"/><text x="1926.5" y="332.15" fill="#D9B8FF" font-family="Helvetica" font-size="17" textLength="173">aws_sagemaker_app</text><rect width="245" height="39.789" x="2753.5" y="306.37" fill="#3D176E" rx="2.5" ry="2.5" style="stroke:#000d19;stroke-width:.5"/><circle cx="2768.5" cy="326.264" r="11" fill="#ADD1B2" style="stroke:#181818;stroke-width:1"/><path d="M2771.469 331.905q-.578.297-1.219.438-.64.156-1.344.156-2.5 0-3.828-1.64-1.312-1.657-1.312-4.782t1.312-4.781q1.328-1.656 3.828-1.656.703 0 1.344.156.656.156 1.219.453v2.719q-.625-.579-1.219-.844-.594-.281-1.219-.281-1.343 0-2.031 1.078-.687 1.062-.687 3.156t.687 3.172q.688 1.062 2.031 1.062.625 0 1.219-.265.594-.281 1.219-.86z"/><text x="2787.5" y="332.15" fill="#D9B8FF" font-family="Helvetica" font-size="17" textLength="203">aws_sagemaker_artifact</text><rect width="356" height="39.789" x="77" y="7" fill="#3D176E" rx="2.5" ry="2.5" style="stroke:#000d19;stroke-width:.5"/><circle cx="92" cy="26.895" r="11" fill="#ADD1B2" style="stroke:#181818;stroke-width:1"/><path d="M94.969 32.535q-.578.297-1.219.438-.64.156-1.344.156-2.5 0-3.828-1.64-1.312-1.657-1.312-4.782t1.312-4.781q1.328-1.656 3.828-1.656.703 0 1.344.156.656.156 1.219.453v2.719q-.625-.578-1.219-.844-.594-.281-1.219-.281-1.344 0-2.031 1.078-.687 1.062-.687 3.156t.687 3.172q.688 1.062 2.031 1.062.625 0 1.219-.265.594-.281 1.219-.86z"/><text x="111" y="32.78" fill="#D9B8FF" font-family="Helvetica" font-size="17" textLength="314">aws_sagemaker_canvas_app_settings</text><rect width="316" height="39.789" x="2706" y="7" fill="#3D176E" rx="2.5" ry="2.5" style="stroke:#000d19;stroke-width:.5"/><circle cx="2721" cy="26.895" r="11" fill="#ADD1B2" style="stroke:#181818;stroke-width:1"/><path d="M2723.969 32.535q-.578.297-1.219.438-.64.156-1.344.156-2.5 0-3.828-1.64-1.312-1.657-1.312-4.782t1.312-4.781q1.328-1.656 3.828-1.656.703 0 1.344.156.656.156 1.219.453v2.719q-.625-.578-1.219-.844-.594-.281-1.219-.281-1.343 0-2.031 1.078-.687 1.062-.687 3.156t.687 3.172q.688 1.062 2.031 1.062.625 0 1.219-.265.594-.281 1.219-.86z"/><text x="2740" y="32.78" fill="#D9B8FF" font-family="Helvetica" font-size="17" textLength="274">aws_sagemaker_code_repository</text><rect width="307" height="39.789" x="467.5" y="7" fill="#3D176E" rx="2.5" ry="2.5" style="stroke:#000d19;stroke-width:.5"/><circle cx="482.5" cy="26.895" r="11" fill="#ADD1B2" style="stroke:#181818;stroke-width:1"/><path d="M485.469 32.535q-.578.297-1.219.438-.64.156-1.344.156-2.5 0-3.828-1.64-1.312-1.657-1.312-4.782t1.312-4.781q1.328-1.656 3.828-1.656.703 0 1.344.156.656.156 1.219.453v2.719q-.625-.578-1.219-.844-.594-.281-1.219-.281-1.344 0-2.031 1.078-.687 1.062-.687 3.156t.687 3.172q.688 1.062 2.031 1.062.625 0 1.219-.265.594-.281 1.219-.86z"/><text x="501.5" y="32.78" fill="#D9B8FF" font-family="Helvetica" font-size="17" textLength="265">aws_sagemaker_custom_image</text><rect width="374" height="39.789" x="809" y="7" fill="#3D176E" rx="2.5" ry="2.5" style="stroke:#000d19;stroke-width:.5"/><circle cx="824" cy="26.895" r="11" fill="#ADD1B2" style="stroke:#181818;stroke-width:1"/><path d="M826.969 32.535q-.578.297-1.219.438-.64.156-1.344.156-2.5 0-3.828-1.64-1.312-1.657-1.312-4.782t1.312-4.781q1.328-1.656 3.828-1.656.703 0 1.344.156.656.156 1.219.453v2.719q-.625-.578-1.219-.844-.594-.281-1.219-.281-1.343 0-2.031 1.078-.687 1.062-.687 3.156t.687 3.172q.688 1.062 2.031 1.062.625 0 1.219-.265.594-.281 1.219-.86z"/><text x="843" y="32.78" fill="#D9B8FF" font-family="Helvetica" font-size="17" textLength="332">aws_sagemaker_default_space_settings</text><rect width="248" height="39.789" x="2146" y="106.79" fill="#3D176E" rx="2.5" ry="2.5" style="stroke:#000d19;stroke-width:.5"/><circle cx="2161" cy="126.684" r="11" fill="#ADD1B2" style="stroke:#181818;stroke-width:1"/><path d="M2163.969 132.325q-.578.297-1.219.438-.64.156-1.344.156-2.5 0-3.828-1.64-1.312-1.657-1.312-4.782t1.312-4.781q1.328-1.656 3.828-1.656.703 0 1.344.156.656.156 1.219.453v2.719q-.625-.579-1.219-.844-.594-.281-1.219-.281-1.343 0-2.031 1.078-.687 1.062-.687 3.156t.687 3.172q.688 1.062 2.031 1.062.625 0 1.219-.265.594-.281 1.219-.86z"/><text x="2180" y="132.57" fill="#D9B8FF" font-family="Helvetica" font-size="17" textLength="206">aws_sagemaker_domain</text><rect width="323" height="39.789" x="1217.5" y="7" fill="#3D176E" rx="2.5" ry="2.5" style="stroke:#000d19;stroke-width:.5"/><circle cx="1232.5" cy="26.895" r="11" fill="#ADD1B2" style="stroke:#181818;stroke-width:1"/><path d="M1235.469 32.535q-.578.297-1.219.438-.64.156-1.344.156-2.5 0-3.828-1.64-1.312-1.657-1.312-4.782t1.312-4.781q1.328-1.656 3.828-1.656.703 0 1.344.156.656.156 1.219.453v2.719q-.625-.578-1.219-.844-.594-.281-1.219-.281-1.343 0-2.031 1.078-.687 1.062-.687 3.156t.687 3.172q.688 1.062 2.031 1.062.625 0 1.219-.265.594-.281 1.219-.86z"/><text x="1251.5" y="32.78" fill="#D9B8FF" font-family="Helvetica" font-size="17" textLength="281">aws_sagemaker_domain_settings</text><rect width="237" height="39.789" x="2041.5" y="406.16" fill="#3D176E" rx="2.5" ry="2.5" style="stroke:#000d19;stroke-width:.5"/><circle cx="2056.5" cy="426.055" r="11" fill="#ADD1B2" style="stroke:#181818;stroke-width:1"/><path d="M2059.469 431.695q-.578.297-1.219.438-.64.156-1.344.156-2.5 0-3.828-1.64-1.312-1.657-1.312-4.782t1.312-4.781q1.328-1.656 3.828-1.656.703 0 1.344.156.656.156 1.219.453v2.719q-.625-.578-1.219-.844-.594-.281-1.219-.281-1.343 0-2.031 1.078-.687 1.062-.687 3.156t.687 3.172q.688 1.062 2.031 1.062.625 0 1.219-.265.594-.281 1.219-.86z"/><text x="2075.5" y="431.94" fill="#D9B8FF" font-family="Helvetica" font-size="17" textLength="195">aws_sagemaker_image</text><rect width="420" height="39.789" x="45" y="106.79" fill="#3D176E" rx="2.5" ry="2.5" style="stroke:#000d19;stroke-width:.5"/><circle cx="60" cy="126.684" r="11" fill="#ADD1B2" style="stroke:#181818;stroke-width:1"/><path d="M62.969 132.325q-.578.297-1.219.438-.64.156-1.344.156-2.5 0-3.828-1.64-1.312-1.657-1.312-4.782t1.312-4.781q1.328-1.656 3.828-1.656.703 0 1.344.156.656.156 1.219.453v2.719q-.625-.579-1.219-.844-.594-.281-1.219-.281-1.343 0-2.031 1.078-.687 1.062-.687 3.156t.687 3.172q.688 1.062 2.031 1.062.625 0 1.219-.265.594-.281 1.219-.86z"/><text x="79" y="132.57" fill="#D9B8FF" font-family="Helvetica" font-size="17" textLength="378">aws_sagemaker_jupyter_server_app_settings</text><rect width="433" height="39.789" x="499.5" y="106.79" fill="#3D176E" rx="2.5" ry="2.5" style="stroke:#000d19;stroke-width:.5"/><circle cx="514.5" cy="126.684" r="11" fill="#ADD1B2" style="stroke:#181818;stroke-width:1"/><path d="M517.469 132.325q-.578.297-1.219.438-.64.156-1.344.156-2.5 0-3.828-1.64-1.312-1.657-1.312-4.782t1.312-4.781q1.328-1.656 3.828-1.656.703 0 1.344.156.656.156 1.219.453v2.719q-.625-.579-1.219-.844-.594-.281-1.219-.281-1.343 0-2.031 1.078-.687 1.062-.687 3.156t.687 3.172q.688 1.062 2.031 1.062.625 0 1.219-.265.594-.281 1.219-.86z"/><text x="533.5" y="132.57" fill="#D9B8FF" font-family="Helvetica" font-size="17" textLength="391">aws_sagemaker_kernel_gateway_app_settings</text><rect width="251" height="39.789" x="2467.5" y="306.37" fill="#3D176E" rx="2.5" ry="2.5" style="stroke:#000d19;stroke-width:.5"/><circle cx="2482.5" cy="326.264" r="11" fill="#ADD1B2" style="stroke:#181818;stroke-width:1"/><path d="M2485.469 331.905q-.578.297-1.219.438-.64.156-1.344.156-2.5 0-3.828-1.64-1.312-1.657-1.312-4.782t1.312-4.781q1.328-1.656 3.828-1.656.703 0 1.344.156.656.156 1.219.453v2.719q-.625-.579-1.219-.844-.594-.281-1.219-.281-1.343 0-2.031 1.078-.687 1.062-.687 3.156t.687 3.172q.688 1.062 2.031 1.062.625 0 1.219-.265.594-.281 1.219-.86z"/><text x="2501.5" y="332.15" fill="#D9B8FF" font-family="Helvetica" font-size="17" textLength="209">aws_sagemaker_pipeline</text><rect width="375" height="39.789" x="967.5" y="106.79" fill="#3D176E" rx="2.5" ry="2.5" style="stroke:#000d19;stroke-width:.5"/><circle cx="982.5" cy="126.684" r="11" fill="#ADD1B2" style="stroke:#181818;stroke-width:1"/><path d="M985.469 132.325q-.578.297-1.219.438-.64.156-1.344.156-2.5 0-3.828-1.64-1.312-1.657-1.312-4.782t1.312-4.781q1.328-1.656 3.828-1.656.703 0 1.344.156.656.156 1.219.453v2.719q-.625-.579-1.219-.844-.594-.281-1.219-.281-1.343 0-2.031 1.078-.687 1.062-.687 3.156t.687 3.172q.688 1.062 2.031 1.062.625 0 1.219-.265.594-.281 1.219-.86z"/><text x="1001.5" y="132.57" fill="#D9B8FF" font-family="Helvetica" font-size="17" textLength="333">aws_sagemaker_r_session_app_settings</text><rect width="463" height="39.789" x="1377.5" y="106.79" fill="#3D176E" rx="2.5" ry="2.5" style="stroke:#000d19;stroke-width:.5"/><circle cx="1392.5" cy="126.684" r="11" fill="#ADD1B2" style="stroke:#181818;stroke-width:1"/><path d="M1395.469 132.325q-.578.297-1.219.438-.64.156-1.344.156-2.5 0-3.828-1.64-1.312-1.657-1.312-4.782t1.312-4.781q1.328-1.656 3.828-1.656.703 0 1.344.156.656.156 1.219.453v2.719q-.625-.579-1.219-.844-.594-.281-1.219-.281-1.343 0-2.031 1.078-.687 1.062-.687 3.156t.687 3.172q.688 1.062 2.031 1.062.625 0 1.219-.265.594-.281 1.219-.86z"/><text x="1411.5" y="132.57" fill="#D9B8FF" font-family="Helvetica" font-size="17" textLength="421">aws_sagemaker_r_studio_server_pro_app_settings</text><rect width="496" height="39.789" x="7" y="206.58" fill="#3D176E" rx="2.5" ry="2.5" style="stroke:#000d19;stroke-width:.5"/><circle cx="22" cy="226.475" r="11" fill="#ADD1B2" style="stroke:#181818;stroke-width:1"/><path d="M24.969 232.115q-.578.297-1.219.438-.64.156-1.344.156-2.5 0-3.828-1.64-1.312-1.657-1.312-4.782t1.312-4.781q1.328-1.656 3.828-1.656.703 0 1.344.156.656.156 1.219.453v2.719q-.625-.578-1.219-.844-.594-.281-1.219-.281-1.343 0-2.031 1.078-.687 1.062-.687 3.156t.687 3.172q.688 1.062 2.031 1.062.625 0 1.219-.265.594-.281 1.219-.86z"/><text x="41" y="232.36" fill="#D9B8FF" font-family="Helvetica" font-size="17" textLength="454">aws_sagemaker_r_studio_server_pro_domain_settings</text><rect width="301" height="39.789" x="538.5" y="206.58" fill="#3D176E" rx="2.5" ry="2.5" style="stroke:#000d19;stroke-width:.5"/><circle cx="553.5" cy="226.475" r="11" fill="#ADD1B2" style="stroke:#181818;stroke-width:1"/><path d="M556.469 232.115q-.578.297-1.219.438-.64.156-1.344.156-2.5 0-3.828-1.64-1.312-1.657-1.312-4.782t1.312-4.781q1.328-1.656 3.828-1.656.703 0 1.344.156.656.156 1.219.453v2.719q-.625-.578-1.219-.844-.594-.281-1.219-.281-1.343 0-2.031 1.078-.687 1.062-.687 3.156t.687 3.172q.688 1.062 2.031 1.062.625 0 1.219-.265.594-.281 1.219-.86z"/><text x="572.5" y="232.36" fill="#D9B8FF" font-family="Helvetica" font-size="17" textLength="259">aws_sagemaker_resource_spec</text><rect width="322" height="39.789" x="875" y="206.58" fill="#3D176E" rx="2.5" ry="2.5" style="stroke:#000d19;stroke-width:.5"/><circle cx="890" cy="226.475" r="11" fill="#ADD1B2" style="stroke:#181818;stroke-width:1"/><path d="M892.969 232.115q-.578.297-1.219.438-.64.156-1.344.156-2.5 0-3.828-1.64-1.312-1.657-1.312-4.782t1.312-4.781q1.328-1.656 3.828-1.656.703 0 1.344.156.656.156 1.219.453v2.719q-.625-.578-1.219-.844-.594-.281-1.219-.281-1.343 0-2.031 1.078-.687 1.062-.687 3.156t.687 3.172q.688 1.062 2.031 1.062.625 0 1.219-.265.594-.281 1.219-.86z"/><text x="909" y="232.36" fill="#D9B8FF" font-family="Helvetica" font-size="17" textLength="280">aws_sagemaker_sharing_settings</text><rect width="408" height="39.789" x="1232" y="206.58" fill="#3D176E" rx="2.5" ry="2.5" style="stroke:#000d19;stroke-width:.5"/><circle cx="1247" cy="226.475" r="11" fill="#ADD1B2" style="stroke:#181818;stroke-width:1"/><path d="M1249.969 232.115q-.578.297-1.219.438-.64.156-1.344.156-2.5 0-3.828-1.64-1.312-1.657-1.312-4.782t1.312-4.781q1.328-1.656 3.828-1.656.703 0 1.344.156.656.156 1.219.453v2.719q-.625-.578-1.219-.844-.594-.281-1.219-.281-1.343 0-2.031 1.078-.687 1.062-.687 3.156t.687 3.172q.688 1.062 2.031 1.062.625 0 1.219-.265.594-.281 1.219-.86z"/><text x="1266" y="232.36" fill="#D9B8FF" font-family="Helvetica" font-size="17" textLength="366">aws_sagemaker_tensor_board_app_settings</text><rect width="457" height="39.789" x="26.5" y="306.37" fill="#3D176E" rx="2.5" ry="2.5" style="stroke:#000d19;stroke-width:.5"/><circle cx="41.5" cy="326.264" r="11" fill="#ADD1B2" style="stroke:#181818;stroke-width:1"/><path d="M44.469 331.905q-.578.297-1.219.438-.64.156-1.344.156-2.5 0-3.828-1.64-1.312-1.657-1.312-4.782t1.312-4.781q1.328-1.656 3.828-1.656.703 0 1.344.156.656.156 1.219.453v2.719q-.625-.579-1.219-.844-.594-.281-1.219-.281-1.343 0-2.031 1.078-.687 1.062-.687 3.156t.687 3.172q.688 1.062 2.031 1.062.625 0 1.219-.265.594-.281 1.219-.86z"/><text x="60.5" y="332.15" fill="#D9B8FF" font-family="Helvetica" font-size="17" textLength="415">aws_sagemaker_time_series_forecasting_settings</text><rect width="219" height="39.789" x="2213.5" y="306.37" fill="#3D176E" rx="2.5" ry="2.5" style="stroke:#000d19;stroke-width:.5"/><circle cx="2228.5" cy="326.264" r="11" fill="#ADD1B2" style="stroke:#181818;stroke-width:1"/><path d="M2231.469 331.905q-.578.297-1.219.438-.64.156-1.344.156-2.5 0-3.828-1.64-1.312-1.657-1.312-4.782t1.312-4.781q1.328-1.656 3.828-1.656.703 0 1.344.156.656.156 1.219.453v2.719q-.625-.579-1.219-.844-.594-.281-1.219-.281-1.343 0-2.031 1.078-.687 1.062-.687 3.156t.687 3.172q.688 1.062 2.031 1.062.625 0 1.219-.265.594-.281 1.219-.86z"/><text x="2247.5" y="332.15" fill="#D9B8FF" font-family="Helvetica" font-size="17" textLength="177">aws_sagemaker_trial</text><rect width="283" height="39.789" x="2284.5" y="206.58" fill="#3D176E" rx="2.5" ry="2.5" style="stroke:#000d19;stroke-width:.5"/><circle cx="2299.5" cy="226.475" r="11" fill="#ADD1B2" style="stroke:#181818;stroke-width:1"/><path d="M2302.469 232.115q-.578.297-1.219.438-.64.156-1.344.156-2.5 0-3.828-1.64-1.312-1.657-1.312-4.782t1.312-4.781q1.328-1.656 3.828-1.656.703 0 1.344.156.656.156 1.219.453v2.719q-.625-.578-1.219-.844-.594-.281-1.219-.281-1.343 0-2.031 1.078-.687 1.062-.687 3.156t.687 3.172q.688 1.062 2.031 1.062.625 0 1.219-.265.594-.281 1.219-.86z"/><text x="2318.5" y="232.36" fill="#D9B8FF" font-family="Helvetica" font-size="17" textLength="241">aws_sagemaker_user_profile</text><rect width="296" height="39.789" x="518" y="306.37" fill="#3D176E" rx="2.5" ry="2.5" style="stroke:#000d19;stroke-width:.5"/><circle cx="533" cy="326.264" r="11" fill="#ADD1B2" style="stroke:#181818;stroke-width:1"/><path d="M535.969 331.905q-.578.297-1.219.438-.64.156-1.344.156-2.5 0-3.828-1.64-1.312-1.657-1.312-4.782t1.312-4.781q1.328-1.656 3.828-1.656.703 0 1.344.156.656.156 1.219.453v2.719q-.625-.579-1.219-.844-.594-.281-1.219-.281-1.343 0-2.031 1.078-.687 1.062-.687 3.156t.687 3.172q.688 1.062 2.031 1.062.625 0 1.219-.265.594-.281 1.219-.86z"/><text x="552" y="332.15" fill="#D9B8FF" font-family="Helvetica" font-size="17" textLength="254">aws_sagemaker_user_settings</text><path fill="none" d="M2135.19 47.22c29.45 17.14 67.075 39.042 96.505 56.172" style="stroke:#1a83af;stroke-width:2"/><path fill="#1A83AF" d="m2236.88 106.41-5.766-7.984 1.445 5.469-5.47 1.445z" style="stroke:#1a83af;stroke-width:2"/><path fill="none" d="M2333.39 47.22c-13.85 17.14-30.2 37.393-44.04 54.523" style="stroke:#1a83af;stroke-width:2"/><path fill="#1A83AF" d="m2285.58 106.41 8.767-4.487-5.625.598-.597-5.625z" style="stroke:#1a83af;stroke-width:2"/><path fill="none" d="M2528.38 47.22c-56.36 17.12-132.479 40.237-188.879 57.357" style="stroke:#1a83af;stroke-width:2"/><path fill="#1A83AF" d="m2333.76 106.32 9.774 1.213-4.99-2.665 2.666-4.99z" style="stroke:#1a83af;stroke-width:2"/><path fill="none" d="M2661.24 47.23C2810.66 92.11 3140.2 209.98 3016 346.16c-48.71 53.41-508.012 71.023-731.412 76.493" style="stroke:#1a83af;stroke-width:2"/><path fill="#1A83AF" d="m2278.59 422.8 9.095 3.779-4.097-3.901 3.901-4.097z" style="stroke:#1a83af;stroke-width:2"/><path fill="none" d="M2597.83 47.25c10.72 38.19 31.5 125.89 20.17 199.12-3.23 20.87-8.842 38.188-14.872 53.918" style="stroke:#1a83af;stroke-width:2"/><path fill="#1A83AF" d="m2600.98 305.89 6.956-6.972-5.166 2.303-2.303-5.166z" style="stroke:#1a83af;stroke-width:2"/><path fill="none" d="M2031.61 346.59c28.05 17.14 63.691 38.92 91.721 56.06" style="stroke:#1a83af;stroke-width:2"/><path fill="#1A83AF" d="m2128.45 405.78-5.591-8.108 1.325 5.5-5.499 1.325z" style="stroke:#1a83af;stroke-width:2"/><path fill="none" d="M2864.77 46.95c2.16 53.59 8.039 199.185 10.209 253.045" style="stroke:#1a83af;stroke-width:2"/><path fill="#1A83AF" d="m2875.22 305.99 3.634-9.154-3.835 4.158-4.158-3.836z" style="stroke:#1a83af;stroke-width:2"/><path fill="none" d="M2746.29 47.28c-103.92 17.11-248.71 40.945-352.64 58.055" style="stroke:#1a83af;stroke-width:2"/><path fill="#1A83AF" d="m2387.73 106.31 9.53 2.485-4.596-3.297 3.297-4.597z" style="stroke:#1a83af;stroke-width:2"/><path fill="none" d="M2844.83 47.19c-42.84 42.07-151.15 142.82-259.83 199.18-52.71 27.34-110.586 45.346-161.986 58.096" style="stroke:#1a83af;stroke-width:2"/><path fill="#1A83AF" d="m2417.19 305.91 9.698 1.715-4.845-2.919 2.92-4.845z" style="stroke:#1a83af;stroke-width:2"/><path fill="none" d="M2166.22 147.04c-84.81 15.86-207.81 38.97-315.22 59.54-5.73 1.1-5.759 1.101-11.709 2.251" style="stroke:#1a83af;stroke-width:2"/><path fill="#1A83AF" d="m1833.4 209.97 9.595 2.22-4.686-3.169 3.168-4.686z" style="stroke:#1a83af;stroke-width:2"/><path fill="none" d="M2207.17 147.01c-55.66 17.11-130.765 40.206-186.465 57.336" style="stroke:#1a83af;stroke-width:2"/><path fill="#1A83AF" d="m2014.97 206.11 9.778 1.178-4.999-2.648 2.648-4.999z" style="stroke:#1a83af;stroke-width:2"/><path fill="none" d="M2232.1 147.04c-27.99 14.91-66.56 36.78-98.1 59.54-43.84 31.65-85.707 70.909-110.777 95.499" style="stroke:#1a83af;stroke-width:2"/><path fill="#1A83AF" d="m2018.94 306.28 9.226-3.446-5.657-.055.055-5.657z" style="stroke:#1a83af;stroke-width:2"/><path fill="none" d="M2382.52 147.03c68.96 13.36 158.48 33.43 235.48 59.55 82.18 27.88 167.993 70.721 216.933 96.531" style="stroke:#1a83af;stroke-width:2"/><path fill="#1A83AF" d="m2840.24 305.91-6.095-7.737 1.672 5.405-5.404 1.672z" style="stroke:#1a83af;stroke-width:2"/><path fill="none" d="M2261.26 147.01c-14.53 32.51-44.17 100.4-65.26 159.36-12.4 34.67-22.7 70.197-29.23 93.807" style="stroke:#1a83af;stroke-width:2"/><path fill="#1A83AF" d="m2165.17 405.96 6.254-7.608-4.921 2.789-2.79-4.922z" style="stroke:#1a83af;stroke-width:2"/><path fill="none" d="M2394.44 143.71c76.99 12.66 165.74 33.19 190.56 62.87 23.31 27.89 19.575 67.656 14.195 93.456" style="stroke:#1a83af;stroke-width:2"/><path fill="#1A83AF" d="m2597.97 305.91 5.753-7.994-4.732 3.1-3.1-4.733z" style="stroke:#1a83af;stroke-width:2"/><path fill="none" d="M2265.76 146.73c-4.47 23.9-9.53 65.87 1.24 99.64 7.3 22.89 19.924 40.335 33.174 55.245" style="stroke:#1a83af;stroke-width:2"/><path fill="#1A83AF" d="m2304.16 306.1-2.988-9.385-.333 5.648-5.647-.333z" style="stroke:#1a83af;stroke-width:2"/><path fill="none" d="M2300.82 147.01c27.35 17.14 62.006 38.874 89.336 56.004" style="stroke:#1a83af;stroke-width:2"/><path fill="#1A83AF" d="m2395.24 206.2-5.501-8.169 1.264 5.514-5.513 1.265z" style="stroke:#1a83af;stroke-width:2"/><path fill="none" d="M2341.58 246.86c-74.59 17.12-176.942 40.618-251.482 57.728" style="stroke:#1a83af;stroke-width:2"/><path fill="#1A83AF" d="m2084.25 305.93 9.667 1.885-4.794-3.004 3.004-4.793z" style="stroke:#1a83af;stroke-width:2"/><path fill="none" d="M2515.17 246.86c78.79 17.12 187.237 40.686 265.967 57.796" style="stroke:#1a83af;stroke-width:2"/><path fill="#1A83AF" d="m2787 305.93-7.945-5.82 3.06 4.758-4.76 3.06z" style="stroke:#1a83af;stroke-width:2"/><path fill="none" d="M2458.99 246.8c29.28 17.14 66.653 39.017 95.903 56.156" style="stroke:#1a83af;stroke-width:2"/><path fill="#1A83AF" d="m2560.07 305.99-5.743-8.001 1.43 5.473-5.474 1.429z" style="stroke:#1a83af;stroke-width:2"/><path fill="none" d="M2405.65 246.8c-18.06 17.14-39.95 37.917-57.99 55.057" style="stroke:#1a83af;stroke-width:2"/><path fill="#1A83AF" d="m2343.31 305.99 9.28-3.3-5.655-.144.144-5.655z" style="stroke:#1a83af;stroke-width:2"/></svg>