<?xml version="1.0" encoding="us-ascii" standalone="no"?><svg xmlns="http://www.w3.org/2000/svg" xmlns:xlink="http://www.w3.org/1999/xlink" contentStyleType="text/css" height="1006px" preserveAspectRatio="none" style="width:702px;height:1006px;" version="1.1" viewBox="0 0 702 1006" width="702px" zoomAndPan="magnify"><defs/><g><!--class azure_cosmos_db_postgresql_cluster_server_configuration--><g id="elem_azure_cosmos_db_postgresql_cluster_server_configuration"><rect codeLine="23" fill="#3D176E" height="74.0859" id="azure_cosmos_db_postgresql_cluster_server_configuration" rx="2.5" ry="2.5" style="stroke:#000D19;stroke-width:0.5;" width="527" x="168.5" y="660.14"/><ellipse cx="183.5" cy="680.0345" fill="#ADD1B2" rx="11" ry="11" style="stroke:#181818;stroke-width:1.0;"/><path d="M186.4688,685.6752 Q185.8906,685.972 185.25,686.1127 Q184.6094,686.2689 183.9063,686.2689 Q181.4063,686.2689 180.0781,684.6283 Q178.7656,682.972 178.7656,679.847 Q178.7656,676.722 180.0781,675.0658 Q181.4063,673.4095 183.9063,673.4095 Q184.6094,673.4095 185.25,673.5658 Q185.9063,673.722 186.4688,674.0189 L186.4688,676.7377 Q185.8438,676.1595 185.25,675.8939 Q184.6563,675.6127 184.0313,675.6127 Q182.6875,675.6127 182,676.6908 Q181.3125,677.7533 181.3125,679.847 Q181.3125,681.9408 182,683.0189 Q182.6875,684.0814 184.0313,684.0814 Q184.6563,684.0814 185.25,683.8158 Q185.8438,683.5345 186.4688,682.9564 L186.4688,685.6752 Z " fill="#000000"/><text fill="#D9B8FF" font-family="Helvetica" font-size="17" lengthAdjust="spacing" textLength="485" x="202.5" y="685.9198">azure_cosmos_db_postgresql_cluster_server_configuration</text><line style="stroke:#000D19;stroke-width:0.5;" x1="169.5" x2="694.5" y1="699.9291" y2="699.9291"/><text fill="#D9B8FF" font-family="sans-serif" font-size="14" font-weight="bold" lengthAdjust="spacing" textLength="49" x="179.5" y="721.9242">config</text><text fill="#D9B8FF" font-family="sans-serif" font-size="14" lengthAdjust="spacing" textLength="156" x="228.5" y="721.9242">: dictionary[string, any]</text></g><!--class azure_proxy_resource--><g id="elem_azure_proxy_resource"><rect codeLine="26" fill="#3D176E" height="100.3828" id="azure_proxy_resource" rx="2.5" ry="2.5" style="stroke:#000D19;stroke-width:0.5;" width="262" x="7" y="438.76"/><ellipse cx="39.1" cy="458.6545" fill="#ADD1B2" rx="11" ry="11" style="stroke:#181818;stroke-width:1.0;"/><path d="M42.0688,464.2952 Q41.4906,464.592 40.85,464.7327 Q40.2094,464.8889 39.5063,464.8889 Q37.0063,464.8889 35.6781,463.2483 Q34.3656,461.592 34.3656,458.467 Q34.3656,455.342 35.6781,453.6858 Q37.0063,452.0295 39.5063,452.0295 Q40.2094,452.0295 40.85,452.1858 Q41.5063,452.342 42.0688,452.6389 L42.0688,455.3577 Q41.4438,454.7795 40.85,454.5139 Q40.2563,454.2327 39.6313,454.2327 Q38.2875,454.2327 37.6,455.3108 Q36.9125,456.3733 36.9125,458.467 Q36.9125,460.5608 37.6,461.6389 Q38.2875,462.7014 39.6313,462.7014 Q40.2563,462.7014 40.85,462.4358 Q41.4438,462.1545 42.0688,461.5764 L42.0688,464.2952 Z " fill="#000000"/><text fill="#D9B8FF" font-family="Helvetica" font-size="17" lengthAdjust="spacing" textLength="182" x="61.9" y="464.5398">azure_proxy_resource</text><line style="stroke:#000D19;stroke-width:0.5;" x1="8" x2="268" y1="478.5491" y2="478.5491"/><text fill="#D9B8FF" font-family="sans-serif" font-size="14" font-weight="bold" lengthAdjust="spacing" textLength="98" x="18" y="500.5442">system_data</text><text fill="#D9B8FF" font-family="sans-serif" font-size="14" lengthAdjust="spacing" textLength="142" x="116" y="500.5442">: azure_system_data</text><text fill="#D9B8FF" font-family="sans-serif" font-size="14" font-weight="bold" lengthAdjust="spacing" textLength="35" x="18" y="526.8411">type</text><text fill="#D9B8FF" font-family="sans-serif" font-size="14" lengthAdjust="spacing" textLength="48" x="53" y="526.8411">: string</text></g><!--class azure_system_data--><g id="elem_azure_system_data"><rect codeLine="30" fill="#3D176E" height="205.5703" id="azure_system_data" rx="2.5" ry="2.5" style="stroke:#000D19;stroke-width:0.5;" width="241" x="153.5" y="794.23"/><ellipse cx="185.6" cy="814.1245" fill="#ADD1B2" rx="11" ry="11" style="stroke:#181818;stroke-width:1.0;"/><path d="M188.5688,819.7652 Q187.9906,820.062 187.35,820.2027 Q186.7094,820.3589 186.0063,820.3589 Q183.5063,820.3589 182.1781,818.7183 Q180.8656,817.062 180.8656,813.937 Q180.8656,810.812 182.1781,809.1558 Q183.5063,807.4995 186.0063,807.4995 Q186.7094,807.4995 187.35,807.6558 Q188.0063,807.812 188.5688,808.1089 L188.5688,810.8277 Q187.9438,810.2495 187.35,809.9839 Q186.7563,809.7027 186.1313,809.7027 Q184.7875,809.7027 184.1,810.7808 Q183.4125,811.8433 183.4125,813.937 Q183.4125,816.0308 184.1,817.1089 Q184.7875,818.1714 186.1313,818.1714 Q186.7563,818.1714 187.35,817.9058 Q187.9438,817.6245 188.5688,817.0464 L188.5688,819.7652 Z " fill="#000000"/><text fill="#D9B8FF" font-family="Helvetica" font-size="17" lengthAdjust="spacing" textLength="161" x="208.4" y="820.0098">azure_system_data</text><line style="stroke:#000D19;stroke-width:0.5;" x1="154.5" x2="393.5" y1="834.0191" y2="834.0191"/><text fill="#D9B8FF" font-family="sans-serif" font-size="14" font-weight="bold" lengthAdjust="spacing" textLength="83" x="164.5" y="856.0142">created_at</text><text fill="#D9B8FF" font-family="sans-serif" font-size="14" lengthAdjust="spacing" textLength="70" x="247.5" y="856.0142">: datetime</text><text fill="#D9B8FF" font-family="sans-serif" font-size="14" font-weight="bold" lengthAdjust="spacing" textLength="87" x="164.5" y="882.3111">created_by</text><text fill="#D9B8FF" font-family="sans-serif" font-size="14" lengthAdjust="spacing" textLength="48" x="251.5" y="882.3111">: string</text><text fill="#D9B8FF" font-family="sans-serif" font-size="14" font-weight="bold" lengthAdjust="spacing" textLength="129" x="164.5" y="908.6079">created_by_type</text><text fill="#D9B8FF" font-family="sans-serif" font-size="14" lengthAdjust="spacing" textLength="48" x="293.5" y="908.6079">: string</text><text fill="#D9B8FF" font-family="sans-serif" font-size="14" font-weight="bold" lengthAdjust="spacing" textLength="125" x="164.5" y="934.9048">last_modified_at</text><text fill="#D9B8FF" font-family="sans-serif" font-size="14" lengthAdjust="spacing" textLength="70" x="289.5" y="934.9048">: datetime</text><text fill="#D9B8FF" font-family="sans-serif" font-size="14" font-weight="bold" lengthAdjust="spacing" textLength="129" x="164.5" y="961.2017">last_modified_by</text><text fill="#D9B8FF" font-family="sans-serif" font-size="14" lengthAdjust="spacing" textLength="48" x="293.5" y="961.2017">: string</text><text fill="#D9B8FF" font-family="sans-serif" font-size="14" font-weight="bold" lengthAdjust="spacing" textLength="171" x="164.5" y="987.4986">last_modified_by_type</text><text fill="#D9B8FF" font-family="sans-serif" font-size="14" lengthAdjust="spacing" textLength="48" x="335.5" y="987.4986">: string</text></g><!--class microsoft_resource--><g id="elem_microsoft_resource"><rect codeLine="38" fill="#3D176E" height="100.3828" id="microsoft_resource" rx="2.5" ry="2.5" style="stroke:#000D19;stroke-width:0.5;" width="214" x="325" y="438.76"/><ellipse cx="346.3" cy="458.6545" fill="#ADD1B2" rx="11" ry="11" style="stroke:#181818;stroke-width:1.0;"/><path d="M349.2688,464.2952 Q348.6906,464.592 348.05,464.7327 Q347.4094,464.8889 346.7063,464.8889 Q344.2063,464.8889 342.8781,463.2483 Q341.5656,461.592 341.5656,458.467 Q341.5656,455.342 342.8781,453.6858 Q344.2063,452.0295 346.7063,452.0295 Q347.4094,452.0295 348.05,452.1858 Q348.7063,452.342 349.2688,452.6389 L349.2688,455.3577 Q348.6438,454.7795 348.05,454.5139 Q347.4563,454.2327 346.8313,454.2327 Q345.4875,454.2327 344.8,455.3108 Q344.1125,456.3733 344.1125,458.467 Q344.1125,460.5608 344.8,461.6389 Q345.4875,462.7014 346.8313,462.7014 Q347.4563,462.7014 348.05,462.4358 Q348.6438,462.1545 349.2688,461.5764 L349.2688,464.2952 Z " fill="#000000"/><text fill="#D9B8FF" font-family="Helvetica" font-size="17" lengthAdjust="spacing" textLength="158" x="366.7" y="464.5398">microsoft_resource</text><line style="stroke:#000D19;stroke-width:0.5;" x1="326" x2="538" y1="478.5491" y2="478.5491"/><text fill="#D9B8FF" font-family="sans-serif" font-size="14" font-weight="bold" lengthAdjust="spacing" textLength="35" x="336" y="500.5442">etag</text><text fill="#D9B8FF" font-family="sans-serif" font-size="14" lengthAdjust="spacing" textLength="48" x="371" y="500.5442">: string</text><text fill="#D9B8FF" font-family="sans-serif" font-size="14" font-weight="bold" lengthAdjust="spacing" textLength="144" x="336" y="526.8411">provisioning_state</text><text fill="#D9B8FF" font-family="sans-serif" font-size="14" lengthAdjust="spacing" textLength="48" x="480" y="526.8411">: string</text></g><!--class resource--><g id="elem_resource"><rect codeLine="42" fill="#3D176E" height="310.7578" id="resource" rx="2.5" ry="2.5" style="stroke:#000D19;stroke-width:0.5;" width="227" x="318.5" y="7"/><ellipse cx="387.25" cy="26.8945" fill="#ADD1B2" rx="11" ry="11" style="stroke:#181818;stroke-width:1.0;"/><path d="M390.2188,32.5352 Q389.6406,32.832 389,32.9727 Q388.3594,33.1289 387.6563,33.1289 Q385.1563,33.1289 383.8281,31.4883 Q382.5156,29.832 382.5156,26.707 Q382.5156,23.582 383.8281,21.9258 Q385.1563,20.2695 387.6563,20.2695 Q388.3594,20.2695 389,20.4258 Q389.6563,20.582 390.2188,20.8789 L390.2188,23.5977 Q389.5938,23.0195 389,22.7539 Q388.4063,22.4727 387.7813,22.4727 Q386.4375,22.4727 385.75,23.5508 Q385.0625,24.6133 385.0625,26.707 Q385.0625,28.8008 385.75,29.8789 Q386.4375,30.9414 387.7813,30.9414 Q388.4063,30.9414 389,30.6758 Q389.5938,30.3945 390.2188,29.8164 L390.2188,32.5352 Z " fill="#000000"/><text fill="#D9B8FF" font-family="Helvetica" font-size="17" lengthAdjust="spacing" textLength="71" x="412.75" y="32.7798">resource</text><line style="stroke:#000D19;stroke-width:0.5;" x1="319.5" x2="544.5" y1="46.7891" y2="46.7891"/><text fill="#D9B8FF" font-family="sans-serif" font-size="14" font-weight="bold" lengthAdjust="spacing" textLength="29" x="329.5" y="68.7842">age</text><text fill="#D9B8FF" font-family="sans-serif" font-size="14" lengthAdjust="spacing" textLength="66" x="358.5" y="68.7842">: duration</text><text fill="#D9B8FF" font-family="sans-serif" font-size="14" font-weight="bold" lengthAdjust="spacing" textLength="43" x="329.5" y="95.0811">atime</text><text fill="#D9B8FF" font-family="sans-serif" font-size="14" lengthAdjust="spacing" textLength="70" x="372.5" y="95.0811">: datetime</text><text fill="#D9B8FF" font-family="sans-serif" font-size="14" font-weight="bold" lengthAdjust="spacing" textLength="43" x="329.5" y="121.3779">ctime</text><text fill="#D9B8FF" font-family="sans-serif" font-size="14" lengthAdjust="spacing" textLength="70" x="372.5" y="121.3779">: datetime</text><text fill="#D9B8FF" font-family="sans-serif" font-size="14" font-weight="bold" lengthAdjust="spacing" textLength="14" x="329.5" y="147.6748">id</text><text fill="#D9B8FF" font-family="sans-serif" font-size="14" lengthAdjust="spacing" textLength="48" x="343.5" y="147.6748">: string</text><text fill="#D9B8FF" font-family="sans-serif" font-size="14" font-weight="bold" lengthAdjust="spacing" textLength="33" x="329.5" y="173.9717">kind</text><text fill="#D9B8FF" font-family="sans-serif" font-size="14" lengthAdjust="spacing" textLength="48" x="362.5" y="173.9717">: string</text><text fill="#D9B8FF" font-family="sans-serif" font-size="14" font-weight="bold" lengthAdjust="spacing" textLength="90" x="329.5" y="200.2686">last_access</text><text fill="#D9B8FF" font-family="sans-serif" font-size="14" lengthAdjust="spacing" textLength="66" x="419.5" y="200.2686">: duration</text><text fill="#D9B8FF" font-family="sans-serif" font-size="14" font-weight="bold" lengthAdjust="spacing" textLength="90" x="329.5" y="226.5654">last_update</text><text fill="#D9B8FF" font-family="sans-serif" font-size="14" lengthAdjust="spacing" textLength="66" x="419.5" y="226.5654">: duration</text><text fill="#D9B8FF" font-family="sans-serif" font-size="14" font-weight="bold" lengthAdjust="spacing" textLength="48" x="329.5" y="252.8623">mtime</text><text fill="#D9B8FF" font-family="sans-serif" font-size="14" lengthAdjust="spacing" textLength="70" x="377.5" y="252.8623">: datetime</text><text fill="#D9B8FF" font-family="sans-serif" font-size="14" font-weight="bold" lengthAdjust="spacing" textLength="43" x="329.5" y="279.1592">name</text><text fill="#D9B8FF" font-family="sans-serif" font-size="14" lengthAdjust="spacing" textLength="48" x="372.5" y="279.1592">: string</text><text fill="#D9B8FF" font-family="sans-serif" font-size="14" font-weight="bold" lengthAdjust="spacing" textLength="34" x="329.5" y="305.4561">tags</text><text fill="#D9B8FF" font-family="sans-serif" font-size="14" lengthAdjust="spacing" textLength="171" x="363.5" y="305.4561">: dictionary[string, string]</text></g><!--reverse link azure_proxy_resource to azure_cosmos_db_postgresql_cluster_server_configuration--><g id="link_azure_proxy_resource_azure_cosmos_db_postgresql_cluster_server_configuration"><path codeLine="54" d="M223.5263,549.9464 C276.3763,587.0164 332.64,626.49 380.24,659.88 " fill="none" id="azure_proxy_resource-backto-azure_cosmos_db_postgresql_cluster_server_configuration" style="stroke:#FFAF37;stroke-width:2.0;"/><polygon fill="none" points="208.79,539.61,220.0809,554.8585,226.9718,545.0342,208.79,539.61" style="stroke:#FFAF37;stroke-width:2.0;"/></g><!--link azure_cosmos_db_postgresql_cluster_server_configuration to azure_system_data--><g id="link_azure_cosmos_db_postgresql_cluster_server_configuration_azure_system_data"><path codeLine="55" d="M403.02,734.47 C389.48,751.43 376.355,767.8622 359.315,789.1922 " fill="none" id="azure_cosmos_db_postgresql_cluster_server_configuration-to-azure_system_data" style="stroke:#FFAF37;stroke-width:2.0;"/><polygon fill="#FFAF37" points="355.57,793.88,364.3126,789.345,358.6908,789.9735,358.0622,784.3517,355.57,793.88" style="stroke:#FFAF37;stroke-width:2.0;"/></g><!--reverse link microsoft_resource to azure_cosmos_db_postgresql_cluster_server_configuration--><g id="link_microsoft_resource_azure_cosmos_db_postgresql_cluster_server_configuration"><path codeLine="56" d="M432,557.61 C432,594.68 432,626.49 432,659.88 " fill="none" id="microsoft_resource-backto-azure_cosmos_db_postgresql_cluster_server_configuration" style="stroke:#FFAF37;stroke-width:2.0;"/><polygon fill="none" points="432,539.61,426,557.61,438,557.61,432,539.61" style="stroke:#FFAF37;stroke-width:2.0;"/></g><!--link azure_proxy_resource to azure_system_data--><g id="link_azure_proxy_resource_azure_system_data"><path codeLine="57" d="M132.31,539.38 C128.38,589.97 127.45,670.04 151,734.23 C158.59,754.93 166.461,770.1916 179.081,788.9516 " fill="none" id="azure_proxy_resource-to-azure_system_data" style="stroke:#FFAF37;stroke-width:2.0;"/><polygon fill="#FFAF37" points="182.43,793.93,180.7254,784.2298,179.6392,789.7814,174.0876,788.6951,182.43,793.93" style="stroke:#FFAF37;stroke-width:2.0;"/></g><!--reverse link resource to microsoft_resource--><g id="link_resource_microsoft_resource"><path codeLine="58" d="M432,336.06 C432,379.66 432,405.98 432,438.43 " fill="none" id="resource-backto-microsoft_resource" style="stroke:#FFAF37;stroke-width:2.0;"/><polygon fill="none" points="432,318.06,426,336.06,438,336.06,432,318.06" style="stroke:#FFAF37;stroke-width:2.0;"/></g><!--SRC=[hLJ1Yjim4BtxAmHxCmqaNTfiIYbi0wMzBANRMobY8eqT4KjoHtAsthR_NjdE5bbsTc7fIVQyntjlHcFlbKI6klOjqwXtI2vp1sLg8D3iciZURMrbYLqK1HINwnJyO8r_ad036jb7h8xebO2KyNMlnC6WS-nb1Bq7SIZ9DaOEyfx0k02XyH5hMu5przwJsZKUep1oixigYfIPYbvSojNwDKvebYJIYR9SBkLgarAUj7gqxt-CMtMFR1KFxSPwdCISMFIiHrDsZ2ZafD47_6p6po2bCYLx5TM-39d888tgjtkGzgvZ5r2vsCPv9BI-hN4xwGetLx9Opv8_dIDdeXiTW_k6a0lhj7LSxdXjdIy9tO-AYwhfTBX3EeP3M5EeiY7moXhsAylpePBdRvXKegi2jTzSM25Jlc1Wsk_Pdv5BJVPdouEuRKXWB-7QOA6v10-Tpi2BYe7ITT5XWt0Y6L67I8JWKNBmVQpmx9N62DYraLPSvebFdWSRpxMLgb1pYcCuqKr1VgOBhGHPPmi_7WjwA4TwONH7vSA8mojtFgIO4Hj9GDbJvEd2kaeNF1tBJ4t9aNLOAZdj3OG8Fvh4eKUQMfxYHOYUyJ6WnmCFJRipspIStKBDhjBRtul5uhcxd3tt6rWitirixCoL_ezuISVptedZD4hs5m00]--></g></svg>