<svg xmlns="http://www.w3.org/2000/svg" width="1149" height="1509" viewBox="0 0 1149 1509"><rect width="242" height="100.383" x="517" y="465.06" fill="#3D176E" rx="2.5" ry="2.5" style="stroke:#000d19;stroke-width:.5"/><circle cx="600.75" cy="484.954" r="11" fill="#ADD1B2" style="stroke:#181818;stroke-width:1"/><path d="M603.719 490.595q-.578.297-1.219.438-.64.156-1.344.156-2.5 0-3.828-1.64-1.312-1.657-1.312-4.782t1.312-4.781q1.328-1.656 3.828-1.656.703 0 1.344.156.656.156 1.219.453v2.719q-.625-.579-1.219-.844-.594-.281-1.219-.281-1.343 0-2.031 1.078-.687 1.062-.687 3.156t.687 3.172q.688 1.062 2.031 1.062.625 0 1.219-.265.594-.281 1.219-.86z"/><text x="626.25" y="490.84" fill="#D9B8FF" font-family="Helvetica" font-size="17" textLength="56">bucket</text><path d="M518 504.849h240" style="stroke:#000d19;stroke-width:.5"/><text x="528" y="526.844" fill="#D9B8FF" font-family="sans-serif" font-size="14" font-weight="bold" textLength="155">encryption_enabled</text><text x="683" y="526.844" fill="#D9B8FF" font-family="sans-serif" font-size="14" textLength="65">: boolean</text><text x="528" y="553.141" fill="#D9B8FF" font-family="sans-serif" font-size="14" font-weight="bold" textLength="153">versioning_enabled</text><text x="681" y="553.141" fill="#D9B8FF" font-family="sans-serif" font-size="14" textLength="65">: boolean</text><rect width="475" height="205.57" x="430.5" y="712.74" fill="#3D176E" rx="2.5" ry="2.5" style="stroke:#000d19;stroke-width:.5"/><circle cx="573.25" cy="732.635" r="11" fill="#ADD1B2" style="stroke:#181818;stroke-width:1"/><path d="M576.219 738.275q-.578.297-1.219.438-.64.156-1.344.156-2.5 0-3.828-1.64-1.312-1.657-1.312-4.782t1.312-4.781q1.328-1.657 3.828-1.657.703 0 1.344.157.656.156 1.219.453v2.719q-.625-.578-1.219-.844-.594-.281-1.219-.281-1.343 0-2.031 1.078-.687 1.062-.687 3.156t.687 3.172q.688 1.062 2.031 1.062.625 0 1.219-.265.594-.282 1.219-.86z"/><text x="598.75" y="738.52" fill="#D9B8FF" font-family="Helvetica" font-size="17" textLength="171">gcp_backend_bucket</text><path d="M431.5 752.529h473" style="stroke:#000d19;stroke-width:.5"/><text x="441.5" y="774.524" fill="#D9B8FF" font-family="sans-serif" font-size="14" font-weight="bold" textLength="217">backend_bucket_cdn_policy</text><text x="658.5" y="774.524" fill="#D9B8FF" font-family="sans-serif" font-size="14" textLength="236">: gcp_backend_bucket_cdn_policy</text><text x="441.5" y="800.821" fill="#D9B8FF" font-family="sans-serif" font-size="14" font-weight="bold" textLength="104">bucket_name</text><text x="545.5" y="800.821" fill="#D9B8FF" font-family="sans-serif" font-size="14" textLength="48">: string</text><text x="441.5" y="827.118" fill="#D9B8FF" font-family="sans-serif" font-size="14" font-weight="bold" textLength="153">compression_mode</text><text x="594.5" y="827.118" fill="#D9B8FF" font-family="sans-serif" font-size="14" textLength="48">: string</text><text x="441.5" y="853.415" fill="#D9B8FF" font-family="sans-serif" font-size="14" font-weight="bold" textLength="212">custom_response_headers</text><text x="653.5" y="853.415" fill="#D9B8FF" font-family="sans-serif" font-size="14" textLength="58">: string[]</text><text x="441.5" y="879.712" fill="#D9B8FF" font-family="sans-serif" font-size="14" font-weight="bold" textLength="164">edge_security_policy</text><text x="605.5" y="879.712" fill="#D9B8FF" font-family="sans-serif" font-size="14" textLength="48">: string</text><text x="441.5" y="906.009" fill="#D9B8FF" font-family="sans-serif" font-size="14" font-weight="bold" textLength="89">enable_cdn</text><text x="530.5" y="906.009" fill="#D9B8FF" font-family="sans-serif" font-size="14" textLength="65">: boolean</text><rect width="630" height="363.352" x="184" y="978.31" fill="#3D176E" rx="2.5" ry="2.5" style="stroke:#000d19;stroke-width:.5"/><circle cx="356.75" cy="998.205" r="11" fill="#ADD1B2" style="stroke:#181818;stroke-width:1"/><path d="M359.719 1003.845q-.578.297-1.219.438-.64.156-1.344.156-2.5 0-3.828-1.64-1.312-1.657-1.312-4.782t1.312-4.781q1.328-1.656 3.828-1.656.703 0 1.344.156.656.156 1.219.453v2.719q-.625-.578-1.219-.844-.594-.281-1.219-.281-1.344 0-2.031 1.078-.687 1.062-.687 3.156t.687 3.172q.688 1.062 2.031 1.062.625 0 1.219-.265.594-.281 1.219-.86z"/><text x="382.25" y="1004.09" fill="#D9B8FF" font-family="Helvetica" font-size="17" textLength="266">gcp_backend_bucket_cdn_policy</text><path d="M185 1018.099h628" style="stroke:#000d19;stroke-width:.5"/><text x="195" y="1040.094" fill="#D9B8FF" font-family="sans-serif" font-size="14" font-weight="bold" textLength="278">bypass_cache_on_request_headers</text><text x="473" y="1040.094" fill="#D9B8FF" font-family="sans-serif" font-size="14" textLength="58">: string[]</text><text x="195" y="1066.391" fill="#D9B8FF" font-family="sans-serif" font-size="14" font-weight="bold" textLength="135">cache_key_policy</text><text x="330" y="1066.391" fill="#D9B8FF" font-family="sans-serif" font-size="14" textLength="362">: gcp_backend_bucket_cdn_policy_cache_key_policy</text><text x="195" y="1092.688" fill="#D9B8FF" font-family="sans-serif" font-size="14" font-weight="bold" textLength="98">cache_mode</text><text x="293" y="1092.688" fill="#D9B8FF" font-family="sans-serif" font-size="14" textLength="48">: string</text><text x="195" y="1118.985" fill="#D9B8FF" font-family="sans-serif" font-size="14" font-weight="bold" textLength="66">client_ttl</text><text x="261" y="1118.985" fill="#D9B8FF" font-family="sans-serif" font-size="14" textLength="44">: int64</text><text x="195" y="1145.282" fill="#D9B8FF" font-family="sans-serif" font-size="14" font-weight="bold" textLength="78">default_ttl</text><text x="273" y="1145.282" fill="#D9B8FF" font-family="sans-serif" font-size="14" textLength="44">: int64</text><text x="195" y="1171.579" fill="#D9B8FF" font-family="sans-serif" font-size="14" font-weight="bold" textLength="55">max_ttl</text><text x="250" y="1171.579" fill="#D9B8FF" font-family="sans-serif" font-size="14" textLength="44">: int64</text><text x="195" y="1197.875" fill="#D9B8FF" font-family="sans-serif" font-size="14" font-weight="bold" textLength="136">negative_caching</text><text x="331" y="1197.875" fill="#D9B8FF" font-family="sans-serif" font-size="14" textLength="65">: boolean</text><text x="195" y="1224.172" fill="#D9B8FF" font-family="sans-serif" font-size="14" font-weight="bold" textLength="189">negative_caching_policy</text><text x="384" y="1224.172" fill="#D9B8FF" font-family="sans-serif" font-size="14" textLength="419">: gcp_backend_bucket_cdn_policy_negative_caching_policy[]</text><text x="195" y="1250.469" fill="#D9B8FF" font-family="sans-serif" font-size="14" font-weight="bold" textLength="153">request_coalescing</text><text x="348" y="1250.469" fill="#D9B8FF" font-family="sans-serif" font-size="14" textLength="65">: boolean</text><text x="195" y="1276.766" fill="#D9B8FF" font-family="sans-serif" font-size="14" font-weight="bold" textLength="139">serve_while_stale</text><text x="334" y="1276.766" fill="#D9B8FF" font-family="sans-serif" font-size="14" textLength="44">: int64</text><text x="195" y="1303.063" fill="#D9B8FF" font-family="sans-serif" font-size="14" font-weight="bold" textLength="245">signed_url_cache_max_age_sec</text><text x="440" y="1303.063" fill="#D9B8FF" font-family="sans-serif" font-size="14" textLength="48">: string</text><text x="195" y="1329.36" fill="#D9B8FF" font-family="sans-serif" font-size="14" font-weight="bold" textLength="175">signed_url_key_names</text><text x="370" y="1329.36" fill="#D9B8FF" font-family="sans-serif" font-size="14" textLength="58">: string[]</text><rect width="460" height="100.383" x="7" y="1401.66" fill="#3D176E" rx="2.5" ry="2.5" style="stroke:#000d19;stroke-width:.5"/><circle cx="22" cy="1421.554" r="11" fill="#ADD1B2" style="stroke:#181818;stroke-width:1"/><path d="M24.969 1427.195q-.578.297-1.219.438-.64.156-1.344.156-2.5 0-3.828-1.64-1.312-1.657-1.312-4.782t1.312-4.781q1.328-1.657 3.828-1.657.703 0 1.344.157.656.156 1.219.453v2.719q-.625-.579-1.219-.844-.594-.281-1.219-.281-1.343 0-2.031 1.078-.687 1.062-.687 3.156t.687 3.172q.688 1.062 2.031 1.062.625 0 1.219-.265.594-.282 1.219-.86z"/><text x="41" y="1427.44" fill="#D9B8FF" font-family="Helvetica" font-size="17" textLength="418">gcp_backend_bucket_cdn_policy_cache_key_policy</text><path d="M8 1441.449h458" style="stroke:#000d19;stroke-width:.5"/><text x="18" y="1463.444" fill="#D9B8FF" font-family="sans-serif" font-size="14" font-weight="bold" textLength="168">include_http_headers</text><text x="186" y="1463.444" fill="#D9B8FF" font-family="sans-serif" font-size="14" textLength="58">: string[]</text><text x="18" y="1489.741" fill="#D9B8FF" font-family="sans-serif" font-size="14" font-weight="bold" textLength="173">query_string_whitelist</text><text x="191" y="1489.741" fill="#D9B8FF" font-family="sans-serif" font-size="14" textLength="58">: string[]</text><rect width="519" height="100.383" x="501.5" y="1401.66" fill="#3D176E" rx="2.5" ry="2.5" style="stroke:#000d19;stroke-width:.5"/><circle cx="516.5" cy="1421.554" r="11" fill="#ADD1B2" style="stroke:#181818;stroke-width:1"/><path d="M519.469 1427.195q-.578.297-1.219.438-.64.156-1.344.156-2.5 0-3.828-1.64-1.312-1.657-1.312-4.782t1.312-4.781q1.328-1.657 3.828-1.657.703 0 1.344.157.656.156 1.219.453v2.719q-.625-.579-1.219-.844-.594-.281-1.219-.281-1.343 0-2.031 1.078-.687 1.062-.687 3.156t.687 3.172q.688 1.062 2.031 1.062.625 0 1.219-.265.594-.282 1.219-.86z"/><text x="535.5" y="1427.44" fill="#D9B8FF" font-family="Helvetica" font-size="17" textLength="477">gcp_backend_bucket_cdn_policy_negative_caching_policy</text><path d="M502.5 1441.449h517" style="stroke:#000d19;stroke-width:.5"/><text x="512.5" y="1463.444" fill="#D9B8FF" font-family="sans-serif" font-size="14" font-weight="bold" textLength="39">code</text><text x="551.5" y="1463.444" fill="#D9B8FF" font-family="sans-serif" font-size="14" textLength="44">: int64</text><text x="512.5" y="1489.741" fill="#D9B8FF" font-family="sans-serif" font-size="14" font-weight="bold" textLength="16">ttl</text><text x="528.5" y="1489.741" fill="#D9B8FF" font-family="sans-serif" font-size="14" textLength="44">: int64</text><rect width="237" height="179.273" x="849.5" y="1070.34" fill="#3D176E" rx="2.5" ry="2.5" style="stroke:#000d19;stroke-width:.5"/><circle cx="864.5" cy="1090.235" r="11" fill="#ADD1B2" style="stroke:#181818;stroke-width:1"/><path d="M867.469 1095.875q-.578.297-1.219.438-.64.156-1.344.156-2.5 0-3.828-1.64-1.312-1.657-1.312-4.782t1.312-4.781q1.328-1.657 3.828-1.657.703 0 1.344.157.656.156 1.219.453v2.719q-.625-.579-1.219-.844-.594-.281-1.219-.281-1.343 0-2.031 1.078-.687 1.062-.687 3.156t.687 3.172q.688 1.062 2.031 1.062.625 0 1.219-.265.594-.282 1.219-.86z"/><text x="883.5" y="1096.12" fill="#D9B8FF" font-family="Helvetica" font-size="17" textLength="195">gcp_deprecation_status</text><path d="M850.5 1110.129h235" style="stroke:#000d19;stroke-width:.5"/><text x="860.5" y="1132.124" fill="#D9B8FF" font-family="sans-serif" font-size="14" font-weight="bold" textLength="60">deleted</text><text x="920.5" y="1132.124" fill="#D9B8FF" font-family="sans-serif" font-size="14" textLength="48">: string</text><text x="860.5" y="1158.421" fill="#D9B8FF" font-family="sans-serif" font-size="14" font-weight="bold" textLength="91">deprecated</text><text x="951.5" y="1158.421" fill="#D9B8FF" font-family="sans-serif" font-size="14" textLength="48">: string</text><text x="860.5" y="1184.718" fill="#D9B8FF" font-family="sans-serif" font-size="14" font-weight="bold" textLength="69">obsolete</text><text x="929.5" y="1184.718" fill="#D9B8FF" font-family="sans-serif" font-size="14" textLength="48">: string</text><text x="860.5" y="1211.015" fill="#D9B8FF" font-family="sans-serif" font-size="14" font-weight="bold" textLength="99">replacement</text><text x="959.5" y="1211.015" fill="#D9B8FF" font-family="sans-serif" font-size="14" textLength="48">: string</text><text x="860.5" y="1237.312" fill="#D9B8FF" font-family="sans-serif" font-size="14" font-weight="bold" textLength="40">state</text><text x="900.5" y="1237.312" fill="#D9B8FF" font-family="sans-serif" font-size="14" textLength="48">: string</text><rect width="348" height="152.977" x="794" y="438.76" fill="#3D176E" rx="2.5" ry="2.5" style="stroke:#000d19;stroke-width:.5"/><circle cx="904.75" cy="458.654" r="11" fill="#ADD1B2" style="stroke:#181818;stroke-width:1"/><path d="M907.719 464.295q-.578.297-1.219.438-.64.156-1.344.156-2.5 0-3.828-1.64-1.312-1.657-1.312-4.782t1.312-4.781q1.328-1.656 3.828-1.656.703 0 1.344.156.656.156 1.219.453v2.719q-.625-.579-1.219-.844-.594-.281-1.219-.281-1.343 0-2.031 1.078-.687 1.062-.687 3.156t.687 3.172q.688 1.062 2.031 1.062.625 0 1.219-.265.594-.281 1.219-.86z"/><text x="930.25" y="464.54" fill="#D9B8FF" font-family="Helvetica" font-size="17" textLength="108">gcp_resource</text><path d="M795 478.549h346" style="stroke:#000d19;stroke-width:.5"/><text x="805" y="500.544" fill="#D9B8FF" font-family="sans-serif" font-size="14" font-weight="bold" textLength="151">deprecation_status</text><text x="956" y="500.544" fill="#D9B8FF" font-family="sans-serif" font-size="14" textLength="175">: gcp_deprecation_status</text><text x="805" y="526.841" fill="#D9B8FF" font-family="sans-serif" font-size="14" font-weight="bold" textLength="89">description</text><text x="894" y="526.841" fill="#D9B8FF" font-family="sans-serif" font-size="14" textLength="48">: string</text><text x="805" y="553.138" fill="#D9B8FF" font-family="sans-serif" font-size="14" font-weight="bold" textLength="128">label_fingerprint</text><text x="933" y="553.138" fill="#D9B8FF" font-family="sans-serif" font-size="14" textLength="48">: string</text><text x="805" y="579.435" fill="#D9B8FF" font-family="sans-serif" font-size="14" font-weight="bold" textLength="27">link</text><text x="832" y="579.435" fill="#D9B8FF" font-family="sans-serif" font-size="14" textLength="48">: string</text><rect width="227" height="310.758" x="688.5" y="7" fill="#3D176E" rx="2.5" ry="2.5" style="stroke:#000d19;stroke-width:.5"/><circle cx="757.25" cy="26.895" r="11" fill="#ADD1B2" style="stroke:#181818;stroke-width:1"/><path d="M760.219 32.535q-.578.297-1.219.438-.64.156-1.344.156-2.5 0-3.828-1.64-1.312-1.657-1.312-4.782t1.312-4.781q1.328-1.656 3.828-1.656.703 0 1.344.156.656.156 1.219.453v2.719q-.625-.578-1.219-.844-.594-.281-1.219-.281-1.343 0-2.031 1.078-.687 1.062-.687 3.156t.687 3.172q.688 1.062 2.031 1.062.625 0 1.219-.265.594-.281 1.219-.86z"/><text x="782.75" y="32.78" fill="#D9B8FF" font-family="Helvetica" font-size="17" textLength="71">resource</text><path d="M689.5 46.789h225" style="stroke:#000d19;stroke-width:.5"/><text x="699.5" y="68.784" fill="#D9B8FF" font-family="sans-serif" font-size="14" font-weight="bold" textLength="29">age</text><text x="728.5" y="68.784" fill="#D9B8FF" font-family="sans-serif" font-size="14" textLength="66">: duration</text><text x="699.5" y="95.081" fill="#D9B8FF" font-family="sans-serif" font-size="14" font-weight="bold" textLength="43">atime</text><text x="742.5" y="95.081" fill="#D9B8FF" font-family="sans-serif" font-size="14" textLength="70">: datetime</text><text x="699.5" y="121.378" fill="#D9B8FF" font-family="sans-serif" font-size="14" font-weight="bold" textLength="43">ctime</text><text x="742.5" y="121.378" fill="#D9B8FF" font-family="sans-serif" font-size="14" textLength="70">: datetime</text><text x="699.5" y="147.675" fill="#D9B8FF" font-family="sans-serif" font-size="14" font-weight="bold" textLength="14">id</text><text x="713.5" y="147.675" fill="#D9B8FF" font-family="sans-serif" font-size="14" textLength="48">: string</text><text x="699.5" y="173.972" fill="#D9B8FF" font-family="sans-serif" font-size="14" font-weight="bold" textLength="33">kind</text><text x="732.5" y="173.972" fill="#D9B8FF" font-family="sans-serif" font-size="14" textLength="48">: string</text><text x="699.5" y="200.269" fill="#D9B8FF" font-family="sans-serif" font-size="14" font-weight="bold" textLength="90">last_access</text><text x="789.5" y="200.269" fill="#D9B8FF" font-family="sans-serif" font-size="14" textLength="66">: duration</text><text x="699.5" y="226.565" fill="#D9B8FF" font-family="sans-serif" font-size="14" font-weight="bold" textLength="90">last_update</text><text x="789.5" y="226.565" fill="#D9B8FF" font-family="sans-serif" font-size="14" textLength="66">: duration</text><text x="699.5" y="252.862" fill="#D9B8FF" font-family="sans-serif" font-size="14" font-weight="bold" textLength="48">mtime</text><text x="747.5" y="252.862" fill="#D9B8FF" font-family="sans-serif" font-size="14" textLength="70">: datetime</text><text x="699.5" y="279.159" fill="#D9B8FF" font-family="sans-serif" font-size="14" font-weight="bold" textLength="43">name</text><text x="742.5" y="279.159" fill="#D9B8FF" font-family="sans-serif" font-size="14" textLength="48">: string</text><text x="699.5" y="305.456" fill="#D9B8FF" font-family="sans-serif" font-size="14" font-weight="bold" textLength="34">tags</text><text x="733.5" y="305.456" fill="#D9B8FF" font-family="sans-serif" font-size="14" textLength="171">: dictionary[string, string]</text><path fill="none" d="M722.088 334.347c-24.73 52.91-43.038 92.073-60.988 130.473m68.61-146.78-13.057 13.766 10.87 5.081z" style="stroke:#ffaf37;stroke-width:2"/><g fill="none"><path d="M644.788 583.75c4 39.84 7.972 79.21 12.952 128.76" style="stroke:#ffaf37;stroke-width:2"/><path d="m642.99 565.84-4.172 18.51 11.94-1.2z" style="stroke:#ffaf37;stroke-width:2"/></g><path fill="none" d="M617.75 918.34c-9.34 18.93-16.694 33.84-26.804 54.32" style="stroke:#ffaf37;stroke-width:2"/><path fill="#FFAF37" d="m588.29 978.04 7.57-6.3-5.357 1.817-1.816-5.358z" style="stroke:#ffaf37;stroke-width:2"/><path fill="none" d="M776.2 918.76c19.1 19.3 38.42 39.68 55.8 59.55 25.2 28.81 47.364 57.062 69.564 86.972" style="stroke:#ffaf37;stroke-width:2"/><path fill="#FFAF37" d="m905.14 1070.1-2.152-9.61-.828 5.595-5.596-.828z" style="stroke:#ffaf37;stroke-width:2"/><g fill="none"><path d="M879.146 604.592c-36.8 36.59-68.756 68.358-108.516 107.888" style="stroke:#ffaf37;stroke-width:2"/><path d="m891.91 591.9-16.995 8.437 8.461 8.51z" style="stroke:#ffaf37;stroke-width:2"/></g><path fill="none" d="M335.3 1342.09c-19.44 21.51-33.836 37.439-49.367 54.619" style="stroke:#ffaf37;stroke-width:2"/><path fill="#FFAF37" d="m281.91 1401.16 9.003-3.994-5.65.285-.285-5.65z" style="stroke:#ffaf37;stroke-width:2"/><path fill="none" d="m662.7 1342.09 49.366 54.619" style="stroke:#ffaf37;stroke-width:2"/><path fill="#FFAF37" d="m716.09 1401.16-3.068-9.359-.285 5.65-5.65-.285z" style="stroke:#ffaf37;stroke-width:2"/><path fill="none" d="M968 592.18v471.69" style="stroke:#ffaf37;stroke-width:2"/><path fill="#FFAF37" d="m968 1069.87 4-9-4 4-4-4z" style="stroke:#ffaf37;stroke-width:2"/><g fill="none"><path d="M882.867 334.311c19.73 41.71 32.523 68.729 49.203 103.999" style="stroke:#ffaf37;stroke-width:2"/><path d="m875.17 318.04 2.273 18.837 10.848-5.131z" style="stroke:#ffaf37;stroke-width:2"/></g></svg>