<?xml version="1.0" encoding="us-ascii" standalone="no"?><svg xmlns="http://www.w3.org/2000/svg" xmlns:xlink="http://www.w3.org/1999/xlink" contentStyleType="text/css" height="451px" preserveAspectRatio="none" style="width:1771px;height:451px;" version="1.1" viewBox="0 0 1771 451" width="1771px" zoomAndPan="magnify"><defs/><g><!--class azure_compute_virtual_machine--><g id="elem_azure_compute_virtual_machine"><rect codeLine="23" fill="#3D176E" height="39.7891" id="azure_compute_virtual_machine" rx="2.5" ry="2.5" style="stroke:#000D19;stroke-width:0.5;" width="315" x="562.84" y="306.37"/><ellipse cx="577.84" cy="326.2645" fill="#ADD1B2" rx="11" ry="11" style="stroke:#181818;stroke-width:1.0;"/><path d="M580.8088,331.9052 Q580.2306,332.202 579.59,332.3427 Q578.9494,332.4989 578.2463,332.4989 Q575.7463,332.4989 574.4181,330.8583 Q573.1056,329.202 573.1056,326.077 Q573.1056,322.952 574.4181,321.2958 Q575.7463,319.6395 578.2463,319.6395 Q578.9494,319.6395 579.59,319.7958 Q580.2463,319.952 580.8088,320.2489 L580.8088,322.9677 Q580.1838,322.3895 579.59,322.1239 Q578.9963,321.8427 578.3713,321.8427 Q577.0275,321.8427 576.34,322.9208 Q575.6525,323.9833 575.6525,326.077 Q575.6525,328.1708 576.34,329.2489 Q577.0275,330.3114 578.3713,330.3114 Q578.9963,330.3114 579.59,330.0458 Q580.1838,329.7645 580.8088,329.1864 L580.8088,331.9052 Z " fill="#000000"/><text fill="#D9B8FF" font-family="Helvetica" font-size="17" lengthAdjust="spacing" textLength="273" x="596.84" y="332.1498">azure_compute_virtual_machine</text></g><!--class azure_compute_virtual_machine_base--><g id="elem_azure_compute_virtual_machine_base"><rect codeLine="26" fill="#3D176E" height="39.7891" id="azure_compute_virtual_machine_base" rx="2.5" ry="2.5" style="stroke:#000D19;stroke-width:0.5;" width="362" x="165.34" y="306.37"/><ellipse cx="180.34" cy="326.2645" fill="#ADD1B2" rx="11" ry="11" style="stroke:#181818;stroke-width:1.0;"/><path d="M183.3088,331.9052 Q182.7306,332.202 182.09,332.3427 Q181.4494,332.4989 180.7463,332.4989 Q178.2463,332.4989 176.9181,330.8583 Q175.6056,329.202 175.6056,326.077 Q175.6056,322.952 176.9181,321.2958 Q178.2463,319.6395 180.7463,319.6395 Q181.4494,319.6395 182.09,319.7958 Q182.7463,319.952 183.3088,320.2489 L183.3088,322.9677 Q182.6838,322.3895 182.09,322.1239 Q181.4963,321.8427 180.8713,321.8427 Q179.5275,321.8427 178.84,322.9208 Q178.1525,323.9833 178.1525,326.077 Q178.1525,328.1708 178.84,329.2489 Q179.5275,330.3114 180.8713,330.3114 Q181.4963,330.3114 182.09,330.0458 Q182.6838,329.7645 183.3088,329.1864 L183.3088,331.9052 Z " fill="#000000"/><text fill="#D9B8FF" font-family="Helvetica" font-size="17" lengthAdjust="spacing" textLength="320" x="199.34" y="332.1498">azure_compute_virtual_machine_base</text></g><!--class azure_compute_virtual_machine_scale_set--><g id="elem_azure_compute_virtual_machine_scale_set"><rect codeLine="29" fill="#3D176E" height="39.7891" id="azure_compute_virtual_machine_scale_set" rx="2.5" ry="2.5" style="stroke:#000D19;stroke-width:0.5;" width="399" x="1365.84" y="306.37"/><ellipse cx="1380.84" cy="326.2645" fill="#ADD1B2" rx="11" ry="11" style="stroke:#181818;stroke-width:1.0;"/><path d="M1383.8088,331.9052 Q1383.2306,332.202 1382.59,332.3427 Q1381.9494,332.4989 1381.2463,332.4989 Q1378.7463,332.4989 1377.4181,330.8583 Q1376.1056,329.202 1376.1056,326.077 Q1376.1056,322.952 1377.4181,321.2958 Q1378.7463,319.6395 1381.2463,319.6395 Q1381.9494,319.6395 1382.59,319.7958 Q1383.2463,319.952 1383.8088,320.2489 L1383.8088,322.9677 Q1383.1838,322.3895 1382.59,322.1239 Q1381.9963,321.8427 1381.3713,321.8427 Q1380.0275,321.8427 1379.34,322.9208 Q1378.6525,323.9833 1378.6525,326.077 Q1378.6525,328.1708 1379.34,329.2489 Q1380.0275,330.3114 1381.3713,330.3114 Q1381.9963,330.3114 1382.59,330.0458 Q1383.1838,329.7645 1383.8088,329.1864 L1383.8088,331.9052 Z " fill="#000000"/><text fill="#D9B8FF" font-family="Helvetica" font-size="17" lengthAdjust="spacing" textLength="357" x="1399.84" y="332.1498">azure_compute_virtual_machine_scale_set</text></g><!--class azure_compute_virtual_machine_scale_set_instance--><g id="elem_azure_compute_virtual_machine_scale_set_instance"><rect codeLine="32" fill="#3D176E" height="39.7891" id="azure_compute_virtual_machine_scale_set_instance" rx="2.5" ry="2.5" style="stroke:#000D19;stroke-width:0.5;" width="478" x="692.34" y="406.16"/><ellipse cx="707.34" cy="426.0545" fill="#ADD1B2" rx="11" ry="11" style="stroke:#181818;stroke-width:1.0;"/><path d="M710.3087,431.6952 Q709.7306,431.992 709.09,432.1327 Q708.4494,432.2889 707.7462,432.2889 Q705.2462,432.2889 703.9181,430.6483 Q702.6056,428.992 702.6056,425.867 Q702.6056,422.742 703.9181,421.0858 Q705.2462,419.4295 707.7462,419.4295 Q708.4494,419.4295 709.09,419.5858 Q709.7462,419.742 710.3087,420.0389 L710.3087,422.7577 Q709.6837,422.1795 709.09,421.9139 Q708.4962,421.6327 707.8712,421.6327 Q706.5275,421.6327 705.84,422.7108 Q705.1525,423.7733 705.1525,425.867 Q705.1525,427.9608 705.84,429.0389 Q706.5275,430.1014 707.8712,430.1014 Q708.4962,430.1014 709.09,429.8358 Q709.6837,429.5545 710.3087,428.9764 L710.3087,431.6952 Z " fill="#000000"/><text fill="#D9B8FF" font-family="Helvetica" font-size="17" lengthAdjust="spacing" textLength="436" x="726.34" y="431.9398">azure_compute_virtual_machine_scale_set_instance</text></g><!--class azure_container_service_managed_cluster--><g id="elem_azure_container_service_managed_cluster"><rect codeLine="35" fill="#3D176E" height="39.7891" id="azure_container_service_managed_cluster" rx="2.5" ry="2.5" style="stroke:#000D19;stroke-width:0.5;" width="395" x="1123.84" y="106.79"/><ellipse cx="1138.84" cy="126.6845" fill="#ADD1B2" rx="11" ry="11" style="stroke:#181818;stroke-width:1.0;"/><path d="M1141.8088,132.3252 Q1141.2306,132.622 1140.59,132.7627 Q1139.9494,132.9189 1139.2463,132.9189 Q1136.7463,132.9189 1135.4181,131.2783 Q1134.1056,129.622 1134.1056,126.497 Q1134.1056,123.372 1135.4181,121.7158 Q1136.7463,120.0595 1139.2463,120.0595 Q1139.9494,120.0595 1140.59,120.2158 Q1141.2463,120.372 1141.8088,120.6689 L1141.8088,123.3877 Q1141.1838,122.8095 1140.59,122.5439 Q1139.9963,122.2627 1139.3713,122.2627 Q1138.0275,122.2627 1137.34,123.3408 Q1136.6525,124.4033 1136.6525,126.497 Q1136.6525,128.5908 1137.34,129.6689 Q1138.0275,130.7314 1139.3713,130.7314 Q1139.9963,130.7314 1140.59,130.4658 Q1141.1838,130.1845 1141.8088,129.6064 L1141.8088,132.3252 Z " fill="#000000"/><text fill="#D9B8FF" font-family="Helvetica" font-size="17" lengthAdjust="spacing" textLength="353" x="1157.84" y="132.5698">azure_container_service_managed_cluster</text></g><!--class azure_network_load_balancer--><g id="elem_azure_network_load_balancer"><rect codeLine="38" fill="#3D176E" height="39.7891" id="azure_network_load_balancer" rx="2.5" ry="2.5" style="stroke:#000D19;stroke-width:0.5;" width="291" x="782.84" y="206.58"/><ellipse cx="797.84" cy="226.4745" fill="#ADD1B2" rx="11" ry="11" style="stroke:#181818;stroke-width:1.0;"/><path d="M800.8087,232.1152 Q800.2306,232.412 799.59,232.5527 Q798.9494,232.7089 798.2462,232.7089 Q795.7462,232.7089 794.4181,231.0683 Q793.1056,229.412 793.1056,226.287 Q793.1056,223.162 794.4181,221.5058 Q795.7462,219.8495 798.2462,219.8495 Q798.9494,219.8495 799.59,220.0058 Q800.2462,220.162 800.8087,220.4589 L800.8087,223.1777 Q800.1837,222.5995 799.59,222.3339 Q798.9962,222.0527 798.3712,222.0527 Q797.0275,222.0527 796.34,223.1308 Q795.6525,224.1933 795.6525,226.287 Q795.6525,228.3808 796.34,229.4589 Q797.0275,230.5214 798.3712,230.5214 Q798.9962,230.5214 799.59,230.2558 Q800.1837,229.9745 800.8087,229.3964 L800.8087,232.1152 Z " fill="#000000"/><text fill="#D9B8FF" font-family="Helvetica" font-size="17" lengthAdjust="spacing" textLength="249" x="816.84" y="232.3598">azure_network_load_balancer</text></g><!--class azure_network_load_balancer_probe--><g id="elem_azure_network_load_balancer_probe"><rect codeLine="41" fill="#3D176E" height="39.7891" id="azure_network_load_balancer_probe" rx="2.5" ry="2.5" style="stroke:#000D19;stroke-width:0.5;" width="347" x="983.84" y="306.37"/><ellipse cx="998.84" cy="326.2645" fill="#ADD1B2" rx="11" ry="11" style="stroke:#181818;stroke-width:1.0;"/><path d="M1001.8087,331.9052 Q1001.2306,332.202 1000.59,332.3427 Q999.9494,332.4989 999.2462,332.4989 Q996.7462,332.4989 995.4181,330.8583 Q994.1056,329.202 994.1056,326.077 Q994.1056,322.952 995.4181,321.2958 Q996.7462,319.6395 999.2462,319.6395 Q999.9494,319.6395 1000.59,319.7958 Q1001.2462,319.952 1001.8087,320.2489 L1001.8087,322.9677 Q1001.1837,322.3895 1000.59,322.1239 Q999.9962,321.8427 999.3712,321.8427 Q998.0275,321.8427 997.34,322.9208 Q996.6525,323.9833 996.6525,326.077 Q996.6525,328.1708 997.34,329.2489 Q998.0275,330.3114 999.3712,330.3114 Q999.9962,330.3114 1000.59,330.0458 Q1001.1837,329.7645 1001.8087,329.1864 L1001.8087,331.9052 Z " fill="#000000"/><text fill="#D9B8FF" font-family="Helvetica" font-size="17" lengthAdjust="spacing" textLength="305" x="1017.84" y="332.1498">azure_network_load_balancer_probe</text></g><!--class azure_network_subnet--><g id="elem_azure_network_subnet"><rect codeLine="44" fill="#3D176E" height="39.7891" id="azure_network_subnet" rx="2.5" ry="2.5" style="stroke:#000D19;stroke-width:0.5;" width="233" x="621.84" y="106.79"/><ellipse cx="636.84" cy="126.6845" fill="#ADD1B2" rx="11" ry="11" style="stroke:#181818;stroke-width:1.0;"/><path d="M639.8088,132.3252 Q639.2306,132.622 638.59,132.7627 Q637.9494,132.9189 637.2463,132.9189 Q634.7463,132.9189 633.4181,131.2783 Q632.1056,129.622 632.1056,126.497 Q632.1056,123.372 633.4181,121.7158 Q634.7463,120.0595 637.2463,120.0595 Q637.9494,120.0595 638.59,120.2158 Q639.2463,120.372 639.8088,120.6689 L639.8088,123.3877 Q639.1838,122.8095 638.59,122.5439 Q637.9963,122.2627 637.3713,122.2627 Q636.0275,122.2627 635.34,123.3408 Q634.6525,124.4033 634.6525,126.497 Q634.6525,128.5908 635.34,129.6689 Q636.0275,130.7314 637.3713,130.7314 Q637.9963,130.7314 638.59,130.4658 Q639.1838,130.1845 639.8088,129.6064 L639.8088,132.3252 Z " fill="#000000"/><text fill="#D9B8FF" font-family="Helvetica" font-size="17" lengthAdjust="spacing" textLength="191" x="655.84" y="132.5698">azure_network_subnet</text></g><!--class azure_network_virtual_network--><g id="elem_azure_network_virtual_network"><rect codeLine="47" fill="#3D176E" height="39.7891" id="azure_network_virtual_network" rx="2.5" ry="2.5" style="stroke:#000D19;stroke-width:0.5;" width="310" x="667.34" y="7"/><ellipse cx="682.34" cy="26.8945" fill="#ADD1B2" rx="11" ry="11" style="stroke:#181818;stroke-width:1.0;"/><path d="M685.3087,32.5352 Q684.7306,32.832 684.09,32.9727 Q683.4494,33.1289 682.7462,33.1289 Q680.2462,33.1289 678.9181,31.4883 Q677.6056,29.832 677.6056,26.707 Q677.6056,23.582 678.9181,21.9258 Q680.2462,20.2695 682.7462,20.2695 Q683.4494,20.2695 684.09,20.4258 Q684.7462,20.582 685.3087,20.8789 L685.3087,23.5977 Q684.6837,23.0195 684.09,22.7539 Q683.4962,22.4727 682.8712,22.4727 Q681.5275,22.4727 680.84,23.5508 Q680.1525,24.6133 680.1525,26.707 Q680.1525,28.8008 680.84,29.8789 Q681.5275,30.9414 682.8712,30.9414 Q683.4962,30.9414 684.09,30.6758 Q684.6837,30.3945 685.3087,29.8164 L685.3087,32.5352 Z " fill="#000000"/><text fill="#D9B8FF" font-family="Helvetica" font-size="17" lengthAdjust="spacing" textLength="268" x="701.34" y="32.7798">azure_network_virtual_network</text></g><!--link azure_compute_virtual_machine_scale_set to azure_compute_virtual_machine_scale_set_instance--><g id="link_azure_compute_virtual_machine_scale_set_azure_compute_virtual_machine_scale_set_instance"><path codeLine="50" d="M1439.7,346.64 C1328.79,363.75 1173.8499,387.6453 1062.9299,404.7553 " fill="none" id="azure_compute_virtual_machine_scale_set-to-azure_compute_virtual_machine_scale_set_instance" style="stroke:#1A83AF;stroke-width:2.0;"/><polygon fill="#1A83AF" points="1057,405.67,1066.5046,408.2512,1061.9416,404.9077,1065.285,400.3447,1057,405.67" style="stroke:#1A83AF;stroke-width:2.0;"/></g><!--link azure_container_service_managed_cluster to azure_compute_virtual_machine_scale_set--><g id="link_azure_container_service_managed_cluster_azure_compute_virtual_machine_scale_set"><path codeLine="51" d="M1345.18,146.99 C1391.83,184.76 1490.017,264.2743 1536.737,302.1043 " fill="none" id="azure_container_service_managed_cluster-to-azure_compute_virtual_machine_scale_set" style="stroke:#1A83AF;stroke-width:2.0;"/><polygon fill="#1A83AF" points="1541.4,305.88,1536.9226,297.1077,1537.5141,302.7336,1531.8883,303.3251,1541.4,305.88" style="stroke:#1A83AF;stroke-width:2.0;"/></g><!--link azure_container_service_managed_cluster to azure_network_load_balancer--><g id="link_azure_container_service_managed_cluster_azure_network_load_balancer"><path codeLine="52" d="M1243.69,147.01 C1174.91,164.12 1080.8224,187.5312 1011.9824,204.6612 " fill="none" id="azure_container_service_managed_cluster-to-azure_network_load_balancer" style="stroke:#1A83AF;stroke-width:2.0;"/><polygon fill="#1A83AF" points="1006.16,206.11,1015.8596,207.8184,1011.012,204.9026,1013.9278,200.0551,1006.16,206.11" style="stroke:#1A83AF;stroke-width:2.0;"/></g><!--link azure_network_load_balancer to azure_compute_virtual_machine--><g id="link_azure_network_load_balancer_azure_compute_virtual_machine"><path codeLine="53" d="M887.24,246.8 C850.78,263.94 803.2194,286.2962 766.7794,303.4362 " fill="none" id="azure_network_load_balancer-to-azure_compute_virtual_machine" style="stroke:#1A83AF;stroke-width:2.0;"/><polygon fill="#1A83AF" points="761.35,305.99,771.1966,305.7789,765.8745,303.8619,767.7916,298.5397,761.35,305.99" style="stroke:#1A83AF;stroke-width:2.0;"/></g><!--link azure_network_load_balancer to azure_compute_virtual_machine_base--><g id="link_azure_network_load_balancer_azure_compute_virtual_machine_base"><path codeLine="54" d="M813.01,246.86 C711.1,263.98 569.1971,287.8259 467.3571,304.9359 " fill="none" id="azure_network_load_balancer-to-azure_compute_virtual_machine_base" style="stroke:#1A83AF;stroke-width:2.0;"/><polygon fill="#1A83AF" points="461.44,305.93,470.9784,308.3835,466.3709,305.1016,469.6529,300.4941,461.44,305.93" style="stroke:#1A83AF;stroke-width:2.0;"/></g><!--link azure_network_load_balancer to azure_compute_virtual_machine_scale_set--><g id="link_azure_network_load_balancer_azure_compute_virtual_machine_scale_set"><path codeLine="55" d="M1054.57,246.86 C1166.01,263.96 1321.7094,287.8701 1433.1594,304.9701 " fill="none" id="azure_network_load_balancer-to-azure_compute_virtual_machine_scale_set" style="stroke:#1A83AF;stroke-width:2.0;"/><polygon fill="#1A83AF" points="1439.09,305.88,1430.8007,300.5614,1434.1478,305.1217,1429.5875,308.4688,1439.09,305.88" style="stroke:#1A83AF;stroke-width:2.0;"/></g><!--link azure_network_load_balancer to azure_compute_virtual_machine_scale_set_instance--><g id="link_azure_network_load_balancer_azure_compute_virtual_machine_scale_set_instance"><path codeLine="56" d="M928.63,246.78 C929.21,284.55 930.3796,361.8407 930.9496,399.6707 " fill="none" id="azure_network_load_balancer-to-azure_compute_virtual_machine_scale_set_instance" style="stroke:#1A83AF;stroke-width:2.0;"/><polygon fill="#1A83AF" points="931.04,405.67,934.904,396.6108,930.9647,400.6706,926.9049,396.7313,931.04,405.67" style="stroke:#1A83AF;stroke-width:2.0;"/></g><!--link azure_network_load_balancer to azure_network_load_balancer_probe--><g id="link_azure_network_load_balancer_azure_network_load_balancer_probe"><path codeLine="57" d="M973.58,246.8 C1013.73,263.94 1066.5524,286.4928 1106.6724,303.6328 " fill="none" id="azure_network_load_balancer-to-azure_network_load_balancer_probe" style="stroke:#1A83AF;stroke-width:2.0;"/><polygon fill="#1A83AF" points="1112.19,305.99,1105.4851,298.7758,1107.592,304.0257,1102.3422,306.1326,1112.19,305.99" style="stroke:#1A83AF;stroke-width:2.0;"/></g><!--link azure_network_subnet to azure_compute_virtual_machine--><g id="link_azure_network_subnet_azure_compute_virtual_machine"><path codeLine="58" d="M736.58,146.99 C733.14,184.76 726.0949,262.0748 722.6449,299.9048 " fill="none" id="azure_network_subnet-to-azure_compute_virtual_machine" style="stroke:#1A83AF;stroke-width:2.0;"/><polygon fill="#1A83AF" points="722.1,305.88,726.9009,297.2805,722.5541,300.9007,718.9339,296.5539,722.1,305.88" style="stroke:#1A83AF;stroke-width:2.0;"/></g><!--link azure_network_subnet to azure_compute_virtual_machine_base--><g id="link_azure_network_subnet_azure_compute_virtual_machine_base"><path codeLine="59" d="M700.04,146.99 C625.1,184.76 465.2181,265.3499 390.1481,303.1799 " fill="none" id="azure_network_subnet-to-azure_compute_virtual_machine_base" style="stroke:#1A83AF;stroke-width:2.0;"/><polygon fill="#1A83AF" points="384.79,305.88,394.6272,305.4019,389.2551,303.6299,391.0271,298.2578,384.79,305.88" style="stroke:#1A83AF;stroke-width:2.0;"/></g><!--link azure_network_subnet to azure_compute_virtual_machine_scale_set--><g id="link_azure_network_subnet_azure_compute_virtual_machine_scale_set"><path codeLine="60" d="M827.71,147 C899.15,162.6 1001.82,185.38 1091.34,206.58 C1232.91,240.12 1391.7091,280.4957 1484.9591,304.4757 " fill="none" id="azure_network_subnet-to-azure_compute_virtual_machine_scale_set" style="stroke:#1A83AF;stroke-width:2.0;"/><polygon fill="#1A83AF" points="1490.77,305.97,1483.0498,299.8545,1485.9276,304.7247,1481.0574,307.6025,1490.77,305.97" style="stroke:#1A83AF;stroke-width:2.0;"/></g><!--link azure_network_subnet to azure_compute_virtual_machine_scale_set_instance--><g id="link_azure_network_subnet_azure_compute_virtual_machine_scale_set_instance"><path codeLine="61" d="M621.63,132.49 C411.96,145.09 6,189.88 147.34,346.16 C183.66,386.32 468.8863,406.706 685.8563,416.626 " fill="none" id="azure_network_subnet-to-azure_compute_virtual_machine_scale_set_instance" style="stroke:#1A83AF;stroke-width:2.0;"/><polygon fill="#1A83AF" points="691.85,416.9,683.0421,412.4931,686.8552,416.6716,682.6767,420.4848,691.85,416.9" style="stroke:#1A83AF;stroke-width:2.0;"/></g><!--link azure_network_subnet to azure_network_load_balancer--><g id="link_azure_network_subnet_azure_network_load_balancer"><path codeLine="62" d="M775.88,147.01 C809.19,164.15 852.2549,186.3247 885.5449,203.4547 " fill="none" id="azure_network_subnet-to-azure_network_load_balancer" style="stroke:#1A83AF;stroke-width:2.0;"/><polygon fill="#1A83AF" points="890.88,206.2,884.7075,198.5253,886.4341,203.9123,881.0471,205.6388,890.88,206.2" style="stroke:#1A83AF;stroke-width:2.0;"/></g><!--link azure_network_virtual_network to azure_network_load_balancer--><g id="link_azure_network_virtual_network_azure_network_load_balancer"><path codeLine="63" d="M835.56,47.27 C846.07,62.99 860.85,85.91 872.34,106.79 C891.11,140.93 907.3975,176.9177 917.7375,200.6977 " fill="none" id="azure_network_virtual_network-to-azure_network_load_balancer" style="stroke:#1A83AF;stroke-width:2.0;"/><polygon fill="#1A83AF" points="920.13,206.2,920.2094,196.3515,918.1362,201.6147,912.873,199.5415,920.13,206.2" style="stroke:#1A83AF;stroke-width:2.0;"/></g><!--link azure_network_virtual_network to azure_network_subnet--><g id="link_azure_network_virtual_network_azure_network_subnet"><path codeLine="64" d="M805.74,47.22 C791.02,64.36 773.5304,84.7293 758.8104,101.8593 " fill="none" id="azure_network_virtual_network-to-azure_network_subnet" style="stroke:#1A83AF;stroke-width:2.0;"/><polygon fill="#1A83AF" points="754.9,106.41,763.7994,102.191,758.1587,102.6178,757.7319,96.9771,754.9,106.41" style="stroke:#1A83AF;stroke-width:2.0;"/></g><!--SRC=[jPHDIyD048Rl-HKBFHTQYxQz2BLGz5B4UXC9azr9ktIp6sOtBIh-TnDh9UQhwOUNG3BFl3Fppf2L5CWmYjqRYp0AaAndrrB7G12n2P7PJeqon3fX2E5WM0pEZ7O7WJb4oEvHRT193aNYUINvMgErx2eNkWE-Nf99jDZ9Em9jqn1gbwEc2goTE4SoI1pccX7ZO1I6HR8esXc8_l06IvWXWVI3z7ezqHyNaOEb6kV-9HRo7La_RzhSE2orMIhnJJLscH6v9ak3xkErFJw2458lsNNkszEk9z98VxulLY3CDgD3K3PVnZeaDEujncbfAXoFH3YiX1_gO8zdrZ5uJmXzRg8uNRk_aUGIK7u4V2KriW_F-sm3-W7O8sZBGQLFT2Ua-59R1vfNbjCEKfXIZZQIOvgjOOd2voh9B2cdQ7HRGsjV6H3f42eJRelvCPa0ws6R1Bfgn7ryF-BF-mviQrptfTEVZ0QJsMltzcZhlBP-dLBb7F5AdxscLRNly48otwT-AQsYQPSJBEwwjNB3gNkLztto1exEhxB-U94wpyzGgZExNhBDeHV_3_yli-lN-m80]--></g></svg>