<svg xmlns="http://www.w3.org/2000/svg" width="1087" height="1264" viewBox="0 0 1087 1264"><rect width="207" height="100.383" x="7" y="1143.84" fill="#3D176E" rx="2.5" ry="2.5" style="stroke:#000d19;stroke-width:.5"/><circle cx="22" cy="1163.735" r="11" fill="#ADD1B2" style="stroke:#181818;stroke-width:1"/><path d="M24.969 1169.375q-.578.297-1.219.438-.64.156-1.344.156-2.5 0-3.828-1.64-1.312-1.657-1.312-4.782t1.312-4.781q1.328-1.657 3.828-1.657.703 0 1.344.157.656.156 1.219.453v2.719q-.625-.579-1.219-.844-.594-.281-1.219-.281-1.343 0-2.031 1.078-.687 1.062-.687 3.156t.687 3.172q.688 1.062 2.031 1.062.625 0 1.219-.265.594-.282 1.219-.86z"/><text x="41" y="1169.62" fill="#D9B8FF" font-family="Helvetica" font-size="17" textLength="165">azure_agent_profile</text><path d="M8 1183.629h205" style="stroke:#000d19;stroke-width:.5"/><text x="18" y="1205.624" fill="#D9B8FF" font-family="sans-serif" font-size="14" font-weight="bold" textLength="76">subnet_id</text><text x="94" y="1205.624" fill="#D9B8FF" font-family="sans-serif" font-size="14" textLength="48">: string</text><text x="18" y="1231.921" fill="#D9B8FF" font-family="sans-serif" font-size="14" font-weight="bold" textLength="62">vm_size</text><text x="80" y="1231.921" fill="#D9B8FF" font-family="sans-serif" font-size="14" textLength="48">: string</text><rect width="306" height="126.68" x="249.5" y="1130.69" fill="#3D176E" rx="2.5" ry="2.5" style="stroke:#000d19;stroke-width:.5"/><circle cx="264.5" cy="1150.584" r="11" fill="#ADD1B2" style="stroke:#181818;stroke-width:1"/><path d="M267.469 1156.225q-.578.297-1.219.438-.64.156-1.344.156-2.5 0-3.828-1.64-1.312-1.657-1.312-4.782t1.312-4.781q1.328-1.657 3.828-1.657.703 0 1.344.157.656.156 1.219.453v2.719q-.625-.579-1.219-.844-.594-.281-1.219-.281-1.344 0-2.031 1.078-.687 1.062-.687 3.156t.687 3.172q.688 1.062 2.031 1.062.625 0 1.219-.265.594-.282 1.219-.86z"/><text x="283.5" y="1156.47" fill="#D9B8FF" font-family="Helvetica" font-size="17" textLength="264">azure_api_server_access_profile</text><path d="M250.5 1170.479h304" style="stroke:#000d19;stroke-width:.5"/><text x="260.5" y="1192.474" fill="#D9B8FF" font-family="sans-serif" font-size="14" font-weight="bold" textLength="177">enable_private_cluster</text><text x="437.5" y="1192.474" fill="#D9B8FF" font-family="sans-serif" font-size="14" textLength="65">: boolean</text><text x="260.5" y="1218.771" fill="#D9B8FF" font-family="sans-serif" font-size="14" font-weight="bold" textLength="188">enable_vnet_integration</text><text x="448.5" y="1218.771" fill="#D9B8FF" font-family="sans-serif" font-size="14" textLength="65">: boolean</text><text x="260.5" y="1245.068" fill="#D9B8FF" font-family="sans-serif" font-size="14" font-weight="bold" textLength="76">subnet_id</text><text x="336.5" y="1245.068" fill="#D9B8FF" font-family="sans-serif" font-size="14" textLength="48">: string</text><rect width="409" height="205.57" x="355" y="599.55" fill="#3D176E" rx="2.5" ry="2.5" style="stroke:#000d19;stroke-width:.5"/><circle cx="503.75" cy="619.444" r="11" fill="#ADD1B2" style="stroke:#181818;stroke-width:1"/><path d="M506.719 625.085q-.578.297-1.219.438-.64.156-1.344.156-2.5 0-3.828-1.64-1.312-1.657-1.312-4.782t1.312-4.781q1.328-1.657 3.828-1.657.703 0 1.344.157.656.156 1.219.453v2.719q-.625-.579-1.219-.844-.594-.281-1.219-.281-1.344 0-2.031 1.078-.687 1.062-.687 3.156t.687 3.172q.688 1.062 2.031 1.062.625 0 1.219-.265.594-.282 1.219-.86z"/><text x="529.25" y="625.33" fill="#D9B8FF" font-family="Helvetica" font-size="17" textLength="93">azure_fleet</text><path d="M356 639.339h407" style="stroke:#000d19;stroke-width:.5"/><text x="366" y="661.334" fill="#D9B8FF" font-family="sans-serif" font-size="14" font-weight="bold" textLength="154">azure_fleet_identity</text><text x="520" y="661.334" fill="#D9B8FF" font-family="sans-serif" font-size="14" textLength="233">: azure_managed_service_identity</text><text x="366" y="687.631" fill="#D9B8FF" font-family="sans-serif" font-size="14" font-weight="bold" textLength="155">cluster_resource_id</text><text x="521" y="687.631" fill="#D9B8FF" font-family="sans-serif" font-size="14" textLength="48">: string</text><text x="366" y="713.928" fill="#D9B8FF" font-family="sans-serif" font-size="14" font-weight="bold" textLength="42">e_tag</text><text x="408" y="713.928" fill="#D9B8FF" font-family="sans-serif" font-size="14" textLength="48">: string</text><text x="366" y="740.225" fill="#D9B8FF" font-family="sans-serif" font-size="14" font-weight="bold" textLength="88">hub_profile</text><text x="454" y="740.225" fill="#D9B8FF" font-family="sans-serif" font-size="14" textLength="168">: azure_fleet_hub_profile</text><text x="366" y="766.522" fill="#D9B8FF" font-family="sans-serif" font-size="14" font-weight="bold" textLength="144">provisioning_state</text><text x="510" y="766.522" fill="#D9B8FF" font-family="sans-serif" font-size="14" textLength="48">: string</text><text x="366" y="792.819" fill="#D9B8FF" font-family="sans-serif" font-size="14" font-weight="bold" textLength="126">resource_group</text><text x="492" y="792.819" fill="#D9B8FF" font-family="sans-serif" font-size="14" textLength="48">: string</text><rect width="454" height="205.57" x="71.5" y="865.12" fill="#3D176E" rx="2.5" ry="2.5" style="stroke:#000d19;stroke-width:.5"/><circle cx="191.25" cy="885.014" r="11" fill="#ADD1B2" style="stroke:#181818;stroke-width:1"/><path d="M194.219 890.655q-.578.297-1.219.438-.64.156-1.344.156-2.5 0-3.828-1.64-1.312-1.657-1.312-4.782t1.312-4.781q1.328-1.657 3.828-1.657.703 0 1.344.157.656.156 1.219.453v2.719q-.625-.578-1.219-.844-.594-.281-1.219-.281-1.344 0-2.031 1.078-.687 1.062-.687 3.156t.687 3.172q.688 1.062 2.031 1.062.625 0 1.219-.265.594-.282 1.219-.86z"/><text x="216.75" y="890.9" fill="#D9B8FF" font-family="Helvetica" font-size="17" textLength="196">azure_fleet_hub_profile</text><path d="M72.5 904.909h452" style="stroke:#000d19;stroke-width:.5"/><text x="82.5" y="926.904" fill="#D9B8FF" font-family="sans-serif" font-size="14" font-weight="bold" textLength="103">agent_profile</text><text x="185.5" y="926.904" fill="#D9B8FF" font-family="sans-serif" font-size="14" textLength="144">: azure_agent_profile</text><text x="82.5" y="953.201" fill="#D9B8FF" font-family="sans-serif" font-size="14" font-weight="bold" textLength="202">api_server_access_profile</text><text x="284.5" y="953.201" fill="#D9B8FF" font-family="sans-serif" font-size="14" textLength="230">: azure_api_server_access_profile</text><text x="82.5" y="979.498" fill="#D9B8FF" font-family="sans-serif" font-size="14" font-weight="bold" textLength="82">dns_prefix</text><text x="164.5" y="979.498" fill="#D9B8FF" font-family="sans-serif" font-size="14" textLength="48">: string</text><text x="82.5" y="1005.795" fill="#D9B8FF" font-family="sans-serif" font-size="14" font-weight="bold" textLength="36">fqdn</text><text x="118.5" y="1005.795" fill="#D9B8FF" font-family="sans-serif" font-size="14" textLength="48">: string</text><text x="82.5" y="1032.092" fill="#D9B8FF" font-family="sans-serif" font-size="14" font-weight="bold" textLength="157">kubernetes_version</text><text x="239.5" y="1032.092" fill="#D9B8FF" font-family="sans-serif" font-size="14" textLength="48">: string</text><text x="82.5" y="1058.389" fill="#D9B8FF" font-family="sans-serif" font-size="14" font-weight="bold" textLength="89">portal_fqdn</text><text x="171.5" y="1058.389" fill="#D9B8FF" font-family="sans-serif" font-size="14" textLength="48">: string</text><rect width="519" height="152.977" x="561" y="891.42" fill="#3D176E" rx="2.5" ry="2.5" style="stroke:#000d19;stroke-width:.5"/><circle cx="674.25" cy="911.314" r="11" fill="#ADD1B2" style="stroke:#181818;stroke-width:1"/><path d="M677.219 916.955q-.578.297-1.219.438-.64.156-1.344.156-2.5 0-3.828-1.64-1.312-1.657-1.312-4.782t1.312-4.781q1.328-1.657 3.828-1.657.703 0 1.344.157.656.156 1.219.453v2.719q-.625-.579-1.219-.844-.594-.281-1.219-.281-1.343 0-2.031 1.078-.687 1.062-.687 3.156t.687 3.172q.688 1.062 2.031 1.062.625 0 1.219-.265.594-.282 1.219-.86z"/><text x="699.75" y="917.2" fill="#D9B8FF" font-family="Helvetica" font-size="17" textLength="274">azure_managed_service_identity</text><path d="M562 931.209h517" style="stroke:#000d19;stroke-width:.5"/><text x="572" y="953.204" fill="#D9B8FF" font-family="sans-serif" font-size="14" font-weight="bold" textLength="88">principal_id</text><text x="660" y="953.204" fill="#D9B8FF" font-family="sans-serif" font-size="14" textLength="48">: string</text><text x="572" y="979.501" fill="#D9B8FF" font-family="sans-serif" font-size="14" font-weight="bold" textLength="72">tenant_id</text><text x="644" y="979.501" fill="#D9B8FF" font-family="sans-serif" font-size="14" textLength="48">: string</text><text x="572" y="1005.798" fill="#D9B8FF" font-family="sans-serif" font-size="14" font-weight="bold" textLength="35">type</text><text x="607" y="1005.798" fill="#D9B8FF" font-family="sans-serif" font-size="14" textLength="48">: string</text><text x="572" y="1032.095" fill="#D9B8FF" font-family="sans-serif" font-size="14" font-weight="bold" textLength="194">user_assigned_identities</text><text x="766" y="1032.095" fill="#D9B8FF" font-family="sans-serif" font-size="14" textLength="303">: dictionary[string, azure_principalid_clientid]</text><rect width="253" height="100.383" x="694" y="1143.84" fill="#3D176E" rx="2.5" ry="2.5" style="stroke:#000d19;stroke-width:.5"/><circle cx="709" cy="1163.735" r="11" fill="#ADD1B2" style="stroke:#181818;stroke-width:1"/><path d="M711.969 1169.375q-.578.297-1.219.438-.64.156-1.344.156-2.5 0-3.828-1.64-1.312-1.657-1.312-4.782t1.312-4.781q1.328-1.657 3.828-1.657.703 0 1.344.157.656.156 1.219.453v2.719q-.625-.579-1.219-.844-.594-.281-1.219-.281-1.343 0-2.031 1.078-.687 1.062-.687 3.156t.687 3.172q.688 1.062 2.031 1.062.625 0 1.219-.265.594-.282 1.219-.86z"/><text x="728" y="1169.62" fill="#D9B8FF" font-family="Helvetica" font-size="17" textLength="211">azure_principalid_clientid</text><path d="M695 1183.629h251" style="stroke:#000d19;stroke-width:.5"/><text x="705" y="1205.624" fill="#D9B8FF" font-family="sans-serif" font-size="14" font-weight="bold" textLength="64">client_id</text><text x="769" y="1205.624" fill="#D9B8FF" font-family="sans-serif" font-size="14" textLength="48">: string</text><text x="705" y="1231.921" fill="#D9B8FF" font-family="sans-serif" font-size="14" font-weight="bold" textLength="88">principal_id</text><text x="793" y="1231.921" fill="#D9B8FF" font-family="sans-serif" font-size="14" textLength="48">: string</text><rect width="168" height="39.789" x="475.5" y="438.76" fill="#3D176E" rx="2.5" ry="2.5" style="stroke:#000d19;stroke-width:.5"/><circle cx="490.5" cy="458.654" r="11" fill="#ADD1B2" style="stroke:#181818;stroke-width:1"/><path d="M493.469 464.295q-.578.297-1.219.438-.64.156-1.344.156-2.5 0-3.828-1.64-1.312-1.657-1.312-4.782t1.312-4.781q1.328-1.656 3.828-1.656.703 0 1.344.156.656.156 1.219.453v2.719q-.625-.579-1.219-.844-.594-.281-1.219-.281-1.344 0-2.031 1.078-.687 1.062-.687 3.156t.687 3.172q.688 1.062 2.031 1.062.625 0 1.219-.265.594-.281 1.219-.86z"/><text x="509.5" y="464.54" fill="#D9B8FF" font-family="Helvetica" font-size="17" textLength="126">azure_resource</text><rect width="227" height="310.758" x="446" y="7" fill="#3D176E" rx="2.5" ry="2.5" style="stroke:#000d19;stroke-width:.5"/><circle cx="514.75" cy="26.895" r="11" fill="#ADD1B2" style="stroke:#181818;stroke-width:1"/><path d="M517.719 32.535q-.578.297-1.219.438-.64.156-1.344.156-2.5 0-3.828-1.64-1.312-1.657-1.312-4.782t1.312-4.781q1.328-1.656 3.828-1.656.703 0 1.344.156.656.156 1.219.453v2.719q-.625-.578-1.219-.844-.594-.281-1.219-.281-1.343 0-2.031 1.078-.687 1.062-.687 3.156t.687 3.172q.688 1.062 2.031 1.062.625 0 1.219-.265.594-.281 1.219-.86z"/><text x="540.25" y="32.78" fill="#D9B8FF" font-family="Helvetica" font-size="17" textLength="71">resource</text><path d="M447 46.789h225" style="stroke:#000d19;stroke-width:.5"/><text x="457" y="68.784" fill="#D9B8FF" font-family="sans-serif" font-size="14" font-weight="bold" textLength="29">age</text><text x="486" y="68.784" fill="#D9B8FF" font-family="sans-serif" font-size="14" textLength="66">: duration</text><text x="457" y="95.081" fill="#D9B8FF" font-family="sans-serif" font-size="14" font-weight="bold" textLength="43">atime</text><text x="500" y="95.081" fill="#D9B8FF" font-family="sans-serif" font-size="14" textLength="70">: datetime</text><text x="457" y="121.378" fill="#D9B8FF" font-family="sans-serif" font-size="14" font-weight="bold" textLength="43">ctime</text><text x="500" y="121.378" fill="#D9B8FF" font-family="sans-serif" font-size="14" textLength="70">: datetime</text><text x="457" y="147.675" fill="#D9B8FF" font-family="sans-serif" font-size="14" font-weight="bold" textLength="14">id</text><text x="471" y="147.675" fill="#D9B8FF" font-family="sans-serif" font-size="14" textLength="48">: string</text><text x="457" y="173.972" fill="#D9B8FF" font-family="sans-serif" font-size="14" font-weight="bold" textLength="33">kind</text><text x="490" y="173.972" fill="#D9B8FF" font-family="sans-serif" font-size="14" textLength="48">: string</text><text x="457" y="200.269" fill="#D9B8FF" font-family="sans-serif" font-size="14" font-weight="bold" textLength="90">last_access</text><text x="547" y="200.269" fill="#D9B8FF" font-family="sans-serif" font-size="14" textLength="66">: duration</text><text x="457" y="226.565" fill="#D9B8FF" font-family="sans-serif" font-size="14" font-weight="bold" textLength="90">last_update</text><text x="547" y="226.565" fill="#D9B8FF" font-family="sans-serif" font-size="14" textLength="66">: duration</text><text x="457" y="252.862" fill="#D9B8FF" font-family="sans-serif" font-size="14" font-weight="bold" textLength="48">mtime</text><text x="505" y="252.862" fill="#D9B8FF" font-family="sans-serif" font-size="14" textLength="70">: datetime</text><text x="457" y="279.159" fill="#D9B8FF" font-family="sans-serif" font-size="14" font-weight="bold" textLength="43">name</text><text x="500" y="279.159" fill="#D9B8FF" font-family="sans-serif" font-size="14" textLength="48">: string</text><text x="457" y="305.456" fill="#D9B8FF" font-family="sans-serif" font-size="14" font-weight="bold" textLength="34">tags</text><text x="491" y="305.456" fill="#D9B8FF" font-family="sans-serif" font-size="14" textLength="171">: dictionary[string, string]</text><path fill="none" d="M458.22 805.62c-19.2 19.39-35.068 35.407-54.268 54.797" style="stroke:#ffaf37;stroke-width:2"/><path fill="#FFAF37" d="m399.73 864.68 9.175-3.58-5.657.027-.028-5.657z" style="stroke:#ffaf37;stroke-width:2"/><path fill="none" d="M660.78 805.62c28.23 28.5 54.157 54.687 80.577 81.357" style="stroke:#ffaf37;stroke-width:2"/><path fill="#FFAF37" d="m745.58 891.24-3.492-9.209-.027 5.657-5.657-.027z" style="stroke:#ffaf37;stroke-width:2"/><path fill="none" d="M559.5 497.02v102.05m0-120.05-6 18h12zm-346.75 592.11c-21.11 25.17-38.923 46.404-56.853 67.774" style="stroke:#ffaf37;stroke-width:2"/><path fill="#FFAF37" d="m152.04 1143.5 8.85-4.324-5.636.494-.493-5.636z" style="stroke:#ffaf37;stroke-width:2"/><path fill="none" d="M345.93 1071.13c9.38 20.2 16.423 35.398 24.973 53.808" style="stroke:#ffaf37;stroke-width:2"/><path fill="#FFAF37" d="m373.43 1130.38-.163-9.848-1.943 5.313-5.313-1.943z" style="stroke:#ffaf37;stroke-width:2"/><path fill="none" d="M820.5 1044.78v92.85" style="stroke:#ffaf37;stroke-width:2"/><path fill="#FFAF37" d="m820.5 1143.63 4-9-4 4-4-4z" style="stroke:#ffaf37;stroke-width:2"/><path fill="none" d="M559.5 335.84v102.83m0-120.83-6 18h12z" style="stroke:#ffaf37;stroke-width:2"/></svg>