<svg xmlns="http://www.w3.org/2000/svg" width="3110" height="451" viewBox="0 0 3110 451"><rect width="245" height="39.789" x="2442.5" y="7" fill="#3D176E" rx="2.5" ry="2.5" style="stroke:#000d19;stroke-width:.5"/><circle cx="2457.5" cy="26.895" r="11" fill="#ADD1B2" style="stroke:#181818;stroke-width:1"/><path d="M2460.469 32.535q-.578.297-1.219.438-.64.156-1.344.156-2.5 0-3.828-1.64-1.312-1.657-1.312-4.782t1.312-4.781q1.328-1.656 3.828-1.656.703 0 1.344.156.656.156 1.219.453v2.719q-.625-.578-1.219-.844-.594-.281-1.219-.281-1.343 0-2.031 1.078-.687 1.062-.687 3.156t.687 3.172q.688 1.062 2.031 1.062.625 0 1.219-.265.594-.281 1.219-.86z"/><text x="2476.5" y="32.78" fill="#D9B8FF" font-family="Helvetica" font-size="17" textLength="203">aws_ec2_security_group</text><rect width="179" height="39.789" x="2732.5" y="7" fill="#3D176E" rx="2.5" ry="2.5" style="stroke:#000d19;stroke-width:.5"/><circle cx="2747.5" cy="26.895" r="11" fill="#ADD1B2" style="stroke:#181818;stroke-width:1"/><path d="M2750.469 32.535q-.578.297-1.219.438-.64.156-1.344.156-2.5 0-3.828-1.64-1.312-1.657-1.312-4.782t1.312-4.781q1.328-1.656 3.828-1.656.703 0 1.344.156.656.156 1.219.453v2.719q-.625-.578-1.219-.844-.594-.281-1.219-.281-1.343 0-2.031 1.078-.687 1.062-.687 3.156t.687 3.172q.688 1.062 2.031 1.062.625 0 1.219-.265.594-.281 1.219-.86z"/><text x="2766.5" y="32.78" fill="#D9B8FF" font-family="Helvetica" font-size="17" textLength="137">aws_ec2_subnet</text><rect width="157" height="39.789" x="2946.5" y="7" fill="#3D176E" rx="2.5" ry="2.5" style="stroke:#000d19;stroke-width:.5"/><circle cx="2961.5" cy="26.895" r="11" fill="#ADD1B2" style="stroke:#181818;stroke-width:1"/><path d="M2964.469 32.535q-.578.297-1.219.438-.64.156-1.344.156-2.5 0-3.828-1.64-1.312-1.657-1.312-4.782t1.312-4.781q1.328-1.656 3.828-1.656.703 0 1.344.156.656.156 1.219.453v2.719q-.625-.578-1.219-.844-.594-.281-1.219-.281-1.343 0-2.031 1.078-.687 1.062-.687 3.156t.687 3.172q.688 1.062 2.031 1.062.625 0 1.219-.265.594-.281 1.219-.86z"/><text x="2980.5" y="32.78" fill="#D9B8FF" font-family="Helvetica" font-size="17" textLength="115">aws_iam_role</text><rect width="158" height="39.789" x="2255" y="406.16" fill="#3D176E" rx="2.5" ry="2.5" style="stroke:#000d19;stroke-width:.5"/><circle cx="2270" cy="426.055" r="11" fill="#ADD1B2" style="stroke:#181818;stroke-width:1"/><path d="M2272.969 431.695q-.578.297-1.219.438-.64.156-1.344.156-2.5 0-3.828-1.64-1.312-1.657-1.312-4.782t1.312-4.781q1.328-1.656 3.828-1.656.703 0 1.344.156.656.156 1.219.453v2.719q-.625-.578-1.219-.844-.594-.281-1.219-.281-1.343 0-2.031 1.078-.687 1.062-.687 3.156t.687 3.172q.688 1.062 2.031 1.062.625 0 1.219-.265.594-.281 1.219-.86z"/><text x="2289" y="431.94" fill="#D9B8FF" font-family="Helvetica" font-size="17" textLength="116">aws_kms_key</text><rect width="168" height="39.789" x="2467" y="406.16" fill="#3D176E" rx="2.5" ry="2.5" style="stroke:#000d19;stroke-width:.5"/><circle cx="2482" cy="426.055" r="11" fill="#ADD1B2" style="stroke:#181818;stroke-width:1"/><path d="M2484.969 431.695q-.578.297-1.219.438-.64.156-1.344.156-2.5 0-3.828-1.64-1.312-1.657-1.312-4.782t1.312-4.781q1.328-1.656 3.828-1.656.703 0 1.344.156.656.156 1.219.453v2.719q-.625-.578-1.219-.844-.594-.281-1.219-.281-1.343 0-2.031 1.078-.687 1.062-.687 3.156t.687 3.172q.688 1.062 2.031 1.062.625 0 1.219-.265.594-.281 1.219-.86z"/><text x="2501" y="431.94" fill="#D9B8FF" font-family="Helvetica" font-size="17" textLength="126">aws_s3_bucket</text><rect width="344" height="39.789" x="26" y="7" fill="#3D176E" rx="2.5" ry="2.5" style="stroke:#000d19;stroke-width:.5"/><circle cx="41" cy="26.895" r="11" fill="#ADD1B2" style="stroke:#181818;stroke-width:1"/><path d="M43.969 32.535q-.578.297-1.219.438-.64.156-1.344.156-2.5 0-3.828-1.64-1.312-1.657-1.312-4.782t1.312-4.781q1.328-1.656 3.828-1.656.703 0 1.344.156.656.156 1.219.453v2.719q-.625-.578-1.219-.844-.594-.281-1.219-.281-1.343 0-2.031 1.078-.687 1.062-.687 3.156t.687 3.172q.688 1.062 2.031 1.062.625 0 1.219-.265.594-.281 1.219-.86z"/><text x="60" y="32.78" fill="#D9B8FF" font-family="Helvetica" font-size="17" textLength="302">aws_sagemaker_auto_ml_candidate</text><rect width="388" height="39.789" x="405" y="7" fill="#3D176E" rx="2.5" ry="2.5" style="stroke:#000d19;stroke-width:.5"/><circle cx="420" cy="26.895" r="11" fill="#ADD1B2" style="stroke:#181818;stroke-width:1"/><path d="M422.969 32.535q-.578.297-1.219.438-.64.156-1.344.156-2.5 0-3.828-1.64-1.312-1.657-1.312-4.782t1.312-4.781q1.328-1.656 3.828-1.656.703 0 1.344.156.656.156 1.219.453v2.719q-.625-.578-1.219-.844-.594-.281-1.219-.281-1.344 0-2.031 1.078-.687 1.062-.687 3.156t.687 3.172q.688 1.062 2.031 1.062.625 0 1.219-.265.594-.281 1.219-.86z"/><text x="439" y="32.78" fill="#D9B8FF" font-family="Helvetica" font-size="17" textLength="346">aws_sagemaker_auto_ml_candidate_step</text><rect width="329" height="39.789" x="827.5" y="7" fill="#3D176E" rx="2.5" ry="2.5" style="stroke:#000d19;stroke-width:.5"/><circle cx="842.5" cy="26.895" r="11" fill="#ADD1B2" style="stroke:#181818;stroke-width:1"/><path d="M845.469 32.535q-.578.297-1.219.438-.64.156-1.344.156-2.5 0-3.828-1.64-1.312-1.657-1.312-4.782t1.312-4.781q1.328-1.656 3.828-1.656.703 0 1.344.156.656.156 1.219.453v2.719q-.625-.578-1.219-.844-.594-.281-1.219-.281-1.343 0-2.031 1.078-.687 1.062-.687 3.156t.687 3.172q.688 1.062 2.031 1.062.625 0 1.219-.265.594-.281 1.219-.86z"/><text x="861.5" y="32.78" fill="#D9B8FF" font-family="Helvetica" font-size="17" textLength="287">aws_sagemaker_auto_ml_channel</text><rect width="431" height="39.789" x="1191.5" y="7" fill="#3D176E" rx="2.5" ry="2.5" style="stroke:#000d19;stroke-width:.5"/><circle cx="1206.5" cy="26.895" r="11" fill="#ADD1B2" style="stroke:#181818;stroke-width:1"/><path d="M1209.469 32.535q-.578.297-1.219.438-.64.156-1.344.156-2.5 0-3.828-1.64-1.312-1.657-1.312-4.782t1.312-4.781q1.328-1.656 3.828-1.656.703 0 1.344.156.656.156 1.219.453v2.719q-.625-.578-1.219-.844-.594-.281-1.219-.281-1.343 0-2.031 1.078-.687 1.062-.687 3.156t.687 3.172q.688 1.062 2.031 1.062.625 0 1.219-.265.594-.281 1.219-.86z"/><text x="1225.5" y="32.78" fill="#D9B8FF" font-family="Helvetica" font-size="17" textLength="389">aws_sagemaker_auto_ml_container_definition</text><rect width="363" height="39.789" x="1657.5" y="7" fill="#3D176E" rx="2.5" ry="2.5" style="stroke:#000d19;stroke-width:.5"/><circle cx="1672.5" cy="26.895" r="11" fill="#ADD1B2" style="stroke:#181818;stroke-width:1"/><path d="M1675.469 32.535q-.578.297-1.219.438-.64.156-1.344.156-2.5 0-3.828-1.64-1.312-1.657-1.312-4.782t1.312-4.781q1.328-1.656 3.828-1.656.703 0 1.344.156.656.156 1.219.453v2.719q-.625-.578-1.219-.844-.594-.281-1.219-.281-1.343 0-2.031 1.078-.687 1.062-.687 3.156t.687 3.172q.688 1.062 2.031 1.062.625 0 1.219-.265.594-.281 1.219-.86z"/><text x="1691.5" y="32.78" fill="#D9B8FF" font-family="Helvetica" font-size="17" textLength="321">aws_sagemaker_auto_ml_data_source</text><rect width="288" height="39.789" x="2421" y="106.79" fill="#3D176E" rx="2.5" ry="2.5" style="stroke:#000d19;stroke-width:.5"/><circle cx="2436" cy="126.684" r="11" fill="#ADD1B2" style="stroke:#181818;stroke-width:1"/><path d="M2438.969 132.325q-.578.297-1.219.438-.64.156-1.344.156-2.5 0-3.828-1.64-1.312-1.657-1.312-4.782t1.312-4.781q1.328-1.656 3.828-1.656.703 0 1.344.156.656.156 1.219.453v2.719q-.625-.579-1.219-.844-.594-.281-1.219-.281-1.343 0-2.031 1.078-.687 1.062-.687 3.156t.687 3.172q.688 1.062 2.031 1.062.625 0 1.219-.265.594-.281 1.219-.86z"/><text x="2455" y="132.57" fill="#D9B8FF" font-family="Helvetica" font-size="17" textLength="246">aws_sagemaker_auto_ml_job</text><rect width="365" height="39.789" x="15.5" y="106.79" fill="#3D176E" rx="2.5" ry="2.5" style="stroke:#000d19;stroke-width:.5"/><circle cx="30.5" cy="126.684" r="11" fill="#ADD1B2" style="stroke:#181818;stroke-width:1"/><path d="M33.469 132.325q-.578.297-1.219.438-.64.156-1.344.156-2.5 0-3.828-1.64-1.312-1.657-1.312-4.782t1.312-4.781q1.328-1.656 3.828-1.656.703 0 1.344.156.656.156 1.219.453v2.719q-.625-.579-1.219-.844-.594-.281-1.219-.281-1.343 0-2.031 1.078-.687 1.062-.687 3.156t.687 3.172q.688 1.062 2.031 1.062.625 0 1.219-.265.594-.281 1.219-.86z"/><text x="49.5" y="132.57" fill="#D9B8FF" font-family="Helvetica" font-size="17" textLength="323">aws_sagemaker_auto_ml_job_artifacts</text><rect width="458" height="39.789" x="415" y="106.79" fill="#3D176E" rx="2.5" ry="2.5" style="stroke:#000d19;stroke-width:.5"/><circle cx="430" cy="126.684" r="11" fill="#ADD1B2" style="stroke:#181818;stroke-width:1"/><path d="M432.969 132.325q-.578.297-1.219.438-.64.156-1.344.156-2.5 0-3.828-1.64-1.312-1.657-1.312-4.782t1.312-4.781q1.328-1.656 3.828-1.656.703 0 1.344.156.656.156 1.219.453v2.719q-.625-.579-1.219-.844-.594-.281-1.219-.281-1.344 0-2.031 1.078-.687 1.062-.687 3.156t.687 3.172q.688 1.062 2.031 1.062.625 0 1.219-.265.594-.281 1.219-.86z"/><text x="449" y="132.57" fill="#D9B8FF" font-family="Helvetica" font-size="17" textLength="416">aws_sagemaker_auto_ml_job_completion_criteria</text><rect width="347" height="39.789" x="907.5" y="106.79" fill="#3D176E" rx="2.5" ry="2.5" style="stroke:#000d19;stroke-width:.5"/><circle cx="922.5" cy="126.684" r="11" fill="#ADD1B2" style="stroke:#181818;stroke-width:1"/><path d="M925.469 132.325q-.578.297-1.219.438-.64.156-1.344.156-2.5 0-3.828-1.64-1.312-1.657-1.312-4.782t1.312-4.781q1.328-1.656 3.828-1.656.703 0 1.344.156.656.156 1.219.453v2.719q-.625-.579-1.219-.844-.594-.281-1.219-.281-1.343 0-2.031 1.078-.687 1.062-.687 3.156t.687 3.172q.688 1.062 2.031 1.062.625 0 1.219-.265.594-.281 1.219-.86z"/><text x="941.5" y="132.57" fill="#D9B8FF" font-family="Helvetica" font-size="17" textLength="305">aws_sagemaker_auto_ml_job_config</text><rect width="424" height="39.789" x="1289" y="106.79" fill="#3D176E" rx="2.5" ry="2.5" style="stroke:#000d19;stroke-width:.5"/><circle cx="1304" cy="126.684" r="11" fill="#ADD1B2" style="stroke:#181818;stroke-width:1"/><path d="M1306.969 132.325q-.578.297-1.219.438-.64.156-1.344.156-2.5 0-3.828-1.64-1.312-1.657-1.312-4.782t1.312-4.781q1.328-1.656 3.828-1.656.703 0 1.344.156.656.156 1.219.453v2.719q-.625-.579-1.219-.844-.594-.281-1.219-.281-1.343 0-2.031 1.078-.687 1.062-.687 3.156t.687 3.172q.688 1.062 2.031 1.062.625 0 1.219-.265.594-.281 1.219-.86z"/><text x="1323" y="132.57" fill="#D9B8FF" font-family="Helvetica" font-size="17" textLength="382">aws_sagemaker_auto_ml_output_data_config</text><rect width="388" height="39.789" x="1748" y="106.79" fill="#3D176E" rx="2.5" ry="2.5" style="stroke:#000d19;stroke-width:.5"/><circle cx="1763" cy="126.684" r="11" fill="#ADD1B2" style="stroke:#181818;stroke-width:1"/><path d="M1765.969 132.325q-.578.297-1.219.438-.64.156-1.344.156-2.5 0-3.828-1.64-1.312-1.657-1.312-4.782t1.312-4.781q1.328-1.656 3.828-1.656.703 0 1.344.156.656.156 1.219.453v2.719q-.625-.579-1.219-.844-.594-.281-1.219-.281-1.343 0-2.031 1.078-.687 1.062-.687 3.156t.687 3.172q.688 1.062 2.031 1.062.625 0 1.219-.265.594-.281 1.219-.86z"/><text x="1782" y="132.57" fill="#D9B8FF" font-family="Helvetica" font-size="17" textLength="346">aws_sagemaker_auto_ml_security_config</text><rect width="382" height="39.789" x="7" y="206.58" fill="#3D176E" rx="2.5" ry="2.5" style="stroke:#000d19;stroke-width:.5"/><circle cx="22" cy="226.475" r="11" fill="#ADD1B2" style="stroke:#181818;stroke-width:1"/><path d="M24.969 232.115q-.578.297-1.219.438-.64.156-1.344.156-2.5 0-3.828-1.64-1.312-1.657-1.312-4.782t1.312-4.781q1.328-1.656 3.828-1.656.703 0 1.344.156.656.156 1.219.453v2.719q-.625-.578-1.219-.844-.594-.281-1.219-.281-1.343 0-2.031 1.078-.687 1.062-.687 3.156t.687 3.172q.688 1.062 2.031 1.062.625 0 1.219-.265.594-.281 1.219-.86z"/><text x="41" y="232.36" fill="#D9B8FF" font-family="Helvetica" font-size="17" textLength="340">aws_sagemaker_auto_mls3_data_source</text><rect width="418" height="39.789" x="424" y="206.58" fill="#3D176E" rx="2.5" ry="2.5" style="stroke:#000d19;stroke-width:.5"/><circle cx="439" cy="226.475" r="11" fill="#ADD1B2" style="stroke:#181818;stroke-width:1"/><path d="M441.969 232.115q-.578.297-1.219.438-.64.156-1.344.156-2.5 0-3.828-1.64-1.312-1.657-1.312-4.782t1.312-4.781q1.328-1.656 3.828-1.656.703 0 1.344.156.656.156 1.219.453v2.719q-.625-.578-1.219-.844-.594-.281-1.219-.281-1.344 0-2.031 1.078-.687 1.062-.687 3.156t.687 3.172q.688 1.062 2.031 1.062.625 0 1.219-.265.594-.281 1.219-.86z"/><text x="458" y="232.36" fill="#D9B8FF" font-family="Helvetica" font-size="17" textLength="376">aws_sagemaker_candidate_artifact_locations</text><rect width="359" height="39.789" x="877.5" y="206.58" fill="#3D176E" rx="2.5" ry="2.5" style="stroke:#000d19;stroke-width:.5"/><circle cx="892.5" cy="226.475" r="11" fill="#ADD1B2" style="stroke:#181818;stroke-width:1"/><path d="M895.469 232.115q-.578.297-1.219.438-.64.156-1.344.156-2.5 0-3.828-1.64-1.312-1.657-1.312-4.782t1.312-4.781q1.328-1.656 3.828-1.656.703 0 1.344.156.656.156 1.219.453v2.719q-.625-.578-1.219-.844-.594-.281-1.219-.281-1.343 0-2.031 1.078-.687 1.062-.687 3.156t.687 3.172q.688 1.062 2.031 1.062.625 0 1.219-.265.594-.281 1.219-.86z"/><text x="911.5" y="232.36" fill="#D9B8FF" font-family="Helvetica" font-size="17" textLength="317">aws_sagemaker_candidate_properties</text><rect width="481" height="39.789" x="1271.5" y="206.58" fill="#3D176E" rx="2.5" ry="2.5" style="stroke:#000d19;stroke-width:.5"/><circle cx="1286.5" cy="226.475" r="11" fill="#ADD1B2" style="stroke:#181818;stroke-width:1"/><path d="M1289.469 232.115q-.578.297-1.219.438-.64.156-1.344.156-2.5 0-3.828-1.64-1.312-1.657-1.312-4.782t1.312-4.781q1.328-1.656 3.828-1.656.703 0 1.344.156.656.156 1.219.453v2.719q-.625-.578-1.219-.844-.594-.281-1.219-.281-1.343 0-2.031 1.078-.687 1.062-.687 3.156t.687 3.172q.688 1.062 2.031 1.062.625 0 1.219-.265.594-.281 1.219-.86z"/><text x="1305.5" y="232.36" fill="#D9B8FF" font-family="Helvetica" font-size="17" textLength="439">aws_sagemaker_final_auto_ml_job_objective_metric</text><rect width="303" height="39.789" x="1787.5" y="206.58" fill="#3D176E" rx="2.5" ry="2.5" style="stroke:#000d19;stroke-width:.5"/><circle cx="1802.5" cy="226.475" r="11" fill="#ADD1B2" style="stroke:#181818;stroke-width:1"/><path d="M1805.469 232.115q-.578.297-1.219.438-.64.156-1.344.156-2.5 0-3.828-1.64-1.312-1.657-1.312-4.782t1.312-4.781q1.328-1.656 3.828-1.656.703 0 1.344.156.656.156 1.219.453v2.719q-.625-.578-1.219-.844-.594-.281-1.219-.281-1.343 0-2.031 1.078-.687 1.062-.687 3.156t.687 3.172q.688 1.062 2.031 1.062.625 0 1.219-.265.594-.281 1.219-.86z"/><text x="1821.5" y="232.36" fill="#D9B8FF" font-family="Helvetica" font-size="17" textLength="261">aws_sagemaker_metric_datum</text><rect width="360" height="39.789" x="18" y="306.37" fill="#3D176E" rx="2.5" ry="2.5" style="stroke:#000d19;stroke-width:.5"/><circle cx="33" cy="326.264" r="11" fill="#ADD1B2" style="stroke:#181818;stroke-width:1"/><path d="M35.969 331.905q-.578.297-1.219.438-.64.156-1.344.156-2.5 0-3.828-1.64-1.312-1.657-1.312-4.782t1.312-4.781q1.328-1.656 3.828-1.656.703 0 1.344.156.656.156 1.219.453v2.719q-.625-.579-1.219-.844-.594-.281-1.219-.281-1.343 0-2.031 1.078-.687 1.062-.687 3.156t.687 3.172q.688 1.062 2.031 1.062.625 0 1.219-.265.594-.281 1.219-.86z"/><text x="52" y="332.15" fill="#D9B8FF" font-family="Helvetica" font-size="17" textLength="318">aws_sagemaker_model_deploy_config</text><rect width="306" height="39.789" x="2267" y="206.58" fill="#3D176E" rx="2.5" ry="2.5" style="stroke:#000d19;stroke-width:.5"/><circle cx="2282" cy="226.475" r="11" fill="#ADD1B2" style="stroke:#181818;stroke-width:1"/><path d="M2284.969 232.115q-.578.297-1.219.438-.64.156-1.344.156-2.5 0-3.828-1.64-1.312-1.657-1.312-4.782t1.312-4.781q1.328-1.656 3.828-1.656.703 0 1.344.156.656.156 1.219.453v2.719q-.625-.578-1.219-.844-.594-.281-1.219-.281-1.343 0-2.031 1.078-.687 1.062-.687 3.156t.687 3.172q.688 1.062 2.031 1.062.625 0 1.219-.265.594-.281 1.219-.86z"/><text x="2301" y="232.36" fill="#D9B8FF" font-family="Helvetica" font-size="17" textLength="264">aws_sagemaker_processing_job</text><rect width="346" height="39.789" x="413" y="306.37" fill="#3D176E" rx="2.5" ry="2.5" style="stroke:#000d19;stroke-width:.5"/><circle cx="428" cy="326.264" r="11" fill="#ADD1B2" style="stroke:#181818;stroke-width:1"/><path d="M430.969 331.905q-.578.297-1.219.438-.64.156-1.344.156-2.5 0-3.828-1.64-1.312-1.657-1.312-4.782t1.312-4.781q1.328-1.656 3.828-1.656.703 0 1.344.156.656.156 1.219.453v2.719q-.625-.579-1.219-.844-.594-.281-1.219-.281-1.344 0-2.031 1.078-.687 1.062-.687 3.156t.687 3.172q.688 1.062 2.031 1.062.625 0 1.219-.265.594-.281 1.219-.86z"/><text x="447" y="332.15" fill="#D9B8FF" font-family="Helvetica" font-size="17" textLength="304">aws_sagemaker_resolved_attributes</text><rect width="285" height="39.789" x="2756.5" y="306.37" fill="#3D176E" rx="2.5" ry="2.5" style="stroke:#000d19;stroke-width:.5"/><circle cx="2771.5" cy="326.264" r="11" fill="#ADD1B2" style="stroke:#181818;stroke-width:1"/><path d="M2774.469 331.905q-.578.297-1.219.438-.64.156-1.344.156-2.5 0-3.828-1.64-1.312-1.657-1.312-4.782t1.312-4.781q1.328-1.656 3.828-1.656.703 0 1.344.156.656.156 1.219.453v2.719q-.625-.579-1.219-.844-.594-.281-1.219-.281-1.343 0-2.031 1.078-.687 1.062-.687 3.156t.687 3.172q.688 1.062 2.031 1.062.625 0 1.219-.265.594-.281 1.219-.86z"/><text x="2790.5" y="332.15" fill="#D9B8FF" font-family="Helvetica" font-size="17" textLength="243">aws_sagemaker_training_job</text><rect width="302" height="39.789" x="2420" y="306.37" fill="#3D176E" rx="2.5" ry="2.5" style="stroke:#000d19;stroke-width:.5"/><circle cx="2435" cy="326.264" r="11" fill="#ADD1B2" style="stroke:#181818;stroke-width:1"/><path d="M2437.969 331.905q-.578.297-1.219.438-.64.156-1.344.156-2.5 0-3.828-1.64-1.312-1.657-1.312-4.782t1.312-4.781q1.328-1.656 3.828-1.656.703 0 1.344.156.656.156 1.219.453v2.719q-.625-.579-1.219-.844-.594-.281-1.219-.281-1.343 0-2.031 1.078-.687 1.062-.687 3.156t.687 3.172q.688 1.062 2.031 1.062.625 0 1.219-.265.594-.281 1.219-.86z"/><text x="2454" y="332.15" fill="#D9B8FF" font-family="Helvetica" font-size="17" textLength="260">aws_sagemaker_transform_job</text><rect width="272" height="39.789" x="794" y="306.37" fill="#3D176E" rx="2.5" ry="2.5" style="stroke:#000d19;stroke-width:.5"/><circle cx="809" cy="326.264" r="11" fill="#ADD1B2" style="stroke:#181818;stroke-width:1"/><path d="M811.969 331.905q-.578.297-1.219.438-.64.156-1.344.156-2.5 0-3.828-1.64-1.312-1.657-1.312-4.782t1.312-4.781q1.328-1.656 3.828-1.656.703 0 1.344.156.656.156 1.219.453v2.719q-.625-.579-1.219-.844-.594-.281-1.219-.281-1.343 0-2.031 1.078-.687 1.062-.687 3.156t.687 3.172q.688 1.062 2.031 1.062.625 0 1.219-.265.594-.281 1.219-.86z"/><text x="828" y="332.15" fill="#D9B8FF" font-family="Helvetica" font-size="17" textLength="230">aws_sagemaker_vpc_config</text><path fill="none" d="M2565 47.22v53.19" style="stroke:#1a83af;stroke-width:2"/><path fill="#1A83AF" d="m2565 106.41 4-9-4 4-4-4z" style="stroke:#1a83af;stroke-width:2"/><path fill="none" d="M2485.31 47.26c-30.92 11.83-63.19 30.48-81.31 59.53-19.14 30.7-7.312 69.02 3.788 93.93" style="stroke:#1a83af;stroke-width:2"/><path fill="#1A83AF" d="m2410.23 206.2-.01-9.849-2.025 5.282-5.282-2.026z" style="stroke:#1a83af;stroke-width:2"/><path fill="none" d="M2619.58 47.26c33.21 13.45 75.27 33.62 107.42 59.53 74.41 59.99 133.56 152.713 157.92 193.983" style="stroke:#1a83af;stroke-width:2"/><path fill="#1A83AF" d="m2887.97 305.94-1.13-9.784-1.412 5.478-5.477-1.411z" style="stroke:#1a83af;stroke-width:2"/><path fill="none" d="M2771.23 47.22c-45.06 17.14-104.932 39.926-149.952 57.056" style="stroke:#1a83af;stroke-width:2"/><path fill="#1A83AF" d="m2615.67 106.41 9.834.538-5.16-2.316 2.315-5.161z" style="stroke:#1a83af;stroke-width:2"/><path fill="none" d="M2811.91 47.14c-14.94 26.53-45.45 73.95-84.91 99.44-45.76 29.57-96.184 46.763-148.004 58.333" style="stroke:#1a83af;stroke-width:2"/><path fill="#1A83AF" d="m2573.14 206.22 9.655 1.943-4.775-3.032 3.032-4.776z" style="stroke:#1a83af;stroke-width:2"/><path fill="none" d="M2826.93 46.95c13.88 53.59 51.626 199.372 65.576 253.232" style="stroke:#1a83af;stroke-width:2"/><path fill="#1A83AF" d="m2894.01 305.99 1.616-9.715-2.87 4.875-4.875-2.87z" style="stroke:#1a83af;stroke-width:2"/><path fill="none" d="M2946.18 44.65c-80.48 17.11-199.451 42.402-284.151 60.412" style="stroke:#1a83af;stroke-width:2"/><path fill="#1A83AF" d="m2656.16 106.31 9.635 2.04-4.744-3.08 3.08-4.744z" style="stroke:#1a83af;stroke-width:2"/><path fill="none" d="M2990.7 47.14c-47.41 25.88-136.23 71.84-216.7 99.44-77.13 26.46-160.914 45.226-230.714 58.416" style="stroke:#1a83af;stroke-width:2"/><path fill="#1A83AF" d="m2537.39 206.11 9.586 2.26-4.673-3.188 3.188-4.674z" style="stroke:#1a83af;stroke-width:2"/><path fill="none" d="M3016.93 46.95c-22.71 53.59-84.6 199.655-107.42 253.515" style="stroke:#1a83af;stroke-width:2"/><path fill="#1A83AF" d="m2907.17 305.99 7.194-6.726-5.243 2.122-2.123-5.243z" style="stroke:#1a83af;stroke-width:2"/><path fill="none" d="M2420.94 143.18c-81.1 12.02-171.01 32.03-195.94 63.4-51.81 65.22 35.626 155.076 81.175 195.156" style="stroke:#1a83af;stroke-width:2"/><path fill="#1A83AF" d="m2310.68 405.7-4.114-8.948.36 5.645-5.645.36z" style="stroke:#1a83af;stroke-width:2"/><path fill="none" d="M2420.71 146.4c-72.21 12.63-148.86 32.18-170.71 60.18-73.49 94.17 110.676 164.63 221.666 197.41" style="stroke:#1a83af;stroke-width:2"/><path fill="#1A83AF" d="m2477.42 405.69-7.498-6.385 2.703 4.969-4.97 2.703z" style="stroke:#1a83af;stroke-width:2"/><path fill="none" d="M2536.35 147.01c-25.42 17.14-57.385 38.705-82.785 55.835" style="stroke:#1a83af;stroke-width:2"/><path fill="#1A83AF" d="m2448.59 206.2 9.698-1.716-5.553-1.08 1.08-5.553z" style="stroke:#1a83af;stroke-width:2"/><path fill="none" d="M2591.61 147.07c34.06 24.43 95.27 67.14 150.39 99.3 37.94 22.14 77.448 41.761 109.508 56.951" style="stroke:#1a83af;stroke-width:2"/><path fill="#1A83AF" d="m2856.93 305.89-6.42-7.468 1.901 5.327-5.327 1.902z" style="stroke:#1a83af;stroke-width:2"/><path fill="none" d="M2573.3 147.03c6.27 15.71 14.34 38.62 17.7 59.55 5.63 35.08-3.148 70.206-10.948 93.686" style="stroke:#1a83af;stroke-width:2"/><path fill="#1A83AF" d="m2578.16 305.96 6.633-7.28-5.057 2.535-2.535-5.057z" style="stroke:#1a83af;stroke-width:2"/><path fill="none" d="M2392.11 246.76c-18.04 14.19-40.14 35.21-51.11 59.61-14.64 32.57-13.377 69.36-10.577 93.66" style="stroke:#1a83af;stroke-width:2"/><path fill="#1A83AF" d="m2331.11 405.99 2.943-9.399-3.515 4.432-4.432-3.516z" style="stroke:#1a83af;stroke-width:2"/><path fill="none" d="M2410.15 246.65c-11.24 24.79-25.79 68.46-7.15 99.51 17.23 28.71 43.292 45.29 72.892 57.33" style="stroke:#1a83af;stroke-width:2"/><path fill="#1A83AF" d="m2481.45 405.75-6.83-7.096 2.198 5.212-5.212 2.198z" style="stroke:#1a83af;stroke-width:2"/><path fill="none" d="M2514.92 246.86c83.87 17.12 199.661 40.76 283.471 57.87" style="stroke:#1a83af;stroke-width:2"/><path fill="#1A83AF" d="m2804.27 305.93-8.018-5.72 3.119 4.72-4.72 3.119z" style="stroke:#1a83af;stroke-width:2"/><path fill="none" d="M2787.04 346.64c-110.35 19.1-270.258 46.776-367.698 63.646" style="stroke:#1a83af;stroke-width:2"/><path fill="#1A83AF" d="m2413.43 411.31 9.55 2.406-4.623-3.259 3.259-4.624z" style="stroke:#1a83af;stroke-width:2"/><path fill="none" d="M2830.25 346.59c-60.91 17.11-143.614 40.347-204.564 57.477" style="stroke:#1a83af;stroke-width:2"/><path fill="#1A83AF" d="m2619.91 405.69 9.747 1.416-4.934-2.769 2.769-4.933z" style="stroke:#1a83af;stroke-width:2"/><path fill="none" d="M2524.18 346.59c-41.55 17.14-96.384 39.76-137.904 56.9" style="stroke:#1a83af;stroke-width:2"/><path fill="#1A83AF" d="m2380.73 405.78 9.845.263-5.223-2.17 2.17-5.225z" style="stroke:#1a83af;stroke-width:2"/><path fill="none" d="M2567.05 346.59c-3.51 17.14-7.396 36.172-10.906 53.312" style="stroke:#1a83af;stroke-width:2"/><path fill="#1A83AF" d="m2554.94 405.78 5.724-8.014-4.72 3.116-3.117-4.721z" style="stroke:#1a83af;stroke-width:2"/></svg>