<svg xmlns="http://www.w3.org/2000/svg" width="443" height="1211" viewBox="0 0 443 1211"><rect width="429" height="152.977" x="7" y="891.41" fill="#3D176E" rx="2.5" ry="2.5" style="stroke:#000d19;stroke-width:.5"/><circle cx="106.25" cy="911.304" r="11" fill="#ADD1B2" style="stroke:#181818;stroke-width:1"/><path d="M109.219 916.945q-.578.297-1.219.438-.64.156-1.344.156-2.5 0-3.828-1.64-1.312-1.657-1.312-4.782t1.312-4.781q1.328-1.657 3.828-1.657.703 0 1.344.157.656.156 1.219.453v2.719q-.625-.579-1.219-.844-.594-.281-1.219-.281-1.344 0-2.031 1.078-.687 1.062-.687 3.156t.687 3.172q.688 1.062 2.031 1.062.625 0 1.219-.265.594-.282 1.219-.86z"/><text x="131.75" y="917.19" fill="#D9B8FF" font-family="Helvetica" font-size="17" textLength="212">azure_security_extension</text><path d="M8 931.199h427" style="stroke:#000d19;stroke-width:.5"/><text x="18" y="953.194" fill="#D9B8FF" font-family="sans-serif" font-size="14" font-weight="bold" textLength="251">additional_extension_properties</text><text x="269" y="953.194" fill="#D9B8FF" font-family="sans-serif" font-size="14" textLength="156">: dictionary[string, any]</text><text x="18" y="979.491" fill="#D9B8FF" font-family="sans-serif" font-size="14" font-weight="bold" textLength="83">is_enabled</text><text x="101" y="979.491" fill="#D9B8FF" font-family="sans-serif" font-size="14" textLength="48">: string</text><text x="18" y="1005.788" fill="#D9B8FF" font-family="sans-serif" font-size="14" font-weight="bold" textLength="43">name</text><text x="61" y="1005.788" fill="#D9B8FF" font-family="sans-serif" font-size="14" textLength="48">: string</text><text x="18" y="1032.085" fill="#D9B8FF" font-family="sans-serif" font-size="14" font-weight="bold" textLength="132">operation_status</text><text x="150" y="1032.085" fill="#D9B8FF" font-family="sans-serif" font-size="14" textLength="232">: azure_security_operation_status</text><rect width="312" height="100.383" x="65.5" y="1104.39" fill="#3D176E" rx="2.5" ry="2.5" style="stroke:#000d19;stroke-width:.5"/><circle cx="80.5" cy="1124.284" r="11" fill="#ADD1B2" style="stroke:#181818;stroke-width:1"/><path d="M83.469 1129.925q-.578.297-1.219.438-.64.156-1.344.156-2.5 0-3.828-1.64-1.312-1.657-1.312-4.782t1.312-4.781q1.328-1.657 3.828-1.657.703 0 1.344.157.656.156 1.219.453v2.719q-.625-.579-1.219-.844-.594-.281-1.219-.281-1.344 0-2.031 1.078-.687 1.062-.687 3.156t.687 3.172q.688 1.062 2.031 1.062.625 0 1.219-.265.594-.282 1.219-.86z"/><text x="99.5" y="1130.17" fill="#D9B8FF" font-family="Helvetica" font-size="17" textLength="270">azure_security_operation_status</text><path d="M66.5 1144.179h310" style="stroke:#000d19;stroke-width:.5"/><text x="76.5" y="1166.174" fill="#D9B8FF" font-family="sans-serif" font-size="14" font-weight="bold" textLength="39">code</text><text x="115.5" y="1166.174" fill="#D9B8FF" font-family="sans-serif" font-size="14" textLength="48">: string</text><text x="76.5" y="1192.471" fill="#D9B8FF" font-family="sans-serif" font-size="14" font-weight="bold" textLength="71">message</text><text x="147.5" y="1192.471" fill="#D9B8FF" font-family="sans-serif" font-size="14" textLength="48">: string</text><rect width="303" height="231.867" x="70" y="599.54" fill="#3D176E" rx="2.5" ry="2.5" style="stroke:#000d19;stroke-width:.5"/><circle cx="119.25" cy="619.434" r="11" fill="#ADD1B2" style="stroke:#181818;stroke-width:1"/><path d="M122.219 625.075q-.578.297-1.219.438-.64.156-1.344.156-2.5 0-3.828-1.64-1.312-1.657-1.312-4.782t1.312-4.781q1.328-1.657 3.828-1.657.703 0 1.344.157.656.156 1.219.453v2.719q-.625-.579-1.219-.844-.594-.281-1.219-.281-1.344 0-2.031 1.078-.687 1.062-.687 3.156t.687 3.172q.688 1.062 2.031 1.062.625 0 1.219-.265.594-.282 1.219-.86z"/><text x="144.75" y="625.32" fill="#D9B8FF" font-family="Helvetica" font-size="17" textLength="186">azure_security_pricing</text><path d="M71 639.329h301" style="stroke:#000d19;stroke-width:.5"/><text x="81" y="661.324" fill="#D9B8FF" font-family="sans-serif" font-size="14" font-weight="bold" textLength="91">deprecated</text><text x="172" y="661.324" fill="#D9B8FF" font-family="sans-serif" font-size="14" textLength="65">: boolean</text><text x="81" y="687.621" fill="#D9B8FF" font-family="sans-serif" font-size="14" font-weight="bold" textLength="134">enablement_time</text><text x="215" y="687.621" fill="#D9B8FF" font-family="sans-serif" font-size="14" textLength="70">: datetime</text><text x="81" y="713.918" fill="#D9B8FF" font-family="sans-serif" font-size="14" font-weight="bold" textLength="87">extensions</text><text x="168" y="713.918" fill="#D9B8FF" font-family="sans-serif" font-size="14" textLength="194">: azure_security_extension[]</text><text x="81" y="740.215" fill="#D9B8FF" font-family="sans-serif" font-size="14" font-weight="bold" textLength="196">free_trial_remaining_time</text><text x="277" y="740.215" fill="#D9B8FF" font-family="sans-serif" font-size="14" textLength="48">: string</text><text x="81" y="766.512" fill="#D9B8FF" font-family="sans-serif" font-size="14" font-weight="bold" textLength="88">pricing_tier</text><text x="169" y="766.512" fill="#D9B8FF" font-family="sans-serif" font-size="14" textLength="48">: string</text><text x="81" y="792.809" fill="#D9B8FF" font-family="sans-serif" font-size="14" font-weight="bold" textLength="95">replaced_by</text><text x="176" y="792.809" fill="#D9B8FF" font-family="sans-serif" font-size="14" textLength="58">: string[]</text><text x="81" y="819.105" fill="#D9B8FF" font-family="sans-serif" font-size="14" font-weight="bold" textLength="69">sub_plan</text><text x="150" y="819.105" fill="#D9B8FF" font-family="sans-serif" font-size="14" textLength="48">: string</text><rect width="200" height="39.789" x="121.5" y="438.75" fill="#3D176E" rx="2.5" ry="2.5" style="stroke:#000d19;stroke-width:.5"/><circle cx="136.5" cy="458.644" r="11" fill="#ADD1B2" style="stroke:#181818;stroke-width:1"/><path d="M139.469 464.285q-.578.297-1.219.438-.64.156-1.344.156-2.5 0-3.828-1.64-1.312-1.657-1.312-4.782t1.312-4.781q1.328-1.656 3.828-1.656.703 0 1.344.156.656.156 1.219.453v2.719q-.625-.579-1.219-.844-.594-.281-1.219-.281-1.344 0-2.031 1.078-.687 1.062-.687 3.156t.687 3.172q.688 1.062 2.031 1.062.625 0 1.219-.265.594-.281 1.219-.86z"/><text x="155.5" y="464.53" fill="#D9B8FF" font-family="Helvetica" font-size="17" textLength="158">microsoft_resource</text><rect width="227" height="310.758" x="108" y="7" fill="#3D176E" rx="2.5" ry="2.5" style="stroke:#000d19;stroke-width:.5"/><circle cx="176.75" cy="26.895" r="11" fill="#ADD1B2" style="stroke:#181818;stroke-width:1"/><path d="M179.719 32.535q-.578.297-1.219.438-.64.156-1.344.156-2.5 0-3.828-1.64-1.312-1.657-1.312-4.782t1.312-4.781q1.328-1.656 3.828-1.656.703 0 1.344.156.656.156 1.219.453v2.719q-.625-.578-1.219-.844-.594-.281-1.219-.281-1.344 0-2.031 1.078-.687 1.062-.687 3.156t.687 3.172q.688 1.062 2.031 1.062.625 0 1.219-.265.594-.281 1.219-.86z"/><text x="202.25" y="32.78" fill="#D9B8FF" font-family="Helvetica" font-size="17" textLength="71">resource</text><path d="M109 46.789h225" style="stroke:#000d19;stroke-width:.5"/><text x="119" y="68.784" fill="#D9B8FF" font-family="sans-serif" font-size="14" font-weight="bold" textLength="29">age</text><text x="148" y="68.784" fill="#D9B8FF" font-family="sans-serif" font-size="14" textLength="66">: duration</text><text x="119" y="95.081" fill="#D9B8FF" font-family="sans-serif" font-size="14" font-weight="bold" textLength="43">atime</text><text x="162" y="95.081" fill="#D9B8FF" font-family="sans-serif" font-size="14" textLength="70">: datetime</text><text x="119" y="121.378" fill="#D9B8FF" font-family="sans-serif" font-size="14" font-weight="bold" textLength="43">ctime</text><text x="162" y="121.378" fill="#D9B8FF" font-family="sans-serif" font-size="14" textLength="70">: datetime</text><text x="119" y="147.675" fill="#D9B8FF" font-family="sans-serif" font-size="14" font-weight="bold" textLength="14">id</text><text x="133" y="147.675" fill="#D9B8FF" font-family="sans-serif" font-size="14" textLength="48">: string</text><text x="119" y="173.972" fill="#D9B8FF" font-family="sans-serif" font-size="14" font-weight="bold" textLength="33">kind</text><text x="152" y="173.972" fill="#D9B8FF" font-family="sans-serif" font-size="14" textLength="48">: string</text><text x="119" y="200.269" fill="#D9B8FF" font-family="sans-serif" font-size="14" font-weight="bold" textLength="90">last_access</text><text x="209" y="200.269" fill="#D9B8FF" font-family="sans-serif" font-size="14" textLength="66">: duration</text><text x="119" y="226.565" fill="#D9B8FF" font-family="sans-serif" font-size="14" font-weight="bold" textLength="90">last_update</text><text x="209" y="226.565" fill="#D9B8FF" font-family="sans-serif" font-size="14" textLength="66">: duration</text><text x="119" y="252.862" fill="#D9B8FF" font-family="sans-serif" font-size="14" font-weight="bold" textLength="48">mtime</text><text x="167" y="252.862" fill="#D9B8FF" font-family="sans-serif" font-size="14" textLength="70">: datetime</text><text x="119" y="279.159" fill="#D9B8FF" font-family="sans-serif" font-size="14" font-weight="bold" textLength="43">name</text><text x="162" y="279.159" fill="#D9B8FF" font-family="sans-serif" font-size="14" textLength="48">: string</text><text x="119" y="305.456" fill="#D9B8FF" font-family="sans-serif" font-size="14" font-weight="bold" textLength="34">tags</text><text x="153" y="305.456" fill="#D9B8FF" font-family="sans-serif" font-size="14" textLength="171">: dictionary[string, string]</text><path fill="none" d="M221.5 1044.81v53.27" style="stroke:#ffaf37;stroke-width:2"/><path fill="#FFAF37" d="m221.5 1104.08 4-9-4 4-4-4z" style="stroke:#ffaf37;stroke-width:2"/><path fill="none" d="M221.5 831.79v53.39" style="stroke:#ffaf37;stroke-width:2"/><path fill="#FFAF37" d="m221.5 891.18 4-9-4 4-4-4z" style="stroke:#ffaf37;stroke-width:2"/><path fill="none" d="M221.5 496.8v102.47m0-120.47-6 18h12zm0-142.96v102.83m0-120.83-6 18h12z" style="stroke:#ffaf37;stroke-width:2"/></svg>