<svg xmlns="http://www.w3.org/2000/svg" width="892" height="1585" viewBox="0 0 892 1585"><rect width="287" height="284.461" x="215.5" y="438.76" fill="#3D176E" rx="2.5" ry="2.5" style="stroke:#000d19;stroke-width:.5"/><circle cx="312.25" cy="458.654" r="11" fill="#ADD1B2" style="stroke:#181818;stroke-width:1"/><path d="M315.219 464.295q-.578.297-1.219.438-.64.156-1.344.156-2.5 0-3.828-1.64-1.312-1.657-1.312-4.782t1.312-4.781q1.328-1.656 3.828-1.656.703 0 1.344.156.656.156 1.219.453v2.719q-.625-.579-1.219-.844-.594-.281-1.219-.281-1.344 0-2.031 1.078-.687 1.062-.687 3.156t.687 3.172q.688 1.062 2.031 1.062.625 0 1.219-.265.594-.281 1.219-.86z"/><text x="337.75" y="464.54" fill="#D9B8FF" font-family="Helvetica" font-size="17" textLength="75">database</text><path d="M216.5 478.549h285" style="stroke:#000d19;stroke-width:.5"/><text x="226.5" y="500.544" fill="#D9B8FF" font-family="sans-serif" font-size="14" font-weight="bold" textLength="97">db_endpoint</text><text x="323.5" y="500.544" fill="#D9B8FF" font-family="sans-serif" font-size="14" textLength="48">: string</text><text x="226.5" y="526.841" fill="#D9B8FF" font-family="sans-serif" font-size="14" font-weight="bold" textLength="177">db_publicly_accessible</text><text x="403.5" y="526.841" fill="#D9B8FF" font-family="sans-serif" font-size="14" textLength="65">: boolean</text><text x="226.5" y="553.138" fill="#D9B8FF" font-family="sans-serif" font-size="14" font-weight="bold" textLength="76">db_status</text><text x="302.5" y="553.138" fill="#D9B8FF" font-family="sans-serif" font-size="14" textLength="189">: database_instance_status</text><text x="226.5" y="579.435" fill="#D9B8FF" font-family="sans-serif" font-size="14" font-weight="bold" textLength="62">db_type</text><text x="288.5" y="579.435" fill="#D9B8FF" font-family="sans-serif" font-size="14" textLength="48">: string</text><text x="226.5" y="605.732" fill="#D9B8FF" font-family="sans-serif" font-size="14" font-weight="bold" textLength="86">db_version</text><text x="312.5" y="605.732" fill="#D9B8FF" font-family="sans-serif" font-size="14" textLength="48">: string</text><text x="226.5" y="632.029" fill="#D9B8FF" font-family="sans-serif" font-size="14" font-weight="bold" textLength="109">instance_type</text><text x="335.5" y="632.029" fill="#D9B8FF" font-family="sans-serif" font-size="14" textLength="48">: string</text><text x="226.5" y="658.325" fill="#D9B8FF" font-family="sans-serif" font-size="14" font-weight="bold" textLength="145">volume_encrypted</text><text x="371.5" y="658.325" fill="#D9B8FF" font-family="sans-serif" font-size="14" textLength="65">: boolean</text><text x="226.5" y="684.622" fill="#D9B8FF" font-family="sans-serif" font-size="14" font-weight="bold" textLength="97">volume_iops</text><text x="323.5" y="684.622" fill="#D9B8FF" font-family="sans-serif" font-size="14" textLength="44">: int64</text><text x="226.5" y="710.919" fill="#D9B8FF" font-family="sans-serif" font-size="14" font-weight="bold" textLength="96">volume_size</text><text x="322.5" y="710.919" fill="#D9B8FF" font-family="sans-serif" font-size="14" textLength="44">: int64</text><rect width="237" height="179.273" x="592.5" y="1399.06" fill="#3D176E" rx="2.5" ry="2.5" style="stroke:#000d19;stroke-width:.5"/><circle cx="607.5" cy="1418.955" r="11" fill="#ADD1B2" style="stroke:#181818;stroke-width:1"/><path d="M610.469 1424.595q-.578.297-1.219.438-.64.156-1.344.156-2.5 0-3.828-1.64-1.312-1.657-1.312-4.782t1.312-4.781q1.328-1.657 3.828-1.657.703 0 1.344.157.656.156 1.219.453v2.719q-.625-.578-1.219-.844-.594-.281-1.219-.281-1.343 0-2.031 1.078-.687 1.062-.687 3.156t.687 3.172q.688 1.062 2.031 1.062.625 0 1.219-.265.594-.282 1.219-.86z"/><text x="626.5" y="1424.84" fill="#D9B8FF" font-family="Helvetica" font-size="17" textLength="195">gcp_deprecation_status</text><path d="M593.5 1438.849h235" style="stroke:#000d19;stroke-width:.5"/><text x="603.5" y="1460.844" fill="#D9B8FF" font-family="sans-serif" font-size="14" font-weight="bold" textLength="60">deleted</text><text x="663.5" y="1460.844" fill="#D9B8FF" font-family="sans-serif" font-size="14" textLength="48">: string</text><text x="603.5" y="1487.141" fill="#D9B8FF" font-family="sans-serif" font-size="14" font-weight="bold" textLength="91">deprecated</text><text x="694.5" y="1487.141" fill="#D9B8FF" font-family="sans-serif" font-size="14" textLength="48">: string</text><text x="603.5" y="1513.438" fill="#D9B8FF" font-family="sans-serif" font-size="14" font-weight="bold" textLength="69">obsolete</text><text x="672.5" y="1513.438" fill="#D9B8FF" font-family="sans-serif" font-size="14" textLength="48">: string</text><text x="603.5" y="1539.735" fill="#D9B8FF" font-family="sans-serif" font-size="14" font-weight="bold" textLength="99">replacement</text><text x="702.5" y="1539.735" fill="#D9B8FF" font-family="sans-serif" font-size="14" textLength="48">: string</text><text x="603.5" y="1566.032" fill="#D9B8FF" font-family="sans-serif" font-size="14" font-weight="bold" textLength="40">state</text><text x="643.5" y="1566.032" fill="#D9B8FF" font-family="sans-serif" font-size="14" textLength="48">: string</text><rect width="262" height="100.383" x="7" y="1438.5" fill="#3D176E" rx="2.5" ry="2.5" style="stroke:#000d19;stroke-width:.5"/><circle cx="22" cy="1458.395" r="11" fill="#ADD1B2" style="stroke:#181818;stroke-width:1"/><path d="M24.969 1464.035q-.578.297-1.219.438-.64.156-1.344.156-2.5 0-3.828-1.64-1.312-1.657-1.312-4.782t1.312-4.781q1.328-1.656 3.828-1.656.703 0 1.344.156.656.156 1.219.453v2.719q-.625-.578-1.219-.844-.594-.281-1.219-.281-1.343 0-2.031 1.078-.687 1.062-.687 3.156t.687 3.172q.688 1.062 2.031 1.062.625 0 1.219-.265.594-.281 1.219-.86z"/><text x="41" y="1464.28" fill="#D9B8FF" font-family="Helvetica" font-size="17" textLength="220">gcp_firestore_cmek_config</text><path d="M8 1478.289h260" style="stroke:#000d19;stroke-width:.5"/><text x="18" y="1500.284" fill="#D9B8FF" font-family="sans-serif" font-size="14" font-weight="bold" textLength="148">active_key_version</text><text x="166" y="1500.284" fill="#D9B8FF" font-family="sans-serif" font-size="14" textLength="58">: string[]</text><text x="18" y="1526.581" fill="#D9B8FF" font-family="sans-serif" font-size="14" font-weight="bold" textLength="117">kms_key_name</text><text x="135" y="1526.581" fill="#D9B8FF" font-family="sans-serif" font-size="14" textLength="48">: string</text><rect width="350" height="494.836" x="256" y="844.22" fill="#3D176E" rx="2.5" ry="2.5" style="stroke:#000d19;stroke-width:.5"/><circle cx="326.25" cy="864.115" r="11" fill="#ADD1B2" style="stroke:#181818;stroke-width:1"/><path d="M329.219 869.755q-.578.297-1.219.438-.64.156-1.344.156-2.5 0-3.828-1.64-1.312-1.657-1.312-4.782t1.312-4.781q1.328-1.656 3.828-1.656.703 0 1.344.156.656.156 1.219.453v2.719q-.625-.578-1.219-.844-.594-.281-1.219-.281-1.344 0-2.031 1.078-.687 1.062-.687 3.156t.687 3.172q.688 1.062 2.031 1.062.625 0 1.219-.265.594-.281 1.219-.86z"/><text x="351.75" y="870" fill="#D9B8FF" font-family="Helvetica" font-size="17" textLength="191">gcp_firestore_database</text><path d="M257 884.009h348" style="stroke:#000d19;stroke-width:.5"/><text x="267" y="906.004" fill="#D9B8FF" font-family="sans-serif" font-size="14" font-weight="bold" textLength="234">app_engine_integration_mode</text><text x="501" y="906.004" fill="#D9B8FF" font-family="sans-serif" font-size="14" textLength="48">: string</text><text x="267" y="932.301" fill="#D9B8FF" font-family="sans-serif" font-size="14" font-weight="bold" textLength="98">cmek_config</text><text x="365" y="932.301" fill="#D9B8FF" font-family="sans-serif" font-size="14" textLength="193">: gcp_firestore_cmek_config</text><text x="267" y="958.598" fill="#D9B8FF" font-family="sans-serif" font-size="14" font-weight="bold" textLength="151">concurrency_mode</text><text x="418" y="958.598" fill="#D9B8FF" font-family="sans-serif" font-size="14" textLength="48">: string</text><text x="267" y="984.895" fill="#D9B8FF" font-family="sans-serif" font-size="14" font-weight="bold" textLength="92">create_time</text><text x="359" y="984.895" fill="#D9B8FF" font-family="sans-serif" font-size="14" textLength="70">: datetime</text><text x="267" y="1011.192" fill="#D9B8FF" font-family="sans-serif" font-size="14" font-weight="bold" textLength="186">delete_protection_state</text><text x="453" y="1011.192" fill="#D9B8FF" font-family="sans-serif" font-size="14" textLength="48">: string</text><text x="267" y="1037.489" fill="#D9B8FF" font-family="sans-serif" font-size="14" font-weight="bold" textLength="91">delete_time</text><text x="358" y="1037.489" fill="#D9B8FF" font-family="sans-serif" font-size="14" textLength="70">: datetime</text><text x="267" y="1063.785" fill="#D9B8FF" font-family="sans-serif" font-size="14" font-weight="bold" textLength="166">earliest_version_time</text><text x="433" y="1063.785" fill="#D9B8FF" font-family="sans-serif" font-size="14" textLength="70">: datetime</text><text x="267" y="1090.082" fill="#D9B8FF" font-family="sans-serif" font-size="14" font-weight="bold" textLength="35">etag</text><text x="302" y="1090.082" fill="#D9B8FF" font-family="sans-serif" font-size="14" textLength="48">: string</text><text x="267" y="1116.379" fill="#D9B8FF" font-family="sans-serif" font-size="14" font-weight="bold" textLength="81">key_prefix</text><text x="348" y="1116.379" fill="#D9B8FF" font-family="sans-serif" font-size="14" textLength="48">: string</text><text x="267" y="1142.676" fill="#D9B8FF" font-family="sans-serif" font-size="14" font-weight="bold" textLength="83">location_id</text><text x="350" y="1142.676" fill="#D9B8FF" font-family="sans-serif" font-size="14" textLength="48">: string</text><text x="267" y="1168.973" fill="#D9B8FF" font-family="sans-serif" font-size="14" font-weight="bold" textLength="280">point_in_time_recovery_enablement</text><text x="547" y="1168.973" fill="#D9B8FF" font-family="sans-serif" font-size="14" textLength="48">: string</text><text x="267" y="1195.27" fill="#D9B8FF" font-family="sans-serif" font-size="14" font-weight="bold" textLength="90">previous_id</text><text x="357" y="1195.27" fill="#D9B8FF" font-family="sans-serif" font-size="14" textLength="48">: string</text><text x="267" y="1221.567" fill="#D9B8FF" font-family="sans-serif" font-size="14" font-weight="bold" textLength="92">source_info</text><text x="359" y="1221.567" fill="#D9B8FF" font-family="sans-serif" font-size="14" textLength="186">: gcp_firestore_source_info</text><text x="267" y="1247.864" fill="#D9B8FF" font-family="sans-serif" font-size="14" font-weight="bold" textLength="35">type</text><text x="302" y="1247.864" fill="#D9B8FF" font-family="sans-serif" font-size="14" textLength="48">: string</text><text x="267" y="1274.16" fill="#D9B8FF" font-family="sans-serif" font-size="14" font-weight="bold" textLength="24">uid</text><text x="291" y="1274.16" fill="#D9B8FF" font-family="sans-serif" font-size="14" textLength="48">: string</text><text x="267" y="1300.457" fill="#D9B8FF" font-family="sans-serif" font-size="14" font-weight="bold" textLength="96">update_time</text><text x="363" y="1300.457" fill="#D9B8FF" font-family="sans-serif" font-size="14" textLength="70">: datetime</text><text x="267" y="1326.754" fill="#D9B8FF" font-family="sans-serif" font-size="14" font-weight="bold" textLength="197">version_retention_period</text><text x="464" y="1326.754" fill="#D9B8FF" font-family="sans-serif" font-size="14" textLength="48">: string</text><rect width="253" height="100.383" x="304.5" y="1438.5" fill="#3D176E" rx="2.5" ry="2.5" style="stroke:#000d19;stroke-width:.5"/><circle cx="319.5" cy="1458.395" r="11" fill="#ADD1B2" style="stroke:#181818;stroke-width:1"/><path d="M322.469 1464.035q-.578.297-1.219.438-.64.156-1.344.156-2.5 0-3.828-1.64-1.312-1.657-1.312-4.782t1.312-4.781q1.328-1.656 3.828-1.656.703 0 1.344.156.656.156 1.219.453v2.719q-.625-.578-1.219-.844-.594-.281-1.219-.281-1.344 0-2.031 1.078-.687 1.062-.687 3.156t.687 3.172q.688 1.062 2.031 1.062.625 0 1.219-.265.594-.281 1.219-.86z"/><text x="338.5" y="1464.28" fill="#D9B8FF" font-family="Helvetica" font-size="17" textLength="211">gcp_firestore_source_info</text><path d="M305.5 1478.289h251" style="stroke:#000d19;stroke-width:.5"/><text x="315.5" y="1500.284" fill="#D9B8FF" font-family="sans-serif" font-size="14" font-weight="bold" textLength="57">backup</text><text x="372.5" y="1500.284" fill="#D9B8FF" font-family="sans-serif" font-size="14" textLength="48">: string</text><text x="315.5" y="1526.581" fill="#D9B8FF" font-family="sans-serif" font-size="14" font-weight="bold" textLength="76">operation</text><text x="391.5" y="1526.581" fill="#D9B8FF" font-family="sans-serif" font-size="14" textLength="48">: string</text><rect width="348" height="152.977" x="537" y="504.5" fill="#3D176E" rx="2.5" ry="2.5" style="stroke:#000d19;stroke-width:.5"/><circle cx="647.75" cy="524.394" r="11" fill="#ADD1B2" style="stroke:#181818;stroke-width:1"/><path d="M650.719 530.035q-.578.297-1.219.438-.64.156-1.344.156-2.5 0-3.828-1.64-1.312-1.657-1.312-4.782t1.312-4.781q1.328-1.657 3.828-1.657.703 0 1.344.157.656.156 1.219.453v2.719q-.625-.578-1.219-.844-.594-.281-1.219-.281-1.343 0-2.031 1.078-.687 1.062-.687 3.156t.687 3.172q.688 1.062 2.031 1.062.625 0 1.219-.265.594-.282 1.219-.86z"/><text x="673.25" y="530.28" fill="#D9B8FF" font-family="Helvetica" font-size="17" textLength="108">gcp_resource</text><path d="M538 544.289h346" style="stroke:#000d19;stroke-width:.5"/><text x="548" y="566.284" fill="#D9B8FF" font-family="sans-serif" font-size="14" font-weight="bold" textLength="151">deprecation_status</text><text x="699" y="566.284" fill="#D9B8FF" font-family="sans-serif" font-size="14" textLength="175">: gcp_deprecation_status</text><text x="548" y="592.581" fill="#D9B8FF" font-family="sans-serif" font-size="14" font-weight="bold" textLength="89">description</text><text x="637" y="592.581" fill="#D9B8FF" font-family="sans-serif" font-size="14" textLength="48">: string</text><text x="548" y="618.878" fill="#D9B8FF" font-family="sans-serif" font-size="14" font-weight="bold" textLength="128">label_fingerprint</text><text x="676" y="618.878" fill="#D9B8FF" font-family="sans-serif" font-size="14" textLength="48">: string</text><text x="548" y="645.175" fill="#D9B8FF" font-family="sans-serif" font-size="14" font-weight="bold" textLength="27">link</text><text x="575" y="645.175" fill="#D9B8FF" font-family="sans-serif" font-size="14" textLength="48">: string</text><rect width="227" height="310.758" x="420.5" y="7" fill="#3D176E" rx="2.5" ry="2.5" style="stroke:#000d19;stroke-width:.5"/><circle cx="489.25" cy="26.895" r="11" fill="#ADD1B2" style="stroke:#181818;stroke-width:1"/><path d="M492.219 32.535q-.578.297-1.219.438-.64.156-1.344.156-2.5 0-3.828-1.64-1.312-1.657-1.312-4.782t1.312-4.781q1.328-1.656 3.828-1.656.703 0 1.344.156.656.156 1.219.453v2.719q-.625-.578-1.219-.844-.594-.281-1.219-.281-1.344 0-2.031 1.078-.687 1.062-.687 3.156t.687 3.172q.688 1.062 2.031 1.062.625 0 1.219-.265.594-.281 1.219-.86z"/><text x="514.75" y="32.78" fill="#D9B8FF" font-family="Helvetica" font-size="17" textLength="71">resource</text><path d="M421.5 46.789h225" style="stroke:#000d19;stroke-width:.5"/><text x="431.5" y="68.784" fill="#D9B8FF" font-family="sans-serif" font-size="14" font-weight="bold" textLength="29">age</text><text x="460.5" y="68.784" fill="#D9B8FF" font-family="sans-serif" font-size="14" textLength="66">: duration</text><text x="431.5" y="95.081" fill="#D9B8FF" font-family="sans-serif" font-size="14" font-weight="bold" textLength="43">atime</text><text x="474.5" y="95.081" fill="#D9B8FF" font-family="sans-serif" font-size="14" textLength="70">: datetime</text><text x="431.5" y="121.378" fill="#D9B8FF" font-family="sans-serif" font-size="14" font-weight="bold" textLength="43">ctime</text><text x="474.5" y="121.378" fill="#D9B8FF" font-family="sans-serif" font-size="14" textLength="70">: datetime</text><text x="431.5" y="147.675" fill="#D9B8FF" font-family="sans-serif" font-size="14" font-weight="bold" textLength="14">id</text><text x="445.5" y="147.675" fill="#D9B8FF" font-family="sans-serif" font-size="14" textLength="48">: string</text><text x="431.5" y="173.972" fill="#D9B8FF" font-family="sans-serif" font-size="14" font-weight="bold" textLength="33">kind</text><text x="464.5" y="173.972" fill="#D9B8FF" font-family="sans-serif" font-size="14" textLength="48">: string</text><text x="431.5" y="200.269" fill="#D9B8FF" font-family="sans-serif" font-size="14" font-weight="bold" textLength="90">last_access</text><text x="521.5" y="200.269" fill="#D9B8FF" font-family="sans-serif" font-size="14" textLength="66">: duration</text><text x="431.5" y="226.565" fill="#D9B8FF" font-family="sans-serif" font-size="14" font-weight="bold" textLength="90">last_update</text><text x="521.5" y="226.565" fill="#D9B8FF" font-family="sans-serif" font-size="14" textLength="66">: duration</text><text x="431.5" y="252.862" fill="#D9B8FF" font-family="sans-serif" font-size="14" font-weight="bold" textLength="48">mtime</text><text x="479.5" y="252.862" fill="#D9B8FF" font-family="sans-serif" font-size="14" textLength="70">: datetime</text><text x="431.5" y="279.159" fill="#D9B8FF" font-family="sans-serif" font-size="14" font-weight="bold" textLength="43">name</text><text x="474.5" y="279.159" fill="#D9B8FF" font-family="sans-serif" font-size="14" textLength="48">: string</text><text x="431.5" y="305.456" fill="#D9B8FF" font-family="sans-serif" font-size="14" font-weight="bold" textLength="34">tags</text><text x="465.5" y="305.456" fill="#D9B8FF" font-family="sans-serif" font-size="14" textLength="171">: dictionary[string, string]</text><g fill="none"><path d="M461.989 334.805c-16.53 39.35-27.229 64.835-43.469 103.495" style="stroke:#ffaf37;stroke-width:2"/><path d="m468.96 318.21-12.503 14.272 11.064 4.647z" style="stroke:#ffaf37;stroke-width:2"/></g><g fill="none"><path d="M381.58 741.503c5.3 37.48 8.67 61.227 14.51 102.517" style="stroke:#ffaf37;stroke-width:2"/><path d="m379.06 723.68-3.42 18.663 11.881-1.68z" style="stroke:#ffaf37;stroke-width:2"/></g><path fill="none" d="M605.94 1339.47c14.81 20.9 25.6 36.115 38.58 54.425" style="stroke:#ffaf37;stroke-width:2"/><path fill="#FFAF37" d="m647.99 1398.79-1.942-9.656-.95 5.577-5.576-.95z" style="stroke:#ffaf37;stroke-width:2"/><path fill="none" d="M255.7 1329c-30.64 41.31-55.945 75.431-77.435 104.401" style="stroke:#ffaf37;stroke-width:2"/><path fill="#FFAF37" d="m174.69 1438.22 8.575-4.845-5.596.83-.83-5.596z" style="stroke:#ffaf37;stroke-width:2"/><path fill="none" d="M431 1339.47v92.86" style="stroke:#ffaf37;stroke-width:2"/><path fill="#FFAF37" d="m431 1438.33 4-9-4 4-4-4z" style="stroke:#ffaf37;stroke-width:2"/><path fill="none" d="M660.548 673.638c-27.48 49.91-56.448 102.552-93.718 170.252m102.4-186.02-13.938 12.874 10.512 5.788zm41.77-.22v735.07" style="stroke:#ffaf37;stroke-width:2"/><path fill="#FFAF37" d="m711 1398.72 4-9-4 4-4-4z" style="stroke:#ffaf37;stroke-width:2"/><g fill="none"><path d="M606.82 334.776c27 63.54 49.97 117.624 72.01 169.504" style="stroke:#ffaf37;stroke-width:2"/><path d="m599.78 318.21 1.517 18.913 11.045-4.693z" style="stroke:#ffaf37;stroke-width:2"/></g></svg>