<?xml version="1.0" encoding="us-ascii" standalone="no"?><svg xmlns="http://www.w3.org/2000/svg" xmlns:xlink="http://www.w3.org/1999/xlink" contentStyleType="text/css" height="451px" preserveAspectRatio="none" style="width:1932px;height:451px;" version="1.1" viewBox="0 0 1932 451" width="1932px" zoomAndPan="magnify"><defs/><g><!--class aws_athena_data_catalog--><g id="elem_aws_athena_data_catalog"><rect codeLine="23" fill="#3D176E" height="39.7891" id="aws_athena_data_catalog" rx="2.5" ry="2.5" style="stroke:#000D19;stroke-width:0.5;" width="258" x="760.5" y="106.79"/><ellipse cx="775.5" cy="126.6845" fill="#ADD1B2" rx="11" ry="11" style="stroke:#181818;stroke-width:1.0;"/><path d="M778.4688,132.3252 Q777.8906,132.622 777.25,132.7627 Q776.6094,132.9189 775.9063,132.9189 Q773.4063,132.9189 772.0781,131.2783 Q770.7656,129.622 770.7656,126.497 Q770.7656,123.372 772.0781,121.7158 Q773.4063,120.0595 775.9063,120.0595 Q776.6094,120.0595 777.25,120.2158 Q777.9063,120.372 778.4688,120.6689 L778.4688,123.3877 Q777.8438,122.8095 777.25,122.5439 Q776.6563,122.2627 776.0313,122.2627 Q774.6875,122.2627 774,123.3408 Q773.3125,124.4033 773.3125,126.497 Q773.3125,128.5908 774,129.6689 Q774.6875,130.7314 776.0313,130.7314 Q776.6563,130.7314 777.25,130.4658 Q777.8438,130.1845 778.4688,129.6064 L778.4688,132.3252 Z " fill="#000000"/><text fill="#D9B8FF" font-family="Helvetica" font-size="17" lengthAdjust="spacing" textLength="216" x="794.5" y="132.5698">aws_athena_data_catalog</text></g><!--class aws_athena_work_group--><g id="elem_aws_athena_work_group"><rect codeLine="26" fill="#3D176E" height="39.7891" id="aws_athena_work_group" rx="2.5" ry="2.5" style="stroke:#000D19;stroke-width:0.5;" width="251" x="7" y="106.79"/><ellipse cx="22" cy="126.6845" fill="#ADD1B2" rx="11" ry="11" style="stroke:#181818;stroke-width:1.0;"/><path d="M24.9688,132.3252 Q24.3906,132.622 23.75,132.7627 Q23.1094,132.9189 22.4063,132.9189 Q19.9063,132.9189 18.5781,131.2783 Q17.2656,129.622 17.2656,126.497 Q17.2656,123.372 18.5781,121.7158 Q19.9063,120.0595 22.4063,120.0595 Q23.1094,120.0595 23.75,120.2158 Q24.4063,120.372 24.9688,120.6689 L24.9688,123.3877 Q24.3438,122.8095 23.75,122.5439 Q23.1563,122.2627 22.5313,122.2627 Q21.1875,122.2627 20.5,123.3408 Q19.8125,124.4033 19.8125,126.497 Q19.8125,128.5908 20.5,129.6689 Q21.1875,130.7314 22.5313,130.7314 Q23.1563,130.7314 23.75,130.4658 Q24.3438,130.1845 24.9688,129.6064 L24.9688,132.3252 Z " fill="#000000"/><text fill="#D9B8FF" font-family="Helvetica" font-size="17" lengthAdjust="spacing" textLength="209" x="41" y="132.5698">aws_athena_work_group</text></g><!--class aws_ec2_security_group--><g id="elem_aws_ec2_security_group"><rect codeLine="29" fill="#3D176E" height="39.7891" id="aws_ec2_security_group" rx="2.5" ry="2.5" style="stroke:#000D19;stroke-width:0.5;" width="245" x="1285" y="7"/><ellipse cx="1300" cy="26.8945" fill="#ADD1B2" rx="11" ry="11" style="stroke:#181818;stroke-width:1.0;"/><path d="M1302.9688,32.5352 Q1302.3906,32.832 1301.75,32.9727 Q1301.1094,33.1289 1300.4063,33.1289 Q1297.9063,33.1289 1296.5781,31.4883 Q1295.2656,29.832 1295.2656,26.707 Q1295.2656,23.582 1296.5781,21.9258 Q1297.9063,20.2695 1300.4063,20.2695 Q1301.1094,20.2695 1301.75,20.4258 Q1302.4063,20.582 1302.9688,20.8789 L1302.9688,23.5977 Q1302.3438,23.0195 1301.75,22.7539 Q1301.1563,22.4727 1300.5313,22.4727 Q1299.1875,22.4727 1298.5,23.5508 Q1297.8125,24.6133 1297.8125,26.707 Q1297.8125,28.8008 1298.5,29.8789 Q1299.1875,30.9414 1300.5313,30.9414 Q1301.1563,30.9414 1301.75,30.6758 Q1302.3438,30.3945 1302.9688,29.8164 L1302.9688,32.5352 Z " fill="#000000"/><text fill="#D9B8FF" font-family="Helvetica" font-size="17" lengthAdjust="spacing" textLength="203" x="1319" y="32.7798">aws_ec2_security_group</text></g><!--class aws_ec2_subnet--><g id="elem_aws_ec2_subnet"><rect codeLine="32" fill="#3D176E" height="39.7891" id="aws_ec2_subnet" rx="2.5" ry="2.5" style="stroke:#000D19;stroke-width:0.5;" width="179" x="1614" y="7"/><ellipse cx="1629" cy="26.8945" fill="#ADD1B2" rx="11" ry="11" style="stroke:#181818;stroke-width:1.0;"/><path d="M1631.9688,32.5352 Q1631.3906,32.832 1630.75,32.9727 Q1630.1094,33.1289 1629.4063,33.1289 Q1626.9063,33.1289 1625.5781,31.4883 Q1624.2656,29.832 1624.2656,26.707 Q1624.2656,23.582 1625.5781,21.9258 Q1626.9063,20.2695 1629.4063,20.2695 Q1630.1094,20.2695 1630.75,20.4258 Q1631.4063,20.582 1631.9688,20.8789 L1631.9688,23.5977 Q1631.3438,23.0195 1630.75,22.7539 Q1630.1563,22.4727 1629.5313,22.4727 Q1628.1875,22.4727 1627.5,23.5508 Q1626.8125,24.6133 1626.8125,26.707 Q1626.8125,28.8008 1627.5,29.8789 Q1628.1875,30.9414 1629.5313,30.9414 Q1630.1563,30.9414 1630.75,30.6758 Q1631.3438,30.3945 1631.9688,29.8164 L1631.9688,32.5352 Z " fill="#000000"/><text fill="#D9B8FF" font-family="Helvetica" font-size="17" lengthAdjust="spacing" textLength="137" x="1648" y="32.7798">aws_ec2_subnet</text></g><!--class aws_iam_role--><g id="elem_aws_iam_role"><rect codeLine="35" fill="#3D176E" height="39.7891" id="aws_iam_role" rx="2.5" ry="2.5" style="stroke:#000D19;stroke-width:0.5;" width="157" x="1017" y="7"/><ellipse cx="1032" cy="26.8945" fill="#ADD1B2" rx="11" ry="11" style="stroke:#181818;stroke-width:1.0;"/><path d="M1034.9688,32.5352 Q1034.3906,32.832 1033.75,32.9727 Q1033.1094,33.1289 1032.4063,33.1289 Q1029.9063,33.1289 1028.5781,31.4883 Q1027.2656,29.832 1027.2656,26.707 Q1027.2656,23.582 1028.5781,21.9258 Q1029.9063,20.2695 1032.4063,20.2695 Q1033.1094,20.2695 1033.75,20.4258 Q1034.4063,20.582 1034.9688,20.8789 L1034.9688,23.5977 Q1034.3438,23.0195 1033.75,22.7539 Q1033.1563,22.4727 1032.5313,22.4727 Q1031.1875,22.4727 1030.5,23.5508 Q1029.8125,24.6133 1029.8125,26.707 Q1029.8125,28.8008 1030.5,29.8789 Q1031.1875,30.9414 1032.5313,30.9414 Q1033.1563,30.9414 1033.75,30.6758 Q1034.3438,30.3945 1034.9688,29.8164 L1034.9688,32.5352 Z " fill="#000000"/><text fill="#D9B8FF" font-family="Helvetica" font-size="17" lengthAdjust="spacing" textLength="115" x="1051" y="32.7798">aws_iam_role</text></g><!--class aws_kms_key--><g id="elem_aws_kms_key"><rect codeLine="38" fill="#3D176E" height="39.7891" id="aws_kms_key" rx="2.5" ry="2.5" style="stroke:#000D19;stroke-width:0.5;" width="158" x="1001.5" y="406.16"/><ellipse cx="1016.5" cy="426.0545" fill="#ADD1B2" rx="11" ry="11" style="stroke:#181818;stroke-width:1.0;"/><path d="M1019.4688,431.6952 Q1018.8906,431.992 1018.25,432.1327 Q1017.6094,432.2889 1016.9063,432.2889 Q1014.4063,432.2889 1013.0781,430.6483 Q1011.7656,428.992 1011.7656,425.867 Q1011.7656,422.742 1013.0781,421.0858 Q1014.4063,419.4295 1016.9063,419.4295 Q1017.6094,419.4295 1018.25,419.5858 Q1018.9063,419.742 1019.4688,420.0389 L1019.4688,422.7577 Q1018.8438,422.1795 1018.25,421.9139 Q1017.6563,421.6327 1017.0313,421.6327 Q1015.6875,421.6327 1015,422.7108 Q1014.3125,423.7733 1014.3125,425.867 Q1014.3125,427.9608 1015,429.0389 Q1015.6875,430.1014 1017.0313,430.1014 Q1017.6563,430.1014 1018.25,429.8358 Q1018.8438,429.5545 1019.4688,428.9764 L1019.4688,431.6952 Z " fill="#000000"/><text fill="#D9B8FF" font-family="Helvetica" font-size="17" lengthAdjust="spacing" textLength="116" x="1035.5" y="431.9398">aws_kms_key</text></g><!--class aws_redshift_cluster--><g id="elem_aws_redshift_cluster"><rect codeLine="41" fill="#3D176E" height="39.7891" id="aws_redshift_cluster" rx="2.5" ry="2.5" style="stroke:#000D19;stroke-width:0.5;" width="213" x="1195" y="106.79"/><ellipse cx="1210" cy="126.6845" fill="#ADD1B2" rx="11" ry="11" style="stroke:#181818;stroke-width:1.0;"/><path d="M1212.9688,132.3252 Q1212.3906,132.622 1211.75,132.7627 Q1211.1094,132.9189 1210.4063,132.9189 Q1207.9063,132.9189 1206.5781,131.2783 Q1205.2656,129.622 1205.2656,126.497 Q1205.2656,123.372 1206.5781,121.7158 Q1207.9063,120.0595 1210.4063,120.0595 Q1211.1094,120.0595 1211.75,120.2158 Q1212.4063,120.372 1212.9688,120.6689 L1212.9688,123.3877 Q1212.3438,122.8095 1211.75,122.5439 Q1211.1563,122.2627 1210.5313,122.2627 Q1209.1875,122.2627 1208.5,123.3408 Q1207.8125,124.4033 1207.8125,126.497 Q1207.8125,128.5908 1208.5,129.6689 Q1209.1875,130.7314 1210.5313,130.7314 Q1211.1563,130.7314 1211.75,130.4658 Q1212.3438,130.1845 1212.9688,129.6064 L1212.9688,132.3252 Z " fill="#000000"/><text fill="#D9B8FF" font-family="Helvetica" font-size="17" lengthAdjust="spacing" textLength="171" x="1229" y="132.5698">aws_redshift_cluster</text></g><!--class aws_s3_bucket--><g id="elem_aws_s3_bucket"><rect codeLine="44" fill="#3D176E" height="39.7891" id="aws_s3_bucket" rx="2.5" ry="2.5" style="stroke:#000D19;stroke-width:0.5;" width="168" x="764.5" y="406.16"/><ellipse cx="779.5" cy="426.0545" fill="#ADD1B2" rx="11" ry="11" style="stroke:#181818;stroke-width:1.0;"/><path d="M782.4688,431.6952 Q781.8906,431.992 781.25,432.1327 Q780.6094,432.2889 779.9063,432.2889 Q777.4063,432.2889 776.0781,430.6483 Q774.7656,428.992 774.7656,425.867 Q774.7656,422.742 776.0781,421.0858 Q777.4063,419.4295 779.9063,419.4295 Q780.6094,419.4295 781.25,419.5858 Q781.9063,419.742 782.4688,420.0389 L782.4688,422.7577 Q781.8438,422.1795 781.25,421.9139 Q780.6563,421.6327 780.0313,421.6327 Q778.6875,421.6327 778,422.7108 Q777.3125,423.7733 777.3125,425.867 Q777.3125,427.9608 778,429.0389 Q778.6875,430.1014 780.0313,430.1014 Q780.6563,430.1014 781.25,429.8358 Q781.8438,429.5545 782.4688,428.9764 L782.4688,431.6952 Z " fill="#000000"/><text fill="#D9B8FF" font-family="Helvetica" font-size="17" lengthAdjust="spacing" textLength="126" x="798.5" y="431.9398">aws_s3_bucket</text></g><!--class aws_sagemaker_auto_ml_job--><g id="elem_aws_sagemaker_auto_ml_job"><rect codeLine="47" fill="#3D176E" height="39.7891" id="aws_sagemaker_auto_ml_job" rx="2.5" ry="2.5" style="stroke:#000D19;stroke-width:0.5;" width="288" x="1584.5" y="106.79"/><ellipse cx="1599.5" cy="126.6845" fill="#ADD1B2" rx="11" ry="11" style="stroke:#181818;stroke-width:1.0;"/><path d="M1602.4688,132.3252 Q1601.8906,132.622 1601.25,132.7627 Q1600.6094,132.9189 1599.9063,132.9189 Q1597.4063,132.9189 1596.0781,131.2783 Q1594.7656,129.622 1594.7656,126.497 Q1594.7656,123.372 1596.0781,121.7158 Q1597.4063,120.0595 1599.9063,120.0595 Q1600.6094,120.0595 1601.25,120.2158 Q1601.9063,120.372 1602.4688,120.6689 L1602.4688,123.3877 Q1601.8438,122.8095 1601.25,122.5439 Q1600.6563,122.2627 1600.0313,122.2627 Q1598.6875,122.2627 1598,123.3408 Q1597.3125,124.4033 1597.3125,126.497 Q1597.3125,128.5908 1598,129.6689 Q1598.6875,130.7314 1600.0313,130.7314 Q1600.6563,130.7314 1601.25,130.4658 Q1601.8438,130.1845 1602.4688,129.6064 L1602.4688,132.3252 Z " fill="#000000"/><text fill="#D9B8FF" font-family="Helvetica" font-size="17" lengthAdjust="spacing" textLength="246" x="1618.5" y="132.5698">aws_sagemaker_auto_ml_job</text></g><!--class aws_sagemaker_experiment--><g id="elem_aws_sagemaker_experiment"><rect codeLine="50" fill="#3D176E" height="39.7891" id="aws_sagemaker_experiment" rx="2.5" ry="2.5" style="stroke:#000D19;stroke-width:0.5;" width="282" x="332.5" y="7"/><ellipse cx="347.5" cy="26.8945" fill="#ADD1B2" rx="11" ry="11" style="stroke:#181818;stroke-width:1.0;"/><path d="M350.4688,32.5352 Q349.8906,32.832 349.25,32.9727 Q348.6094,33.1289 347.9063,33.1289 Q345.4063,33.1289 344.0781,31.4883 Q342.7656,29.832 342.7656,26.707 Q342.7656,23.582 344.0781,21.9258 Q345.4063,20.2695 347.9063,20.2695 Q348.6094,20.2695 349.25,20.4258 Q349.9063,20.582 350.4688,20.8789 L350.4688,23.5977 Q349.8438,23.0195 349.25,22.7539 Q348.6563,22.4727 348.0313,22.4727 Q346.6875,22.4727 346,23.5508 Q345.3125,24.6133 345.3125,26.707 Q345.3125,28.8008 346,29.8789 Q346.6875,30.9414 348.0313,30.9414 Q348.6563,30.9414 349.25,30.6758 Q349.8438,30.3945 350.4688,29.8164 L350.4688,32.5352 Z " fill="#000000"/><text fill="#D9B8FF" font-family="Helvetica" font-size="17" lengthAdjust="spacing" textLength="240" x="366.5" y="32.7798">aws_sagemaker_experiment</text></g><!--class aws_sagemaker_processing_job--><g id="elem_aws_sagemaker_processing_job"><rect codeLine="53" fill="#3D176E" height="39.7891" id="aws_sagemaker_processing_job" rx="2.5" ry="2.5" style="stroke:#000D19;stroke-width:0.5;" width="306" x="712.5" y="206.58"/><ellipse cx="727.5" cy="226.4745" fill="#ADD1B2" rx="11" ry="11" style="stroke:#181818;stroke-width:1.0;"/><path d="M730.4688,232.1152 Q729.8906,232.412 729.25,232.5527 Q728.6094,232.7089 727.9063,232.7089 Q725.4063,232.7089 724.0781,231.0683 Q722.7656,229.412 722.7656,226.287 Q722.7656,223.162 724.0781,221.5058 Q725.4063,219.8495 727.9063,219.8495 Q728.6094,219.8495 729.25,220.0058 Q729.9063,220.162 730.4688,220.4589 L730.4688,223.1777 Q729.8438,222.5995 729.25,222.3339 Q728.6563,222.0527 728.0313,222.0527 Q726.6875,222.0527 726,223.1308 Q725.3125,224.1933 725.3125,226.287 Q725.3125,228.3808 726,229.4589 Q726.6875,230.5214 728.0313,230.5214 Q728.6563,230.5214 729.25,230.2558 Q729.8438,229.9745 730.4688,229.3964 L730.4688,232.1152 Z " fill="#000000"/><text fill="#D9B8FF" font-family="Helvetica" font-size="17" lengthAdjust="spacing" textLength="264" x="746.5" y="232.3598">aws_sagemaker_processing_job</text></g><!--class aws_sagemaker_training_job--><g id="elem_aws_sagemaker_training_job"><rect codeLine="56" fill="#3D176E" height="39.7891" id="aws_sagemaker_training_job" rx="2.5" ry="2.5" style="stroke:#000D19;stroke-width:0.5;" width="285" x="938" y="306.37"/><ellipse cx="953" cy="326.2645" fill="#ADD1B2" rx="11" ry="11" style="stroke:#181818;stroke-width:1.0;"/><path d="M955.9688,331.9052 Q955.3906,332.202 954.75,332.3427 Q954.1094,332.4989 953.4063,332.4989 Q950.9063,332.4989 949.5781,330.8583 Q948.2656,329.202 948.2656,326.077 Q948.2656,322.952 949.5781,321.2958 Q950.9063,319.6395 953.4063,319.6395 Q954.1094,319.6395 954.75,319.7958 Q955.4063,319.952 955.9688,320.2489 L955.9688,322.9677 Q955.3438,322.3895 954.75,322.1239 Q954.1563,321.8427 953.5313,321.8427 Q952.1875,321.8427 951.5,322.9208 Q950.8125,323.9833 950.8125,326.077 Q950.8125,328.1708 951.5,329.2489 Q952.1875,330.3114 953.5313,330.3114 Q954.1563,330.3114 954.75,330.0458 Q955.3438,329.7645 955.9688,329.1864 L955.9688,331.9052 Z " fill="#000000"/><text fill="#D9B8FF" font-family="Helvetica" font-size="17" lengthAdjust="spacing" textLength="243" x="972" y="332.1498">aws_sagemaker_training_job</text></g><!--class aws_sagemaker_trial--><g id="elem_aws_sagemaker_trial"><rect codeLine="59" fill="#3D176E" height="39.7891" id="aws_sagemaker_trial" rx="2.5" ry="2.5" style="stroke:#000D19;stroke-width:0.5;" width="219" x="364" y="106.79"/><ellipse cx="379" cy="126.6845" fill="#ADD1B2" rx="11" ry="11" style="stroke:#181818;stroke-width:1.0;"/><path d="M381.9688,132.3252 Q381.3906,132.622 380.75,132.7627 Q380.1094,132.9189 379.4063,132.9189 Q376.9063,132.9189 375.5781,131.2783 Q374.2656,129.622 374.2656,126.497 Q374.2656,123.372 375.5781,121.7158 Q376.9063,120.0595 379.4063,120.0595 Q380.1094,120.0595 380.75,120.2158 Q381.4063,120.372 381.9688,120.6689 L381.9688,123.3877 Q381.3438,122.8095 380.75,122.5439 Q380.1563,122.2627 379.5313,122.2627 Q378.1875,122.2627 377.5,123.3408 Q376.8125,124.4033 376.8125,126.497 Q376.8125,128.5908 377.5,129.6689 Q378.1875,130.7314 379.5313,130.7314 Q380.1563,130.7314 380.75,130.4658 Q381.3438,130.1845 381.9688,129.6064 L381.9688,132.3252 Z " fill="#000000"/><text fill="#D9B8FF" font-family="Helvetica" font-size="17" lengthAdjust="spacing" textLength="177" x="398" y="132.5698">aws_sagemaker_trial</text></g><!--link aws_athena_data_catalog to aws_sagemaker_processing_job--><g id="link_aws_athena_data_catalog_aws_sagemaker_processing_job"><path codeLine="62" d="M884.76,147.01 C880.55,164.15 875.872,183.2434 871.662,200.3734 " fill="none" id="aws_athena_data_catalog-to-aws_sagemaker_processing_job" style="stroke:#1A83AF;stroke-width:2.0;"/><polygon fill="#1A83AF" points="870.23,206.2,876.2624,198.4147,871.4233,201.3445,868.4936,196.5054,870.23,206.2" style="stroke:#1A83AF;stroke-width:2.0;"/></g><!--link aws_athena_work_group to aws_kms_key--><g id="link_aws_athena_work_group_aws_kms_key"><path codeLine="63" d="M176.2,146.95 C233.62,171.84 337.91,215.61 429.5,246.37 C632.68,314.61 871.9476,375.1316 995.3976,404.9416 " fill="none" id="aws_athena_work_group-to-aws_kms_key" style="stroke:#1A83AF;stroke-width:2.0;"/><polygon fill="#1A83AF" points="1001.23,406.35,993.4204,400.3492,996.3697,405.1764,991.5425,408.1257,1001.23,406.35" style="stroke:#1A83AF;stroke-width:2.0;"/></g><!--link aws_athena_work_group to aws_s3_bucket--><g id="link_aws_athena_work_group_aws_s3_bucket"><path codeLine="64" d="M131.6,146.81 C130.72,189.91 135.23,294.86 195.5,346.16 C279.36,417.54 601.53,426.1434 758.27,426.0534 " fill="none" id="aws_athena_work_group-to-aws_s3_bucket" style="stroke:#1A83AF;stroke-width:2.0;"/><polygon fill="#1A83AF" points="764.27,426.05,755.27,422.05,759.27,426.05,755.27,430.05,764.27,426.05" style="stroke:#1A83AF;stroke-width:2.0;"/></g><!--link aws_athena_work_group to aws_sagemaker_processing_job--><g id="link_aws_athena_work_group_aws_sagemaker_processing_job"><path codeLine="65" d="M258.09,144.44 C386.35,161.55 579.3227,187.2964 714.2827,205.3064 " fill="none" id="aws_athena_work_group-to-aws_sagemaker_processing_job" style="stroke:#1A83AF;stroke-width:2.0;"/><polygon fill="#1A83AF" points="720.23,206.1,711.8382,200.9447,715.2739,205.4386,710.78,208.8744,720.23,206.1" style="stroke:#1A83AF;stroke-width:2.0;"/></g><!--link aws_ec2_security_group to aws_redshift_cluster--><g id="link_aws_ec2_security_group_aws_redshift_cluster"><path codeLine="66" d="M1386.56,47.22 C1367.97,64.36 1345.3802,85.2118 1326.8102,102.3418 " fill="none" id="aws_ec2_security_group-to-aws_redshift_cluster" style="stroke:#1A83AF;stroke-width:2.0;"/><polygon fill="#1A83AF" points="1322.4,106.41,1331.7274,103.2478,1326.0752,103.0198,1326.3031,97.3676,1322.4,106.41" style="stroke:#1A83AF;stroke-width:2.0;"/></g><!--link aws_ec2_security_group to aws_sagemaker_auto_ml_job--><g id="link_aws_ec2_security_group_aws_sagemaker_auto_ml_job"><path codeLine="67" d="M1470.92,47.22 C1527.1,64.34 1602.9701,87.4524 1659.2001,104.5724 " fill="none" id="aws_ec2_security_group-to-aws_sagemaker_auto_ml_job" style="stroke:#1A83AF;stroke-width:2.0;"/><polygon fill="#1A83AF" points="1664.94,106.32,1657.4953,99.8721,1660.1568,104.8637,1655.1652,107.5252,1664.94,106.32" style="stroke:#1A83AF;stroke-width:2.0;"/></g><!--link aws_ec2_security_group to aws_sagemaker_processing_job--><g id="link_aws_ec2_security_group_aws_sagemaker_processing_job"><path codeLine="68" d="M1349.66,47.15 C1303.03,62.81 1235.86,85.69 1177.5,106.79 C1084.17,140.54 981.6802,180.0706 920.3502,203.9806 " fill="none" id="aws_ec2_security_group-to-aws_sagemaker_processing_job" style="stroke:#1A83AF;stroke-width:2.0;"/><polygon fill="#1A83AF" points="914.76,206.16,924.5982,206.6177,919.4185,204.3438,921.6924,199.1641,914.76,206.16" style="stroke:#1A83AF;stroke-width:2.0;"/></g><!--link aws_ec2_security_group to aws_sagemaker_training_job--><g id="link_aws_ec2_security_group_aws_sagemaker_training_job"><path codeLine="69" d="M1417.66,47.09 C1429.26,71.91 1444.34,115.6 1425.5,146.58 C1370.82,236.48 1260.4534,281.5725 1178.0534,304.3325 " fill="none" id="aws_ec2_security_group-to-aws_sagemaker_training_job" style="stroke:#1A83AF;stroke-width:2.0;"/><polygon fill="#1A83AF" points="1172.27,305.93,1182.0101,307.3894,1177.0895,304.5988,1179.8802,299.6782,1172.27,305.93" style="stroke:#1A83AF;stroke-width:2.0;"/></g><!--link aws_ec2_subnet to aws_redshift_cluster--><g id="link_aws_ec2_subnet_aws_redshift_cluster"><path codeLine="70" d="M1624.08,47.22 C1553.72,64.34 1457.3502,87.7826 1386.9302,104.9026 " fill="none" id="aws_ec2_subnet-to-aws_redshift_cluster" style="stroke:#1A83AF;stroke-width:2.0;"/><polygon fill="#1A83AF" points="1381.1,106.32,1390.7902,108.0807,1385.9585,105.1388,1388.9003,100.3071,1381.1,106.32" style="stroke:#1A83AF;stroke-width:2.0;"/></g><!--link aws_ec2_subnet to aws_sagemaker_auto_ml_job--><g id="link_aws_ec2_subnet_aws_sagemaker_auto_ml_job"><path codeLine="71" d="M1708.44,47.22 C1712.82,64.36 1717.7037,83.467 1722.0837,100.597 " fill="none" id="aws_ec2_subnet-to-aws_sagemaker_auto_ml_job" style="stroke:#1A83AF;stroke-width:2.0;"/><polygon fill="#1A83AF" points="1723.57,106.41,1725.2158,96.6996,1722.3314,101.5658,1717.4652,98.6814,1723.57,106.41" style="stroke:#1A83AF;stroke-width:2.0;"/></g><!--link aws_ec2_subnet to aws_sagemaker_processing_job--><g id="link_aws_ec2_subnet_aws_sagemaker_processing_job"><path codeLine="72" d="M1666.86,47.26 C1614.74,73.93 1515.48,121.51 1425.5,146.58 C1290.84,184.1 1138.7245,203.7372 1024.9245,214.2672 " fill="none" id="aws_ec2_subnet-to-aws_sagemaker_processing_job" style="stroke:#1A83AF;stroke-width:2.0;"/><polygon fill="#1A83AF" points="1018.95,214.82,1028.2803,217.9738,1023.9287,214.3593,1027.5432,210.0078,1018.95,214.82" style="stroke:#1A83AF;stroke-width:2.0;"/></g><!--link aws_ec2_subnet to aws_sagemaker_training_job--><g id="link_aws_ec2_subnet_aws_sagemaker_training_job"><path codeLine="73" d="M1787.31,47.24 C1852.18,66.3 1925.53,99.44 1890.5,146.58 C1812.13,252.06 1439.829,297.459 1229.069,315.119 " fill="none" id="aws_ec2_subnet-to-aws_sagemaker_training_job" style="stroke:#1A83AF;stroke-width:2.0;"/><polygon fill="#1A83AF" points="1223.09,315.62,1232.3926,318.8545,1228.0725,315.2025,1231.7246,310.8825,1223.09,315.62" style="stroke:#1A83AF;stroke-width:2.0;"/></g><!--link aws_iam_role to aws_redshift_cluster--><g id="link_aws_iam_role_aws_redshift_cluster"><path codeLine="74" d="M1136.2,47.22 C1172.31,64.36 1219.3796,86.7072 1255.4696,103.8372 " fill="none" id="aws_iam_role-to-aws_redshift_cluster" style="stroke:#1A83AF;stroke-width:2.0;"/><polygon fill="#1A83AF" points="1260.89,106.41,1254.4746,98.9372,1256.373,104.266,1251.0442,106.1644,1260.89,106.41" style="stroke:#1A83AF;stroke-width:2.0;"/></g><!--link aws_iam_role to aws_sagemaker_auto_ml_job--><g id="link_aws_iam_role_aws_sagemaker_auto_ml_job"><path codeLine="75" d="M1174.39,40.09 C1281.85,56.69 1469.5104,85.6736 1597.0404,105.3836 " fill="none" id="aws_iam_role-to-aws_sagemaker_auto_ml_job" style="stroke:#1A83AF;stroke-width:2.0;"/><polygon fill="#1A83AF" points="1602.97,106.3,1594.6866,100.9723,1598.0287,105.5363,1593.4646,108.8784,1602.97,106.3" style="stroke:#1A83AF;stroke-width:2.0;"/></g><!--link aws_iam_role to aws_sagemaker_processing_job--><g id="link_aws_iam_role_aws_sagemaker_processing_job"><path codeLine="76" d="M1016.74,34.31 C923.63,43.71 777.07,64.87 743.5,106.79 C712.75,145.2 768.2055,181.244 814.5155,203.574 " fill="none" id="aws_iam_role-to-aws_sagemaker_processing_job" style="stroke:#1A83AF;stroke-width:2.0;"/><polygon fill="#1A83AF" points="819.92,206.18,813.5505,198.668,815.4162,204.0083,810.0759,205.874,819.92,206.18" style="stroke:#1A83AF;stroke-width:2.0;"/></g><!--link aws_iam_role to aws_sagemaker_training_job--><g id="link_aws_iam_role_aws_sagemaker_training_job"><path codeLine="77" d="M1094.54,46.95 C1091.84,100.54 1084.4926,246.1376 1081.7726,299.9976 " fill="none" id="aws_iam_role-to-aws_sagemaker_training_job" style="stroke:#1A83AF;stroke-width:2.0;"/><polygon fill="#1A83AF" points="1081.47,305.99,1085.9188,297.2032,1081.7222,300.9964,1077.929,296.7997,1081.47,305.99" style="stroke:#1A83AF;stroke-width:2.0;"/></g><!--link aws_redshift_cluster to aws_kms_key--><g id="link_aws_redshift_cluster_aws_kms_key"><path codeLine="78" d="M1301.19,147.01 C1299.55,188.28 1290.28,286.15 1240.5,346.16 C1217.07,374.41 1186.6515,391.2599 1154.7115,403.5199 " fill="none" id="aws_redshift_cluster-to-aws_kms_key" style="stroke:#1A83AF;stroke-width:2.0;"/><polygon fill="#1A83AF" points="1149.11,405.67,1158.9457,406.1792,1153.7779,403.8782,1156.0789,398.7105,1149.11,405.67" style="stroke:#1A83AF;stroke-width:2.0;"/></g><!--link aws_redshift_cluster to aws_sagemaker_processing_job--><g id="link_aws_redshift_cluster_aws_sagemaker_processing_job"><path codeLine="79" d="M1215.1,147.07 C1138.76,164.19 1033.8746,187.717 957.5846,204.827 " fill="none" id="aws_redshift_cluster-to-aws_sagemaker_processing_job" style="stroke:#1A83AF;stroke-width:2.0;"/><polygon fill="#1A83AF" points="951.73,206.14,961.3872,208.0735,956.6088,205.0458,959.6365,200.2674,951.73,206.14" style="stroke:#1A83AF;stroke-width:2.0;"/></g><!--link aws_sagemaker_auto_ml_job to aws_kms_key--><g id="link_aws_sagemaker_auto_ml_job_aws_kms_key"><path codeLine="80" d="M1705.12,147.04 C1673.61,172.41 1615.02,217.14 1559.5,246.37 C1419.9,319.87 1248.9796,375.7347 1154.0196,404.0647 " fill="none" id="aws_sagemaker_auto_ml_job-to-aws_kms_key" style="stroke:#1A83AF;stroke-width:2.0;"/><polygon fill="#1A83AF" points="1148.27,405.78,1158.0379,407.0401,1153.0613,404.3506,1155.7508,399.374,1148.27,405.78" style="stroke:#1A83AF;stroke-width:2.0;"/></g><!--link aws_sagemaker_auto_ml_job to aws_s3_bucket--><g id="link_aws_sagemaker_auto_ml_job_aws_s3_bucket"><path codeLine="81" d="M1705.89,147.05 C1674.76,172.85 1616.11,218.49 1559.5,246.37 C1426.24,312.02 1384.4,309.28 1240.5,346.16 C1135.43,373.09 1018.4974,395.49 938.7174,409.67 " fill="none" id="aws_sagemaker_auto_ml_job-to-aws_s3_bucket" style="stroke:#1A83AF;stroke-width:2.0;"/><polygon fill="#1A83AF" points="932.81,410.72,942.3711,413.0833,937.7328,409.845,940.9711,405.2068,932.81,410.72" style="stroke:#1A83AF;stroke-width:2.0;"/></g><!--link aws_sagemaker_auto_ml_job to aws_sagemaker_processing_job--><g id="link_aws_sagemaker_auto_ml_job_aws_sagemaker_processing_job"><path codeLine="82" d="M1584.05,144.06 C1427.51,161.79 1184.6719,189.3145 1024.7519,207.4345 " fill="none" id="aws_sagemaker_auto_ml_job-to-aws_sagemaker_processing_job" style="stroke:#1A83AF;stroke-width:2.0;"/><polygon fill="#1A83AF" points="1018.79,208.11,1028.1831,211.0713,1023.7582,207.5471,1027.2824,203.1222,1018.79,208.11" style="stroke:#1A83AF;stroke-width:2.0;"/></g><!--link aws_sagemaker_auto_ml_job to aws_sagemaker_training_job--><g id="link_aws_sagemaker_auto_ml_job_aws_sagemaker_training_job"><path codeLine="83" d="M1696.4,146.87 C1651.13,173.1 1565.24,219.93 1486.5,246.37 C1401.24,275 1308.1567,293.5649 1229.2467,306.0149 " fill="none" id="aws_sagemaker_auto_ml_job-to-aws_sagemaker_training_job" style="stroke:#1A83AF;stroke-width:2.0;"/><polygon fill="#1A83AF" points="1223.32,306.95,1232.8334,309.4985,1228.2589,306.1708,1231.5866,301.5963,1223.32,306.95" style="stroke:#1A83AF;stroke-width:2.0;"/></g><!--link aws_sagemaker_experiment to aws_sagemaker_processing_job--><g id="link_aws_sagemaker_experiment_aws_sagemaker_processing_job"><path codeLine="84" d="M511.8,47.2 C586.74,84.98 746.622,165.5596 821.682,203.3896 " fill="none" id="aws_sagemaker_experiment-to-aws_sagemaker_processing_job" style="stroke:#1A83AF;stroke-width:2.0;"/><polygon fill="#1A83AF" points="827.04,206.09,820.8033,198.4674,822.575,203.8397,817.2028,205.6114,827.04,206.09" style="stroke:#1A83AF;stroke-width:2.0;"/></g><!--link aws_sagemaker_experiment to aws_sagemaker_training_job--><g id="link_aws_sagemaker_experiment_aws_sagemaker_training_job"><path codeLine="85" d="M424.87,47.21 C378.24,68.69 318.74,105.79 346.5,146.58 C412.36,243.35 737.2635,291.4171 931.5635,312.0271 " fill="none" id="aws_sagemaker_experiment-to-aws_sagemaker_training_job" style="stroke:#1A83AF;stroke-width:2.0;"/><polygon fill="#1A83AF" points="937.53,312.66,929.0021,307.733,932.5579,312.1326,928.1583,315.6884,937.53,312.66" style="stroke:#1A83AF;stroke-width:2.0;"/></g><!--link aws_sagemaker_experiment to aws_sagemaker_trial--><g id="link_aws_sagemaker_experiment_aws_sagemaker_trial"><path codeLine="86" d="M473.5,47.22 C473.5,64.36 473.5,83.28 473.5,100.41 " fill="none" id="aws_sagemaker_experiment-to-aws_sagemaker_trial" style="stroke:#1A83AF;stroke-width:2.0;"/><polygon fill="#1A83AF" points="473.5,106.41,477.5,97.41,473.5,101.41,469.5,97.41,473.5,106.41" style="stroke:#1A83AF;stroke-width:2.0;"/></g><!--link aws_sagemaker_processing_job to aws_kms_key--><g id="link_aws_sagemaker_processing_job_aws_kms_key"><path codeLine="87" d="M870.08,246.62 C877.05,272.19 892.58,317.56 920.5,346.16 C947.33,373.64 980.1109,390.8278 1012.5609,403.4978 " fill="none" id="aws_sagemaker_processing_job-to-aws_kms_key" style="stroke:#1A83AF;stroke-width:2.0;"/><polygon fill="#1A83AF" points="1018.15,405.68,1011.2212,398.6806,1013.4924,403.8615,1008.3116,406.1327,1018.15,405.68" style="stroke:#1A83AF;stroke-width:2.0;"/></g><!--link aws_sagemaker_processing_job to aws_s3_bucket--><g id="link_aws_sagemaker_processing_job_aws_s3_bucket"><path codeLine="88" d="M863.84,246.78 C860.59,284.55 853.9336,361.862 850.6836,399.692 " fill="none" id="aws_sagemaker_processing_job-to-aws_s3_bucket" style="stroke:#1A83AF;stroke-width:2.0;"/><polygon fill="#1A83AF" points="850.17,405.67,854.9257,397.0454,850.598,400.6884,846.955,396.3606,850.17,405.67" style="stroke:#1A83AF;stroke-width:2.0;"/></g><!--link aws_sagemaker_processing_job to aws_sagemaker_training_job--><g id="link_aws_sagemaker_processing_job_aws_sagemaker_training_job"><path codeLine="89" d="M907.98,246.8 C945.67,263.94 994.989,286.3646 1032.649,303.5046 " fill="none" id="aws_sagemaker_processing_job-to-aws_sagemaker_training_job" style="stroke:#1A83AF;stroke-width:2.0;"/><polygon fill="#1A83AF" points="1038.11,305.99,1031.5755,298.6212,1033.5592,303.9188,1028.2615,305.9025,1038.11,305.99" style="stroke:#1A83AF;stroke-width:2.0;"/></g><!--link aws_sagemaker_training_job to aws_kms_key--><g id="link_aws_sagemaker_training_job_aws_kms_key"><path codeLine="90" d="M1080.5,346.59 C1080.5,363.73 1080.5,382.64 1080.5,399.78 " fill="none" id="aws_sagemaker_training_job-to-aws_kms_key" style="stroke:#1A83AF;stroke-width:2.0;"/><polygon fill="#1A83AF" points="1080.5,405.78,1084.5,396.78,1080.5,400.78,1076.5,396.78,1080.5,405.78" style="stroke:#1A83AF;stroke-width:2.0;"/></g><!--link aws_sagemaker_training_job to aws_s3_bucket--><g id="link_aws_sagemaker_training_job_aws_s3_bucket"><path codeLine="91" d="M1034.66,346.59 C993.99,363.73 940.4084,386.3084 899.7684,403.4484 " fill="none" id="aws_sagemaker_training_job-to-aws_s3_bucket" style="stroke:#1A83AF;stroke-width:2.0;"/><polygon fill="#1A83AF" points="894.24,405.78,904.0871,405.9682,898.847,403.837,900.9782,398.5969,894.24,405.78" style="stroke:#1A83AF;stroke-width:2.0;"/></g><!--link aws_sagemaker_trial to aws_sagemaker_processing_job--><g id="link_aws_sagemaker_trial_aws_sagemaker_processing_job"><path codeLine="92" d="M550.95,147.01 C619.56,164.12 713.3984,187.5276 782.0584,204.6576 " fill="none" id="aws_sagemaker_trial-to-aws_sagemaker_processing_job" style="stroke:#1A83AF;stroke-width:2.0;"/><polygon fill="#1A83AF" points="787.88,206.11,780.116,200.0503,783.0287,204.8996,778.1794,207.8124,787.88,206.11" style="stroke:#1A83AF;stroke-width:2.0;"/></g><!--link aws_sagemaker_trial to aws_sagemaker_training_job--><g id="link_aws_sagemaker_trial_aws_sagemaker_training_job"><path codeLine="93" d="M502.59,146.9 C543.68,173.18 621.81,220.07 694.5,246.37 C772.65,274.65 857.6423,292.8695 931.6023,305.2495 " fill="none" id="aws_sagemaker_trial-to-aws_sagemaker_training_job" style="stroke:#1A83AF;stroke-width:2.0;"/><polygon fill="#1A83AF" points="937.52,306.24,929.3039,300.8091,932.5886,305.4145,927.9831,308.6993,937.52,306.24" style="stroke:#1A83AF;stroke-width:2.0;"/></g><!--SRC=[hPL1ZzCm48Nl-HMMUbwftGhQNf1AfHLSLeZbXf0rYIUDIMn7jaCfYFzEkbsgr8uTKpYq1y_txFSy7RVY30cArXw9G96ZDfcfkMn1Wo1RhTLXfngboQmieLoktEA3adOIU0I1v1qstz3o0bpYKyMBMg8nv7vGUWj5lTUga-oylTKWJLz2QGVKhW5ZjjPgddSM1sRO9b-NfKkwcywMRB5wZHwcD4FzWipdSxROkCZaKT7S5-A9_q2o65xQexBesVIEUAQYBa_4mAGNz4yzwF43CCRbdhmQh7qyUz8IzTNwKmLC7Kvq2OqP7cCiQbJssEBEIuMRDIjNe_3x49mLfwiZS30KR8KIA0CBjEY_6hKdFxFibuySbAxfQRVM1R2ufmQBJdDxZ11TBj6w5Gw2QjMWkrwB_eD7TraZCnKlBIsQxXJKhPibpRkYziyni4S1DMeAdLLKDFIhoiCGVczHSz7FIPXfjIhwWUiR5j-h7pek4oWEpRaSwilTvzbYkrvk7xxSlObwoSRRvkbVBZaLlrnkiY3cR-HNustWjZjPEDhk6zGt-XvlVkQCmb_43GWcOawgGl4cXLwionodXGhZuKWfcf50AJ8lZlVEH6Tdceuw77-ReYScIgudDbNq7xn6hdRqaRtLHDeM_-pX-N7Eeiz_OhkcLA6EJUfImbxz4oKQZcj2Ti__PhTsTL9zbV4t]--></g></svg>