<?xml version="1.0" encoding="us-ascii" standalone="no"?><svg xmlns="http://www.w3.org/2000/svg" xmlns:xlink="http://www.w3.org/1999/xlink" contentStyleType="text/css" height="1716px" preserveAspectRatio="none" style="width:1031px;height:1716px;" version="1.1" viewBox="0 0 1031 1716" width="1031px" zoomAndPan="magnify"><defs/><g><!--class azure_build_context--><g id="elem_azure_build_context"><rect codeLine="23" fill="#3D176E" height="100.3828" id="azure_build_context" rx="2.5" ry="2.5" style="stroke:#000D19;stroke-width:0.5;" width="210" x="370" y="1396.26"/><ellipse cx="385" cy="1416.1545" fill="#ADD1B2" rx="11" ry="11" style="stroke:#181818;stroke-width:1.0;"/><path d="M387.9688,1421.7952 Q387.3906,1422.092 386.75,1422.2327 Q386.1094,1422.3889 385.4063,1422.3889 Q382.9063,1422.3889 381.5781,1420.7483 Q380.2656,1419.092 380.2656,1415.967 Q380.2656,1412.842 381.5781,1411.1858 Q382.9063,1409.5295 385.4063,1409.5295 Q386.1094,1409.5295 386.75,1409.6858 Q387.4063,1409.842 387.9688,1410.1389 L387.9688,1412.8577 Q387.3438,1412.2795 386.75,1412.0139 Q386.1563,1411.7327 385.5313,1411.7327 Q384.1875,1411.7327 383.5,1412.8108 Q382.8125,1413.8733 382.8125,1415.967 Q382.8125,1418.0608 383.5,1419.1389 Q384.1875,1420.2014 385.5313,1420.2014 Q386.1563,1420.2014 386.75,1419.9358 Q387.3438,1419.6545 387.9688,1419.0764 L387.9688,1421.7952 Z " fill="#000000"/><text fill="#D9B8FF" font-family="Helvetica" font-size="17" lengthAdjust="spacing" textLength="168" x="404" y="1422.0398">azure_build_context</text><line style="stroke:#000D19;stroke-width:0.5;" x1="371" x2="579" y1="1436.0491" y2="1436.0491"/><text fill="#D9B8FF" font-family="sans-serif" font-size="14" font-weight="bold" lengthAdjust="spacing" textLength="88" x="381" y="1458.0442">context_uri</text><text fill="#D9B8FF" font-family="sans-serif" font-size="14" lengthAdjust="spacing" textLength="48" x="469" y="1458.0442">: string</text><text fill="#D9B8FF" font-family="sans-serif" font-size="14" font-weight="bold" lengthAdjust="spacing" textLength="121" x="381" y="1484.3411">dockerfile_path</text><text fill="#D9B8FF" font-family="sans-serif" font-size="14" lengthAdjust="spacing" textLength="48" x="502" y="1484.3411">: string</text></g><!--class azure_inference_container_properties--><g id="elem_azure_inference_container_properties"><rect codeLine="27" fill="#3D176E" height="126.6797" id="azure_inference_container_properties" rx="2.5" ry="2.5" style="stroke:#000D19;stroke-width:0.5;" width="386" x="638" y="1383.11"/><ellipse cx="666.5" cy="1403.0045" fill="#ADD1B2" rx="11" ry="11" style="stroke:#181818;stroke-width:1.0;"/><path d="M669.4688,1408.6452 Q668.8906,1408.942 668.25,1409.0827 Q667.6094,1409.2389 666.9063,1409.2389 Q664.4063,1409.2389 663.0781,1407.5983 Q661.7656,1405.942 661.7656,1402.817 Q661.7656,1399.692 663.0781,1398.0358 Q664.4063,1396.3795 666.9063,1396.3795 Q667.6094,1396.3795 668.25,1396.5358 Q668.9063,1396.692 669.4688,1396.9889 L669.4688,1399.7077 Q668.8438,1399.1295 668.25,1398.8639 Q667.6563,1398.5827 667.0313,1398.5827 Q665.6875,1398.5827 665,1399.6608 Q664.3125,1400.7233 664.3125,1402.817 Q664.3125,1404.9108 665,1405.9889 Q665.6875,1407.0514 667.0313,1407.0514 Q667.6563,1407.0514 668.25,1406.7858 Q668.8438,1406.5045 669.4688,1405.9264 L669.4688,1408.6452 Z " fill="#000000"/><text fill="#D9B8FF" font-family="Helvetica" font-size="17" lengthAdjust="spacing" textLength="314" x="688.5" y="1408.8898">azure_inference_container_properties</text><line style="stroke:#000D19;stroke-width:0.5;" x1="639" x2="1023" y1="1422.8991" y2="1422.8991"/><text fill="#D9B8FF" font-family="sans-serif" font-size="14" font-weight="bold" lengthAdjust="spacing" textLength="115" x="649" y="1444.8942">liveness_route</text><text fill="#D9B8FF" font-family="sans-serif" font-size="14" lengthAdjust="spacing" textLength="236" x="764" y="1444.8942">: azure_inference_container_route</text><text fill="#D9B8FF" font-family="sans-serif" font-size="14" font-weight="bold" lengthAdjust="spacing" textLength="128" x="649" y="1471.1911">readiness_route</text><text fill="#D9B8FF" font-family="sans-serif" font-size="14" lengthAdjust="spacing" textLength="236" x="777" y="1471.1911">: azure_inference_container_route</text><text fill="#D9B8FF" font-family="sans-serif" font-size="14" font-weight="bold" lengthAdjust="spacing" textLength="109" x="649" y="1497.4879">scoring_route</text><text fill="#D9B8FF" font-family="sans-serif" font-size="14" lengthAdjust="spacing" textLength="236" x="758" y="1497.4879">: azure_inference_container_route</text></g><!--class azure_inference_container_route--><g id="elem_azure_inference_container_route"><rect codeLine="32" fill="#3D176E" height="100.3828" id="azure_inference_container_route" rx="2.5" ry="2.5" style="stroke:#000D19;stroke-width:0.5;" width="317" x="672.5" y="1609.24"/><ellipse cx="687.5" cy="1629.1345" fill="#ADD1B2" rx="11" ry="11" style="stroke:#181818;stroke-width:1.0;"/><path d="M690.4688,1634.7752 Q689.8906,1635.072 689.25,1635.2127 Q688.6094,1635.3689 687.9063,1635.3689 Q685.4063,1635.3689 684.0781,1633.7283 Q682.7656,1632.072 682.7656,1628.947 Q682.7656,1625.822 684.0781,1624.1658 Q685.4063,1622.5095 687.9063,1622.5095 Q688.6094,1622.5095 689.25,1622.6658 Q689.9063,1622.822 690.4688,1623.1189 L690.4688,1625.8377 Q689.8438,1625.2595 689.25,1624.9939 Q688.6563,1624.7127 688.0313,1624.7127 Q686.6875,1624.7127 686,1625.7908 Q685.3125,1626.8533 685.3125,1628.947 Q685.3125,1631.0408 686,1632.1189 Q686.6875,1633.1814 688.0313,1633.1814 Q688.6563,1633.1814 689.25,1632.9158 Q689.8438,1632.6345 690.4688,1632.0564 L690.4688,1634.7752 Z " fill="#000000"/><text fill="#D9B8FF" font-family="Helvetica" font-size="17" lengthAdjust="spacing" textLength="275" x="706.5" y="1635.0198">azure_inference_container_route</text><line style="stroke:#000D19;stroke-width:0.5;" x1="673.5" x2="988.5" y1="1649.0291" y2="1649.0291"/><text fill="#D9B8FF" font-family="sans-serif" font-size="14" font-weight="bold" lengthAdjust="spacing" textLength="35" x="683.5" y="1671.0242">path</text><text fill="#D9B8FF" font-family="sans-serif" font-size="14" lengthAdjust="spacing" textLength="48" x="718.5" y="1671.0242">: string</text><text fill="#D9B8FF" font-family="sans-serif" font-size="14" font-weight="bold" lengthAdjust="spacing" textLength="33" x="683.5" y="1697.3211">port</text><text fill="#D9B8FF" font-family="sans-serif" font-size="14" lengthAdjust="spacing" textLength="44" x="716.5" y="1697.3211">: int64</text></g><!--class azure_machine_learning_environment_version_base--><g id="elem_azure_machine_learning_environment_version_base"><rect codeLine="36" fill="#3D176E" height="363.3516" id="azure_machine_learning_environment_version_base" rx="2.5" ry="2.5" style="stroke:#000D19;stroke-width:0.5;" width="482" x="111" y="759.53"/><ellipse cx="126" cy="779.4245" fill="#ADD1B2" rx="11" ry="11" style="stroke:#181818;stroke-width:1.0;"/><path d="M128.9688,785.0652 Q128.3906,785.362 127.75,785.5027 Q127.1094,785.6589 126.4063,785.6589 Q123.9063,785.6589 122.5781,784.0183 Q121.2656,782.362 121.2656,779.237 Q121.2656,776.112 122.5781,774.4558 Q123.9063,772.7995 126.4063,772.7995 Q127.1094,772.7995 127.75,772.9558 Q128.4063,773.112 128.9688,773.4089 L128.9688,776.1277 Q128.3438,775.5495 127.75,775.2839 Q127.1563,775.0027 126.5313,775.0027 Q125.1875,775.0027 124.5,776.0808 Q123.8125,777.1433 123.8125,779.237 Q123.8125,781.3308 124.5,782.4089 Q125.1875,783.4714 126.5313,783.4714 Q127.1563,783.4714 127.75,783.2058 Q128.3438,782.9245 128.9688,782.3464 L128.9688,785.0652 Z " fill="#000000"/><text fill="#D9B8FF" font-family="Helvetica" font-size="17" lengthAdjust="spacing" textLength="440" x="145" y="785.3098">azure_machine_learning_environment_version_base</text><line style="stroke:#000D19;stroke-width:0.5;" x1="112" x2="592" y1="799.3191" y2="799.3191"/><text fill="#D9B8FF" font-family="sans-serif" font-size="14" font-weight="bold" lengthAdjust="spacing" textLength="97" x="122" y="821.3142">auto_rebuild</text><text fill="#D9B8FF" font-family="sans-serif" font-size="14" lengthAdjust="spacing" textLength="48" x="219" y="821.3142">: string</text><text fill="#D9B8FF" font-family="sans-serif" font-size="14" font-weight="bold" lengthAdjust="spacing" textLength="38" x="122" y="847.6111">build</text><text fill="#D9B8FF" font-family="sans-serif" font-size="14" lengthAdjust="spacing" textLength="147" x="160" y="847.6111">: azure_build_context</text><text fill="#D9B8FF" font-family="sans-serif" font-size="14" font-weight="bold" lengthAdjust="spacing" textLength="79" x="122" y="873.9079">conda_file</text><text fill="#D9B8FF" font-family="sans-serif" font-size="14" lengthAdjust="spacing" textLength="48" x="201" y="873.9079">: string</text><text fill="#D9B8FF" font-family="sans-serif" font-size="14" font-weight="bold" lengthAdjust="spacing" textLength="89" x="122" y="900.2048">description</text><text fill="#D9B8FF" font-family="sans-serif" font-size="14" lengthAdjust="spacing" textLength="48" x="211" y="900.2048">: string</text><text fill="#D9B8FF" font-family="sans-serif" font-size="14" font-weight="bold" lengthAdjust="spacing" textLength="142" x="122" y="926.5017">environment_type</text><text fill="#D9B8FF" font-family="sans-serif" font-size="14" lengthAdjust="spacing" textLength="48" x="264" y="926.5017">: string</text><text fill="#D9B8FF" font-family="sans-serif" font-size="14" font-weight="bold" lengthAdjust="spacing" textLength="47" x="122" y="952.7986">image</text><text fill="#D9B8FF" font-family="sans-serif" font-size="14" lengthAdjust="spacing" textLength="48" x="169" y="952.7986">: string</text><text fill="#D9B8FF" font-family="sans-serif" font-size="14" font-weight="bold" lengthAdjust="spacing" textLength="132" x="122" y="979.0954">inference_config</text><text fill="#D9B8FF" font-family="sans-serif" font-size="14" lengthAdjust="spacing" textLength="270" x="254" y="979.0954">: azure_inference_container_properties</text><text fill="#D9B8FF" font-family="sans-serif" font-size="14" font-weight="bold" lengthAdjust="spacing" textLength="111" x="122" y="1005.3923">is_anonymous</text><text fill="#D9B8FF" font-family="sans-serif" font-size="14" lengthAdjust="spacing" textLength="65" x="233" y="1005.3923">: boolean</text><text fill="#D9B8FF" font-family="sans-serif" font-size="14" font-weight="bold" lengthAdjust="spacing" textLength="88" x="122" y="1031.6892">is_archived</text><text fill="#D9B8FF" font-family="sans-serif" font-size="14" lengthAdjust="spacing" textLength="65" x="210" y="1031.6892">: boolean</text><text fill="#D9B8FF" font-family="sans-serif" font-size="14" font-weight="bold" lengthAdjust="spacing" textLength="61" x="122" y="1057.9861">os_type</text><text fill="#D9B8FF" font-family="sans-serif" font-size="14" lengthAdjust="spacing" textLength="48" x="183" y="1057.9861">: string</text><text fill="#D9B8FF" font-family="sans-serif" font-size="14" font-weight="bold" lengthAdjust="spacing" textLength="83" x="122" y="1084.2829">properties</text><text fill="#D9B8FF" font-family="sans-serif" font-size="14" lengthAdjust="spacing" textLength="156" x="205" y="1084.2829">: dictionary[string, any]</text><text fill="#D9B8FF" font-family="sans-serif" font-size="14" font-weight="bold" lengthAdjust="spacing" textLength="44" x="122" y="1110.5798">stage</text><text fill="#D9B8FF" font-family="sans-serif" font-size="14" lengthAdjust="spacing" textLength="48" x="166" y="1110.5798">: string</text></g><!--class azure_machine_learning_registry_environment_version--><g id="elem_azure_machine_learning_registry_environment_version"><rect codeLine="50" fill="#3D176E" height="39.7891" id="azure_machine_learning_registry_environment_version" rx="2.5" ry="2.5" style="stroke:#000D19;stroke-width:0.5;" width="508" x="293" y="1243.88"/><ellipse cx="308" cy="1263.7745" fill="#ADD1B2" rx="11" ry="11" style="stroke:#181818;stroke-width:1.0;"/><path d="M310.9688,1269.4152 Q310.3906,1269.712 309.75,1269.8527 Q309.1094,1270.0089 308.4063,1270.0089 Q305.9063,1270.0089 304.5781,1268.3683 Q303.2656,1266.712 303.2656,1263.587 Q303.2656,1260.462 304.5781,1258.8058 Q305.9063,1257.1495 308.4063,1257.1495 Q309.1094,1257.1495 309.75,1257.3058 Q310.4063,1257.462 310.9688,1257.7589 L310.9688,1260.4777 Q310.3438,1259.8995 309.75,1259.6339 Q309.1563,1259.3527 308.5313,1259.3527 Q307.1875,1259.3527 306.5,1260.4308 Q305.8125,1261.4933 305.8125,1263.587 Q305.8125,1265.6808 306.5,1266.7589 Q307.1875,1267.8214 308.5313,1267.8214 Q309.1563,1267.8214 309.75,1267.5558 Q310.3438,1267.2745 310.9688,1266.6964 L310.9688,1269.4152 Z " fill="#000000"/><text fill="#D9B8FF" font-family="Helvetica" font-size="17" lengthAdjust="spacing" textLength="466" x="327" y="1269.6598">azure_machine_learning_registry_environment_version</text></g><!--class azure_proxy_resource--><g id="elem_azure_proxy_resource"><rect codeLine="53" fill="#3D176E" height="100.3828" id="azure_proxy_resource" rx="2.5" ry="2.5" style="stroke:#000D19;stroke-width:0.5;" width="262" x="7" y="438.76"/><ellipse cx="39.1" cy="458.6545" fill="#ADD1B2" rx="11" ry="11" style="stroke:#181818;stroke-width:1.0;"/><path d="M42.0688,464.2952 Q41.4906,464.592 40.85,464.7327 Q40.2094,464.8889 39.5063,464.8889 Q37.0063,464.8889 35.6781,463.2483 Q34.3656,461.592 34.3656,458.467 Q34.3656,455.342 35.6781,453.6858 Q37.0063,452.0295 39.5063,452.0295 Q40.2094,452.0295 40.85,452.1858 Q41.5063,452.342 42.0688,452.6389 L42.0688,455.3577 Q41.4438,454.7795 40.85,454.5139 Q40.2563,454.2327 39.6313,454.2327 Q38.2875,454.2327 37.6,455.3108 Q36.9125,456.3733 36.9125,458.467 Q36.9125,460.5608 37.6,461.6389 Q38.2875,462.7014 39.6313,462.7014 Q40.2563,462.7014 40.85,462.4358 Q41.4438,462.1545 42.0688,461.5764 L42.0688,464.2952 Z " fill="#000000"/><text fill="#D9B8FF" font-family="Helvetica" font-size="17" lengthAdjust="spacing" textLength="182" x="61.9" y="464.5398">azure_proxy_resource</text><line style="stroke:#000D19;stroke-width:0.5;" x1="8" x2="268" y1="478.5491" y2="478.5491"/><text fill="#D9B8FF" font-family="sans-serif" font-size="14" font-weight="bold" lengthAdjust="spacing" textLength="98" x="18" y="500.5442">system_data</text><text fill="#D9B8FF" font-family="sans-serif" font-size="14" lengthAdjust="spacing" textLength="142" x="116" y="500.5442">: azure_system_data</text><text fill="#D9B8FF" font-family="sans-serif" font-size="14" font-weight="bold" lengthAdjust="spacing" textLength="35" x="18" y="526.8411">type</text><text fill="#D9B8FF" font-family="sans-serif" font-size="14" lengthAdjust="spacing" textLength="48" x="53" y="526.8411">: string</text></g><!--class azure_system_data--><g id="elem_azure_system_data"><rect codeLine="57" fill="#3D176E" height="205.5703" id="azure_system_data" rx="2.5" ry="2.5" style="stroke:#000D19;stroke-width:0.5;" width="241" x="48.5" y="1343.67"/><ellipse cx="80.6" cy="1363.5645" fill="#ADD1B2" rx="11" ry="11" style="stroke:#181818;stroke-width:1.0;"/><path d="M83.5688,1369.2052 Q82.9906,1369.502 82.35,1369.6427 Q81.7094,1369.7989 81.0063,1369.7989 Q78.5063,1369.7989 77.1781,1368.1583 Q75.8656,1366.502 75.8656,1363.377 Q75.8656,1360.252 77.1781,1358.5958 Q78.5063,1356.9395 81.0063,1356.9395 Q81.7094,1356.9395 82.35,1357.0958 Q83.0063,1357.252 83.5688,1357.5489 L83.5688,1360.2677 Q82.9438,1359.6895 82.35,1359.4239 Q81.7563,1359.1427 81.1313,1359.1427 Q79.7875,1359.1427 79.1,1360.2208 Q78.4125,1361.2833 78.4125,1363.377 Q78.4125,1365.4708 79.1,1366.5489 Q79.7875,1367.6114 81.1313,1367.6114 Q81.7563,1367.6114 82.35,1367.3458 Q82.9438,1367.0645 83.5688,1366.4864 L83.5688,1369.2052 Z " fill="#000000"/><text fill="#D9B8FF" font-family="Helvetica" font-size="17" lengthAdjust="spacing" textLength="161" x="103.4" y="1369.4498">azure_system_data</text><line style="stroke:#000D19;stroke-width:0.5;" x1="49.5" x2="288.5" y1="1383.4591" y2="1383.4591"/><text fill="#D9B8FF" font-family="sans-serif" font-size="14" font-weight="bold" lengthAdjust="spacing" textLength="83" x="59.5" y="1405.4542">created_at</text><text fill="#D9B8FF" font-family="sans-serif" font-size="14" lengthAdjust="spacing" textLength="70" x="142.5" y="1405.4542">: datetime</text><text fill="#D9B8FF" font-family="sans-serif" font-size="14" font-weight="bold" lengthAdjust="spacing" textLength="87" x="59.5" y="1431.7511">created_by</text><text fill="#D9B8FF" font-family="sans-serif" font-size="14" lengthAdjust="spacing" textLength="48" x="146.5" y="1431.7511">: string</text><text fill="#D9B8FF" font-family="sans-serif" font-size="14" font-weight="bold" lengthAdjust="spacing" textLength="129" x="59.5" y="1458.0479">created_by_type</text><text fill="#D9B8FF" font-family="sans-serif" font-size="14" lengthAdjust="spacing" textLength="48" x="188.5" y="1458.0479">: string</text><text fill="#D9B8FF" font-family="sans-serif" font-size="14" font-weight="bold" lengthAdjust="spacing" textLength="125" x="59.5" y="1484.3448">last_modified_at</text><text fill="#D9B8FF" font-family="sans-serif" font-size="14" lengthAdjust="spacing" textLength="70" x="184.5" y="1484.3448">: datetime</text><text fill="#D9B8FF" font-family="sans-serif" font-size="14" font-weight="bold" lengthAdjust="spacing" textLength="129" x="59.5" y="1510.6417">last_modified_by</text><text fill="#D9B8FF" font-family="sans-serif" font-size="14" lengthAdjust="spacing" textLength="48" x="188.5" y="1510.6417">: string</text><text fill="#D9B8FF" font-family="sans-serif" font-size="14" font-weight="bold" lengthAdjust="spacing" textLength="171" x="59.5" y="1536.9386">last_modified_by_type</text><text fill="#D9B8FF" font-family="sans-serif" font-size="14" lengthAdjust="spacing" textLength="48" x="230.5" y="1536.9386">: string</text></g><!--class microsoft_resource--><g id="elem_microsoft_resource"><rect codeLine="65" fill="#3D176E" height="100.3828" id="microsoft_resource" rx="2.5" ry="2.5" style="stroke:#000D19;stroke-width:0.5;" width="214" x="505" y="599.14"/><ellipse cx="526.3" cy="619.0345" fill="#ADD1B2" rx="11" ry="11" style="stroke:#181818;stroke-width:1.0;"/><path d="M529.2688,624.6752 Q528.6906,624.972 528.05,625.1127 Q527.4094,625.2689 526.7063,625.2689 Q524.2063,625.2689 522.8781,623.6283 Q521.5656,621.972 521.5656,618.847 Q521.5656,615.722 522.8781,614.0658 Q524.2063,612.4095 526.7063,612.4095 Q527.4094,612.4095 528.05,612.5658 Q528.7063,612.722 529.2688,613.0189 L529.2688,615.7377 Q528.6438,615.1595 528.05,614.8939 Q527.4563,614.6127 526.8313,614.6127 Q525.4875,614.6127 524.8,615.6908 Q524.1125,616.7533 524.1125,618.847 Q524.1125,620.9408 524.8,622.0189 Q525.4875,623.0814 526.8313,623.0814 Q527.4563,623.0814 528.05,622.8158 Q528.6438,622.5345 529.2688,621.9564 L529.2688,624.6752 Z " fill="#000000"/><text fill="#D9B8FF" font-family="Helvetica" font-size="17" lengthAdjust="spacing" textLength="158" x="546.7" y="624.9198">microsoft_resource</text><line style="stroke:#000D19;stroke-width:0.5;" x1="506" x2="718" y1="638.9291" y2="638.9291"/><text fill="#D9B8FF" font-family="sans-serif" font-size="14" font-weight="bold" lengthAdjust="spacing" textLength="35" x="516" y="660.9242">etag</text><text fill="#D9B8FF" font-family="sans-serif" font-size="14" lengthAdjust="spacing" textLength="48" x="551" y="660.9242">: string</text><text fill="#D9B8FF" font-family="sans-serif" font-size="14" font-weight="bold" lengthAdjust="spacing" textLength="144" x="516" y="687.2211">provisioning_state</text><text fill="#D9B8FF" font-family="sans-serif" font-size="14" lengthAdjust="spacing" textLength="48" x="660" y="687.2211">: string</text></g><!--class phantom_resource--><g id="elem_phantom_resource"><rect codeLine="69" fill="#3D176E" height="39.7891" id="phantom_resource" rx="2.5" ry="2.5" style="stroke:#000D19;stroke-width:0.5;" width="198" x="322" y="469.06"/><ellipse cx="337" cy="488.9545" fill="#ADD1B2" rx="11" ry="11" style="stroke:#181818;stroke-width:1.0;"/><path d="M339.9688,494.5952 Q339.3906,494.892 338.75,495.0327 Q338.1094,495.1889 337.4063,495.1889 Q334.9063,495.1889 333.5781,493.5483 Q332.2656,491.892 332.2656,488.767 Q332.2656,485.642 333.5781,483.9858 Q334.9063,482.3295 337.4063,482.3295 Q338.1094,482.3295 338.75,482.4858 Q339.4063,482.642 339.9688,482.9389 L339.9688,485.6577 Q339.3438,485.0795 338.75,484.8139 Q338.1563,484.5327 337.5313,484.5327 Q336.1875,484.5327 335.5,485.6108 Q334.8125,486.6733 334.8125,488.767 Q334.8125,490.8608 335.5,491.9389 Q336.1875,493.0014 337.5313,493.0014 Q338.1563,493.0014 338.75,492.7358 Q339.3438,492.4545 339.9688,491.8764 L339.9688,494.5952 Z " fill="#000000"/><text fill="#D9B8FF" font-family="Helvetica" font-size="17" lengthAdjust="spacing" textLength="156" x="356" y="494.8398">phantom_resource</text></g><!--class resource--><g id="elem_resource"><rect codeLine="72" fill="#3D176E" height="310.7578" id="resource" rx="2.5" ry="2.5" style="stroke:#000D19;stroke-width:0.5;" width="227" x="387.5" y="7"/><ellipse cx="456.25" cy="26.8945" fill="#ADD1B2" rx="11" ry="11" style="stroke:#181818;stroke-width:1.0;"/><path d="M459.2188,32.5352 Q458.6406,32.832 458,32.9727 Q457.3594,33.1289 456.6563,33.1289 Q454.1563,33.1289 452.8281,31.4883 Q451.5156,29.832 451.5156,26.707 Q451.5156,23.582 452.8281,21.9258 Q454.1563,20.2695 456.6563,20.2695 Q457.3594,20.2695 458,20.4258 Q458.6563,20.582 459.2188,20.8789 L459.2188,23.5977 Q458.5938,23.0195 458,22.7539 Q457.4063,22.4727 456.7813,22.4727 Q455.4375,22.4727 454.75,23.5508 Q454.0625,24.6133 454.0625,26.707 Q454.0625,28.8008 454.75,29.8789 Q455.4375,30.9414 456.7813,30.9414 Q457.4063,30.9414 458,30.6758 Q458.5938,30.3945 459.2188,29.8164 L459.2188,32.5352 Z " fill="#000000"/><text fill="#D9B8FF" font-family="Helvetica" font-size="17" lengthAdjust="spacing" textLength="71" x="481.75" y="32.7798">resource</text><line style="stroke:#000D19;stroke-width:0.5;" x1="388.5" x2="613.5" y1="46.7891" y2="46.7891"/><text fill="#D9B8FF" font-family="sans-serif" font-size="14" font-weight="bold" lengthAdjust="spacing" textLength="29" x="398.5" y="68.7842">age</text><text fill="#D9B8FF" font-family="sans-serif" font-size="14" lengthAdjust="spacing" textLength="66" x="427.5" y="68.7842">: duration</text><text fill="#D9B8FF" font-family="sans-serif" font-size="14" font-weight="bold" lengthAdjust="spacing" textLength="43" x="398.5" y="95.0811">atime</text><text fill="#D9B8FF" font-family="sans-serif" font-size="14" lengthAdjust="spacing" textLength="70" x="441.5" y="95.0811">: datetime</text><text fill="#D9B8FF" font-family="sans-serif" font-size="14" font-weight="bold" lengthAdjust="spacing" textLength="43" x="398.5" y="121.3779">ctime</text><text fill="#D9B8FF" font-family="sans-serif" font-size="14" lengthAdjust="spacing" textLength="70" x="441.5" y="121.3779">: datetime</text><text fill="#D9B8FF" font-family="sans-serif" font-size="14" font-weight="bold" lengthAdjust="spacing" textLength="14" x="398.5" y="147.6748">id</text><text fill="#D9B8FF" font-family="sans-serif" font-size="14" lengthAdjust="spacing" textLength="48" x="412.5" y="147.6748">: string</text><text fill="#D9B8FF" font-family="sans-serif" font-size="14" font-weight="bold" lengthAdjust="spacing" textLength="33" x="398.5" y="173.9717">kind</text><text fill="#D9B8FF" font-family="sans-serif" font-size="14" lengthAdjust="spacing" textLength="48" x="431.5" y="173.9717">: string</text><text fill="#D9B8FF" font-family="sans-serif" font-size="14" font-weight="bold" lengthAdjust="spacing" textLength="90" x="398.5" y="200.2686">last_access</text><text fill="#D9B8FF" font-family="sans-serif" font-size="14" lengthAdjust="spacing" textLength="66" x="488.5" y="200.2686">: duration</text><text fill="#D9B8FF" font-family="sans-serif" font-size="14" font-weight="bold" lengthAdjust="spacing" textLength="90" x="398.5" y="226.5654">last_update</text><text fill="#D9B8FF" font-family="sans-serif" font-size="14" lengthAdjust="spacing" textLength="66" x="488.5" y="226.5654">: duration</text><text fill="#D9B8FF" font-family="sans-serif" font-size="14" font-weight="bold" lengthAdjust="spacing" textLength="48" x="398.5" y="252.8623">mtime</text><text fill="#D9B8FF" font-family="sans-serif" font-size="14" lengthAdjust="spacing" textLength="70" x="446.5" y="252.8623">: datetime</text><text fill="#D9B8FF" font-family="sans-serif" font-size="14" font-weight="bold" lengthAdjust="spacing" textLength="43" x="398.5" y="279.1592">name</text><text fill="#D9B8FF" font-family="sans-serif" font-size="14" lengthAdjust="spacing" textLength="48" x="441.5" y="279.1592">: string</text><text fill="#D9B8FF" font-family="sans-serif" font-size="14" font-weight="bold" lengthAdjust="spacing" textLength="34" x="398.5" y="305.4561">tags</text><text fill="#D9B8FF" font-family="sans-serif" font-size="14" lengthAdjust="spacing" textLength="171" x="432.5" y="305.4561">: dictionary[string, string]</text></g><!--link azure_inference_container_properties to azure_inference_container_route--><g id="link_azure_inference_container_properties_azure_inference_container_route"><path codeLine="84" d="M831,1510.18 C831,1541.76 831,1573.5 831,1602.99 " fill="none" id="azure_inference_container_properties-to-azure_inference_container_route" style="stroke:#FFAF37;stroke-width:2.0;"/><polygon fill="#FFAF37" points="831,1608.99,835,1599.99,831,1603.99,827,1599.99,831,1608.99" style="stroke:#FFAF37;stroke-width:2.0;"/></g><!--link azure_machine_learning_environment_version_base to azure_build_context--><g id="link_azure_machine_learning_environment_version_base_azure_build_context"><path codeLine="85" d="M267.47,1123.14 C254.01,1176.5 251.24,1233.9 275,1283.67 C297.51,1330.82 336.2266,1365.3435 377.0566,1392.5435 " fill="none" id="azure_machine_learning_environment_version_base-to-azure_build_context" style="stroke:#FFAF37;stroke-width:2.0;"/><polygon fill="#FFAF37" points="382.05,1395.87,376.7775,1387.5513,377.8888,1393.0979,372.3422,1394.2092,382.05,1395.87" style="stroke:#FFAF37;stroke-width:2.0;"/></g><!--link azure_machine_learning_environment_version_base to azure_inference_container_properties--><g id="link_azure_machine_learning_environment_version_base_azure_inference_container_properties"><path codeLine="86" d="M593.21,1041.22 C679.33,1089.24 767.67,1155.93 819,1243.88 C843.3,1285.51 845.4816,1334.5927 841.8116,1376.6527 " fill="none" id="azure_machine_learning_environment_version_base-to-azure_inference_container_properties" style="stroke:#FFAF37;stroke-width:2.0;"/><polygon fill="#FFAF37" points="841.29,1382.63,846.0572,1374.0118,841.7246,1377.6489,838.0875,1373.3164,841.29,1382.63" style="stroke:#FFAF37;stroke-width:2.0;"/></g><!--reverse link azure_proxy_resource to azure_machine_learning_environment_version_base--><g id="link_azure_proxy_resource_azure_machine_learning_environment_version_base"><path codeLine="87" d="M169.2368,555.6772 C194.4268,608.6772 228.18,679.68 266,759.27 " fill="none" id="azure_proxy_resource-backto-azure_machine_learning_environment_version_base" style="stroke:#FFAF37;stroke-width:2.0;"/><polygon fill="none" points="161.51,539.42,163.8177,558.2528,174.6558,553.1016,161.51,539.42" style="stroke:#FFAF37;stroke-width:2.0;"/></g><!--link azure_machine_learning_environment_version_base to azure_system_data--><g id="link_azure_machine_learning_environment_version_base_azure_system_data"><path codeLine="88" d="M273.02,1123.1 C264.95,1143.16 257.12,1163.37 250,1182.88 C230.9,1235.2 214.0748,1288.6573 199.5748,1337.5873 " fill="none" id="azure_machine_learning_environment_version_base-to-azure_system_data" style="stroke:#FFAF37;stroke-width:2.0;"/><polygon fill="#FFAF37" points="197.87,1343.34,204.2623,1335.8474,199.2906,1338.5461,196.592,1333.5744,197.87,1343.34" style="stroke:#FFAF37;stroke-width:2.0;"/></g><!--reverse link phantom_resource to azure_machine_learning_environment_version_base--><g id="link_phantom_resource_azure_machine_learning_environment_version_base"><path codeLine="89" d="M415.3125,527.0922 C408.6625,570.4722 394.7,661.59 379.76,759.05 " fill="none" id="phantom_resource-backto-azure_machine_learning_environment_version_base" style="stroke:#FFAF37;stroke-width:2.0;"/><polygon fill="none" points="418.04,509.3,409.3818,526.183,421.2432,528.0013,418.04,509.3" style="stroke:#FFAF37;stroke-width:2.0;"/></g><!--link azure_machine_learning_registry_environment_version to azure_build_context--><g id="link_azure_machine_learning_registry_environment_version_azure_build_context"><path codeLine="90" d="M539.29,1284.11 C528.74,1310.6 511.6303,1353.5259 496.9203,1390.4559 " fill="none" id="azure_machine_learning_registry_environment_version-to-azure_build_context" style="stroke:#FFAF37;stroke-width:2.0;"/><polygon fill="#FFAF37" points="494.7,1396.03,501.7465,1389.1491,496.5502,1391.3849,494.3144,1386.1887,494.7,1396.03" style="stroke:#FFAF37;stroke-width:2.0;"/></g><!--link azure_machine_learning_registry_environment_version to azure_inference_container_properties--><g id="link_azure_machine_learning_registry_environment_version_azure_inference_container_properties"><path codeLine="91" d="M577.39,1284.11 C614.17,1307.5 672.8575,1344.8395 727.2475,1379.4395 " fill="none" id="azure_machine_learning_registry_environment_version-to-azure_inference_container_properties" style="stroke:#FFAF37;stroke-width:2.0;"/><polygon fill="#FFAF37" points="732.31,1382.66,726.8633,1374.4543,728.0913,1379.9763,722.5693,1381.2043,732.31,1382.66" style="stroke:#FFAF37;stroke-width:2.0;"/></g><!--reverse link azure_machine_learning_environment_version_base to azure_machine_learning_registry_environment_version--><g id="link_azure_machine_learning_environment_version_base_azure_machine_learning_registry_environment_version"><path codeLine="92" d="M471.3942,1138.4785 C501.2842,1187.6185 520.22,1218.75 535.42,1243.74 " fill="none" id="azure_machine_learning_environment_version_base-backto-azure_machine_learning_registry_environment_version" style="stroke:#FFAF37;stroke-width:2.0;"/><polygon fill="none" points="462.04,1123.1,466.268,1141.5966,476.5204,1135.3605,462.04,1123.1" style="stroke:#FFAF37;stroke-width:2.0;"/></g><!--link azure_machine_learning_registry_environment_version to azure_system_data--><g id="link_azure_machine_learning_registry_environment_version_azure_system_data"><path codeLine="93" d="M494.1,1284.15 C454.44,1299.16 399.11,1321.14 352,1343.67 C331.67,1353.39 315.7289,1361.518 295.2389,1372.588 " fill="none" id="azure_machine_learning_registry_environment_version-to-azure_system_data" style="stroke:#FFAF37;stroke-width:2.0;"/><polygon fill="#FFAF37" points="289.96,1375.44,299.7796,1374.6813,294.359,1373.0634,295.977,1367.6428,289.96,1375.44" style="stroke:#FFAF37;stroke-width:2.0;"/></g><!--reverse link microsoft_resource to azure_machine_learning_registry_environment_version--><g id="link_microsoft_resource_azure_machine_learning_registry_environment_version"><path codeLine="94" d="M620.4959,717.5845 C630.3759,804.3745 642.84,971.55 610,1122.88 C600.06,1168.69 574.01,1217.63 558.7,1243.75 " fill="none" id="microsoft_resource-backto-azure_machine_learning_registry_environment_version" style="stroke:#FFAF37;stroke-width:2.0;"/><polygon fill="none" points="618.46,699.7,614.5344,718.2631,626.4574,716.9058,618.46,699.7" style="stroke:#FFAF37;stroke-width:2.0;"/></g><!--link azure_proxy_resource to azure_system_data--><g id="link_azure_proxy_resource_azure_system_data"><path codeLine="95" d="M123.33,539.41 C100.23,621.76 58,792.53 58,940.2 C58,940.2 58,940.2 58,1183.88 C58,1239.38 76.6961,1291.2742 100.7261,1338.0042 " fill="none" id="azure_proxy_resource-to-azure_system_data" style="stroke:#FFAF37;stroke-width:2.0;"/><polygon fill="#FFAF37" points="103.47,1343.34,102.9114,1333.507,101.1835,1338.8935,95.797,1337.1655,103.47,1343.34" style="stroke:#FFAF37;stroke-width:2.0;"/></g><!--reverse link resource to microsoft_resource--><g id="link_resource_microsoft_resource"><path codeLine="96" d="M540.4457,335.7063 C562.5857,432.4463 585.64,533.17 600.63,598.66 " fill="none" id="resource-backto-microsoft_resource" style="stroke:#FFAF37;stroke-width:2.0;"/><polygon fill="none" points="536.43,318.16,534.5969,337.0449,546.2945,334.3678,536.43,318.16" style="stroke:#FFAF37;stroke-width:2.0;"/></g><!--reverse link resource to phantom_resource--><g id="link_resource_phantom_resource"><path codeLine="97" d="M458.5649,335.5376 C443.8449,395.2976 433.08,438.96 425.68,468.96 " fill="none" id="resource-backto-phantom_resource" style="stroke:#FFAF37;stroke-width:2.0;"/><polygon fill="none" points="462.87,318.06,452.7391,334.1026,464.3908,336.9726,462.87,318.06" style="stroke:#FFAF37;stroke-width:2.0;"/></g><!--SRC=[hLHDRzim3BtdLnZeBLY0TjtQPXW6T0M6xL8Cwsv38IWMdGYn98EIqxhR_lieEsiasVbQTqf0Ff6Fxz5SI04PgCercG8r0xGZkvIwuiXLTere7cvCQJ0xAGfUd5-coKz6kxs0MwuW-mpb2fpCUOhulf3vKeErsUiWzP7dopcQMekkl4EkBQL0km1rKt9hhvr3EQiT16J4T7PL52aoBNfoBiukBw07CoW0rv3JqrDnDaqXUrljdFiPSIUV83iBHRir3deqUorQr4wM7X6Gx0twDx-LurSkXDJpx6qG-zPnGWqOnUyMN9W7ZovuQSCsrW62SKq5DxsfO7ebYij1y9Tju57kfSluKut0PhKi1Sjf2dXqsS_HUBp-psgKu_4xAeX4YkB2v4l0GfR0AkuMGUvtL57gWYZe7DggNDAWh49J0Je9jcrHoXNuRMN4pe6ljFrf2w4t29oqFFAHpOrdUFYJ_QEqk7QAH0KA67G-8BMxU9EKKZnVq7jM0aVjAO5UIJHQqSV8LdGofD5incrNcjVEC8JMdAZ5SsJ0lSuxmPdtABOER8woSjGZYeSS_Cf4IQduF8c4SXHolblGZUV-gMLS6zqeKrl_R6OCAQ7N6IHjLY3YXB5zJfkQFYnaxaVYsFpe4AyohfjxxxkBkU_n0c4k2TaCcK9-9C-9n6D3RwofCU_yiWrzTue9xlX6b218a6IMk6G0xRv1sdO7Wl5sdoXCbqL1a9WraIwRS5ypQkEOCa8MSgXYd4xgfacsPGebSpJM52wM1SY6rB-LzAfwrSaaDrIiMd3jZ0fBFUUYyckFHOtSxu6F-A5IoGPYClwgw7gA_jmyp-dS91tQJ5s9DVKWemRwQAvYCqYGRQlR_TxJg0VTqSdamzvhTkpfsTIC3yk_rzbp60O_gFU_9fF9iMVp1Hp3xxItU_-LpCuxSwJu1zOwo833LTifnovABnmZz6ZWsBoKLhA1mtsJRdqQAI9Tfj4V]--></g></svg>