<svg xmlns="http://www.w3.org/2000/svg" width="806" height="1324" viewBox="0 0 806 1324"><rect width="216" height="74.086" x="7" y="991.45" fill="#3D176E" rx="2.5" ry="2.5" style="stroke:#000d19;stroke-width:.5"/><circle cx="22.45" cy="1011.345" r="11" fill="#ADD1B2" style="stroke:#181818;stroke-width:1"/><path d="M25.419 1016.985q-.578.297-1.219.438-.64.156-1.344.156-2.5 0-3.828-1.64-1.312-1.657-1.312-4.782t1.312-4.781q1.328-1.656 3.828-1.656.703 0 1.344.156.656.156 1.219.453v2.719q-.625-.578-1.219-.844-.594-.281-1.219-.281-1.344 0-2.031 1.078-.687 1.062-.687 3.156t.687 3.172q.688 1.062 2.031 1.062.625 0 1.219-.265.594-.281 1.219-.86z"/><text x="41.55" y="1017.23" fill="#D9B8FF" font-family="Helvetica" font-size="17" textLength="173">azure_address_space</text><path d="M8 1031.239h214" style="stroke:#000d19;stroke-width:.5"/><text x="18" y="1053.234" fill="#D9B8FF" font-family="sans-serif" font-size="14" font-weight="bold" textLength="136">address_prefixes</text><text x="154" y="1053.234" fill="#D9B8FF" font-family="sans-serif" font-size="14" textLength="58">: string[]</text><rect width="541" height="152.977" x="258.5" y="952.01" fill="#3D176E" rx="2.5" ry="2.5" style="stroke:#000d19;stroke-width:.5"/><circle cx="439.75" cy="971.904" r="11" fill="#ADD1B2" style="stroke:#181818;stroke-width:1"/><path d="M442.719 977.545q-.578.297-1.219.438-.64.156-1.344.156-2.5 0-3.828-1.64-1.312-1.657-1.312-4.782t1.312-4.781q1.328-1.657 3.828-1.657.703 0 1.344.157.656.156 1.219.453v2.719q-.625-.578-1.219-.844-.594-.281-1.219-.281-1.344 0-2.031 1.078-.687 1.062-.687 3.156t.687 3.172q.688 1.062 2.031 1.062.625 0 1.219-.265.594-.282 1.219-.86z"/><text x="465.25" y="977.79" fill="#D9B8FF" font-family="Helvetica" font-size="17" textLength="160">azure_bgp_settings</text><path d="M259.5 991.799h539" style="stroke:#000d19;stroke-width:.5"/><text x="269.5" y="1013.794" fill="#D9B8FF" font-family="sans-serif" font-size="14" font-weight="bold" textLength="28">asn</text><text x="297.5" y="1013.794" fill="#D9B8FF" font-family="sans-serif" font-size="14" textLength="44">: int64</text><text x="269.5" y="1040.091" fill="#D9B8FF" font-family="sans-serif" font-size="14" font-weight="bold" textLength="169">bgp_peering_address</text><text x="438.5" y="1040.091" fill="#D9B8FF" font-family="sans-serif" font-size="14" textLength="48">: string</text><text x="269.5" y="1066.388" fill="#D9B8FF" font-family="sans-serif" font-size="14" font-weight="bold" textLength="188">bgp_peering_addresses</text><text x="457.5" y="1066.388" fill="#D9B8FF" font-family="sans-serif" font-size="14" textLength="331">: azure_ip_configuration_bgp_peering_address[]</text><text x="269.5" y="1092.685" fill="#D9B8FF" font-family="sans-serif" font-size="14" font-weight="bold" textLength="98">peer_weight</text><text x="367.5" y="1092.685" fill="#D9B8FF" font-family="sans-serif" font-size="14" textLength="44">: int64</text><rect width="415" height="152.977" x="321.5" y="1164.98" fill="#3D176E" rx="2.5" ry="2.5" style="stroke:#000d19;stroke-width:.5"/><circle cx="336.5" cy="1184.874" r="11" fill="#ADD1B2" style="stroke:#181818;stroke-width:1"/><path d="M339.469 1190.515q-.578.297-1.219.438-.64.156-1.344.156-2.5 0-3.828-1.64-1.312-1.657-1.312-4.782t1.312-4.781q1.328-1.657 3.828-1.657.703 0 1.344.157.656.156 1.219.453v2.719q-.625-.579-1.219-.844-.594-.281-1.219-.281-1.344 0-2.031 1.078-.687 1.062-.687 3.156t.687 3.172q.688 1.062 2.031 1.062.625 0 1.219-.265.594-.282 1.219-.86z"/><text x="355.5" y="1190.76" fill="#D9B8FF" font-family="Helvetica" font-size="17" textLength="373">azure_ip_configuration_bgp_peering_address</text><path d="M322.5 1204.769h413" style="stroke:#000d19;stroke-width:.5"/><text x="332.5" y="1226.764" fill="#D9B8FF" font-family="sans-serif" font-size="14" font-weight="bold" textLength="206">custom_bgp_ip_addresses</text><text x="538.5" y="1226.764" fill="#D9B8FF" font-family="sans-serif" font-size="14" textLength="58">: string[]</text><text x="332.5" y="1253.061" fill="#D9B8FF" font-family="sans-serif" font-size="14" font-weight="bold" textLength="203">default_bgp_ip_addresses</text><text x="535.5" y="1253.061" fill="#D9B8FF" font-family="sans-serif" font-size="14" textLength="58">: string[]</text><text x="332.5" y="1279.358" fill="#D9B8FF" font-family="sans-serif" font-size="14" font-weight="bold" textLength="140">ipconfiguration_id</text><text x="472.5" y="1279.358" fill="#D9B8FF" font-family="sans-serif" font-size="14" textLength="48">: string</text><text x="332.5" y="1305.655" fill="#D9B8FF" font-family="sans-serif" font-size="14" font-weight="bold" textLength="161">tunnel_ip_addresses</text><text x="493.5" y="1305.655" fill="#D9B8FF" font-family="sans-serif" font-size="14" textLength="58">: string[]</text><rect width="416" height="231.867" x="114" y="660.14" fill="#3D176E" rx="2.5" ry="2.5" style="stroke:#000d19;stroke-width:.5"/><circle cx="147.9" cy="680.034" r="11" fill="#ADD1B2" style="stroke:#181818;stroke-width:1"/><path d="M150.869 685.675q-.578.297-1.219.438-.64.156-1.344.156-2.5 0-3.828-1.64-1.312-1.657-1.312-4.782t1.312-4.781q1.328-1.657 3.828-1.657.703 0 1.344.157.656.156 1.219.453v2.719q-.625-.579-1.219-.844-.594-.281-1.219-.281-1.344 0-2.031 1.078-.687 1.062-.687 3.156t.687 3.172q.688 1.062 2.031 1.062.625 0 1.219-.265.594-.282 1.219-.86z"/><text x="171.1" y="685.92" fill="#D9B8FF" font-family="Helvetica" font-size="17" textLength="332">azure_network_local_network_gateway</text><path d="M115 699.929h414" style="stroke:#000d19;stroke-width:.5"/><text x="125" y="721.924" fill="#D9B8FF" font-family="sans-serif" font-size="14" font-weight="bold" textLength="101">bgp_settings</text><text x="226" y="721.924" fill="#D9B8FF" font-family="sans-serif" font-size="14" textLength="145">: azure_bgp_settings</text><text x="125" y="748.221" fill="#D9B8FF" font-family="sans-serif" font-size="14" font-weight="bold" textLength="36">fqdn</text><text x="161" y="748.221" fill="#D9B8FF" font-family="sans-serif" font-size="14" textLength="48">: string</text><text x="125" y="774.518" fill="#D9B8FF" font-family="sans-serif" font-size="14" font-weight="bold" textLength="159">gateway_ip_address</text><text x="284" y="774.518" fill="#D9B8FF" font-family="sans-serif" font-size="14" textLength="48">: string</text><text x="125" y="800.815" fill="#D9B8FF" font-family="sans-serif" font-size="14" font-weight="bold" textLength="234">local_network_address_space</text><text x="359" y="800.815" fill="#D9B8FF" font-family="sans-serif" font-size="14" textLength="160">: azure_address_space</text><text x="125" y="827.112" fill="#D9B8FF" font-family="sans-serif" font-size="14" font-weight="bold" textLength="62">location</text><text x="187" y="827.112" fill="#D9B8FF" font-family="sans-serif" font-size="14" textLength="48">: string</text><text x="125" y="853.409" fill="#D9B8FF" font-family="sans-serif" font-size="14" font-weight="bold" textLength="113">resource_guid</text><text x="238" y="853.409" fill="#D9B8FF" font-family="sans-serif" font-size="14" textLength="48">: string</text><text x="125" y="879.705" fill="#D9B8FF" font-family="sans-serif" font-size="14" font-weight="bold" textLength="35">type</text><text x="160" y="879.705" fill="#D9B8FF" font-family="sans-serif" font-size="14" textLength="48">: string</text><rect width="114" height="39.789" x="166" y="469.05" fill="#3D176E" rx="2.5" ry="2.5" style="stroke:#000d19;stroke-width:.5"/><circle cx="181" cy="488.945" r="11" fill="#ADD1B2" style="stroke:#181818;stroke-width:1"/><path d="M183.969 494.585q-.578.297-1.219.438-.64.156-1.344.156-2.5 0-3.828-1.64-1.312-1.657-1.312-4.782t1.312-4.781q1.328-1.656 3.828-1.656.703 0 1.344.156.656.156 1.219.453v2.719q-.625-.579-1.219-.844-.594-.281-1.219-.281-1.344 0-2.031 1.078-.687 1.062-.687 3.156t.687 3.172q.688 1.062 2.031 1.062.625 0 1.219-.265.594-.281 1.219-.86z"/><text x="200" y="494.83" fill="#D9B8FF" font-family="Helvetica" font-size="17" textLength="72">gateway</text><rect width="214" height="100.383" x="315" y="438.76" fill="#3D176E" rx="2.5" ry="2.5" style="stroke:#000d19;stroke-width:.5"/><circle cx="336.3" cy="458.654" r="11" fill="#ADD1B2" style="stroke:#181818;stroke-width:1"/><path d="M339.269 464.295q-.578.297-1.219.438-.64.156-1.344.156-2.5 0-3.828-1.64-1.312-1.657-1.312-4.782t1.312-4.781q1.328-1.656 3.828-1.656.703 0 1.344.156.656.156 1.219.453v2.719q-.625-.579-1.219-.844-.594-.281-1.219-.281-1.344 0-2.031 1.078-.687 1.062-.687 3.156t.687 3.172q.688 1.062 2.031 1.062.625 0 1.219-.265.594-.281 1.219-.86z"/><text x="356.7" y="464.54" fill="#D9B8FF" font-family="Helvetica" font-size="17" textLength="158">microsoft_resource</text><path d="M316 478.549h212" style="stroke:#000d19;stroke-width:.5"/><text x="326" y="500.544" fill="#D9B8FF" font-family="sans-serif" font-size="14" font-weight="bold" textLength="35">etag</text><text x="361" y="500.544" fill="#D9B8FF" font-family="sans-serif" font-size="14" textLength="48">: string</text><text x="326" y="526.841" fill="#D9B8FF" font-family="sans-serif" font-size="14" font-weight="bold" textLength="144">provisioning_state</text><text x="470" y="526.841" fill="#D9B8FF" font-family="sans-serif" font-size="14" textLength="48">: string</text><rect width="227" height="310.758" x="208.5" y="7" fill="#3D176E" rx="2.5" ry="2.5" style="stroke:#000d19;stroke-width:.5"/><circle cx="277.25" cy="26.895" r="11" fill="#ADD1B2" style="stroke:#181818;stroke-width:1"/><path d="M280.219 32.535q-.578.297-1.219.438-.64.156-1.344.156-2.5 0-3.828-1.64-1.312-1.657-1.312-4.782t1.312-4.781q1.328-1.656 3.828-1.656.703 0 1.344.156.656.156 1.219.453v2.719q-.625-.578-1.219-.844-.594-.281-1.219-.281-1.344 0-2.031 1.078-.687 1.062-.687 3.156t.687 3.172q.688 1.062 2.031 1.062.625 0 1.219-.265.594-.281 1.219-.86z"/><text x="302.75" y="32.78" fill="#D9B8FF" font-family="Helvetica" font-size="17" textLength="71">resource</text><path d="M209.5 46.789h225" style="stroke:#000d19;stroke-width:.5"/><text x="219.5" y="68.784" fill="#D9B8FF" font-family="sans-serif" font-size="14" font-weight="bold" textLength="29">age</text><text x="248.5" y="68.784" fill="#D9B8FF" font-family="sans-serif" font-size="14" textLength="66">: duration</text><text x="219.5" y="95.081" fill="#D9B8FF" font-family="sans-serif" font-size="14" font-weight="bold" textLength="43">atime</text><text x="262.5" y="95.081" fill="#D9B8FF" font-family="sans-serif" font-size="14" textLength="70">: datetime</text><text x="219.5" y="121.378" fill="#D9B8FF" font-family="sans-serif" font-size="14" font-weight="bold" textLength="43">ctime</text><text x="262.5" y="121.378" fill="#D9B8FF" font-family="sans-serif" font-size="14" textLength="70">: datetime</text><text x="219.5" y="147.675" fill="#D9B8FF" font-family="sans-serif" font-size="14" font-weight="bold" textLength="14">id</text><text x="233.5" y="147.675" fill="#D9B8FF" font-family="sans-serif" font-size="14" textLength="48">: string</text><text x="219.5" y="173.972" fill="#D9B8FF" font-family="sans-serif" font-size="14" font-weight="bold" textLength="33">kind</text><text x="252.5" y="173.972" fill="#D9B8FF" font-family="sans-serif" font-size="14" textLength="48">: string</text><text x="219.5" y="200.269" fill="#D9B8FF" font-family="sans-serif" font-size="14" font-weight="bold" textLength="90">last_access</text><text x="309.5" y="200.269" fill="#D9B8FF" font-family="sans-serif" font-size="14" textLength="66">: duration</text><text x="219.5" y="226.565" fill="#D9B8FF" font-family="sans-serif" font-size="14" font-weight="bold" textLength="90">last_update</text><text x="309.5" y="226.565" fill="#D9B8FF" font-family="sans-serif" font-size="14" textLength="66">: duration</text><text x="219.5" y="252.862" fill="#D9B8FF" font-family="sans-serif" font-size="14" font-weight="bold" textLength="48">mtime</text><text x="267.5" y="252.862" fill="#D9B8FF" font-family="sans-serif" font-size="14" textLength="70">: datetime</text><text x="219.5" y="279.159" fill="#D9B8FF" font-family="sans-serif" font-size="14" font-weight="bold" textLength="43">name</text><text x="262.5" y="279.159" fill="#D9B8FF" font-family="sans-serif" font-size="14" textLength="48">: string</text><text x="219.5" y="305.456" fill="#D9B8FF" font-family="sans-serif" font-size="14" font-weight="bold" textLength="34">tags</text><text x="253.5" y="305.456" fill="#D9B8FF" font-family="sans-serif" font-size="14" textLength="171">: dictionary[string, string]</text><path fill="none" d="M529 1105.36v53.21" style="stroke:#ffaf37;stroke-width:2"/><path fill="#FFAF37" d="m529 1164.57 4-9-4 4-4-4z" style="stroke:#ffaf37;stroke-width:2"/><path fill="none" d="M226.68 892.39c-29.5 35.68-56.067 67.826-77.687 93.976" style="stroke:#ffaf37;stroke-width:2"/><path fill="#FFAF37" d="m145.17 990.99 8.818-4.388-5.632.534-.534-5.631z" style="stroke:#ffaf37;stroke-width:2"/><path fill="none" d="M417.32 892.39c16.66 20.15 29.777 36.025 45.267 54.765" style="stroke:#ffaf37;stroke-width:2"/><path fill="#FFAF37" d="m466.41 951.78-2.65-9.485-.536 5.631-5.631-.535z" style="stroke:#ffaf37;stroke-width:2"/><path fill="none" d="M235.555 526.104c10.71 30.84 26.675 76.816 46.445 133.756M229.65 509.1l.237 18.972 11.336-3.937zm168.973 47.496c-11.64 33.19-21.493 61.284-36.163 103.124m42.12-120.11-11.619 15 11.324 3.971zM269.568 335.277c-18.23 59.76-31.628 103.673-40.778 133.683m46.03-150.9-10.99 15.466 11.477 3.501z" style="stroke:#ffaf37;stroke-width:2"/><g fill="none"><path d="M374.96 335.262c13.43 43.59 21.79 70.718 31.78 103.158" style="stroke:#ffaf37;stroke-width:2"/><path d="m369.66 318.06-.434 18.969 11.468-3.534z" style="stroke:#ffaf37;stroke-width:2"/></g></svg>