<?xml version="1.0" encoding="us-ascii" standalone="no"?><svg xmlns="http://www.w3.org/2000/svg" xmlns:xlink="http://www.w3.org/1999/xlink" contentStyleType="text/css" height="2508px" preserveAspectRatio="none" style="width:733px;height:2508px;" version="1.1" viewBox="0 0 733 2508" width="733px" zoomAndPan="magnify"><defs/><g><!--class azure_database_identity--><g id="elem_azure_database_identity"><rect codeLine="23" fill="#3D176E" height="126.6797" id="azure_database_identity" rx="2.5" ry="2.5" style="stroke:#000D19;stroke-width:0.5;" width="553" x="7" y="2187.96"/><ellipse cx="172.25" cy="2207.8545" fill="#ADD1B2" rx="11" ry="11" style="stroke:#181818;stroke-width:1.0;"/><path d="M175.2188,2213.4952 Q174.6406,2213.792 174,2213.9327 Q173.3594,2214.0889 172.6563,2214.0889 Q170.1563,2214.0889 168.8281,2212.4483 Q167.5156,2210.792 167.5156,2207.667 Q167.5156,2204.542 168.8281,2202.8858 Q170.1563,2201.2295 172.6563,2201.2295 Q173.3594,2201.2295 174,2201.3858 Q174.6563,2201.542 175.2188,2201.8389 L175.2188,2204.5577 Q174.5938,2203.9795 174,2203.7139 Q173.4063,2203.4327 172.7813,2203.4327 Q171.4375,2203.4327 170.75,2204.5108 Q170.0625,2205.5733 170.0625,2207.667 Q170.0625,2209.7608 170.75,2210.8389 Q171.4375,2211.9014 172.7813,2211.9014 Q173.4063,2211.9014 174,2211.6358 Q174.5938,2211.3545 175.2188,2210.7764 L175.2188,2213.4952 Z " fill="#000000"/><text fill="#D9B8FF" font-family="Helvetica" font-size="17" lengthAdjust="spacing" textLength="204" x="197.75" y="2213.7398">azure_database_identity</text><line style="stroke:#000D19;stroke-width:0.5;" x1="8" x2="559" y1="2227.7491" y2="2227.7491"/><text fill="#D9B8FF" font-family="sans-serif" font-size="14" font-weight="bold" lengthAdjust="spacing" textLength="72" x="18" y="2249.7442">tenant_id</text><text fill="#D9B8FF" font-family="sans-serif" font-size="14" lengthAdjust="spacing" textLength="48" x="90" y="2249.7442">: string</text><text fill="#D9B8FF" font-family="sans-serif" font-size="14" font-weight="bold" lengthAdjust="spacing" textLength="35" x="18" y="2276.0411">type</text><text fill="#D9B8FF" font-family="sans-serif" font-size="14" lengthAdjust="spacing" textLength="48" x="53" y="2276.0411">: string</text><text fill="#D9B8FF" font-family="sans-serif" font-size="14" font-weight="bold" lengthAdjust="spacing" textLength="194" x="18" y="2302.3379">user_assigned_identities</text><text fill="#D9B8FF" font-family="sans-serif" font-size="14" lengthAdjust="spacing" textLength="337" x="212" y="2302.3379">: dictionary[string, azure_database_user_identity]</text></g><!--class azure_database_user_identity--><g id="elem_azure_database_user_identity"><rect codeLine="28" fill="#3D176E" height="100.3828" id="azure_database_user_identity" rx="2.5" ry="2.5" style="stroke:#000D19;stroke-width:0.5;" width="291" x="138" y="2400.94"/><ellipse cx="153" cy="2420.8345" fill="#ADD1B2" rx="11" ry="11" style="stroke:#181818;stroke-width:1.0;"/><path d="M155.9688,2426.4752 Q155.3906,2426.772 154.75,2426.9127 Q154.1094,2427.0689 153.4063,2427.0689 Q150.9063,2427.0689 149.5781,2425.4283 Q148.2656,2423.772 148.2656,2420.647 Q148.2656,2417.522 149.5781,2415.8658 Q150.9063,2414.2095 153.4063,2414.2095 Q154.1094,2414.2095 154.75,2414.3658 Q155.4063,2414.522 155.9688,2414.8189 L155.9688,2417.5377 Q155.3438,2416.9595 154.75,2416.6939 Q154.1563,2416.4127 153.5313,2416.4127 Q152.1875,2416.4127 151.5,2417.4908 Q150.8125,2418.5533 150.8125,2420.647 Q150.8125,2422.7408 151.5,2423.8189 Q152.1875,2424.8814 153.5313,2424.8814 Q154.1563,2424.8814 154.75,2424.6158 Q155.3438,2424.3345 155.9688,2423.7564 L155.9688,2426.4752 Z " fill="#000000"/><text fill="#D9B8FF" font-family="Helvetica" font-size="17" lengthAdjust="spacing" textLength="249" x="172" y="2426.7198">azure_database_user_identity</text><line style="stroke:#000D19;stroke-width:0.5;" x1="139" x2="428" y1="2440.7291" y2="2440.7291"/><text fill="#D9B8FF" font-family="sans-serif" font-size="14" font-weight="bold" lengthAdjust="spacing" textLength="64" x="149" y="2462.7242">client_id</text><text fill="#D9B8FF" font-family="sans-serif" font-size="14" lengthAdjust="spacing" textLength="48" x="213" y="2462.7242">: string</text><text fill="#D9B8FF" font-family="sans-serif" font-size="14" font-weight="bold" lengthAdjust="spacing" textLength="88" x="149" y="2489.0211">principal_id</text><text fill="#D9B8FF" font-family="sans-serif" font-size="14" lengthAdjust="spacing" textLength="48" x="237" y="2489.0211">: string</text></g><!--class azure_sku--><g id="elem_azure_sku"><rect codeLine="32" fill="#3D176E" height="179.2734" id="azure_sku" rx="2.5" ry="2.5" style="stroke:#000D19;stroke-width:0.5;" width="131" x="595" y="2161.66"/><ellipse cx="612.25" cy="2181.5545" fill="#ADD1B2" rx="11" ry="11" style="stroke:#181818;stroke-width:1.0;"/><path d="M615.2188,2187.1952 Q614.6406,2187.492 614,2187.6327 Q613.3594,2187.7889 612.6563,2187.7889 Q610.1563,2187.7889 608.8281,2186.1483 Q607.5156,2184.492 607.5156,2181.367 Q607.5156,2178.242 608.8281,2176.5858 Q610.1563,2174.9295 612.6563,2174.9295 Q613.3594,2174.9295 614,2175.0858 Q614.6563,2175.242 615.2188,2175.5389 L615.2188,2178.2577 Q614.5938,2177.6795 614,2177.4139 Q613.4063,2177.1327 612.7813,2177.1327 Q611.4375,2177.1327 610.75,2178.2108 Q610.0625,2179.2733 610.0625,2181.367 Q610.0625,2183.4608 610.75,2184.5389 Q611.4375,2185.6014 612.7813,2185.6014 Q613.4063,2185.6014 614,2185.3358 Q614.5938,2185.0545 615.2188,2184.4764 L615.2188,2187.1952 Z " fill="#000000"/><text fill="#D9B8FF" font-family="Helvetica" font-size="17" lengthAdjust="spacing" textLength="84" x="631.75" y="2187.4398">azure_sku</text><line style="stroke:#000D19;stroke-width:0.5;" x1="596" x2="725" y1="2201.4491" y2="2201.4491"/><text fill="#D9B8FF" font-family="sans-serif" font-size="14" font-weight="bold" lengthAdjust="spacing" textLength="65" x="606" y="2223.4442">capacity</text><text fill="#D9B8FF" font-family="sans-serif" font-size="14" lengthAdjust="spacing" textLength="44" x="671" y="2223.4442">: int64</text><text fill="#D9B8FF" font-family="sans-serif" font-size="14" font-weight="bold" lengthAdjust="spacing" textLength="46" x="606" y="2249.7411">family</text><text fill="#D9B8FF" font-family="sans-serif" font-size="14" lengthAdjust="spacing" textLength="48" x="652" y="2249.7411">: string</text><text fill="#D9B8FF" font-family="sans-serif" font-size="14" font-weight="bold" lengthAdjust="spacing" textLength="43" x="606" y="2276.0379">name</text><text fill="#D9B8FF" font-family="sans-serif" font-size="14" lengthAdjust="spacing" textLength="48" x="649" y="2276.0379">: string</text><text fill="#D9B8FF" font-family="sans-serif" font-size="14" font-weight="bold" lengthAdjust="spacing" textLength="32" x="606" y="2302.3348">size</text><text fill="#D9B8FF" font-family="sans-serif" font-size="14" lengthAdjust="spacing" textLength="48" x="638" y="2302.3348">: string</text><text fill="#D9B8FF" font-family="sans-serif" font-size="14" font-weight="bold" lengthAdjust="spacing" textLength="27" x="606" y="2328.6317">tier</text><text fill="#D9B8FF" font-family="sans-serif" font-size="14" lengthAdjust="spacing" textLength="48" x="633" y="2328.6317">: string</text></g><!--class azure_sql_server_database--><g id="elem_azure_sql_server_database"><rect codeLine="39" fill="#3D176E" height="1257.4453" id="azure_sql_server_database" rx="2.5" ry="2.5" style="stroke:#000D19;stroke-width:0.5;" width="392" x="275.5" y="844.22"/><ellipse cx="350.75" cy="864.1145" fill="#ADD1B2" rx="11" ry="11" style="stroke:#181818;stroke-width:1.0;"/><path d="M353.7188,869.7552 Q353.1406,870.052 352.5,870.1927 Q351.8594,870.3489 351.1563,870.3489 Q348.6563,870.3489 347.3281,868.7083 Q346.0156,867.052 346.0156,863.927 Q346.0156,860.802 347.3281,859.1458 Q348.6563,857.4895 351.1563,857.4895 Q351.8594,857.4895 352.5,857.6458 Q353.1563,857.802 353.7188,858.0989 L353.7188,860.8177 Q353.0938,860.2395 352.5,859.9739 Q351.9063,859.6927 351.2813,859.6927 Q349.9375,859.6927 349.25,860.7708 Q348.5625,861.8333 348.5625,863.927 Q348.5625,866.0208 349.25,867.0989 Q349.9375,868.1614 351.2813,868.1614 Q351.9063,868.1614 352.5,867.8958 Q353.0938,867.6145 353.7188,867.0364 L353.7188,869.7552 Z " fill="#000000"/><text fill="#D9B8FF" font-family="Helvetica" font-size="17" lengthAdjust="spacing" textLength="223" x="376.25" y="869.9998">azure_sql_server_database</text><line style="stroke:#000D19;stroke-width:0.5;" x1="276.5" x2="666.5" y1="884.0091" y2="884.0091"/><text fill="#D9B8FF" font-family="sans-serif" font-size="14" font-weight="bold" lengthAdjust="spacing" textLength="139" x="286.5" y="906.0042">auto_pause_delay</text><text fill="#D9B8FF" font-family="sans-serif" font-size="14" lengthAdjust="spacing" textLength="44" x="425.5" y="906.0042">: int64</text><text fill="#D9B8FF" font-family="sans-serif" font-size="14" font-weight="bold" lengthAdjust="spacing" textLength="130" x="286.5" y="932.3011">catalog_collation</text><text fill="#D9B8FF" font-family="sans-serif" font-size="14" lengthAdjust="spacing" textLength="48" x="416.5" y="932.3011">: string</text><text fill="#D9B8FF" font-family="sans-serif" font-size="14" font-weight="bold" lengthAdjust="spacing" textLength="66" x="286.5" y="958.5979">collation</text><text fill="#D9B8FF" font-family="sans-serif" font-size="14" lengthAdjust="spacing" textLength="48" x="352.5" y="958.5979">: string</text><text fill="#D9B8FF" font-family="sans-serif" font-size="14" font-weight="bold" lengthAdjust="spacing" textLength="102" x="286.5" y="984.8948">create_mode</text><text fill="#D9B8FF" font-family="sans-serif" font-size="14" lengthAdjust="spacing" textLength="48" x="388.5" y="984.8948">: string</text><text fill="#D9B8FF" font-family="sans-serif" font-size="14" font-weight="bold" lengthAdjust="spacing" textLength="107" x="286.5" y="1011.1917">creation_date</text><text fill="#D9B8FF" font-family="sans-serif" font-size="14" lengthAdjust="spacing" textLength="70" x="393.5" y="1011.1917">: datetime</text><text fill="#D9B8FF" font-family="sans-serif" font-size="14" font-weight="bold" lengthAdjust="spacing" textLength="292" x="286.5" y="1037.4886">current_backup_storage_redundancy</text><text fill="#D9B8FF" font-family="sans-serif" font-size="14" lengthAdjust="spacing" textLength="48" x="578.5" y="1037.4886">: string</text><text fill="#D9B8FF" font-family="sans-serif" font-size="14" font-weight="bold" lengthAdjust="spacing" textLength="253" x="286.5" y="1063.7854">current_service_objective_name</text><text fill="#D9B8FF" font-family="sans-serif" font-size="14" lengthAdjust="spacing" textLength="48" x="539.5" y="1063.7854">: string</text><text fill="#D9B8FF" font-family="sans-serif" font-size="14" font-weight="bold" lengthAdjust="spacing" textLength="94" x="286.5" y="1090.0823">current_sku</text><text fill="#D9B8FF" font-family="sans-serif" font-size="14" lengthAdjust="spacing" textLength="80" x="380.5" y="1090.0823">: azure_sku</text><text fill="#D9B8FF" font-family="sans-serif" font-size="14" font-weight="bold" lengthAdjust="spacing" textLength="93" x="286.5" y="1116.3792">database_id</text><text fill="#D9B8FF" font-family="sans-serif" font-size="14" lengthAdjust="spacing" textLength="48" x="379.5" y="1116.3792">: string</text><text fill="#D9B8FF" font-family="sans-serif" font-size="14" font-weight="bold" lengthAdjust="spacing" textLength="138" x="286.5" y="1142.6761">database_identity</text><text fill="#D9B8FF" font-family="sans-serif" font-size="14" lengthAdjust="spacing" textLength="176" x="424.5" y="1142.6761">: azure_database_identity</text><text fill="#D9B8FF" font-family="sans-serif" font-size="14" font-weight="bold" lengthAdjust="spacing" textLength="112" x="286.5" y="1168.9729">database_kind</text><text fill="#D9B8FF" font-family="sans-serif" font-size="14" lengthAdjust="spacing" textLength="48" x="398.5" y="1168.9729">: string</text><text fill="#D9B8FF" font-family="sans-serif" font-size="14" font-weight="bold" lengthAdjust="spacing" textLength="107" x="286.5" y="1195.2698">database_sku</text><text fill="#D9B8FF" font-family="sans-serif" font-size="14" lengthAdjust="spacing" textLength="80" x="393.5" y="1195.2698">: azure_sku</text><text fill="#D9B8FF" font-family="sans-serif" font-size="14" font-weight="bold" lengthAdjust="spacing" textLength="214" x="286.5" y="1221.5667">default_secondary_location</text><text fill="#D9B8FF" font-family="sans-serif" font-size="14" lengthAdjust="spacing" textLength="48" x="500.5" y="1221.5667">: string</text><text fill="#D9B8FF" font-family="sans-serif" font-size="14" font-weight="bold" lengthAdjust="spacing" textLength="167" x="286.5" y="1247.8636">earliest_restore_date</text><text fill="#D9B8FF" font-family="sans-serif" font-size="14" lengthAdjust="spacing" textLength="70" x="453.5" y="1247.8636">: datetime</text><text fill="#D9B8FF" font-family="sans-serif" font-size="14" font-weight="bold" lengthAdjust="spacing" textLength="113" x="286.5" y="1274.1604">elastic_pool_id</text><text fill="#D9B8FF" font-family="sans-serif" font-size="14" lengthAdjust="spacing" textLength="48" x="399.5" y="1274.1604">: string</text><text fill="#D9B8FF" font-family="sans-serif" font-size="14" font-weight="bold" lengthAdjust="spacing" textLength="134" x="286.5" y="1300.4573">failover_group_id</text><text fill="#D9B8FF" font-family="sans-serif" font-size="14" lengthAdjust="spacing" textLength="48" x="420.5" y="1300.4573">: string</text><text fill="#D9B8FF" font-family="sans-serif" font-size="14" font-weight="bold" lengthAdjust="spacing" textLength="149" x="286.5" y="1326.7542">federated_client_id</text><text fill="#D9B8FF" font-family="sans-serif" font-size="14" lengthAdjust="spacing" textLength="48" x="435.5" y="1326.7542">: string</text><text fill="#D9B8FF" font-family="sans-serif" font-size="14" font-weight="bold" lengthAdjust="spacing" textLength="234" x="286.5" y="1353.0511">high_availability_replica_count</text><text fill="#D9B8FF" font-family="sans-serif" font-size="14" lengthAdjust="spacing" textLength="44" x="520.5" y="1353.0511">: int64</text><text fill="#D9B8FF" font-family="sans-serif" font-size="14" font-weight="bold" lengthAdjust="spacing" textLength="218" x="286.5" y="1379.3479">is_infra_encryption_enabled</text><text fill="#D9B8FF" font-family="sans-serif" font-size="14" lengthAdjust="spacing" textLength="65" x="504.5" y="1379.3479">: boolean</text><text fill="#D9B8FF" font-family="sans-serif" font-size="14" font-weight="bold" lengthAdjust="spacing" textLength="98" x="286.5" y="1405.6448">is_ledger_on</text><text fill="#D9B8FF" font-family="sans-serif" font-size="14" lengthAdjust="spacing" textLength="65" x="384.5" y="1405.6448">: boolean</text><text fill="#D9B8FF" font-family="sans-serif" font-size="14" font-weight="bold" lengthAdjust="spacing" textLength="98" x="286.5" y="1431.9417">license_type</text><text fill="#D9B8FF" font-family="sans-serif" font-size="14" lengthAdjust="spacing" textLength="48" x="384.5" y="1431.9417">: string</text><text fill="#D9B8FF" font-family="sans-serif" font-size="14" font-weight="bold" lengthAdjust="spacing" textLength="62" x="286.5" y="1458.2386">location</text><text fill="#D9B8FF" font-family="sans-serif" font-size="14" lengthAdjust="spacing" textLength="48" x="348.5" y="1458.2386">: string</text><text fill="#D9B8FF" font-family="sans-serif" font-size="14" font-weight="bold" lengthAdjust="spacing" textLength="322" x="286.5" y="1484.5354">long_term_retention_backup_resource_id</text><text fill="#D9B8FF" font-family="sans-serif" font-size="14" lengthAdjust="spacing" textLength="48" x="608.5" y="1484.5354">: string</text><text fill="#D9B8FF" font-family="sans-serif" font-size="14" font-weight="bold" lengthAdjust="spacing" textLength="234" x="286.5" y="1510.8323">maintenance_configuration_id</text><text fill="#D9B8FF" font-family="sans-serif" font-size="14" lengthAdjust="spacing" textLength="48" x="520.5" y="1510.8323">: string</text><text fill="#D9B8FF" font-family="sans-serif" font-size="14" font-weight="bold" lengthAdjust="spacing" textLength="98" x="286.5" y="1537.1292">managed_by</text><text fill="#D9B8FF" font-family="sans-serif" font-size="14" lengthAdjust="spacing" textLength="48" x="384.5" y="1537.1292">: string</text><text fill="#D9B8FF" font-family="sans-serif" font-size="14" font-weight="bold" lengthAdjust="spacing" textLength="153" x="286.5" y="1563.4261">max_log_size_bytes</text><text fill="#D9B8FF" font-family="sans-serif" font-size="14" lengthAdjust="spacing" textLength="44" x="439.5" y="1563.4261">: int64</text><text fill="#D9B8FF" font-family="sans-serif" font-size="14" font-weight="bold" lengthAdjust="spacing" textLength="122" x="286.5" y="1589.7229">max_size_bytes</text><text fill="#D9B8FF" font-family="sans-serif" font-size="14" lengthAdjust="spacing" textLength="44" x="408.5" y="1589.7229">: int64</text><text fill="#D9B8FF" font-family="sans-serif" font-size="14" font-weight="bold" lengthAdjust="spacing" textLength="100" x="286.5" y="1616.0198">min_capacity</text><text fill="#D9B8FF" font-family="sans-serif" font-size="14" lengthAdjust="spacing" textLength="57" x="386.5" y="1616.0198">: double</text><text fill="#D9B8FF" font-family="sans-serif" font-size="14" font-weight="bold" lengthAdjust="spacing" textLength="100" x="286.5" y="1642.3167">paused_date</text><text fill="#D9B8FF" font-family="sans-serif" font-size="14" lengthAdjust="spacing" textLength="70" x="386.5" y="1642.3167">: datetime</text><text fill="#D9B8FF" font-family="sans-serif" font-size="14" font-weight="bold" lengthAdjust="spacing" textLength="84" x="286.5" y="1668.6136">read_scale</text><text fill="#D9B8FF" font-family="sans-serif" font-size="14" lengthAdjust="spacing" textLength="48" x="370.5" y="1668.6136">: string</text><text fill="#D9B8FF" font-family="sans-serif" font-size="14" font-weight="bold" lengthAdjust="spacing" textLength="195" x="286.5" y="1694.9104">recoverable_database_id</text><text fill="#D9B8FF" font-family="sans-serif" font-size="14" lengthAdjust="spacing" textLength="48" x="481.5" y="1694.9104">: string</text><text fill="#D9B8FF" font-family="sans-serif" font-size="14" font-weight="bold" lengthAdjust="spacing" textLength="291" x="286.5" y="1721.2073">recovery_services_recovery_point_id</text><text fill="#D9B8FF" font-family="sans-serif" font-size="14" lengthAdjust="spacing" textLength="48" x="577.5" y="1721.2073">: string</text><text fill="#D9B8FF" font-family="sans-serif" font-size="14" font-weight="bold" lengthAdjust="spacing" textLength="315" x="286.5" y="1747.5042">requested_backup_storage_redundancy</text><text fill="#D9B8FF" font-family="sans-serif" font-size="14" lengthAdjust="spacing" textLength="48" x="601.5" y="1747.5042">: string</text><text fill="#D9B8FF" font-family="sans-serif" font-size="14" font-weight="bold" lengthAdjust="spacing" textLength="276" x="286.5" y="1773.8011">requested_service_objective_name</text><text fill="#D9B8FF" font-family="sans-serif" font-size="14" lengthAdjust="spacing" textLength="48" x="562.5" y="1773.8011">: string</text><text fill="#D9B8FF" font-family="sans-serif" font-size="14" font-weight="bold" lengthAdjust="spacing" textLength="256" x="286.5" y="1800.0979">restorable_dropped_database_id</text><text fill="#D9B8FF" font-family="sans-serif" font-size="14" lengthAdjust="spacing" textLength="48" x="542.5" y="1800.0979">: string</text><text fill="#D9B8FF" font-family="sans-serif" font-size="14" font-weight="bold" lengthAdjust="spacing" textLength="168" x="286.5" y="1826.3948">restore_point_in_time</text><text fill="#D9B8FF" font-family="sans-serif" font-size="14" lengthAdjust="spacing" textLength="70" x="454.5" y="1826.3948">: datetime</text><text fill="#D9B8FF" font-family="sans-serif" font-size="14" font-weight="bold" lengthAdjust="spacing" textLength="112" x="286.5" y="1852.6917">resumed_date</text><text fill="#D9B8FF" font-family="sans-serif" font-size="14" lengthAdjust="spacing" textLength="70" x="398.5" y="1852.6917">: datetime</text><text fill="#D9B8FF" font-family="sans-serif" font-size="14" font-weight="bold" lengthAdjust="spacing" textLength="106" x="286.5" y="1878.9886">sample_name</text><text fill="#D9B8FF" font-family="sans-serif" font-size="14" lengthAdjust="spacing" textLength="48" x="392.5" y="1878.9886">: string</text><text fill="#D9B8FF" font-family="sans-serif" font-size="14" font-weight="bold" lengthAdjust="spacing" textLength="125" x="286.5" y="1905.2854">secondary_type</text><text fill="#D9B8FF" font-family="sans-serif" font-size="14" lengthAdjust="spacing" textLength="48" x="411.5" y="1905.2854">: string</text><text fill="#D9B8FF" font-family="sans-serif" font-size="14" font-weight="bold" lengthAdjust="spacing" textLength="247" x="286.5" y="1931.5823">source_database_deletion_date</text><text fill="#D9B8FF" font-family="sans-serif" font-size="14" lengthAdjust="spacing" textLength="70" x="533.5" y="1931.5823">: datetime</text><text fill="#D9B8FF" font-family="sans-serif" font-size="14" font-weight="bold" lengthAdjust="spacing" textLength="155" x="286.5" y="1957.8792">source_database_id</text><text fill="#D9B8FF" font-family="sans-serif" font-size="14" lengthAdjust="spacing" textLength="48" x="441.5" y="1957.8792">: string</text><text fill="#D9B8FF" font-family="sans-serif" font-size="14" font-weight="bold" lengthAdjust="spacing" textLength="155" x="286.5" y="1984.1761">source_resource_id</text><text fill="#D9B8FF" font-family="sans-serif" font-size="14" lengthAdjust="spacing" textLength="48" x="441.5" y="1984.1761">: string</text><text fill="#D9B8FF" font-family="sans-serif" font-size="14" font-weight="bold" lengthAdjust="spacing" textLength="49" x="286.5" y="2010.4729">status</text><text fill="#D9B8FF" font-family="sans-serif" font-size="14" lengthAdjust="spacing" textLength="48" x="335.5" y="2010.4729">: string</text><text fill="#D9B8FF" font-family="sans-serif" font-size="14" font-weight="bold" lengthAdjust="spacing" textLength="282" x="286.5" y="2036.7698">transparent_data_encryption_status</text><text fill="#D9B8FF" font-family="sans-serif" font-size="14" lengthAdjust="spacing" textLength="48" x="568.5" y="2036.7698">: string</text><text fill="#D9B8FF" font-family="sans-serif" font-size="14" font-weight="bold" lengthAdjust="spacing" textLength="35" x="286.5" y="2063.0667">type</text><text fill="#D9B8FF" font-family="sans-serif" font-size="14" lengthAdjust="spacing" textLength="48" x="321.5" y="2063.0667">: string</text><text fill="#D9B8FF" font-family="sans-serif" font-size="14" font-weight="bold" lengthAdjust="spacing" textLength="128" x="286.5" y="2089.3636">zone_redundant</text><text fill="#D9B8FF" font-family="sans-serif" font-size="14" lengthAdjust="spacing" textLength="65" x="414.5" y="2089.3636">: boolean</text></g><!--class database--><g id="elem_database"><rect codeLine="87" fill="#3D176E" height="284.4609" id="database" rx="2.5" ry="2.5" style="stroke:#000D19;stroke-width:0.5;" width="287" x="186" y="438.76"/><ellipse cx="282.75" cy="458.6545" fill="#ADD1B2" rx="11" ry="11" style="stroke:#181818;stroke-width:1.0;"/><path d="M285.7188,464.2952 Q285.1406,464.592 284.5,464.7327 Q283.8594,464.8889 283.1563,464.8889 Q280.6563,464.8889 279.3281,463.2483 Q278.0156,461.592 278.0156,458.467 Q278.0156,455.342 279.3281,453.6858 Q280.6563,452.0295 283.1563,452.0295 Q283.8594,452.0295 284.5,452.1858 Q285.1563,452.342 285.7188,452.6389 L285.7188,455.3577 Q285.0938,454.7795 284.5,454.5139 Q283.9063,454.2327 283.2813,454.2327 Q281.9375,454.2327 281.25,455.3108 Q280.5625,456.3733 280.5625,458.467 Q280.5625,460.5608 281.25,461.6389 Q281.9375,462.7014 283.2813,462.7014 Q283.9063,462.7014 284.5,462.4358 Q285.0938,462.1545 285.7188,461.5764 L285.7188,464.2952 Z " fill="#000000"/><text fill="#D9B8FF" font-family="Helvetica" font-size="17" lengthAdjust="spacing" textLength="75" x="308.25" y="464.5398">database</text><line style="stroke:#000D19;stroke-width:0.5;" x1="187" x2="472" y1="478.5491" y2="478.5491"/><text fill="#D9B8FF" font-family="sans-serif" font-size="14" font-weight="bold" lengthAdjust="spacing" textLength="97" x="197" y="500.5442">db_endpoint</text><text fill="#D9B8FF" font-family="sans-serif" font-size="14" lengthAdjust="spacing" textLength="48" x="294" y="500.5442">: string</text><text fill="#D9B8FF" font-family="sans-serif" font-size="14" font-weight="bold" lengthAdjust="spacing" textLength="177" x="197" y="526.8411">db_publicly_accessible</text><text fill="#D9B8FF" font-family="sans-serif" font-size="14" lengthAdjust="spacing" textLength="65" x="374" y="526.8411">: boolean</text><text fill="#D9B8FF" font-family="sans-serif" font-size="14" font-weight="bold" lengthAdjust="spacing" textLength="76" x="197" y="553.1379">db_status</text><text fill="#D9B8FF" font-family="sans-serif" font-size="14" lengthAdjust="spacing" textLength="189" x="273" y="553.1379">: database_instance_status</text><text fill="#D9B8FF" font-family="sans-serif" font-size="14" font-weight="bold" lengthAdjust="spacing" textLength="62" x="197" y="579.4348">db_type</text><text fill="#D9B8FF" font-family="sans-serif" font-size="14" lengthAdjust="spacing" textLength="48" x="259" y="579.4348">: string</text><text fill="#D9B8FF" font-family="sans-serif" font-size="14" font-weight="bold" lengthAdjust="spacing" textLength="86" x="197" y="605.7317">db_version</text><text fill="#D9B8FF" font-family="sans-serif" font-size="14" lengthAdjust="spacing" textLength="48" x="283" y="605.7317">: string</text><text fill="#D9B8FF" font-family="sans-serif" font-size="14" font-weight="bold" lengthAdjust="spacing" textLength="109" x="197" y="632.0286">instance_type</text><text fill="#D9B8FF" font-family="sans-serif" font-size="14" lengthAdjust="spacing" textLength="48" x="306" y="632.0286">: string</text><text fill="#D9B8FF" font-family="sans-serif" font-size="14" font-weight="bold" lengthAdjust="spacing" textLength="145" x="197" y="658.3254">volume_encrypted</text><text fill="#D9B8FF" font-family="sans-serif" font-size="14" lengthAdjust="spacing" textLength="65" x="342" y="658.3254">: boolean</text><text fill="#D9B8FF" font-family="sans-serif" font-size="14" font-weight="bold" lengthAdjust="spacing" textLength="97" x="197" y="684.6223">volume_iops</text><text fill="#D9B8FF" font-family="sans-serif" font-size="14" lengthAdjust="spacing" textLength="44" x="294" y="684.6223">: int64</text><text fill="#D9B8FF" font-family="sans-serif" font-size="14" font-weight="bold" lengthAdjust="spacing" textLength="96" x="197" y="710.9192">volume_size</text><text fill="#D9B8FF" font-family="sans-serif" font-size="14" lengthAdjust="spacing" textLength="44" x="293" y="710.9192">: int64</text></g><!--class microsoft_resource--><g id="elem_microsoft_resource"><rect codeLine="98" fill="#3D176E" height="100.3828" id="microsoft_resource" rx="2.5" ry="2.5" style="stroke:#000D19;stroke-width:0.5;" width="214" x="507.5" y="530.8"/><ellipse cx="528.8" cy="550.6945" fill="#ADD1B2" rx="11" ry="11" style="stroke:#181818;stroke-width:1.0;"/><path d="M531.7688,556.3352 Q531.1906,556.632 530.55,556.7727 Q529.9094,556.9289 529.2063,556.9289 Q526.7063,556.9289 525.3781,555.2883 Q524.0656,553.632 524.0656,550.507 Q524.0656,547.382 525.3781,545.7258 Q526.7063,544.0695 529.2063,544.0695 Q529.9094,544.0695 530.55,544.2258 Q531.2063,544.382 531.7688,544.6789 L531.7688,547.3977 Q531.1438,546.8195 530.55,546.5539 Q529.9563,546.2727 529.3313,546.2727 Q527.9875,546.2727 527.3,547.3508 Q526.6125,548.4133 526.6125,550.507 Q526.6125,552.6008 527.3,553.6789 Q527.9875,554.7414 529.3313,554.7414 Q529.9563,554.7414 530.55,554.4758 Q531.1438,554.1945 531.7688,553.6164 L531.7688,556.3352 Z " fill="#000000"/><text fill="#D9B8FF" font-family="Helvetica" font-size="17" lengthAdjust="spacing" textLength="158" x="549.2" y="556.5798">microsoft_resource</text><line style="stroke:#000D19;stroke-width:0.5;" x1="508.5" x2="720.5" y1="570.5891" y2="570.5891"/><text fill="#D9B8FF" font-family="sans-serif" font-size="14" font-weight="bold" lengthAdjust="spacing" textLength="35" x="518.5" y="592.5842">etag</text><text fill="#D9B8FF" font-family="sans-serif" font-size="14" lengthAdjust="spacing" textLength="48" x="553.5" y="592.5842">: string</text><text fill="#D9B8FF" font-family="sans-serif" font-size="14" font-weight="bold" lengthAdjust="spacing" textLength="144" x="518.5" y="618.8811">provisioning_state</text><text fill="#D9B8FF" font-family="sans-serif" font-size="14" lengthAdjust="spacing" textLength="48" x="662.5" y="618.8811">: string</text></g><!--class resource--><g id="elem_resource"><rect codeLine="102" fill="#3D176E" height="310.7578" id="resource" rx="2.5" ry="2.5" style="stroke:#000D19;stroke-width:0.5;" width="227" x="358" y="7"/><ellipse cx="426.75" cy="26.8945" fill="#ADD1B2" rx="11" ry="11" style="stroke:#181818;stroke-width:1.0;"/><path d="M429.7188,32.5352 Q429.1406,32.832 428.5,32.9727 Q427.8594,33.1289 427.1563,33.1289 Q424.6563,33.1289 423.3281,31.4883 Q422.0156,29.832 422.0156,26.707 Q422.0156,23.582 423.3281,21.9258 Q424.6563,20.2695 427.1563,20.2695 Q427.8594,20.2695 428.5,20.4258 Q429.1563,20.582 429.7188,20.8789 L429.7188,23.5977 Q429.0938,23.0195 428.5,22.7539 Q427.9063,22.4727 427.2813,22.4727 Q425.9375,22.4727 425.25,23.5508 Q424.5625,24.6133 424.5625,26.707 Q424.5625,28.8008 425.25,29.8789 Q425.9375,30.9414 427.2813,30.9414 Q427.9063,30.9414 428.5,30.6758 Q429.0938,30.3945 429.7188,29.8164 L429.7188,32.5352 Z " fill="#000000"/><text fill="#D9B8FF" font-family="Helvetica" font-size="17" lengthAdjust="spacing" textLength="71" x="452.25" y="32.7798">resource</text><line style="stroke:#000D19;stroke-width:0.5;" x1="359" x2="584" y1="46.7891" y2="46.7891"/><text fill="#D9B8FF" font-family="sans-serif" font-size="14" font-weight="bold" lengthAdjust="spacing" textLength="29" x="369" y="68.7842">age</text><text fill="#D9B8FF" font-family="sans-serif" font-size="14" lengthAdjust="spacing" textLength="66" x="398" y="68.7842">: duration</text><text fill="#D9B8FF" font-family="sans-serif" font-size="14" font-weight="bold" lengthAdjust="spacing" textLength="43" x="369" y="95.0811">atime</text><text fill="#D9B8FF" font-family="sans-serif" font-size="14" lengthAdjust="spacing" textLength="70" x="412" y="95.0811">: datetime</text><text fill="#D9B8FF" font-family="sans-serif" font-size="14" font-weight="bold" lengthAdjust="spacing" textLength="43" x="369" y="121.3779">ctime</text><text fill="#D9B8FF" font-family="sans-serif" font-size="14" lengthAdjust="spacing" textLength="70" x="412" y="121.3779">: datetime</text><text fill="#D9B8FF" font-family="sans-serif" font-size="14" font-weight="bold" lengthAdjust="spacing" textLength="14" x="369" y="147.6748">id</text><text fill="#D9B8FF" font-family="sans-serif" font-size="14" lengthAdjust="spacing" textLength="48" x="383" y="147.6748">: string</text><text fill="#D9B8FF" font-family="sans-serif" font-size="14" font-weight="bold" lengthAdjust="spacing" textLength="33" x="369" y="173.9717">kind</text><text fill="#D9B8FF" font-family="sans-serif" font-size="14" lengthAdjust="spacing" textLength="48" x="402" y="173.9717">: string</text><text fill="#D9B8FF" font-family="sans-serif" font-size="14" font-weight="bold" lengthAdjust="spacing" textLength="90" x="369" y="200.2686">last_access</text><text fill="#D9B8FF" font-family="sans-serif" font-size="14" lengthAdjust="spacing" textLength="66" x="459" y="200.2686">: duration</text><text fill="#D9B8FF" font-family="sans-serif" font-size="14" font-weight="bold" lengthAdjust="spacing" textLength="90" x="369" y="226.5654">last_update</text><text fill="#D9B8FF" font-family="sans-serif" font-size="14" lengthAdjust="spacing" textLength="66" x="459" y="226.5654">: duration</text><text fill="#D9B8FF" font-family="sans-serif" font-size="14" font-weight="bold" lengthAdjust="spacing" textLength="48" x="369" y="252.8623">mtime</text><text fill="#D9B8FF" font-family="sans-serif" font-size="14" lengthAdjust="spacing" textLength="70" x="417" y="252.8623">: datetime</text><text fill="#D9B8FF" font-family="sans-serif" font-size="14" font-weight="bold" lengthAdjust="spacing" textLength="43" x="369" y="279.1592">name</text><text fill="#D9B8FF" font-family="sans-serif" font-size="14" lengthAdjust="spacing" textLength="48" x="412" y="279.1592">: string</text><text fill="#D9B8FF" font-family="sans-serif" font-size="14" font-weight="bold" lengthAdjust="spacing" textLength="34" x="369" y="305.4561">tags</text><text fill="#D9B8FF" font-family="sans-serif" font-size="14" lengthAdjust="spacing" textLength="171" x="403" y="305.4561">: dictionary[string, string]</text></g><!--link azure_database_identity to azure_database_user_identity--><g id="link_azure_database_identity_azure_database_user_identity"><path codeLine="114" d="M283.5,2314.89 C283.5,2342.51 283.5,2368.52 283.5,2394.46 " fill="none" id="azure_database_identity-to-azure_database_user_identity" style="stroke:#FFAF37;stroke-width:2.0;"/><polygon fill="#FFAF37" points="283.5,2400.46,287.5,2391.46,283.5,2395.46,279.5,2391.46,283.5,2400.46" style="stroke:#FFAF37;stroke-width:2.0;"/></g><!--link azure_sql_server_database to azure_database_identity--><g id="link_azure_sql_server_database_azure_database_identity"><path codeLine="115" d="M319.41,2101.99 C311.42,2134.99 305.7603,2158.3481 300.0603,2181.9181 " fill="none" id="azure_sql_server_database-to-azure_database_identity" style="stroke:#FFAF37;stroke-width:2.0;"/><polygon fill="#FFAF37" points="298.65,2187.75,304.6534,2179.9424,299.8253,2182.8901,296.8776,2178.0619,298.65,2187.75" style="stroke:#FFAF37;stroke-width:2.0;"/></g><!--link azure_sql_server_database to azure_sku--><g id="link_azure_sql_server_database_azure_sku"><path codeLine="116" d="M624.39,2101.99 C629.64,2123.53 633.0718,2137.62 637.4018,2155.42 " fill="none" id="azure_sql_server_database-to-azure_sku" style="stroke:#FFAF37;stroke-width:2.0;"/><polygon fill="#FFAF37" points="638.82,2161.25,640.5794,2151.5596,637.6382,2156.3917,632.8061,2153.4505,638.82,2161.25" style="stroke:#FFAF37;stroke-width:2.0;"/></g><!--reverse link database to azure_sql_server_database--><g id="link_database_azure_sql_server_database"><path codeLine="117" d="M354.9151,741.2753 C360.6251,777.0753 364.3,800.1 371.27,843.76 " fill="none" id="database-backto-azure_sql_server_database" style="stroke:#FFAF37;stroke-width:2.0;"/><polygon fill="none" points="352.08,723.5,348.99,742.2204,360.8402,740.3303,352.08,723.5" style="stroke:#FFAF37;stroke-width:2.0;"/></g><!--reverse link microsoft_resource to azure_sql_server_database--><g id="link_microsoft_resource_azure_sql_server_database"><path codeLine="118" d="M603.7035,649.1919 C596.1235,696.3519 586.63,755.41 572.41,843.95 " fill="none" id="microsoft_resource-backto-azure_sql_server_database" style="stroke:#FFAF37;stroke-width:2.0;"/><polygon fill="none" points="606.56,631.42,597.7796,648.2397,609.6275,650.1441,606.56,631.42" style="stroke:#FFAF37;stroke-width:2.0;"/></g><!--reverse link resource to database--><g id="link_resource_database"><path codeLine="119" d="M412.9198,335.2465 C399.4998,374.5965 390.97,399.64 377.8,438.29 " fill="none" id="resource-backto-database" style="stroke:#FFAF37;stroke-width:2.0;"/><polygon fill="none" points="418.73,318.21,407.241,333.3098,418.5987,337.1832,418.73,318.21" style="stroke:#FFAF37;stroke-width:2.0;"/></g><!--reverse link resource to microsoft_resource--><g id="link_resource_microsoft_resource"><path codeLine="120" d="M530.4938,335.235 C556.2338,410.225 579.53,478.11 597.46,530.36 " fill="none" id="resource-backto-microsoft_resource" style="stroke:#FFAF37;stroke-width:2.0;"/><polygon fill="none" points="524.65,318.21,524.8188,337.1829,536.1688,333.2871,524.65,318.21" style="stroke:#FFAF37;stroke-width:2.0;"/></g><!--SRC=[bLPDZzms3BtFhp2Gsw83x3PjDbiK1T85YlOI54rlHI3G4krHHvOKIPvqjkr_B-LlMVPkUXeC-KIHZu-qJb9WWOqDrwB1faJd3_uijGK7JV7EEVFvqIZZYbTL1TNh-xNp9wF3Yu3tq63nCweB1ibXZVZz9FbPe_V5rmlNZy3FjJEj5dtuu41xSg4E2zIZ0k_VXU1asGPS92CUohTLjKQkWxvwBUxkts06CqwW6o2tjxVYxc4DUV6gP-kU41_a4nPtIzBUcu1PcjaL7UhPB2DYaMHMwEZVpV5N44BgklXsOVkjpybfT8dzmmc4-HpH5IY_lCO7T6Z2rU9ZLXK-l1NL_IRubptmWKVg2dXg7J810Khmo4Z3EaYIyD-7cvk06dGWsytDTnJIKLhHIb4JG-lHCOebQurYZ23HHv2GF4YZmLt_wF5VhM_iJe_NVZpykvrNWkgIuqfYdfobNoujgDIHHlNdjWy15ZZ5Yq2fmvjlo5P18zKrYQcfiOd1azPIIYIw_Ti-AKRPNwY0iPpkTcY3OHQeCYPGGP859w0oDUD6AOW49jVjM1r2GDOOWRcTmF7spXD_Wsmm-beNzm0hIIIjPJuO1pKoXuBq0fgdH8peM8tao4pv9r9xByWoYYRekOtsYNToBRIM7CaqE1_CN4iuYNudqDRbM46hOWdSK8NkofJXEPS8ZkJb0p4HES4jxgXddYQTMMFKkfOAf3Anut7oREP5MZSKIB1j4PzaVM9meHXGIaNbKXfMqL8XFRGwB8KYFPEwSi1GStUrNPzfQak5NSYISaFGFP1iDQNKbpfxA31gOYkRwqrcbD4re-tIK4uXDeCk7DH3N9dMyQon3L2sSPMGYrYlPDswNf4PK9Fw12klA_DVB0v373loXNwpZ0n4xuv7QhOSSM5QuYKkYJXqOgkdD2g2UGugPSAHMgYRaLQs9zy1SnsdmxF9OetCc-pmKqlYYkL-qV3D-2yOlrwsVRxEMDjNkvDth_0XISqY5Hajlcss6VFGMBMHmJnWcQu6bKm9qVR3lGMrngwI7znxolC1GklJLJs_Vhgeoy7PWg-JVp9wRb5OJjAuzPCbBqgwG7JSfZkgP9RKABcwCk2a5Y_BNdJpO19cpcXcG9CnZbBlwt5PccGZwVdrz4w7imCNewZ58nlhxJ5ufR79X0tcyNlOcqSU6icTyQOAKtiwHZ10lVfacukCcTBVhYZS-9Gc8MXAEag6DH8j6wBb6xQLFh9FHrpfGpzMDtIUrauIdJtDnZtPE53HU- -X_ZU-VFRUOiVZ3y- -Xmxx3usDe__hLFngJkRl_paUZ_klciD6nrywiWBksVF8X_y0]--></g></svg>