<svg xmlns="http://www.w3.org/2000/svg" width="277" height="252" viewBox="0 0 277 252"><rect width="188" height="39.789" x="7" y="106.79" fill="#3D176E" rx="2.5" ry="2.5" style="stroke:#000d19;stroke-width:.5"/><circle cx="22" cy="126.684" r="11" fill="#ADD1B2" style="stroke:#181818;stroke-width:1"/><path d="M24.969 132.325q-.578.297-1.219.438-.64.156-1.344.156-2.5 0-3.828-1.64-1.312-1.657-1.312-4.782t1.312-4.781q1.328-1.656 3.828-1.656.703 0 1.344.156.656.156 1.219.453v2.719q-.625-.579-1.219-.844-.594-.281-1.219-.281-1.343 0-2.031 1.078-.687 1.062-.687 3.156t.687 3.172q.688 1.062 2.031 1.062.625 0 1.219-.265.594-.281 1.219-.86z"/><text x="41" y="132.57" fill="#D9B8FF" font-family="Helvetica" font-size="17" textLength="146">aws_rds_instance</text><rect width="193" height="39.789" x="77.5" y="206.58" fill="#3D176E" rx="2.5" ry="2.5" style="stroke:#000d19;stroke-width:.5"/><circle cx="92.5" cy="226.475" r="11" fill="#ADD1B2" style="stroke:#181818;stroke-width:1"/><path d="M95.469 232.115q-.578.297-1.219.438-.64.156-1.344.156-2.5 0-3.828-1.64-1.312-1.657-1.312-4.782t1.312-4.781q1.328-1.656 3.828-1.656.703 0 1.344.156.656.156 1.219.453v2.719q-.625-.578-1.219-.844-.594-.281-1.219-.281-1.344 0-2.031 1.078-.687 1.062-.687 3.156t.687 3.172q.688 1.062 2.031 1.062.625 0 1.219-.265.594-.281 1.219-.86z"/><text x="111.5" y="232.36" fill="#D9B8FF" font-family="Helvetica" font-size="17" textLength="151">aws_rds_snapshot</text><rect width="112" height="39.789" x="118" y="7" fill="#3D176E" rx="2.5" ry="2.5" style="stroke:#000d19;stroke-width:.5"/><circle cx="133" cy="26.895" r="11" fill="#ADD1B2" style="stroke:#181818;stroke-width:1"/><path d="M135.969 32.535q-.578.297-1.219.438-.64.156-1.344.156-2.5 0-3.828-1.64-1.312-1.657-1.312-4.782t1.312-4.781q1.328-1.656 3.828-1.656.703 0 1.344.156.656.156 1.219.453v2.719q-.625-.578-1.219-.844-.594-.281-1.219-.281-1.344 0-2.031 1.078-.687 1.062-.687 3.156t.687 3.172q.688 1.062 2.031 1.062.625 0 1.219-.265.594-.281 1.219-.86z"/><text x="152" y="32.78" fill="#D9B8FF" font-family="Helvetica" font-size="17" textLength="70">aws_vpc</text><path fill="none" d="M115.42 147.01c12.8 17.14 27.812 37.241 40.602 54.381" style="stroke:#1a83af;stroke-width:2"/><path fill="#1A83AF" d="m159.61 206.2-2.177-9.605-.813 5.598-5.598-.814z" style="stroke:#1a83af;stroke-width:2"/><path fill="none" d="M159.58 47.22c-12.8 17.14-27.812 37.241-40.602 54.381" style="stroke:#1a83af;stroke-width:2"/><path fill="#1A83AF" d="m115.39 106.41 8.588-4.82-5.598.813-.813-5.598z" style="stroke:#1a83af;stroke-width:2"/><path fill="none" d="M186.28 47.09c9.12 15.44 20.78 38.06 25.72 59.7 3.94 17.24 3.94 22.55 0 39.79-4.94 21.64-13.548 39.094-22.668 54.534" style="stroke:#1a83af;stroke-width:2"/><path fill="#1A83AF" d="m186.28 206.28 8.021-5.715-5.478 1.41-1.41-5.478z" style="stroke:#1a83af;stroke-width:2"/></svg>