<svg xmlns="http://www.w3.org/2000/svg" width="2138" height="1982" viewBox="0 0 2138 1982"><rect width="554" height="757.805" x="803" y="978.3" fill="#3D176E" rx="2.5" ry="2.5" style="stroke:#000d19;stroke-width:.5"/><circle cx="953.25" cy="998.194" r="11" fill="#ADD1B2" style="stroke:#181818;stroke-width:1"/><path d="M956.219 1003.835q-.578.297-1.219.438-.64.156-1.344.156-2.5 0-3.828-1.64-1.312-1.657-1.312-4.782t1.312-4.781q1.328-1.657 3.828-1.657.703 0 1.344.157.656.156 1.219.453v2.719q-.625-.579-1.219-.844-.594-.281-1.219-.281-1.343 0-2.031 1.078-.687 1.062-.687 3.156t.687 3.172q.688 1.062 2.031 1.062.625 0 1.219-.265.594-.282 1.219-.86z"/><text x="978.75" y="1004.08" fill="#D9B8FF" font-family="Helvetica" font-size="17" textLength="235">azure_recommended_action</text><path d="M804 1018.089h552" style="stroke:#000d19;stroke-width:.5"/><text x="814" y="1040.084" fill="#D9B8FF" font-family="sans-serif" font-size="14" font-weight="bold" textLength="100">error_details</text><text x="914" y="1040.084" fill="#D9B8FF" font-family="sans-serif" font-size="14" textLength="278">: azure_recommended_action_error_info</text><text x="814" y="1066.381" fill="#D9B8FF" font-family="sans-serif" font-size="14" font-weight="bold" textLength="137">estimated_impact</text><text x="951" y="1066.381" fill="#D9B8FF" font-family="sans-serif" font-size="14" textLength="321">: azure_recommended_action_impact_record[]</text><text x="814" y="1092.678" fill="#D9B8FF" font-family="sans-serif" font-size="14" font-weight="bold" textLength="192">execute_action_duration</text><text x="1006" y="1092.678" fill="#D9B8FF" font-family="sans-serif" font-size="14" textLength="48">: string</text><text x="814" y="1118.975" fill="#D9B8FF" font-family="sans-serif" font-size="14" font-weight="bold" textLength="215">execute_action_initiated_by</text><text x="1029" y="1118.975" fill="#D9B8FF" font-family="sans-serif" font-size="14" textLength="48">: string</text><text x="814" y="1145.272" fill="#D9B8FF" font-family="sans-serif" font-size="14" font-weight="bold" textLength="230">execute_action_initiated_time</text><text x="1044" y="1145.272" fill="#D9B8FF" font-family="sans-serif" font-size="14" textLength="70">: datetime</text><text x="814" y="1171.569" fill="#D9B8FF" font-family="sans-serif" font-size="14" font-weight="bold" textLength="204">execute_action_start_time</text><text x="1018" y="1171.569" fill="#D9B8FF" font-family="sans-serif" font-size="14" textLength="70">: datetime</text><text x="814" y="1197.865" fill="#D9B8FF" font-family="sans-serif" font-size="14" font-weight="bold" textLength="14">id</text><text x="828" y="1197.865" fill="#D9B8FF" font-family="sans-serif" font-size="14" textLength="48">: string</text><text x="814" y="1224.162" fill="#D9B8FF" font-family="sans-serif" font-size="14" font-weight="bold" textLength="180">implementation_details</text><text x="994" y="1224.162" fill="#D9B8FF" font-family="sans-serif" font-size="14" textLength="352">: azure_recommended_action_implementation_info</text><text x="814" y="1250.459" fill="#D9B8FF" font-family="sans-serif" font-size="14" font-weight="bold" textLength="143">is_archived_action</text><text x="957" y="1250.459" fill="#D9B8FF" font-family="sans-serif" font-size="14" textLength="65">: boolean</text><text x="814" y="1276.756" fill="#D9B8FF" font-family="sans-serif" font-size="14" font-weight="bold" textLength="162">is_executable_action</text><text x="976" y="1276.756" fill="#D9B8FF" font-family="sans-serif" font-size="14" textLength="65">: boolean</text><text x="814" y="1303.053" fill="#D9B8FF" font-family="sans-serif" font-size="14" font-weight="bold" textLength="157">is_revertable_action</text><text x="971" y="1303.053" fill="#D9B8FF" font-family="sans-serif" font-size="14" textLength="65">: boolean</text><text x="814" y="1329.35" fill="#D9B8FF" font-family="sans-serif" font-size="14" font-weight="bold" textLength="94">last_refresh</text><text x="908" y="1329.35" fill="#D9B8FF" font-family="sans-serif" font-size="14" textLength="70">: datetime</text><text x="814" y="1355.647" fill="#D9B8FF" font-family="sans-serif" font-size="14" font-weight="bold" textLength="112">linked_objects</text><text x="926" y="1355.647" fill="#D9B8FF" font-family="sans-serif" font-size="14" textLength="58">: string[]</text><text x="814" y="1381.944" fill="#D9B8FF" font-family="sans-serif" font-size="14" font-weight="bold" textLength="43">name</text><text x="857" y="1381.944" fill="#D9B8FF" font-family="sans-serif" font-size="14" textLength="48">: string</text><text x="814" y="1408.24" fill="#D9B8FF" font-family="sans-serif" font-size="14" font-weight="bold" textLength="134">observed_impact</text><text x="948" y="1408.24" fill="#D9B8FF" font-family="sans-serif" font-size="14" textLength="321">: azure_recommended_action_impact_record[]</text><text x="814" y="1434.537" fill="#D9B8FF" font-family="sans-serif" font-size="14" font-weight="bold" textLength="195">recommendation_reason</text><text x="1009" y="1434.537" fill="#D9B8FF" font-family="sans-serif" font-size="14" textLength="48">: string</text><text x="814" y="1460.834" fill="#D9B8FF" font-family="sans-serif" font-size="14" font-weight="bold" textLength="228">recommended_action_details</text><text x="1042" y="1460.834" fill="#D9B8FF" font-family="sans-serif" font-size="14" textLength="156">: dictionary[string, any]</text><text x="814" y="1487.131" fill="#D9B8FF" font-family="sans-serif" font-size="14" font-weight="bold" textLength="209">recommended_action_kind</text><text x="1023" y="1487.131" fill="#D9B8FF" font-family="sans-serif" font-size="14" textLength="48">: string</text><text x="814" y="1513.428" fill="#D9B8FF" font-family="sans-serif" font-size="14" font-weight="bold" textLength="177">revert_action_duration</text><text x="991" y="1513.428" fill="#D9B8FF" font-family="sans-serif" font-size="14" textLength="48">: string</text><text x="814" y="1539.725" fill="#D9B8FF" font-family="sans-serif" font-size="14" font-weight="bold" textLength="200">revert_action_initiated_by</text><text x="1014" y="1539.725" fill="#D9B8FF" font-family="sans-serif" font-size="14" textLength="48">: string</text><text x="814" y="1566.022" fill="#D9B8FF" font-family="sans-serif" font-size="14" font-weight="bold" textLength="215">revert_action_initiated_time</text><text x="1029" y="1566.022" fill="#D9B8FF" font-family="sans-serif" font-size="14" textLength="70">: datetime</text><text x="814" y="1592.319" fill="#D9B8FF" font-family="sans-serif" font-size="14" font-weight="bold" textLength="189">revert_action_start_time</text><text x="1003" y="1592.319" fill="#D9B8FF" font-family="sans-serif" font-size="14" textLength="70">: datetime</text><text x="814" y="1618.615" fill="#D9B8FF" font-family="sans-serif" font-size="14" font-weight="bold" textLength="45">score</text><text x="859" y="1618.615" fill="#D9B8FF" font-family="sans-serif" font-size="14" textLength="44">: int64</text><text x="814" y="1644.912" fill="#D9B8FF" font-family="sans-serif" font-size="14" font-weight="bold" textLength="40">state</text><text x="854" y="1644.912" fill="#D9B8FF" font-family="sans-serif" font-size="14" textLength="280">: azure_recommended_action_state_info</text><text x="814" y="1671.209" fill="#D9B8FF" font-family="sans-serif" font-size="14" font-weight="bold" textLength="90">time_series</text><text x="904" y="1671.209" fill="#D9B8FF" font-family="sans-serif" font-size="14" textLength="298">: azure_recommended_action_metric_info[]</text><text x="814" y="1697.506" fill="#D9B8FF" font-family="sans-serif" font-size="14" font-weight="bold" textLength="35">type</text><text x="849" y="1697.506" fill="#D9B8FF" font-family="sans-serif" font-size="14" textLength="48">: string</text><text x="814" y="1723.803" fill="#D9B8FF" font-family="sans-serif" font-size="14" font-weight="bold" textLength="85">valid_since</text><text x="899" y="1723.803" fill="#D9B8FF" font-family="sans-serif" font-size="14" textLength="70">: datetime</text><rect width="368" height="100.383" x="7" y="1835.55" fill="#3D176E" rx="2.5" ry="2.5" style="stroke:#000d19;stroke-width:.5"/><circle cx="22" cy="1855.445" r="11" fill="#ADD1B2" style="stroke:#181818;stroke-width:1"/><path d="M24.969 1861.085q-.578.297-1.219.438-.64.156-1.344.156-2.5 0-3.828-1.64-1.312-1.657-1.312-4.782t1.312-4.781q1.328-1.657 3.828-1.657.703 0 1.344.157.656.156 1.219.453v2.719q-.625-.578-1.219-.844-.594-.281-1.219-.281-1.343 0-2.031 1.078-.687 1.062-.687 3.156t.687 3.172q.688 1.062 2.031 1.062.625 0 1.219-.265.594-.282 1.219-.86z"/><text x="41" y="1861.33" fill="#D9B8FF" font-family="Helvetica" font-size="17" textLength="326">azure_recommended_action_error_info</text><path d="M8 1875.339h366" style="stroke:#000d19;stroke-width:.5"/><text x="18" y="1897.334" fill="#D9B8FF" font-family="sans-serif" font-size="14" font-weight="bold" textLength="87">error_code</text><text x="105" y="1897.334" fill="#D9B8FF" font-family="sans-serif" font-size="14" textLength="48">: string</text><text x="18" y="1923.631" fill="#D9B8FF" font-family="sans-serif" font-size="14" font-weight="bold" textLength="92">is_retryable</text><text x="110" y="1923.631" fill="#D9B8FF" font-family="sans-serif" font-size="14" textLength="48">: string</text><rect width="404" height="179.273" x="410" y="1796.11" fill="#3D176E" rx="2.5" ry="2.5" style="stroke:#000d19;stroke-width:.5"/><circle cx="425" cy="1816.005" r="11" fill="#ADD1B2" style="stroke:#181818;stroke-width:1"/><path d="M427.969 1821.645q-.578.297-1.219.438-.64.156-1.344.156-2.5 0-3.828-1.64-1.312-1.657-1.312-4.782t1.312-4.781q1.328-1.657 3.828-1.657.703 0 1.344.157.656.156 1.219.453v2.719q-.625-.579-1.219-.844-.594-.281-1.219-.281-1.344 0-2.031 1.078-.687 1.062-.687 3.156t.687 3.172q.688 1.062 2.031 1.062.625 0 1.219-.265.594-.282 1.219-.86z"/><text x="444" y="1821.89" fill="#D9B8FF" font-family="Helvetica" font-size="17" textLength="362">azure_recommended_action_impact_record</text><path d="M411 1835.899h402" style="stroke:#000d19;stroke-width:.5"/><text x="421" y="1857.894" fill="#D9B8FF" font-family="sans-serif" font-size="14" font-weight="bold" textLength="117">absolute_value</text><text x="538" y="1857.894" fill="#D9B8FF" font-family="sans-serif" font-size="14" textLength="57">: double</text><text x="421" y="1884.191" fill="#D9B8FF" font-family="sans-serif" font-size="14" font-weight="bold" textLength="182">change_value_absolute</text><text x="603" y="1884.191" fill="#D9B8FF" font-family="sans-serif" font-size="14" textLength="57">: double</text><text x="421" y="1910.488" fill="#D9B8FF" font-family="sans-serif" font-size="14" font-weight="bold" textLength="173">change_value_relative</text><text x="594" y="1910.488" fill="#D9B8FF" font-family="sans-serif" font-size="14" textLength="57">: double</text><text x="421" y="1936.785" fill="#D9B8FF" font-family="sans-serif" font-size="14" font-weight="bold" textLength="131">dimension_name</text><text x="552" y="1936.785" fill="#D9B8FF" font-family="sans-serif" font-size="14" textLength="48">: string</text><text x="421" y="1963.082" fill="#D9B8FF" font-family="sans-serif" font-size="14" font-weight="bold" textLength="30">unit</text><text x="451" y="1963.082" fill="#D9B8FF" font-family="sans-serif" font-size="14" textLength="48">: string</text><rect width="462" height="100.383" x="849" y="1835.55" fill="#3D176E" rx="2.5" ry="2.5" style="stroke:#000d19;stroke-width:.5"/><circle cx="864" cy="1855.445" r="11" fill="#ADD1B2" style="stroke:#181818;stroke-width:1"/><path d="M866.969 1861.085q-.578.297-1.219.438-.64.156-1.344.156-2.5 0-3.828-1.64-1.312-1.657-1.312-4.782t1.312-4.781q1.328-1.657 3.828-1.657.703 0 1.344.157.656.156 1.219.453v2.719q-.625-.578-1.219-.844-.594-.281-1.219-.281-1.343 0-2.031 1.078-.687 1.062-.687 3.156t.687 3.172q.688 1.062 2.031 1.062.625 0 1.219-.265.594-.282 1.219-.86z"/><text x="883" y="1861.33" fill="#D9B8FF" font-family="Helvetica" font-size="17" textLength="420">azure_recommended_action_implementation_info</text><path d="M850 1875.339h460" style="stroke:#000d19;stroke-width:.5"/><text x="860" y="1897.334" fill="#D9B8FF" font-family="sans-serif" font-size="14" font-weight="bold" textLength="60">method</text><text x="920" y="1897.334" fill="#D9B8FF" font-family="sans-serif" font-size="14" textLength="48">: string</text><text x="860" y="1923.631" fill="#D9B8FF" font-family="sans-serif" font-size="14" font-weight="bold" textLength="45">script</text><text x="905" y="1923.631" fill="#D9B8FF" font-family="sans-serif" font-size="14" textLength="48">: string</text><rect width="381" height="179.273" x="1346.5" y="1796.11" fill="#3D176E" rx="2.5" ry="2.5" style="stroke:#000d19;stroke-width:.5"/><circle cx="1361.5" cy="1816.005" r="11" fill="#ADD1B2" style="stroke:#181818;stroke-width:1"/><path d="M1364.469 1821.645q-.578.297-1.219.438-.64.156-1.344.156-2.5 0-3.828-1.64-1.312-1.657-1.312-4.782t1.312-4.781q1.328-1.657 3.828-1.657.703 0 1.344.157.656.156 1.219.453v2.719q-.625-.579-1.219-.844-.594-.281-1.219-.281-1.343 0-2.031 1.078-.687 1.062-.687 3.156t.687 3.172q.688 1.062 2.031 1.062.625 0 1.219-.265.594-.282 1.219-.86z"/><text x="1380.5" y="1821.89" fill="#D9B8FF" font-family="Helvetica" font-size="17" textLength="339">azure_recommended_action_metric_info</text><path d="M1347.5 1835.899h379" style="stroke:#000d19;stroke-width:.5"/><text x="1357.5" y="1857.894" fill="#D9B8FF" font-family="sans-serif" font-size="14" font-weight="bold" textLength="100">metric_name</text><text x="1457.5" y="1857.894" fill="#D9B8FF" font-family="sans-serif" font-size="14" textLength="48">: string</text><text x="1357.5" y="1884.191" fill="#D9B8FF" font-family="sans-serif" font-size="14" font-weight="bold" textLength="78">start_time</text><text x="1435.5" y="1884.191" fill="#D9B8FF" font-family="sans-serif" font-size="14" textLength="70">: datetime</text><text x="1357.5" y="1910.488" fill="#D9B8FF" font-family="sans-serif" font-size="14" font-weight="bold" textLength="81">time_grain</text><text x="1438.5" y="1910.488" fill="#D9B8FF" font-family="sans-serif" font-size="14" textLength="48">: string</text><text x="1357.5" y="1936.785" fill="#D9B8FF" font-family="sans-serif" font-size="14" font-weight="bold" textLength="30">unit</text><text x="1387.5" y="1936.785" fill="#D9B8FF" font-family="sans-serif" font-size="14" textLength="48">: string</text><text x="1357.5" y="1963.082" fill="#D9B8FF" font-family="sans-serif" font-size="14" font-weight="bold" textLength="42">value</text><text x="1399.5" y="1963.082" fill="#D9B8FF" font-family="sans-serif" font-size="14" textLength="57">: double</text><rect width="369" height="126.68" x="1762.5" y="1822.4" fill="#3D176E" rx="2.5" ry="2.5" style="stroke:#000d19;stroke-width:.5"/><circle cx="1777.5" cy="1842.294" r="11" fill="#ADD1B2" style="stroke:#181818;stroke-width:1"/><path d="M1780.469 1847.935q-.578.297-1.219.438-.64.156-1.344.156-2.5 0-3.828-1.64-1.312-1.657-1.312-4.782t1.312-4.781q1.328-1.657 3.828-1.657.703 0 1.344.157.656.156 1.219.453v2.719q-.625-.579-1.219-.844-.594-.281-1.219-.281-1.343 0-2.031 1.078-.687 1.062-.687 3.156t.687 3.172q.688 1.062 2.031 1.062.625 0 1.219-.265.594-.282 1.219-.86z"/><text x="1796.5" y="1848.18" fill="#D9B8FF" font-family="Helvetica" font-size="17" textLength="327">azure_recommended_action_state_info</text><path d="M1763.5 1862.189h367" style="stroke:#000d19;stroke-width:.5"/><text x="1773.5" y="1884.184" fill="#D9B8FF" font-family="sans-serif" font-size="14" font-weight="bold" textLength="144">action_initiated_by</text><text x="1917.5" y="1884.184" fill="#D9B8FF" font-family="sans-serif" font-size="14" textLength="48">: string</text><text x="1773.5" y="1910.481" fill="#D9B8FF" font-family="sans-serif" font-size="14" font-weight="bold" textLength="108">current_value</text><text x="1881.5" y="1910.481" fill="#D9B8FF" font-family="sans-serif" font-size="14" textLength="48">: string</text><text x="1773.5" y="1936.778" fill="#D9B8FF" font-family="sans-serif" font-size="14" font-weight="bold" textLength="103">last_modified</text><text x="1876.5" y="1936.778" fill="#D9B8FF" font-family="sans-serif" font-size="14" textLength="70">: datetime</text><rect width="416" height="258.164" x="872" y="660.14" fill="#3D176E" rx="2.5" ry="2.5" style="stroke:#000d19;stroke-width:.5"/><circle cx="966.75" cy="680.034" r="11" fill="#ADD1B2" style="stroke:#181818;stroke-width:1"/><path d="M969.719 685.675q-.578.297-1.219.438-.64.156-1.344.156-2.5 0-3.828-1.64-1.312-1.657-1.312-4.782t1.312-4.781q1.328-1.657 3.828-1.657.703 0 1.344.157.656.156 1.219.453v2.719q-.625-.579-1.219-.844-.594-.281-1.219-.281-1.343 0-2.031 1.078-.687 1.062-.687 3.156t.687 3.172q.688 1.062 2.031 1.062.625 0 1.219-.265.594-.282 1.219-.86z"/><text x="992.25" y="685.92" fill="#D9B8FF" font-family="Helvetica" font-size="17" textLength="208">azure_sql_server_advisor</text><path d="M873 699.929h414" style="stroke:#000d19;stroke-width:.5"/><text x="883" y="721.924" fill="#D9B8FF" font-family="sans-serif" font-size="14" font-weight="bold" textLength="98">advisor_kind</text><text x="981" y="721.924" fill="#D9B8FF" font-family="sans-serif" font-size="14" textLength="48">: string</text><text x="883" y="748.221" fill="#D9B8FF" font-family="sans-serif" font-size="14" font-weight="bold" textLength="114">advisor_status</text><text x="997" y="748.221" fill="#D9B8FF" font-family="sans-serif" font-size="14" textLength="48">: string</text><text x="883" y="774.518" fill="#D9B8FF" font-family="sans-serif" font-size="14" font-weight="bold" textLength="162">auto_execute_status</text><text x="1045" y="774.518" fill="#D9B8FF" font-family="sans-serif" font-size="14" textLength="48">: string</text><text x="883" y="800.815" fill="#D9B8FF" font-family="sans-serif" font-size="14" font-weight="bold" textLength="284">auto_execute_status_inherited_from</text><text x="1167" y="800.815" fill="#D9B8FF" font-family="sans-serif" font-size="14" textLength="48">: string</text><text x="883" y="827.112" fill="#D9B8FF" font-family="sans-serif" font-size="14" font-weight="bold" textLength="102">last_checked</text><text x="985" y="827.112" fill="#D9B8FF" font-family="sans-serif" font-size="14" textLength="70">: datetime</text><text x="883" y="853.409" fill="#D9B8FF" font-family="sans-serif" font-size="14" font-weight="bold" textLength="198">recommendations_status</text><text x="1081" y="853.409" fill="#D9B8FF" font-family="sans-serif" font-size="14" textLength="48">: string</text><text x="883" y="879.705" fill="#D9B8FF" font-family="sans-serif" font-size="14" font-weight="bold" textLength="178">recommended_actions</text><text x="1061" y="879.705" fill="#D9B8FF" font-family="sans-serif" font-size="14" textLength="216">: azure_recommended_action[]</text><text x="883" y="906.002" fill="#D9B8FF" font-family="sans-serif" font-size="14" font-weight="bold" textLength="35">type</text><text x="918" y="906.002" fill="#D9B8FF" font-family="sans-serif" font-size="14" textLength="48">: string</text><rect width="214" height="100.383" x="973" y="438.75" fill="#3D176E" rx="2.5" ry="2.5" style="stroke:#000d19;stroke-width:.5"/><circle cx="994.3" cy="458.644" r="11" fill="#ADD1B2" style="stroke:#181818;stroke-width:1"/><path d="M997.269 464.285q-.578.297-1.219.438-.64.156-1.344.156-2.5 0-3.828-1.64-1.312-1.657-1.312-4.782t1.312-4.781q1.328-1.656 3.828-1.656.703 0 1.344.156.656.156 1.219.453v2.719q-.625-.579-1.219-.844-.594-.281-1.219-.281-1.344 0-2.031 1.078-.687 1.062-.687 3.156t.687 3.172q.688 1.062 2.031 1.062.625 0 1.219-.265.594-.281 1.219-.86z"/><text x="1014.7" y="464.53" fill="#D9B8FF" font-family="Helvetica" font-size="17" textLength="158">microsoft_resource</text><path d="M974 478.539h212" style="stroke:#000d19;stroke-width:.5"/><text x="984" y="500.534" fill="#D9B8FF" font-family="sans-serif" font-size="14" font-weight="bold" textLength="35">etag</text><text x="1019" y="500.534" fill="#D9B8FF" font-family="sans-serif" font-size="14" textLength="48">: string</text><text x="984" y="526.831" fill="#D9B8FF" font-family="sans-serif" font-size="14" font-weight="bold" textLength="144">provisioning_state</text><text x="1128" y="526.831" fill="#D9B8FF" font-family="sans-serif" font-size="14" textLength="48">: string</text><rect width="227" height="310.758" x="966.5" y="7" fill="#3D176E" rx="2.5" ry="2.5" style="stroke:#000d19;stroke-width:.5"/><circle cx="1035.25" cy="26.895" r="11" fill="#ADD1B2" style="stroke:#181818;stroke-width:1"/><path d="M1038.219 32.535q-.578.297-1.219.438-.64.156-1.344.156-2.5 0-3.828-1.64-1.312-1.657-1.312-4.782t1.312-4.781q1.328-1.656 3.828-1.656.703 0 1.344.156.656.156 1.219.453v2.719q-.625-.578-1.219-.844-.594-.281-1.219-.281-1.343 0-2.031 1.078-.687 1.062-.687 3.156t.687 3.172q.688 1.062 2.031 1.062.625 0 1.219-.265.594-.281 1.219-.86z"/><text x="1060.75" y="32.78" fill="#D9B8FF" font-family="Helvetica" font-size="17" textLength="71">resource</text><path d="M967.5 46.789h225" style="stroke:#000d19;stroke-width:.5"/><text x="977.5" y="68.784" fill="#D9B8FF" font-family="sans-serif" font-size="14" font-weight="bold" textLength="29">age</text><text x="1006.5" y="68.784" fill="#D9B8FF" font-family="sans-serif" font-size="14" textLength="66">: duration</text><text x="977.5" y="95.081" fill="#D9B8FF" font-family="sans-serif" font-size="14" font-weight="bold" textLength="43">atime</text><text x="1020.5" y="95.081" fill="#D9B8FF" font-family="sans-serif" font-size="14" textLength="70">: datetime</text><text x="977.5" y="121.378" fill="#D9B8FF" font-family="sans-serif" font-size="14" font-weight="bold" textLength="43">ctime</text><text x="1020.5" y="121.378" fill="#D9B8FF" font-family="sans-serif" font-size="14" textLength="70">: datetime</text><text x="977.5" y="147.675" fill="#D9B8FF" font-family="sans-serif" font-size="14" font-weight="bold" textLength="14">id</text><text x="991.5" y="147.675" fill="#D9B8FF" font-family="sans-serif" font-size="14" textLength="48">: string</text><text x="977.5" y="173.972" fill="#D9B8FF" font-family="sans-serif" font-size="14" font-weight="bold" textLength="33">kind</text><text x="1010.5" y="173.972" fill="#D9B8FF" font-family="sans-serif" font-size="14" textLength="48">: string</text><text x="977.5" y="200.269" fill="#D9B8FF" font-family="sans-serif" font-size="14" font-weight="bold" textLength="90">last_access</text><text x="1067.5" y="200.269" fill="#D9B8FF" font-family="sans-serif" font-size="14" textLength="66">: duration</text><text x="977.5" y="226.565" fill="#D9B8FF" font-family="sans-serif" font-size="14" font-weight="bold" textLength="90">last_update</text><text x="1067.5" y="226.565" fill="#D9B8FF" font-family="sans-serif" font-size="14" textLength="66">: duration</text><text x="977.5" y="252.862" fill="#D9B8FF" font-family="sans-serif" font-size="14" font-weight="bold" textLength="48">mtime</text><text x="1025.5" y="252.862" fill="#D9B8FF" font-family="sans-serif" font-size="14" textLength="70">: datetime</text><text x="977.5" y="279.159" fill="#D9B8FF" font-family="sans-serif" font-size="14" font-weight="bold" textLength="43">name</text><text x="1020.5" y="279.159" fill="#D9B8FF" font-family="sans-serif" font-size="14" textLength="48">: string</text><text x="977.5" y="305.456" fill="#D9B8FF" font-family="sans-serif" font-size="14" font-weight="bold" textLength="34">tags</text><text x="1011.5" y="305.456" fill="#D9B8FF" font-family="sans-serif" font-size="14" textLength="171">: dictionary[string, string]</text><path fill="none" d="M802.68 1522.46c-182.16 107.88-402.987 238.682-522.797 309.642" style="stroke:#ffaf37;stroke-width:2"/><path fill="#FFAF37" d="m274.72 1835.16 9.782-1.145-5.48-1.403 1.403-5.48z" style="stroke:#ffaf37;stroke-width:2"/><path fill="none" d="M802.69 1670.2c-40.7 45.79-75.604 85.055-107.524 120.966" style="stroke:#ffaf37;stroke-width:2"/><path fill="#FFAF37" d="m691.18 1795.65 8.969-4.07-5.647.333-.332-5.647z" style="stroke:#ffaf37;stroke-width:2"/><path fill="none" d="M1080 1736.32v92.91" style="stroke:#ffaf37;stroke-width:2"/><path fill="#FFAF37" d="m1080 1835.23 4-9-4 4-4-4z" style="stroke:#ffaf37;stroke-width:2"/><path fill="none" d="M1357.37 1677.77c37.34 43.03 68.917 79.419 98.357 113.339" style="stroke:#ffaf37;stroke-width:2"/><path fill="#FFAF37" d="m1459.66 1795.64-2.878-9.419-.4 5.643-5.642-.4z" style="stroke:#ffaf37;stroke-width:2"/><path fill="none" d="M1357.3 1526.61c165.85 100.73 361.782 219.716 481.112 292.186" style="stroke:#ffaf37;stroke-width:2"/><path fill="#FFAF37" d="m1843.54 1821.91-5.616-8.09 1.342 5.495-5.495 1.342z" style="stroke:#ffaf37;stroke-width:2"/><path fill="none" d="M1080 918.65v53.38" style="stroke:#ffaf37;stroke-width:2"/><path fill="#FFAF37" d="m1080 978.03 4-9-4 4-4-4z" style="stroke:#ffaf37;stroke-width:2"/><path fill="none" d="M1080 557.54v102.13m0-120.13-6 18h12zm0-203.48v102.36m0-120.36-6 18h12z" style="stroke:#ffaf37;stroke-width:2"/></svg>