<?xml version="1.0" encoding="us-ascii" standalone="no"?><svg xmlns="http://www.w3.org/2000/svg" xmlns:xlink="http://www.w3.org/1999/xlink" contentStyleType="text/css" height="1188px" preserveAspectRatio="none" style="width:730px;height:1188px;" version="1.1" viewBox="0 0 730 1188" width="730px" zoomAndPan="magnify"><defs/><g><!--class aws_ec2_volume_type--><g id="elem_aws_ec2_volume_type"><rect codeLine="23" fill="#3D176E" height="39.7891" id="aws_ec2_volume_type" rx="2.5" ry="2.5" style="stroke:#000D19;stroke-width:0.5;" width="231" x="7" y="1142.51"/><ellipse cx="22" cy="1162.4045" fill="#ADD1B2" rx="11" ry="11" style="stroke:#181818;stroke-width:1.0;"/><path d="M24.9688,1168.0452 Q24.3906,1168.342 23.75,1168.4827 Q23.1094,1168.6389 22.4063,1168.6389 Q19.9063,1168.6389 18.5781,1166.9983 Q17.2656,1165.342 17.2656,1162.217 Q17.2656,1159.092 18.5781,1157.4358 Q19.9063,1155.7795 22.4063,1155.7795 Q23.1094,1155.7795 23.75,1155.9358 Q24.4063,1156.092 24.9688,1156.3889 L24.9688,1159.1077 Q24.3438,1158.5295 23.75,1158.2639 Q23.1563,1157.9827 22.5313,1157.9827 Q21.1875,1157.9827 20.5,1159.0608 Q19.8125,1160.1233 19.8125,1162.217 Q19.8125,1164.3108 20.5,1165.3889 Q21.1875,1166.4514 22.5313,1166.4514 Q23.1563,1166.4514 23.75,1166.1858 Q24.3438,1165.9045 24.9688,1165.3264 L24.9688,1168.0452 Z " fill="#000000"/><text fill="#D9B8FF" font-family="Helvetica" font-size="17" lengthAdjust="spacing" textLength="189" x="41" y="1168.2898">aws_ec2_volume_type</text></g><!--class azure_compute_disk_type--><g id="elem_azure_compute_disk_type"><rect codeLine="26" fill="#3D176E" height="39.7891" id="azure_compute_disk_type" rx="2.5" ry="2.5" style="stroke:#000D19;stroke-width:0.5;" width="258" x="272.5" y="1142.51"/><ellipse cx="287.5" cy="1162.4045" fill="#ADD1B2" rx="11" ry="11" style="stroke:#181818;stroke-width:1.0;"/><path d="M290.4688,1168.0452 Q289.8906,1168.342 289.25,1168.4827 Q288.6094,1168.6389 287.9063,1168.6389 Q285.4063,1168.6389 284.0781,1166.9983 Q282.7656,1165.342 282.7656,1162.217 Q282.7656,1159.092 284.0781,1157.4358 Q285.4063,1155.7795 287.9063,1155.7795 Q288.6094,1155.7795 289.25,1155.9358 Q289.9063,1156.092 290.4688,1156.3889 L290.4688,1159.1077 Q289.8438,1158.5295 289.25,1158.2639 Q288.6563,1157.9827 288.0313,1157.9827 Q286.6875,1157.9827 286,1159.0608 Q285.3125,1160.1233 285.3125,1162.217 Q285.3125,1164.3108 286,1165.3889 Q286.6875,1166.4514 288.0313,1166.4514 Q288.6563,1166.4514 289.25,1166.1858 Q289.8438,1165.9045 290.4688,1165.3264 L290.4688,1168.0452 Z " fill="#000000"/><text fill="#D9B8FF" font-family="Helvetica" font-size="17" lengthAdjust="spacing" textLength="216" x="306.5" y="1168.2898">azure_compute_disk_type</text></g><!--class gcp_disk_type--><g id="elem_gcp_disk_type"><rect codeLine="29" fill="#3D176E" height="39.7891" id="gcp_disk_type" rx="2.5" ry="2.5" style="stroke:#000D19;stroke-width:0.5;" width="158" x="565.5" y="1142.51"/><ellipse cx="580.5" cy="1162.4045" fill="#ADD1B2" rx="11" ry="11" style="stroke:#181818;stroke-width:1.0;"/><path d="M583.4688,1168.0452 Q582.8906,1168.342 582.25,1168.4827 Q581.6094,1168.6389 580.9063,1168.6389 Q578.4063,1168.6389 577.0781,1166.9983 Q575.7656,1165.342 575.7656,1162.217 Q575.7656,1159.092 577.0781,1157.4358 Q578.4063,1155.7795 580.9063,1155.7795 Q581.6094,1155.7795 582.25,1155.9358 Q582.9063,1156.092 583.4688,1156.3889 L583.4688,1159.1077 Q582.8438,1158.5295 582.25,1158.2639 Q581.6563,1157.9827 581.0313,1157.9827 Q579.6875,1157.9827 579,1159.0608 Q578.3125,1160.1233 578.3125,1162.217 Q578.3125,1164.3108 579,1165.3889 Q579.6875,1166.4514 581.0313,1166.4514 Q581.6563,1166.4514 582.25,1166.1858 Q582.8438,1165.9045 583.4688,1165.3264 L583.4688,1168.0452 Z " fill="#000000"/><text fill="#D9B8FF" font-family="Helvetica" font-size="17" lengthAdjust="spacing" textLength="116" x="599.5" y="1168.2898">gcp_disk_type</text></g><!--class phantom_resource--><g id="elem_phantom_resource"><rect codeLine="32" fill="#3D176E" height="39.7891" id="phantom_resource" rx="2.5" ry="2.5" style="stroke:#000D19;stroke-width:0.5;" width="198" x="302.5" y="438.76"/><ellipse cx="317.5" cy="458.6545" fill="#ADD1B2" rx="11" ry="11" style="stroke:#181818;stroke-width:1.0;"/><path d="M320.4688,464.2952 Q319.8906,464.592 319.25,464.7327 Q318.6094,464.8889 317.9063,464.8889 Q315.4063,464.8889 314.0781,463.2483 Q312.7656,461.592 312.7656,458.467 Q312.7656,455.342 314.0781,453.6858 Q315.4063,452.0295 317.9063,452.0295 Q318.6094,452.0295 319.25,452.1858 Q319.9063,452.342 320.4688,452.6389 L320.4688,455.3577 Q319.8438,454.7795 319.25,454.5139 Q318.6563,454.2327 318.0313,454.2327 Q316.6875,454.2327 316,455.3108 Q315.3125,456.3733 315.3125,458.467 Q315.3125,460.5608 316,461.6389 Q316.6875,462.7014 318.0313,462.7014 Q318.6563,462.7014 319.25,462.4358 Q319.8438,462.1545 320.4688,461.5764 L320.4688,464.2952 Z " fill="#000000"/><text fill="#D9B8FF" font-family="Helvetica" font-size="17" lengthAdjust="spacing" textLength="156" x="336.5" y="464.5398">phantom_resource</text></g><!--class quota--><g id="elem_quota"><rect codeLine="35" fill="#3D176E" height="39.7891" id="quota" rx="2.5" ry="2.5" style="stroke:#000D19;stroke-width:0.5;" width="90" x="356.5" y="599.55"/><ellipse cx="371.5" cy="619.4445" fill="#ADD1B2" rx="11" ry="11" style="stroke:#181818;stroke-width:1.0;"/><path d="M374.4688,625.0852 Q373.8906,625.382 373.25,625.5227 Q372.6094,625.6789 371.9063,625.6789 Q369.4063,625.6789 368.0781,624.0383 Q366.7656,622.382 366.7656,619.257 Q366.7656,616.132 368.0781,614.4758 Q369.4063,612.8195 371.9063,612.8195 Q372.6094,612.8195 373.25,612.9758 Q373.9063,613.132 374.4688,613.4289 L374.4688,616.1477 Q373.8438,615.5695 373.25,615.3039 Q372.6563,615.0227 372.0313,615.0227 Q370.6875,615.0227 370,616.1008 Q369.3125,617.1633 369.3125,619.257 Q369.3125,621.3508 370,622.4289 Q370.6875,623.4914 372.0313,623.4914 Q372.6563,623.4914 373.25,623.2258 Q373.8438,622.9445 374.4688,622.3664 L374.4688,625.0852 Z " fill="#000000"/><text fill="#D9B8FF" font-family="Helvetica" font-size="17" lengthAdjust="spacing" textLength="48" x="390.5" y="625.3298">quota</text></g><!--class resource--><g id="elem_resource"><rect codeLine="38" fill="#3D176E" height="310.7578" id="resource" rx="2.5" ry="2.5" style="stroke:#000D19;stroke-width:0.5;" width="227" x="288" y="7"/><ellipse cx="356.75" cy="26.8945" fill="#ADD1B2" rx="11" ry="11" style="stroke:#181818;stroke-width:1.0;"/><path d="M359.7188,32.5352 Q359.1406,32.832 358.5,32.9727 Q357.8594,33.1289 357.1563,33.1289 Q354.6563,33.1289 353.3281,31.4883 Q352.0156,29.832 352.0156,26.707 Q352.0156,23.582 353.3281,21.9258 Q354.6563,20.2695 357.1563,20.2695 Q357.8594,20.2695 358.5,20.4258 Q359.1563,20.582 359.7188,20.8789 L359.7188,23.5977 Q359.0938,23.0195 358.5,22.7539 Q357.9063,22.4727 357.2813,22.4727 Q355.9375,22.4727 355.25,23.5508 Q354.5625,24.6133 354.5625,26.707 Q354.5625,28.8008 355.25,29.8789 Q355.9375,30.9414 357.2813,30.9414 Q357.9063,30.9414 358.5,30.6758 Q359.0938,30.3945 359.7188,29.8164 L359.7188,32.5352 Z " fill="#000000"/><text fill="#D9B8FF" font-family="Helvetica" font-size="17" lengthAdjust="spacing" textLength="71" x="382.25" y="32.7798">resource</text><line style="stroke:#000D19;stroke-width:0.5;" x1="289" x2="514" y1="46.7891" y2="46.7891"/><text fill="#D9B8FF" font-family="sans-serif" font-size="14" font-weight="bold" lengthAdjust="spacing" textLength="29" x="299" y="68.7842">age</text><text fill="#D9B8FF" font-family="sans-serif" font-size="14" lengthAdjust="spacing" textLength="66" x="328" y="68.7842">: duration</text><text fill="#D9B8FF" font-family="sans-serif" font-size="14" font-weight="bold" lengthAdjust="spacing" textLength="43" x="299" y="95.0811">atime</text><text fill="#D9B8FF" font-family="sans-serif" font-size="14" lengthAdjust="spacing" textLength="70" x="342" y="95.0811">: datetime</text><text fill="#D9B8FF" font-family="sans-serif" font-size="14" font-weight="bold" lengthAdjust="spacing" textLength="43" x="299" y="121.3779">ctime</text><text fill="#D9B8FF" font-family="sans-serif" font-size="14" lengthAdjust="spacing" textLength="70" x="342" y="121.3779">: datetime</text><text fill="#D9B8FF" font-family="sans-serif" font-size="14" font-weight="bold" lengthAdjust="spacing" textLength="14" x="299" y="147.6748">id</text><text fill="#D9B8FF" font-family="sans-serif" font-size="14" lengthAdjust="spacing" textLength="48" x="313" y="147.6748">: string</text><text fill="#D9B8FF" font-family="sans-serif" font-size="14" font-weight="bold" lengthAdjust="spacing" textLength="33" x="299" y="173.9717">kind</text><text fill="#D9B8FF" font-family="sans-serif" font-size="14" lengthAdjust="spacing" textLength="48" x="332" y="173.9717">: string</text><text fill="#D9B8FF" font-family="sans-serif" font-size="14" font-weight="bold" lengthAdjust="spacing" textLength="90" x="299" y="200.2686">last_access</text><text fill="#D9B8FF" font-family="sans-serif" font-size="14" lengthAdjust="spacing" textLength="66" x="389" y="200.2686">: duration</text><text fill="#D9B8FF" font-family="sans-serif" font-size="14" font-weight="bold" lengthAdjust="spacing" textLength="90" x="299" y="226.5654">last_update</text><text fill="#D9B8FF" font-family="sans-serif" font-size="14" lengthAdjust="spacing" textLength="66" x="389" y="226.5654">: duration</text><text fill="#D9B8FF" font-family="sans-serif" font-size="14" font-weight="bold" lengthAdjust="spacing" textLength="48" x="299" y="252.8623">mtime</text><text fill="#D9B8FF" font-family="sans-serif" font-size="14" lengthAdjust="spacing" textLength="70" x="347" y="252.8623">: datetime</text><text fill="#D9B8FF" font-family="sans-serif" font-size="14" font-weight="bold" lengthAdjust="spacing" textLength="43" x="299" y="279.1592">name</text><text fill="#D9B8FF" font-family="sans-serif" font-size="14" lengthAdjust="spacing" textLength="48" x="342" y="279.1592">: string</text><text fill="#D9B8FF" font-family="sans-serif" font-size="14" font-weight="bold" lengthAdjust="spacing" textLength="34" x="299" y="305.4561">tags</text><text fill="#D9B8FF" font-family="sans-serif" font-size="14" lengthAdjust="spacing" textLength="171" x="333" y="305.4561">: dictionary[string, string]</text></g><!--class type--><g id="elem_type"><rect codeLine="50" fill="#3D176E" height="39.7891" id="type" rx="2.5" ry="2.5" style="stroke:#000D19;stroke-width:0.5;" width="79" x="362" y="760.34"/><ellipse cx="377" cy="780.2345" fill="#ADD1B2" rx="11" ry="11" style="stroke:#181818;stroke-width:1.0;"/><path d="M379.9688,785.8752 Q379.3906,786.172 378.75,786.3127 Q378.1094,786.4689 377.4063,786.4689 Q374.9063,786.4689 373.5781,784.8283 Q372.2656,783.172 372.2656,780.047 Q372.2656,776.922 373.5781,775.2658 Q374.9063,773.6095 377.4063,773.6095 Q378.1094,773.6095 378.75,773.7658 Q379.4063,773.922 379.9688,774.2189 L379.9688,776.9377 Q379.3438,776.3595 378.75,776.0939 Q378.1563,775.8127 377.5313,775.8127 Q376.1875,775.8127 375.5,776.8908 Q374.8125,777.9533 374.8125,780.047 Q374.8125,782.1408 375.5,783.2189 Q376.1875,784.2814 377.5313,784.2814 Q378.1563,784.2814 378.75,784.0158 Q379.3438,783.7345 379.9688,783.1564 L379.9688,785.8752 Z " fill="#000000"/><text fill="#D9B8FF" font-family="Helvetica" font-size="17" lengthAdjust="spacing" textLength="37" x="396" y="786.1198">type</text></g><!--class volume_type--><g id="elem_volume_type"><rect codeLine="53" fill="#3D176E" height="100.3828" id="volume_type" rx="2.5" ry="2.5" style="stroke:#000D19;stroke-width:0.5;" width="203" x="300" y="921.13"/><ellipse cx="338.4" cy="941.0245" fill="#ADD1B2" rx="11" ry="11" style="stroke:#181818;stroke-width:1.0;"/><path d="M341.3688,946.6652 Q340.7906,946.962 340.15,947.1027 Q339.5094,947.2589 338.8063,947.2589 Q336.3063,947.2589 334.9781,945.6183 Q333.6656,943.962 333.6656,940.837 Q333.6656,937.712 334.9781,936.0558 Q336.3063,934.3995 338.8063,934.3995 Q339.5094,934.3995 340.15,934.5558 Q340.8063,934.712 341.3688,935.0089 L341.3688,937.7277 Q340.7438,937.1495 340.15,936.8839 Q339.5563,936.6027 338.9313,936.6027 Q337.5875,936.6027 336.9,937.6808 Q336.2125,938.7433 336.2125,940.837 Q336.2125,942.9308 336.9,944.0089 Q337.5875,945.0714 338.9313,945.0714 Q339.5563,945.0714 340.15,944.8058 Q340.7438,944.5245 341.3688,943.9464 L341.3688,946.6652 Z " fill="#000000"/><text fill="#D9B8FF" font-family="Helvetica" font-size="17" lengthAdjust="spacing" textLength="109" x="362.6" y="946.9098">volume_type</text><line style="stroke:#000D19;stroke-width:0.5;" x1="301" x2="502" y1="960.9191" y2="960.9191"/><text fill="#D9B8FF" font-family="sans-serif" font-size="14" font-weight="bold" lengthAdjust="spacing" textLength="124" x="311" y="982.9142">ondemand_cost</text><text fill="#D9B8FF" font-family="sans-serif" font-size="14" lengthAdjust="spacing" textLength="57" x="435" y="982.9142">: double</text><text fill="#D9B8FF" font-family="sans-serif" font-size="14" font-weight="bold" lengthAdjust="spacing" textLength="99" x="311" y="1009.2111">volume_type</text><text fill="#D9B8FF" font-family="sans-serif" font-size="14" lengthAdjust="spacing" textLength="48" x="410" y="1009.2111">: string</text></g><!--reverse link volume_type to aws_ec2_volume_type--><g id="link_volume_type_aws_ec2_volume_type"><path codeLine="57" d="M313.2995,1032.0982 C255.3395,1071.3782 192.43,1114.01 151.1,1142.02 " fill="none" id="volume_type-backto-aws_ec2_volume_type" style="stroke:#FFAF37;stroke-width:2.0;"/><polygon fill="none" points="328.2,1022,309.9334,1027.1314,316.6655,1037.0651,328.2,1022" style="stroke:#FFAF37;stroke-width:2.0;"/></g><!--reverse link volume_type to azure_compute_disk_type--><g id="link_volume_type_azure_compute_disk_type"><path codeLine="58" d="M401.5,1040 C401.5,1079.39 401.5,1114.31 401.5,1142.26 " fill="none" id="volume_type-backto-azure_compute_disk_type" style="stroke:#FFAF37;stroke-width:2.0;"/><polygon fill="none" points="401.5,1022,395.5,1040,407.5,1040,401.5,1022" style="stroke:#FFAF37;stroke-width:2.0;"/></g><!--reverse link volume_type to gcp_disk_type--><g id="link_volume_type_gcp_disk_type"><path codeLine="59" d="M479.5559,1033.054 C530.0359,1072.334 583.6,1114.01 619.59,1142.02 " fill="none" id="volume_type-backto-gcp_disk_type" style="stroke:#FFAF37;stroke-width:2.0;"/><polygon fill="none" points="465.35,1022,475.8712,1037.7894,483.2406,1028.3187,465.35,1022" style="stroke:#FFAF37;stroke-width:2.0;"/></g><!--reverse link resource to phantom_resource--><g id="link_resource_phantom_resource"><path codeLine="60" d="M401.5,335.84 C401.5,384.13 401.5,413.37 401.5,438.67 " fill="none" id="resource-backto-phantom_resource" style="stroke:#FFAF37;stroke-width:2.0;"/><polygon fill="none" points="401.5,317.84,395.5,335.84,407.5,335.84,401.5,317.84" style="stroke:#FFAF37;stroke-width:2.0;"/></g><!--reverse link phantom_resource to quota--><g id="link_phantom_resource_quota"><path codeLine="61" d="M401.5,496.81 C401.5,527.33 401.5,568.66 401.5,599.22 " fill="none" id="phantom_resource-backto-quota" style="stroke:#FFAF37;stroke-width:2.0;"/><polygon fill="none" points="401.5,478.81,395.5,496.81,407.5,496.81,401.5,478.81" style="stroke:#FFAF37;stroke-width:2.0;"/></g><!--reverse link quota to type--><g id="link_quota_type"><path codeLine="62" d="M401.5,657.6 C401.5,688.12 401.5,729.45 401.5,760.01 " fill="none" id="quota-backto-type" style="stroke:#FFAF37;stroke-width:2.0;"/><polygon fill="none" points="401.5,639.6,395.5,657.6,407.5,657.6,401.5,639.6" style="stroke:#FFAF37;stroke-width:2.0;"/></g><!--reverse link type to volume_type--><g id="link_type_volume_type"><path codeLine="63" d="M401.5,818.4 C401.5,846.38 401.5,881.35 401.5,920.75 " fill="none" id="type-backto-volume_type" style="stroke:#FFAF37;stroke-width:2.0;"/><polygon fill="none" points="401.5,800.4,395.5,818.4,407.5,818.4,401.5,800.4" style="stroke:#FFAF37;stroke-width:2.0;"/></g><!--SRC=[XPD1Rzim38Nl_XK2UZCM86cnfHbswG8CswKOrjs6mM0asX5YIPv4DqYt_lT9LXl8ijlUxFS-yr6al9S26QgEJaoXsg5rXJj8tO45nMwiDSUjQOrb5tKDzTKwDxyOJMy2jw2GVSNs7aboo8cVUyaF6frZbudr6VYXiQRN8fOd2zfv2pKbrBO5vsw8hDprX4apOhExhkkSp8jUN8dL-WDEC6C5sYTakLoArIP7tenwzTnduau-85kbGxirX9Cs9n43zMgNWKYQd1pqsN-nn-yWXDGDUvzeFs9FLgCTwNTx4EOOw1fQbyOuGek6JXrk9wV2pRMerxFmjvVWWeVHCJYw2lbbTM_QNc4LFc5_Y-BnsNxeBLRSgCxVYaf8TvWW3U_cZMuFceogB3hJMpxo_lI681KIg2oXmRByo4HlWQJHGI6feWQ4uTbhV4QJ8WZENsFT-5S_aB7WiwW2plrFaYKCJj-5MfcZPd8qHEbScA295IKFdu4z_OhUkoVcz_ce-Pp6eozBemKgqCAFtT5Gq_IxDgGcP1B-MAGLFlrRB1PpQvsZvhSxGuwMN9oN5SryqSLayv4Rbbx4rKTbg9R4fEt-1m00]--></g></svg>