<svg xmlns="http://www.w3.org/2000/svg" width="796" height="1051" viewBox="0 0 796 1051"><rect width="428" height="179.273" x="106" y="438.76" fill="#3D176E" rx="2.5" ry="2.5" style="stroke:#000d19;stroke-width:.5"/><circle cx="121" cy="458.654" r="11" fill="#ADD1B2" style="stroke:#181818;stroke-width:1"/><path d="M123.969 464.295q-.578.297-1.219.438-.64.156-1.344.156-2.5 0-3.828-1.64-1.312-1.657-1.312-4.782t1.312-4.781q1.328-1.656 3.828-1.656.703 0 1.344.156.656.156 1.219.453v2.719q-.625-.579-1.219-.844-.594-.281-1.219-.281-1.344 0-2.031 1.078-.687 1.062-.687 3.156t.687 3.172q.688 1.062 2.031 1.062.625 0 1.219-.265.594-.281 1.219-.86z"/><text x="140" y="464.54" fill="#D9B8FF" font-family="Helvetica" font-size="17" textLength="386">azure_machine_learning_data_container_base</text><path d="M107 478.549h426" style="stroke:#000d19;stroke-width:.5"/><text x="117" y="500.544" fill="#D9B8FF" font-family="sans-serif" font-size="14" font-weight="bold" textLength="89">description</text><text x="206" y="500.544" fill="#D9B8FF" font-family="sans-serif" font-size="14" textLength="48">: string</text><text x="117" y="526.841" fill="#D9B8FF" font-family="sans-serif" font-size="14" font-weight="bold" textLength="88">is_archived</text><text x="205" y="526.841" fill="#D9B8FF" font-family="sans-serif" font-size="14" textLength="65">: boolean</text><text x="117" y="553.138" fill="#D9B8FF" font-family="sans-serif" font-size="14" font-weight="bold" textLength="110">latest_version</text><text x="227" y="553.138" fill="#D9B8FF" font-family="sans-serif" font-size="14" textLength="48">: string</text><text x="117" y="579.435" fill="#D9B8FF" font-family="sans-serif" font-size="14" font-weight="bold" textLength="101">next_version</text><text x="218" y="579.435" fill="#D9B8FF" font-family="sans-serif" font-size="14" textLength="48">: string</text><text x="117" y="605.732" fill="#D9B8FF" font-family="sans-serif" font-size="14" font-weight="bold" textLength="83">properties</text><text x="200" y="605.732" fill="#D9B8FF" font-family="sans-serif" font-size="14" textLength="156">: dictionary[string, any]</text><rect width="478" height="39.789" x="239" y="739.03" fill="#3D176E" rx="2.5" ry="2.5" style="stroke:#000d19;stroke-width:.5"/><circle cx="254" cy="758.924" r="11" fill="#ADD1B2" style="stroke:#181818;stroke-width:1"/><path d="M256.969 764.565q-.578.297-1.219.438-.64.156-1.344.156-2.5 0-3.828-1.64-1.312-1.657-1.312-4.782t1.312-4.781q1.328-1.657 3.828-1.657.703 0 1.344.157.656.156 1.219.453v2.719q-.625-.579-1.219-.844-.594-.281-1.219-.281-1.344 0-2.031 1.078-.687 1.062-.687 3.156t.687 3.172q.688 1.062 2.031 1.062.625 0 1.219-.265.594-.282 1.219-.86z"/><text x="273" y="764.81" fill="#D9B8FF" font-family="Helvetica" font-size="17" textLength="436">azure_machine_learning_workspace_data_container</text><rect width="262" height="100.383" x="7" y="112.19" fill="#3D176E" rx="2.5" ry="2.5" style="stroke:#000d19;stroke-width:.5"/><circle cx="39.1" cy="132.084" r="11" fill="#ADD1B2" style="stroke:#181818;stroke-width:1"/><path d="M42.069 137.725q-.578.297-1.219.438-.64.156-1.344.156-2.5 0-3.828-1.64-1.312-1.657-1.312-4.782t1.312-4.781q1.328-1.656 3.828-1.656.703 0 1.344.156.656.156 1.219.453v2.719q-.625-.579-1.219-.844-.594-.281-1.219-.281-1.343 0-2.031 1.078-.687 1.062-.687 3.156t.687 3.172q.688 1.062 2.031 1.062.625 0 1.219-.265.594-.282 1.219-.86z"/><text x="61.9" y="137.97" fill="#D9B8FF" font-family="Helvetica" font-size="17" textLength="182">azure_proxy_resource</text><path d="M8 151.979h260" style="stroke:#000d19;stroke-width:.5"/><text x="18" y="173.974" fill="#D9B8FF" font-family="sans-serif" font-size="14" font-weight="bold" textLength="98">system_data</text><text x="116" y="173.974" fill="#D9B8FF" font-family="sans-serif" font-size="14" textLength="142">: azure_system_data</text><text x="18" y="200.271" fill="#D9B8FF" font-family="sans-serif" font-size="14" font-weight="bold" textLength="35">type</text><text x="53" y="200.271" fill="#D9B8FF" font-family="sans-serif" font-size="14" textLength="48">: string</text><rect width="241" height="205.57" x="65.5" y="838.82" fill="#3D176E" rx="2.5" ry="2.5" style="stroke:#000d19;stroke-width:.5"/><circle cx="97.6" cy="858.715" r="11" fill="#ADD1B2" style="stroke:#181818;stroke-width:1"/><path d="M100.569 864.355q-.578.297-1.219.438-.64.156-1.344.156-2.5 0-3.828-1.64-1.312-1.657-1.312-4.782t1.312-4.781q1.328-1.656 3.828-1.656.703 0 1.344.156.656.156 1.219.453v2.719q-.625-.578-1.219-.844-.594-.281-1.219-.281-1.344 0-2.031 1.078-.687 1.062-.687 3.156t.687 3.172q.688 1.062 2.031 1.062.625 0 1.219-.265.594-.281 1.219-.86z"/><text x="120.4" y="864.6" fill="#D9B8FF" font-family="Helvetica" font-size="17" textLength="161">azure_system_data</text><path d="M66.5 878.609h239" style="stroke:#000d19;stroke-width:.5"/><text x="76.5" y="900.604" fill="#D9B8FF" font-family="sans-serif" font-size="14" font-weight="bold" textLength="83">created_at</text><text x="159.5" y="900.604" fill="#D9B8FF" font-family="sans-serif" font-size="14" textLength="70">: datetime</text><text x="76.5" y="926.901" fill="#D9B8FF" font-family="sans-serif" font-size="14" font-weight="bold" textLength="87">created_by</text><text x="163.5" y="926.901" fill="#D9B8FF" font-family="sans-serif" font-size="14" textLength="48">: string</text><text x="76.5" y="953.198" fill="#D9B8FF" font-family="sans-serif" font-size="14" font-weight="bold" textLength="129">created_by_type</text><text x="205.5" y="953.198" fill="#D9B8FF" font-family="sans-serif" font-size="14" textLength="48">: string</text><text x="76.5" y="979.495" fill="#D9B8FF" font-family="sans-serif" font-size="14" font-weight="bold" textLength="125">last_modified_at</text><text x="201.5" y="979.495" fill="#D9B8FF" font-family="sans-serif" font-size="14" textLength="70">: datetime</text><text x="76.5" y="1005.792" fill="#D9B8FF" font-family="sans-serif" font-size="14" font-weight="bold" textLength="129">last_modified_by</text><text x="205.5" y="1005.792" fill="#D9B8FF" font-family="sans-serif" font-size="14" textLength="48">: string</text><text x="76.5" y="1032.089" fill="#D9B8FF" font-family="sans-serif" font-size="14" font-weight="bold" textLength="171">last_modified_by_type</text><text x="247.5" y="1032.089" fill="#D9B8FF" font-family="sans-serif" font-size="14" textLength="48">: string</text><rect width="214" height="100.383" x="569" y="478.2" fill="#3D176E" rx="2.5" ry="2.5" style="stroke:#000d19;stroke-width:.5"/><circle cx="590.3" cy="498.094" r="11" fill="#ADD1B2" style="stroke:#181818;stroke-width:1"/><path d="M593.269 503.735q-.578.297-1.219.438-.64.156-1.344.156-2.5 0-3.828-1.64-1.312-1.657-1.312-4.782t1.312-4.781q1.328-1.656 3.828-1.656.703 0 1.344.156.656.156 1.219.453v2.719q-.625-.579-1.219-.844-.594-.281-1.219-.281-1.344 0-2.031 1.078-.687 1.062-.687 3.156t.687 3.172q.688 1.062 2.031 1.062.625 0 1.219-.265.594-.281 1.219-.86z"/><text x="610.7" y="503.98" fill="#D9B8FF" font-family="Helvetica" font-size="17" textLength="158">microsoft_resource</text><path d="M570 517.989h212" style="stroke:#000d19;stroke-width:.5"/><text x="580" y="539.984" fill="#D9B8FF" font-family="sans-serif" font-size="14" font-weight="bold" textLength="35">etag</text><text x="615" y="539.984" fill="#D9B8FF" font-family="sans-serif" font-size="14" textLength="48">: string</text><text x="580" y="566.281" fill="#D9B8FF" font-family="sans-serif" font-size="14" font-weight="bold" textLength="144">provisioning_state</text><text x="724" y="566.281" fill="#D9B8FF" font-family="sans-serif" font-size="14" textLength="48">: string</text><rect width="227" height="310.758" x="562.5" y="7" fill="#3D176E" rx="2.5" ry="2.5" style="stroke:#000d19;stroke-width:.5"/><circle cx="631.25" cy="26.895" r="11" fill="#ADD1B2" style="stroke:#181818;stroke-width:1"/><path d="M634.219 32.535q-.578.297-1.219.438-.64.156-1.344.156-2.5 0-3.828-1.64-1.312-1.657-1.312-4.782t1.312-4.781q1.328-1.656 3.828-1.656.703 0 1.344.156.656.156 1.219.453v2.719q-.625-.578-1.219-.844-.594-.281-1.219-.281-1.343 0-2.031 1.078-.687 1.062-.687 3.156t.687 3.172q.688 1.062 2.031 1.062.625 0 1.219-.265.594-.281 1.219-.86z"/><text x="656.75" y="32.78" fill="#D9B8FF" font-family="Helvetica" font-size="17" textLength="71">resource</text><path d="M563.5 46.789h225" style="stroke:#000d19;stroke-width:.5"/><text x="573.5" y="68.784" fill="#D9B8FF" font-family="sans-serif" font-size="14" font-weight="bold" textLength="29">age</text><text x="602.5" y="68.784" fill="#D9B8FF" font-family="sans-serif" font-size="14" textLength="66">: duration</text><text x="573.5" y="95.081" fill="#D9B8FF" font-family="sans-serif" font-size="14" font-weight="bold" textLength="43">atime</text><text x="616.5" y="95.081" fill="#D9B8FF" font-family="sans-serif" font-size="14" textLength="70">: datetime</text><text x="573.5" y="121.378" fill="#D9B8FF" font-family="sans-serif" font-size="14" font-weight="bold" textLength="43">ctime</text><text x="616.5" y="121.378" fill="#D9B8FF" font-family="sans-serif" font-size="14" textLength="70">: datetime</text><text x="573.5" y="147.675" fill="#D9B8FF" font-family="sans-serif" font-size="14" font-weight="bold" textLength="14">id</text><text x="587.5" y="147.675" fill="#D9B8FF" font-family="sans-serif" font-size="14" textLength="48">: string</text><text x="573.5" y="173.972" fill="#D9B8FF" font-family="sans-serif" font-size="14" font-weight="bold" textLength="33">kind</text><text x="606.5" y="173.972" fill="#D9B8FF" font-family="sans-serif" font-size="14" textLength="48">: string</text><text x="573.5" y="200.269" fill="#D9B8FF" font-family="sans-serif" font-size="14" font-weight="bold" textLength="90">last_access</text><text x="663.5" y="200.269" fill="#D9B8FF" font-family="sans-serif" font-size="14" textLength="66">: duration</text><text x="573.5" y="226.565" fill="#D9B8FF" font-family="sans-serif" font-size="14" font-weight="bold" textLength="90">last_update</text><text x="663.5" y="226.565" fill="#D9B8FF" font-family="sans-serif" font-size="14" textLength="66">: duration</text><text x="573.5" y="252.862" fill="#D9B8FF" font-family="sans-serif" font-size="14" font-weight="bold" textLength="48">mtime</text><text x="621.5" y="252.862" fill="#D9B8FF" font-family="sans-serif" font-size="14" textLength="70">: datetime</text><text x="573.5" y="279.159" fill="#D9B8FF" font-family="sans-serif" font-size="14" font-weight="bold" textLength="43">name</text><text x="616.5" y="279.159" fill="#D9B8FF" font-family="sans-serif" font-size="14" textLength="48">: string</text><text x="573.5" y="305.456" fill="#D9B8FF" font-family="sans-serif" font-size="14" font-weight="bold" textLength="34">tags</text><text x="607.5" y="305.456" fill="#D9B8FF" font-family="sans-serif" font-size="14" textLength="171">: dictionary[string, string]</text><path fill="none" d="M170.781 228.95c28.92 57.83 69.279 138.55 104.769 209.53M162.73 212.85l2.685 18.783 10.732-5.368zM271.51 618.3c-18.18 36.51-37.54 79.77-50.51 120.73-10.02 31.66-16.412 61.17-21.732 93.38" style="stroke:#ffaf37;stroke-width:2"/><path fill="#FFAF37" d="m198.29 838.33 5.413-8.228-4.598 3.295-3.295-4.599z" style="stroke:#ffaf37;stroke-width:2"/><g fill="none"><path d="M391.775 633.207c30.67 44.37 54.805 79.273 73.095 105.733" style="stroke:#ffaf37;stroke-width:2"/><path d="m381.54 618.4 5.3 18.219 9.87-6.824z" style="stroke:#ffaf37;stroke-width:2"/></g><path fill="none" d="M446.75 779.26c-33.54 20.76-83.818 51.863-134.928 83.493" style="stroke:#ffaf37;stroke-width:2"/><path fill="#FFAF37" d="m306.72 865.91 9.758-1.335-5.506-1.296 1.296-5.506z" style="stroke:#ffaf37;stroke-width:2"/><g fill="none"><path d="M621.253 592.584C577.913 642.604 525.01 703.66 494.74 738.6" style="stroke:#ffaf37;stroke-width:2"/><path d="m633.04 578.98-16.322 9.675 9.07 7.858z" style="stroke:#ffaf37;stroke-width:2"/></g><path fill="none" d="M118.82 212.87C93.75 282.12 53 412.36 53 527.39v151.64c0 56.55 21.857 108.129 50.187 154.199" style="stroke:#ffaf37;stroke-width:2"/><path fill="#FFAF37" d="m106.33 838.34-1.307-9.762-1.312 5.503-5.503-1.312z" style="stroke:#ffaf37;stroke-width:2"/><path fill="none" d="M676 336.02v142.04m0-160.04-6 18h12z" style="stroke:#ffaf37;stroke-width:2"/></svg>