<?xml version="1.0" encoding="us-ascii" standalone="no"?><svg xmlns="http://www.w3.org/2000/svg" xmlns:xlink="http://www.w3.org/1999/xlink" contentStyleType="text/css" height="451px" preserveAspectRatio="none" style="width:1575px;height:451px;" version="1.1" viewBox="0 0 1575 451" width="1575px" zoomAndPan="magnify"><defs/><g><!--class aws_apigateway_authorizer--><g id="elem_aws_apigateway_authorizer"><rect codeLine="22" fill="#3D176E" height="39.7891" id="aws_apigateway_authorizer" rx="2.5" ry="2.5" style="stroke:#000D19;stroke-width:0.5;" width="276" x="347" y="206.58"/><ellipse cx="362" cy="226.4745" fill="#ADD1B2" rx="11" ry="11" style="stroke:#181818;stroke-width:1.0;"/><path d="M364.9688,232.1152 Q364.3906,232.412 363.75,232.5527 Q363.1094,232.7089 362.4063,232.7089 Q359.9063,232.7089 358.5781,231.0683 Q357.2656,229.412 357.2656,226.287 Q357.2656,223.162 358.5781,221.5058 Q359.9063,219.8495 362.4063,219.8495 Q363.1094,219.8495 363.75,220.0058 Q364.4063,220.162 364.9688,220.4589 L364.9688,223.1777 Q364.3438,222.5995 363.75,222.3339 Q363.1563,222.0527 362.5313,222.0527 Q361.1875,222.0527 360.5,223.1308 Q359.8125,224.1933 359.8125,226.287 Q359.8125,228.3808 360.5,229.4589 Q361.1875,230.5214 362.5313,230.5214 Q363.1563,230.5214 363.75,230.2558 Q364.3438,229.9745 364.9688,229.3964 L364.9688,232.1152 Z " fill="#000000"/><text fill="#D9B8FF" font-family="Helvetica" font-size="17" lengthAdjust="spacing" textLength="234" x="381" y="232.3598">aws_apigateway_authorizer</text></g><!--class aws_apigateway_resource--><g id="elem_aws_apigateway_resource"><rect codeLine="24" fill="#3D176E" height="39.7891" id="aws_apigateway_resource" rx="2.5" ry="2.5" style="stroke:#000D19;stroke-width:0.5;" width="261" x="478.5" y="106.79"/><ellipse cx="493.5" cy="126.6845" fill="#ADD1B2" rx="11" ry="11" style="stroke:#181818;stroke-width:1.0;"/><path d="M496.4688,132.3252 Q495.8906,132.622 495.25,132.7627 Q494.6094,132.9189 493.9063,132.9189 Q491.4063,132.9189 490.0781,131.2783 Q488.7656,129.622 488.7656,126.497 Q488.7656,123.372 490.0781,121.7158 Q491.4063,120.0595 493.9063,120.0595 Q494.6094,120.0595 495.25,120.2158 Q495.9063,120.372 496.4688,120.6689 L496.4688,123.3877 Q495.8438,122.8095 495.25,122.5439 Q494.6563,122.2627 494.0313,122.2627 Q492.6875,122.2627 492,123.3408 Q491.3125,124.4033 491.3125,126.497 Q491.3125,128.5908 492,129.6689 Q492.6875,130.7314 494.0313,130.7314 Q494.6563,130.7314 495.25,130.4658 Q495.8438,130.1845 496.4688,129.6064 L496.4688,132.3252 Z " fill="#000000"/><text fill="#D9B8FF" font-family="Helvetica" font-size="17" lengthAdjust="spacing" textLength="219" x="512.5" y="132.5698">aws_apigateway_resource</text></g><!--class aws_apigateway_rest_api--><g id="elem_aws_apigateway_rest_api"><rect codeLine="26" fill="#3D176E" height="39.7891" id="aws_apigateway_rest_api" rx="2.5" ry="2.5" style="stroke:#000D19;stroke-width:0.5;" width="256" x="297" y="7"/><ellipse cx="312" cy="26.8945" fill="#ADD1B2" rx="11" ry="11" style="stroke:#181818;stroke-width:1.0;"/><path d="M314.9688,32.5352 Q314.3906,32.832 313.75,32.9727 Q313.1094,33.1289 312.4063,33.1289 Q309.9063,33.1289 308.5781,31.4883 Q307.2656,29.832 307.2656,26.707 Q307.2656,23.582 308.5781,21.9258 Q309.9063,20.2695 312.4063,20.2695 Q313.1094,20.2695 313.75,20.4258 Q314.4063,20.582 314.9688,20.8789 L314.9688,23.5977 Q314.3438,23.0195 313.75,22.7539 Q313.1563,22.4727 312.5313,22.4727 Q311.1875,22.4727 310.5,23.5508 Q309.8125,24.6133 309.8125,26.707 Q309.8125,28.8008 310.5,29.8789 Q311.1875,30.9414 312.5313,30.9414 Q313.1563,30.9414 313.75,30.6758 Q314.3438,30.3945 314.9688,29.8164 L314.9688,32.5352 Z " fill="#000000"/><text fill="#D9B8FF" font-family="Helvetica" font-size="17" lengthAdjust="spacing" textLength="214" x="331" y="32.7798">aws_apigateway_rest_api</text></g><!--class aws_cloudfront_distribution--><g id="elem_aws_cloudfront_distribution"><rect codeLine="28" fill="#3D176E" height="39.7891" id="aws_cloudfront_distribution" rx="2.5" ry="2.5" style="stroke:#000D19;stroke-width:0.5;" width="274" x="729" y="206.58"/><ellipse cx="744" cy="226.4745" fill="#ADD1B2" rx="11" ry="11" style="stroke:#181818;stroke-width:1.0;"/><path d="M746.9688,232.1152 Q746.3906,232.412 745.75,232.5527 Q745.1094,232.7089 744.4063,232.7089 Q741.9063,232.7089 740.5781,231.0683 Q739.2656,229.412 739.2656,226.287 Q739.2656,223.162 740.5781,221.5058 Q741.9063,219.8495 744.4063,219.8495 Q745.1094,219.8495 745.75,220.0058 Q746.4063,220.162 746.9688,220.4589 L746.9688,223.1777 Q746.3438,222.5995 745.75,222.3339 Q745.1563,222.0527 744.5313,222.0527 Q743.1875,222.0527 742.5,223.1308 Q741.8125,224.1933 741.8125,226.287 Q741.8125,228.3808 742.5,229.4589 Q743.1875,230.5214 744.5313,230.5214 Q745.1563,230.5214 745.75,230.2558 Q746.3438,229.9745 746.9688,229.3964 L746.9688,232.1152 Z " fill="#000000"/><text fill="#D9B8FF" font-family="Helvetica" font-size="17" lengthAdjust="spacing" textLength="232" x="763" y="232.3598">aws_cloudfront_distribution</text></g><!--class aws_cognito_user_pool--><g id="elem_aws_cognito_user_pool"><rect codeLine="30" fill="#3D176E" height="39.7891" id="aws_cognito_user_pool" rx="2.5" ry="2.5" style="stroke:#000D19;stroke-width:0.5;" width="234" x="7" y="206.58"/><ellipse cx="22" cy="226.4745" fill="#ADD1B2" rx="11" ry="11" style="stroke:#181818;stroke-width:1.0;"/><path d="M24.9688,232.1152 Q24.3906,232.412 23.75,232.5527 Q23.1094,232.7089 22.4063,232.7089 Q19.9063,232.7089 18.5781,231.0683 Q17.2656,229.412 17.2656,226.287 Q17.2656,223.162 18.5781,221.5058 Q19.9063,219.8495 22.4063,219.8495 Q23.1094,219.8495 23.75,220.0058 Q24.4063,220.162 24.9688,220.4589 L24.9688,223.1777 Q24.3438,222.5995 23.75,222.3339 Q23.1563,222.0527 22.5313,222.0527 Q21.1875,222.0527 20.5,223.1308 Q19.8125,224.1933 19.8125,226.287 Q19.8125,228.3808 20.5,229.4589 Q21.1875,230.5214 22.5313,230.5214 Q23.1563,230.5214 23.75,230.2558 Q24.3438,229.9745 24.9688,229.3964 L24.9688,232.1152 Z " fill="#000000"/><text fill="#D9B8FF" font-family="Helvetica" font-size="17" lengthAdjust="spacing" textLength="192" x="41" y="232.3598">aws_cognito_user_pool</text></g><!--class aws_ec2_security_group--><g id="elem_aws_ec2_security_group"><rect codeLine="32" fill="#3D176E" height="39.7891" id="aws_ec2_security_group" rx="2.5" ry="2.5" style="stroke:#000D19;stroke-width:0.5;" width="245" x="1109.5" y="106.79"/><ellipse cx="1124.5" cy="126.6845" fill="#ADD1B2" rx="11" ry="11" style="stroke:#181818;stroke-width:1.0;"/><path d="M1127.4688,132.3252 Q1126.8906,132.622 1126.25,132.7627 Q1125.6094,132.9189 1124.9063,132.9189 Q1122.4063,132.9189 1121.0781,131.2783 Q1119.7656,129.622 1119.7656,126.497 Q1119.7656,123.372 1121.0781,121.7158 Q1122.4063,120.0595 1124.9063,120.0595 Q1125.6094,120.0595 1126.25,120.2158 Q1126.9063,120.372 1127.4688,120.6689 L1127.4688,123.3877 Q1126.8438,122.8095 1126.25,122.5439 Q1125.6563,122.2627 1125.0313,122.2627 Q1123.6875,122.2627 1123,123.3408 Q1122.3125,124.4033 1122.3125,126.497 Q1122.3125,128.5908 1123,129.6689 Q1123.6875,130.7314 1125.0313,130.7314 Q1125.6563,130.7314 1126.25,130.4658 Q1126.8438,130.1845 1127.4688,129.6064 L1127.4688,132.3252 Z " fill="#000000"/><text fill="#D9B8FF" font-family="Helvetica" font-size="17" lengthAdjust="spacing" textLength="203" x="1143.5" y="132.5698">aws_ec2_security_group</text></g><!--class aws_ec2_subnet--><g id="elem_aws_ec2_subnet"><rect codeLine="34" fill="#3D176E" height="39.7891" id="aws_ec2_subnet" rx="2.5" ry="2.5" style="stroke:#000D19;stroke-width:0.5;" width="179" x="1389.5" y="106.79"/><ellipse cx="1404.5" cy="126.6845" fill="#ADD1B2" rx="11" ry="11" style="stroke:#181818;stroke-width:1.0;"/><path d="M1407.4688,132.3252 Q1406.8906,132.622 1406.25,132.7627 Q1405.6094,132.9189 1404.9063,132.9189 Q1402.4063,132.9189 1401.0781,131.2783 Q1399.7656,129.622 1399.7656,126.497 Q1399.7656,123.372 1401.0781,121.7158 Q1402.4063,120.0595 1404.9063,120.0595 Q1405.6094,120.0595 1406.25,120.2158 Q1406.9063,120.372 1407.4688,120.6689 L1407.4688,123.3877 Q1406.8438,122.8095 1406.25,122.5439 Q1405.6563,122.2627 1405.0313,122.2627 Q1403.6875,122.2627 1403,123.3408 Q1402.3125,124.4033 1402.3125,126.497 Q1402.3125,128.5908 1403,129.6689 Q1403.6875,130.7314 1405.0313,130.7314 Q1405.6563,130.7314 1406.25,130.4658 Q1406.8438,130.1845 1407.4688,129.6064 L1407.4688,132.3252 Z " fill="#000000"/><text fill="#D9B8FF" font-family="Helvetica" font-size="17" lengthAdjust="spacing" textLength="137" x="1423.5" y="132.5698">aws_ec2_subnet</text></g><!--class aws_kms_key--><g id="elem_aws_kms_key"><rect codeLine="36" fill="#3D176E" height="39.7891" id="aws_kms_key" rx="2.5" ry="2.5" style="stroke:#000D19;stroke-width:0.5;" width="158" x="787" y="406.16"/><ellipse cx="802" cy="426.0545" fill="#ADD1B2" rx="11" ry="11" style="stroke:#181818;stroke-width:1.0;"/><path d="M804.9688,431.6952 Q804.3906,431.992 803.75,432.1327 Q803.1094,432.2889 802.4063,432.2889 Q799.9063,432.2889 798.5781,430.6483 Q797.2656,428.992 797.2656,425.867 Q797.2656,422.742 798.5781,421.0858 Q799.9063,419.4295 802.4063,419.4295 Q803.1094,419.4295 803.75,419.5858 Q804.4063,419.742 804.9688,420.0389 L804.9688,422.7577 Q804.3438,422.1795 803.75,421.9139 Q803.1563,421.6327 802.5313,421.6327 Q801.1875,421.6327 800.5,422.7108 Q799.8125,423.7733 799.8125,425.867 Q799.8125,427.9608 800.5,429.0389 Q801.1875,430.1014 802.5313,430.1014 Q803.1563,430.1014 803.75,429.8358 Q804.3438,429.5545 804.9688,428.9764 L804.9688,431.6952 Z " fill="#000000"/><text fill="#D9B8FF" font-family="Helvetica" font-size="17" lengthAdjust="spacing" textLength="116" x="821" y="431.9398">aws_kms_key</text></g><!--class aws_lambda_function--><g id="elem_aws_lambda_function"><rect codeLine="38" fill="#3D176E" height="39.7891" id="aws_lambda_function" rx="2.5" ry="2.5" style="stroke:#000D19;stroke-width:0.5;" width="224" x="754" y="306.37"/><ellipse cx="769" cy="326.2645" fill="#ADD1B2" rx="11" ry="11" style="stroke:#181818;stroke-width:1.0;"/><path d="M771.9688,331.9052 Q771.3906,332.202 770.75,332.3427 Q770.1094,332.4989 769.4063,332.4989 Q766.9063,332.4989 765.5781,330.8583 Q764.2656,329.202 764.2656,326.077 Q764.2656,322.952 765.5781,321.2958 Q766.9063,319.6395 769.4063,319.6395 Q770.1094,319.6395 770.75,319.7958 Q771.4063,319.952 771.9688,320.2489 L771.9688,322.9677 Q771.3438,322.3895 770.75,322.1239 Q770.1563,321.8427 769.5313,321.8427 Q768.1875,321.8427 767.5,322.9208 Q766.8125,323.9833 766.8125,326.077 Q766.8125,328.1708 767.5,329.2489 Q768.1875,330.3114 769.5313,330.3114 Q770.1563,330.3114 770.75,330.0458 Q771.3438,329.7645 771.9688,329.1864 L771.9688,331.9052 Z " fill="#000000"/><text fill="#D9B8FF" font-family="Helvetica" font-size="17" lengthAdjust="spacing" textLength="182" x="788" y="332.1498">aws_lambda_function</text></g><!--class aws_sagemaker_labeling_job--><g id="elem_aws_sagemaker_labeling_job"><rect codeLine="40" fill="#3D176E" height="39.7891" id="aws_sagemaker_labeling_job" rx="2.5" ry="2.5" style="stroke:#000D19;stroke-width:0.5;" width="285" x="1179.5" y="206.58"/><ellipse cx="1194.5" cy="226.4745" fill="#ADD1B2" rx="11" ry="11" style="stroke:#181818;stroke-width:1.0;"/><path d="M1197.4688,232.1152 Q1196.8906,232.412 1196.25,232.5527 Q1195.6094,232.7089 1194.9063,232.7089 Q1192.4063,232.7089 1191.0781,231.0683 Q1189.7656,229.412 1189.7656,226.287 Q1189.7656,223.162 1191.0781,221.5058 Q1192.4063,219.8495 1194.9063,219.8495 Q1195.6094,219.8495 1196.25,220.0058 Q1196.9063,220.162 1197.4688,220.4589 L1197.4688,223.1777 Q1196.8438,222.5995 1196.25,222.3339 Q1195.6563,222.0527 1195.0313,222.0527 Q1193.6875,222.0527 1193,223.1308 Q1192.3125,224.1933 1192.3125,226.287 Q1192.3125,228.3808 1193,229.4589 Q1193.6875,230.5214 1195.0313,230.5214 Q1195.6563,230.5214 1196.25,230.2558 Q1196.8438,229.9745 1197.4688,229.3964 L1197.4688,232.1152 Z " fill="#000000"/><text fill="#D9B8FF" font-family="Helvetica" font-size="17" lengthAdjust="spacing" textLength="243" x="1213.5" y="232.3598">aws_sagemaker_labeling_job</text></g><!--class aws_vpc--><g id="elem_aws_vpc"><rect codeLine="42" fill="#3D176E" height="39.7891" id="aws_vpc" rx="2.5" ry="2.5" style="stroke:#000D19;stroke-width:0.5;" width="112" x="1176" y="7"/><ellipse cx="1191" cy="26.8945" fill="#ADD1B2" rx="11" ry="11" style="stroke:#181818;stroke-width:1.0;"/><path d="M1193.9688,32.5352 Q1193.3906,32.832 1192.75,32.9727 Q1192.1094,33.1289 1191.4063,33.1289 Q1188.9063,33.1289 1187.5781,31.4883 Q1186.2656,29.832 1186.2656,26.707 Q1186.2656,23.582 1187.5781,21.9258 Q1188.9063,20.2695 1191.4063,20.2695 Q1192.1094,20.2695 1192.75,20.4258 Q1193.4063,20.582 1193.9688,20.8789 L1193.9688,23.5977 Q1193.3438,23.0195 1192.75,22.7539 Q1192.1563,22.4727 1191.5313,22.4727 Q1190.1875,22.4727 1189.5,23.5508 Q1188.8125,24.6133 1188.8125,26.707 Q1188.8125,28.8008 1189.5,29.8789 Q1190.1875,30.9414 1191.5313,30.9414 Q1192.1563,30.9414 1192.75,30.6758 Q1193.3438,30.3945 1193.9688,29.8164 L1193.9688,32.5352 Z " fill="#000000"/><text fill="#D9B8FF" font-family="Helvetica" font-size="17" lengthAdjust="spacing" textLength="70" x="1210" y="32.7798">aws_vpc</text></g><!--link aws_apigateway_authorizer to aws_lambda_function--><g id="link_aws_apigateway_authorizer_aws_lambda_function"><path codeLine="44" d="M560.27,246.8 C626.96,263.91 718.0084,287.2783 784.7484,304.4083 " fill="none" id="aws_apigateway_authorizer-to-aws_lambda_function" style="stroke:#1A83AF;stroke-width:2.0;"/><polygon fill="#1A83AF" points="790.56,305.9,782.837,299.7881,785.717,304.657,780.8481,307.5369,790.56,305.9" style="stroke:#1A83AF;stroke-width:2.0;"/></g><!--link aws_apigateway_resource to aws_apigateway_authorizer--><g id="link_aws_apigateway_resource_aws_apigateway_authorizer"><path codeLine="45" d="M584.5,147.01 C562.76,164.15 535.8811,185.3545 514.1611,202.4845 " fill="none" id="aws_apigateway_resource-to-aws_apigateway_authorizer" style="stroke:#1A83AF;stroke-width:2.0;"/><polygon fill="#1A83AF" points="509.45,206.2,518.9937,203.7674,513.3759,203.1037,514.0397,197.4859,509.45,206.2" style="stroke:#1A83AF;stroke-width:2.0;"/></g><!--link aws_apigateway_resource to aws_lambda_function--><g id="link_aws_apigateway_resource_aws_lambda_function"><path codeLine="46" d="M621.94,146.99 C639.67,172.33 673.61,217 711,246.37 C743.06,271.55 778.9036,289.7267 810.8336,303.5467 " fill="none" id="aws_apigateway_resource-to-aws_lambda_function" style="stroke:#1A83AF;stroke-width:2.0;"/><polygon fill="#1A83AF" points="816.34,305.93,809.6693,298.6842,811.7514,303.9439,806.4916,306.026,816.34,305.93" style="stroke:#1A83AF;stroke-width:2.0;"/></g><!--link aws_apigateway_rest_api to aws_apigateway_authorizer--><g id="link_aws_apigateway_rest_api_aws_apigateway_authorizer"><path codeLine="47" d="M430.86,47.22 C437.98,70.71 450.36,111.56 461,146.58 C467.2,166.99 472.5609,184.6306 477.4309,200.6106 " fill="none" id="aws_apigateway_rest_api-to-aws_apigateway_authorizer" style="stroke:#1A83AF;stroke-width:2.0;"/><polygon fill="#1A83AF" points="479.18,206.35,480.3826,196.5748,477.7224,201.5672,472.7301,198.907,479.18,206.35" style="stroke:#1A83AF;stroke-width:2.0;"/></g><!--link aws_apigateway_rest_api to aws_apigateway_resource--><g id="link_aws_apigateway_rest_api_aws_apigateway_resource"><path codeLine="48" d="M461.35,47.22 C493.61,64.36 535.1918,86.4641 567.4218,103.5941 " fill="none" id="aws_apigateway_rest_api-to-aws_apigateway_resource" style="stroke:#1A83AF;stroke-width:2.0;"/><polygon fill="#1A83AF" points="572.72,106.41,566.65,98.654,568.3049,104.0634,562.8955,105.7182,572.72,106.41" style="stroke:#1A83AF;stroke-width:2.0;"/></g><!--link aws_apigateway_rest_api to aws_lambda_function--><g id="link_aws_apigateway_rest_api_aws_lambda_function"><path codeLine="49" d="M404.02,47.23 C362.14,88.08 276.61,184.55 330,246.37 C357.3,277.98 598.782,303.1967 747.742,315.9867 " fill="none" id="aws_apigateway_rest_api-to-aws_lambda_function" style="stroke:#1A83AF;stroke-width:2.0;"/><polygon fill="#1A83AF" points="753.72,316.5,745.0952,311.7447,748.7383,316.0723,744.4108,319.7154,753.72,316.5" style="stroke:#1A83AF;stroke-width:2.0;"/></g><!--link aws_cloudfront_distribution to aws_lambda_function--><g id="link_aws_cloudfront_distribution_aws_lambda_function"><path codeLine="50" d="M866,246.8 C866,263.94 866,282.85 866,299.99 " fill="none" id="aws_cloudfront_distribution-to-aws_lambda_function" style="stroke:#1A83AF;stroke-width:2.0;"/><polygon fill="#1A83AF" points="866,305.99,870,296.99,866,300.99,862,296.99,866,305.99" style="stroke:#1A83AF;stroke-width:2.0;"/></g><!--link aws_cognito_user_pool to aws_kms_key--><g id="link_aws_cognito_user_pool_aws_kms_key"><path codeLine="51" d="M196.5,246.78 C338.35,284.55 645.322,366.2963 787.412,404.1263 " fill="none" id="aws_cognito_user_pool-to-aws_kms_key" style="stroke:#1A83AF;stroke-width:2.0;"/><polygon fill="#1A83AF" points="793.21,405.67,785.5421,399.4892,788.3783,404.3836,783.4839,407.2199,793.21,405.67" style="stroke:#1A83AF;stroke-width:2.0;"/></g><!--link aws_cognito_user_pool to aws_lambda_function--><g id="link_aws_cognito_user_pool_aws_lambda_function"><path codeLine="52" d="M241.16,242.92 C381.65,261.43 609.4715,291.4558 747.7515,309.6858 " fill="none" id="aws_cognito_user_pool-to-aws_lambda_function" style="stroke:#1A83AF;stroke-width:2.0;"/><polygon fill="#1A83AF" points="753.7,310.47,745.3,305.328,748.7429,309.8165,744.2544,313.2594,753.7,310.47" style="stroke:#1A83AF;stroke-width:2.0;"/></g><!--link aws_ec2_security_group to aws_lambda_function--><g id="link_aws_ec2_security_group_aws_lambda_function"><path codeLine="53" d="M1212.16,146.86 C1184.78,172.45 1133.01,217.85 1082,246.37 C1035.83,272.19 985.3202,290.6311 941.8002,304.1411 " fill="none" id="aws_ec2_security_group-to-aws_lambda_function" style="stroke:#1A83AF;stroke-width:2.0;"/><polygon fill="#1A83AF" points="936.07,305.92,945.8513,307.0719,940.8452,304.4376,943.4795,299.4316,936.07,305.92" style="stroke:#1A83AF;stroke-width:2.0;"/></g><!--link aws_ec2_security_group to aws_sagemaker_labeling_job--><g id="link_aws_ec2_security_group_aws_sagemaker_labeling_job"><path codeLine="54" d="M1249.78,147.01 C1265.56,164.15 1284.4262,184.6557 1300.1962,201.7857 " fill="none" id="aws_ec2_security_group-to-aws_sagemaker_labeling_job" style="stroke:#1A83AF;stroke-width:2.0;"/><polygon fill="#1A83AF" points="1304.26,206.2,1301.1071,196.8694,1300.8735,202.5215,1295.2215,202.2878,1304.26,206.2" style="stroke:#1A83AF;stroke-width:2.0;"/></g><!--link aws_ec2_subnet to aws_lambda_function--><g id="link_aws_ec2_subnet_aws_lambda_function"><path codeLine="55" d="M1486.57,146.8 C1495.44,172.73 1506.1,218.99 1482,246.37 C1449.32,283.5 1152.9776,307.5544 984.3576,318.4144 " fill="none" id="aws_ec2_subnet-to-aws_lambda_function" style="stroke:#1A83AF;stroke-width:2.0;"/><polygon fill="#1A83AF" points="978.37,318.8,987.6085,322.2133,983.3597,318.4786,987.0943,314.2298,978.37,318.8" style="stroke:#1A83AF;stroke-width:2.0;"/></g><!--link aws_ec2_subnet to aws_sagemaker_labeling_job--><g id="link_aws_ec2_subnet_aws_sagemaker_labeling_job"><path codeLine="56" d="M1447.98,147.01 C1420.46,164.15 1385.5533,185.8985 1358.0433,203.0285 " fill="none" id="aws_ec2_subnet-to-aws_sagemaker_labeling_job" style="stroke:#1A83AF;stroke-width:2.0;"/><polygon fill="#1A83AF" points="1352.95,206.2,1362.7043,204.8383,1357.1944,203.5571,1358.4756,198.0472,1352.95,206.2" style="stroke:#1A83AF;stroke-width:2.0;"/></g><!--link aws_lambda_function to aws_kms_key--><g id="link_aws_lambda_function_aws_kms_key"><path codeLine="57" d="M866,346.59 C866,363.73 866,382.64 866,399.78 " fill="none" id="aws_lambda_function-to-aws_kms_key" style="stroke:#1A83AF;stroke-width:2.0;"/><polygon fill="#1A83AF" points="866,405.78,870,396.78,866,400.78,862,396.78,866,405.78" style="stroke:#1A83AF;stroke-width:2.0;"/></g><!--link aws_sagemaker_labeling_job to aws_kms_key--><g id="link_aws_sagemaker_labeling_job_aws_kms_key"><path codeLine="58" d="M1277.45,246.78 C1190.27,284.55 1003.5656,365.455 916.2356,403.285 " fill="none" id="aws_sagemaker_labeling_job-to-aws_kms_key" style="stroke:#1A83AF;stroke-width:2.0;"/><polygon fill="#1A83AF" points="910.73,405.67,920.5784,405.763,915.318,403.6825,917.3985,398.4221,910.73,405.67" style="stroke:#1A83AF;stroke-width:2.0;"/></g><!--link aws_sagemaker_labeling_job to aws_lambda_function--><g id="link_aws_sagemaker_labeling_job_aws_lambda_function"><path codeLine="59" d="M1231.64,246.86 C1151.8,263.98 1041.8366,287.562 962.0466,304.672 " fill="none" id="aws_sagemaker_labeling_job-to-aws_lambda_function" style="stroke:#1A83AF;stroke-width:2.0;"/><polygon fill="#1A83AF" points="956.18,305.93,965.8186,307.954,961.0689,304.8816,964.1413,300.1319,956.18,305.93" style="stroke:#1A83AF;stroke-width:2.0;"/></g><!--link aws_vpc to aws_ec2_security_group--><g id="link_aws_vpc_aws_ec2_security_group"><path codeLine="60" d="M1232,47.22 C1232,64.36 1232,83.28 1232,100.41 " fill="none" id="aws_vpc-to-aws_ec2_security_group" style="stroke:#1A83AF;stroke-width:2.0;"/><polygon fill="#1A83AF" points="1232,106.41,1236,97.41,1232,101.41,1228,97.41,1232,106.41" style="stroke:#1A83AF;stroke-width:2.0;"/></g><!--link aws_vpc to aws_ec2_subnet--><g id="link_aws_vpc_aws_ec2_subnet"><path codeLine="61" d="M1280.8,47.22 C1324.1,64.36 1381.4513,87.0715 1424.7213,104.2015 " fill="none" id="aws_vpc-to-aws_ec2_subnet" style="stroke:#1A83AF;stroke-width:2.0;"/><polygon fill="#1A83AF" points="1430.3,106.41,1423.4043,99.378,1425.6511,104.5695,1420.4595,106.8163,1430.3,106.41" style="stroke:#1A83AF;stroke-width:2.0;"/></g><!--link aws_vpc to aws_lambda_function--><g id="link_aws_vpc_aws_lambda_function"><path codeLine="62" d="M1182.21,47.24 C1153.08,60.52 1117.19,80.51 1092,106.79 C1043.85,157.05 1070.21,197.15 1021,246.37 C993.89,273.49 961.0894,290.8633 929.3094,303.7633 " fill="none" id="aws_vpc-to-aws_lambda_function" style="stroke:#1A83AF;stroke-width:2.0;"/><polygon fill="#1A83AF" points="923.75,306.02,933.5936,306.3413,928.3829,304.1394,930.5847,298.9287,923.75,306.02" style="stroke:#1A83AF;stroke-width:2.0;"/></g><!--SRC=[hPDFYzim4CNl-HI2d1UI3MsIIo4DBDlBKhgzbMB6qiZHsfRCIDxWbdxtsibkyKho7yeUSeZcDtfldaSd9P1XMRc6bLYcI7PXSwKh82ZPWSYSZwOmn9PIWjni_UATqMuIU80IsJqMp-WK1v_uVb8yrsWjk-sLFWFFCpAr5jVh7O6sRGcrwr770gmzE4SghHtsp8XzkfFI9_rBbnkntdx403Caa5wGrMebrdiVcPGQdViVyQX-8LltGtim3WERWSI56dNP4JsJmQ2lzK6FNq48fJFseNVsxUg9DDARyySJ27FkQ0c5xSjOXuJ6DHKUWwbmlnDo6uM_3C6yIux1sIPGgGmSdg59e7OdGssKn7ul_iGPGcjguZXAkEw_H_32r49I6rKYbBrkcZBQfqocbJD9RP6IofZ2goE_JIpocfHhacwmAWRKgKRd5VAo_M7ZdHPGfW8IMMiUSMCXmnBorae1AHRjXqcUJEf1pnM_d0o7UVDZkJxiDeUxdpUVOggBeOo3nkZzyzkdTQzVxhzrfzjVpSrlZfaUMgPvpS6E1Mqlop8NZwb4DlNT-k9xkV3sVxxS03yYux-RqGG7dj6xzCHcwbva08QvJh2NK8OPJ_Wl]--></g></svg>