<svg xmlns="http://www.w3.org/2000/svg" width="587" height="1246" viewBox="0 0 587 1246"><rect width="237" height="179.273" x="175.5" y="1060.21" fill="#3D176E" rx="2.5" ry="2.5" style="stroke:#000d19;stroke-width:.5"/><circle cx="190.5" cy="1080.104" r="11" fill="#ADD1B2" style="stroke:#181818;stroke-width:1"/><path d="M193.469 1085.745q-.578.297-1.219.438-.64.156-1.344.156-2.5 0-3.828-1.64-1.312-1.657-1.312-4.782t1.312-4.781q1.328-1.657 3.828-1.657.703 0 1.344.157.656.156 1.219.453v2.719q-.625-.579-1.219-.844-.594-.281-1.219-.281-1.344 0-2.031 1.078-.687 1.062-.687 3.156t.687 3.172q.688 1.062 2.031 1.062.625 0 1.219-.265.594-.282 1.219-.86z"/><text x="209.5" y="1085.99" fill="#D9B8FF" font-family="Helvetica" font-size="17" textLength="195">gcp_deprecation_status</text><path d="M176.5 1099.999h235" style="stroke:#000d19;stroke-width:.5"/><text x="186.5" y="1121.994" fill="#D9B8FF" font-family="sans-serif" font-size="14" font-weight="bold" textLength="60">deleted</text><text x="246.5" y="1121.994" fill="#D9B8FF" font-family="sans-serif" font-size="14" textLength="48">: string</text><text x="186.5" y="1148.291" fill="#D9B8FF" font-family="sans-serif" font-size="14" font-weight="bold" textLength="91">deprecated</text><text x="277.5" y="1148.291" fill="#D9B8FF" font-family="sans-serif" font-size="14" textLength="48">: string</text><text x="186.5" y="1174.588" fill="#D9B8FF" font-family="sans-serif" font-size="14" font-weight="bold" textLength="69">obsolete</text><text x="255.5" y="1174.588" fill="#D9B8FF" font-family="sans-serif" font-size="14" textLength="48">: string</text><text x="186.5" y="1200.885" fill="#D9B8FF" font-family="sans-serif" font-size="14" font-weight="bold" textLength="99">replacement</text><text x="285.5" y="1200.885" fill="#D9B8FF" font-family="sans-serif" font-size="14" textLength="48">: string</text><text x="186.5" y="1227.182" fill="#D9B8FF" font-family="sans-serif" font-size="14" font-weight="bold" textLength="40">state</text><text x="226.5" y="1227.182" fill="#D9B8FF" font-family="sans-serif" font-size="14" textLength="48">: string</text><rect width="346" height="126.68" x="234" y="873.53" fill="#3D176E" rx="2.5" ry="2.5" style="stroke:#000d19;stroke-width:.5"/><circle cx="352.75" cy="893.424" r="11" fill="#ADD1B2" style="stroke:#181818;stroke-width:1"/><path d="M355.719 899.065q-.578.297-1.219.438-.64.156-1.344.156-2.5 0-3.828-1.64-1.312-1.657-1.312-4.782t1.312-4.781q1.328-1.657 3.828-1.657.703 0 1.344.157.656.156 1.219.453v2.719q-.625-.579-1.219-.844-.594-.281-1.219-.281-1.344 0-2.031 1.078-.687 1.062-.687 3.156t.687 3.172q.688 1.062 2.031 1.062.625 0 1.219-.265.594-.282 1.219-.86z"/><text x="378.25" y="899.31" fill="#D9B8FF" font-family="Helvetica" font-size="17" textLength="90">gcp_region</text><path d="M235 913.319h344" style="stroke:#000d19;stroke-width:.5"/><text x="245" y="935.314" fill="#D9B8FF" font-family="sans-serif" font-size="14" font-weight="bold" textLength="149">region_deprecated</text><text x="394" y="935.314" fill="#D9B8FF" font-family="sans-serif" font-size="14" textLength="175">: gcp_deprecation_status</text><text x="245" y="961.611" fill="#D9B8FF" font-family="sans-serif" font-size="14" font-weight="bold" textLength="164">region_supports_pzs</text><text x="409" y="961.611" fill="#D9B8FF" font-family="sans-serif" font-size="14" textLength="65">: boolean</text><text x="245" y="987.908" fill="#D9B8FF" font-family="sans-serif" font-size="14" font-weight="bold" textLength="49">status</text><text x="294" y="987.908" fill="#D9B8FF" font-family="sans-serif" font-size="14" textLength="48">: string</text><rect width="348" height="152.977" x="7" y="599.55" fill="#3D176E" rx="2.5" ry="2.5" style="stroke:#000d19;stroke-width:.5"/><circle cx="117.75" cy="619.444" r="11" fill="#ADD1B2" style="stroke:#181818;stroke-width:1"/><path d="M120.719 625.085q-.578.297-1.219.438-.64.156-1.344.156-2.5 0-3.828-1.64-1.312-1.657-1.312-4.782t1.312-4.781q1.328-1.657 3.828-1.657.703 0 1.344.157.656.156 1.219.453v2.719q-.625-.579-1.219-.844-.594-.281-1.219-.281-1.344 0-2.031 1.078-.687 1.062-.687 3.156t.687 3.172q.688 1.062 2.031 1.062.625 0 1.219-.265.594-.282 1.219-.86z"/><text x="143.25" y="625.33" fill="#D9B8FF" font-family="Helvetica" font-size="17" textLength="108">gcp_resource</text><path d="M8 639.339h346" style="stroke:#000d19;stroke-width:.5"/><text x="18" y="661.334" fill="#D9B8FF" font-family="sans-serif" font-size="14" font-weight="bold" textLength="151">deprecation_status</text><text x="169" y="661.334" fill="#D9B8FF" font-family="sans-serif" font-size="14" textLength="175">: gcp_deprecation_status</text><text x="18" y="687.631" fill="#D9B8FF" font-family="sans-serif" font-size="14" font-weight="bold" textLength="89">description</text><text x="107" y="687.631" fill="#D9B8FF" font-family="sans-serif" font-size="14" textLength="48">: string</text><text x="18" y="713.928" fill="#D9B8FF" font-family="sans-serif" font-size="14" font-weight="bold" textLength="128">label_fingerprint</text><text x="146" y="713.928" fill="#D9B8FF" font-family="sans-serif" font-size="14" textLength="48">: string</text><text x="18" y="740.225" fill="#D9B8FF" font-family="sans-serif" font-size="14" font-weight="bold" textLength="27">link</text><text x="45" y="740.225" fill="#D9B8FF" font-family="sans-serif" font-size="14" textLength="48">: string</text><rect width="198" height="39.789" x="334" y="438.76" fill="#3D176E" rx="2.5" ry="2.5" style="stroke:#000d19;stroke-width:.5"/><circle cx="349" cy="458.654" r="11" fill="#ADD1B2" style="stroke:#181818;stroke-width:1"/><path d="M351.969 464.295q-.578.297-1.219.438-.64.156-1.344.156-2.5 0-3.828-1.64-1.312-1.657-1.312-4.782t1.312-4.781q1.328-1.656 3.828-1.656.703 0 1.344.156.656.156 1.219.453v2.719q-.625-.579-1.219-.844-.594-.281-1.219-.281-1.344 0-2.031 1.078-.687 1.062-.687 3.156t.687 3.172q.688 1.062 2.031 1.062.625 0 1.219-.265.594-.281 1.219-.86z"/><text x="368" y="464.54" fill="#D9B8FF" font-family="Helvetica" font-size="17" textLength="156">phantom_resource</text><rect width="154" height="126.68" x="390" y="612.7" fill="#3D176E" rx="2.5" ry="2.5" style="stroke:#000d19;stroke-width:.5"/><circle cx="431.55" cy="632.595" r="11" fill="#ADD1B2" style="stroke:#181818;stroke-width:1"/><path d="M434.519 638.235q-.578.297-1.219.438-.64.156-1.344.156-2.5 0-3.828-1.64-1.312-1.657-1.312-4.782t1.312-4.781q1.328-1.656 3.828-1.656.703 0 1.344.156.656.156 1.219.453v2.719q-.625-.578-1.219-.844-.594-.281-1.219-.281-1.344 0-2.031 1.078-.687 1.062-.687 3.156t.687 3.172q.688 1.062 2.031 1.062.625 0 1.219-.265.594-.281 1.219-.86z"/><text x="456.45" y="638.48" fill="#D9B8FF" font-family="Helvetica" font-size="17" textLength="53">region</text><path d="M391 652.489h152" style="stroke:#000d19;stroke-width:.5"/><text x="401" y="674.484" fill="#D9B8FF" font-family="sans-serif" font-size="14" font-weight="bold" textLength="59">latitude</text><text x="460" y="674.484" fill="#D9B8FF" font-family="sans-serif" font-size="14" textLength="57">: double</text><text x="401" y="700.781" fill="#D9B8FF" font-family="sans-serif" font-size="14" font-weight="bold" textLength="84">long_name</text><text x="485" y="700.781" fill="#D9B8FF" font-family="sans-serif" font-size="14" textLength="48">: string</text><text x="401" y="727.078" fill="#D9B8FF" font-family="sans-serif" font-size="14" font-weight="bold" textLength="74">longitude</text><text x="475" y="727.078" fill="#D9B8FF" font-family="sans-serif" font-size="14" textLength="57">: double</text><rect width="227" height="310.758" x="169.5" y="7" fill="#3D176E" rx="2.5" ry="2.5" style="stroke:#000d19;stroke-width:.5"/><circle cx="238.25" cy="26.895" r="11" fill="#ADD1B2" style="stroke:#181818;stroke-width:1"/><path d="M241.219 32.535q-.578.297-1.219.438-.64.156-1.344.156-2.5 0-3.828-1.64-1.312-1.657-1.312-4.782t1.312-4.781q1.328-1.656 3.828-1.656.703 0 1.344.156.656.156 1.219.453v2.719q-.625-.578-1.219-.844-.594-.281-1.219-.281-1.344 0-2.031 1.078-.687 1.062-.687 3.156t.687 3.172q.688 1.062 2.031 1.062.625 0 1.219-.265.594-.281 1.219-.86z"/><text x="263.75" y="32.78" fill="#D9B8FF" font-family="Helvetica" font-size="17" textLength="71">resource</text><path d="M170.5 46.789h225" style="stroke:#000d19;stroke-width:.5"/><text x="180.5" y="68.784" fill="#D9B8FF" font-family="sans-serif" font-size="14" font-weight="bold" textLength="29">age</text><text x="209.5" y="68.784" fill="#D9B8FF" font-family="sans-serif" font-size="14" textLength="66">: duration</text><text x="180.5" y="95.081" fill="#D9B8FF" font-family="sans-serif" font-size="14" font-weight="bold" textLength="43">atime</text><text x="223.5" y="95.081" fill="#D9B8FF" font-family="sans-serif" font-size="14" textLength="70">: datetime</text><text x="180.5" y="121.378" fill="#D9B8FF" font-family="sans-serif" font-size="14" font-weight="bold" textLength="43">ctime</text><text x="223.5" y="121.378" fill="#D9B8FF" font-family="sans-serif" font-size="14" textLength="70">: datetime</text><text x="180.5" y="147.675" fill="#D9B8FF" font-family="sans-serif" font-size="14" font-weight="bold" textLength="14">id</text><text x="194.5" y="147.675" fill="#D9B8FF" font-family="sans-serif" font-size="14" textLength="48">: string</text><text x="180.5" y="173.972" fill="#D9B8FF" font-family="sans-serif" font-size="14" font-weight="bold" textLength="33">kind</text><text x="213.5" y="173.972" fill="#D9B8FF" font-family="sans-serif" font-size="14" textLength="48">: string</text><text x="180.5" y="200.269" fill="#D9B8FF" font-family="sans-serif" font-size="14" font-weight="bold" textLength="90">last_access</text><text x="270.5" y="200.269" fill="#D9B8FF" font-family="sans-serif" font-size="14" textLength="66">: duration</text><text x="180.5" y="226.565" fill="#D9B8FF" font-family="sans-serif" font-size="14" font-weight="bold" textLength="90">last_update</text><text x="270.5" y="226.565" fill="#D9B8FF" font-family="sans-serif" font-size="14" textLength="66">: duration</text><text x="180.5" y="252.862" fill="#D9B8FF" font-family="sans-serif" font-size="14" font-weight="bold" textLength="48">mtime</text><text x="228.5" y="252.862" fill="#D9B8FF" font-family="sans-serif" font-size="14" textLength="70">: datetime</text><text x="180.5" y="279.159" fill="#D9B8FF" font-family="sans-serif" font-size="14" font-weight="bold" textLength="43">name</text><text x="223.5" y="279.159" fill="#D9B8FF" font-family="sans-serif" font-size="14" textLength="48">: string</text><text x="180.5" y="305.456" fill="#D9B8FF" font-family="sans-serif" font-size="14" font-weight="bold" textLength="34">tags</text><text x="214.5" y="305.456" fill="#D9B8FF" font-family="sans-serif" font-size="14" textLength="171">: dictionary[string, string]</text><path fill="none" d="M373.4 1000.6c-9.95 18.58-18.218 34.01-28.878 53.92" style="stroke:#ffaf37;stroke-width:2"/><path fill="#FFAF37" d="m341.69 1059.81 7.774-6.046-5.414 1.638-1.638-5.414z" style="stroke:#ffaf37;stroke-width:2"/><g fill="none"><path d="M259.12 766.508c33.34 38.18 61.43 70.352 93.03 106.542" style="stroke:#ffaf37;stroke-width:2"/><path d="m247.28 752.95 7.32 17.505 9.039-7.893z" style="stroke:#ffaf37;stroke-width:2"/></g><g fill="none"><path d="M448.415 757.225c-9.4 40.55-17.525 75.595-26.925 116.115" style="stroke:#ffaf37;stroke-width:2"/><path d="m452.48 739.69-9.91 16.18 11.69 2.71z" style="stroke:#ffaf37;stroke-width:2"/></g><path fill="none" d="M181.25 752.75c2.08 66.53 9.72 165.26 34.75 247.46 6.11 20.07 12.282 35.24 21.832 54.39" style="stroke:#ffaf37;stroke-width:2"/><path fill="#FFAF37" d="m240.51 1059.97-.437-9.84-1.794 5.365-5.365-1.794z" style="stroke:#ffaf37;stroke-width:2"/><path fill="none" d="M248.671 335.593c-18.56 93.11-37.861 189.907-52.581 263.737m56.1-281.39-9.403 16.48 11.768 2.346zm117.716 15.936c24.62 48.29 40.524 79.494 53.414 104.804m-61.59-120.84 2.83 18.761 10.691-5.45z" style="stroke:#ffaf37;stroke-width:2"/><g fill="none"><path d="M438.826 496.55c4.68 29.65 11.094 70.26 18.264 115.68" style="stroke:#ffaf37;stroke-width:2"/><path d="m436.02 478.77-3.12 18.715 11.853-1.87z" style="stroke:#ffaf37;stroke-width:2"/></g></svg>