<svg xmlns="http://www.w3.org/2000/svg" width="1681" height="2306" viewBox="0 0 1681 2306"><rect width="227" height="74.086" x="385.5" y="639" fill="#3D176E" rx="2.5" ry="2.5" style="stroke:#000d19;stroke-width:.5"/><circle cx="465.25" cy="658.894" r="11" fill="#ADD1B2" style="stroke:#181818;stroke-width:1"/><path d="M468.219 664.535q-.578.297-1.219.438-.64.156-1.344.156-2.5 0-3.828-1.64-1.312-1.657-1.312-4.782t1.312-4.781q1.328-1.657 3.828-1.657.703 0 1.344.157.656.156 1.219.453v2.719q-.625-.578-1.219-.844-.594-.281-1.219-.281-1.344 0-2.031 1.078-.687 1.062-.687 3.156t.687 3.172q.688 1.062 2.031 1.062.625 0 1.219-.265.594-.282 1.219-.86z"/><text x="490.75" y="664.78" fill="#D9B8FF" font-family="Helvetica" font-size="17" textLength="49">ai_job</text><path d="M386.5 678.789h225" style="stroke:#000d19;stroke-width:.5"/><text x="396.5" y="700.784" fill="#D9B8FF" font-family="sans-serif" font-size="14" font-weight="bold" textLength="100">ai_job_status</text><text x="496.5" y="700.784" fill="#D9B8FF" font-family="sans-serif" font-size="14" textLength="105">: a_i_job_status</text><rect width="137" height="39.789" x="580.5" y="438.76" fill="#3D176E" rx="2.5" ry="2.5" style="stroke:#000d19;stroke-width:.5"/><circle cx="595.5" cy="458.654" r="11" fill="#ADD1B2" style="stroke:#181818;stroke-width:1"/><path d="M598.469 464.295q-.578.297-1.219.438-.64.156-1.344.156-2.5 0-3.828-1.64-1.312-1.657-1.312-4.782t1.312-4.781q1.328-1.656 3.828-1.656.703 0 1.344.156.656.156 1.219.453v2.719q-.625-.579-1.219-.844-.594-.281-1.219-.281-1.343 0-2.031 1.078-.687 1.062-.687 3.156t.687 3.172q.688 1.062 2.031 1.062.625 0 1.219-.265.594-.281 1.219-.86z"/><text x="614.5" y="464.54" fill="#D9B8FF" font-family="Helvetica" font-size="17" textLength="95">ai_resource</text><rect width="237" height="179.273" x="723.5" y="1336.32" fill="#3D176E" rx="2.5" ry="2.5" style="stroke:#000d19;stroke-width:.5"/><circle cx="738.5" cy="1356.215" r="11" fill="#ADD1B2" style="stroke:#181818;stroke-width:1"/><path d="M741.469 1361.855q-.578.297-1.219.438-.64.156-1.344.156-2.5 0-3.828-1.64-1.312-1.657-1.312-4.782t1.312-4.781q1.328-1.657 3.828-1.657.703 0 1.344.157.656.156 1.219.453v2.719q-.625-.578-1.219-.844-.594-.281-1.219-.281-1.343 0-2.031 1.078-.687 1.062-.687 3.156t.687 3.172q.688 1.062 2.031 1.062.625 0 1.219-.265.594-.282 1.219-.86z"/><text x="757.5" y="1362.1" fill="#D9B8FF" font-family="Helvetica" font-size="17" textLength="195">gcp_deprecation_status</text><path d="M724.5 1376.109h235" style="stroke:#000d19;stroke-width:.5"/><text x="734.5" y="1398.104" fill="#D9B8FF" font-family="sans-serif" font-size="14" font-weight="bold" textLength="60">deleted</text><text x="794.5" y="1398.104" fill="#D9B8FF" font-family="sans-serif" font-size="14" textLength="48">: string</text><text x="734.5" y="1424.401" fill="#D9B8FF" font-family="sans-serif" font-size="14" font-weight="bold" textLength="91">deprecated</text><text x="825.5" y="1424.401" fill="#D9B8FF" font-family="sans-serif" font-size="14" textLength="48">: string</text><text x="734.5" y="1450.698" fill="#D9B8FF" font-family="sans-serif" font-size="14" font-weight="bold" textLength="69">obsolete</text><text x="803.5" y="1450.698" fill="#D9B8FF" font-family="sans-serif" font-size="14" textLength="48">: string</text><text x="734.5" y="1476.995" fill="#D9B8FF" font-family="sans-serif" font-size="14" font-weight="bold" textLength="99">replacement</text><text x="833.5" y="1476.995" fill="#D9B8FF" font-family="sans-serif" font-size="14" textLength="48">: string</text><text x="734.5" y="1503.292" fill="#D9B8FF" font-family="sans-serif" font-size="14" font-weight="bold" textLength="40">state</text><text x="774.5" y="1503.292" fill="#D9B8FF" font-family="sans-serif" font-size="14" textLength="48">: string</text><rect width="134" height="39.789" x="54" y="1776.82" fill="#3D176E" rx="2.5" ry="2.5" style="stroke:#000d19;stroke-width:.5"/><circle cx="69" cy="1796.715" r="11" fill="#ADD1B2" style="stroke:#181818;stroke-width:1"/><path d="M71.969 1802.355q-.578.297-1.219.438-.64.156-1.344.156-2.5 0-3.828-1.64-1.312-1.657-1.312-4.782t1.312-4.781q1.328-1.657 3.828-1.657.703 0 1.344.157.656.156 1.219.453v2.719q-.625-.578-1.219-.844-.594-.281-1.219-.281-1.344 0-2.031 1.078-.687 1.062-.687 3.156t.687 3.172q.688 1.062 2.031 1.062.625 0 1.219-.265.594-.282 1.219-.86z"/><text x="88" y="1802.6" fill="#D9B8FF" font-family="Helvetica" font-size="17" textLength="92">gcp_details</text><rect width="228" height="126.68" x="7" y="1362.62" fill="#3D176E" rx="2.5" ry="2.5" style="stroke:#000d19;stroke-width:.5"/><circle cx="22" cy="1382.514" r="11" fill="#ADD1B2" style="stroke:#181818;stroke-width:1"/><path d="M24.969 1388.155q-.578.297-1.219.438-.64.156-1.344.156-2.5 0-3.828-1.64-1.312-1.657-1.312-4.782t1.312-4.781q1.328-1.657 3.828-1.657.703 0 1.344.157.656.156 1.219.453v2.719q-.625-.579-1.219-.844-.594-.281-1.219-.281-1.343 0-2.031 1.078-.687 1.062-.687 3.156t.687 3.172q.688 1.062 2.031 1.062.625 0 1.219-.265.594-.282 1.219-.86z"/><text x="41" y="1388.4" fill="#D9B8FF" font-family="Helvetica" font-size="17" textLength="186">gcp_google_rpc_status</text><path d="M8 1402.409h226" style="stroke:#000d19;stroke-width:.5"/><text x="18" y="1424.404" fill="#D9B8FF" font-family="sans-serif" font-size="14" font-weight="bold" textLength="39">code</text><text x="57" y="1424.404" fill="#D9B8FF" font-family="sans-serif" font-size="14" textLength="44">: int64</text><text x="18" y="1450.701" fill="#D9B8FF" font-family="sans-serif" font-size="14" font-weight="bold" textLength="52">details</text><text x="70" y="1450.701" fill="#D9B8FF" font-family="sans-serif" font-size="14" textLength="97">: gcp_details[]</text><text x="18" y="1476.998" fill="#D9B8FF" font-family="sans-serif" font-size="14" font-weight="bold" textLength="71">message</text><text x="89" y="1476.998" fill="#D9B8FF" font-family="sans-serif" font-size="14" textLength="48">: string</text><rect width="348" height="152.977" x="647" y="599.55" fill="#3D176E" rx="2.5" ry="2.5" style="stroke:#000d19;stroke-width:.5"/><circle cx="757.75" cy="619.444" r="11" fill="#ADD1B2" style="stroke:#181818;stroke-width:1"/><path d="M760.719 625.085q-.578.297-1.219.438-.64.156-1.344.156-2.5 0-3.828-1.64-1.312-1.657-1.312-4.782t1.312-4.781q1.328-1.657 3.828-1.657.703 0 1.344.157.656.156 1.219.453v2.719q-.625-.579-1.219-.844-.594-.281-1.219-.281-1.343 0-2.031 1.078-.687 1.062-.687 3.156t.687 3.172q.688 1.062 2.031 1.062.625 0 1.219-.265.594-.282 1.219-.86z"/><text x="783.25" y="625.33" fill="#D9B8FF" font-family="Helvetica" font-size="17" textLength="108">gcp_resource</text><path d="M648 639.339h346" style="stroke:#000d19;stroke-width:.5"/><text x="658" y="661.334" fill="#D9B8FF" font-family="sans-serif" font-size="14" font-weight="bold" textLength="151">deprecation_status</text><text x="809" y="661.334" fill="#D9B8FF" font-family="sans-serif" font-size="14" textLength="175">: gcp_deprecation_status</text><text x="658" y="687.631" fill="#D9B8FF" font-family="sans-serif" font-size="14" font-weight="bold" textLength="89">description</text><text x="747" y="687.631" fill="#D9B8FF" font-family="sans-serif" font-size="14" textLength="48">: string</text><text x="658" y="713.928" fill="#D9B8FF" font-family="sans-serif" font-size="14" font-weight="bold" textLength="128">label_fingerprint</text><text x="786" y="713.928" fill="#D9B8FF" font-family="sans-serif" font-size="14" textLength="48">: string</text><text x="658" y="740.225" fill="#D9B8FF" font-family="sans-serif" font-size="14" font-weight="bold" textLength="27">link</text><text x="685" y="740.225" fill="#D9B8FF" font-family="sans-serif" font-size="14" textLength="48">: string</text><rect width="290" height="152.977" x="113" y="1972.65" fill="#3D176E" rx="2.5" ry="2.5" style="stroke:#000d19;stroke-width:.5"/><circle cx="128" cy="1992.544" r="11" fill="#ADD1B2" style="stroke:#181818;stroke-width:1"/><path d="M130.969 1998.185q-.578.297-1.219.438-.64.156-1.344.156-2.5 0-3.828-1.64-1.312-1.657-1.312-4.782t1.312-4.781q1.328-1.657 3.828-1.657.703 0 1.344.157.656.156 1.219.453v2.719q-.625-.579-1.219-.844-.594-.281-1.219-.281-1.344 0-2.031 1.078-.687 1.062-.687 3.156t.687 3.172q.688 1.062 2.031 1.062.625 0 1.219-.265.594-.282 1.219-.86z"/><text x="147" y="1998.43" fill="#D9B8FF" font-family="Helvetica" font-size="17" textLength="248">gcp_vertex_ai_container_spec</text><path d="M114 2012.439h288" style="stroke:#000d19;stroke-width:.5"/><text x="124" y="2034.434" fill="#D9B8FF" font-family="sans-serif" font-size="14" font-weight="bold" textLength="35">args</text><text x="159" y="2034.434" fill="#D9B8FF" font-family="sans-serif" font-size="14" textLength="58">: string[]</text><text x="124" y="2060.731" fill="#D9B8FF" font-family="sans-serif" font-size="14" font-weight="bold" textLength="76">command</text><text x="200" y="2060.731" fill="#D9B8FF" font-family="sans-serif" font-size="14" textLength="58">: string[]</text><text x="124" y="2087.028" fill="#D9B8FF" font-family="sans-serif" font-size="14" font-weight="bold" textLength="29">env</text><text x="153" y="2087.028" fill="#D9B8FF" font-family="sans-serif" font-size="14" textLength="171">: gcp_vertex_ai_env_var[]</text><text x="124" y="2113.325" fill="#D9B8FF" font-family="sans-serif" font-size="14" font-weight="bold" textLength="75">image_uri</text><text x="199" y="2113.325" fill="#D9B8FF" font-family="sans-serif" font-size="14" textLength="48">: string</text><rect width="386" height="284.461" x="306" y="873.53" fill="#3D176E" rx="2.5" ry="2.5" style="stroke:#000d19;stroke-width:.5"/><circle cx="380.25" cy="893.424" r="11" fill="#ADD1B2" style="stroke:#181818;stroke-width:1"/><path d="M383.219 899.065q-.578.297-1.219.438-.64.156-1.344.156-2.5 0-3.828-1.64-1.312-1.657-1.312-4.782t1.312-4.781q1.328-1.657 3.828-1.657.703 0 1.344.157.656.156 1.219.453v2.719q-.625-.579-1.219-.844-.594-.281-1.219-.281-1.344 0-2.031 1.078-.687 1.062-.687 3.156t.687 3.172q.688 1.062 2.031 1.062.625 0 1.219-.265.594-.282 1.219-.86z"/><text x="405.75" y="899.31" fill="#D9B8FF" font-family="Helvetica" font-size="17" textLength="219">gcp_vertex_ai_custom_job</text><path d="M307 913.319h384" style="stroke:#000d19;stroke-width:.5"/><text x="317" y="935.314" fill="#D9B8FF" font-family="sans-serif" font-size="14" font-weight="bold" textLength="92">create_time</text><text x="409" y="935.314" fill="#D9B8FF" font-family="sans-serif" font-size="14" textLength="70">: datetime</text><text x="317" y="961.611" fill="#D9B8FF" font-family="sans-serif" font-size="14" font-weight="bold" textLength="134">custom_job_spec</text><text x="451" y="961.611" fill="#D9B8FF" font-family="sans-serif" font-size="14" textLength="230">: gcp_vertex_ai_custom_job_spec</text><text x="317" y="987.908" fill="#D9B8FF" font-family="sans-serif" font-size="14" font-weight="bold" textLength="105">display_name</text><text x="422" y="987.908" fill="#D9B8FF" font-family="sans-serif" font-size="14" textLength="48">: string</text><text x="317" y="1014.205" fill="#D9B8FF" font-family="sans-serif" font-size="14" font-weight="bold" textLength="130">encryption_spec</text><text x="447" y="1014.205" fill="#D9B8FF" font-family="sans-serif" font-size="14" textLength="48">: string</text><text x="317" y="1040.502" fill="#D9B8FF" font-family="sans-serif" font-size="14" font-weight="bold" textLength="71">end_time</text><text x="388" y="1040.502" fill="#D9B8FF" font-family="sans-serif" font-size="14" textLength="70">: datetime</text><text x="317" y="1066.799" fill="#D9B8FF" font-family="sans-serif" font-size="14" font-weight="bold" textLength="74">rpc_error</text><text x="391" y="1066.799" fill="#D9B8FF" font-family="sans-serif" font-size="14" textLength="169">: gcp_google_rpc_status</text><text x="317" y="1093.095" fill="#D9B8FF" font-family="sans-serif" font-size="14" font-weight="bold" textLength="78">start_time</text><text x="395" y="1093.095" fill="#D9B8FF" font-family="sans-serif" font-size="14" textLength="70">: datetime</text><text x="317" y="1119.392" fill="#D9B8FF" font-family="sans-serif" font-size="14" font-weight="bold" textLength="96">update_time</text><text x="413" y="1119.392" fill="#D9B8FF" font-family="sans-serif" font-size="14" textLength="70">: datetime</text><text x="317" y="1145.689" fill="#D9B8FF" font-family="sans-serif" font-size="14" font-weight="bold" textLength="133">web_access_uris</text><text x="450" y="1145.689" fill="#D9B8FF" font-family="sans-serif" font-size="14" textLength="171">: dictionary[string, string]</text><rect width="418" height="415.945" x="270" y="1217.99" fill="#3D176E" rx="2.5" ry="2.5" style="stroke:#000d19;stroke-width:.5"/><circle cx="337.75" cy="1237.884" r="11" fill="#ADD1B2" style="stroke:#181818;stroke-width:1"/><path d="M340.719 1243.525q-.578.297-1.219.438-.64.156-1.344.156-2.5 0-3.828-1.64-1.312-1.657-1.312-4.782t1.312-4.781q1.328-1.657 3.828-1.657.703 0 1.344.157.656.156 1.219.453v2.719q-.625-.579-1.219-.844-.594-.281-1.219-.281-1.344 0-2.031 1.078-.687 1.062-.687 3.156t.687 3.172q.688 1.062 2.031 1.062.625 0 1.219-.265.594-.282 1.219-.86z"/><text x="363.25" y="1243.77" fill="#D9B8FF" font-family="Helvetica" font-size="17" textLength="264">gcp_vertex_ai_custom_job_spec</text><path d="M271 1257.779h416" style="stroke:#000d19;stroke-width:.5"/><text x="281" y="1279.774" fill="#D9B8FF" font-family="sans-serif" font-size="14" font-weight="bold" textLength="176">base_output_directory</text><text x="457" y="1279.774" fill="#D9B8FF" font-family="sans-serif" font-size="14" textLength="48">: string</text><text x="281" y="1306.071" fill="#D9B8FF" font-family="sans-serif" font-size="14" font-weight="bold" textLength="206">enable_dashboard_access</text><text x="487" y="1306.071" fill="#D9B8FF" font-family="sans-serif" font-size="14" textLength="65">: boolean</text><text x="281" y="1332.368" fill="#D9B8FF" font-family="sans-serif" font-size="14" font-weight="bold" textLength="156">enable_web_access</text><text x="437" y="1332.368" fill="#D9B8FF" font-family="sans-serif" font-size="14" textLength="65">: boolean</text><text x="281" y="1358.665" fill="#D9B8FF" font-family="sans-serif" font-size="14" font-weight="bold" textLength="90">experiment</text><text x="371" y="1358.665" fill="#D9B8FF" font-family="sans-serif" font-size="14" textLength="48">: string</text><text x="281" y="1384.962" fill="#D9B8FF" font-family="sans-serif" font-size="14" font-weight="bold" textLength="124">experiment_run</text><text x="405" y="1384.962" fill="#D9B8FF" font-family="sans-serif" font-size="14" textLength="48">: string</text><text x="281" y="1411.259" fill="#D9B8FF" font-family="sans-serif" font-size="14" font-weight="bold" textLength="57">models</text><text x="338" y="1411.259" fill="#D9B8FF" font-family="sans-serif" font-size="14" textLength="58">: string[]</text><text x="281" y="1437.555" fill="#D9B8FF" font-family="sans-serif" font-size="14" font-weight="bold" textLength="66">network</text><text x="347" y="1437.555" fill="#D9B8FF" font-family="sans-serif" font-size="14" textLength="48">: string</text><text x="281" y="1463.852" fill="#D9B8FF" font-family="sans-serif" font-size="14" font-weight="bold" textLength="181">persistent_resource_id</text><text x="462" y="1463.852" fill="#D9B8FF" font-family="sans-serif" font-size="14" textLength="48">: string</text><text x="281" y="1490.149" fill="#D9B8FF" font-family="sans-serif" font-size="14" font-weight="bold" textLength="231">protected_artifact_location_id</text><text x="512" y="1490.149" fill="#D9B8FF" font-family="sans-serif" font-size="14" textLength="48">: string</text><text x="281" y="1516.446" fill="#D9B8FF" font-family="sans-serif" font-size="14" font-weight="bold" textLength="155">reserved_ip_ranges</text><text x="436" y="1516.446" fill="#D9B8FF" font-family="sans-serif" font-size="14" textLength="58">: string[]</text><text x="281" y="1542.743" fill="#D9B8FF" font-family="sans-serif" font-size="14" font-weight="bold" textLength="86">scheduling</text><text x="367" y="1542.743" fill="#D9B8FF" font-family="sans-serif" font-size="14" textLength="185">: gcp_vertex_ai_scheduling</text><text x="281" y="1569.04" fill="#D9B8FF" font-family="sans-serif" font-size="14" font-weight="bold" textLength="128">service_account</text><text x="409" y="1569.04" fill="#D9B8FF" font-family="sans-serif" font-size="14" textLength="48">: string</text><text x="281" y="1595.337" fill="#D9B8FF" font-family="sans-serif" font-size="14" font-weight="bold" textLength="98">tensorboard</text><text x="379" y="1595.337" fill="#D9B8FF" font-family="sans-serif" font-size="14" textLength="48">: string</text><text x="281" y="1621.634" fill="#D9B8FF" font-family="sans-serif" font-size="14" font-weight="bold" textLength="152">worker_pool_specs</text><text x="433" y="1621.634" fill="#D9B8FF" font-family="sans-serif" font-size="14" textLength="244">: gcp_vertex_ai_worker_pool_spec[]</text><rect width="244" height="100.383" x="438" y="1998.95" fill="#3D176E" rx="2.5" ry="2.5" style="stroke:#000d19;stroke-width:.5"/><circle cx="453" cy="2018.844" r="11" fill="#ADD1B2" style="stroke:#181818;stroke-width:1"/><path d="M455.969 2024.485q-.578.297-1.219.438-.64.156-1.344.156-2.5 0-3.828-1.64-1.312-1.657-1.312-4.782t1.312-4.781q1.328-1.657 3.828-1.657.703 0 1.344.157.656.156 1.219.453v2.719q-.625-.579-1.219-.844-.594-.281-1.219-.281-1.344 0-2.031 1.078-.687 1.062-.687 3.156t.687 3.172q.688 1.062 2.031 1.062.625 0 1.219-.265.594-.282 1.219-.86z"/><text x="472" y="2024.73" fill="#D9B8FF" font-family="Helvetica" font-size="17" textLength="202">gcp_vertex_ai_disk_spec</text><path d="M439 2038.739h242" style="stroke:#000d19;stroke-width:.5"/><text x="449" y="2060.734" fill="#D9B8FF" font-family="sans-serif" font-size="14" font-weight="bold" textLength="141">boot_disk_size_gb</text><text x="590" y="2060.734" fill="#D9B8FF" font-family="sans-serif" font-size="14" textLength="44">: int64</text><text x="449" y="2087.031" fill="#D9B8FF" font-family="sans-serif" font-size="14" font-weight="bold" textLength="117">boot_disk_type</text><text x="566" y="2087.031" fill="#D9B8FF" font-family="sans-serif" font-size="14" textLength="48">: string</text><rect width="233" height="100.383" x="762.5" y="2198.78" fill="#3D176E" rx="2.5" ry="2.5" style="stroke:#000d19;stroke-width:.5"/><circle cx="777.5" cy="2218.675" r="11" fill="#ADD1B2" style="stroke:#181818;stroke-width:1"/><path d="M780.469 2224.315q-.578.297-1.219.438-.64.156-1.344.156-2.5 0-3.828-1.64-1.312-1.657-1.312-4.782t1.312-4.781q1.328-1.657 3.828-1.657.703 0 1.344.157.656.156 1.219.453v2.719q-.625-.579-1.219-.844-.594-.281-1.219-.281-1.343 0-2.031 1.078-.687 1.062-.687 3.156t.687 3.172q.688 1.062 2.031 1.062.625 0 1.219-.265.594-.282 1.219-.86z"/><text x="796.5" y="2224.56" fill="#D9B8FF" font-family="Helvetica" font-size="17" textLength="191">gcp_vertex_ai_env_var</text><path d="M763.5 2238.569h231" style="stroke:#000d19;stroke-width:.5"/><text x="773.5" y="2260.564" fill="#D9B8FF" font-family="sans-serif" font-size="14" font-weight="bold" textLength="43">name</text><text x="816.5" y="2260.564" fill="#D9B8FF" font-family="sans-serif" font-size="14" textLength="48">: string</text><text x="773.5" y="2286.861" fill="#D9B8FF" font-family="sans-serif" font-size="14" font-weight="bold" textLength="42">value</text><text x="815.5" y="2286.861" fill="#D9B8FF" font-family="sans-serif" font-size="14" textLength="48">: string</text><rect width="283" height="152.977" x="717.5" y="1972.65" fill="#3D176E" rx="2.5" ry="2.5" style="stroke:#000d19;stroke-width:.5"/><circle cx="732.5" cy="1992.544" r="11" fill="#ADD1B2" style="stroke:#181818;stroke-width:1"/><path d="M735.469 1998.185q-.578.297-1.219.438-.64.156-1.344.156-2.5 0-3.828-1.64-1.312-1.657-1.312-4.782t1.312-4.781q1.328-1.657 3.828-1.657.703 0 1.344.157.656.156 1.219.453v2.719q-.625-.579-1.219-.844-.594-.281-1.219-.281-1.343 0-2.031 1.078-.687 1.062-.687 3.156t.687 3.172q.688 1.062 2.031 1.062.625 0 1.219-.265.594-.282 1.219-.86z"/><text x="751.5" y="1998.43" fill="#D9B8FF" font-family="Helvetica" font-size="17" textLength="241">gcp_vertex_ai_machine_spec</text><path d="M718.5 2012.439h281" style="stroke:#000d19;stroke-width:.5"/><text x="728.5" y="2034.434" fill="#D9B8FF" font-family="sans-serif" font-size="14" font-weight="bold" textLength="142">accelerator_count</text><text x="870.5" y="2034.434" fill="#D9B8FF" font-family="sans-serif" font-size="14" textLength="44">: int64</text><text x="728.5" y="2060.731" fill="#D9B8FF" font-family="sans-serif" font-size="14" font-weight="bold" textLength="132">accelerator_type</text><text x="860.5" y="2060.731" fill="#D9B8FF" font-family="sans-serif" font-size="14" textLength="48">: string</text><text x="728.5" y="2087.028" fill="#D9B8FF" font-family="sans-serif" font-size="14" font-weight="bold" textLength="108">machine_type</text><text x="836.5" y="2087.028" fill="#D9B8FF" font-family="sans-serif" font-size="14" textLength="48">: string</text><text x="728.5" y="2113.325" fill="#D9B8FF" font-family="sans-serif" font-size="14" font-weight="bold" textLength="102">tpu_topology</text><text x="830.5" y="2113.325" fill="#D9B8FF" font-family="sans-serif" font-size="14" textLength="48">: string</text><rect width="256" height="126.68" x="1036" y="1985.8" fill="#3D176E" rx="2.5" ry="2.5" style="stroke:#000d19;stroke-width:.5"/><circle cx="1051" cy="2005.695" r="11" fill="#ADD1B2" style="stroke:#181818;stroke-width:1"/><path d="M1053.969 2011.335q-.578.297-1.219.438-.64.156-1.344.156-2.5 0-3.828-1.64-1.312-1.657-1.312-4.782t1.312-4.781q1.328-1.657 3.828-1.657.703 0 1.344.157.656.156 1.219.453v2.719q-.625-.578-1.219-.844-.594-.281-1.219-.281-1.343 0-2.031 1.078-.687 1.062-.687 3.156t.687 3.172q.688 1.062 2.031 1.062.625 0 1.219-.265.594-.282 1.219-.86z"/><text x="1070" y="2011.58" fill="#D9B8FF" font-family="Helvetica" font-size="17" textLength="214">gcp_vertex_ai_nfs_mount</text><path d="M1037 2025.589h254" style="stroke:#000d19;stroke-width:.5"/><text x="1047" y="2047.584" fill="#D9B8FF" font-family="sans-serif" font-size="14" font-weight="bold" textLength="97">mount_point</text><text x="1144" y="2047.584" fill="#D9B8FF" font-family="sans-serif" font-size="14" textLength="48">: string</text><text x="1047" y="2073.881" fill="#D9B8FF" font-family="sans-serif" font-size="14" font-weight="bold" textLength="35">path</text><text x="1082" y="2073.881" fill="#D9B8FF" font-family="sans-serif" font-size="14" textLength="48">: string</text><text x="1047" y="2100.178" fill="#D9B8FF" font-family="sans-serif" font-size="14" font-weight="bold" textLength="52">server</text><text x="1099" y="2100.178" fill="#D9B8FF" font-family="sans-serif" font-size="14" textLength="48">: string</text><rect width="347" height="179.273" x="1327.5" y="1959.5" fill="#3D176E" rx="2.5" ry="2.5" style="stroke:#000d19;stroke-width:.5"/><circle cx="1342.5" cy="1979.395" r="11" fill="#ADD1B2" style="stroke:#181818;stroke-width:1"/><path d="M1345.469 1985.035q-.578.297-1.219.438-.64.156-1.344.156-2.5 0-3.828-1.64-1.312-1.657-1.312-4.782t1.312-4.781q1.328-1.656 3.828-1.656.703 0 1.344.156.656.156 1.219.453v2.719q-.625-.578-1.219-.844-.594-.281-1.219-.281-1.343 0-2.031 1.078-.687 1.062-.687 3.156t.687 3.172q.688 1.062 2.031 1.062.625 0 1.219-.265.594-.281 1.219-.86z"/><text x="1361.5" y="1985.28" fill="#D9B8FF" font-family="Helvetica" font-size="17" textLength="305">gcp_vertex_ai_python_package_spec</text><path d="M1328.5 1999.289h345" style="stroke:#000d19;stroke-width:.5"/><text x="1338.5" y="2021.284" fill="#D9B8FF" font-family="sans-serif" font-size="14" font-weight="bold" textLength="35">args</text><text x="1373.5" y="2021.284" fill="#D9B8FF" font-family="sans-serif" font-size="14" textLength="58">: string[]</text><text x="1338.5" y="2047.581" fill="#D9B8FF" font-family="sans-serif" font-size="14" font-weight="bold" textLength="29">env</text><text x="1367.5" y="2047.581" fill="#D9B8FF" font-family="sans-serif" font-size="14" textLength="171">: gcp_vertex_ai_env_var[]</text><text x="1338.5" y="2073.878" fill="#D9B8FF" font-family="sans-serif" font-size="14" font-weight="bold" textLength="153">executor_image_uri</text><text x="1491.5" y="2073.878" fill="#D9B8FF" font-family="sans-serif" font-size="14" textLength="48">: string</text><text x="1338.5" y="2100.175" fill="#D9B8FF" font-family="sans-serif" font-size="14" font-weight="bold" textLength="103">package_uris</text><text x="1441.5" y="2100.175" fill="#D9B8FF" font-family="sans-serif" font-size="14" textLength="58">: string[]</text><text x="1338.5" y="2126.472" fill="#D9B8FF" font-family="sans-serif" font-size="14" font-weight="bold" textLength="120">python_module</text><text x="1458.5" y="2126.472" fill="#D9B8FF" font-family="sans-serif" font-size="14" textLength="48">: string</text><rect width="324" height="126.68" x="270" y="1733.38" fill="#3D176E" rx="2.5" ry="2.5" style="stroke:#000d19;stroke-width:.5"/><circle cx="316.25" cy="1753.274" r="11" fill="#ADD1B2" style="stroke:#181818;stroke-width:1"/><path d="M319.219 1758.915q-.578.297-1.219.438-.64.156-1.344.156-2.5 0-3.828-1.64-1.312-1.657-1.312-4.782t1.312-4.781q1.328-1.657 3.828-1.657.703 0 1.344.157.656.156 1.219.453v2.719q-.625-.579-1.219-.844-.594-.281-1.219-.281-1.344 0-2.031 1.078-.687 1.062-.687 3.156t.687 3.172q.688 1.062 2.031 1.062.625 0 1.219-.265.594-.282 1.219-.86z"/><text x="341.75" y="1759.16" fill="#D9B8FF" font-family="Helvetica" font-size="17" textLength="213">gcp_vertex_ai_scheduling</text><path d="M271 1773.169h322" style="stroke:#000d19;stroke-width:.5"/><text x="281" y="1795.164" fill="#D9B8FF" font-family="sans-serif" font-size="14" font-weight="bold" textLength="116">disable_retries</text><text x="397" y="1795.164" fill="#D9B8FF" font-family="sans-serif" font-size="14" textLength="65">: boolean</text><text x="281" y="1821.461" fill="#D9B8FF" font-family="sans-serif" font-size="14" font-weight="bold" textLength="237">restart_job_on_worker_restart</text><text x="518" y="1821.461" fill="#D9B8FF" font-family="sans-serif" font-size="14" textLength="65">: boolean</text><text x="281" y="1847.758" fill="#D9B8FF" font-family="sans-serif" font-size="14" font-weight="bold" textLength="60">timeout</text><text x="341" y="1847.758" fill="#D9B8FF" font-family="sans-serif" font-size="14" textLength="48">: string</text><rect width="459" height="205.57" x="629.5" y="1693.93" fill="#3D176E" rx="2.5" ry="2.5" style="stroke:#000d19;stroke-width:.5"/><circle cx="713.75" cy="1713.824" r="11" fill="#ADD1B2" style="stroke:#181818;stroke-width:1"/><path d="M716.719 1719.465q-.578.297-1.219.438-.64.156-1.344.156-2.5 0-3.828-1.64-1.312-1.657-1.312-4.782t1.312-4.781q1.328-1.657 3.828-1.657.703 0 1.344.157.656.156 1.219.453v2.719q-.625-.579-1.219-.844-.594-.281-1.219-.281-1.343 0-2.031 1.078-.687 1.062-.687 3.156t.687 3.172q.688 1.062 2.031 1.062.625 0 1.219-.265.594-.282 1.219-.86z"/><text x="739.25" y="1719.71" fill="#D9B8FF" font-family="Helvetica" font-size="17" textLength="272">gcp_vertex_ai_worker_pool_spec</text><path d="M630.5 1733.719h457" style="stroke:#000d19;stroke-width:.5"/><text x="640.5" y="1755.714" fill="#D9B8FF" font-family="sans-serif" font-size="14" font-weight="bold" textLength="120">container_spec</text><text x="760.5" y="1755.714" fill="#D9B8FF" font-family="sans-serif" font-size="14" textLength="215">: gcp_vertex_ai_container_spec</text><text x="640.5" y="1782.011" fill="#D9B8FF" font-family="sans-serif" font-size="14" font-weight="bold" textLength="77">disk_spec</text><text x="717.5" y="1782.011" fill="#D9B8FF" font-family="sans-serif" font-size="14" textLength="178">: gcp_vertex_ai_disk_spec</text><text x="640.5" y="1808.308" fill="#D9B8FF" font-family="sans-serif" font-size="14" font-weight="bold" textLength="111">machine_spec</text><text x="751.5" y="1808.308" fill="#D9B8FF" font-family="sans-serif" font-size="14" textLength="209">: gcp_vertex_ai_machine_spec</text><text x="640.5" y="1834.605" fill="#D9B8FF" font-family="sans-serif" font-size="14" font-weight="bold" textLength="91">nfs_mounts</text><text x="731.5" y="1834.605" fill="#D9B8FF" font-family="sans-serif" font-size="14" textLength="192">: gcp_vertex_ai_nfs_mount[]</text><text x="640.5" y="1860.902" fill="#D9B8FF" font-family="sans-serif" font-size="14" font-weight="bold" textLength="173">python_package_spec</text><text x="813.5" y="1860.902" fill="#D9B8FF" font-family="sans-serif" font-size="14" textLength="264">: gcp_vertex_ai_python_package_spec</text><text x="640.5" y="1887.199" fill="#D9B8FF" font-family="sans-serif" font-size="14" font-weight="bold" textLength="105">replica_count</text><text x="745.5" y="1887.199" fill="#D9B8FF" font-family="sans-serif" font-size="14" textLength="48">: string</text><rect width="227" height="310.758" x="621.5" y="7" fill="#3D176E" rx="2.5" ry="2.5" style="stroke:#000d19;stroke-width:.5"/><circle cx="690.25" cy="26.895" r="11" fill="#ADD1B2" style="stroke:#181818;stroke-width:1"/><path d="M693.219 32.535q-.578.297-1.219.438-.64.156-1.344.156-2.5 0-3.828-1.64-1.312-1.657-1.312-4.782t1.312-4.781q1.328-1.656 3.828-1.656.703 0 1.344.156.656.156 1.219.453v2.719q-.625-.578-1.219-.844-.594-.281-1.219-.281-1.343 0-2.031 1.078-.687 1.062-.687 3.156t.687 3.172q.688 1.062 2.031 1.062.625 0 1.219-.265.594-.281 1.219-.86z"/><text x="715.75" y="32.78" fill="#D9B8FF" font-family="Helvetica" font-size="17" textLength="71">resource</text><path d="M622.5 46.789h225" style="stroke:#000d19;stroke-width:.5"/><text x="632.5" y="68.784" fill="#D9B8FF" font-family="sans-serif" font-size="14" font-weight="bold" textLength="29">age</text><text x="661.5" y="68.784" fill="#D9B8FF" font-family="sans-serif" font-size="14" textLength="66">: duration</text><text x="632.5" y="95.081" fill="#D9B8FF" font-family="sans-serif" font-size="14" font-weight="bold" textLength="43">atime</text><text x="675.5" y="95.081" fill="#D9B8FF" font-family="sans-serif" font-size="14" textLength="70">: datetime</text><text x="632.5" y="121.378" fill="#D9B8FF" font-family="sans-serif" font-size="14" font-weight="bold" textLength="43">ctime</text><text x="675.5" y="121.378" fill="#D9B8FF" font-family="sans-serif" font-size="14" textLength="70">: datetime</text><text x="632.5" y="147.675" fill="#D9B8FF" font-family="sans-serif" font-size="14" font-weight="bold" textLength="14">id</text><text x="646.5" y="147.675" fill="#D9B8FF" font-family="sans-serif" font-size="14" textLength="48">: string</text><text x="632.5" y="173.972" fill="#D9B8FF" font-family="sans-serif" font-size="14" font-weight="bold" textLength="33">kind</text><text x="665.5" y="173.972" fill="#D9B8FF" font-family="sans-serif" font-size="14" textLength="48">: string</text><text x="632.5" y="200.269" fill="#D9B8FF" font-family="sans-serif" font-size="14" font-weight="bold" textLength="90">last_access</text><text x="722.5" y="200.269" fill="#D9B8FF" font-family="sans-serif" font-size="14" textLength="66">: duration</text><text x="632.5" y="226.565" fill="#D9B8FF" font-family="sans-serif" font-size="14" font-weight="bold" textLength="90">last_update</text><text x="722.5" y="226.565" fill="#D9B8FF" font-family="sans-serif" font-size="14" textLength="66">: duration</text><text x="632.5" y="252.862" fill="#D9B8FF" font-family="sans-serif" font-size="14" font-weight="bold" textLength="48">mtime</text><text x="680.5" y="252.862" fill="#D9B8FF" font-family="sans-serif" font-size="14" textLength="70">: datetime</text><text x="632.5" y="279.159" fill="#D9B8FF" font-family="sans-serif" font-size="14" font-weight="bold" textLength="43">name</text><text x="675.5" y="279.159" fill="#D9B8FF" font-family="sans-serif" font-size="14" textLength="48">: string</text><text x="632.5" y="305.456" fill="#D9B8FF" font-family="sans-serif" font-size="14" font-weight="bold" textLength="34">tags</text><text x="666.5" y="305.456" fill="#D9B8FF" font-family="sans-serif" font-size="14" textLength="171">: dictionary[string, string]</text><path fill="none" d="M625.404 493.542c-24.95 35.83-68.844 98.848-100.994 145.018m111.28-159.79-15.21 11.343 9.848 6.857zm49.122-143.652c-14.11 48.29-22.872 78.252-30.262 103.562m35.31-120.84-10.808 15.595 11.519 3.365zM121 1489.52v280.96" style="stroke:#ffaf37;stroke-width:2"/><path fill="#FFAF37" d="m121 1776.48 4-9-4 4-4-4z" style="stroke:#ffaf37;stroke-width:2"/><path fill="none" d="M823.13 752.87c3.91 139.17 12.032 428.672 16.202 577.102" style="stroke:#ffaf37;stroke-width:2"/><path fill="#FFAF37" d="m839.5 1335.97 3.746-9.109-3.886 4.111-4.111-3.886z" style="stroke:#ffaf37;stroke-width:2"/><g fill="none"><path d="M763.964 335.691c15.65 93.11 31.906 189.809 44.306 263.639" style="stroke:#ffaf37;stroke-width:2"/><path d="m760.98 317.94-2.933 18.745 11.834-1.988z" style="stroke:#ffaf37;stroke-width:2"/></g><path fill="none" d="M390.14 2126.09c9.96 4.6 19.99 8.89 29.86 12.69 112.77 43.36 242.069 71.915 336.409 89.255" style="stroke:#ffaf37;stroke-width:2"/><path fill="#FFAF37" d="m762.31 2229.12-8.129-5.561 3.211 4.657-4.657 3.211z" style="stroke:#ffaf37;stroke-width:2"/><path fill="none" d="M499 731.5v141.58m0-159.58-6 18h12zm153.5 444.96c18.68 19.4 36.98 39.53 53.5 59.53 30.26 36.63 56.533 75.123 80.263 112.813" style="stroke:#ffaf37;stroke-width:2"/><path fill="#FFAF37" d="m789.46 1335.88-1.41-9.747-1.254 5.516-5.516-1.254z" style="stroke:#ffaf37;stroke-width:2"/><path fill="none" d="M311.6 1158.35c-21.05 19.07-41.43 39.16-59.6 59.64-39.23 44.21-71.557 96.19-95.587 139.26" style="stroke:#ffaf37;stroke-width:2"/><path fill="#FFAF37" d="m153.49 1362.49 7.878-5.91-5.442 1.544-1.544-5.442z" style="stroke:#ffaf37;stroke-width:2"/><g fill="none"><path d="M736.319 765.857c-33.84 35.49-62.869 65.933-102.199 107.183" style="stroke:#ffaf37;stroke-width:2"/><path d="m748.74 752.83-16.764 8.887 8.685 8.28z" style="stroke:#ffaf37;stroke-width:2"/></g><path fill="none" d="M492.06 1158.38c-.94 19.23-1.625 33.287-2.615 53.367" style="stroke:#ffaf37;stroke-width:2"/><path fill="#FFAF37" d="m489.15 1217.74 4.438-8.792-4.192 3.798-3.798-4.192z" style="stroke:#ffaf37;stroke-width:2"/><path fill="none" d="M452.58 1634.24c-4.58 35.91-8.24 64.698-11.81 92.688" style="stroke:#ffaf37;stroke-width:2"/><path fill="#FFAF37" d="m440.01 1732.88 5.106-8.422-4.473 3.462-3.462-4.474z" style="stroke:#ffaf37;stroke-width:2"/><path fill="none" d="m688.45 1630.22 60.924 59.112" style="stroke:#ffaf37;stroke-width:2"/><path fill="#FFAF37" d="m753.68 1693.51-3.674-9.138.086 5.656-5.657.085z" style="stroke:#ffaf37;stroke-width:2"/><path fill="none" d="M1327.2 2132.42c-5.77 2.21-11.52 4.34-17.2 6.36-104.02 36.94-220.447 65.416-308.147 84.466" style="stroke:#ffaf37;stroke-width:2"/><path fill="#FFAF37" d="m995.99 2224.52 9.644 1.998-4.758-3.06 3.06-4.757z" style="stroke:#ffaf37;stroke-width:2"/><path fill="none" d="M629.24 1892.81c-6.13 2.28-12.22 4.52-18.24 6.69-83.68 30.26-109.13 25.15-191 60-9.29 3.96-13.345 5.675-22.785 10.225" style="stroke:#ffaf37;stroke-width:2"/><path fill="#FFAF37" d="m391.81 1972.33 9.844-.304-5.34-1.867 1.867-5.34z" style="stroke:#ffaf37;stroke-width:2"/><path fill="none" d="M736.95 1899.94c-40.69 34.08-79.59 66.657-113.28 94.877" style="stroke:#ffaf37;stroke-width:2"/><path fill="#FFAF37" d="m619.07 1998.67 9.468-2.713-5.635-.498.498-5.635z" style="stroke:#ffaf37;stroke-width:2"/><path fill="none" d="M859 1899.94v66.39" style="stroke:#ffaf37;stroke-width:2"/><path fill="#FFAF37" d="m859 1972.33 4-9-4 4-4-4z" style="stroke:#ffaf37;stroke-width:2"/><path fill="none" d="M983.5 1899.94c35.24 28.94 67.923 55.773 99.423 81.633" style="stroke:#ffaf37;stroke-width:2"/><path fill="#FFAF37" d="m1087.56 1985.38-4.418-8.802.553 5.63-5.63.553z" style="stroke:#ffaf37;stroke-width:2"/><path fill="none" d="M1088.8 1875.65c71.39 25.41 150.02 54.64 221.2 83.85 5.66 2.33 5.886 2.388 11.666 4.838" style="stroke:#ffaf37;stroke-width:2"/><path fill="#FFAF37" d="m1327.19 1966.68-6.725-7.195 2.121 5.244-5.243 2.121z" style="stroke:#ffaf37;stroke-width:2"/></svg>