<svg xmlns="http://www.w3.org/2000/svg" width="578" height="846" viewBox="0 0 578 846"><rect width="564" height="152.977" x="7" y="686.43" fill="#3D176E" rx="2.5" ry="2.5" style="stroke:#000d19;stroke-width:.5"/><circle cx="22" cy="706.324" r="11" fill="#ADD1B2" style="stroke:#181818;stroke-width:1"/><path d="M24.969 711.965q-.578.297-1.219.438-.64.156-1.344.156-2.5 0-3.828-1.64-1.312-1.657-1.312-4.782t1.312-4.781q1.328-1.657 3.828-1.657.703 0 1.344.157.656.156 1.219.453v2.719q-.625-.579-1.219-.844-.594-.281-1.219-.281-1.343 0-2.031 1.078-.687 1.062-.687 3.156t.687 3.172q.688 1.062 2.031 1.062.625 0 1.219-.265.594-.282 1.219-.86z"/><text x="41" y="712.21" fill="#D9B8FF" font-family="Helvetica" font-size="17" textLength="522">azure_network_application_gateway_trusted_client_certificate</text><path d="M8 726.219h562" style="stroke:#000d19;stroke-width:.5"/><text x="18" y="748.214" fill="#D9B8FF" font-family="sans-serif" font-size="14" font-weight="bold" textLength="121">certificate_data</text><text x="139" y="748.214" fill="#D9B8FF" font-family="sans-serif" font-size="14" textLength="48">: string</text><text x="18" y="774.511" fill="#D9B8FF" font-family="sans-serif" font-size="14" font-weight="bold" textLength="165">client_cert_issuer_dn</text><text x="183" y="774.511" fill="#D9B8FF" font-family="sans-serif" font-size="14" textLength="48">: string</text><text x="18" y="800.808" fill="#D9B8FF" font-family="sans-serif" font-size="14" font-weight="bold" textLength="35">type</text><text x="53" y="800.808" fill="#D9B8FF" font-family="sans-serif" font-size="14" textLength="48">: string</text><text x="18" y="827.105" fill="#D9B8FF" font-family="sans-serif" font-size="14" font-weight="bold" textLength="151">validated_cert_data</text><text x="169" y="827.105" fill="#D9B8FF" font-family="sans-serif" font-size="14" textLength="48">: string</text><rect width="199" height="126.68" x="69.5" y="438.75" fill="#3D176E" rx="2.5" ry="2.5" style="stroke:#000d19;stroke-width:.5"/><circle cx="118.25" cy="458.644" r="11" fill="#ADD1B2" style="stroke:#181818;stroke-width:1"/><path d="M121.219 464.285q-.578.297-1.219.438-.64.156-1.344.156-2.5 0-3.828-1.64-1.312-1.657-1.312-4.782t1.312-4.781q1.328-1.656 3.828-1.656.703 0 1.344.156.656.156 1.219.453v2.719q-.625-.579-1.219-.844-.594-.281-1.219-.281-1.344 0-2.031 1.078-.687 1.062-.687 3.156t.687 3.172q.688 1.062 2.031 1.062.625 0 1.219-.265.594-.281 1.219-.86z"/><text x="143.75" y="464.53" fill="#D9B8FF" font-family="Helvetica" font-size="17" textLength="83">certificate</text><path d="M70.5 478.539h197" style="stroke:#000d19;stroke-width:.5"/><text x="80.5" y="500.534" fill="#D9B8FF" font-family="sans-serif" font-size="14" font-weight="bold" textLength="88">dns_names</text><text x="168.5" y="500.534" fill="#D9B8FF" font-family="sans-serif" font-size="14" textLength="58">: string[]</text><text x="80.5" y="526.831" fill="#D9B8FF" font-family="sans-serif" font-size="14" font-weight="bold" textLength="59">expires</text><text x="139.5" y="526.831" fill="#D9B8FF" font-family="sans-serif" font-size="14" textLength="70">: datetime</text><text x="80.5" y="553.128" fill="#D9B8FF" font-family="sans-serif" font-size="14" font-weight="bold" textLength="129">sha1_fingerprint</text><text x="209.5" y="553.128" fill="#D9B8FF" font-family="sans-serif" font-size="14" textLength="48">: string</text><rect width="214" height="100.383" x="303" y="451.9" fill="#3D176E" rx="2.5" ry="2.5" style="stroke:#000d19;stroke-width:.5"/><circle cx="324.3" cy="471.795" r="11" fill="#ADD1B2" style="stroke:#181818;stroke-width:1"/><path d="M327.269 477.435q-.578.297-1.219.438-.64.156-1.344.156-2.5 0-3.828-1.64-1.312-1.657-1.312-4.782t1.312-4.781q1.328-1.656 3.828-1.656.703 0 1.344.156.656.156 1.219.453v2.719q-.625-.578-1.219-.844-.594-.281-1.219-.281-1.344 0-2.031 1.078-.687 1.062-.687 3.156t.687 3.172q.688 1.062 2.031 1.062.625 0 1.219-.265.594-.281 1.219-.86z"/><text x="344.7" y="477.68" fill="#D9B8FF" font-family="Helvetica" font-size="17" textLength="158">microsoft_resource</text><path d="M304 491.689h212" style="stroke:#000d19;stroke-width:.5"/><text x="314" y="513.684" fill="#D9B8FF" font-family="sans-serif" font-size="14" font-weight="bold" textLength="35">etag</text><text x="349" y="513.684" fill="#D9B8FF" font-family="sans-serif" font-size="14" textLength="48">: string</text><text x="314" y="539.981" fill="#D9B8FF" font-family="sans-serif" font-size="14" font-weight="bold" textLength="144">provisioning_state</text><text x="458" y="539.981" fill="#D9B8FF" font-family="sans-serif" font-size="14" textLength="48">: string</text><rect width="227" height="310.758" x="175.5" y="7" fill="#3D176E" rx="2.5" ry="2.5" style="stroke:#000d19;stroke-width:.5"/><circle cx="244.25" cy="26.895" r="11" fill="#ADD1B2" style="stroke:#181818;stroke-width:1"/><path d="M247.219 32.535q-.578.297-1.219.438-.64.156-1.344.156-2.5 0-3.828-1.64-1.312-1.657-1.312-4.782t1.312-4.781q1.328-1.656 3.828-1.656.703 0 1.344.156.656.156 1.219.453v2.719q-.625-.578-1.219-.844-.594-.281-1.219-.281-1.344 0-2.031 1.078-.687 1.062-.687 3.156t.687 3.172q.688 1.062 2.031 1.062.625 0 1.219-.265.594-.281 1.219-.86z"/><text x="269.75" y="32.78" fill="#D9B8FF" font-family="Helvetica" font-size="17" textLength="71">resource</text><path d="M176.5 46.789h225" style="stroke:#000d19;stroke-width:.5"/><text x="186.5" y="68.784" fill="#D9B8FF" font-family="sans-serif" font-size="14" font-weight="bold" textLength="29">age</text><text x="215.5" y="68.784" fill="#D9B8FF" font-family="sans-serif" font-size="14" textLength="66">: duration</text><text x="186.5" y="95.081" fill="#D9B8FF" font-family="sans-serif" font-size="14" font-weight="bold" textLength="43">atime</text><text x="229.5" y="95.081" fill="#D9B8FF" font-family="sans-serif" font-size="14" textLength="70">: datetime</text><text x="186.5" y="121.378" fill="#D9B8FF" font-family="sans-serif" font-size="14" font-weight="bold" textLength="43">ctime</text><text x="229.5" y="121.378" fill="#D9B8FF" font-family="sans-serif" font-size="14" textLength="70">: datetime</text><text x="186.5" y="147.675" fill="#D9B8FF" font-family="sans-serif" font-size="14" font-weight="bold" textLength="14">id</text><text x="200.5" y="147.675" fill="#D9B8FF" font-family="sans-serif" font-size="14" textLength="48">: string</text><text x="186.5" y="173.972" fill="#D9B8FF" font-family="sans-serif" font-size="14" font-weight="bold" textLength="33">kind</text><text x="219.5" y="173.972" fill="#D9B8FF" font-family="sans-serif" font-size="14" textLength="48">: string</text><text x="186.5" y="200.269" fill="#D9B8FF" font-family="sans-serif" font-size="14" font-weight="bold" textLength="90">last_access</text><text x="276.5" y="200.269" fill="#D9B8FF" font-family="sans-serif" font-size="14" textLength="66">: duration</text><text x="186.5" y="226.565" fill="#D9B8FF" font-family="sans-serif" font-size="14" font-weight="bold" textLength="90">last_update</text><text x="276.5" y="226.565" fill="#D9B8FF" font-family="sans-serif" font-size="14" textLength="66">: duration</text><text x="186.5" y="252.862" fill="#D9B8FF" font-family="sans-serif" font-size="14" font-weight="bold" textLength="48">mtime</text><text x="234.5" y="252.862" fill="#D9B8FF" font-family="sans-serif" font-size="14" textLength="70">: datetime</text><text x="186.5" y="279.159" fill="#D9B8FF" font-family="sans-serif" font-size="14" font-weight="bold" textLength="43">name</text><text x="229.5" y="279.159" fill="#D9B8FF" font-family="sans-serif" font-size="14" textLength="48">: string</text><text x="186.5" y="305.456" fill="#D9B8FF" font-family="sans-serif" font-size="14" font-weight="bold" textLength="34">tags</text><text x="220.5" y="305.456" fill="#D9B8FF" font-family="sans-serif" font-size="14" textLength="171">: dictionary[string, string]</text><g fill="none"><path d="M205.62 582.08c16.78 36.2 30.45 65.68 48.18 103.92" style="stroke:#ffaf37;stroke-width:2"/><path d="m198.05 565.75 2.126 18.854 10.888-5.047z" style="stroke:#ffaf37;stroke-width:2"/></g><path fill="none" d="M379.19 568.998c-17.63 37.73-34.59 73.992-54.69 116.992m62.31-133.3-13.056 13.767 10.872 5.08z" style="stroke:#ffaf37;stroke-width:2"/><g fill="none"><path d="M228.064 334.861c-15.12 42.56-24.644 69.369-36.754 103.449" style="stroke:#ffaf37;stroke-width:2"/><path d="m234.09 317.9-11.68 14.953 11.308 4.017z" style="stroke:#ffaf37;stroke-width:2"/></g><path fill="none" d="M350.438 334.847c17.29 48.29 29.092 81.193 41.802 116.683M344.37 317.9l.419 18.969 11.297-4.045z" style="stroke:#ffaf37;stroke-width:2"/></svg>