<svg xmlns="http://www.w3.org/2000/svg" width="2990" height="2274" viewBox="0 0 2990 2274"><rect width="287" height="100.383" x="7" y="1675.17" fill="#3D176E" rx="2.5" ry="2.5" style="stroke:#000d19;stroke-width:.5"/><circle cx="22" cy="1695.064" r="11" fill="#ADD1B2" style="stroke:#181818;stroke-width:1"/><path d="M24.969 1700.705q-.578.297-1.219.438-.64.156-1.344.156-2.5 0-3.828-1.64-1.312-1.657-1.312-4.782t1.312-4.781q1.328-1.657 3.828-1.657.703 0 1.344.157.656.156 1.219.453v2.719q-.625-.579-1.219-.844-.594-.281-1.219-.281-1.343 0-2.031 1.078-.687 1.062-.687 3.156t.687 3.172q.688 1.062 2.031 1.062.625 0 1.219-.265.594-.282 1.219-.86z"/><text x="41" y="1700.95" fill="#D9B8FF" font-family="Helvetica" font-size="17" textLength="245">azure_copy_completion_error</text><path d="M8 1714.959h285" style="stroke:#000d19;stroke-width:.5"/><text x="18" y="1736.954" fill="#D9B8FF" font-family="sans-serif" font-size="14" font-weight="bold" textLength="87">error_code</text><text x="105" y="1736.954" fill="#D9B8FF" font-family="sans-serif" font-size="14" textLength="48">: string</text><text x="18" y="1763.251" fill="#D9B8FF" font-family="sans-serif" font-size="14" font-weight="bold" textLength="119">error_message</text><text x="137" y="1763.251" fill="#D9B8FF" font-family="sans-serif" font-size="14" textLength="48">: string</text><rect width="421" height="337.055" x="329" y="1556.84" fill="#3D176E" rx="2.5" ry="2.5" style="stroke:#000d19;stroke-width:.5"/><circle cx="445.75" cy="1576.735" r="11" fill="#ADD1B2" style="stroke:#181818;stroke-width:1"/><path d="M448.719 1582.375q-.578.297-1.219.438-.64.156-1.344.156-2.5 0-3.828-1.64-1.312-1.657-1.312-4.782t1.312-4.781q1.328-1.657 3.828-1.657.703 0 1.344.157.656.156 1.219.453v2.719q-.625-.579-1.219-.844-.594-.281-1.219-.281-1.344 0-2.031 1.078-.687 1.062-.687 3.156t.687 3.172q.688 1.062 2.031 1.062.625 0 1.219-.265.594-.282 1.219-.86z"/><text x="471.25" y="1582.62" fill="#D9B8FF" font-family="Helvetica" font-size="17" textLength="169">azure_creation_data</text><path d="M330 1596.629h419" style="stroke:#000d19;stroke-width:.5"/><text x="340" y="1618.624" fill="#D9B8FF" font-family="sans-serif" font-size="14" font-weight="bold" textLength="108">create_option</text><text x="448" y="1618.624" fill="#D9B8FF" font-family="sans-serif" font-size="14" textLength="48">: string</text><text x="340" y="1644.921" fill="#D9B8FF" font-family="sans-serif" font-size="14" font-weight="bold" textLength="193">gallery_image_reference</text><text x="533" y="1644.921" fill="#D9B8FF" font-family="sans-serif" font-size="14" textLength="206">: azure_image_disk_reference</text><text x="340" y="1671.218" fill="#D9B8FF" font-family="sans-serif" font-size="14" font-weight="bold" textLength="133">image_reference</text><text x="473" y="1671.218" fill="#D9B8FF" font-family="sans-serif" font-size="14" textLength="206">: azure_image_disk_reference</text><text x="340" y="1697.515" fill="#D9B8FF" font-family="sans-serif" font-size="14" font-weight="bold" textLength="147">logical_sector_size</text><text x="487" y="1697.515" fill="#D9B8FF" font-family="sans-serif" font-size="14" textLength="44">: int64</text><text x="340" y="1723.812" fill="#D9B8FF" font-family="sans-serif" font-size="14" font-weight="bold" textLength="142">performance_plus</text><text x="482" y="1723.812" fill="#D9B8FF" font-family="sans-serif" font-size="14" textLength="65">: boolean</text><text x="340" y="1750.109" fill="#D9B8FF" font-family="sans-serif" font-size="14" font-weight="bold" textLength="133">security_data_uri</text><text x="473" y="1750.109" fill="#D9B8FF" font-family="sans-serif" font-size="14" textLength="48">: string</text><text x="340" y="1776.405" fill="#D9B8FF" font-family="sans-serif" font-size="14" font-weight="bold" textLength="155">source_resource_id</text><text x="495" y="1776.405" fill="#D9B8FF" font-family="sans-serif" font-size="14" textLength="48">: string</text><text x="340" y="1802.702" fill="#D9B8FF" font-family="sans-serif" font-size="14" font-weight="bold" textLength="137">source_unique_id</text><text x="477" y="1802.702" fill="#D9B8FF" font-family="sans-serif" font-size="14" textLength="48">: string</text><text x="340" y="1828.999" fill="#D9B8FF" font-family="sans-serif" font-size="14" font-weight="bold" textLength="83">source_uri</text><text x="423" y="1828.999" fill="#D9B8FF" font-family="sans-serif" font-size="14" textLength="48">: string</text><text x="340" y="1855.296" fill="#D9B8FF" font-family="sans-serif" font-size="14" font-weight="bold" textLength="152">storage_account_id</text><text x="492" y="1855.296" fill="#D9B8FF" font-family="sans-serif" font-size="14" textLength="48">: string</text><text x="340" y="1881.593" fill="#D9B8FF" font-family="sans-serif" font-size="14" font-weight="bold" textLength="143">upload_size_bytes</text><text x="483" y="1881.593" fill="#D9B8FF" font-family="sans-serif" font-size="14" textLength="44">: int64</text><rect width="339" height="100.383" x="785" y="1675.17" fill="#3D176E" rx="2.5" ry="2.5" style="stroke:#000d19;stroke-width:.5"/><circle cx="832.75" cy="1695.064" r="11" fill="#ADD1B2" style="stroke:#181818;stroke-width:1"/><path d="M835.719 1700.705q-.578.297-1.219.438-.64.156-1.344.156-2.5 0-3.828-1.64-1.312-1.657-1.312-4.782t1.312-4.781q1.328-1.657 3.828-1.657.703 0 1.344.157.656.156 1.219.453v2.719q-.625-.579-1.219-.844-.594-.281-1.219-.281-1.343 0-2.031 1.078-.687 1.062-.687 3.156t.687 3.172q.688 1.062 2.031 1.062.625 0 1.219-.265.594-.282 1.219-.86z"/><text x="858.25" y="1700.95" fill="#D9B8FF" font-family="Helvetica" font-size="17" textLength="225">azure_disk_security_profile</text><path d="M786 1714.959h337" style="stroke:#000d19;stroke-width:.5"/><text x="796" y="1736.954" fill="#D9B8FF" font-family="sans-serif" font-size="14" font-weight="bold" textLength="269">secure_vm_disk_encryption_set_id</text><text x="1065" y="1736.954" fill="#D9B8FF" font-family="sans-serif" font-size="14" textLength="48">: string</text><text x="796" y="1763.251" fill="#D9B8FF" font-family="sans-serif" font-size="14" font-weight="bold" textLength="106">security_type</text><text x="902" y="1763.251" fill="#D9B8FF" font-family="sans-serif" font-size="14" textLength="48">: string</text><rect width="247" height="100.383" x="1159" y="1675.17" fill="#3D176E" rx="2.5" ry="2.5" style="stroke:#000d19;stroke-width:.5"/><circle cx="1201.45" cy="1695.064" r="11" fill="#ADD1B2" style="stroke:#181818;stroke-width:1"/><path d="M1204.419 1700.705q-.578.297-1.219.438-.64.156-1.344.156-2.5 0-3.828-1.64-1.312-1.657-1.312-4.782t1.312-4.781q1.328-1.657 3.828-1.657.703 0 1.344.157.656.156 1.219.453v2.719q-.625-.579-1.219-.844-.594-.281-1.219-.281-1.343 0-2.031 1.078-.687 1.062-.687 3.156t.687 3.172q.688 1.062 2.031 1.062.625 0 1.219-.265.594-.282 1.219-.86z"/><text x="1226.55" y="1700.95" fill="#D9B8FF" font-family="Helvetica" font-size="17" textLength="144">azure_encryption</text><path d="M1160 1714.959h245" style="stroke:#000d19;stroke-width:.5"/><text x="1170" y="1736.954" fill="#D9B8FF" font-family="sans-serif" font-size="14" font-weight="bold" textLength="177">disk_encryption_set_id</text><text x="1347" y="1736.954" fill="#D9B8FF" font-family="sans-serif" font-size="14" textLength="48">: string</text><text x="1170" y="1763.251" fill="#D9B8FF" font-family="sans-serif" font-size="14" font-weight="bold" textLength="35">type</text><text x="1205" y="1763.251" fill="#D9B8FF" font-family="sans-serif" font-size="14" textLength="48">: string</text><rect width="443" height="126.68" x="1441" y="1662.02" fill="#3D176E" rx="2.5" ry="2.5" style="stroke:#000d19;stroke-width:.5"/><circle cx="1499.75" cy="1681.915" r="11" fill="#ADD1B2" style="stroke:#181818;stroke-width:1"/><path d="M1502.719 1687.555q-.578.297-1.219.438-.64.156-1.344.156-2.5 0-3.828-1.64-1.312-1.657-1.312-4.782t1.312-4.781q1.328-1.656 3.828-1.656.703 0 1.344.156.656.156 1.219.453v2.719q-.625-.578-1.219-.844-.594-.281-1.219-.281-1.343 0-2.031 1.078-.687 1.062-.687 3.156t.687 3.172q.688 1.062 2.031 1.062.625 0 1.219-.265.594-.281 1.219-.86z"/><text x="1525.25" y="1687.8" fill="#D9B8FF" font-family="Helvetica" font-size="17" textLength="307">azure_encryption_settings_collection</text><path d="M1442 1701.809h441" style="stroke:#000d19;stroke-width:.5"/><text x="1452" y="1723.804" fill="#D9B8FF" font-family="sans-serif" font-size="14" font-weight="bold" textLength="63">enabled</text><text x="1515" y="1723.804" fill="#D9B8FF" font-family="sans-serif" font-size="14" textLength="65">: boolean</text><text x="1452" y="1750.101" fill="#D9B8FF" font-family="sans-serif" font-size="14" font-weight="bold" textLength="156">encryption_settings</text><text x="1608" y="1750.101" fill="#D9B8FF" font-family="sans-serif" font-size="14" textLength="265">: azure_encryption_settings_element[]</text><text x="1452" y="1776.398" fill="#D9B8FF" font-family="sans-serif" font-size="14" font-weight="bold" textLength="222">encryption_settings_version</text><text x="1674" y="1776.398" fill="#D9B8FF" font-family="sans-serif" font-size="14" textLength="48">: string</text><rect width="457" height="100.383" x="1434" y="1980.19" fill="#3D176E" rx="2.5" ry="2.5" style="stroke:#000d19;stroke-width:.5"/><circle cx="1504.25" cy="2000.084" r="11" fill="#ADD1B2" style="stroke:#181818;stroke-width:1"/><path d="M1507.219 2005.725q-.578.297-1.219.438-.64.156-1.344.156-2.5 0-3.828-1.64-1.312-1.657-1.312-4.782t1.312-4.781q1.328-1.657 3.828-1.657.703 0 1.344.157.656.156 1.219.453v2.719q-.625-.579-1.219-.844-.594-.281-1.219-.281-1.343 0-2.031 1.078-.687 1.062-.687 3.156t.687 3.172q.688 1.062 2.031 1.062.625 0 1.219-.265.594-.282 1.219-.86z"/><text x="1529.75" y="2005.97" fill="#D9B8FF" font-family="Helvetica" font-size="17" textLength="298">azure_encryption_settings_element</text><path d="M1435 2019.979h455" style="stroke:#000d19;stroke-width:.5"/><text x="1445" y="2041.974" fill="#D9B8FF" font-family="sans-serif" font-size="14" font-weight="bold" textLength="159">disk_encryption_key</text><text x="1604" y="2041.974" fill="#D9B8FF" font-family="sans-serif" font-size="14" textLength="276">: azure_key_vault_and_secret_reference</text><text x="1445" y="2068.271" fill="#D9B8FF" font-family="sans-serif" font-size="14" font-weight="bold" textLength="155">key_encryption_key</text><text x="1600" y="2068.271" fill="#D9B8FF" font-family="sans-serif" font-size="14" textLength="256">: azure_key_vault_and_key_reference</text><rect width="250" height="100.383" x="1919.5" y="1675.17" fill="#3D176E" rx="2.5" ry="2.5" style="stroke:#000d19;stroke-width:.5"/><circle cx="1934.5" cy="1695.064" r="11" fill="#ADD1B2" style="stroke:#181818;stroke-width:1"/><path d="M1937.469 1700.705q-.578.297-1.219.438-.64.156-1.344.156-2.5 0-3.828-1.64-1.312-1.657-1.312-4.782t1.312-4.781q1.328-1.657 3.828-1.657.703 0 1.344.157.656.156 1.219.453v2.719q-.625-.579-1.219-.844-.594-.281-1.219-.281-1.343 0-2.031 1.078-.687 1.062-.687 3.156t.687 3.172q.688 1.062 2.031 1.062.625 0 1.219-.265.594-.282 1.219-.86z"/><text x="1953.5" y="1700.95" fill="#D9B8FF" font-family="Helvetica" font-size="17" textLength="208">azure_extended_location</text><path d="M1920.5 1714.959h248" style="stroke:#000d19;stroke-width:.5"/><text x="1930.5" y="1736.954" fill="#D9B8FF" font-family="sans-serif" font-size="14" font-weight="bold" textLength="43">name</text><text x="1973.5" y="1736.954" fill="#D9B8FF" font-family="sans-serif" font-size="14" textLength="48">: string</text><text x="1930.5" y="1763.251" fill="#D9B8FF" font-family="sans-serif" font-size="14" font-weight="bold" textLength="35">type</text><text x="1965.5" y="1763.251" fill="#D9B8FF" font-family="sans-serif" font-size="14" textLength="48">: string</text><rect width="291" height="152.977" x="394" y="1953.89" fill="#3D176E" rx="2.5" ry="2.5" style="stroke:#000d19;stroke-width:.5"/><circle cx="414.4" cy="1973.784" r="11" fill="#ADD1B2" style="stroke:#181818;stroke-width:1"/><path d="M417.369 1979.425q-.578.297-1.219.438-.64.156-1.344.156-2.5 0-3.828-1.64-1.312-1.657-1.312-4.782t1.312-4.781q1.328-1.657 3.828-1.657.703 0 1.344.157.656.156 1.219.453v2.719q-.625-.579-1.219-.844-.594-.281-1.219-.281-1.344 0-2.031 1.078-.687 1.062-.687 3.156t.687 3.172q.688 1.062 2.031 1.062.625 0 1.219-.265.594-.282 1.219-.86z"/><text x="434.6" y="1979.67" fill="#D9B8FF" font-family="Helvetica" font-size="17" textLength="237">azure_image_disk_reference</text><path d="M395 1993.679h289" style="stroke:#000d19;stroke-width:.5"/><text x="405" y="2015.674" fill="#D9B8FF" font-family="sans-serif" font-size="14" font-weight="bold" textLength="221">community_gallery_image_id</text><text x="626" y="2015.674" fill="#D9B8FF" font-family="sans-serif" font-size="14" textLength="48">: string</text><text x="405" y="2041.971" fill="#D9B8FF" font-family="sans-serif" font-size="14" font-weight="bold" textLength="14">id</text><text x="419" y="2041.971" fill="#D9B8FF" font-family="sans-serif" font-size="14" textLength="48">: string</text><text x="405" y="2068.268" fill="#D9B8FF" font-family="sans-serif" font-size="14" font-weight="bold" textLength="24">lun</text><text x="429" y="2068.268" fill="#D9B8FF" font-family="sans-serif" font-size="14" textLength="44">: int64</text><text x="405" y="2094.565" fill="#D9B8FF" font-family="sans-serif" font-size="14" font-weight="bold" textLength="190">shared_gallery_image_id</text><text x="595" y="2094.565" fill="#D9B8FF" font-family="sans-serif" font-size="14" textLength="48">: string</text><rect width="346" height="100.383" x="1293.5" y="2166.87" fill="#3D176E" rx="2.5" ry="2.5" style="stroke:#000d19;stroke-width:.5"/><circle cx="1308.5" cy="2186.765" r="11" fill="#ADD1B2" style="stroke:#181818;stroke-width:1"/><path d="M1311.469 2192.405q-.578.297-1.219.438-.64.156-1.344.156-2.5 0-3.828-1.64-1.312-1.657-1.312-4.782t1.312-4.781q1.328-1.656 3.828-1.656.703 0 1.344.156.656.156 1.219.453v2.719q-.625-.578-1.219-.844-.594-.281-1.219-.281-1.343 0-2.031 1.078-.687 1.062-.687 3.156t.687 3.172q.688 1.062 2.031 1.062.625 0 1.219-.265.594-.281 1.219-.86z"/><text x="1327.5" y="2192.65" fill="#D9B8FF" font-family="Helvetica" font-size="17" textLength="304">azure_key_vault_and_key_reference</text><path d="M1294.5 2206.659h344" style="stroke:#000d19;stroke-width:.5"/><text x="1304.5" y="2228.654" fill="#D9B8FF" font-family="sans-serif" font-size="14" font-weight="bold" textLength="56">key_url</text><text x="1360.5" y="2228.654" fill="#D9B8FF" font-family="sans-serif" font-size="14" textLength="48">: string</text><text x="1304.5" y="2254.951" fill="#D9B8FF" font-family="sans-serif" font-size="14" font-weight="bold" textLength="100">source_vault</text><text x="1404.5" y="2254.951" fill="#D9B8FF" font-family="sans-serif" font-size="14" textLength="48">: string</text><rect width="366" height="100.383" x="1674.5" y="2166.87" fill="#3D176E" rx="2.5" ry="2.5" style="stroke:#000d19;stroke-width:.5"/><circle cx="1689.5" cy="2186.765" r="11" fill="#ADD1B2" style="stroke:#181818;stroke-width:1"/><path d="M1692.469 2192.405q-.578.297-1.219.438-.64.156-1.344.156-2.5 0-3.828-1.64-1.312-1.657-1.312-4.782t1.312-4.781q1.328-1.656 3.828-1.656.703 0 1.344.156.656.156 1.219.453v2.719q-.625-.578-1.219-.844-.594-.281-1.219-.281-1.343 0-2.031 1.078-.687 1.062-.687 3.156t.687 3.172q.688 1.062 2.031 1.062.625 0 1.219-.265.594-.281 1.219-.86z"/><text x="1708.5" y="2192.65" fill="#D9B8FF" font-family="Helvetica" font-size="17" textLength="324">azure_key_vault_and_secret_reference</text><path d="M1675.5 2206.659h364" style="stroke:#000d19;stroke-width:.5"/><text x="1685.5" y="2228.654" fill="#D9B8FF" font-family="sans-serif" font-size="14" font-weight="bold" textLength="79">secret_url</text><text x="1764.5" y="2228.654" fill="#D9B8FF" font-family="sans-serif" font-size="14" textLength="48">: string</text><text x="1685.5" y="2254.951" fill="#D9B8FF" font-family="sans-serif" font-size="14" font-weight="bold" textLength="100">source_vault</text><text x="1785.5" y="2254.951" fill="#D9B8FF" font-family="sans-serif" font-size="14" textLength="48">: string</text><rect width="217" height="152.977" x="2204" y="1648.88" fill="#3D176E" rx="2.5" ry="2.5" style="stroke:#000d19;stroke-width:.5"/><circle cx="2219" cy="1668.774" r="11" fill="#ADD1B2" style="stroke:#181818;stroke-width:1"/><path d="M2221.969 1674.415q-.578.297-1.219.438-.64.156-1.344.156-2.5 0-3.828-1.64-1.312-1.657-1.312-4.782t1.312-4.781q1.328-1.657 3.828-1.657.703 0 1.344.157.656.156 1.219.453v2.719q-.625-.579-1.219-.844-.594-.281-1.219-.281-1.343 0-2.031 1.078-.687 1.062-.687 3.156t.687 3.172q.688 1.062 2.031 1.062.625 0 1.219-.265.594-.282 1.219-.86z"/><text x="2238" y="1674.66" fill="#D9B8FF" font-family="Helvetica" font-size="17" textLength="175">azure_purchase_plan</text><path d="M2205 1688.669h215" style="stroke:#000d19;stroke-width:.5"/><text x="2215" y="1710.664" fill="#D9B8FF" font-family="sans-serif" font-size="14" font-weight="bold" textLength="43">name</text><text x="2258" y="1710.664" fill="#D9B8FF" font-family="sans-serif" font-size="14" textLength="48">: string</text><text x="2215" y="1736.961" fill="#D9B8FF" font-family="sans-serif" font-size="14" font-weight="bold" textLength="62">product</text><text x="2277" y="1736.961" fill="#D9B8FF" font-family="sans-serif" font-size="14" textLength="48">: string</text><text x="2215" y="1763.258" fill="#D9B8FF" font-family="sans-serif" font-size="14" font-weight="bold" textLength="127">promotion_code</text><text x="2342" y="1763.258" fill="#D9B8FF" font-family="sans-serif" font-size="14" textLength="48">: string</text><text x="2215" y="1789.555" fill="#D9B8FF" font-family="sans-serif" font-size="14" font-weight="bold" textLength="74">publisher</text><text x="2289" y="1789.555" fill="#D9B8FF" font-family="sans-serif" font-size="14" textLength="48">: string</text><rect width="210" height="100.383" x="2456.5" y="1675.17" fill="#3D176E" rx="2.5" ry="2.5" style="stroke:#000d19;stroke-width:.5"/><circle cx="2471.5" cy="1695.064" r="11" fill="#ADD1B2" style="stroke:#181818;stroke-width:1"/><path d="M2474.469 1700.705q-.578.297-1.219.438-.64.156-1.344.156-2.5 0-3.828-1.64-1.312-1.657-1.312-4.782t1.312-4.781q1.328-1.657 3.828-1.657.703 0 1.344.157.656.156 1.219.453v2.719q-.625-.579-1.219-.844-.594-.281-1.219-.281-1.343 0-2.031 1.078-.687 1.062-.687 3.156t.687 3.172q.688 1.062 2.031 1.062.625 0 1.219-.265.594-.282 1.219-.86z"/><text x="2490.5" y="1700.95" fill="#D9B8FF" font-family="Helvetica" font-size="17" textLength="168">azure_snapshot_sku</text><path d="M2457.5 1714.959h208" style="stroke:#000d19;stroke-width:.5"/><text x="2467.5" y="1736.954" fill="#D9B8FF" font-family="sans-serif" font-size="14" font-weight="bold" textLength="43">name</text><text x="2510.5" y="1736.954" fill="#D9B8FF" font-family="sans-serif" font-size="14" textLength="48">: string</text><text x="2467.5" y="1763.251" fill="#D9B8FF" font-family="sans-serif" font-size="14" font-weight="bold" textLength="27">tier</text><text x="2494.5" y="1763.251" fill="#D9B8FF" font-family="sans-serif" font-size="14" textLength="48">: string</text><rect width="282" height="126.68" x="2701.5" y="1662.02" fill="#3D176E" rx="2.5" ry="2.5" style="stroke:#000d19;stroke-width:.5"/><circle cx="2716.5" cy="1681.915" r="11" fill="#ADD1B2" style="stroke:#181818;stroke-width:1"/><path d="M2719.469 1687.555q-.578.297-1.219.438-.64.156-1.344.156-2.5 0-3.828-1.64-1.312-1.657-1.312-4.782t1.312-4.781q1.328-1.656 3.828-1.656.703 0 1.344.156.656.156 1.219.453v2.719q-.625-.578-1.219-.844-.594-.281-1.219-.281-1.343 0-2.031 1.078-.687 1.062-.687 3.156t.687 3.172q.688 1.062 2.031 1.062.625 0 1.219-.265.594-.281 1.219-.86z"/><text x="2735.5" y="1687.8" fill="#D9B8FF" font-family="Helvetica" font-size="17" textLength="240">azure_supported_capabilities</text><path d="M2702.5 1701.809h280" style="stroke:#000d19;stroke-width:.5"/><text x="2712.5" y="1723.804" fill="#D9B8FF" font-family="sans-serif" font-size="14" font-weight="bold" textLength="166">accelerated_network</text><text x="2878.5" y="1723.804" fill="#D9B8FF" font-family="sans-serif" font-size="14" textLength="65">: boolean</text><text x="2712.5" y="1750.101" fill="#D9B8FF" font-family="sans-serif" font-size="14" font-weight="bold" textLength="97">architecture</text><text x="2809.5" y="1750.101" fill="#D9B8FF" font-family="sans-serif" font-size="14" textLength="48">: string</text><text x="2712.5" y="1776.398" fill="#D9B8FF" font-family="sans-serif" font-size="14" font-weight="bold" textLength="167">disk_controller_types</text><text x="2879.5" y="1776.398" fill="#D9B8FF" font-family="sans-serif" font-size="14" textLength="48">: string</text><rect width="525" height="705.211" x="1400" y="791.63" fill="#3D176E" rx="2.5" ry="2.5" style="stroke:#000d19;stroke-width:.5"/><circle cx="1515.75" cy="811.524" r="11" fill="#ADD1B2" style="stroke:#181818;stroke-width:1"/><path d="M1518.719 817.165q-.578.297-1.219.438-.64.156-1.344.156-2.5 0-3.828-1.64-1.312-1.657-1.312-4.782t1.312-4.781q1.328-1.657 3.828-1.657.703 0 1.344.157.656.156 1.219.453v2.719q-.625-.578-1.219-.844-.594-.281-1.219-.281-1.343 0-2.031 1.078-.687 1.062-.687 3.156t.687 3.172q.688 1.062 2.031 1.062.625 0 1.219-.265.594-.282 1.219-.86z"/><text x="1541.25" y="817.41" fill="#D9B8FF" font-family="Helvetica" font-size="17" textLength="275">azure_virtual_machine_snapshot</text><path d="M1401 831.419h523" style="stroke:#000d19;stroke-width:.5"/><text x="1411" y="853.414" fill="#D9B8FF" font-family="sans-serif" font-size="14" font-weight="bold" textLength="156">completion_percent</text><text x="1567" y="853.414" fill="#D9B8FF" font-family="sans-serif" font-size="14" textLength="57">: double</text><text x="1411" y="879.711" fill="#D9B8FF" font-family="sans-serif" font-size="14" font-weight="bold" textLength="180">copy_completion_error</text><text x="1591" y="879.711" fill="#D9B8FF" font-family="sans-serif" font-size="14" textLength="212">: azure_copy_completion_error</text><text x="1411" y="906.008" fill="#D9B8FF" font-family="sans-serif" font-size="14" font-weight="bold" textLength="106">creation_data</text><text x="1517" y="906.008" fill="#D9B8FF" font-family="sans-serif" font-size="14" textLength="148">: azure_creation_data</text><text x="1411" y="932.305" fill="#D9B8FF" font-family="sans-serif" font-size="14" font-weight="bold" textLength="189">data_access_auth_mode</text><text x="1600" y="932.305" fill="#D9B8FF" font-family="sans-serif" font-size="14" textLength="48">: string</text><text x="1411" y="958.602" fill="#D9B8FF" font-family="sans-serif" font-size="14" font-weight="bold" textLength="115">disk_access_id</text><text x="1526" y="958.602" fill="#D9B8FF" font-family="sans-serif" font-size="14" textLength="48">: string</text><text x="1411" y="984.899" fill="#D9B8FF" font-family="sans-serif" font-size="14" font-weight="bold" textLength="122">disk_size_bytes</text><text x="1533" y="984.899" fill="#D9B8FF" font-family="sans-serif" font-size="14" textLength="44">: int64</text><text x="1411" y="1011.195" fill="#D9B8FF" font-family="sans-serif" font-size="14" font-weight="bold" textLength="98">disk_size_gb</text><text x="1509" y="1011.195" fill="#D9B8FF" font-family="sans-serif" font-size="14" textLength="44">: int64</text><text x="1411" y="1037.492" fill="#D9B8FF" font-family="sans-serif" font-size="14" font-weight="bold" textLength="79">disk_state</text><text x="1490" y="1037.492" fill="#D9B8FF" font-family="sans-serif" font-size="14" textLength="48">: string</text><text x="1411" y="1063.789" fill="#D9B8FF" font-family="sans-serif" font-size="14" font-weight="bold" textLength="239">encryption_settings_collection</text><text x="1650" y="1063.789" fill="#D9B8FF" font-family="sans-serif" font-size="14" textLength="264">: azure_encryption_settings_collection</text><text x="1411" y="1090.086" fill="#D9B8FF" font-family="sans-serif" font-size="14" font-weight="bold" textLength="144">extended_location</text><text x="1555" y="1090.086" fill="#D9B8FF" font-family="sans-serif" font-size="14" textLength="182">: azure_extended_location</text><text x="1411" y="1116.383" fill="#D9B8FF" font-family="sans-serif" font-size="14" font-weight="bold" textLength="155">hyper_v_generation</text><text x="1566" y="1116.383" fill="#D9B8FF" font-family="sans-serif" font-size="14" textLength="48">: string</text><text x="1411" y="1142.68" fill="#D9B8FF" font-family="sans-serif" font-size="14" font-weight="bold" textLength="93">incremental</text><text x="1504" y="1142.68" fill="#D9B8FF" font-family="sans-serif" font-size="14" textLength="65">: boolean</text><text x="1411" y="1168.977" fill="#D9B8FF" font-family="sans-serif" font-size="14" font-weight="bold" textLength="247">incremental_snapshot_family_id</text><text x="1658" y="1168.977" fill="#D9B8FF" font-family="sans-serif" font-size="14" textLength="48">: string</text><text x="1411" y="1195.274" fill="#D9B8FF" font-family="sans-serif" font-size="14" font-weight="bold" textLength="98">managed_by</text><text x="1509" y="1195.274" fill="#D9B8FF" font-family="sans-serif" font-size="14" textLength="48">: string</text><text x="1411" y="1221.57" fill="#D9B8FF" font-family="sans-serif" font-size="14" font-weight="bold" textLength="181">network_access_policy</text><text x="1592" y="1221.57" fill="#D9B8FF" font-family="sans-serif" font-size="14" textLength="48">: string</text><text x="1411" y="1247.867" fill="#D9B8FF" font-family="sans-serif" font-size="14" font-weight="bold" textLength="61">os_type</text><text x="1472" y="1247.867" fill="#D9B8FF" font-family="sans-serif" font-size="14" textLength="48">: string</text><text x="1411" y="1274.164" fill="#D9B8FF" font-family="sans-serif" font-size="14" font-weight="bold" textLength="182">public_network_access</text><text x="1593" y="1274.164" fill="#D9B8FF" font-family="sans-serif" font-size="14" textLength="48">: string</text><text x="1411" y="1300.461" fill="#D9B8FF" font-family="sans-serif" font-size="14" font-weight="bold" textLength="114">purchase_plan</text><text x="1525" y="1300.461" fill="#D9B8FF" font-family="sans-serif" font-size="14" textLength="156">: azure_purchase_plan</text><text x="1411" y="1326.758" fill="#D9B8FF" font-family="sans-serif" font-size="14" font-weight="bold" textLength="165">snapshot_encryption</text><text x="1576" y="1326.758" fill="#D9B8FF" font-family="sans-serif" font-size="14" textLength="128">: azure_encryption</text><text x="1411" y="1353.055" fill="#D9B8FF" font-family="sans-serif" font-size="14" font-weight="bold" textLength="202">snapshot_security_profile</text><text x="1613" y="1353.055" fill="#D9B8FF" font-family="sans-serif" font-size="14" textLength="193">: azure_disk_security_profile</text><text x="1411" y="1379.352" fill="#D9B8FF" font-family="sans-serif" font-size="14" font-weight="bold" textLength="108">snapshot_sku</text><text x="1519" y="1379.352" fill="#D9B8FF" font-family="sans-serif" font-size="14" textLength="152">: azure_snapshot_sku</text><text x="1411" y="1405.649" fill="#D9B8FF" font-family="sans-serif" font-size="14" font-weight="bold" textLength="177">supported_capabilities</text><text x="1588" y="1405.649" fill="#D9B8FF" font-family="sans-serif" font-size="14" textLength="210">: azure_supported_capabilities</text><text x="1411" y="1431.945" fill="#D9B8FF" font-family="sans-serif" font-size="14" font-weight="bold" textLength="168">supports_hibernation</text><text x="1579" y="1431.945" fill="#D9B8FF" font-family="sans-serif" font-size="14" textLength="65">: boolean</text><text x="1411" y="1458.242" fill="#D9B8FF" font-family="sans-serif" font-size="14" font-weight="bold" textLength="102">time_created</text><text x="1513" y="1458.242" fill="#D9B8FF" font-family="sans-serif" font-size="14" textLength="70">: datetime</text><text x="1411" y="1484.539" fill="#D9B8FF" font-family="sans-serif" font-size="14" font-weight="bold" textLength="75">unique_id</text><text x="1486" y="1484.539" fill="#D9B8FF" font-family="sans-serif" font-size="14" textLength="48">: string</text><rect width="200" height="39.789" x="1445.5" y="534.8" fill="#3D176E" rx="2.5" ry="2.5" style="stroke:#000d19;stroke-width:.5"/><circle cx="1460.5" cy="554.694" r="11" fill="#ADD1B2" style="stroke:#181818;stroke-width:1"/><path d="M1463.469 560.335q-.578.297-1.219.438-.64.156-1.344.156-2.5 0-3.828-1.64-1.312-1.657-1.312-4.782t1.312-4.781q1.328-1.657 3.828-1.657.703 0 1.344.157.656.156 1.219.453v2.719q-.625-.579-1.219-.844-.594-.281-1.219-.281-1.343 0-2.031 1.078-.687 1.062-.687 3.156t.687 3.172q.688 1.062 2.031 1.062.625 0 1.219-.265.594-.282 1.219-.86z"/><text x="1479.5" y="560.58" fill="#D9B8FF" font-family="Helvetica" font-size="17" textLength="158">microsoft_resource</text><rect width="227" height="310.758" x="1549" y="7" fill="#3D176E" rx="2.5" ry="2.5" style="stroke:#000d19;stroke-width:.5"/><circle cx="1617.75" cy="26.895" r="11" fill="#ADD1B2" style="stroke:#181818;stroke-width:1"/><path d="M1620.719 32.535q-.578.297-1.219.438-.64.156-1.344.156-2.5 0-3.828-1.64-1.312-1.657-1.312-4.782t1.312-4.781q1.328-1.656 3.828-1.656.703 0 1.344.156.656.156 1.219.453v2.719q-.625-.578-1.219-.844-.594-.281-1.219-.281-1.343 0-2.031 1.078-.687 1.062-.687 3.156t.687 3.172q.688 1.062 2.031 1.062.625 0 1.219-.265.594-.281 1.219-.86z"/><text x="1643.25" y="32.78" fill="#D9B8FF" font-family="Helvetica" font-size="17" textLength="71">resource</text><path d="M1550 46.789h225" style="stroke:#000d19;stroke-width:.5"/><text x="1560" y="68.784" fill="#D9B8FF" font-family="sans-serif" font-size="14" font-weight="bold" textLength="29">age</text><text x="1589" y="68.784" fill="#D9B8FF" font-family="sans-serif" font-size="14" textLength="66">: duration</text><text x="1560" y="95.081" fill="#D9B8FF" font-family="sans-serif" font-size="14" font-weight="bold" textLength="43">atime</text><text x="1603" y="95.081" fill="#D9B8FF" font-family="sans-serif" font-size="14" textLength="70">: datetime</text><text x="1560" y="121.378" fill="#D9B8FF" font-family="sans-serif" font-size="14" font-weight="bold" textLength="43">ctime</text><text x="1603" y="121.378" fill="#D9B8FF" font-family="sans-serif" font-size="14" textLength="70">: datetime</text><text x="1560" y="147.675" fill="#D9B8FF" font-family="sans-serif" font-size="14" font-weight="bold" textLength="14">id</text><text x="1574" y="147.675" fill="#D9B8FF" font-family="sans-serif" font-size="14" textLength="48">: string</text><text x="1560" y="173.972" fill="#D9B8FF" font-family="sans-serif" font-size="14" font-weight="bold" textLength="33">kind</text><text x="1593" y="173.972" fill="#D9B8FF" font-family="sans-serif" font-size="14" textLength="48">: string</text><text x="1560" y="200.269" fill="#D9B8FF" font-family="sans-serif" font-size="14" font-weight="bold" textLength="90">last_access</text><text x="1650" y="200.269" fill="#D9B8FF" font-family="sans-serif" font-size="14" textLength="66">: duration</text><text x="1560" y="226.565" fill="#D9B8FF" font-family="sans-serif" font-size="14" font-weight="bold" textLength="90">last_update</text><text x="1650" y="226.565" fill="#D9B8FF" font-family="sans-serif" font-size="14" textLength="66">: duration</text><text x="1560" y="252.862" fill="#D9B8FF" font-family="sans-serif" font-size="14" font-weight="bold" textLength="48">mtime</text><text x="1608" y="252.862" fill="#D9B8FF" font-family="sans-serif" font-size="14" textLength="70">: datetime</text><text x="1560" y="279.159" fill="#D9B8FF" font-family="sans-serif" font-size="14" font-weight="bold" textLength="43">name</text><text x="1603" y="279.159" fill="#D9B8FF" font-family="sans-serif" font-size="14" textLength="48">: string</text><text x="1560" y="305.456" fill="#D9B8FF" font-family="sans-serif" font-size="14" font-weight="bold" textLength="34">tags</text><text x="1594" y="305.456" fill="#D9B8FF" font-family="sans-serif" font-size="14" textLength="171">: dictionary[string, string]</text><rect width="199" height="231.867" x="1681" y="438.76" fill="#3D176E" rx="2.5" ry="2.5" style="stroke:#000d19;stroke-width:.5"/><circle cx="1733.75" cy="458.654" r="11" fill="#ADD1B2" style="stroke:#181818;stroke-width:1"/><path d="M1736.719 464.295q-.578.297-1.219.438-.64.156-1.344.156-2.5 0-3.828-1.64-1.312-1.657-1.312-4.782t1.312-4.781q1.328-1.656 3.828-1.656.703 0 1.344.156.656.156 1.219.453v2.719q-.625-.579-1.219-.844-.594-.281-1.219-.281-1.343 0-2.031 1.078-.687 1.062-.687 3.156t.687 3.172q.688 1.062 2.031 1.062.625 0 1.219-.265.594-.281 1.219-.86z"/><text x="1759.25" y="464.54" fill="#D9B8FF" font-family="Helvetica" font-size="17" textLength="75">snapshot</text><path d="M1682 478.549h197" style="stroke:#000d19;stroke-width:.5"/><text x="1692" y="500.544" fill="#D9B8FF" font-family="sans-serif" font-size="14" font-weight="bold" textLength="89">description</text><text x="1781" y="500.544" fill="#D9B8FF" font-family="sans-serif" font-size="14" textLength="48">: string</text><text x="1692" y="526.841" fill="#D9B8FF" font-family="sans-serif" font-size="14" font-weight="bold" textLength="81">encrypted</text><text x="1773" y="526.841" fill="#D9B8FF" font-family="sans-serif" font-size="14" textLength="65">: boolean</text><text x="1692" y="553.138" fill="#D9B8FF" font-family="sans-serif" font-size="14" font-weight="bold" textLength="93">owner_alias</text><text x="1785" y="553.138" fill="#D9B8FF" font-family="sans-serif" font-size="14" textLength="48">: string</text><text x="1692" y="579.435" fill="#D9B8FF" font-family="sans-serif" font-size="14" font-weight="bold" textLength="72">owner_id</text><text x="1764" y="579.435" fill="#D9B8FF" font-family="sans-serif" font-size="14" textLength="48">: string</text><text x="1692" y="605.732" fill="#D9B8FF" font-family="sans-serif" font-size="14" font-weight="bold" textLength="129">snapshot_status</text><text x="1821" y="605.732" fill="#D9B8FF" font-family="sans-serif" font-size="14" textLength="48">: string</text><text x="1692" y="632.029" fill="#D9B8FF" font-family="sans-serif" font-size="14" font-weight="bold" textLength="78">volume_id</text><text x="1770" y="632.029" fill="#D9B8FF" font-family="sans-serif" font-size="14" textLength="48">: string</text><text x="1692" y="658.325" fill="#D9B8FF" font-family="sans-serif" font-size="14" font-weight="bold" textLength="96">volume_size</text><text x="1788" y="658.325" fill="#D9B8FF" font-family="sans-serif" font-size="14" textLength="44">: int64</text><path fill="none" d="M539.5 1894.27v53.43" style="stroke:#ffaf37;stroke-width:2"/><path fill="#FFAF37" d="m539.5 1953.7 4-9-4 4-4-4z" style="stroke:#ffaf37;stroke-width:2"/><path fill="none" d="M1662.5 1789.15v185" style="stroke:#ffaf37;stroke-width:2"/><path fill="#FFAF37" d="m1662.5 1980.15 4-9-4 4-4-4z" style="stroke:#ffaf37;stroke-width:2"/><path fill="none" d="M1609.98 2080.87c-28.13 26.5-58.303 54.925-86.444 81.445" style="stroke:#ffaf37;stroke-width:2"/><path fill="#FFAF37" d="m1519.17 2166.43 9.293-3.262-5.654-.167.167-5.655z" style="stroke:#ffaf37;stroke-width:2"/><path fill="none" d="M1714.76 2080.87c27.97 26.5 57.984 54.914 85.984 81.434" style="stroke:#ffaf37;stroke-width:2"/><path fill="#FFAF37" d="m1805.1 2166.43-3.784-9.093.154 5.655-5.655.153z" style="stroke:#ffaf37;stroke-width:2"/><path fill="none" d="M1399.52 1184.59c-284.8 51.55-744.4 161.33-1088.02 372.25-50.02 30.7-91.46 75.921-121.13 113.291" style="stroke:#ffaf37;stroke-width:2"/><path fill="#FFAF37" d="m186.64 1674.83 8.729-4.561-5.62.645-.645-5.62z" style="stroke:#ffaf37;stroke-width:2"/><path fill="none" d="M1399.91 1249.37c-182.21 76.22-427.95 187.02-632.41 307.47-5.71 3.36-6.36 3.68-12.12 7.25" style="stroke:#ffaf37;stroke-width:2"/><path fill="#FFAF37" d="m750.28 1567.25 9.757-1.341-5.507-1.293 1.293-5.507z" style="stroke:#ffaf37;stroke-width:2"/><path fill="none" d="M1399.58 1347.81c-83.4 65.62-175.4 139.44-258.08 209.03-45.86 38.59-91.973 80-128.943 113.82" style="stroke:#ffaf37;stroke-width:2"/><path fill="#FFAF37" d="m1008.13 1674.71 9.34-3.123-5.65-.252.25-5.651z" style="stroke:#ffaf37;stroke-width:2"/><path fill="none" d="M1431.6 1497.14c-46.16 70.34-85.648 130.524-113.438 172.864" style="stroke:#ffaf37;stroke-width:2"/><path fill="#FFAF37" d="m1314.87 1675.02 8.283-5.33-5.54 1.15-1.149-5.539z" style="stroke:#ffaf37;stroke-width:2"/><path fill="none" d="M1662.5 1497.14v158.84" style="stroke:#ffaf37;stroke-width:2"/><path fill="#FFAF37" d="m1662.5 1661.98 4-9-4 4-4-4z" style="stroke:#ffaf37;stroke-width:2"/><path fill="none" d="M1894.62 1497.14c46.4 70.34 86.095 130.532 114.035 172.872" style="stroke:#ffaf37;stroke-width:2"/><path fill="#FFAF37" d="m2011.96 1675.02-1.618-9.715-1.136 5.542-5.542-1.136z" style="stroke:#ffaf37;stroke-width:2"/><path fill="none" d="M1925.29 1330.27c87.24 66.87 182.2 145.88 261.21 226.57 27.24 27.82 50.222 56.782 71.812 86.742" style="stroke:#ffaf37;stroke-width:2"/><path fill="#FFAF37" d="m2261.82 1648.45-2.017-9.64-.906 5.583-5.584-.906z" style="stroke:#ffaf37;stroke-width:2"/><path fill="none" d="M1925.11 1248.76c159.52 71.15 361.07 176.47 513.39 308.08 39.04 33.73 69.703 76.942 91.933 113.022" style="stroke:#ffaf37;stroke-width:2"/><path fill="#FFAF37" d="m2533.58 1674.97-1.315-9.76-1.308 5.503-5.503-1.307z" style="stroke:#ffaf37;stroke-width:2"/><path fill="none" d="M1925.49 1216.65c216 66.47 523.58 179.55 759.01 340.19 42.11 28.73 77.613 65.786 106.513 100.376" style="stroke:#ffaf37;stroke-width:2"/><path fill="#FFAF37" d="m2794.86 1661.82-2.7-9.471-.506 5.634-5.634-.505z" style="stroke:#ffaf37;stroke-width:2"/><g fill="none"><path d="M1552.844 592.564c7.35 36.93 20.886 104.876 39.576 198.726" style="stroke:#ffaf37;stroke-width:2"/><path d="m1549.33 574.91-2.371 18.825 11.77-2.342z" style="stroke:#ffaf37;stroke-width:2"/></g><g fill="none"><path d="M1753.783 688.717c-7.17 35.67-11.923 59.353-20.573 102.413" style="stroke:#ffaf37;stroke-width:2"/><path d="m1757.33 671.07-9.43 16.465 11.765 2.364z" style="stroke:#ffaf37;stroke-width:2"/></g><path fill="none" d="M1610.92 335.442c-24.95 83.22-47.79 159.428-59.64 198.948m64.81-216.19-10.916 15.519 11.494 3.446zm98.43 17.23c12.13 40.12 19.76 65.39 31.16 103.08m-36.37-120.31-.534 18.966 11.486-3.473z" style="stroke:#ffaf37;stroke-width:2"/></svg>