<svg xmlns="http://www.w3.org/2000/svg" width="1014" height="1238" viewBox="0 0 1014 1238"><rect width="303" height="205.57" x="7" y="1025.5" fill="#3D176E" rx="2.5" ry="2.5" style="stroke:#000d19;stroke-width:.5"/><circle cx="23.35" cy="1045.395" r="11" fill="#ADD1B2" style="stroke:#181818;stroke-width:1"/><path d="M26.319 1051.035q-.578.297-1.219.438-.64.156-1.344.156-2.5 0-3.828-1.64-1.312-1.657-1.312-4.782t1.312-4.781q1.328-1.656 3.828-1.656.703 0 1.344.156.656.156 1.219.453v2.719q-.625-.578-1.219-.844-.594-.281-1.219-.281-1.343 0-2.031 1.078-.687 1.062-.687 3.156t.687 3.172q.688 1.062 2.031 1.062.625 0 1.219-.265.594-.281 1.219-.86z"/><text x="42.65" y="1051.28" fill="#D9B8FF" font-family="Helvetica" font-size="17" textLength="258">azure_community_gallery_info</text><path d="M8 1065.289h301" style="stroke:#000d19;stroke-width:.5"/><text x="18" y="1087.284" fill="#D9B8FF" font-family="sans-serif" font-size="14" font-weight="bold" textLength="216">community_gallery_enabled</text><text x="234" y="1087.284" fill="#D9B8FF" font-family="sans-serif" font-size="14" textLength="65">: boolean</text><text x="18" y="1113.581" fill="#D9B8FF" font-family="sans-serif" font-size="14" font-weight="bold" textLength="33">eula</text><text x="51" y="1113.581" fill="#D9B8FF" font-family="sans-serif" font-size="14" textLength="48">: string</text><text x="18" y="1139.878" fill="#D9B8FF" font-family="sans-serif" font-size="14" font-weight="bold" textLength="150">public_name_prefix</text><text x="168" y="1139.878" fill="#D9B8FF" font-family="sans-serif" font-size="14" textLength="48">: string</text><text x="18" y="1166.175" fill="#D9B8FF" font-family="sans-serif" font-size="14" font-weight="bold" textLength="106">public_names</text><text x="124" y="1166.175" fill="#D9B8FF" font-family="sans-serif" font-size="14" textLength="58">: string[]</text><text x="18" y="1192.472" fill="#D9B8FF" font-family="sans-serif" font-size="14" font-weight="bold" textLength="140">publisher_contact</text><text x="158" y="1192.472" fill="#D9B8FF" font-family="sans-serif" font-size="14" textLength="48">: string</text><text x="18" y="1218.769" fill="#D9B8FF" font-family="sans-serif" font-size="14" font-weight="bold" textLength="102">publisher_uri</text><text x="120" y="1218.769" fill="#D9B8FF" font-family="sans-serif" font-size="14" textLength="48">: string</text><rect width="294" height="179.273" x="496.5" y="599.55" fill="#3D176E" rx="2.5" ry="2.5" style="stroke:#000d19;stroke-width:.5"/><circle cx="578.25" cy="619.444" r="11" fill="#ADD1B2" style="stroke:#181818;stroke-width:1"/><path d="M581.219 625.085q-.578.297-1.219.438-.64.156-1.344.156-2.5 0-3.828-1.64-1.312-1.657-1.312-4.782t1.312-4.781q1.328-1.657 3.828-1.657.703 0 1.344.157.656.156 1.219.453v2.719q-.625-.579-1.219-.844-.594-.281-1.219-.281-1.343 0-2.031 1.078-.687 1.062-.687 3.156t.687 3.172q.688 1.062 2.031 1.062.625 0 1.219-.265.594-.282 1.219-.86z"/><text x="603.75" y="625.33" fill="#D9B8FF" font-family="Helvetica" font-size="17" textLength="112">azure_gallery</text><path d="M497.5 639.339h292" style="stroke:#000d19;stroke-width:.5"/><text x="507.5" y="661.334" fill="#D9B8FF" font-family="sans-serif" font-size="14" font-weight="bold" textLength="89">description</text><text x="596.5" y="661.334" fill="#D9B8FF" font-family="sans-serif" font-size="14" textLength="48">: string</text><text x="507.5" y="687.631" fill="#D9B8FF" font-family="sans-serif" font-size="14" font-weight="bold" textLength="71">identifier</text><text x="578.5" y="687.631" fill="#D9B8FF" font-family="sans-serif" font-size="14" textLength="48">: string</text><text x="507.5" y="713.928" fill="#D9B8FF" font-family="sans-serif" font-size="14" font-weight="bold" textLength="117">sharing_profile</text><text x="624.5" y="713.928" fill="#D9B8FF" font-family="sans-serif" font-size="14" textLength="155">: azure_sharing_profile</text><text x="507.5" y="740.225" fill="#D9B8FF" font-family="sans-serif" font-size="14" font-weight="bold" textLength="115">sharing_status</text><text x="622.5" y="740.225" fill="#D9B8FF" font-family="sans-serif" font-size="14" textLength="156">: azure_sharing_status</text><text x="507.5" y="766.522" fill="#D9B8FF" font-family="sans-serif" font-size="14" font-weight="bold" textLength="141">soft_delete_policy</text><text x="648.5" y="766.522" fill="#D9B8FF" font-family="sans-serif" font-size="14" textLength="65">: boolean</text><rect width="296" height="126.68" x="698.5" y="1064.95" fill="#3D176E" rx="2.5" ry="2.5" style="stroke:#000d19;stroke-width:.5"/><circle cx="713.5" cy="1084.844" r="11" fill="#ADD1B2" style="stroke:#181818;stroke-width:1"/><path d="M716.469 1090.485q-.578.297-1.219.438-.64.156-1.344.156-2.5 0-3.828-1.64-1.312-1.657-1.312-4.782t1.312-4.781q1.328-1.657 3.828-1.657.703 0 1.344.157.656.156 1.219.453v2.719q-.625-.579-1.219-.844-.594-.281-1.219-.281-1.343 0-2.031 1.078-.687 1.062-.687 3.156t.687 3.172q.688 1.062 2.031 1.062.625 0 1.219-.265.594-.282 1.219-.86z"/><text x="732.5" y="1090.73" fill="#D9B8FF" font-family="Helvetica" font-size="17" textLength="254">azure_regional_sharing_status</text><path d="M699.5 1104.739h294" style="stroke:#000d19;stroke-width:.5"/><text x="709.5" y="1126.734" fill="#D9B8FF" font-family="sans-serif" font-size="14" font-weight="bold" textLength="52">details</text><text x="761.5" y="1126.734" fill="#D9B8FF" font-family="sans-serif" font-size="14" textLength="48">: string</text><text x="709.5" y="1153.031" fill="#D9B8FF" font-family="sans-serif" font-size="14" font-weight="bold" textLength="51">region</text><text x="760.5" y="1153.031" fill="#D9B8FF" font-family="sans-serif" font-size="14" textLength="48">: string</text><text x="709.5" y="1179.328" fill="#D9B8FF" font-family="sans-serif" font-size="14" font-weight="bold" textLength="40">state</text><text x="749.5" y="1179.328" fill="#D9B8FF" font-family="sans-serif" font-size="14" textLength="48">: string</text><rect width="419" height="126.68" x="232" y="838.82" fill="#3D176E" rx="2.5" ry="2.5" style="stroke:#000d19;stroke-width:.5"/><circle cx="342.75" cy="858.715" r="11" fill="#ADD1B2" style="stroke:#181818;stroke-width:1"/><path d="M345.719 864.355q-.578.297-1.219.438-.64.156-1.344.156-2.5 0-3.828-1.64-1.312-1.657-1.312-4.782t1.312-4.781q1.328-1.656 3.828-1.656.703 0 1.344.156.656.156 1.219.453v2.719q-.625-.578-1.219-.844-.594-.281-1.219-.281-1.344 0-2.031 1.078-.687 1.062-.687 3.156t.687 3.172q.688 1.062 2.031 1.062.625 0 1.219-.265.594-.281 1.219-.86z"/><text x="368.25" y="864.6" fill="#D9B8FF" font-family="Helvetica" font-size="17" textLength="179">azure_sharing_profile</text><path d="M233 878.609h417" style="stroke:#000d19;stroke-width:.5"/><text x="243" y="900.604" fill="#D9B8FF" font-family="sans-serif" font-size="14" font-weight="bold" textLength="183">community_gallery_info</text><text x="426" y="900.604" fill="#D9B8FF" font-family="sans-serif" font-size="14" textLength="214">: azure_community_gallery_info</text><text x="243" y="926.901" fill="#D9B8FF" font-family="sans-serif" font-size="14" font-weight="bold" textLength="56">groups</text><text x="299" y="926.901" fill="#D9B8FF" font-family="sans-serif" font-size="14" textLength="213">: azure_sharing_profile_group[]</text><text x="243" y="953.198" fill="#D9B8FF" font-family="sans-serif" font-size="14" font-weight="bold" textLength="96">permissions</text><text x="339" y="953.198" fill="#D9B8FF" font-family="sans-serif" font-size="14" textLength="48">: string</text><rect width="278" height="100.383" x="344.5" y="1078.09" fill="#3D176E" rx="2.5" ry="2.5" style="stroke:#000d19;stroke-width:.5"/><circle cx="359.5" cy="1097.985" r="11" fill="#ADD1B2" style="stroke:#181818;stroke-width:1"/><path d="M362.469 1103.625q-.578.297-1.219.438-.64.156-1.344.156-2.5 0-3.828-1.64-1.312-1.657-1.312-4.782t1.312-4.781q1.328-1.657 3.828-1.657.703 0 1.344.157.656.156 1.219.453v2.719q-.625-.579-1.219-.844-.594-.281-1.219-.281-1.344 0-2.031 1.078-.687 1.062-.687 3.156t.687 3.172q.688 1.062 2.031 1.062.625 0 1.219-.265.594-.282 1.219-.86z"/><text x="378.5" y="1103.87" fill="#D9B8FF" font-family="Helvetica" font-size="17" textLength="236">azure_sharing_profile_group</text><path d="M345.5 1117.879h276" style="stroke:#000d19;stroke-width:.5"/><text x="355.5" y="1139.874" fill="#D9B8FF" font-family="sans-serif" font-size="14" font-weight="bold" textLength="23">ids</text><text x="378.5" y="1139.874" fill="#D9B8FF" font-family="sans-serif" font-size="14" textLength="58">: string[]</text><text x="355.5" y="1166.171" fill="#D9B8FF" font-family="sans-serif" font-size="14" font-weight="bold" textLength="35">type</text><text x="390.5" y="1166.171" fill="#D9B8FF" font-family="sans-serif" font-size="14" textLength="48">: string</text><rect width="322" height="100.383" x="685.5" y="851.97" fill="#3D176E" rx="2.5" ry="2.5" style="stroke:#000d19;stroke-width:.5"/><circle cx="748.75" cy="871.865" r="11" fill="#ADD1B2" style="stroke:#181818;stroke-width:1"/><path d="M751.719 877.505q-.578.297-1.219.438-.64.156-1.344.156-2.5 0-3.828-1.64-1.312-1.657-1.312-4.782t1.312-4.781q1.328-1.656 3.828-1.656.703 0 1.344.156.656.156 1.219.453v2.719q-.625-.578-1.219-.844-.594-.281-1.219-.281-1.343 0-2.031 1.078-.687 1.062-.687 3.156t.687 3.172q.688 1.062 2.031 1.062.625 0 1.219-.265.594-.281 1.219-.86z"/><text x="774.25" y="877.75" fill="#D9B8FF" font-family="Helvetica" font-size="17" textLength="177">azure_sharing_status</text><path d="M686.5 891.759h320" style="stroke:#000d19;stroke-width:.5"/><text x="696.5" y="913.754" fill="#D9B8FF" font-family="sans-serif" font-size="14" font-weight="bold" textLength="138">aggregated_state</text><text x="834.5" y="913.754" fill="#D9B8FF" font-family="sans-serif" font-size="14" textLength="48">: string</text><text x="696.5" y="940.051" fill="#D9B8FF" font-family="sans-serif" font-size="14" font-weight="bold" textLength="72">summary</text><text x="768.5" y="940.051" fill="#D9B8FF" font-family="sans-serif" font-size="14" textLength="228">: azure_regional_sharing_status[]</text><rect width="200" height="39.789" x="543.5" y="438.76" fill="#3D176E" rx="2.5" ry="2.5" style="stroke:#000d19;stroke-width:.5"/><circle cx="558.5" cy="458.654" r="11" fill="#ADD1B2" style="stroke:#181818;stroke-width:1"/><path d="M561.469 464.295q-.578.297-1.219.438-.64.156-1.344.156-2.5 0-3.828-1.64-1.312-1.657-1.312-4.782t1.312-4.781q1.328-1.656 3.828-1.656.703 0 1.344.156.656.156 1.219.453v2.719q-.625-.579-1.219-.844-.594-.281-1.219-.281-1.343 0-2.031 1.078-.687 1.062-.687 3.156t.687 3.172q.688 1.062 2.031 1.062.625 0 1.219-.265.594-.281 1.219-.86z"/><text x="577.5" y="464.54" fill="#D9B8FF" font-family="Helvetica" font-size="17" textLength="158">microsoft_resource</text><rect width="227" height="310.758" x="530" y="7" fill="#3D176E" rx="2.5" ry="2.5" style="stroke:#000d19;stroke-width:.5"/><circle cx="598.75" cy="26.895" r="11" fill="#ADD1B2" style="stroke:#181818;stroke-width:1"/><path d="M601.719 32.535q-.578.297-1.219.438-.64.156-1.344.156-2.5 0-3.828-1.64-1.312-1.657-1.312-4.782t1.312-4.781q1.328-1.656 3.828-1.656.703 0 1.344.156.656.156 1.219.453v2.719q-.625-.578-1.219-.844-.594-.281-1.219-.281-1.343 0-2.031 1.078-.687 1.062-.687 3.156t.687 3.172q.688 1.062 2.031 1.062.625 0 1.219-.265.594-.281 1.219-.86z"/><text x="624.25" y="32.78" fill="#D9B8FF" font-family="Helvetica" font-size="17" textLength="71">resource</text><path d="M531 46.789h225" style="stroke:#000d19;stroke-width:.5"/><text x="541" y="68.784" fill="#D9B8FF" font-family="sans-serif" font-size="14" font-weight="bold" textLength="29">age</text><text x="570" y="68.784" fill="#D9B8FF" font-family="sans-serif" font-size="14" textLength="66">: duration</text><text x="541" y="95.081" fill="#D9B8FF" font-family="sans-serif" font-size="14" font-weight="bold" textLength="43">atime</text><text x="584" y="95.081" fill="#D9B8FF" font-family="sans-serif" font-size="14" textLength="70">: datetime</text><text x="541" y="121.378" fill="#D9B8FF" font-family="sans-serif" font-size="14" font-weight="bold" textLength="43">ctime</text><text x="584" y="121.378" fill="#D9B8FF" font-family="sans-serif" font-size="14" textLength="70">: datetime</text><text x="541" y="147.675" fill="#D9B8FF" font-family="sans-serif" font-size="14" font-weight="bold" textLength="14">id</text><text x="555" y="147.675" fill="#D9B8FF" font-family="sans-serif" font-size="14" textLength="48">: string</text><text x="541" y="173.972" fill="#D9B8FF" font-family="sans-serif" font-size="14" font-weight="bold" textLength="33">kind</text><text x="574" y="173.972" fill="#D9B8FF" font-family="sans-serif" font-size="14" textLength="48">: string</text><text x="541" y="200.269" fill="#D9B8FF" font-family="sans-serif" font-size="14" font-weight="bold" textLength="90">last_access</text><text x="631" y="200.269" fill="#D9B8FF" font-family="sans-serif" font-size="14" textLength="66">: duration</text><text x="541" y="226.565" fill="#D9B8FF" font-family="sans-serif" font-size="14" font-weight="bold" textLength="90">last_update</text><text x="631" y="226.565" fill="#D9B8FF" font-family="sans-serif" font-size="14" textLength="66">: duration</text><text x="541" y="252.862" fill="#D9B8FF" font-family="sans-serif" font-size="14" font-weight="bold" textLength="48">mtime</text><text x="589" y="252.862" fill="#D9B8FF" font-family="sans-serif" font-size="14" textLength="70">: datetime</text><text x="541" y="279.159" fill="#D9B8FF" font-family="sans-serif" font-size="14" font-weight="bold" textLength="43">name</text><text x="584" y="279.159" fill="#D9B8FF" font-family="sans-serif" font-size="14" textLength="48">: string</text><text x="541" y="305.456" fill="#D9B8FF" font-family="sans-serif" font-size="14" font-weight="bold" textLength="34">tags</text><text x="575" y="305.456" fill="#D9B8FF" font-family="sans-serif" font-size="14" textLength="171">: dictionary[string, string]</text><path fill="none" d="M558.42 779.04c-19.09 19.94-34.801 36.345-52.621 54.965" style="stroke:#ffaf37;stroke-width:2"/><path fill="#FFAF37" d="m501.65 838.34 9.113-3.736-5.656.124-.124-5.656z" style="stroke:#ffaf37;stroke-width:2"/><path fill="none" d="M729 779.04c23.84 24.78 44.73 46.486 65.54 68.116" style="stroke:#ffaf37;stroke-width:2"/><path fill="#FFAF37" d="m798.7 851.48-3.357-9.259-.11 5.656-5.655-.11z" style="stroke:#ffaf37;stroke-width:2"/><path fill="none" d="M643.5 496.74v102.5m0-120.5-6 18h12zM362.29 965.89l-70.007 55.445" style="stroke:#ffaf37;stroke-width:2"/><path fill="#FFAF37" d="m287.58 1025.06 9.539-2.452-5.62-.652.653-5.62z" style="stroke:#ffaf37;stroke-width:2"/><path fill="none" d="M453.26 965.89c6.62 35.35 13.675 72.993 19.845 105.933" style="stroke:#ffaf37;stroke-width:2"/><path fill="#FFAF37" d="m474.21 1077.72 2.275-9.583-3.196 4.668-4.668-3.195z" style="stroke:#ffaf37;stroke-width:2"/><path fill="none" d="M846.5 952.62v106.08" style="stroke:#ffaf37;stroke-width:2"/><path fill="#FFAF37" d="m846.5 1064.7 4-9-4 4-4-4z" style="stroke:#ffaf37;stroke-width:2"/><path fill="none" d="M643.5 335.84v102.83m0-120.83-6 18h12z" style="stroke:#ffaf37;stroke-width:2"/></svg>