<svg xmlns="http://www.w3.org/2000/svg" width="351" height="1367" viewBox="0 0 351 1367"><rect width="168" height="39.789" x="16" y="538.54" fill="#3D176E" rx="2.5" ry="2.5" style="stroke:#000d19;stroke-width:.5"/><circle cx="31" cy="558.434" r="11" fill="#ADD1B2" style="stroke:#181818;stroke-width:1"/><path d="M33.969 564.075q-.578.297-1.219.438-.64.156-1.344.156-2.5 0-3.828-1.64-1.312-1.657-1.312-4.782t1.312-4.781q1.328-1.657 3.828-1.657.703 0 1.344.157.656.156 1.219.453v2.719q-.625-.579-1.219-.844-.594-.281-1.219-.281-1.343 0-2.031 1.078-.687 1.062-.687 3.156t.687 3.172q.688 1.062 2.031 1.062.625 0 1.219-.265.594-.282 1.219-.86z"/><text x="50" y="564.32" fill="#D9B8FF" font-family="Helvetica" font-size="17" textLength="126">azure_resource</text><rect width="264" height="152.977" x="7" y="1046.8" fill="#3D176E" rx="2.5" ry="2.5" style="stroke:#000d19;stroke-width:.5"/><circle cx="77.75" cy="1066.695" r="11" fill="#ADD1B2" style="stroke:#181818;stroke-width:1"/><path d="M80.719 1072.335q-.578.297-1.219.438-.64.156-1.344.156-2.5 0-3.828-1.64-1.312-1.657-1.312-4.782t1.312-4.781q1.328-1.657 3.828-1.657.703 0 1.344.157.656.156 1.219.453v2.719q-.625-.578-1.219-.844-.594-.281-1.219-.281-1.344 0-2.031 1.078-.687 1.062-.687 3.156t.687 3.172q.688 1.062 2.031 1.062.625 0 1.219-.265.594-.282 1.219-.86z"/><text x="103.25" y="1072.58" fill="#D9B8FF" font-family="Helvetica" font-size="17" textLength="104">azure_usage</text><path d="M8 1086.589h262" style="stroke:#000d19;stroke-width:.5"/><text x="18" y="1108.584" fill="#D9B8FF" font-family="sans-serif" font-size="14" font-weight="bold" textLength="108">current_value</text><text x="126" y="1108.584" fill="#D9B8FF" font-family="sans-serif" font-size="14" textLength="44">: int64</text><text x="18" y="1134.881" fill="#D9B8FF" font-family="sans-serif" font-size="14" font-weight="bold" textLength="32">limit</text><text x="50" y="1134.881" fill="#D9B8FF" font-family="sans-serif" font-size="14" textLength="44">: int64</text><text x="18" y="1161.178" fill="#D9B8FF" font-family="sans-serif" font-size="14" font-weight="bold" textLength="30">unit</text><text x="48" y="1161.178" fill="#D9B8FF" font-family="sans-serif" font-size="14" textLength="48">: string</text><text x="18" y="1187.475" fill="#D9B8FF" font-family="sans-serif" font-size="14" font-weight="bold" textLength="98">usage_name</text><text x="116" y="1187.475" fill="#D9B8FF" font-family="sans-serif" font-size="14" textLength="144">: azure_usage_name</text><rect width="203" height="100.383" x="37.5" y="1259.78" fill="#3D176E" rx="2.5" ry="2.5" style="stroke:#000d19;stroke-width:.5"/><circle cx="52.5" cy="1279.675" r="11" fill="#ADD1B2" style="stroke:#181818;stroke-width:1"/><path d="M55.469 1285.315q-.578.297-1.219.438-.64.156-1.344.156-2.5 0-3.828-1.64-1.312-1.657-1.312-4.782t1.312-4.781q1.328-1.656 3.828-1.656.703 0 1.344.156.656.156 1.219.453v2.719q-.625-.578-1.219-.844-.594-.281-1.219-.281-1.343 0-2.031 1.078-.687 1.062-.687 3.156t.687 3.172q.688 1.062 2.031 1.062.625 0 1.219-.265.594-.281 1.219-.86z"/><text x="71.5" y="1285.56" fill="#D9B8FF" font-family="Helvetica" font-size="17" textLength="161">azure_usage_name</text><path d="M38.5 1299.569h201" style="stroke:#000d19;stroke-width:.5"/><text x="48.5" y="1321.564" fill="#D9B8FF" font-family="sans-serif" font-size="14" font-weight="bold" textLength="118">localized_value</text><text x="166.5" y="1321.564" fill="#D9B8FF" font-family="sans-serif" font-size="14" textLength="48">: string</text><text x="48.5" y="1347.861" fill="#D9B8FF" font-family="sans-serif" font-size="14" font-weight="bold" textLength="42">value</text><text x="90.5" y="1347.861" fill="#D9B8FF" font-family="sans-serif" font-size="14" textLength="48">: string</text><rect width="169" height="39.789" x="158.5" y="886.01" fill="#3D176E" rx="2.5" ry="2.5" style="stroke:#000d19;stroke-width:.5"/><circle cx="173.5" cy="905.904" r="11" fill="#ADD1B2" style="stroke:#181818;stroke-width:1"/><path d="M176.469 911.545q-.578.297-1.219.438-.64.156-1.344.156-2.5 0-3.828-1.64-1.312-1.657-1.312-4.782t1.312-4.781q1.328-1.657 3.828-1.657.703 0 1.344.157.656.156 1.219.453v2.719q-.625-.578-1.219-.844-.594-.281-1.219-.281-1.344 0-2.031 1.078-.687 1.062-.687 3.156t.687 3.172q.688 1.062 2.031 1.062.625 0 1.219-.265.594-.282 1.219-.86z"/><text x="192.5" y="911.79" fill="#D9B8FF" font-family="Helvetica" font-size="17" textLength="127">network_quota</text><rect width="198" height="39.789" x="146" y="438.75" fill="#3D176E" rx="2.5" ry="2.5" style="stroke:#000d19;stroke-width:.5"/><circle cx="161" cy="458.644" r="11" fill="#ADD1B2" style="stroke:#181818;stroke-width:1"/><path d="M163.969 464.285q-.578.297-1.219.438-.64.156-1.344.156-2.5 0-3.828-1.64-1.312-1.657-1.312-4.782t1.312-4.781q1.328-1.656 3.828-1.656.703 0 1.344.156.656.156 1.219.453v2.719q-.625-.579-1.219-.844-.594-.281-1.219-.281-1.344 0-2.031 1.078-.687 1.062-.687 3.156t.687 3.172q.688 1.062 2.031 1.062.625 0 1.219-.265.594-.281 1.219-.86z"/><text x="180" y="464.53" fill="#D9B8FF" font-family="Helvetica" font-size="17" textLength="156">phantom_resource</text><rect width="157" height="126.68" x="165.5" y="638.33" fill="#3D176E" rx="2.5" ry="2.5" style="stroke:#000d19;stroke-width:.5"/><circle cx="210.75" cy="658.225" r="11" fill="#ADD1B2" style="stroke:#181818;stroke-width:1"/><path d="M213.719 663.865q-.578.297-1.219.438-.64.156-1.344.156-2.5 0-3.828-1.64-1.312-1.657-1.312-4.782t1.312-4.781q1.328-1.656 3.828-1.656.703 0 1.344.156.656.156 1.219.453v2.719q-.625-.578-1.219-.844-.594-.281-1.219-.281-1.344 0-2.031 1.078-.687 1.062-.687 3.156t.687 3.172q.688 1.062 2.031 1.062.625 0 1.219-.265.594-.281 1.219-.86z"/><text x="236.25" y="664.11" fill="#D9B8FF" font-family="Helvetica" font-size="17" textLength="48">quota</text><path d="M166.5 678.119h155" style="stroke:#000d19;stroke-width:.5"/><text x="176.5" y="700.114" fill="#D9B8FF" font-family="sans-serif" font-size="14" font-weight="bold" textLength="45">quota</text><text x="221.5" y="700.114" fill="#D9B8FF" font-family="sans-serif" font-size="14" textLength="57">: double</text><text x="176.5" y="726.411" fill="#D9B8FF" font-family="sans-serif" font-size="14" font-weight="bold" textLength="87">quota_type</text><text x="263.5" y="726.411" fill="#D9B8FF" font-family="sans-serif" font-size="14" textLength="48">: string</text><text x="176.5" y="752.708" fill="#D9B8FF" font-family="sans-serif" font-size="14" font-weight="bold" textLength="48">usage</text><text x="224.5" y="752.708" fill="#D9B8FF" font-family="sans-serif" font-size="14" textLength="57">: double</text><rect width="227" height="310.758" x="14.5" y="7" fill="#3D176E" rx="2.5" ry="2.5" style="stroke:#000d19;stroke-width:.5"/><circle cx="83.25" cy="26.895" r="11" fill="#ADD1B2" style="stroke:#181818;stroke-width:1"/><path d="M86.219 32.535q-.578.297-1.219.438-.64.156-1.344.156-2.5 0-3.828-1.64-1.312-1.657-1.312-4.782t1.312-4.781q1.328-1.656 3.828-1.656.703 0 1.344.156.656.156 1.219.453v2.719q-.625-.578-1.219-.844-.594-.281-1.219-.281-1.344 0-2.031 1.078-.687 1.062-.687 3.156t.687 3.172q.688 1.062 2.031 1.062.625 0 1.219-.265.594-.281 1.219-.86z"/><text x="108.75" y="32.78" fill="#D9B8FF" font-family="Helvetica" font-size="17" textLength="71">resource</text><path d="M15.5 46.789h225" style="stroke:#000d19;stroke-width:.5"/><text x="25.5" y="68.784" fill="#D9B8FF" font-family="sans-serif" font-size="14" font-weight="bold" textLength="29">age</text><text x="54.5" y="68.784" fill="#D9B8FF" font-family="sans-serif" font-size="14" textLength="66">: duration</text><text x="25.5" y="95.081" fill="#D9B8FF" font-family="sans-serif" font-size="14" font-weight="bold" textLength="43">atime</text><text x="68.5" y="95.081" fill="#D9B8FF" font-family="sans-serif" font-size="14" textLength="70">: datetime</text><text x="25.5" y="121.378" fill="#D9B8FF" font-family="sans-serif" font-size="14" font-weight="bold" textLength="43">ctime</text><text x="68.5" y="121.378" fill="#D9B8FF" font-family="sans-serif" font-size="14" textLength="70">: datetime</text><text x="25.5" y="147.675" fill="#D9B8FF" font-family="sans-serif" font-size="14" font-weight="bold" textLength="14">id</text><text x="39.5" y="147.675" fill="#D9B8FF" font-family="sans-serif" font-size="14" textLength="48">: string</text><text x="25.5" y="173.972" fill="#D9B8FF" font-family="sans-serif" font-size="14" font-weight="bold" textLength="33">kind</text><text x="58.5" y="173.972" fill="#D9B8FF" font-family="sans-serif" font-size="14" textLength="48">: string</text><text x="25.5" y="200.269" fill="#D9B8FF" font-family="sans-serif" font-size="14" font-weight="bold" textLength="90">last_access</text><text x="115.5" y="200.269" fill="#D9B8FF" font-family="sans-serif" font-size="14" textLength="66">: duration</text><text x="25.5" y="226.565" fill="#D9B8FF" font-family="sans-serif" font-size="14" font-weight="bold" textLength="90">last_update</text><text x="115.5" y="226.565" fill="#D9B8FF" font-family="sans-serif" font-size="14" textLength="66">: duration</text><text x="25.5" y="252.862" fill="#D9B8FF" font-family="sans-serif" font-size="14" font-weight="bold" textLength="48">mtime</text><text x="73.5" y="252.862" fill="#D9B8FF" font-family="sans-serif" font-size="14" textLength="70">: datetime</text><text x="25.5" y="279.159" fill="#D9B8FF" font-family="sans-serif" font-size="14" font-weight="bold" textLength="43">name</text><text x="68.5" y="279.159" fill="#D9B8FF" font-family="sans-serif" font-size="14" textLength="48">: string</text><text x="25.5" y="305.456" fill="#D9B8FF" font-family="sans-serif" font-size="14" font-weight="bold" textLength="34">tags</text><text x="59.5" y="305.456" fill="#D9B8FF" font-family="sans-serif" font-size="14" textLength="171">: dictionary[string, string]</text><g fill="none"><path d="M115.735 335.945c-6 84.52-11.505 162.025-14.355 202.125" style="stroke:#ffaf37;stroke-width:2"/><path d="m117.01 317.99-7.26 17.53 11.97.85z" style="stroke:#ffaf37;stroke-width:2"/></g><path fill="none" d="M100.93 596.755C102 640.565 104 732.79 104 825.01v81.9c0 46.78 8.15 98.55 16.58 139.61m-20.09-467.76-5.559 18.141 11.997-.293zM139 1200.2v53.27" style="stroke:#ffaf37;stroke-width:2"/><path fill="#FFAF37" d="m139 1259.47 4-9-4 4-4-4z" style="stroke:#ffaf37;stroke-width:2"/><path fill="none" d="M225.945 942.23c-12.97 26.87-29.525 61.14-50.305 104.17m58.13-120.38-13.228 13.602 10.807 5.216zm9.833-142.75c-.2 41.53-.373 75.25-.513 102.61m.6-120.61-6.087 17.97 12 .059z" style="stroke:#ffaf37;stroke-width:2"/><g fill="none"><path d="M196.06 334.566c19.2 48.29 31.33 78.794 41.39 104.104" style="stroke:#ffaf37;stroke-width:2"/><path d="m189.41 317.84 1.075 18.943 11.15-4.433z" style="stroke:#ffaf37;stroke-width:2"/></g><g fill="none"><path d="M244.846 496.96c-.14 34.08-.366 88.23-.586 141" style="stroke:#ffaf37;stroke-width:2"/><path d="m244.92 478.96-6.074 17.975 12 .05z" style="stroke:#ffaf37;stroke-width:2"/></g></svg>