<?xml version="1.0" encoding="us-ascii" standalone="no"?><svg xmlns="http://www.w3.org/2000/svg" xmlns:xlink="http://www.w3.org/1999/xlink" contentStyleType="text/css" height="919px" preserveAspectRatio="none" style="width:2435px;height:919px;" version="1.1" viewBox="0 0 2435 919" width="2435px" zoomAndPan="magnify"><defs/><g><!--class aws_region--><g id="elem_aws_region"><rect codeLine="23" fill="#3D176E" height="39.7891" id="aws_region" rx="2.5" ry="2.5" style="stroke:#000D19;stroke-width:0.5;" width="137" x="7" y="873.52"/><ellipse cx="22" cy="893.4145" fill="#ADD1B2" rx="11" ry="11" style="stroke:#181818;stroke-width:1.0;"/><path d="M24.9688,899.0552 Q24.3906,899.352 23.75,899.4927 Q23.1094,899.6489 22.4063,899.6489 Q19.9063,899.6489 18.5781,898.0083 Q17.2656,896.352 17.2656,893.227 Q17.2656,890.102 18.5781,888.4458 Q19.9063,886.7895 22.4063,886.7895 Q23.1094,886.7895 23.75,886.9458 Q24.4063,887.102 24.9688,887.3989 L24.9688,890.1177 Q24.3438,889.5395 23.75,889.2739 Q23.1563,888.9927 22.5313,888.9927 Q21.1875,888.9927 20.5,890.0708 Q19.8125,891.1333 19.8125,893.227 Q19.8125,895.3208 20.5,896.3989 Q21.1875,897.4614 22.5313,897.4614 Q23.1563,897.4614 23.75,897.1958 Q24.3438,896.9145 24.9688,896.3364 L24.9688,899.0552 Z " fill="#000000"/><text fill="#D9B8FF" font-family="Helvetica" font-size="17" lengthAdjust="spacing" textLength="95" x="41" y="899.2998">aws_region</text></g><!--class azure_location--><g id="elem_azure_location"><rect codeLine="26" fill="#3D176E" height="39.7891" id="azure_location" rx="2.5" ry="2.5" style="stroke:#000D19;stroke-width:0.5;" width="163" x="179" y="873.52"/><ellipse cx="194" cy="893.4145" fill="#ADD1B2" rx="11" ry="11" style="stroke:#181818;stroke-width:1.0;"/><path d="M196.9688,899.0552 Q196.3906,899.352 195.75,899.4927 Q195.1094,899.6489 194.4063,899.6489 Q191.9063,899.6489 190.5781,898.0083 Q189.2656,896.352 189.2656,893.227 Q189.2656,890.102 190.5781,888.4458 Q191.9063,886.7895 194.4063,886.7895 Q195.1094,886.7895 195.75,886.9458 Q196.4063,887.102 196.9688,887.3989 L196.9688,890.1177 Q196.3438,889.5395 195.75,889.2739 Q195.1563,888.9927 194.5313,888.9927 Q193.1875,888.9927 192.5,890.0708 Q191.8125,891.1333 191.8125,893.227 Q191.8125,895.3208 192.5,896.3989 Q193.1875,897.4614 194.5313,897.4614 Q195.1563,897.4614 195.75,897.1958 Q196.3438,896.9145 196.9688,896.3364 L196.9688,899.0552 Z " fill="#000000"/><text fill="#D9B8FF" font-family="Helvetica" font-size="17" lengthAdjust="spacing" textLength="121" x="213" y="899.2998">azure_location</text></g><!--class digitalocean_region--><g id="elem_digitalocean_region"><rect codeLine="29" fill="#3D176E" height="39.7891" id="digitalocean_region" rx="2.5" ry="2.5" style="stroke:#000D19;stroke-width:0.5;" width="205" x="377" y="873.52"/><ellipse cx="392" cy="893.4145" fill="#ADD1B2" rx="11" ry="11" style="stroke:#181818;stroke-width:1.0;"/><path d="M394.9688,899.0552 Q394.3906,899.352 393.75,899.4927 Q393.1094,899.6489 392.4063,899.6489 Q389.9063,899.6489 388.5781,898.0083 Q387.2656,896.352 387.2656,893.227 Q387.2656,890.102 388.5781,888.4458 Q389.9063,886.7895 392.4063,886.7895 Q393.1094,886.7895 393.75,886.9458 Q394.4063,887.102 394.9688,887.3989 L394.9688,890.1177 Q394.3438,889.5395 393.75,889.2739 Q393.1563,888.9927 392.5313,888.9927 Q391.1875,888.9927 390.5,890.0708 Q389.8125,891.1333 389.8125,893.227 Q389.8125,895.3208 390.5,896.3989 Q391.1875,897.4614 392.5313,897.4614 Q393.1563,897.4614 393.75,897.1958 Q394.3438,896.9145 394.9688,896.3364 L394.9688,899.0552 Z " fill="#000000"/><text fill="#D9B8FF" font-family="Helvetica" font-size="17" lengthAdjust="spacing" textLength="163" x="411" y="899.2998">digitalocean_region</text></g><!--class gcp_region--><g id="elem_gcp_region"><rect codeLine="32" fill="#3D176E" height="39.7891" id="gcp_region" rx="2.5" ry="2.5" style="stroke:#000D19;stroke-width:0.5;" width="132" x="616.5" y="873.52"/><ellipse cx="631.5" cy="893.4145" fill="#ADD1B2" rx="11" ry="11" style="stroke:#181818;stroke-width:1.0;"/><path d="M634.4688,899.0552 Q633.8906,899.352 633.25,899.4927 Q632.6094,899.6489 631.9063,899.6489 Q629.4063,899.6489 628.0781,898.0083 Q626.7656,896.352 626.7656,893.227 Q626.7656,890.102 628.0781,888.4458 Q629.4063,886.7895 631.9063,886.7895 Q632.6094,886.7895 633.25,886.9458 Q633.9063,887.102 634.4688,887.3989 L634.4688,890.1177 Q633.8438,889.5395 633.25,889.2739 Q632.6563,888.9927 632.0313,888.9927 Q630.6875,888.9927 630,890.0708 Q629.3125,891.1333 629.3125,893.227 Q629.3125,895.3208 630,896.3989 Q630.6875,897.4614 632.0313,897.4614 Q632.6563,897.4614 633.25,897.1958 Q633.8438,896.9145 634.4688,896.3364 L634.4688,899.0552 Z " fill="#000000"/><text fill="#D9B8FF" font-family="Helvetica" font-size="17" lengthAdjust="spacing" textLength="90" x="650.5" y="899.2998">gcp_region</text></g><!--class github_region--><g id="elem_github_region"><rect codeLine="35" fill="#3D176E" height="39.7891" id="github_region" rx="2.5" ry="2.5" style="stroke:#000D19;stroke-width:0.5;" width="158" x="783.5" y="873.52"/><ellipse cx="798.5" cy="893.4145" fill="#ADD1B2" rx="11" ry="11" style="stroke:#181818;stroke-width:1.0;"/><path d="M801.4688,899.0552 Q800.8906,899.352 800.25,899.4927 Q799.6094,899.6489 798.9063,899.6489 Q796.4063,899.6489 795.0781,898.0083 Q793.7656,896.352 793.7656,893.227 Q793.7656,890.102 795.0781,888.4458 Q796.4063,886.7895 798.9063,886.7895 Q799.6094,886.7895 800.25,886.9458 Q800.9063,887.102 801.4688,887.3989 L801.4688,890.1177 Q800.8438,889.5395 800.25,889.2739 Q799.6563,888.9927 799.0313,888.9927 Q797.6875,888.9927 797,890.0708 Q796.3125,891.1333 796.3125,893.227 Q796.3125,895.3208 797,896.3989 Q797.6875,897.4614 799.0313,897.4614 Q799.6563,897.4614 800.25,897.1958 Q800.8438,896.9145 801.4688,896.3364 L801.4688,899.0552 Z " fill="#000000"/><text fill="#D9B8FF" font-family="Helvetica" font-size="17" lengthAdjust="spacing" textLength="116" x="817.5" y="899.2998">github_region</text></g><!--class kubernetes_namespace--><g id="elem_kubernetes_namespace"><rect codeLine="38" fill="#3D176E" height="39.7891" id="kubernetes_namespace" rx="2.5" ry="2.5" style="stroke:#000D19;stroke-width:0.5;" width="239" x="976" y="873.52"/><ellipse cx="991" cy="893.4145" fill="#ADD1B2" rx="11" ry="11" style="stroke:#181818;stroke-width:1.0;"/><path d="M993.9688,899.0552 Q993.3906,899.352 992.75,899.4927 Q992.1094,899.6489 991.4063,899.6489 Q988.9063,899.6489 987.5781,898.0083 Q986.2656,896.352 986.2656,893.227 Q986.2656,890.102 987.5781,888.4458 Q988.9063,886.7895 991.4063,886.7895 Q992.1094,886.7895 992.75,886.9458 Q993.4063,887.102 993.9688,887.3989 L993.9688,890.1177 Q993.3438,889.5395 992.75,889.2739 Q992.1563,888.9927 991.5313,888.9927 Q990.1875,888.9927 989.5,890.0708 Q988.8125,891.1333 988.8125,893.227 Q988.8125,895.3208 989.5,896.3989 Q990.1875,897.4614 991.5313,897.4614 Q992.1563,897.4614 992.75,897.1958 Q993.3438,896.9145 993.9688,896.3364 L993.9688,899.0552 Z " fill="#000000"/><text fill="#D9B8FF" font-family="Helvetica" font-size="17" lengthAdjust="spacing" textLength="197" x="1010" y="899.2998">kubernetes_namespace</text></g><!--class microsoft_graph_organization_root--><g id="elem_microsoft_graph_organization_root"><rect codeLine="41" fill="#3D176E" height="39.7891" id="microsoft_graph_organization_root" rx="2.5" ry="2.5" style="stroke:#000D19;stroke-width:0.5;" width="333" x="1250" y="873.52"/><ellipse cx="1265" cy="893.4145" fill="#ADD1B2" rx="11" ry="11" style="stroke:#181818;stroke-width:1.0;"/><path d="M1267.9688,899.0552 Q1267.3906,899.352 1266.75,899.4927 Q1266.1094,899.6489 1265.4063,899.6489 Q1262.9063,899.6489 1261.5781,898.0083 Q1260.2656,896.352 1260.2656,893.227 Q1260.2656,890.102 1261.5781,888.4458 Q1262.9063,886.7895 1265.4063,886.7895 Q1266.1094,886.7895 1266.75,886.9458 Q1267.4063,887.102 1267.9688,887.3989 L1267.9688,890.1177 Q1267.3438,889.5395 1266.75,889.2739 Q1266.1563,888.9927 1265.5313,888.9927 Q1264.1875,888.9927 1263.5,890.0708 Q1262.8125,891.1333 1262.8125,893.227 Q1262.8125,895.3208 1263.5,896.3989 Q1264.1875,897.4614 1265.5313,897.4614 Q1266.1563,897.4614 1266.75,897.1958 Q1267.3438,896.9145 1267.9688,896.3364 L1267.9688,899.0552 Z " fill="#000000"/><text fill="#D9B8FF" font-family="Helvetica" font-size="17" lengthAdjust="spacing" textLength="291" x="1284" y="899.2998">microsoft_graph_organization_root</text></g><!--class onelogin_region--><g id="elem_onelogin_region"><rect codeLine="44" fill="#3D176E" height="39.7891" id="onelogin_region" rx="2.5" ry="2.5" style="stroke:#000D19;stroke-width:0.5;" width="176" x="1617.5" y="873.52"/><ellipse cx="1632.5" cy="893.4145" fill="#ADD1B2" rx="11" ry="11" style="stroke:#181818;stroke-width:1.0;"/><path d="M1635.4688,899.0552 Q1634.8906,899.352 1634.25,899.4927 Q1633.6094,899.6489 1632.9063,899.6489 Q1630.4063,899.6489 1629.0781,898.0083 Q1627.7656,896.352 1627.7656,893.227 Q1627.7656,890.102 1629.0781,888.4458 Q1630.4063,886.7895 1632.9063,886.7895 Q1633.6094,886.7895 1634.25,886.9458 Q1634.9063,887.102 1635.4688,887.3989 L1635.4688,890.1177 Q1634.8438,889.5395 1634.25,889.2739 Q1633.6563,888.9927 1633.0313,888.9927 Q1631.6875,888.9927 1631,890.0708 Q1630.3125,891.1333 1630.3125,893.227 Q1630.3125,895.3208 1631,896.3989 Q1631.6875,897.4614 1633.0313,897.4614 Q1633.6563,897.4614 1634.25,897.1958 Q1634.8438,896.9145 1635.4688,896.3364 L1635.4688,899.0552 Z " fill="#000000"/><text fill="#D9B8FF" font-family="Helvetica" font-size="17" lengthAdjust="spacing" textLength="134" x="1651.5" y="899.2998">onelogin_region</text></g><!--class onprem_region--><g id="elem_onprem_region"><rect codeLine="47" fill="#3D176E" height="39.7891" id="onprem_region" rx="2.5" ry="2.5" style="stroke:#000D19;stroke-width:0.5;" width="169" x="1828" y="873.52"/><ellipse cx="1843" cy="893.4145" fill="#ADD1B2" rx="11" ry="11" style="stroke:#181818;stroke-width:1.0;"/><path d="M1845.9688,899.0552 Q1845.3906,899.352 1844.75,899.4927 Q1844.1094,899.6489 1843.4063,899.6489 Q1840.9063,899.6489 1839.5781,898.0083 Q1838.2656,896.352 1838.2656,893.227 Q1838.2656,890.102 1839.5781,888.4458 Q1840.9063,886.7895 1843.4063,886.7895 Q1844.1094,886.7895 1844.75,886.9458 Q1845.4063,887.102 1845.9688,887.3989 L1845.9688,890.1177 Q1845.3438,889.5395 1844.75,889.2739 Q1844.1563,888.9927 1843.5313,888.9927 Q1842.1875,888.9927 1841.5,890.0708 Q1840.8125,891.1333 1840.8125,893.227 Q1840.8125,895.3208 1841.5,896.3989 Q1842.1875,897.4614 1843.5313,897.4614 Q1844.1563,897.4614 1844.75,897.1958 Q1845.3438,896.9145 1845.9688,896.3364 L1845.9688,899.0552 Z " fill="#000000"/><text fill="#D9B8FF" font-family="Helvetica" font-size="17" lengthAdjust="spacing" textLength="127" x="1862" y="899.2998">onprem_region</text></g><!--class phantom_resource--><g id="elem_phantom_resource"><rect codeLine="50" fill="#3D176E" height="39.7891" id="phantom_resource" rx="2.5" ry="2.5" style="stroke:#000D19;stroke-width:0.5;" width="198" x="996.5" y="438.76"/><ellipse cx="1011.5" cy="458.6545" fill="#ADD1B2" rx="11" ry="11" style="stroke:#181818;stroke-width:1.0;"/><path d="M1014.4688,464.2952 Q1013.8906,464.592 1013.25,464.7327 Q1012.6094,464.8889 1011.9063,464.8889 Q1009.4063,464.8889 1008.0781,463.2483 Q1006.7656,461.592 1006.7656,458.467 Q1006.7656,455.342 1008.0781,453.6858 Q1009.4063,452.0295 1011.9063,452.0295 Q1012.6094,452.0295 1013.25,452.1858 Q1013.9063,452.342 1014.4688,452.6389 L1014.4688,455.3577 Q1013.8438,454.7795 1013.25,454.5139 Q1012.6563,454.2327 1012.0313,454.2327 Q1010.6875,454.2327 1010,455.3108 Q1009.3125,456.3733 1009.3125,458.467 Q1009.3125,460.5608 1010,461.6389 Q1010.6875,462.7014 1012.0313,462.7014 Q1012.6563,462.7014 1013.25,462.4358 Q1013.8438,462.1545 1014.4688,461.5764 L1014.4688,464.2952 Z " fill="#000000"/><text fill="#D9B8FF" font-family="Helvetica" font-size="17" lengthAdjust="spacing" textLength="156" x="1030.5" y="464.5398">phantom_resource</text></g><!--class region--><g id="elem_region"><rect codeLine="53" fill="#3D176E" height="152.9766" id="region" rx="2.5" ry="2.5" style="stroke:#000D19;stroke-width:0.5;" width="195" x="998" y="599.54"/><ellipse cx="1059.75" cy="619.4345" fill="#ADD1B2" rx="11" ry="11" style="stroke:#181818;stroke-width:1.0;"/><path d="M1062.7188,625.0752 Q1062.1406,625.372 1061.5,625.5127 Q1060.8594,625.6689 1060.1563,625.6689 Q1057.6563,625.6689 1056.3281,624.0283 Q1055.0156,622.372 1055.0156,619.247 Q1055.0156,616.122 1056.3281,614.4658 Q1057.6563,612.8095 1060.1563,612.8095 Q1060.8594,612.8095 1061.5,612.9658 Q1062.1563,613.122 1062.7188,613.4189 L1062.7188,616.1377 Q1062.0938,615.5595 1061.5,615.2939 Q1060.9063,615.0127 1060.2813,615.0127 Q1058.9375,615.0127 1058.25,616.0908 Q1057.5625,617.1533 1057.5625,619.247 Q1057.5625,621.3408 1058.25,622.4189 Q1058.9375,623.4814 1060.2813,623.4814 Q1060.9063,623.4814 1061.5,623.2158 Q1062.0938,622.9345 1062.7188,622.3564 L1062.7188,625.0752 Z " fill="#000000"/><text fill="#D9B8FF" font-family="Helvetica" font-size="17" lengthAdjust="spacing" textLength="53" x="1085.25" y="625.3198">region</text><line style="stroke:#000D19;stroke-width:0.5;" x1="999" x2="1192" y1="639.3291" y2="639.3291"/><text fill="#D9B8FF" font-family="sans-serif" font-size="14" font-weight="bold" lengthAdjust="spacing" textLength="59" x="1009" y="661.3242">latitude</text><text fill="#D9B8FF" font-family="sans-serif" font-size="14" lengthAdjust="spacing" textLength="57" x="1068" y="661.3242">: double</text><text fill="#D9B8FF" font-family="sans-serif" font-size="14" font-weight="bold" lengthAdjust="spacing" textLength="84" x="1009" y="687.6211">long_name</text><text fill="#D9B8FF" font-family="sans-serif" font-size="14" lengthAdjust="spacing" textLength="48" x="1093" y="687.6211">: string</text><text fill="#D9B8FF" font-family="sans-serif" font-size="14" font-weight="bold" lengthAdjust="spacing" textLength="74" x="1009" y="713.9179">longitude</text><text fill="#D9B8FF" font-family="sans-serif" font-size="14" lengthAdjust="spacing" textLength="57" x="1083" y="713.9179">: double</text><text fill="#D9B8FF" font-family="sans-serif" font-size="14" font-weight="bold" lengthAdjust="spacing" textLength="108" x="1009" y="740.2148">region_in_use</text><text fill="#D9B8FF" font-family="sans-serif" font-size="14" lengthAdjust="spacing" textLength="65" x="1117" y="740.2148">: boolean</text></g><!--class resource--><g id="elem_resource"><rect codeLine="59" fill="#3D176E" height="310.7578" id="resource" rx="2.5" ry="2.5" style="stroke:#000D19;stroke-width:0.5;" width="227" x="982" y="7"/><ellipse cx="1050.75" cy="26.8945" fill="#ADD1B2" rx="11" ry="11" style="stroke:#181818;stroke-width:1.0;"/><path d="M1053.7188,32.5352 Q1053.1406,32.832 1052.5,32.9727 Q1051.8594,33.1289 1051.1563,33.1289 Q1048.6563,33.1289 1047.3281,31.4883 Q1046.0156,29.832 1046.0156,26.707 Q1046.0156,23.582 1047.3281,21.9258 Q1048.6563,20.2695 1051.1563,20.2695 Q1051.8594,20.2695 1052.5,20.4258 Q1053.1563,20.582 1053.7188,20.8789 L1053.7188,23.5977 Q1053.0938,23.0195 1052.5,22.7539 Q1051.9063,22.4727 1051.2813,22.4727 Q1049.9375,22.4727 1049.25,23.5508 Q1048.5625,24.6133 1048.5625,26.707 Q1048.5625,28.8008 1049.25,29.8789 Q1049.9375,30.9414 1051.2813,30.9414 Q1051.9063,30.9414 1052.5,30.6758 Q1053.0938,30.3945 1053.7188,29.8164 L1053.7188,32.5352 Z " fill="#000000"/><text fill="#D9B8FF" font-family="Helvetica" font-size="17" lengthAdjust="spacing" textLength="71" x="1076.25" y="32.7798">resource</text><line style="stroke:#000D19;stroke-width:0.5;" x1="983" x2="1208" y1="46.7891" y2="46.7891"/><text fill="#D9B8FF" font-family="sans-serif" font-size="14" font-weight="bold" lengthAdjust="spacing" textLength="29" x="993" y="68.7842">age</text><text fill="#D9B8FF" font-family="sans-serif" font-size="14" lengthAdjust="spacing" textLength="66" x="1022" y="68.7842">: duration</text><text fill="#D9B8FF" font-family="sans-serif" font-size="14" font-weight="bold" lengthAdjust="spacing" textLength="43" x="993" y="95.0811">atime</text><text fill="#D9B8FF" font-family="sans-serif" font-size="14" lengthAdjust="spacing" textLength="70" x="1036" y="95.0811">: datetime</text><text fill="#D9B8FF" font-family="sans-serif" font-size="14" font-weight="bold" lengthAdjust="spacing" textLength="43" x="993" y="121.3779">ctime</text><text fill="#D9B8FF" font-family="sans-serif" font-size="14" lengthAdjust="spacing" textLength="70" x="1036" y="121.3779">: datetime</text><text fill="#D9B8FF" font-family="sans-serif" font-size="14" font-weight="bold" lengthAdjust="spacing" textLength="14" x="993" y="147.6748">id</text><text fill="#D9B8FF" font-family="sans-serif" font-size="14" lengthAdjust="spacing" textLength="48" x="1007" y="147.6748">: string</text><text fill="#D9B8FF" font-family="sans-serif" font-size="14" font-weight="bold" lengthAdjust="spacing" textLength="33" x="993" y="173.9717">kind</text><text fill="#D9B8FF" font-family="sans-serif" font-size="14" lengthAdjust="spacing" textLength="48" x="1026" y="173.9717">: string</text><text fill="#D9B8FF" font-family="sans-serif" font-size="14" font-weight="bold" lengthAdjust="spacing" textLength="90" x="993" y="200.2686">last_access</text><text fill="#D9B8FF" font-family="sans-serif" font-size="14" lengthAdjust="spacing" textLength="66" x="1083" y="200.2686">: duration</text><text fill="#D9B8FF" font-family="sans-serif" font-size="14" font-weight="bold" lengthAdjust="spacing" textLength="90" x="993" y="226.5654">last_update</text><text fill="#D9B8FF" font-family="sans-serif" font-size="14" lengthAdjust="spacing" textLength="66" x="1083" y="226.5654">: duration</text><text fill="#D9B8FF" font-family="sans-serif" font-size="14" font-weight="bold" lengthAdjust="spacing" textLength="48" x="993" y="252.8623">mtime</text><text fill="#D9B8FF" font-family="sans-serif" font-size="14" lengthAdjust="spacing" textLength="70" x="1041" y="252.8623">: datetime</text><text fill="#D9B8FF" font-family="sans-serif" font-size="14" font-weight="bold" lengthAdjust="spacing" textLength="43" x="993" y="279.1592">name</text><text fill="#D9B8FF" font-family="sans-serif" font-size="14" lengthAdjust="spacing" textLength="48" x="1036" y="279.1592">: string</text><text fill="#D9B8FF" font-family="sans-serif" font-size="14" font-weight="bold" lengthAdjust="spacing" textLength="34" x="993" y="305.4561">tags</text><text fill="#D9B8FF" font-family="sans-serif" font-size="14" lengthAdjust="spacing" textLength="171" x="1027" y="305.4561">: dictionary[string, string]</text></g><!--class slack_region--><g id="elem_slack_region"><rect codeLine="71" fill="#3D176E" height="39.7891" id="slack_region" rx="2.5" ry="2.5" style="stroke:#000D19;stroke-width:0.5;" width="145" x="2032" y="873.52"/><ellipse cx="2047" cy="893.4145" fill="#ADD1B2" rx="11" ry="11" style="stroke:#181818;stroke-width:1.0;"/><path d="M2049.9688,899.0552 Q2049.3906,899.352 2048.75,899.4927 Q2048.1094,899.6489 2047.4063,899.6489 Q2044.9063,899.6489 2043.5781,898.0083 Q2042.2656,896.352 2042.2656,893.227 Q2042.2656,890.102 2043.5781,888.4458 Q2044.9063,886.7895 2047.4063,886.7895 Q2048.1094,886.7895 2048.75,886.9458 Q2049.4063,887.102 2049.9688,887.3989 L2049.9688,890.1177 Q2049.3438,889.5395 2048.75,889.2739 Q2048.1563,888.9927 2047.5313,888.9927 Q2046.1875,888.9927 2045.5,890.0708 Q2044.8125,891.1333 2044.8125,893.227 Q2044.8125,895.3208 2045.5,896.3989 Q2046.1875,897.4614 2047.5313,897.4614 Q2048.1563,897.4614 2048.75,897.1958 Q2049.3438,896.9145 2049.9688,896.3364 L2049.9688,899.0552 Z " fill="#000000"/><text fill="#D9B8FF" font-family="Helvetica" font-size="17" lengthAdjust="spacing" textLength="103" x="2066" y="899.2998">slack_region</text></g><!--class vsphere_data_center--><g id="elem_vsphere_data_center"><rect codeLine="74" fill="#3D176E" height="39.7891" id="vsphere_data_center" rx="2.5" ry="2.5" style="stroke:#000D19;stroke-width:0.5;" width="216" x="2212.5" y="873.52"/><ellipse cx="2227.5" cy="893.4145" fill="#ADD1B2" rx="11" ry="11" style="stroke:#181818;stroke-width:1.0;"/><path d="M2230.4688,899.0552 Q2229.8906,899.352 2229.25,899.4927 Q2228.6094,899.6489 2227.9063,899.6489 Q2225.4063,899.6489 2224.0781,898.0083 Q2222.7656,896.352 2222.7656,893.227 Q2222.7656,890.102 2224.0781,888.4458 Q2225.4063,886.7895 2227.9063,886.7895 Q2228.6094,886.7895 2229.25,886.9458 Q2229.9063,887.102 2230.4688,887.3989 L2230.4688,890.1177 Q2229.8438,889.5395 2229.25,889.2739 Q2228.6563,888.9927 2228.0313,888.9927 Q2226.6875,888.9927 2226,890.0708 Q2225.3125,891.1333 2225.3125,893.227 Q2225.3125,895.3208 2226,896.3989 Q2226.6875,897.4614 2228.0313,897.4614 Q2228.6563,897.4614 2229.25,897.1958 Q2229.8438,896.9145 2230.4688,896.3364 L2230.4688,899.0552 Z " fill="#000000"/><text fill="#D9B8FF" font-family="Helvetica" font-size="17" lengthAdjust="spacing" textLength="174" x="2246.5" y="899.2998">vsphere_data_center</text></g><!--reverse link region to aws_region--><g id="link_region_aws_region"><path codeLine="77" d="M979.986,700.9901 C809.866,736.3201 466.26,807.99 161.5,873.52 C155.97,874.71 150.24,875.95 144.49,877.2 " fill="none" id="region-backto-aws_region" style="stroke:#FFAF37;stroke-width:2.0;"/><polygon fill="none" points="997.61,697.33,978.766,695.1154,981.2061,706.8647,997.61,697.33" style="stroke:#FFAF37;stroke-width:2.0;"/></g><!--reverse link region to azure_location--><g id="link_region_azure_location"><path codeLine="78" d="M980.2403,706.7651 C811.5303,750.2751 486.86,834.03 335.47,873.08 " fill="none" id="region-backto-azure_location" style="stroke:#FFAF37;stroke-width:2.0;"/><polygon fill="none" points="997.67,702.27,978.7419,700.9552,981.7387,712.575,997.67,702.27" style="stroke:#FFAF37;stroke-width:2.0;"/></g><!--reverse link region to digitalocean_region--><g id="link_region_digitalocean_region"><path codeLine="79" d="M980.5589,717.2216 C849.6989,762.9816 639.2,836.58 534.78,873.09 " fill="none" id="region-backto-digitalocean_region" style="stroke:#FFAF37;stroke-width:2.0;"/><polygon fill="none" points="997.55,711.28,978.5784,711.5579,982.5394,722.8853,997.55,711.28" style="stroke:#FFAF37;stroke-width:2.0;"/></g><!--reverse link region to gcp_region--><g id="link_region_gcp_region"><path codeLine="80" d="M981.6597,736.4028 C892.4497,782.9228 781.39,840.84 719.4,873.17 " fill="none" id="region-backto-gcp_region" style="stroke:#FFAF37;stroke-width:2.0;"/><polygon fill="none" points="997.62,728.08,978.8854,731.0827,984.4339,741.7229,997.62,728.08" style="stroke:#FFAF37;stroke-width:2.0;"/></g><!--reverse link region to github_region--><g id="link_region_github_region"><path codeLine="81" d="M1000.1317,765.1879 C953.7517,808.0579 912.61,846.09 883.48,873.02 " fill="none" id="region-backto-github_region" style="stroke:#FFAF37;stroke-width:2.0;"/><polygon fill="none" points="1013.35,752.97,996.0591,760.7818,1004.2044,769.594,1013.35,752.97" style="stroke:#FFAF37;stroke-width:2.0;"/></g><!--reverse link region to kubernetes_namespace--><g id="link_region_kubernetes_namespace"><path codeLine="82" d="M1095.5,770.97 C1095.5,813.84 1095.5,846.09 1095.5,873.02 " fill="none" id="region-backto-kubernetes_namespace" style="stroke:#FFAF37;stroke-width:2.0;"/><polygon fill="none" points="1095.5,752.97,1089.5,770.97,1101.5,770.97,1095.5,752.97" style="stroke:#FFAF37;stroke-width:2.0;"/></g><!--reverse link region to microsoft_graph_organization_root--><g id="link_region_microsoft_graph_organization_root"><path codeLine="83" d="M1208.0663,752.5604 C1275.0163,797.4904 1344.37,844.02 1387.77,873.14 " fill="none" id="region-backto-microsoft_graph_organization_root" style="stroke:#FFAF37;stroke-width:2.0;"/><polygon fill="none" points="1193.12,742.53,1204.7228,757.5425,1211.4097,747.5783,1193.12,742.53" style="stroke:#FFAF37;stroke-width:2.0;"/></g><!--reverse link region to onelogin_region--><g id="link_region_onelogin_region"><path codeLine="84" d="M1210.1432,717.5126 C1339.8932,763.3226 1547.73,836.71 1650.89,873.13 " fill="none" id="region-backto-onelogin_region" style="stroke:#FFAF37;stroke-width:2.0;"/><polygon fill="none" points="1193.17,711.52,1208.1456,723.1703,1212.1407,711.8549,1193.17,711.52" style="stroke:#FFAF37;stroke-width:2.0;"/></g><!--reverse link region to onprem_region--><g id="link_region_onprem_region"><path codeLine="85" d="M1210.6452,707.3889 C1376.3552,751.0789 1691.41,834.13 1839,873.04 " fill="none" id="region-backto-onprem_region" style="stroke:#FFAF37;stroke-width:2.0;"/><polygon fill="none" points="1193.24,702.8,1209.1156,713.1907,1212.1749,701.5872,1193.24,702.8" style="stroke:#FFAF37;stroke-width:2.0;"/></g><!--reverse link resource to phantom_resource--><g id="link_resource_phantom_resource"><path codeLine="86" d="M1095.5,335.84 C1095.5,384.13 1095.5,413.36 1095.5,438.67 " fill="none" id="resource-backto-phantom_resource" style="stroke:#FFAF37;stroke-width:2.0;"/><polygon fill="none" points="1095.5,317.84,1089.5,335.84,1101.5,335.84,1095.5,317.84" style="stroke:#FFAF37;stroke-width:2.0;"/></g><!--reverse link phantom_resource to region--><g id="link_phantom_resource_region"><path codeLine="87" d="M1095.5,496.76 C1095.5,523.63 1095.5,556.11 1095.5,599.15 " fill="none" id="phantom_resource-backto-region" style="stroke:#FFAF37;stroke-width:2.0;"/><polygon fill="none" points="1095.5,478.76,1089.5,496.76,1101.5,496.76,1095.5,478.76" style="stroke:#FFAF37;stroke-width:2.0;"/></g><!--reverse link region to slack_region--><g id="link_region_slack_region"><path codeLine="88" d="M1210.7634,701.6378 C1412.4334,744.6878 1853.28,838.79 2031.62,876.86 " fill="none" id="region-backto-slack_region" style="stroke:#FFAF37;stroke-width:2.0;"/><polygon fill="none" points="1193.16,697.88,1209.5108,707.5055,1212.016,695.77,1193.16,697.88" style="stroke:#FFAF37;stroke-width:2.0;"/></g><!--reverse link region to vsphere_data_center--><g id="link_region_vsphere_data_center"><path codeLine="89" d="M1211.148,697.3673 C1437.208,737.1173 1976.41,831.92 2212.22,873.38 " fill="none" id="region-backto-vsphere_data_center" style="stroke:#FFAF37;stroke-width:2.0;"/><polygon fill="none" points="1193.42,694.25,1210.1089,703.2766,1212.1871,691.4579,1193.42,694.25" style="stroke:#FFAF37;stroke-width:2.0;"/></g><!--SRC=[XLJ1ZjCm5BpdAoBjBQ9IomgwHLoMIWWkAyHoGoXwiLySgubVP3jRjS2_uoJTu3ZUxIsQ6NlcsUDKacEAJMjFQODDWTeavY1L2ngQz5vhEkwf9ftUb2MKjzkG_4pANXKyG8Ff5woVq4e6eU979Tb1eJ7fMu_w1EmWD7MAZzjR3Seu2fNrLFiQZBctLikYi-Y5uRlYhYn3PRZfpItVRD_ZGaQQexv8rkirt-n2oLMhL-UU58_oZEd6FxG7ihY8kR0OLA-cx1LUoCMWp_oB6Ry1vrA9z9s7VHypQOLwXZzMmEdOgqkeZMzZB6eaUsfnlvWATtUyt4R5NryI9wm_kXIE9jSe9AdqTvByVKRFdSQy9WOsOBWKqe9Z45HaeM1j39Mswee8SUZSEr5eqUJA7P-h9KEVRoJJPAYqkT3GLZbf0KgUXrIv9hA-c1JM96Gi5gbMOnCXsWgKfPunrEcv-QJEijevsevZbdr8ENL5ZJr8IWonUzIubwF41Lrgnxro5wup0rCGrUu8FRCfG9Q165TtUfYqHwmSVJXOxByTnYAOvBCmhX1pm7dP71XpFud0OM2wjjyhO9g8ps9i2sBSKR9-6UZJpv5xSz7ycaOrjQjav2wUJ5kvskRE1dBcVa_kRGpqHVhnpsgryWeRuBFAphb8QUU2_xKDSB-uSofMtRdYQdddyg2-8UaLE9dACf9XYPD5gqTTR6F_CkPCv3gIVm00]--></g></svg>