<svg xmlns="http://www.w3.org/2000/svg" width="794" height="352" viewBox="0 0 794 352"><rect width="212" height="39.789" x="445" y="106.79" fill="#3D176E" rx="2.5" ry="2.5" style="stroke:#000d19;stroke-width:.5"/><circle cx="460" cy="126.684" r="11" fill="#ADD1B2" style="stroke:#181818;stroke-width:1"/><path d="M462.969 132.325q-.578.297-1.219.438-.64.156-1.344.156-2.5 0-3.828-1.64-1.312-1.657-1.312-4.782t1.312-4.781q1.328-1.656 3.828-1.656.703 0 1.344.156.656.156 1.219.453v2.719q-.625-.579-1.219-.844-.594-.281-1.219-.281-1.344 0-2.031 1.078-.687 1.062-.687 3.156t.687 3.172q.688 1.062 2.031 1.062.625 0 1.219-.265.594-.281 1.219-.86z"/><text x="479" y="132.57" fill="#D9B8FF" font-family="Helvetica" font-size="17" textLength="170">azure_load_balancer</text><rect width="240" height="39.789" x="315" y="7" fill="#3D176E" rx="2.5" ry="2.5" style="stroke:#000d19;stroke-width:.5"/><circle cx="330" cy="26.895" r="11" fill="#ADD1B2" style="stroke:#181818;stroke-width:1"/><path d="M332.969 32.535q-.578.297-1.219.438-.64.156-1.344.156-2.5 0-3.828-1.64-1.312-1.657-1.312-4.782t1.312-4.781q1.328-1.656 3.828-1.656.703 0 1.344.156.656.156 1.219.453v2.719q-.625-.578-1.219-.844-.594-.281-1.219-.281-1.344 0-2.031 1.078-.687 1.062-.687 3.156t.687 3.172q.688 1.062 2.031 1.062.625 0 1.219-.265.594-.281 1.219-.86z"/><text x="349" y="32.78" fill="#D9B8FF" font-family="Helvetica" font-size="17" textLength="198">azure_managed_cluster</text><rect width="332" height="39.789" x="7" y="106.79" fill="#3D176E" rx="2.5" ry="2.5" style="stroke:#000d19;stroke-width:.5"/><circle cx="22" cy="126.684" r="11" fill="#ADD1B2" style="stroke:#181818;stroke-width:1"/><path d="M24.969 132.325q-.578.297-1.219.438-.64.156-1.344.156-2.5 0-3.828-1.64-1.312-1.657-1.312-4.782t1.312-4.781q1.328-1.656 3.828-1.656.703 0 1.344.156.656.156 1.219.453v2.719q-.625-.579-1.219-.844-.594-.281-1.219-.281-1.343 0-2.031 1.078-.687 1.062-.687 3.156t.687 3.172q.688 1.062 2.031 1.062.625 0 1.219-.265.594-.281 1.219-.86z"/><text x="41" y="132.57" fill="#D9B8FF" font-family="Helvetica" font-size="17" textLength="290">azure_proximity_placement_group</text><rect width="154" height="39.789" x="633" y="7" fill="#3D176E" rx="2.5" ry="2.5" style="stroke:#000d19;stroke-width:.5"/><circle cx="648" cy="26.895" r="11" fill="#ADD1B2" style="stroke:#181818;stroke-width:1"/><path d="M650.969 32.535q-.578.297-1.219.438-.64.156-1.344.156-2.5 0-3.828-1.64-1.312-1.657-1.312-4.782t1.312-4.781q1.328-1.656 3.828-1.656.703 0 1.344.156.656.156 1.219.453v2.719q-.625-.578-1.219-.844-.594-.281-1.219-.281-1.343 0-2.031 1.078-.687 1.062-.687 3.156t.687 3.172q.688 1.062 2.031 1.062.625 0 1.219-.265.594-.281 1.219-.86z"/><text x="667" y="32.78" fill="#D9B8FF" font-family="Helvetica" font-size="17" textLength="112">azure_subnet</text><rect width="317" height="39.789" x="233.5" y="206.58" fill="#3D176E" rx="2.5" ry="2.5" style="stroke:#000d19;stroke-width:.5"/><circle cx="248.5" cy="226.475" r="11" fill="#ADD1B2" style="stroke:#181818;stroke-width:1"/><path d="M251.469 232.115q-.578.297-1.219.438-.64.156-1.344.156-2.5 0-3.828-1.64-1.312-1.657-1.312-4.782t1.312-4.781q1.328-1.656 3.828-1.656.703 0 1.344.156.656.156 1.219.453v2.719q-.625-.578-1.219-.844-.594-.281-1.219-.281-1.344 0-2.031 1.078-.687 1.062-.687 3.156t.687 3.172q.688 1.062 2.031 1.062.625 0 1.219-.265.594-.281 1.219-.86z"/><text x="267.5" y="232.36" fill="#D9B8FF" font-family="Helvetica" font-size="17" textLength="275">azure_virtual_machine_scale_set</text><rect width="396" height="39.789" x="300" y="306.37" fill="#3D176E" rx="2.5" ry="2.5" style="stroke:#000d19;stroke-width:.5"/><circle cx="315" cy="326.264" r="11" fill="#ADD1B2" style="stroke:#181818;stroke-width:1"/><path d="M317.969 331.905q-.578.297-1.219.438-.64.156-1.344.156-2.5 0-3.828-1.64-1.312-1.657-1.312-4.782t1.312-4.781q1.328-1.656 3.828-1.656.703 0 1.344.156.656.156 1.219.453v2.719q-.625-.579-1.219-.844-.594-.281-1.219-.281-1.344 0-2.031 1.078-.687 1.062-.687 3.156t.687 3.172q.688 1.062 2.031 1.062.625 0 1.219-.265.594-.281 1.219-.86z"/><text x="334" y="332.15" fill="#D9B8FF" font-family="Helvetica" font-size="17" textLength="354">azure_virtual_machine_scale_set_instance</text><path fill="none" d="M519.59 147.01c-27.88 17.14-63.28 38.905-91.13 56.045" style="stroke:#1a83af;stroke-width:2"/><path fill="#1A83AF" d="m423.35 206.2 9.761-1.31-5.503-1.31 1.31-5.504z" style="stroke:#1a83af;stroke-width:2"/><path fill="none" d="M559.39 146.83c9.28 24 21.32 66.07 8.61 99.54-9.1 23.97-24.683 41.349-41.013 55.769" style="stroke:#1a83af;stroke-width:2"/><path fill="#1A83AF" d="m522.49 306.11 9.394-2.959-5.646-.35.35-5.647z" style="stroke:#1a83af;stroke-width:2"/><path fill="none" d="m457.92 47.22 65.623 55.323" style="stroke:#1a83af;stroke-width:2"/><path fill="#1A83AF" d="m528.13 106.41-4.303-8.86.48 5.637-5.636.48z" style="stroke:#1a83af;stroke-width:2"/><path fill="none" d="M430.8 47.2c-8.22 37.77-25.074 115.197-33.305 153.027" style="stroke:#1a83af;stroke-width:2"/><path fill="#1A83AF" d="m396.22 206.09 5.822-7.944-4.76 3.058-3.057-4.759z" style="stroke:#1a83af;stroke-width:2"/><path fill="none" d="M216.27 147.01c38.39 17.14 88.712 39.602 127.072 56.742" style="stroke:#1a83af;stroke-width:2"/><path fill="#1A83AF" d="m348.82 206.2-6.585-7.324 2.02 5.284-5.284 2.02z" style="stroke:#1a83af;stroke-width:2"/><path fill="none" d="M174.63 147.08c3.26 26.27 12.93 72.91 41.37 99.29 31.58 29.31 67.385 46.232 108.885 57.932" style="stroke:#1a83af;stroke-width:2"/><path fill="#1A83AF" d="m330.66 305.93-7.577-6.292 2.765 4.935-4.936 2.765z" style="stroke:#1a83af;stroke-width:2"/><path fill="none" d="M678.59 47.22c-27.88 17.14-63.28 38.917-91.13 56.046" style="stroke:#1a83af;stroke-width:2"/><path fill="#1A83AF" d="m582.35 106.41 9.762-1.308-5.503-1.312 1.311-5.502z" style="stroke:#1a83af;stroke-width:2"/><path fill="none" d="M709.61 47.21c-1.59 26.19-8.37 72.72-35.61 99.37-33.16 32.45-72.698 50.299-117.328 61.749" style="stroke:#1a83af;stroke-width:2"/><path fill="#1A83AF" d="m550.86 209.82 9.712 1.638-4.869-2.88 2.88-4.87z" style="stroke:#1a83af;stroke-width:2"/><path fill="none" d="M715.18 47.02c5.55 24.35 11.69 67.16-3.18 99.56-35.32 76.99-117.056 129.416-168.586 156.656" style="stroke:#1a83af;stroke-width:2"/><path fill="#1A83AF" d="m538.11 306.04 9.826-.67-5.406-1.667 1.667-5.405z" style="stroke:#1a83af;stroke-width:2"/><path fill="none" d="M412.94 246.8c18.59 17.14 41.181 37.98 59.751 55.12" style="stroke:#1a83af;stroke-width:2"/><path fill="#1A83AF" d="m477.1 305.99-3.9-9.044.226 5.653-5.652.226z" style="stroke:#1a83af;stroke-width:2"/></svg>