<svg xmlns="http://www.w3.org/2000/svg" width="806" height="1264" viewBox="0 0 806 1264"><rect width="216" height="74.086" x="7" y="930.86" fill="#3D176E" rx="2.5" ry="2.5" style="stroke:#000d19;stroke-width:.5"/><circle cx="22.45" cy="950.755" r="11" fill="#ADD1B2" style="stroke:#181818;stroke-width:1"/><path d="M25.419 956.395q-.578.297-1.219.438-.64.156-1.344.156-2.5 0-3.828-1.64-1.312-1.657-1.312-4.782t1.312-4.781q1.328-1.656 3.828-1.656.703 0 1.344.156.656.156 1.219.453v2.719q-.625-.578-1.219-.844-.594-.281-1.219-.281-1.344 0-2.031 1.078-.687 1.062-.687 3.156t.687 3.172q.688 1.062 2.031 1.062.625 0 1.219-.265.594-.281 1.219-.86z"/><text x="41.55" y="956.64" fill="#D9B8FF" font-family="Helvetica" font-size="17" textLength="173">azure_address_space</text><path d="M8 970.649h214" style="stroke:#000d19;stroke-width:.5"/><text x="18" y="992.644" fill="#D9B8FF" font-family="sans-serif" font-size="14" font-weight="bold" textLength="136">address_prefixes</text><text x="154" y="992.644" fill="#D9B8FF" font-family="sans-serif" font-size="14" textLength="58">: string[]</text><rect width="541" height="152.977" x="258.5" y="891.42" fill="#3D176E" rx="2.5" ry="2.5" style="stroke:#000d19;stroke-width:.5"/><circle cx="439.75" cy="911.314" r="11" fill="#ADD1B2" style="stroke:#181818;stroke-width:1"/><path d="M442.719 916.955q-.578.297-1.219.438-.64.156-1.344.156-2.5 0-3.828-1.64-1.312-1.657-1.312-4.782t1.312-4.781q1.328-1.657 3.828-1.657.703 0 1.344.157.656.156 1.219.453v2.719q-.625-.579-1.219-.844-.594-.281-1.219-.281-1.344 0-2.031 1.078-.687 1.062-.687 3.156t.687 3.172q.688 1.062 2.031 1.062.625 0 1.219-.265.594-.282 1.219-.86z"/><text x="465.25" y="917.2" fill="#D9B8FF" font-family="Helvetica" font-size="17" textLength="160">azure_bgp_settings</text><path d="M259.5 931.209h539" style="stroke:#000d19;stroke-width:.5"/><text x="269.5" y="953.204" fill="#D9B8FF" font-family="sans-serif" font-size="14" font-weight="bold" textLength="28">asn</text><text x="297.5" y="953.204" fill="#D9B8FF" font-family="sans-serif" font-size="14" textLength="44">: int64</text><text x="269.5" y="979.501" fill="#D9B8FF" font-family="sans-serif" font-size="14" font-weight="bold" textLength="169">bgp_peering_address</text><text x="438.5" y="979.501" fill="#D9B8FF" font-family="sans-serif" font-size="14" textLength="48">: string</text><text x="269.5" y="1005.798" fill="#D9B8FF" font-family="sans-serif" font-size="14" font-weight="bold" textLength="188">bgp_peering_addresses</text><text x="457.5" y="1005.798" fill="#D9B8FF" font-family="sans-serif" font-size="14" textLength="331">: azure_ip_configuration_bgp_peering_address[]</text><text x="269.5" y="1032.095" fill="#D9B8FF" font-family="sans-serif" font-size="14" font-weight="bold" textLength="98">peer_weight</text><text x="367.5" y="1032.095" fill="#D9B8FF" font-family="sans-serif" font-size="14" textLength="44">: int64</text><rect width="415" height="152.977" x="321.5" y="1104.39" fill="#3D176E" rx="2.5" ry="2.5" style="stroke:#000d19;stroke-width:.5"/><circle cx="336.5" cy="1124.284" r="11" fill="#ADD1B2" style="stroke:#181818;stroke-width:1"/><path d="M339.469 1129.925q-.578.297-1.219.438-.64.156-1.344.156-2.5 0-3.828-1.64-1.312-1.657-1.312-4.782t1.312-4.781q1.328-1.657 3.828-1.657.703 0 1.344.157.656.156 1.219.453v2.719q-.625-.579-1.219-.844-.594-.281-1.219-.281-1.344 0-2.031 1.078-.687 1.062-.687 3.156t.687 3.172q.688 1.062 2.031 1.062.625 0 1.219-.265.594-.282 1.219-.86z"/><text x="355.5" y="1130.17" fill="#D9B8FF" font-family="Helvetica" font-size="17" textLength="373">azure_ip_configuration_bgp_peering_address</text><path d="M322.5 1144.179h413" style="stroke:#000d19;stroke-width:.5"/><text x="332.5" y="1166.174" fill="#D9B8FF" font-family="sans-serif" font-size="14" font-weight="bold" textLength="206">custom_bgp_ip_addresses</text><text x="538.5" y="1166.174" fill="#D9B8FF" font-family="sans-serif" font-size="14" textLength="58">: string[]</text><text x="332.5" y="1192.471" fill="#D9B8FF" font-family="sans-serif" font-size="14" font-weight="bold" textLength="203">default_bgp_ip_addresses</text><text x="535.5" y="1192.471" fill="#D9B8FF" font-family="sans-serif" font-size="14" textLength="58">: string[]</text><text x="332.5" y="1218.768" fill="#D9B8FF" font-family="sans-serif" font-size="14" font-weight="bold" textLength="140">ipconfiguration_id</text><text x="472.5" y="1218.768" fill="#D9B8FF" font-family="sans-serif" font-size="14" textLength="48">: string</text><text x="332.5" y="1245.065" fill="#D9B8FF" font-family="sans-serif" font-size="14" font-weight="bold" textLength="161">tunnel_ip_addresses</text><text x="493.5" y="1245.065" fill="#D9B8FF" font-family="sans-serif" font-size="14" textLength="58">: string[]</text><rect width="416" height="231.867" x="114" y="599.55" fill="#3D176E" rx="2.5" ry="2.5" style="stroke:#000d19;stroke-width:.5"/><circle cx="186.25" cy="619.444" r="11" fill="#ADD1B2" style="stroke:#181818;stroke-width:1"/><path d="M189.219 625.085q-.578.297-1.219.438-.64.156-1.344.156-2.5 0-3.828-1.64-1.312-1.657-1.312-4.782t1.312-4.781q1.328-1.657 3.828-1.657.703 0 1.344.157.656.156 1.219.453v2.719q-.625-.579-1.219-.844-.594-.281-1.219-.281-1.344 0-2.031 1.078-.687 1.062-.687 3.156t.687 3.172q.688 1.062 2.031 1.062.625 0 1.219-.265.594-.282 1.219-.86z"/><text x="211.75" y="625.33" fill="#D9B8FF" font-family="Helvetica" font-size="17" textLength="253">azure_local_network_gateway</text><path d="M115 639.339h414" style="stroke:#000d19;stroke-width:.5"/><text x="125" y="661.334" fill="#D9B8FF" font-family="sans-serif" font-size="14" font-weight="bold" textLength="101">bgp_settings</text><text x="226" y="661.334" fill="#D9B8FF" font-family="sans-serif" font-size="14" textLength="145">: azure_bgp_settings</text><text x="125" y="687.631" fill="#D9B8FF" font-family="sans-serif" font-size="14" font-weight="bold" textLength="36">fqdn</text><text x="161" y="687.631" fill="#D9B8FF" font-family="sans-serif" font-size="14" textLength="48">: string</text><text x="125" y="713.928" fill="#D9B8FF" font-family="sans-serif" font-size="14" font-weight="bold" textLength="159">gateway_ip_address</text><text x="284" y="713.928" fill="#D9B8FF" font-family="sans-serif" font-size="14" textLength="48">: string</text><text x="125" y="740.225" fill="#D9B8FF" font-family="sans-serif" font-size="14" font-weight="bold" textLength="234">local_network_address_space</text><text x="359" y="740.225" fill="#D9B8FF" font-family="sans-serif" font-size="14" textLength="160">: azure_address_space</text><text x="125" y="766.522" fill="#D9B8FF" font-family="sans-serif" font-size="14" font-weight="bold" textLength="62">location</text><text x="187" y="766.522" fill="#D9B8FF" font-family="sans-serif" font-size="14" textLength="48">: string</text><text x="125" y="792.819" fill="#D9B8FF" font-family="sans-serif" font-size="14" font-weight="bold" textLength="113">resource_guid</text><text x="238" y="792.819" fill="#D9B8FF" font-family="sans-serif" font-size="14" textLength="48">: string</text><text x="125" y="819.115" fill="#D9B8FF" font-family="sans-serif" font-size="14" font-weight="bold" textLength="35">type</text><text x="160" y="819.115" fill="#D9B8FF" font-family="sans-serif" font-size="14" textLength="48">: string</text><rect width="114" height="39.789" x="170" y="438.76" fill="#3D176E" rx="2.5" ry="2.5" style="stroke:#000d19;stroke-width:.5"/><circle cx="185" cy="458.654" r="11" fill="#ADD1B2" style="stroke:#181818;stroke-width:1"/><path d="M187.969 464.295q-.578.297-1.219.438-.64.156-1.344.156-2.5 0-3.828-1.64-1.312-1.657-1.312-4.782t1.312-4.781q1.328-1.656 3.828-1.656.703 0 1.344.156.656.156 1.219.453v2.719q-.625-.579-1.219-.844-.594-.281-1.219-.281-1.344 0-2.031 1.078-.687 1.062-.687 3.156t.687 3.172q.688 1.062 2.031 1.062.625 0 1.219-.265.594-.281 1.219-.86z"/><text x="204" y="464.54" fill="#D9B8FF" font-family="Helvetica" font-size="17" textLength="72">gateway</text><rect width="200" height="39.789" x="319" y="438.76" fill="#3D176E" rx="2.5" ry="2.5" style="stroke:#000d19;stroke-width:.5"/><circle cx="334" cy="458.654" r="11" fill="#ADD1B2" style="stroke:#181818;stroke-width:1"/><path d="M336.969 464.295q-.578.297-1.219.438-.64.156-1.344.156-2.5 0-3.828-1.64-1.312-1.657-1.312-4.782t1.312-4.781q1.328-1.656 3.828-1.656.703 0 1.344.156.656.156 1.219.453v2.719q-.625-.579-1.219-.844-.594-.281-1.219-.281-1.344 0-2.031 1.078-.687 1.062-.687 3.156t.687 3.172q.688 1.062 2.031 1.062.625 0 1.219-.265.594-.281 1.219-.86z"/><text x="353" y="464.54" fill="#D9B8FF" font-family="Helvetica" font-size="17" textLength="158">microsoft_resource</text><rect width="227" height="310.758" x="208.5" y="7" fill="#3D176E" rx="2.5" ry="2.5" style="stroke:#000d19;stroke-width:.5"/><circle cx="277.25" cy="26.895" r="11" fill="#ADD1B2" style="stroke:#181818;stroke-width:1"/><path d="M280.219 32.535q-.578.297-1.219.438-.64.156-1.344.156-2.5 0-3.828-1.64-1.312-1.657-1.312-4.782t1.312-4.781q1.328-1.656 3.828-1.656.703 0 1.344.156.656.156 1.219.453v2.719q-.625-.578-1.219-.844-.594-.281-1.219-.281-1.344 0-2.031 1.078-.687 1.062-.687 3.156t.687 3.172q.688 1.062 2.031 1.062.625 0 1.219-.265.594-.281 1.219-.86z"/><text x="302.75" y="32.78" fill="#D9B8FF" font-family="Helvetica" font-size="17" textLength="71">resource</text><path d="M209.5 46.789h225" style="stroke:#000d19;stroke-width:.5"/><text x="219.5" y="68.784" fill="#D9B8FF" font-family="sans-serif" font-size="14" font-weight="bold" textLength="29">age</text><text x="248.5" y="68.784" fill="#D9B8FF" font-family="sans-serif" font-size="14" textLength="66">: duration</text><text x="219.5" y="95.081" fill="#D9B8FF" font-family="sans-serif" font-size="14" font-weight="bold" textLength="43">atime</text><text x="262.5" y="95.081" fill="#D9B8FF" font-family="sans-serif" font-size="14" textLength="70">: datetime</text><text x="219.5" y="121.378" fill="#D9B8FF" font-family="sans-serif" font-size="14" font-weight="bold" textLength="43">ctime</text><text x="262.5" y="121.378" fill="#D9B8FF" font-family="sans-serif" font-size="14" textLength="70">: datetime</text><text x="219.5" y="147.675" fill="#D9B8FF" font-family="sans-serif" font-size="14" font-weight="bold" textLength="14">id</text><text x="233.5" y="147.675" fill="#D9B8FF" font-family="sans-serif" font-size="14" textLength="48">: string</text><text x="219.5" y="173.972" fill="#D9B8FF" font-family="sans-serif" font-size="14" font-weight="bold" textLength="33">kind</text><text x="252.5" y="173.972" fill="#D9B8FF" font-family="sans-serif" font-size="14" textLength="48">: string</text><text x="219.5" y="200.269" fill="#D9B8FF" font-family="sans-serif" font-size="14" font-weight="bold" textLength="90">last_access</text><text x="309.5" y="200.269" fill="#D9B8FF" font-family="sans-serif" font-size="14" textLength="66">: duration</text><text x="219.5" y="226.565" fill="#D9B8FF" font-family="sans-serif" font-size="14" font-weight="bold" textLength="90">last_update</text><text x="309.5" y="226.565" fill="#D9B8FF" font-family="sans-serif" font-size="14" textLength="66">: duration</text><text x="219.5" y="252.862" fill="#D9B8FF" font-family="sans-serif" font-size="14" font-weight="bold" textLength="48">mtime</text><text x="267.5" y="252.862" fill="#D9B8FF" font-family="sans-serif" font-size="14" textLength="70">: datetime</text><text x="219.5" y="279.159" fill="#D9B8FF" font-family="sans-serif" font-size="14" font-weight="bold" textLength="43">name</text><text x="262.5" y="279.159" fill="#D9B8FF" font-family="sans-serif" font-size="14" textLength="48">: string</text><text x="219.5" y="305.456" fill="#D9B8FF" font-family="sans-serif" font-size="14" font-weight="bold" textLength="34">tags</text><text x="253.5" y="305.456" fill="#D9B8FF" font-family="sans-serif" font-size="14" textLength="171">: dictionary[string, string]</text><path fill="none" d="M529 1044.77v53.21" style="stroke:#ffaf37;stroke-width:2"/><path fill="#FFAF37" d="m529 1103.98 4-9-4 4-4-4z" style="stroke:#ffaf37;stroke-width:2"/><path fill="none" d="M226.68 831.8c-29.5 35.68-56.067 67.826-77.687 93.976" style="stroke:#ffaf37;stroke-width:2"/><path fill="#FFAF37" d="m145.17 930.4 8.818-4.388-5.632.535-.534-5.632z" style="stroke:#ffaf37;stroke-width:2"/><path fill="none" d="M417.32 831.8c16.66 20.15 29.777 36.025 45.267 54.765" style="stroke:#ffaf37;stroke-width:2"/><path fill="#FFAF37" d="m466.41 891.19-2.65-9.485-.536 5.631-5.631-.535z" style="stroke:#ffaf37;stroke-width:2"/><g fill="none"><path d="M240.43 495.675c9.67 25.93 21.4 57.415 38.62 103.605" style="stroke:#ffaf37;stroke-width:2"/><path d="m234.14 478.81.668 18.962 11.243-4.193z" style="stroke:#ffaf37;stroke-width:2"/></g><path fill="none" d="M405.307 495.633c-9.87 25.93-21.867 57.457-39.457 103.647m45.86-120.47-12.01 14.688 11.214 4.269zm-145.1-143.84c-15.59 48.29-25.31 78.4-33.48 103.7m39.01-120.83-11.24 15.286 11.42 3.687zm106.406 17.095c15.92 48.29 25.854 78.435 34.194 103.735m-39.83-120.83-.062 18.974 11.396-3.758z" style="stroke:#ffaf37;stroke-width:2"/></svg>