<?xml version="1.0" encoding="us-ascii" standalone="no"?><svg xmlns="http://www.w3.org/2000/svg" xmlns:xlink="http://www.w3.org/1999/xlink" contentStyleType="text/css" height="1372px" preserveAspectRatio="none" style="width:842px;height:1372px;" version="1.1" viewBox="0 0 842 1372" width="842px" zoomAndPan="magnify"><defs/><g><!--class ai_model--><g id="elem_ai_model"><rect codeLine="23" fill="#3D176E" height="39.7891" id="ai_model" rx="2.5" ry="2.5" style="stroke:#000D19;stroke-width:0.5;" width="118" x="678" y="829.27"/><ellipse cx="693" cy="849.1645" fill="#ADD1B2" rx="11" ry="11" style="stroke:#181818;stroke-width:1.0;"/><path d="M695.9688,854.8052 Q695.3906,855.102 694.75,855.2427 Q694.1094,855.3989 693.4063,855.3989 Q690.9063,855.3989 689.5781,853.7583 Q688.2656,852.102 688.2656,848.977 Q688.2656,845.852 689.5781,844.1958 Q690.9063,842.5395 693.4063,842.5395 Q694.1094,842.5395 694.75,842.6958 Q695.4063,842.852 695.9688,843.1489 L695.9688,845.8677 Q695.3438,845.2895 694.75,845.0239 Q694.1563,844.7427 693.5313,844.7427 Q692.1875,844.7427 691.5,845.8208 Q690.8125,846.8833 690.8125,848.977 Q690.8125,851.0708 691.5,852.1489 Q692.1875,853.2114 693.5313,853.2114 Q694.1563,853.2114 694.75,852.9458 Q695.3438,852.6645 695.9688,852.0864 L695.9688,854.8052 Z " fill="#000000"/><text fill="#D9B8FF" font-family="Helvetica" font-size="17" lengthAdjust="spacing" textLength="76" x="712" y="855.0498">ai_model</text></g><!--class ai_resource--><g id="elem_ai_resource"><rect codeLine="26" fill="#3D176E" height="39.7891" id="ai_resource" rx="2.5" ry="2.5" style="stroke:#000D19;stroke-width:0.5;" width="137" x="670.5" y="469.06"/><ellipse cx="685.5" cy="488.9545" fill="#ADD1B2" rx="11" ry="11" style="stroke:#181818;stroke-width:1.0;"/><path d="M688.4688,494.5952 Q687.8906,494.892 687.25,495.0327 Q686.6094,495.1889 685.9063,495.1889 Q683.4063,495.1889 682.0781,493.5483 Q680.7656,491.892 680.7656,488.767 Q680.7656,485.642 682.0781,483.9858 Q683.4063,482.3295 685.9063,482.3295 Q686.6094,482.3295 687.25,482.4858 Q687.9063,482.642 688.4688,482.9389 L688.4688,485.6577 Q687.8438,485.0795 687.25,484.8139 Q686.6563,484.5327 686.0313,484.5327 Q684.6875,484.5327 684,485.6108 Q683.3125,486.6733 683.3125,488.767 Q683.3125,490.8608 684,491.9389 Q684.6875,493.0014 686.0313,493.0014 Q686.6563,493.0014 687.25,492.7358 Q687.8438,492.4545 688.4688,491.8764 L688.4688,494.5952 Z " fill="#000000"/><text fill="#D9B8FF" font-family="Helvetica" font-size="17" lengthAdjust="spacing" textLength="95" x="704.5" y="494.8398">ai_resource</text></g><!--class azure_machine_learning_model_container_base--><g id="elem_azure_machine_learning_model_container_base"><rect codeLine="29" fill="#3D176E" height="179.2734" id="azure_machine_learning_model_container_base" rx="2.5" ry="2.5" style="stroke:#000D19;stroke-width:0.5;" width="443" x="104.5" y="759.53"/><ellipse cx="119.5" cy="779.4245" fill="#ADD1B2" rx="11" ry="11" style="stroke:#181818;stroke-width:1.0;"/><path d="M122.4688,785.0652 Q121.8906,785.362 121.25,785.5027 Q120.6094,785.6589 119.9063,785.6589 Q117.4063,785.6589 116.0781,784.0183 Q114.7656,782.362 114.7656,779.237 Q114.7656,776.112 116.0781,774.4558 Q117.4063,772.7995 119.9063,772.7995 Q120.6094,772.7995 121.25,772.9558 Q121.9063,773.112 122.4688,773.4089 L122.4688,776.1277 Q121.8438,775.5495 121.25,775.2839 Q120.6563,775.0027 120.0313,775.0027 Q118.6875,775.0027 118,776.0808 Q117.3125,777.1433 117.3125,779.237 Q117.3125,781.3308 118,782.4089 Q118.6875,783.4714 120.0313,783.4714 Q120.6563,783.4714 121.25,783.2058 Q121.8438,782.9245 122.4688,782.3464 L122.4688,785.0652 Z " fill="#000000"/><text fill="#D9B8FF" font-family="Helvetica" font-size="17" lengthAdjust="spacing" textLength="401" x="138.5" y="785.3098">azure_machine_learning_model_container_base</text><line style="stroke:#000D19;stroke-width:0.5;" x1="105.5" x2="546.5" y1="799.3191" y2="799.3191"/><text fill="#D9B8FF" font-family="sans-serif" font-size="14" font-weight="bold" lengthAdjust="spacing" textLength="89" x="115.5" y="821.3142">description</text><text fill="#D9B8FF" font-family="sans-serif" font-size="14" lengthAdjust="spacing" textLength="48" x="204.5" y="821.3142">: string</text><text fill="#D9B8FF" font-family="sans-serif" font-size="14" font-weight="bold" lengthAdjust="spacing" textLength="88" x="115.5" y="847.6111">is_archived</text><text fill="#D9B8FF" font-family="sans-serif" font-size="14" lengthAdjust="spacing" textLength="65" x="203.5" y="847.6111">: boolean</text><text fill="#D9B8FF" font-family="sans-serif" font-size="14" font-weight="bold" lengthAdjust="spacing" textLength="110" x="115.5" y="873.9079">latest_version</text><text fill="#D9B8FF" font-family="sans-serif" font-size="14" lengthAdjust="spacing" textLength="48" x="225.5" y="873.9079">: string</text><text fill="#D9B8FF" font-family="sans-serif" font-size="14" font-weight="bold" lengthAdjust="spacing" textLength="101" x="115.5" y="900.2048">next_version</text><text fill="#D9B8FF" font-family="sans-serif" font-size="14" lengthAdjust="spacing" textLength="48" x="216.5" y="900.2048">: string</text><text fill="#D9B8FF" font-family="sans-serif" font-size="14" font-weight="bold" lengthAdjust="spacing" textLength="83" x="115.5" y="926.5017">properties</text><text fill="#D9B8FF" font-family="sans-serif" font-size="14" lengthAdjust="spacing" textLength="156" x="198.5" y="926.5017">: dictionary[string, any]</text></g><!--class azure_machine_learning_registry_model_container--><g id="elem_azure_machine_learning_registry_model_container"><rect codeLine="36" fill="#3D176E" height="39.7891" id="azure_machine_learning_registry_model_container" rx="2.5" ry="2.5" style="stroke:#000D19;stroke-width:0.5;" width="469" x="366.5" y="1059.8"/><ellipse cx="381.5" cy="1079.6945" fill="#ADD1B2" rx="11" ry="11" style="stroke:#181818;stroke-width:1.0;"/><path d="M384.4688,1085.3352 Q383.8906,1085.632 383.25,1085.7727 Q382.6094,1085.9289 381.9063,1085.9289 Q379.4063,1085.9289 378.0781,1084.2883 Q376.7656,1082.632 376.7656,1079.507 Q376.7656,1076.382 378.0781,1074.7258 Q379.4063,1073.0695 381.9063,1073.0695 Q382.6094,1073.0695 383.25,1073.2258 Q383.9063,1073.382 384.4688,1073.6789 L384.4688,1076.3977 Q383.8438,1075.8195 383.25,1075.5539 Q382.6563,1075.2727 382.0313,1075.2727 Q380.6875,1075.2727 380,1076.3508 Q379.3125,1077.4133 379.3125,1079.507 Q379.3125,1081.6008 380,1082.6789 Q380.6875,1083.7414 382.0313,1083.7414 Q382.6563,1083.7414 383.25,1083.4758 Q383.8438,1083.1945 384.4688,1082.6164 L384.4688,1085.3352 Z " fill="#000000"/><text fill="#D9B8FF" font-family="Helvetica" font-size="17" lengthAdjust="spacing" textLength="427" x="400.5" y="1085.5798">azure_machine_learning_registry_model_container</text></g><!--class azure_proxy_resource--><g id="elem_azure_proxy_resource"><rect codeLine="39" fill="#3D176E" height="100.3828" id="azure_proxy_resource" rx="2.5" ry="2.5" style="stroke:#000D19;stroke-width:0.5;" width="262" x="7" y="438.76"/><ellipse cx="39.1" cy="458.6545" fill="#ADD1B2" rx="11" ry="11" style="stroke:#181818;stroke-width:1.0;"/><path d="M42.0688,464.2952 Q41.4906,464.592 40.85,464.7327 Q40.2094,464.8889 39.5063,464.8889 Q37.0063,464.8889 35.6781,463.2483 Q34.3656,461.592 34.3656,458.467 Q34.3656,455.342 35.6781,453.6858 Q37.0063,452.0295 39.5063,452.0295 Q40.2094,452.0295 40.85,452.1858 Q41.5063,452.342 42.0688,452.6389 L42.0688,455.3577 Q41.4438,454.7795 40.85,454.5139 Q40.2563,454.2327 39.6313,454.2327 Q38.2875,454.2327 37.6,455.3108 Q36.9125,456.3733 36.9125,458.467 Q36.9125,460.5608 37.6,461.6389 Q38.2875,462.7014 39.6313,462.7014 Q40.2563,462.7014 40.85,462.4358 Q41.4438,462.1545 42.0688,461.5764 L42.0688,464.2952 Z " fill="#000000"/><text fill="#D9B8FF" font-family="Helvetica" font-size="17" lengthAdjust="spacing" textLength="182" x="61.9" y="464.5398">azure_proxy_resource</text><line style="stroke:#000D19;stroke-width:0.5;" x1="8" x2="268" y1="478.5491" y2="478.5491"/><text fill="#D9B8FF" font-family="sans-serif" font-size="14" font-weight="bold" lengthAdjust="spacing" textLength="98" x="18" y="500.5442">system_data</text><text fill="#D9B8FF" font-family="sans-serif" font-size="14" lengthAdjust="spacing" textLength="142" x="116" y="500.5442">: azure_system_data</text><text fill="#D9B8FF" font-family="sans-serif" font-size="14" font-weight="bold" lengthAdjust="spacing" textLength="35" x="18" y="526.8411">type</text><text fill="#D9B8FF" font-family="sans-serif" font-size="14" lengthAdjust="spacing" textLength="48" x="53" y="526.8411">: string</text></g><!--class azure_system_data--><g id="elem_azure_system_data"><rect codeLine="43" fill="#3D176E" height="205.5703" id="azure_system_data" rx="2.5" ry="2.5" style="stroke:#000D19;stroke-width:0.5;" width="241" x="192.5" y="1159.59"/><ellipse cx="224.6" cy="1179.4845" fill="#ADD1B2" rx="11" ry="11" style="stroke:#181818;stroke-width:1.0;"/><path d="M227.5688,1185.1252 Q226.9906,1185.422 226.35,1185.5627 Q225.7094,1185.7189 225.0063,1185.7189 Q222.5063,1185.7189 221.1781,1184.0783 Q219.8656,1182.422 219.8656,1179.297 Q219.8656,1176.172 221.1781,1174.5158 Q222.5063,1172.8595 225.0063,1172.8595 Q225.7094,1172.8595 226.35,1173.0158 Q227.0063,1173.172 227.5688,1173.4689 L227.5688,1176.1877 Q226.9438,1175.6095 226.35,1175.3439 Q225.7563,1175.0627 225.1313,1175.0627 Q223.7875,1175.0627 223.1,1176.1408 Q222.4125,1177.2033 222.4125,1179.297 Q222.4125,1181.3908 223.1,1182.4689 Q223.7875,1183.5314 225.1313,1183.5314 Q225.7563,1183.5314 226.35,1183.2658 Q226.9438,1182.9845 227.5688,1182.4064 L227.5688,1185.1252 Z " fill="#000000"/><text fill="#D9B8FF" font-family="Helvetica" font-size="17" lengthAdjust="spacing" textLength="161" x="247.4" y="1185.3698">azure_system_data</text><line style="stroke:#000D19;stroke-width:0.5;" x1="193.5" x2="432.5" y1="1199.3791" y2="1199.3791"/><text fill="#D9B8FF" font-family="sans-serif" font-size="14" font-weight="bold" lengthAdjust="spacing" textLength="83" x="203.5" y="1221.3742">created_at</text><text fill="#D9B8FF" font-family="sans-serif" font-size="14" lengthAdjust="spacing" textLength="70" x="286.5" y="1221.3742">: datetime</text><text fill="#D9B8FF" font-family="sans-serif" font-size="14" font-weight="bold" lengthAdjust="spacing" textLength="87" x="203.5" y="1247.6711">created_by</text><text fill="#D9B8FF" font-family="sans-serif" font-size="14" lengthAdjust="spacing" textLength="48" x="290.5" y="1247.6711">: string</text><text fill="#D9B8FF" font-family="sans-serif" font-size="14" font-weight="bold" lengthAdjust="spacing" textLength="129" x="203.5" y="1273.9679">created_by_type</text><text fill="#D9B8FF" font-family="sans-serif" font-size="14" lengthAdjust="spacing" textLength="48" x="332.5" y="1273.9679">: string</text><text fill="#D9B8FF" font-family="sans-serif" font-size="14" font-weight="bold" lengthAdjust="spacing" textLength="125" x="203.5" y="1300.2648">last_modified_at</text><text fill="#D9B8FF" font-family="sans-serif" font-size="14" lengthAdjust="spacing" textLength="70" x="328.5" y="1300.2648">: datetime</text><text fill="#D9B8FF" font-family="sans-serif" font-size="14" font-weight="bold" lengthAdjust="spacing" textLength="129" x="203.5" y="1326.5617">last_modified_by</text><text fill="#D9B8FF" font-family="sans-serif" font-size="14" lengthAdjust="spacing" textLength="48" x="332.5" y="1326.5617">: string</text><text fill="#D9B8FF" font-family="sans-serif" font-size="14" font-weight="bold" lengthAdjust="spacing" textLength="171" x="203.5" y="1352.8586">last_modified_by_type</text><text fill="#D9B8FF" font-family="sans-serif" font-size="14" lengthAdjust="spacing" textLength="48" x="374.5" y="1352.8586">: string</text></g><!--class microsoft_resource--><g id="elem_microsoft_resource"><rect codeLine="51" fill="#3D176E" height="100.3828" id="microsoft_resource" rx="2.5" ry="2.5" style="stroke:#000D19;stroke-width:0.5;" width="214" x="482" y="599.14"/><ellipse cx="503.3" cy="619.0345" fill="#ADD1B2" rx="11" ry="11" style="stroke:#181818;stroke-width:1.0;"/><path d="M506.2688,624.6752 Q505.6906,624.972 505.05,625.1127 Q504.4094,625.2689 503.7063,625.2689 Q501.2063,625.2689 499.8781,623.6283 Q498.5656,621.972 498.5656,618.847 Q498.5656,615.722 499.8781,614.0658 Q501.2063,612.4095 503.7063,612.4095 Q504.4094,612.4095 505.05,612.5658 Q505.7063,612.722 506.2688,613.0189 L506.2688,615.7377 Q505.6438,615.1595 505.05,614.8939 Q504.4563,614.6127 503.8313,614.6127 Q502.4875,614.6127 501.8,615.6908 Q501.1125,616.7533 501.1125,618.847 Q501.1125,620.9408 501.8,622.0189 Q502.4875,623.0814 503.8313,623.0814 Q504.4563,623.0814 505.05,622.8158 Q505.6438,622.5345 506.2688,621.9564 L506.2688,624.6752 Z " fill="#000000"/><text fill="#D9B8FF" font-family="Helvetica" font-size="17" lengthAdjust="spacing" textLength="158" x="523.7" y="624.9198">microsoft_resource</text><line style="stroke:#000D19;stroke-width:0.5;" x1="483" x2="695" y1="638.9291" y2="638.9291"/><text fill="#D9B8FF" font-family="sans-serif" font-size="14" font-weight="bold" lengthAdjust="spacing" textLength="35" x="493" y="660.9242">etag</text><text fill="#D9B8FF" font-family="sans-serif" font-size="14" lengthAdjust="spacing" textLength="48" x="528" y="660.9242">: string</text><text fill="#D9B8FF" font-family="sans-serif" font-size="14" font-weight="bold" lengthAdjust="spacing" textLength="144" x="493" y="687.2211">provisioning_state</text><text fill="#D9B8FF" font-family="sans-serif" font-size="14" lengthAdjust="spacing" textLength="48" x="637" y="687.2211">: string</text></g><!--class resource--><g id="elem_resource"><rect codeLine="55" fill="#3D176E" height="310.7578" id="resource" rx="2.5" ry="2.5" style="stroke:#000D19;stroke-width:0.5;" width="227" x="519.5" y="7"/><ellipse cx="588.25" cy="26.8945" fill="#ADD1B2" rx="11" ry="11" style="stroke:#181818;stroke-width:1.0;"/><path d="M591.2188,32.5352 Q590.6406,32.832 590,32.9727 Q589.3594,33.1289 588.6563,33.1289 Q586.1563,33.1289 584.8281,31.4883 Q583.5156,29.832 583.5156,26.707 Q583.5156,23.582 584.8281,21.9258 Q586.1563,20.2695 588.6563,20.2695 Q589.3594,20.2695 590,20.4258 Q590.6563,20.582 591.2188,20.8789 L591.2188,23.5977 Q590.5938,23.0195 590,22.7539 Q589.4063,22.4727 588.7813,22.4727 Q587.4375,22.4727 586.75,23.5508 Q586.0625,24.6133 586.0625,26.707 Q586.0625,28.8008 586.75,29.8789 Q587.4375,30.9414 588.7813,30.9414 Q589.4063,30.9414 590,30.6758 Q590.5938,30.3945 591.2188,29.8164 L591.2188,32.5352 Z " fill="#000000"/><text fill="#D9B8FF" font-family="Helvetica" font-size="17" lengthAdjust="spacing" textLength="71" x="613.75" y="32.7798">resource</text><line style="stroke:#000D19;stroke-width:0.5;" x1="520.5" x2="745.5" y1="46.7891" y2="46.7891"/><text fill="#D9B8FF" font-family="sans-serif" font-size="14" font-weight="bold" lengthAdjust="spacing" textLength="29" x="530.5" y="68.7842">age</text><text fill="#D9B8FF" font-family="sans-serif" font-size="14" lengthAdjust="spacing" textLength="66" x="559.5" y="68.7842">: duration</text><text fill="#D9B8FF" font-family="sans-serif" font-size="14" font-weight="bold" lengthAdjust="spacing" textLength="43" x="530.5" y="95.0811">atime</text><text fill="#D9B8FF" font-family="sans-serif" font-size="14" lengthAdjust="spacing" textLength="70" x="573.5" y="95.0811">: datetime</text><text fill="#D9B8FF" font-family="sans-serif" font-size="14" font-weight="bold" lengthAdjust="spacing" textLength="43" x="530.5" y="121.3779">ctime</text><text fill="#D9B8FF" font-family="sans-serif" font-size="14" lengthAdjust="spacing" textLength="70" x="573.5" y="121.3779">: datetime</text><text fill="#D9B8FF" font-family="sans-serif" font-size="14" font-weight="bold" lengthAdjust="spacing" textLength="14" x="530.5" y="147.6748">id</text><text fill="#D9B8FF" font-family="sans-serif" font-size="14" lengthAdjust="spacing" textLength="48" x="544.5" y="147.6748">: string</text><text fill="#D9B8FF" font-family="sans-serif" font-size="14" font-weight="bold" lengthAdjust="spacing" textLength="33" x="530.5" y="173.9717">kind</text><text fill="#D9B8FF" font-family="sans-serif" font-size="14" lengthAdjust="spacing" textLength="48" x="563.5" y="173.9717">: string</text><text fill="#D9B8FF" font-family="sans-serif" font-size="14" font-weight="bold" lengthAdjust="spacing" textLength="90" x="530.5" y="200.2686">last_access</text><text fill="#D9B8FF" font-family="sans-serif" font-size="14" lengthAdjust="spacing" textLength="66" x="620.5" y="200.2686">: duration</text><text fill="#D9B8FF" font-family="sans-serif" font-size="14" font-weight="bold" lengthAdjust="spacing" textLength="90" x="530.5" y="226.5654">last_update</text><text fill="#D9B8FF" font-family="sans-serif" font-size="14" lengthAdjust="spacing" textLength="66" x="620.5" y="226.5654">: duration</text><text fill="#D9B8FF" font-family="sans-serif" font-size="14" font-weight="bold" lengthAdjust="spacing" textLength="48" x="530.5" y="252.8623">mtime</text><text fill="#D9B8FF" font-family="sans-serif" font-size="14" lengthAdjust="spacing" textLength="70" x="578.5" y="252.8623">: datetime</text><text fill="#D9B8FF" font-family="sans-serif" font-size="14" font-weight="bold" lengthAdjust="spacing" textLength="43" x="530.5" y="279.1592">name</text><text fill="#D9B8FF" font-family="sans-serif" font-size="14" lengthAdjust="spacing" textLength="48" x="573.5" y="279.1592">: string</text><text fill="#D9B8FF" font-family="sans-serif" font-size="14" font-weight="bold" lengthAdjust="spacing" textLength="34" x="530.5" y="305.4561">tags</text><text fill="#D9B8FF" font-family="sans-serif" font-size="14" lengthAdjust="spacing" textLength="171" x="564.5" y="305.4561">: dictionary[string, string]</text></g><!--reverse link ai_resource to ai_model--><g id="link_ai_resource_ai_model"><path codeLine="67" d="M738.7916,527.2097 C738.4516,589.4097 737.46,766.48 737.11,828.81 " fill="none" id="ai_resource-backto-ai_model" style="stroke:#FFAF37;stroke-width:2.0;"/><polygon fill="none" points="738.89,509.21,732.7917,527.1769,744.7915,527.2425,738.89,509.21" style="stroke:#FFAF37;stroke-width:2.0;"/></g><!--reverse link resource to ai_resource--><g id="link_resource_ai_resource"><path codeLine="68" d="M689.1063,335.1712 C708.6163,394.9312 723,438.96 732.8,468.97 " fill="none" id="resource-backto-ai_resource" style="stroke:#FFAF37;stroke-width:2.0;"/><polygon fill="none" points="683.52,318.06,683.4026,337.0333,694.8101,333.3091,683.52,318.06" style="stroke:#FFAF37;stroke-width:2.0;"/></g><!--reverse link azure_proxy_resource to azure_machine_learning_model_container_base--><g id="link_azure_proxy_resource_azure_machine_learning_model_container_base"><path codeLine="69" d="M172.3058,555.3178 C202.0258,611.9378 242.93,689.88 279.36,759.29 " fill="none" id="azure_proxy_resource-backto-azure_machine_learning_model_container_base" style="stroke:#FFAF37;stroke-width:2.0;"/><polygon fill="none" points="163.94,539.38,166.9932,558.1064,177.6184,552.5292,163.94,539.38" style="stroke:#FFAF37;stroke-width:2.0;"/></g><!--link azure_machine_learning_model_container_base to azure_system_data--><g id="link_azure_machine_learning_model_container_base_azure_system_data"><path codeLine="70" d="M323.19,939.14 C321.14,1003.84 318.5599,1085.583 316.4199,1153.173 " fill="none" id="azure_machine_learning_model_container_base-to-azure_system_data" style="stroke:#FFAF37;stroke-width:2.0;"/><polygon fill="#FFAF37" points="316.23,1159.17,320.5128,1150.3011,316.3882,1154.1725,312.5168,1150.0479,316.23,1159.17" style="stroke:#FFAF37;stroke-width:2.0;"/></g><!--reverse link ai_model to azure_machine_learning_registry_model_container--><g id="link_ai_model_azure_machine_learning_registry_model_container"><path codeLine="71" d="M716.4336,884.7275 C690.8336,927.7375 638.08,1016.38 612.42,1059.5 " fill="none" id="ai_model-backto-azure_machine_learning_registry_model_container" style="stroke:#FFAF37;stroke-width:2.0;"/><polygon fill="none" points="725.64,869.26,711.2778,881.6587,721.5894,887.7963,725.64,869.26" style="stroke:#FFAF37;stroke-width:2.0;"/></g><!--reverse link azure_machine_learning_model_container_base to azure_machine_learning_registry_model_container--><g id="link_azure_machine_learning_model_container_base_azure_machine_learning_registry_model_container"><path codeLine="72" d="M446.9529,950.6754 C500.1929,994.9254 545.98,1032.97 577.88,1059.49 " fill="none" id="azure_machine_learning_model_container_base-backto-azure_machine_learning_registry_model_container" style="stroke:#FFAF37;stroke-width:2.0;"/><polygon fill="none" points="433.11,939.17,443.1178,955.2897,450.788,946.0611,433.11,939.17" style="stroke:#FFAF37;stroke-width:2.0;"/></g><!--link azure_machine_learning_registry_model_container to azure_system_data--><g id="link_azure_machine_learning_registry_model_container_azure_system_data"><path codeLine="73" d="M570.18,1100.03 C537.46,1120.56 488.7524,1151.1111 438.8024,1182.4511 " fill="none" id="azure_machine_learning_registry_model_container-to-azure_system_data" style="stroke:#FFAF37;stroke-width:2.0;"/><polygon fill="#FFAF37" points="433.72,1185.64,443.4696,1184.245,437.9554,1182.9826,439.2177,1177.4684,433.72,1185.64" style="stroke:#FFAF37;stroke-width:2.0;"/></g><!--reverse link microsoft_resource to azure_machine_learning_registry_model_container--><g id="link_microsoft_resource_azure_machine_learning_registry_model_container"><path codeLine="74" d="M590.8928,717.883 C593.5328,812.363 598.7,996.47 600.46,1059.51 " fill="none" id="microsoft_resource-backto-azure_machine_learning_registry_model_container" style="stroke:#FFAF37;stroke-width:2.0;"/><polygon fill="none" points="590.39,699.89,584.8951,718.0506,596.8904,717.7154,590.39,699.89" style="stroke:#FFAF37;stroke-width:2.0;"/></g><!--link azure_proxy_resource to azure_system_data--><g id="link_azure_proxy_resource_azure_system_data"><path codeLine="75" d="M118.04,539.45 C92.36,607.73 51,735.21 51,848.16 C51,848.16 51,848.16 51,999.8 C51,1086.41 118.5659,1151.04 187.3259,1195.93 " fill="none" id="azure_proxy_resource-to-azure_system_data" style="stroke:#FFAF37;stroke-width:2.0;"/><polygon fill="#FFAF37" points="192.35,1199.21,187.0005,1190.9406,188.1632,1196.4767,182.6272,1197.6394,192.35,1199.21" style="stroke:#FFAF37;stroke-width:2.0;"/></g><!--reverse link resource to microsoft_resource--><g id="link_resource_microsoft_resource"><path codeLine="76" d="M617.333,336.0863 C608.553,432.8263 599.45,533.17 593.51,598.67 " fill="none" id="resource-backto-microsoft_resource" style="stroke:#FFAF37;stroke-width:2.0;"/><polygon fill="none" points="618.96,318.16,611.3576,335.544,623.3085,336.6286,618.96,318.16" style="stroke:#FFAF37;stroke-width:2.0;"/></g><!--SRC=[hLJHQjim57ttLnZw5XP8LhOqPGowmDXUobZtDeQvbguJ4KioLt9QTzk_JuhJL9RjP6LxIZZtw9vpZtIz4HnJb9LjKeaoHpA9sGfL0O5CRuZq_KgNcjABee3YSX4NFsfbpn9kGMBw2SiTMi4WPdpR2BPLQ4pwEYXz0BPTawuLRzjR0cLS2PKDMAiIZBcnbaHUMmpCy6L-LHGnCsvwSSddYxVOesdYI0VAR3RZysLCEIjrSkuZuquyOZeFGxlL5disUn9xracNdX6Ox0twL1_r-0Ku5sgTlWcmhwqdKaWT_6u3NDzxTW6b2MMCHK9jcmfNlQbmUSMBnI3vynWvOJww54GcDSSo_PaalvynGgDhOjY17sl2J0BR28LPYK3A6MsFPymb00wdB0VZZqqc70qZKLcXrMHoxJoHepjSc0p8DTaXztYkjUkbNA44YyPcExSwyHc53yE5YdI5P0KQ3tF1l1nGyxrbl4f1DJ_EZK2u5exVnBFqftTo3qsOpcHY6fUsp3XOy1PQNW0wYh-8m7MtPK3TzsE4BWUUWTrFvFvR8J4ev4qdWMSuYtHyeYvFDvGen537RZdg6nUpaIcaOAIDBcmt5hImZczg9_pz-SIDTIu6cdLQm7fFuJM1lrMFUEDnB0EOu1rfjnUyFnimvhwLaSA-KbVyO2-eo04T1R8Rk1jwx26sl_ujXllrxjTqEZrkOTB7dv1ay04UQ7-_cSbBjdWwVJ_mde-VZ9FYOplr8WF_LM5qouV777ZN_s8dkhXXpKYfRo7v0m00]--></g></svg>