<svg xmlns="http://www.w3.org/2000/svg" width="940" height="152" viewBox="0 0 940 152"><rect width="469" height="39.789" x="7" y="7" fill="#3D176E" rx="2.5" ry="2.5" style="stroke:#000d19;stroke-width:.5"/><circle cx="22" cy="26.895" r="11" fill="#ADD1B2" style="stroke:#181818;stroke-width:1"/><path d="M24.969 32.535q-.578.297-1.219.438-.64.156-1.344.156-2.5 0-3.828-1.64-1.312-1.657-1.312-4.782t1.312-4.781q1.328-1.656 3.828-1.656.703 0 1.344.156.656.156 1.219.453v2.719q-.625-.578-1.219-.844-.594-.281-1.219-.281-1.343 0-2.031 1.078-.687 1.062-.687 3.156t.687 3.172q.688 1.062 2.031 1.062.625 0 1.219-.265.594-.281 1.219-.86z"/><text x="41" y="32.78" fill="#D9B8FF" font-family="Helvetica" font-size="17" textLength="427">azure_machine_learning_registry_model_container</text><rect width="451" height="39.789" x="256" y="106.79" fill="#3D176E" rx="2.5" ry="2.5" style="stroke:#000d19;stroke-width:.5"/><circle cx="271" cy="126.684" r="11" fill="#ADD1B2" style="stroke:#181818;stroke-width:1"/><path d="M273.969 132.325q-.578.297-1.219.438-.64.156-1.344.156-2.5 0-3.828-1.64-1.312-1.657-1.312-4.782t1.312-4.781q1.328-1.656 3.828-1.656.703 0 1.344.156.656.156 1.219.453v2.719q-.625-.579-1.219-.844-.594-.281-1.219-.281-1.344 0-2.031 1.078-.687 1.062-.687 3.156t.687 3.172q.688 1.062 2.031 1.062.625 0 1.219-.265.594-.281 1.219-.86z"/><text x="290" y="132.57" fill="#D9B8FF" font-family="Helvetica" font-size="17" textLength="409">azure_machine_learning_registry_model_version</text><rect width="422" height="39.789" x="511.5" y="7" fill="#3D176E" rx="2.5" ry="2.5" style="stroke:#000d19;stroke-width:.5"/><circle cx="526.5" cy="26.895" r="11" fill="#ADD1B2" style="stroke:#181818;stroke-width:1"/><path d="M529.469 32.535q-.578.297-1.219.438-.64.156-1.344.156-2.5 0-3.828-1.64-1.312-1.657-1.312-4.782t1.312-4.781q1.328-1.656 3.828-1.656.703 0 1.344.156.656.156 1.219.453v2.719q-.625-.578-1.219-.844-.594-.281-1.219-.281-1.343 0-2.031 1.078-.687 1.062-.687 3.156t.687 3.172q.688 1.062 2.031 1.062.625 0 1.219-.265.594-.281 1.219-.86z"/><text x="545.5" y="32.78" fill="#D9B8FF" font-family="Helvetica" font-size="17" textLength="380">azure_machine_learning_serverless_endpoint</text><path fill="none" d="M288.92 47.22c42.07 17.14 97.664 39.785 139.704 56.925" style="stroke:#1a83af;stroke-width:2"/><path fill="#1A83AF" d="m434.18 106.41-6.824-7.102 2.194 5.214-5.214 2.194z" style="stroke:#1a83af;stroke-width:2"/><path fill="none" d="M674.89 47.22c-42.25 17.14-98.09 39.793-140.32 56.933" style="stroke:#1a83af;stroke-width:2"/><path fill="#1A83AF" d="m529.01 106.41 9.844.322-5.211-2.202 2.202-5.211z" style="stroke:#1a83af;stroke-width:2"/></svg>