<svg xmlns="http://www.w3.org/2000/svg" width="1288" height="352" viewBox="0 0 1288 352"><rect width="142" height="39.789" x="956" y="206.58" fill="#3D176E" rx="2.5" ry="2.5" style="stroke:#000d19;stroke-width:.5"/><circle cx="971" cy="226.475" r="11" fill="#ADD1B2" style="stroke:#181818;stroke-width:1"/><path d="M973.969 232.115q-.578.297-1.219.438-.64.156-1.344.156-2.5 0-3.828-1.64-1.312-1.657-1.312-4.782t1.312-4.781q1.328-1.656 3.828-1.656.703 0 1.344.156.656.156 1.219.453v2.719q-.625-.578-1.219-.844-.594-.281-1.219-.281-1.343 0-2.031 1.078-.687 1.062-.687 3.156t.687 3.172q.688 1.062 2.031 1.062.625 0 1.219-.265.594-.281 1.219-.86z"/><text x="990" y="232.36" fill="#D9B8FF" font-family="Helvetica" font-size="17" textLength="100">gcp_address</text><rect width="237" height="39.789" x="52.5" y="7" fill="#3D176E" rx="2.5" ry="2.5" style="stroke:#000d19;stroke-width:.5"/><circle cx="67.5" cy="26.895" r="11" fill="#ADD1B2" style="stroke:#181818;stroke-width:1"/><path d="M70.469 32.535q-.578.297-1.219.438-.64.156-1.344.156-2.5 0-3.828-1.64-1.312-1.657-1.312-4.782t1.312-4.781q1.328-1.656 3.828-1.656.703 0 1.344.156.656.156 1.219.453v2.719q-.625-.578-1.219-.844-.594-.281-1.219-.281-1.344 0-2.031 1.078-.687 1.062-.687 3.156T66 29.879q.688 1.062 2.031 1.062.625 0 1.219-.265.594-.281 1.219-.86z"/><text x="86.5" y="32.78" fill="#D9B8FF" font-family="Helvetica" font-size="17" textLength="195">gcp_deprecation_status</text><rect width="149" height="39.789" x="1132.5" y="206.58" fill="#3D176E" rx="2.5" ry="2.5" style="stroke:#000d19;stroke-width:.5"/><circle cx="1147.5" cy="226.475" r="11" fill="#ADD1B2" style="stroke:#181818;stroke-width:1"/><path d="M1150.469 232.115q-.578.297-1.219.438-.64.156-1.344.156-2.5 0-3.828-1.64-1.312-1.657-1.312-4.782t1.312-4.781q1.328-1.656 3.828-1.656.703 0 1.344.156.656.156 1.219.453v2.719q-.625-.578-1.219-.844-.594-.281-1.219-.281-1.343 0-2.031 1.078-.687 1.062-.687 3.156t.687 3.172q.688 1.062 2.031 1.062.625 0 1.219-.265.594-.281 1.219-.86z"/><text x="1166.5" y="232.36" fill="#D9B8FF" font-family="Helvetica" font-size="17" textLength="107">gcp_instance</text><rect width="206" height="39.789" x="319" y="206.58" fill="#3D176E" rx="2.5" ry="2.5" style="stroke:#000d19;stroke-width:.5"/><circle cx="334" cy="226.475" r="11" fill="#ADD1B2" style="stroke:#181818;stroke-width:1"/><path d="M336.969 232.115q-.578.297-1.219.438-.64.156-1.344.156-2.5 0-3.828-1.64-1.312-1.657-1.312-4.782t1.312-4.781q1.328-1.656 3.828-1.656.703 0 1.344.156.656.156 1.219.453v2.719q-.625-.578-1.219-.844-.594-.281-1.219-.281-1.344 0-2.031 1.078-.687 1.062-.687 3.156t.687 3.172q.688 1.062 2.031 1.062.625 0 1.219-.265.594-.281 1.219-.86z"/><text x="353" y="232.36" fill="#D9B8FF" font-family="Helvetica" font-size="17" textLength="164">gcp_instance_group</text><rect width="149" height="39.789" x="630.5" y="7" fill="#3D176E" rx="2.5" ry="2.5" style="stroke:#000d19;stroke-width:.5"/><circle cx="645.5" cy="26.895" r="11" fill="#ADD1B2" style="stroke:#181818;stroke-width:1"/><path d="M648.469 32.535q-.578.297-1.219.438-.64.156-1.344.156-2.5 0-3.828-1.64-1.312-1.657-1.312-4.782t1.312-4.781q1.328-1.656 3.828-1.656.703 0 1.344.156.656.156 1.219.453v2.719q-.625-.578-1.219-.844-.594-.281-1.219-.281-1.343 0-2.031 1.078-.687 1.062-.687 3.156t.687 3.172q.688 1.062 2.031 1.062.625 0 1.219-.265.594-.281 1.219-.86z"/><text x="664.5" y="32.78" fill="#D9B8FF" font-family="Helvetica" font-size="17" textLength="107">gcp_network</text><rect width="289" height="39.789" x="560.5" y="206.58" fill="#3D176E" rx="2.5" ry="2.5" style="stroke:#000d19;stroke-width:.5"/><circle cx="575.5" cy="226.475" r="11" fill="#ADD1B2" style="stroke:#181818;stroke-width:1"/><path d="M578.469 232.115q-.578.297-1.219.438-.64.156-1.344.156-2.5 0-3.828-1.64-1.312-1.657-1.312-4.782t1.312-4.781q1.328-1.656 3.828-1.656.703 0 1.344.156.656.156 1.219.453v2.719q-.625-.578-1.219-.844-.594-.281-1.219-.281-1.343 0-2.031 1.078-.687 1.062-.687 3.156t.687 3.172q.688 1.062 2.031 1.062.625 0 1.219-.265.594-.281 1.219-.86z"/><text x="594.5" y="232.36" fill="#D9B8FF" font-family="Helvetica" font-size="17" textLength="247">gcp_network_endpoint_group</text><rect width="222" height="39.789" x="944" y="306.37" fill="#3D176E" rx="2.5" ry="2.5" style="stroke:#000d19;stroke-width:.5"/><circle cx="959" cy="326.264" r="11" fill="#ADD1B2" style="stroke:#181818;stroke-width:1"/><path d="M961.969 331.905q-.578.297-1.219.438-.64.156-1.344.156-2.5 0-3.828-1.64-1.312-1.657-1.312-4.782t1.312-4.781q1.328-1.656 3.828-1.656.703 0 1.344.156.656.156 1.219.453v2.719q-.625-.579-1.219-.844-.594-.281-1.219-.281-1.343 0-2.031 1.078-.687 1.062-.687 3.156t.687 3.172q.688 1.062 2.031 1.062.625 0 1.219-.265.594-.281 1.219-.86z"/><text x="978" y="332.15" fill="#D9B8FF" font-family="Helvetica" font-size="17" textLength="180">gcp_packet_mirroring</text><rect width="244" height="39.789" x="814" y="7" fill="#3D176E" rx="2.5" ry="2.5" style="stroke:#000d19;stroke-width:.5"/><circle cx="829" cy="26.895" r="11" fill="#ADD1B2" style="stroke:#181818;stroke-width:1"/><path d="M831.969 32.535q-.578.297-1.219.438-.64.156-1.344.156-2.5 0-3.828-1.64-1.312-1.657-1.312-4.782t1.312-4.781q1.328-1.656 3.828-1.656.703 0 1.344.156.656.156 1.219.453v2.719q-.625-.578-1.219-.844-.594-.281-1.219-.281-1.343 0-2.031 1.078-.687 1.062-.687 3.156t.687 3.172q.688 1.062 2.031 1.062.625 0 1.219-.265.594-.281 1.219-.86z"/><text x="848" y="32.78" fill="#D9B8FF" font-family="Helvetica" font-size="17" textLength="202">gcp_service_attachment</text><rect width="178" height="39.789" x="814" y="106.79" fill="#3D176E" rx="2.5" ry="2.5" style="stroke:#000d19;stroke-width:.5"/><circle cx="829" cy="126.684" r="11" fill="#ADD1B2" style="stroke:#181818;stroke-width:1"/><path d="M831.969 132.325q-.578.297-1.219.438-.64.156-1.344.156-2.5 0-3.828-1.64-1.312-1.657-1.312-4.782t1.312-4.781q1.328-1.656 3.828-1.656.703 0 1.344.156.656.156 1.219.453v2.719q-.625-.579-1.219-.844-.594-.281-1.219-.281-1.343 0-2.031 1.078-.687 1.062-.687 3.156t.687 3.172q.688 1.062 2.031 1.062.625 0 1.219-.265.594-.281 1.219-.86z"/><text x="848" y="132.57" fill="#D9B8FF" font-family="Helvetica" font-size="17" textLength="136">gcp_subnetwork</text><rect width="271" height="39.789" x="324.5" y="7" fill="#3D176E" rx="2.5" ry="2.5" style="stroke:#000d19;stroke-width:.5"/><circle cx="339.5" cy="26.895" r="11" fill="#ADD1B2" style="stroke:#181818;stroke-width:1"/><path d="M342.469 32.535q-.578.297-1.219.438-.64.156-1.344.156-2.5 0-3.828-1.64-1.312-1.657-1.312-4.782t1.312-4.781q1.328-1.656 3.828-1.656.703 0 1.344.156.656.156 1.219.453v2.719q-.625-.578-1.219-.844-.594-.281-1.219-.281-1.344 0-2.031 1.078-.687 1.062-.687 3.156t.687 3.172q.688 1.062 2.031 1.062.625 0 1.219-.265.594-.281 1.219-.86z"/><text x="358.5" y="32.78" fill="#D9B8FF" font-family="Helvetica" font-size="17" textLength="229">gcp_subnetwork_log_config</text><rect width="328" height="39.789" x="7" y="106.79" fill="#3D176E" rx="2.5" ry="2.5" style="stroke:#000d19;stroke-width:.5"/><circle cx="22" cy="126.684" r="11" fill="#ADD1B2" style="stroke:#181818;stroke-width:1"/><path d="M24.969 132.325q-.578.297-1.219.438-.64.156-1.344.156-2.5 0-3.828-1.64-1.312-1.657-1.312-4.782t1.312-4.781q1.328-1.656 3.828-1.656.703 0 1.344.156.656.156 1.219.453v2.719q-.625-.579-1.219-.844-.594-.281-1.219-.281-1.343 0-2.031 1.078-.687 1.062-.687 3.156t.687 3.172q.688 1.062 2.031 1.062.625 0 1.219-.265.594-.281 1.219-.86z"/><text x="41" y="132.57" fill="#D9B8FF" font-family="Helvetica" font-size="17" textLength="286">gcp_subnetwork_secondary_range</text><path fill="none" d="M1176.97 246.8c-26.65 17.14-60.325 38.803-86.955 55.943" style="stroke:#1a83af;stroke-width:2"/><path fill="#1A83AF" d="m1084.97 305.99 9.733-1.507-5.529-1.2 1.199-5.528z" style="stroke:#1a83af;stroke-width:2"/><path fill="none" d="M779.98 44.77c76 17.56 188.04 44.84 229.02 62.02 65.24 27.35 129.737 69.941 166.547 95.911" style="stroke:#1a83af;stroke-width:2"/><path fill="#1A83AF" d="m1180.45 206.16-5.048-8.457.962 5.575-5.574.962z" style="stroke:#1a83af;stroke-width:2"/><path fill="none" d="M677.35 47.2c-54.1 37.77-168.47 117.626-222.67 155.456" style="stroke:#1a83af;stroke-width:2"/><path fill="#1A83AF" d="m449.76 206.09 9.67-1.871-5.57-.99.99-5.57z" style="stroke:#1a83af;stroke-width:2"/><path fill="none" d="M705 47.2v152.89" style="stroke:#1a83af;stroke-width:2"/><path fill="#1A83AF" d="m705 206.09 4-9-4 4-4-4z" style="stroke:#1a83af;stroke-width:2"/><path fill="none" d="M744.12 47.22c34.71 17.14 79.78 39.403 114.46 56.533" style="stroke:#1a83af;stroke-width:2"/><path fill="#1A83AF" d="m863.96 106.41-6.298-7.572 1.815 5.358-5.358 1.815z" style="stroke:#1a83af;stroke-width:2"/><path fill="none" d="M929.48 47.22c-5.79 17.14-12.272 36.375-18.052 53.505" style="stroke:#1a83af;stroke-width:2"/><path fill="#1A83AF" d="m909.51 106.41 6.668-7.249-5.07 2.511-2.51-5.068z" style="stroke:#1a83af;stroke-width:2"/><path fill="none" d="M927.5 147.01c21.74 17.14 48.62 38.333 70.34 55.473" style="stroke:#1a83af;stroke-width:2"/><path fill="#1A83AF" d="m1002.55 206.2-4.587-8.715.662 5.618-5.618.662z" style="stroke:#1a83af;stroke-width:2"/><path fill="none" d="M963.06 147.01c53.21 17.11 124.788 40.132 178.028 57.262" style="stroke:#1a83af;stroke-width:2"/><path fill="#1A83AF" d="m1146.8 206.11-7.342-6.564 2.582 5.033-5.033 2.582z" style="stroke:#1a83af;stroke-width:2"/><path fill="none" d="M813.65 145.85C729.3 163 609.1 187.435 522.92 204.955" style="stroke:#1a83af;stroke-width:2"/><path fill="#1A83AF" d="m517.04 206.15 9.617 2.127-4.717-3.123 3.123-4.717z" style="stroke:#1a83af;stroke-width:2"/><path fill="none" d="M863.88 147.01c-34.71 17.14-79.781 39.392-114.461 56.532" style="stroke:#1a83af;stroke-width:2"/><path fill="#1A83AF" d="m744.04 206.2 9.84-.402-5.358-1.813 1.814-5.359z" style="stroke:#1a83af;stroke-width:2"/><path fill="none" d="M904.83 146.7c3.22 25 11.85 69.31 34.17 99.67 19.04 25.9 44.015 43.21 68.845 56.67" style="stroke:#1a83af;stroke-width:2"/><path fill="#1A83AF" d="m1013.12 305.9-6.006-7.806 1.61 5.423-5.423 1.61z" style="stroke:#1a83af;stroke-width:2"/></svg>