<?xml version="1.0" encoding="us-ascii" standalone="no"?><svg xmlns="http://www.w3.org/2000/svg" xmlns:xlink="http://www.w3.org/1999/xlink" contentStyleType="text/css" height="1403px" preserveAspectRatio="none" style="width:1376px;height:1403px;" version="1.1" viewBox="0 0 1376 1403" width="1376px" zoomAndPan="magnify"><defs/><g><!--class azure_monitor_ingestion_settings--><g id="elem_azure_monitor_ingestion_settings"><rect codeLine="23" fill="#3D176E" height="100.3828" id="azure_monitor_ingestion_settings" rx="2.5" ry="2.5" style="stroke:#000D19;stroke-width:0.5;" width="364" x="7" y="965.15"/><ellipse cx="39.55" cy="985.0445" fill="#ADD1B2" rx="11" ry="11" style="stroke:#181818;stroke-width:1.0;"/><path d="M42.5188,990.6852 Q41.9406,990.982 41.3,991.1227 Q40.6594,991.2789 39.9563,991.2789 Q37.4563,991.2789 36.1281,989.6383 Q34.8156,987.982 34.8156,984.857 Q34.8156,981.732 36.1281,980.0758 Q37.4563,978.4195 39.9563,978.4195 Q40.6594,978.4195 41.3,978.5758 Q41.9563,978.732 42.5188,979.0289 L42.5188,981.7477 Q41.8938,981.1695 41.3,980.9039 Q40.7063,980.6227 40.0813,980.6227 Q38.7375,980.6227 38.05,981.7008 Q37.3625,982.7633 37.3625,984.857 Q37.3625,986.9508 38.05,988.0289 Q38.7375,989.0914 40.0813,989.0914 Q40.7063,989.0914 41.3,988.8258 Q41.8938,988.5445 42.5188,987.9664 L42.5188,990.6852 Z " fill="#000000"/><text fill="#D9B8FF" font-family="Helvetica" font-size="17" lengthAdjust="spacing" textLength="283" x="62.45" y="990.9298">azure_monitor_ingestion_settings</text><line style="stroke:#000D19;stroke-width:0.5;" x1="8" x2="370" y1="1004.9391" y2="1004.9391"/><text fill="#D9B8FF" font-family="sans-serif" font-size="14" font-weight="bold" lengthAdjust="spacing" textLength="294" x="18" y="1026.9342">data_collection_endpoint_resource_id</text><text fill="#D9B8FF" font-family="sans-serif" font-size="14" lengthAdjust="spacing" textLength="48" x="312" y="1026.9342">: string</text><text fill="#D9B8FF" font-family="sans-serif" font-size="14" font-weight="bold" lengthAdjust="spacing" textLength="255" x="18" y="1053.2311">data_collection_rule_resource_id</text><text fill="#D9B8FF" font-family="sans-serif" font-size="14" lengthAdjust="spacing" textLength="48" x="273" y="1053.2311">: string</text></g><!--class azure_monitor_metrics--><g id="elem_azure_monitor_metrics"><rect codeLine="27" fill="#3D176E" height="100.3828" id="azure_monitor_metrics" rx="2.5" ry="2.5" style="stroke:#000D19;stroke-width:0.5;" width="296" x="406" y="965.15"/><ellipse cx="448.45" cy="985.0445" fill="#ADD1B2" rx="11" ry="11" style="stroke:#181818;stroke-width:1.0;"/><path d="M451.4188,990.6852 Q450.8406,990.982 450.2,991.1227 Q449.5594,991.2789 448.8563,991.2789 Q446.3563,991.2789 445.0281,989.6383 Q443.7156,987.982 443.7156,984.857 Q443.7156,981.732 445.0281,980.0758 Q446.3563,978.4195 448.8563,978.4195 Q449.5594,978.4195 450.2,978.5758 Q450.8563,978.732 451.4188,979.0289 L451.4188,981.7477 Q450.7938,981.1695 450.2,980.9039 Q449.6063,980.6227 448.9813,980.6227 Q447.6375,980.6227 446.95,981.7008 Q446.2625,982.7633 446.2625,984.857 Q446.2625,986.9508 446.95,988.0289 Q447.6375,989.0914 448.9813,989.0914 Q449.6063,989.0914 450.2,988.8258 Q450.7938,988.5445 451.4188,987.9664 L451.4188,990.6852 Z " fill="#000000"/><text fill="#D9B8FF" font-family="Helvetica" font-size="17" lengthAdjust="spacing" textLength="193" x="473.55" y="990.9298">azure_monitor_metrics</text><line style="stroke:#000D19;stroke-width:0.5;" x1="407" x2="701" y1="1004.9391" y2="1004.9391"/><text fill="#D9B8FF" font-family="sans-serif" font-size="14" font-weight="bold" lengthAdjust="spacing" textLength="81" x="417" y="1026.9342">internal_id</text><text fill="#D9B8FF" font-family="sans-serif" font-size="14" lengthAdjust="spacing" textLength="48" x="498" y="1026.9342">: string</text><text fill="#D9B8FF" font-family="sans-serif" font-size="14" font-weight="bold" lengthAdjust="spacing" textLength="226" x="417" y="1053.2311">prometheus_query_endpoint</text><text fill="#D9B8FF" font-family="sans-serif" font-size="14" lengthAdjust="spacing" textLength="48" x="643" y="1053.2311">: string</text></g><!--class azure_monitor_workspace--><g id="elem_azure_monitor_workspace"><rect codeLine="31" fill="#3D176E" height="179.2734" id="azure_monitor_workspace" rx="2.5" ry="2.5" style="stroke:#000D19;stroke-width:0.5;" width="617" x="245.5" y="660.14"/><ellipse cx="435.25" cy="680.0345" fill="#ADD1B2" rx="11" ry="11" style="stroke:#181818;stroke-width:1.0;"/><path d="M438.2188,685.6752 Q437.6406,685.972 437,686.1127 Q436.3594,686.2689 435.6563,686.2689 Q433.1563,686.2689 431.8281,684.6283 Q430.5156,682.972 430.5156,679.847 Q430.5156,676.722 431.8281,675.0658 Q433.1563,673.4095 435.6563,673.4095 Q436.3594,673.4095 437,673.5658 Q437.6563,673.722 438.2188,674.0189 L438.2188,676.7377 Q437.5938,676.1595 437,675.8939 Q436.4063,675.6127 435.7813,675.6127 Q434.4375,675.6127 433.75,676.6908 Q433.0625,677.7533 433.0625,679.847 Q433.0625,681.9408 433.75,683.0189 Q434.4375,684.0814 435.7813,684.0814 Q436.4063,684.0814 437,683.8158 Q437.5938,683.5345 438.2188,682.9564 L438.2188,685.6752 Z " fill="#000000"/><text fill="#D9B8FF" font-family="Helvetica" font-size="17" lengthAdjust="spacing" textLength="219" x="460.75" y="685.9198">azure_monitor_workspace</text><line style="stroke:#000D19;stroke-width:0.5;" x1="246.5" x2="861.5" y1="699.9291" y2="699.9291"/><text fill="#D9B8FF" font-family="sans-serif" font-size="14" font-weight="bold" lengthAdjust="spacing" textLength="84" x="256.5" y="721.9242">account_id</text><text fill="#D9B8FF" font-family="sans-serif" font-size="14" lengthAdjust="spacing" textLength="48" x="340.5" y="721.9242">: string</text><text fill="#D9B8FF" font-family="sans-serif" font-size="14" font-weight="bold" lengthAdjust="spacing" textLength="206" x="256.5" y="748.2211">default_ingestion_settings</text><text fill="#D9B8FF" font-family="sans-serif" font-size="14" lengthAdjust="spacing" textLength="242" x="462.5" y="748.2211">: azure_monitor_ingestion_settings</text><text fill="#D9B8FF" font-family="sans-serif" font-size="14" font-weight="bold" lengthAdjust="spacing" textLength="59" x="256.5" y="774.5179">metrics</text><text fill="#D9B8FF" font-family="sans-serif" font-size="14" lengthAdjust="spacing" textLength="166" x="315.5" y="774.5179">: azure_monitor_metrics</text><text fill="#D9B8FF" font-family="sans-serif" font-size="14" font-weight="bold" lengthAdjust="spacing" textLength="330" x="256.5" y="800.8148">workspace_private_endpoint_connections</text><text fill="#D9B8FF" font-family="sans-serif" font-size="14" lengthAdjust="spacing" textLength="265" x="586.5" y="800.8148">: azure_private_endpoint_connection[]</text><text fill="#D9B8FF" font-family="sans-serif" font-size="14" font-weight="bold" lengthAdjust="spacing" textLength="276" x="256.5" y="827.1117">workspace_public_network_access</text><text fill="#D9B8FF" font-family="sans-serif" font-size="14" lengthAdjust="spacing" textLength="48" x="532.5" y="827.1117">: string</text></g><!--class azure_private_endpoint_connection--><g id="elem_azure_private_endpoint_connection"><rect codeLine="38" fill="#3D176E" height="231.8672" id="azure_private_endpoint_connection" rx="2.5" ry="2.5" style="stroke:#000D19;stroke-width:0.5;" width="632" x="737" y="899.41"/><ellipse cx="895.25" cy="919.3045" fill="#ADD1B2" rx="11" ry="11" style="stroke:#181818;stroke-width:1.0;"/><path d="M898.2188,924.9452 Q897.6406,925.242 897,925.3827 Q896.3594,925.5389 895.6563,925.5389 Q893.1563,925.5389 891.8281,923.8983 Q890.5156,922.242 890.5156,919.117 Q890.5156,915.992 891.8281,914.3358 Q893.1563,912.6795 895.6563,912.6795 Q896.3594,912.6795 897,912.8358 Q897.6563,912.992 898.2188,913.2889 L898.2188,916.0077 Q897.5938,915.4295 897,915.1639 Q896.4063,914.8827 895.7813,914.8827 Q894.4375,914.8827 893.75,915.9608 Q893.0625,917.0233 893.0625,919.117 Q893.0625,921.2108 893.75,922.2889 Q894.4375,923.3514 895.7813,923.3514 Q896.4063,923.3514 897,923.0858 Q897.5938,922.8045 898.2188,922.2264 L898.2188,924.9452 Z " fill="#000000"/><text fill="#D9B8FF" font-family="Helvetica" font-size="17" lengthAdjust="spacing" textLength="297" x="920.75" y="925.1898">azure_private_endpoint_connection</text><line style="stroke:#000D19;stroke-width:0.5;" x1="738" x2="1368" y1="939.1991" y2="939.1991"/><text fill="#D9B8FF" font-family="sans-serif" font-size="14" font-weight="bold" lengthAdjust="spacing" textLength="77" x="748" y="961.1942">group_ids</text><text fill="#D9B8FF" font-family="sans-serif" font-size="14" lengthAdjust="spacing" textLength="58" x="825" y="961.1942">: string[]</text><text fill="#D9B8FF" font-family="sans-serif" font-size="14" font-weight="bold" lengthAdjust="spacing" textLength="14" x="748" y="987.4911">id</text><text fill="#D9B8FF" font-family="sans-serif" font-size="14" lengthAdjust="spacing" textLength="48" x="762" y="987.4911">: string</text><text fill="#D9B8FF" font-family="sans-serif" font-size="14" font-weight="bold" lengthAdjust="spacing" textLength="43" x="748" y="1013.7879">name</text><text fill="#D9B8FF" font-family="sans-serif" font-size="14" lengthAdjust="spacing" textLength="48" x="791" y="1013.7879">: string</text><text fill="#D9B8FF" font-family="sans-serif" font-size="14" font-weight="bold" lengthAdjust="spacing" textLength="132" x="748" y="1040.0848">private_endpoint</text><text fill="#D9B8FF" font-family="sans-serif" font-size="14" lengthAdjust="spacing" textLength="48" x="880" y="1040.0848">: string</text><text fill="#D9B8FF" font-family="sans-serif" font-size="14" font-weight="bold" lengthAdjust="spacing" textLength="296" x="748" y="1066.3817">private_link_service_connection_state</text><text fill="#D9B8FF" font-family="sans-serif" font-size="14" lengthAdjust="spacing" textLength="314" x="1044" y="1066.3817">: azure_private_link_service_connection_state</text><text fill="#D9B8FF" font-family="sans-serif" font-size="14" font-weight="bold" lengthAdjust="spacing" textLength="98" x="748" y="1092.6786">system_data</text><text fill="#D9B8FF" font-family="sans-serif" font-size="14" lengthAdjust="spacing" textLength="142" x="846" y="1092.6786">: azure_system_data</text><text fill="#D9B8FF" font-family="sans-serif" font-size="14" font-weight="bold" lengthAdjust="spacing" textLength="35" x="748" y="1118.9754">type</text><text fill="#D9B8FF" font-family="sans-serif" font-size="14" lengthAdjust="spacing" textLength="48" x="783" y="1118.9754">: string</text></g><!--class azure_private_link_service_connection_state--><g id="elem_azure_private_link_service_connection_state"><rect codeLine="47" fill="#3D176E" height="126.6797" id="azure_private_link_service_connection_state" rx="2.5" ry="2.5" style="stroke:#000D19;stroke-width:0.5;" width="414" x="665" y="1230.73"/><ellipse cx="680" cy="1250.6245" fill="#ADD1B2" rx="11" ry="11" style="stroke:#181818;stroke-width:1.0;"/><path d="M682.9688,1256.2652 Q682.3906,1256.562 681.75,1256.7027 Q681.1094,1256.8589 680.4063,1256.8589 Q677.9063,1256.8589 676.5781,1255.2183 Q675.2656,1253.562 675.2656,1250.437 Q675.2656,1247.312 676.5781,1245.6558 Q677.9063,1243.9995 680.4063,1243.9995 Q681.1094,1243.9995 681.75,1244.1558 Q682.4063,1244.312 682.9688,1244.6089 L682.9688,1247.3277 Q682.3438,1246.7495 681.75,1246.4839 Q681.1563,1246.2027 680.5313,1246.2027 Q679.1875,1246.2027 678.5,1247.2808 Q677.8125,1248.3433 677.8125,1250.437 Q677.8125,1252.5308 678.5,1253.6089 Q679.1875,1254.6714 680.5313,1254.6714 Q681.1563,1254.6714 681.75,1254.4058 Q682.3438,1254.1245 682.9688,1253.5464 L682.9688,1256.2652 Z " fill="#000000"/><text fill="#D9B8FF" font-family="Helvetica" font-size="17" lengthAdjust="spacing" textLength="372" x="699" y="1256.5098">azure_private_link_service_connection_state</text><line style="stroke:#000D19;stroke-width:0.5;" x1="666" x2="1078" y1="1270.5191" y2="1270.5191"/><text fill="#D9B8FF" font-family="sans-serif" font-size="14" font-weight="bold" lengthAdjust="spacing" textLength="132" x="676" y="1292.5142">actions_required</text><text fill="#D9B8FF" font-family="sans-serif" font-size="14" lengthAdjust="spacing" textLength="48" x="808" y="1292.5142">: string</text><text fill="#D9B8FF" font-family="sans-serif" font-size="14" font-weight="bold" lengthAdjust="spacing" textLength="89" x="676" y="1318.8111">description</text><text fill="#D9B8FF" font-family="sans-serif" font-size="14" lengthAdjust="spacing" textLength="48" x="765" y="1318.8111">: string</text><text fill="#D9B8FF" font-family="sans-serif" font-size="14" font-weight="bold" lengthAdjust="spacing" textLength="49" x="676" y="1345.1079">status</text><text fill="#D9B8FF" font-family="sans-serif" font-size="14" lengthAdjust="spacing" textLength="48" x="725" y="1345.1079">: string</text></g><!--class azure_system_data--><g id="elem_azure_system_data"><rect codeLine="52" fill="#3D176E" height="205.5703" id="azure_system_data" rx="2.5" ry="2.5" style="stroke:#000D19;stroke-width:0.5;" width="241" x="1113.5" y="1191.28"/><ellipse cx="1145.6" cy="1211.1745" fill="#ADD1B2" rx="11" ry="11" style="stroke:#181818;stroke-width:1.0;"/><path d="M1148.5688,1216.8152 Q1147.9906,1217.112 1147.35,1217.2527 Q1146.7094,1217.4089 1146.0063,1217.4089 Q1143.5063,1217.4089 1142.1781,1215.7683 Q1140.8656,1214.112 1140.8656,1210.987 Q1140.8656,1207.862 1142.1781,1206.2058 Q1143.5063,1204.5495 1146.0063,1204.5495 Q1146.7094,1204.5495 1147.35,1204.7058 Q1148.0063,1204.862 1148.5688,1205.1589 L1148.5688,1207.8777 Q1147.9438,1207.2995 1147.35,1207.0339 Q1146.7563,1206.7527 1146.1313,1206.7527 Q1144.7875,1206.7527 1144.1,1207.8308 Q1143.4125,1208.8933 1143.4125,1210.987 Q1143.4125,1213.0808 1144.1,1214.1589 Q1144.7875,1215.2214 1146.1313,1215.2214 Q1146.7563,1215.2214 1147.35,1214.9558 Q1147.9438,1214.6745 1148.5688,1214.0964 L1148.5688,1216.8152 Z " fill="#000000"/><text fill="#D9B8FF" font-family="Helvetica" font-size="17" lengthAdjust="spacing" textLength="161" x="1168.4" y="1217.0598">azure_system_data</text><line style="stroke:#000D19;stroke-width:0.5;" x1="1114.5" x2="1353.5" y1="1231.0691" y2="1231.0691"/><text fill="#D9B8FF" font-family="sans-serif" font-size="14" font-weight="bold" lengthAdjust="spacing" textLength="83" x="1124.5" y="1253.0642">created_at</text><text fill="#D9B8FF" font-family="sans-serif" font-size="14" lengthAdjust="spacing" textLength="70" x="1207.5" y="1253.0642">: datetime</text><text fill="#D9B8FF" font-family="sans-serif" font-size="14" font-weight="bold" lengthAdjust="spacing" textLength="87" x="1124.5" y="1279.3611">created_by</text><text fill="#D9B8FF" font-family="sans-serif" font-size="14" lengthAdjust="spacing" textLength="48" x="1211.5" y="1279.3611">: string</text><text fill="#D9B8FF" font-family="sans-serif" font-size="14" font-weight="bold" lengthAdjust="spacing" textLength="129" x="1124.5" y="1305.6579">created_by_type</text><text fill="#D9B8FF" font-family="sans-serif" font-size="14" lengthAdjust="spacing" textLength="48" x="1253.5" y="1305.6579">: string</text><text fill="#D9B8FF" font-family="sans-serif" font-size="14" font-weight="bold" lengthAdjust="spacing" textLength="125" x="1124.5" y="1331.9548">last_modified_at</text><text fill="#D9B8FF" font-family="sans-serif" font-size="14" lengthAdjust="spacing" textLength="70" x="1249.5" y="1331.9548">: datetime</text><text fill="#D9B8FF" font-family="sans-serif" font-size="14" font-weight="bold" lengthAdjust="spacing" textLength="129" x="1124.5" y="1358.2517">last_modified_by</text><text fill="#D9B8FF" font-family="sans-serif" font-size="14" lengthAdjust="spacing" textLength="48" x="1253.5" y="1358.2517">: string</text><text fill="#D9B8FF" font-family="sans-serif" font-size="14" font-weight="bold" lengthAdjust="spacing" textLength="171" x="1124.5" y="1384.5486">last_modified_by_type</text><text fill="#D9B8FF" font-family="sans-serif" font-size="14" lengthAdjust="spacing" textLength="48" x="1295.5" y="1384.5486">: string</text></g><!--class microsoft_resource--><g id="elem_microsoft_resource"><rect codeLine="60" fill="#3D176E" height="100.3828" id="microsoft_resource" rx="2.5" ry="2.5" style="stroke:#000D19;stroke-width:0.5;" width="214" x="447" y="438.76"/><ellipse cx="468.3" cy="458.6545" fill="#ADD1B2" rx="11" ry="11" style="stroke:#181818;stroke-width:1.0;"/><path d="M471.2688,464.2952 Q470.6906,464.592 470.05,464.7327 Q469.4094,464.8889 468.7063,464.8889 Q466.2063,464.8889 464.8781,463.2483 Q463.5656,461.592 463.5656,458.467 Q463.5656,455.342 464.8781,453.6858 Q466.2063,452.0295 468.7063,452.0295 Q469.4094,452.0295 470.05,452.1858 Q470.7063,452.342 471.2688,452.6389 L471.2688,455.3577 Q470.6438,454.7795 470.05,454.5139 Q469.4563,454.2327 468.8313,454.2327 Q467.4875,454.2327 466.8,455.3108 Q466.1125,456.3733 466.1125,458.467 Q466.1125,460.5608 466.8,461.6389 Q467.4875,462.7014 468.8313,462.7014 Q469.4563,462.7014 470.05,462.4358 Q470.6438,462.1545 471.2688,461.5764 L471.2688,464.2952 Z " fill="#000000"/><text fill="#D9B8FF" font-family="Helvetica" font-size="17" lengthAdjust="spacing" textLength="158" x="488.7" y="464.5398">microsoft_resource</text><line style="stroke:#000D19;stroke-width:0.5;" x1="448" x2="660" y1="478.5491" y2="478.5491"/><text fill="#D9B8FF" font-family="sans-serif" font-size="14" font-weight="bold" lengthAdjust="spacing" textLength="35" x="458" y="500.5442">etag</text><text fill="#D9B8FF" font-family="sans-serif" font-size="14" lengthAdjust="spacing" textLength="48" x="493" y="500.5442">: string</text><text fill="#D9B8FF" font-family="sans-serif" font-size="14" font-weight="bold" lengthAdjust="spacing" textLength="144" x="458" y="526.8411">provisioning_state</text><text fill="#D9B8FF" font-family="sans-serif" font-size="14" lengthAdjust="spacing" textLength="48" x="602" y="526.8411">: string</text></g><!--class resource--><g id="elem_resource"><rect codeLine="64" fill="#3D176E" height="310.7578" id="resource" rx="2.5" ry="2.5" style="stroke:#000D19;stroke-width:0.5;" width="227" x="440.5" y="7"/><ellipse cx="509.25" cy="26.8945" fill="#ADD1B2" rx="11" ry="11" style="stroke:#181818;stroke-width:1.0;"/><path d="M512.2188,32.5352 Q511.6406,32.832 511,32.9727 Q510.3594,33.1289 509.6563,33.1289 Q507.1563,33.1289 505.8281,31.4883 Q504.5156,29.832 504.5156,26.707 Q504.5156,23.582 505.8281,21.9258 Q507.1563,20.2695 509.6563,20.2695 Q510.3594,20.2695 511,20.4258 Q511.6563,20.582 512.2188,20.8789 L512.2188,23.5977 Q511.5938,23.0195 511,22.7539 Q510.4063,22.4727 509.7813,22.4727 Q508.4375,22.4727 507.75,23.5508 Q507.0625,24.6133 507.0625,26.707 Q507.0625,28.8008 507.75,29.8789 Q508.4375,30.9414 509.7813,30.9414 Q510.4063,30.9414 511,30.6758 Q511.5938,30.3945 512.2188,29.8164 L512.2188,32.5352 Z " fill="#000000"/><text fill="#D9B8FF" font-family="Helvetica" font-size="17" lengthAdjust="spacing" textLength="71" x="534.75" y="32.7798">resource</text><line style="stroke:#000D19;stroke-width:0.5;" x1="441.5" x2="666.5" y1="46.7891" y2="46.7891"/><text fill="#D9B8FF" font-family="sans-serif" font-size="14" font-weight="bold" lengthAdjust="spacing" textLength="29" x="451.5" y="68.7842">age</text><text fill="#D9B8FF" font-family="sans-serif" font-size="14" lengthAdjust="spacing" textLength="66" x="480.5" y="68.7842">: duration</text><text fill="#D9B8FF" font-family="sans-serif" font-size="14" font-weight="bold" lengthAdjust="spacing" textLength="43" x="451.5" y="95.0811">atime</text><text fill="#D9B8FF" font-family="sans-serif" font-size="14" lengthAdjust="spacing" textLength="70" x="494.5" y="95.0811">: datetime</text><text fill="#D9B8FF" font-family="sans-serif" font-size="14" font-weight="bold" lengthAdjust="spacing" textLength="43" x="451.5" y="121.3779">ctime</text><text fill="#D9B8FF" font-family="sans-serif" font-size="14" lengthAdjust="spacing" textLength="70" x="494.5" y="121.3779">: datetime</text><text fill="#D9B8FF" font-family="sans-serif" font-size="14" font-weight="bold" lengthAdjust="spacing" textLength="14" x="451.5" y="147.6748">id</text><text fill="#D9B8FF" font-family="sans-serif" font-size="14" lengthAdjust="spacing" textLength="48" x="465.5" y="147.6748">: string</text><text fill="#D9B8FF" font-family="sans-serif" font-size="14" font-weight="bold" lengthAdjust="spacing" textLength="33" x="451.5" y="173.9717">kind</text><text fill="#D9B8FF" font-family="sans-serif" font-size="14" lengthAdjust="spacing" textLength="48" x="484.5" y="173.9717">: string</text><text fill="#D9B8FF" font-family="sans-serif" font-size="14" font-weight="bold" lengthAdjust="spacing" textLength="90" x="451.5" y="200.2686">last_access</text><text fill="#D9B8FF" font-family="sans-serif" font-size="14" lengthAdjust="spacing" textLength="66" x="541.5" y="200.2686">: duration</text><text fill="#D9B8FF" font-family="sans-serif" font-size="14" font-weight="bold" lengthAdjust="spacing" textLength="90" x="451.5" y="226.5654">last_update</text><text fill="#D9B8FF" font-family="sans-serif" font-size="14" lengthAdjust="spacing" textLength="66" x="541.5" y="226.5654">: duration</text><text fill="#D9B8FF" font-family="sans-serif" font-size="14" font-weight="bold" lengthAdjust="spacing" textLength="48" x="451.5" y="252.8623">mtime</text><text fill="#D9B8FF" font-family="sans-serif" font-size="14" lengthAdjust="spacing" textLength="70" x="499.5" y="252.8623">: datetime</text><text fill="#D9B8FF" font-family="sans-serif" font-size="14" font-weight="bold" lengthAdjust="spacing" textLength="43" x="451.5" y="279.1592">name</text><text fill="#D9B8FF" font-family="sans-serif" font-size="14" lengthAdjust="spacing" textLength="48" x="494.5" y="279.1592">: string</text><text fill="#D9B8FF" font-family="sans-serif" font-size="14" font-weight="bold" lengthAdjust="spacing" textLength="34" x="451.5" y="305.4561">tags</text><text fill="#D9B8FF" font-family="sans-serif" font-size="14" lengthAdjust="spacing" textLength="171" x="485.5" y="305.4561">: dictionary[string, string]</text></g><!--link azure_monitor_workspace to azure_monitor_ingestion_settings--><g id="link_azure_monitor_workspace_azure_monitor_ingestion_settings"><path codeLine="76" d="M430.68,839.82 C372.96,881.51 311.244,926.067 262.604,961.197 " fill="none" id="azure_monitor_workspace-to-azure_monitor_ingestion_settings" style="stroke:#FFAF37;stroke-width:2.0;"/><polygon fill="#FFAF37" points="257.74,964.71,267.378,962.6832,261.7934,961.7825,262.694,956.1978,257.74,964.71" style="stroke:#FFAF37;stroke-width:2.0;"/></g><!--link azure_monitor_workspace to azure_monitor_metrics--><g id="link_azure_monitor_workspace_azure_monitor_metrics"><path codeLine="77" d="M554,839.64 C554,881.49 554,923.81 554,959.02 " fill="none" id="azure_monitor_workspace-to-azure_monitor_metrics" style="stroke:#FFAF37;stroke-width:2.0;"/><polygon fill="#FFAF37" points="554,965.02,558,956.02,554,960.02,550,956.02,554,965.02" style="stroke:#FFAF37;stroke-width:2.0;"/></g><!--link azure_monitor_workspace to azure_private_endpoint_connection--><g id="link_azure_monitor_workspace_azure_private_endpoint_connection"><path codeLine="78" d="M722.59,839.82 C758.65,858.87 791.9343,876.4584 829.5643,896.3284 " fill="none" id="azure_monitor_workspace-to-azure_private_endpoint_connection" style="stroke:#FFAF37;stroke-width:2.0;"/><polygon fill="#FFAF37" points="834.87,899.13,828.7791,891.3904,830.4485,896.7953,825.0436,898.4647,834.87,899.13" style="stroke:#FFAF37;stroke-width:2.0;"/></g><!--reverse link microsoft_resource to azure_monitor_workspace--><g id="link_microsoft_resource_azure_monitor_workspace"><path codeLine="79" d="M554,557.55 C554,591.53 554,619.55 554,659.79 " fill="none" id="microsoft_resource-backto-azure_monitor_workspace" style="stroke:#FFAF37;stroke-width:2.0;"/><polygon fill="none" points="554,539.55,548,557.55,560,557.55,554,539.55" style="stroke:#FFAF37;stroke-width:2.0;"/></g><!--link azure_private_endpoint_connection to azure_private_link_service_connection_state--><g id="link_azure_private_endpoint_connection_azure_private_link_service_connection_state"><path codeLine="80" d="M977.55,1131.7 C955.43,1165.51 935.3632,1196.188 916.2732,1225.388 " fill="none" id="azure_private_endpoint_connection-to-azure_private_link_service_connection_state" style="stroke:#FFAF37;stroke-width:2.0;"/><polygon fill="#FFAF37" points="912.99,1230.41,921.2628,1225.0658,915.726,1226.225,914.5668,1220.6882,912.99,1230.41" style="stroke:#FFAF37;stroke-width:2.0;"/></g><!--link azure_private_endpoint_connection to azure_system_data--><g id="link_azure_private_endpoint_connection_azure_system_data"><path codeLine="81" d="M1128.45,1131.7 C1141.35,1151.42 1151.3857,1166.7687 1164.0357,1186.1087 " fill="none" id="azure_private_endpoint_connection-to-azure_system_data" style="stroke:#FFAF37;stroke-width:2.0;"/><polygon fill="#FFAF37" points="1167.32,1191.13,1165.741,1181.4085,1164.5831,1186.9456,1159.046,1185.7877,1167.32,1191.13" style="stroke:#FFAF37;stroke-width:2.0;"/></g><!--reverse link resource to microsoft_resource--><g id="link_resource_microsoft_resource"><path codeLine="82" d="M554,336.06 C554,379.65 554,405.98 554,438.42 " fill="none" id="resource-backto-microsoft_resource" style="stroke:#FFAF37;stroke-width:2.0;"/><polygon fill="none" points="554,318.06,548,336.06,560,336.06,554,318.06" style="stroke:#FFAF37;stroke-width:2.0;"/></g><!--SRC=[bLHDRnCn4BtdLwpKMqIabWhQ8eHK8Y6uL8XogohBiMSJAxlsTcmdIe7_pdYJThtUBpXwvlczcUVnR9I43ChA7R8IoXMWdTcjqXL7NcQtY6Q_D8N1x2pFUNvvbIQ_6Eqc0NUyXEmh53jmIl0KyNEZn5Q3jTdRAFMPY-qQZTVoIE-GQqifq2v2BGjkxQrpg5RUGLICl5bTvtcAJ4dFBkN5rNlem0nAm1Fa_FnSNjoaa4cfqRvV4VVg6RABsBGxuw1JPaUYHerM6H1HaPr6N_A3DNxdKYgzpjv5iH_7cb03jkBt6oxDFg1pNjXOnZf0CEvGmRBJ5TnSo_og5_nj23mJmRgCFti4LXgjd456mc2TCffPS8vEDlircyybTvm9KnGWwYHeMHcb7KEmngC0fkHy_e5aaUxqN41Vm03uJsyX9L1M7DL9253p8XMfq11i0zwo9mzuU2rhadrlS4jVG43DpuKWUrod1yYvBroF9m4svHiHd7heeay9WhmMmYfKE-wWiLOOhO_kHGmZg8V7DfzV5Kem3Ix46FL8Us7Gc17Usg8mG1KP537KUebbchv0yaHjtjvaeVIMVCETeheROMOTPRkzZyA9rXve-aiMHh2v70K94Zx6f1UZEgV1gP-71ll9AuHqVAn0LGL4Anwk- -6NY0gjDGG2oKd6Q-yeJDkbX2YnEhJecp1BkfpFISRH44gLgpx6TZhXJPDimCDI2JJMvCrkgDi0nzVfvzqfI-RGiNdfXAn5mTSrH7hamTGG2OMdjlJ4aYcbBIcxlJK_95AeCxwIf_AYJDcZqnb_Qlh8gEf9uNXuEERUd32FrEhGQbeiFarlcN-__B9qfc-CB8DPp_D-_BrOB8OMx6nwltI5nt_u_p36tpufkDl9x2y0]--></g></svg>