<?xml version="1.0" encoding="us-ascii" standalone="no"?><svg xmlns="http://www.w3.org/2000/svg" xmlns:xlink="http://www.w3.org/1999/xlink" contentStyleType="text/css" height="1722px" preserveAspectRatio="none" style="width:1772px;height:1722px;" version="1.1" viewBox="0 0 1772 1722" width="1772px" zoomAndPan="magnify"><defs/><g><!--class autoscaling_group--><g id="elem_autoscaling_group"><rect codeLine="23" fill="#3D176E" height="100.3828" id="autoscaling_group" rx="2.5" ry="2.5" style="stroke:#000D19;stroke-width:0.5;" width="194" x="1179" y="465.06"/><ellipse cx="1194" cy="484.9545" fill="#ADD1B2" rx="11" ry="11" style="stroke:#181818;stroke-width:1.0;"/><path d="M1196.9688,490.5952 Q1196.3906,490.892 1195.75,491.0327 Q1195.1094,491.1889 1194.4063,491.1889 Q1191.9063,491.1889 1190.5781,489.5483 Q1189.2656,487.892 1189.2656,484.767 Q1189.2656,481.642 1190.5781,479.9858 Q1191.9063,478.3295 1194.4063,478.3295 Q1195.1094,478.3295 1195.75,478.4858 Q1196.4063,478.642 1196.9688,478.9389 L1196.9688,481.6577 Q1196.3438,481.0795 1195.75,480.8139 Q1195.1563,480.5327 1194.5313,480.5327 Q1193.1875,480.5327 1192.5,481.6108 Q1191.8125,482.6733 1191.8125,484.767 Q1191.8125,486.8608 1192.5,487.9389 Q1193.1875,489.0014 1194.5313,489.0014 Q1195.1563,489.0014 1195.75,488.7358 Q1196.3438,488.4545 1196.9688,487.8764 L1196.9688,490.5952 Z " fill="#000000"/><text fill="#D9B8FF" font-family="Helvetica" font-size="17" lengthAdjust="spacing" textLength="152" x="1213" y="490.8398">autoscaling_group</text><line style="stroke:#000D19;stroke-width:0.5;" x1="1180" x2="1372" y1="504.8491" y2="504.8491"/><text fill="#D9B8FF" font-family="sans-serif" font-size="14" font-weight="bold" lengthAdjust="spacing" textLength="71" x="1190" y="526.8442">max_size</text><text fill="#D9B8FF" font-family="sans-serif" font-size="14" lengthAdjust="spacing" textLength="44" x="1261" y="526.8442">: int64</text><text fill="#D9B8FF" font-family="sans-serif" font-size="14" font-weight="bold" lengthAdjust="spacing" textLength="67" x="1190" y="553.1411">min_size</text><text fill="#D9B8FF" font-family="sans-serif" font-size="14" lengthAdjust="spacing" textLength="44" x="1257" y="553.1411">: int64</text></g><!--class gcp_autoscaler--><g id="elem_gcp_autoscaler"><rect codeLine="27" fill="#3D176E" height="205.5703" id="gcp_autoscaler" rx="2.5" ry="2.5" style="stroke:#000D19;stroke-width:0.5;" width="636" x="958" y="712.74"/><ellipse cx="1205.25" cy="732.6345" fill="#ADD1B2" rx="11" ry="11" style="stroke:#181818;stroke-width:1.0;"/><path d="M1208.2188,738.2752 Q1207.6406,738.572 1207,738.7127 Q1206.3594,738.8689 1205.6563,738.8689 Q1203.1563,738.8689 1201.8281,737.2283 Q1200.5156,735.572 1200.5156,732.447 Q1200.5156,729.322 1201.8281,727.6658 Q1203.1563,726.0095 1205.6563,726.0095 Q1206.3594,726.0095 1207,726.1658 Q1207.6563,726.322 1208.2188,726.6189 L1208.2188,729.3377 Q1207.5938,728.7595 1207,728.4939 Q1206.4063,728.2127 1205.7813,728.2127 Q1204.4375,728.2127 1203.75,729.2908 Q1203.0625,730.3533 1203.0625,732.447 Q1203.0625,734.5408 1203.75,735.6189 Q1204.4375,736.6814 1205.7813,736.6814 Q1206.4063,736.6814 1207,736.4158 Q1207.5938,736.1345 1208.2188,735.5564 L1208.2188,738.2752 Z " fill="#000000"/><text fill="#D9B8FF" font-family="Helvetica" font-size="17" lengthAdjust="spacing" textLength="123" x="1230.75" y="738.5198">gcp_autoscaler</text><line style="stroke:#000D19;stroke-width:0.5;" x1="959" x2="1593" y1="752.5291" y2="752.5291"/><text fill="#D9B8FF" font-family="sans-serif" font-size="14" font-weight="bold" lengthAdjust="spacing" textLength="233" x="969" y="774.5242">autoscaler_autoscaling_policy</text><text fill="#D9B8FF" font-family="sans-serif" font-size="14" lengthAdjust="spacing" textLength="167" x="1202" y="774.5242">: gcp_autoscaling_policy</text><text fill="#D9B8FF" font-family="sans-serif" font-size="14" font-weight="bold" lengthAdjust="spacing" textLength="243" x="969" y="800.8211">autoscaler_recommended_size</text><text fill="#D9B8FF" font-family="sans-serif" font-size="14" lengthAdjust="spacing" textLength="44" x="1212" y="800.8211">: int64</text><text fill="#D9B8FF" font-family="sans-serif" font-size="14" font-weight="bold" lengthAdjust="spacing" textLength="280" x="969" y="827.1179">autoscaler_scaling_schedule_status</text><text fill="#D9B8FF" font-family="sans-serif" font-size="14" lengthAdjust="spacing" textLength="334" x="1249" y="827.1179">: dictionary[string, gcp_scaling_schedule_status]</text><text fill="#D9B8FF" font-family="sans-serif" font-size="14" font-weight="bold" lengthAdjust="spacing" textLength="139" x="969" y="853.4148">autoscaler_status</text><text fill="#D9B8FF" font-family="sans-serif" font-size="14" lengthAdjust="spacing" textLength="48" x="1108" y="853.4148">: string</text><text fill="#D9B8FF" font-family="sans-serif" font-size="14" font-weight="bold" lengthAdjust="spacing" textLength="198" x="969" y="879.7117">autoscaler_status_details</text><text fill="#D9B8FF" font-family="sans-serif" font-size="14" lengthAdjust="spacing" textLength="226" x="1167" y="879.7117">: gcp_autoscaler_status_details[]</text><text fill="#D9B8FF" font-family="sans-serif" font-size="14" font-weight="bold" lengthAdjust="spacing" textLength="138" x="969" y="906.0086">autoscaler_target</text><text fill="#D9B8FF" font-family="sans-serif" font-size="14" lengthAdjust="spacing" textLength="48" x="1107" y="906.0086">: string</text></g><!--class gcp_autoscaler_status_details--><g id="elem_gcp_autoscaler_status_details"><rect codeLine="35" fill="#3D176E" height="100.3828" id="gcp_autoscaler_status_details" rx="2.5" ry="2.5" style="stroke:#000D19;stroke-width:0.5;" width="289" x="240.5" y="1070.35"/><ellipse cx="255.5" cy="1090.2445" fill="#ADD1B2" rx="11" ry="11" style="stroke:#181818;stroke-width:1.0;"/><path d="M258.4688,1095.8852 Q257.8906,1096.182 257.25,1096.3227 Q256.6094,1096.4789 255.9063,1096.4789 Q253.4063,1096.4789 252.0781,1094.8383 Q250.7656,1093.182 250.7656,1090.057 Q250.7656,1086.932 252.0781,1085.2758 Q253.4063,1083.6195 255.9063,1083.6195 Q256.6094,1083.6195 257.25,1083.7758 Q257.9063,1083.932 258.4688,1084.2289 L258.4688,1086.9477 Q257.8438,1086.3695 257.25,1086.1039 Q256.6563,1085.8227 256.0313,1085.8227 Q254.6875,1085.8227 254,1086.9008 Q253.3125,1087.9633 253.3125,1090.057 Q253.3125,1092.1508 254,1093.2289 Q254.6875,1094.2914 256.0313,1094.2914 Q256.6563,1094.2914 257.25,1094.0258 Q257.8438,1093.7445 258.4688,1093.1664 L258.4688,1095.8852 Z " fill="#000000"/><text fill="#D9B8FF" font-family="Helvetica" font-size="17" lengthAdjust="spacing" textLength="247" x="274.5" y="1096.1298">gcp_autoscaler_status_details</text><line style="stroke:#000D19;stroke-width:0.5;" x1="241.5" x2="528.5" y1="1110.1391" y2="1110.1391"/><text fill="#D9B8FF" font-family="sans-serif" font-size="14" font-weight="bold" lengthAdjust="spacing" textLength="71" x="251.5" y="1132.1342">message</text><text fill="#D9B8FF" font-family="sans-serif" font-size="14" lengthAdjust="spacing" textLength="48" x="322.5" y="1132.1342">: string</text><text fill="#D9B8FF" font-family="sans-serif" font-size="14" font-weight="bold" lengthAdjust="spacing" textLength="35" x="251.5" y="1158.4311">type</text><text fill="#D9B8FF" font-family="sans-serif" font-size="14" lengthAdjust="spacing" textLength="48" x="286.5" y="1158.4311">: string</text></g><!--class gcp_autoscaling_policy--><g id="elem_gcp_autoscaling_policy"><rect codeLine="39" fill="#3D176E" height="284.4609" id="gcp_autoscaling_policy" rx="2.5" ry="2.5" style="stroke:#000D19;stroke-width:0.5;" width="587" x="564.5" y="978.31"/><ellipse cx="754.25" cy="998.2045" fill="#ADD1B2" rx="11" ry="11" style="stroke:#181818;stroke-width:1.0;"/><path d="M757.2188,1003.8452 Q756.6406,1004.142 756,1004.2827 Q755.3594,1004.4389 754.6563,1004.4389 Q752.1563,1004.4389 750.8281,1002.7983 Q749.5156,1001.142 749.5156,998.017 Q749.5156,994.892 750.8281,993.2358 Q752.1563,991.5795 754.6563,991.5795 Q755.3594,991.5795 756,991.7358 Q756.6563,991.892 757.2188,992.1889 L757.2188,994.9077 Q756.5938,994.3295 756,994.0639 Q755.4063,993.7827 754.7813,993.7827 Q753.4375,993.7827 752.75,994.8608 Q752.0625,995.9233 752.0625,998.017 Q752.0625,1000.1108 752.75,1001.1889 Q753.4375,1002.2514 754.7813,1002.2514 Q755.4063,1002.2514 756,1001.9858 Q756.5938,1001.7045 757.2188,1001.1264 L757.2188,1003.8452 Z " fill="#000000"/><text fill="#D9B8FF" font-family="Helvetica" font-size="17" lengthAdjust="spacing" textLength="189" x="779.75" y="1004.0898">gcp_autoscaling_policy</text><line style="stroke:#000D19;stroke-width:0.5;" x1="565.5" x2="1150.5" y1="1018.0991" y2="1018.0991"/><text fill="#D9B8FF" font-family="sans-serif" font-size="14" font-weight="bold" lengthAdjust="spacing" textLength="177" x="575.5" y="1040.0942">cool_down_period_sec</text><text fill="#D9B8FF" font-family="sans-serif" font-size="14" lengthAdjust="spacing" textLength="44" x="752.5" y="1040.0942">: int64</text><text fill="#D9B8FF" font-family="sans-serif" font-size="14" font-weight="bold" lengthAdjust="spacing" textLength="112" x="575.5" y="1066.3911">cpu_utilization</text><text fill="#D9B8FF" font-family="sans-serif" font-size="14" lengthAdjust="spacing" textLength="272" x="687.5" y="1066.3911">: gcp_autoscaling_policy_cpu_utilization</text><text fill="#D9B8FF" font-family="sans-serif" font-size="14" font-weight="bold" lengthAdjust="spacing" textLength="207" x="575.5" y="1092.6879">custom_metric_utilizations</text><text fill="#D9B8FF" font-family="sans-serif" font-size="14" lengthAdjust="spacing" textLength="358" x="782.5" y="1092.6879">: gcp_autoscaling_policy_custom_metric_utilization[]</text><text fill="#D9B8FF" font-family="sans-serif" font-size="14" font-weight="bold" lengthAdjust="spacing" textLength="198" x="575.5" y="1118.9848">load_balancing_utilization</text><text fill="#D9B8FF" font-family="sans-serif" font-size="14" lengthAdjust="spacing" textLength="57" x="773.5" y="1118.9848">: double</text><text fill="#D9B8FF" font-family="sans-serif" font-size="14" font-weight="bold" lengthAdjust="spacing" textLength="142" x="575.5" y="1145.2817">max_num_replicas</text><text fill="#D9B8FF" font-family="sans-serif" font-size="14" lengthAdjust="spacing" textLength="44" x="717.5" y="1145.2817">: int64</text><text fill="#D9B8FF" font-family="sans-serif" font-size="14" font-weight="bold" lengthAdjust="spacing" textLength="138" x="575.5" y="1171.5786">min_num_replicas</text><text fill="#D9B8FF" font-family="sans-serif" font-size="14" lengthAdjust="spacing" textLength="44" x="713.5" y="1171.5786">: int64</text><text fill="#D9B8FF" font-family="sans-serif" font-size="14" font-weight="bold" lengthAdjust="spacing" textLength="44" x="575.5" y="1197.8754">mode</text><text fill="#D9B8FF" font-family="sans-serif" font-size="14" lengthAdjust="spacing" textLength="48" x="619.5" y="1197.8754">: string</text><text fill="#D9B8FF" font-family="sans-serif" font-size="14" font-weight="bold" lengthAdjust="spacing" textLength="125" x="575.5" y="1224.1723">scale_in_control</text><text fill="#D9B8FF" font-family="sans-serif" font-size="14" lengthAdjust="spacing" textLength="284" x="700.5" y="1224.1723">: gcp_autoscaling_policy_scale_in_control</text><text fill="#D9B8FF" font-family="sans-serif" font-size="14" font-weight="bold" lengthAdjust="spacing" textLength="143" x="575.5" y="1250.4692">scaling_schedules</text><text fill="#D9B8FF" font-family="sans-serif" font-size="14" lengthAdjust="spacing" textLength="416" x="718.5" y="1250.4692">: dictionary[string, gcp_autoscaling_policy_scaling_schedule]</text></g><!--class gcp_autoscaling_policy_cpu_utilization--><g id="elem_gcp_autoscaling_policy_cpu_utilization"><rect codeLine="50" fill="#3D176E" height="100.3828" id="gcp_autoscaling_policy_cpu_utilization" rx="2.5" ry="2.5" style="stroke:#000D19;stroke-width:0.5;" width="362" x="7" y="1375.36"/><ellipse cx="22" cy="1395.2545" fill="#ADD1B2" rx="11" ry="11" style="stroke:#181818;stroke-width:1.0;"/><path d="M24.9688,1400.8952 Q24.3906,1401.192 23.75,1401.3327 Q23.1094,1401.4889 22.4063,1401.4889 Q19.9063,1401.4889 18.5781,1399.8483 Q17.2656,1398.192 17.2656,1395.067 Q17.2656,1391.942 18.5781,1390.2858 Q19.9063,1388.6295 22.4063,1388.6295 Q23.1094,1388.6295 23.75,1388.7858 Q24.4063,1388.942 24.9688,1389.2389 L24.9688,1391.9577 Q24.3438,1391.3795 23.75,1391.1139 Q23.1563,1390.8327 22.5313,1390.8327 Q21.1875,1390.8327 20.5,1391.9108 Q19.8125,1392.9733 19.8125,1395.067 Q19.8125,1397.1608 20.5,1398.2389 Q21.1875,1399.3014 22.5313,1399.3014 Q23.1563,1399.3014 23.75,1399.0358 Q24.3438,1398.7545 24.9688,1398.1764 L24.9688,1400.8952 Z " fill="#000000"/><text fill="#D9B8FF" font-family="Helvetica" font-size="17" lengthAdjust="spacing" textLength="320" x="41" y="1401.1398">gcp_autoscaling_policy_cpu_utilization</text><line style="stroke:#000D19;stroke-width:0.5;" x1="8" x2="368" y1="1415.1491" y2="1415.1491"/><text fill="#D9B8FF" font-family="sans-serif" font-size="14" font-weight="bold" lengthAdjust="spacing" textLength="146" x="18" y="1437.1442">predictive_method</text><text fill="#D9B8FF" font-family="sans-serif" font-size="14" lengthAdjust="spacing" textLength="48" x="164" y="1437.1442">: string</text><text fill="#D9B8FF" font-family="sans-serif" font-size="14" font-weight="bold" lengthAdjust="spacing" textLength="131" x="18" y="1463.4411">utilization_target</text><text fill="#D9B8FF" font-family="sans-serif" font-size="14" lengthAdjust="spacing" textLength="57" x="149" y="1463.4411">: double</text></g><!--class gcp_autoscaling_policy_custom_metric_utilization--><g id="elem_gcp_autoscaling_policy_custom_metric_utilization"><rect codeLine="54" fill="#3D176E" height="179.2734" id="gcp_autoscaling_policy_custom_metric_utilization" rx="2.5" ry="2.5" style="stroke:#000D19;stroke-width:0.5;" width="457" x="404.5" y="1335.92"/><ellipse cx="419.5" cy="1355.8145" fill="#ADD1B2" rx="11" ry="11" style="stroke:#181818;stroke-width:1.0;"/><path d="M422.4688,1361.4552 Q421.8906,1361.752 421.25,1361.8927 Q420.6094,1362.0489 419.9063,1362.0489 Q417.4063,1362.0489 416.0781,1360.4083 Q414.7656,1358.752 414.7656,1355.627 Q414.7656,1352.502 416.0781,1350.8458 Q417.4063,1349.1895 419.9063,1349.1895 Q420.6094,1349.1895 421.25,1349.3458 Q421.9063,1349.502 422.4688,1349.7989 L422.4688,1352.5177 Q421.8438,1351.9395 421.25,1351.6739 Q420.6563,1351.3927 420.0313,1351.3927 Q418.6875,1351.3927 418,1352.4708 Q417.3125,1353.5333 417.3125,1355.627 Q417.3125,1357.7208 418,1358.7989 Q418.6875,1359.8614 420.0313,1359.8614 Q420.6563,1359.8614 421.25,1359.5958 Q421.8438,1359.3145 422.4688,1358.7364 L422.4688,1361.4552 Z " fill="#000000"/><text fill="#D9B8FF" font-family="Helvetica" font-size="17" lengthAdjust="spacing" textLength="415" x="438.5" y="1361.6998">gcp_autoscaling_policy_custom_metric_utilization</text><line style="stroke:#000D19;stroke-width:0.5;" x1="405.5" x2="860.5" y1="1375.7091" y2="1375.7091"/><text fill="#D9B8FF" font-family="sans-serif" font-size="14" font-weight="bold" lengthAdjust="spacing" textLength="37" x="415.5" y="1397.7042">filter</text><text fill="#D9B8FF" font-family="sans-serif" font-size="14" lengthAdjust="spacing" textLength="48" x="452.5" y="1397.7042">: string</text><text fill="#D9B8FF" font-family="sans-serif" font-size="14" font-weight="bold" lengthAdjust="spacing" textLength="50" x="415.5" y="1424.0011">metric</text><text fill="#D9B8FF" font-family="sans-serif" font-size="14" lengthAdjust="spacing" textLength="48" x="465.5" y="1424.0011">: string</text><text fill="#D9B8FF" font-family="sans-serif" font-size="14" font-weight="bold" lengthAdjust="spacing" textLength="219" x="415.5" y="1450.2979">single_instance_assignment</text><text fill="#D9B8FF" font-family="sans-serif" font-size="14" lengthAdjust="spacing" textLength="57" x="634.5" y="1450.2979">: double</text><text fill="#D9B8FF" font-family="sans-serif" font-size="14" font-weight="bold" lengthAdjust="spacing" textLength="131" x="415.5" y="1476.5948">utilization_target</text><text fill="#D9B8FF" font-family="sans-serif" font-size="14" lengthAdjust="spacing" textLength="57" x="546.5" y="1476.5948">: double</text><text fill="#D9B8FF" font-family="sans-serif" font-size="14" font-weight="bold" lengthAdjust="spacing" textLength="173" x="415.5" y="1502.8917">utilization_target_type</text><text fill="#D9B8FF" font-family="sans-serif" font-size="14" lengthAdjust="spacing" textLength="48" x="588.5" y="1502.8917">: string</text></g><!--class gcp_autoscaling_policy_scale_in_control--><g id="elem_gcp_autoscaling_policy_scale_in_control"><rect codeLine="61" fill="#3D176E" height="100.3828" id="gcp_autoscaling_policy_scale_in_control" rx="2.5" ry="2.5" style="stroke:#000D19;stroke-width:0.5;" width="373" x="896.5" y="1375.36"/><ellipse cx="911.5" cy="1395.2545" fill="#ADD1B2" rx="11" ry="11" style="stroke:#181818;stroke-width:1.0;"/><path d="M914.4688,1400.8952 Q913.8906,1401.192 913.25,1401.3327 Q912.6094,1401.4889 911.9063,1401.4889 Q909.4063,1401.4889 908.0781,1399.8483 Q906.7656,1398.192 906.7656,1395.067 Q906.7656,1391.942 908.0781,1390.2858 Q909.4063,1388.6295 911.9063,1388.6295 Q912.6094,1388.6295 913.25,1388.7858 Q913.9063,1388.942 914.4688,1389.2389 L914.4688,1391.9577 Q913.8438,1391.3795 913.25,1391.1139 Q912.6563,1390.8327 912.0313,1390.8327 Q910.6875,1390.8327 910,1391.9108 Q909.3125,1392.9733 909.3125,1395.067 Q909.3125,1397.1608 910,1398.2389 Q910.6875,1399.3014 912.0313,1399.3014 Q912.6563,1399.3014 913.25,1399.0358 Q913.8438,1398.7545 914.4688,1398.1764 L914.4688,1400.8952 Z " fill="#000000"/><text fill="#D9B8FF" font-family="Helvetica" font-size="17" lengthAdjust="spacing" textLength="331" x="930.5" y="1401.1398">gcp_autoscaling_policy_scale_in_control</text><line style="stroke:#000D19;stroke-width:0.5;" x1="897.5" x2="1268.5" y1="1415.1491" y2="1415.1491"/><text fill="#D9B8FF" font-family="sans-serif" font-size="14" font-weight="bold" lengthAdjust="spacing" textLength="180" x="907.5" y="1437.1442">max_scaled_in_replicas</text><text fill="#D9B8FF" font-family="sans-serif" font-size="14" lengthAdjust="spacing" textLength="156" x="1087.5" y="1437.1442">: gcp_fixed_or_percent</text><text fill="#D9B8FF" font-family="sans-serif" font-size="14" font-weight="bold" lengthAdjust="spacing" textLength="138" x="907.5" y="1463.4411">time_window_sec</text><text fill="#D9B8FF" font-family="sans-serif" font-size="14" lengthAdjust="spacing" textLength="44" x="1045.5" y="1463.4411">: int64</text></g><!--class gcp_autoscaling_policy_scaling_schedule--><g id="elem_gcp_autoscaling_policy_scaling_schedule"><rect codeLine="65" fill="#3D176E" height="205.5703" id="gcp_autoscaling_policy_scaling_schedule" rx="2.5" ry="2.5" style="stroke:#000D19;stroke-width:0.5;" width="379" x="1304.5" y="1322.77"/><ellipse cx="1319.5" cy="1342.6645" fill="#ADD1B2" rx="11" ry="11" style="stroke:#181818;stroke-width:1.0;"/><path d="M1322.4688,1348.3052 Q1321.8906,1348.602 1321.25,1348.7427 Q1320.6094,1348.8989 1319.9063,1348.8989 Q1317.4063,1348.8989 1316.0781,1347.2583 Q1314.7656,1345.602 1314.7656,1342.477 Q1314.7656,1339.352 1316.0781,1337.6958 Q1317.4063,1336.0395 1319.9063,1336.0395 Q1320.6094,1336.0395 1321.25,1336.1958 Q1321.9063,1336.352 1322.4688,1336.6489 L1322.4688,1339.3677 Q1321.8438,1338.7895 1321.25,1338.5239 Q1320.6563,1338.2427 1320.0313,1338.2427 Q1318.6875,1338.2427 1318,1339.3208 Q1317.3125,1340.3833 1317.3125,1342.477 Q1317.3125,1344.5708 1318,1345.6489 Q1318.6875,1346.7114 1320.0313,1346.7114 Q1320.6563,1346.7114 1321.25,1346.4458 Q1321.8438,1346.1645 1322.4688,1345.5864 L1322.4688,1348.3052 Z " fill="#000000"/><text fill="#D9B8FF" font-family="Helvetica" font-size="17" lengthAdjust="spacing" textLength="337" x="1338.5" y="1348.5498">gcp_autoscaling_policy_scaling_schedule</text><line style="stroke:#000D19;stroke-width:0.5;" x1="1305.5" x2="1682.5" y1="1362.5591" y2="1362.5591"/><text fill="#D9B8FF" font-family="sans-serif" font-size="14" font-weight="bold" lengthAdjust="spacing" textLength="89" x="1315.5" y="1384.5542">description</text><text fill="#D9B8FF" font-family="sans-serif" font-size="14" lengthAdjust="spacing" textLength="48" x="1404.5" y="1384.5542">: string</text><text fill="#D9B8FF" font-family="sans-serif" font-size="14" font-weight="bold" lengthAdjust="spacing" textLength="66" x="1315.5" y="1410.8511">disabled</text><text fill="#D9B8FF" font-family="sans-serif" font-size="14" lengthAdjust="spacing" textLength="65" x="1381.5" y="1410.8511">: boolean</text><text fill="#D9B8FF" font-family="sans-serif" font-size="14" font-weight="bold" lengthAdjust="spacing" textLength="101" x="1315.5" y="1437.1479">duration_sec</text><text fill="#D9B8FF" font-family="sans-serif" font-size="14" lengthAdjust="spacing" textLength="44" x="1416.5" y="1437.1479">: int64</text><text fill="#D9B8FF" font-family="sans-serif" font-size="14" font-weight="bold" lengthAdjust="spacing" textLength="172" x="1315.5" y="1463.4448">min_required_replicas</text><text fill="#D9B8FF" font-family="sans-serif" font-size="14" lengthAdjust="spacing" textLength="44" x="1487.5" y="1463.4448">: int64</text><text fill="#D9B8FF" font-family="sans-serif" font-size="14" font-weight="bold" lengthAdjust="spacing" textLength="72" x="1315.5" y="1489.7417">schedule</text><text fill="#D9B8FF" font-family="sans-serif" font-size="14" lengthAdjust="spacing" textLength="48" x="1387.5" y="1489.7417">: string</text><text fill="#D9B8FF" font-family="sans-serif" font-size="14" font-weight="bold" lengthAdjust="spacing" textLength="80" x="1315.5" y="1516.0386">time_zone</text><text fill="#D9B8FF" font-family="sans-serif" font-size="14" lengthAdjust="spacing" textLength="48" x="1395.5" y="1516.0386">: string</text></g><!--class gcp_deprecation_status--><g id="elem_gcp_deprecation_status"><rect codeLine="73" fill="#3D176E" height="179.2734" id="gcp_deprecation_status" rx="2.5" ry="2.5" style="stroke:#000D19;stroke-width:0.5;" width="237" x="1528.5" y="1030.9"/><ellipse cx="1543.5" cy="1050.7945" fill="#ADD1B2" rx="11" ry="11" style="stroke:#181818;stroke-width:1.0;"/><path d="M1546.4688,1056.4352 Q1545.8906,1056.732 1545.25,1056.8727 Q1544.6094,1057.0289 1543.9063,1057.0289 Q1541.4063,1057.0289 1540.0781,1055.3883 Q1538.7656,1053.732 1538.7656,1050.607 Q1538.7656,1047.482 1540.0781,1045.8258 Q1541.4063,1044.1695 1543.9063,1044.1695 Q1544.6094,1044.1695 1545.25,1044.3258 Q1545.9063,1044.482 1546.4688,1044.7789 L1546.4688,1047.4977 Q1545.8438,1046.9195 1545.25,1046.6539 Q1544.6563,1046.3727 1544.0313,1046.3727 Q1542.6875,1046.3727 1542,1047.4508 Q1541.3125,1048.5133 1541.3125,1050.607 Q1541.3125,1052.7008 1542,1053.7789 Q1542.6875,1054.8414 1544.0313,1054.8414 Q1544.6563,1054.8414 1545.25,1054.5758 Q1545.8438,1054.2945 1546.4688,1053.7164 L1546.4688,1056.4352 Z " fill="#000000"/><text fill="#D9B8FF" font-family="Helvetica" font-size="17" lengthAdjust="spacing" textLength="195" x="1562.5" y="1056.6798">gcp_deprecation_status</text><line style="stroke:#000D19;stroke-width:0.5;" x1="1529.5" x2="1764.5" y1="1070.6891" y2="1070.6891"/><text fill="#D9B8FF" font-family="sans-serif" font-size="14" font-weight="bold" lengthAdjust="spacing" textLength="60" x="1539.5" y="1092.6842">deleted</text><text fill="#D9B8FF" font-family="sans-serif" font-size="14" lengthAdjust="spacing" textLength="48" x="1599.5" y="1092.6842">: string</text><text fill="#D9B8FF" font-family="sans-serif" font-size="14" font-weight="bold" lengthAdjust="spacing" textLength="91" x="1539.5" y="1118.9811">deprecated</text><text fill="#D9B8FF" font-family="sans-serif" font-size="14" lengthAdjust="spacing" textLength="48" x="1630.5" y="1118.9811">: string</text><text fill="#D9B8FF" font-family="sans-serif" font-size="14" font-weight="bold" lengthAdjust="spacing" textLength="69" x="1539.5" y="1145.2779">obsolete</text><text fill="#D9B8FF" font-family="sans-serif" font-size="14" lengthAdjust="spacing" textLength="48" x="1608.5" y="1145.2779">: string</text><text fill="#D9B8FF" font-family="sans-serif" font-size="14" font-weight="bold" lengthAdjust="spacing" textLength="99" x="1539.5" y="1171.5748">replacement</text><text fill="#D9B8FF" font-family="sans-serif" font-size="14" lengthAdjust="spacing" textLength="48" x="1638.5" y="1171.5748">: string</text><text fill="#D9B8FF" font-family="sans-serif" font-size="14" font-weight="bold" lengthAdjust="spacing" textLength="40" x="1539.5" y="1197.8717">state</text><text fill="#D9B8FF" font-family="sans-serif" font-size="14" lengthAdjust="spacing" textLength="48" x="1579.5" y="1197.8717">: string</text></g><!--class gcp_fixed_or_percent--><g id="elem_gcp_fixed_or_percent"><rect codeLine="80" fill="#3D176E" height="126.6797" id="gcp_fixed_or_percent" rx="2.5" ry="2.5" style="stroke:#000D19;stroke-width:0.5;" width="218" x="974" y="1588.34"/><ellipse cx="989" cy="1608.2345" fill="#ADD1B2" rx="11" ry="11" style="stroke:#181818;stroke-width:1.0;"/><path d="M991.9688,1613.8752 Q991.3906,1614.172 990.75,1614.3127 Q990.1094,1614.4689 989.4063,1614.4689 Q986.9063,1614.4689 985.5781,1612.8283 Q984.2656,1611.172 984.2656,1608.047 Q984.2656,1604.922 985.5781,1603.2658 Q986.9063,1601.6095 989.4063,1601.6095 Q990.1094,1601.6095 990.75,1601.7658 Q991.4063,1601.922 991.9688,1602.2189 L991.9688,1604.9377 Q991.3438,1604.3595 990.75,1604.0939 Q990.1563,1603.8127 989.5313,1603.8127 Q988.1875,1603.8127 987.5,1604.8908 Q986.8125,1605.9533 986.8125,1608.047 Q986.8125,1610.1408 987.5,1611.2189 Q988.1875,1612.2814 989.5313,1612.2814 Q990.1563,1612.2814 990.75,1612.0158 Q991.3438,1611.7345 991.9688,1611.1564 L991.9688,1613.8752 Z " fill="#000000"/><text fill="#D9B8FF" font-family="Helvetica" font-size="17" lengthAdjust="spacing" textLength="176" x="1008" y="1614.1198">gcp_fixed_or_percent</text><line style="stroke:#000D19;stroke-width:0.5;" x1="975" x2="1191" y1="1628.1291" y2="1628.1291"/><text fill="#D9B8FF" font-family="sans-serif" font-size="14" font-weight="bold" lengthAdjust="spacing" textLength="80" x="985" y="1650.1242">calculated</text><text fill="#D9B8FF" font-family="sans-serif" font-size="14" lengthAdjust="spacing" textLength="44" x="1065" y="1650.1242">: int64</text><text fill="#D9B8FF" font-family="sans-serif" font-size="14" font-weight="bold" lengthAdjust="spacing" textLength="39" x="985" y="1676.4211">fixed</text><text fill="#D9B8FF" font-family="sans-serif" font-size="14" lengthAdjust="spacing" textLength="44" x="1024" y="1676.4211">: int64</text><text fill="#D9B8FF" font-family="sans-serif" font-size="14" font-weight="bold" lengthAdjust="spacing" textLength="62" x="985" y="1702.7179">percent</text><text fill="#D9B8FF" font-family="sans-serif" font-size="14" lengthAdjust="spacing" textLength="44" x="1047" y="1702.7179">: int64</text></g><!--class gcp_resource--><g id="elem_gcp_resource"><rect codeLine="85" fill="#3D176E" height="152.9766" id="gcp_resource" rx="2.5" ry="2.5" style="stroke:#000D19;stroke-width:0.5;" width="348" x="1408" y="438.76"/><ellipse cx="1518.75" cy="458.6545" fill="#ADD1B2" rx="11" ry="11" style="stroke:#181818;stroke-width:1.0;"/><path d="M1521.7188,464.2952 Q1521.1406,464.592 1520.5,464.7327 Q1519.8594,464.8889 1519.1563,464.8889 Q1516.6563,464.8889 1515.3281,463.2483 Q1514.0156,461.592 1514.0156,458.467 Q1514.0156,455.342 1515.3281,453.6858 Q1516.6563,452.0295 1519.1563,452.0295 Q1519.8594,452.0295 1520.5,452.1858 Q1521.1563,452.342 1521.7188,452.6389 L1521.7188,455.3577 Q1521.0938,454.7795 1520.5,454.5139 Q1519.9063,454.2327 1519.2813,454.2327 Q1517.9375,454.2327 1517.25,455.3108 Q1516.5625,456.3733 1516.5625,458.467 Q1516.5625,460.5608 1517.25,461.6389 Q1517.9375,462.7014 1519.2813,462.7014 Q1519.9063,462.7014 1520.5,462.4358 Q1521.0938,462.1545 1521.7188,461.5764 L1521.7188,464.2952 Z " fill="#000000"/><text fill="#D9B8FF" font-family="Helvetica" font-size="17" lengthAdjust="spacing" textLength="108" x="1544.25" y="464.5398">gcp_resource</text><line style="stroke:#000D19;stroke-width:0.5;" x1="1409" x2="1755" y1="478.5491" y2="478.5491"/><text fill="#D9B8FF" font-family="sans-serif" font-size="14" font-weight="bold" lengthAdjust="spacing" textLength="151" x="1419" y="500.5442">deprecation_status</text><text fill="#D9B8FF" font-family="sans-serif" font-size="14" lengthAdjust="spacing" textLength="175" x="1570" y="500.5442">: gcp_deprecation_status</text><text fill="#D9B8FF" font-family="sans-serif" font-size="14" font-weight="bold" lengthAdjust="spacing" textLength="89" x="1419" y="526.8411">description</text><text fill="#D9B8FF" font-family="sans-serif" font-size="14" lengthAdjust="spacing" textLength="48" x="1508" y="526.8411">: string</text><text fill="#D9B8FF" font-family="sans-serif" font-size="14" font-weight="bold" lengthAdjust="spacing" textLength="128" x="1419" y="553.1379">label_fingerprint</text><text fill="#D9B8FF" font-family="sans-serif" font-size="14" lengthAdjust="spacing" textLength="48" x="1547" y="553.1379">: string</text><text fill="#D9B8FF" font-family="sans-serif" font-size="14" font-weight="bold" lengthAdjust="spacing" textLength="27" x="1419" y="579.4348">link</text><text fill="#D9B8FF" font-family="sans-serif" font-size="14" lengthAdjust="spacing" textLength="48" x="1446" y="579.4348">: string</text></g><!--class gcp_scaling_schedule_status--><g id="elem_gcp_scaling_schedule_status"><rect codeLine="91" fill="#3D176E" height="126.6797" id="gcp_scaling_schedule_status" rx="2.5" ry="2.5" style="stroke:#000D19;stroke-width:0.5;" width="307" x="1186.5" y="1057.2"/><ellipse cx="1214.55" cy="1077.0945" fill="#ADD1B2" rx="11" ry="11" style="stroke:#181818;stroke-width:1.0;"/><path d="M1217.5188,1082.7352 Q1216.9406,1083.032 1216.3,1083.1727 Q1215.6594,1083.3289 1214.9563,1083.3289 Q1212.4563,1083.3289 1211.1281,1081.6883 Q1209.8156,1080.032 1209.8156,1076.907 Q1209.8156,1073.782 1211.1281,1072.1258 Q1212.4563,1070.4695 1214.9563,1070.4695 Q1215.6594,1070.4695 1216.3,1070.6258 Q1216.9563,1070.782 1217.5188,1071.0789 L1217.5188,1073.7977 Q1216.8938,1073.2195 1216.3,1072.9539 Q1215.7063,1072.6727 1215.0813,1072.6727 Q1213.7375,1072.6727 1213.05,1073.7508 Q1212.3625,1074.8133 1212.3625,1076.907 Q1212.3625,1079.0008 1213.05,1080.0789 Q1213.7375,1081.1414 1215.0813,1081.1414 Q1215.7063,1081.1414 1216.3,1080.8758 Q1216.8938,1080.5945 1217.5188,1080.0164 L1217.5188,1082.7352 Z " fill="#000000"/><text fill="#D9B8FF" font-family="Helvetica" font-size="17" lengthAdjust="spacing" textLength="236" x="1236.45" y="1082.9798">gcp_scaling_schedule_status</text><line style="stroke:#000D19;stroke-width:0.5;" x1="1187.5" x2="1492.5" y1="1096.9891" y2="1096.9891"/><text fill="#D9B8FF" font-family="sans-serif" font-size="14" font-weight="bold" lengthAdjust="spacing" textLength="113" x="1197.5" y="1118.9842">last_start_time</text><text fill="#D9B8FF" font-family="sans-serif" font-size="14" lengthAdjust="spacing" textLength="70" x="1310.5" y="1118.9842">: datetime</text><text fill="#D9B8FF" font-family="sans-serif" font-size="14" font-weight="bold" lengthAdjust="spacing" textLength="120" x="1197.5" y="1145.2811">next_start_time</text><text fill="#D9B8FF" font-family="sans-serif" font-size="14" lengthAdjust="spacing" textLength="70" x="1317.5" y="1145.2811">: datetime</text><text fill="#D9B8FF" font-family="sans-serif" font-size="14" font-weight="bold" lengthAdjust="spacing" textLength="237" x="1197.5" y="1171.5779">scaling_schedule_status_state</text><text fill="#D9B8FF" font-family="sans-serif" font-size="14" lengthAdjust="spacing" textLength="48" x="1434.5" y="1171.5779">: string</text></g><!--class resource--><g id="elem_resource"><rect codeLine="96" fill="#3D176E" height="310.7578" id="resource" rx="2.5" ry="2.5" style="stroke:#000D19;stroke-width:0.5;" width="227" x="1314.5" y="7"/><ellipse cx="1383.25" cy="26.8945" fill="#ADD1B2" rx="11" ry="11" style="stroke:#181818;stroke-width:1.0;"/><path d="M1386.2188,32.5352 Q1385.6406,32.832 1385,32.9727 Q1384.3594,33.1289 1383.6563,33.1289 Q1381.1563,33.1289 1379.8281,31.4883 Q1378.5156,29.832 1378.5156,26.707 Q1378.5156,23.582 1379.8281,21.9258 Q1381.1563,20.2695 1383.6563,20.2695 Q1384.3594,20.2695 1385,20.4258 Q1385.6563,20.582 1386.2188,20.8789 L1386.2188,23.5977 Q1385.5938,23.0195 1385,22.7539 Q1384.4063,22.4727 1383.7813,22.4727 Q1382.4375,22.4727 1381.75,23.5508 Q1381.0625,24.6133 1381.0625,26.707 Q1381.0625,28.8008 1381.75,29.8789 Q1382.4375,30.9414 1383.7813,30.9414 Q1384.4063,30.9414 1385,30.6758 Q1385.5938,30.3945 1386.2188,29.8164 L1386.2188,32.5352 Z " fill="#000000"/><text fill="#D9B8FF" font-family="Helvetica" font-size="17" lengthAdjust="spacing" textLength="71" x="1408.75" y="32.7798">resource</text><line style="stroke:#000D19;stroke-width:0.5;" x1="1315.5" x2="1540.5" y1="46.7891" y2="46.7891"/><text fill="#D9B8FF" font-family="sans-serif" font-size="14" font-weight="bold" lengthAdjust="spacing" textLength="29" x="1325.5" y="68.7842">age</text><text fill="#D9B8FF" font-family="sans-serif" font-size="14" lengthAdjust="spacing" textLength="66" x="1354.5" y="68.7842">: duration</text><text fill="#D9B8FF" font-family="sans-serif" font-size="14" font-weight="bold" lengthAdjust="spacing" textLength="43" x="1325.5" y="95.0811">atime</text><text fill="#D9B8FF" font-family="sans-serif" font-size="14" lengthAdjust="spacing" textLength="70" x="1368.5" y="95.0811">: datetime</text><text fill="#D9B8FF" font-family="sans-serif" font-size="14" font-weight="bold" lengthAdjust="spacing" textLength="43" x="1325.5" y="121.3779">ctime</text><text fill="#D9B8FF" font-family="sans-serif" font-size="14" lengthAdjust="spacing" textLength="70" x="1368.5" y="121.3779">: datetime</text><text fill="#D9B8FF" font-family="sans-serif" font-size="14" font-weight="bold" lengthAdjust="spacing" textLength="14" x="1325.5" y="147.6748">id</text><text fill="#D9B8FF" font-family="sans-serif" font-size="14" lengthAdjust="spacing" textLength="48" x="1339.5" y="147.6748">: string</text><text fill="#D9B8FF" font-family="sans-serif" font-size="14" font-weight="bold" lengthAdjust="spacing" textLength="33" x="1325.5" y="173.9717">kind</text><text fill="#D9B8FF" font-family="sans-serif" font-size="14" lengthAdjust="spacing" textLength="48" x="1358.5" y="173.9717">: string</text><text fill="#D9B8FF" font-family="sans-serif" font-size="14" font-weight="bold" lengthAdjust="spacing" textLength="90" x="1325.5" y="200.2686">last_access</text><text fill="#D9B8FF" font-family="sans-serif" font-size="14" lengthAdjust="spacing" textLength="66" x="1415.5" y="200.2686">: duration</text><text fill="#D9B8FF" font-family="sans-serif" font-size="14" font-weight="bold" lengthAdjust="spacing" textLength="90" x="1325.5" y="226.5654">last_update</text><text fill="#D9B8FF" font-family="sans-serif" font-size="14" lengthAdjust="spacing" textLength="66" x="1415.5" y="226.5654">: duration</text><text fill="#D9B8FF" font-family="sans-serif" font-size="14" font-weight="bold" lengthAdjust="spacing" textLength="48" x="1325.5" y="252.8623">mtime</text><text fill="#D9B8FF" font-family="sans-serif" font-size="14" lengthAdjust="spacing" textLength="70" x="1373.5" y="252.8623">: datetime</text><text fill="#D9B8FF" font-family="sans-serif" font-size="14" font-weight="bold" lengthAdjust="spacing" textLength="43" x="1325.5" y="279.1592">name</text><text fill="#D9B8FF" font-family="sans-serif" font-size="14" lengthAdjust="spacing" textLength="48" x="1368.5" y="279.1592">: string</text><text fill="#D9B8FF" font-family="sans-serif" font-size="14" font-weight="bold" lengthAdjust="spacing" textLength="34" x="1325.5" y="305.4561">tags</text><text fill="#D9B8FF" font-family="sans-serif" font-size="14" lengthAdjust="spacing" textLength="171" x="1359.5" y="305.4561">: dictionary[string, string]</text></g><!--reverse link resource to autoscaling_group--><g id="link_resource_autoscaling_group"><path codeLine="108" d="M1353.8462,334.5574 C1330.9262,387.4774 1314.05,426.42 1297.41,464.83 " fill="none" id="resource-backto-autoscaling_group" style="stroke:#FFAF37;stroke-width:2.0;"/><polygon fill="none" points="1361,318.04,1348.3404,332.1728,1359.352,336.942,1361,318.04" style="stroke:#FFAF37;stroke-width:2.0;"/></g><!--reverse link autoscaling_group to gcp_autoscaler--><g id="link_autoscaling_group_gcp_autoscaler"><path codeLine="109" d="M1276,583.84 C1276,623.68 1276,662.96 1276,712.51 " fill="none" id="autoscaling_group-backto-gcp_autoscaler" style="stroke:#FFAF37;stroke-width:2.0;"/><polygon fill="none" points="1276,565.84,1270,583.84,1282,583.84,1276,565.84" style="stroke:#FFAF37;stroke-width:2.0;"/></g><!--link gcp_autoscaler to gcp_autoscaler_status_details--><g id="link_gcp_autoscaler_gcp_autoscaler_status_details"><path codeLine="110" d="M957.52,851.95 C825.4,875.46 673.71,914.31 547,978.31 C502.04,1001.02 463.6466,1034.7618 433.4266,1065.6418 " fill="none" id="gcp_autoscaler-to-gcp_autoscaler_status_details" style="stroke:#FFAF37;stroke-width:2.0;"/><polygon fill="#FFAF37" points="429.23,1069.93,438.3837,1066.2954,432.7271,1066.3565,432.666,1060.7,429.23,1069.93" style="stroke:#FFAF37;stroke-width:2.0;"/></g><!--link gcp_autoscaler to gcp_autoscaling_policy--><g id="link_gcp_autoscaler_gcp_autoscaling_policy"><path codeLine="111" d="M1135.07,918.69 C1108.76,937.76 1085.6983,954.479 1058.0883,974.489 " fill="none" id="gcp_autoscaler-to-gcp_autoscaling_policy" style="stroke:#FFAF37;stroke-width:2.0;"/><polygon fill="#FFAF37" points="1053.23,978.01,1062.8647,975.9674,1057.2786,975.0759,1058.1701,969.4897,1053.23,978.01" style="stroke:#FFAF37;stroke-width:2.0;"/></g><!--link gcp_autoscaler to gcp_deprecation_status--><g id="link_gcp_autoscaler_gcp_deprecation_status"><path codeLine="112" d="M1433.8,918.64 C1460.26,937.59 1486.92,957.88 1511,978.31 C1529.82,994.28 1544.672,1008.253 1562.342,1026.213 " fill="none" id="gcp_autoscaler-to-gcp_deprecation_status" style="stroke:#FFAF37;stroke-width:2.0;"/><polygon fill="#FFAF37" points="1566.55,1030.49,1563.0894,1021.2691,1563.0434,1026.9258,1557.3867,1026.8798,1566.55,1030.49" style="stroke:#FFAF37;stroke-width:2.0;"/></g><!--reverse link gcp_resource to gcp_autoscaler--><g id="link_gcp_resource_gcp_autoscaler"><path codeLine="113" d="M1491.5,604.4638 C1453.96,641.0538 1421.24,672.95 1380.68,712.48 " fill="none" id="gcp_resource-backto-gcp_autoscaler" style="stroke:#FFAF37;stroke-width:2.0;"/><polygon fill="none" points="1504.39,591.9,1487.3121,600.1671,1495.6879,608.7604,1504.39,591.9" style="stroke:#FFAF37;stroke-width:2.0;"/></g><!--link gcp_autoscaler to gcp_scaling_schedule_status--><g id="link_gcp_autoscaler_gcp_scaling_schedule_status"><path codeLine="114" d="M1297.58,918.69 C1307.27,964.56 1317.1508,1011.3394 1325.5708,1051.2294 " fill="none" id="gcp_autoscaler-to-gcp_scaling_schedule_status" style="stroke:#FFAF37;stroke-width:2.0;"/><polygon fill="#FFAF37" points="1326.81,1057.1,1328.865,1047.4679,1325.7774,1052.2078,1321.0375,1049.1202,1326.81,1057.1" style="stroke:#FFAF37;stroke-width:2.0;"/></g><!--link gcp_autoscaling_policy to gcp_autoscaling_policy_cpu_utilization--><g id="link_gcp_autoscaling_policy_gcp_autoscaling_policy_cpu_utilization"><path codeLine="115" d="M564.4,1255.51 C558.56,1257.96 552.75,1260.39 547,1262.77 C476.83,1291.82 456.48,1292.09 387,1322.77 C351.32,1338.52 318.3142,1354.8235 284.9042,1372.1835 " fill="none" id="gcp_autoscaling_policy-to-gcp_autoscaling_policy_cpu_utilization" style="stroke:#FFAF37;stroke-width:2.0;"/><polygon fill="#FFAF37" points="279.58,1374.95,289.4105,1374.3498,284.0168,1372.6446,285.7219,1367.2509,279.58,1374.95" style="stroke:#FFAF37;stroke-width:2.0;"/></g><!--link gcp_autoscaling_policy to gcp_autoscaling_policy_custom_metric_utilization--><g id="link_gcp_autoscaling_policy_gcp_autoscaling_policy_custom_metric_utilization"><path codeLine="116" d="M753.08,1262.85 C734.63,1287.69 719.486,1308.0721 702.496,1330.9621 " fill="none" id="gcp_autoscaling_policy-to-gcp_autoscaling_policy_custom_metric_utilization" style="stroke:#FFAF37;stroke-width:2.0;"/><polygon fill="#FFAF37" points="698.92,1335.78,707.496,1330.9372,701.9,1331.7651,701.0722,1326.1692,698.92,1335.78" style="stroke:#FFAF37;stroke-width:2.0;"/></g><!--link gcp_autoscaling_policy to gcp_autoscaling_policy_scale_in_control--><g id="link_gcp_autoscaling_policy_gcp_autoscaling_policy_scale_in_control"><path codeLine="117" d="M962.92,1262.85 C992.83,1303.12 1019.8734,1339.5326 1042.7034,1370.2826 " fill="none" id="gcp_autoscaling_policy-to-gcp_autoscaling_policy_scale_in_control" style="stroke:#FFAF37;stroke-width:2.0;"/><polygon fill="#FFAF37" points="1046.28,1375.1,1044.1266,1365.4894,1043.2995,1371.0855,1037.7034,1370.2583,1046.28,1375.1" style="stroke:#FFAF37;stroke-width:2.0;"/></g><!--link gcp_autoscaling_policy to gcp_autoscaling_policy_scaling_schedule--><g id="link_gcp_autoscaling_policy_gcp_autoscaling_policy_scaling_schedule"><path codeLine="118" d="M1152,1258.57 C1197.27,1279.92 1243.43,1301.84 1287,1322.77 C1292.69,1325.5 1293.0451,1325.6749 1298.8751,1328.4849 " fill="none" id="gcp_autoscaling_policy-to-gcp_autoscaling_policy_scaling_schedule" style="stroke:#FFAF37;stroke-width:2.0;"/><polygon fill="#FFAF37" points="1304.28,1331.09,1297.9093,1323.579,1299.7759,1328.9191,1294.4358,1330.7856,1304.28,1331.09" style="stroke:#FFAF37;stroke-width:2.0;"/></g><!--link gcp_autoscaling_policy_scale_in_control to gcp_fixed_or_percent--><g id="link_gcp_autoscaling_policy_scale_in_control_gcp_fixed_or_percent"><path codeLine="119" d="M1083,1476.02 C1083,1509.02 1083,1546.68 1083,1582.1 " fill="none" id="gcp_autoscaling_policy_scale_in_control-to-gcp_fixed_or_percent" style="stroke:#FFAF37;stroke-width:2.0;"/><polygon fill="#FFAF37" points="1083,1588.1,1087,1579.1,1083,1583.1,1079,1579.1,1083,1588.1" style="stroke:#FFAF37;stroke-width:2.0;"/></g><!--link gcp_resource to gcp_deprecation_status--><g id="link_gcp_resource_gcp_deprecation_status"><path codeLine="120" d="M1594.26,592.16 C1599.87,628.57 1606.29,672.84 1611,712.74 C1623.87,821.88 1633.8954,942.0072 1640.1654,1024.5272 " fill="none" id="gcp_resource-to-gcp_deprecation_status" style="stroke:#FFAF37;stroke-width:2.0;"/><polygon fill="#FFAF37" points="1640.62,1030.51,1643.9266,1021.2328,1640.2412,1025.5244,1635.9496,1021.8389,1640.62,1030.51" style="stroke:#FFAF37;stroke-width:2.0;"/></g><!--reverse link resource to gcp_resource--><g id="link_resource_gcp_resource"><path codeLine="121" d="M1503.1153,334.5218 C1521.4253,376.2318 1533.19,403.04 1548.67,438.31 " fill="none" id="resource-backto-gcp_resource" style="stroke:#FFAF37;stroke-width:2.0;"/><polygon fill="none" points="1495.88,318.04,1497.6213,336.9336,1508.6092,332.1101,1495.88,318.04" style="stroke:#FFAF37;stroke-width:2.0;"/></g><!--SRC=[dLPBRzGm4BxlhuZ4hMAbbbSfGaXG2S458U26aEMr9rchZXri1ze2_vsnatHj9yv2JzcT-URzZUszu511sxcRgeLs1yPkx9LG7JMqhLuRetzUQgbDzQ2kQVtuF5U-rSeT1NoWBLJlGFu09nZD4L_sWbqfiBPw5AdUK7RL6DqhFhXtXYgBAb0kGbrAQkrhvupOzGwYPFZ5xdbTvyZSwOF7_Epy6SnWsd0m8-Jqz9IVNUIGew5Mwxv3V1QtK9t5JVkW7SpId8K8gDKiFI9ASbRef2_c-95oBbHJFOraduQSZ0AJo3_lATS_FRgcqiPXh0C3sjrqS3ch2YwUy_fy4Vo-1DumtxgAzavRHYM691xMLRys9oSjlIOMEtfoyg8IoZrxucL2PR8_eu-6TMJoW_Lu1uU_98xGQIdOZVSGsnmqgQK1fjiM50S-ooQ2JIuismFl9H3hgEkjHtF1dD2Acfkl5gcjceSXSC7YM-RtpirWkwGb71mLqkObpG1VC-UEcWPSv7ovcPcNOJYuuRI1934_wYFE3bqENfZMaY3N5Ed028qT1XOtc7KzwPsGufRw5fPdHZAaj-sjqorf0RDXiSwkkIaPXTP9JJdPKKaLypPPPbptEmaZSLNV8dKwT4fjJk2YJlEqeQ7z12qOhhRHSYNn73fQnmHR8sF1Osp-xSX0yn640NS6GiGVu7kwrpofBq97N1pxU2nQQL8XRYqadZv9i06PzXS_eMj8SCM0O3ZHA5nsbynpDSqbDVclJPZDxd3wUGNtcfWktaijhb6XZTyRvYzHt3xH0i5J6zSfNQD_Y1xFEKJdO9aHtKJjkuvnOIbM7SQum-K5wbUDzsOeFrlVDcJ-lHV8WaN6Jp7JOyGNSgjLgOCSa5Li31XEfZ5b2GvIWatGJAntLdjm8lJvKGRJz0yamH2bLF8n38SQbQoNKz2fr02D1QF9yfmCMDsZVgmiBtYYmLopCZj9To0nPTM0wL2MbeaSk2fKMRYfGcu8Slw_GTBZtC9YOEd-DseLNAze2tv9gUD9KyRBPwAUboo4O0ioaP81toiywnEMH1d36owB43HznyVq8asxL3njCsBJfdG63rz_nDuL-VBtThkTFuqsyyVIW4plx4ts7jfkNwtVwiSCelTH0Rb0neJA_vDcWHgRmbkYdEpiON0F3wMRvXw-PjVq_Lp4hTdywwqo-PpT7ScKLgQvCCb9jFaB]--></g></svg>