<?xml version="1.0" encoding="us-ascii" standalone="no"?><svg xmlns="http://www.w3.org/2000/svg" xmlns:xlink="http://www.w3.org/1999/xlink" contentStyleType="text/css" height="352px" preserveAspectRatio="none" style="width:8010px;height:352px;" version="1.1" viewBox="0 0 8010 352" width="8010px" zoomAndPan="magnify"><defs/><g><!--class aws_athena_work_group--><g id="elem_aws_athena_work_group"><rect codeLine="23" fill="#3D176E" height="39.7891" id="aws_athena_work_group" rx="2.5" ry="2.5" style="stroke:#000D19;stroke-width:0.5;" width="251" x="780.47" y="7"/><ellipse cx="795.47" cy="26.8945" fill="#ADD1B2" rx="11" ry="11" style="stroke:#181818;stroke-width:1.0;"/><path d="M798.4388,32.5352 Q797.8606,32.832 797.22,32.9727 Q796.5794,33.1289 795.8763,33.1289 Q793.3763,33.1289 792.0481,31.4883 Q790.7356,29.832 790.7356,26.707 Q790.7356,23.582 792.0481,21.9258 Q793.3763,20.2695 795.8763,20.2695 Q796.5794,20.2695 797.22,20.4258 Q797.8763,20.582 798.4388,20.8789 L798.4388,23.5977 Q797.8138,23.0195 797.22,22.7539 Q796.6263,22.4727 796.0013,22.4727 Q794.6575,22.4727 793.97,23.5508 Q793.2825,24.6133 793.2825,26.707 Q793.2825,28.8008 793.97,29.8789 Q794.6575,30.9414 796.0013,30.9414 Q796.6263,30.9414 797.22,30.6758 Q797.8138,30.3945 798.4388,29.8164 L798.4388,32.5352 Z " fill="#000000"/><text fill="#D9B8FF" font-family="Helvetica" font-size="17" lengthAdjust="spacing" textLength="209" x="814.47" y="32.7798">aws_athena_work_group</text></g><!--class aws_bedrock_agent--><g id="elem_aws_bedrock_agent"><rect codeLine="26" fill="#3D176E" height="39.7891" id="aws_bedrock_agent" rx="2.5" ry="2.5" style="stroke:#000D19;stroke-width:0.5;" width="206" x="81.97" y="7"/><ellipse cx="96.97" cy="26.8945" fill="#ADD1B2" rx="11" ry="11" style="stroke:#181818;stroke-width:1.0;"/><path d="M99.9388,32.5352 Q99.3606,32.832 98.72,32.9727 Q98.0794,33.1289 97.3763,33.1289 Q94.8763,33.1289 93.5481,31.4883 Q92.2356,29.832 92.2356,26.707 Q92.2356,23.582 93.5481,21.9258 Q94.8763,20.2695 97.3763,20.2695 Q98.0794,20.2695 98.72,20.4258 Q99.3763,20.582 99.9388,20.8789 L99.9388,23.5977 Q99.3138,23.0195 98.72,22.7539 Q98.1263,22.4727 97.5013,22.4727 Q96.1575,22.4727 95.47,23.5508 Q94.7825,24.6133 94.7825,26.707 Q94.7825,28.8008 95.47,29.8789 Q96.1575,30.9414 97.5013,30.9414 Q98.1263,30.9414 98.72,30.6758 Q99.3138,30.3945 99.9388,29.8164 L99.9388,32.5352 Z " fill="#000000"/><text fill="#D9B8FF" font-family="Helvetica" font-size="17" lengthAdjust="spacing" textLength="164" x="115.97" y="32.7798">aws_bedrock_agent</text></g><!--class aws_bedrock_agent_flow--><g id="elem_aws_bedrock_agent_flow"><rect codeLine="29" fill="#3D176E" height="39.7891" id="aws_bedrock_agent_flow" rx="2.5" ry="2.5" style="stroke:#000D19;stroke-width:0.5;" width="251" x="499.47" y="106.79"/><ellipse cx="514.47" cy="126.6845" fill="#ADD1B2" rx="11" ry="11" style="stroke:#181818;stroke-width:1.0;"/><path d="M517.4388,132.3252 Q516.8606,132.622 516.22,132.7627 Q515.5794,132.9189 514.8763,132.9189 Q512.3763,132.9189 511.0481,131.2783 Q509.7356,129.622 509.7356,126.497 Q509.7356,123.372 511.0481,121.7158 Q512.3763,120.0595 514.8763,120.0595 Q515.5794,120.0595 516.22,120.2158 Q516.8763,120.372 517.4388,120.6689 L517.4388,123.3877 Q516.8138,122.8095 516.22,122.5439 Q515.6263,122.2627 515.0013,122.2627 Q513.6575,122.2627 512.97,123.3408 Q512.2825,124.4033 512.2825,126.497 Q512.2825,128.5908 512.97,129.6689 Q513.6575,130.7314 515.0013,130.7314 Q515.6263,130.7314 516.22,130.4658 Q516.8138,130.1845 517.4388,129.6064 L517.4388,132.3252 Z " fill="#000000"/><text fill="#D9B8FF" font-family="Helvetica" font-size="17" lengthAdjust="spacing" textLength="209" x="533.47" y="132.5698">aws_bedrock_agent_flow</text></g><!--class aws_bedrock_agent_flow_version--><g id="elem_aws_bedrock_agent_flow_version"><rect codeLine="32" fill="#3D176E" height="39.7891" id="aws_bedrock_agent_flow_version" rx="2.5" ry="2.5" style="stroke:#000D19;stroke-width:0.5;" width="321" x="499.47" y="206.58"/><ellipse cx="514.47" cy="226.4745" fill="#ADD1B2" rx="11" ry="11" style="stroke:#181818;stroke-width:1.0;"/><path d="M517.4388,232.1152 Q516.8606,232.412 516.22,232.5527 Q515.5794,232.7089 514.8763,232.7089 Q512.3763,232.7089 511.0481,231.0683 Q509.7356,229.412 509.7356,226.287 Q509.7356,223.162 511.0481,221.5058 Q512.3763,219.8495 514.8763,219.8495 Q515.5794,219.8495 516.22,220.0058 Q516.8763,220.162 517.4388,220.4589 L517.4388,223.1777 Q516.8138,222.5995 516.22,222.3339 Q515.6263,222.0527 515.0013,222.0527 Q513.6575,222.0527 512.97,223.1308 Q512.2825,224.1933 512.2825,226.287 Q512.2825,228.3808 512.97,229.4589 Q513.6575,230.5214 515.0013,230.5214 Q515.6263,230.5214 516.22,230.2558 Q516.8138,229.9745 517.4388,229.3964 L517.4388,232.1152 Z " fill="#000000"/><text fill="#D9B8FF" font-family="Helvetica" font-size="17" lengthAdjust="spacing" textLength="279" x="533.47" y="232.3598">aws_bedrock_agent_flow_version</text></g><!--class aws_bedrock_agent_prompt--><g id="elem_aws_bedrock_agent_prompt"><rect codeLine="35" fill="#3D176E" height="39.7891" id="aws_bedrock_agent_prompt" rx="2.5" ry="2.5" style="stroke:#000D19;stroke-width:0.5;" width="276" x="3092.97" y="7"/><ellipse cx="3107.97" cy="26.8945" fill="#ADD1B2" rx="11" ry="11" style="stroke:#181818;stroke-width:1.0;"/><path d="M3110.9388,32.5352 Q3110.3606,32.832 3109.72,32.9727 Q3109.0794,33.1289 3108.3763,33.1289 Q3105.8763,33.1289 3104.5481,31.4883 Q3103.2356,29.832 3103.2356,26.707 Q3103.2356,23.582 3104.5481,21.9258 Q3105.8763,20.2695 3108.3763,20.2695 Q3109.0794,20.2695 3109.72,20.4258 Q3110.3763,20.582 3110.9388,20.8789 L3110.9388,23.5977 Q3110.3138,23.0195 3109.72,22.7539 Q3109.1263,22.4727 3108.5013,22.4727 Q3107.1575,22.4727 3106.47,23.5508 Q3105.7825,24.6133 3105.7825,26.707 Q3105.7825,28.8008 3106.47,29.8789 Q3107.1575,30.9414 3108.5013,30.9414 Q3109.1263,30.9414 3109.72,30.6758 Q3110.3138,30.3945 3110.9388,29.8164 L3110.9388,32.5352 Z " fill="#000000"/><text fill="#D9B8FF" font-family="Helvetica" font-size="17" lengthAdjust="spacing" textLength="234" x="3126.97" y="32.7798">aws_bedrock_agent_prompt</text></g><!--class aws_bedrock_agent_version--><g id="elem_aws_bedrock_agent_version"><rect codeLine="38" fill="#3D176E" height="39.7891" id="aws_bedrock_agent_version" rx="2.5" ry="2.5" style="stroke:#000D19;stroke-width:0.5;" width="276" x="46.97" y="106.79"/><ellipse cx="61.97" cy="126.6845" fill="#ADD1B2" rx="11" ry="11" style="stroke:#181818;stroke-width:1.0;"/><path d="M64.9388,132.3252 Q64.3606,132.622 63.72,132.7627 Q63.0794,132.9189 62.3763,132.9189 Q59.8763,132.9189 58.5481,131.2783 Q57.2356,129.622 57.2356,126.497 Q57.2356,123.372 58.5481,121.7158 Q59.8763,120.0595 62.3763,120.0595 Q63.0794,120.0595 63.72,120.2158 Q64.3763,120.372 64.9388,120.6689 L64.9388,123.3877 Q64.3138,122.8095 63.72,122.5439 Q63.1263,122.2627 62.5013,122.2627 Q61.1575,122.2627 60.47,123.3408 Q59.7825,124.4033 59.7825,126.497 Q59.7825,128.5908 60.47,129.6689 Q61.1575,130.7314 62.5013,130.7314 Q63.1263,130.7314 63.72,130.4658 Q64.3138,130.1845 64.9388,129.6064 L64.9388,132.3252 Z " fill="#000000"/><text fill="#D9B8FF" font-family="Helvetica" font-size="17" lengthAdjust="spacing" textLength="234" x="80.97" y="132.5698">aws_bedrock_agent_version</text></g><!--class aws_bedrock_custom_model--><g id="elem_aws_bedrock_custom_model"><rect codeLine="41" fill="#3D176E" height="39.7891" id="aws_bedrock_custom_model" rx="2.5" ry="2.5" style="stroke:#000D19;stroke-width:0.5;" width="280" x="3102.97" y="106.79"/><ellipse cx="3117.97" cy="126.6845" fill="#ADD1B2" rx="11" ry="11" style="stroke:#181818;stroke-width:1.0;"/><path d="M3120.9388,132.3252 Q3120.3606,132.622 3119.72,132.7627 Q3119.0794,132.9189 3118.3763,132.9189 Q3115.8763,132.9189 3114.5481,131.2783 Q3113.2356,129.622 3113.2356,126.497 Q3113.2356,123.372 3114.5481,121.7158 Q3115.8763,120.0595 3118.3763,120.0595 Q3119.0794,120.0595 3119.72,120.2158 Q3120.3763,120.372 3120.9388,120.6689 L3120.9388,123.3877 Q3120.3138,122.8095 3119.72,122.5439 Q3119.1263,122.2627 3118.5013,122.2627 Q3117.1575,122.2627 3116.47,123.3408 Q3115.7825,124.4033 3115.7825,126.497 Q3115.7825,128.5908 3116.47,129.6689 Q3117.1575,130.7314 3118.5013,130.7314 Q3119.1263,130.7314 3119.72,130.4658 Q3120.3138,130.1845 3120.9388,129.6064 L3120.9388,132.3252 Z " fill="#000000"/><text fill="#D9B8FF" font-family="Helvetica" font-size="17" lengthAdjust="spacing" textLength="238" x="3136.97" y="132.5698">aws_bedrock_custom_model</text></g><!--class aws_bedrock_evaluation_job--><g id="elem_aws_bedrock_evaluation_job"><rect codeLine="44" fill="#3D176E" height="39.7891" id="aws_bedrock_evaluation_job" rx="2.5" ry="2.5" style="stroke:#000D19;stroke-width:0.5;" width="281" x="3416.47" y="206.58"/><ellipse cx="3431.47" cy="226.4745" fill="#ADD1B2" rx="11" ry="11" style="stroke:#181818;stroke-width:1.0;"/><path d="M3434.4388,232.1152 Q3433.8606,232.412 3433.22,232.5527 Q3432.5794,232.7089 3431.8763,232.7089 Q3429.3763,232.7089 3428.0481,231.0683 Q3426.7356,229.412 3426.7356,226.287 Q3426.7356,223.162 3428.0481,221.5058 Q3429.3763,219.8495 3431.8763,219.8495 Q3432.5794,219.8495 3433.22,220.0058 Q3433.8763,220.162 3434.4388,220.4589 L3434.4388,223.1777 Q3433.8138,222.5995 3433.22,222.3339 Q3432.6263,222.0527 3432.0013,222.0527 Q3430.6575,222.0527 3429.97,223.1308 Q3429.2825,224.1933 3429.2825,226.287 Q3429.2825,228.3808 3429.97,229.4589 Q3430.6575,230.5214 3432.0013,230.5214 Q3432.6263,230.5214 3433.22,230.2558 Q3433.8138,229.9745 3434.4388,229.3964 L3434.4388,232.1152 Z " fill="#000000"/><text fill="#D9B8FF" font-family="Helvetica" font-size="17" lengthAdjust="spacing" textLength="239" x="3450.47" y="232.3598">aws_bedrock_evaluation_job</text></g><!--class aws_bedrock_guardrail--><g id="elem_aws_bedrock_guardrail"><rect codeLine="47" fill="#3D176E" height="39.7891" id="aws_bedrock_guardrail" rx="2.5" ry="2.5" style="stroke:#000D19;stroke-width:0.5;" width="233" x="19.47" y="206.58"/><ellipse cx="34.47" cy="226.4745" fill="#ADD1B2" rx="11" ry="11" style="stroke:#181818;stroke-width:1.0;"/><path d="M37.4388,232.1152 Q36.8606,232.412 36.22,232.5527 Q35.5794,232.7089 34.8763,232.7089 Q32.3763,232.7089 31.0481,231.0683 Q29.7356,229.412 29.7356,226.287 Q29.7356,223.162 31.0481,221.5058 Q32.3763,219.8495 34.8763,219.8495 Q35.5794,219.8495 36.22,220.0058 Q36.8763,220.162 37.4388,220.4589 L37.4388,223.1777 Q36.8138,222.5995 36.22,222.3339 Q35.6263,222.0527 35.0013,222.0527 Q33.6575,222.0527 32.97,223.1308 Q32.2825,224.1933 32.2825,226.287 Q32.2825,228.3808 32.97,229.4589 Q33.6575,230.5214 35.0013,230.5214 Q35.6263,230.5214 36.22,230.2558 Q36.8138,229.9745 37.4388,229.3964 L37.4388,232.1152 Z " fill="#000000"/><text fill="#D9B8FF" font-family="Helvetica" font-size="17" lengthAdjust="spacing" textLength="191" x="53.47" y="232.3598">aws_bedrock_guardrail</text></g><!--class aws_bedrock_model_customization_job--><g id="elem_aws_bedrock_model_customization_job"><rect codeLine="50" fill="#3D176E" height="39.7891" id="aws_bedrock_model_customization_job" rx="2.5" ry="2.5" style="stroke:#000D19;stroke-width:0.5;" width="370" x="2939.97" y="206.58"/><ellipse cx="2954.97" cy="226.4745" fill="#ADD1B2" rx="11" ry="11" style="stroke:#181818;stroke-width:1.0;"/><path d="M2957.9388,232.1152 Q2957.3606,232.412 2956.72,232.5527 Q2956.0794,232.7089 2955.3763,232.7089 Q2952.8763,232.7089 2951.5481,231.0683 Q2950.2356,229.412 2950.2356,226.287 Q2950.2356,223.162 2951.5481,221.5058 Q2952.8763,219.8495 2955.3763,219.8495 Q2956.0794,219.8495 2956.72,220.0058 Q2957.3763,220.162 2957.9388,220.4589 L2957.9388,223.1777 Q2957.3138,222.5995 2956.72,222.3339 Q2956.1263,222.0527 2955.5013,222.0527 Q2954.1575,222.0527 2953.47,223.1308 Q2952.7825,224.1933 2952.7825,226.287 Q2952.7825,228.3808 2953.47,229.4589 Q2954.1575,230.5214 2955.5013,230.5214 Q2956.1263,230.5214 2956.72,230.2558 Q2957.3138,229.9745 2957.9388,229.3964 L2957.9388,232.1152 Z " fill="#000000"/><text fill="#D9B8FF" font-family="Helvetica" font-size="17" lengthAdjust="spacing" textLength="328" x="2973.97" y="232.3598">aws_bedrock_model_customization_job</text></g><!--class aws_cloud_trail--><g id="elem_aws_cloud_trail"><rect codeLine="53" fill="#3D176E" height="39.7891" id="aws_cloud_trail" rx="2.5" ry="2.5" style="stroke:#000D19;stroke-width:0.5;" width="171" x="2461.47" y="106.79"/><ellipse cx="2476.47" cy="126.6845" fill="#ADD1B2" rx="11" ry="11" style="stroke:#181818;stroke-width:1.0;"/><path d="M2479.4388,132.3252 Q2478.8606,132.622 2478.22,132.7627 Q2477.5794,132.9189 2476.8763,132.9189 Q2474.3763,132.9189 2473.0481,131.2783 Q2471.7356,129.622 2471.7356,126.497 Q2471.7356,123.372 2473.0481,121.7158 Q2474.3763,120.0595 2476.8763,120.0595 Q2477.5794,120.0595 2478.22,120.2158 Q2478.8763,120.372 2479.4388,120.6689 L2479.4388,123.3877 Q2478.8138,122.8095 2478.22,122.5439 Q2477.6263,122.2627 2477.0013,122.2627 Q2475.6575,122.2627 2474.97,123.3408 Q2474.2825,124.4033 2474.2825,126.497 Q2474.2825,128.5908 2474.97,129.6689 Q2475.6575,130.7314 2477.0013,130.7314 Q2477.6263,130.7314 2478.22,130.4658 Q2478.8138,130.1845 2479.4388,129.6064 L2479.4388,132.3252 Z " fill="#000000"/><text fill="#D9B8FF" font-family="Helvetica" font-size="17" lengthAdjust="spacing" textLength="129" x="2495.47" y="132.5698">aws_cloud_trail</text></g><!--class aws_cloudwatch_log_group--><g id="elem_aws_cloudwatch_log_group"><rect codeLine="56" fill="#3D176E" height="39.7891" id="aws_cloudwatch_log_group" rx="2.5" ry="2.5" style="stroke:#000D19;stroke-width:0.5;" width="270" x="3732.97" y="206.58"/><ellipse cx="3747.97" cy="226.4745" fill="#ADD1B2" rx="11" ry="11" style="stroke:#181818;stroke-width:1.0;"/><path d="M3750.9388,232.1152 Q3750.3606,232.412 3749.72,232.5527 Q3749.0794,232.7089 3748.3763,232.7089 Q3745.8763,232.7089 3744.5481,231.0683 Q3743.2356,229.412 3743.2356,226.287 Q3743.2356,223.162 3744.5481,221.5058 Q3745.8763,219.8495 3748.3763,219.8495 Q3749.0794,219.8495 3749.72,220.0058 Q3750.3763,220.162 3750.9388,220.4589 L3750.9388,223.1777 Q3750.3138,222.5995 3749.72,222.3339 Q3749.1263,222.0527 3748.5013,222.0527 Q3747.1575,222.0527 3746.47,223.1308 Q3745.7825,224.1933 3745.7825,226.287 Q3745.7825,228.3808 3746.47,229.4589 Q3747.1575,230.5214 3748.5013,230.5214 Q3749.1263,230.5214 3749.72,230.2558 Q3750.3138,229.9745 3750.9388,229.3964 L3750.9388,232.1152 Z " fill="#000000"/><text fill="#D9B8FF" font-family="Helvetica" font-size="17" lengthAdjust="spacing" textLength="228" x="3766.97" y="232.3598">aws_cloudwatch_log_group</text></g><!--class aws_cognito_user_pool--><g id="elem_aws_cognito_user_pool"><rect codeLine="59" fill="#3D176E" height="39.7891" id="aws_cognito_user_pool" rx="2.5" ry="2.5" style="stroke:#000D19;stroke-width:0.5;" width="234" x="784.97" y="106.79"/><ellipse cx="799.97" cy="126.6845" fill="#ADD1B2" rx="11" ry="11" style="stroke:#181818;stroke-width:1.0;"/><path d="M802.9388,132.3252 Q802.3606,132.622 801.72,132.7627 Q801.0794,132.9189 800.3763,132.9189 Q797.8763,132.9189 796.5481,131.2783 Q795.2356,129.622 795.2356,126.497 Q795.2356,123.372 796.5481,121.7158 Q797.8763,120.0595 800.3763,120.0595 Q801.0794,120.0595 801.72,120.2158 Q802.3763,120.372 802.9388,120.6689 L802.9388,123.3877 Q802.3138,122.8095 801.72,122.5439 Q801.1263,122.2627 800.5013,122.2627 Q799.1575,122.2627 798.47,123.3408 Q797.7825,124.4033 797.7825,126.497 Q797.7825,128.5908 798.47,129.6689 Q799.1575,130.7314 800.5013,130.7314 Q801.1263,130.7314 801.72,130.4658 Q802.3138,130.1845 802.9388,129.6064 L802.9388,132.3252 Z " fill="#000000"/><text fill="#D9B8FF" font-family="Helvetica" font-size="17" lengthAdjust="spacing" textLength="192" x="818.97" y="132.5698">aws_cognito_user_pool</text></g><!--class aws_dynamodb_global_table--><g id="elem_aws_dynamodb_global_table"><rect codeLine="62" fill="#3D176E" height="39.7891" id="aws_dynamodb_global_table" rx="2.5" ry="2.5" style="stroke:#000D19;stroke-width:0.5;" width="282" x="4037.97" y="206.58"/><ellipse cx="4052.97" cy="226.4745" fill="#ADD1B2" rx="11" ry="11" style="stroke:#181818;stroke-width:1.0;"/><path d="M4055.9388,232.1152 Q4055.3606,232.412 4054.72,232.5527 Q4054.0794,232.7089 4053.3763,232.7089 Q4050.8763,232.7089 4049.5481,231.0683 Q4048.2356,229.412 4048.2356,226.287 Q4048.2356,223.162 4049.5481,221.5058 Q4050.8763,219.8495 4053.3763,219.8495 Q4054.0794,219.8495 4054.72,220.0058 Q4055.3763,220.162 4055.9388,220.4589 L4055.9388,223.1777 Q4055.3138,222.5995 4054.72,222.3339 Q4054.1263,222.0527 4053.5013,222.0527 Q4052.1575,222.0527 4051.47,223.1308 Q4050.7825,224.1933 4050.7825,226.287 Q4050.7825,228.3808 4051.47,229.4589 Q4052.1575,230.5214 4053.5013,230.5214 Q4054.1263,230.5214 4054.72,230.2558 Q4055.3138,229.9745 4055.9388,229.3964 L4055.9388,232.1152 Z " fill="#000000"/><text fill="#D9B8FF" font-family="Helvetica" font-size="17" lengthAdjust="spacing" textLength="240" x="4071.97" y="232.3598">aws_dynamodb_global_table</text></g><!--class aws_dynamodb_table--><g id="elem_aws_dynamodb_table"><rect codeLine="65" fill="#3D176E" height="39.7891" id="aws_dynamodb_table" rx="2.5" ry="2.5" style="stroke:#000D19;stroke-width:0.5;" width="223" x="4302.47" y="106.79"/><ellipse cx="4317.47" cy="126.6845" fill="#ADD1B2" rx="11" ry="11" style="stroke:#181818;stroke-width:1.0;"/><path d="M4320.4388,132.3252 Q4319.8606,132.622 4319.22,132.7627 Q4318.5794,132.9189 4317.8763,132.9189 Q4315.3763,132.9189 4314.0481,131.2783 Q4312.7356,129.622 4312.7356,126.497 Q4312.7356,123.372 4314.0481,121.7158 Q4315.3763,120.0595 4317.8763,120.0595 Q4318.5794,120.0595 4319.22,120.2158 Q4319.8763,120.372 4320.4388,120.6689 L4320.4388,123.3877 Q4319.8138,122.8095 4319.22,122.5439 Q4318.6263,122.2627 4318.0013,122.2627 Q4316.6575,122.2627 4315.97,123.3408 Q4315.2825,124.4033 4315.2825,126.497 Q4315.2825,128.5908 4315.97,129.6689 Q4316.6575,130.7314 4318.0013,130.7314 Q4318.6263,130.7314 4319.22,130.4658 Q4319.8138,130.1845 4320.4388,129.6064 L4320.4388,132.3252 Z " fill="#000000"/><text fill="#D9B8FF" font-family="Helvetica" font-size="17" lengthAdjust="spacing" textLength="181" x="4336.47" y="132.5698">aws_dynamodb_table</text></g><!--class aws_ec2_snapshot--><g id="elem_aws_ec2_snapshot"><rect codeLine="68" fill="#3D176E" height="39.7891" id="aws_ec2_snapshot" rx="2.5" ry="2.5" style="stroke:#000D19;stroke-width:0.5;" width="197" x="5328.47" y="206.58"/><ellipse cx="5343.47" cy="226.4745" fill="#ADD1B2" rx="11" ry="11" style="stroke:#181818;stroke-width:1.0;"/><path d="M5346.4388,232.1152 Q5345.8606,232.412 5345.22,232.5527 Q5344.5794,232.7089 5343.8763,232.7089 Q5341.3763,232.7089 5340.0481,231.0683 Q5338.7356,229.412 5338.7356,226.287 Q5338.7356,223.162 5340.0481,221.5058 Q5341.3763,219.8495 5343.8763,219.8495 Q5344.5794,219.8495 5345.22,220.0058 Q5345.8763,220.162 5346.4388,220.4589 L5346.4388,223.1777 Q5345.8138,222.5995 5345.22,222.3339 Q5344.6263,222.0527 5344.0013,222.0527 Q5342.6575,222.0527 5341.97,223.1308 Q5341.2825,224.1933 5341.2825,226.287 Q5341.2825,228.3808 5341.97,229.4589 Q5342.6575,230.5214 5344.0013,230.5214 Q5344.6263,230.5214 5345.22,230.2558 Q5345.8138,229.9745 5346.4388,229.3964 L5346.4388,232.1152 Z " fill="#000000"/><text fill="#D9B8FF" font-family="Helvetica" font-size="17" lengthAdjust="spacing" textLength="155" x="5362.47" y="232.3598">aws_ec2_snapshot</text></g><!--class aws_ec2_volume--><g id="elem_aws_ec2_volume"><rect codeLine="71" fill="#3D176E" height="39.7891" id="aws_ec2_volume" rx="2.5" ry="2.5" style="stroke:#000D19;stroke-width:0.5;" width="185" x="5258.47" y="106.79"/><ellipse cx="5273.47" cy="126.6845" fill="#ADD1B2" rx="11" ry="11" style="stroke:#181818;stroke-width:1.0;"/><path d="M5276.4388,132.3252 Q5275.8606,132.622 5275.22,132.7627 Q5274.5794,132.9189 5273.8763,132.9189 Q5271.3763,132.9189 5270.0481,131.2783 Q5268.7356,129.622 5268.7356,126.497 Q5268.7356,123.372 5270.0481,121.7158 Q5271.3763,120.0595 5273.8763,120.0595 Q5274.5794,120.0595 5275.22,120.2158 Q5275.8763,120.372 5276.4388,120.6689 L5276.4388,123.3877 Q5275.8138,122.8095 5275.22,122.5439 Q5274.6263,122.2627 5274.0013,122.2627 Q5272.6575,122.2627 5271.97,123.3408 Q5271.2825,124.4033 5271.2825,126.497 Q5271.2825,128.5908 5271.97,129.6689 Q5272.6575,130.7314 5274.0013,130.7314 Q5274.6263,130.7314 5275.22,130.4658 Q5275.8138,130.1845 5276.4388,129.6064 L5276.4388,132.3252 Z " fill="#000000"/><text fill="#D9B8FF" font-family="Helvetica" font-size="17" lengthAdjust="spacing" textLength="143" x="5292.47" y="132.5698">aws_ec2_volume</text></g><!--class aws_ecs_cluster--><g id="elem_aws_ecs_cluster"><rect codeLine="74" fill="#3D176E" height="39.7891" id="aws_ecs_cluster" rx="2.5" ry="2.5" style="stroke:#000D19;stroke-width:0.5;" width="175" x="5560.47" y="206.58"/><ellipse cx="5575.47" cy="226.4745" fill="#ADD1B2" rx="11" ry="11" style="stroke:#181818;stroke-width:1.0;"/><path d="M5578.4388,232.1152 Q5577.8606,232.412 5577.22,232.5527 Q5576.5794,232.7089 5575.8763,232.7089 Q5573.3763,232.7089 5572.0481,231.0683 Q5570.7356,229.412 5570.7356,226.287 Q5570.7356,223.162 5572.0481,221.5058 Q5573.3763,219.8495 5575.8763,219.8495 Q5576.5794,219.8495 5577.22,220.0058 Q5577.8763,220.162 5578.4388,220.4589 L5578.4388,223.1777 Q5577.8138,222.5995 5577.22,222.3339 Q5576.6263,222.0527 5576.0013,222.0527 Q5574.6575,222.0527 5573.97,223.1308 Q5573.2825,224.1933 5573.2825,226.287 Q5573.2825,228.3808 5573.97,229.4589 Q5574.6575,230.5214 5576.0013,230.5214 Q5576.6263,230.5214 5577.22,230.2558 Q5577.8138,229.9745 5578.4388,229.3964 L5578.4388,232.1152 Z " fill="#000000"/><text fill="#D9B8FF" font-family="Helvetica" font-size="17" lengthAdjust="spacing" textLength="133" x="5594.47" y="232.3598">aws_ecs_cluster</text></g><!--class aws_efs_file_system--><g id="elem_aws_efs_file_system"><rect codeLine="77" fill="#3D176E" height="39.7891" id="aws_efs_file_system" rx="2.5" ry="2.5" style="stroke:#000D19;stroke-width:0.5;" width="212" x="5770.97" y="206.58"/><ellipse cx="5785.97" cy="226.4745" fill="#ADD1B2" rx="11" ry="11" style="stroke:#181818;stroke-width:1.0;"/><path d="M5788.9388,232.1152 Q5788.3606,232.412 5787.72,232.5527 Q5787.0794,232.7089 5786.3763,232.7089 Q5783.8763,232.7089 5782.5481,231.0683 Q5781.2356,229.412 5781.2356,226.287 Q5781.2356,223.162 5782.5481,221.5058 Q5783.8763,219.8495 5786.3763,219.8495 Q5787.0794,219.8495 5787.72,220.0058 Q5788.3763,220.162 5788.9388,220.4589 L5788.9388,223.1777 Q5788.3138,222.5995 5787.72,222.3339 Q5787.1263,222.0527 5786.5013,222.0527 Q5785.1575,222.0527 5784.47,223.1308 Q5783.7825,224.1933 5783.7825,226.287 Q5783.7825,228.3808 5784.47,229.4589 Q5785.1575,230.5214 5786.5013,230.5214 Q5787.1263,230.5214 5787.72,230.2558 Q5788.3138,229.9745 5788.9388,229.3964 L5788.9388,232.1152 Z " fill="#000000"/><text fill="#D9B8FF" font-family="Helvetica" font-size="17" lengthAdjust="spacing" textLength="170" x="5804.97" y="232.3598">aws_efs_file_system</text></g><!--class aws_elasticache_replication_group--><g id="elem_aws_elasticache_replication_group"><rect codeLine="80" fill="#3D176E" height="39.7891" id="aws_elasticache_replication_group" rx="2.5" ry="2.5" style="stroke:#000D19;stroke-width:0.5;" width="330" x="6017.97" y="206.58"/><ellipse cx="6032.97" cy="226.4745" fill="#ADD1B2" rx="11" ry="11" style="stroke:#181818;stroke-width:1.0;"/><path d="M6035.9388,232.1152 Q6035.3606,232.412 6034.72,232.5527 Q6034.0794,232.7089 6033.3763,232.7089 Q6030.8763,232.7089 6029.5481,231.0683 Q6028.2356,229.412 6028.2356,226.287 Q6028.2356,223.162 6029.5481,221.5058 Q6030.8763,219.8495 6033.3763,219.8495 Q6034.0794,219.8495 6034.72,220.0058 Q6035.3763,220.162 6035.9388,220.4589 L6035.9388,223.1777 Q6035.3138,222.5995 6034.72,222.3339 Q6034.1263,222.0527 6033.5013,222.0527 Q6032.1575,222.0527 6031.47,223.1308 Q6030.7825,224.1933 6030.7825,226.287 Q6030.7825,228.3808 6031.47,229.4589 Q6032.1575,230.5214 6033.5013,230.5214 Q6034.1263,230.5214 6034.72,230.2558 Q6035.3138,229.9745 6035.9388,229.3964 L6035.9388,232.1152 Z " fill="#000000"/><text fill="#D9B8FF" font-family="Helvetica" font-size="17" lengthAdjust="spacing" textLength="288" x="6051.97" y="232.3598">aws_elasticache_replication_group</text></g><!--class aws_glacier_job--><g id="elem_aws_glacier_job"><rect codeLine="83" fill="#3D176E" height="39.7891" id="aws_glacier_job" rx="2.5" ry="2.5" style="stroke:#000D19;stroke-width:0.5;" width="173" x="6382.47" y="206.58"/><ellipse cx="6397.47" cy="226.4745" fill="#ADD1B2" rx="11" ry="11" style="stroke:#181818;stroke-width:1.0;"/><path d="M6400.4388,232.1152 Q6399.8606,232.412 6399.22,232.5527 Q6398.5794,232.7089 6397.8763,232.7089 Q6395.3763,232.7089 6394.0481,231.0683 Q6392.7356,229.412 6392.7356,226.287 Q6392.7356,223.162 6394.0481,221.5058 Q6395.3763,219.8495 6397.8763,219.8495 Q6398.5794,219.8495 6399.22,220.0058 Q6399.8763,220.162 6400.4388,220.4589 L6400.4388,223.1777 Q6399.8138,222.5995 6399.22,222.3339 Q6398.6263,222.0527 6398.0013,222.0527 Q6396.6575,222.0527 6395.97,223.1308 Q6395.2825,224.1933 6395.2825,226.287 Q6395.2825,228.3808 6395.97,229.4589 Q6396.6575,230.5214 6398.0013,230.5214 Q6398.6263,230.5214 6399.22,230.2558 Q6399.8138,229.9745 6400.4388,229.3964 L6400.4388,232.1152 Z " fill="#000000"/><text fill="#D9B8FF" font-family="Helvetica" font-size="17" lengthAdjust="spacing" textLength="131" x="6416.47" y="232.3598">aws_glacier_job</text></g><!--class aws_kinesis_stream--><g id="elem_aws_kinesis_stream"><rect codeLine="86" fill="#3D176E" height="39.7891" id="aws_kinesis_stream" rx="2.5" ry="2.5" style="stroke:#000D19;stroke-width:0.5;" width="209" x="4426.47" y="206.58"/><ellipse cx="4441.47" cy="226.4745" fill="#ADD1B2" rx="11" ry="11" style="stroke:#181818;stroke-width:1.0;"/><path d="M4444.4388,232.1152 Q4443.8606,232.412 4443.22,232.5527 Q4442.5794,232.7089 4441.8763,232.7089 Q4439.3763,232.7089 4438.0481,231.0683 Q4436.7356,229.412 4436.7356,226.287 Q4436.7356,223.162 4438.0481,221.5058 Q4439.3763,219.8495 4441.8763,219.8495 Q4442.5794,219.8495 4443.22,220.0058 Q4443.8763,220.162 4444.4388,220.4589 L4444.4388,223.1777 Q4443.8138,222.5995 4443.22,222.3339 Q4442.6263,222.0527 4442.0013,222.0527 Q4440.6575,222.0527 4439.97,223.1308 Q4439.2825,224.1933 4439.2825,226.287 Q4439.2825,228.3808 4439.97,229.4589 Q4440.6575,230.5214 4442.0013,230.5214 Q4442.6263,230.5214 4443.22,230.2558 Q4443.8138,229.9745 4444.4388,229.3964 L4444.4388,232.1152 Z " fill="#000000"/><text fill="#D9B8FF" font-family="Helvetica" font-size="17" lengthAdjust="spacing" textLength="167" x="4460.47" y="232.3598">aws_kinesis_stream</text></g><!--class aws_kms_key--><g id="elem_aws_kms_key"><rect codeLine="89" fill="#3D176E" height="39.7891" id="aws_kms_key" rx="2.5" ry="2.5" style="stroke:#000D19;stroke-width:0.5;" width="158" x="3045.97" y="306.37"/><ellipse cx="3060.97" cy="326.2645" fill="#ADD1B2" rx="11" ry="11" style="stroke:#181818;stroke-width:1.0;"/><path d="M3063.9388,331.9052 Q3063.3606,332.202 3062.72,332.3427 Q3062.0794,332.4989 3061.3763,332.4989 Q3058.8763,332.4989 3057.5481,330.8583 Q3056.2356,329.202 3056.2356,326.077 Q3056.2356,322.952 3057.5481,321.2958 Q3058.8763,319.6395 3061.3763,319.6395 Q3062.0794,319.6395 3062.72,319.7958 Q3063.3763,319.952 3063.9388,320.2489 L3063.9388,322.9677 Q3063.3138,322.3895 3062.72,322.1239 Q3062.1263,321.8427 3061.5013,321.8427 Q3060.1575,321.8427 3059.47,322.9208 Q3058.7825,323.9833 3058.7825,326.077 Q3058.7825,328.1708 3059.47,329.2489 Q3060.1575,330.3114 3061.5013,330.3114 Q3062.1263,330.3114 3062.72,330.0458 Q3063.3138,329.7645 3063.9388,329.1864 L3063.9388,331.9052 Z " fill="#000000"/><text fill="#D9B8FF" font-family="Helvetica" font-size="17" lengthAdjust="spacing" textLength="116" x="3079.97" y="332.1498">aws_kms_key</text></g><!--class aws_lambda_function--><g id="elem_aws_lambda_function"><rect codeLine="92" fill="#3D176E" height="39.7891" id="aws_lambda_function" rx="2.5" ry="2.5" style="stroke:#000D19;stroke-width:0.5;" width="224" x="996.97" y="206.58"/><ellipse cx="1011.97" cy="226.4745" fill="#ADD1B2" rx="11" ry="11" style="stroke:#181818;stroke-width:1.0;"/><path d="M1014.9388,232.1152 Q1014.3606,232.412 1013.72,232.5527 Q1013.0794,232.7089 1012.3763,232.7089 Q1009.8763,232.7089 1008.5481,231.0683 Q1007.2356,229.412 1007.2356,226.287 Q1007.2356,223.162 1008.5481,221.5058 Q1009.8763,219.8495 1012.3763,219.8495 Q1013.0794,219.8495 1013.72,220.0058 Q1014.3763,220.162 1014.9388,220.4589 L1014.9388,223.1777 Q1014.3138,222.5995 1013.72,222.3339 Q1013.1263,222.0527 1012.5013,222.0527 Q1011.1575,222.0527 1010.47,223.1308 Q1009.7825,224.1933 1009.7825,226.287 Q1009.7825,228.3808 1010.47,229.4589 Q1011.1575,230.5214 1012.5013,230.5214 Q1013.1263,230.5214 1013.72,230.2558 Q1014.3138,229.9745 1014.9388,229.3964 L1014.9388,232.1152 Z " fill="#000000"/><text fill="#D9B8FF" font-family="Helvetica" font-size="17" lengthAdjust="spacing" textLength="182" x="1030.97" y="232.3598">aws_lambda_function</text></g><!--class aws_rds_cluster--><g id="elem_aws_rds_cluster"><rect codeLine="95" fill="#3D176E" height="39.7891" id="aws_rds_cluster" rx="2.5" ry="2.5" style="stroke:#000D19;stroke-width:0.5;" width="174" x="4692.97" y="106.79"/><ellipse cx="4707.97" cy="126.6845" fill="#ADD1B2" rx="11" ry="11" style="stroke:#181818;stroke-width:1.0;"/><path d="M4710.9388,132.3252 Q4710.3606,132.622 4709.72,132.7627 Q4709.0794,132.9189 4708.3763,132.9189 Q4705.8763,132.9189 4704.5481,131.2783 Q4703.2356,129.622 4703.2356,126.497 Q4703.2356,123.372 4704.5481,121.7158 Q4705.8763,120.0595 4708.3763,120.0595 Q4709.0794,120.0595 4709.72,120.2158 Q4710.3763,120.372 4710.9388,120.6689 L4710.9388,123.3877 Q4710.3138,122.8095 4709.72,122.5439 Q4709.1263,122.2627 4708.5013,122.2627 Q4707.1575,122.2627 4706.47,123.3408 Q4705.7825,124.4033 4705.7825,126.497 Q4705.7825,128.5908 4706.47,129.6689 Q4707.1575,130.7314 4708.5013,130.7314 Q4709.1263,130.7314 4709.72,130.4658 Q4710.3138,130.1845 4710.9388,129.6064 L4710.9388,132.3252 Z " fill="#000000"/><text fill="#D9B8FF" font-family="Helvetica" font-size="17" lengthAdjust="spacing" textLength="132" x="4726.97" y="132.5698">aws_rds_cluster</text></g><!--class aws_rds_cluster_snapshot--><g id="elem_aws_rds_cluster_snapshot"><rect codeLine="98" fill="#3D176E" height="39.7891" id="aws_rds_cluster_snapshot" rx="2.5" ry="2.5" style="stroke:#000D19;stroke-width:0.5;" width="258" x="4741.97" y="206.58"/><ellipse cx="4756.97" cy="226.4745" fill="#ADD1B2" rx="11" ry="11" style="stroke:#181818;stroke-width:1.0;"/><path d="M4759.9388,232.1152 Q4759.3606,232.412 4758.72,232.5527 Q4758.0794,232.7089 4757.3763,232.7089 Q4754.8763,232.7089 4753.5481,231.0683 Q4752.2356,229.412 4752.2356,226.287 Q4752.2356,223.162 4753.5481,221.5058 Q4754.8763,219.8495 4757.3763,219.8495 Q4758.0794,219.8495 4758.72,220.0058 Q4759.3763,220.162 4759.9388,220.4589 L4759.9388,223.1777 Q4759.3138,222.5995 4758.72,222.3339 Q4758.1263,222.0527 4757.5013,222.0527 Q4756.1575,222.0527 4755.47,223.1308 Q4754.7825,224.1933 4754.7825,226.287 Q4754.7825,228.3808 4755.47,229.4589 Q4756.1575,230.5214 4757.5013,230.5214 Q4758.1263,230.5214 4758.72,230.2558 Q4759.3138,229.9745 4759.9388,229.3964 L4759.9388,232.1152 Z " fill="#000000"/><text fill="#D9B8FF" font-family="Helvetica" font-size="17" lengthAdjust="spacing" textLength="216" x="4775.97" y="232.3598">aws_rds_cluster_snapshot</text></g><!--class aws_rds_instance--><g id="elem_aws_rds_instance"><rect codeLine="101" fill="#3D176E" height="39.7891" id="aws_rds_instance" rx="2.5" ry="2.5" style="stroke:#000D19;stroke-width:0.5;" width="188" x="5034.97" y="206.58"/><ellipse cx="5049.97" cy="226.4745" fill="#ADD1B2" rx="11" ry="11" style="stroke:#181818;stroke-width:1.0;"/><path d="M5052.9388,232.1152 Q5052.3606,232.412 5051.72,232.5527 Q5051.0794,232.7089 5050.3763,232.7089 Q5047.8763,232.7089 5046.5481,231.0683 Q5045.2356,229.412 5045.2356,226.287 Q5045.2356,223.162 5046.5481,221.5058 Q5047.8763,219.8495 5050.3763,219.8495 Q5051.0794,219.8495 5051.72,220.0058 Q5052.3763,220.162 5052.9388,220.4589 L5052.9388,223.1777 Q5052.3138,222.5995 5051.72,222.3339 Q5051.1263,222.0527 5050.5013,222.0527 Q5049.1575,222.0527 5048.47,223.1308 Q5047.7825,224.1933 5047.7825,226.287 Q5047.7825,228.3808 5048.47,229.4589 Q5049.1575,230.5214 5050.5013,230.5214 Q5051.1263,230.5214 5051.72,230.2558 Q5052.3138,229.9745 5052.9388,229.3964 L5052.9388,232.1152 Z " fill="#000000"/><text fill="#D9B8FF" font-family="Helvetica" font-size="17" lengthAdjust="spacing" textLength="146" x="5068.97" y="232.3598">aws_rds_instance</text></g><!--class aws_redshift_cluster--><g id="elem_aws_redshift_cluster"><rect codeLine="104" fill="#3D176E" height="39.7891" id="aws_redshift_cluster" rx="2.5" ry="2.5" style="stroke:#000D19;stroke-width:0.5;" width="213" x="2022.47" y="7"/><ellipse cx="2037.47" cy="26.8945" fill="#ADD1B2" rx="11" ry="11" style="stroke:#181818;stroke-width:1.0;"/><path d="M2040.4388,32.5352 Q2039.8606,32.832 2039.22,32.9727 Q2038.5794,33.1289 2037.8763,33.1289 Q2035.3763,33.1289 2034.0481,31.4883 Q2032.7356,29.832 2032.7356,26.707 Q2032.7356,23.582 2034.0481,21.9258 Q2035.3763,20.2695 2037.8763,20.2695 Q2038.5794,20.2695 2039.22,20.4258 Q2039.8763,20.582 2040.4388,20.8789 L2040.4388,23.5977 Q2039.8138,23.0195 2039.22,22.7539 Q2038.6263,22.4727 2038.0013,22.4727 Q2036.6575,22.4727 2035.97,23.5508 Q2035.2825,24.6133 2035.2825,26.707 Q2035.2825,28.8008 2035.97,29.8789 Q2036.6575,30.9414 2038.0013,30.9414 Q2038.6263,30.9414 2039.22,30.6758 Q2039.8138,30.3945 2040.4388,29.8164 L2040.4388,32.5352 Z " fill="#000000"/><text fill="#D9B8FF" font-family="Helvetica" font-size="17" lengthAdjust="spacing" textLength="171" x="2056.47" y="32.7798">aws_redshift_cluster</text></g><!--class aws_sagemaker_auto_ml_job--><g id="elem_aws_sagemaker_auto_ml_job"><rect codeLine="107" fill="#3D176E" height="39.7891" id="aws_sagemaker_auto_ml_job" rx="2.5" ry="2.5" style="stroke:#000D19;stroke-width:0.5;" width="288" x="1420.97" y="7"/><ellipse cx="1435.97" cy="26.8945" fill="#ADD1B2" rx="11" ry="11" style="stroke:#181818;stroke-width:1.0;"/><path d="M1438.9388,32.5352 Q1438.3606,32.832 1437.72,32.9727 Q1437.0794,33.1289 1436.3763,33.1289 Q1433.8763,33.1289 1432.5481,31.4883 Q1431.2356,29.832 1431.2356,26.707 Q1431.2356,23.582 1432.5481,21.9258 Q1433.8763,20.2695 1436.3763,20.2695 Q1437.0794,20.2695 1437.72,20.4258 Q1438.3763,20.582 1438.9388,20.8789 L1438.9388,23.5977 Q1438.3138,23.0195 1437.72,22.7539 Q1437.1263,22.4727 1436.5013,22.4727 Q1435.1575,22.4727 1434.47,23.5508 Q1433.7825,24.6133 1433.7825,26.707 Q1433.7825,28.8008 1434.47,29.8789 Q1435.1575,30.9414 1436.5013,30.9414 Q1437.1263,30.9414 1437.72,30.6758 Q1438.3138,30.3945 1438.9388,29.8164 L1438.9388,32.5352 Z " fill="#000000"/><text fill="#D9B8FF" font-family="Helvetica" font-size="17" lengthAdjust="spacing" textLength="246" x="1454.97" y="32.7798">aws_sagemaker_auto_ml_job</text></g><!--class aws_sagemaker_compilation_job--><g id="elem_aws_sagemaker_compilation_job"><rect codeLine="110" fill="#3D176E" height="39.7891" id="aws_sagemaker_compilation_job" rx="2.5" ry="2.5" style="stroke:#000D19;stroke-width:0.5;" width="317" x="6590.47" y="206.58"/><ellipse cx="6605.47" cy="226.4745" fill="#ADD1B2" rx="11" ry="11" style="stroke:#181818;stroke-width:1.0;"/><path d="M6608.4388,232.1152 Q6607.8606,232.412 6607.22,232.5527 Q6606.5794,232.7089 6605.8763,232.7089 Q6603.3763,232.7089 6602.0481,231.0683 Q6600.7356,229.412 6600.7356,226.287 Q6600.7356,223.162 6602.0481,221.5058 Q6603.3763,219.8495 6605.8763,219.8495 Q6606.5794,219.8495 6607.22,220.0058 Q6607.8763,220.162 6608.4388,220.4589 L6608.4388,223.1777 Q6607.8138,222.5995 6607.22,222.3339 Q6606.6263,222.0527 6606.0013,222.0527 Q6604.6575,222.0527 6603.97,223.1308 Q6603.2825,224.1933 6603.2825,226.287 Q6603.2825,228.3808 6603.97,229.4589 Q6604.6575,230.5214 6606.0013,230.5214 Q6606.6263,230.5214 6607.22,230.2558 Q6607.8138,229.9745 6608.4388,229.3964 L6608.4388,232.1152 Z " fill="#000000"/><text fill="#D9B8FF" font-family="Helvetica" font-size="17" lengthAdjust="spacing" textLength="275" x="6624.47" y="232.3598">aws_sagemaker_compilation_job</text></g><!--class aws_sagemaker_domain--><g id="elem_aws_sagemaker_domain"><rect codeLine="113" fill="#3D176E" height="39.7891" id="aws_sagemaker_domain" rx="2.5" ry="2.5" style="stroke:#000D19;stroke-width:0.5;" width="248" x="6941.97" y="206.58"/><ellipse cx="6956.97" cy="226.4745" fill="#ADD1B2" rx="11" ry="11" style="stroke:#181818;stroke-width:1.0;"/><path d="M6959.9388,232.1152 Q6959.3606,232.412 6958.72,232.5527 Q6958.0794,232.7089 6957.3763,232.7089 Q6954.8763,232.7089 6953.5481,231.0683 Q6952.2356,229.412 6952.2356,226.287 Q6952.2356,223.162 6953.5481,221.5058 Q6954.8763,219.8495 6957.3763,219.8495 Q6958.0794,219.8495 6958.72,220.0058 Q6959.3763,220.162 6959.9388,220.4589 L6959.9388,223.1777 Q6959.3138,222.5995 6958.72,222.3339 Q6958.1263,222.0527 6957.5013,222.0527 Q6956.1575,222.0527 6955.47,223.1308 Q6954.7825,224.1933 6954.7825,226.287 Q6954.7825,228.3808 6955.47,229.4589 Q6956.1575,230.5214 6957.5013,230.5214 Q6958.1263,230.5214 6958.72,230.2558 Q6959.3138,229.9745 6959.9388,229.3964 L6959.9388,232.1152 Z " fill="#000000"/><text fill="#D9B8FF" font-family="Helvetica" font-size="17" lengthAdjust="spacing" textLength="206" x="6975.97" y="232.3598">aws_sagemaker_domain</text></g><!--class aws_sagemaker_endpoint--><g id="elem_aws_sagemaker_endpoint"><rect codeLine="116" fill="#3D176E" height="39.7891" id="aws_sagemaker_endpoint" rx="2.5" ry="2.5" style="stroke:#000D19;stroke-width:0.5;" width="259" x="2667.47" y="106.79"/><ellipse cx="2682.47" cy="126.6845" fill="#ADD1B2" rx="11" ry="11" style="stroke:#181818;stroke-width:1.0;"/><path d="M2685.4388,132.3252 Q2684.8606,132.622 2684.22,132.7627 Q2683.5794,132.9189 2682.8763,132.9189 Q2680.3763,132.9189 2679.0481,131.2783 Q2677.7356,129.622 2677.7356,126.497 Q2677.7356,123.372 2679.0481,121.7158 Q2680.3763,120.0595 2682.8763,120.0595 Q2683.5794,120.0595 2684.22,120.2158 Q2684.8763,120.372 2685.4388,120.6689 L2685.4388,123.3877 Q2684.8138,122.8095 2684.22,122.5439 Q2683.6263,122.2627 2683.0013,122.2627 Q2681.6575,122.2627 2680.97,123.3408 Q2680.2825,124.4033 2680.2825,126.497 Q2680.2825,128.5908 2680.97,129.6689 Q2681.6575,130.7314 2683.0013,130.7314 Q2683.6263,130.7314 2684.22,130.4658 Q2684.8138,130.1845 2685.4388,129.6064 L2685.4388,132.3252 Z " fill="#000000"/><text fill="#D9B8FF" font-family="Helvetica" font-size="17" lengthAdjust="spacing" textLength="217" x="2701.47" y="132.5698">aws_sagemaker_endpoint</text></g><!--class aws_sagemaker_hyper_parameter_tuning_job--><g id="elem_aws_sagemaker_hyper_parameter_tuning_job"><rect codeLine="119" fill="#3D176E" height="39.7891" id="aws_sagemaker_hyper_parameter_tuning_job" rx="2.5" ry="2.5" style="stroke:#000D19;stroke-width:0.5;" width="428" x="1855.97" y="106.79"/><ellipse cx="1870.97" cy="126.6845" fill="#ADD1B2" rx="11" ry="11" style="stroke:#181818;stroke-width:1.0;"/><path d="M1873.9388,132.3252 Q1873.3606,132.622 1872.72,132.7627 Q1872.0794,132.9189 1871.3763,132.9189 Q1868.8763,132.9189 1867.5481,131.2783 Q1866.2356,129.622 1866.2356,126.497 Q1866.2356,123.372 1867.5481,121.7158 Q1868.8763,120.0595 1871.3763,120.0595 Q1872.0794,120.0595 1872.72,120.2158 Q1873.3763,120.372 1873.9388,120.6689 L1873.9388,123.3877 Q1873.3138,122.8095 1872.72,122.5439 Q1872.1263,122.2627 1871.5013,122.2627 Q1870.1575,122.2627 1869.47,123.3408 Q1868.7825,124.4033 1868.7825,126.497 Q1868.7825,128.5908 1869.47,129.6689 Q1870.1575,130.7314 1871.5013,130.7314 Q1872.1263,130.7314 1872.72,130.4658 Q1873.3138,130.1845 1873.9388,129.6064 L1873.9388,132.3252 Z " fill="#000000"/><text fill="#D9B8FF" font-family="Helvetica" font-size="17" lengthAdjust="spacing" textLength="386" x="1889.97" y="132.5698">aws_sagemaker_hyper_parameter_tuning_job</text></g><!--class aws_sagemaker_inference_recommendations_job--><g id="elem_aws_sagemaker_inference_recommendations_job"><rect codeLine="122" fill="#3D176E" height="39.7891" id="aws_sagemaker_inference_recommendations_job" rx="2.5" ry="2.5" style="stroke:#000D19;stroke-width:0.5;" width="457" x="2579.47" y="7"/><ellipse cx="2594.47" cy="26.8945" fill="#ADD1B2" rx="11" ry="11" style="stroke:#181818;stroke-width:1.0;"/><path d="M2597.4388,32.5352 Q2596.8606,32.832 2596.22,32.9727 Q2595.5794,33.1289 2594.8763,33.1289 Q2592.3763,33.1289 2591.0481,31.4883 Q2589.7356,29.832 2589.7356,26.707 Q2589.7356,23.582 2591.0481,21.9258 Q2592.3763,20.2695 2594.8763,20.2695 Q2595.5794,20.2695 2596.22,20.4258 Q2596.8763,20.582 2597.4388,20.8789 L2597.4388,23.5977 Q2596.8138,23.0195 2596.22,22.7539 Q2595.6263,22.4727 2595.0013,22.4727 Q2593.6575,22.4727 2592.97,23.5508 Q2592.2825,24.6133 2592.2825,26.707 Q2592.2825,28.8008 2592.97,29.8789 Q2593.6575,30.9414 2595.0013,30.9414 Q2595.6263,30.9414 2596.22,30.6758 Q2596.8138,30.3945 2597.4388,29.8164 L2597.4388,32.5352 Z " fill="#000000"/><text fill="#D9B8FF" font-family="Helvetica" font-size="17" lengthAdjust="spacing" textLength="415" x="2613.47" y="32.7798">aws_sagemaker_inference_recommendations_job</text></g><!--class aws_sagemaker_labeling_job--><g id="elem_aws_sagemaker_labeling_job"><rect codeLine="125" fill="#3D176E" height="39.7891" id="aws_sagemaker_labeling_job" rx="2.5" ry="2.5" style="stroke:#000D19;stroke-width:0.5;" width="285" x="1124.47" y="106.79"/><ellipse cx="1139.47" cy="126.6845" fill="#ADD1B2" rx="11" ry="11" style="stroke:#181818;stroke-width:1.0;"/><path d="M1142.4388,132.3252 Q1141.8606,132.622 1141.22,132.7627 Q1140.5794,132.9189 1139.8763,132.9189 Q1137.3763,132.9189 1136.0481,131.2783 Q1134.7356,129.622 1134.7356,126.497 Q1134.7356,123.372 1136.0481,121.7158 Q1137.3763,120.0595 1139.8763,120.0595 Q1140.5794,120.0595 1141.22,120.2158 Q1141.8763,120.372 1142.4388,120.6689 L1142.4388,123.3877 Q1141.8138,122.8095 1141.22,122.5439 Q1140.6263,122.2627 1140.0013,122.2627 Q1138.6575,122.2627 1137.97,123.3408 Q1137.2825,124.4033 1137.2825,126.497 Q1137.2825,128.5908 1137.97,129.6689 Q1138.6575,130.7314 1140.0013,130.7314 Q1140.6263,130.7314 1141.22,130.4658 Q1141.8138,130.1845 1142.4388,129.6064 L1142.4388,132.3252 Z " fill="#000000"/><text fill="#D9B8FF" font-family="Helvetica" font-size="17" lengthAdjust="spacing" textLength="243" x="1158.47" y="132.5698">aws_sagemaker_labeling_job</text></g><!--class aws_sagemaker_notebook--><g id="elem_aws_sagemaker_notebook"><rect codeLine="128" fill="#3D176E" height="39.7891" id="aws_sagemaker_notebook" rx="2.5" ry="2.5" style="stroke:#000D19;stroke-width:0.5;" width="263" x="7224.47" y="206.58"/><ellipse cx="7239.47" cy="226.4745" fill="#ADD1B2" rx="11" ry="11" style="stroke:#181818;stroke-width:1.0;"/><path d="M7242.4388,232.1152 Q7241.8606,232.412 7241.22,232.5527 Q7240.5794,232.7089 7239.8763,232.7089 Q7237.3763,232.7089 7236.0481,231.0683 Q7234.7356,229.412 7234.7356,226.287 Q7234.7356,223.162 7236.0481,221.5058 Q7237.3763,219.8495 7239.8763,219.8495 Q7240.5794,219.8495 7241.22,220.0058 Q7241.8763,220.162 7242.4388,220.4589 L7242.4388,223.1777 Q7241.8138,222.5995 7241.22,222.3339 Q7240.6263,222.0527 7240.0013,222.0527 Q7238.6575,222.0527 7237.97,223.1308 Q7237.2825,224.1933 7237.2825,226.287 Q7237.2825,228.3808 7237.97,229.4589 Q7238.6575,230.5214 7240.0013,230.5214 Q7240.6263,230.5214 7241.22,230.2558 Q7241.8138,229.9745 7242.4388,229.3964 L7242.4388,232.1152 Z " fill="#000000"/><text fill="#D9B8FF" font-family="Helvetica" font-size="17" lengthAdjust="spacing" textLength="221" x="7258.47" y="232.3598">aws_sagemaker_notebook</text></g><!--class aws_sagemaker_processing_job--><g id="elem_aws_sagemaker_processing_job"><rect codeLine="131" fill="#3D176E" height="39.7891" id="aws_sagemaker_processing_job" rx="2.5" ry="2.5" style="stroke:#000D19;stroke-width:0.5;" width="306" x="1514.97" y="106.79"/><ellipse cx="1529.97" cy="126.6845" fill="#ADD1B2" rx="11" ry="11" style="stroke:#181818;stroke-width:1.0;"/><path d="M1532.9388,132.3252 Q1532.3606,132.622 1531.72,132.7627 Q1531.0794,132.9189 1530.3763,132.9189 Q1527.8763,132.9189 1526.5481,131.2783 Q1525.2356,129.622 1525.2356,126.497 Q1525.2356,123.372 1526.5481,121.7158 Q1527.8763,120.0595 1530.3763,120.0595 Q1531.0794,120.0595 1531.72,120.2158 Q1532.3763,120.372 1532.9388,120.6689 L1532.9388,123.3877 Q1532.3138,122.8095 1531.72,122.5439 Q1531.1263,122.2627 1530.5013,122.2627 Q1529.1575,122.2627 1528.47,123.3408 Q1527.7825,124.4033 1527.7825,126.497 Q1527.7825,128.5908 1528.47,129.6689 Q1529.1575,130.7314 1530.5013,130.7314 Q1531.1263,130.7314 1531.72,130.4658 Q1532.3138,130.1845 1532.9388,129.6064 L1532.9388,132.3252 Z " fill="#000000"/><text fill="#D9B8FF" font-family="Helvetica" font-size="17" lengthAdjust="spacing" textLength="264" x="1548.97" y="132.5698">aws_sagemaker_processing_job</text></g><!--class aws_sagemaker_training_job--><g id="elem_aws_sagemaker_training_job"><rect codeLine="134" fill="#3D176E" height="39.7891" id="aws_sagemaker_training_job" rx="2.5" ry="2.5" style="stroke:#000D19;stroke-width:0.5;" width="285" x="1663.47" y="206.58"/><ellipse cx="1678.47" cy="226.4745" fill="#ADD1B2" rx="11" ry="11" style="stroke:#181818;stroke-width:1.0;"/><path d="M1681.4388,232.1152 Q1680.8606,232.412 1680.22,232.5527 Q1679.5794,232.7089 1678.8763,232.7089 Q1676.3763,232.7089 1675.0481,231.0683 Q1673.7356,229.412 1673.7356,226.287 Q1673.7356,223.162 1675.0481,221.5058 Q1676.3763,219.8495 1678.8763,219.8495 Q1679.5794,219.8495 1680.22,220.0058 Q1680.8763,220.162 1681.4388,220.4589 L1681.4388,223.1777 Q1680.8138,222.5995 1680.22,222.3339 Q1679.6263,222.0527 1679.0013,222.0527 Q1677.6575,222.0527 1676.97,223.1308 Q1676.2825,224.1933 1676.2825,226.287 Q1676.2825,228.3808 1676.97,229.4589 Q1677.6575,230.5214 1679.0013,230.5214 Q1679.6263,230.5214 1680.22,230.2558 Q1680.8138,229.9745 1681.4388,229.3964 L1681.4388,232.1152 Z " fill="#000000"/><text fill="#D9B8FF" font-family="Helvetica" font-size="17" lengthAdjust="spacing" textLength="243" x="1697.47" y="232.3598">aws_sagemaker_training_job</text></g><!--class aws_sagemaker_transform_job--><g id="elem_aws_sagemaker_transform_job"><rect codeLine="137" fill="#3D176E" height="39.7891" id="aws_sagemaker_transform_job" rx="2.5" ry="2.5" style="stroke:#000D19;stroke-width:0.5;" width="302" x="1255.97" y="206.58"/><ellipse cx="1270.97" cy="226.4745" fill="#ADD1B2" rx="11" ry="11" style="stroke:#181818;stroke-width:1.0;"/><path d="M1273.9388,232.1152 Q1273.3606,232.412 1272.72,232.5527 Q1272.0794,232.7089 1271.3763,232.7089 Q1268.8763,232.7089 1267.5481,231.0683 Q1266.2356,229.412 1266.2356,226.287 Q1266.2356,223.162 1267.5481,221.5058 Q1268.8763,219.8495 1271.3763,219.8495 Q1272.0794,219.8495 1272.72,220.0058 Q1273.3763,220.162 1273.9388,220.4589 L1273.9388,223.1777 Q1273.3138,222.5995 1272.72,222.3339 Q1272.1263,222.0527 1271.5013,222.0527 Q1270.1575,222.0527 1269.47,223.1308 Q1268.7825,224.1933 1268.7825,226.287 Q1268.7825,228.3808 1269.47,229.4589 Q1270.1575,230.5214 1271.5013,230.5214 Q1272.1263,230.5214 1272.72,230.2558 Q1273.3138,229.9745 1273.9388,229.3964 L1273.9388,232.1152 Z " fill="#000000"/><text fill="#D9B8FF" font-family="Helvetica" font-size="17" lengthAdjust="spacing" textLength="260" x="1289.97" y="232.3598">aws_sagemaker_transform_job</text></g><!--class aws_secretsmanager_secret--><g id="elem_aws_secretsmanager_secret"><rect codeLine="140" fill="#3D176E" height="39.7891" id="aws_secretsmanager_secret" rx="2.5" ry="2.5" style="stroke:#000D19;stroke-width:0.5;" width="276" x="7521.97" y="206.58"/><ellipse cx="7536.97" cy="226.4745" fill="#ADD1B2" rx="11" ry="11" style="stroke:#181818;stroke-width:1.0;"/><path d="M7539.9388,232.1152 Q7539.3606,232.412 7538.72,232.5527 Q7538.0794,232.7089 7537.3763,232.7089 Q7534.8763,232.7089 7533.5481,231.0683 Q7532.2356,229.412 7532.2356,226.287 Q7532.2356,223.162 7533.5481,221.5058 Q7534.8763,219.8495 7537.3763,219.8495 Q7538.0794,219.8495 7538.72,220.0058 Q7539.3763,220.162 7539.9388,220.4589 L7539.9388,223.1777 Q7539.3138,222.5995 7538.72,222.3339 Q7538.1263,222.0527 7537.5013,222.0527 Q7536.1575,222.0527 7535.47,223.1308 Q7534.7825,224.1933 7534.7825,226.287 Q7534.7825,228.3808 7535.47,229.4589 Q7536.1575,230.5214 7537.5013,230.5214 Q7538.1263,230.5214 7538.72,230.2558 Q7539.3138,229.9745 7539.9388,229.3964 L7539.9388,232.1152 Z " fill="#000000"/><text fill="#D9B8FF" font-family="Helvetica" font-size="17" lengthAdjust="spacing" textLength="234" x="7555.97" y="232.3598">aws_secretsmanager_secret</text></g><!--class aws_sns_topic--><g id="elem_aws_sns_topic"><rect codeLine="143" fill="#3D176E" height="39.7891" id="aws_sns_topic" rx="2.5" ry="2.5" style="stroke:#000D19;stroke-width:0.5;" width="160" x="2460.97" y="206.58"/><ellipse cx="2475.97" cy="226.4745" fill="#ADD1B2" rx="11" ry="11" style="stroke:#181818;stroke-width:1.0;"/><path d="M2478.9388,232.1152 Q2478.3606,232.412 2477.72,232.5527 Q2477.0794,232.7089 2476.3763,232.7089 Q2473.8763,232.7089 2472.5481,231.0683 Q2471.2356,229.412 2471.2356,226.287 Q2471.2356,223.162 2472.5481,221.5058 Q2473.8763,219.8495 2476.3763,219.8495 Q2477.0794,219.8495 2477.72,220.0058 Q2478.3763,220.162 2478.9388,220.4589 L2478.9388,223.1777 Q2478.3138,222.5995 2477.72,222.3339 Q2477.1263,222.0527 2476.5013,222.0527 Q2475.1575,222.0527 2474.47,223.1308 Q2473.7825,224.1933 2473.7825,226.287 Q2473.7825,228.3808 2474.47,229.4589 Q2475.1575,230.5214 2476.5013,230.5214 Q2477.1263,230.5214 2477.72,230.2558 Q2478.3138,229.9745 2478.9388,229.3964 L2478.9388,232.1152 Z " fill="#000000"/><text fill="#D9B8FF" font-family="Helvetica" font-size="17" lengthAdjust="spacing" textLength="118" x="2494.97" y="232.3598">aws_sns_topic</text></g><!--class aws_sqs_queue--><g id="elem_aws_sqs_queue"><rect codeLine="146" fill="#3D176E" height="39.7891" id="aws_sqs_queue" rx="2.5" ry="2.5" style="stroke:#000D19;stroke-width:0.5;" width="171" x="7832.47" y="206.58"/><ellipse cx="7847.47" cy="226.4745" fill="#ADD1B2" rx="11" ry="11" style="stroke:#181818;stroke-width:1.0;"/><path d="M7850.4388,232.1152 Q7849.8606,232.412 7849.22,232.5527 Q7848.5794,232.7089 7847.8763,232.7089 Q7845.3763,232.7089 7844.0481,231.0683 Q7842.7356,229.412 7842.7356,226.287 Q7842.7356,223.162 7844.0481,221.5058 Q7845.3763,219.8495 7847.8763,219.8495 Q7848.5794,219.8495 7849.22,220.0058 Q7849.8763,220.162 7850.4388,220.4589 L7850.4388,223.1777 Q7849.8138,222.5995 7849.22,222.3339 Q7848.6263,222.0527 7848.0013,222.0527 Q7846.6575,222.0527 7845.97,223.1308 Q7845.2825,224.1933 7845.2825,226.287 Q7845.2825,228.3808 7845.97,229.4589 Q7846.6575,230.5214 7848.0013,230.5214 Q7848.6263,230.5214 7849.22,230.2558 Q7849.8138,229.9745 7850.4388,229.3964 L7850.4388,232.1152 Z " fill="#000000"/><text fill="#D9B8FF" font-family="Helvetica" font-size="17" lengthAdjust="spacing" textLength="129" x="7866.47" y="232.3598">aws_sqs_queue</text></g><!--link aws_athena_work_group to aws_kms_key--><g id="link_aws_athena_work_group_aws_kms_key"><path codeLine="149" d="M780.04,34.01 C669.06,42.34 519.36,61.81 481.97,106.79 C442.32,154.5 438.76,201.86 481.97,246.37 C527.77,293.56 2603.9204,319.4224 3039.5704,324.3324 " fill="none" id="aws_athena_work_group-to-aws_kms_key" style="stroke:#1A83AF;stroke-width:2.0;"/><polygon fill="#1A83AF" points="3045.57,324.4,3036.6157,320.2988,3040.5703,324.3437,3036.5255,328.2983,3045.57,324.4" style="stroke:#1A83AF;stroke-width:2.0;"/></g><!--link aws_athena_work_group to aws_sagemaker_processing_job--><g id="link_aws_athena_work_group_aws_sagemaker_processing_job"><path codeLine="150" d="M1031.8,44.05 C1164.95,61.13 1369.1088,87.3363 1511.0888,105.5563 " fill="none" id="aws_athena_work_group-to-aws_sagemaker_processing_job" style="stroke:#1A83AF;stroke-width:2.0;"/><polygon fill="#1A83AF" points="1517.04,106.32,1508.6223,101.207,1512.0807,105.6836,1507.6041,109.1419,1517.04,106.32" style="stroke:#1A83AF;stroke-width:2.0;"/></g><!--link aws_bedrock_agent to aws_bedrock_agent_version--><g id="link_aws_bedrock_agent_aws_bedrock_agent_version"><path codeLine="151" d="M184.97,47.22 C184.97,64.36 184.97,83.28 184.97,100.41 " fill="none" id="aws_bedrock_agent-to-aws_bedrock_agent_version" style="stroke:#1A83AF;stroke-width:2.0;"/><polygon fill="#1A83AF" points="184.97,106.41,188.97,97.41,184.97,101.41,180.97,97.41,184.97,106.41" style="stroke:#1A83AF;stroke-width:2.0;"/></g><!--link aws_bedrock_agent to aws_bedrock_guardrail--><g id="link_aws_bedrock_agent_aws_bedrock_guardrail"><path codeLine="152" d="M110.2,47.18 C79.81,59.09 47.73,77.83 29.97,106.79 C6,145.89 52.4596,181.2501 91.7596,203.3401 " fill="none" id="aws_bedrock_agent-to-aws_bedrock_guardrail" style="stroke:#1A83AF;stroke-width:2.0;"/><polygon fill="#1A83AF" points="96.99,206.28,91.1044,198.3832,92.6314,203.8301,87.1845,205.357,96.99,206.28" style="stroke:#1A83AF;stroke-width:2.0;"/></g><!--link aws_bedrock_agent to aws_kms_key--><g id="link_aws_bedrock_agent_aws_kms_key"><path codeLine="153" d="M236.11,47.19 C268.05,60.8 308.86,81.16 339.97,106.79 C400.71,156.85 378.75,210.82 448.97,246.37 C567.64,306.45 2608.1901,322.1331 3039.5601,324.7831 " fill="none" id="aws_bedrock_agent-to-aws_kms_key" style="stroke:#1A83AF;stroke-width:2.0;"/><polygon fill="#1A83AF" points="3045.56,324.82,3036.5847,320.7648,3040.5601,324.7893,3036.5356,328.7646,3045.56,324.82" style="stroke:#1A83AF;stroke-width:2.0;"/></g><!--link aws_bedrock_agent_flow to aws_bedrock_agent_flow_version--><g id="link_aws_bedrock_agent_flow_aws_bedrock_agent_flow_version"><path codeLine="154" d="M631.88,147.01 C638.02,164.15 644.9195,183.4104 651.0495,200.5504 " fill="none" id="aws_bedrock_agent_flow-to-aws_bedrock_agent_flow_version" style="stroke:#1A83AF;stroke-width:2.0;"/><polygon fill="#1A83AF" points="653.07,206.2,653.8056,196.3787,651.3862,201.492,646.2728,199.0727,653.07,206.2" style="stroke:#1A83AF;stroke-width:2.0;"/></g><!--link aws_bedrock_agent_flow to aws_kms_key--><g id="link_aws_bedrock_agent_flow_aws_kms_key"><path codeLine="155" d="M679.53,147.05 C722.73,162.59 784.49,185.25 837.97,206.58 C879.73,223.24 887.1,236.56 930.97,246.37 C1140.25,293.19 2671.3107,318.5809 3039.7607,324.0509 " fill="none" id="aws_bedrock_agent_flow-to-aws_kms_key" style="stroke:#1A83AF;stroke-width:2.0;"/><polygon fill="#1A83AF" points="3045.76,324.14,3036.8204,320.0068,3040.7606,324.0658,3036.7016,328.006,3045.76,324.14" style="stroke:#1A83AF;stroke-width:2.0;"/></g><!--link aws_bedrock_agent_flow to aws_lambda_function--><g id="link_aws_bedrock_agent_flow_aws_lambda_function"><path codeLine="156" d="M720.88,147.07 C805.63,164.19 922.6788,187.8418 1007.3688,204.9518 " fill="none" id="aws_bedrock_agent_flow-to-aws_lambda_function" style="stroke:#1A83AF;stroke-width:2.0;"/><polygon fill="#1A83AF" points="1013.25,206.14,1005.2204,200.4369,1008.349,205.1499,1003.6361,208.2785,1013.25,206.14" style="stroke:#1A83AF;stroke-width:2.0;"/></g><!--link aws_bedrock_agent_flow_version to aws_kms_key--><g id="link_aws_bedrock_agent_flow_version_aws_kms_key"><path codeLine="157" d="M820.83,244.42 C829.66,245.13 838.42,245.79 846.97,246.37 C1707.18,304.66 2747.2004,320.8074 3039.6804,324.3474 " fill="none" id="aws_bedrock_agent_flow_version-to-aws_kms_key" style="stroke:#1A83AF;stroke-width:2.0;"/><polygon fill="#1A83AF" points="3045.68,324.42,3036.7291,320.3114,3040.6804,324.3595,3036.6322,328.3108,3045.68,324.42" style="stroke:#1A83AF;stroke-width:2.0;"/></g><!--link aws_bedrock_agent_prompt to aws_bedrock_custom_model--><g id="link_aws_bedrock_agent_prompt_aws_bedrock_custom_model"><path codeLine="158" d="M3233.34,47.22 C3235.44,64.36 3237.7699,83.3246 3239.8699,100.4546 " fill="none" id="aws_bedrock_agent_prompt-to-aws_bedrock_custom_model" style="stroke:#1A83AF;stroke-width:2.0;"/><polygon fill="#1A83AF" points="3240.6,106.41,3243.4751,96.9902,3239.9916,101.4472,3235.5346,97.9636,3240.6,106.41" style="stroke:#1A83AF;stroke-width:2.0;"/></g><!--link aws_bedrock_agent_prompt to aws_kms_key--><g id="link_aws_bedrock_agent_prompt_aws_kms_key"><path codeLine="159" d="M3192.58,47.29 C3113.16,87.8 2936.95,179.86 2921.97,206.58 C2890.29,263.12 2970.1157,293.8219 3039.7857,310.0119 " fill="none" id="aws_bedrock_agent_prompt-to-aws_kms_key" style="stroke:#1A83AF;stroke-width:2.0;"/><polygon fill="#1A83AF" points="3045.63,311.37,3037.769,305.4367,3040.7598,310.2382,3035.9582,313.229,3045.63,311.37" style="stroke:#1A83AF;stroke-width:2.0;"/></g><!--link aws_bedrock_agent_version to aws_bedrock_guardrail--><g id="link_aws_bedrock_agent_version_aws_bedrock_guardrail"><path codeLine="160" d="M175.29,147.01 C166.7,164.15 156.8958,183.6947 148.3158,200.8347 " fill="none" id="aws_bedrock_agent_version-to-aws_bedrock_guardrail" style="stroke:#1A83AF;stroke-width:2.0;"/><polygon fill="#1A83AF" points="145.63,206.2,153.2356,199.9426,147.8682,201.7289,146.0818,196.3615,145.63,206.2" style="stroke:#1A83AF;stroke-width:2.0;"/></g><!--link aws_bedrock_agent_version to aws_kms_key--><g id="link_aws_bedrock_agent_version_aws_kms_key"><path codeLine="161" d="M203.58,147.01 C232.04,175.06 289.47,225.92 349.97,246.37 C480.92,290.64 2600.1505,318.8564 3039.7705,324.2464 " fill="none" id="aws_bedrock_agent_version-to-aws_kms_key" style="stroke:#1A83AF;stroke-width:2.0;"/><polygon fill="#1A83AF" points="3045.77,324.32,3036.8197,320.21,3040.7704,324.2587,3036.7216,328.2094,3045.77,324.32" style="stroke:#1A83AF;stroke-width:2.0;"/></g><!--link aws_bedrock_custom_model to aws_bedrock_model_customization_job--><g id="link_aws_bedrock_custom_model_aws_bedrock_model_customization_job"><path codeLine="162" d="M3219.66,147.01 C3198.97,164.15 3173.5296,185.2312 3152.8496,202.3712 " fill="none" id="aws_bedrock_custom_model-to-aws_bedrock_model_customization_job" style="stroke:#1A83AF;stroke-width:2.0;"/><polygon fill="#1A83AF" points="3148.23,206.2,3157.7119,203.5365,3152.0796,203.0093,3152.6068,197.3771,3148.23,206.2" style="stroke:#1A83AF;stroke-width:2.0;"/></g><!--link aws_bedrock_custom_model to aws_kms_key--><g id="link_aws_bedrock_custom_model_aws_kms_key"><path codeLine="163" d="M3273.83,147.04 C3307.1,170.38 3352.23,210.92 3327.97,246.37 C3300.32,286.78 3254.5634,305.2272 3210.2934,314.8372 " fill="none" id="aws_bedrock_custom_model-to-aws_kms_key" style="stroke:#1A83AF;stroke-width:2.0;"/><polygon fill="#1A83AF" points="3204.43,316.11,3214.0737,318.1097,3209.3162,315.0493,3212.3766,310.2918,3204.43,316.11" style="stroke:#1A83AF;stroke-width:2.0;"/></g><!--link aws_bedrock_evaluation_job to aws_kms_key--><g id="link_aws_bedrock_evaluation_job_aws_kms_key"><path codeLine="164" d="M3471.36,246.85 C3393.63,264.45 3285.7518,288.8647 3210.0718,306.0047 " fill="none" id="aws_bedrock_evaluation_job-to-aws_kms_key" style="stroke:#1A83AF;stroke-width:2.0;"/><polygon fill="#1A83AF" points="3204.22,307.33,3213.8812,309.2432,3209.0965,306.2256,3212.1142,301.4408,3204.22,307.33" style="stroke:#1A83AF;stroke-width:2.0;"/></g><!--link aws_bedrock_guardrail to aws_kms_key--><g id="link_aws_bedrock_guardrail_aws_kms_key"><path codeLine="165" d="M252.92,243.93 C261.73,244.86 270.48,245.69 278.97,246.37 C838.37,290.96 2638.3906,318.4354 3039.5406,324.0954 " fill="none" id="aws_bedrock_guardrail-to-aws_kms_key" style="stroke:#1A83AF;stroke-width:2.0;"/><polygon fill="#1A83AF" points="3045.54,324.18,3036.5973,320.0534,3040.5405,324.1095,3036.4845,328.0526,3045.54,324.18" style="stroke:#1A83AF;stroke-width:2.0;"/></g><!--link aws_bedrock_model_customization_job to aws_kms_key--><g id="link_aws_bedrock_model_customization_job_aws_kms_key"><path codeLine="166" d="M3124.97,246.8 C3124.97,263.94 3124.97,282.85 3124.97,299.99 " fill="none" id="aws_bedrock_model_customization_job-to-aws_kms_key" style="stroke:#1A83AF;stroke-width:2.0;"/><polygon fill="#1A83AF" points="3124.97,305.99,3128.97,296.99,3124.97,300.99,3120.97,296.99,3124.97,305.99" style="stroke:#1A83AF;stroke-width:2.0;"/></g><!--link aws_cloud_trail to aws_kms_key--><g id="link_aws_cloud_trail_aws_kms_key"><path codeLine="167" d="M2576.77,146.93 C2618.43,173.03 2697.15,219.47 2769.97,246.37 C2861.77,280.28 2966.6179,301.0862 3039.7379,312.9862 " fill="none" id="aws_cloud_trail-to-aws_kms_key" style="stroke:#1A83AF;stroke-width:2.0;"/><polygon fill="#1A83AF" points="3045.66,313.95,3037.4194,308.5562,3040.7249,313.1468,3036.1343,316.4524,3045.66,313.95" style="stroke:#1A83AF;stroke-width:2.0;"/></g><!--link aws_cloud_trail to aws_sns_topic--><g id="link_aws_cloud_trail_aws_sns_topic"><path codeLine="168" d="M2545.78,147.01 C2544.73,164.15 2543.5669,183.0712 2542.5169,200.2112 " fill="none" id="aws_cloud_trail-to-aws_sns_topic" style="stroke:#1A83AF;stroke-width:2.0;"/><polygon fill="#1A83AF" points="2542.15,206.2,2546.6928,197.4614,2542.4557,201.2094,2538.7078,196.9723,2542.15,206.2" style="stroke:#1A83AF;stroke-width:2.0;"/></g><!--link aws_cloudwatch_log_group to aws_kms_key--><g id="link_aws_cloudwatch_log_group_aws_kms_key"><path codeLine="169" d="M3732.56,245.3 C3578,265.64 3336.3087,297.4468 3210.2287,314.0468 " fill="none" id="aws_cloudwatch_log_group-to-aws_kms_key" style="stroke:#1A83AF;stroke-width:2.0;"/><polygon fill="#1A83AF" points="3204.28,314.83,3213.7251,317.621,3209.2372,314.1773,3212.6808,309.6894,3204.28,314.83" style="stroke:#1A83AF;stroke-width:2.0;"/></g><!--link aws_cognito_user_pool to aws_kms_key--><g id="link_aws_cognito_user_pool_aws_kms_key"><path codeLine="170" d="M908.12,146.64 C918.2,174.21 941.09,224.47 979.97,246.37 C1071.56,297.97 2662.7604,319.8389 3039.7204,324.3089 " fill="none" id="aws_cognito_user_pool-to-aws_kms_key" style="stroke:#1A83AF;stroke-width:2.0;"/><polygon fill="#1A83AF" points="3045.72,324.38,3036.7681,320.2736,3040.7204,324.3207,3036.6732,328.273,3045.72,324.38" style="stroke:#1A83AF;stroke-width:2.0;"/></g><!--link aws_cognito_user_pool to aws_lambda_function--><g id="link_aws_cognito_user_pool_aws_lambda_function"><path codeLine="171" d="M942.87,147.01 C979.16,164.15 1026.4652,186.4964 1062.7352,203.6364 " fill="none" id="aws_cognito_user_pool-to-aws_lambda_function" style="stroke:#1A83AF;stroke-width:2.0;"/><polygon fill="#1A83AF" points="1068.16,206.2,1061.7319,198.7381,1063.6394,204.0637,1058.3138,205.9712,1068.16,206.2" style="stroke:#1A83AF;stroke-width:2.0;"/></g><!--link aws_dynamodb_global_table to aws_kms_key--><g id="link_aws_dynamodb_global_table_aws_kms_key"><path codeLine="172" d="M4037.68,244.49 C4031.7,245.14 4025.78,245.77 4019.97,246.37 C3719.16,277.49 3366.6314,306.2573 3210.3514,318.6073 " fill="none" id="aws_dynamodb_global_table-to-aws_kms_key" style="stroke:#1A83AF;stroke-width:2.0;"/><polygon fill="#1A83AF" points="3204.37,319.08,3213.6571,322.3586,3209.3545,318.6861,3213.0269,314.3834,3204.37,319.08" style="stroke:#1A83AF;stroke-width:2.0;"/></g><!--link aws_dynamodb_table to aws_kinesis_stream--><g id="link_aws_dynamodb_table_aws_kinesis_stream"><path codeLine="173" d="M4437.09,147.01 C4457.6,164.15 4482.8079,185.2103 4503.2979,202.3503 " fill="none" id="aws_dynamodb_table-to-aws_kinesis_stream" style="stroke:#1A83AF;stroke-width:2.0;"/><polygon fill="#1A83AF" points="4507.9,206.2,4503.5633,197.3573,4504.0649,202.9919,4498.4303,203.4935,4507.9,206.2" style="stroke:#1A83AF;stroke-width:2.0;"/></g><!--link aws_dynamodb_table to aws_kms_key--><g id="link_aws_dynamodb_table_aws_kms_key"><path codeLine="174" d="M4407.88,146.94 C4398.06,174.41 4375.9,223.99 4337.97,246.37 C4240.73,303.75 3464.4293,320.2381 3210.3493,324.1281 " fill="none" id="aws_dynamodb_table-to-aws_kms_key" style="stroke:#1A83AF;stroke-width:2.0;"/><polygon fill="#1A83AF" points="3204.35,324.22,3213.4102,328.0818,3209.3494,324.1435,3213.2877,320.0827,3204.35,324.22" style="stroke:#1A83AF;stroke-width:2.0;"/></g><!--link aws_ec2_snapshot to aws_kms_key--><g id="link_aws_ec2_snapshot_aws_kms_key"><path codeLine="175" d="M5328.16,243.47 C5319.32,244.58 5310.49,245.57 5301.97,246.37 C4484.83,322.69 3494.78,326.3241 3210.26,325.6541 " fill="none" id="aws_ec2_snapshot-to-aws_kms_key" style="stroke:#1A83AF;stroke-width:2.0;"/><polygon fill="#1A83AF" points="3204.26,325.64,3213.2506,329.6612,3209.26,325.6518,3213.2694,321.6612,3204.26,325.64" style="stroke:#1A83AF;stroke-width:2.0;"/></g><!--link aws_ec2_volume to aws_ec2_snapshot--><g id="link_aws_ec2_volume_aws_ec2_snapshot"><path codeLine="176" d="M5365.99,147.01 C5379.31,164.15 5394.9883,184.3224 5408.3083,201.4624 " fill="none" id="aws_ec2_volume-to-aws_ec2_snapshot" style="stroke:#1A83AF;stroke-width:2.0;"/><polygon fill="#1A83AF" points="5411.99,206.2,5409.6258,196.6391,5408.9219,202.252,5403.309,201.5481,5411.99,206.2" style="stroke:#1A83AF;stroke-width:2.0;"/></g><!--link aws_ec2_volume to aws_kms_key--><g id="link_aws_ec2_volume_aws_kms_key"><path codeLine="177" d="M5339.93,146.82 C5322.68,174.62 5286.43,225.17 5239.97,246.37 C5145.77,289.35 3583.3292,317.7206 3210.1792,323.9006 " fill="none" id="aws_ec2_volume-to-aws_kms_key" style="stroke:#1A83AF;stroke-width:2.0;"/><polygon fill="#1A83AF" points="3204.18,324,3213.245,327.8504,3209.1793,323.9172,3213.1125,319.8515,3204.18,324" style="stroke:#1A83AF;stroke-width:2.0;"/></g><!--link aws_ecs_cluster to aws_kms_key--><g id="link_aws_ecs_cluster_aws_kms_key"><path codeLine="178" d="M5560.16,244.25 C5554.36,245.06 5548.59,245.78 5542.97,246.37 C5073.99,295.95 3573.1894,319.1779 3210.1894,324.1479 " fill="none" id="aws_ecs_cluster-to-aws_kms_key" style="stroke:#1A83AF;stroke-width:2.0;"/><polygon fill="#1A83AF" points="3204.19,324.23,3213.2439,328.1064,3209.1895,324.1615,3213.1344,320.1072,3204.19,324.23" style="stroke:#1A83AF;stroke-width:2.0;"/></g><!--link aws_efs_file_system to aws_kms_key--><g id="link_aws_efs_file_system_aws_kms_key"><path codeLine="179" d="M5770.54,244.55 C5764.6,245.23 5758.72,245.85 5752.97,246.37 C5239.58,293.02 3592.2494,318.685 3210.2494,324.095 " fill="none" id="aws_efs_file_system-to-aws_kms_key" style="stroke:#1A83AF;stroke-width:2.0;"/><polygon fill="#1A83AF" points="3204.25,324.18,3213.3057,328.0522,3209.2495,324.1092,3213.1925,320.053,3204.25,324.18" style="stroke:#1A83AF;stroke-width:2.0;"/></g><!--link aws_elasticache_replication_group to aws_kms_key--><g id="link_aws_elasticache_replication_group_aws_kms_key"><path codeLine="180" d="M6017.92,245.1 C6011.87,245.56 6005.87,245.99 5999.97,246.37 C4892.9,318.61 3547.83,324.8729 3210.25,325.2729 " fill="none" id="aws_elasticache_replication_group-to-aws_kms_key" style="stroke:#1A83AF;stroke-width:2.0;"/><polygon fill="#1A83AF" points="3204.25,325.28,3213.2547,329.2693,3209.25,325.2741,3213.2453,321.2693,3204.25,325.28" style="stroke:#1A83AF;stroke-width:2.0;"/></g><!--link aws_glacier_job to aws_kms_key--><g id="link_aws_glacier_job_aws_kms_key"><path codeLine="181" d="M6382.01,244.3 C6376.26,245.1 6370.54,245.8 6364.97,246.37 C5724.24,311.97 3644.32,323.3169 3210.46,324.9869 " fill="none" id="aws_glacier_job-to-aws_kms_key" style="stroke:#1A83AF;stroke-width:2.0;"/><polygon fill="#1A83AF" points="3204.46,325.01,3213.4753,328.9753,3209.46,324.9908,3213.4445,320.9754,3204.46,325.01" style="stroke:#1A83AF;stroke-width:2.0;"/></g><!--link aws_kinesis_stream to aws_kms_key--><g id="link_aws_kinesis_stream_aws_kms_key"><path codeLine="182" d="M4426.23,243.25 C4417.02,244.4 4407.84,245.46 4398.97,246.37 C3948.15,292.52 3410.606,315.0619 3210.166,322.3519 " fill="none" id="aws_kinesis_stream-to-aws_kms_key" style="stroke:#1A83AF;stroke-width:2.0;"/><polygon fill="#1A83AF" points="3204.17,322.57,3213.3094,326.2402,3209.1667,322.3883,3213.0187,318.2455,3204.17,322.57" style="stroke:#1A83AF;stroke-width:2.0;"/></g><!--link aws_lambda_function to aws_kms_key--><g id="link_aws_lambda_function_aws_kms_key"><path codeLine="183" d="M1221.27,244.53 C1227.25,245.21 1233.18,245.83 1238.97,246.37 C1937.25,311.55 2780.0102,322.8447 3039.7202,324.8047 " fill="none" id="aws_lambda_function-to-aws_kms_key" style="stroke:#1A83AF;stroke-width:2.0;"/><polygon fill="#1A83AF" points="3045.72,324.85,3036.7504,320.7822,3040.7201,324.8123,3036.6901,328.782,3045.72,324.85" style="stroke:#1A83AF;stroke-width:2.0;"/></g><!--link aws_rds_cluster to aws_kinesis_stream--><g id="link_aws_rds_cluster_aws_kinesis_stream"><path codeLine="184" d="M4730.78,147.01 C4687.12,164.15 4629.2644,186.8657 4585.6444,204.0057 " fill="none" id="aws_rds_cluster-to-aws_kinesis_stream" style="stroke:#1A83AF;stroke-width:2.0;"/><polygon fill="#1A83AF" points="4580.06,206.2,4589.8994,206.6314,4584.7136,204.3714,4586.9737,199.1856,4580.06,206.2" style="stroke:#1A83AF;stroke-width:2.0;"/></g><!--link aws_rds_cluster to aws_kms_key--><g id="link_aws_rds_cluster_aws_kms_key"><path codeLine="185" d="M4766.6,146.78 C4745.92,174.53 4703.25,225.02 4652.97,246.37 C4519.3,303.13 3504.9595,320.4116 3210.3695,324.2616 " fill="none" id="aws_rds_cluster-to-aws_kms_key" style="stroke:#1A83AF;stroke-width:2.0;"/><polygon fill="#1A83AF" points="3204.37,324.34,3213.4215,328.222,3209.3696,324.2747,3213.317,320.2227,3204.37,324.34" style="stroke:#1A83AF;stroke-width:2.0;"/></g><!--link aws_rds_cluster to aws_rds_cluster_snapshot--><g id="link_aws_rds_cluster_aws_rds_cluster_snapshot"><path codeLine="186" d="M4797.95,147.01 C4813.9,164.15 4833.004,184.6663 4848.944,201.8063 " fill="none" id="aws_rds_cluster-to-aws_rds_cluster_snapshot" style="stroke:#1A83AF;stroke-width:2.0;"/><polygon fill="#1A83AF" points="4853.03,206.2,4849.83,196.8855,4849.625,202.5386,4843.9718,202.3335,4853.03,206.2" style="stroke:#1A83AF;stroke-width:2.0;"/></g><!--link aws_rds_cluster to aws_rds_instance--><g id="link_aws_rds_cluster_aws_rds_instance"><path codeLine="187" d="M4848.92,147.01 C4910.01,164.12 4992.9525,187.361 5054.0825,204.491 " fill="none" id="aws_rds_cluster-to-aws_rds_instance" style="stroke:#1A83AF;stroke-width:2.0;"/><polygon fill="#1A83AF" points="5059.86,206.11,5052.2731,199.8299,5055.0455,204.7609,5050.1145,207.5332,5059.86,206.11" style="stroke:#1A83AF;stroke-width:2.0;"/></g><!--link aws_rds_cluster_snapshot to aws_kms_key--><g id="link_aws_rds_cluster_snapshot_aws_kms_key"><path codeLine="188" d="M4741.65,243.86 C4732.63,244.78 4723.67,245.63 4714.97,246.37 C4136.32,295.71 3442.3779,317.052 3210.0979,323.172 " fill="none" id="aws_rds_cluster_snapshot-to-aws_kms_key" style="stroke:#1A83AF;stroke-width:2.0;"/><polygon fill="#1A83AF" points="3204.1,323.33,3213.2022,327.0916,3209.0983,323.1983,3212.9915,319.0943,3204.1,323.33" style="stroke:#1A83AF;stroke-width:2.0;"/></g><!--link aws_rds_instance to aws_kms_key--><g id="link_aws_rds_instance_aws_kms_key"><path codeLine="189" d="M5034.68,244.25 C5028.69,245.05 5022.76,245.76 5016.97,246.37 C4316.85,319.73 3470.27,325.5714 3210.08,325.5114 " fill="none" id="aws_rds_instance-to-aws_kms_key" style="stroke:#1A83AF;stroke-width:2.0;"/><polygon fill="#1A83AF" points="3204.08,325.51,3213.0791,329.5121,3209.08,325.5112,3213.0809,321.5121,3204.08,325.51" style="stroke:#1A83AF;stroke-width:2.0;"/></g><!--link aws_redshift_cluster to aws_kms_key--><g id="link_aws_redshift_cluster_aws_kms_key"><path codeLine="190" d="M2235.74,46.74 C2278.77,58.45 2326.7,77.16 2362.97,106.79 C2418.51,152.17 2383.98,207.06 2443.97,246.37 C2541.4,310.23 2882.0006,322.4741 3039.7506,324.7341 " fill="none" id="aws_redshift_cluster-to-aws_kms_key" style="stroke:#1A83AF;stroke-width:2.0;"/><polygon fill="#1A83AF" points="3045.75,324.82,3036.8082,320.6915,3040.7505,324.7484,3036.6936,328.6907,3045.75,324.82" style="stroke:#1A83AF;stroke-width:2.0;"/></g><!--link aws_redshift_cluster to aws_sagemaker_processing_job--><g id="link_aws_redshift_cluster_aws_sagemaker_processing_job"><path codeLine="191" d="M2037.62,47.28 C1956.9,64.4 1845.6694,87.995 1765.0094,105.105 " fill="none" id="aws_redshift_cluster-to-aws_sagemaker_processing_job" style="stroke:#1A83AF;stroke-width:2.0;"/><polygon fill="#1A83AF" points="1759.14,106.35,1768.7741,108.3954,1764.0312,105.3125,1767.1141,100.5695,1759.14,106.35" style="stroke:#1A83AF;stroke-width:2.0;"/></g><!--link aws_sagemaker_auto_ml_job to aws_kms_key--><g id="link_aws_sagemaker_auto_ml_job_aws_kms_key"><path codeLine="192" d="M1709.06,37.07 C1908.79,50.74 2250.98,77.96 2300.97,106.79 C2367.52,145.19 2336.46,207.91 2402.97,246.37 C2510.69,308.66 2875.4908,321.6995 3039.6708,324.4495 " fill="none" id="aws_sagemaker_auto_ml_job-to-aws_kms_key" style="stroke:#1A83AF;stroke-width:2.0;"/><polygon fill="#1A83AF" points="3045.67,324.55,3036.7383,320.3998,3040.6707,324.4663,3036.6043,328.3987,3045.67,324.55" style="stroke:#1A83AF;stroke-width:2.0;"/></g><!--link aws_sagemaker_auto_ml_job to aws_sagemaker_processing_job--><g id="link_aws_sagemaker_auto_ml_job_aws_sagemaker_processing_job"><path codeLine="193" d="M1585.32,47.22 C1603.38,64.36 1625.269,85.1485 1643.309,102.2785 " fill="none" id="aws_sagemaker_auto_ml_job-to-aws_sagemaker_processing_job" style="stroke:#1A83AF;stroke-width:2.0;"/><polygon fill="#1A83AF" points="1647.66,106.41,1643.8879,97.3121,1644.0342,102.9671,1638.3792,103.1134,1647.66,106.41" style="stroke:#1A83AF;stroke-width:2.0;"/></g><!--link aws_sagemaker_auto_ml_job to aws_sagemaker_training_job--><g id="link_aws_sagemaker_auto_ml_job_aws_sagemaker_training_job"><path codeLine="194" d="M1540.21,47 C1511.68,71.34 1471.77,114.14 1496.97,146.58 C1518.24,173.96 1586.7558,192.3719 1657.2358,205.1219 " fill="none" id="aws_sagemaker_auto_ml_job-to-aws_sagemaker_training_job" style="stroke:#1A83AF;stroke-width:2.0;"/><polygon fill="#1A83AF" points="1663.14,206.19,1654.9958,200.6518,1658.2199,205.2999,1653.5717,208.524,1663.14,206.19" style="stroke:#1A83AF;stroke-width:2.0;"/></g><!--link aws_sagemaker_auto_ml_job to aws_sagemaker_transform_job--><g id="link_aws_sagemaker_auto_ml_job_aws_sagemaker_transform_job"><path codeLine="195" d="M1420.64,33.07 C1301.8,40.72 1146.64,59.7 1106.97,106.79 C1095.58,120.32 1096.17,132.58 1106.97,146.58 C1127.81,173.61 1195.6618,192.1197 1264.8118,205.0197 " fill="none" id="aws_sagemaker_auto_ml_job-to-aws_sagemaker_transform_job" style="stroke:#1A83AF;stroke-width:2.0;"/><polygon fill="#1A83AF" points="1270.71,206.12,1262.5962,200.5374,1265.7948,205.2031,1261.1291,208.4017,1270.71,206.12" style="stroke:#1A83AF;stroke-width:2.0;"/></g><!--link aws_sagemaker_compilation_job to aws_kms_key--><g id="link_aws_sagemaker_compilation_job_aws_kms_key"><path codeLine="196" d="M6590.24,245.14 C6584.42,245.59 6578.64,246 6572.97,246.37 C5886.4,291 3659.8496,319.0095 3210.2796,324.2895 " fill="none" id="aws_sagemaker_compilation_job-to-aws_kms_key" style="stroke:#1A83AF;stroke-width:2.0;"/><polygon fill="#1A83AF" points="3204.28,324.36,3213.3264,328.254,3209.2797,324.3013,3213.2324,320.2546,3204.28,324.36" style="stroke:#1A83AF;stroke-width:2.0;"/></g><!--link aws_sagemaker_domain to aws_kms_key--><g id="link_aws_sagemaker_domain_aws_kms_key"><path codeLine="197" d="M6941.49,244.93 C6935.92,245.47 6930.39,245.95 6924.97,246.37 C6164.67,305.02 3685.8199,322.0452 3210.0999,324.8052 " fill="none" id="aws_sagemaker_domain-to-aws_kms_key" style="stroke:#1A83AF;stroke-width:2.0;"/><polygon fill="#1A83AF" points="3204.1,324.84,3213.1231,328.7877,3209.0999,324.811,3213.0766,320.7879,3204.1,324.84" style="stroke:#1A83AF;stroke-width:2.0;"/></g><!--link aws_sagemaker_endpoint to aws_kms_key--><g id="link_aws_sagemaker_endpoint_aws_kms_key"><path codeLine="198" d="M2788.74,146.87 C2779.18,172.47 2767.42,217.89 2789.97,246.37 C2821.27,285.89 2950.9092,306.9052 3039.6992,317.1052 " fill="none" id="aws_sagemaker_endpoint-to-aws_kms_key" style="stroke:#1A83AF;stroke-width:2.0;"/><polygon fill="#1A83AF" points="3045.66,317.79,3037.1753,312.789,3040.6927,317.2194,3036.2623,320.7367,3045.66,317.79" style="stroke:#1A83AF;stroke-width:2.0;"/></g><!--link aws_sagemaker_endpoint to aws_sns_topic--><g id="link_aws_sagemaker_endpoint_aws_sns_topic"><path codeLine="199" d="M2746.39,147.01 C2701.51,164.15 2641.8947,186.9181 2597.0447,204.0581 " fill="none" id="aws_sagemaker_endpoint-to-aws_sns_topic" style="stroke:#1A83AF;stroke-width:2.0;"/><polygon fill="#1A83AF" points="2591.44,206.2,2601.2749,206.7236,2596.1106,204.4151,2598.4191,199.2507,2591.44,206.2" style="stroke:#1A83AF;stroke-width:2.0;"/></g><!--link aws_sagemaker_hyper_parameter_tuning_job to aws_kms_key--><g id="link_aws_sagemaker_hyper_parameter_tuning_job_aws_kms_key"><path codeLine="200" d="M2100.1,147.01 C2144.36,174.33 2230.45,223.47 2310.97,246.37 C2447.79,285.29 2863.1288,311.2944 3039.7688,320.8944 " fill="none" id="aws_sagemaker_hyper_parameter_tuning_job-to-aws_kms_key" style="stroke:#1A83AF;stroke-width:2.0;"/><polygon fill="#1A83AF" points="3045.76,321.22,3036.9903,316.7375,3040.7674,320.9487,3036.5562,324.7257,3045.76,321.22" style="stroke:#1A83AF;stroke-width:2.0;"/></g><!--link aws_sagemaker_hyper_parameter_tuning_job to aws_sagemaker_training_job--><g id="link_aws_sagemaker_hyper_parameter_tuning_job_aws_sagemaker_training_job"><path codeLine="201" d="M2017.81,147.01 C1971.53,164.15 1909.8961,186.975 1863.6461,204.115 " fill="none" id="aws_sagemaker_hyper_parameter_tuning_job-to-aws_sagemaker_training_job" style="stroke:#1A83AF;stroke-width:2.0;"/><polygon fill="#1A83AF" points="1858.02,206.2,1867.8491,206.8232,1862.7084,204.4625,1865.0691,199.3218,1858.02,206.2" style="stroke:#1A83AF;stroke-width:2.0;"/></g><!--link aws_sagemaker_inference_recommendations_job to aws_kms_key--><g id="link_aws_sagemaker_inference_recommendations_job_aws_kms_key"><path codeLine="202" d="M2868.85,47.16 C2896.97,59.46 2927.69,78.53 2943.97,106.79 C2975.95,162.31 2871.21,193.9 2907.97,246.37 C2938.9,290.53 2991.3223,309.0215 3039.7223,317.6115 " fill="none" id="aws_sagemaker_inference_recommendations_job-to-aws_kms_key" style="stroke:#1A83AF;stroke-width:2.0;"/><polygon fill="#1A83AF" points="3045.63,318.66,3037.4675,313.1488,3040.7069,317.7863,3036.0695,321.0257,3045.63,318.66" style="stroke:#1A83AF;stroke-width:2.0;"/></g><!--link aws_sagemaker_inference_recommendations_job to aws_sagemaker_endpoint--><g id="link_aws_sagemaker_inference_recommendations_job_aws_sagemaker_endpoint"><path codeLine="203" d="M2805.8,47.22 C2803.87,64.36 2801.7418,83.3177 2799.8118,100.4477 " fill="none" id="aws_sagemaker_inference_recommendations_job-to-aws_sagemaker_endpoint" style="stroke:#1A83AF;stroke-width:2.0;"/><polygon fill="#1A83AF" points="2799.14,106.41,2804.1225,97.9144,2799.6998,101.4414,2796.1728,97.0187,2799.14,106.41" style="stroke:#1A83AF;stroke-width:2.0;"/></g><!--link aws_sagemaker_labeling_job to aws_kms_key--><g id="link_aws_sagemaker_labeling_job_aws_kms_key"><path codeLine="204" d="M1370,147.06 C1430.87,160.22 1508.74,180.07 1574.97,206.58 C1608.55,220.03 1611.23,236.3 1645.97,246.37 C1912.09,323.48 2772.22,326.7006 3039.61,325.7806 " fill="none" id="aws_sagemaker_labeling_job-to-aws_kms_key" style="stroke:#1A83AF;stroke-width:2.0;"/><polygon fill="#1A83AF" points="3045.61,325.76,3036.5963,321.791,3040.61,325.7772,3036.6238,329.7909,3045.61,325.76" style="stroke:#1A83AF;stroke-width:2.0;"/></g><!--link aws_sagemaker_labeling_job to aws_lambda_function--><g id="link_aws_sagemaker_labeling_job_aws_lambda_function"><path codeLine="205" d="M1235.75,147.01 C1208.05,164.15 1172.9012,185.9012 1145.2212,203.0412 " fill="none" id="aws_sagemaker_labeling_job-to-aws_lambda_function" style="stroke:#1A83AF;stroke-width:2.0;"/><polygon fill="#1A83AF" points="1140.12,206.2,1149.8776,204.8627,1144.371,203.5677,1145.666,198.0611,1140.12,206.2" style="stroke:#1A83AF;stroke-width:2.0;"/></g><!--link aws_sagemaker_labeling_job to aws_sagemaker_training_job--><g id="link_aws_sagemaker_labeling_job_aws_sagemaker_training_job"><path codeLine="206" d="M1373.78,147.07 C1468.15,164.19 1599.1564,187.9589 1693.4664,205.0689 " fill="none" id="aws_sagemaker_labeling_job-to-aws_sagemaker_training_job" style="stroke:#1A83AF;stroke-width:2.0;"/><polygon fill="#1A83AF" points="1699.37,206.14,1691.2286,200.5977,1694.4503,205.2475,1689.8005,208.4692,1699.37,206.14" style="stroke:#1A83AF;stroke-width:2.0;"/></g><!--link aws_sagemaker_labeling_job to aws_sagemaker_transform_job--><g id="link_aws_sagemaker_labeling_job_aws_sagemaker_transform_job"><path codeLine="207" d="M1294.63,147.01 C1319.17,164.15 1349.9217,185.6234 1374.4517,202.7634 " fill="none" id="aws_sagemaker_labeling_job-to-aws_sagemaker_transform_job" style="stroke:#1A83AF;stroke-width:2.0;"/><polygon fill="#1A83AF" points="1379.37,206.2,1374.2836,197.7662,1375.2714,203.3362,1369.7015,204.324,1379.37,206.2" style="stroke:#1A83AF;stroke-width:2.0;"/></g><!--link aws_sagemaker_labeling_job to aws_sns_topic--><g id="link_aws_sagemaker_labeling_job_aws_sns_topic"><path codeLine="208" d="M1409.89,139.57 C1438.72,141.93 1468.81,144.36 1496.97,146.58 C1856.43,174.93 2279.7062,206.28 2454.7462,219.15 " fill="none" id="aws_sagemaker_labeling_job-to-aws_sns_topic" style="stroke:#1A83AF;stroke-width:2.0;"/><polygon fill="#1A83AF" points="2460.73,219.59,2452.0475,214.9408,2455.7435,219.2234,2451.4609,222.9193,2460.73,219.59" style="stroke:#1A83AF;stroke-width:2.0;"/></g><!--link aws_sagemaker_notebook to aws_kms_key--><g id="link_aws_sagemaker_notebook_aws_kms_key"><path codeLine="209" d="M7224.02,244.97 C7218.26,245.49 7212.56,245.96 7206.97,246.37 C6386.92,306.12 3706.7099,322.3395 3210.2499,324.8595 " fill="none" id="aws_sagemaker_notebook-to-aws_kms_key" style="stroke:#1A83AF;stroke-width:2.0;"/><polygon fill="#1A83AF" points="3204.25,324.89,3213.2702,328.8443,3209.2499,324.8646,3213.2296,320.8444,3204.25,324.89" style="stroke:#1A83AF;stroke-width:2.0;"/></g><!--link aws_sagemaker_processing_job to aws_kms_key--><g id="link_aws_sagemaker_processing_job_aws_kms_key"><path codeLine="210" d="M1741.07,146.98 C1844.19,173.47 2038.6,220.71 2206.97,246.37 C2515.14,293.33 2880.0965,314.2409 3039.6665,321.6709 " fill="none" id="aws_sagemaker_processing_job-to-aws_kms_key" style="stroke:#1A83AF;stroke-width:2.0;"/><polygon fill="#1A83AF" points="3045.66,321.95,3036.8558,317.5357,3040.6654,321.7174,3036.4837,325.5271,3045.66,321.95" style="stroke:#1A83AF;stroke-width:2.0;"/></g><!--link aws_sagemaker_processing_job to aws_sagemaker_training_job--><g id="link_aws_sagemaker_processing_job_aws_sagemaker_training_job"><path codeLine="211" d="M1695.23,147.01 C1719.43,164.15 1749.6957,185.5893 1773.8657,202.7293 " fill="none" id="aws_sagemaker_processing_job-to-aws_sagemaker_training_job" style="stroke:#1A83AF;stroke-width:2.0;"/><polygon fill="#1A83AF" points="1778.76,206.2,1773.7324,197.731,1774.6814,203.3077,1769.1048,204.2567,1778.76,206.2" style="stroke:#1A83AF;stroke-width:2.0;"/></g><!--link aws_sagemaker_training_job to aws_kms_key--><g id="link_aws_sagemaker_training_job_aws_kms_key"><path codeLine="212" d="M1948.71,240.16 C1973.79,242.3 1999.64,244.44 2023.97,246.37 C2406.52,276.65 2858.2834,307.4286 3039.5034,319.5786 " fill="none" id="aws_sagemaker_training_job-to-aws_kms_key" style="stroke:#1A83AF;stroke-width:2.0;"/><polygon fill="#1A83AF" points="3045.49,319.98,3036.7777,315.3869,3040.5012,319.6455,3036.2426,323.369,3045.49,319.98" style="stroke:#1A83AF;stroke-width:2.0;"/></g><!--link aws_sagemaker_transform_job to aws_kms_key--><g id="link_aws_sagemaker_transform_job_aws_kms_key"><path codeLine="213" d="M1558.41,244.12 C1567.39,244.93 1576.3,245.69 1584.97,246.37 C2143.43,290.28 2811.8433,314.9196 3039.5333,322.5296 " fill="none" id="aws_sagemaker_transform_job-to-aws_kms_key" style="stroke:#1A83AF;stroke-width:2.0;"/><polygon fill="#1A83AF" points="3045.53,322.73,3036.6686,318.4316,3040.5328,322.563,3036.4014,326.4271,3045.53,322.73" style="stroke:#1A83AF;stroke-width:2.0;"/></g><!--link aws_secretsmanager_secret to aws_kms_key--><g id="link_aws_secretsmanager_secret_aws_kms_key"><path codeLine="214" d="M7521.87,245.04 C7516.16,245.54 7510.51,245.98 7504.97,246.37 C6621.56,308.01 3726.9399,322.7648 3210.1099,324.9348 " fill="none" id="aws_secretsmanager_secret-to-aws_kms_key" style="stroke:#1A83AF;stroke-width:2.0;"/><polygon fill="#1A83AF" points="3204.11,324.96,3213.1267,328.9222,3209.11,324.939,3213.0931,320.9222,3204.11,324.96" style="stroke:#1A83AF;stroke-width:2.0;"/></g><!--link aws_sns_topic to aws_kms_key--><g id="link_aws_sns_topic_aws_kms_key"><path codeLine="215" d="M2621.29,241.76 C2630.29,243.33 2639.32,244.89 2647.97,246.37 C2787.8,270.28 2944.9679,296.0363 3039.6679,311.4463 " fill="none" id="aws_sns_topic-to-aws_kms_key" style="stroke:#1A83AF;stroke-width:2.0;"/><polygon fill="#1A83AF" points="3045.59,312.41,3037.3493,307.0164,3040.6549,311.6069,3036.0644,314.9126,3045.59,312.41" style="stroke:#1A83AF;stroke-width:2.0;"/></g><!--link aws_sqs_queue to aws_kms_key--><g id="link_aws_sqs_queue_aws_kms_key"><path codeLine="216" d="M7832.13,244.31 C7826.34,245.11 7820.58,245.81 7814.97,246.37 C7338.76,293.73 3788.8699,320.5876 3210.3999,324.6776 " fill="none" id="aws_sqs_queue-to-aws_kms_key" style="stroke:#1A83AF;stroke-width:2.0;"/><polygon fill="#1A83AF" points="3204.4,324.72,3213.4281,328.6563,3209.3999,324.6846,3213.3715,320.6565,3204.4,324.72" style="stroke:#1A83AF;stroke-width:2.0;"/></g><!--SRC=[hPTDRziu48Rl-XK2SYwGDEWckIoG1YZQIx7OxcrH42DoPB6cI9MaOhYB_lUbNDUcnGzHJGy17CqpNnJ5UTbnXZNsWztNFVODQbEPBPS3QEZhHwtLxaa9fUkhjeNszcvkVAUaNGG-Ge_rUnJFQ3c5EV5Fn-bMeZ7rQy_q5kXsezKesO_mLeCqpeJIUjIJ06CUhTMy6IrwnR27vhvjv-GywDKjkxdx0mDCQORwY5nVNxERXpcoc2hRzudunBzXVUClsaTbCIWpI76WibLEX5TaqEXFUxB6lu0nBZVr6-_PtpzgqXBrnVDF7J2rc-WMXF7J68iQbTqF-1HqXG_thBsBmXzIS4MdfQjXPmZO3YMGdT9RCg53_LzLVVU01fbMT4jWupPDraXQeNRB17bsdmTNCayEMhdFASyi1AAZiQedlM8eKWm-WnZ1kYZaYsfIr6O4pJJmP9X3ZcD2_YqPZmerCc9ZaGwc7LZQ4Q4syLT1rKPogyXeK9D1gI08sqjmfJHa8rG3WbXe12QXg1NfQs8a3APJDcPxLcBi8rvJ1-EqzG9JQqZB1HApT-O-CBjVqpT3EoGQ1-5-7bOlkW0R0PIxtYDBwxO_6cw8iHeXoBBjtH_kvuy5z0q3qewIsiX6qYpPbMTABjV4S6aiI1eic4PcEjxQL7pZTdWFMnSTHlV6Un7h-GnHzx5maTntPv2f7hXCsr6oGV7mGpyJdJjOtEwRZXgSkhUZT4TMFYkNhJkJt3AulbsflSjogDNatGGqA1Q3ItS6DqfjquGxIwYRZ8kHfWzJbb3Ij4htKGofHcjwa8xNnty3o3LkrS1fOFXgoDSHn-DsYP_Fh_wzkdcyltryz_dLd_xcBiLJwrA5fttW6pr_rpYUJj8I9x-noAHPgCwVDSKXrgQSdI3LmiXRaUyu09DD-jDjXNiwORB6WdUthi6BmPnCbvYfAoB5Siy6Vf7FUVmNuIana7NsfS6lWwUJfKfgYdpmG66y58zz876Paiqq4oqXUp7-oroyy1UgPv4yQg20ywCimfT1pq8Z3yx4L1xEIgkigo-qik1CTcNPkThAmhxsAddRURuqS4pMbNdz57fLKXqkLdNIYdbohXnVI6VbG5o6PZCMkloEj77bziiHpggkoglhmlwFMhkGFYdl5_ENGw18kHVcN1EXwENaBmQ5LQqC4YvXbRbs5DQGzuaDmLBVedLS4IAvonTY93RLwVPLk52pkzXlyYfQf8lhNM7YoyjUtYbwzSkxd2w2UUnqBKnY_mC0]--></g></svg>