<?xml version="1.0" encoding="us-ascii" standalone="no"?><svg xmlns="http://www.w3.org/2000/svg" xmlns:xlink="http://www.w3.org/1999/xlink" contentStyleType="text/css" height="1958px" preserveAspectRatio="none" style="width:857px;height:1958px;" version="1.1" viewBox="0 0 857 1958" width="857px" zoomAndPan="magnify"><defs/><g><!--class aws_acm_certificate--><g id="elem_aws_acm_certificate"><rect codeLine="22" fill="#3D176E" height="652.6172" id="aws_acm_certificate" rx="2.5" ry="2.5" style="stroke:#000D19;stroke-width:0.5;" width="438" x="7" y="633.85"/><ellipse cx="132.25" cy="653.7445" fill="#ADD1B2" rx="11" ry="11" style="stroke:#181818;stroke-width:1.0;"/><path d="M135.2188,659.3852 Q134.6406,659.682 134,659.8227 Q133.3594,659.9789 132.6563,659.9789 Q130.1563,659.9789 128.8281,658.3383 Q127.5156,656.682 127.5156,653.557 Q127.5156,650.432 128.8281,648.7758 Q130.1563,647.1195 132.6563,647.1195 Q133.3594,647.1195 134,647.2758 Q134.6563,647.432 135.2188,647.7289 L135.2188,650.4477 Q134.5938,649.8695 134,649.6039 Q133.4063,649.3227 132.7813,649.3227 Q131.4375,649.3227 130.75,650.4008 Q130.0625,651.4633 130.0625,653.557 Q130.0625,655.6508 130.75,656.7289 Q131.4375,657.7914 132.7813,657.7914 Q133.4063,657.7914 134,657.5258 Q134.5938,657.2445 135.2188,656.6664 L135.2188,659.3852 Z " fill="#000000"/><text fill="#D9B8FF" font-family="Helvetica" font-size="17" lengthAdjust="spacing" textLength="169" x="157.75" y="659.6298">aws_acm_certificate</text><line style="stroke:#000D19;stroke-width:0.5;" x1="8" x2="444" y1="673.6391" y2="673.6391"/><text fill="#D9B8FF" font-family="sans-serif" font-size="14" font-weight="bold" lengthAdjust="spacing" textLength="191" x="18" y="695.6342">certificate_authority_arn</text><text fill="#D9B8FF" font-family="sans-serif" font-size="14" lengthAdjust="spacing" textLength="48" x="209" y="695.6342">: string</text><text fill="#D9B8FF" font-family="sans-serif" font-size="14" font-weight="bold" lengthAdjust="spacing" textLength="257" x="18" y="721.9311">certificate_transparency_logging</text><text fill="#D9B8FF" font-family="sans-serif" font-size="14" lengthAdjust="spacing" textLength="48" x="275" y="721.9311">: string</text><text fill="#D9B8FF" font-family="sans-serif" font-size="14" font-weight="bold" lengthAdjust="spacing" textLength="205" x="18" y="748.2279">domain_validation_options</text><text fill="#D9B8FF" font-family="sans-serif" font-size="14" lengthAdjust="spacing" textLength="211" x="223" y="748.2279">: aws_acm_domain_validation[]</text><text fill="#D9B8FF" font-family="sans-serif" font-size="14" font-weight="bold" lengthAdjust="spacing" textLength="174" x="18" y="774.5248">extended_key_usages</text><text fill="#D9B8FF" font-family="sans-serif" font-size="14" lengthAdjust="spacing" textLength="236" x="192" y="774.5248">: aws_acm_extended_key_usage[]</text><text fill="#D9B8FF" font-family="sans-serif" font-size="14" font-weight="bold" lengthAdjust="spacing" textLength="112" x="18" y="800.8217">failure_reason</text><text fill="#D9B8FF" font-family="sans-serif" font-size="14" lengthAdjust="spacing" textLength="48" x="130" y="800.8217">: string</text><text fill="#D9B8FF" font-family="sans-serif" font-size="14" font-weight="bold" lengthAdjust="spacing" textLength="93" x="18" y="827.1186">imported_at</text><text fill="#D9B8FF" font-family="sans-serif" font-size="14" lengthAdjust="spacing" textLength="70" x="111" y="827.1186">: datetime</text><text fill="#D9B8FF" font-family="sans-serif" font-size="14" font-weight="bold" lengthAdjust="spacing" textLength="76" x="18" y="853.4154">in_use_by</text><text fill="#D9B8FF" font-family="sans-serif" font-size="14" lengthAdjust="spacing" textLength="58" x="94" y="853.4154">: string[]</text><text fill="#D9B8FF" font-family="sans-serif" font-size="14" font-weight="bold" lengthAdjust="spacing" textLength="74" x="18" y="879.7123">issued_at</text><text fill="#D9B8FF" font-family="sans-serif" font-size="14" lengthAdjust="spacing" textLength="70" x="92" y="879.7123">: datetime</text><text fill="#D9B8FF" font-family="sans-serif" font-size="14" font-weight="bold" lengthAdjust="spacing" textLength="49" x="18" y="906.0092">issuer</text><text fill="#D9B8FF" font-family="sans-serif" font-size="14" lengthAdjust="spacing" textLength="48" x="67" y="906.0092">: string</text><text fill="#D9B8FF" font-family="sans-serif" font-size="14" font-weight="bold" lengthAdjust="spacing" textLength="109" x="18" y="932.3061">key_algorithm</text><text fill="#D9B8FF" font-family="sans-serif" font-size="14" lengthAdjust="spacing" textLength="48" x="127" y="932.3061">: string</text><text fill="#D9B8FF" font-family="sans-serif" font-size="14" font-weight="bold" lengthAdjust="spacing" textLength="92" x="18" y="958.6029">key_usages</text><text fill="#D9B8FF" font-family="sans-serif" font-size="14" lengthAdjust="spacing" textLength="58" x="110" y="958.6029">: string[]</text><text fill="#D9B8FF" font-family="sans-serif" font-size="14" font-weight="bold" lengthAdjust="spacing" textLength="71" x="18" y="984.8998">not_after</text><text fill="#D9B8FF" font-family="sans-serif" font-size="14" lengthAdjust="spacing" textLength="70" x="89" y="984.8998">: datetime</text><text fill="#D9B8FF" font-family="sans-serif" font-size="14" font-weight="bold" lengthAdjust="spacing" textLength="86" x="18" y="1011.1967">not_before</text><text fill="#D9B8FF" font-family="sans-serif" font-size="14" lengthAdjust="spacing" textLength="70" x="104" y="1011.1967">: datetime</text><text fill="#D9B8FF" font-family="sans-serif" font-size="14" font-weight="bold" lengthAdjust="spacing" textLength="140" x="18" y="1037.4936">renewal_eligibility</text><text fill="#D9B8FF" font-family="sans-serif" font-size="14" lengthAdjust="spacing" textLength="48" x="158" y="1037.4936">: string</text><text fill="#D9B8FF" font-family="sans-serif" font-size="14" font-weight="bold" lengthAdjust="spacing" textLength="143" x="18" y="1063.7904">renewal_summary</text><text fill="#D9B8FF" font-family="sans-serif" font-size="14" lengthAdjust="spacing" textLength="203" x="161" y="1063.7904">: aws_acm_renewal_summary</text><text fill="#D9B8FF" font-family="sans-serif" font-size="14" font-weight="bold" lengthAdjust="spacing" textLength="146" x="18" y="1090.0873">revocation_reason</text><text fill="#D9B8FF" font-family="sans-serif" font-size="14" lengthAdjust="spacing" textLength="48" x="164" y="1090.0873">: string</text><text fill="#D9B8FF" font-family="sans-serif" font-size="14" font-weight="bold" lengthAdjust="spacing" textLength="87" x="18" y="1116.3842">revoked_at</text><text fill="#D9B8FF" font-family="sans-serif" font-size="14" lengthAdjust="spacing" textLength="70" x="105" y="1116.3842">: datetime</text><text fill="#D9B8FF" font-family="sans-serif" font-size="14" font-weight="bold" lengthAdjust="spacing" textLength="43" x="18" y="1142.6811">serial</text><text fill="#D9B8FF" font-family="sans-serif" font-size="14" lengthAdjust="spacing" textLength="48" x="61" y="1142.6811">: string</text><text fill="#D9B8FF" font-family="sans-serif" font-size="14" font-weight="bold" lengthAdjust="spacing" textLength="156" x="18" y="1168.9779">signature_algorithm</text><text fill="#D9B8FF" font-family="sans-serif" font-size="14" lengthAdjust="spacing" textLength="48" x="174" y="1168.9779">: string</text><text fill="#D9B8FF" font-family="sans-serif" font-size="14" font-weight="bold" lengthAdjust="spacing" textLength="49" x="18" y="1195.2748">status</text><text fill="#D9B8FF" font-family="sans-serif" font-size="14" lengthAdjust="spacing" textLength="48" x="67" y="1195.2748">: string</text><text fill="#D9B8FF" font-family="sans-serif" font-size="14" font-weight="bold" lengthAdjust="spacing" textLength="58" x="18" y="1221.5717">subject</text><text fill="#D9B8FF" font-family="sans-serif" font-size="14" lengthAdjust="spacing" textLength="48" x="76" y="1221.5717">: string</text><text fill="#D9B8FF" font-family="sans-serif" font-size="14" font-weight="bold" lengthAdjust="spacing" textLength="208" x="18" y="1247.8686">subject_alternative_names</text><text fill="#D9B8FF" font-family="sans-serif" font-size="14" lengthAdjust="spacing" textLength="58" x="226" y="1247.8686">: string[]</text><text fill="#D9B8FF" font-family="sans-serif" font-size="14" font-weight="bold" lengthAdjust="spacing" textLength="35" x="18" y="1274.1654">type</text><text fill="#D9B8FF" font-family="sans-serif" font-size="14" lengthAdjust="spacing" textLength="48" x="53" y="1274.1654">: string</text></g><!--class aws_acm_domain_validation--><g id="elem_aws_acm_domain_validation"><rect codeLine="47" fill="#3D176E" height="205.5703" id="aws_acm_domain_validation" rx="2.5" ry="2.5" style="stroke:#000D19;stroke-width:0.5;" width="347" x="152.5" y="1559.44"/><ellipse cx="196.3" cy="1579.3345" fill="#ADD1B2" rx="11" ry="11" style="stroke:#181818;stroke-width:1.0;"/><path d="M199.2688,1584.9752 Q198.6906,1585.272 198.05,1585.4127 Q197.4094,1585.5689 196.7063,1585.5689 Q194.2063,1585.5689 192.8781,1583.9283 Q191.5656,1582.272 191.5656,1579.147 Q191.5656,1576.022 192.8781,1574.3658 Q194.2063,1572.7095 196.7063,1572.7095 Q197.4094,1572.7095 198.05,1572.8658 Q198.7063,1573.022 199.2688,1573.3189 L199.2688,1576.0377 Q198.6438,1575.4595 198.05,1575.1939 Q197.4563,1574.9127 196.8313,1574.9127 Q195.4875,1574.9127 194.8,1575.9908 Q194.1125,1577.0533 194.1125,1579.147 Q194.1125,1581.2408 194.8,1582.3189 Q195.4875,1583.3814 196.8313,1583.3814 Q197.4563,1583.3814 198.05,1583.1158 Q198.6438,1582.8345 199.2688,1582.2564 L199.2688,1584.9752 Z " fill="#000000"/><text fill="#D9B8FF" font-family="Helvetica" font-size="17" lengthAdjust="spacing" textLength="241" x="221.7" y="1585.2198">aws_acm_domain_validation</text><line style="stroke:#000D19;stroke-width:0.5;" x1="153.5" x2="498.5" y1="1599.2291" y2="1599.2291"/><text fill="#D9B8FF" font-family="sans-serif" font-size="14" font-weight="bold" lengthAdjust="spacing" textLength="107" x="163.5" y="1621.2242">domain_name</text><text fill="#D9B8FF" font-family="sans-serif" font-size="14" lengthAdjust="spacing" textLength="48" x="270.5" y="1621.2242">: string</text><text fill="#D9B8FF" font-family="sans-serif" font-size="14" font-weight="bold" lengthAdjust="spacing" textLength="132" x="163.5" y="1647.5211">resource_record</text><text fill="#D9B8FF" font-family="sans-serif" font-size="14" lengthAdjust="spacing" textLength="193" x="295.5" y="1647.5211">: aws_acm_resource_record</text><text fill="#D9B8FF" font-family="sans-serif" font-size="14" font-weight="bold" lengthAdjust="spacing" textLength="139" x="163.5" y="1673.8179">validation_domain</text><text fill="#D9B8FF" font-family="sans-serif" font-size="14" lengthAdjust="spacing" textLength="48" x="302.5" y="1673.8179">: string</text><text fill="#D9B8FF" font-family="sans-serif" font-size="14" font-weight="bold" lengthAdjust="spacing" textLength="132" x="163.5" y="1700.1148">validation_emails</text><text fill="#D9B8FF" font-family="sans-serif" font-size="14" lengthAdjust="spacing" textLength="58" x="295.5" y="1700.1148">: string[]</text><text fill="#D9B8FF" font-family="sans-serif" font-size="14" font-weight="bold" lengthAdjust="spacing" textLength="142" x="163.5" y="1726.4117">validation_method</text><text fill="#D9B8FF" font-family="sans-serif" font-size="14" lengthAdjust="spacing" textLength="48" x="305.5" y="1726.4117">: string</text><text fill="#D9B8FF" font-family="sans-serif" font-size="14" font-weight="bold" lengthAdjust="spacing" textLength="131" x="163.5" y="1752.7086">validation_status</text><text fill="#D9B8FF" font-family="sans-serif" font-size="14" lengthAdjust="spacing" textLength="48" x="294.5" y="1752.7086">: string</text></g><!--class aws_acm_extended_key_usage--><g id="elem_aws_acm_extended_key_usage"><rect codeLine="55" fill="#3D176E" height="100.3828" id="aws_acm_extended_key_usage" rx="2.5" ry="2.5" style="stroke:#000D19;stroke-width:0.5;" width="303" x="74.5" y="1372.76"/><ellipse cx="89.5" cy="1392.6545" fill="#ADD1B2" rx="11" ry="11" style="stroke:#181818;stroke-width:1.0;"/><path d="M92.4688,1398.2952 Q91.8906,1398.592 91.25,1398.7327 Q90.6094,1398.8889 89.9063,1398.8889 Q87.4063,1398.8889 86.0781,1397.2483 Q84.7656,1395.592 84.7656,1392.467 Q84.7656,1389.342 86.0781,1387.6858 Q87.4063,1386.0295 89.9063,1386.0295 Q90.6094,1386.0295 91.25,1386.1858 Q91.9063,1386.342 92.4688,1386.6389 L92.4688,1389.3577 Q91.8438,1388.7795 91.25,1388.5139 Q90.6563,1388.2327 90.0313,1388.2327 Q88.6875,1388.2327 88,1389.3108 Q87.3125,1390.3733 87.3125,1392.467 Q87.3125,1394.5608 88,1395.6389 Q88.6875,1396.7014 90.0313,1396.7014 Q90.6563,1396.7014 91.25,1396.4358 Q91.8438,1396.1545 92.4688,1395.5764 L92.4688,1398.2952 Z " fill="#000000"/><text fill="#D9B8FF" font-family="Helvetica" font-size="17" lengthAdjust="spacing" textLength="261" x="108.5" y="1398.5398">aws_acm_extended_key_usage</text><line style="stroke:#000D19;stroke-width:0.5;" x1="75.5" x2="376.5" y1="1412.5491" y2="1412.5491"/><text fill="#D9B8FF" font-family="sans-serif" font-size="14" font-weight="bold" lengthAdjust="spacing" textLength="43" x="85.5" y="1434.5442">name</text><text fill="#D9B8FF" font-family="sans-serif" font-size="14" lengthAdjust="spacing" textLength="48" x="128.5" y="1434.5442">: string</text><text fill="#D9B8FF" font-family="sans-serif" font-size="14" font-weight="bold" lengthAdjust="spacing" textLength="24" x="85.5" y="1460.8411">oid</text><text fill="#D9B8FF" font-family="sans-serif" font-size="14" lengthAdjust="spacing" textLength="48" x="109.5" y="1460.8411">: string</text></g><!--class aws_acm_renewal_summary--><g id="elem_aws_acm_renewal_summary"><rect codeLine="59" fill="#3D176E" height="152.9766" id="aws_acm_renewal_summary" rx="2.5" ry="2.5" style="stroke:#000D19;stroke-width:0.5;" width="438" x="412" y="1346.46"/><ellipse cx="500.25" cy="1366.3545" fill="#ADD1B2" rx="11" ry="11" style="stroke:#181818;stroke-width:1.0;"/><path d="M503.2188,1371.9952 Q502.6406,1372.292 502,1372.4327 Q501.3594,1372.5889 500.6563,1372.5889 Q498.1563,1372.5889 496.8281,1370.9483 Q495.5156,1369.292 495.5156,1366.167 Q495.5156,1363.042 496.8281,1361.3858 Q498.1563,1359.7295 500.6563,1359.7295 Q501.3594,1359.7295 502,1359.8858 Q502.6563,1360.042 503.2188,1360.3389 L503.2188,1363.0577 Q502.5938,1362.4795 502,1362.2139 Q501.4063,1361.9327 500.7813,1361.9327 Q499.4375,1361.9327 498.75,1363.0108 Q498.0625,1364.0733 498.0625,1366.167 Q498.0625,1368.2608 498.75,1369.3389 Q499.4375,1370.4014 500.7813,1370.4014 Q501.4063,1370.4014 502,1370.1358 Q502.5938,1369.8545 503.2188,1369.2764 L503.2188,1371.9952 Z " fill="#000000"/><text fill="#D9B8FF" font-family="Helvetica" font-size="17" lengthAdjust="spacing" textLength="243" x="525.75" y="1372.2398">aws_acm_renewal_summary</text><line style="stroke:#000D19;stroke-width:0.5;" x1="413" x2="849" y1="1386.2491" y2="1386.2491"/><text fill="#D9B8FF" font-family="sans-serif" font-size="14" font-weight="bold" lengthAdjust="spacing" textLength="205" x="423" y="1408.2442">domain_validation_options</text><text fill="#D9B8FF" font-family="sans-serif" font-size="14" lengthAdjust="spacing" textLength="211" x="628" y="1408.2442">: aws_acm_domain_validation[]</text><text fill="#D9B8FF" font-family="sans-serif" font-size="14" font-weight="bold" lengthAdjust="spacing" textLength="120" x="423" y="1434.5411">renewal_status</text><text fill="#D9B8FF" font-family="sans-serif" font-size="14" lengthAdjust="spacing" textLength="48" x="543" y="1434.5411">: string</text><text fill="#D9B8FF" font-family="sans-serif" font-size="14" font-weight="bold" lengthAdjust="spacing" textLength="182" x="423" y="1460.8379">renewal_status_reason</text><text fill="#D9B8FF" font-family="sans-serif" font-size="14" lengthAdjust="spacing" textLength="48" x="605" y="1460.8379">: string</text><text fill="#D9B8FF" font-family="sans-serif" font-size="14" font-weight="bold" lengthAdjust="spacing" textLength="87" x="423" y="1487.1348">updated_at</text><text fill="#D9B8FF" font-family="sans-serif" font-size="14" lengthAdjust="spacing" textLength="70" x="510" y="1487.1348">: datetime</text></g><!--class aws_acm_resource_record--><g id="elem_aws_acm_resource_record"><rect codeLine="65" fill="#3D176E" height="126.6797" id="aws_acm_resource_record" rx="2.5" ry="2.5" style="stroke:#000D19;stroke-width:0.5;" width="260" x="196" y="1825.01"/><ellipse cx="211" cy="1844.9045" fill="#ADD1B2" rx="11" ry="11" style="stroke:#181818;stroke-width:1.0;"/><path d="M213.9688,1850.5452 Q213.3906,1850.842 212.75,1850.9827 Q212.1094,1851.1389 211.4063,1851.1389 Q208.9063,1851.1389 207.5781,1849.4983 Q206.2656,1847.842 206.2656,1844.717 Q206.2656,1841.592 207.5781,1839.9358 Q208.9063,1838.2795 211.4063,1838.2795 Q212.1094,1838.2795 212.75,1838.4358 Q213.4063,1838.592 213.9688,1838.8889 L213.9688,1841.6077 Q213.3438,1841.0295 212.75,1840.7639 Q212.1563,1840.4827 211.5313,1840.4827 Q210.1875,1840.4827 209.5,1841.5608 Q208.8125,1842.6233 208.8125,1844.717 Q208.8125,1846.8108 209.5,1847.8889 Q210.1875,1848.9514 211.5313,1848.9514 Q212.1563,1848.9514 212.75,1848.6858 Q213.3438,1848.4045 213.9688,1847.8264 L213.9688,1850.5452 Z " fill="#000000"/><text fill="#D9B8FF" font-family="Helvetica" font-size="17" lengthAdjust="spacing" textLength="218" x="230" y="1850.7898">aws_acm_resource_record</text><line style="stroke:#000D19;stroke-width:0.5;" x1="197" x2="455" y1="1864.7991" y2="1864.7991"/><text fill="#D9B8FF" font-family="sans-serif" font-size="14" font-weight="bold" lengthAdjust="spacing" textLength="43" x="207" y="1886.7942">name</text><text fill="#D9B8FF" font-family="sans-serif" font-size="14" lengthAdjust="spacing" textLength="48" x="250" y="1886.7942">: string</text><text fill="#D9B8FF" font-family="sans-serif" font-size="14" font-weight="bold" lengthAdjust="spacing" textLength="35" x="207" y="1913.0911">type</text><text fill="#D9B8FF" font-family="sans-serif" font-size="14" lengthAdjust="spacing" textLength="48" x="242" y="1913.0911">: string</text><text fill="#D9B8FF" font-family="sans-serif" font-size="14" font-weight="bold" lengthAdjust="spacing" textLength="42" x="207" y="1939.3879">value</text><text fill="#D9B8FF" font-family="sans-serif" font-size="14" lengthAdjust="spacing" textLength="48" x="249" y="1939.3879">: string</text></g><!--class aws_resource--><g id="elem_aws_resource"><rect codeLine="70" fill="#3D176E" height="74.0859" id="aws_resource" rx="2.5" ry="2.5" style="stroke:#000D19;stroke-width:0.5;" width="155" x="148.5" y="438.76"/><ellipse cx="163.5" cy="458.6545" fill="#ADD1B2" rx="11" ry="11" style="stroke:#181818;stroke-width:1.0;"/><path d="M166.4688,464.2952 Q165.8906,464.592 165.25,464.7327 Q164.6094,464.8889 163.9063,464.8889 Q161.4063,464.8889 160.0781,463.2483 Q158.7656,461.592 158.7656,458.467 Q158.7656,455.342 160.0781,453.6858 Q161.4063,452.0295 163.9063,452.0295 Q164.6094,452.0295 165.25,452.1858 Q165.9063,452.342 166.4688,452.6389 L166.4688,455.3577 Q165.8438,454.7795 165.25,454.5139 Q164.6563,454.2327 164.0313,454.2327 Q162.6875,454.2327 162,455.3108 Q161.3125,456.3733 161.3125,458.467 Q161.3125,460.5608 162,461.6389 Q162.6875,462.7014 164.0313,462.7014 Q164.6563,462.7014 165.25,462.4358 Q165.8438,462.1545 166.4688,461.5764 L166.4688,464.2952 Z " fill="#000000"/><text fill="#D9B8FF" font-family="Helvetica" font-size="17" lengthAdjust="spacing" textLength="113" x="182.5" y="464.5398">aws_resource</text><line style="stroke:#000D19;stroke-width:0.5;" x1="149.5" x2="302.5" y1="478.5491" y2="478.5491"/><text fill="#D9B8FF" font-family="sans-serif" font-size="14" font-weight="bold" lengthAdjust="spacing" textLength="26" x="159.5" y="500.5442">arn</text><text fill="#D9B8FF" font-family="sans-serif" font-size="14" lengthAdjust="spacing" textLength="48" x="185.5" y="500.5442">: string</text></g><!--class resource--><g id="elem_resource"><rect codeLine="73" fill="#3D176E" height="310.7578" id="resource" rx="2.5" ry="2.5" style="stroke:#000D19;stroke-width:0.5;" width="227" x="112.5" y="7"/><ellipse cx="181.25" cy="26.8945" fill="#ADD1B2" rx="11" ry="11" style="stroke:#181818;stroke-width:1.0;"/><path d="M184.2188,32.5352 Q183.6406,32.832 183,32.9727 Q182.3594,33.1289 181.6563,33.1289 Q179.1563,33.1289 177.8281,31.4883 Q176.5156,29.832 176.5156,26.707 Q176.5156,23.582 177.8281,21.9258 Q179.1563,20.2695 181.6563,20.2695 Q182.3594,20.2695 183,20.4258 Q183.6563,20.582 184.2188,20.8789 L184.2188,23.5977 Q183.5938,23.0195 183,22.7539 Q182.4063,22.4727 181.7813,22.4727 Q180.4375,22.4727 179.75,23.5508 Q179.0625,24.6133 179.0625,26.707 Q179.0625,28.8008 179.75,29.8789 Q180.4375,30.9414 181.7813,30.9414 Q182.4063,30.9414 183,30.6758 Q183.5938,30.3945 184.2188,29.8164 L184.2188,32.5352 Z " fill="#000000"/><text fill="#D9B8FF" font-family="Helvetica" font-size="17" lengthAdjust="spacing" textLength="71" x="206.75" y="32.7798">resource</text><line style="stroke:#000D19;stroke-width:0.5;" x1="113.5" x2="338.5" y1="46.7891" y2="46.7891"/><text fill="#D9B8FF" font-family="sans-serif" font-size="14" font-weight="bold" lengthAdjust="spacing" textLength="29" x="123.5" y="68.7842">age</text><text fill="#D9B8FF" font-family="sans-serif" font-size="14" lengthAdjust="spacing" textLength="66" x="152.5" y="68.7842">: duration</text><text fill="#D9B8FF" font-family="sans-serif" font-size="14" font-weight="bold" lengthAdjust="spacing" textLength="43" x="123.5" y="95.0811">atime</text><text fill="#D9B8FF" font-family="sans-serif" font-size="14" lengthAdjust="spacing" textLength="70" x="166.5" y="95.0811">: datetime</text><text fill="#D9B8FF" font-family="sans-serif" font-size="14" font-weight="bold" lengthAdjust="spacing" textLength="43" x="123.5" y="121.3779">ctime</text><text fill="#D9B8FF" font-family="sans-serif" font-size="14" lengthAdjust="spacing" textLength="70" x="166.5" y="121.3779">: datetime</text><text fill="#D9B8FF" font-family="sans-serif" font-size="14" font-weight="bold" lengthAdjust="spacing" textLength="14" x="123.5" y="147.6748">id</text><text fill="#D9B8FF" font-family="sans-serif" font-size="14" lengthAdjust="spacing" textLength="48" x="137.5" y="147.6748">: string</text><text fill="#D9B8FF" font-family="sans-serif" font-size="14" font-weight="bold" lengthAdjust="spacing" textLength="33" x="123.5" y="173.9717">kind</text><text fill="#D9B8FF" font-family="sans-serif" font-size="14" lengthAdjust="spacing" textLength="48" x="156.5" y="173.9717">: string</text><text fill="#D9B8FF" font-family="sans-serif" font-size="14" font-weight="bold" lengthAdjust="spacing" textLength="90" x="123.5" y="200.2686">last_access</text><text fill="#D9B8FF" font-family="sans-serif" font-size="14" lengthAdjust="spacing" textLength="66" x="213.5" y="200.2686">: duration</text><text fill="#D9B8FF" font-family="sans-serif" font-size="14" font-weight="bold" lengthAdjust="spacing" textLength="90" x="123.5" y="226.5654">last_update</text><text fill="#D9B8FF" font-family="sans-serif" font-size="14" lengthAdjust="spacing" textLength="66" x="213.5" y="226.5654">: duration</text><text fill="#D9B8FF" font-family="sans-serif" font-size="14" font-weight="bold" lengthAdjust="spacing" textLength="48" x="123.5" y="252.8623">mtime</text><text fill="#D9B8FF" font-family="sans-serif" font-size="14" lengthAdjust="spacing" textLength="70" x="171.5" y="252.8623">: datetime</text><text fill="#D9B8FF" font-family="sans-serif" font-size="14" font-weight="bold" lengthAdjust="spacing" textLength="43" x="123.5" y="279.1592">name</text><text fill="#D9B8FF" font-family="sans-serif" font-size="14" lengthAdjust="spacing" textLength="48" x="166.5" y="279.1592">: string</text><text fill="#D9B8FF" font-family="sans-serif" font-size="14" font-weight="bold" lengthAdjust="spacing" textLength="34" x="123.5" y="305.4561">tags</text><text fill="#D9B8FF" font-family="sans-serif" font-size="14" lengthAdjust="spacing" textLength="171" x="157.5" y="305.4561">: dictionary[string, string]</text></g><!--link aws_acm_certificate to aws_acm_domain_validation--><g id="link_aws_acm_certificate_aws_acm_domain_validation"><path codeLine="85" d="M39.13,1286.7 C20.37,1359.18 19.93,1433.9 57,1499.44 C78.93,1538.22 109.1923,1565.5656 147.1623,1589.1356 " fill="none" id="aws_acm_certificate-to-aws_acm_domain_validation" style="stroke:#FFAF37;stroke-width:2.0;"/><polygon fill="#FFAF37" points="152.26,1592.3,146.7231,1584.1549,148.0119,1589.663,142.5038,1590.9518,152.26,1592.3" style="stroke:#FFAF37;stroke-width:2.0;"/></g><!--link aws_acm_certificate to aws_acm_extended_key_usage--><g id="link_aws_acm_certificate_aws_acm_extended_key_usage"><path codeLine="86" d="M226,1286.81 C226,1319.59 226,1343.26 226,1366.38 " fill="none" id="aws_acm_certificate-to-aws_acm_extended_key_usage" style="stroke:#FFAF37;stroke-width:2.0;"/><polygon fill="#FFAF37" points="226,1372.38,230,1363.38,226,1367.38,222,1363.38,226,1372.38" style="stroke:#FFAF37;stroke-width:2.0;"/></g><!--link aws_acm_certificate to aws_acm_renewal_summary--><g id="link_aws_acm_certificate_aws_acm_renewal_summary"><path codeLine="87" d="M445.39,1210.77 C488.77,1260.12 527.1389,1303.7834 560.3989,1341.6234 " fill="none" id="aws_acm_certificate-to-aws_acm_renewal_summary" style="stroke:#FFAF37;stroke-width:2.0;"/><polygon fill="#FFAF37" points="564.36,1346.13,561.4227,1336.7293,561.0591,1342.3745,555.4139,1342.0109,564.36,1346.13" style="stroke:#FFAF37;stroke-width:2.0;"/></g><!--reverse link aws_resource to aws_acm_certificate--><g id="link_aws_resource_aws_acm_certificate"><path codeLine="88" d="M226,531.06 C226,559.76 226,584.98 226,633.4 " fill="none" id="aws_resource-backto-aws_acm_certificate" style="stroke:#FFAF37;stroke-width:2.0;"/><polygon fill="none" points="226,513.06,220,531.06,232,531.06,226,513.06" style="stroke:#FFAF37;stroke-width:2.0;"/></g><!--link aws_acm_domain_validation to aws_acm_resource_record--><g id="link_aws_acm_domain_validation_aws_acm_resource_record"><path codeLine="89" d="M326,1765.45 C326,1785.65 326,1800.29 326,1818.7 " fill="none" id="aws_acm_domain_validation-to-aws_acm_resource_record" style="stroke:#FFAF37;stroke-width:2.0;"/><polygon fill="#FFAF37" points="326,1824.7,330,1815.7,326,1819.7,322,1815.7,326,1824.7" style="stroke:#FFAF37;stroke-width:2.0;"/></g><!--link aws_acm_renewal_summary to aws_acm_domain_validation--><g id="link_aws_acm_renewal_summary_aws_acm_domain_validation"><path codeLine="90" d="M533.66,1499.68 C509.42,1518.53 487.775,1535.3649 462.205,1555.2649 " fill="none" id="aws_acm_renewal_summary-to-aws_acm_domain_validation" style="stroke:#FFAF37;stroke-width:2.0;"/><polygon fill="#FFAF37" points="457.47,1558.95,467.0292,1556.5791,461.4158,1555.8791,462.1158,1550.2657,457.47,1558.95" style="stroke:#FFAF37;stroke-width:2.0;"/></g><!--reverse link resource to aws_resource--><g id="link_resource_aws_resource"><path codeLine="91" d="M226,336.18 C226,381.21 226,408.35 226,438.52 " fill="none" id="resource-backto-aws_resource" style="stroke:#FFAF37;stroke-width:2.0;"/><polygon fill="none" points="226,318.18,220,336.18,232,336.18,226,318.18" style="stroke:#FFAF37;stroke-width:2.0;"/></g><!--SRC=[dLLRQzim57xlhp3qBIpGhcnjnnXqXR6zbB7khHHnB1qxMdG9afpCk_ptINRJwc8diAUGyttdEtTvnHbMA3UkhoJA6eqziMkkDc10LZV6wDsj5jfKfqq3pSLb3dxIoXqbt874wZEABJfE8MTyNt6wLcXjzJg2FW9TjqPtYetope2o7aBb8jQj06jld3EyxXn6oR3h-gffScOkUdh1pY_VOa7JXg5vefoTdR7pwvnoDDJ1kfyPz_mNLkTnq-wqmoBD8iJ0EfXbO4H95eNkyTaSlm9ZNBNLcyZsRSp9A3I9_Nu5JEy2km5Xup3MeK7j-WtU5bNXzHLhBYV9N-R8D7IkWfqbG2MXQ1nlVDuEgzydYqNqdq3dLjfmrnCmQh5uvzMDpp1ZlQmLxOdGRUif2Pbf2LoHBGZEm76jYDw47njO-pmAqiEZTyMV3XL3HjROayv2YubJ2GzU3N3H6IG6mUeqSIutsZZl0IxOVIW_D8a1KLu1ITs_y0SnRcqtoGzsauY7B42qeMKhMI0lwKVgIZi2ZHk58lLWhx7H1ZF0jnbt80WAtlAQ2p-T9D8UjvsKOFguMnaqaBUQZYEPw5L0rrEbMpGSHCArl5NWGjEd6s2THsrgwkeVIDsKpOlubdX1laMY_7dbRGiB7Zd-pPQwMAPXjP-iGI-hq-hEqB0lr3y8QSiIo9EZBHxr4ga8HG-AFEy8b-YFYyrv5_tAIonNVwYnA4vpTa0bMucuJVzphizovRHJQ6hTkarOiMBTofIJaKnNdUt7qDfkRcFsYeDK-jBjQIcb7O-oCqFbmH8opOw4JjXuEc__QgS67yllFgN-Ivv5692nGnaY9-AK_O1sLEGqkFbHFupOgoVEeozrwfEmN7wOd_bHZt99ZxhaZrGoeFT_bilbrAVhPFxoK_7qdEVEu73L4-diJVy0]--></g></svg>