<svg xmlns="http://www.w3.org/2000/svg" width="1063" height="352" viewBox="0 0 1063 352"><rect width="250" height="39.789" x="263.5" y="306.37" fill="#3D176E" rx="2.5" ry="2.5" style="stroke:#000d19;stroke-width:.5"/><circle cx="278.5" cy="326.264" r="11" fill="#ADD1B2" style="stroke:#181818;stroke-width:1"/><path d="M281.469 331.905q-.578.297-1.219.438-.64.156-1.344.156-2.5 0-3.828-1.64-1.312-1.657-1.312-4.782t1.312-4.781q1.328-1.656 3.828-1.656.703 0 1.344.156.656.156 1.219.453v2.719q-.625-.579-1.219-.844-.594-.281-1.219-.281-1.344 0-2.031 1.078-.687 1.062-.687 3.156t.687 3.172q.688 1.062 2.031 1.062.625 0 1.219-.265.594-.281 1.219-.86z"/><text x="297.5" y="332.15" fill="#D9B8FF" font-family="Helvetica" font-size="17" textLength="208">azure_network_interface</text><rect width="299" height="39.789" x="177" y="106.79" fill="#3D176E" rx="2.5" ry="2.5" style="stroke:#000d19;stroke-width:.5"/><circle cx="192" cy="126.684" r="11" fill="#ADD1B2" style="stroke:#181818;stroke-width:1"/><path d="M194.969 132.325q-.578.297-1.219.438-.64.156-1.344.156-2.5 0-3.828-1.64-1.312-1.657-1.312-4.782t1.312-4.781q1.328-1.656 3.828-1.656.703 0 1.344.156.656.156 1.219.453v2.719q-.625-.579-1.219-.844-.594-.281-1.219-.281-1.344 0-2.031 1.078-.687 1.062-.687 3.156t.687 3.172q.688 1.062 2.031 1.062.625 0 1.219-.265.594-.281 1.219-.86z"/><text x="211" y="132.57" fill="#D9B8FF" font-family="Helvetica" font-size="17" textLength="257">azure_network_security_group</text><rect width="154" height="39.789" x="350.5" y="7" fill="#3D176E" rx="2.5" ry="2.5" style="stroke:#000d19;stroke-width:.5"/><circle cx="365.5" cy="26.895" r="11" fill="#ADD1B2" style="stroke:#181818;stroke-width:1"/><path d="M368.469 32.535q-.578.297-1.219.438-.64.156-1.344.156-2.5 0-3.828-1.64-1.312-1.657-1.312-4.782t1.312-4.781q1.328-1.656 3.828-1.656.703 0 1.344.156.656.156 1.219.453v2.719q-.625-.578-1.219-.844-.594-.281-1.219-.281-1.344 0-2.031 1.078-.687 1.062-.687 3.156t.687 3.172q.688 1.062 2.031 1.062.625 0 1.219-.265.594-.281 1.219-.86z"/><text x="384.5" y="32.78" fill="#D9B8FF" font-family="Helvetica" font-size="17" textLength="112">azure_subnet</text><rect width="233" height="39.789" x="7" y="206.58" fill="#3D176E" rx="2.5" ry="2.5" style="stroke:#000d19;stroke-width:.5"/><circle cx="22" cy="226.475" r="11" fill="#ADD1B2" style="stroke:#181818;stroke-width:1"/><path d="M24.969 232.115q-.578.297-1.219.438-.64.156-1.344.156-2.5 0-3.828-1.64-1.312-1.657-1.312-4.782t1.312-4.781q1.328-1.656 3.828-1.656.703 0 1.344.156.656.156 1.219.453v2.719q-.625-.578-1.219-.844-.594-.281-1.219-.281-1.343 0-2.031 1.078-.687 1.062-.687 3.156t.687 3.172q.688 1.062 2.031 1.062.625 0 1.219-.265.594-.281 1.219-.86z"/><text x="41" y="232.36" fill="#D9B8FF" font-family="Helvetica" font-size="17" textLength="191">azure_virtual_machine</text><rect width="280" height="39.789" x="345.5" y="206.58" fill="#3D176E" rx="2.5" ry="2.5" style="stroke:#000d19;stroke-width:.5"/><circle cx="360.5" cy="226.475" r="11" fill="#ADD1B2" style="stroke:#181818;stroke-width:1"/><path d="M363.469 232.115q-.578.297-1.219.438-.64.156-1.344.156-2.5 0-3.828-1.64-1.312-1.657-1.312-4.782t1.312-4.781q1.328-1.656 3.828-1.656.703 0 1.344.156.656.156 1.219.453v2.719q-.625-.578-1.219-.844-.594-.281-1.219-.281-1.344 0-2.031 1.078-.687 1.062-.687 3.156t.687 3.172q.688 1.062 2.031 1.062.625 0 1.219-.265.594-.281 1.219-.86z"/><text x="379.5" y="232.36" fill="#D9B8FF" font-family="Helvetica" font-size="17" textLength="238">azure_virtual_machine_base</text><rect width="396" height="39.789" x="660.5" y="206.58" fill="#3D176E" rx="2.5" ry="2.5" style="stroke:#000d19;stroke-width:.5"/><circle cx="675.5" cy="226.475" r="11" fill="#ADD1B2" style="stroke:#181818;stroke-width:1"/><path d="M678.469 232.115q-.578.297-1.219.438-.64.156-1.344.156-2.5 0-3.828-1.64-1.312-1.657-1.312-4.782t1.312-4.781q1.328-1.656 3.828-1.656.703 0 1.344.156.656.156 1.219.453v2.719q-.625-.578-1.219-.844-.594-.281-1.219-.281-1.343 0-2.031 1.078-.687 1.062-.687 3.156t.687 3.172q.688 1.062 2.031 1.062.625 0 1.219-.265.594-.281 1.219-.86z"/><text x="694.5" y="232.36" fill="#D9B8FF" font-family="Helvetica" font-size="17" textLength="354">azure_virtual_machine_scale_set_instance</text><path fill="none" d="M323.01 146.82c-3.57 24-7.11 66.06 4.49 99.55 8.04 23.23 21.748 40.668 36.088 55.418" style="stroke:#1a83af;stroke-width:2"/><path fill="#1A83AF" d="m367.77 306.09-3.406-9.241-.08 5.656-5.656-.08z" style="stroke:#1a83af;stroke-width:2"/><path fill="none" d="M286.39 147.01c-35.58 17.14-81.895 39.445-117.465 56.585" style="stroke:#1a83af;stroke-width:2"/><path fill="#1A83AF" d="m163.52 206.2 9.844-.303-5.34-1.867 1.867-5.34z" style="stroke:#1a83af;stroke-width:2"/><path fill="none" d="M357.91 147.01c27.88 17.14 63.28 38.905 91.13 56.045" style="stroke:#1a83af;stroke-width:2"/><path fill="#1A83AF" d="m454.15 206.2-5.568-8.124 1.31 5.503-5.503 1.31z" style="stroke:#1a83af;stroke-width:2"/><path fill="none" d="M431.92 147.07c93.15 17.12 222.379 40.875 315.459 57.985" style="stroke:#1a83af;stroke-width:2"/><path fill="#1A83AF" d="m753.28 206.14-8.128-5.561 3.21 4.657-4.657 3.211z" style="stroke:#1a83af;stroke-width:2"/><path fill="none" d="M407.55 47.22c-17.71 17.14-39.129 37.887-56.829 55.017" style="stroke:#1a83af;stroke-width:2"/><path fill="#1A83AF" d="m346.41 106.41 9.249-3.385-5.656-.092.093-5.656z" style="stroke:#1a83af;stroke-width:2"/><path fill="none" d="M350.04 31.39c-59.62 6.76-140.09 25.37-190.54 75.4-27.06 26.84-33.532 67.312-35.182 93.432" style="stroke:#1a83af;stroke-width:2"/><path fill="#1A83AF" d="m123.94 206.21 4.56-8.73-4.245 3.74-3.74-4.244z" style="stroke:#1a83af;stroke-width:2"/><path fill="none" d="M450.29 47.03c15.47 14.57 34.62 36.1 43.21 59.76 12.12 33.39 5.886 69.693-.524 93.723" style="stroke:#1a83af;stroke-width:2"/><path fill="#1A83AF" d="m491.43 206.31 6.185-7.665-4.896 2.834-2.834-4.896z" style="stroke:#1a83af;stroke-width:2"/><path fill="none" d="M469.61 47.2c82.4 37.77 258.616 118.56 341.156 156.39" style="stroke:#1a83af;stroke-width:2"/><path fill="#1A83AF" d="m816.22 206.09-6.515-7.386 1.97 5.303-5.303 1.97z" style="stroke:#1a83af;stroke-width:2"/><path fill="none" d="M175.86 246.8c46.45 17.14 108.341 39.972 154.761 57.112" style="stroke:#1a83af;stroke-width:2"/><path fill="#1A83AF" d="m336.25 305.99-7.057-6.87 2.367 5.138-5.138 2.367z" style="stroke:#1a83af;stroke-width:2"/><path fill="none" d="M466.34 246.8c-17.01 17.14-37.495 37.79-54.495 54.93" style="stroke:#1a83af;stroke-width:2"/><path fill="#1A83AF" d="m407.62 305.99 9.178-3.573-5.657.023-.023-5.657z" style="stroke:#1a83af;stroke-width:2"/><path fill="none" d="M765.36 246.85c-82.29 17.13-195.796 40.748-278.036 57.858" style="stroke:#1a83af;stroke-width:2"/><path fill="#1A83AF" d="m481.45 305.93 9.626 2.083-4.73-3.101 3.1-4.731z" style="stroke:#1a83af;stroke-width:2"/></svg>