<svg xmlns="http://www.w3.org/2000/svg" width="571" height="1367" viewBox="0 0 571 1367"><rect width="225" height="39.789" x="206.5" y="1159.99" fill="#3D176E" rx="2.5" ry="2.5" style="stroke:#000d19;stroke-width:.5"/><circle cx="221.5" cy="1179.884" r="11" fill="#ADD1B2" style="stroke:#181818;stroke-width:1"/><path d="M224.469 1185.525q-.578.297-1.219.438-.64.156-1.344.156-2.5 0-3.828-1.64-1.312-1.657-1.312-4.782t1.312-4.781q1.328-1.657 3.828-1.657.703 0 1.344.157.656.156 1.219.453v2.719q-.625-.579-1.219-.844-.594-.281-1.219-.281-1.344 0-2.031 1.078-.687 1.062-.687 3.156t.687 3.172q.688 1.062 2.031 1.062.625 0 1.219-.265.594-.282 1.219-.86z"/><text x="240.5" y="1185.77" fill="#D9B8FF" font-family="Helvetica" font-size="17" textLength="183">azure_network_usage</text><rect width="168" height="39.789" x="236" y="538.54" fill="#3D176E" rx="2.5" ry="2.5" style="stroke:#000d19;stroke-width:.5"/><circle cx="251" cy="558.434" r="11" fill="#ADD1B2" style="stroke:#181818;stroke-width:1"/><path d="M253.969 564.075q-.578.297-1.219.438-.64.156-1.344.156-2.5 0-3.828-1.64-1.312-1.657-1.312-4.782t1.312-4.781q1.328-1.657 3.828-1.657.703 0 1.344.157.656.156 1.219.453v2.719q-.625-.579-1.219-.844-.594-.281-1.219-.281-1.344 0-2.031 1.078-.687 1.062-.687 3.156t.687 3.172q.688 1.062 2.031 1.062.625 0 1.219-.265.594-.282 1.219-.86z"/><text x="270" y="564.32" fill="#D9B8FF" font-family="Helvetica" font-size="17" textLength="126">azure_resource</text><rect width="264" height="152.977" x="7" y="886.01" fill="#3D176E" rx="2.5" ry="2.5" style="stroke:#000d19;stroke-width:.5"/><circle cx="77.75" cy="905.904" r="11" fill="#ADD1B2" style="stroke:#181818;stroke-width:1"/><path d="M80.719 911.545q-.578.297-1.219.438-.64.156-1.344.156-2.5 0-3.828-1.64-1.312-1.657-1.312-4.782t1.312-4.781q1.328-1.657 3.828-1.657.703 0 1.344.157.656.156 1.219.453v2.719q-.625-.578-1.219-.844-.594-.281-1.219-.281-1.344 0-2.031 1.078-.687 1.062-.687 3.156t.687 3.172q.688 1.062 2.031 1.062.625 0 1.219-.265.594-.282 1.219-.86z"/><text x="103.25" y="911.79" fill="#D9B8FF" font-family="Helvetica" font-size="17" textLength="104">azure_usage</text><path d="M8 925.799h262" style="stroke:#000d19;stroke-width:.5"/><text x="18" y="947.794" fill="#D9B8FF" font-family="sans-serif" font-size="14" font-weight="bold" textLength="108">current_value</text><text x="126" y="947.794" fill="#D9B8FF" font-family="sans-serif" font-size="14" textLength="44">: int64</text><text x="18" y="974.091" fill="#D9B8FF" font-family="sans-serif" font-size="14" font-weight="bold" textLength="32">limit</text><text x="50" y="974.091" fill="#D9B8FF" font-family="sans-serif" font-size="14" textLength="44">: int64</text><text x="18" y="1000.388" fill="#D9B8FF" font-family="sans-serif" font-size="14" font-weight="bold" textLength="30">unit</text><text x="48" y="1000.388" fill="#D9B8FF" font-family="sans-serif" font-size="14" textLength="48">: string</text><text x="18" y="1026.685" fill="#D9B8FF" font-family="sans-serif" font-size="14" font-weight="bold" textLength="98">usage_name</text><text x="116" y="1026.685" fill="#D9B8FF" font-family="sans-serif" font-size="14" textLength="144">: azure_usage_name</text><rect width="203" height="100.383" x="125.5" y="1259.78" fill="#3D176E" rx="2.5" ry="2.5" style="stroke:#000d19;stroke-width:.5"/><circle cx="140.5" cy="1279.675" r="11" fill="#ADD1B2" style="stroke:#181818;stroke-width:1"/><path d="M143.469 1285.315q-.578.297-1.219.438-.64.156-1.344.156-2.5 0-3.828-1.64-1.312-1.657-1.312-4.782t1.312-4.781q1.328-1.656 3.828-1.656.703 0 1.344.156.656.156 1.219.453v2.719q-.625-.578-1.219-.844-.594-.281-1.219-.281-1.344 0-2.031 1.078-.687 1.062-.687 3.156t.687 3.172q.688 1.062 2.031 1.062.625 0 1.219-.265.594-.281 1.219-.86z"/><text x="159.5" y="1285.56" fill="#D9B8FF" font-family="Helvetica" font-size="17" textLength="161">azure_usage_name</text><path d="M126.5 1299.569h201" style="stroke:#000d19;stroke-width:.5"/><text x="136.5" y="1321.564" fill="#D9B8FF" font-family="sans-serif" font-size="14" font-weight="bold" textLength="118">localized_value</text><text x="254.5" y="1321.564" fill="#D9B8FF" font-family="sans-serif" font-size="14" textLength="48">: string</text><text x="136.5" y="1347.861" fill="#D9B8FF" font-family="sans-serif" font-size="14" font-weight="bold" textLength="42">value</text><text x="178.5" y="1347.861" fill="#D9B8FF" font-family="sans-serif" font-size="14" textLength="48">: string</text><rect width="169" height="39.789" x="376.5" y="942.61" fill="#3D176E" rx="2.5" ry="2.5" style="stroke:#000d19;stroke-width:.5"/><circle cx="391.5" cy="962.505" r="11" fill="#ADD1B2" style="stroke:#181818;stroke-width:1"/><path d="M394.469 968.145q-.578.297-1.219.438-.64.156-1.344.156-2.5 0-3.828-1.64-1.312-1.657-1.312-4.782t1.312-4.781q1.328-1.656 3.828-1.656.703 0 1.344.156.656.156 1.219.453v2.719q-.625-.578-1.219-.844-.594-.281-1.219-.281-1.344 0-2.031 1.078-.687 1.062-.687 3.156t.687 3.172q.688 1.062 2.031 1.062.625 0 1.219-.265.594-.281 1.219-.86z"/><text x="410.5" y="968.39" fill="#D9B8FF" font-family="Helvetica" font-size="17" textLength="127">network_quota</text><rect width="198" height="39.789" x="366" y="438.75" fill="#3D176E" rx="2.5" ry="2.5" style="stroke:#000d19;stroke-width:.5"/><circle cx="381" cy="458.644" r="11" fill="#ADD1B2" style="stroke:#181818;stroke-width:1"/><path d="M383.969 464.285q-.578.297-1.219.438-.64.156-1.344.156-2.5 0-3.828-1.64-1.312-1.657-1.312-4.782t1.312-4.781q1.328-1.656 3.828-1.656.703 0 1.344.156.656.156 1.219.453v2.719q-.625-.579-1.219-.844-.594-.281-1.219-.281-1.344 0-2.031 1.078-.687 1.062-.687 3.156t.687 3.172q.688 1.062 2.031 1.062.625 0 1.219-.265.594-.281 1.219-.86z"/><text x="400" y="464.53" fill="#D9B8FF" font-family="Helvetica" font-size="17" textLength="156">phantom_resource</text><rect width="157" height="126.68" x="384.5" y="638.33" fill="#3D176E" rx="2.5" ry="2.5" style="stroke:#000d19;stroke-width:.5"/><circle cx="429.75" cy="658.225" r="11" fill="#ADD1B2" style="stroke:#181818;stroke-width:1"/><path d="M432.719 663.865q-.578.297-1.219.438-.64.156-1.344.156-2.5 0-3.828-1.64-1.312-1.657-1.312-4.782t1.312-4.781q1.328-1.656 3.828-1.656.703 0 1.344.156.656.156 1.219.453v2.719q-.625-.578-1.219-.844-.594-.281-1.219-.281-1.344 0-2.031 1.078-.687 1.062-.687 3.156t.687 3.172q.688 1.062 2.031 1.062.625 0 1.219-.265.594-.281 1.219-.86z"/><text x="455.25" y="664.11" fill="#D9B8FF" font-family="Helvetica" font-size="17" textLength="48">quota</text><path d="M385.5 678.119h155" style="stroke:#000d19;stroke-width:.5"/><text x="395.5" y="700.114" fill="#D9B8FF" font-family="sans-serif" font-size="14" font-weight="bold" textLength="45">quota</text><text x="440.5" y="700.114" fill="#D9B8FF" font-family="sans-serif" font-size="14" textLength="57">: double</text><text x="395.5" y="726.411" fill="#D9B8FF" font-family="sans-serif" font-size="14" font-weight="bold" textLength="87">quota_type</text><text x="482.5" y="726.411" fill="#D9B8FF" font-family="sans-serif" font-size="14" textLength="48">: string</text><text x="395.5" y="752.708" fill="#D9B8FF" font-family="sans-serif" font-size="14" font-weight="bold" textLength="48">usage</text><text x="443.5" y="752.708" fill="#D9B8FF" font-family="sans-serif" font-size="14" textLength="57">: double</text><rect width="227" height="310.758" x="234.5" y="7" fill="#3D176E" rx="2.5" ry="2.5" style="stroke:#000d19;stroke-width:.5"/><circle cx="303.25" cy="26.895" r="11" fill="#ADD1B2" style="stroke:#181818;stroke-width:1"/><path d="M306.219 32.535q-.578.297-1.219.438-.64.156-1.344.156-2.5 0-3.828-1.64-1.312-1.657-1.312-4.782t1.312-4.781q1.328-1.656 3.828-1.656.703 0 1.344.156.656.156 1.219.453v2.719q-.625-.578-1.219-.844-.594-.281-1.219-.281-1.344 0-2.031 1.078-.687 1.062-.687 3.156t.687 3.172q.688 1.062 2.031 1.062.625 0 1.219-.265.594-.281 1.219-.86z"/><text x="328.75" y="32.78" fill="#D9B8FF" font-family="Helvetica" font-size="17" textLength="71">resource</text><path d="M235.5 46.789h225" style="stroke:#000d19;stroke-width:.5"/><text x="245.5" y="68.784" fill="#D9B8FF" font-family="sans-serif" font-size="14" font-weight="bold" textLength="29">age</text><text x="274.5" y="68.784" fill="#D9B8FF" font-family="sans-serif" font-size="14" textLength="66">: duration</text><text x="245.5" y="95.081" fill="#D9B8FF" font-family="sans-serif" font-size="14" font-weight="bold" textLength="43">atime</text><text x="288.5" y="95.081" fill="#D9B8FF" font-family="sans-serif" font-size="14" textLength="70">: datetime</text><text x="245.5" y="121.378" fill="#D9B8FF" font-family="sans-serif" font-size="14" font-weight="bold" textLength="43">ctime</text><text x="288.5" y="121.378" fill="#D9B8FF" font-family="sans-serif" font-size="14" textLength="70">: datetime</text><text x="245.5" y="147.675" fill="#D9B8FF" font-family="sans-serif" font-size="14" font-weight="bold" textLength="14">id</text><text x="259.5" y="147.675" fill="#D9B8FF" font-family="sans-serif" font-size="14" textLength="48">: string</text><text x="245.5" y="173.972" fill="#D9B8FF" font-family="sans-serif" font-size="14" font-weight="bold" textLength="33">kind</text><text x="278.5" y="173.972" fill="#D9B8FF" font-family="sans-serif" font-size="14" textLength="48">: string</text><text x="245.5" y="200.269" fill="#D9B8FF" font-family="sans-serif" font-size="14" font-weight="bold" textLength="90">last_access</text><text x="335.5" y="200.269" fill="#D9B8FF" font-family="sans-serif" font-size="14" textLength="66">: duration</text><text x="245.5" y="226.565" fill="#D9B8FF" font-family="sans-serif" font-size="14" font-weight="bold" textLength="90">last_update</text><text x="335.5" y="226.565" fill="#D9B8FF" font-family="sans-serif" font-size="14" textLength="66">: duration</text><text x="245.5" y="252.862" fill="#D9B8FF" font-family="sans-serif" font-size="14" font-weight="bold" textLength="48">mtime</text><text x="293.5" y="252.862" fill="#D9B8FF" font-family="sans-serif" font-size="14" textLength="70">: datetime</text><text x="245.5" y="279.159" fill="#D9B8FF" font-family="sans-serif" font-size="14" font-weight="bold" textLength="43">name</text><text x="288.5" y="279.159" fill="#D9B8FF" font-family="sans-serif" font-size="14" textLength="48">: string</text><text x="245.5" y="305.456" fill="#D9B8FF" font-family="sans-serif" font-size="14" font-weight="bold" textLength="34">tags</text><text x="279.5" y="305.456" fill="#D9B8FF" font-family="sans-serif" font-size="14" textLength="171">: dictionary[string, string]</text><path fill="none" d="M320.93 596.755C322 640.565 324 732.79 324 825.01V963.5c0 72.37-2.86 158.39-4.25 196.08m.74-580.82-5.559 18.141 11.997-.293z" style="stroke:#ffaf37;stroke-width:2"/><g fill="none"><path d="M214.003 1053.251c35.83 42.87 66.287 79.309 88.787 106.239" style="stroke:#ffaf37;stroke-width:2"/><path d="m202.46 1039.44 6.94 17.66 9.207-7.696z" style="stroke:#ffaf37;stroke-width:2"/></g><path fill="none" d="M305.23 1200.06c-11.28 15.7-24.25 33.757-39.18 54.537" style="stroke:#ffaf37;stroke-width:2"/><path fill="#FFAF37" d="m262.55 1259.47 8.5-4.975-5.583.914-.914-5.582z" style="stroke:#ffaf37;stroke-width:2"/><path fill="none" d="M438.492 997.638c-26.88 40.77-79.682 120.862-106.712 161.862M448.4 982.61l-14.917 11.725 10.018 6.605z" style="stroke:#ffaf37;stroke-width:2"/><g fill="none"><path d="M335.735 335.945c-6 84.52-11.505 162.025-14.355 202.125" style="stroke:#ffaf37;stroke-width:2"/><path d="m337.01 317.99-7.26 17.53 11.97.85z" style="stroke:#ffaf37;stroke-width:2"/></g><path fill="none" d="M152.53 1039.37c8.93 46.63 21.7 107.39 36.47 160.41 5.49 19.72 10.622 35.41 17.242 53.95" style="stroke:#ffaf37;stroke-width:2"/><path fill="#FFAF37" d="m208.26 1259.38.74-9.821-2.421 5.112-5.113-2.422z" style="stroke:#ffaf37;stroke-width:2"/><path fill="none" d="M462.38 783.33c-.45 57.75-.95 121.92-1.23 158.87m1.37-176.87-6.14 17.953 12 .093z" style="stroke:#ffaf37;stroke-width:2"/><g fill="none"><path d="M416.06 334.566c19.2 48.29 31.33 78.794 41.39 104.104" style="stroke:#ffaf37;stroke-width:2"/><path d="m409.41 317.84 1.075 18.943 11.15-4.433z" style="stroke:#ffaf37;stroke-width:2"/></g><path fill="none" d="M464.692 496.96c-.28 34.08-.732 88.23-1.172 141m1.32-159-6.148 17.95 12 .099z" style="stroke:#ffaf37;stroke-width:2"/></svg>