<svg xmlns="http://www.w3.org/2000/svg" width="421" height="252" viewBox="0 0 421 252"><rect width="208" height="39.789" x="199" y="7" fill="#3D176E" rx="2.5" ry="2.5" style="stroke:#000d19;stroke-width:.5"/><circle cx="214" cy="26.895" r="11" fill="#ADD1B2" style="stroke:#181818;stroke-width:1"/><path d="M216.969 32.535q-.578.297-1.219.438-.64.156-1.344.156-2.5 0-3.828-1.64-1.312-1.657-1.312-4.782t1.312-4.781q1.328-1.656 3.828-1.656.703 0 1.344.156.656.156 1.219.453v2.719q-.625-.578-1.219-.844-.594-.281-1.219-.281-1.344 0-2.031 1.078-.687 1.062-.687 3.156t.687 3.172q.688 1.062 2.031 1.062.625 0 1.219-.265.594-.281 1.219-.86z"/><text x="233" y="32.78" fill="#D9B8FF" font-family="Helvetica" font-size="17" textLength="166">azure_mysql_server</text><rect width="360" height="39.789" x="7" y="106.79" fill="#3D176E" rx="2.5" ry="2.5" style="stroke:#000d19;stroke-width:.5"/><circle cx="22" cy="126.684" r="11" fill="#ADD1B2" style="stroke:#181818;stroke-width:1"/><path d="M24.969 132.325q-.578.297-1.219.438-.64.156-1.344.156-2.5 0-3.828-1.64-1.312-1.657-1.312-4.782t1.312-4.781q1.328-1.656 3.828-1.656.703 0 1.344.156.656.156 1.219.453v2.719q-.625-.579-1.219-.844-.594-.281-1.219-.281-1.343 0-2.031 1.078-.687 1.062-.687 3.156t.687 3.172q.688 1.062 2.031 1.062.625 0 1.219-.265.594-.281 1.219-.86z"/><text x="41" y="132.57" fill="#D9B8FF" font-family="Helvetica" font-size="17" textLength="318">azure_mysql_server_ad_administrator</text><rect width="222" height="39.789" x="192" y="206.58" fill="#3D176E" rx="2.5" ry="2.5" style="stroke:#000d19;stroke-width:.5"/><circle cx="207" cy="226.475" r="11" fill="#ADD1B2" style="stroke:#181818;stroke-width:1"/><path d="M209.969 232.115q-.578.297-1.219.438-.64.156-1.344.156-2.5 0-3.828-1.64-1.312-1.657-1.312-4.782t1.312-4.781q1.328-1.656 3.828-1.656.703 0 1.344.156.656.156 1.219.453v2.719q-.625-.578-1.219-.844-.594-.281-1.219-.281-1.344 0-2.031 1.078-.687 1.062-.687 3.156t.687 3.172q.688 1.062 2.031 1.062.625 0 1.219-.265.594-.281 1.219-.86z"/><text x="226" y="232.36" fill="#D9B8FF" font-family="Helvetica" font-size="17" textLength="180">microsoft_graph_user</text><path fill="none" d="M280.08 47.22c-20.33 17.14-45.304 38.181-65.624 55.321" style="stroke:#1a83af;stroke-width:2"/><path fill="#1A83AF" d="m209.87 106.41 9.458-2.745-5.636-.479.478-5.636z" style="stroke:#1a83af;stroke-width:2"/><path fill="none" d="M332.81 47.05c18.85 13.99 41.59 34.84 52.19 59.74 6.92 16.27 6.92 23.52 0 39.79-10.6 24.9-28.523 42.172-47.373 56.172" style="stroke:#1a83af;stroke-width:2"/><path fill="#1A83AF" d="m332.81 206.33 9.61-2.155-5.596-.826.826-5.596z" style="stroke:#1a83af;stroke-width:2"/><path fill="none" d="M209.92 147.01c20.33 17.14 45.304 38.181 65.624 55.321" style="stroke:#1a83af;stroke-width:2"/><path fill="#1A83AF" d="m280.13 206.2-4.3-8.86.478 5.636-5.637.479z" style="stroke:#1a83af;stroke-width:2"/></svg>