<?xml version="1.0" encoding="us-ascii" standalone="no"?><svg xmlns="http://www.w3.org/2000/svg" xmlns:xlink="http://www.w3.org/1999/xlink" contentStyleType="text/css" height="1906px" preserveAspectRatio="none" style="width:2361px;height:1906px;" version="1.1" viewBox="0 0 2361 1906" width="2361px" zoomAndPan="magnify"><defs/><g><!--class azure_cloud_service_extension_profile--><g id="elem_azure_cloud_service_extension_profile"><rect codeLine="23" fill="#3D176E" height="74.0859" id="azure_cloud_service_extension_profile" rx="2.5" ry="2.5" style="stroke:#000D19;stroke-width:0.5;" width="361" x="242" y="1149.23"/><ellipse cx="257" cy="1169.1245" fill="#ADD1B2" rx="11" ry="11" style="stroke:#181818;stroke-width:1.0;"/><path d="M259.9688,1174.7652 Q259.3906,1175.062 258.75,1175.2027 Q258.1094,1175.3589 257.4063,1175.3589 Q254.9063,1175.3589 253.5781,1173.7183 Q252.2656,1172.062 252.2656,1168.937 Q252.2656,1165.812 253.5781,1164.1558 Q254.9063,1162.4995 257.4063,1162.4995 Q258.1094,1162.4995 258.75,1162.6558 Q259.4063,1162.812 259.9688,1163.1089 L259.9688,1165.8277 Q259.3438,1165.2495 258.75,1164.9839 Q258.1563,1164.7027 257.5313,1164.7027 Q256.1875,1164.7027 255.5,1165.7808 Q254.8125,1166.8433 254.8125,1168.937 Q254.8125,1171.0308 255.5,1172.1089 Q256.1875,1173.1714 257.5313,1173.1714 Q258.1563,1173.1714 258.75,1172.9058 Q259.3438,1172.6245 259.9688,1172.0464 L259.9688,1174.7652 Z " fill="#000000"/><text fill="#D9B8FF" font-family="Helvetica" font-size="17" lengthAdjust="spacing" textLength="319" x="276" y="1175.0098">azure_cloud_service_extension_profile</text><line style="stroke:#000D19;stroke-width:0.5;" x1="243" x2="602" y1="1189.0191" y2="1189.0191"/><text fill="#D9B8FF" font-family="sans-serif" font-size="14" font-weight="bold" lengthAdjust="spacing" textLength="87" x="253" y="1211.0142">extensions</text><text fill="#D9B8FF" font-family="sans-serif" font-size="14" lengthAdjust="spacing" textLength="133" x="340" y="1211.0142">: azure_extension[]</text></g><!--class azure_cloud_service_network_profile--><g id="elem_azure_cloud_service_network_profile"><rect codeLine="26" fill="#3D176E" height="126.6797" id="azure_cloud_service_network_profile" rx="2.5" ry="2.5" style="stroke:#000D19;stroke-width:0.5;" width="508" x="724.5" y="1122.93"/><ellipse cx="815.75" cy="1142.8245" fill="#ADD1B2" rx="11" ry="11" style="stroke:#181818;stroke-width:1.0;"/><path d="M818.7188,1148.4652 Q818.1406,1148.762 817.5,1148.9027 Q816.8594,1149.0589 816.1563,1149.0589 Q813.6563,1149.0589 812.3281,1147.4183 Q811.0156,1145.762 811.0156,1142.637 Q811.0156,1139.512 812.3281,1137.8558 Q813.6563,1136.1995 816.1563,1136.1995 Q816.8594,1136.1995 817.5,1136.3558 Q818.1563,1136.512 818.7188,1136.8089 L818.7188,1139.5277 Q818.0938,1138.9495 817.5,1138.6839 Q816.9063,1138.4027 816.2813,1138.4027 Q814.9375,1138.4027 814.25,1139.4808 Q813.5625,1140.5433 813.5625,1142.637 Q813.5625,1144.7308 814.25,1145.8089 Q814.9375,1146.8714 816.2813,1146.8714 Q816.9063,1146.8714 817.5,1146.6058 Q818.0938,1146.3245 818.7188,1145.7464 L818.7188,1148.4652 Z " fill="#000000"/><text fill="#D9B8FF" font-family="Helvetica" font-size="17" lengthAdjust="spacing" textLength="307" x="841.25" y="1148.7098">azure_cloud_service_network_profile</text><line style="stroke:#000D19;stroke-width:0.5;" x1="725.5" x2="1231.5" y1="1162.7191" y2="1162.7191"/><text fill="#D9B8FF" font-family="sans-serif" font-size="14" font-weight="bold" lengthAdjust="spacing" textLength="229" x="735.5" y="1184.7142">load_balancer_configurations</text><text fill="#D9B8FF" font-family="sans-serif" font-size="14" lengthAdjust="spacing" textLength="257" x="964.5" y="1184.7142">: azure_load_balancer_configuration[]</text><text fill="#D9B8FF" font-family="sans-serif" font-size="14" font-weight="bold" lengthAdjust="spacing" textLength="71" x="735.5" y="1211.0111">slot_type</text><text fill="#D9B8FF" font-family="sans-serif" font-size="14" lengthAdjust="spacing" textLength="48" x="806.5" y="1211.0111">: string</text><text fill="#D9B8FF" font-family="sans-serif" font-size="14" font-weight="bold" lengthAdjust="spacing" textLength="200" x="735.5" y="1237.3079">swappable_cloud_service</text><text fill="#D9B8FF" font-family="sans-serif" font-size="14" lengthAdjust="spacing" textLength="48" x="935.5" y="1237.3079">: string</text></g><!--class azure_cloud_service_os_profile--><g id="elem_azure_cloud_service_os_profile"><rect codeLine="31" fill="#3D176E" height="74.0859" id="azure_cloud_service_os_profile" rx="2.5" ry="2.5" style="stroke:#000D19;stroke-width:0.5;" width="379" x="1283" y="1149.23"/><ellipse cx="1335.75" cy="1169.1245" fill="#ADD1B2" rx="11" ry="11" style="stroke:#181818;stroke-width:1.0;"/><path d="M1338.7188,1174.7652 Q1338.1406,1175.062 1337.5,1175.2027 Q1336.8594,1175.3589 1336.1563,1175.3589 Q1333.6563,1175.3589 1332.3281,1173.7183 Q1331.0156,1172.062 1331.0156,1168.937 Q1331.0156,1165.812 1332.3281,1164.1558 Q1333.6563,1162.4995 1336.1563,1162.4995 Q1336.8594,1162.4995 1337.5,1162.6558 Q1338.1563,1162.812 1338.7188,1163.1089 L1338.7188,1165.8277 Q1338.0938,1165.2495 1337.5,1164.9839 Q1336.9063,1164.7027 1336.2813,1164.7027 Q1334.9375,1164.7027 1334.25,1165.7808 Q1333.5625,1166.8433 1333.5625,1168.937 Q1333.5625,1171.0308 1334.25,1172.1089 Q1334.9375,1173.1714 1336.2813,1173.1714 Q1336.9063,1173.1714 1337.5,1172.9058 Q1338.0938,1172.6245 1338.7188,1172.0464 L1338.7188,1174.7652 Z " fill="#000000"/><text fill="#D9B8FF" font-family="Helvetica" font-size="17" lengthAdjust="spacing" textLength="255" x="1361.25" y="1175.0098">azure_cloud_service_os_profile</text><line style="stroke:#000D19;stroke-width:0.5;" x1="1284" x2="1661" y1="1189.0191" y2="1189.0191"/><text fill="#D9B8FF" font-family="sans-serif" font-size="14" font-weight="bold" lengthAdjust="spacing" textLength="60" x="1294" y="1211.0142">secrets</text><text fill="#D9B8FF" font-family="sans-serif" font-size="14" lengthAdjust="spacing" textLength="297" x="1354" y="1211.0142">: azure_cloud_service_vault_secret_group[]</text></g><!--class azure_cloud_service_role_profile--><g id="elem_azure_cloud_service_role_profile"><rect codeLine="34" fill="#3D176E" height="74.0859" id="azure_cloud_service_role_profile" rx="2.5" ry="2.5" style="stroke:#000D19;stroke-width:0.5;" width="381" x="1697" y="1149.23"/><ellipse cx="1743.75" cy="1169.1245" fill="#ADD1B2" rx="11" ry="11" style="stroke:#181818;stroke-width:1.0;"/><path d="M1746.7188,1174.7652 Q1746.1406,1175.062 1745.5,1175.2027 Q1744.8594,1175.3589 1744.1563,1175.3589 Q1741.6563,1175.3589 1740.3281,1173.7183 Q1739.0156,1172.062 1739.0156,1168.937 Q1739.0156,1165.812 1740.3281,1164.1558 Q1741.6563,1162.4995 1744.1563,1162.4995 Q1744.8594,1162.4995 1745.5,1162.6558 Q1746.1563,1162.812 1746.7188,1163.1089 L1746.7188,1165.8277 Q1746.0938,1165.2495 1745.5,1164.9839 Q1744.9063,1164.7027 1744.2813,1164.7027 Q1742.9375,1164.7027 1742.25,1165.7808 Q1741.5625,1166.8433 1741.5625,1168.937 Q1741.5625,1171.0308 1742.25,1172.1089 Q1742.9375,1173.1714 1744.2813,1173.1714 Q1744.9063,1173.1714 1745.5,1172.9058 Q1746.0938,1172.6245 1746.7188,1172.0464 L1746.7188,1174.7652 Z " fill="#000000"/><text fill="#D9B8FF" font-family="Helvetica" font-size="17" lengthAdjust="spacing" textLength="269" x="1769.25" y="1175.0098">azure_cloud_service_role_profile</text><line style="stroke:#000D19;stroke-width:0.5;" x1="1698" x2="2077" y1="1189.0191" y2="1189.0191"/><text fill="#D9B8FF" font-family="sans-serif" font-size="14" font-weight="bold" lengthAdjust="spacing" textLength="40" x="1708" y="1211.0142">roles</text><text fill="#D9B8FF" font-family="sans-serif" font-size="14" lengthAdjust="spacing" textLength="319" x="1748" y="1211.0142">: azure_cloud_service_role_profile_properties[]</text></g><!--class azure_cloud_service_role_profile_properties--><g id="elem_azure_cloud_service_role_profile_properties"><rect codeLine="37" fill="#3D176E" height="100.3828" id="azure_cloud_service_role_profile_properties" rx="2.5" ry="2.5" style="stroke:#000D19;stroke-width:0.5;" width="404" x="1703.5" y="1467.39"/><ellipse cx="1718.5" cy="1487.2845" fill="#ADD1B2" rx="11" ry="11" style="stroke:#181818;stroke-width:1.0;"/><path d="M1721.4688,1492.9252 Q1720.8906,1493.222 1720.25,1493.3627 Q1719.6094,1493.5189 1718.9063,1493.5189 Q1716.4063,1493.5189 1715.0781,1491.8783 Q1713.7656,1490.222 1713.7656,1487.097 Q1713.7656,1483.972 1715.0781,1482.3158 Q1716.4063,1480.6595 1718.9063,1480.6595 Q1719.6094,1480.6595 1720.25,1480.8158 Q1720.9063,1480.972 1721.4688,1481.2689 L1721.4688,1483.9877 Q1720.8438,1483.4095 1720.25,1483.1439 Q1719.6563,1482.8627 1719.0313,1482.8627 Q1717.6875,1482.8627 1717,1483.9408 Q1716.3125,1485.0033 1716.3125,1487.097 Q1716.3125,1489.1908 1717,1490.2689 Q1717.6875,1491.3314 1719.0313,1491.3314 Q1719.6563,1491.3314 1720.25,1491.0658 Q1720.8438,1490.7845 1721.4688,1490.2064 L1721.4688,1492.9252 Z " fill="#000000"/><text fill="#D9B8FF" font-family="Helvetica" font-size="17" lengthAdjust="spacing" textLength="362" x="1737.5" y="1493.1698">azure_cloud_service_role_profile_properties</text><line style="stroke:#000D19;stroke-width:0.5;" x1="1704.5" x2="2106.5" y1="1507.1791" y2="1507.1791"/><text fill="#D9B8FF" font-family="sans-serif" font-size="14" font-weight="bold" lengthAdjust="spacing" textLength="43" x="1714.5" y="1529.1742">name</text><text fill="#D9B8FF" font-family="sans-serif" font-size="14" lengthAdjust="spacing" textLength="48" x="1757.5" y="1529.1742">: string</text><text fill="#D9B8FF" font-family="sans-serif" font-size="14" font-weight="bold" lengthAdjust="spacing" textLength="28" x="1714.5" y="1555.4711">sku</text><text fill="#D9B8FF" font-family="sans-serif" font-size="14" lengthAdjust="spacing" textLength="214" x="1742.5" y="1555.4711">: azure_cloud_service_role_sku</text></g><!--class azure_cloud_service_role_sku--><g id="elem_azure_cloud_service_role_sku"><rect codeLine="41" fill="#3D176E" height="126.6797" id="azure_cloud_service_role_sku" rx="2.5" ry="2.5" style="stroke:#000D19;stroke-width:0.5;" width="287" x="1762" y="1759.26"/><ellipse cx="1777" cy="1779.1545" fill="#ADD1B2" rx="11" ry="11" style="stroke:#181818;stroke-width:1.0;"/><path d="M1779.9688,1784.7952 Q1779.3906,1785.092 1778.75,1785.2327 Q1778.1094,1785.3889 1777.4063,1785.3889 Q1774.9063,1785.3889 1773.5781,1783.7483 Q1772.2656,1782.092 1772.2656,1778.967 Q1772.2656,1775.842 1773.5781,1774.1858 Q1774.9063,1772.5295 1777.4063,1772.5295 Q1778.1094,1772.5295 1778.75,1772.6858 Q1779.4063,1772.842 1779.9688,1773.1389 L1779.9688,1775.8577 Q1779.3438,1775.2795 1778.75,1775.0139 Q1778.1563,1774.7327 1777.5313,1774.7327 Q1776.1875,1774.7327 1775.5,1775.8108 Q1774.8125,1776.8733 1774.8125,1778.967 Q1774.8125,1781.0608 1775.5,1782.1389 Q1776.1875,1783.2014 1777.5313,1783.2014 Q1778.1563,1783.2014 1778.75,1782.9358 Q1779.3438,1782.6545 1779.9688,1782.0764 L1779.9688,1784.7952 Z " fill="#000000"/><text fill="#D9B8FF" font-family="Helvetica" font-size="17" lengthAdjust="spacing" textLength="245" x="1796" y="1785.0398">azure_cloud_service_role_sku</text><line style="stroke:#000D19;stroke-width:0.5;" x1="1763" x2="2048" y1="1799.0491" y2="1799.0491"/><text fill="#D9B8FF" font-family="sans-serif" font-size="14" font-weight="bold" lengthAdjust="spacing" textLength="65" x="1773" y="1821.0442">capacity</text><text fill="#D9B8FF" font-family="sans-serif" font-size="14" lengthAdjust="spacing" textLength="44" x="1838" y="1821.0442">: int64</text><text fill="#D9B8FF" font-family="sans-serif" font-size="14" font-weight="bold" lengthAdjust="spacing" textLength="43" x="1773" y="1847.3411">name</text><text fill="#D9B8FF" font-family="sans-serif" font-size="14" lengthAdjust="spacing" textLength="48" x="1816" y="1847.3411">: string</text><text fill="#D9B8FF" font-family="sans-serif" font-size="14" font-weight="bold" lengthAdjust="spacing" textLength="27" x="1773" y="1873.6379">tier</text><text fill="#D9B8FF" font-family="sans-serif" font-size="14" lengthAdjust="spacing" textLength="48" x="1800" y="1873.6379">: string</text></g><!--class azure_cloud_service_vault_and_secret_reference--><g id="elem_azure_cloud_service_vault_and_secret_reference"><rect codeLine="46" fill="#3D176E" height="100.3828" id="azure_cloud_service_vault_and_secret_reference" rx="2.5" ry="2.5" style="stroke:#000D19;stroke-width:0.5;" width="447" x="104" y="1772.41"/><ellipse cx="119" cy="1792.3045" fill="#ADD1B2" rx="11" ry="11" style="stroke:#181818;stroke-width:1.0;"/><path d="M121.9688,1797.9452 Q121.3906,1798.242 120.75,1798.3827 Q120.1094,1798.5389 119.4063,1798.5389 Q116.9063,1798.5389 115.5781,1796.8983 Q114.2656,1795.242 114.2656,1792.117 Q114.2656,1788.992 115.5781,1787.3358 Q116.9063,1785.6795 119.4063,1785.6795 Q120.1094,1785.6795 120.75,1785.8358 Q121.4063,1785.992 121.9688,1786.2889 L121.9688,1789.0077 Q121.3438,1788.4295 120.75,1788.1639 Q120.1563,1787.8827 119.5313,1787.8827 Q118.1875,1787.8827 117.5,1788.9608 Q116.8125,1790.0233 116.8125,1792.117 Q116.8125,1794.2108 117.5,1795.2889 Q118.1875,1796.3514 119.5313,1796.3514 Q120.1563,1796.3514 120.75,1796.0858 Q121.3438,1795.8045 121.9688,1795.2264 L121.9688,1797.9452 Z " fill="#000000"/><text fill="#D9B8FF" font-family="Helvetica" font-size="17" lengthAdjust="spacing" textLength="405" x="138" y="1798.1898">azure_cloud_service_vault_and_secret_reference</text><line style="stroke:#000D19;stroke-width:0.5;" x1="105" x2="550" y1="1812.1991" y2="1812.1991"/><text fill="#D9B8FF" font-family="sans-serif" font-size="14" font-weight="bold" lengthAdjust="spacing" textLength="79" x="115" y="1834.1942">secret_url</text><text fill="#D9B8FF" font-family="sans-serif" font-size="14" lengthAdjust="spacing" textLength="48" x="194" y="1834.1942">: string</text><text fill="#D9B8FF" font-family="sans-serif" font-size="14" font-weight="bold" lengthAdjust="spacing" textLength="100" x="115" y="1860.4911">source_vault</text><text fill="#D9B8FF" font-family="sans-serif" font-size="14" lengthAdjust="spacing" textLength="48" x="215" y="1860.4911">: string</text></g><!--class azure_cloud_service_vault_secret_group--><g id="elem_azure_cloud_service_vault_secret_group"><rect codeLine="50" fill="#3D176E" height="100.3828" id="azure_cloud_service_vault_secret_group" rx="2.5" ry="2.5" style="stroke:#000D19;stroke-width:0.5;" width="376" x="1292.5" y="1467.39"/><ellipse cx="1307.5" cy="1487.2845" fill="#ADD1B2" rx="11" ry="11" style="stroke:#181818;stroke-width:1.0;"/><path d="M1310.4688,1492.9252 Q1309.8906,1493.222 1309.25,1493.3627 Q1308.6094,1493.5189 1307.9063,1493.5189 Q1305.4063,1493.5189 1304.0781,1491.8783 Q1302.7656,1490.222 1302.7656,1487.097 Q1302.7656,1483.972 1304.0781,1482.3158 Q1305.4063,1480.6595 1307.9063,1480.6595 Q1308.6094,1480.6595 1309.25,1480.8158 Q1309.9063,1480.972 1310.4688,1481.2689 L1310.4688,1483.9877 Q1309.8438,1483.4095 1309.25,1483.1439 Q1308.6563,1482.8627 1308.0313,1482.8627 Q1306.6875,1482.8627 1306,1483.9408 Q1305.3125,1485.0033 1305.3125,1487.097 Q1305.3125,1489.1908 1306,1490.2689 Q1306.6875,1491.3314 1308.0313,1491.3314 Q1308.6563,1491.3314 1309.25,1491.0658 Q1309.8438,1490.7845 1310.4688,1490.2064 L1310.4688,1492.9252 Z " fill="#000000"/><text fill="#D9B8FF" font-family="Helvetica" font-size="17" lengthAdjust="spacing" textLength="334" x="1326.5" y="1493.1698">azure_cloud_service_vault_secret_group</text><line style="stroke:#000D19;stroke-width:0.5;" x1="1293.5" x2="1667.5" y1="1507.1791" y2="1507.1791"/><text fill="#D9B8FF" font-family="sans-serif" font-size="14" font-weight="bold" lengthAdjust="spacing" textLength="100" x="1303.5" y="1529.1742">source_vault</text><text fill="#D9B8FF" font-family="sans-serif" font-size="14" lengthAdjust="spacing" textLength="48" x="1403.5" y="1529.1742">: string</text><text fill="#D9B8FF" font-family="sans-serif" font-size="14" font-weight="bold" lengthAdjust="spacing" textLength="134" x="1303.5" y="1555.4711">vault_certificates</text><text fill="#D9B8FF" font-family="sans-serif" font-size="14" lengthAdjust="spacing" textLength="58" x="1437.5" y="1555.4711">: string[]</text></g><!--class azure_compute_cloud_service--><g id="elem_azure_compute_cloud_service"><rect codeLine="54" fill="#3D176E" height="363.3516" id="azure_compute_cloud_service" rx="2.5" ry="2.5" style="stroke:#000D19;stroke-width:0.5;" width="522" x="1211.5" y="660.14"/><ellipse cx="1339.25" cy="680.0345" fill="#ADD1B2" rx="11" ry="11" style="stroke:#181818;stroke-width:1.0;"/><path d="M1342.2188,685.6752 Q1341.6406,685.972 1341,686.1127 Q1340.3594,686.2689 1339.6563,686.2689 Q1337.1563,686.2689 1335.8281,684.6283 Q1334.5156,682.972 1334.5156,679.847 Q1334.5156,676.722 1335.8281,675.0658 Q1337.1563,673.4095 1339.6563,673.4095 Q1340.3594,673.4095 1341,673.5658 Q1341.6563,673.722 1342.2188,674.0189 L1342.2188,676.7377 Q1341.5938,676.1595 1341,675.8939 Q1340.4063,675.6127 1339.7813,675.6127 Q1338.4375,675.6127 1337.75,676.6908 Q1337.0625,677.7533 1337.0625,679.847 Q1337.0625,681.9408 1337.75,683.0189 Q1338.4375,684.0814 1339.7813,684.0814 Q1340.4063,684.0814 1341,683.8158 Q1341.5938,683.5345 1342.2188,682.9564 L1342.2188,685.6752 Z " fill="#000000"/><text fill="#D9B8FF" font-family="Helvetica" font-size="17" lengthAdjust="spacing" textLength="248" x="1364.75" y="685.9198">azure_compute_cloud_service</text><line style="stroke:#000D19;stroke-width:0.5;" x1="1212.5" x2="1732.5" y1="699.9291" y2="699.9291"/><text fill="#D9B8FF" font-family="sans-serif" font-size="14" font-weight="bold" lengthAdjust="spacing" textLength="170" x="1222.5" y="721.9242">allow_model_override</text><text fill="#D9B8FF" font-family="sans-serif" font-size="14" lengthAdjust="spacing" textLength="65" x="1392.5" y="721.9242">: boolean</text><text fill="#D9B8FF" font-family="sans-serif" font-size="14" font-weight="bold" lengthAdjust="spacing" textLength="239" x="1222.5" y="748.2211">cloud_service_network_profile</text><text fill="#D9B8FF" font-family="sans-serif" font-size="14" lengthAdjust="spacing" textLength="261" x="1461.5" y="748.2211">: azure_cloud_service_network_profile</text><text fill="#D9B8FF" font-family="sans-serif" font-size="14" font-weight="bold" lengthAdjust="spacing" textLength="105" x="1222.5" y="774.5179">configuration</text><text fill="#D9B8FF" font-family="sans-serif" font-size="14" lengthAdjust="spacing" textLength="48" x="1327.5" y="774.5179">: string</text><text fill="#D9B8FF" font-family="sans-serif" font-size="14" font-weight="bold" lengthAdjust="spacing" textLength="133" x="1222.5" y="800.8148">configuration_url</text><text fill="#D9B8FF" font-family="sans-serif" font-size="14" lengthAdjust="spacing" textLength="48" x="1355.5" y="800.8148">: string</text><text fill="#D9B8FF" font-family="sans-serif" font-size="14" font-weight="bold" lengthAdjust="spacing" textLength="136" x="1222.5" y="827.1117">extension_profile</text><text fill="#D9B8FF" font-family="sans-serif" font-size="14" lengthAdjust="spacing" textLength="273" x="1358.5" y="827.1117">: azure_cloud_service_extension_profile</text><text fill="#D9B8FF" font-family="sans-serif" font-size="14" font-weight="bold" lengthAdjust="spacing" textLength="77" x="1222.5" y="853.4086">os_profile</text><text fill="#D9B8FF" font-family="sans-serif" font-size="14" lengthAdjust="spacing" textLength="222" x="1299.5" y="853.4086">: azure_cloud_service_os_profile</text><text fill="#D9B8FF" font-family="sans-serif" font-size="14" font-weight="bold" lengthAdjust="spacing" textLength="94" x="1222.5" y="879.7054">package_url</text><text fill="#D9B8FF" font-family="sans-serif" font-size="14" lengthAdjust="spacing" textLength="48" x="1316.5" y="879.7054">: string</text><text fill="#D9B8FF" font-family="sans-serif" font-size="14" font-weight="bold" lengthAdjust="spacing" textLength="89" x="1222.5" y="906.0023">role_profile</text><text fill="#D9B8FF" font-family="sans-serif" font-size="14" lengthAdjust="spacing" textLength="231" x="1311.5" y="906.0023">: azure_cloud_service_role_profile</text><text fill="#D9B8FF" font-family="sans-serif" font-size="14" font-weight="bold" lengthAdjust="spacing" textLength="152" x="1222.5" y="932.2992">start_cloud_service</text><text fill="#D9B8FF" font-family="sans-serif" font-size="14" lengthAdjust="spacing" textLength="65" x="1374.5" y="932.2992">: boolean</text><text fill="#D9B8FF" font-family="sans-serif" font-size="14" font-weight="bold" lengthAdjust="spacing" textLength="98" x="1222.5" y="958.5961">system_data</text><text fill="#D9B8FF" font-family="sans-serif" font-size="14" lengthAdjust="spacing" textLength="142" x="1320.5" y="958.5961">: azure_system_data</text><text fill="#D9B8FF" font-family="sans-serif" font-size="14" font-weight="bold" lengthAdjust="spacing" textLength="75" x="1222.5" y="984.8929">unique_id</text><text fill="#D9B8FF" font-family="sans-serif" font-size="14" lengthAdjust="spacing" textLength="48" x="1297.5" y="984.8929">: string</text><text fill="#D9B8FF" font-family="sans-serif" font-size="14" font-weight="bold" lengthAdjust="spacing" textLength="117" x="1222.5" y="1011.1898">upgrade_mode</text><text fill="#D9B8FF" font-family="sans-serif" font-size="14" lengthAdjust="spacing" textLength="48" x="1339.5" y="1011.1898">: string</text></g><!--class azure_extension--><g id="elem_azure_extension"><rect codeLine="68" fill="#3D176E" height="337.0547" id="azure_extension" rx="2.5" ry="2.5" style="stroke:#000D19;stroke-width:0.5;" width="641" x="7" y="1349.06"/><ellipse cx="249.75" cy="1368.9545" fill="#ADD1B2" rx="11" ry="11" style="stroke:#181818;stroke-width:1.0;"/><path d="M252.7188,1374.5952 Q252.1406,1374.892 251.5,1375.0327 Q250.8594,1375.1889 250.1563,1375.1889 Q247.6563,1375.1889 246.3281,1373.5483 Q245.0156,1371.892 245.0156,1368.767 Q245.0156,1365.642 246.3281,1363.9858 Q247.6563,1362.3295 250.1563,1362.3295 Q250.8594,1362.3295 251.5,1362.4858 Q252.1563,1362.642 252.7188,1362.9389 L252.7188,1365.6577 Q252.0938,1365.0795 251.5,1364.8139 Q250.9063,1364.5327 250.2813,1364.5327 Q248.9375,1364.5327 248.25,1365.6108 Q247.5625,1366.6733 247.5625,1368.767 Q247.5625,1370.8608 248.25,1371.9389 Q248.9375,1373.0014 250.2813,1373.0014 Q250.9063,1373.0014 251.5,1372.7358 Q252.0938,1372.4545 252.7188,1371.8764 L252.7188,1374.5952 Z " fill="#000000"/><text fill="#D9B8FF" font-family="Helvetica" font-size="17" lengthAdjust="spacing" textLength="137" x="275.25" y="1374.8398">azure_extension</text><line style="stroke:#000D19;stroke-width:0.5;" x1="8" x2="647" y1="1388.8491" y2="1388.8491"/><text fill="#D9B8FF" font-family="sans-serif" font-size="14" font-weight="bold" lengthAdjust="spacing" textLength="226" x="18" y="1410.8442">auto_upgrade_minor_version</text><text fill="#D9B8FF" font-family="sans-serif" font-size="14" lengthAdjust="spacing" textLength="65" x="244" y="1410.8442">: boolean</text><text fill="#D9B8FF" font-family="sans-serif" font-size="14" font-weight="bold" lengthAdjust="spacing" textLength="136" x="18" y="1437.1411">force_update_tag</text><text fill="#D9B8FF" font-family="sans-serif" font-size="14" lengthAdjust="spacing" textLength="48" x="154" y="1437.1411">: string</text><text fill="#D9B8FF" font-family="sans-serif" font-size="14" font-weight="bold" lengthAdjust="spacing" textLength="43" x="18" y="1463.4379">name</text><text fill="#D9B8FF" font-family="sans-serif" font-size="14" lengthAdjust="spacing" textLength="48" x="61" y="1463.4379">: string</text><text fill="#D9B8FF" font-family="sans-serif" font-size="14" font-weight="bold" lengthAdjust="spacing" textLength="149" x="18" y="1489.7348">protected_settings</text><text fill="#D9B8FF" font-family="sans-serif" font-size="14" lengthAdjust="spacing" textLength="33" x="167" y="1489.7348">: any</text><text fill="#D9B8FF" font-family="sans-serif" font-size="14" font-weight="bold" lengthAdjust="spacing" textLength="273" x="18" y="1516.0317">protected_settings_from_key_vault</text><text fill="#D9B8FF" font-family="sans-serif" font-size="14" lengthAdjust="spacing" textLength="346" x="291" y="1516.0317">: azure_cloud_service_vault_and_secret_reference</text><text fill="#D9B8FF" font-family="sans-serif" font-size="14" font-weight="bold" lengthAdjust="spacing" textLength="144" x="18" y="1542.3286">provisioning_state</text><text fill="#D9B8FF" font-family="sans-serif" font-size="14" lengthAdjust="spacing" textLength="48" x="162" y="1542.3286">: string</text><text fill="#D9B8FF" font-family="sans-serif" font-size="14" font-weight="bold" lengthAdjust="spacing" textLength="74" x="18" y="1568.6254">publisher</text><text fill="#D9B8FF" font-family="sans-serif" font-size="14" lengthAdjust="spacing" textLength="48" x="92" y="1568.6254">: string</text><text fill="#D9B8FF" font-family="sans-serif" font-size="14" font-weight="bold" lengthAdjust="spacing" textLength="127" x="18" y="1594.9223">roles_applied_to</text><text fill="#D9B8FF" font-family="sans-serif" font-size="14" lengthAdjust="spacing" textLength="58" x="145" y="1594.9223">: string[]</text><text fill="#D9B8FF" font-family="sans-serif" font-size="14" font-weight="bold" lengthAdjust="spacing" textLength="64" x="18" y="1621.2192">settings</text><text fill="#D9B8FF" font-family="sans-serif" font-size="14" lengthAdjust="spacing" textLength="33" x="82" y="1621.2192">: any</text><text fill="#D9B8FF" font-family="sans-serif" font-size="14" font-weight="bold" lengthAdjust="spacing" textLength="35" x="18" y="1647.5161">type</text><text fill="#D9B8FF" font-family="sans-serif" font-size="14" lengthAdjust="spacing" textLength="48" x="53" y="1647.5161">: string</text><text fill="#D9B8FF" font-family="sans-serif" font-size="14" font-weight="bold" lengthAdjust="spacing" textLength="168" x="18" y="1673.8129">type_handler_version</text><text fill="#D9B8FF" font-family="sans-serif" font-size="14" lengthAdjust="spacing" textLength="48" x="186" y="1673.8129">: string</text></g><!--class azure_load_balancer_configuration--><g id="elem_azure_load_balancer_configuration"><rect codeLine="81" fill="#3D176E" height="126.6797" id="azure_load_balancer_configuration" rx="2.5" ry="2.5" style="stroke:#000D19;stroke-width:0.5;" width="575" x="683" y="1454.25"/><ellipse cx="816.25" cy="1474.1445" fill="#ADD1B2" rx="11" ry="11" style="stroke:#181818;stroke-width:1.0;"/><path d="M819.2188,1479.7852 Q818.6406,1480.082 818,1480.2227 Q817.3594,1480.3789 816.6563,1480.3789 Q814.1563,1480.3789 812.8281,1478.7383 Q811.5156,1477.082 811.5156,1473.957 Q811.5156,1470.832 812.8281,1469.1758 Q814.1563,1467.5195 816.6563,1467.5195 Q817.3594,1467.5195 818,1467.6758 Q818.6563,1467.832 819.2188,1468.1289 L819.2188,1470.8477 Q818.5938,1470.2695 818,1470.0039 Q817.4063,1469.7227 816.7813,1469.7227 Q815.4375,1469.7227 814.75,1470.8008 Q814.0625,1471.8633 814.0625,1473.957 Q814.0625,1476.0508 814.75,1477.1289 Q815.4375,1478.1914 816.7813,1478.1914 Q817.4063,1478.1914 818,1477.9258 Q818.5938,1477.6445 819.2188,1477.0664 L819.2188,1479.7852 Z " fill="#000000"/><text fill="#D9B8FF" font-family="Helvetica" font-size="17" lengthAdjust="spacing" textLength="290" x="841.75" y="1480.0298">azure_load_balancer_configuration</text><line style="stroke:#000D19;stroke-width:0.5;" x1="684" x2="1257" y1="1494.0391" y2="1494.0391"/><text fill="#D9B8FF" font-family="sans-serif" font-size="14" font-weight="bold" lengthAdjust="spacing" textLength="211" x="694" y="1516.0342">frontend_ip_configurations</text><text fill="#D9B8FF" font-family="sans-serif" font-size="14" lengthAdjust="spacing" textLength="342" x="905" y="1516.0342">: azure_load_balancer_frontend_ip_configuration[]</text><text fill="#D9B8FF" font-family="sans-serif" font-size="14" font-weight="bold" lengthAdjust="spacing" textLength="14" x="694" y="1542.3311">id</text><text fill="#D9B8FF" font-family="sans-serif" font-size="14" lengthAdjust="spacing" textLength="48" x="708" y="1542.3311">: string</text><text fill="#D9B8FF" font-family="sans-serif" font-size="14" font-weight="bold" lengthAdjust="spacing" textLength="43" x="694" y="1568.6279">name</text><text fill="#D9B8FF" font-family="sans-serif" font-size="14" lengthAdjust="spacing" textLength="48" x="737" y="1568.6279">: string</text></g><!--class azure_load_balancer_frontend_ip_configuration--><g id="elem_azure_load_balancer_frontend_ip_configuration"><rect codeLine="86" fill="#3D176E" height="152.9766" id="azure_load_balancer_frontend_ip_configuration" rx="2.5" ry="2.5" style="stroke:#000D19;stroke-width:0.5;" width="437" x="752" y="1746.11"/><ellipse cx="767" cy="1766.0045" fill="#ADD1B2" rx="11" ry="11" style="stroke:#181818;stroke-width:1.0;"/><path d="M769.9688,1771.6452 Q769.3906,1771.942 768.75,1772.0827 Q768.1094,1772.2389 767.4063,1772.2389 Q764.9063,1772.2389 763.5781,1770.5983 Q762.2656,1768.942 762.2656,1765.817 Q762.2656,1762.692 763.5781,1761.0358 Q764.9063,1759.3795 767.4063,1759.3795 Q768.1094,1759.3795 768.75,1759.5358 Q769.4063,1759.692 769.9688,1759.9889 L769.9688,1762.7077 Q769.3438,1762.1295 768.75,1761.8639 Q768.1563,1761.5827 767.5313,1761.5827 Q766.1875,1761.5827 765.5,1762.6608 Q764.8125,1763.7233 764.8125,1765.817 Q764.8125,1767.9108 765.5,1768.9889 Q766.1875,1770.0514 767.5313,1770.0514 Q768.1563,1770.0514 768.75,1769.7858 Q769.3438,1769.5045 769.9688,1768.9264 L769.9688,1771.6452 Z " fill="#000000"/><text fill="#D9B8FF" font-family="Helvetica" font-size="17" lengthAdjust="spacing" textLength="395" x="786" y="1771.8898">azure_load_balancer_frontend_ip_configuration</text><line style="stroke:#000D19;stroke-width:0.5;" x1="753" x2="1188" y1="1785.8991" y2="1785.8991"/><text fill="#D9B8FF" font-family="sans-serif" font-size="14" font-weight="bold" lengthAdjust="spacing" textLength="43" x="763" y="1807.8942">name</text><text fill="#D9B8FF" font-family="sans-serif" font-size="14" lengthAdjust="spacing" textLength="48" x="806" y="1807.8942">: string</text><text fill="#D9B8FF" font-family="sans-serif" font-size="14" font-weight="bold" lengthAdjust="spacing" textLength="147" x="763" y="1834.1911">private_ip_address</text><text fill="#D9B8FF" font-family="sans-serif" font-size="14" lengthAdjust="spacing" textLength="48" x="910" y="1834.1911">: string</text><text fill="#D9B8FF" font-family="sans-serif" font-size="14" font-weight="bold" lengthAdjust="spacing" textLength="139" x="763" y="1860.4879">public_ip_address</text><text fill="#D9B8FF" font-family="sans-serif" font-size="14" lengthAdjust="spacing" textLength="48" x="902" y="1860.4879">: string</text><text fill="#D9B8FF" font-family="sans-serif" font-size="14" font-weight="bold" lengthAdjust="spacing" textLength="55" x="763" y="1886.7848">subnet</text><text fill="#D9B8FF" font-family="sans-serif" font-size="14" lengthAdjust="spacing" textLength="48" x="818" y="1886.7848">: string</text></g><!--class azure_system_data--><g id="elem_azure_system_data"><rect codeLine="92" fill="#3D176E" height="205.5703" id="azure_system_data" rx="2.5" ry="2.5" style="stroke:#000D19;stroke-width:0.5;" width="241" x="2113" y="1083.49"/><ellipse cx="2145.1" cy="1103.3845" fill="#ADD1B2" rx="11" ry="11" style="stroke:#181818;stroke-width:1.0;"/><path d="M2148.0688,1109.0252 Q2147.4906,1109.322 2146.85,1109.4627 Q2146.2094,1109.6189 2145.5063,1109.6189 Q2143.0063,1109.6189 2141.6781,1107.9783 Q2140.3656,1106.322 2140.3656,1103.197 Q2140.3656,1100.072 2141.6781,1098.4158 Q2143.0063,1096.7595 2145.5063,1096.7595 Q2146.2094,1096.7595 2146.85,1096.9158 Q2147.5063,1097.072 2148.0688,1097.3689 L2148.0688,1100.0877 Q2147.4438,1099.5095 2146.85,1099.2439 Q2146.2563,1098.9627 2145.6313,1098.9627 Q2144.2875,1098.9627 2143.6,1100.0408 Q2142.9125,1101.1033 2142.9125,1103.197 Q2142.9125,1105.2908 2143.6,1106.3689 Q2144.2875,1107.4314 2145.6313,1107.4314 Q2146.2563,1107.4314 2146.85,1107.1658 Q2147.4438,1106.8845 2148.0688,1106.3064 L2148.0688,1109.0252 Z " fill="#000000"/><text fill="#D9B8FF" font-family="Helvetica" font-size="17" lengthAdjust="spacing" textLength="161" x="2167.9" y="1109.2698">azure_system_data</text><line style="stroke:#000D19;stroke-width:0.5;" x1="2114" x2="2353" y1="1123.2791" y2="1123.2791"/><text fill="#D9B8FF" font-family="sans-serif" font-size="14" font-weight="bold" lengthAdjust="spacing" textLength="83" x="2124" y="1145.2742">created_at</text><text fill="#D9B8FF" font-family="sans-serif" font-size="14" lengthAdjust="spacing" textLength="70" x="2207" y="1145.2742">: datetime</text><text fill="#D9B8FF" font-family="sans-serif" font-size="14" font-weight="bold" lengthAdjust="spacing" textLength="87" x="2124" y="1171.5711">created_by</text><text fill="#D9B8FF" font-family="sans-serif" font-size="14" lengthAdjust="spacing" textLength="48" x="2211" y="1171.5711">: string</text><text fill="#D9B8FF" font-family="sans-serif" font-size="14" font-weight="bold" lengthAdjust="spacing" textLength="129" x="2124" y="1197.8679">created_by_type</text><text fill="#D9B8FF" font-family="sans-serif" font-size="14" lengthAdjust="spacing" textLength="48" x="2253" y="1197.8679">: string</text><text fill="#D9B8FF" font-family="sans-serif" font-size="14" font-weight="bold" lengthAdjust="spacing" textLength="125" x="2124" y="1224.1648">last_modified_at</text><text fill="#D9B8FF" font-family="sans-serif" font-size="14" lengthAdjust="spacing" textLength="70" x="2249" y="1224.1648">: datetime</text><text fill="#D9B8FF" font-family="sans-serif" font-size="14" font-weight="bold" lengthAdjust="spacing" textLength="129" x="2124" y="1250.4617">last_modified_by</text><text fill="#D9B8FF" font-family="sans-serif" font-size="14" lengthAdjust="spacing" textLength="48" x="2253" y="1250.4617">: string</text><text fill="#D9B8FF" font-family="sans-serif" font-size="14" font-weight="bold" lengthAdjust="spacing" textLength="171" x="2124" y="1276.7586">last_modified_by_type</text><text fill="#D9B8FF" font-family="sans-serif" font-size="14" lengthAdjust="spacing" textLength="48" x="2295" y="1276.7586">: string</text></g><!--class microsoft_resource--><g id="elem_microsoft_resource"><rect codeLine="100" fill="#3D176E" height="100.3828" id="microsoft_resource" rx="2.5" ry="2.5" style="stroke:#000D19;stroke-width:0.5;" width="214" x="1365.5" y="438.75"/><ellipse cx="1386.8" cy="458.6445" fill="#ADD1B2" rx="11" ry="11" style="stroke:#181818;stroke-width:1.0;"/><path d="M1389.7688,464.2852 Q1389.1906,464.582 1388.55,464.7227 Q1387.9094,464.8789 1387.2063,464.8789 Q1384.7063,464.8789 1383.3781,463.2383 Q1382.0656,461.582 1382.0656,458.457 Q1382.0656,455.332 1383.3781,453.6758 Q1384.7063,452.0195 1387.2063,452.0195 Q1387.9094,452.0195 1388.55,452.1758 Q1389.2063,452.332 1389.7688,452.6289 L1389.7688,455.3477 Q1389.1438,454.7695 1388.55,454.5039 Q1387.9563,454.2227 1387.3313,454.2227 Q1385.9875,454.2227 1385.3,455.3008 Q1384.6125,456.3633 1384.6125,458.457 Q1384.6125,460.5508 1385.3,461.6289 Q1385.9875,462.6914 1387.3313,462.6914 Q1387.9563,462.6914 1388.55,462.4258 Q1389.1438,462.1445 1389.7688,461.5664 L1389.7688,464.2852 Z " fill="#000000"/><text fill="#D9B8FF" font-family="Helvetica" font-size="17" lengthAdjust="spacing" textLength="158" x="1407.2" y="464.5298">microsoft_resource</text><line style="stroke:#000D19;stroke-width:0.5;" x1="1366.5" x2="1578.5" y1="478.5391" y2="478.5391"/><text fill="#D9B8FF" font-family="sans-serif" font-size="14" font-weight="bold" lengthAdjust="spacing" textLength="35" x="1376.5" y="500.5342">etag</text><text fill="#D9B8FF" font-family="sans-serif" font-size="14" lengthAdjust="spacing" textLength="48" x="1411.5" y="500.5342">: string</text><text fill="#D9B8FF" font-family="sans-serif" font-size="14" font-weight="bold" lengthAdjust="spacing" textLength="144" x="1376.5" y="526.8311">provisioning_state</text><text fill="#D9B8FF" font-family="sans-serif" font-size="14" lengthAdjust="spacing" textLength="48" x="1520.5" y="526.8311">: string</text></g><!--class resource--><g id="elem_resource"><rect codeLine="104" fill="#3D176E" height="310.7578" id="resource" rx="2.5" ry="2.5" style="stroke:#000D19;stroke-width:0.5;" width="227" x="1359" y="7"/><ellipse cx="1427.75" cy="26.8945" fill="#ADD1B2" rx="11" ry="11" style="stroke:#181818;stroke-width:1.0;"/><path d="M1430.7188,32.5352 Q1430.1406,32.832 1429.5,32.9727 Q1428.8594,33.1289 1428.1563,33.1289 Q1425.6563,33.1289 1424.3281,31.4883 Q1423.0156,29.832 1423.0156,26.707 Q1423.0156,23.582 1424.3281,21.9258 Q1425.6563,20.2695 1428.1563,20.2695 Q1428.8594,20.2695 1429.5,20.4258 Q1430.1563,20.582 1430.7188,20.8789 L1430.7188,23.5977 Q1430.0938,23.0195 1429.5,22.7539 Q1428.9063,22.4727 1428.2813,22.4727 Q1426.9375,22.4727 1426.25,23.5508 Q1425.5625,24.6133 1425.5625,26.707 Q1425.5625,28.8008 1426.25,29.8789 Q1426.9375,30.9414 1428.2813,30.9414 Q1428.9063,30.9414 1429.5,30.6758 Q1430.0938,30.3945 1430.7188,29.8164 L1430.7188,32.5352 Z " fill="#000000"/><text fill="#D9B8FF" font-family="Helvetica" font-size="17" lengthAdjust="spacing" textLength="71" x="1453.25" y="32.7798">resource</text><line style="stroke:#000D19;stroke-width:0.5;" x1="1360" x2="1585" y1="46.7891" y2="46.7891"/><text fill="#D9B8FF" font-family="sans-serif" font-size="14" font-weight="bold" lengthAdjust="spacing" textLength="29" x="1370" y="68.7842">age</text><text fill="#D9B8FF" font-family="sans-serif" font-size="14" lengthAdjust="spacing" textLength="66" x="1399" y="68.7842">: duration</text><text fill="#D9B8FF" font-family="sans-serif" font-size="14" font-weight="bold" lengthAdjust="spacing" textLength="43" x="1370" y="95.0811">atime</text><text fill="#D9B8FF" font-family="sans-serif" font-size="14" lengthAdjust="spacing" textLength="70" x="1413" y="95.0811">: datetime</text><text fill="#D9B8FF" font-family="sans-serif" font-size="14" font-weight="bold" lengthAdjust="spacing" textLength="43" x="1370" y="121.3779">ctime</text><text fill="#D9B8FF" font-family="sans-serif" font-size="14" lengthAdjust="spacing" textLength="70" x="1413" y="121.3779">: datetime</text><text fill="#D9B8FF" font-family="sans-serif" font-size="14" font-weight="bold" lengthAdjust="spacing" textLength="14" x="1370" y="147.6748">id</text><text fill="#D9B8FF" font-family="sans-serif" font-size="14" lengthAdjust="spacing" textLength="48" x="1384" y="147.6748">: string</text><text fill="#D9B8FF" font-family="sans-serif" font-size="14" font-weight="bold" lengthAdjust="spacing" textLength="33" x="1370" y="173.9717">kind</text><text fill="#D9B8FF" font-family="sans-serif" font-size="14" lengthAdjust="spacing" textLength="48" x="1403" y="173.9717">: string</text><text fill="#D9B8FF" font-family="sans-serif" font-size="14" font-weight="bold" lengthAdjust="spacing" textLength="90" x="1370" y="200.2686">last_access</text><text fill="#D9B8FF" font-family="sans-serif" font-size="14" lengthAdjust="spacing" textLength="66" x="1460" y="200.2686">: duration</text><text fill="#D9B8FF" font-family="sans-serif" font-size="14" font-weight="bold" lengthAdjust="spacing" textLength="90" x="1370" y="226.5654">last_update</text><text fill="#D9B8FF" font-family="sans-serif" font-size="14" lengthAdjust="spacing" textLength="66" x="1460" y="226.5654">: duration</text><text fill="#D9B8FF" font-family="sans-serif" font-size="14" font-weight="bold" lengthAdjust="spacing" textLength="48" x="1370" y="252.8623">mtime</text><text fill="#D9B8FF" font-family="sans-serif" font-size="14" lengthAdjust="spacing" textLength="70" x="1418" y="252.8623">: datetime</text><text fill="#D9B8FF" font-family="sans-serif" font-size="14" font-weight="bold" lengthAdjust="spacing" textLength="43" x="1370" y="279.1592">name</text><text fill="#D9B8FF" font-family="sans-serif" font-size="14" lengthAdjust="spacing" textLength="48" x="1413" y="279.1592">: string</text><text fill="#D9B8FF" font-family="sans-serif" font-size="14" font-weight="bold" lengthAdjust="spacing" textLength="34" x="1370" y="305.4561">tags</text><text fill="#D9B8FF" font-family="sans-serif" font-size="14" lengthAdjust="spacing" textLength="171" x="1404" y="305.4561">: dictionary[string, string]</text></g><!--link azure_cloud_service_extension_profile to azure_extension--><g id="link_azure_cloud_service_extension_profile_azure_extension"><path codeLine="116" d="M411.97,1223.77 C403.03,1254.75 391.1933,1295.8152 377.5833,1342.9852 " fill="none" id="azure_cloud_service_extension_profile-to-azure_extension" style="stroke:#FFAF37;stroke-width:2.0;"/><polygon fill="#FFAF37" points="375.92,1348.75,382.2582,1341.2116,377.3061,1343.946,374.5718,1338.9939,375.92,1348.75" style="stroke:#FFAF37;stroke-width:2.0;"/></g><!--link azure_cloud_service_network_profile to azure_load_balancer_configuration--><g id="link_azure_cloud_service_network_profile_azure_load_balancer_configuration"><path codeLine="117" d="M976.98,1249.99 C975.56,1308.49 973.5966,1389.3018 972.1666,1447.8218 " fill="none" id="azure_cloud_service_network_profile-to-azure_load_balancer_configuration" style="stroke:#FFAF37;stroke-width:2.0;"/><polygon fill="#FFAF37" points="972.02,1453.82,976.2387,1444.9204,972.1421,1448.8215,968.2411,1444.725,972.02,1453.82" style="stroke:#FFAF37;stroke-width:2.0;"/></g><!--link azure_cloud_service_os_profile to azure_cloud_service_vault_secret_group--><g id="link_azure_cloud_service_os_profile_azure_cloud_service_vault_secret_group"><path codeLine="118" d="M1473.39,1223.77 C1474.83,1283.06 1477.5344,1394.3418 1479.1544,1461.0818 " fill="none" id="azure_cloud_service_os_profile-to-azure_cloud_service_vault_secret_group" style="stroke:#FFAF37;stroke-width:2.0;"/><polygon fill="#FFAF37" points="1479.3,1467.08,1483.0804,1457.9856,1479.1787,1462.0815,1475.0828,1458.1797,1479.3,1467.08" style="stroke:#FFAF37;stroke-width:2.0;"/></g><!--link azure_cloud_service_role_profile to azure_cloud_service_role_profile_properties--><g id="link_azure_cloud_service_role_profile_azure_cloud_service_role_profile_properties"><path codeLine="119" d="M1889.5,1223.77 C1892.74,1283.06 1898.8232,1394.3489 1902.4632,1461.0889 " fill="none" id="azure_cloud_service_role_profile-to-azure_cloud_service_role_profile_properties" style="stroke:#FFAF37;stroke-width:2.0;"/><polygon fill="#FFAF37" points="1902.79,1467.08,1906.2939,1457.8755,1902.5177,1462.0874,1898.3058,1458.3112,1902.79,1467.08" style="stroke:#FFAF37;stroke-width:2.0;"/></g><!--link azure_cloud_service_role_profile_properties to azure_cloud_service_role_sku--><g id="link_azure_cloud_service_role_profile_properties_azure_cloud_service_role_sku"><path codeLine="120" d="M1905.5,1567.95 C1905.5,1620.02 1905.5,1696.22 1905.5,1752.86 " fill="none" id="azure_cloud_service_role_profile_properties-to-azure_cloud_service_role_sku" style="stroke:#FFAF37;stroke-width:2.0;"/><polygon fill="#FFAF37" points="1905.5,1758.86,1909.5,1749.86,1905.5,1753.86,1901.5,1749.86,1905.5,1758.86" style="stroke:#FFAF37;stroke-width:2.0;"/></g><!--link azure_compute_cloud_service to azure_cloud_service_extension_profile--><g id="link_azure_compute_cloud_service_azure_cloud_service_extension_profile"><path codeLine="121" d="M1211.08,922.13 C1062.64,967.88 873.64,1027.3 706.5,1083.49 C644.69,1104.27 581.4675,1126.8561 527.0375,1146.6861 " fill="none" id="azure_compute_cloud_service-to-azure_cloud_service_extension_profile" style="stroke:#FFAF37;stroke-width:2.0;"/><polygon fill="#FFAF37" points="521.4,1148.74,531.2255,1149.4175,526.0979,1147.0284,528.487,1141.9009,521.4,1148.74" style="stroke:#FFAF37;stroke-width:2.0;"/></g><!--link azure_compute_cloud_service to azure_cloud_service_network_profile--><g id="link_azure_compute_cloud_service_azure_cloud_service_network_profile"><path codeLine="122" d="M1211.4,1023.82 C1160.19,1059.32 1114.7311,1090.8318 1073.9911,1119.0718 " fill="none" id="azure_compute_cloud_service-to-azure_cloud_service_network_profile" style="stroke:#FFAF37;stroke-width:2.0;"/><polygon fill="#FFAF37" points="1069.06,1122.49,1078.7355,1120.6502,1073.1693,1119.6415,1074.178,1114.0753,1069.06,1122.49" style="stroke:#FFAF37;stroke-width:2.0;"/></g><!--link azure_compute_cloud_service to azure_cloud_service_os_profile--><g id="link_azure_compute_cloud_service_azure_cloud_service_os_profile"><path codeLine="123" d="M1472.5,1023.82 C1472.5,1071.52 1472.5,1112.21 1472.5,1143.01 " fill="none" id="azure_compute_cloud_service-to-azure_cloud_service_os_profile" style="stroke:#FFAF37;stroke-width:2.0;"/><polygon fill="#FFAF37" points="1472.5,1149.01,1476.5,1140.01,1472.5,1144.01,1468.5,1140.01,1472.5,1149.01" style="stroke:#FFAF37;stroke-width:2.0;"/></g><!--link azure_compute_cloud_service to azure_cloud_service_role_profile--><g id="link_azure_compute_cloud_service_azure_cloud_service_role_profile"><path codeLine="124" d="M1691.85,1023.82 C1749.66,1071.52 1801.6024,1114.3909 1838.9224,1145.1909 " fill="none" id="azure_compute_cloud_service-to-azure_cloud_service_role_profile" style="stroke:#FFAF37;stroke-width:2.0;"/><polygon fill="#FFAF37" points="1843.55,1149.01,1839.1547,1140.1963,1839.6937,1145.8274,1834.0626,1146.3664,1843.55,1149.01" style="stroke:#FFAF37;stroke-width:2.0;"/></g><!--link azure_compute_cloud_service to azure_system_data--><g id="link_azure_compute_cloud_service_azure_system_data"><path codeLine="125" d="M1733.66,926.14 C1847.89,966.99 1981.54,1020.92 2095.5,1083.49 C2101.24,1086.64 2101.8864,1086.8778 2107.6464,1090.3878 " fill="none" id="azure_compute_cloud_service-to-azure_system_data" style="stroke:#FFAF37;stroke-width:2.0;"/><polygon fill="#FFAF37" points="2112.77,1093.51,2107.166,1085.4109,2108.5003,1090.9081,2103.0031,1092.2424,2112.77,1093.51" style="stroke:#FFAF37;stroke-width:2.0;"/></g><!--reverse link microsoft_resource to azure_compute_cloud_service--><g id="link_microsoft_resource_azure_compute_cloud_service"><path codeLine="126" d="M1472.5,557.47 C1472.5,589.49 1472.5,615.34 1472.5,659.67 " fill="none" id="microsoft_resource-backto-azure_compute_cloud_service" style="stroke:#FFAF37;stroke-width:2.0;"/><polygon fill="none" points="1472.5,539.47,1466.5,557.47,1478.5,557.47,1472.5,539.47" style="stroke:#FFAF37;stroke-width:2.0;"/></g><!--link azure_extension to azure_cloud_service_vault_and_secret_reference--><g id="link_azure_extension_azure_cloud_service_vault_and_secret_reference"><path codeLine="127" d="M327.5,1686.49 C327.5,1717.76 327.5,1742.08 327.5,1766.06 " fill="none" id="azure_extension-to-azure_cloud_service_vault_and_secret_reference" style="stroke:#FFAF37;stroke-width:2.0;"/><polygon fill="#FFAF37" points="327.5,1772.06,331.5,1763.06,327.5,1767.06,323.5,1763.06,327.5,1772.06" style="stroke:#FFAF37;stroke-width:2.0;"/></g><!--link azure_load_balancer_configuration to azure_load_balancer_frontend_ip_configuration--><g id="link_azure_load_balancer_configuration_azure_load_balancer_frontend_ip_configuration"><path codeLine="128" d="M970.5,1581.37 C970.5,1629.13 970.5,1689.05 970.5,1739.75 " fill="none" id="azure_load_balancer_configuration-to-azure_load_balancer_frontend_ip_configuration" style="stroke:#FFAF37;stroke-width:2.0;"/><polygon fill="#FFAF37" points="970.5,1745.75,974.5,1736.75,970.5,1740.75,966.5,1736.75,970.5,1745.75" style="stroke:#FFAF37;stroke-width:2.0;"/></g><!--reverse link resource to microsoft_resource--><g id="link_resource_microsoft_resource"><path codeLine="129" d="M1472.5,336.06 C1472.5,379.65 1472.5,405.98 1472.5,438.42 " fill="none" id="resource-backto-microsoft_resource" style="stroke:#FFAF37;stroke-width:2.0;"/><polygon fill="none" points="1472.5,318.06,1466.5,336.06,1478.5,336.06,1472.5,318.06" style="stroke:#FFAF37;stroke-width:2.0;"/></g><!--SRC=[dLPBZzis4BxhLmZ8pOY1tIRDPeEWGBf0qLw2ekaj20YQ7Dc49L8TKdQTjl-zGyaFFYJPkoS2d8_V3EUzKH9AQ5ftA1jeLe2si5kbMuwyAJyXclsJgGsMhwgALsyUKk4lHhkhWC-yWV9Ng7VWbE0fui-D4biDrfO_1AAVkTYkqNHQ3lGEkROa0kq2r5FDhVta7AfLvo0mHZwktbTLYan9NxsHzm_l88CPb817oDtTdRn_J25NLSt- -upuehv3UHywxRDna9cPgUXHirPwH61azj6JVDB6txcKIg_B7uExFmQRK0D6zrysN9gzHrUyjg4Qwm31k4CBJzcluF6zh1v6mRzDWGlXNLVoxnq24xNf9BE0EoM0mTyEj5L6inPDfMee_oaMY_EjNIm-7D-Txxv-A_wROTJWzWQt4Lzjk6GhNdCj09amkbBh3hcBDSoWIETYOMlZcF-eVs8fVVNQt-vvs_9LdTWHOEQiDJOor890S85DCNh7kzgn0SIyfzihpa13TeKA_CKaVOZsPmle5DXdw0XUzUeq9MhihMqtgvtarvKHg6SNlEL2kODdLDgzUpkcaMp16uCnk9ThUN8nGaN9JUaG18TrMCTVCXsU7ZzBKHZ7GS4uqs8nu8LtR4K5xuOG3k8yEgPfgQ_6Adj-NjTcpneZeMPc1uWqHZpHof1NkVOUdIkbgS0bC4yJraxqaqYIkJBh1bCgCo0zlfJIrAiBWk2KEbk-Xio6C9rlAHGVDyVHvUL_SQizK9TicEIENoY3Iu9qMltL0LCoCgPhryWbz36RpAspCuOWTywmypkb3J8AjJq6uc9JPNokTItf1-RuEjARLH5zre5mu3_e7DqDJKGVHcMiGjEmBHmkkVoyUXjOTygRJOICFEmIWxfLhUmcgkrZUsFKa6j5vZWJbOcluDJsh9tx2xOXcsg873Vg-Pc9qSU2tA0fDfAfziQfC_cYjp_9ZYHASxPDyewtwHRLpkS5eMcZGDhpSkUBAQdjLjGI9WqBydxeuWZS9m_ld_XqTAg1GB0wn2taV9qFOrBZVB5GcnnZZCK9RofCsK-_Q9H0OqtbqtNesCFEajRGR0AVo28AQaUzmSVG-1jlUEgMaRiaCMWva_dVk137K0KQUidG1H99Cw8ddwvyg2QfX7_6yV1raBq-OlnqkctnMov_IXjQSSk2TtatKux5bUNhGd9jKXTNzwmfheb5gNZEKZNBxPUdkHrWwd4-JL_2agu1B-489lHBdaTp-JQ2S0gFLFR7VvVBvTnYLQGpU3wJHeVTzM4obUEJRRr8Vf1_hVWV]--></g></svg>