<svg xmlns="http://www.w3.org/2000/svg" width="3728" height="2358" viewBox="0 0 3728 2358"><rect width="227" height="74.086" x="2334.5" y="638.99" fill="#3D176E" rx="2.5" ry="2.5" style="stroke:#000d19;stroke-width:.5"/><circle cx="2414.25" cy="658.885" r="11" fill="#ADD1B2" style="stroke:#181818;stroke-width:1"/><path d="M2417.219 664.525q-.578.297-1.219.438-.64.156-1.344.156-2.5 0-3.828-1.64-1.312-1.657-1.312-4.782t1.312-4.781q1.328-1.657 3.828-1.657.703 0 1.344.157.656.156 1.219.453v2.719q-.625-.578-1.219-.844-.594-.281-1.219-.281-1.343 0-2.031 1.078-.687 1.062-.687 3.156t.687 3.172q.688 1.062 2.031 1.062.625 0 1.219-.265.594-.282 1.219-.86z"/><text x="2439.75" y="664.77" fill="#D9B8FF" font-family="Helvetica" font-size="17" textLength="49">ai_job</text><path d="M2335.5 678.779h225" style="stroke:#000d19;stroke-width:.5"/><text x="2345.5" y="700.774" fill="#D9B8FF" font-family="sans-serif" font-size="14" font-weight="bold" textLength="100">ai_job_status</text><text x="2445.5" y="700.774" fill="#D9B8FF" font-family="sans-serif" font-size="14" textLength="105">: a_i_job_status</text><rect width="137" height="39.789" x="2529.5" y="438.76" fill="#3D176E" rx="2.5" ry="2.5" style="stroke:#000d19;stroke-width:.5"/><circle cx="2544.5" cy="458.654" r="11" fill="#ADD1B2" style="stroke:#181818;stroke-width:1"/><path d="M2547.469 464.295q-.578.297-1.219.438-.64.156-1.344.156-2.5 0-3.828-1.64-1.312-1.657-1.312-4.782t1.312-4.781q1.328-1.656 3.828-1.656.703 0 1.344.156.656.156 1.219.453v2.719q-.625-.579-1.219-.844-.594-.281-1.219-.281-1.343 0-2.031 1.078-.687 1.062-.687 3.156t.687 3.172q.688 1.062 2.031 1.062.625 0 1.219-.265.594-.281 1.219-.86z"/><text x="2563.5" y="464.54" fill="#D9B8FF" font-family="Helvetica" font-size="17" textLength="95">ai_resource</text><rect width="237" height="179.273" x="3484.5" y="1507.25" fill="#3D176E" rx="2.5" ry="2.5" style="stroke:#000d19;stroke-width:.5"/><circle cx="3499.5" cy="1527.145" r="11" fill="#ADD1B2" style="stroke:#181818;stroke-width:1"/><path d="M3502.469 1532.785q-.578.297-1.219.438-.64.156-1.344.156-2.5 0-3.828-1.64-1.312-1.657-1.312-4.782t1.312-4.781q1.328-1.656 3.828-1.656.703 0 1.344.156.656.156 1.219.453v2.719q-.625-.578-1.219-.844-.594-.281-1.219-.281-1.343 0-2.031 1.078-.687 1.062-.687 3.156t.687 3.172q.688 1.062 2.031 1.062.625 0 1.219-.265.594-.281 1.219-.86z"/><text x="3518.5" y="1533.03" fill="#D9B8FF" font-family="Helvetica" font-size="17" textLength="195">gcp_deprecation_status</text><path d="M3485.5 1547.039h235" style="stroke:#000d19;stroke-width:.5"/><text x="3495.5" y="1569.034" fill="#D9B8FF" font-family="sans-serif" font-size="14" font-weight="bold" textLength="60">deleted</text><text x="3555.5" y="1569.034" fill="#D9B8FF" font-family="sans-serif" font-size="14" textLength="48">: string</text><text x="3495.5" y="1595.331" fill="#D9B8FF" font-family="sans-serif" font-size="14" font-weight="bold" textLength="91">deprecated</text><text x="3586.5" y="1595.331" fill="#D9B8FF" font-family="sans-serif" font-size="14" textLength="48">: string</text><text x="3495.5" y="1621.628" fill="#D9B8FF" font-family="sans-serif" font-size="14" font-weight="bold" textLength="69">obsolete</text><text x="3564.5" y="1621.628" fill="#D9B8FF" font-family="sans-serif" font-size="14" textLength="48">: string</text><text x="3495.5" y="1647.925" fill="#D9B8FF" font-family="sans-serif" font-size="14" font-weight="bold" textLength="99">replacement</text><text x="3594.5" y="1647.925" fill="#D9B8FF" font-family="sans-serif" font-size="14" textLength="48">: string</text><text x="3495.5" y="1674.222" fill="#D9B8FF" font-family="sans-serif" font-size="14" font-weight="bold" textLength="40">state</text><text x="3535.5" y="1674.222" fill="#D9B8FF" font-family="sans-serif" font-size="14" textLength="48">: string</text><rect width="134" height="39.789" x="54" y="2042.39" fill="#3D176E" rx="2.5" ry="2.5" style="stroke:#000d19;stroke-width:.5"/><circle cx="69" cy="2062.285" r="11" fill="#ADD1B2" style="stroke:#181818;stroke-width:1"/><path d="M71.969 2067.925q-.578.297-1.219.438-.64.156-1.344.156-2.5 0-3.828-1.64-1.312-1.657-1.312-4.782t1.312-4.781q1.328-1.656 3.828-1.656.703 0 1.344.156.656.156 1.219.453v2.719q-.625-.578-1.219-.844-.594-.281-1.219-.281-1.344 0-2.031 1.078-.687 1.062-.687 3.156t.687 3.172q.688 1.062 2.031 1.062.625 0 1.219-.265.594-.281 1.219-.86z"/><text x="88" y="2068.17" fill="#D9B8FF" font-family="Helvetica" font-size="17" textLength="92">gcp_details</text><rect width="228" height="126.68" x="7" y="1759.67" fill="#3D176E" rx="2.5" ry="2.5" style="stroke:#000d19;stroke-width:.5"/><circle cx="22" cy="1779.564" r="11" fill="#ADD1B2" style="stroke:#181818;stroke-width:1"/><path d="M24.969 1785.205q-.578.297-1.219.438-.64.156-1.344.156-2.5 0-3.828-1.64-1.312-1.657-1.312-4.782t1.312-4.781q1.328-1.657 3.828-1.657.703 0 1.344.157.656.156 1.219.453v2.719q-.625-.579-1.219-.844-.594-.281-1.219-.281-1.343 0-2.031 1.078-.687 1.062-.687 3.156t.687 3.172q.688 1.062 2.031 1.062.625 0 1.219-.265.594-.282 1.219-.86z"/><text x="41" y="1785.45" fill="#D9B8FF" font-family="Helvetica" font-size="17" textLength="186">gcp_google_rpc_status</text><path d="M8 1799.459h226" style="stroke:#000d19;stroke-width:.5"/><text x="18" y="1821.454" fill="#D9B8FF" font-family="sans-serif" font-size="14" font-weight="bold" textLength="39">code</text><text x="57" y="1821.454" fill="#D9B8FF" font-family="sans-serif" font-size="14" textLength="44">: int64</text><text x="18" y="1847.751" fill="#D9B8FF" font-family="sans-serif" font-size="14" font-weight="bold" textLength="52">details</text><text x="70" y="1847.751" fill="#D9B8FF" font-family="sans-serif" font-size="14" textLength="97">: gcp_details[]</text><text x="18" y="1874.048" fill="#D9B8FF" font-family="sans-serif" font-size="14" font-weight="bold" textLength="71">message</text><text x="89" y="1874.048" fill="#D9B8FF" font-family="sans-serif" font-size="14" textLength="48">: string</text><rect width="348" height="152.977" x="2596" y="599.55" fill="#3D176E" rx="2.5" ry="2.5" style="stroke:#000d19;stroke-width:.5"/><circle cx="2706.75" cy="619.444" r="11" fill="#ADD1B2" style="stroke:#181818;stroke-width:1"/><path d="M2709.719 625.085q-.578.297-1.219.438-.64.156-1.344.156-2.5 0-3.828-1.64-1.312-1.657-1.312-4.782t1.312-4.781q1.328-1.657 3.828-1.657.703 0 1.344.157.656.156 1.219.453v2.719q-.625-.579-1.219-.844-.594-.281-1.219-.281-1.343 0-2.031 1.078-.687 1.062-.687 3.156t.687 3.172q.688 1.062 2.031 1.062.625 0 1.219-.265.594-.282 1.219-.86z"/><text x="2732.25" y="625.33" fill="#D9B8FF" font-family="Helvetica" font-size="17" textLength="108">gcp_resource</text><path d="M2597 639.339h346" style="stroke:#000d19;stroke-width:.5"/><text x="2607" y="661.334" fill="#D9B8FF" font-family="sans-serif" font-size="14" font-weight="bold" textLength="151">deprecation_status</text><text x="2758" y="661.334" fill="#D9B8FF" font-family="sans-serif" font-size="14" textLength="175">: gcp_deprecation_status</text><text x="2607" y="687.631" fill="#D9B8FF" font-family="sans-serif" font-size="14" font-weight="bold" textLength="89">description</text><text x="2696" y="687.631" fill="#D9B8FF" font-family="sans-serif" font-size="14" textLength="48">: string</text><text x="2607" y="713.928" fill="#D9B8FF" font-family="sans-serif" font-size="14" font-weight="bold" textLength="128">label_fingerprint</text><text x="2735" y="713.928" fill="#D9B8FF" font-family="sans-serif" font-size="14" textLength="48">: string</text><text x="2607" y="740.225" fill="#D9B8FF" font-family="sans-serif" font-size="14" font-weight="bold" textLength="27">link</text><text x="2634" y="740.225" fill="#D9B8FF" font-family="sans-serif" font-size="14" textLength="48">: string</text><rect width="255" height="74.086" x="2946.5" y="2251.37" fill="#3D176E" rx="2.5" ry="2.5" style="stroke:#000d19;stroke-width:.5"/><circle cx="2961.5" cy="2271.265" r="11" fill="#ADD1B2" style="stroke:#181818;stroke-width:1"/><path d="M2964.469 2276.905q-.578.297-1.219.438-.64.156-1.344.156-2.5 0-3.828-1.64-1.312-1.657-1.312-4.782t1.312-4.781q1.328-1.656 3.828-1.656.703 0 1.344.156.656.156 1.219.453v2.719q-.625-.578-1.219-.844-.594-.281-1.219-.281-1.343 0-2.031 1.078-.687 1.062-.687 3.156t.687 3.172q.688 1.062 2.031 1.062.625 0 1.219-.265.594-.281 1.219-.86z"/><text x="2980.5" y="2277.15" fill="#D9B8FF" font-family="Helvetica" font-size="17" textLength="213">gcp_vertex_ai_gcs_source</text><path d="M2947.5 2291.159h253" style="stroke:#000d19;stroke-width:.5"/><text x="2957.5" y="2313.154" fill="#D9B8FF" font-family="sans-serif" font-size="14" font-weight="bold" textLength="30">uris</text><text x="2987.5" y="2313.154" fill="#D9B8FF" font-family="sans-serif" font-size="14" textLength="58">: string[]</text><rect width="571" height="152.977" x="128.5" y="1520.4" fill="#3D176E" rx="2.5" ry="2.5" style="stroke:#000d19;stroke-width:.5"/><circle cx="143.5" cy="1540.294" r="11" fill="#ADD1B2" style="stroke:#181818;stroke-width:1"/><path d="M146.469 1545.935q-.578.297-1.219.438-.64.156-1.344.156-2.5 0-3.828-1.64-1.312-1.657-1.312-4.782t1.312-4.781q1.328-1.657 3.828-1.657.703 0 1.344.157.656.156 1.219.453v2.719q-.625-.579-1.219-.844-.594-.281-1.219-.281-1.344 0-2.031 1.078-.687 1.062-.687 3.156t.687 3.172q.688 1.062 2.031 1.062.625 0 1.219-.265.594-.282 1.219-.86z"/><text x="162.5" y="1546.18" fill="#D9B8FF" font-family="Helvetica" font-size="17" textLength="529">gcp_vertex_ai_model_deployment_monitoring_big_query_table</text><path d="M129.5 1560.189h569" style="stroke:#000d19;stroke-width:.5"/><text x="139.5" y="1582.184" fill="#D9B8FF" font-family="sans-serif" font-size="14" font-weight="bold" textLength="158">bigquery_table_path</text><text x="297.5" y="1582.184" fill="#D9B8FF" font-family="sans-serif" font-size="14" textLength="48">: string</text><text x="139.5" y="1608.481" fill="#D9B8FF" font-family="sans-serif" font-size="14" font-weight="bold" textLength="86">log_source</text><text x="225.5" y="1608.481" fill="#D9B8FF" font-family="sans-serif" font-size="14" textLength="48">: string</text><text x="139.5" y="1634.778" fill="#D9B8FF" font-family="sans-serif" font-size="14" font-weight="bold" textLength="66">log_type</text><text x="205.5" y="1634.778" fill="#D9B8FF" font-family="sans-serif" font-size="14" textLength="48">: string</text><text x="139.5" y="1661.075" fill="#D9B8FF" font-family="sans-serif" font-size="14" font-weight="bold" textLength="343">request_response_logging_schema_version</text><text x="482.5" y="1661.075" fill="#D9B8FF" font-family="sans-serif" font-size="14" textLength="48">: string</text><rect width="916" height="573.727" x="1990" y="873.52" fill="#3D176E" rx="2.5" ry="2.5" style="stroke:#000d19;stroke-width:.5"/><circle cx="2228.25" cy="893.414" r="11" fill="#ADD1B2" style="stroke:#181818;stroke-width:1"/><path d="M2231.219 899.055q-.578.297-1.219.438-.64.156-1.344.156-2.5 0-3.828-1.64-1.312-1.657-1.312-4.782t1.312-4.781q1.328-1.657 3.828-1.657.703 0 1.344.157.656.156 1.219.453v2.719q-.625-.579-1.219-.844-.594-.281-1.219-.281-1.343 0-2.031 1.078-.687 1.062-.687 3.156t.687 3.172q.688 1.062 2.031 1.062.625 0 1.219-.265.594-.282 1.219-.86z"/><text x="2253.75" y="899.3" fill="#D9B8FF" font-family="Helvetica" font-size="17" textLength="421">gcp_vertex_ai_model_deployment_monitoring_job</text><path d="M1991 913.309h914" style="stroke:#000d19;stroke-width:.5"/><text x="2001" y="935.304" fill="#D9B8FF" font-family="sans-serif" font-size="14" font-weight="bold" textLength="233">analysis_instance_schema_uri</text><text x="2234" y="935.304" fill="#D9B8FF" font-family="sans-serif" font-size="14" textLength="48">: string</text><text x="2001" y="961.601" fill="#D9B8FF" font-family="sans-serif" font-size="14" font-weight="bold" textLength="125">bigquery_tables</text><text x="2126" y="961.601" fill="#D9B8FF" font-family="sans-serif" font-size="14" textLength="447">: gcp_vertex_ai_model_deployment_monitoring_big_query_table[]</text><text x="2001" y="987.898" fill="#D9B8FF" font-family="sans-serif" font-size="14" font-weight="bold" textLength="92">create_time</text><text x="2093" y="987.898" fill="#D9B8FF" font-family="sans-serif" font-size="14" textLength="70">: datetime</text><text x="2001" y="1014.195" fill="#D9B8FF" font-family="sans-serif" font-size="14" font-weight="bold" textLength="105">display_name</text><text x="2106" y="1014.195" fill="#D9B8FF" font-family="sans-serif" font-size="14" textLength="48">: string</text><text x="2001" y="1040.492" fill="#D9B8FF" font-family="sans-serif" font-size="14" font-weight="bold" textLength="254">enable_monitoring_pipeline_logs</text><text x="2255" y="1040.492" fill="#D9B8FF" font-family="sans-serif" font-size="14" textLength="65">: boolean</text><text x="2001" y="1066.789" fill="#D9B8FF" font-family="sans-serif" font-size="14" font-weight="bold" textLength="130">encryption_spec</text><text x="2131" y="1066.789" fill="#D9B8FF" font-family="sans-serif" font-size="14" textLength="48">: string</text><text x="2001" y="1093.085" fill="#D9B8FF" font-family="sans-serif" font-size="14" font-weight="bold" textLength="70">endpoint</text><text x="2071" y="1093.085" fill="#D9B8FF" font-family="sans-serif" font-size="14" textLength="48">: string</text><text x="2001" y="1119.382" fill="#D9B8FF" font-family="sans-serif" font-size="14" font-weight="bold" textLength="285">latest_monitoring_pipeline_metadata</text><text x="2286" y="1119.382" fill="#D9B8FF" font-family="sans-serif" font-size="14" textLength="609">: gcp_vertex_ai_model_deployment_monitoring_job_latest_monitoring_pipeline_metadata</text><text x="2001" y="1145.679" fill="#D9B8FF" font-family="sans-serif" font-size="14" font-weight="bold" textLength="47">log_ttl</text><text x="2048" y="1145.679" fill="#D9B8FF" font-family="sans-serif" font-size="14" textLength="48">: string</text><text x="2001" y="1171.976" fill="#D9B8FF" font-family="sans-serif" font-size="14" font-weight="bold" textLength="208">logging_sampling_strategy</text><text x="2209" y="1171.976" fill="#D9B8FF" font-family="sans-serif" font-size="14" textLength="234">: gcp_vertex_ai_sampling_strategy</text><text x="2001" y="1198.273" fill="#D9B8FF" font-family="sans-serif" font-size="14" font-weight="bold" textLength="384">model_deployment_monitoring_objective_configs</text><text x="2385" y="1198.273" fill="#D9B8FF" font-family="sans-serif" font-size="14" textLength="450">: gcp_vertex_ai_model_deployment_monitoring_objective_config[]</text><text x="2001" y="1224.57" fill="#D9B8FF" font-family="sans-serif" font-size="14" font-weight="bold" textLength="375">model_deployment_monitoring_schedule_config</text><text x="2376" y="1224.57" fill="#D9B8FF" font-family="sans-serif" font-size="14" textLength="442">: gcp_vertex_ai_model_deployment_monitoring_schedule_config</text><text x="2001" y="1250.867" fill="#D9B8FF" font-family="sans-serif" font-size="14" font-weight="bold" textLength="239">model_monitoring_alert_config</text><text x="2240" y="1250.867" fill="#D9B8FF" font-family="sans-serif" font-size="14" textLength="319">: gcp_vertex_ai_model_monitoring_alert_config</text><text x="2001" y="1277.164" fill="#D9B8FF" font-family="sans-serif" font-size="14" font-weight="bold" textLength="155">next_schedule_time</text><text x="2156" y="1277.164" fill="#D9B8FF" font-family="sans-serif" font-size="14" textLength="70">: datetime</text><text x="2001" y="1303.46" fill="#D9B8FF" font-family="sans-serif" font-size="14" font-weight="bold" textLength="226">predict_instance_schema_uri</text><text x="2227" y="1303.46" fill="#D9B8FF" font-family="sans-serif" font-size="14" textLength="48">: string</text><text x="2001" y="1329.757" fill="#D9B8FF" font-family="sans-serif" font-size="14" font-weight="bold" textLength="74">rpc_error</text><text x="2075" y="1329.757" fill="#D9B8FF" font-family="sans-serif" font-size="14" textLength="169">: gcp_google_rpc_status</text><text x="2001" y="1356.054" fill="#D9B8FF" font-family="sans-serif" font-size="14" font-weight="bold" textLength="193">sample_predict_instance</text><text x="2194" y="1356.054" fill="#D9B8FF" font-family="sans-serif" font-size="14" textLength="33">: any</text><text x="2001" y="1382.351" fill="#D9B8FF" font-family="sans-serif" font-size="14" font-weight="bold" textLength="119">schedule_state</text><text x="2120" y="1382.351" fill="#D9B8FF" font-family="sans-serif" font-size="14" textLength="48">: string</text><text x="2001" y="1408.648" fill="#D9B8FF" font-family="sans-serif" font-size="14" font-weight="bold" textLength="249">stats_anomalies_base_directory</text><text x="2250" y="1408.648" fill="#D9B8FF" font-family="sans-serif" font-size="14" textLength="48">: string</text><text x="2001" y="1434.945" fill="#D9B8FF" font-family="sans-serif" font-size="14" font-weight="bold" textLength="96">update_time</text><text x="2097" y="1434.945" fill="#D9B8FF" font-family="sans-serif" font-size="14" textLength="70">: datetime</text><rect width="786" height="100.383" x="735" y="1546.7" fill="#3D176E" rx="2.5" ry="2.5" style="stroke:#000d19;stroke-width:.5"/><circle cx="750" cy="1566.594" r="11" fill="#ADD1B2" style="stroke:#181818;stroke-width:1"/><path d="M752.969 1572.235q-.578.297-1.219.438-.64.156-1.344.156-2.5 0-3.828-1.64-1.312-1.657-1.312-4.782t1.312-4.781q1.328-1.657 3.828-1.657.703 0 1.344.157.656.156 1.219.453v2.719q-.625-.579-1.219-.844-.594-.281-1.219-.281-1.343 0-2.031 1.078-.687 1.062-.687 3.156t.687 3.172q.688 1.062 2.031 1.062.625 0 1.219-.265.594-.282 1.219-.86z"/><text x="769" y="1572.48" fill="#D9B8FF" font-family="Helvetica" font-size="17" textLength="744">gcp_vertex_ai_model_deployment_monitoring_job_latest_monitoring_pipeline_metadata</text><path d="M736 1586.489h784" style="stroke:#000d19;stroke-width:.5"/><text x="746" y="1608.484" fill="#D9B8FF" font-family="sans-serif" font-size="14" font-weight="bold" textLength="68">run_time</text><text x="814" y="1608.484" fill="#D9B8FF" font-family="sans-serif" font-size="14" textLength="70">: datetime</text><text x="746" y="1634.781" fill="#D9B8FF" font-family="sans-serif" font-size="14" font-weight="bold" textLength="49">status</text><text x="795" y="1634.781" fill="#D9B8FF" font-family="sans-serif" font-size="14" textLength="169">: gcp_google_rpc_status</text><rect width="572" height="100.383" x="1556" y="1546.7" fill="#3D176E" rx="2.5" ry="2.5" style="stroke:#000d19;stroke-width:.5"/><circle cx="1571" cy="1566.594" r="11" fill="#ADD1B2" style="stroke:#181818;stroke-width:1"/><path d="M1573.969 1572.235q-.578.297-1.219.438-.64.156-1.344.156-2.5 0-3.828-1.64-1.312-1.657-1.312-4.782t1.312-4.781q1.328-1.657 3.828-1.657.703 0 1.344.157.656.156 1.219.453v2.719q-.625-.579-1.219-.844-.594-.281-1.219-.281-1.343 0-2.031 1.078-.687 1.062-.687 3.156t.687 3.172q.688 1.062 2.031 1.062.625 0 1.219-.265.594-.282 1.219-.86z"/><text x="1590" y="1572.48" fill="#D9B8FF" font-family="Helvetica" font-size="17" textLength="530">gcp_vertex_ai_model_deployment_monitoring_objective_config</text><path d="M1557 1586.489h570" style="stroke:#000d19;stroke-width:.5"/><text x="1567" y="1608.484" fill="#D9B8FF" font-family="sans-serif" font-size="14" font-weight="bold" textLength="149">deployed_model_id</text><text x="1716" y="1608.484" fill="#D9B8FF" font-family="sans-serif" font-size="14" textLength="48">: string</text><text x="1567" y="1634.781" fill="#D9B8FF" font-family="sans-serif" font-size="14" font-weight="bold" textLength="128">objective_config</text><text x="1695" y="1634.781" fill="#D9B8FF" font-family="sans-serif" font-size="14" textLength="351">: gcp_vertex_ai_model_monitoring_objective_config</text><rect width="570" height="100.383" x="2163" y="1546.7" fill="#3D176E" rx="2.5" ry="2.5" style="stroke:#000d19;stroke-width:.5"/><circle cx="2178" cy="1566.594" r="11" fill="#ADD1B2" style="stroke:#181818;stroke-width:1"/><path d="M2180.969 1572.235q-.578.297-1.219.438-.64.156-1.344.156-2.5 0-3.828-1.64-1.312-1.657-1.312-4.782t1.312-4.781q1.328-1.657 3.828-1.657.703 0 1.344.157.656.156 1.219.453v2.719q-.625-.579-1.219-.844-.594-.281-1.219-.281-1.343 0-2.031 1.078-.687 1.062-.687 3.156t.687 3.172q.688 1.062 2.031 1.062.625 0 1.219-.265.594-.282 1.219-.86z"/><text x="2197" y="1572.48" fill="#D9B8FF" font-family="Helvetica" font-size="17" textLength="528">gcp_vertex_ai_model_deployment_monitoring_schedule_config</text><path d="M2164 1586.489h568" style="stroke:#000d19;stroke-width:.5"/><text x="2174" y="1608.484" fill="#D9B8FF" font-family="sans-serif" font-size="14" font-weight="bold" textLength="127">monitor_interval</text><text x="2301" y="1608.484" fill="#D9B8FF" font-family="sans-serif" font-size="14" textLength="48">: string</text><text x="2174" y="1634.781" fill="#D9B8FF" font-family="sans-serif" font-size="14" font-weight="bold" textLength="130">monitor_window</text><text x="2304" y="1634.781" fill="#D9B8FF" font-family="sans-serif" font-size="14" textLength="48">: string</text><rect width="610" height="126.68" x="2768" y="1533.55" fill="#3D176E" rx="2.5" ry="2.5" style="stroke:#000d19;stroke-width:.5"/><circle cx="2871.25" cy="1553.445" r="11" fill="#ADD1B2" style="stroke:#181818;stroke-width:1"/><path d="M2874.219 1559.085q-.578.297-1.219.438-.64.156-1.344.156-2.5 0-3.828-1.64-1.312-1.657-1.312-4.782t1.312-4.781q1.328-1.657 3.828-1.657.703 0 1.344.157.656.156 1.219.453v2.719q-.625-.578-1.219-.844-.594-.281-1.219-.281-1.343 0-2.031 1.078-.687 1.062-.687 3.156t.687 3.172q.688 1.062 2.031 1.062.625 0 1.219-.265.594-.282 1.219-.86z"/><text x="2896.75" y="1559.33" fill="#D9B8FF" font-family="Helvetica" font-size="17" textLength="385">gcp_vertex_ai_model_monitoring_alert_config</text><path d="M2769 1573.339h608" style="stroke:#000d19;stroke-width:.5"/><text x="2779" y="1595.334" fill="#D9B8FF" font-family="sans-serif" font-size="14" font-weight="bold" textLength="140">email_alert_config</text><text x="2919" y="1595.334" fill="#D9B8FF" font-family="sans-serif" font-size="14" textLength="448">: gcp_vertex_ai_model_monitoring_alert_config_email_alert_config</text><text x="2779" y="1621.631" fill="#D9B8FF" font-family="sans-serif" font-size="14" font-weight="bold" textLength="118">enable_logging</text><text x="2897" y="1621.631" fill="#D9B8FF" font-family="sans-serif" font-size="14" textLength="65">: boolean</text><text x="2779" y="1647.928" fill="#D9B8FF" font-family="sans-serif" font-size="14" font-weight="bold" textLength="166">notification_channels</text><text x="2945" y="1647.928" fill="#D9B8FF" font-family="sans-serif" font-size="14" textLength="58">: string[]</text><rect width="590" height="74.086" x="2778" y="1785.97" fill="#3D176E" rx="2.5" ry="2.5" style="stroke:#000d19;stroke-width:.5"/><circle cx="2793" cy="1805.864" r="11" fill="#ADD1B2" style="stroke:#181818;stroke-width:1"/><path d="M2795.969 1811.505q-.578.297-1.219.438-.64.156-1.344.156-2.5 0-3.828-1.64-1.312-1.657-1.312-4.782t1.312-4.781q1.328-1.657 3.828-1.657.703 0 1.344.157.656.156 1.219.453v2.719q-.625-.579-1.219-.844-.594-.281-1.219-.281-1.343 0-2.031 1.078-.687 1.062-.687 3.156t.687 3.172q.688 1.062 2.031 1.062.625 0 1.219-.265.594-.282 1.219-.86z"/><text x="2812" y="1811.75" fill="#D9B8FF" font-family="Helvetica" font-size="17" textLength="548">gcp_vertex_ai_model_monitoring_alert_config_email_alert_config</text><path d="M2779 1825.759h588" style="stroke:#000d19;stroke-width:.5"/><text x="2789" y="1847.754" fill="#D9B8FF" font-family="sans-serif" font-size="14" font-weight="bold" textLength="93">user_emails</text><text x="2882" y="1847.754" fill="#D9B8FF" font-family="sans-serif" font-size="14" textLength="58">: string[]</text><rect width="1006" height="152.977" x="1339" y="1746.52" fill="#3D176E" rx="2.5" ry="2.5" style="stroke:#000d19;stroke-width:.5"/><circle cx="1622.25" cy="1766.415" r="11" fill="#ADD1B2" style="stroke:#181818;stroke-width:1"/><path d="M1625.219 1772.055q-.578.297-1.219.438-.64.156-1.344.156-2.5 0-3.828-1.64-1.312-1.657-1.312-4.782t1.312-4.781q1.328-1.656 3.828-1.656.703 0 1.344.156.656.156 1.219.453v2.719q-.625-.578-1.219-.844-.594-.281-1.219-.281-1.343 0-2.031 1.078-.687 1.062-.687 3.156t.687 3.172q.688 1.062 2.031 1.062.625 0 1.219-.265.594-.281 1.219-.86z"/><text x="1647.75" y="1772.3" fill="#D9B8FF" font-family="Helvetica" font-size="17" textLength="421">gcp_vertex_ai_model_monitoring_objective_config</text><path d="M1340 1786.309h1004" style="stroke:#000d19;stroke-width:.5"/><text x="1350" y="1808.304" fill="#D9B8FF" font-family="sans-serif" font-size="14" font-weight="bold" textLength="147">explanation_config</text><text x="1497" y="1808.304" fill="#D9B8FF" font-family="sans-serif" font-size="14" textLength="486">: gcp_vertex_ai_model_monitoring_objective_config_explanation_config</text><text x="1350" y="1834.601" fill="#D9B8FF" font-family="sans-serif" font-size="14" font-weight="bold" textLength="258">prediction_drift_detection_config</text><text x="1608" y="1834.601" fill="#D9B8FF" font-family="sans-serif" font-size="14" textLength="582">: gcp_vertex_ai_model_monitoring_objective_config_prediction_drift_detection_config</text><text x="1350" y="1860.898" fill="#D9B8FF" font-family="sans-serif" font-size="14" font-weight="bold" textLength="126">training_dataset</text><text x="1476" y="1860.898" fill="#D9B8FF" font-family="sans-serif" font-size="14" textLength="468">: gcp_vertex_ai_model_monitoring_objective_config_training_dataset</text><text x="1350" y="1887.195" fill="#D9B8FF" font-family="sans-serif" font-size="14" font-weight="bold" textLength="334">training_prediction_skew_detection_config</text><text x="1684" y="1887.195" fill="#D9B8FF" font-family="sans-serif" font-size="14" textLength="650">: gcp_vertex_ai_model_monitoring_objective_config_training_prediction_skew_detection_config</text><rect width="823" height="100.383" x="1911.5" y="2012.09" fill="#3D176E" rx="2.5" ry="2.5" style="stroke:#000d19;stroke-width:.5"/><circle cx="2019.75" cy="2031.985" r="11" fill="#ADD1B2" style="stroke:#181818;stroke-width:1"/><path d="M2022.719 2037.625q-.578.297-1.219.438-.64.156-1.344.156-2.5 0-3.828-1.64-1.312-1.657-1.312-4.782t1.312-4.781q1.328-1.657 3.828-1.657.703 0 1.344.157.656.156 1.219.453v2.719q-.625-.579-1.219-.844-.594-.281-1.219-.281-1.343 0-2.031 1.078-.687 1.062-.687 3.156t.687 3.172q.688 1.062 2.031 1.062.625 0 1.219-.265.594-.282 1.219-.86z"/><text x="2045.25" y="2037.87" fill="#D9B8FF" font-family="Helvetica" font-size="17" textLength="588">gcp_vertex_ai_model_monitoring_objective_config_explanation_config</text><path d="M1912.5 2051.879h821" style="stroke:#000d19;stroke-width:.5"/><text x="1922.5" y="2073.874" fill="#D9B8FF" font-family="sans-serif" font-size="14" font-weight="bold" textLength="202">enable_feature_attributes</text><text x="2124.5" y="2073.874" fill="#D9B8FF" font-family="sans-serif" font-size="14" textLength="65">: boolean</text><text x="1922.5" y="2100.171" fill="#D9B8FF" font-family="sans-serif" font-size="14" font-weight="bold" textLength="164">explanation_baseline</text><text x="2086.5" y="2100.171" fill="#D9B8FF" font-family="sans-serif" font-size="14" textLength="637">: gcp_vertex_ai_model_monitoring_objective_config_explanation_config_explanation_baseline</text><rect width="816" height="126.68" x="1915" y="2225.07" fill="#3D176E" rx="2.5" ry="2.5" style="stroke:#000d19;stroke-width:.5"/><circle cx="1930" cy="2244.965" r="11" fill="#ADD1B2" style="stroke:#181818;stroke-width:1"/><path d="M1932.969 2250.605q-.578.297-1.219.438-.64.156-1.344.156-2.5 0-3.828-1.64-1.312-1.657-1.312-4.782t1.312-4.781q1.328-1.657 3.828-1.657.703 0 1.344.157.656.156 1.219.453v2.719q-.625-.579-1.219-.844-.594-.281-1.219-.281-1.343 0-2.031 1.078-.687 1.062-.687 3.156t.687 3.172q.688 1.062 2.031 1.062.625 0 1.219-.265.594-.282 1.219-.86z"/><text x="1949" y="2250.85" fill="#D9B8FF" font-family="Helvetica" font-size="17" textLength="774">gcp_vertex_ai_model_monitoring_objective_config_explanation_config_explanation_baseline</text><path d="M1916 2264.859h814" style="stroke:#000d19;stroke-width:.5"/><text x="1926" y="2286.854" fill="#D9B8FF" font-family="sans-serif" font-size="14" font-weight="bold" textLength="70">bigquery</text><text x="1996" y="2286.854" fill="#D9B8FF" font-family="sans-serif" font-size="14" textLength="48">: string</text><text x="1926" y="2313.151" fill="#D9B8FF" font-family="sans-serif" font-size="14" font-weight="bold" textLength="28">gcs</text><text x="1954" y="2313.151" fill="#D9B8FF" font-family="sans-serif" font-size="14" textLength="48">: string</text><text x="1926" y="2339.448" fill="#D9B8FF" font-family="sans-serif" font-size="14" font-weight="bold" textLength="139">prediction_format</text><text x="2065" y="2339.448" fill="#D9B8FF" font-family="sans-serif" font-size="14" textLength="48">: string</text><rect width="745" height="126.68" x="268.5" y="1998.95" fill="#3D176E" rx="2.5" ry="2.5" style="stroke:#000d19;stroke-width:.5"/><circle cx="283.5" cy="2018.844" r="11" fill="#ADD1B2" style="stroke:#181818;stroke-width:1"/><path d="M286.469 2024.485q-.578.297-1.219.438-.64.156-1.344.156-2.5 0-3.828-1.64-1.312-1.657-1.312-4.782t1.312-4.781q1.328-1.657 3.828-1.657.703 0 1.344.157.656.156 1.219.453v2.719q-.625-.579-1.219-.844-.594-.281-1.219-.281-1.344 0-2.031 1.078-.687 1.062-.687 3.156t.687 3.172q.688 1.062 2.031 1.062.625 0 1.219-.265.594-.282 1.219-.86z"/><text x="302.5" y="2024.73" fill="#D9B8FF" font-family="Helvetica" font-size="17" textLength="703">gcp_vertex_ai_model_monitoring_objective_config_prediction_drift_detection_config</text><path d="M269.5 2038.739h743" style="stroke:#000d19;stroke-width:.5"/><text x="279.5" y="2060.734" fill="#D9B8FF" font-family="sans-serif" font-size="14" font-weight="bold" textLength="266">attribution_score_drift_thresholds</text><text x="545.5" y="2060.734" fill="#D9B8FF" font-family="sans-serif" font-size="14" textLength="347">: dictionary[string, gcp_vertex_ai_threshold_config]</text><text x="279.5" y="2087.031" fill="#D9B8FF" font-family="sans-serif" font-size="14" font-weight="bold" textLength="178">default_drift_threshold</text><text x="457.5" y="2087.031" fill="#D9B8FF" font-family="sans-serif" font-size="14" textLength="57">: double</text><text x="279.5" y="2113.328" fill="#D9B8FF" font-family="sans-serif" font-size="14" font-weight="bold" textLength="125">drift_thresholds</text><text x="404.5" y="2113.328" fill="#D9B8FF" font-family="sans-serif" font-size="14" textLength="347">: dictionary[string, gcp_vertex_ai_threshold_config]</text><rect width="609" height="205.57" x="2769.5" y="1959.5" fill="#3D176E" rx="2.5" ry="2.5" style="stroke:#000d19;stroke-width:.5"/><circle cx="2784.5" cy="1979.395" r="11" fill="#ADD1B2" style="stroke:#181818;stroke-width:1"/><path d="M2787.469 1985.035q-.578.297-1.219.438-.64.156-1.344.156-2.5 0-3.828-1.64-1.312-1.657-1.312-4.782t1.312-4.781q1.328-1.656 3.828-1.656.703 0 1.344.156.656.156 1.219.453v2.719q-.625-.578-1.219-.844-.594-.281-1.219-.281-1.343 0-2.031 1.078-.687 1.062-.687 3.156t.687 3.172q.688 1.062 2.031 1.062.625 0 1.219-.265.594-.281 1.219-.86z"/><text x="2803.5" y="1985.28" fill="#D9B8FF" font-family="Helvetica" font-size="17" textLength="567">gcp_vertex_ai_model_monitoring_objective_config_training_dataset</text><path d="M2770.5 1999.289h607" style="stroke:#000d19;stroke-width:.5"/><text x="2780.5" y="2021.284" fill="#D9B8FF" font-family="sans-serif" font-size="14" font-weight="bold" textLength="132">bigquery_source</text><text x="2912.5" y="2021.284" fill="#D9B8FF" font-family="sans-serif" font-size="14" textLength="48">: string</text><text x="2780.5" y="2047.581" fill="#D9B8FF" font-family="sans-serif" font-size="14" font-weight="bold" textLength="93">data_format</text><text x="2873.5" y="2047.581" fill="#D9B8FF" font-family="sans-serif" font-size="14" textLength="48">: string</text><text x="2780.5" y="2073.878" fill="#D9B8FF" font-family="sans-serif" font-size="14" font-weight="bold" textLength="59">dataset</text><text x="2839.5" y="2073.878" fill="#D9B8FF" font-family="sans-serif" font-size="14" textLength="48">: string</text><text x="2780.5" y="2100.175" fill="#D9B8FF" font-family="sans-serif" font-size="14" font-weight="bold" textLength="90">gcs_source</text><text x="2870.5" y="2100.175" fill="#D9B8FF" font-family="sans-serif" font-size="14" textLength="189">: gcp_vertex_ai_gcs_source</text><text x="2780.5" y="2126.472" fill="#D9B8FF" font-family="sans-serif" font-size="14" font-weight="bold" textLength="208">logging_sampling_strategy</text><text x="2988.5" y="2126.472" fill="#D9B8FF" font-family="sans-serif" font-size="14" textLength="234">: gcp_vertex_ai_sampling_strategy</text><text x="2780.5" y="2152.769" fill="#D9B8FF" font-family="sans-serif" font-size="14" font-weight="bold" textLength="89">target_field</text><text x="2869.5" y="2152.769" fill="#D9B8FF" font-family="sans-serif" font-size="14" textLength="48">: string</text><rect width="828" height="126.68" x="1048" y="1998.95" fill="#3D176E" rx="2.5" ry="2.5" style="stroke:#000d19;stroke-width:.5"/><circle cx="1063" cy="2018.844" r="11" fill="#ADD1B2" style="stroke:#181818;stroke-width:1"/><path d="M1065.969 2024.485q-.578.297-1.219.438-.64.156-1.344.156-2.5 0-3.828-1.64-1.312-1.657-1.312-4.782t1.312-4.781q1.328-1.657 3.828-1.657.703 0 1.344.157.656.156 1.219.453v2.719q-.625-.579-1.219-.844-.594-.281-1.219-.281-1.343 0-2.031 1.078-.687 1.062-.687 3.156t.687 3.172q.688 1.062 2.031 1.062.625 0 1.219-.265.594-.282 1.219-.86z"/><text x="1082" y="2024.73" fill="#D9B8FF" font-family="Helvetica" font-size="17" textLength="786">gcp_vertex_ai_model_monitoring_objective_config_training_prediction_skew_detection_config</text><path d="M1049 2038.739h826" style="stroke:#000d19;stroke-width:.5"/><text x="1059" y="2060.734" fill="#D9B8FF" font-family="sans-serif" font-size="14" font-weight="bold" textLength="275">attribution_score_skew_thresholds</text><text x="1334" y="2060.734" fill="#D9B8FF" font-family="sans-serif" font-size="14" textLength="347">: dictionary[string, gcp_vertex_ai_threshold_config]</text><text x="1059" y="2087.031" fill="#D9B8FF" font-family="sans-serif" font-size="14" font-weight="bold" textLength="187">default_skew_threshold</text><text x="1246" y="2087.031" fill="#D9B8FF" font-family="sans-serif" font-size="14" textLength="57">: double</text><text x="1059" y="2113.328" fill="#D9B8FF" font-family="sans-serif" font-size="14" font-weight="bold" textLength="134">skew_thresholds</text><text x="1193" y="2113.328" fill="#D9B8FF" font-family="sans-serif" font-size="14" textLength="347">: dictionary[string, gcp_vertex_ai_threshold_config]</text><rect width="320" height="74.086" x="3253" y="2251.37" fill="#3D176E" rx="2.5" ry="2.5" style="stroke:#000d19;stroke-width:.5"/><circle cx="3268" cy="2271.265" r="11" fill="#ADD1B2" style="stroke:#181818;stroke-width:1"/><path d="M3270.969 2276.905q-.578.297-1.219.438-.64.156-1.344.156-2.5 0-3.828-1.64-1.312-1.657-1.312-4.782t1.312-4.781q1.328-1.656 3.828-1.656.703 0 1.344.156.656.156 1.219.453v2.719q-.625-.578-1.219-.844-.594-.281-1.219-.281-1.343 0-2.031 1.078-.687 1.062-.687 3.156t.687 3.172q.688 1.062 2.031 1.062.625 0 1.219-.265.594-.281 1.219-.86z"/><text x="3287" y="2277.15" fill="#D9B8FF" font-family="Helvetica" font-size="17" textLength="278">gcp_vertex_ai_sampling_strategy</text><path d="M3254 2291.159h318" style="stroke:#000d19;stroke-width:.5"/><text x="3264" y="2313.154" fill="#D9B8FF" font-family="sans-serif" font-size="14" font-weight="bold" textLength="179">random_sample_config</text><text x="3443" y="2313.154" fill="#D9B8FF" font-family="sans-serif" font-size="14" textLength="57">: double</text><rect width="304" height="74.086" x="900" y="2251.37" fill="#3D176E" rx="2.5" ry="2.5" style="stroke:#000d19;stroke-width:.5"/><circle cx="915" cy="2271.265" r="11" fill="#ADD1B2" style="stroke:#181818;stroke-width:1"/><path d="M917.969 2276.905q-.578.297-1.219.438-.64.156-1.344.156-2.5 0-3.828-1.64-1.312-1.657-1.312-4.782t1.312-4.781q1.328-1.656 3.828-1.656.703 0 1.344.156.656.156 1.219.453v2.719q-.625-.578-1.219-.844-.594-.281-1.219-.281-1.343 0-2.031 1.078-.687 1.062-.687 3.156t.687 3.172q.688 1.062 2.031 1.062.625 0 1.219-.265.594-.281 1.219-.86z"/><text x="934" y="2277.15" fill="#D9B8FF" font-family="Helvetica" font-size="17" textLength="262">gcp_vertex_ai_threshold_config</text><path d="M901 2291.159h302" style="stroke:#000d19;stroke-width:.5"/><text x="911" y="2313.154" fill="#D9B8FF" font-family="sans-serif" font-size="14" font-weight="bold" textLength="42">value</text><text x="953" y="2313.154" fill="#D9B8FF" font-family="sans-serif" font-size="14" textLength="57">: double</text><rect width="227" height="310.758" x="2570.5" y="7" fill="#3D176E" rx="2.5" ry="2.5" style="stroke:#000d19;stroke-width:.5"/><circle cx="2639.25" cy="26.895" r="11" fill="#ADD1B2" style="stroke:#181818;stroke-width:1"/><path d="M2642.219 32.535q-.578.297-1.219.438-.64.156-1.344.156-2.5 0-3.828-1.64-1.312-1.657-1.312-4.782t1.312-4.781q1.328-1.656 3.828-1.656.703 0 1.344.156.656.156 1.219.453v2.719q-.625-.578-1.219-.844-.594-.281-1.219-.281-1.343 0-2.031 1.078-.687 1.062-.687 3.156t.687 3.172q.688 1.062 2.031 1.062.625 0 1.219-.265.594-.281 1.219-.86z"/><text x="2664.75" y="32.78" fill="#D9B8FF" font-family="Helvetica" font-size="17" textLength="71">resource</text><path d="M2571.5 46.789h225" style="stroke:#000d19;stroke-width:.5"/><text x="2581.5" y="68.784" fill="#D9B8FF" font-family="sans-serif" font-size="14" font-weight="bold" textLength="29">age</text><text x="2610.5" y="68.784" fill="#D9B8FF" font-family="sans-serif" font-size="14" textLength="66">: duration</text><text x="2581.5" y="95.081" fill="#D9B8FF" font-family="sans-serif" font-size="14" font-weight="bold" textLength="43">atime</text><text x="2624.5" y="95.081" fill="#D9B8FF" font-family="sans-serif" font-size="14" textLength="70">: datetime</text><text x="2581.5" y="121.378" fill="#D9B8FF" font-family="sans-serif" font-size="14" font-weight="bold" textLength="43">ctime</text><text x="2624.5" y="121.378" fill="#D9B8FF" font-family="sans-serif" font-size="14" textLength="70">: datetime</text><text x="2581.5" y="147.675" fill="#D9B8FF" font-family="sans-serif" font-size="14" font-weight="bold" textLength="14">id</text><text x="2595.5" y="147.675" fill="#D9B8FF" font-family="sans-serif" font-size="14" textLength="48">: string</text><text x="2581.5" y="173.972" fill="#D9B8FF" font-family="sans-serif" font-size="14" font-weight="bold" textLength="33">kind</text><text x="2614.5" y="173.972" fill="#D9B8FF" font-family="sans-serif" font-size="14" textLength="48">: string</text><text x="2581.5" y="200.269" fill="#D9B8FF" font-family="sans-serif" font-size="14" font-weight="bold" textLength="90">last_access</text><text x="2671.5" y="200.269" fill="#D9B8FF" font-family="sans-serif" font-size="14" textLength="66">: duration</text><text x="2581.5" y="226.565" fill="#D9B8FF" font-family="sans-serif" font-size="14" font-weight="bold" textLength="90">last_update</text><text x="2671.5" y="226.565" fill="#D9B8FF" font-family="sans-serif" font-size="14" textLength="66">: duration</text><text x="2581.5" y="252.862" fill="#D9B8FF" font-family="sans-serif" font-size="14" font-weight="bold" textLength="48">mtime</text><text x="2629.5" y="252.862" fill="#D9B8FF" font-family="sans-serif" font-size="14" textLength="70">: datetime</text><text x="2581.5" y="279.159" fill="#D9B8FF" font-family="sans-serif" font-size="14" font-weight="bold" textLength="43">name</text><text x="2624.5" y="279.159" fill="#D9B8FF" font-family="sans-serif" font-size="14" textLength="48">: string</text><text x="2581.5" y="305.456" fill="#D9B8FF" font-family="sans-serif" font-size="14" font-weight="bold" textLength="34">tags</text><text x="2615.5" y="305.456" fill="#D9B8FF" font-family="sans-serif" font-size="14" textLength="171">: dictionary[string, string]</text><path fill="none" d="M2574.402 493.54c-24.95 35.82-68.842 98.85-100.992 145.01m111.28-159.78-15.211 11.34 9.846 6.86zm49.122-143.652c-14.11 48.29-22.872 78.252-30.262 103.552m35.31-120.83-10.808 15.595 11.519 3.365zM121 1886.66v149.4" style="stroke:#ffaf37;stroke-width:2"/><path fill="#FFAF37" d="m121 2042.06 4-9-4 4-4-4z" style="stroke:#ffaf37;stroke-width:2"/><path fill="none" d="M2838.88 753.01c152.89 168.66 515.97 569.155 679.34 749.355" style="stroke:#ffaf37;stroke-width:2"/><path fill="#FFAF37" d="m3522.25 1506.81-3.081-9.354-.277 5.65-5.65-.277z" style="stroke:#ffaf37;stroke-width:2"/><g fill="none"><path d="M2712.964 335.681c15.65 93.11 31.906 189.819 44.306 263.649" style="stroke:#ffaf37;stroke-width:2"/><path d="m2709.98 317.93-2.933 18.745 11.834-1.988z" style="stroke:#ffaf37;stroke-width:2"/></g><path fill="none" d="M2448 731.29V873.1m0-159.81-6 18h12zm458.44 615.11c113.52 40.08 235.13 81.94 348.56 118.85 89.06 28.98 116.38 22.05 202 60 8.95 3.96 12.685 5.614 21.695 10.294" style="stroke:#ffaf37;stroke-width:2"/><path fill="#FFAF37" d="m3484.02 1520.31-6.143-7.698 1.706 5.393-5.394 1.706z" style="stroke:#ffaf37;stroke-width:2"/><path fill="none" d="M1989.64 1197.33c-645.52 55.33-1757.73 169.8-1878.64 309.92-59.65 69.13-39.076 176.304-16.266 246.444" style="stroke:#ffaf37;stroke-width:2"/><path fill="#FFAF37" d="m96.59 1759.4 1.02-9.796-2.566 5.041-5.041-2.567z" style="stroke:#ffaf37;stroke-width:2"/><path fill="none" d="M2709.337 767.902c-22.58 33.83-40.747 61.038-70.307 105.328m80.3-120.3-14.983 11.64 9.98 6.662zm-729.76 488.76c-350.31 64.09-844.2 160.32-1272.57 265.56-16.23 3.99-27.103 6.731-43.873 11.211" style="stroke:#ffaf37;stroke-width:2"/><path fill="#FFAF37" d="m667.33 1520.01 9.727 1.542-4.896-2.832 2.832-4.897z" style="stroke:#ffaf37;stroke-width:2"/><path fill="none" d="M1989.57 1312.29c-248.28 81.72-532.97 175.434-705.26 232.144" style="stroke:#ffaf37;stroke-width:2"/><path fill="#FFAF37" d="m1278.61 1546.31 9.8.986-5.05-2.55 2.548-5.05z" style="stroke:#ffaf37;stroke-width:2"/><path fill="none" d="m2048.86 1447.57-132.984 95.344" style="stroke:#ffaf37;stroke-width:2"/><path fill="#FFAF37" d="m1911 1546.41 9.645-1.993-5.582-.92.92-5.582z" style="stroke:#ffaf37;stroke-width:2"/><path fill="none" d="M2448 1447.57v92.84" style="stroke:#ffaf37;stroke-width:2"/><path fill="#FFAF37" d="m2448 1546.41 4-9-4 4-4-4z" style="stroke:#ffaf37;stroke-width:2"/><path fill="none" d="M2859.66 1447.57c45.71 31.78 83.334 57.935 118.224 82.195" style="stroke:#ffaf37;stroke-width:2"/><path fill="#FFAF37" d="m2982.81 1533.19-5.106-8.422 1 5.568-5.567 1z" style="stroke:#ffaf37;stroke-width:2"/><path fill="none" d="M2906.4 1434.3a933 933 0 0 0 35.6 12.95c96.13 32.73 385.2-15.6 453 60 99.28 110.69 42.332 599.173 23.852 737.903" style="stroke:#ffaf37;stroke-width:2"/><path fill="#FFAF37" d="m3418.06 2251.1 5.153-8.393-4.493 3.437-3.437-4.493z" style="stroke:#ffaf37;stroke-width:2"/><path fill="none" d="M904.83 1647.56c-207.13 46.1-501.303 111.566-663.513 147.676" style="stroke:#ffaf37;stroke-width:2"/><path fill="#FFAF37" d="m235.46 1796.54 9.654 1.949-4.774-3.035 3.036-4.774z" style="stroke:#ffaf37;stroke-width:2"/><path fill="none" d="M1842 1647.35v92.89" style="stroke:#ffaf37;stroke-width:2"/><path fill="#FFAF37" d="m1842 1746.24 4-9-4 4-4-4z" style="stroke:#ffaf37;stroke-width:2"/><path fill="none" d="M3073 1660.62v118.92" style="stroke:#ffaf37;stroke-width:2"/><path fill="#FFAF37" d="m3073 1785.54 4-9-4 4-4-4z" style="stroke:#ffaf37;stroke-width:2"/><path fill="none" d="M1995.84 1899.9c74.22 36.61 155.759 76.836 221.349 109.186" style="stroke:#ffaf37;stroke-width:2"/><path fill="#FFAF37" d="m2222.57 2011.74-6.302-7.568 1.818 5.356-5.357 1.818z" style="stroke:#ffaf37;stroke-width:2"/><path fill="none" d="M1342.79 1899.99c-103.72 17.83-212.07 37.98-312.79 59.51-53.08 11.35-103.981 23.687-157.241 37.467" style="stroke:#ffaf37;stroke-width:2"/><path fill="#FFAF37" d="m866.95 1998.47 9.715 1.618-4.874-2.87 2.87-4.875z" style="stroke:#ffaf37;stroke-width:2"/><path fill="none" d="M2345.33 1884.42c133.03 19.92 275.94 44.89 406.67 75.08 5.71 1.32 5.643 1.26 11.433 2.68" style="stroke:#ffaf37;stroke-width:2"/><path fill="#FFAF37" d="m2769.26 1963.61-7.788-6.029 2.932 4.838-4.838 2.932z" style="stroke:#ffaf37;stroke-width:2"/><path fill="none" d="M1720.46 1899.9c-50.92 31.8-104.33 65.142-152.77 95.392" style="stroke:#ffaf37;stroke-width:2"/><path fill="#FFAF37" d="m1562.6 1998.47 9.753-1.374-5.512-1.274 1.274-5.512z" style="stroke:#ffaf37;stroke-width:2"/><path fill="none" d="M2323 2112.75v106.08" style="stroke:#ffaf37;stroke-width:2"/><path fill="#FFAF37" d="m2323 2224.83 4-9-4 4-4-4z" style="stroke:#ffaf37;stroke-width:2"/><path fill="none" d="M756.03 2126.01c73.86 40.28 161.922 88.308 223.822 122.058" style="stroke:#ffaf37;stroke-width:2"/><path fill="#FFAF37" d="m985.12 2250.94-5.987-7.82 1.597 5.427-5.427 1.597z" style="stroke:#ffaf37;stroke-width:2"/><path fill="none" d="M3074 2165.51v79.52" style="stroke:#ffaf37;stroke-width:2"/><path fill="#FFAF37" d="m3074 2251.03 4-9-4 4-4-4z" style="stroke:#ffaf37;stroke-width:2"/><path fill="none" d="M3228.62 2165.51c46.28 30.59 89.035 58.861 124.355 82.211" style="stroke:#ffaf37;stroke-width:2"/><path fill="#FFAF37" d="m3357.98 2251.03-5.302-8.3 1.131 5.543-5.543 1.13z" style="stroke:#ffaf37;stroke-width:2"/><path fill="none" d="M1347.25 2126.01c-73.68 40.28-161.515 88.302-223.265 122.052" style="stroke:#ffaf37;stroke-width:2"/><path fill="#FFAF37" d="m1118.72 2250.94 9.816-.806-5.429-1.592 1.592-5.428z" style="stroke:#ffaf37;stroke-width:2"/></svg>