<?xml version="1.0" encoding="us-ascii" standalone="no"?><svg xmlns="http://www.w3.org/2000/svg" xmlns:xlink="http://www.w3.org/1999/xlink" contentStyleType="text/css" height="1111px" preserveAspectRatio="none" style="width:687px;height:1111px;" version="1.1" viewBox="0 0 687 1111" width="687px" zoomAndPan="magnify"><defs/><g><!--class azure_machine_learning_featurestore_entity_container--><g id="elem_azure_machine_learning_featurestore_entity_container"><rect codeLine="23" fill="#3D176E" height="179.2734" id="azure_machine_learning_featurestore_entity_container" rx="2.5" ry="2.5" style="stroke:#000D19;stroke-width:0.5;" width="506" x="174" y="660.14"/><ellipse cx="189" cy="680.0345" fill="#ADD1B2" rx="11" ry="11" style="stroke:#181818;stroke-width:1.0;"/><path d="M191.9688,685.6752 Q191.3906,685.972 190.75,686.1127 Q190.1094,686.2689 189.4063,686.2689 Q186.9063,686.2689 185.5781,684.6283 Q184.2656,682.972 184.2656,679.847 Q184.2656,676.722 185.5781,675.0658 Q186.9063,673.4095 189.4063,673.4095 Q190.1094,673.4095 190.75,673.5658 Q191.4063,673.722 191.9688,674.0189 L191.9688,676.7377 Q191.3438,676.1595 190.75,675.8939 Q190.1563,675.6127 189.5313,675.6127 Q188.1875,675.6127 187.5,676.6908 Q186.8125,677.7533 186.8125,679.847 Q186.8125,681.9408 187.5,683.0189 Q188.1875,684.0814 189.5313,684.0814 Q190.1563,684.0814 190.75,683.8158 Q191.3438,683.5345 191.9688,682.9564 L191.9688,685.6752 Z " fill="#000000"/><text fill="#D9B8FF" font-family="Helvetica" font-size="17" lengthAdjust="spacing" textLength="464" x="208" y="685.9198">azure_machine_learning_featurestore_entity_container</text><line style="stroke:#000D19;stroke-width:0.5;" x1="175" x2="679" y1="699.9291" y2="699.9291"/><text fill="#D9B8FF" font-family="sans-serif" font-size="14" font-weight="bold" lengthAdjust="spacing" textLength="89" x="185" y="721.9242">description</text><text fill="#D9B8FF" font-family="sans-serif" font-size="14" lengthAdjust="spacing" textLength="48" x="274" y="721.9242">: string</text><text fill="#D9B8FF" font-family="sans-serif" font-size="14" font-weight="bold" lengthAdjust="spacing" textLength="88" x="185" y="748.2211">is_archived</text><text fill="#D9B8FF" font-family="sans-serif" font-size="14" lengthAdjust="spacing" textLength="65" x="273" y="748.2211">: boolean</text><text fill="#D9B8FF" font-family="sans-serif" font-size="14" font-weight="bold" lengthAdjust="spacing" textLength="110" x="185" y="774.5179">latest_version</text><text fill="#D9B8FF" font-family="sans-serif" font-size="14" lengthAdjust="spacing" textLength="48" x="295" y="774.5179">: string</text><text fill="#D9B8FF" font-family="sans-serif" font-size="14" font-weight="bold" lengthAdjust="spacing" textLength="101" x="185" y="800.8148">next_version</text><text fill="#D9B8FF" font-family="sans-serif" font-size="14" lengthAdjust="spacing" textLength="48" x="286" y="800.8148">: string</text><text fill="#D9B8FF" font-family="sans-serif" font-size="14" font-weight="bold" lengthAdjust="spacing" textLength="83" x="185" y="827.1117">properties</text><text fill="#D9B8FF" font-family="sans-serif" font-size="14" lengthAdjust="spacing" textLength="156" x="268" y="827.1117">: dictionary[string, any]</text></g><!--class azure_proxy_resource--><g id="elem_azure_proxy_resource"><rect codeLine="30" fill="#3D176E" height="100.3828" id="azure_proxy_resource" rx="2.5" ry="2.5" style="stroke:#000D19;stroke-width:0.5;" width="262" x="7" y="438.75"/><ellipse cx="39.1" cy="458.6445" fill="#ADD1B2" rx="11" ry="11" style="stroke:#181818;stroke-width:1.0;"/><path d="M42.0688,464.2852 Q41.4906,464.582 40.85,464.7227 Q40.2094,464.8789 39.5063,464.8789 Q37.0063,464.8789 35.6781,463.2383 Q34.3656,461.582 34.3656,458.457 Q34.3656,455.332 35.6781,453.6758 Q37.0063,452.0195 39.5063,452.0195 Q40.2094,452.0195 40.85,452.1758 Q41.5063,452.332 42.0688,452.6289 L42.0688,455.3477 Q41.4438,454.7695 40.85,454.5039 Q40.2563,454.2227 39.6313,454.2227 Q38.2875,454.2227 37.6,455.3008 Q36.9125,456.3633 36.9125,458.457 Q36.9125,460.5508 37.6,461.6289 Q38.2875,462.6914 39.6313,462.6914 Q40.2563,462.6914 40.85,462.4258 Q41.4438,462.1445 42.0688,461.5664 L42.0688,464.2852 Z " fill="#000000"/><text fill="#D9B8FF" font-family="Helvetica" font-size="17" lengthAdjust="spacing" textLength="182" x="61.9" y="464.5298">azure_proxy_resource</text><line style="stroke:#000D19;stroke-width:0.5;" x1="8" x2="268" y1="478.5391" y2="478.5391"/><text fill="#D9B8FF" font-family="sans-serif" font-size="14" font-weight="bold" lengthAdjust="spacing" textLength="98" x="18" y="500.5342">system_data</text><text fill="#D9B8FF" font-family="sans-serif" font-size="14" lengthAdjust="spacing" textLength="142" x="116" y="500.5342">: azure_system_data</text><text fill="#D9B8FF" font-family="sans-serif" font-size="14" font-weight="bold" lengthAdjust="spacing" textLength="35" x="18" y="526.8311">type</text><text fill="#D9B8FF" font-family="sans-serif" font-size="14" lengthAdjust="spacing" textLength="48" x="53" y="526.8311">: string</text></g><!--class azure_system_data--><g id="elem_azure_system_data"><rect codeLine="34" fill="#3D176E" height="205.5703" id="azure_system_data" rx="2.5" ry="2.5" style="stroke:#000D19;stroke-width:0.5;" width="241" x="153.5" y="899.41"/><ellipse cx="185.6" cy="919.3045" fill="#ADD1B2" rx="11" ry="11" style="stroke:#181818;stroke-width:1.0;"/><path d="M188.5688,924.9452 Q187.9906,925.242 187.35,925.3827 Q186.7094,925.5389 186.0063,925.5389 Q183.5063,925.5389 182.1781,923.8983 Q180.8656,922.242 180.8656,919.117 Q180.8656,915.992 182.1781,914.3358 Q183.5063,912.6795 186.0063,912.6795 Q186.7094,912.6795 187.35,912.8358 Q188.0063,912.992 188.5688,913.2889 L188.5688,916.0077 Q187.9438,915.4295 187.35,915.1639 Q186.7563,914.8827 186.1313,914.8827 Q184.7875,914.8827 184.1,915.9608 Q183.4125,917.0233 183.4125,919.117 Q183.4125,921.2108 184.1,922.2889 Q184.7875,923.3514 186.1313,923.3514 Q186.7563,923.3514 187.35,923.0858 Q187.9438,922.8045 188.5688,922.2264 L188.5688,924.9452 Z " fill="#000000"/><text fill="#D9B8FF" font-family="Helvetica" font-size="17" lengthAdjust="spacing" textLength="161" x="208.4" y="925.1898">azure_system_data</text><line style="stroke:#000D19;stroke-width:0.5;" x1="154.5" x2="393.5" y1="939.1991" y2="939.1991"/><text fill="#D9B8FF" font-family="sans-serif" font-size="14" font-weight="bold" lengthAdjust="spacing" textLength="83" x="164.5" y="961.1942">created_at</text><text fill="#D9B8FF" font-family="sans-serif" font-size="14" lengthAdjust="spacing" textLength="70" x="247.5" y="961.1942">: datetime</text><text fill="#D9B8FF" font-family="sans-serif" font-size="14" font-weight="bold" lengthAdjust="spacing" textLength="87" x="164.5" y="987.4911">created_by</text><text fill="#D9B8FF" font-family="sans-serif" font-size="14" lengthAdjust="spacing" textLength="48" x="251.5" y="987.4911">: string</text><text fill="#D9B8FF" font-family="sans-serif" font-size="14" font-weight="bold" lengthAdjust="spacing" textLength="129" x="164.5" y="1013.7879">created_by_type</text><text fill="#D9B8FF" font-family="sans-serif" font-size="14" lengthAdjust="spacing" textLength="48" x="293.5" y="1013.7879">: string</text><text fill="#D9B8FF" font-family="sans-serif" font-size="14" font-weight="bold" lengthAdjust="spacing" textLength="125" x="164.5" y="1040.0848">last_modified_at</text><text fill="#D9B8FF" font-family="sans-serif" font-size="14" lengthAdjust="spacing" textLength="70" x="289.5" y="1040.0848">: datetime</text><text fill="#D9B8FF" font-family="sans-serif" font-size="14" font-weight="bold" lengthAdjust="spacing" textLength="129" x="164.5" y="1066.3817">last_modified_by</text><text fill="#D9B8FF" font-family="sans-serif" font-size="14" lengthAdjust="spacing" textLength="48" x="293.5" y="1066.3817">: string</text><text fill="#D9B8FF" font-family="sans-serif" font-size="14" font-weight="bold" lengthAdjust="spacing" textLength="171" x="164.5" y="1092.6786">last_modified_by_type</text><text fill="#D9B8FF" font-family="sans-serif" font-size="14" lengthAdjust="spacing" textLength="48" x="335.5" y="1092.6786">: string</text></g><!--class microsoft_resource--><g id="elem_microsoft_resource"><rect codeLine="42" fill="#3D176E" height="100.3828" id="microsoft_resource" rx="2.5" ry="2.5" style="stroke:#000D19;stroke-width:0.5;" width="214" x="320" y="438.75"/><ellipse cx="341.3" cy="458.6445" fill="#ADD1B2" rx="11" ry="11" style="stroke:#181818;stroke-width:1.0;"/><path d="M344.2688,464.2852 Q343.6906,464.582 343.05,464.7227 Q342.4094,464.8789 341.7063,464.8789 Q339.2063,464.8789 337.8781,463.2383 Q336.5656,461.582 336.5656,458.457 Q336.5656,455.332 337.8781,453.6758 Q339.2063,452.0195 341.7063,452.0195 Q342.4094,452.0195 343.05,452.1758 Q343.7063,452.332 344.2688,452.6289 L344.2688,455.3477 Q343.6438,454.7695 343.05,454.5039 Q342.4563,454.2227 341.8313,454.2227 Q340.4875,454.2227 339.8,455.3008 Q339.1125,456.3633 339.1125,458.457 Q339.1125,460.5508 339.8,461.6289 Q340.4875,462.6914 341.8313,462.6914 Q342.4563,462.6914 343.05,462.4258 Q343.6438,462.1445 344.2688,461.5664 L344.2688,464.2852 Z " fill="#000000"/><text fill="#D9B8FF" font-family="Helvetica" font-size="17" lengthAdjust="spacing" textLength="158" x="361.7" y="464.5298">microsoft_resource</text><line style="stroke:#000D19;stroke-width:0.5;" x1="321" x2="533" y1="478.5391" y2="478.5391"/><text fill="#D9B8FF" font-family="sans-serif" font-size="14" font-weight="bold" lengthAdjust="spacing" textLength="35" x="331" y="500.5342">etag</text><text fill="#D9B8FF" font-family="sans-serif" font-size="14" lengthAdjust="spacing" textLength="48" x="366" y="500.5342">: string</text><text fill="#D9B8FF" font-family="sans-serif" font-size="14" font-weight="bold" lengthAdjust="spacing" textLength="144" x="331" y="526.8311">provisioning_state</text><text fill="#D9B8FF" font-family="sans-serif" font-size="14" lengthAdjust="spacing" textLength="48" x="475" y="526.8311">: string</text></g><!--class resource--><g id="elem_resource"><rect codeLine="46" fill="#3D176E" height="310.7578" id="resource" rx="2.5" ry="2.5" style="stroke:#000D19;stroke-width:0.5;" width="227" x="313.5" y="7"/><ellipse cx="382.25" cy="26.8945" fill="#ADD1B2" rx="11" ry="11" style="stroke:#181818;stroke-width:1.0;"/><path d="M385.2188,32.5352 Q384.6406,32.832 384,32.9727 Q383.3594,33.1289 382.6563,33.1289 Q380.1563,33.1289 378.8281,31.4883 Q377.5156,29.832 377.5156,26.707 Q377.5156,23.582 378.8281,21.9258 Q380.1563,20.2695 382.6563,20.2695 Q383.3594,20.2695 384,20.4258 Q384.6563,20.582 385.2188,20.8789 L385.2188,23.5977 Q384.5938,23.0195 384,22.7539 Q383.4063,22.4727 382.7813,22.4727 Q381.4375,22.4727 380.75,23.5508 Q380.0625,24.6133 380.0625,26.707 Q380.0625,28.8008 380.75,29.8789 Q381.4375,30.9414 382.7813,30.9414 Q383.4063,30.9414 384,30.6758 Q384.5938,30.3945 385.2188,29.8164 L385.2188,32.5352 Z " fill="#000000"/><text fill="#D9B8FF" font-family="Helvetica" font-size="17" lengthAdjust="spacing" textLength="71" x="407.75" y="32.7798">resource</text><line style="stroke:#000D19;stroke-width:0.5;" x1="314.5" x2="539.5" y1="46.7891" y2="46.7891"/><text fill="#D9B8FF" font-family="sans-serif" font-size="14" font-weight="bold" lengthAdjust="spacing" textLength="29" x="324.5" y="68.7842">age</text><text fill="#D9B8FF" font-family="sans-serif" font-size="14" lengthAdjust="spacing" textLength="66" x="353.5" y="68.7842">: duration</text><text fill="#D9B8FF" font-family="sans-serif" font-size="14" font-weight="bold" lengthAdjust="spacing" textLength="43" x="324.5" y="95.0811">atime</text><text fill="#D9B8FF" font-family="sans-serif" font-size="14" lengthAdjust="spacing" textLength="70" x="367.5" y="95.0811">: datetime</text><text fill="#D9B8FF" font-family="sans-serif" font-size="14" font-weight="bold" lengthAdjust="spacing" textLength="43" x="324.5" y="121.3779">ctime</text><text fill="#D9B8FF" font-family="sans-serif" font-size="14" lengthAdjust="spacing" textLength="70" x="367.5" y="121.3779">: datetime</text><text fill="#D9B8FF" font-family="sans-serif" font-size="14" font-weight="bold" lengthAdjust="spacing" textLength="14" x="324.5" y="147.6748">id</text><text fill="#D9B8FF" font-family="sans-serif" font-size="14" lengthAdjust="spacing" textLength="48" x="338.5" y="147.6748">: string</text><text fill="#D9B8FF" font-family="sans-serif" font-size="14" font-weight="bold" lengthAdjust="spacing" textLength="33" x="324.5" y="173.9717">kind</text><text fill="#D9B8FF" font-family="sans-serif" font-size="14" lengthAdjust="spacing" textLength="48" x="357.5" y="173.9717">: string</text><text fill="#D9B8FF" font-family="sans-serif" font-size="14" font-weight="bold" lengthAdjust="spacing" textLength="90" x="324.5" y="200.2686">last_access</text><text fill="#D9B8FF" font-family="sans-serif" font-size="14" lengthAdjust="spacing" textLength="66" x="414.5" y="200.2686">: duration</text><text fill="#D9B8FF" font-family="sans-serif" font-size="14" font-weight="bold" lengthAdjust="spacing" textLength="90" x="324.5" y="226.5654">last_update</text><text fill="#D9B8FF" font-family="sans-serif" font-size="14" lengthAdjust="spacing" textLength="66" x="414.5" y="226.5654">: duration</text><text fill="#D9B8FF" font-family="sans-serif" font-size="14" font-weight="bold" lengthAdjust="spacing" textLength="48" x="324.5" y="252.8623">mtime</text><text fill="#D9B8FF" font-family="sans-serif" font-size="14" lengthAdjust="spacing" textLength="70" x="372.5" y="252.8623">: datetime</text><text fill="#D9B8FF" font-family="sans-serif" font-size="14" font-weight="bold" lengthAdjust="spacing" textLength="43" x="324.5" y="279.1592">name</text><text fill="#D9B8FF" font-family="sans-serif" font-size="14" lengthAdjust="spacing" textLength="48" x="367.5" y="279.1592">: string</text><text fill="#D9B8FF" font-family="sans-serif" font-size="14" font-weight="bold" lengthAdjust="spacing" textLength="34" x="324.5" y="305.4561">tags</text><text fill="#D9B8FF" font-family="sans-serif" font-size="14" lengthAdjust="spacing" textLength="171" x="358.5" y="305.4561">: dictionary[string, string]</text></g><!--reverse link azure_proxy_resource to azure_machine_learning_featurestore_entity_container--><g id="link_azure_proxy_resource_azure_machine_learning_featurestore_entity_container"><path codeLine="58" d="M206.7884,551.5489 C244.7284,585.5289 282.71,619.55 327.64,659.78 " fill="none" id="azure_proxy_resource-backto-azure_machine_learning_featurestore_entity_container" style="stroke:#FFAF37;stroke-width:2.0;"/><polygon fill="none" points="193.38,539.54,202.7855,556.0184,210.7914,547.0794,193.38,539.54" style="stroke:#FFAF37;stroke-width:2.0;"/></g><!--link azure_machine_learning_featurestore_entity_container to azure_system_data--><g id="link_azure_machine_learning_featurestore_entity_container_azure_system_data"><path codeLine="59" d="M372.63,839.77 C360.86,859.03 351.4596,874.4209 339.4096,894.1309 " fill="none" id="azure_machine_learning_featurestore_entity_container-to-azure_system_data" style="stroke:#FFAF37;stroke-width:2.0;"/><polygon fill="#FFAF37" points="336.28,899.25,344.3872,893.6578,338.888,894.9841,337.5617,889.4849,336.28,899.25" style="stroke:#FFAF37;stroke-width:2.0;"/></g><!--reverse link microsoft_resource to azure_machine_learning_featurestore_entity_container--><g id="link_microsoft_resource_azure_machine_learning_featurestore_entity_container"><path codeLine="60" d="M427,557.54 C427,591.52 427,619.55 427,659.78 " fill="none" id="microsoft_resource-backto-azure_machine_learning_featurestore_entity_container" style="stroke:#FFAF37;stroke-width:2.0;"/><polygon fill="none" points="427,539.54,421,557.54,433,557.54,427,539.54" style="stroke:#FFAF37;stroke-width:2.0;"/></g><!--link azure_proxy_resource to azure_system_data--><g id="link_azure_proxy_resource_azure_system_data"><path codeLine="61" d="M131.9,539.41 C125.26,608.71 119.91,737.64 156,839.41 C163.32,860.05 170.9162,875.2954 183.1362,894.1454 " fill="none" id="azure_proxy_resource-to-azure_system_data" style="stroke:#FFAF37;stroke-width:2.0;"/><polygon fill="#FFAF37" points="186.4,899.18,184.8607,889.4522,183.6801,894.9845,178.1478,893.8039,186.4,899.18" style="stroke:#FFAF37;stroke-width:2.0;"/></g><!--reverse link resource to microsoft_resource--><g id="link_resource_microsoft_resource"><path codeLine="62" d="M427,336.06 C427,379.65 427,405.98 427,438.42 " fill="none" id="resource-backto-microsoft_resource" style="stroke:#FFAF37;stroke-width:2.0;"/><polygon fill="none" points="427,318.06,421,336.06,433,336.06,427,318.06" style="stroke:#FFAF37;stroke-width:2.0;"/></g><!--SRC=[fLJ1RXCn4BtlLwpKMqIaX0hI8eHK8Y6uL8XoGyYQsBE9bRMz6dlJRe5_PxmfuFLkMgcSifht_DwRyJWxhR14quIkD6WsIBxmUsqR833b5P6xNRlQKNbMLL2ThtBmWxFXIS8r62m_Odt0e2NaZAyxBVSMlIzV9j1xaFijkTQgetmWi9uXj25XhMlm_Ye4qfisO196NMukgYfdvg9dvsgvUeqZcYE5z41PB1PgUPbJdhHwjE-_Z1jzZ-Ko7Tgr2pYAERBeMO-cZ8mavAZHF_Z9Z9z1AMstvQkazkMOYIpIe7wp0-Lk8xk2sgSsFY2X2rs3wr5NU7cXgjKa-TCfSY7Zw4guRmc50RdJ5aMDG9RTHOKG6F31CSgReaCd93S9EYR-KSnc2hqatGJjx6psXXs9pt5TUm74QWTKiRvnZaKj0pK4rXC7VXZv6Ojtqq13ha4A6dqiAosZ7L3txSXuKOBjlXU_1htmcRjES7RNaiG-g-zu84Oe211rZhoao9GugyHwA9bGUpr9F1vK0a8VYx-3DfW0csxGnh-oo7pYM7WenYbTwId58Ppfvg0uqONHafntLHYE1GDiyt4VTBo4k08-S8e9iO44R7kAQWdYrSHA39wFPQAcrS2QLrUDUmCf-UyiS-YHjb4FyHB4JFXOCCE1SzEdjkdu6nTgSfNU_fpFvyzwCSMpdjby_cvYLoSkyx-3POrE6sTsunp5Rm00]--></g></svg>