<?xml version="1.0" encoding="us-ascii" standalone="no"?><svg xmlns="http://www.w3.org/2000/svg" xmlns:xlink="http://www.w3.org/1999/xlink" contentStyleType="text/css" height="851px" preserveAspectRatio="none" style="width:3445px;height:851px;" version="1.1" viewBox="0 0 3445 851" width="3445px" zoomAndPan="magnify"><defs/><g><!--class aws_alb--><g id="elem_aws_alb"><rect codeLine="23" fill="#3D176E" height="39.7891" id="aws_alb" rx="2.5" ry="2.5" style="stroke:#000D19;stroke-width:0.5;" width="109" x="377.5" y="505.94"/><ellipse cx="392.5" cy="525.8345" fill="#ADD1B2" rx="11" ry="11" style="stroke:#181818;stroke-width:1.0;"/><path d="M395.4688,531.4752 Q394.8906,531.772 394.25,531.9127 Q393.6094,532.0689 392.9063,532.0689 Q390.4063,532.0689 389.0781,530.4283 Q387.7656,528.772 387.7656,525.647 Q387.7656,522.522 389.0781,520.8658 Q390.4063,519.2095 392.9063,519.2095 Q393.6094,519.2095 394.25,519.3658 Q394.9063,519.522 395.4688,519.8189 L395.4688,522.5377 Q394.8438,521.9595 394.25,521.6939 Q393.6563,521.4127 393.0313,521.4127 Q391.6875,521.4127 391,522.4908 Q390.3125,523.5533 390.3125,525.647 Q390.3125,527.7408 391,528.8189 Q391.6875,529.8814 393.0313,529.8814 Q393.6563,529.8814 394.25,529.6158 Q394.8438,529.3345 395.4688,528.7564 L395.4688,531.4752 Z " fill="#000000"/><text fill="#D9B8FF" font-family="Helvetica" font-size="17" lengthAdjust="spacing" textLength="67" x="411.5" y="531.7198">aws_alb</text></g><!--class aws_alb_target_group--><g id="elem_aws_alb_target_group"><rect codeLine="26" fill="#3D176E" height="39.7891" id="aws_alb_target_group" rx="2.5" ry="2.5" style="stroke:#000D19;stroke-width:0.5;" width="226" x="373" y="605.73"/><ellipse cx="388" cy="625.6245" fill="#ADD1B2" rx="11" ry="11" style="stroke:#181818;stroke-width:1.0;"/><path d="M390.9688,631.2652 Q390.3906,631.562 389.75,631.7027 Q389.1094,631.8589 388.4063,631.8589 Q385.9063,631.8589 384.5781,630.2183 Q383.2656,628.562 383.2656,625.437 Q383.2656,622.312 384.5781,620.6558 Q385.9063,618.9995 388.4063,618.9995 Q389.1094,618.9995 389.75,619.1558 Q390.4063,619.312 390.9688,619.6089 L390.9688,622.3277 Q390.3438,621.7495 389.75,621.4839 Q389.1563,621.2027 388.5313,621.2027 Q387.1875,621.2027 386.5,622.2808 Q385.8125,623.3433 385.8125,625.437 Q385.8125,627.5308 386.5,628.6089 Q387.1875,629.6714 388.5313,629.6714 Q389.1563,629.6714 389.75,629.4058 Q390.3438,629.1245 390.9688,628.5464 L390.9688,631.2652 Z " fill="#000000"/><text fill="#D9B8FF" font-family="Helvetica" font-size="17" lengthAdjust="spacing" textLength="184" x="407" y="631.5098">aws_alb_target_group</text></g><!--class aws_ec2_flow_log--><g id="elem_aws_ec2_flow_log"><rect codeLine="29" fill="#3D176E" height="39.7891" id="aws_ec2_flow_log" rx="2.5" ry="2.5" style="stroke:#000D19;stroke-width:0.5;" width="192" x="698" y="306.37"/><ellipse cx="713" cy="326.2645" fill="#ADD1B2" rx="11" ry="11" style="stroke:#181818;stroke-width:1.0;"/><path d="M715.9688,331.9052 Q715.3906,332.202 714.75,332.3427 Q714.1094,332.4989 713.4063,332.4989 Q710.9063,332.4989 709.5781,330.8583 Q708.2656,329.202 708.2656,326.077 Q708.2656,322.952 709.5781,321.2958 Q710.9063,319.6395 713.4063,319.6395 Q714.1094,319.6395 714.75,319.7958 Q715.4063,319.952 715.9688,320.2489 L715.9688,322.9677 Q715.3438,322.3895 714.75,322.1239 Q714.1563,321.8427 713.5313,321.8427 Q712.1875,321.8427 711.5,322.9208 Q710.8125,323.9833 710.8125,326.077 Q710.8125,328.1708 711.5,329.2489 Q712.1875,330.3114 713.5313,330.3114 Q714.1563,330.3114 714.75,330.0458 Q715.3438,329.7645 715.9688,329.1864 L715.9688,331.9052 Z " fill="#000000"/><text fill="#D9B8FF" font-family="Helvetica" font-size="17" lengthAdjust="spacing" textLength="150" x="732" y="332.1498">aws_ec2_flow_log</text></g><!--class aws_ec2_instance--><g id="elem_aws_ec2_instance"><rect codeLine="32" fill="#3D176E" height="39.7891" id="aws_ec2_instance" rx="2.5" ry="2.5" style="stroke:#000D19;stroke-width:0.5;" width="192" x="586" y="705.52"/><ellipse cx="601" cy="725.4145" fill="#ADD1B2" rx="11" ry="11" style="stroke:#181818;stroke-width:1.0;"/><path d="M603.9688,731.0552 Q603.3906,731.352 602.75,731.4927 Q602.1094,731.6489 601.4063,731.6489 Q598.9063,731.6489 597.5781,730.0083 Q596.2656,728.352 596.2656,725.227 Q596.2656,722.102 597.5781,720.4458 Q598.9063,718.7895 601.4063,718.7895 Q602.1094,718.7895 602.75,718.9458 Q603.4063,719.102 603.9688,719.3989 L603.9688,722.1177 Q603.3438,721.5395 602.75,721.2739 Q602.1563,720.9927 601.5313,720.9927 Q600.1875,720.9927 599.5,722.0708 Q598.8125,723.1333 598.8125,725.227 Q598.8125,727.3208 599.5,728.3989 Q600.1875,729.4614 601.5313,729.4614 Q602.1563,729.4614 602.75,729.1958 Q603.3438,728.9145 603.9688,728.3364 L603.9688,731.0552 Z " fill="#000000"/><text fill="#D9B8FF" font-family="Helvetica" font-size="17" lengthAdjust="spacing" textLength="150" x="620" y="731.2998">aws_ec2_instance</text></g><!--class aws_ec2_internet_gateway--><g id="elem_aws_ec2_internet_gateway"><rect codeLine="35" fill="#3D176E" height="39.7891" id="aws_ec2_internet_gateway" rx="2.5" ry="2.5" style="stroke:#000D19;stroke-width:0.5;" width="271" x="2116.5" y="306.37"/><ellipse cx="2131.5" cy="326.2645" fill="#ADD1B2" rx="11" ry="11" style="stroke:#181818;stroke-width:1.0;"/><path d="M2134.4688,331.9052 Q2133.8906,332.202 2133.25,332.3427 Q2132.6094,332.4989 2131.9063,332.4989 Q2129.4063,332.4989 2128.0781,330.8583 Q2126.7656,329.202 2126.7656,326.077 Q2126.7656,322.952 2128.0781,321.2958 Q2129.4063,319.6395 2131.9063,319.6395 Q2132.6094,319.6395 2133.25,319.7958 Q2133.9063,319.952 2134.4688,320.2489 L2134.4688,322.9677 Q2133.8438,322.3895 2133.25,322.1239 Q2132.6563,321.8427 2132.0313,321.8427 Q2130.6875,321.8427 2130,322.9208 Q2129.3125,323.9833 2129.3125,326.077 Q2129.3125,328.1708 2130,329.2489 Q2130.6875,330.3114 2132.0313,330.3114 Q2132.6563,330.3114 2133.25,330.0458 Q2133.8438,329.7645 2134.4688,329.1864 L2134.4688,331.9052 Z " fill="#000000"/><text fill="#D9B8FF" font-family="Helvetica" font-size="17" lengthAdjust="spacing" textLength="229" x="2150.5" y="332.1498">aws_ec2_internet_gateway</text></g><!--class aws_ec2_nat_gateway--><g id="elem_aws_ec2_nat_gateway"><rect codeLine="38" fill="#3D176E" height="39.7891" id="aws_ec2_nat_gateway" rx="2.5" ry="2.5" style="stroke:#000D19;stroke-width:0.5;" width="231" x="2617.5" y="106.79"/><ellipse cx="2632.5" cy="126.6845" fill="#ADD1B2" rx="11" ry="11" style="stroke:#181818;stroke-width:1.0;"/><path d="M2635.4688,132.3252 Q2634.8906,132.622 2634.25,132.7627 Q2633.6094,132.9189 2632.9063,132.9189 Q2630.4063,132.9189 2629.0781,131.2783 Q2627.7656,129.622 2627.7656,126.497 Q2627.7656,123.372 2629.0781,121.7158 Q2630.4063,120.0595 2632.9063,120.0595 Q2633.6094,120.0595 2634.25,120.2158 Q2634.9063,120.372 2635.4688,120.6689 L2635.4688,123.3877 Q2634.8438,122.8095 2634.25,122.5439 Q2633.6563,122.2627 2633.0313,122.2627 Q2631.6875,122.2627 2631,123.3408 Q2630.3125,124.4033 2630.3125,126.497 Q2630.3125,128.5908 2631,129.6689 Q2631.6875,130.7314 2633.0313,130.7314 Q2633.6563,130.7314 2634.25,130.4658 Q2634.8438,130.1845 2635.4688,129.6064 L2635.4688,132.3252 Z " fill="#000000"/><text fill="#D9B8FF" font-family="Helvetica" font-size="17" lengthAdjust="spacing" textLength="189" x="2651.5" y="132.5698">aws_ec2_nat_gateway</text></g><!--class aws_ec2_network_acl--><g id="elem_aws_ec2_network_acl"><rect codeLine="41" fill="#3D176E" height="39.7891" id="aws_ec2_network_acl" rx="2.5" ry="2.5" style="stroke:#000D19;stroke-width:0.5;" width="224" x="1715" y="306.37"/><ellipse cx="1730" cy="326.2645" fill="#ADD1B2" rx="11" ry="11" style="stroke:#181818;stroke-width:1.0;"/><path d="M1732.9688,331.9052 Q1732.3906,332.202 1731.75,332.3427 Q1731.1094,332.4989 1730.4063,332.4989 Q1727.9063,332.4989 1726.5781,330.8583 Q1725.2656,329.202 1725.2656,326.077 Q1725.2656,322.952 1726.5781,321.2958 Q1727.9063,319.6395 1730.4063,319.6395 Q1731.1094,319.6395 1731.75,319.7958 Q1732.4063,319.952 1732.9688,320.2489 L1732.9688,322.9677 Q1732.3438,322.3895 1731.75,322.1239 Q1731.1563,321.8427 1730.5313,321.8427 Q1729.1875,321.8427 1728.5,322.9208 Q1727.8125,323.9833 1727.8125,326.077 Q1727.8125,328.1708 1728.5,329.2489 Q1729.1875,330.3114 1730.5313,330.3114 Q1731.1563,330.3114 1731.75,330.0458 Q1732.3438,329.7645 1732.9688,329.1864 L1732.9688,331.9052 Z " fill="#000000"/><text fill="#D9B8FF" font-family="Helvetica" font-size="17" lengthAdjust="spacing" textLength="182" x="1749" y="332.1498">aws_ec2_network_acl</text></g><!--class aws_ec2_network_interface--><g id="elem_aws_ec2_network_interface"><rect codeLine="44" fill="#3D176E" height="39.7891" id="aws_ec2_network_interface" rx="2.5" ry="2.5" style="stroke:#000D19;stroke-width:0.5;" width="275" x="1940.5" y="805.31"/><ellipse cx="1955.5" cy="825.2045" fill="#ADD1B2" rx="11" ry="11" style="stroke:#181818;stroke-width:1.0;"/><path d="M1958.4688,830.8452 Q1957.8906,831.142 1957.25,831.2827 Q1956.6094,831.4389 1955.9063,831.4389 Q1953.4063,831.4389 1952.0781,829.7983 Q1950.7656,828.142 1950.7656,825.017 Q1950.7656,821.892 1952.0781,820.2358 Q1953.4063,818.5795 1955.9063,818.5795 Q1956.6094,818.5795 1957.25,818.7358 Q1957.9063,818.892 1958.4688,819.1889 L1958.4688,821.9077 Q1957.8438,821.3295 1957.25,821.0639 Q1956.6563,820.7827 1956.0313,820.7827 Q1954.6875,820.7827 1954,821.8608 Q1953.3125,822.9233 1953.3125,825.017 Q1953.3125,827.1108 1954,828.1889 Q1954.6875,829.2514 1956.0313,829.2514 Q1956.6563,829.2514 1957.25,828.9858 Q1957.8438,828.7045 1958.4688,828.1264 L1958.4688,830.8452 Z " fill="#000000"/><text fill="#D9B8FF" font-family="Helvetica" font-size="17" lengthAdjust="spacing" textLength="233" x="1974.5" y="831.0898">aws_ec2_network_interface</text></g><!--class aws_ec2_route_table--><g id="elem_aws_ec2_route_table"><rect codeLine="47" fill="#3D176E" height="39.7891" id="aws_ec2_route_table" rx="2.5" ry="2.5" style="stroke:#000D19;stroke-width:0.5;" width="218" x="2954" y="306.37"/><ellipse cx="2969" cy="326.2645" fill="#ADD1B2" rx="11" ry="11" style="stroke:#181818;stroke-width:1.0;"/><path d="M2971.9688,331.9052 Q2971.3906,332.202 2970.75,332.3427 Q2970.1094,332.4989 2969.4063,332.4989 Q2966.9063,332.4989 2965.5781,330.8583 Q2964.2656,329.202 2964.2656,326.077 Q2964.2656,322.952 2965.5781,321.2958 Q2966.9063,319.6395 2969.4063,319.6395 Q2970.1094,319.6395 2970.75,319.7958 Q2971.4063,319.952 2971.9688,320.2489 L2971.9688,322.9677 Q2971.3438,322.3895 2970.75,322.1239 Q2970.1563,321.8427 2969.5313,321.8427 Q2968.1875,321.8427 2967.5,322.9208 Q2966.8125,323.9833 2966.8125,326.077 Q2966.8125,328.1708 2967.5,329.2489 Q2968.1875,330.3114 2969.5313,330.3114 Q2970.1563,330.3114 2970.75,330.0458 Q2971.3438,329.7645 2971.9688,329.1864 L2971.9688,331.9052 Z " fill="#000000"/><text fill="#D9B8FF" font-family="Helvetica" font-size="17" lengthAdjust="spacing" textLength="176" x="2988" y="332.1498">aws_ec2_route_table</text></g><!--class aws_ec2_security_group--><g id="elem_aws_ec2_security_group"><rect codeLine="50" fill="#3D176E" height="39.7891" id="aws_ec2_security_group" rx="2.5" ry="2.5" style="stroke:#000D19;stroke-width:0.5;" width="245" x="1786.5" y="406.15"/><ellipse cx="1801.5" cy="426.0445" fill="#ADD1B2" rx="11" ry="11" style="stroke:#181818;stroke-width:1.0;"/><path d="M1804.4688,431.6852 Q1803.8906,431.982 1803.25,432.1227 Q1802.6094,432.2789 1801.9063,432.2789 Q1799.4063,432.2789 1798.0781,430.6383 Q1796.7656,428.982 1796.7656,425.857 Q1796.7656,422.732 1798.0781,421.0758 Q1799.4063,419.4195 1801.9063,419.4195 Q1802.6094,419.4195 1803.25,419.5758 Q1803.9063,419.732 1804.4688,420.0289 L1804.4688,422.7477 Q1803.8438,422.1695 1803.25,421.9039 Q1802.6563,421.6227 1802.0313,421.6227 Q1800.6875,421.6227 1800,422.7008 Q1799.3125,423.7633 1799.3125,425.857 Q1799.3125,427.9508 1800,429.0289 Q1800.6875,430.0914 1802.0313,430.0914 Q1802.6563,430.0914 1803.25,429.8258 Q1803.8438,429.5445 1804.4688,428.9664 L1804.4688,431.6852 Z " fill="#000000"/><text fill="#D9B8FF" font-family="Helvetica" font-size="17" lengthAdjust="spacing" textLength="203" x="1820.5" y="431.9298">aws_ec2_security_group</text></g><!--class aws_ec2_subnet--><g id="elem_aws_ec2_subnet"><rect codeLine="53" fill="#3D176E" height="39.7891" id="aws_ec2_subnet" rx="2.5" ry="2.5" style="stroke:#000D19;stroke-width:0.5;" width="179" x="1572.5" y="406.15"/><ellipse cx="1587.5" cy="426.0445" fill="#ADD1B2" rx="11" ry="11" style="stroke:#181818;stroke-width:1.0;"/><path d="M1590.4688,431.6852 Q1589.8906,431.982 1589.25,432.1227 Q1588.6094,432.2789 1587.9063,432.2789 Q1585.4063,432.2789 1584.0781,430.6383 Q1582.7656,428.982 1582.7656,425.857 Q1582.7656,422.732 1584.0781,421.0758 Q1585.4063,419.4195 1587.9063,419.4195 Q1588.6094,419.4195 1589.25,419.5758 Q1589.9063,419.732 1590.4688,420.0289 L1590.4688,422.7477 Q1589.8438,422.1695 1589.25,421.9039 Q1588.6563,421.6227 1588.0313,421.6227 Q1586.6875,421.6227 1586,422.7008 Q1585.3125,423.7633 1585.3125,425.857 Q1585.3125,427.9508 1586,429.0289 Q1586.6875,430.0914 1588.0313,430.0914 Q1588.6563,430.0914 1589.25,429.8258 Q1589.8438,429.5445 1590.4688,428.9664 L1590.4688,431.6852 Z " fill="#000000"/><text fill="#D9B8FF" font-family="Helvetica" font-size="17" lengthAdjust="spacing" textLength="137" x="1606.5" y="431.9298">aws_ec2_subnet</text></g><!--class aws_elb--><g id="elem_aws_elb"><rect codeLine="56" fill="#3D176E" height="39.7891" id="aws_elb" rx="2.5" ry="2.5" style="stroke:#000D19;stroke-width:0.5;" width="109" x="627.5" y="505.94"/><ellipse cx="642.5" cy="525.8345" fill="#ADD1B2" rx="11" ry="11" style="stroke:#181818;stroke-width:1.0;"/><path d="M645.4688,531.4752 Q644.8906,531.772 644.25,531.9127 Q643.6094,532.0689 642.9063,532.0689 Q640.4063,532.0689 639.0781,530.4283 Q637.7656,528.772 637.7656,525.647 Q637.7656,522.522 639.0781,520.8658 Q640.4063,519.2095 642.9063,519.2095 Q643.6094,519.2095 644.25,519.3658 Q644.9063,519.522 645.4688,519.8189 L645.4688,522.5377 Q644.8438,521.9595 644.25,521.6939 Q643.6563,521.4127 643.0313,521.4127 Q641.6875,521.4127 641,522.4908 Q640.3125,523.5533 640.3125,525.647 Q640.3125,527.7408 641,528.8189 Q641.6875,529.8814 643.0313,529.8814 Q643.6563,529.8814 644.25,529.6158 Q644.8438,529.3345 645.4688,528.7564 L645.4688,531.4752 Z " fill="#000000"/><text fill="#D9B8FF" font-family="Helvetica" font-size="17" lengthAdjust="spacing" textLength="67" x="661.5" y="531.7198">aws_elb</text></g><!--class aws_lambda_function--><g id="elem_aws_lambda_function"><rect codeLine="59" fill="#3D176E" height="39.7891" id="aws_lambda_function" rx="2.5" ry="2.5" style="stroke:#000D19;stroke-width:0.5;" width="224" x="1268" y="505.94"/><ellipse cx="1283" cy="525.8345" fill="#ADD1B2" rx="11" ry="11" style="stroke:#181818;stroke-width:1.0;"/><path d="M1285.9688,531.4752 Q1285.3906,531.772 1284.75,531.9127 Q1284.1094,532.0689 1283.4063,532.0689 Q1280.9063,532.0689 1279.5781,530.4283 Q1278.2656,528.772 1278.2656,525.647 Q1278.2656,522.522 1279.5781,520.8658 Q1280.9063,519.2095 1283.4063,519.2095 Q1284.1094,519.2095 1284.75,519.3658 Q1285.4063,519.522 1285.9688,519.8189 L1285.9688,522.5377 Q1285.3438,521.9595 1284.75,521.6939 Q1284.1563,521.4127 1283.5313,521.4127 Q1282.1875,521.4127 1281.5,522.4908 Q1280.8125,523.5533 1280.8125,525.647 Q1280.8125,527.7408 1281.5,528.8189 Q1282.1875,529.8814 1283.5313,529.8814 Q1284.1563,529.8814 1284.75,529.6158 Q1285.3438,529.3345 1285.9688,528.7564 L1285.9688,531.4752 Z " fill="#000000"/><text fill="#D9B8FF" font-family="Helvetica" font-size="17" lengthAdjust="spacing" textLength="182" x="1302" y="531.7198">aws_lambda_function</text></g><!--class aws_opensearch_domain--><g id="elem_aws_opensearch_domain"><rect codeLine="62" fill="#3D176E" height="39.7891" id="aws_opensearch_domain" rx="2.5" ry="2.5" style="stroke:#000D19;stroke-width:0.5;" width="251" x="1526.5" y="505.94"/><ellipse cx="1541.5" cy="525.8345" fill="#ADD1B2" rx="11" ry="11" style="stroke:#181818;stroke-width:1.0;"/><path d="M1544.4688,531.4752 Q1543.8906,531.772 1543.25,531.9127 Q1542.6094,532.0689 1541.9063,532.0689 Q1539.4063,532.0689 1538.0781,530.4283 Q1536.7656,528.772 1536.7656,525.647 Q1536.7656,522.522 1538.0781,520.8658 Q1539.4063,519.2095 1541.9063,519.2095 Q1542.6094,519.2095 1543.25,519.3658 Q1543.9063,519.522 1544.4688,519.8189 L1544.4688,522.5377 Q1543.8438,521.9595 1543.25,521.6939 Q1542.6563,521.4127 1542.0313,521.4127 Q1540.6875,521.4127 1540,522.4908 Q1539.3125,523.5533 1539.3125,525.647 Q1539.3125,527.7408 1540,528.8189 Q1540.6875,529.8814 1542.0313,529.8814 Q1542.6563,529.8814 1543.25,529.6158 Q1543.8438,529.3345 1544.4688,528.7564 L1544.4688,531.4752 Z " fill="#000000"/><text fill="#D9B8FF" font-family="Helvetica" font-size="17" lengthAdjust="spacing" textLength="209" x="1560.5" y="531.7198">aws_opensearch_domain</text></g><!--class aws_rds_cluster_snapshot--><g id="elem_aws_rds_cluster_snapshot"><rect codeLine="65" fill="#3D176E" height="39.7891" id="aws_rds_cluster_snapshot" rx="2.5" ry="2.5" style="stroke:#000D19;stroke-width:0.5;" width="258" x="1067" y="306.37"/><ellipse cx="1082" cy="326.2645" fill="#ADD1B2" rx="11" ry="11" style="stroke:#181818;stroke-width:1.0;"/><path d="M1084.9688,331.9052 Q1084.3906,332.202 1083.75,332.3427 Q1083.1094,332.4989 1082.4063,332.4989 Q1079.9063,332.4989 1078.5781,330.8583 Q1077.2656,329.202 1077.2656,326.077 Q1077.2656,322.952 1078.5781,321.2958 Q1079.9063,319.6395 1082.4063,319.6395 Q1083.1094,319.6395 1083.75,319.7958 Q1084.4063,319.952 1084.9688,320.2489 L1084.9688,322.9677 Q1084.3438,322.3895 1083.75,322.1239 Q1083.1563,321.8427 1082.5313,321.8427 Q1081.1875,321.8427 1080.5,322.9208 Q1079.8125,323.9833 1079.8125,326.077 Q1079.8125,328.1708 1080.5,329.2489 Q1081.1875,330.3114 1082.5313,330.3114 Q1083.1563,330.3114 1083.75,330.0458 Q1084.3438,329.7645 1084.9688,329.1864 L1084.9688,331.9052 Z " fill="#000000"/><text fill="#D9B8FF" font-family="Helvetica" font-size="17" lengthAdjust="spacing" textLength="216" x="1101" y="332.1498">aws_rds_cluster_snapshot</text></g><!--class aws_rds_instance--><g id="elem_aws_rds_instance"><rect codeLine="68" fill="#3D176E" height="39.7891" id="aws_rds_instance" rx="2.5" ry="2.5" style="stroke:#000D19;stroke-width:0.5;" width="188" x="2131" y="505.94"/><ellipse cx="2146" cy="525.8345" fill="#ADD1B2" rx="11" ry="11" style="stroke:#181818;stroke-width:1.0;"/><path d="M2148.9688,531.4752 Q2148.3906,531.772 2147.75,531.9127 Q2147.1094,532.0689 2146.4063,532.0689 Q2143.9063,532.0689 2142.5781,530.4283 Q2141.2656,528.772 2141.2656,525.647 Q2141.2656,522.522 2142.5781,520.8658 Q2143.9063,519.2095 2146.4063,519.2095 Q2147.1094,519.2095 2147.75,519.3658 Q2148.4063,519.522 2148.9688,519.8189 L2148.9688,522.5377 Q2148.3438,521.9595 2147.75,521.6939 Q2147.1563,521.4127 2146.5313,521.4127 Q2145.1875,521.4127 2144.5,522.4908 Q2143.8125,523.5533 2143.8125,525.647 Q2143.8125,527.7408 2144.5,528.8189 Q2145.1875,529.8814 2146.5313,529.8814 Q2147.1563,529.8814 2147.75,529.6158 Q2148.3438,529.3345 2148.9688,528.7564 L2148.9688,531.4752 Z " fill="#000000"/><text fill="#D9B8FF" font-family="Helvetica" font-size="17" lengthAdjust="spacing" textLength="146" x="2165" y="531.7198">aws_rds_instance</text></g><!--class aws_rds_snapshot--><g id="elem_aws_rds_snapshot"><rect codeLine="71" fill="#3D176E" height="39.7891" id="aws_rds_snapshot" rx="2.5" ry="2.5" style="stroke:#000D19;stroke-width:0.5;" width="193" x="1550.5" y="605.73"/><ellipse cx="1565.5" cy="625.6245" fill="#ADD1B2" rx="11" ry="11" style="stroke:#181818;stroke-width:1.0;"/><path d="M1568.4688,631.2652 Q1567.8906,631.562 1567.25,631.7027 Q1566.6094,631.8589 1565.9063,631.8589 Q1563.4063,631.8589 1562.0781,630.2183 Q1560.7656,628.562 1560.7656,625.437 Q1560.7656,622.312 1562.0781,620.6558 Q1563.4063,618.9995 1565.9063,618.9995 Q1566.6094,618.9995 1567.25,619.1558 Q1567.9063,619.312 1568.4688,619.6089 L1568.4688,622.3277 Q1567.8438,621.7495 1567.25,621.4839 Q1566.6563,621.2027 1566.0313,621.2027 Q1564.6875,621.2027 1564,622.2808 Q1563.3125,623.3433 1563.3125,625.437 Q1563.3125,627.5308 1564,628.6089 Q1564.6875,629.6714 1566.0313,629.6714 Q1566.6563,629.6714 1567.25,629.4058 Q1567.8438,629.1245 1568.4688,628.5464 L1568.4688,631.2652 Z " fill="#000000"/><text fill="#D9B8FF" font-family="Helvetica" font-size="17" lengthAdjust="spacing" textLength="151" x="1584.5" y="631.5098">aws_rds_snapshot</text></g><!--class aws_redshift_cluster--><g id="elem_aws_redshift_cluster"><rect codeLine="74" fill="#3D176E" height="39.7891" id="aws_redshift_cluster" rx="2.5" ry="2.5" style="stroke:#000D19;stroke-width:0.5;" width="213" x="1812.5" y="505.94"/><ellipse cx="1827.5" cy="525.8345" fill="#ADD1B2" rx="11" ry="11" style="stroke:#181818;stroke-width:1.0;"/><path d="M1830.4688,531.4752 Q1829.8906,531.772 1829.25,531.9127 Q1828.6094,532.0689 1827.9063,532.0689 Q1825.4063,532.0689 1824.0781,530.4283 Q1822.7656,528.772 1822.7656,525.647 Q1822.7656,522.522 1824.0781,520.8658 Q1825.4063,519.2095 1827.9063,519.2095 Q1828.6094,519.2095 1829.25,519.3658 Q1829.9063,519.522 1830.4688,519.8189 L1830.4688,522.5377 Q1829.8438,521.9595 1829.25,521.6939 Q1828.6563,521.4127 1828.0313,521.4127 Q1826.6875,521.4127 1826,522.4908 Q1825.3125,523.5533 1825.3125,525.647 Q1825.3125,527.7408 1826,528.8189 Q1826.6875,529.8814 1828.0313,529.8814 Q1828.6563,529.8814 1829.25,529.6158 Q1829.8438,529.3345 1830.4688,528.7564 L1830.4688,531.4752 Z " fill="#000000"/><text fill="#D9B8FF" font-family="Helvetica" font-size="17" lengthAdjust="spacing" textLength="171" x="1846.5" y="531.7198">aws_redshift_cluster</text></g><!--class aws_region--><g id="elem_aws_region"><rect codeLine="77" fill="#3D176E" height="39.7891" id="aws_region" rx="2.5" ry="2.5" style="stroke:#000D19;stroke-width:0.5;" width="137" x="2334.5" y="7"/><ellipse cx="2349.5" cy="26.8945" fill="#ADD1B2" rx="11" ry="11" style="stroke:#181818;stroke-width:1.0;"/><path d="M2352.4688,32.5352 Q2351.8906,32.832 2351.25,32.9727 Q2350.6094,33.1289 2349.9063,33.1289 Q2347.4063,33.1289 2346.0781,31.4883 Q2344.7656,29.832 2344.7656,26.707 Q2344.7656,23.582 2346.0781,21.9258 Q2347.4063,20.2695 2349.9063,20.2695 Q2350.6094,20.2695 2351.25,20.4258 Q2351.9063,20.582 2352.4688,20.8789 L2352.4688,23.5977 Q2351.8438,23.0195 2351.25,22.7539 Q2350.6563,22.4727 2350.0313,22.4727 Q2348.6875,22.4727 2348,23.5508 Q2347.3125,24.6133 2347.3125,26.707 Q2347.3125,28.8008 2348,29.8789 Q2348.6875,30.9414 2350.0313,30.9414 Q2350.6563,30.9414 2351.25,30.6758 Q2351.8438,30.3945 2352.4688,29.8164 L2352.4688,32.5352 Z " fill="#000000"/><text fill="#D9B8FF" font-family="Helvetica" font-size="17" lengthAdjust="spacing" textLength="95" x="2368.5" y="32.7798">aws_region</text></g><!--class aws_service_quota--><g id="elem_aws_service_quota"><rect codeLine="80" fill="#3D176E" height="39.7891" id="aws_service_quota" rx="2.5" ry="2.5" style="stroke:#000D19;stroke-width:0.5;" width="199" x="225.5" y="106.79"/><ellipse cx="240.5" cy="126.6845" fill="#ADD1B2" rx="11" ry="11" style="stroke:#181818;stroke-width:1.0;"/><path d="M243.4688,132.3252 Q242.8906,132.622 242.25,132.7627 Q241.6094,132.9189 240.9063,132.9189 Q238.4063,132.9189 237.0781,131.2783 Q235.7656,129.622 235.7656,126.497 Q235.7656,123.372 237.0781,121.7158 Q238.4063,120.0595 240.9063,120.0595 Q241.6094,120.0595 242.25,120.2158 Q242.9063,120.372 243.4688,120.6689 L243.4688,123.3877 Q242.8438,122.8095 242.25,122.5439 Q241.6563,122.2627 241.0313,122.2627 Q239.6875,122.2627 239,123.3408 Q238.3125,124.4033 238.3125,126.497 Q238.3125,128.5908 239,129.6689 Q239.6875,130.7314 241.0313,130.7314 Q241.6563,130.7314 242.25,130.4658 Q242.8438,130.1845 243.4688,129.6064 L243.4688,132.3252 Z " fill="#000000"/><text fill="#D9B8FF" font-family="Helvetica" font-size="17" lengthAdjust="spacing" textLength="157" x="259.5" y="132.5698">aws_service_quota</text></g><!--class aws_vpc--><g id="elem_aws_vpc"><rect codeLine="83" fill="#3D176E" height="39.7891" id="aws_vpc" rx="2.5" ry="2.5" style="stroke:#000D19;stroke-width:0.5;" width="112" x="1428" y="206.58"/><ellipse cx="1443" cy="226.4745" fill="#ADD1B2" rx="11" ry="11" style="stroke:#181818;stroke-width:1.0;"/><path d="M1445.9688,232.1152 Q1445.3906,232.412 1444.75,232.5527 Q1444.1094,232.7089 1443.4063,232.7089 Q1440.9063,232.7089 1439.5781,231.0683 Q1438.2656,229.412 1438.2656,226.287 Q1438.2656,223.162 1439.5781,221.5058 Q1440.9063,219.8495 1443.4063,219.8495 Q1444.1094,219.8495 1444.75,220.0058 Q1445.4063,220.162 1445.9688,220.4589 L1445.9688,223.1777 Q1445.3438,222.5995 1444.75,222.3339 Q1444.1563,222.0527 1443.5313,222.0527 Q1442.1875,222.0527 1441.5,223.1308 Q1440.8125,224.1933 1440.8125,226.287 Q1440.8125,228.3808 1441.5,229.4589 Q1442.1875,230.5214 1443.5313,230.5214 Q1444.1563,230.5214 1444.75,230.2558 Q1445.3438,229.9745 1445.9688,229.3964 L1445.9688,232.1152 Z " fill="#000000"/><text fill="#D9B8FF" font-family="Helvetica" font-size="17" lengthAdjust="spacing" textLength="70" x="1462" y="232.3598">aws_vpc</text></g><!--class aws_vpc_endpoint--><g id="elem_aws_vpc_endpoint"><rect codeLine="86" fill="#3D176E" height="39.7891" id="aws_vpc_endpoint" rx="2.5" ry="2.5" style="stroke:#000D19;stroke-width:0.5;" width="195" x="2353.5" y="505.94"/><ellipse cx="2368.5" cy="525.8345" fill="#ADD1B2" rx="11" ry="11" style="stroke:#181818;stroke-width:1.0;"/><path d="M2371.4688,531.4752 Q2370.8906,531.772 2370.25,531.9127 Q2369.6094,532.0689 2368.9063,532.0689 Q2366.4063,532.0689 2365.0781,530.4283 Q2363.7656,528.772 2363.7656,525.647 Q2363.7656,522.522 2365.0781,520.8658 Q2366.4063,519.2095 2368.9063,519.2095 Q2369.6094,519.2095 2370.25,519.3658 Q2370.9063,519.522 2371.4688,519.8189 L2371.4688,522.5377 Q2370.8438,521.9595 2370.25,521.6939 Q2369.6563,521.4127 2369.0313,521.4127 Q2367.6875,521.4127 2367,522.4908 Q2366.3125,523.5533 2366.3125,525.647 Q2366.3125,527.7408 2367,528.8189 Q2367.6875,529.8814 2369.0313,529.8814 Q2369.6563,529.8814 2370.25,529.6158 Q2370.8438,529.3345 2371.4688,528.7564 L2371.4688,531.4752 Z " fill="#000000"/><text fill="#D9B8FF" font-family="Helvetica" font-size="17" lengthAdjust="spacing" textLength="153" x="2387.5" y="531.7198">aws_vpc_endpoint</text></g><!--class aws_vpc_peering_connection--><g id="elem_aws_vpc_peering_connection"><rect codeLine="89" fill="#3D176E" height="39.7891" id="aws_vpc_peering_connection" rx="2.5" ry="2.5" style="stroke:#000D19;stroke-width:0.5;" width="284" x="2422" y="306.37"/><ellipse cx="2437" cy="326.2645" fill="#ADD1B2" rx="11" ry="11" style="stroke:#181818;stroke-width:1.0;"/><path d="M2439.9688,331.9052 Q2439.3906,332.202 2438.75,332.3427 Q2438.1094,332.4989 2437.4063,332.4989 Q2434.9063,332.4989 2433.5781,330.8583 Q2432.2656,329.202 2432.2656,326.077 Q2432.2656,322.952 2433.5781,321.2958 Q2434.9063,319.6395 2437.4063,319.6395 Q2438.1094,319.6395 2438.75,319.7958 Q2439.4063,319.952 2439.9688,320.2489 L2439.9688,322.9677 Q2439.3438,322.3895 2438.75,322.1239 Q2438.1563,321.8427 2437.5313,321.8427 Q2436.1875,321.8427 2435.5,322.9208 Q2434.8125,323.9833 2434.8125,326.077 Q2434.8125,328.1708 2435.5,329.2489 Q2436.1875,330.3114 2437.5313,330.3114 Q2438.1563,330.3114 2438.75,330.0458 Q2439.3438,329.7645 2439.9688,329.1864 L2439.9688,331.9052 Z " fill="#000000"/><text fill="#D9B8FF" font-family="Helvetica" font-size="17" lengthAdjust="spacing" textLength="242" x="2456" y="332.1498">aws_vpc_peering_connection</text></g><!--link aws_alb to aws_alb_target_group--><g id="link_aws_alb_aws_alb_target_group"><path codeLine="92" d="M442.67,546.16 C452.14,563.3 462.9894,582.9677 472.4494,600.0977 " fill="none" id="aws_alb-to-aws_alb_target_group" style="stroke:#1A83AF;stroke-width:2.0;"/><polygon fill="#1A83AF" points="475.35,605.35,474.5007,595.5378,472.9329,600.9731,467.4976,599.4053,475.35,605.35" style="stroke:#1A83AF;stroke-width:2.0;"/></g><!--link aws_alb_target_group to aws_ec2_instance--><g id="link_aws_alb_target_group_aws_ec2_instance"><path codeLine="93" d="M524.72,645.95 C559.08,663.09 603.6516,685.3205 637.9916,702.4605 " fill="none" id="aws_alb_target_group-to-aws_ec2_instance" style="stroke:#1A83AF;stroke-width:2.0;"/><polygon fill="#1A83AF" points="643.36,705.14,637.0937,697.5417,638.8863,702.9071,633.521,704.6997,643.36,705.14" style="stroke:#1A83AF;stroke-width:2.0;"/></g><!--link aws_ec2_instance to aws_ec2_network_interface--><g id="link_aws_ec2_instance_aws_ec2_network_interface"><path codeLine="94" d="M778.23,733.16 C1020.78,750.15 1651.8947,794.3609 1934.0947,814.1209 " fill="none" id="aws_ec2_instance-to-aws_ec2_network_interface" style="stroke:#1A83AF;stroke-width:2.0;"/><polygon fill="#1A83AF" points="1940.08,814.54,1931.3814,809.9211,1935.0922,814.1907,1930.8226,817.9016,1940.08,814.54" style="stroke:#1A83AF;stroke-width:2.0;"/></g><!--link aws_ec2_nat_gateway to aws_ec2_network_interface--><g id="link_aws_ec2_nat_gateway_aws_ec2_network_interface"><path codeLine="95" d="M2848.97,144.37 C3013.78,171.4 3296,231.38 3296,325.26 C3296,325.26 3296,325.26 3296,626.63 C3296,735.01 2540.8175,795.1234 2221.9275,815.7134 " fill="none" id="aws_ec2_nat_gateway-to-aws_ec2_network_interface" style="stroke:#1A83AF;stroke-width:2.0;"/><polygon fill="#1A83AF" points="2215.94,816.1,2225.179,819.5118,2220.9296,815.7778,2224.6636,811.5284,2215.94,816.1" style="stroke:#1A83AF;stroke-width:2.0;"/></g><!--link aws_ec2_nat_gateway to aws_ec2_subnet--><g id="link_aws_ec2_nat_gateway_aws_ec2_subnet"><path codeLine="96" d="M2747.5,146.95 C2777.28,189 2838.22,289.7 2785,346.15 C2707.43,428.44 1881.31,392.97 1769,406.15 C1763.38,406.81 1763.5485,406.7229 1757.7285,407.5629 " fill="none" id="aws_ec2_nat_gateway-to-aws_ec2_subnet" style="stroke:#1A83AF;stroke-width:2.0;"/><polygon fill="#1A83AF" points="1751.79,408.42,1761.2691,411.0933,1756.7387,407.7058,1760.1263,403.1754,1751.79,408.42" style="stroke:#1A83AF;stroke-width:2.0;"/></g><!--link aws_ec2_nat_gateway to aws_vpc--><g id="link_aws_ec2_nat_gateway_aws_vpc"><path codeLine="97" d="M2617.18,136.75 C2356.38,157.17 1736.9717,205.6616 1546.1917,220.6016 " fill="none" id="aws_ec2_nat_gateway-to-aws_vpc" style="stroke:#1A83AF;stroke-width:2.0;"/><polygon fill="#1A83AF" points="1540.21,221.07,1549.4948,224.3552,1545.1947,220.6796,1548.8702,216.3796,1540.21,221.07" style="stroke:#1A83AF;stroke-width:2.0;"/></g><!--link aws_ec2_network_acl to aws_ec2_subnet--><g id="link_aws_ec2_network_acl_aws_ec2_subnet"><path codeLine="98" d="M1794.4,346.58 C1765.47,363.72 1728.6019,385.5814 1699.6919,402.7114 " fill="none" id="aws_ec2_network_acl-to-aws_ec2_subnet" style="stroke:#1A83AF;stroke-width:2.0;"/><polygon fill="#1A83AF" points="1694.53,405.77,1704.3119,404.6234,1698.8316,403.2212,1700.2338,397.7409,1694.53,405.77" style="stroke:#1A83AF;stroke-width:2.0;"/></g><!--link aws_ec2_route_table to aws_vpc_endpoint--><g id="link_aws_ec2_route_table_aws_vpc_endpoint"><path codeLine="99" d="M3003.2,346.56 C2886.2,384.34 2633.9397,465.7764 2516.7497,503.6164 " fill="none" id="aws_ec2_route_table-to-aws_vpc_endpoint" style="stroke:#1A83AF;stroke-width:2.0;"/><polygon fill="#1A83AF" points="2511.04,505.46,2520.8337,506.501,2515.7981,503.9236,2518.3755,498.8881,2511.04,505.46" style="stroke:#1A83AF;stroke-width:2.0;"/></g><!--link aws_ec2_security_group to aws_alb--><g id="link_aws_ec2_security_group_aws_alb"><path codeLine="100" d="M1786.15,444.21 C1780.35,444.84 1774.62,445.42 1769,445.94 C1255.43,493.81 1124.2,465.37 610,505.94 C568.64,509.21 527.9709,513.5266 492.8209,517.5566 " fill="none" id="aws_ec2_security_group-to-aws_alb" style="stroke:#1A83AF;stroke-width:2.0;"/><polygon fill="#1A83AF" points="486.86,518.24,496.257,521.1888,491.8275,517.6705,495.3458,513.2409,486.86,518.24" style="stroke:#1A83AF;stroke-width:2.0;"/></g><!--link aws_ec2_security_group to aws_ec2_network_interface--><g id="link_aws_ec2_security_group_aws_ec2_network_interface"><path codeLine="101" d="M1965.66,446.38 C1993.59,458.92 2025.04,478.17 2043,505.94 C2105.79,603.03 2090.5805,746.5226 2082.3205,799.1426 " fill="none" id="aws_ec2_security_group-to-aws_ec2_network_interface" style="stroke:#1A83AF;stroke-width:2.0;"/><polygon fill="#1A83AF" points="2081.39,805.07,2086.7373,796.7992,2082.1654,800.1305,2078.8341,795.5586,2081.39,805.07" style="stroke:#1A83AF;stroke-width:2.0;"/></g><!--link aws_ec2_security_group to aws_elb--><g id="link_aws_ec2_security_group_aws_elb"><path codeLine="102" d="M1786.13,444.07 C1780.34,444.73 1774.61,445.36 1769,445.94 C1374.24,486.87 902.6418,513.3763 742.9518,521.7363 " fill="none" id="aws_ec2_security_group-to-aws_elb" style="stroke:#1A83AF;stroke-width:2.0;"/><polygon fill="#1A83AF" points="736.96,522.05,746.1568,525.574,741.9532,521.7886,745.7386,517.585,736.96,522.05" style="stroke:#1A83AF;stroke-width:2.0;"/></g><!--link aws_ec2_security_group to aws_lambda_function--><g id="link_aws_ec2_security_group_aws_lambda_function"><path codeLine="103" d="M1804.17,446.43 C1711.55,463.55 1583.08,487.2994 1490.52,504.4094 " fill="none" id="aws_ec2_security_group-to-aws_lambda_function" style="stroke:#1A83AF;stroke-width:2.0;"/><polygon fill="#1A83AF" points="1484.62,505.5,1494.1972,507.7974,1489.5367,504.5911,1492.743,499.9307,1484.62,505.5" style="stroke:#1A83AF;stroke-width:2.0;"/></g><!--link aws_ec2_security_group to aws_opensearch_domain--><g id="link_aws_ec2_security_group_aws_opensearch_domain"><path codeLine="104" d="M1858.23,446.37 C1813.17,463.51 1753.2978,486.2963 1708.2778,503.4263 " fill="none" id="aws_ec2_security_group-to-aws_opensearch_domain" style="stroke:#1A83AF;stroke-width:2.0;"/><polygon fill="#1A83AF" points="1702.67,505.56,1712.5042,506.0979,1707.3431,503.7819,1709.6592,498.6209,1702.67,505.56" style="stroke:#1A83AF;stroke-width:2.0;"/></g><!--link aws_ec2_security_group to aws_rds_instance--><g id="link_aws_ec2_security_group_aws_rds_instance"><path codeLine="105" d="M1971.43,446.37 C2026.74,463.49 2101.3479,486.577 2156.6979,503.697 " fill="none" id="aws_ec2_security_group-to-aws_rds_instance" style="stroke:#1A83AF;stroke-width:2.0;"/><polygon fill="#1A83AF" points="2162.43,505.47,2155.0139,498.9892,2157.6533,503.9925,2152.6499,506.6319,2162.43,505.47" style="stroke:#1A83AF;stroke-width:2.0;"/></g><!--link aws_ec2_security_group to aws_redshift_cluster--><g id="link_aws_ec2_security_group_aws_redshift_cluster"><path codeLine="106" d="M1910.98,446.37 C1912.73,463.51 1914.6702,482.4611 1916.4202,499.5911 " fill="none" id="aws_ec2_security_group-to-aws_redshift_cluster" style="stroke:#1A83AF;stroke-width:2.0;"/><polygon fill="#1A83AF" points="1917.03,505.56,1920.0946,496.2001,1916.5218,500.5859,1912.136,497.0131,1917.03,505.56" style="stroke:#1A83AF;stroke-width:2.0;"/></g><!--link aws_ec2_security_group to aws_vpc_endpoint--><g id="link_aws_ec2_security_group_aws_vpc_endpoint"><path codeLine="107" d="M2016.41,446.43 C2114.54,464.13 2252.5153,489.0247 2347.4653,506.1547 " fill="none" id="aws_ec2_security_group-to-aws_vpc_endpoint" style="stroke:#1A83AF;stroke-width:2.0;"/><polygon fill="#1A83AF" points="2353.37,507.22,2345.2232,501.6856,2348.4494,506.3323,2343.8028,509.5586,2353.37,507.22" style="stroke:#1A83AF;stroke-width:2.0;"/></g><!--link aws_ec2_subnet to aws_alb--><g id="link_aws_ec2_subnet_aws_alb"><path codeLine="108" d="M1572.21,432.84 C1390.44,444.78 965.92,473.72 610,505.94 C568.68,509.69 528.0133,513.997 492.8433,517.907 " fill="none" id="aws_ec2_subnet-to-aws_alb" style="stroke:#1A83AF;stroke-width:2.0;"/><polygon fill="#1A83AF" points="486.88,518.57,496.2669,521.5511,491.8494,518.0175,495.3829,513.6001,486.88,518.57" style="stroke:#1A83AF;stroke-width:2.0;"/></g><!--link aws_ec2_subnet to aws_ec2_network_interface--><g id="link_aws_ec2_subnet_aws_ec2_network_interface"><path codeLine="109" d="M1572.09,431.34 C1463.65,438.61 1290.92,457.64 1251,505.94 C1239.74,519.58 1240.79,531.29 1251,545.73 C1336.26,666.35 1765.584,763.6259 1968.144,803.6859 " fill="none" id="aws_ec2_subnet-to-aws_ec2_network_interface" style="stroke:#1A83AF;stroke-width:2.0;"/><polygon fill="#1A83AF" points="1974.03,804.85,1965.977,799.1799,1969.125,803.8799,1964.425,807.0279,1974.03,804.85" style="stroke:#1A83AF;stroke-width:2.0;"/></g><!--link aws_ec2_subnet to aws_elb--><g id="link_aws_ec2_subnet_aws_elb"><path codeLine="110" d="M1572.43,435.99 C1373.27,455.86 904.5304,502.6344 742.9304,518.7544 " fill="none" id="aws_ec2_subnet-to-aws_elb" style="stroke:#1A83AF;stroke-width:2.0;"/><polygon fill="#1A83AF" points="736.96,519.35,746.3126,522.4369,741.9353,518.8537,745.5185,514.4764,736.96,519.35" style="stroke:#1A83AF;stroke-width:2.0;"/></g><!--link aws_ec2_subnet to aws_lambda_function--><g id="link_aws_ec2_subnet_aws_lambda_function"><path codeLine="111" d="M1606.29,446.37 C1556.85,463.51 1490.6689,486.4643 1441.2689,503.5943 " fill="none" id="aws_ec2_subnet-to-aws_lambda_function" style="stroke:#1A83AF;stroke-width:2.0;"/><polygon fill="#1A83AF" points="1435.6,505.56,1445.4138,506.3906,1440.324,503.9219,1442.7928,498.8322,1435.6,505.56" style="stroke:#1A83AF;stroke-width:2.0;"/></g><!--link aws_ec2_subnet to aws_opensearch_domain--><g id="link_aws_ec2_subnet_aws_opensearch_domain"><path codeLine="112" d="M1660.02,446.37 C1658.27,463.51 1656.3298,482.4611 1654.5798,499.5911 " fill="none" id="aws_ec2_subnet-to-aws_opensearch_domain" style="stroke:#1A83AF;stroke-width:2.0;"/><polygon fill="#1A83AF" points="1653.97,505.56,1658.864,497.0131,1654.4782,500.5859,1650.9054,496.2001,1653.97,505.56" style="stroke:#1A83AF;stroke-width:2.0;"/></g><!--link aws_ec2_subnet to aws_rds_instance--><g id="link_aws_ec2_subnet_aws_rds_instance"><path codeLine="113" d="M1751.9,442.95 C1757.69,443.96 1763.43,444.97 1769,445.94 C1894.05,467.8 2032.527,491.7118 2124.747,507.5918 " fill="none" id="aws_ec2_subnet-to-aws_rds_instance" style="stroke:#1A83AF;stroke-width:2.0;"/><polygon fill="#1A83AF" points="2130.66,508.61,2122.4693,503.1407,2125.7325,507.7615,2121.1117,511.0247,2130.66,508.61" style="stroke:#1A83AF;stroke-width:2.0;"/></g><!--link aws_ec2_subnet to aws_redshift_cluster--><g id="link_aws_ec2_subnet_aws_redshift_cluster"><path codeLine="114" d="M1712.77,446.37 C1757.83,463.51 1817.7022,486.2963 1862.7222,503.4263 " fill="none" id="aws_ec2_subnet-to-aws_redshift_cluster" style="stroke:#1A83AF;stroke-width:2.0;"/><polygon fill="#1A83AF" points="1868.33,505.56,1861.3408,498.6209,1863.6569,503.7819,1858.4958,506.0979,1868.33,505.56" style="stroke:#1A83AF;stroke-width:2.0;"/></g><!--link aws_ec2_subnet to aws_vpc_endpoint--><g id="link_aws_ec2_subnet_aws_vpc_endpoint"><path codeLine="115" d="M1751.83,443.38 C1757.64,444.29 1763.4,445.15 1769,445.94 C2019.92,481.33 2084.87,472.05 2336,505.94 C2341.61,506.7 2341.4447,506.6414 2347.2547,507.5014 " fill="none" id="aws_ec2_subnet-to-aws_vpc_endpoint" style="stroke:#1A83AF;stroke-width:2.0;"/><polygon fill="#1A83AF" points="2353.19,508.38,2344.8727,503.1053,2348.2439,507.6479,2343.7013,511.0191,2353.19,508.38" style="stroke:#1A83AF;stroke-width:2.0;"/></g><!--link aws_elb to aws_ec2_instance--><g id="link_aws_elb_aws_ec2_instance"><path codeLine="116" d="M682,546.14 C682,583.91 682,661.2 682,699.03 " fill="none" id="aws_elb-to-aws_ec2_instance" style="stroke:#1A83AF;stroke-width:2.0;"/><polygon fill="#1A83AF" points="682,705.03,686,696.03,682,700.03,678,696.03,682,705.03" style="stroke:#1A83AF;stroke-width:2.0;"/></g><!--link aws_rds_instance to aws_rds_snapshot--><g id="link_aws_rds_instance_aws_rds_snapshot"><path codeLine="117" d="M2130.53,542.82 C2023.94,560.85 1857.376,589.0396 1749.806,607.2296 " fill="none" id="aws_rds_instance-to-aws_rds_snapshot" style="stroke:#1A83AF;stroke-width:2.0;"/><polygon fill="#1A83AF" points="1743.89,608.23,1753.4309,610.6734,1748.82,607.3963,1752.0971,602.7854,1743.89,608.23" style="stroke:#1A83AF;stroke-width:2.0;"/></g><!--link aws_region to aws_alb--><g id="link_aws_region_aws_alb"><path codeLine="118" d="M2334.15,28.41 C1971.87,31.36 299.61,48.16 208,106.79 C158.22,138.65 148,166.37 148,225.47 C148,225.47 148,225.47 148,327.26 C148,437.78 288.9033,489.9894 371.4333,511.4594 " fill="none" id="aws_region-to-aws_alb" style="stroke:#1A83AF;stroke-width:2.0;"/><polygon fill="#1A83AF" points="377.24,512.97,369.537,506.8329,372.4011,511.7112,367.5228,514.5752,377.24,512.97" style="stroke:#1A83AF;stroke-width:2.0;"/></g><!--link aws_region to aws_alb_target_group--><g id="link_aws_region_aws_alb_target_group"><path codeLine="119" d="M2334.23,28.57 C1967.54,32.38 255.57,53.04 158,106.79 C102.06,137.6 77,161.61 77,225.47 C77,225.47 77,225.47 77,427.05 C77,558.94 245.6131,602.1125 366.6531,616.6925 " fill="none" id="aws_region-to-aws_alb_target_group" style="stroke:#1A83AF;stroke-width:2.0;"/><polygon fill="#1A83AF" points="372.61,617.41,364.153,612.3624,367.6459,616.812,363.1962,620.305,372.61,617.41" style="stroke:#1A83AF;stroke-width:2.0;"/></g><!--link aws_region to aws_ec2_instance--><g id="link_aws_region_aws_ec2_instance"><path codeLine="120" d="M2334.22,28.59 C1961.59,32.55 197.8,54.04 96,106.79 C37.22,137.24 6,159.27 6,225.47 C6,225.47 6,225.47 6,526.84 C6,646.13 392.7579,697.7816 579.5279,715.8716 " fill="none" id="aws_region-to-aws_ec2_instance" style="stroke:#1A83AF;stroke-width:2.0;"/><polygon fill="#1A83AF" points="585.5,716.45,576.9275,711.601,580.5233,715.968,576.1563,719.5637,585.5,716.45" style="stroke:#1A83AF;stroke-width:2.0;"/></g><!--link aws_region to aws_ec2_internet_gateway--><g id="link_aws_region_aws_ec2_internet_gateway"><path codeLine="121" d="M2393.32,46.95 C2366.12,100.53 2291.8566,246.7702 2264.5066,300.6302 " fill="none" id="aws_region-to-aws_ec2_internet_gateway" style="stroke:#1A83AF;stroke-width:2.0;"/><polygon fill="#1A83AF" points="2261.79,305.98,2269.4314,299.7664,2264.0538,301.5219,2262.2984,296.1443,2261.79,305.98" style="stroke:#1A83AF;stroke-width:2.0;"/></g><!--link aws_region to aws_ec2_nat_gateway--><g id="link_aws_region_aws_ec2_nat_gateway"><path codeLine="122" d="M2468.2,47.21 C2525.96,64.33 2604.0972,87.4854 2661.9072,104.6154 " fill="none" id="aws_region-to-aws_ec2_nat_gateway" style="stroke:#1A83AF;stroke-width:2.0;"/><polygon fill="#1A83AF" points="2667.66,106.32,2660.1673,99.9279,2662.866,104.8995,2657.8944,107.5982,2667.66,106.32" style="stroke:#1A83AF;stroke-width:2.0;"/></g><!--link aws_region to aws_ec2_network_acl--><g id="link_aws_region_aws_ec2_network_acl"><path codeLine="123" d="M2365.65,47.17 C2261.45,100.97 1973.7016,249.5279 1869.5916,303.2679 " fill="none" id="aws_region-to-aws_ec2_network_acl" style="stroke:#1A83AF;stroke-width:2.0;"/><polygon fill="#1A83AF" points="1864.26,306.02,1874.0921,305.4463,1868.703,303.7266,1870.4227,298.3375,1864.26,306.02" style="stroke:#1A83AF;stroke-width:2.0;"/></g><!--link aws_region to aws_ec2_network_interface--><g id="link_aws_region_aws_ec2_network_interface"><path codeLine="124" d="M2471.82,28.86 C2653.55,32.24 3142.47,46.79 3291,106.79 C3368.86,138.24 3438,141.5 3438,225.47 C3438,225.47 3438,225.47 3438,626.63 C3438,749.2 2567.6334,802.0195 2221.8834,818.1995 " fill="none" id="aws_region-to-aws_ec2_network_interface" style="stroke:#1A83AF;stroke-width:2.0;"/><polygon fill="#1A83AF" points="2215.89,818.48,2225.0671,822.0549,2220.8845,818.2463,2224.6932,814.0637,2215.89,818.48" style="stroke:#1A83AF;stroke-width:2.0;"/></g><!--link aws_region to aws_ec2_route_table--><g id="link_aws_region_aws_ec2_route_table"><path codeLine="125" d="M2471.53,31.15 C2596.03,38.2 2853.3,58.32 2927,106.79 C3002.03,156.13 3041.2216,256.965 3055.3916,300.465 " fill="none" id="aws_region-to-aws_ec2_route_table" style="stroke:#1A83AF;stroke-width:2.0;"/><polygon fill="#1A83AF" points="3057.25,306.17,3058.2657,296.3737,3055.7014,301.4159,3050.6591,298.8515,3057.25,306.17" style="stroke:#1A83AF;stroke-width:2.0;"/></g><!--link aws_region to aws_ec2_security_group--><g id="link_aws_region_aws_ec2_security_group"><path codeLine="126" d="M2471.79,29.19 C2588.23,33 2816.37,47.98 2866,106.79 C2914.72,164.51 3005.49,185 2820,346.15 C2761.77,396.75 2272.7678,415.8384 2037.8278,422.1684 " fill="none" id="aws_region-to-aws_ec2_security_group" style="stroke:#1A83AF;stroke-width:2.0;"/><polygon fill="#1A83AF" points="2031.83,422.33,2040.9345,426.0861,2036.8282,422.1953,2040.719,418.0891,2031.83,422.33" style="stroke:#1A83AF;stroke-width:2.0;"/></g><!--link aws_region to aws_ec2_subnet--><g id="link_aws_region_aws_ec2_subnet"><path codeLine="127" d="M2432.52,47.08 C2521.88,106.24 2779.99,285.47 2723,346.15 C2650.29,423.58 1874.46,393.57 1769,406.15 C1763.38,406.83 1763.5483,406.7415 1757.7383,407.5815 " fill="none" id="aws_region-to-aws_ec2_subnet" style="stroke:#1A83AF;stroke-width:2.0;"/><polygon fill="#1A83AF" points="1751.8,408.44,1761.2797,411.111,1756.7485,407.7245,1760.135,403.1933,1751.8,408.44" style="stroke:#1A83AF;stroke-width:2.0;"/></g><!--link aws_region to aws_elb--><g id="link_aws_region_aws_elb"><path codeLine="128" d="M2334.26,27.68 C1993.62,27.5 503,37.47 503,225.47 C503,225.47 503,225.47 503,327.26 C503,411.04 587.2873,472.1141 639.7173,502.4641 " fill="none" id="aws_region-to-aws_elb" style="stroke:#1A83AF;stroke-width:2.0;"/><polygon fill="#1A83AF" points="644.91,505.47,639.1248,497.4993,640.5827,502.9651,635.117,504.423,644.91,505.47" style="stroke:#1A83AF;stroke-width:2.0;"/></g><!--link aws_region to aws_rds_instance--><g id="link_aws_region_aws_rds_instance"><path codeLine="129" d="M2471.9,30.98 C2698.19,43.51 3392.88,102.27 3190,346.15 C3182.98,354.6 2566.7982,464.3742 2325.2782,507.1242 " fill="none" id="aws_region-to-aws_rds_instance" style="stroke:#1A83AF;stroke-width:2.0;"/><polygon fill="#1A83AF" points="2319.37,508.17,2328.9294,510.5401,2324.2935,507.2985,2327.5351,502.6626,2319.37,508.17" style="stroke:#1A83AF;stroke-width:2.0;"/></g><!--link aws_region to aws_service_quota--><g id="link_aws_region_aws_service_quota"><path codeLine="130" d="M2334.21,28.65 C2084.43,31.86 1201.99,46.98 477,106.79 C460.04,108.19 448.0197,109.3759 430.5897,111.4059 " fill="none" id="aws_region-to-aws_service_quota" style="stroke:#1A83AF;stroke-width:2.0;"/><polygon fill="#1A83AF" points="424.63,112.1,434.0323,115.032,429.5964,111.5216,433.1068,107.0857,424.63,112.1" style="stroke:#1A83AF;stroke-width:2.0;"/></g><!--link aws_region to aws_vpc--><g id="link_aws_region_aws_vpc"><path codeLine="131" d="M2334.28,40.27 C2252.71,55.16 2112.64,81.34 1993,106.79 C1827.92,141.9 1639.8478,187.2131 1546.1578,210.1531 " fill="none" id="aws_region-to-aws_vpc" style="stroke:#1A83AF;stroke-width:2.0;"/><polygon fill="#1A83AF" points="1540.33,211.58,1550.0231,213.3248,1545.1865,210.3909,1548.1205,205.5543,1540.33,211.58" style="stroke:#1A83AF;stroke-width:2.0;"/></g><!--link aws_region to aws_vpc_endpoint--><g id="link_aws_region_aws_vpc_endpoint"><path codeLine="132" d="M2471.95,29.1 C2664.77,33.18 3198.87,49.58 3251,106.79 C3322.66,185.42 3317.52,263.13 3251,346.15 C3163.96,454.78 2748.7694,501.233 2554.9594,517.343 " fill="none" id="aws_region-to-aws_vpc_endpoint" style="stroke:#1A83AF;stroke-width:2.0;"/><polygon fill="#1A83AF" points="2548.98,517.84,2558.2804,521.0807,2553.9628,517.4258,2557.6177,513.1082,2548.98,517.84" style="stroke:#1A83AF;stroke-width:2.0;"/></g><!--link aws_region to aws_vpc_peering_connection--><g id="link_aws_region_aws_vpc_peering_connection"><path codeLine="133" d="M2413.32,46.95 C2442.33,100.53 2521.5434,246.8437 2550.7034,300.7037 " fill="none" id="aws_region-to-aws_vpc_peering_connection" style="stroke:#1A83AF;stroke-width:2.0;"/><polygon fill="#1A83AF" points="2553.56,305.98,2552.7926,296.1611,2551.1795,301.5831,2545.7575,299.9699,2553.56,305.98" style="stroke:#1A83AF;stroke-width:2.0;"/></g><!--link aws_service_quota to aws_alb--><g id="link_aws_service_quota_aws_alb"><path codeLine="134" d="M304.21,146.84 C289.84,161.58 271.95,183.31 264,206.58 C243.95,265.28 241.15,288.48 264,346.15 C292.16,417.21 358.563,472.9472 398.643,502.0172 " fill="none" id="aws_service_quota-to-aws_alb" style="stroke:#1A83AF;stroke-width:2.0;"/><polygon fill="#1A83AF" points="403.5,505.54,398.563,497.0179,399.4525,502.6044,393.866,503.4938,403.5,505.54" style="stroke:#1A83AF;stroke-width:2.0;"/></g><!--link aws_service_quota to aws_elb--><g id="link_aws_service_quota_aws_elb"><path codeLine="135" d="M328.9,146.75 C340.99,201.16 382.82,358.85 477,445.94 C519,484.78 576.3091,503.8606 621.4191,514.1106 " fill="none" id="aws_service_quota-to-aws_elb" style="stroke:#1A83AF;stroke-width:2.0;"/><polygon fill="#1A83AF" points="627.27,515.44,619.38,509.5453,622.3943,514.3321,617.6074,517.3464,627.27,515.44" style="stroke:#1A83AF;stroke-width:2.0;"/></g><!--link aws_service_quota to aws_vpc--><g id="link_aws_service_quota_aws_vpc"><path codeLine="136" d="M424.82,136.1 C660.24,155.97 1238.1413,204.7254 1421.7913,220.2254 " fill="none" id="aws_service_quota-to-aws_vpc" style="stroke:#1A83AF;stroke-width:2.0;"/><polygon fill="#1A83AF" points="1427.77,220.73,1419.1383,215.9873,1422.7877,220.3095,1418.4655,223.9589,1427.77,220.73" style="stroke:#1A83AF;stroke-width:2.0;"/></g><!--link aws_vpc to aws_alb--><g id="link_aws_vpc_aws_alb"><path codeLine="137" d="M1427.64,229.1 C1236.61,235.07 621.45,257.88 548,306.37 C475.96,353.91 446.8262,455.6217 437.0862,499.6417 " fill="none" id="aws_vpc-to-aws_alb" style="stroke:#1A83AF;stroke-width:2.0;"/><polygon fill="#1A83AF" points="435.79,505.5,441.6399,497.5767,436.8702,500.6181,433.8288,495.8484,435.79,505.5" style="stroke:#1A83AF;stroke-width:2.0;"/></g><!--link aws_vpc to aws_alb_target_group--><g id="link_aws_vpc_aws_alb_target_group"><path codeLine="138" d="M1427.75,229.7 C1251.09,237.13 715.24,263.03 651,306.37 C595.53,343.78 518.9747,537.2188 495.1947,600.0188 " fill="none" id="aws_vpc-to-aws_alb_target_group" style="stroke:#1A83AF;stroke-width:2.0;"/><polygon fill="#1A83AF" points="493.07,605.63,499.9979,598.6297,494.8406,600.954,492.5163,595.7967,493.07,605.63" style="stroke:#1A83AF;stroke-width:2.0;"/></g><!--link aws_vpc to aws_ec2_flow_log--><g id="link_aws_vpc_aws_ec2_flow_log"><path codeLine="139" d="M1427.63,235.05 C1325.67,248.81 1103.84,279.02 917,306.37 C908.34,307.63 905.2829,308.0755 896.2629,309.4355 " fill="none" id="aws_vpc-to-aws_ec2_flow_log" style="stroke:#1A83AF;stroke-width:2.0;"/><polygon fill="#1A83AF" points="890.33,310.33,899.8258,312.9435,895.2741,309.5845,898.633,305.0329,890.33,310.33" style="stroke:#1A83AF;stroke-width:2.0;"/></g><!--link aws_vpc to aws_ec2_instance--><g id="link_aws_vpc_aws_ec2_instance"><path codeLine="140" d="M1427.76,231.64 C1320.2,240.49 1090.13,263.89 1024,306.37 C970.27,340.88 943,361.19 943,425.05 C943,425.05 943,425.05 943,526.84 C943,623.31 833.9186,676.7826 756.5986,703.1626 " fill="none" id="aws_vpc-to-aws_ec2_instance" style="stroke:#1A83AF;stroke-width:2.0;"/><polygon fill="#1A83AF" points="750.92,705.1,760.7295,705.9796,755.6522,703.4855,758.1463,698.4081,750.92,705.1" style="stroke:#1A83AF;stroke-width:2.0;"/></g><!--link aws_vpc to aws_ec2_internet_gateway--><g id="link_aws_vpc_aws_ec2_internet_gateway"><path codeLine="141" d="M1540.47,234.66 C1660.85,249.99 1939.6381,285.482 2110.1781,307.202 " fill="none" id="aws_vpc-to-aws_ec2_internet_gateway" style="stroke:#1A83AF;stroke-width:2.0;"/><polygon fill="#1A83AF" points="2116.13,307.96,2107.7075,302.855,2111.1701,307.3283,2106.6968,310.7909,2116.13,307.96" style="stroke:#1A83AF;stroke-width:2.0;"/></g><!--link aws_vpc to aws_ec2_network_acl--><g id="link_aws_vpc_aws_ec2_network_acl"><path codeLine="142" d="M1540.26,243.51 C1600.22,260.6 1689.3899,286.025 1753.4399,304.285 " fill="none" id="aws_vpc-to-aws_ec2_network_acl" style="stroke:#1A83AF;stroke-width:2.0;"/><polygon fill="#1A83AF" points="1759.21,305.93,1751.6515,299.6158,1754.4016,304.5592,1749.4582,307.3092,1759.21,305.93" style="stroke:#1A83AF;stroke-width:2.0;"/></g><!--link aws_vpc to aws_ec2_network_interface--><g id="link_aws_vpc_aws_ec2_network_interface"><path codeLine="143" d="M1427.52,226.79 C1243.73,225.37 665.08,227.42 499,306.37 C377.64,364.06 290,390.46 290,524.84 C290,524.84 290,524.84 290,626.63 C290,760.97 437.13,714.97 568,745.31 C826.52,805.26 1612.5903,819.6558 1934.1603,823.0958 " fill="none" id="aws_vpc-to-aws_ec2_network_interface" style="stroke:#1A83AF;stroke-width:2.0;"/><polygon fill="#1A83AF" points="1940.16,823.16,1931.2033,819.064,1935.1603,823.1065,1931.1177,827.0635,1940.16,823.16" style="stroke:#1A83AF;stroke-width:2.0;"/></g><!--link aws_vpc to aws_ec2_route_table--><g id="link_aws_vpc_aws_ec2_route_table"><path codeLine="144" d="M1540.2,230.95 C1770.46,245.21 2638.1915,298.9492 2947.6015,318.1092 " fill="none" id="aws_vpc-to-aws_ec2_route_table" style="stroke:#1A83AF;stroke-width:2.0;"/><polygon fill="#1A83AF" points="2953.59,318.48,2944.8544,313.9314,2948.5996,318.171,2944.36,321.9161,2953.59,318.48" style="stroke:#1A83AF;stroke-width:2.0;"/></g><!--link aws_vpc to aws_ec2_security_group--><g id="link_aws_vpc_aws_ec2_security_group"><path codeLine="145" d="M1515.14,246.67 C1556.13,271.49 1630.87,315.2 1698,346.15 C1748.25,369.33 1801.746,389.0391 1844.616,403.7791 " fill="none" id="aws_vpc-to-aws_ec2_security_group" style="stroke:#1A83AF;stroke-width:2.0;"/><polygon fill="#1A83AF" points="1850.29,405.73,1843.0796,399.021,1845.5617,404.1043,1840.4784,406.5863,1850.29,405.73" style="stroke:#1A83AF;stroke-width:2.0;"/></g><!--link aws_vpc to aws_ec2_subnet--><g id="link_aws_vpc_aws_ec2_subnet"><path codeLine="146" d="M1501.39,246.78 C1535.42,284.55 1606.434,363.3722 1640.524,401.2122 " fill="none" id="aws_vpc-to-aws_ec2_subnet" style="stroke:#1A83AF;stroke-width:2.0;"/><polygon fill="#1A83AF" points="1644.54,405.67,1641.4878,396.306,1641.1933,401.9552,1635.5442,401.6607,1644.54,405.67" style="stroke:#1A83AF;stroke-width:2.0;"/></g><!--link aws_vpc to aws_elb--><g id="link_aws_vpc_aws_elb"><path codeLine="147" d="M1427.51,228.73 C1252.83,233.18 730.14,251.07 680,306.37 C629.3,362.29 656.5524,457.6512 672.1324,499.8612 " fill="none" id="aws_vpc-to-aws_elb" style="stroke:#1A83AF;stroke-width:2.0;"/><polygon fill="#1A83AF" points="674.21,505.49,674.8461,495.6617,672.4786,500.7993,667.341,498.4319,674.21,505.49" style="stroke:#1A83AF;stroke-width:2.0;"/></g><!--link aws_vpc to aws_lambda_function--><g id="link_aws_vpc_aws_lambda_function"><path codeLine="148" d="M1427.52,229.11 C1321.14,233.52 1097.48,249.48 1050,306.37 C969.21,403.16 1167.9858,471.9197 1290.3458,503.9697 " fill="none" id="aws_vpc-to-aws_lambda_function" style="stroke:#1A83AF;stroke-width:2.0;"/><polygon fill="#1A83AF" points="1296.15,505.49,1288.4572,499.3401,1291.3132,504.2231,1286.4302,507.079,1296.15,505.49" style="stroke:#1A83AF;stroke-width:2.0;"/></g><!--link aws_vpc to aws_opensearch_domain--><g id="link_aws_vpc_aws_opensearch_domain"><path codeLine="149" d="M1478.92,246.63 C1469.36,287.18 1453.11,383.08 1494,445.94 C1512.81,474.86 1540.0039,491.4259 1570.8539,503.3559 " fill="none" id="aws_vpc-to-aws_opensearch_domain" style="stroke:#1A83AF;stroke-width:2.0;"/><polygon fill="#1A83AF" points="1576.45,505.52,1569.4985,498.5431,1571.7866,503.7166,1566.6131,506.0046,1576.45,505.52" style="stroke:#1A83AF;stroke-width:2.0;"/></g><!--link aws_vpc to aws_rds_cluster_snapshot--><g id="link_aws_vpc_aws_rds_cluster_snapshot"><path codeLine="150" d="M1427.79,246.56 C1377.37,263.68 1309.4112,286.7504 1258.7412,303.9604 " fill="none" id="aws_vpc-to-aws_rds_cluster_snapshot" style="stroke:#1A83AF;stroke-width:2.0;"/><polygon fill="#1A83AF" points="1253.06,305.89,1262.8683,306.7831,1257.7944,304.282,1260.2954,299.2081,1253.06,305.89" style="stroke:#1A83AF;stroke-width:2.0;"/></g><!--link aws_vpc to aws_rds_instance--><g id="link_aws_vpc_aws_rds_instance"><path codeLine="151" d="M1540.45,227.72 C1631.8,230.1 1815.9,243.15 1956,306.37 C1963.16,309.6 2133.2871,449.3574 2197.2171,501.9674 " fill="none" id="aws_vpc-to-aws_rds_instance" style="stroke:#1A83AF;stroke-width:2.0;"/><polygon fill="#1A83AF" points="2201.85,505.78,2197.4423,496.9725,2197.9892,502.6028,2192.3589,503.1497,2201.85,505.78" style="stroke:#1A83AF;stroke-width:2.0;"/></g><!--link aws_vpc to aws_rds_snapshot--><g id="link_aws_vpc_aws_rds_snapshot"><path codeLine="152" d="M1462.57,246.62 C1396.76,306.47 1204.74,489.35 1251,545.73 C1288.13,590.99 1439.3487,610.2969 1544.1687,618.5869 " fill="none" id="aws_vpc-to-aws_rds_snapshot" style="stroke:#1A83AF;stroke-width:2.0;"/><polygon fill="#1A83AF" points="1550.15,619.06,1541.4934,614.3629,1545.1656,618.6658,1540.8626,622.338,1550.15,619.06" style="stroke:#1A83AF;stroke-width:2.0;"/></g><!--link aws_vpc to aws_redshift_cluster--><g id="link_aws_vpc_aws_redshift_cluster"><path codeLine="153" d="M1487.72,246.76 C1497.39,294.93 1524.67,418.53 1555,445.94 C1574.22,463.32 1706.0984,488.8241 1806.4784,506.2441 " fill="none" id="aws_vpc-to-aws_redshift_cluster" style="stroke:#1A83AF;stroke-width:2.0;"/><polygon fill="#1A83AF" points="1812.39,507.27,1804.2065,501.79,1807.4636,506.4151,1802.8386,509.6722,1812.39,507.27" style="stroke:#1A83AF;stroke-width:2.0;"/></g><!--link aws_vpc to aws_vpc_endpoint--><g id="link_aws_vpc_aws_vpc_endpoint"><path codeLine="154" d="M1540.39,230.38 C1637.35,236.61 1841.06,255.13 2005,306.37 C2047.64,319.69 2308.206,451.902 2407.936,502.812 " fill="none" id="aws_vpc-to-aws_vpc_endpoint" style="stroke:#1A83AF;stroke-width:2.0;"/><polygon fill="#1A83AF" points="2413.28,505.54,2407.0827,497.8854,2408.8267,503.2667,2403.4454,505.0107,2413.28,505.54" style="stroke:#1A83AF;stroke-width:2.0;"/></g><!--link aws_vpc to aws_vpc_peering_connection--><g id="link_aws_vpc_aws_vpc_peering_connection"><path codeLine="155" d="M1540.39,231.65 C1684.49,242.48 2077.92,272.93 2405,306.37 C2410.53,306.93 2410.2042,306.8804 2415.8942,307.4904 " fill="none" id="aws_vpc-to-aws_vpc_peering_connection" style="stroke:#1A83AF;stroke-width:2.0;"/><polygon fill="#1A83AF" points="2421.86,308.13,2413.3377,303.1934,2416.8885,307.597,2412.4849,311.1479,2421.86,308.13" style="stroke:#1A83AF;stroke-width:2.0;"/></g><!--link aws_vpc_endpoint to aws_ec2_network_interface--><g id="link_aws_vpc_endpoint_aws_ec2_network_interface"><path codeLine="156" d="M2426.81,546.12 C2359.33,599.92 2174.2312,747.4794 2106.8212,801.2294 " fill="none" id="aws_vpc_endpoint-to-aws_ec2_network_interface" style="stroke:#1A83AF;stroke-width:2.0;"/><polygon fill="#1A83AF" points="2102.13,804.97,2111.6606,802.4866,2106.0394,801.8528,2106.6731,796.2316,2102.13,804.97" style="stroke:#1A83AF;stroke-width:2.0;"/></g><!--SRC=[hPPDQzmm48Rl_XM6d0FPX3R9fR09XFOIIjDRAM8iZNVDsf8hoLcsfV-zThQRoDQCx4AlUf-HHlCbRIk5EJQjF-GDDWLQbxbTfLkmqEHhQyt-tjJ6vcTb2UNLzLHyCDhF0e_GOFuHwsVqbOGfyNLRoPr6v_BBGBe3kTjOqsbrtDvRqAwNKFk0kg_1kRNtjYewZu4pwhQuASifETtqx4gjhjzZX1chqFv5BYukrEfsYimUbRptA_5K_SHy5GRjqNYCt8oEUA6INWv4u6HqqPFE-lWPbAhq9dyNh7qv-cGrsj7wqnQKsGzq2RKBZt4UBHf_QF4-kXNUtgZoceG_SN0cXz3bi7S2wYB_bMM_nql2WzsW5uDnEzLHNegoDdjHcmsbLTfvq19fhVTE3pk3npqSA4P3MaQ_DtOdGDOf-UMa4cWt-cjvx2zPrAJiK7QsyWV-_guh-eCY9Gvc3KsXG9ITbhuoUYgR5hL3i78hb6cWYW2hd91rDoHLE0sjsnfFCLpG1usrG-MsLUbF1yJwXd3PeNsk98eVdV4m5PzRIIm9rAerVKOehKMqVT4BQRJ684YdwZp_ThPQtroj7xwVVo3hCoEBDZ8BIpEBQfN4erhAg1hztwR7sbh6zm7CgCPOid7O1DJ6hrdBcBwWChEOJGTfrleVJfgqu6Axg3SNMuODkTneqesB3UbK7GTKEaKCCvCQpch1pcmg63wH0iQ23Zq7io5d3E9GKmCgcZIZ0KswV1hHMJ1tsTmbz7WmSd3iP18SFzkp1i7GccVVvjPYTboMAOjWoisouqwRnz_cAOlDf2mgLmuSlRf9ylGa9FHn3QV0-77EuZy0MwWp62x3JXSQ_XRiKPmODmH9Xd_QD3NALe8Y6eQbfnqm2uxBdyMdjS-2HE7px5lLqqmg8zG3G8Bqv2THwekSfkTp6CracgBU3vACcewbc8uR_Q8NriOV]--></g></svg>