<svg xmlns="http://www.w3.org/2000/svg" width="3445" height="851" viewBox="0 0 3445 851"><rect width="109" height="39.789" x="377.5" y="505.94" fill="#3D176E" rx="2.5" ry="2.5" style="stroke:#000d19;stroke-width:.5"/><circle cx="392.5" cy="525.835" r="11" fill="#ADD1B2" style="stroke:#181818;stroke-width:1"/><path d="M395.469 531.475q-.578.297-1.219.438-.64.156-1.344.156-2.5 0-3.828-1.64-1.312-1.657-1.312-4.782t1.312-4.781q1.328-1.656 3.828-1.656.703 0 1.344.156.656.156 1.219.453v2.719q-.625-.578-1.219-.844-.594-.281-1.219-.281-1.344 0-2.031 1.078-.687 1.062-.687 3.156t.687 3.172q.688 1.062 2.031 1.062.625 0 1.219-.265.594-.281 1.219-.86z"/><text x="411.5" y="531.72" fill="#D9B8FF" font-family="Helvetica" font-size="17" textLength="67">aws_alb</text><rect width="226" height="39.789" x="373" y="605.73" fill="#3D176E" rx="2.5" ry="2.5" style="stroke:#000d19;stroke-width:.5"/><circle cx="388" cy="625.625" r="11" fill="#ADD1B2" style="stroke:#181818;stroke-width:1"/><path d="M390.969 631.265q-.578.297-1.219.438-.64.156-1.344.156-2.5 0-3.828-1.64-1.312-1.657-1.312-4.782t1.312-4.781q1.328-1.656 3.828-1.656.703 0 1.344.156.656.156 1.219.453v2.719q-.625-.578-1.219-.844-.594-.281-1.219-.281-1.344 0-2.031 1.078-.687 1.062-.687 3.156t.687 3.172q.688 1.062 2.031 1.062.625 0 1.219-.265.594-.281 1.219-.86z"/><text x="407" y="631.51" fill="#D9B8FF" font-family="Helvetica" font-size="17" textLength="184">aws_alb_target_group</text><rect width="192" height="39.789" x="698" y="306.37" fill="#3D176E" rx="2.5" ry="2.5" style="stroke:#000d19;stroke-width:.5"/><circle cx="713" cy="326.264" r="11" fill="#ADD1B2" style="stroke:#181818;stroke-width:1"/><path d="M715.969 331.905q-.578.297-1.219.438-.64.156-1.344.156-2.5 0-3.828-1.64-1.312-1.657-1.312-4.782t1.312-4.781q1.328-1.656 3.828-1.656.703 0 1.344.156.656.156 1.219.453v2.719q-.625-.579-1.219-.844-.594-.281-1.219-.281-1.343 0-2.031 1.078-.687 1.062-.687 3.156t.687 3.172q.688 1.062 2.031 1.062.625 0 1.219-.265.594-.281 1.219-.86z"/><text x="732" y="332.15" fill="#D9B8FF" font-family="Helvetica" font-size="17" textLength="150">aws_ec2_flow_log</text><rect width="192" height="39.789" x="586" y="705.52" fill="#3D176E" rx="2.5" ry="2.5" style="stroke:#000d19;stroke-width:.5"/><circle cx="601" cy="725.414" r="11" fill="#ADD1B2" style="stroke:#181818;stroke-width:1"/><path d="M603.969 731.055q-.578.297-1.219.438-.64.156-1.344.156-2.5 0-3.828-1.64-1.312-1.657-1.312-4.782t1.312-4.781q1.328-1.657 3.828-1.657.703 0 1.344.157.656.156 1.219.453v2.719q-.625-.579-1.219-.844-.594-.281-1.219-.281-1.343 0-2.031 1.078-.687 1.062-.687 3.156t.687 3.172q.688 1.062 2.031 1.062.625 0 1.219-.265.594-.282 1.219-.86z"/><text x="620" y="731.3" fill="#D9B8FF" font-family="Helvetica" font-size="17" textLength="150">aws_ec2_instance</text><rect width="271" height="39.789" x="2116.5" y="306.37" fill="#3D176E" rx="2.5" ry="2.5" style="stroke:#000d19;stroke-width:.5"/><circle cx="2131.5" cy="326.264" r="11" fill="#ADD1B2" style="stroke:#181818;stroke-width:1"/><path d="M2134.469 331.905q-.578.297-1.219.438-.64.156-1.344.156-2.5 0-3.828-1.64-1.312-1.657-1.312-4.782t1.312-4.781q1.328-1.656 3.828-1.656.703 0 1.344.156.656.156 1.219.453v2.719q-.625-.579-1.219-.844-.594-.281-1.219-.281-1.343 0-2.031 1.078-.687 1.062-.687 3.156t.687 3.172q.688 1.062 2.031 1.062.625 0 1.219-.265.594-.281 1.219-.86z"/><text x="2150.5" y="332.15" fill="#D9B8FF" font-family="Helvetica" font-size="17" textLength="229">aws_ec2_internet_gateway</text><rect width="231" height="39.789" x="2617.5" y="106.79" fill="#3D176E" rx="2.5" ry="2.5" style="stroke:#000d19;stroke-width:.5"/><circle cx="2632.5" cy="126.684" r="11" fill="#ADD1B2" style="stroke:#181818;stroke-width:1"/><path d="M2635.469 132.325q-.578.297-1.219.438-.64.156-1.344.156-2.5 0-3.828-1.64-1.312-1.657-1.312-4.782t1.312-4.781q1.328-1.656 3.828-1.656.703 0 1.344.156.656.156 1.219.453v2.719q-.625-.579-1.219-.844-.594-.281-1.219-.281-1.343 0-2.031 1.078-.687 1.062-.687 3.156t.687 3.172q.688 1.062 2.031 1.062.625 0 1.219-.265.594-.281 1.219-.86z"/><text x="2651.5" y="132.57" fill="#D9B8FF" font-family="Helvetica" font-size="17" textLength="189">aws_ec2_nat_gateway</text><rect width="224" height="39.789" x="1715" y="306.37" fill="#3D176E" rx="2.5" ry="2.5" style="stroke:#000d19;stroke-width:.5"/><circle cx="1730" cy="326.264" r="11" fill="#ADD1B2" style="stroke:#181818;stroke-width:1"/><path d="M1732.969 331.905q-.578.297-1.219.438-.64.156-1.344.156-2.5 0-3.828-1.64-1.312-1.657-1.312-4.782t1.312-4.781q1.328-1.656 3.828-1.656.703 0 1.344.156.656.156 1.219.453v2.719q-.625-.579-1.219-.844-.594-.281-1.219-.281-1.343 0-2.031 1.078-.687 1.062-.687 3.156t.687 3.172q.688 1.062 2.031 1.062.625 0 1.219-.265.594-.281 1.219-.86z"/><text x="1749" y="332.15" fill="#D9B8FF" font-family="Helvetica" font-size="17" textLength="182">aws_ec2_network_acl</text><rect width="275" height="39.789" x="1940.5" y="805.31" fill="#3D176E" rx="2.5" ry="2.5" style="stroke:#000d19;stroke-width:.5"/><circle cx="1955.5" cy="825.205" r="11" fill="#ADD1B2" style="stroke:#181818;stroke-width:1"/><path d="M1958.469 830.845q-.578.297-1.219.438-.64.156-1.344.156-2.5 0-3.828-1.64-1.312-1.657-1.312-4.782t1.312-4.781q1.328-1.656 3.828-1.656.703 0 1.344.156.656.156 1.219.453v2.719q-.625-.578-1.219-.844-.594-.281-1.219-.281-1.343 0-2.031 1.078-.687 1.062-.687 3.156t.687 3.172q.688 1.062 2.031 1.062.625 0 1.219-.265.594-.281 1.219-.86z"/><text x="1974.5" y="831.09" fill="#D9B8FF" font-family="Helvetica" font-size="17" textLength="233">aws_ec2_network_interface</text><rect width="218" height="39.789" x="2954" y="306.37" fill="#3D176E" rx="2.5" ry="2.5" style="stroke:#000d19;stroke-width:.5"/><circle cx="2969" cy="326.264" r="11" fill="#ADD1B2" style="stroke:#181818;stroke-width:1"/><path d="M2971.969 331.905q-.578.297-1.219.438-.64.156-1.344.156-2.5 0-3.828-1.64-1.312-1.657-1.312-4.782t1.312-4.781q1.328-1.656 3.828-1.656.703 0 1.344.156.656.156 1.219.453v2.719q-.625-.579-1.219-.844-.594-.281-1.219-.281-1.343 0-2.031 1.078-.687 1.062-.687 3.156t.687 3.172q.688 1.062 2.031 1.062.625 0 1.219-.265.594-.281 1.219-.86z"/><text x="2988" y="332.15" fill="#D9B8FF" font-family="Helvetica" font-size="17" textLength="176">aws_ec2_route_table</text><rect width="245" height="39.789" x="1786.5" y="406.15" fill="#3D176E" rx="2.5" ry="2.5" style="stroke:#000d19;stroke-width:.5"/><circle cx="1801.5" cy="426.045" r="11" fill="#ADD1B2" style="stroke:#181818;stroke-width:1"/><path d="M1804.469 431.685q-.578.297-1.219.438-.64.156-1.344.156-2.5 0-3.828-1.64-1.312-1.657-1.312-4.782t1.312-4.781q1.328-1.656 3.828-1.656.703 0 1.344.156.656.156 1.219.453v2.719q-.625-.578-1.219-.844-.594-.281-1.219-.281-1.343 0-2.031 1.078-.687 1.062-.687 3.156t.687 3.172q.688 1.062 2.031 1.062.625 0 1.219-.265.594-.281 1.219-.86z"/><text x="1820.5" y="431.93" fill="#D9B8FF" font-family="Helvetica" font-size="17" textLength="203">aws_ec2_security_group</text><rect width="179" height="39.789" x="1572.5" y="406.15" fill="#3D176E" rx="2.5" ry="2.5" style="stroke:#000d19;stroke-width:.5"/><circle cx="1587.5" cy="426.045" r="11" fill="#ADD1B2" style="stroke:#181818;stroke-width:1"/><path d="M1590.469 431.685q-.578.297-1.219.438-.64.156-1.344.156-2.5 0-3.828-1.64-1.312-1.657-1.312-4.782t1.312-4.781q1.328-1.656 3.828-1.656.703 0 1.344.156.656.156 1.219.453v2.719q-.625-.578-1.219-.844-.594-.281-1.219-.281-1.343 0-2.031 1.078-.687 1.062-.687 3.156t.687 3.172q.688 1.062 2.031 1.062.625 0 1.219-.265.594-.281 1.219-.86z"/><text x="1606.5" y="431.93" fill="#D9B8FF" font-family="Helvetica" font-size="17" textLength="137">aws_ec2_subnet</text><rect width="109" height="39.789" x="627.5" y="505.94" fill="#3D176E" rx="2.5" ry="2.5" style="stroke:#000d19;stroke-width:.5"/><circle cx="642.5" cy="525.835" r="11" fill="#ADD1B2" style="stroke:#181818;stroke-width:1"/><path d="M645.469 531.475q-.578.297-1.219.438-.64.156-1.344.156-2.5 0-3.828-1.64-1.312-1.657-1.312-4.782t1.312-4.781q1.328-1.656 3.828-1.656.703 0 1.344.156.656.156 1.219.453v2.719q-.625-.578-1.219-.844-.594-.281-1.219-.281-1.343 0-2.031 1.078-.687 1.062-.687 3.156t.687 3.172q.688 1.062 2.031 1.062.625 0 1.219-.265.594-.281 1.219-.86z"/><text x="661.5" y="531.72" fill="#D9B8FF" font-family="Helvetica" font-size="17" textLength="67">aws_elb</text><rect width="224" height="39.789" x="1268" y="505.94" fill="#3D176E" rx="2.5" ry="2.5" style="stroke:#000d19;stroke-width:.5"/><circle cx="1283" cy="525.835" r="11" fill="#ADD1B2" style="stroke:#181818;stroke-width:1"/><path d="M1285.969 531.475q-.578.297-1.219.438-.64.156-1.344.156-2.5 0-3.828-1.64-1.312-1.657-1.312-4.782t1.312-4.781q1.328-1.656 3.828-1.656.703 0 1.344.156.656.156 1.219.453v2.719q-.625-.578-1.219-.844-.594-.281-1.219-.281-1.343 0-2.031 1.078-.687 1.062-.687 3.156t.687 3.172q.688 1.062 2.031 1.062.625 0 1.219-.265.594-.281 1.219-.86z"/><text x="1302" y="531.72" fill="#D9B8FF" font-family="Helvetica" font-size="17" textLength="182">aws_lambda_function</text><rect width="251" height="39.789" x="1526.5" y="505.94" fill="#3D176E" rx="2.5" ry="2.5" style="stroke:#000d19;stroke-width:.5"/><circle cx="1541.5" cy="525.835" r="11" fill="#ADD1B2" style="stroke:#181818;stroke-width:1"/><path d="M1544.469 531.475q-.578.297-1.219.438-.64.156-1.344.156-2.5 0-3.828-1.64-1.312-1.657-1.312-4.782t1.312-4.781q1.328-1.656 3.828-1.656.703 0 1.344.156.656.156 1.219.453v2.719q-.625-.578-1.219-.844-.594-.281-1.219-.281-1.343 0-2.031 1.078-.687 1.062-.687 3.156t.687 3.172q.688 1.062 2.031 1.062.625 0 1.219-.265.594-.281 1.219-.86z"/><text x="1560.5" y="531.72" fill="#D9B8FF" font-family="Helvetica" font-size="17" textLength="209">aws_opensearch_domain</text><rect width="258" height="39.789" x="1067" y="306.37" fill="#3D176E" rx="2.5" ry="2.5" style="stroke:#000d19;stroke-width:.5"/><circle cx="1082" cy="326.264" r="11" fill="#ADD1B2" style="stroke:#181818;stroke-width:1"/><path d="M1084.969 331.905q-.578.297-1.219.438-.64.156-1.344.156-2.5 0-3.828-1.64-1.312-1.657-1.312-4.782t1.312-4.781q1.328-1.656 3.828-1.656.703 0 1.344.156.656.156 1.219.453v2.719q-.625-.579-1.219-.844-.594-.281-1.219-.281-1.343 0-2.031 1.078-.687 1.062-.687 3.156t.687 3.172q.688 1.062 2.031 1.062.625 0 1.219-.265.594-.281 1.219-.86z"/><text x="1101" y="332.15" fill="#D9B8FF" font-family="Helvetica" font-size="17" textLength="216">aws_rds_cluster_snapshot</text><rect width="188" height="39.789" x="2131" y="505.94" fill="#3D176E" rx="2.5" ry="2.5" style="stroke:#000d19;stroke-width:.5"/><circle cx="2146" cy="525.835" r="11" fill="#ADD1B2" style="stroke:#181818;stroke-width:1"/><path d="M2148.969 531.475q-.578.297-1.219.438-.64.156-1.344.156-2.5 0-3.828-1.64-1.312-1.657-1.312-4.782t1.312-4.781q1.328-1.656 3.828-1.656.703 0 1.344.156.656.156 1.219.453v2.719q-.625-.578-1.219-.844-.594-.281-1.219-.281-1.343 0-2.031 1.078-.687 1.062-.687 3.156t.687 3.172q.688 1.062 2.031 1.062.625 0 1.219-.265.594-.281 1.219-.86z"/><text x="2165" y="531.72" fill="#D9B8FF" font-family="Helvetica" font-size="17" textLength="146">aws_rds_instance</text><rect width="193" height="39.789" x="1550.5" y="605.73" fill="#3D176E" rx="2.5" ry="2.5" style="stroke:#000d19;stroke-width:.5"/><circle cx="1565.5" cy="625.625" r="11" fill="#ADD1B2" style="stroke:#181818;stroke-width:1"/><path d="M1568.469 631.265q-.578.297-1.219.438-.64.156-1.344.156-2.5 0-3.828-1.64-1.312-1.657-1.312-4.782t1.312-4.781q1.328-1.656 3.828-1.656.703 0 1.344.156.656.156 1.219.453v2.719q-.625-.578-1.219-.844-.594-.281-1.219-.281-1.343 0-2.031 1.078-.687 1.062-.687 3.156t.687 3.172q.688 1.062 2.031 1.062.625 0 1.219-.265.594-.281 1.219-.86z"/><text x="1584.5" y="631.51" fill="#D9B8FF" font-family="Helvetica" font-size="17" textLength="151">aws_rds_snapshot</text><rect width="213" height="39.789" x="1812.5" y="505.94" fill="#3D176E" rx="2.5" ry="2.5" style="stroke:#000d19;stroke-width:.5"/><circle cx="1827.5" cy="525.835" r="11" fill="#ADD1B2" style="stroke:#181818;stroke-width:1"/><path d="M1830.469 531.475q-.578.297-1.219.438-.64.156-1.344.156-2.5 0-3.828-1.64-1.312-1.657-1.312-4.782t1.312-4.781q1.328-1.656 3.828-1.656.703 0 1.344.156.656.156 1.219.453v2.719q-.625-.578-1.219-.844-.594-.281-1.219-.281-1.343 0-2.031 1.078-.687 1.062-.687 3.156t.687 3.172q.688 1.062 2.031 1.062.625 0 1.219-.265.594-.281 1.219-.86z"/><text x="1846.5" y="531.72" fill="#D9B8FF" font-family="Helvetica" font-size="17" textLength="171">aws_redshift_cluster</text><rect width="137" height="39.789" x="2334.5" y="7" fill="#3D176E" rx="2.5" ry="2.5" style="stroke:#000d19;stroke-width:.5"/><circle cx="2349.5" cy="26.895" r="11" fill="#ADD1B2" style="stroke:#181818;stroke-width:1"/><path d="M2352.469 32.535q-.578.297-1.219.438-.64.156-1.344.156-2.5 0-3.828-1.64-1.312-1.657-1.312-4.782t1.312-4.781q1.328-1.656 3.828-1.656.703 0 1.344.156.656.156 1.219.453v2.719q-.625-.578-1.219-.844-.594-.281-1.219-.281-1.343 0-2.031 1.078-.687 1.062-.687 3.156t.687 3.172q.688 1.062 2.031 1.062.625 0 1.219-.265.594-.281 1.219-.86z"/><text x="2368.5" y="32.78" fill="#D9B8FF" font-family="Helvetica" font-size="17" textLength="95">aws_region</text><rect width="199" height="39.789" x="225.5" y="106.79" fill="#3D176E" rx="2.5" ry="2.5" style="stroke:#000d19;stroke-width:.5"/><circle cx="240.5" cy="126.684" r="11" fill="#ADD1B2" style="stroke:#181818;stroke-width:1"/><path d="M243.469 132.325q-.578.297-1.219.438-.64.156-1.344.156-2.5 0-3.828-1.64-1.312-1.657-1.312-4.782t1.312-4.781q1.328-1.656 3.828-1.656.703 0 1.344.156.656.156 1.219.453v2.719q-.625-.579-1.219-.844-.594-.281-1.219-.281-1.344 0-2.031 1.078-.687 1.062-.687 3.156t.687 3.172q.688 1.062 2.031 1.062.625 0 1.219-.265.594-.281 1.219-.86z"/><text x="259.5" y="132.57" fill="#D9B8FF" font-family="Helvetica" font-size="17" textLength="157">aws_service_quota</text><rect width="112" height="39.789" x="1428" y="206.58" fill="#3D176E" rx="2.5" ry="2.5" style="stroke:#000d19;stroke-width:.5"/><circle cx="1443" cy="226.475" r="11" fill="#ADD1B2" style="stroke:#181818;stroke-width:1"/><path d="M1445.969 232.115q-.578.297-1.219.438-.64.156-1.344.156-2.5 0-3.828-1.64-1.312-1.657-1.312-4.782t1.312-4.781q1.328-1.656 3.828-1.656.703 0 1.344.156.656.156 1.219.453v2.719q-.625-.578-1.219-.844-.594-.281-1.219-.281-1.343 0-2.031 1.078-.687 1.062-.687 3.156t.687 3.172q.688 1.062 2.031 1.062.625 0 1.219-.265.594-.281 1.219-.86z"/><text x="1462" y="232.36" fill="#D9B8FF" font-family="Helvetica" font-size="17" textLength="70">aws_vpc</text><rect width="195" height="39.789" x="2353.5" y="505.94" fill="#3D176E" rx="2.5" ry="2.5" style="stroke:#000d19;stroke-width:.5"/><circle cx="2368.5" cy="525.835" r="11" fill="#ADD1B2" style="stroke:#181818;stroke-width:1"/><path d="M2371.469 531.475q-.578.297-1.219.438-.64.156-1.344.156-2.5 0-3.828-1.64-1.312-1.657-1.312-4.782t1.312-4.781q1.328-1.656 3.828-1.656.703 0 1.344.156.656.156 1.219.453v2.719q-.625-.578-1.219-.844-.594-.281-1.219-.281-1.343 0-2.031 1.078-.687 1.062-.687 3.156t.687 3.172q.688 1.062 2.031 1.062.625 0 1.219-.265.594-.281 1.219-.86z"/><text x="2387.5" y="531.72" fill="#D9B8FF" font-family="Helvetica" font-size="17" textLength="153">aws_vpc_endpoint</text><rect width="284" height="39.789" x="2422" y="306.37" fill="#3D176E" rx="2.5" ry="2.5" style="stroke:#000d19;stroke-width:.5"/><circle cx="2437" cy="326.264" r="11" fill="#ADD1B2" style="stroke:#181818;stroke-width:1"/><path d="M2439.969 331.905q-.578.297-1.219.438-.64.156-1.344.156-2.5 0-3.828-1.64-1.312-1.657-1.312-4.782t1.312-4.781q1.328-1.656 3.828-1.656.703 0 1.344.156.656.156 1.219.453v2.719q-.625-.579-1.219-.844-.594-.281-1.219-.281-1.343 0-2.031 1.078-.687 1.062-.687 3.156t.687 3.172q.688 1.062 2.031 1.062.625 0 1.219-.265.594-.281 1.219-.86z"/><text x="2456" y="332.15" fill="#D9B8FF" font-family="Helvetica" font-size="17" textLength="242">aws_vpc_peering_connection</text><path fill="none" d="M442.67 546.16c9.47 17.14 20.32 36.808 29.78 53.938" style="stroke:#1a83af;stroke-width:2"/><path fill="#1A83AF" d="m475.35 605.35-.85-9.812-1.567 5.435-5.435-1.568z" style="stroke:#1a83af;stroke-width:2"/><path fill="none" d="M524.72 645.95c34.36 17.14 78.932 39.37 113.272 56.51" style="stroke:#1a83af;stroke-width:2"/><path fill="#1A83AF" d="m643.36 705.14-6.266-7.598 1.792 5.365-5.365 1.793z" style="stroke:#1a83af;stroke-width:2"/><path fill="none" d="M778.23 733.16c242.55 16.99 873.665 61.2 1155.865 80.96" style="stroke:#1a83af;stroke-width:2"/><path fill="#1A83AF" d="m1940.08 814.54-8.699-4.619 3.711 4.27-4.27 3.71z" style="stroke:#1a83af;stroke-width:2"/><path fill="none" d="M2848.97 144.37C3013.78 171.4 3296 231.38 3296 325.26v301.37c0 108.38-755.182 168.493-1074.073 189.083" style="stroke:#1a83af;stroke-width:2"/><path fill="#1A83AF" d="m2215.94 816.1 9.239 3.412-4.25-3.734 3.735-4.25z" style="stroke:#1a83af;stroke-width:2"/><path fill="none" d="M2747.5 146.95c29.78 42.05 90.72 142.75 37.5 199.2-77.57 82.29-903.69 46.82-1016 60-5.62.66-5.451.573-11.272 1.413" style="stroke:#1a83af;stroke-width:2"/><path fill="#1A83AF" d="m1751.79 408.42 9.48 2.673-4.531-3.387 3.387-4.53z" style="stroke:#1a83af;stroke-width:2"/><path fill="none" d="M2617.18 136.75c-260.8 20.42-880.208 68.912-1070.988 83.852" style="stroke:#1a83af;stroke-width:2"/><path fill="#1A83AF" d="m1540.21 221.07 9.285 3.285-4.3-3.675 3.675-4.3z" style="stroke:#1a83af;stroke-width:2"/><path fill="none" d="M1794.4 346.58c-28.93 17.14-65.798 39.001-94.708 56.131" style="stroke:#1a83af;stroke-width:2"/><path fill="#1A83AF" d="m1694.53 405.77 9.782-1.147-5.48-1.402 1.402-5.48z" style="stroke:#1a83af;stroke-width:2"/><path fill="none" d="M3003.2 346.56c-117 37.78-369.26 119.216-486.45 157.056" style="stroke:#1a83af;stroke-width:2"/><path fill="#1A83AF" d="m2511.04 505.46 9.794 1.041-5.036-2.577 2.578-5.036z" style="stroke:#1a83af;stroke-width:2"/><path fill="none" d="M1786.15 444.21c-5.8.63-11.53 1.21-17.15 1.73-513.57 47.87-644.8 19.43-1159 60-41.36 3.27-82.03 7.587-117.18 11.617" style="stroke:#1a83af;stroke-width:2"/><path fill="#1A83AF" d="m486.86 518.24 9.397 2.949-4.43-3.519 3.519-4.43z" style="stroke:#1a83af;stroke-width:2"/><path fill="none" d="M1965.66 446.38c27.93 12.54 59.38 31.79 77.34 59.56 62.79 97.09 47.58 240.583 39.32 293.203" style="stroke:#1a83af;stroke-width:2"/><path fill="#1A83AF" d="m2081.39 805.07 5.347-8.27-4.572 3.33-3.33-4.571z" style="stroke:#1a83af;stroke-width:2"/><path fill="none" d="M1786.13 444.07c-5.79.66-11.52 1.29-17.13 1.87-394.76 40.93-866.358 67.436-1026.048 75.796" style="stroke:#1a83af;stroke-width:2"/><path fill="#1A83AF" d="m736.96 522.05 9.197 3.524-4.204-3.785 3.786-4.204z" style="stroke:#1a83af;stroke-width:2"/><path fill="none" d="M1804.17 446.43c-92.62 17.12-221.09 40.87-313.65 57.98" style="stroke:#1a83af;stroke-width:2"/><path fill="#1A83AF" d="m1484.62 505.5 9.577 2.297-4.66-3.206 3.206-4.66z" style="stroke:#1a83af;stroke-width:2"/><path fill="none" d="M1858.23 446.37c-45.06 17.14-104.932 39.926-149.952 57.056" style="stroke:#1a83af;stroke-width:2"/><path fill="#1A83AF" d="m1702.67 505.56 9.834.538-5.16-2.316 2.315-5.161z" style="stroke:#1a83af;stroke-width:2"/><path fill="none" d="M1971.43 446.37c55.31 17.12 129.918 40.207 185.268 57.327" style="stroke:#1a83af;stroke-width:2"/><path fill="#1A83AF" d="m2162.43 505.47-7.416-6.48 2.64 5.002-5.004 2.64z" style="stroke:#1a83af;stroke-width:2"/><path fill="none" d="M1910.98 446.37c1.75 17.14 3.69 36.091 5.44 53.221" style="stroke:#1a83af;stroke-width:2"/><path fill="#1A83AF" d="m1917.03 505.56 3.065-9.36-3.573 4.386-4.386-3.573z" style="stroke:#1a83af;stroke-width:2"/><path fill="none" d="M2016.41 446.43c98.13 17.7 236.105 42.595 331.055 59.725" style="stroke:#1a83af;stroke-width:2"/><path fill="#1A83AF" d="m2353.37 507.22-8.147-5.534 3.226 4.646-4.646 3.227z" style="stroke:#1a83af;stroke-width:2"/><path fill="none" d="M1572.21 432.84c-181.77 11.94-606.29 40.88-962.21 73.1-41.32 3.75-81.987 8.057-117.157 11.967" style="stroke:#1a83af;stroke-width:2"/><path fill="#1A83AF" d="m486.88 518.57 9.387 2.981-4.418-3.534 3.534-4.417z" style="stroke:#1a83af;stroke-width:2"/><path fill="none" d="M1572.09 431.34c-108.44 7.27-281.17 26.3-321.09 74.6-11.26 13.64-10.21 25.35 0 39.79 85.26 120.62 514.584 217.896 717.144 257.956" style="stroke:#1a83af;stroke-width:2"/><path fill="#1A83AF" d="m1974.03 804.85-8.053-5.67 3.148 4.7-4.7 3.148z" style="stroke:#1a83af;stroke-width:2"/><path fill="none" d="M1572.43 435.99c-199.16 19.87-667.9 66.644-829.5 82.764" style="stroke:#1a83af;stroke-width:2"/><path fill="#1A83AF" d="m736.96 519.35 9.353 3.087-4.378-3.583 3.584-4.378z" style="stroke:#1a83af;stroke-width:2"/><path fill="none" d="M1606.29 446.37c-49.44 17.14-115.621 40.094-165.021 57.224" style="stroke:#1a83af;stroke-width:2"/><path fill="#1A83AF" d="m1435.6 505.56 9.814.83-5.09-2.468 2.469-5.09z" style="stroke:#1a83af;stroke-width:2"/><path fill="none" d="M1660.02 446.37c-1.75 17.14-3.69 36.091-5.44 53.221" style="stroke:#1a83af;stroke-width:2"/><path fill="#1A83AF" d="m1653.97 505.56 4.894-8.547-4.386 3.573-3.573-4.386z" style="stroke:#1a83af;stroke-width:2"/><path fill="none" d="M1751.9 442.95c5.79 1.01 11.53 2.02 17.1 2.99 125.05 21.86 263.527 45.772 355.747 61.652" style="stroke:#1a83af;stroke-width:2"/><path fill="#1A83AF" d="m2130.66 508.61-8.19-5.47 3.263 4.622-4.621 3.263z" style="stroke:#1a83af;stroke-width:2"/><path fill="none" d="M1712.77 446.37c45.06 17.14 104.932 39.926 149.952 57.056" style="stroke:#1a83af;stroke-width:2"/><path fill="#1A83AF" d="m1868.33 505.56-6.99-6.94 2.317 5.162-5.161 2.316z" style="stroke:#1a83af;stroke-width:2"/><path fill="none" d="M1751.83 443.38c5.81.91 11.57 1.77 17.17 2.56 250.92 35.39 315.87 26.11 567 60 5.61.76 5.445.701 11.255 1.561" style="stroke:#1a83af;stroke-width:2"/><path fill="#1A83AF" d="m2353.19 508.38-8.317-5.275 3.37 4.543-4.542 3.371z" style="stroke:#1a83af;stroke-width:2"/><path fill="none" d="M682 546.14v152.89" style="stroke:#1a83af;stroke-width:2"/><path fill="#1A83AF" d="m682 705.03 4-9-4 4-4-4z" style="stroke:#1a83af;stroke-width:2"/><path fill="none" d="M2130.53 542.82c-106.59 18.03-273.154 46.22-380.724 64.41" style="stroke:#1a83af;stroke-width:2"/><path fill="#1A83AF" d="m1743.89 608.23 9.54 2.443-4.61-3.277 3.277-4.61z" style="stroke:#1a83af;stroke-width:2"/><path fill="none" d="M2334.15 28.41C1971.87 31.36 299.61 48.16 208 106.79c-49.78 31.86-60 59.58-60 118.68v101.79c0 110.52 140.903 162.73 223.433 184.2" style="stroke:#1a83af;stroke-width:2"/><path fill="#1A83AF" d="m377.24 512.97-7.703-6.137 2.864 4.878-4.878 2.864z" style="stroke:#1a83af;stroke-width:2"/><path fill="none" d="M2334.23 28.57C1967.54 32.38 255.57 53.04 158 106.79c-55.94 30.81-81 54.82-81 118.68v201.58c0 131.89 168.613 175.062 289.653 189.642" style="stroke:#1a83af;stroke-width:2"/><path fill="#1A83AF" d="m372.61 617.41-8.457-5.048 3.493 4.45-4.45 3.493z" style="stroke:#1a83af;stroke-width:2"/><path fill="none" d="M2334.22 28.59C1961.59 32.55 197.8 54.04 96 106.79 37.22 137.24 6 159.27 6 225.47v301.37c0 119.29 386.758 170.942 573.528 189.032" style="stroke:#1a83af;stroke-width:2"/><path fill="#1A83AF" d="m585.5 716.45-8.572-4.849 3.595 4.367-4.367 3.596z" style="stroke:#1a83af;stroke-width:2"/><path fill="none" d="M2393.32 46.95c-27.2 53.58-101.463 199.82-128.813 253.68" style="stroke:#1a83af;stroke-width:2"/><path fill="#1A83AF" d="m2261.79 305.98 7.641-6.214-5.377 1.756-1.756-5.378z" style="stroke:#1a83af;stroke-width:2"/><path fill="none" d="M2468.2 47.21c57.76 17.12 135.897 40.275 193.707 57.405" style="stroke:#1a83af;stroke-width:2"/><path fill="#1A83AF" d="m2667.66 106.32-7.493-6.392 2.699 4.972-4.972 2.698z" style="stroke:#1a83af;stroke-width:2"/><path fill="none" d="M2365.65 47.17c-104.2 53.8-391.948 202.358-496.058 256.098" style="stroke:#1a83af;stroke-width:2"/><path fill="#1A83AF" d="m1864.26 306.02 9.832-.574-5.389-1.72 1.72-5.389z" style="stroke:#1a83af;stroke-width:2"/><path fill="none" d="M2471.82 28.86c181.73 3.38 670.65 17.93 819.18 77.93 77.86 31.45 147 34.71 147 118.68v401.16c0 122.57-870.367 175.39-1216.117 191.57" style="stroke:#1a83af;stroke-width:2"/><path fill="#1A83AF" d="m2215.89 818.48 9.177 3.575-4.182-3.809 3.808-4.182z" style="stroke:#1a83af;stroke-width:2"/><path fill="none" d="M2471.53 31.15c124.5 7.05 381.77 27.17 455.47 75.64 75.03 49.34 114.222 150.175 128.392 193.675" style="stroke:#1a83af;stroke-width:2"/><path fill="#1A83AF" d="m3057.25 306.17 1.016-9.796-2.565 5.042-5.042-2.565z" style="stroke:#1a83af;stroke-width:2"/><path fill="none" d="M2471.79 29.19c116.44 3.81 344.58 18.79 394.21 77.6 48.72 57.72 139.49 78.21-46 239.36-58.23 50.6-547.232 69.688-782.172 76.018" style="stroke:#1a83af;stroke-width:2"/><path fill="#1A83AF" d="m2031.83 422.33 9.105 3.756-4.107-3.89 3.891-4.107z" style="stroke:#1a83af;stroke-width:2"/><path fill="none" d="M2432.52 47.08c89.36 59.16 347.47 238.39 290.48 299.07-72.71 77.43-848.54 47.42-954 60-5.62.68-5.452.591-11.262 1.432" style="stroke:#1a83af;stroke-width:2"/><path fill="#1A83AF" d="m1751.8 408.44 9.48 2.671-4.532-3.387 3.387-4.53z" style="stroke:#1a83af;stroke-width:2"/><path fill="none" d="M2334.26 27.68C1993.62 27.5 503 37.47 503 225.47v101.79c0 83.78 84.287 144.854 136.717 175.204" style="stroke:#1a83af;stroke-width:2"/><path fill="#1A83AF" d="m644.91 505.47-5.785-7.97 1.458 5.465-5.466 1.458z" style="stroke:#1a83af;stroke-width:2"/><path fill="none" d="M2471.9 30.98c226.29 12.53 920.98 71.29 718.1 315.17-7.02 8.45-623.202 118.224-864.722 160.974" style="stroke:#1a83af;stroke-width:2"/><path fill="#1A83AF" d="m2319.37 508.17 9.56 2.37-4.636-3.242 3.241-4.635z" style="stroke:#1a83af;stroke-width:2"/><path fill="none" d="M2334.21 28.65C2084.43 31.86 1201.99 46.98 477 106.79c-16.96 1.4-28.98 2.586-46.41 4.616" style="stroke:#1a83af;stroke-width:2"/><path fill="#1A83AF" d="m424.63 112.1 9.402 2.932-4.436-3.51 3.51-4.436z" style="stroke:#1a83af;stroke-width:2"/><path fill="none" d="M2334.28 40.27c-81.57 14.89-221.64 41.07-341.28 66.52-165.08 35.11-353.152 80.423-446.842 103.363" style="stroke:#1a83af;stroke-width:2"/><path fill="#1A83AF" d="m1540.33 211.58 9.693 1.745-4.836-2.934 2.934-4.837z" style="stroke:#1a83af;stroke-width:2"/><path fill="none" d="M2471.95 29.1c192.82 4.08 726.92 20.48 779.05 77.69 71.66 78.63 66.52 156.34 0 239.36-87.04 108.63-502.23 155.083-696.04 171.193" style="stroke:#1a83af;stroke-width:2"/><path fill="#1A83AF" d="m2548.98 517.84 9.3 3.24-4.317-3.654 3.655-4.318z" style="stroke:#1a83af;stroke-width:2"/><path fill="none" d="M2413.32 46.95c29.01 53.58 108.223 199.894 137.383 253.754" style="stroke:#1a83af;stroke-width:2"/><path fill="#1A83AF" d="m2553.56 305.98-.767-9.819-1.613 5.422-5.422-1.613z" style="stroke:#1a83af;stroke-width:2"/><path fill="none" d="M304.21 146.84c-14.37 14.74-32.26 36.47-40.21 59.74-20.05 58.7-22.85 81.9 0 139.57 28.16 71.06 94.563 126.797 134.643 155.867" style="stroke:#1a83af;stroke-width:2"/><path fill="#1A83AF" d="m403.5 505.54-4.937-8.522.89 5.586-5.587.89z" style="stroke:#1a83af;stroke-width:2"/><path fill="none" d="M328.9 146.75c12.09 54.41 53.92 212.1 148.1 299.19 42 38.84 99.31 57.92 144.42 68.17" style="stroke:#1a83af;stroke-width:2"/><path fill="#1A83AF" d="m627.27 515.44-7.89-5.895 3.014 4.787-4.787 3.014z" style="stroke:#1a83af;stroke-width:2"/><path fill="none" d="M424.82 136.1c235.42 19.87 813.321 68.625 996.971 84.125" style="stroke:#1a83af;stroke-width:2"/><path fill="#1A83AF" d="m1427.77 220.73-8.632-4.743 3.65 4.323-4.322 3.649z" style="stroke:#1a83af;stroke-width:2"/><path fill="none" d="M1427.64 229.1c-191.03 5.97-806.19 28.78-879.64 77.27-72.04 47.54-101.174 149.252-110.914 193.272" style="stroke:#1a83af;stroke-width:2"/><path fill="#1A83AF" d="m435.79 505.5 5.85-7.923-4.77 3.041-3.041-4.77z" style="stroke:#1a83af;stroke-width:2"/><path fill="none" d="M1427.75 229.7c-176.66 7.43-712.51 33.33-776.75 76.67-55.47 37.41-132.025 230.849-155.805 293.649" style="stroke:#1a83af;stroke-width:2"/><path fill="#1A83AF" d="m493.07 605.63 6.928-7-5.157 2.324-2.325-5.157z" style="stroke:#1a83af;stroke-width:2"/><path fill="none" d="M1427.63 235.05c-101.96 13.76-323.79 43.97-510.63 71.32-8.66 1.26-11.717 1.705-20.737 3.065" style="stroke:#1a83af;stroke-width:2"/><path fill="#1A83AF" d="m890.33 310.33 9.496 2.613-4.552-3.358 3.359-4.552z" style="stroke:#1a83af;stroke-width:2"/><path fill="none" d="M1427.76 231.64c-107.56 8.85-337.63 32.25-403.76 74.73-53.73 34.51-81 54.82-81 118.68v101.79c0 96.47-109.081 149.943-186.401 176.323" style="stroke:#1a83af;stroke-width:2"/><path fill="#1A83AF" d="m750.92 705.1 9.81.88-5.078-2.495 2.494-5.077z" style="stroke:#1a83af;stroke-width:2"/><path fill="none" d="M1540.47 234.66c120.38 15.33 399.168 50.822 569.708 72.542" style="stroke:#1a83af;stroke-width:2"/><path fill="#1A83AF" d="m2116.13 307.96-8.423-5.105 3.463 4.473-4.473 3.463z" style="stroke:#1a83af;stroke-width:2"/><path fill="none" d="M1540.26 243.51c59.96 17.09 149.13 42.515 213.18 60.775" style="stroke:#1a83af;stroke-width:2"/><path fill="#1A83AF" d="m1759.21 305.93-7.559-6.314 2.75 4.943-4.943 2.75z" style="stroke:#1a83af;stroke-width:2"/><path fill="none" d="M1427.52 226.79c-183.79-1.42-762.44.63-928.52 79.58-121.36 57.69-209 84.09-209 218.47v101.79c0 134.34 147.13 88.34 278 118.68 258.52 59.95 1044.59 74.346 1366.16 77.786" style="stroke:#1a83af;stroke-width:2"/><path fill="#1A83AF" d="m1940.16 823.16-8.957-4.096 3.957 4.043-4.042 3.957z" style="stroke:#1a83af;stroke-width:2"/><path fill="none" d="M1540.2 230.95c230.26 14.26 1097.991 68 1407.402 87.16" style="stroke:#1a83af;stroke-width:2"/><path fill="#1A83AF" d="m2953.59 318.48-8.736-4.549 3.746 4.24-4.24 3.745z" style="stroke:#1a83af;stroke-width:2"/><path fill="none" d="M1515.14 246.67c40.99 24.82 115.73 68.53 182.86 99.48 50.25 23.18 103.746 42.89 146.616 57.63" style="stroke:#1a83af;stroke-width:2"/><path fill="#1A83AF" d="m1850.29 405.73-7.21-6.709 2.482 5.083-5.084 2.482z" style="stroke:#1a83af;stroke-width:2"/><path fill="none" d="M1501.39 246.78c34.03 37.77 105.044 116.592 139.134 154.432" style="stroke:#1a83af;stroke-width:2"/><path fill="#1A83AF" d="m1644.54 405.67-3.052-9.364-.295 5.65-5.649-.295z" style="stroke:#1a83af;stroke-width:2"/><path fill="none" d="M1427.51 228.73c-174.68 4.45-697.37 22.34-747.51 77.64-50.7 55.92-23.448 151.281-7.868 193.491" style="stroke:#1a83af;stroke-width:2"/><path fill="#1A83AF" d="m674.21 505.49.636-9.828-2.367 5.137-5.138-2.367z" style="stroke:#1a83af;stroke-width:2"/><path fill="none" d="M1427.52 229.11c-106.38 4.41-330.04 20.37-377.52 77.26-80.79 96.79 117.986 165.55 240.346 197.6" style="stroke:#1a83af;stroke-width:2"/><path fill="#1A83AF" d="m1296.15 505.49-7.693-6.15 2.856 4.883-4.883 2.856z" style="stroke:#1a83af;stroke-width:2"/><path fill="none" d="M1478.92 246.63c-9.56 40.55-25.81 136.45 15.08 199.31 18.81 28.92 46.004 45.486 76.854 57.416" style="stroke:#1a83af;stroke-width:2"/><path fill="#1A83AF" d="m1576.45 505.52-6.952-6.977 2.289 5.174-5.174 2.288z" style="stroke:#1a83af;stroke-width:2"/><path fill="none" d="M1427.79 246.56c-50.42 17.12-118.379 40.19-169.049 57.4" style="stroke:#1a83af;stroke-width:2"/><path fill="#1A83AF" d="m1253.06 305.89 9.808.893-5.074-2.501 2.501-5.074z" style="stroke:#1a83af;stroke-width:2"/><path fill="none" d="M1540.45 227.72c91.35 2.38 275.45 15.43 415.55 78.65 7.16 3.23 177.287 142.987 241.217 195.597" style="stroke:#1a83af;stroke-width:2"/><path fill="#1A83AF" d="m2201.85 505.78-4.408-8.807.547 5.63-5.63.547z" style="stroke:#1a83af;stroke-width:2"/><path fill="none" d="M1462.57 246.62c-65.81 59.85-257.83 242.73-211.57 299.11 37.13 45.26 188.349 64.567 293.169 72.857" style="stroke:#1a83af;stroke-width:2"/><path fill="#1A83AF" d="m1550.15 619.06-8.657-4.697 3.673 4.303-4.303 3.672z" style="stroke:#1a83af;stroke-width:2"/><path fill="none" d="M1487.72 246.76c9.67 48.17 36.95 171.77 67.28 199.18 19.22 17.38 151.098 42.884 251.478 60.304" style="stroke:#1a83af;stroke-width:2"/><path fill="#1A83AF" d="m1812.39 507.27-8.184-5.48 3.258 4.625-4.625 3.257z" style="stroke:#1a83af;stroke-width:2"/><path fill="none" d="M1540.39 230.38c96.96 6.23 300.67 24.75 464.61 75.99 42.64 13.32 303.206 145.532 402.936 196.442" style="stroke:#1a83af;stroke-width:2"/><path fill="#1A83AF" d="m2413.28 505.54-6.197-7.655 1.744 5.382-5.382 1.744z" style="stroke:#1a83af;stroke-width:2"/><path fill="none" d="M1540.39 231.65c144.1 10.83 537.53 41.28 864.61 74.72 5.53.56 5.204.51 10.894 1.12" style="stroke:#1a83af;stroke-width:2"/><path fill="#1A83AF" d="m2421.86 308.13-8.522-4.937 3.55 4.404-4.403 3.55z" style="stroke:#1a83af;stroke-width:2"/><path fill="none" d="M2426.81 546.12c-67.48 53.8-252.579 201.36-319.989 255.11" style="stroke:#1a83af;stroke-width:2"/><path fill="#1A83AF" d="m2102.13 804.97 9.53-2.483-5.62-.634.633-5.621z" style="stroke:#1a83af;stroke-width:2"/></svg>