<?xml version="1.0" encoding="us-ascii" standalone="no"?><svg xmlns="http://www.w3.org/2000/svg" xmlns:xlink="http://www.w3.org/1999/xlink" contentStyleType="text/css" height="925px" preserveAspectRatio="none" style="width:249px;height:925px;" version="1.1" viewBox="0 0 249 925" width="249px" zoomAndPan="magnify"><defs/><g><!--class aws_q_business_plugin--><g id="elem_aws_q_business_plugin"><rect codeLine="23" fill="#3D176E" height="284.4609" id="aws_q_business_plugin" rx="2.5" ry="2.5" style="stroke:#000D19;stroke-width:0.5;" width="235" x="7" y="633.84"/><ellipse cx="22" cy="653.7345" fill="#ADD1B2" rx="11" ry="11" style="stroke:#181818;stroke-width:1.0;"/><path d="M24.9688,659.3752 Q24.3906,659.672 23.75,659.8127 Q23.1094,659.9689 22.4063,659.9689 Q19.9063,659.9689 18.5781,658.3283 Q17.2656,656.672 17.2656,653.547 Q17.2656,650.422 18.5781,648.7658 Q19.9063,647.1095 22.4063,647.1095 Q23.1094,647.1095 23.75,647.2658 Q24.4063,647.422 24.9688,647.7189 L24.9688,650.4377 Q24.3438,649.8595 23.75,649.5939 Q23.1563,649.3127 22.5313,649.3127 Q21.1875,649.3127 20.5,650.3908 Q19.8125,651.4533 19.8125,653.547 Q19.8125,655.6408 20.5,656.7189 Q21.1875,657.7814 22.5313,657.7814 Q23.1563,657.7814 23.75,657.5158 Q24.3438,657.2345 24.9688,656.6564 L24.9688,659.3752 Z " fill="#000000"/><text fill="#D9B8FF" font-family="Helvetica" font-size="17" lengthAdjust="spacing" textLength="193" x="41" y="659.6198">aws_q_business_plugin</text><line style="stroke:#000D19;stroke-width:0.5;" x1="8" x2="241" y1="673.6291" y2="673.6291"/><text fill="#D9B8FF" font-family="sans-serif" font-size="14" font-weight="bold" lengthAdjust="spacing" textLength="106" x="18" y="695.6242">application_id</text><text fill="#D9B8FF" font-family="sans-serif" font-size="14" lengthAdjust="spacing" textLength="48" x="124" y="695.6242">: string</text><text fill="#D9B8FF" font-family="sans-serif" font-size="14" font-weight="bold" lengthAdjust="spacing" textLength="94" x="18" y="721.9211">build_status</text><text fill="#D9B8FF" font-family="sans-serif" font-size="14" lengthAdjust="spacing" textLength="48" x="112" y="721.9211">: string</text><text fill="#D9B8FF" font-family="sans-serif" font-size="14" font-weight="bold" lengthAdjust="spacing" textLength="83" x="18" y="748.2179">created_at</text><text fill="#D9B8FF" font-family="sans-serif" font-size="14" lengthAdjust="spacing" textLength="70" x="101" y="748.2179">: datetime</text><text fill="#D9B8FF" font-family="sans-serif" font-size="14" font-weight="bold" lengthAdjust="spacing" textLength="105" x="18" y="774.5148">display_name</text><text fill="#D9B8FF" font-family="sans-serif" font-size="14" lengthAdjust="spacing" textLength="48" x="123" y="774.5148">: string</text><text fill="#D9B8FF" font-family="sans-serif" font-size="14" font-weight="bold" lengthAdjust="spacing" textLength="69" x="18" y="800.8117">plugin_id</text><text fill="#D9B8FF" font-family="sans-serif" font-size="14" lengthAdjust="spacing" textLength="48" x="87" y="800.8117">: string</text><text fill="#D9B8FF" font-family="sans-serif" font-size="14" font-weight="bold" lengthAdjust="spacing" textLength="80" x="18" y="827.1086">server_url</text><text fill="#D9B8FF" font-family="sans-serif" font-size="14" lengthAdjust="spacing" textLength="48" x="98" y="827.1086">: string</text><text fill="#D9B8FF" font-family="sans-serif" font-size="14" font-weight="bold" lengthAdjust="spacing" textLength="40" x="18" y="853.4054">state</text><text fill="#D9B8FF" font-family="sans-serif" font-size="14" lengthAdjust="spacing" textLength="48" x="58" y="853.4054">: string</text><text fill="#D9B8FF" font-family="sans-serif" font-size="14" font-weight="bold" lengthAdjust="spacing" textLength="35" x="18" y="879.7023">type</text><text fill="#D9B8FF" font-family="sans-serif" font-size="14" lengthAdjust="spacing" textLength="48" x="53" y="879.7023">: string</text><text fill="#D9B8FF" font-family="sans-serif" font-size="14" font-weight="bold" lengthAdjust="spacing" textLength="87" x="18" y="905.9992">updated_at</text><text fill="#D9B8FF" font-family="sans-serif" font-size="14" lengthAdjust="spacing" textLength="70" x="105" y="905.9992">: datetime</text></g><!--class aws_resource--><g id="elem_aws_resource"><rect codeLine="34" fill="#3D176E" height="74.0859" id="aws_resource" rx="2.5" ry="2.5" style="stroke:#000D19;stroke-width:0.5;" width="155" x="47" y="438.75"/><ellipse cx="62" cy="458.6445" fill="#ADD1B2" rx="11" ry="11" style="stroke:#181818;stroke-width:1.0;"/><path d="M64.9688,464.2852 Q64.3906,464.582 63.75,464.7227 Q63.1094,464.8789 62.4063,464.8789 Q59.9063,464.8789 58.5781,463.2383 Q57.2656,461.582 57.2656,458.457 Q57.2656,455.332 58.5781,453.6758 Q59.9063,452.0195 62.4063,452.0195 Q63.1094,452.0195 63.75,452.1758 Q64.4063,452.332 64.9688,452.6289 L64.9688,455.3477 Q64.3438,454.7695 63.75,454.5039 Q63.1563,454.2227 62.5313,454.2227 Q61.1875,454.2227 60.5,455.3008 Q59.8125,456.3633 59.8125,458.457 Q59.8125,460.5508 60.5,461.6289 Q61.1875,462.6914 62.5313,462.6914 Q63.1563,462.6914 63.75,462.4258 Q64.3438,462.1445 64.9688,461.5664 L64.9688,464.2852 Z " fill="#000000"/><text fill="#D9B8FF" font-family="Helvetica" font-size="17" lengthAdjust="spacing" textLength="113" x="81" y="464.5298">aws_resource</text><line style="stroke:#000D19;stroke-width:0.5;" x1="48" x2="201" y1="478.5391" y2="478.5391"/><text fill="#D9B8FF" font-family="sans-serif" font-size="14" font-weight="bold" lengthAdjust="spacing" textLength="26" x="58" y="500.5342">arn</text><text fill="#D9B8FF" font-family="sans-serif" font-size="14" lengthAdjust="spacing" textLength="48" x="84" y="500.5342">: string</text></g><!--class resource--><g id="elem_resource"><rect codeLine="37" fill="#3D176E" height="310.7578" id="resource" rx="2.5" ry="2.5" style="stroke:#000D19;stroke-width:0.5;" width="227" x="11" y="7"/><ellipse cx="79.75" cy="26.8945" fill="#ADD1B2" rx="11" ry="11" style="stroke:#181818;stroke-width:1.0;"/><path d="M82.7188,32.5352 Q82.1406,32.832 81.5,32.9727 Q80.8594,33.1289 80.1563,33.1289 Q77.6563,33.1289 76.3281,31.4883 Q75.0156,29.832 75.0156,26.707 Q75.0156,23.582 76.3281,21.9258 Q77.6563,20.2695 80.1563,20.2695 Q80.8594,20.2695 81.5,20.4258 Q82.1563,20.582 82.7188,20.8789 L82.7188,23.5977 Q82.0938,23.0195 81.5,22.7539 Q80.9063,22.4727 80.2813,22.4727 Q78.9375,22.4727 78.25,23.5508 Q77.5625,24.6133 77.5625,26.707 Q77.5625,28.8008 78.25,29.8789 Q78.9375,30.9414 80.2813,30.9414 Q80.9063,30.9414 81.5,30.6758 Q82.0938,30.3945 82.7188,29.8164 L82.7188,32.5352 Z " fill="#000000"/><text fill="#D9B8FF" font-family="Helvetica" font-size="17" lengthAdjust="spacing" textLength="71" x="105.25" y="32.7798">resource</text><line style="stroke:#000D19;stroke-width:0.5;" x1="12" x2="237" y1="46.7891" y2="46.7891"/><text fill="#D9B8FF" font-family="sans-serif" font-size="14" font-weight="bold" lengthAdjust="spacing" textLength="29" x="22" y="68.7842">age</text><text fill="#D9B8FF" font-family="sans-serif" font-size="14" lengthAdjust="spacing" textLength="66" x="51" y="68.7842">: duration</text><text fill="#D9B8FF" font-family="sans-serif" font-size="14" font-weight="bold" lengthAdjust="spacing" textLength="43" x="22" y="95.0811">atime</text><text fill="#D9B8FF" font-family="sans-serif" font-size="14" lengthAdjust="spacing" textLength="70" x="65" y="95.0811">: datetime</text><text fill="#D9B8FF" font-family="sans-serif" font-size="14" font-weight="bold" lengthAdjust="spacing" textLength="43" x="22" y="121.3779">ctime</text><text fill="#D9B8FF" font-family="sans-serif" font-size="14" lengthAdjust="spacing" textLength="70" x="65" y="121.3779">: datetime</text><text fill="#D9B8FF" font-family="sans-serif" font-size="14" font-weight="bold" lengthAdjust="spacing" textLength="14" x="22" y="147.6748">id</text><text fill="#D9B8FF" font-family="sans-serif" font-size="14" lengthAdjust="spacing" textLength="48" x="36" y="147.6748">: string</text><text fill="#D9B8FF" font-family="sans-serif" font-size="14" font-weight="bold" lengthAdjust="spacing" textLength="33" x="22" y="173.9717">kind</text><text fill="#D9B8FF" font-family="sans-serif" font-size="14" lengthAdjust="spacing" textLength="48" x="55" y="173.9717">: string</text><text fill="#D9B8FF" font-family="sans-serif" font-size="14" font-weight="bold" lengthAdjust="spacing" textLength="90" x="22" y="200.2686">last_access</text><text fill="#D9B8FF" font-family="sans-serif" font-size="14" lengthAdjust="spacing" textLength="66" x="112" y="200.2686">: duration</text><text fill="#D9B8FF" font-family="sans-serif" font-size="14" font-weight="bold" lengthAdjust="spacing" textLength="90" x="22" y="226.5654">last_update</text><text fill="#D9B8FF" font-family="sans-serif" font-size="14" lengthAdjust="spacing" textLength="66" x="112" y="226.5654">: duration</text><text fill="#D9B8FF" font-family="sans-serif" font-size="14" font-weight="bold" lengthAdjust="spacing" textLength="48" x="22" y="252.8623">mtime</text><text fill="#D9B8FF" font-family="sans-serif" font-size="14" lengthAdjust="spacing" textLength="70" x="70" y="252.8623">: datetime</text><text fill="#D9B8FF" font-family="sans-serif" font-size="14" font-weight="bold" lengthAdjust="spacing" textLength="43" x="22" y="279.1592">name</text><text fill="#D9B8FF" font-family="sans-serif" font-size="14" lengthAdjust="spacing" textLength="48" x="65" y="279.1592">: string</text><text fill="#D9B8FF" font-family="sans-serif" font-size="14" font-weight="bold" lengthAdjust="spacing" textLength="34" x="22" y="305.4561">tags</text><text fill="#D9B8FF" font-family="sans-serif" font-size="14" lengthAdjust="spacing" textLength="171" x="56" y="305.4561">: dictionary[string, string]</text></g><!--reverse link aws_resource to aws_q_business_plugin--><g id="link_aws_resource_aws_q_business_plugin"><path codeLine="49" d="M124.5,531.07 C124.5,561.5 124.5,589.03 124.5,633.63 " fill="none" id="aws_resource-backto-aws_q_business_plugin" style="stroke:#FFAF37;stroke-width:2.0;"/><polygon fill="none" points="124.5,513.07,118.5,531.07,130.5,531.07,124.5,513.07" style="stroke:#FFAF37;stroke-width:2.0;"/></g><!--reverse link resource to aws_resource--><g id="link_resource_aws_resource"><path codeLine="50" d="M124.5,336.17 C124.5,381.21 124.5,408.34 124.5,438.51 " fill="none" id="resource-backto-aws_resource" style="stroke:#FFAF37;stroke-width:2.0;"/><polygon fill="none" points="124.5,318.17,118.5,336.17,130.5,336.17,124.5,318.17" style="stroke:#FFAF37;stroke-width:2.0;"/></g><!--SRC=[XPBDRjim48JlUWe2kHarO3Te7HUzf0QAzX8KJMz5GQp8bKnO8jNbCeRxy-ubhRYGA2Mv6JCVTtRMsXkD0jkEJwB5jaJoXJyOsm51Asw9t77d6aVYgggWkjxavaTd-KNW3beKdx1vG3OASkBRtgY3HU_5wu7r0TIX9XUixiSpWVNHGii3QjU0zxVCPCh0E5X6RykRgih9VEZLjLvltk84SwIH7f7LQgNNsnnvCUhPtl-9U_CBnNfuj3l7E5bp4d6cdjqo4OCb9qKl_fCxVW6jZQt5cu7sjT-9BD98lz-3TiT4Lz3uOOnd97Hywd0tQONR6rrjPk7FJy65IgSJSFJofoo3D-d3aLqJQcF5xsAnWAvhOX4spagZ5ujtSIh5pQ9L1jDewHau-96X285HI-0aw_YRJOlHqCPt3PoaZKSQlUW3ym2Fz80a0pLZEIQEdwUA8o5qUcw3luEwXDu5KjYt93juVy76I7sEq87EnqXAcfarL3DQrYh-FMCXPh44fUBbiuIpqtV9d7OcPt9LXhgVQ5Hw1dJwtdkl7faViUhe5k__B9VB-Q-Xc84kKl4F]--></g></svg>