<?xml version="1.0" encoding="us-ascii" standalone="no"?><svg xmlns="http://www.w3.org/2000/svg" xmlns:xlink="http://www.w3.org/1999/xlink" contentStyleType="text/css" height="1296px" preserveAspectRatio="none" style="width:605px;height:1296px;" version="1.1" viewBox="0 0 605 1296" width="605px" zoomAndPan="magnify"><defs/><g><!--class gcp_address--><g id="elem_gcp_address"><rect codeLine="23" fill="#3D176E" height="337.0547" id="gcp_address" rx="2.5" ry="2.5" style="stroke:#000D19;stroke-width:0.5;" width="222" x="234" y="712.73"/><ellipse cx="285.75" cy="732.6245" fill="#ADD1B2" rx="11" ry="11" style="stroke:#181818;stroke-width:1.0;"/><path d="M288.7188,738.2652 Q288.1406,738.562 287.5,738.7027 Q286.8594,738.8589 286.1563,738.8589 Q283.6563,738.8589 282.3281,737.2183 Q281.0156,735.562 281.0156,732.437 Q281.0156,729.312 282.3281,727.6558 Q283.6563,725.9995 286.1563,725.9995 Q286.8594,725.9995 287.5,726.1558 Q288.1563,726.312 288.7188,726.6089 L288.7188,729.3277 Q288.0938,728.7495 287.5,728.4839 Q286.9063,728.2027 286.2813,728.2027 Q284.9375,728.2027 284.25,729.2808 Q283.5625,730.3433 283.5625,732.437 Q283.5625,734.5308 284.25,735.6089 Q284.9375,736.6714 286.2813,736.6714 Q286.9063,736.6714 287.5,736.4058 Q288.0938,736.1245 288.7188,735.5464 L288.7188,738.2652 Z " fill="#000000"/><text fill="#D9B8FF" font-family="Helvetica" font-size="17" lengthAdjust="spacing" textLength="100" x="311.25" y="738.5098">gcp_address</text><line style="stroke:#000D19;stroke-width:0.5;" x1="235" x2="455" y1="752.5191" y2="752.5191"/><text fill="#D9B8FF" font-family="sans-serif" font-size="14" font-weight="bold" lengthAdjust="spacing" textLength="64" x="245" y="774.5142">address</text><text fill="#D9B8FF" font-family="sans-serif" font-size="14" lengthAdjust="spacing" textLength="48" x="309" y="774.5142">: string</text><text fill="#D9B8FF" font-family="sans-serif" font-size="14" font-weight="bold" lengthAdjust="spacing" textLength="106" x="245" y="800.8111">address_type</text><text fill="#D9B8FF" font-family="sans-serif" font-size="14" lengthAdjust="spacing" textLength="48" x="351" y="800.8111">: string</text><text fill="#D9B8FF" font-family="sans-serif" font-size="14" font-weight="bold" lengthAdjust="spacing" textLength="80" x="245" y="827.1079">ip_version</text><text fill="#D9B8FF" font-family="sans-serif" font-size="14" lengthAdjust="spacing" textLength="48" x="325" y="827.1079">: string</text><text fill="#D9B8FF" font-family="sans-serif" font-size="14" font-weight="bold" lengthAdjust="spacing" textLength="152" x="245" y="853.4048">ipv6_endpoint_type</text><text fill="#D9B8FF" font-family="sans-serif" font-size="14" lengthAdjust="spacing" textLength="48" x="397" y="853.4048">: string</text><text fill="#D9B8FF" font-family="sans-serif" font-size="14" font-weight="bold" lengthAdjust="spacing" textLength="66" x="245" y="879.7017">network</text><text fill="#D9B8FF" font-family="sans-serif" font-size="14" lengthAdjust="spacing" textLength="48" x="311" y="879.7017">: string</text><text fill="#D9B8FF" font-family="sans-serif" font-size="14" font-weight="bold" lengthAdjust="spacing" textLength="100" x="245" y="905.9986">network_tier</text><text fill="#D9B8FF" font-family="sans-serif" font-size="14" lengthAdjust="spacing" textLength="48" x="345" y="905.9986">: string</text><text fill="#D9B8FF" font-family="sans-serif" font-size="14" font-weight="bold" lengthAdjust="spacing" textLength="103" x="245" y="932.2954">prefix_length</text><text fill="#D9B8FF" font-family="sans-serif" font-size="14" lengthAdjust="spacing" textLength="44" x="348" y="932.2954">: int64</text><text fill="#D9B8FF" font-family="sans-serif" font-size="14" font-weight="bold" lengthAdjust="spacing" textLength="66" x="245" y="958.5923">purpose</text><text fill="#D9B8FF" font-family="sans-serif" font-size="14" lengthAdjust="spacing" textLength="48" x="311" y="958.5923">: string</text><text fill="#D9B8FF" font-family="sans-serif" font-size="14" font-weight="bold" lengthAdjust="spacing" textLength="49" x="245" y="984.8892">status</text><text fill="#D9B8FF" font-family="sans-serif" font-size="14" lengthAdjust="spacing" textLength="48" x="294" y="984.8892">: string</text><text fill="#D9B8FF" font-family="sans-serif" font-size="14" font-weight="bold" lengthAdjust="spacing" textLength="95" x="245" y="1011.1861">subnetwork</text><text fill="#D9B8FF" font-family="sans-serif" font-size="14" lengthAdjust="spacing" textLength="48" x="340" y="1011.1861">: string</text><text fill="#D9B8FF" font-family="sans-serif" font-size="14" font-weight="bold" lengthAdjust="spacing" textLength="45" x="245" y="1037.4829">users</text><text fill="#D9B8FF" font-family="sans-serif" font-size="14" lengthAdjust="spacing" textLength="58" x="290" y="1037.4829">: string[]</text></g><!--class gcp_deprecation_status--><g id="elem_gcp_deprecation_status"><rect codeLine="36" fill="#3D176E" height="179.2734" id="gcp_deprecation_status" rx="2.5" ry="2.5" style="stroke:#000D19;stroke-width:0.5;" width="237" x="144.5" y="1109.79"/><ellipse cx="159.5" cy="1129.6845" fill="#ADD1B2" rx="11" ry="11" style="stroke:#181818;stroke-width:1.0;"/><path d="M162.4688,1135.3252 Q161.8906,1135.622 161.25,1135.7627 Q160.6094,1135.9189 159.9063,1135.9189 Q157.4063,1135.9189 156.0781,1134.2783 Q154.7656,1132.622 154.7656,1129.497 Q154.7656,1126.372 156.0781,1124.7158 Q157.4063,1123.0595 159.9063,1123.0595 Q160.6094,1123.0595 161.25,1123.2158 Q161.9063,1123.372 162.4688,1123.6689 L162.4688,1126.3877 Q161.8438,1125.8095 161.25,1125.5439 Q160.6563,1125.2627 160.0313,1125.2627 Q158.6875,1125.2627 158,1126.3408 Q157.3125,1127.4033 157.3125,1129.497 Q157.3125,1131.5908 158,1132.6689 Q158.6875,1133.7314 160.0313,1133.7314 Q160.6563,1133.7314 161.25,1133.4658 Q161.8438,1133.1845 162.4688,1132.6064 L162.4688,1135.3252 Z " fill="#000000"/><text fill="#D9B8FF" font-family="Helvetica" font-size="17" lengthAdjust="spacing" textLength="195" x="178.5" y="1135.5698">gcp_deprecation_status</text><line style="stroke:#000D19;stroke-width:0.5;" x1="145.5" x2="380.5" y1="1149.5791" y2="1149.5791"/><text fill="#D9B8FF" font-family="sans-serif" font-size="14" font-weight="bold" lengthAdjust="spacing" textLength="60" x="155.5" y="1171.5742">deleted</text><text fill="#D9B8FF" font-family="sans-serif" font-size="14" lengthAdjust="spacing" textLength="48" x="215.5" y="1171.5742">: string</text><text fill="#D9B8FF" font-family="sans-serif" font-size="14" font-weight="bold" lengthAdjust="spacing" textLength="91" x="155.5" y="1197.8711">deprecated</text><text fill="#D9B8FF" font-family="sans-serif" font-size="14" lengthAdjust="spacing" textLength="48" x="246.5" y="1197.8711">: string</text><text fill="#D9B8FF" font-family="sans-serif" font-size="14" font-weight="bold" lengthAdjust="spacing" textLength="69" x="155.5" y="1224.1679">obsolete</text><text fill="#D9B8FF" font-family="sans-serif" font-size="14" lengthAdjust="spacing" textLength="48" x="224.5" y="1224.1679">: string</text><text fill="#D9B8FF" font-family="sans-serif" font-size="14" font-weight="bold" lengthAdjust="spacing" textLength="99" x="155.5" y="1250.4648">replacement</text><text fill="#D9B8FF" font-family="sans-serif" font-size="14" lengthAdjust="spacing" textLength="48" x="254.5" y="1250.4648">: string</text><text fill="#D9B8FF" font-family="sans-serif" font-size="14" font-weight="bold" lengthAdjust="spacing" textLength="40" x="155.5" y="1276.7617">state</text><text fill="#D9B8FF" font-family="sans-serif" font-size="14" lengthAdjust="spacing" textLength="48" x="195.5" y="1276.7617">: string</text></g><!--class gcp_resource--><g id="elem_gcp_resource"><rect codeLine="43" fill="#3D176E" height="152.9766" id="gcp_resource" rx="2.5" ry="2.5" style="stroke:#000D19;stroke-width:0.5;" width="348" x="7" y="438.76"/><ellipse cx="117.75" cy="458.6545" fill="#ADD1B2" rx="11" ry="11" style="stroke:#181818;stroke-width:1.0;"/><path d="M120.7188,464.2952 Q120.1406,464.592 119.5,464.7327 Q118.8594,464.8889 118.1563,464.8889 Q115.6563,464.8889 114.3281,463.2483 Q113.0156,461.592 113.0156,458.467 Q113.0156,455.342 114.3281,453.6858 Q115.6563,452.0295 118.1563,452.0295 Q118.8594,452.0295 119.5,452.1858 Q120.1563,452.342 120.7188,452.6389 L120.7188,455.3577 Q120.0938,454.7795 119.5,454.5139 Q118.9063,454.2327 118.2813,454.2327 Q116.9375,454.2327 116.25,455.3108 Q115.5625,456.3733 115.5625,458.467 Q115.5625,460.5608 116.25,461.6389 Q116.9375,462.7014 118.2813,462.7014 Q118.9063,462.7014 119.5,462.4358 Q120.0938,462.1545 120.7188,461.5764 L120.7188,464.2952 Z " fill="#000000"/><text fill="#D9B8FF" font-family="Helvetica" font-size="17" lengthAdjust="spacing" textLength="108" x="143.25" y="464.5398">gcp_resource</text><line style="stroke:#000D19;stroke-width:0.5;" x1="8" x2="354" y1="478.5491" y2="478.5491"/><text fill="#D9B8FF" font-family="sans-serif" font-size="14" font-weight="bold" lengthAdjust="spacing" textLength="151" x="18" y="500.5442">deprecation_status</text><text fill="#D9B8FF" font-family="sans-serif" font-size="14" lengthAdjust="spacing" textLength="175" x="169" y="500.5442">: gcp_deprecation_status</text><text fill="#D9B8FF" font-family="sans-serif" font-size="14" font-weight="bold" lengthAdjust="spacing" textLength="89" x="18" y="526.8411">description</text><text fill="#D9B8FF" font-family="sans-serif" font-size="14" lengthAdjust="spacing" textLength="48" x="107" y="526.8411">: string</text><text fill="#D9B8FF" font-family="sans-serif" font-size="14" font-weight="bold" lengthAdjust="spacing" textLength="128" x="18" y="553.1379">label_fingerprint</text><text fill="#D9B8FF" font-family="sans-serif" font-size="14" lengthAdjust="spacing" textLength="48" x="146" y="553.1379">: string</text><text fill="#D9B8FF" font-family="sans-serif" font-size="14" font-weight="bold" lengthAdjust="spacing" textLength="27" x="18" y="579.4348">link</text><text fill="#D9B8FF" font-family="sans-serif" font-size="14" lengthAdjust="spacing" textLength="48" x="45" y="579.4348">: string</text></g><!--class ip_address--><g id="elem_ip_address"><rect codeLine="49" fill="#3D176E" height="100.3828" id="ip_address" rx="2.5" ry="2.5" style="stroke:#000D19;stroke-width:0.5;" width="208" x="390" y="465.05"/><ellipse cx="441.25" cy="484.9445" fill="#ADD1B2" rx="11" ry="11" style="stroke:#181818;stroke-width:1.0;"/><path d="M444.2188,490.5852 Q443.6406,490.882 443,491.0227 Q442.3594,491.1789 441.6563,491.1789 Q439.1563,491.1789 437.8281,489.5383 Q436.5156,487.882 436.5156,484.757 Q436.5156,481.632 437.8281,479.9758 Q439.1563,478.3195 441.6563,478.3195 Q442.3594,478.3195 443,478.4758 Q443.6563,478.632 444.2188,478.9289 L444.2188,481.6477 Q443.5938,481.0695 443,480.8039 Q442.4063,480.5227 441.7813,480.5227 Q440.4375,480.5227 439.75,481.6008 Q439.0625,482.6633 439.0625,484.757 Q439.0625,486.8508 439.75,487.9289 Q440.4375,488.9914 441.7813,488.9914 Q442.4063,488.9914 443,488.7258 Q443.5938,488.4445 444.2188,487.8664 L444.2188,490.5852 Z " fill="#000000"/><text fill="#D9B8FF" font-family="Helvetica" font-size="17" lengthAdjust="spacing" textLength="87" x="466.75" y="490.8298">ip_address</text><line style="stroke:#000D19;stroke-width:0.5;" x1="391" x2="597" y1="504.8391" y2="504.8391"/><text fill="#D9B8FF" font-family="sans-serif" font-size="14" font-weight="bold" lengthAdjust="spacing" textLength="85" x="401" y="526.8342">ip_address</text><text fill="#D9B8FF" font-family="sans-serif" font-size="14" lengthAdjust="spacing" textLength="48" x="486" y="526.8342">: string</text><text fill="#D9B8FF" font-family="sans-serif" font-size="14" font-weight="bold" lengthAdjust="spacing" textLength="138" x="401" y="553.1311">ip_address_family</text><text fill="#D9B8FF" font-family="sans-serif" font-size="14" lengthAdjust="spacing" textLength="48" x="539" y="553.1311">: string</text></g><!--class resource--><g id="elem_resource"><rect codeLine="53" fill="#3D176E" height="310.7578" id="resource" rx="2.5" ry="2.5" style="stroke:#000D19;stroke-width:0.5;" width="227" x="223.5" y="7"/><ellipse cx="292.25" cy="26.8945" fill="#ADD1B2" rx="11" ry="11" style="stroke:#181818;stroke-width:1.0;"/><path d="M295.2188,32.5352 Q294.6406,32.832 294,32.9727 Q293.3594,33.1289 292.6563,33.1289 Q290.1563,33.1289 288.8281,31.4883 Q287.5156,29.832 287.5156,26.707 Q287.5156,23.582 288.8281,21.9258 Q290.1563,20.2695 292.6563,20.2695 Q293.3594,20.2695 294,20.4258 Q294.6563,20.582 295.2188,20.8789 L295.2188,23.5977 Q294.5938,23.0195 294,22.7539 Q293.4063,22.4727 292.7813,22.4727 Q291.4375,22.4727 290.75,23.5508 Q290.0625,24.6133 290.0625,26.707 Q290.0625,28.8008 290.75,29.8789 Q291.4375,30.9414 292.7813,30.9414 Q293.4063,30.9414 294,30.6758 Q294.5938,30.3945 295.2188,29.8164 L295.2188,32.5352 Z " fill="#000000"/><text fill="#D9B8FF" font-family="Helvetica" font-size="17" lengthAdjust="spacing" textLength="71" x="317.75" y="32.7798">resource</text><line style="stroke:#000D19;stroke-width:0.5;" x1="224.5" x2="449.5" y1="46.7891" y2="46.7891"/><text fill="#D9B8FF" font-family="sans-serif" font-size="14" font-weight="bold" lengthAdjust="spacing" textLength="29" x="234.5" y="68.7842">age</text><text fill="#D9B8FF" font-family="sans-serif" font-size="14" lengthAdjust="spacing" textLength="66" x="263.5" y="68.7842">: duration</text><text fill="#D9B8FF" font-family="sans-serif" font-size="14" font-weight="bold" lengthAdjust="spacing" textLength="43" x="234.5" y="95.0811">atime</text><text fill="#D9B8FF" font-family="sans-serif" font-size="14" lengthAdjust="spacing" textLength="70" x="277.5" y="95.0811">: datetime</text><text fill="#D9B8FF" font-family="sans-serif" font-size="14" font-weight="bold" lengthAdjust="spacing" textLength="43" x="234.5" y="121.3779">ctime</text><text fill="#D9B8FF" font-family="sans-serif" font-size="14" lengthAdjust="spacing" textLength="70" x="277.5" y="121.3779">: datetime</text><text fill="#D9B8FF" font-family="sans-serif" font-size="14" font-weight="bold" lengthAdjust="spacing" textLength="14" x="234.5" y="147.6748">id</text><text fill="#D9B8FF" font-family="sans-serif" font-size="14" lengthAdjust="spacing" textLength="48" x="248.5" y="147.6748">: string</text><text fill="#D9B8FF" font-family="sans-serif" font-size="14" font-weight="bold" lengthAdjust="spacing" textLength="33" x="234.5" y="173.9717">kind</text><text fill="#D9B8FF" font-family="sans-serif" font-size="14" lengthAdjust="spacing" textLength="48" x="267.5" y="173.9717">: string</text><text fill="#D9B8FF" font-family="sans-serif" font-size="14" font-weight="bold" lengthAdjust="spacing" textLength="90" x="234.5" y="200.2686">last_access</text><text fill="#D9B8FF" font-family="sans-serif" font-size="14" lengthAdjust="spacing" textLength="66" x="324.5" y="200.2686">: duration</text><text fill="#D9B8FF" font-family="sans-serif" font-size="14" font-weight="bold" lengthAdjust="spacing" textLength="90" x="234.5" y="226.5654">last_update</text><text fill="#D9B8FF" font-family="sans-serif" font-size="14" lengthAdjust="spacing" textLength="66" x="324.5" y="226.5654">: duration</text><text fill="#D9B8FF" font-family="sans-serif" font-size="14" font-weight="bold" lengthAdjust="spacing" textLength="48" x="234.5" y="252.8623">mtime</text><text fill="#D9B8FF" font-family="sans-serif" font-size="14" lengthAdjust="spacing" textLength="70" x="282.5" y="252.8623">: datetime</text><text fill="#D9B8FF" font-family="sans-serif" font-size="14" font-weight="bold" lengthAdjust="spacing" textLength="43" x="234.5" y="279.1592">name</text><text fill="#D9B8FF" font-family="sans-serif" font-size="14" lengthAdjust="spacing" textLength="48" x="277.5" y="279.1592">: string</text><text fill="#D9B8FF" font-family="sans-serif" font-size="14" font-weight="bold" lengthAdjust="spacing" textLength="34" x="234.5" y="305.4561">tags</text><text fill="#D9B8FF" font-family="sans-serif" font-size="14" lengthAdjust="spacing" textLength="171" x="268.5" y="305.4561">: dictionary[string, string]</text></g><!--link gcp_address to gcp_deprecation_status--><g id="link_gcp_address_gcp_deprecation_status"><path codeLine="65" d="M301.48,1050.06 C296.15,1070.61 292.3856,1085.122 287.5356,1103.832 " fill="none" id="gcp_address-to-gcp_deprecation_status" style="stroke:#FFAF37;stroke-width:2.0;"/><polygon fill="#FFAF37" points="286.03,1109.64,292.1604,1101.9316,287.2846,1104.8,284.4163,1099.9242,286.03,1109.64" style="stroke:#FFAF37;stroke-width:2.0;"/></g><!--reverse link gcp_resource to gcp_address--><g id="link_gcp_resource_gcp_address"><path codeLine="66" d="M222.5745,608.521 C238.3945,643.631 250.46,670.43 269.47,712.6 " fill="none" id="gcp_resource-backto-gcp_address" style="stroke:#FFAF37;stroke-width:2.0;"/><polygon fill="none" points="215.18,592.11,217.1042,610.9858,228.0449,606.0562,215.18,592.11" style="stroke:#FFAF37;stroke-width:2.0;"/></g><!--reverse link ip_address to gcp_address--><g id="link_ip_address_gcp_address"><path codeLine="67" d="M466.9295,582.3778 C451.3295,620.4778 435.63,658.84 413.77,712.25 " fill="none" id="ip_address-backto-gcp_address" style="stroke:#FFAF37;stroke-width:2.0;"/><polygon fill="none" points="473.75,565.72,461.3769,580.1043,472.4821,584.6513,473.75,565.72" style="stroke:#FFAF37;stroke-width:2.0;"/></g><!--link gcp_resource to gcp_deprecation_status--><g id="link_gcp_resource_gcp_deprecation_status"><path codeLine="68" d="M180.6,592.04 C181.29,696.11 187.06,888.68 217,1049.79 C220.65,1069.44 224.3275,1084.3996 230.1375,1103.9096 " fill="none" id="gcp_resource-to-gcp_deprecation_status" style="stroke:#FFAF37;stroke-width:2.0;"/><polygon fill="#FFAF37" points="231.85,1109.66,233.1149,1099.8927,230.423,1104.868,225.4477,1102.176,231.85,1109.66" style="stroke:#FFAF37;stroke-width:2.0;"/></g><!--reverse link resource to gcp_resource--><g id="link_resource_gcp_resource"><path codeLine="69" d="M260.924,334.4862 C242.374,376.1862 230.45,403.03 214.76,438.31 " fill="none" id="resource-backto-gcp_resource" style="stroke:#FFAF37;stroke-width:2.0;"/><polygon fill="none" points="268.24,318.04,255.442,332.0475,266.4061,336.9248,268.24,318.04" style="stroke:#FFAF37;stroke-width:2.0;"/></g><!--reverse link resource to ip_address--><g id="link_resource_ip_address"><path codeLine="70" d="M413.5605,334.4708 C437.2305,387.3808 454.7,426.42 471.89,464.82 " fill="none" id="resource-backto-ip_address" style="stroke:#FFAF37;stroke-width:2.0;"/><polygon fill="none" points="406.21,318.04,408.0836,336.9209,419.0374,332.0206,406.21,318.04" style="stroke:#FFAF37;stroke-width:2.0;"/></g><!--SRC=[XLDTYzim47pthp3SMsZWqckJIoc5Qw2qBqVfzUqeHfRMZeWiYPMSDFtuxvLifv5a9_TcpuncPrUhBMUGGwFjCM-WAG5DPdPSQeAaoHyGrM6ZXCByfgf8TRTAoKzAsXS5ZwI1_3E8FLXEIQhulkLq9y6O_7L0VIHqLwDg9UljBH9f70NI1ggD8COyM8kyR2q4OTYwlA-gL9cQtjonnMe98vb21ZX8RczlsMATIbuiTRNl_ued_WloHJYqHsLX57DKebDTJUaLGSXHeoV-OiQlX34kw_njW7thCw44ZF2dBM7guDKL4IOiOomWA7lKi1br1UjxLgqcnLykYJFgHvVNL1Sk7_gj-PtDPiFtRFREcQ0BSiOAxnSHN1Txj-TSoGJUBmkGJ2ikxVYK17jGk9l22ii18q8ZLFnd8K3MTkiPPxbyuuaMjJAnix74jd5sqvPJzLhZSf-Hvn_Pts0W35nPIgnhhEWzkzam4621HKOdQGAhqYWlZa04BGY5nhsyKUnG6KPnWrSjKXW2fBdygUd4dTnGvDgczoD82QAet0-WTbYSHd2vcmZ3upqv_wORSTgMYZHS72USefP8tNNEMkp2UyJofiVSLFotm-W4nkE9kzrdIPV65eJI8M9GeMDQpOQf1qmpKKUI9hv6I-hUaLD_ZE3nkUTU3Hg_JE6xciy_NBgaw8hV_vdFv-6Bp8AXZydex9KQ4_udAENEzR9_]--></g></svg>