<svg xmlns="http://www.w3.org/2000/svg" width="2531" height="1937" viewBox="0 0 2531 1937"><rect width="250" height="100.383" x="14" y="991.45" fill="#3D176E" rx="2.5" ry="2.5" style="stroke:#000d19;stroke-width:.5"/><circle cx="29" cy="1011.345" r="11" fill="#ADD1B2" style="stroke:#181818;stroke-width:1"/><path d="M31.969 1016.985q-.578.297-1.219.438-.64.156-1.344.156-2.5 0-3.828-1.64-1.312-1.657-1.312-4.782t1.312-4.781q1.328-1.656 3.828-1.656.703 0 1.344.156.656.156 1.219.453v2.719q-.625-.578-1.219-.844-.594-.281-1.219-.281-1.343 0-2.031 1.078-.687 1.062-.687 3.156t.687 3.172q.688 1.062 2.031 1.062.625 0 1.219-.265.594-.281 1.219-.86z"/><text x="48" y="1017.23" fill="#D9B8FF" font-family="Helvetica" font-size="17" textLength="208">azure_extended_location</text><path d="M15 1031.239h248" style="stroke:#000d19;stroke-width:.5"/><text x="25" y="1053.234" fill="#D9B8FF" font-family="sans-serif" font-size="14" font-weight="bold" textLength="43">name</text><text x="68" y="1053.234" fill="#D9B8FF" font-family="sans-serif" font-size="14" textLength="48">: string</text><text x="25" y="1079.531" fill="#D9B8FF" font-family="sans-serif" font-size="14" font-weight="bold" textLength="35">type</text><text x="60" y="1079.531" fill="#D9B8FF" font-family="sans-serif" font-size="14" textLength="48">: string</text><rect width="306" height="100.383" x="1295" y="1230.72" fill="#3D176E" rx="2.5" ry="2.5" style="stroke:#000d19;stroke-width:.5"/><circle cx="1310" cy="1250.614" r="11" fill="#ADD1B2" style="stroke:#181818;stroke-width:1"/><path d="M1312.969 1256.255q-.578.297-1.219.438-.64.156-1.344.156-2.5 0-3.828-1.64-1.312-1.657-1.312-4.782t1.312-4.781q1.328-1.657 3.828-1.657.703 0 1.344.157.656.156 1.219.453v2.719q-.625-.579-1.219-.844-.594-.281-1.219-.281-1.343 0-2.031 1.078-.687 1.062-.687 3.156t.687 3.172q.688 1.062 2.031 1.062.625 0 1.219-.265.594-.282 1.219-.86z"/><text x="1329" y="1256.5" fill="#D9B8FF" font-family="Helvetica" font-size="17" textLength="264">azure_monitor_batch_processor</text><path d="M1296 1270.509h304" style="stroke:#000d19;stroke-width:.5"/><text x="1306" y="1292.504" fill="#D9B8FF" font-family="sans-serif" font-size="14" font-weight="bold" textLength="83">batch_size</text><text x="1389" y="1292.504" fill="#D9B8FF" font-family="sans-serif" font-size="14" textLength="44">: int64</text><text x="1306" y="1318.801" fill="#D9B8FF" font-family="sans-serif" font-size="14" font-weight="bold" textLength="60">timeout</text><text x="1366" y="1318.801" fill="#D9B8FF" font-family="sans-serif" font-size="14" textLength="44">: int64</text><rect width="340" height="100.383" x="7" y="1456.85" fill="#3D176E" rx="2.5" ry="2.5" style="stroke:#000d19;stroke-width:.5"/><circle cx="22" cy="1476.745" r="11" fill="#ADD1B2" style="stroke:#181818;stroke-width:1"/><path d="M24.969 1482.385q-.578.297-1.219.438-.64.156-1.344.156-2.5 0-3.828-1.64-1.312-1.657-1.312-4.782t1.312-4.781q1.328-1.657 3.828-1.657.703 0 1.344.157.656.156 1.219.453v2.719q-.625-.579-1.219-.844-.594-.281-1.219-.281-1.343 0-2.031 1.078-.687 1.062-.687 3.156t.687 3.172q.688 1.062 2.031 1.062.625 0 1.219-.265.594-.282 1.219-.86z"/><text x="41" y="1482.63" fill="#D9B8FF" font-family="Helvetica" font-size="17" textLength="298">azure_monitor_cache_configuration</text><path d="M8 1496.639h338" style="stroke:#000d19;stroke-width:.5"/><text x="18" y="1518.634" fill="#D9B8FF" font-family="sans-serif" font-size="14" font-weight="bold" textLength="155">max_storage_usage</text><text x="173" y="1518.634" fill="#D9B8FF" font-family="sans-serif" font-size="14" textLength="44">: int64</text><text x="18" y="1544.931" fill="#D9B8FF" font-family="sans-serif" font-size="14" font-weight="bold" textLength="131">retention_period</text><text x="149" y="1544.931" fill="#D9B8FF" font-family="sans-serif" font-size="14" textLength="44">: int64</text><rect width="394" height="100.383" x="382" y="1456.85" fill="#3D176E" rx="2.5" ry="2.5" style="stroke:#000d19;stroke-width:.5"/><circle cx="397" cy="1476.745" r="11" fill="#ADD1B2" style="stroke:#181818;stroke-width:1"/><path d="M399.969 1482.385q-.578.297-1.219.438-.64.156-1.344.156-2.5 0-3.828-1.64-1.312-1.657-1.312-4.782t1.312-4.781q1.328-1.657 3.828-1.657.703 0 1.344.157.656.156 1.219.453v2.719q-.625-.579-1.219-.844-.594-.281-1.219-.281-1.344 0-2.031 1.078-.687 1.062-.687 3.156t.687 3.172q.688 1.062 2.031 1.062.625 0 1.219-.265.594-.282 1.219-.86z"/><text x="416" y="1482.63" fill="#D9B8FF" font-family="Helvetica" font-size="17" textLength="352">azure_monitor_concurrency_configuration</text><path d="M383 1496.639h392" style="stroke:#000d19;stroke-width:.5"/><text x="393" y="1518.634" fill="#D9B8FF" font-family="sans-serif" font-size="14" font-weight="bold" textLength="140">batch_queue_size</text><text x="533" y="1518.634" fill="#D9B8FF" font-family="sans-serif" font-size="14" textLength="44">: int64</text><text x="393" y="1544.931" fill="#D9B8FF" font-family="sans-serif" font-size="14" font-weight="bold" textLength="109">worker_count</text><text x="502" y="1544.931" fill="#D9B8FF" font-family="sans-serif" font-size="14" textLength="44">: int64</text><rect width="560" height="152.977" x="299" y="965.15" fill="#3D176E" rx="2.5" ry="2.5" style="stroke:#000d19;stroke-width:.5"/><circle cx="468.75" cy="985.044" r="11" fill="#ADD1B2" style="stroke:#181818;stroke-width:1"/><path d="M471.719 990.685q-.578.297-1.219.438-.64.156-1.344.156-2.5 0-3.828-1.64-1.312-1.657-1.312-4.782t1.312-4.781q1.328-1.657 3.828-1.657.703 0 1.344.157.656.156 1.219.453v2.719q-.625-.579-1.219-.844-.594-.281-1.219-.281-1.344 0-2.031 1.078-.687 1.062-.687 3.156t.687 3.172q.688 1.062 2.031 1.062.625 0 1.219-.265.594-.282 1.219-.86z"/><text x="494.25" y="990.93" fill="#D9B8FF" font-family="Helvetica" font-size="17" textLength="202">azure_monitor_exporter</text><path d="M300 1004.939h558" style="stroke:#000d19;stroke-width:.5"/><text x="310" y="1026.934" fill="#D9B8FF" font-family="sans-serif" font-size="14" font-weight="bold" textLength="247">azure_monitor_workspace_logs</text><text x="557" y="1026.934" fill="#D9B8FF" font-family="sans-serif" font-size="14" textLength="291">: azure_monitor_workspace_logs_exporter</text><text x="310" y="1053.231" fill="#D9B8FF" font-family="sans-serif" font-size="14" font-weight="bold" textLength="43">name</text><text x="353" y="1053.231" fill="#D9B8FF" font-family="sans-serif" font-size="14" textLength="48">: string</text><text x="310" y="1079.528" fill="#D9B8FF" font-family="sans-serif" font-size="14" font-weight="bold" textLength="25">tcp</text><text x="335" y="1079.528" fill="#D9B8FF" font-family="sans-serif" font-size="14" textLength="48">: string</text><text x="310" y="1105.825" fill="#D9B8FF" font-family="sans-serif" font-size="14" font-weight="bold" textLength="35">type</text><text x="345" y="1105.825" fill="#D9B8FF" font-family="sans-serif" font-size="14" textLength="48">: string</text><rect width="389" height="126.68" x="894.5" y="978.3" fill="#3D176E" rx="2.5" ry="2.5" style="stroke:#000d19;stroke-width:.5"/><circle cx="909.5" cy="998.194" r="11" fill="#ADD1B2" style="stroke:#181818;stroke-width:1"/><path d="M912.469 1003.835q-.578.297-1.219.438-.64.156-1.344.156-2.5 0-3.828-1.64-1.312-1.657-1.312-4.782t1.312-4.781q1.328-1.657 3.828-1.657.703 0 1.344.157.656.156 1.219.453v2.719q-.625-.579-1.219-.844-.594-.281-1.219-.281-1.343 0-2.031 1.078-.687 1.062-.687 3.156t.687 3.172q.688 1.062 2.031 1.062.625 0 1.219-.265.594-.282 1.219-.86z"/><text x="928.5" y="1004.08" fill="#D9B8FF" font-family="Helvetica" font-size="17" textLength="347">azure_monitor_networking_configuration</text><path d="M895.5 1018.089h387" style="stroke:#000d19;stroke-width:.5"/><text x="905.5" y="1040.084" fill="#D9B8FF" font-family="sans-serif" font-size="14" font-weight="bold" textLength="213">external_networking_mode</text><text x="1118.5" y="1040.084" fill="#D9B8FF" font-family="sans-serif" font-size="14" textLength="48">: string</text><text x="905.5" y="1066.381" fill="#D9B8FF" font-family="sans-serif" font-size="14" font-weight="bold" textLength="35">host</text><text x="940.5" y="1066.381" fill="#D9B8FF" font-family="sans-serif" font-size="14" textLength="48">: string</text><text x="905.5" y="1092.678" fill="#D9B8FF" font-family="sans-serif" font-size="14" font-weight="bold" textLength="52">routes</text><text x="957.5" y="1092.678" fill="#D9B8FF" font-family="sans-serif" font-size="14" textLength="246">: azure_monitor_networking_route[]</text><rect width="323" height="152.977" x="927.5" y="1204.43" fill="#3D176E" rx="2.5" ry="2.5" style="stroke:#000d19;stroke-width:.5"/><circle cx="942.5" cy="1224.324" r="11" fill="#ADD1B2" style="stroke:#181818;stroke-width:1"/><path d="M945.469 1229.965q-.578.297-1.219.438-.64.156-1.344.156-2.5 0-3.828-1.64-1.312-1.657-1.312-4.782t1.312-4.781q1.328-1.657 3.828-1.657.703 0 1.344.157.656.156 1.219.453v2.719q-.625-.579-1.219-.844-.594-.281-1.219-.281-1.343 0-2.031 1.078-.687 1.062-.687 3.156t.687 3.172q.688 1.062 2.031 1.062.625 0 1.219-.265.594-.282 1.219-.86z"/><text x="961.5" y="1230.21" fill="#D9B8FF" font-family="Helvetica" font-size="17" textLength="281">azure_monitor_networking_route</text><path d="M928.5 1244.219h321" style="stroke:#000d19;stroke-width:.5"/><text x="938.5" y="1266.214" fill="#D9B8FF" font-family="sans-serif" font-size="14" font-weight="bold" textLength="35">path</text><text x="973.5" y="1266.214" fill="#D9B8FF" font-family="sans-serif" font-size="14" textLength="48">: string</text><text x="938.5" y="1292.511" fill="#D9B8FF" font-family="sans-serif" font-size="14" font-weight="bold" textLength="33">port</text><text x="971.5" y="1292.511" fill="#D9B8FF" font-family="sans-serif" font-size="14" textLength="44">: int64</text><text x="938.5" y="1318.808" fill="#D9B8FF" font-family="sans-serif" font-size="14" font-weight="bold" textLength="66">receiver</text><text x="1004.5" y="1318.808" fill="#D9B8FF" font-family="sans-serif" font-size="14" textLength="48">: string</text><text x="938.5" y="1345.105" fill="#D9B8FF" font-family="sans-serif" font-size="14" font-weight="bold" textLength="86">subdomain</text><text x="1024.5" y="1345.105" fill="#D9B8FF" font-family="sans-serif" font-size="14" textLength="48">: string</text><rect width="239" height="179.273" x="2285.5" y="1191.28" fill="#3D176E" rx="2.5" ry="2.5" style="stroke:#000d19;stroke-width:.5"/><circle cx="2300.5" cy="1211.175" r="11" fill="#ADD1B2" style="stroke:#181818;stroke-width:1"/><path d="M2303.469 1216.815q-.578.297-1.219.438-.64.156-1.344.156-2.5 0-3.828-1.64-1.312-1.657-1.312-4.782t1.312-4.781q1.328-1.656 3.828-1.656.703 0 1.344.156.656.156 1.219.453v2.719q-.625-.578-1.219-.844-.594-.281-1.219-.281-1.343 0-2.031 1.078-.687 1.062-.687 3.156t.687 3.172q.688 1.062 2.031 1.062.625 0 1.219-.265.594-.281 1.219-.86z"/><text x="2319.5" y="1217.06" fill="#D9B8FF" font-family="Helvetica" font-size="17" textLength="197">azure_monitor_pipeline</text><path d="M2286.5 1231.069h237" style="stroke:#000d19;stroke-width:.5"/><text x="2296.5" y="1253.064" fill="#D9B8FF" font-family="sans-serif" font-size="14" font-weight="bold" textLength="78">exporters</text><text x="2374.5" y="1253.064" fill="#D9B8FF" font-family="sans-serif" font-size="14" textLength="58">: string[]</text><text x="2296.5" y="1279.361" fill="#D9B8FF" font-family="sans-serif" font-size="14" font-weight="bold" textLength="43">name</text><text x="2339.5" y="1279.361" fill="#D9B8FF" font-family="sans-serif" font-size="14" textLength="48">: string</text><text x="2296.5" y="1305.658" fill="#D9B8FF" font-family="sans-serif" font-size="14" font-weight="bold" textLength="90">processors</text><text x="2386.5" y="1305.658" fill="#D9B8FF" font-family="sans-serif" font-size="14" textLength="58">: string[]</text><text x="2296.5" y="1331.955" fill="#D9B8FF" font-family="sans-serif" font-size="14" font-weight="bold" textLength="75">receivers</text><text x="2371.5" y="1331.955" fill="#D9B8FF" font-family="sans-serif" font-size="14" textLength="58">: string[]</text><text x="2296.5" y="1358.252" fill="#D9B8FF" font-family="sans-serif" font-size="14" font-weight="bold" textLength="35">type</text><text x="2331.5" y="1358.252" fill="#D9B8FF" font-family="sans-serif" font-size="14" textLength="48">: string</text><rect width="532" height="231.867" x="1012" y="660.14" fill="#3D176E" rx="2.5" ry="2.5" style="stroke:#000d19;stroke-width:.5"/><circle cx="1141.75" cy="680.034" r="11" fill="#ADD1B2" style="stroke:#181818;stroke-width:1"/><path d="M1144.719 685.675q-.578.297-1.219.438-.64.156-1.344.156-2.5 0-3.828-1.64-1.312-1.657-1.312-4.782t1.312-4.781q1.328-1.657 3.828-1.657.703 0 1.344.157.656.156 1.219.453v2.719q-.625-.579-1.219-.844-.594-.281-1.219-.281-1.343 0-2.031 1.078-.687 1.062-.687 3.156t.687 3.172q.688 1.062 2.031 1.062.625 0 1.219-.265.594-.282 1.219-.86z"/><text x="1167.25" y="685.92" fill="#D9B8FF" font-family="Helvetica" font-size="17" textLength="254">azure_monitor_pipeline_group</text><path d="M1013 699.929h530" style="stroke:#000d19;stroke-width:.5"/><text x="1023" y="721.924" fill="#D9B8FF" font-family="sans-serif" font-size="14" font-weight="bold" textLength="78">exporters</text><text x="1101" y="721.924" fill="#D9B8FF" font-family="sans-serif" font-size="14" textLength="183">: azure_monitor_exporter[]</text><text x="1023" y="748.221" fill="#D9B8FF" font-family="sans-serif" font-size="14" font-weight="bold" textLength="144">extended_location</text><text x="1167" y="748.221" fill="#D9B8FF" font-family="sans-serif" font-size="14" textLength="182">: azure_extended_location</text><text x="1023" y="774.518" fill="#D9B8FF" font-family="sans-serif" font-size="14" font-weight="bold" textLength="126">monitor_service</text><text x="1149" y="774.518" fill="#D9B8FF" font-family="sans-serif" font-size="14" textLength="164">: azure_monitor_service</text><text x="1023" y="800.815" fill="#D9B8FF" font-family="sans-serif" font-size="14" font-weight="bold" textLength="211">networking_configurations</text><text x="1234" y="800.815" fill="#D9B8FF" font-family="sans-serif" font-size="14" textLength="299">: azure_monitor_networking_configuration[]</text><text x="1023" y="827.112" fill="#D9B8FF" font-family="sans-serif" font-size="14" font-weight="bold" textLength="90">processors</text><text x="1113" y="827.112" fill="#D9B8FF" font-family="sans-serif" font-size="14" textLength="195">: azure_monitor_processor[]</text><text x="1023" y="853.409" fill="#D9B8FF" font-family="sans-serif" font-size="14" font-weight="bold" textLength="75">receivers</text><text x="1098" y="853.409" fill="#D9B8FF" font-family="sans-serif" font-size="14" textLength="180">: azure_monitor_receiver[]</text><text x="1023" y="879.705" fill="#D9B8FF" font-family="sans-serif" font-size="14" font-weight="bold" textLength="62">replicas</text><text x="1085" y="879.705" fill="#D9B8FF" font-family="sans-serif" font-size="14" textLength="44">: int64</text><rect width="297" height="126.68" x="1318.5" y="978.3" fill="#3D176E" rx="2.5" ry="2.5" style="stroke:#000d19;stroke-width:.5"/><circle cx="1354.2" cy="998.194" r="11" fill="#ADD1B2" style="stroke:#181818;stroke-width:1"/><path d="M1357.169 1003.835q-.578.297-1.219.438-.64.156-1.344.156-2.5 0-3.828-1.64-1.312-1.657-1.312-4.782t1.312-4.781q1.328-1.657 3.828-1.657.703 0 1.344.157.656.156 1.219.453v2.719q-.625-.579-1.219-.844-.594-.281-1.219-.281-1.343 0-2.031 1.078-.687 1.062-.687 3.156t.687 3.172q.688 1.062 2.031 1.062.625 0 1.219-.265.594-.282 1.219-.86z"/><text x="1377.8" y="1004.08" fill="#D9B8FF" font-family="Helvetica" font-size="17" textLength="209">azure_monitor_processor</text><path d="M1319.5 1018.089h295" style="stroke:#000d19;stroke-width:.5"/><text x="1329.5" y="1040.084" fill="#D9B8FF" font-family="sans-serif" font-size="14" font-weight="bold" textLength="44">batch</text><text x="1373.5" y="1040.084" fill="#D9B8FF" font-family="sans-serif" font-size="14" textLength="231">: azure_monitor_batch_processor</text><text x="1329.5" y="1066.381" fill="#D9B8FF" font-family="sans-serif" font-size="14" font-weight="bold" textLength="43">name</text><text x="1372.5" y="1066.381" fill="#D9B8FF" font-family="sans-serif" font-size="14" textLength="48">: string</text><text x="1329.5" y="1092.678" fill="#D9B8FF" font-family="sans-serif" font-size="14" font-weight="bold" textLength="35">type</text><text x="1364.5" y="1092.678" fill="#D9B8FF" font-family="sans-serif" font-size="14" textLength="48">: string</text><rect width="294" height="179.273" x="1650" y="952" fill="#3D176E" rx="2.5" ry="2.5" style="stroke:#000d19;stroke-width:.5"/><circle cx="1689.3" cy="971.894" r="11" fill="#ADD1B2" style="stroke:#181818;stroke-width:1"/><path d="M1692.269 977.535q-.578.297-1.219.438-.64.156-1.344.156-2.5 0-3.828-1.64-1.312-1.657-1.312-4.782t1.312-4.781q1.328-1.657 3.828-1.657.703 0 1.344.157.656.156 1.219.453v2.719q-.625-.578-1.219-.844-.594-.281-1.219-.281-1.343 0-2.031 1.078-.687 1.062-.687 3.156t.687 3.172q.688 1.062 2.031 1.062.625 0 1.219-.265.594-.282 1.219-.86z"/><text x="1713.7" y="977.78" fill="#D9B8FF" font-family="Helvetica" font-size="17" textLength="198">azure_monitor_receiver</text><path d="M1651 991.789h292" style="stroke:#000d19;stroke-width:.5"/><text x="1661" y="1013.784" fill="#D9B8FF" font-family="sans-serif" font-size="14" font-weight="bold" textLength="43">name</text><text x="1704" y="1013.784" fill="#D9B8FF" font-family="sans-serif" font-size="14" textLength="48">: string</text><text x="1661" y="1040.081" fill="#D9B8FF" font-family="sans-serif" font-size="14" font-weight="bold" textLength="30">otlp</text><text x="1691" y="1040.081" fill="#D9B8FF" font-family="sans-serif" font-size="14" textLength="48">: string</text><text x="1661" y="1066.378" fill="#D9B8FF" font-family="sans-serif" font-size="14" font-weight="bold" textLength="51">syslog</text><text x="1712" y="1066.378" fill="#D9B8FF" font-family="sans-serif" font-size="14" textLength="221">: azure_monitor_syslog_receiver</text><text x="1661" y="1092.675" fill="#D9B8FF" font-family="sans-serif" font-size="14" font-weight="bold" textLength="35">type</text><text x="1696" y="1092.675" fill="#D9B8FF" font-family="sans-serif" font-size="14" textLength="48">: string</text><text x="1661" y="1118.972" fill="#D9B8FF" font-family="sans-serif" font-size="14" font-weight="bold" textLength="30">udp</text><text x="1691" y="1118.972" fill="#D9B8FF" font-family="sans-serif" font-size="14" textLength="204">: azure_monitor_udp_receiver</text><rect width="271" height="100.383" x="557.5" y="1830.21" fill="#3D176E" rx="2.5" ry="2.5" style="stroke:#000d19;stroke-width:.5"/><circle cx="572.5" cy="1850.104" r="11" fill="#ADD1B2" style="stroke:#181818;stroke-width:1"/><path d="M575.469 1855.745q-.578.297-1.219.438-.64.156-1.344.156-2.5 0-3.828-1.64-1.312-1.657-1.312-4.782t1.312-4.781q1.328-1.657 3.828-1.657.703 0 1.344.157.656.156 1.219.453v2.719q-.625-.579-1.219-.844-.594-.281-1.219-.281-1.343 0-2.031 1.078-.687 1.062-.687 3.156t.687 3.172q.688 1.062 2.031 1.062.625 0 1.219-.265.594-.282 1.219-.86z"/><text x="591.5" y="1855.99" fill="#D9B8FF" font-family="Helvetica" font-size="17" textLength="229">azure_monitor_record_map</text><path d="M558.5 1869.999h269" style="stroke:#000d19;stroke-width:.5"/><text x="568.5" y="1891.994" fill="#D9B8FF" font-family="sans-serif" font-size="14" font-weight="bold" textLength="72">key_from</text><text x="640.5" y="1891.994" fill="#D9B8FF" font-family="sans-serif" font-size="14" textLength="48">: string</text><text x="568.5" y="1918.291" fill="#D9B8FF" font-family="sans-serif" font-size="14" font-weight="bold" textLength="51">key_to</text><text x="619.5" y="1918.291" fill="#D9B8FF" font-family="sans-serif" font-size="14" textLength="48">: string</text><rect width="290" height="100.383" x="864" y="1830.21" fill="#3D176E" rx="2.5" ry="2.5" style="stroke:#000d19;stroke-width:.5"/><circle cx="879" cy="1850.104" r="11" fill="#ADD1B2" style="stroke:#181818;stroke-width:1"/><path d="M881.969 1855.745q-.578.297-1.219.438-.64.156-1.344.156-2.5 0-3.828-1.64-1.312-1.657-1.312-4.782t1.312-4.781q1.328-1.657 3.828-1.657.703 0 1.344.157.656.156 1.219.453v2.719q-.625-.579-1.219-.844-.594-.281-1.219-.281-1.343 0-2.031 1.078-.687 1.062-.687 3.156t.687 3.172q.688 1.062 2.031 1.062.625 0 1.219-.265.594-.282 1.219-.86z"/><text x="898" y="1855.99" fill="#D9B8FF" font-family="Helvetica" font-size="17" textLength="248">azure_monitor_resource_map</text><path d="M865 1869.999h288" style="stroke:#000d19;stroke-width:.5"/><text x="875" y="1891.994" fill="#D9B8FF" font-family="sans-serif" font-size="14" font-weight="bold" textLength="72">key_from</text><text x="947" y="1891.994" fill="#D9B8FF" font-family="sans-serif" font-size="14" textLength="48">: string</text><text x="875" y="1918.291" fill="#D9B8FF" font-family="sans-serif" font-size="14" font-weight="bold" textLength="51">key_to</text><text x="926" y="1918.291" fill="#D9B8FF" font-family="sans-serif" font-size="14" textLength="48">: string</text><rect width="358" height="126.68" x="830" y="1643.53" fill="#3D176E" rx="2.5" ry="2.5" style="stroke:#000d19;stroke-width:.5"/><circle cx="879.25" cy="1663.425" r="11" fill="#ADD1B2" style="stroke:#181818;stroke-width:1"/><path d="M882.219 1669.065q-.578.297-1.219.438-.64.156-1.344.156-2.5 0-3.828-1.64-1.312-1.657-1.312-4.782t1.312-4.781q1.328-1.656 3.828-1.656.703 0 1.344.156.656.156 1.219.453v2.719q-.625-.578-1.219-.844-.594-.281-1.219-.281-1.343 0-2.031 1.078-.687 1.062-.687 3.156t.687 3.172q.688 1.062 2.031 1.062.625 0 1.219-.265.594-.281 1.219-.86z"/><text x="904.75" y="1669.31" fill="#D9B8FF" font-family="Helvetica" font-size="17" textLength="241">azure_monitor_schema_map</text><path d="M831 1683.319h356" style="stroke:#000d19;stroke-width:.5"/><text x="841" y="1705.314" fill="#D9B8FF" font-family="sans-serif" font-size="14" font-weight="bold" textLength="93">record_map</text><text x="934" y="1705.314" fill="#D9B8FF" font-family="sans-serif" font-size="14" textLength="207">: azure_monitor_record_map[]</text><text x="841" y="1731.611" fill="#D9B8FF" font-family="sans-serif" font-size="14" font-weight="bold" textLength="112">resource_map</text><text x="953" y="1731.611" fill="#D9B8FF" font-family="sans-serif" font-size="14" textLength="224">: azure_monitor_resource_map[]</text><text x="841" y="1757.908" fill="#D9B8FF" font-family="sans-serif" font-size="14" font-weight="bold" textLength="88">scope_map</text><text x="929" y="1757.908" fill="#D9B8FF" font-family="sans-serif" font-size="14" textLength="205">: azure_monitor_scope_map[]</text><rect width="265" height="100.383" x="1189.5" y="1830.21" fill="#3D176E" rx="2.5" ry="2.5" style="stroke:#000d19;stroke-width:.5"/><circle cx="1204.5" cy="1850.104" r="11" fill="#ADD1B2" style="stroke:#181818;stroke-width:1"/><path d="M1207.469 1855.745q-.578.297-1.219.438-.64.156-1.344.156-2.5 0-3.828-1.64-1.312-1.657-1.312-4.782t1.312-4.781q1.328-1.657 3.828-1.657.703 0 1.344.157.656.156 1.219.453v2.719q-.625-.579-1.219-.844-.594-.281-1.219-.281-1.343 0-2.031 1.078-.687 1.062-.687 3.156t.687 3.172q.688 1.062 2.031 1.062.625 0 1.219-.265.594-.282 1.219-.86z"/><text x="1223.5" y="1855.99" fill="#D9B8FF" font-family="Helvetica" font-size="17" textLength="223">azure_monitor_scope_map</text><path d="M1190.5 1869.999h263" style="stroke:#000d19;stroke-width:.5"/><text x="1200.5" y="1891.994" fill="#D9B8FF" font-family="sans-serif" font-size="14" font-weight="bold" textLength="72">key_from</text><text x="1272.5" y="1891.994" fill="#D9B8FF" font-family="sans-serif" font-size="14" textLength="48">: string</text><text x="1200.5" y="1918.291" fill="#D9B8FF" font-family="sans-serif" font-size="14" font-weight="bold" textLength="51">key_to</text><text x="1251.5" y="1918.291" fill="#D9B8FF" font-family="sans-serif" font-size="14" textLength="48">: string</text><rect width="272" height="100.383" x="2119" y="991.45" fill="#3D176E" rx="2.5" ry="2.5" style="stroke:#000d19;stroke-width:.5"/><circle cx="2152.45" cy="1011.345" r="11" fill="#ADD1B2" style="stroke:#181818;stroke-width:1"/><path d="M2155.419 1016.985q-.578.297-1.219.438-.64.156-1.344.156-2.5 0-3.828-1.64-1.312-1.657-1.312-4.782t1.312-4.781q1.328-1.656 3.828-1.656.703 0 1.344.156.656.156 1.219.453v2.719q-.625-.578-1.219-.844-.594-.281-1.219-.281-1.344 0-2.031 1.078-.687 1.062-.687 3.156t.687 3.172q.688 1.062 2.031 1.062.625 0 1.219-.265.594-.281 1.219-.86z"/><text x="2175.55" y="1017.23" fill="#D9B8FF" font-family="Helvetica" font-size="17" textLength="189">azure_monitor_service</text><path d="M2120 1031.239h270" style="stroke:#000d19;stroke-width:.5"/><text x="2130" y="1053.234" fill="#D9B8FF" font-family="sans-serif" font-size="14" font-weight="bold" textLength="94">persistence</text><text x="2224" y="1053.234" fill="#D9B8FF" font-family="sans-serif" font-size="14" textLength="48">: string</text><text x="2130" y="1079.531" fill="#D9B8FF" font-family="sans-serif" font-size="14" font-weight="bold" textLength="71">pipelines</text><text x="2201" y="1079.531" fill="#D9B8FF" font-family="sans-serif" font-size="14" textLength="179">: azure_monitor_pipeline[]</text><rect width="300" height="100.383" x="1636" y="1230.72" fill="#3D176E" rx="2.5" ry="2.5" style="stroke:#000d19;stroke-width:.5"/><circle cx="1651" cy="1250.614" r="11" fill="#ADD1B2" style="stroke:#181818;stroke-width:1"/><path d="M1653.969 1256.255q-.578.297-1.219.438-.64.156-1.344.156-2.5 0-3.828-1.64-1.312-1.657-1.312-4.782t1.312-4.781q1.328-1.657 3.828-1.657.703 0 1.344.157.656.156 1.219.453v2.719q-.625-.579-1.219-.844-.594-.281-1.219-.281-1.343 0-2.031 1.078-.687 1.062-.687 3.156t.687 3.172q.688 1.062 2.031 1.062.625 0 1.219-.265.594-.282 1.219-.86z"/><text x="1670" y="1256.5" fill="#D9B8FF" font-family="Helvetica" font-size="17" textLength="258">azure_monitor_syslog_receiver</text><path d="M1637 1270.509h298" style="stroke:#000d19;stroke-width:.5"/><text x="1647" y="1292.504" fill="#D9B8FF" font-family="sans-serif" font-size="14" font-weight="bold" textLength="70">endpoint</text><text x="1717" y="1292.504" fill="#D9B8FF" font-family="sans-serif" font-size="14" textLength="48">: string</text><text x="1647" y="1318.801" fill="#D9B8FF" font-family="sans-serif" font-size="14" font-weight="bold" textLength="66">protocol</text><text x="1713" y="1318.801" fill="#D9B8FF" font-family="sans-serif" font-size="14" textLength="48">: string</text><rect width="280" height="126.68" x="1971" y="1217.57" fill="#3D176E" rx="2.5" ry="2.5" style="stroke:#000d19;stroke-width:.5"/><circle cx="1986" cy="1237.465" r="11" fill="#ADD1B2" style="stroke:#181818;stroke-width:1"/><path d="M1988.969 1243.105q-.578.297-1.219.438-.64.156-1.344.156-2.5 0-3.828-1.64-1.312-1.657-1.312-4.782t1.312-4.781q1.328-1.657 3.828-1.657.703 0 1.344.157.656.156 1.219.453v2.719q-.625-.578-1.219-.844-.594-.281-1.219-.281-1.343 0-2.031 1.078-.687 1.062-.687 3.156t.687 3.172q.688 1.062 2.031 1.062.625 0 1.219-.265.594-.282 1.219-.86z"/><text x="2005" y="1243.35" fill="#D9B8FF" font-family="Helvetica" font-size="17" textLength="238">azure_monitor_udp_receiver</text><path d="M1972 1257.359h278" style="stroke:#000d19;stroke-width:.5"/><text x="1982" y="1279.354" fill="#D9B8FF" font-family="sans-serif" font-size="14" font-weight="bold" textLength="73">encoding</text><text x="2055" y="1279.354" fill="#D9B8FF" font-family="sans-serif" font-size="14" textLength="48">: string</text><text x="1982" y="1305.651" fill="#D9B8FF" font-family="sans-serif" font-size="14" font-weight="bold" textLength="70">endpoint</text><text x="2052" y="1305.651" fill="#D9B8FF" font-family="sans-serif" font-size="14" textLength="48">: string</text><text x="1982" y="1331.948" fill="#D9B8FF" font-family="sans-serif" font-size="14" font-weight="bold" textLength="150">read_queue_length</text><text x="2132" y="1331.948" fill="#D9B8FF" font-family="sans-serif" font-size="14" textLength="44">: int64</text><rect width="396" height="152.977" x="811" y="1430.55" fill="#3D176E" rx="2.5" ry="2.5" style="stroke:#000d19;stroke-width:.5"/><circle cx="826" cy="1450.445" r="11" fill="#ADD1B2" style="stroke:#181818;stroke-width:1"/><path d="M828.969 1456.085q-.578.297-1.219.438-.64.156-1.344.156-2.5 0-3.828-1.64-1.312-1.657-1.312-4.782t1.312-4.781q1.328-1.657 3.828-1.657.703 0 1.344.157.656.156 1.219.453v2.719q-.625-.578-1.219-.844-.594-.281-1.219-.281-1.343 0-2.031 1.078-.687 1.062-.687 3.156t.687 3.172q.688 1.062 2.031 1.062.625 0 1.219-.265.594-.282 1.219-.86z"/><text x="845" y="1456.33" fill="#D9B8FF" font-family="Helvetica" font-size="17" textLength="354">azure_monitor_workspace_logs_api_config</text><path d="M812 1470.339h394" style="stroke:#000d19;stroke-width:.5"/><text x="822" y="1492.334" fill="#D9B8FF" font-family="sans-serif" font-size="14" font-weight="bold" textLength="222">data_collection_endpoint_url</text><text x="1044" y="1492.334" fill="#D9B8FF" font-family="sans-serif" font-size="14" textLength="48">: string</text><text x="822" y="1518.631" fill="#D9B8FF" font-family="sans-serif" font-size="14" font-weight="bold" textLength="155">data_collection_rule</text><text x="977" y="1518.631" fill="#D9B8FF" font-family="sans-serif" font-size="14" textLength="48">: string</text><text x="822" y="1544.928" fill="#D9B8FF" font-family="sans-serif" font-size="14" font-weight="bold" textLength="61">schema</text><text x="883" y="1544.928" fill="#D9B8FF" font-family="sans-serif" font-size="14" textLength="207">: azure_monitor_schema_map</text><text x="822" y="1571.225" fill="#D9B8FF" font-family="sans-serif" font-size="14" font-weight="bold" textLength="55">stream</text><text x="877" y="1571.225" fill="#D9B8FF" font-family="sans-serif" font-size="14" textLength="48">: string</text><rect width="420" height="126.68" x="369" y="1217.57" fill="#3D176E" rx="2.5" ry="2.5" style="stroke:#000d19;stroke-width:.5"/><circle cx="400.65" cy="1237.465" r="11" fill="#ADD1B2" style="stroke:#181818;stroke-width:1"/><path d="M403.619 1243.105q-.578.297-1.219.438-.64.156-1.344.156-2.5 0-3.828-1.64-1.312-1.657-1.312-4.782t1.312-4.781q1.328-1.657 3.828-1.657.703 0 1.344.157.656.156 1.219.453v2.719q-.625-.578-1.219-.844-.594-.281-1.219-.281-1.344 0-2.031 1.078-.687 1.062-.687 3.156t.687 3.172q.688 1.062 2.031 1.062.625 0 1.219-.265.594-.282 1.219-.86z"/><text x="423.35" y="1243.35" fill="#D9B8FF" font-family="Helvetica" font-size="17" textLength="341">azure_monitor_workspace_logs_exporter</text><path d="M370 1257.359h418" style="stroke:#000d19;stroke-width:.5"/><text x="380" y="1279.354" fill="#D9B8FF" font-family="sans-serif" font-size="14" font-weight="bold" textLength="23">api</text><text x="403" y="1279.354" fill="#D9B8FF" font-family="sans-serif" font-size="14" textLength="302">: azure_monitor_workspace_logs_api_config</text><text x="380" y="1305.651" fill="#D9B8FF" font-family="sans-serif" font-size="14" font-weight="bold" textLength="47">cache</text><text x="427" y="1305.651" fill="#D9B8FF" font-family="sans-serif" font-size="14" textLength="254">: azure_monitor_cache_configuration</text><text x="380" y="1331.948" fill="#D9B8FF" font-family="sans-serif" font-size="14" font-weight="bold" textLength="100">concurrency</text><text x="480" y="1331.948" fill="#D9B8FF" font-family="sans-serif" font-size="14" textLength="298">: azure_monitor_concurrency_configuration</text><rect width="214" height="100.383" x="1171" y="438.75" fill="#3D176E" rx="2.5" ry="2.5" style="stroke:#000d19;stroke-width:.5"/><circle cx="1192.3" cy="458.644" r="11" fill="#ADD1B2" style="stroke:#181818;stroke-width:1"/><path d="M1195.269 464.285q-.578.297-1.219.438-.64.156-1.344.156-2.5 0-3.828-1.64-1.312-1.657-1.312-4.782t1.312-4.781q1.328-1.656 3.828-1.656.703 0 1.344.156.656.156 1.219.453v2.719q-.625-.579-1.219-.844-.594-.281-1.219-.281-1.343 0-2.031 1.078-.687 1.062-.687 3.156t.687 3.172q.688 1.062 2.031 1.062.625 0 1.219-.265.594-.281 1.219-.86z"/><text x="1212.7" y="464.53" fill="#D9B8FF" font-family="Helvetica" font-size="17" textLength="158">microsoft_resource</text><path d="M1172 478.539h212" style="stroke:#000d19;stroke-width:.5"/><text x="1182" y="500.534" fill="#D9B8FF" font-family="sans-serif" font-size="14" font-weight="bold" textLength="35">etag</text><text x="1217" y="500.534" fill="#D9B8FF" font-family="sans-serif" font-size="14" textLength="48">: string</text><text x="1182" y="526.831" fill="#D9B8FF" font-family="sans-serif" font-size="14" font-weight="bold" textLength="144">provisioning_state</text><text x="1326" y="526.831" fill="#D9B8FF" font-family="sans-serif" font-size="14" textLength="48">: string</text><rect width="227" height="310.758" x="1164.5" y="7" fill="#3D176E" rx="2.5" ry="2.5" style="stroke:#000d19;stroke-width:.5"/><circle cx="1233.25" cy="26.895" r="11" fill="#ADD1B2" style="stroke:#181818;stroke-width:1"/><path d="M1236.219 32.535q-.578.297-1.219.438-.64.156-1.344.156-2.5 0-3.828-1.64-1.312-1.657-1.312-4.782t1.312-4.781q1.328-1.656 3.828-1.656.703 0 1.344.156.656.156 1.219.453v2.719q-.625-.578-1.219-.844-.594-.281-1.219-.281-1.343 0-2.031 1.078-.687 1.062-.687 3.156t.687 3.172q.688 1.062 2.031 1.062.625 0 1.219-.265.594-.281 1.219-.86z"/><text x="1258.75" y="32.78" fill="#D9B8FF" font-family="Helvetica" font-size="17" textLength="71">resource</text><path d="M1165.5 46.789h225" style="stroke:#000d19;stroke-width:.5"/><text x="1175.5" y="68.784" fill="#D9B8FF" font-family="sans-serif" font-size="14" font-weight="bold" textLength="29">age</text><text x="1204.5" y="68.784" fill="#D9B8FF" font-family="sans-serif" font-size="14" textLength="66">: duration</text><text x="1175.5" y="95.081" fill="#D9B8FF" font-family="sans-serif" font-size="14" font-weight="bold" textLength="43">atime</text><text x="1218.5" y="95.081" fill="#D9B8FF" font-family="sans-serif" font-size="14" textLength="70">: datetime</text><text x="1175.5" y="121.378" fill="#D9B8FF" font-family="sans-serif" font-size="14" font-weight="bold" textLength="43">ctime</text><text x="1218.5" y="121.378" fill="#D9B8FF" font-family="sans-serif" font-size="14" textLength="70">: datetime</text><text x="1175.5" y="147.675" fill="#D9B8FF" font-family="sans-serif" font-size="14" font-weight="bold" textLength="14">id</text><text x="1189.5" y="147.675" fill="#D9B8FF" font-family="sans-serif" font-size="14" textLength="48">: string</text><text x="1175.5" y="173.972" fill="#D9B8FF" font-family="sans-serif" font-size="14" font-weight="bold" textLength="33">kind</text><text x="1208.5" y="173.972" fill="#D9B8FF" font-family="sans-serif" font-size="14" textLength="48">: string</text><text x="1175.5" y="200.269" fill="#D9B8FF" font-family="sans-serif" font-size="14" font-weight="bold" textLength="90">last_access</text><text x="1265.5" y="200.269" fill="#D9B8FF" font-family="sans-serif" font-size="14" textLength="66">: duration</text><text x="1175.5" y="226.565" fill="#D9B8FF" font-family="sans-serif" font-size="14" font-weight="bold" textLength="90">last_update</text><text x="1265.5" y="226.565" fill="#D9B8FF" font-family="sans-serif" font-size="14" textLength="66">: duration</text><text x="1175.5" y="252.862" fill="#D9B8FF" font-family="sans-serif" font-size="14" font-weight="bold" textLength="48">mtime</text><text x="1223.5" y="252.862" fill="#D9B8FF" font-family="sans-serif" font-size="14" textLength="70">: datetime</text><text x="1175.5" y="279.159" fill="#D9B8FF" font-family="sans-serif" font-size="14" font-weight="bold" textLength="43">name</text><text x="1218.5" y="279.159" fill="#D9B8FF" font-family="sans-serif" font-size="14" textLength="48">: string</text><text x="1175.5" y="305.456" fill="#D9B8FF" font-family="sans-serif" font-size="14" font-weight="bold" textLength="34">tags</text><text x="1209.5" y="305.456" fill="#D9B8FF" font-family="sans-serif" font-size="14" textLength="171">: dictionary[string, string]</text><path fill="none" d="M579 1118.37v92.84" style="stroke:#ffaf37;stroke-width:2"/><path fill="#FFAF37" d="m579 1217.21 4-9-4 4-4-4z" style="stroke:#ffaf37;stroke-width:2"/><path fill="none" d="M1089 1105.29v92.92" style="stroke:#ffaf37;stroke-width:2"/><path fill="#FFAF37" d="m1089 1204.21 4-9-4 4-4-4z" style="stroke:#ffaf37;stroke-width:2"/><path fill="none" d="M1011.64 795.88C806.46 816.94 518.64 860.96 281 952c-25.65 9.83-46.663 21.236-69.333 35.806" style="stroke:#ffaf37;stroke-width:2"/><path fill="#FFAF37" d="m206.62 991.05 9.734-1.501-5.528-1.202 1.203-5.528z" style="stroke:#ffaf37;stroke-width:2"/><path fill="none" d="M1011.74 877.47c-76.77 28.95-153.626 57.923-225.766 85.123" style="stroke:#ffaf37;stroke-width:2"/><path fill="#FFAF37" d="m780.36 964.71 9.832.568-5.154-2.332 2.332-5.154z" style="stroke:#ffaf37;stroke-width:2"/><path fill="none" d="M1195.38 892.29c-21.16 29.51-39.623 55.264-58.063 80.974" style="stroke:#ffaf37;stroke-width:2"/><path fill="#FFAF37" d="m1133.82 978.14 8.496-4.982-5.582.919-.919-5.582z" style="stroke:#ffaf37;stroke-width:2"/><path fill="none" d="M1360.62 892.29c21.16 29.51 39.623 55.264 58.063 80.974" style="stroke:#ffaf37;stroke-width:2"/><path fill="#FFAF37" d="m1422.18 978.14-1.995-9.645-.92 5.582-5.58-.92z" style="stroke:#ffaf37;stroke-width:2"/><path fill="none" d="M1514.93 892.28c39.55 19.68 80.07 40.1 118.07 59.72 5.46 2.83 5.704 2.938 11.304 5.868" style="stroke:#ffaf37;stroke-width:2"/><path fill="#FFAF37" d="m1649.62 960.65-6.12-7.716 1.69 5.398-5.399 1.69z" style="stroke:#ffaf37;stroke-width:2"/><path fill="none" d="M1544.26 842.5c126.58 31.81 279.82 71.35 416.74 109.5 51.74 14.42 102.55 29.475 152.11 44.544" style="stroke:#ffaf37;stroke-width:2"/><path fill="#FFAF37" d="m2118.85 998.29-7.447-6.445 2.663 4.99-4.99 2.664z" style="stroke:#ffaf37;stroke-width:2"/><path fill="none" d="M1278 557.61v102.11m0-120.11-6 18h12zm183.98 565.68c-3.13 39.13-6.631 82.83-9.541 119.18" style="stroke:#ffaf37;stroke-width:2"/><path fill="#FFAF37" d="m1451.96 1230.45 4.705-8.652-4.306 3.668-3.668-4.306z" style="stroke:#ffaf37;stroke-width:2"/><path fill="none" d="M1792.87 1131.67c-1.55 33.4-2.973 64.146-4.293 92.706" style="stroke:#ffaf37;stroke-width:2"/><path fill="#FFAF37" d="m1788.3 1230.37 4.411-8.806-4.18 3.811-3.811-4.18z" style="stroke:#ffaf37;stroke-width:2"/><path fill="none" d="M1914.82 1131.67c37.76 28.53 73.963 55.893 108.663 82.113" style="stroke:#ffaf37;stroke-width:2"/><path fill="#FFAF37" d="m2028.27 1217.4-4.77-8.617.78 5.603-5.602.78z" style="stroke:#ffaf37;stroke-width:2"/><path fill="none" d="M893.58 1770.52c-35.97 19.53-69.847 37.918-103.927 56.418" style="stroke:#ffaf37;stroke-width:2"/><path fill="#FFAF37" d="m784.38 1829.8 9.818-.778-5.424-1.607 1.607-5.424z" style="stroke:#ffaf37;stroke-width:2"/><path fill="none" d="M1009 1770.28v53.65" style="stroke:#ffaf37;stroke-width:2"/><path fill="#FFAF37" d="m1009 1829.93 4-9-4 4-4-4z" style="stroke:#ffaf37;stroke-width:2"/><path fill="none" d="M1123.33 1770.52c35.62 19.53 69.138 37.897 102.898 56.397" style="stroke:#ffaf37;stroke-width:2"/><path fill="#FFAF37" d="m1231.49 1829.8-5.97-7.833 1.585 5.43-5.43 1.586z" style="stroke:#ffaf37;stroke-width:2"/><path fill="none" d="M2286.26 1092.09c18.12 28.66 38.264 60.528 59.454 94.048" style="stroke:#ffaf37;stroke-width:2"/><path fill="#FFAF37" d="m2348.92 1191.21-1.428-9.745-1.244 5.519-5.518-1.244z" style="stroke:#ffaf37;stroke-width:2"/><path fill="none" d="M1009 1583.96v53.35" style="stroke:#ffaf37;stroke-width:2"/><path fill="#FFAF37" d="m1009 1643.31 4-9-4 4-4-4z" style="stroke:#ffaf37;stroke-width:2"/><path fill="none" d="M466.49 1344.64c-63.42 35.36-136.27 75.978-195.36 108.919" style="stroke:#ffaf37;stroke-width:2"/><path fill="#FFAF37" d="m265.89 1456.48 9.809-.888-5.442-1.547 1.546-5.441z" style="stroke:#ffaf37;stroke-width:2"/><path fill="none" d="M579 1344.64v105.84" style="stroke:#ffaf37;stroke-width:2"/><path fill="#FFAF37" d="m579 1456.48 4-9-4 4-4-4z" style="stroke:#ffaf37;stroke-width:2"/><path fill="none" d="M699.35 1344.64c50.93 26.55 105.4 54.937 158.79 82.767" style="stroke:#ffaf37;stroke-width:2"/><path fill="#FFAF37" d="m863.46 1430.18-6.132-7.707 1.698 5.396-5.396 1.698z" style="stroke:#ffaf37;stroke-width:2"/><path fill="none" d="M1278 336.06v102.36m0-120.36-6 18h12z" style="stroke:#ffaf37;stroke-width:2"/></svg>