<?xml version="1.0" encoding="us-ascii" standalone="no"?><svg xmlns="http://www.w3.org/2000/svg" xmlns:xlink="http://www.w3.org/1999/xlink" contentStyleType="text/css" height="1006px" preserveAspectRatio="none" style="width:561px;height:1006px;" version="1.1" viewBox="0 0 561 1006" width="561px" zoomAndPan="magnify"><defs/><g><!--class azure_postgresql_server_configuration--><g id="elem_azure_postgresql_server_configuration"><rect codeLine="23" fill="#3D176E" height="74.0859" id="azure_postgresql_server_configuration" rx="2.5" ry="2.5" style="stroke:#000D19;stroke-width:0.5;" width="363" x="191.5" y="660.14"/><ellipse cx="206.5" cy="680.0345" fill="#ADD1B2" rx="11" ry="11" style="stroke:#181818;stroke-width:1.0;"/><path d="M209.4688,685.6752 Q208.8906,685.972 208.25,686.1127 Q207.6094,686.2689 206.9063,686.2689 Q204.4063,686.2689 203.0781,684.6283 Q201.7656,682.972 201.7656,679.847 Q201.7656,676.722 203.0781,675.0658 Q204.4063,673.4095 206.9063,673.4095 Q207.6094,673.4095 208.25,673.5658 Q208.9063,673.722 209.4688,674.0189 L209.4688,676.7377 Q208.8438,676.1595 208.25,675.8939 Q207.6563,675.6127 207.0313,675.6127 Q205.6875,675.6127 205,676.6908 Q204.3125,677.7533 204.3125,679.847 Q204.3125,681.9408 205,683.0189 Q205.6875,684.0814 207.0313,684.0814 Q207.6563,684.0814 208.25,683.8158 Q208.8438,683.5345 209.4688,682.9564 L209.4688,685.6752 Z " fill="#000000"/><text fill="#D9B8FF" font-family="Helvetica" font-size="17" lengthAdjust="spacing" textLength="321" x="225.5" y="685.9198">azure_postgresql_server_configuration</text><line style="stroke:#000D19;stroke-width:0.5;" x1="192.5" x2="553.5" y1="699.9291" y2="699.9291"/><text fill="#D9B8FF" font-family="sans-serif" font-size="14" font-weight="bold" lengthAdjust="spacing" textLength="49" x="202.5" y="721.9242">config</text><text fill="#D9B8FF" font-family="sans-serif" font-size="14" lengthAdjust="spacing" textLength="156" x="251.5" y="721.9242">: dictionary[string, any]</text></g><!--class azure_proxy_resource--><g id="elem_azure_proxy_resource"><rect codeLine="26" fill="#3D176E" height="100.3828" id="azure_proxy_resource" rx="2.5" ry="2.5" style="stroke:#000D19;stroke-width:0.5;" width="262" x="7" y="438.76"/><ellipse cx="39.1" cy="458.6545" fill="#ADD1B2" rx="11" ry="11" style="stroke:#181818;stroke-width:1.0;"/><path d="M42.0688,464.2952 Q41.4906,464.592 40.85,464.7327 Q40.2094,464.8889 39.5063,464.8889 Q37.0063,464.8889 35.6781,463.2483 Q34.3656,461.592 34.3656,458.467 Q34.3656,455.342 35.6781,453.6858 Q37.0063,452.0295 39.5063,452.0295 Q40.2094,452.0295 40.85,452.1858 Q41.5063,452.342 42.0688,452.6389 L42.0688,455.3577 Q41.4438,454.7795 40.85,454.5139 Q40.2563,454.2327 39.6313,454.2327 Q38.2875,454.2327 37.6,455.3108 Q36.9125,456.3733 36.9125,458.467 Q36.9125,460.5608 37.6,461.6389 Q38.2875,462.7014 39.6313,462.7014 Q40.2563,462.7014 40.85,462.4358 Q41.4438,462.1545 42.0688,461.5764 L42.0688,464.2952 Z " fill="#000000"/><text fill="#D9B8FF" font-family="Helvetica" font-size="17" lengthAdjust="spacing" textLength="182" x="61.9" y="464.5398">azure_proxy_resource</text><line style="stroke:#000D19;stroke-width:0.5;" x1="8" x2="268" y1="478.5491" y2="478.5491"/><text fill="#D9B8FF" font-family="sans-serif" font-size="14" font-weight="bold" lengthAdjust="spacing" textLength="98" x="18" y="500.5442">system_data</text><text fill="#D9B8FF" font-family="sans-serif" font-size="14" lengthAdjust="spacing" textLength="142" x="116" y="500.5442">: azure_system_data</text><text fill="#D9B8FF" font-family="sans-serif" font-size="14" font-weight="bold" lengthAdjust="spacing" textLength="35" x="18" y="526.8411">type</text><text fill="#D9B8FF" font-family="sans-serif" font-size="14" lengthAdjust="spacing" textLength="48" x="53" y="526.8411">: string</text></g><!--class azure_system_data--><g id="elem_azure_system_data"><rect codeLine="30" fill="#3D176E" height="205.5703" id="azure_system_data" rx="2.5" ry="2.5" style="stroke:#000D19;stroke-width:0.5;" width="241" x="134.5" y="794.23"/><ellipse cx="166.6" cy="814.1245" fill="#ADD1B2" rx="11" ry="11" style="stroke:#181818;stroke-width:1.0;"/><path d="M169.5688,819.7652 Q168.9906,820.062 168.35,820.2027 Q167.7094,820.3589 167.0063,820.3589 Q164.5063,820.3589 163.1781,818.7183 Q161.8656,817.062 161.8656,813.937 Q161.8656,810.812 163.1781,809.1558 Q164.5063,807.4995 167.0063,807.4995 Q167.7094,807.4995 168.35,807.6558 Q169.0063,807.812 169.5688,808.1089 L169.5688,810.8277 Q168.9438,810.2495 168.35,809.9839 Q167.7563,809.7027 167.1313,809.7027 Q165.7875,809.7027 165.1,810.7808 Q164.4125,811.8433 164.4125,813.937 Q164.4125,816.0308 165.1,817.1089 Q165.7875,818.1714 167.1313,818.1714 Q167.7563,818.1714 168.35,817.9058 Q168.9438,817.6245 169.5688,817.0464 L169.5688,819.7652 Z " fill="#000000"/><text fill="#D9B8FF" font-family="Helvetica" font-size="17" lengthAdjust="spacing" textLength="161" x="189.4" y="820.0098">azure_system_data</text><line style="stroke:#000D19;stroke-width:0.5;" x1="135.5" x2="374.5" y1="834.0191" y2="834.0191"/><text fill="#D9B8FF" font-family="sans-serif" font-size="14" font-weight="bold" lengthAdjust="spacing" textLength="83" x="145.5" y="856.0142">created_at</text><text fill="#D9B8FF" font-family="sans-serif" font-size="14" lengthAdjust="spacing" textLength="70" x="228.5" y="856.0142">: datetime</text><text fill="#D9B8FF" font-family="sans-serif" font-size="14" font-weight="bold" lengthAdjust="spacing" textLength="87" x="145.5" y="882.3111">created_by</text><text fill="#D9B8FF" font-family="sans-serif" font-size="14" lengthAdjust="spacing" textLength="48" x="232.5" y="882.3111">: string</text><text fill="#D9B8FF" font-family="sans-serif" font-size="14" font-weight="bold" lengthAdjust="spacing" textLength="129" x="145.5" y="908.6079">created_by_type</text><text fill="#D9B8FF" font-family="sans-serif" font-size="14" lengthAdjust="spacing" textLength="48" x="274.5" y="908.6079">: string</text><text fill="#D9B8FF" font-family="sans-serif" font-size="14" font-weight="bold" lengthAdjust="spacing" textLength="125" x="145.5" y="934.9048">last_modified_at</text><text fill="#D9B8FF" font-family="sans-serif" font-size="14" lengthAdjust="spacing" textLength="70" x="270.5" y="934.9048">: datetime</text><text fill="#D9B8FF" font-family="sans-serif" font-size="14" font-weight="bold" lengthAdjust="spacing" textLength="129" x="145.5" y="961.2017">last_modified_by</text><text fill="#D9B8FF" font-family="sans-serif" font-size="14" lengthAdjust="spacing" textLength="48" x="274.5" y="961.2017">: string</text><text fill="#D9B8FF" font-family="sans-serif" font-size="14" font-weight="bold" lengthAdjust="spacing" textLength="171" x="145.5" y="987.4986">last_modified_by_type</text><text fill="#D9B8FF" font-family="sans-serif" font-size="14" lengthAdjust="spacing" textLength="48" x="316.5" y="987.4986">: string</text></g><!--class microsoft_resource--><g id="elem_microsoft_resource"><rect codeLine="38" fill="#3D176E" height="100.3828" id="microsoft_resource" rx="2.5" ry="2.5" style="stroke:#000D19;stroke-width:0.5;" width="214" x="304" y="438.76"/><ellipse cx="325.3" cy="458.6545" fill="#ADD1B2" rx="11" ry="11" style="stroke:#181818;stroke-width:1.0;"/><path d="M328.2688,464.2952 Q327.6906,464.592 327.05,464.7327 Q326.4094,464.8889 325.7063,464.8889 Q323.2063,464.8889 321.8781,463.2483 Q320.5656,461.592 320.5656,458.467 Q320.5656,455.342 321.8781,453.6858 Q323.2063,452.0295 325.7063,452.0295 Q326.4094,452.0295 327.05,452.1858 Q327.7063,452.342 328.2688,452.6389 L328.2688,455.3577 Q327.6438,454.7795 327.05,454.5139 Q326.4563,454.2327 325.8313,454.2327 Q324.4875,454.2327 323.8,455.3108 Q323.1125,456.3733 323.1125,458.467 Q323.1125,460.5608 323.8,461.6389 Q324.4875,462.7014 325.8313,462.7014 Q326.4563,462.7014 327.05,462.4358 Q327.6438,462.1545 328.2688,461.5764 L328.2688,464.2952 Z " fill="#000000"/><text fill="#D9B8FF" font-family="Helvetica" font-size="17" lengthAdjust="spacing" textLength="158" x="345.7" y="464.5398">microsoft_resource</text><line style="stroke:#000D19;stroke-width:0.5;" x1="305" x2="517" y1="478.5491" y2="478.5491"/><text fill="#D9B8FF" font-family="sans-serif" font-size="14" font-weight="bold" lengthAdjust="spacing" textLength="35" x="315" y="500.5442">etag</text><text fill="#D9B8FF" font-family="sans-serif" font-size="14" lengthAdjust="spacing" textLength="48" x="350" y="500.5442">: string</text><text fill="#D9B8FF" font-family="sans-serif" font-size="14" font-weight="bold" lengthAdjust="spacing" textLength="144" x="315" y="526.8411">provisioning_state</text><text fill="#D9B8FF" font-family="sans-serif" font-size="14" lengthAdjust="spacing" textLength="48" x="459" y="526.8411">: string</text></g><!--class resource--><g id="elem_resource"><rect codeLine="42" fill="#3D176E" height="310.7578" id="resource" rx="2.5" ry="2.5" style="stroke:#000D19;stroke-width:0.5;" width="227" x="297.5" y="7"/><ellipse cx="366.25" cy="26.8945" fill="#ADD1B2" rx="11" ry="11" style="stroke:#181818;stroke-width:1.0;"/><path d="M369.2188,32.5352 Q368.6406,32.832 368,32.9727 Q367.3594,33.1289 366.6563,33.1289 Q364.1563,33.1289 362.8281,31.4883 Q361.5156,29.832 361.5156,26.707 Q361.5156,23.582 362.8281,21.9258 Q364.1563,20.2695 366.6563,20.2695 Q367.3594,20.2695 368,20.4258 Q368.6563,20.582 369.2188,20.8789 L369.2188,23.5977 Q368.5938,23.0195 368,22.7539 Q367.4063,22.4727 366.7813,22.4727 Q365.4375,22.4727 364.75,23.5508 Q364.0625,24.6133 364.0625,26.707 Q364.0625,28.8008 364.75,29.8789 Q365.4375,30.9414 366.7813,30.9414 Q367.4063,30.9414 368,30.6758 Q368.5938,30.3945 369.2188,29.8164 L369.2188,32.5352 Z " fill="#000000"/><text fill="#D9B8FF" font-family="Helvetica" font-size="17" lengthAdjust="spacing" textLength="71" x="391.75" y="32.7798">resource</text><line style="stroke:#000D19;stroke-width:0.5;" x1="298.5" x2="523.5" y1="46.7891" y2="46.7891"/><text fill="#D9B8FF" font-family="sans-serif" font-size="14" font-weight="bold" lengthAdjust="spacing" textLength="29" x="308.5" y="68.7842">age</text><text fill="#D9B8FF" font-family="sans-serif" font-size="14" lengthAdjust="spacing" textLength="66" x="337.5" y="68.7842">: duration</text><text fill="#D9B8FF" font-family="sans-serif" font-size="14" font-weight="bold" lengthAdjust="spacing" textLength="43" x="308.5" y="95.0811">atime</text><text fill="#D9B8FF" font-family="sans-serif" font-size="14" lengthAdjust="spacing" textLength="70" x="351.5" y="95.0811">: datetime</text><text fill="#D9B8FF" font-family="sans-serif" font-size="14" font-weight="bold" lengthAdjust="spacing" textLength="43" x="308.5" y="121.3779">ctime</text><text fill="#D9B8FF" font-family="sans-serif" font-size="14" lengthAdjust="spacing" textLength="70" x="351.5" y="121.3779">: datetime</text><text fill="#D9B8FF" font-family="sans-serif" font-size="14" font-weight="bold" lengthAdjust="spacing" textLength="14" x="308.5" y="147.6748">id</text><text fill="#D9B8FF" font-family="sans-serif" font-size="14" lengthAdjust="spacing" textLength="48" x="322.5" y="147.6748">: string</text><text fill="#D9B8FF" font-family="sans-serif" font-size="14" font-weight="bold" lengthAdjust="spacing" textLength="33" x="308.5" y="173.9717">kind</text><text fill="#D9B8FF" font-family="sans-serif" font-size="14" lengthAdjust="spacing" textLength="48" x="341.5" y="173.9717">: string</text><text fill="#D9B8FF" font-family="sans-serif" font-size="14" font-weight="bold" lengthAdjust="spacing" textLength="90" x="308.5" y="200.2686">last_access</text><text fill="#D9B8FF" font-family="sans-serif" font-size="14" lengthAdjust="spacing" textLength="66" x="398.5" y="200.2686">: duration</text><text fill="#D9B8FF" font-family="sans-serif" font-size="14" font-weight="bold" lengthAdjust="spacing" textLength="90" x="308.5" y="226.5654">last_update</text><text fill="#D9B8FF" font-family="sans-serif" font-size="14" lengthAdjust="spacing" textLength="66" x="398.5" y="226.5654">: duration</text><text fill="#D9B8FF" font-family="sans-serif" font-size="14" font-weight="bold" lengthAdjust="spacing" textLength="48" x="308.5" y="252.8623">mtime</text><text fill="#D9B8FF" font-family="sans-serif" font-size="14" lengthAdjust="spacing" textLength="70" x="356.5" y="252.8623">: datetime</text><text fill="#D9B8FF" font-family="sans-serif" font-size="14" font-weight="bold" lengthAdjust="spacing" textLength="43" x="308.5" y="279.1592">name</text><text fill="#D9B8FF" font-family="sans-serif" font-size="14" lengthAdjust="spacing" textLength="48" x="351.5" y="279.1592">: string</text><text fill="#D9B8FF" font-family="sans-serif" font-size="14" font-weight="bold" lengthAdjust="spacing" textLength="34" x="308.5" y="305.4561">tags</text><text fill="#D9B8FF" font-family="sans-serif" font-size="14" lengthAdjust="spacing" textLength="171" x="342.5" y="305.4561">: dictionary[string, string]</text></g><!--reverse link azure_proxy_resource to azure_postgresql_server_configuration--><g id="link_azure_proxy_resource_azure_postgresql_server_configuration"><path codeLine="54" d="M208.1189,551.483 C250.3589,588.553 293.58,626.49 331.63,659.88 " fill="none" id="azure_proxy_resource-backto-azure_postgresql_server_configuration" style="stroke:#FFAF37;stroke-width:2.0;"/><polygon fill="none" points="194.59,539.61,204.1612,555.9927,212.0766,546.9734,194.59,539.61" style="stroke:#FFAF37;stroke-width:2.0;"/></g><!--link azure_postgresql_server_configuration to azure_system_data--><g id="link_azure_postgresql_server_configuration_azure_system_data"><path codeLine="55" d="M351.36,734.47 C341.24,751.43 331.7131,767.3967 318.9931,788.7267 " fill="none" id="azure_postgresql_server_configuration-to-azure_system_data" style="stroke:#FFAF37;stroke-width:2.0;"/><polygon fill="#FFAF37" points="315.92,793.88,323.9652,788.1989,318.4809,789.5856,317.0942,784.1014,315.92,793.88" style="stroke:#FFAF37;stroke-width:2.0;"/></g><!--reverse link microsoft_resource to azure_postgresql_server_configuration--><g id="link_microsoft_resource_azure_postgresql_server_configuration"><path codeLine="56" d="M398.5885,557.312 C391.7585,594.382 385.84,626.49 379.69,659.88 " fill="none" id="microsoft_resource-backto-azure_postgresql_server_configuration" style="stroke:#FFAF37;stroke-width:2.0;"/><polygon fill="none" points="401.85,539.61,392.6878,556.2249,404.4892,558.3992,401.85,539.61" style="stroke:#FFAF37;stroke-width:2.0;"/></g><!--link azure_proxy_resource to azure_system_data--><g id="link_azure_proxy_resource_azure_system_data"><path codeLine="57" d="M140.66,539.18 C144.42,589.25 153.32,668.61 174,734.23 C180.28,754.15 186.2095,769.2091 195.3295,788.6291 " fill="none" id="azure_proxy_resource-to-azure_system_data" style="stroke:#FFAF37;stroke-width:2.0;"/><polygon fill="#FFAF37" points="197.88,794.06,197.6749,784.2133,195.7546,789.5342,190.4337,787.6139,197.88,794.06" style="stroke:#FFAF37;stroke-width:2.0;"/></g><!--reverse link resource to microsoft_resource--><g id="link_resource_microsoft_resource"><path codeLine="58" d="M411,336.06 C411,379.66 411,405.98 411,438.43 " fill="none" id="resource-backto-microsoft_resource" style="stroke:#FFAF37;stroke-width:2.0;"/><polygon fill="none" points="411,318.06,405,336.06,417,336.06,411,318.06" style="stroke:#FFAF37;stroke-width:2.0;"/></g><!--SRC=[dLJHRjD047ptLvpKDuj82HMaGGYfH4BmKY7A6qBMnhTsJl7TcRrrYWlyEsSxHUUpqrOyEPuPpSokLzahYG9rpQtGg7T8Bd47PMeWqEAQoDvjRML9N1G559VhcFnW3Jyfk06DuYDMHsILGwpukbVvmQ1pucL0lOVyK99jZ1picS0uJw7XGBMjmBbhPbAxXZ4e8pUxgwA8bR7fnQLShL_ZH6P98fqao-LIhZQnvCceH-V-fxXLzoXMuT9kBEEavYIYLptQibC49IU3Fl1dEtu6APKfnQi0-p9q8eCqmc_t8ErTfowWSc6COoIqtDQudKo5cojPh6V5dyw9axnRdO3xXZ2hhUEIqFseCeTqHCfoQmfLDWIih16_aZGTa3Hz8wJAEnIe_URymPZoXG3JVa_-Z3t9_cmpRseRoh6tSAqlfZC939tFe0j0B-awTznW75a6qg4I8J3A3BYlvN-pqXWGkpRm2k4ioabJ7yEPjb8LQivnJ4U-CPcTcKAhdAop1O_NWWpboC-lxgYSNx5_pHpx5ZDc8mieUuayVR0EwOh7Qvd1b1n5-nEIqzaWp_tVIfJGCqqjJ_K2Hi_a6D3ZXVkXtPbh6fxTGSsUqjlVYyNYUPURFE- -5ujtCzSuyxd-8thSVJufyfy69ty1]--></g></svg>