<svg xmlns="http://www.w3.org/2000/svg" width="939" height="352" viewBox="0 0 939 352"><rect width="262" height="39.789" x="7" y="206.58" fill="#3D176E" rx="2.5" ry="2.5" style="stroke:#000d19;stroke-width:.5"/><circle cx="22" cy="226.475" r="11" fill="#ADD1B2" style="stroke:#181818;stroke-width:1"/><path d="M24.969 232.115q-.578.297-1.219.438-.64.156-1.344.156-2.5 0-3.828-1.64-1.312-1.657-1.312-4.782t1.312-4.781q1.328-1.656 3.828-1.656.703 0 1.344.156.656.156 1.219.453v2.719q-.625-.578-1.219-.844-.594-.281-1.219-.281-1.343 0-2.031 1.078-.687 1.062-.687 3.156t.687 3.172q.688 1.062 2.031 1.062.625 0 1.219-.265.594-.281 1.219-.86z"/><text x="41" y="232.36" fill="#D9B8FF" font-family="Helvetica" font-size="17" textLength="220">azure_disk_encryption_set</text><rect width="135" height="39.789" x="493.5" y="7" fill="#3D176E" rx="2.5" ry="2.5" style="stroke:#000d19;stroke-width:.5"/><circle cx="508.5" cy="26.895" r="11" fill="#ADD1B2" style="stroke:#181818;stroke-width:1"/><path d="M511.469 32.535q-.578.297-1.219.438-.64.156-1.344.156-2.5 0-3.828-1.64-1.312-1.657-1.312-4.782t1.312-4.781q1.328-1.656 3.828-1.656.703 0 1.344.156.656.156 1.219.453v2.719q-.625-.578-1.219-.844-.594-.281-1.219-.281-1.344 0-2.031 1.078-.687 1.062-.687 3.156t.687 3.172q.688 1.062 2.031 1.062.625 0 1.219-.265.594-.281 1.219-.86z"/><text x="527.5" y="32.78" fill="#D9B8FF" font-family="Helvetica" font-size="17" textLength="93">azure_fleet</text><rect width="212" height="39.789" x="304" y="206.58" fill="#3D176E" rx="2.5" ry="2.5" style="stroke:#000d19;stroke-width:.5"/><circle cx="319" cy="226.475" r="11" fill="#ADD1B2" style="stroke:#181818;stroke-width:1"/><path d="M321.969 232.115q-.578.297-1.219.438-.64.156-1.344.156-2.5 0-3.828-1.64-1.312-1.657-1.312-4.782t1.312-4.781q1.328-1.656 3.828-1.656.703 0 1.344.156.656.156 1.219.453v2.719q-.625-.578-1.219-.844-.594-.281-1.219-.281-1.344 0-2.031 1.078-.687 1.062-.687 3.156t.687 3.172q.688 1.062 2.031 1.062.625 0 1.219-.265.594-.281 1.219-.86z"/><text x="338" y="232.36" fill="#D9B8FF" font-family="Helvetica" font-size="17" textLength="170">azure_load_balancer</text><rect width="240" height="39.789" x="441" y="106.79" fill="#3D176E" rx="2.5" ry="2.5" style="stroke:#000d19;stroke-width:.5"/><circle cx="456" cy="126.684" r="11" fill="#ADD1B2" style="stroke:#181818;stroke-width:1"/><path d="M458.969 132.325q-.578.297-1.219.438-.64.156-1.344.156-2.5 0-3.828-1.64-1.312-1.657-1.312-4.782t1.312-4.781q1.328-1.656 3.828-1.656.703 0 1.344.156.656.156 1.219.453v2.719q-.625-.579-1.219-.844-.594-.281-1.219-.281-1.344 0-2.031 1.078-.687 1.062-.687 3.156t.687 3.172q.688 1.062 2.031 1.062.625 0 1.219-.265.594-.281 1.219-.86z"/><text x="475" y="132.57" fill="#D9B8FF" font-family="Helvetica" font-size="17" textLength="198">azure_managed_cluster</text><rect width="324" height="39.789" x="551" y="206.58" fill="#3D176E" rx="2.5" ry="2.5" style="stroke:#000d19;stroke-width:.5"/><circle cx="566" cy="226.475" r="11" fill="#ADD1B2" style="stroke:#181818;stroke-width:1"/><path d="M568.969 232.115q-.578.297-1.219.438-.64.156-1.344.156-2.5 0-3.828-1.64-1.312-1.657-1.312-4.782t1.312-4.781q1.328-1.656 3.828-1.656.703 0 1.344.156.656.156 1.219.453v2.719q-.625-.578-1.219-.844-.594-.281-1.219-.281-1.343 0-2.031 1.078-.687 1.062-.687 3.156t.687 3.172q.688 1.062 2.031 1.062.625 0 1.219-.265.594-.281 1.219-.86z"/><text x="585" y="232.36" fill="#D9B8FF" font-family="Helvetica" font-size="17" textLength="282">azure_managed_cluster_snapshot</text><rect width="317" height="39.789" x="510.5" y="306.37" fill="#3D176E" rx="2.5" ry="2.5" style="stroke:#000d19;stroke-width:.5"/><circle cx="525.5" cy="326.264" r="11" fill="#ADD1B2" style="stroke:#181818;stroke-width:1"/><path d="M528.469 331.905q-.578.297-1.219.438-.64.156-1.344.156-2.5 0-3.828-1.64-1.312-1.657-1.312-4.782t1.312-4.781q1.328-1.656 3.828-1.656.703 0 1.344.156.656.156 1.219.453v2.719q-.625-.579-1.219-.844-.594-.281-1.219-.281-1.343 0-2.031 1.078-.687 1.062-.687 3.156t.687 3.172q.688 1.062 2.031 1.062.625 0 1.219-.265.594-.281 1.219-.86z"/><text x="544.5" y="332.15" fill="#D9B8FF" font-family="Helvetica" font-size="17" textLength="275">azure_virtual_machine_scale_set</text><path fill="none" d="M561 47.22v53.19" style="stroke:#1a83af;stroke-width:2"/><path fill="#1A83AF" d="m561 106.41 4-9-4 4-4-4z" style="stroke:#1a83af;stroke-width:2"/><path fill="none" d="M461.17 246.8c45.41 17.14 105.777 39.93 151.157 57.07" style="stroke:#1a83af;stroke-width:2"/><path fill="#1A83AF" d="m617.94 305.99-7.006-6.922 2.329 5.155-5.156 2.329z" style="stroke:#1a83af;stroke-width:2"/><path fill="none" d="M477.18 147.07c-74.07 17.12-175.664 40.609-249.674 57.719" style="stroke:#1a83af;stroke-width:2"/><path fill="#1A83AF" d="m221.66 206.14 9.67 1.87-4.799-2.996 2.997-4.798z" style="stroke:#1a83af;stroke-width:2"/><path fill="none" d="M531.17 147.01c-26.48 17.14-59.915 38.787-86.365 55.927" style="stroke:#1a83af;stroke-width:2"/><path fill="#1A83AF" d="m439.77 206.2 9.728-1.537-5.532-1.182 1.182-5.532z" style="stroke:#1a83af;stroke-width:2"/><path fill="none" d="M591.03 147.01c26.65 17.14 60.325 38.803 86.955 55.943" style="stroke:#1a83af;stroke-width:2"/><path fill="#1A83AF" d="m683.03 206.2-5.403-8.234 1.199 5.528-5.529 1.198z" style="stroke:#1a83af;stroke-width:2"/><path fill="none" d="M681.29 140.62c83.88 11.79 185.31 32.55 211.71 65.96 39.57 50.07-31.716 80.1-106.036 97.94" style="stroke:#1a83af;stroke-width:2"/><path fill="#1A83AF" d="m781.13 305.92 9.685 1.789-4.823-2.956 2.956-4.823z" style="stroke:#1a83af;stroke-width:2"/></svg>