<?xml version="1.0" encoding="us-ascii" standalone="no"?><svg xmlns="http://www.w3.org/2000/svg" xmlns:xlink="http://www.w3.org/1999/xlink" contentStyleType="text/css" height="1351px" preserveAspectRatio="none" style="width:1218px;height:1351px;" version="1.1" viewBox="0 0 1218 1351" width="1218px" zoomAndPan="magnify"><defs/><g><!--class aws_resource--><g id="elem_aws_resource"><rect codeLine="23" fill="#3D176E" height="74.0859" id="aws_resource" rx="2.5" ry="2.5" style="stroke:#000D19;stroke-width:0.5;" width="155" x="548.5" y="438.76"/><ellipse cx="563.5" cy="458.6545" fill="#ADD1B2" rx="11" ry="11" style="stroke:#181818;stroke-width:1.0;"/><path d="M566.4688,464.2952 Q565.8906,464.592 565.25,464.7327 Q564.6094,464.8889 563.9063,464.8889 Q561.4063,464.8889 560.0781,463.2483 Q558.7656,461.592 558.7656,458.467 Q558.7656,455.342 560.0781,453.6858 Q561.4063,452.0295 563.9063,452.0295 Q564.6094,452.0295 565.25,452.1858 Q565.9063,452.342 566.4688,452.6389 L566.4688,455.3577 Q565.8438,454.7795 565.25,454.5139 Q564.6563,454.2327 564.0313,454.2327 Q562.6875,454.2327 562,455.3108 Q561.3125,456.3733 561.3125,458.467 Q561.3125,460.5608 562,461.6389 Q562.6875,462.7014 564.0313,462.7014 Q564.6563,462.7014 565.25,462.4358 Q565.8438,462.1545 566.4688,461.5764 L566.4688,464.2952 Z " fill="#000000"/><text fill="#D9B8FF" font-family="Helvetica" font-size="17" lengthAdjust="spacing" textLength="113" x="582.5" y="464.5398">aws_resource</text><line style="stroke:#000D19;stroke-width:0.5;" x1="549.5" x2="702.5" y1="478.5491" y2="478.5491"/><text fill="#D9B8FF" font-family="sans-serif" font-size="14" font-weight="bold" lengthAdjust="spacing" textLength="26" x="559.5" y="500.5442">arn</text><text fill="#D9B8FF" font-family="sans-serif" font-size="14" lengthAdjust="spacing" textLength="48" x="585.5" y="500.5442">: string</text></g><!--class aws_ssm_compliance_execution_summary--><g id="elem_aws_ssm_compliance_execution_summary"><rect codeLine="26" fill="#3D176E" height="126.6797" id="aws_ssm_compliance_execution_summary" rx="2.5" ry="2.5" style="stroke:#000D19;stroke-width:0.5;" width="400" x="7" y="952.01"/><ellipse cx="22" cy="971.9045" fill="#ADD1B2" rx="11" ry="11" style="stroke:#181818;stroke-width:1.0;"/><path d="M24.9688,977.5452 Q24.3906,977.842 23.75,977.9827 Q23.1094,978.1389 22.4063,978.1389 Q19.9063,978.1389 18.5781,976.4983 Q17.2656,974.842 17.2656,971.717 Q17.2656,968.592 18.5781,966.9358 Q19.9063,965.2795 22.4063,965.2795 Q23.1094,965.2795 23.75,965.4358 Q24.4063,965.592 24.9688,965.8889 L24.9688,968.6077 Q24.3438,968.0295 23.75,967.7639 Q23.1563,967.4827 22.5313,967.4827 Q21.1875,967.4827 20.5,968.5608 Q19.8125,969.6233 19.8125,971.717 Q19.8125,973.8108 20.5,974.8889 Q21.1875,975.9514 22.5313,975.9514 Q23.1563,975.9514 23.75,975.6858 Q24.3438,975.4045 24.9688,974.8264 L24.9688,977.5452 Z " fill="#000000"/><text fill="#D9B8FF" font-family="Helvetica" font-size="17" lengthAdjust="spacing" textLength="358" x="41" y="977.7898">aws_ssm_compliance_execution_summary</text><line style="stroke:#000D19;stroke-width:0.5;" x1="8" x2="406" y1="991.7991" y2="991.7991"/><text fill="#D9B8FF" font-family="sans-serif" font-size="14" font-weight="bold" lengthAdjust="spacing" textLength="99" x="18" y="1013.7942">execution_id</text><text fill="#D9B8FF" font-family="sans-serif" font-size="14" lengthAdjust="spacing" textLength="48" x="117" y="1013.7942">: string</text><text fill="#D9B8FF" font-family="sans-serif" font-size="14" font-weight="bold" lengthAdjust="spacing" textLength="119" x="18" y="1040.0911">execution_time</text><text fill="#D9B8FF" font-family="sans-serif" font-size="14" lengthAdjust="spacing" textLength="70" x="137" y="1040.0911">: datetime</text><text fill="#D9B8FF" font-family="sans-serif" font-size="14" font-weight="bold" lengthAdjust="spacing" textLength="120" x="18" y="1066.3879">execution_type</text><text fill="#D9B8FF" font-family="sans-serif" font-size="14" lengthAdjust="spacing" textLength="48" x="138" y="1066.3879">: string</text></g><!--class aws_ssm_compliant_summary--><g id="elem_aws_ssm_compliant_summary"><rect codeLine="31" fill="#3D176E" height="100.3828" id="aws_ssm_compliant_summary" rx="2.5" ry="2.5" style="stroke:#000D19;stroke-width:0.5;" width="367" x="442.5" y="965.16"/><ellipse cx="488.75" cy="985.0545" fill="#ADD1B2" rx="11" ry="11" style="stroke:#181818;stroke-width:1.0;"/><path d="M491.7188,990.6952 Q491.1406,990.992 490.5,991.1327 Q489.8594,991.2889 489.1563,991.2889 Q486.6563,991.2889 485.3281,989.6483 Q484.0156,987.992 484.0156,984.867 Q484.0156,981.742 485.3281,980.0858 Q486.6563,978.4295 489.1563,978.4295 Q489.8594,978.4295 490.5,978.5858 Q491.1563,978.742 491.7188,979.0389 L491.7188,981.7577 Q491.0938,981.1795 490.5,980.9139 Q489.9063,980.6327 489.2813,980.6327 Q487.9375,980.6327 487.25,981.7108 Q486.5625,982.7733 486.5625,984.867 Q486.5625,986.9608 487.25,988.0389 Q487.9375,989.1014 489.2813,989.1014 Q489.9063,989.1014 490.5,988.8358 Q491.0938,988.5545 491.7188,987.9764 L491.7188,990.6952 Z " fill="#000000"/><text fill="#D9B8FF" font-family="Helvetica" font-size="17" lengthAdjust="spacing" textLength="256" x="514.25" y="990.9398">aws_ssm_compliant_summary</text><line style="stroke:#000D19;stroke-width:0.5;" x1="443.5" x2="808.5" y1="1004.9491" y2="1004.9491"/><text fill="#D9B8FF" font-family="sans-serif" font-size="14" font-weight="bold" lengthAdjust="spacing" textLength="128" x="453.5" y="1026.9442">compliant_count</text><text fill="#D9B8FF" font-family="sans-serif" font-size="14" lengthAdjust="spacing" textLength="44" x="581.5" y="1026.9442">: int64</text><text fill="#D9B8FF" font-family="sans-serif" font-size="14" font-weight="bold" lengthAdjust="spacing" textLength="143" x="453.5" y="1053.2411">severity_summary</text><text fill="#D9B8FF" font-family="sans-serif" font-size="14" lengthAdjust="spacing" textLength="202" x="596.5" y="1053.2411">: aws_ssm_severity_summary</text></g><!--class aws_ssm_non_compliant_summary--><g id="elem_aws_ssm_non_compliant_summary"><rect codeLine="35" fill="#3D176E" height="100.3828" id="aws_ssm_non_compliant_summary" rx="2.5" ry="2.5" style="stroke:#000D19;stroke-width:0.5;" width="367" x="844.5" y="965.16"/><ellipse cx="872.1" cy="985.0545" fill="#ADD1B2" rx="11" ry="11" style="stroke:#181818;stroke-width:1.0;"/><path d="M875.0688,990.6952 Q874.4906,990.992 873.85,991.1327 Q873.2094,991.2889 872.5063,991.2889 Q870.0063,991.2889 868.6781,989.6483 Q867.3656,987.992 867.3656,984.867 Q867.3656,981.742 868.6781,980.0858 Q870.0063,978.4295 872.5063,978.4295 Q873.2094,978.4295 873.85,978.5858 Q874.5063,978.742 875.0688,979.0389 L875.0688,981.7577 Q874.4438,981.1795 873.85,980.9139 Q873.2563,980.6327 872.6313,980.6327 Q871.2875,980.6327 870.6,981.7108 Q869.9125,982.7733 869.9125,984.867 Q869.9125,986.9608 870.6,988.0389 Q871.2875,989.1014 872.6313,989.1014 Q873.2563,989.1014 873.85,988.8358 Q874.4438,988.5545 875.0688,987.9764 L875.0688,990.6952 Z " fill="#000000"/><text fill="#D9B8FF" font-family="Helvetica" font-size="17" lengthAdjust="spacing" textLength="297" x="893.9" y="990.9398">aws_ssm_non_compliant_summary</text><line style="stroke:#000D19;stroke-width:0.5;" x1="845.5" x2="1210.5" y1="1004.9491" y2="1004.9491"/><text fill="#D9B8FF" font-family="sans-serif" font-size="14" font-weight="bold" lengthAdjust="spacing" textLength="165" x="855.5" y="1026.9442">non_compliant_count</text><text fill="#D9B8FF" font-family="sans-serif" font-size="14" lengthAdjust="spacing" textLength="44" x="1020.5" y="1026.9442">: int64</text><text fill="#D9B8FF" font-family="sans-serif" font-size="14" font-weight="bold" lengthAdjust="spacing" textLength="143" x="855.5" y="1053.2411">severity_summary</text><text fill="#D9B8FF" font-family="sans-serif" font-size="14" lengthAdjust="spacing" textLength="202" x="998.5" y="1053.2411">: aws_ssm_severity_summary</text></g><!--class aws_ssm_resource_compliance--><g id="elem_aws_ssm_resource_compliance"><rect codeLine="39" fill="#3D176E" height="258.1641" id="aws_ssm_resource_compliance" rx="2.5" ry="2.5" style="stroke:#000D19;stroke-width:0.5;" width="482" x="385" y="633.85"/><ellipse cx="487.75" cy="653.7445" fill="#ADD1B2" rx="11" ry="11" style="stroke:#181818;stroke-width:1.0;"/><path d="M490.7188,659.3852 Q490.1406,659.682 489.5,659.8227 Q488.8594,659.9789 488.1563,659.9789 Q485.6563,659.9789 484.3281,658.3383 Q483.0156,656.682 483.0156,653.557 Q483.0156,650.432 484.3281,648.7758 Q485.6563,647.1195 488.1563,647.1195 Q488.8594,647.1195 489.5,647.2758 Q490.1563,647.432 490.7188,647.7289 L490.7188,650.4477 Q490.0938,649.8695 489.5,649.6039 Q488.9063,649.3227 488.2813,649.3227 Q486.9375,649.3227 486.25,650.4008 Q485.5625,651.4633 485.5625,653.557 Q485.5625,655.6508 486.25,656.7289 Q486.9375,657.7914 488.2813,657.7914 Q488.9063,657.7914 489.5,657.5258 Q490.0938,657.2445 490.7188,656.6664 L490.7188,659.3852 Z " fill="#000000"/><text fill="#D9B8FF" font-family="Helvetica" font-size="17" lengthAdjust="spacing" textLength="258" x="513.25" y="659.6298">aws_ssm_resource_compliance</text><line style="stroke:#000D19;stroke-width:0.5;" x1="386" x2="866" y1="673.6391" y2="673.6391"/><text fill="#D9B8FF" font-family="sans-serif" font-size="14" font-weight="bold" lengthAdjust="spacing" textLength="131" x="396" y="695.6342">compliance_type</text><text fill="#D9B8FF" font-family="sans-serif" font-size="14" lengthAdjust="spacing" textLength="48" x="527" y="695.6342">: string</text><text fill="#D9B8FF" font-family="sans-serif" font-size="14" font-weight="bold" lengthAdjust="spacing" textLength="155" x="396" y="721.9311">compliant_summary</text><text fill="#D9B8FF" font-family="sans-serif" font-size="14" lengthAdjust="spacing" textLength="216" x="551" y="721.9311">: aws_ssm_compliant_summary</text><text fill="#D9B8FF" font-family="sans-serif" font-size="14" font-weight="bold" lengthAdjust="spacing" textLength="157" x="396" y="748.2279">execution_summary</text><text fill="#D9B8FF" font-family="sans-serif" font-size="14" lengthAdjust="spacing" textLength="303" x="553" y="748.2279">: aws_ssm_compliance_execution_summary</text><text fill="#D9B8FF" font-family="sans-serif" font-size="14" font-weight="bold" lengthAdjust="spacing" textLength="192" x="396" y="774.5248">non_compliant_summary</text><text fill="#D9B8FF" font-family="sans-serif" font-size="14" lengthAdjust="spacing" textLength="250" x="588" y="774.5248">: aws_ssm_non_compliant_summary</text><text fill="#D9B8FF" font-family="sans-serif" font-size="14" font-weight="bold" lengthAdjust="spacing" textLength="124" x="396" y="800.8217">overall_severity</text><text fill="#D9B8FF" font-family="sans-serif" font-size="14" lengthAdjust="spacing" textLength="48" x="520" y="800.8217">: string</text><text fill="#D9B8FF" font-family="sans-serif" font-size="14" font-weight="bold" lengthAdjust="spacing" textLength="93" x="396" y="827.1186">resource_id</text><text fill="#D9B8FF" font-family="sans-serif" font-size="14" lengthAdjust="spacing" textLength="48" x="489" y="827.1186">: string</text><text fill="#D9B8FF" font-family="sans-serif" font-size="14" font-weight="bold" lengthAdjust="spacing" textLength="114" x="396" y="853.4154">resource_type</text><text fill="#D9B8FF" font-family="sans-serif" font-size="14" lengthAdjust="spacing" textLength="48" x="510" y="853.4154">: string</text><text fill="#D9B8FF" font-family="sans-serif" font-size="14" font-weight="bold" lengthAdjust="spacing" textLength="49" x="396" y="879.7123">status</text><text fill="#D9B8FF" font-family="sans-serif" font-size="14" lengthAdjust="spacing" textLength="48" x="445" y="879.7123">: string</text></g><!--class aws_ssm_severity_summary--><g id="elem_aws_ssm_severity_summary"><rect codeLine="49" fill="#3D176E" height="205.5703" id="aws_ssm_severity_summary" rx="2.5" ry="2.5" style="stroke:#000D19;stroke-width:0.5;" width="282" x="686" y="1138.69"/><ellipse cx="701" cy="1158.5845" fill="#ADD1B2" rx="11" ry="11" style="stroke:#181818;stroke-width:1.0;"/><path d="M703.9688,1164.2252 Q703.3906,1164.522 702.75,1164.6627 Q702.1094,1164.8189 701.4063,1164.8189 Q698.9063,1164.8189 697.5781,1163.1783 Q696.2656,1161.522 696.2656,1158.397 Q696.2656,1155.272 697.5781,1153.6158 Q698.9063,1151.9595 701.4063,1151.9595 Q702.1094,1151.9595 702.75,1152.1158 Q703.4063,1152.272 703.9688,1152.5689 L703.9688,1155.2877 Q703.3438,1154.7095 702.75,1154.4439 Q702.1563,1154.1627 701.5313,1154.1627 Q700.1875,1154.1627 699.5,1155.2408 Q698.8125,1156.3033 698.8125,1158.397 Q698.8125,1160.4908 699.5,1161.5689 Q700.1875,1162.6314 701.5313,1162.6314 Q702.1563,1162.6314 702.75,1162.3658 Q703.3438,1162.0845 703.9688,1161.5064 L703.9688,1164.2252 Z " fill="#000000"/><text fill="#D9B8FF" font-family="Helvetica" font-size="17" lengthAdjust="spacing" textLength="240" x="720" y="1164.4698">aws_ssm_severity_summary</text><line style="stroke:#000D19;stroke-width:0.5;" x1="687" x2="967" y1="1178.4791" y2="1178.4791"/><text fill="#D9B8FF" font-family="sans-serif" font-size="14" font-weight="bold" lengthAdjust="spacing" textLength="104" x="697" y="1200.4742">critical_count</text><text fill="#D9B8FF" font-family="sans-serif" font-size="14" lengthAdjust="spacing" textLength="44" x="801" y="1200.4742">: int64</text><text fill="#D9B8FF" font-family="sans-serif" font-size="14" font-weight="bold" lengthAdjust="spacing" textLength="86" x="697" y="1226.7711">high_count</text><text fill="#D9B8FF" font-family="sans-serif" font-size="14" lengthAdjust="spacing" textLength="44" x="783" y="1226.7711">: int64</text><text fill="#D9B8FF" font-family="sans-serif" font-size="14" font-weight="bold" lengthAdjust="spacing" textLength="155" x="697" y="1253.0679">informational_count</text><text fill="#D9B8FF" font-family="sans-serif" font-size="14" lengthAdjust="spacing" textLength="44" x="852" y="1253.0679">: int64</text><text fill="#D9B8FF" font-family="sans-serif" font-size="14" font-weight="bold" lengthAdjust="spacing" textLength="80" x="697" y="1279.3648">low_count</text><text fill="#D9B8FF" font-family="sans-serif" font-size="14" lengthAdjust="spacing" textLength="44" x="777" y="1279.3648">: int64</text><text fill="#D9B8FF" font-family="sans-serif" font-size="14" font-weight="bold" lengthAdjust="spacing" textLength="114" x="697" y="1305.6617">medium_count</text><text fill="#D9B8FF" font-family="sans-serif" font-size="14" lengthAdjust="spacing" textLength="44" x="811" y="1305.6617">: int64</text><text fill="#D9B8FF" font-family="sans-serif" font-size="14" font-weight="bold" lengthAdjust="spacing" textLength="144" x="697" y="1331.9586">unspecified_count</text><text fill="#D9B8FF" font-family="sans-serif" font-size="14" lengthAdjust="spacing" textLength="44" x="841" y="1331.9586">: int64</text></g><!--class resource--><g id="elem_resource"><rect codeLine="57" fill="#3D176E" height="310.7578" id="resource" rx="2.5" ry="2.5" style="stroke:#000D19;stroke-width:0.5;" width="227" x="512.5" y="7"/><ellipse cx="581.25" cy="26.8945" fill="#ADD1B2" rx="11" ry="11" style="stroke:#181818;stroke-width:1.0;"/><path d="M584.2188,32.5352 Q583.6406,32.832 583,32.9727 Q582.3594,33.1289 581.6563,33.1289 Q579.1563,33.1289 577.8281,31.4883 Q576.5156,29.832 576.5156,26.707 Q576.5156,23.582 577.8281,21.9258 Q579.1563,20.2695 581.6563,20.2695 Q582.3594,20.2695 583,20.4258 Q583.6563,20.582 584.2188,20.8789 L584.2188,23.5977 Q583.5938,23.0195 583,22.7539 Q582.4063,22.4727 581.7813,22.4727 Q580.4375,22.4727 579.75,23.5508 Q579.0625,24.6133 579.0625,26.707 Q579.0625,28.8008 579.75,29.8789 Q580.4375,30.9414 581.7813,30.9414 Q582.4063,30.9414 583,30.6758 Q583.5938,30.3945 584.2188,29.8164 L584.2188,32.5352 Z " fill="#000000"/><text fill="#D9B8FF" font-family="Helvetica" font-size="17" lengthAdjust="spacing" textLength="71" x="606.75" y="32.7798">resource</text><line style="stroke:#000D19;stroke-width:0.5;" x1="513.5" x2="738.5" y1="46.7891" y2="46.7891"/><text fill="#D9B8FF" font-family="sans-serif" font-size="14" font-weight="bold" lengthAdjust="spacing" textLength="29" x="523.5" y="68.7842">age</text><text fill="#D9B8FF" font-family="sans-serif" font-size="14" lengthAdjust="spacing" textLength="66" x="552.5" y="68.7842">: duration</text><text fill="#D9B8FF" font-family="sans-serif" font-size="14" font-weight="bold" lengthAdjust="spacing" textLength="43" x="523.5" y="95.0811">atime</text><text fill="#D9B8FF" font-family="sans-serif" font-size="14" lengthAdjust="spacing" textLength="70" x="566.5" y="95.0811">: datetime</text><text fill="#D9B8FF" font-family="sans-serif" font-size="14" font-weight="bold" lengthAdjust="spacing" textLength="43" x="523.5" y="121.3779">ctime</text><text fill="#D9B8FF" font-family="sans-serif" font-size="14" lengthAdjust="spacing" textLength="70" x="566.5" y="121.3779">: datetime</text><text fill="#D9B8FF" font-family="sans-serif" font-size="14" font-weight="bold" lengthAdjust="spacing" textLength="14" x="523.5" y="147.6748">id</text><text fill="#D9B8FF" font-family="sans-serif" font-size="14" lengthAdjust="spacing" textLength="48" x="537.5" y="147.6748">: string</text><text fill="#D9B8FF" font-family="sans-serif" font-size="14" font-weight="bold" lengthAdjust="spacing" textLength="33" x="523.5" y="173.9717">kind</text><text fill="#D9B8FF" font-family="sans-serif" font-size="14" lengthAdjust="spacing" textLength="48" x="556.5" y="173.9717">: string</text><text fill="#D9B8FF" font-family="sans-serif" font-size="14" font-weight="bold" lengthAdjust="spacing" textLength="90" x="523.5" y="200.2686">last_access</text><text fill="#D9B8FF" font-family="sans-serif" font-size="14" lengthAdjust="spacing" textLength="66" x="613.5" y="200.2686">: duration</text><text fill="#D9B8FF" font-family="sans-serif" font-size="14" font-weight="bold" lengthAdjust="spacing" textLength="90" x="523.5" y="226.5654">last_update</text><text fill="#D9B8FF" font-family="sans-serif" font-size="14" lengthAdjust="spacing" textLength="66" x="613.5" y="226.5654">: duration</text><text fill="#D9B8FF" font-family="sans-serif" font-size="14" font-weight="bold" lengthAdjust="spacing" textLength="48" x="523.5" y="252.8623">mtime</text><text fill="#D9B8FF" font-family="sans-serif" font-size="14" lengthAdjust="spacing" textLength="70" x="571.5" y="252.8623">: datetime</text><text fill="#D9B8FF" font-family="sans-serif" font-size="14" font-weight="bold" lengthAdjust="spacing" textLength="43" x="523.5" y="279.1592">name</text><text fill="#D9B8FF" font-family="sans-serif" font-size="14" lengthAdjust="spacing" textLength="48" x="566.5" y="279.1592">: string</text><text fill="#D9B8FF" font-family="sans-serif" font-size="14" font-weight="bold" lengthAdjust="spacing" textLength="34" x="523.5" y="305.4561">tags</text><text fill="#D9B8FF" font-family="sans-serif" font-size="14" lengthAdjust="spacing" textLength="171" x="557.5" y="305.4561">: dictionary[string, string]</text></g><!--reverse link resource to aws_resource--><g id="link_resource_aws_resource"><path codeLine="69" d="M626,336.18 C626,381.21 626,408.35 626,438.52 " fill="none" id="resource-backto-aws_resource" style="stroke:#FFAF37;stroke-width:2.0;"/><polygon fill="none" points="626,318.18,620,336.18,632,336.18,626,318.18" style="stroke:#FFAF37;stroke-width:2.0;"/></g><!--link aws_ssm_compliant_summary to aws_ssm_severity_summary--><g id="link_aws_ssm_compliant_summary_aws_ssm_severity_summary"><path codeLine="70" d="M670.36,1065.81 C689.55,1087.21 708.754,1108.6333 731.364,1133.8433 " fill="none" id="aws_ssm_compliant_summary-to-aws_ssm_severity_summary" style="stroke:#FFAF37;stroke-width:2.0;"/><polygon fill="#FFAF37" points="735.37,1138.31,732.3387,1128.9392,732.0316,1134.5877,726.3831,1134.2806,735.37,1138.31" style="stroke:#FFAF37;stroke-width:2.0;"/></g><!--link aws_ssm_non_compliant_summary to aws_ssm_severity_summary--><g id="link_aws_ssm_non_compliant_summary_aws_ssm_severity_summary"><path codeLine="71" d="M983.64,1065.81 C964.45,1087.21 945.246,1108.6333 922.636,1133.8433 " fill="none" id="aws_ssm_non_compliant_summary-to-aws_ssm_severity_summary" style="stroke:#FFAF37;stroke-width:2.0;"/><polygon fill="#FFAF37" points="918.63,1138.31,927.6169,1134.2806,921.9684,1134.5877,921.6613,1128.9392,918.63,1138.31" style="stroke:#FFAF37;stroke-width:2.0;"/></g><!--reverse link aws_resource to aws_ssm_resource_compliance--><g id="link_aws_resource_aws_ssm_resource_compliance"><path codeLine="72" d="M626,531.2 C626,561.83 626,589.54 626,633.44 " fill="none" id="aws_resource-backto-aws_ssm_resource_compliance" style="stroke:#FFAF37;stroke-width:2.0;"/><polygon fill="none" points="626,513.2,620,531.2,632,531.2,626,513.2" style="stroke:#FFAF37;stroke-width:2.0;"/></g><!--link aws_ssm_resource_compliance to aws_ssm_compliance_execution_summary--><g id="link_aws_ssm_resource_compliance_aws_ssm_compliance_execution_summary"><path codeLine="73" d="M410.98,892.44 C376.52,913.04 347.41,930.4315 317.08,948.5615 " fill="none" id="aws_ssm_resource_compliance-to-aws_ssm_compliance_execution_summary" style="stroke:#FFAF37;stroke-width:2.0;"/><polygon fill="#FFAF37" points="311.93,951.64,321.7074,950.4556,316.2217,949.0746,317.6027,943.5889,311.93,951.64" style="stroke:#FFAF37;stroke-width:2.0;"/></g><!--link aws_ssm_resource_compliance to aws_ssm_compliant_summary--><g id="link_aws_ssm_resource_compliance_aws_ssm_compliant_summary"><path codeLine="74" d="M626,892.44 C626,918.26 626,937.89 626,958.94 " fill="none" id="aws_ssm_resource_compliance-to-aws_ssm_compliant_summary" style="stroke:#FFAF37;stroke-width:2.0;"/><polygon fill="#FFAF37" points="626,964.94,630,955.94,626,959.94,622,955.94,626,964.94" style="stroke:#FFAF37;stroke-width:2.0;"/></g><!--link aws_ssm_resource_compliance to aws_ssm_non_compliant_summary--><g id="link_aws_ssm_resource_compliance_aws_ssm_non_compliant_summary"><path codeLine="75" d="M832.3,892.44 C873.75,918.26 909.7974,940.7175 943.5874,961.7675 " fill="none" id="aws_ssm_resource_compliance-to-aws_ssm_non_compliant_summary" style="stroke:#FFAF37;stroke-width:2.0;"/><polygon fill="#FFAF37" points="948.68,964.94,943.1561,956.7861,944.4361,962.2962,938.926,963.5763,948.68,964.94" style="stroke:#FFAF37;stroke-width:2.0;"/></g><!--SRC=[hLLDRzf04BtxLrZA3HK9aZQ4gegK8bNj9QgQtgeA3RjZME7THRlZKFhntxl6WUmNff5wG- -zcJTlx34hmR54kQ5TAL4kqDZ2heNQW05PtXcZjpDTQrDUL1LKLvEO_A0LdHNSWyJo8zQFI891hFYw4cojqDhoqgFU0rilZMuKxzgJ0MKTXOeyrQm6Q- -8Z5WqXDumVBgugQfO6JUzkEBZoJKcCcqucYV9Q3JYusaiEMlLc_keU10_iHpxIxlNXCcOYSLUrJjbg_26J88U-9CpVWREXLgMRppiIpUJKMW2_645N6zRTGMrzMqieK5DkmtEabGulU7L92l-T4fSi7Pr9MpjtA3LZM5O_Ye60p1gC7ZhEXWtHV77arahvqpBJIr0CPpZ3sGD2Qtcjf4Ip6vV_emAxlNn2H8IMue3OVix9DtC_-1FWUapobnGQkk5eklNZhBuY4RGxg1lkKEpc4lSb1iexnWo_zVry3YyPGSf7HDjoTz0nZ4XWutt5EIUSX8-KvyLk4BjaaDT7rSGH3Z6ZbwS8vw4jWJKs9wt9LvrjqQ7k0EjqwUs4ijLYWfLQIEXtK6kgDRR59J8HIDJl75VNcIY4iXZyZ1xU8pBxb8Qi_TlaSpri0mMBT5z6KB0UT4S67F_5f73dcasRQ-8aHaV1J9yA0JBhgDW-vMPtRUEU_Ma-UwY7aE- -pqS3eEFK77wr8V3szDNr7-pPqip4vsunQBlJdsVtYjwQHDwSMN-2Fy2]--></g></svg>