<?xml version="1.0" encoding="us-ascii" standalone="no"?><svg xmlns="http://www.w3.org/2000/svg" xmlns:xlink="http://www.w3.org/1999/xlink" contentStyleType="text/css" height="1509px" preserveAspectRatio="none" style="width:2160px;height:1509px;" version="1.1" viewBox="0 0 2160 1509" width="2160px" zoomAndPan="magnify"><defs/><g><!--class aws_bedrock_guardrail--><g id="elem_aws_bedrock_guardrail"><rect codeLine="23" fill="#3D176E" height="494.8359" id="aws_bedrock_guardrail" rx="2.5" ry="2.5" style="stroke:#000D19;stroke-width:0.5;" width="615" x="855" y="633.84"/><ellipse cx="1057.75" cy="653.7345" fill="#ADD1B2" rx="11" ry="11" style="stroke:#181818;stroke-width:1.0;"/><path d="M1060.7188,659.3752 Q1060.1406,659.672 1059.5,659.8127 Q1058.8594,659.9689 1058.1563,659.9689 Q1055.6563,659.9689 1054.3281,658.3283 Q1053.0156,656.672 1053.0156,653.547 Q1053.0156,650.422 1054.3281,648.7658 Q1055.6563,647.1095 1058.1563,647.1095 Q1058.8594,647.1095 1059.5,647.2658 Q1060.1563,647.422 1060.7188,647.7189 L1060.7188,650.4377 Q1060.0938,649.8595 1059.5,649.5939 Q1058.9063,649.3127 1058.2813,649.3127 Q1056.9375,649.3127 1056.25,650.3908 Q1055.5625,651.4533 1055.5625,653.547 Q1055.5625,655.6408 1056.25,656.7189 Q1056.9375,657.7814 1058.2813,657.7814 Q1058.9063,657.7814 1059.5,657.5158 Q1060.0938,657.2345 1060.7188,656.6564 L1060.7188,659.3752 Z " fill="#000000"/><text fill="#D9B8FF" font-family="Helvetica" font-size="17" lengthAdjust="spacing" textLength="191" x="1083.25" y="659.6198">aws_bedrock_guardrail</text><line style="stroke:#000D19;stroke-width:0.5;" x1="856" x2="1469" y1="673.6291" y2="673.6291"/><text fill="#D9B8FF" font-family="sans-serif" font-size="14" font-weight="bold" lengthAdjust="spacing" textLength="201" x="866" y="695.6242">blocked_input_messaging</text><text fill="#D9B8FF" font-family="sans-serif" font-size="14" lengthAdjust="spacing" textLength="48" x="1067" y="695.6242">: string</text><text fill="#D9B8FF" font-family="sans-serif" font-size="14" font-weight="bold" lengthAdjust="spacing" textLength="222" x="866" y="721.9211">blocked_outputs_messaging</text><text fill="#D9B8FF" font-family="sans-serif" font-size="14" lengthAdjust="spacing" textLength="48" x="1088" y="721.9211">: string</text><text fill="#D9B8FF" font-family="sans-serif" font-size="14" font-weight="bold" lengthAdjust="spacing" textLength="114" x="866" y="748.2179">content_policy</text><text fill="#D9B8FF" font-family="sans-serif" font-size="14" lengthAdjust="spacing" textLength="273" x="980" y="748.2179">: aws_bedrock_guardrail_content_policy</text><text fill="#D9B8FF" font-family="sans-serif" font-size="14" font-weight="bold" lengthAdjust="spacing" textLength="224" x="866" y="774.5148">contextual_grounding_policy</text><text fill="#D9B8FF" font-family="sans-serif" font-size="14" lengthAdjust="spacing" textLength="369" x="1090" y="774.5148">: aws_bedrock_guardrail_contextual_grounding_policy</text><text fill="#D9B8FF" font-family="sans-serif" font-size="14" font-weight="bold" lengthAdjust="spacing" textLength="83" x="866" y="800.8117">created_at</text><text fill="#D9B8FF" font-family="sans-serif" font-size="14" lengthAdjust="spacing" textLength="70" x="949" y="800.8117">: datetime</text><text fill="#D9B8FF" font-family="sans-serif" font-size="14" font-weight="bold" lengthAdjust="spacing" textLength="89" x="866" y="827.1086">description</text><text fill="#D9B8FF" font-family="sans-serif" font-size="14" lengthAdjust="spacing" textLength="48" x="955" y="827.1086">: string</text><text fill="#D9B8FF" font-family="sans-serif" font-size="14" font-weight="bold" lengthAdjust="spacing" textLength="199" x="866" y="853.4054">failure_recommendations</text><text fill="#D9B8FF" font-family="sans-serif" font-size="14" lengthAdjust="spacing" textLength="58" x="1065" y="853.4054">: string[]</text><text fill="#D9B8FF" font-family="sans-serif" font-size="14" font-weight="bold" lengthAdjust="spacing" textLength="103" x="866" y="879.7023">guardrail_arn</text><text fill="#D9B8FF" font-family="sans-serif" font-size="14" lengthAdjust="spacing" textLength="48" x="969" y="879.7023">: string</text><text fill="#D9B8FF" font-family="sans-serif" font-size="14" font-weight="bold" lengthAdjust="spacing" textLength="91" x="866" y="905.9992">guardrail_id</text><text fill="#D9B8FF" font-family="sans-serif" font-size="14" lengthAdjust="spacing" textLength="48" x="957" y="905.9992">: string</text><text fill="#D9B8FF" font-family="sans-serif" font-size="14" font-weight="bold" lengthAdjust="spacing" textLength="100" x="866" y="932.2961">kms_key_arn</text><text fill="#D9B8FF" font-family="sans-serif" font-size="14" lengthAdjust="spacing" textLength="48" x="966" y="932.2961">: string</text><text fill="#D9B8FF" font-family="sans-serif" font-size="14" font-weight="bold" lengthAdjust="spacing" textLength="221" x="866" y="958.5929">sensitive_information_policy</text><text fill="#D9B8FF" font-family="sans-serif" font-size="14" lengthAdjust="spacing" textLength="364" x="1087" y="958.5929">: aws_bedrock_guardrail_sensitive_information_policy</text><text fill="#D9B8FF" font-family="sans-serif" font-size="14" font-weight="bold" lengthAdjust="spacing" textLength="49" x="866" y="984.8898">status</text><text fill="#D9B8FF" font-family="sans-serif" font-size="14" lengthAdjust="spacing" textLength="48" x="915" y="984.8898">: string</text><text fill="#D9B8FF" font-family="sans-serif" font-size="14" font-weight="bold" lengthAdjust="spacing" textLength="120" x="866" y="1011.1867">status_reasons</text><text fill="#D9B8FF" font-family="sans-serif" font-size="14" lengthAdjust="spacing" textLength="58" x="986" y="1011.1867">: string[]</text><text fill="#D9B8FF" font-family="sans-serif" font-size="14" font-weight="bold" lengthAdjust="spacing" textLength="92" x="866" y="1037.4836">topic_policy</text><text fill="#D9B8FF" font-family="sans-serif" font-size="14" lengthAdjust="spacing" textLength="253" x="958" y="1037.4836">: aws_bedrock_guardrail_topic_policy</text><text fill="#D9B8FF" font-family="sans-serif" font-size="14" font-weight="bold" lengthAdjust="spacing" textLength="87" x="866" y="1063.7804">updated_at</text><text fill="#D9B8FF" font-family="sans-serif" font-size="14" lengthAdjust="spacing" textLength="70" x="953" y="1063.7804">: datetime</text><text fill="#D9B8FF" font-family="sans-serif" font-size="14" font-weight="bold" lengthAdjust="spacing" textLength="59" x="866" y="1090.0773">version</text><text fill="#D9B8FF" font-family="sans-serif" font-size="14" lengthAdjust="spacing" textLength="48" x="925" y="1090.0773">: string</text><text fill="#D9B8FF" font-family="sans-serif" font-size="14" font-weight="bold" lengthAdjust="spacing" textLength="94" x="866" y="1116.3742">word_policy</text><text fill="#D9B8FF" font-family="sans-serif" font-size="14" lengthAdjust="spacing" textLength="253" x="960" y="1116.3742">: aws_bedrock_guardrail_word_policy</text></g><!--class aws_bedrock_guardrail_content_filter--><g id="elem_aws_bedrock_guardrail_content_filter"><rect codeLine="42" fill="#3D176E" height="126.6797" id="aws_bedrock_guardrail_content_filter" rx="2.5" ry="2.5" style="stroke:#000D19;stroke-width:0.5;" width="355" x="11" y="1362.21"/><ellipse cx="26" cy="1382.1045" fill="#ADD1B2" rx="11" ry="11" style="stroke:#181818;stroke-width:1.0;"/><path d="M28.9688,1387.7452 Q28.3906,1388.042 27.75,1388.1827 Q27.1094,1388.3389 26.4063,1388.3389 Q23.9063,1388.3389 22.5781,1386.6983 Q21.2656,1385.042 21.2656,1381.917 Q21.2656,1378.792 22.5781,1377.1358 Q23.9063,1375.4795 26.4063,1375.4795 Q27.1094,1375.4795 27.75,1375.6358 Q28.4063,1375.792 28.9688,1376.0889 L28.9688,1378.8077 Q28.3438,1378.2295 27.75,1377.9639 Q27.1563,1377.6827 26.5313,1377.6827 Q25.1875,1377.6827 24.5,1378.7608 Q23.8125,1379.8233 23.8125,1381.917 Q23.8125,1384.0108 24.5,1385.0889 Q25.1875,1386.1514 26.5313,1386.1514 Q27.1563,1386.1514 27.75,1385.8858 Q28.3438,1385.6045 28.9688,1385.0264 L28.9688,1387.7452 Z " fill="#000000"/><text fill="#D9B8FF" font-family="Helvetica" font-size="17" lengthAdjust="spacing" textLength="313" x="45" y="1387.9898">aws_bedrock_guardrail_content_filter</text><line style="stroke:#000D19;stroke-width:0.5;" x1="12" x2="365" y1="1401.9991" y2="1401.9991"/><text fill="#D9B8FF" font-family="sans-serif" font-size="14" font-weight="bold" lengthAdjust="spacing" textLength="115" x="22" y="1423.9942">input_strength</text><text fill="#D9B8FF" font-family="sans-serif" font-size="14" lengthAdjust="spacing" textLength="48" x="137" y="1423.9942">: string</text><text fill="#D9B8FF" font-family="sans-serif" font-size="14" font-weight="bold" lengthAdjust="spacing" textLength="127" x="22" y="1450.2911">output_strength</text><text fill="#D9B8FF" font-family="sans-serif" font-size="14" lengthAdjust="spacing" textLength="48" x="149" y="1450.2911">: string</text><text fill="#D9B8FF" font-family="sans-serif" font-size="14" font-weight="bold" lengthAdjust="spacing" textLength="35" x="22" y="1476.5879">type</text><text fill="#D9B8FF" font-family="sans-serif" font-size="14" lengthAdjust="spacing" textLength="48" x="57" y="1476.5879">: string</text></g><!--class aws_bedrock_guardrail_content_policy--><g id="elem_aws_bedrock_guardrail_content_policy"><rect codeLine="47" fill="#3D176E" height="74.0859" id="aws_bedrock_guardrail_content_policy" rx="2.5" ry="2.5" style="stroke:#000D19;stroke-width:0.5;" width="363" x="7" y="1201.83"/><ellipse cx="22" cy="1221.7245" fill="#ADD1B2" rx="11" ry="11" style="stroke:#181818;stroke-width:1.0;"/><path d="M24.9688,1227.3652 Q24.3906,1227.662 23.75,1227.8027 Q23.1094,1227.9589 22.4063,1227.9589 Q19.9063,1227.9589 18.5781,1226.3183 Q17.2656,1224.662 17.2656,1221.537 Q17.2656,1218.412 18.5781,1216.7558 Q19.9063,1215.0995 22.4063,1215.0995 Q23.1094,1215.0995 23.75,1215.2558 Q24.4063,1215.412 24.9688,1215.7089 L24.9688,1218.4277 Q24.3438,1217.8495 23.75,1217.5839 Q23.1563,1217.3027 22.5313,1217.3027 Q21.1875,1217.3027 20.5,1218.3808 Q19.8125,1219.4433 19.8125,1221.537 Q19.8125,1223.6308 20.5,1224.7089 Q21.1875,1225.7714 22.5313,1225.7714 Q23.1563,1225.7714 23.75,1225.5058 Q24.3438,1225.2245 24.9688,1224.6464 L24.9688,1227.3652 Z " fill="#000000"/><text fill="#D9B8FF" font-family="Helvetica" font-size="17" lengthAdjust="spacing" textLength="321" x="41" y="1227.6098">aws_bedrock_guardrail_content_policy</text><line style="stroke:#000D19;stroke-width:0.5;" x1="8" x2="369" y1="1241.6191" y2="1241.6191"/><text fill="#D9B8FF" font-family="sans-serif" font-size="14" font-weight="bold" lengthAdjust="spacing" textLength="46" x="18" y="1263.6142">filters</text><text fill="#D9B8FF" font-family="sans-serif" font-size="14" lengthAdjust="spacing" textLength="273" x="64" y="1263.6142">: aws_bedrock_guardrail_content_filter[]</text></g><!--class aws_bedrock_guardrail_contextual_grounding_filter--><g id="elem_aws_bedrock_guardrail_contextual_grounding_filter"><rect codeLine="50" fill="#3D176E" height="100.3828" id="aws_bedrock_guardrail_contextual_grounding_filter" rx="2.5" ry="2.5" style="stroke:#000D19;stroke-width:0.5;" width="474" x="404.5" y="1375.36"/><ellipse cx="419.5" cy="1395.2545" fill="#ADD1B2" rx="11" ry="11" style="stroke:#181818;stroke-width:1.0;"/><path d="M422.4688,1400.8952 Q421.8906,1401.192 421.25,1401.3327 Q420.6094,1401.4889 419.9063,1401.4889 Q417.4063,1401.4889 416.0781,1399.8483 Q414.7656,1398.192 414.7656,1395.067 Q414.7656,1391.942 416.0781,1390.2858 Q417.4063,1388.6295 419.9063,1388.6295 Q420.6094,1388.6295 421.25,1388.7858 Q421.9063,1388.942 422.4688,1389.2389 L422.4688,1391.9577 Q421.8438,1391.3795 421.25,1391.1139 Q420.6563,1390.8327 420.0313,1390.8327 Q418.6875,1390.8327 418,1391.9108 Q417.3125,1392.9733 417.3125,1395.067 Q417.3125,1397.1608 418,1398.2389 Q418.6875,1399.3014 420.0313,1399.3014 Q420.6563,1399.3014 421.25,1399.0358 Q421.8438,1398.7545 422.4688,1398.1764 L422.4688,1400.8952 Z " fill="#000000"/><text fill="#D9B8FF" font-family="Helvetica" font-size="17" lengthAdjust="spacing" textLength="432" x="438.5" y="1401.1398">aws_bedrock_guardrail_contextual_grounding_filter</text><line style="stroke:#000D19;stroke-width:0.5;" x1="405.5" x2="877.5" y1="1415.1491" y2="1415.1491"/><text fill="#D9B8FF" font-family="sans-serif" font-size="14" font-weight="bold" lengthAdjust="spacing" textLength="76" x="415.5" y="1437.1442">threshold</text><text fill="#D9B8FF" font-family="sans-serif" font-size="14" lengthAdjust="spacing" textLength="57" x="491.5" y="1437.1442">: double</text><text fill="#D9B8FF" font-family="sans-serif" font-size="14" font-weight="bold" lengthAdjust="spacing" textLength="35" x="415.5" y="1463.4411">type</text><text fill="#D9B8FF" font-family="sans-serif" font-size="14" lengthAdjust="spacing" textLength="48" x="450.5" y="1463.4411">: string</text></g><!--class aws_bedrock_guardrail_contextual_grounding_policy--><g id="elem_aws_bedrock_guardrail_contextual_grounding_policy"><rect codeLine="54" fill="#3D176E" height="74.0859" id="aws_bedrock_guardrail_contextual_grounding_policy" rx="2.5" ry="2.5" style="stroke:#000D19;stroke-width:0.5;" width="482" x="404.5" y="1201.83"/><ellipse cx="419.5" cy="1221.7245" fill="#ADD1B2" rx="11" ry="11" style="stroke:#181818;stroke-width:1.0;"/><path d="M422.4688,1227.3652 Q421.8906,1227.662 421.25,1227.8027 Q420.6094,1227.9589 419.9063,1227.9589 Q417.4063,1227.9589 416.0781,1226.3183 Q414.7656,1224.662 414.7656,1221.537 Q414.7656,1218.412 416.0781,1216.7558 Q417.4063,1215.0995 419.9063,1215.0995 Q420.6094,1215.0995 421.25,1215.2558 Q421.9063,1215.412 422.4688,1215.7089 L422.4688,1218.4277 Q421.8438,1217.8495 421.25,1217.5839 Q420.6563,1217.3027 420.0313,1217.3027 Q418.6875,1217.3027 418,1218.3808 Q417.3125,1219.4433 417.3125,1221.537 Q417.3125,1223.6308 418,1224.7089 Q418.6875,1225.7714 420.0313,1225.7714 Q420.6563,1225.7714 421.25,1225.5058 Q421.8438,1225.2245 422.4688,1224.6464 L422.4688,1227.3652 Z " fill="#000000"/><text fill="#D9B8FF" font-family="Helvetica" font-size="17" lengthAdjust="spacing" textLength="440" x="438.5" y="1227.6098">aws_bedrock_guardrail_contextual_grounding_policy</text><line style="stroke:#000D19;stroke-width:0.5;" x1="405.5" x2="885.5" y1="1241.6191" y2="1241.6191"/><text fill="#D9B8FF" font-family="sans-serif" font-size="14" font-weight="bold" lengthAdjust="spacing" textLength="46" x="415.5" y="1263.6142">filters</text><text fill="#D9B8FF" font-family="sans-serif" font-size="14" lengthAdjust="spacing" textLength="369" x="461.5" y="1263.6142">: aws_bedrock_guardrail_contextual_grounding_filter[]</text></g><!--class aws_bedrock_guardrail_pii_entity--><g id="elem_aws_bedrock_guardrail_pii_entity"><rect codeLine="57" fill="#3D176E" height="100.3828" id="aws_bedrock_guardrail_pii_entity" rx="2.5" ry="2.5" style="stroke:#000D19;stroke-width:0.5;" width="321" x="913" y="1375.36"/><ellipse cx="928" cy="1395.2545" fill="#ADD1B2" rx="11" ry="11" style="stroke:#181818;stroke-width:1.0;"/><path d="M930.9688,1400.8952 Q930.3906,1401.192 929.75,1401.3327 Q929.1094,1401.4889 928.4063,1401.4889 Q925.9063,1401.4889 924.5781,1399.8483 Q923.2656,1398.192 923.2656,1395.067 Q923.2656,1391.942 924.5781,1390.2858 Q925.9063,1388.6295 928.4063,1388.6295 Q929.1094,1388.6295 929.75,1388.7858 Q930.4063,1388.942 930.9688,1389.2389 L930.9688,1391.9577 Q930.3438,1391.3795 929.75,1391.1139 Q929.1563,1390.8327 928.5313,1390.8327 Q927.1875,1390.8327 926.5,1391.9108 Q925.8125,1392.9733 925.8125,1395.067 Q925.8125,1397.1608 926.5,1398.2389 Q927.1875,1399.3014 928.5313,1399.3014 Q929.1563,1399.3014 929.75,1399.0358 Q930.3438,1398.7545 930.9688,1398.1764 L930.9688,1400.8952 Z " fill="#000000"/><text fill="#D9B8FF" font-family="Helvetica" font-size="17" lengthAdjust="spacing" textLength="279" x="947" y="1401.1398">aws_bedrock_guardrail_pii_entity</text><line style="stroke:#000D19;stroke-width:0.5;" x1="914" x2="1233" y1="1415.1491" y2="1415.1491"/><text fill="#D9B8FF" font-family="sans-serif" font-size="14" font-weight="bold" lengthAdjust="spacing" textLength="48" x="924" y="1437.1442">action</text><text fill="#D9B8FF" font-family="sans-serif" font-size="14" lengthAdjust="spacing" textLength="48" x="972" y="1437.1442">: string</text><text fill="#D9B8FF" font-family="sans-serif" font-size="14" font-weight="bold" lengthAdjust="spacing" textLength="35" x="924" y="1463.4411">type</text><text fill="#D9B8FF" font-family="sans-serif" font-size="14" lengthAdjust="spacing" textLength="48" x="959" y="1463.4411">: string</text></g><!--class aws_bedrock_guardrail_regex--><g id="elem_aws_bedrock_guardrail_regex"><rect codeLine="61" fill="#3D176E" height="152.9766" id="aws_bedrock_guardrail_regex" rx="2.5" ry="2.5" style="stroke:#000D19;stroke-width:0.5;" width="289" x="1269" y="1349.06"/><ellipse cx="1284" cy="1368.9545" fill="#ADD1B2" rx="11" ry="11" style="stroke:#181818;stroke-width:1.0;"/><path d="M1286.9688,1374.5952 Q1286.3906,1374.892 1285.75,1375.0327 Q1285.1094,1375.1889 1284.4063,1375.1889 Q1281.9063,1375.1889 1280.5781,1373.5483 Q1279.2656,1371.892 1279.2656,1368.767 Q1279.2656,1365.642 1280.5781,1363.9858 Q1281.9063,1362.3295 1284.4063,1362.3295 Q1285.1094,1362.3295 1285.75,1362.4858 Q1286.4063,1362.642 1286.9688,1362.9389 L1286.9688,1365.6577 Q1286.3438,1365.0795 1285.75,1364.8139 Q1285.1563,1364.5327 1284.5313,1364.5327 Q1283.1875,1364.5327 1282.5,1365.6108 Q1281.8125,1366.6733 1281.8125,1368.767 Q1281.8125,1370.8608 1282.5,1371.9389 Q1283.1875,1373.0014 1284.5313,1373.0014 Q1285.1563,1373.0014 1285.75,1372.7358 Q1286.3438,1372.4545 1286.9688,1371.8764 L1286.9688,1374.5952 Z " fill="#000000"/><text fill="#D9B8FF" font-family="Helvetica" font-size="17" lengthAdjust="spacing" textLength="247" x="1303" y="1374.8398">aws_bedrock_guardrail_regex</text><line style="stroke:#000D19;stroke-width:0.5;" x1="1270" x2="1557" y1="1388.8491" y2="1388.8491"/><text fill="#D9B8FF" font-family="sans-serif" font-size="14" font-weight="bold" lengthAdjust="spacing" textLength="48" x="1280" y="1410.8442">action</text><text fill="#D9B8FF" font-family="sans-serif" font-size="14" lengthAdjust="spacing" textLength="48" x="1328" y="1410.8442">: string</text><text fill="#D9B8FF" font-family="sans-serif" font-size="14" font-weight="bold" lengthAdjust="spacing" textLength="89" x="1280" y="1437.1411">description</text><text fill="#D9B8FF" font-family="sans-serif" font-size="14" lengthAdjust="spacing" textLength="48" x="1369" y="1437.1411">: string</text><text fill="#D9B8FF" font-family="sans-serif" font-size="14" font-weight="bold" lengthAdjust="spacing" textLength="43" x="1280" y="1463.4379">name</text><text fill="#D9B8FF" font-family="sans-serif" font-size="14" lengthAdjust="spacing" textLength="48" x="1323" y="1463.4379">: string</text><text fill="#D9B8FF" font-family="sans-serif" font-size="14" font-weight="bold" lengthAdjust="spacing" textLength="58" x="1280" y="1489.7348">pattern</text><text fill="#D9B8FF" font-family="sans-serif" font-size="14" lengthAdjust="spacing" textLength="48" x="1338" y="1489.7348">: string</text></g><!--class aws_bedrock_guardrail_sensitive_information_policy--><g id="elem_aws_bedrock_guardrail_sensitive_information_policy"><rect codeLine="67" fill="#3D176E" height="100.3828" id="aws_bedrock_guardrail_sensitive_information_policy" rx="2.5" ry="2.5" style="stroke:#000D19;stroke-width:0.5;" width="481" x="922" y="1188.68"/><ellipse cx="937" cy="1208.5745" fill="#ADD1B2" rx="11" ry="11" style="stroke:#181818;stroke-width:1.0;"/><path d="M939.9688,1214.2152 Q939.3906,1214.512 938.75,1214.6527 Q938.1094,1214.8089 937.4063,1214.8089 Q934.9063,1214.8089 933.5781,1213.1683 Q932.2656,1211.512 932.2656,1208.387 Q932.2656,1205.262 933.5781,1203.6058 Q934.9063,1201.9495 937.4063,1201.9495 Q938.1094,1201.9495 938.75,1202.1058 Q939.4063,1202.262 939.9688,1202.5589 L939.9688,1205.2777 Q939.3438,1204.6995 938.75,1204.4339 Q938.1563,1204.1527 937.5313,1204.1527 Q936.1875,1204.1527 935.5,1205.2308 Q934.8125,1206.2933 934.8125,1208.387 Q934.8125,1210.4808 935.5,1211.5589 Q936.1875,1212.6214 937.5313,1212.6214 Q938.1563,1212.6214 938.75,1212.3558 Q939.3438,1212.0745 939.9688,1211.4964 L939.9688,1214.2152 Z " fill="#000000"/><text fill="#D9B8FF" font-family="Helvetica" font-size="17" lengthAdjust="spacing" textLength="439" x="956" y="1214.4598">aws_bedrock_guardrail_sensitive_information_policy</text><line style="stroke:#000D19;stroke-width:0.5;" x1="923" x2="1402" y1="1228.4691" y2="1228.4691"/><text fill="#D9B8FF" font-family="sans-serif" font-size="14" font-weight="bold" lengthAdjust="spacing" textLength="84" x="933" y="1250.4642">pii_entities</text><text fill="#D9B8FF" font-family="sans-serif" font-size="14" lengthAdjust="spacing" textLength="243" x="1017" y="1250.4642">: aws_bedrock_guardrail_pii_entity[]</text><text fill="#D9B8FF" font-family="sans-serif" font-size="14" font-weight="bold" lengthAdjust="spacing" textLength="65" x="933" y="1276.7611">regexes</text><text fill="#D9B8FF" font-family="sans-serif" font-size="14" lengthAdjust="spacing" textLength="222" x="998" y="1276.7611">: aws_bedrock_guardrail_regex[]</text></g><!--class aws_bedrock_guardrail_topic--><g id="elem_aws_bedrock_guardrail_topic"><rect codeLine="71" fill="#3D176E" height="152.9766" id="aws_bedrock_guardrail_topic" rx="2.5" ry="2.5" style="stroke:#000D19;stroke-width:0.5;" width="282" x="1593.5" y="1349.06"/><ellipse cx="1608.5" cy="1368.9545" fill="#ADD1B2" rx="11" ry="11" style="stroke:#181818;stroke-width:1.0;"/><path d="M1611.4688,1374.5952 Q1610.8906,1374.892 1610.25,1375.0327 Q1609.6094,1375.1889 1608.9063,1375.1889 Q1606.4063,1375.1889 1605.0781,1373.5483 Q1603.7656,1371.892 1603.7656,1368.767 Q1603.7656,1365.642 1605.0781,1363.9858 Q1606.4063,1362.3295 1608.9063,1362.3295 Q1609.6094,1362.3295 1610.25,1362.4858 Q1610.9063,1362.642 1611.4688,1362.9389 L1611.4688,1365.6577 Q1610.8438,1365.0795 1610.25,1364.8139 Q1609.6563,1364.5327 1609.0313,1364.5327 Q1607.6875,1364.5327 1607,1365.6108 Q1606.3125,1366.6733 1606.3125,1368.767 Q1606.3125,1370.8608 1607,1371.9389 Q1607.6875,1373.0014 1609.0313,1373.0014 Q1609.6563,1373.0014 1610.25,1372.7358 Q1610.8438,1372.4545 1611.4688,1371.8764 L1611.4688,1374.5952 Z " fill="#000000"/><text fill="#D9B8FF" font-family="Helvetica" font-size="17" lengthAdjust="spacing" textLength="240" x="1627.5" y="1374.8398">aws_bedrock_guardrail_topic</text><line style="stroke:#000D19;stroke-width:0.5;" x1="1594.5" x2="1874.5" y1="1388.8491" y2="1388.8491"/><text fill="#D9B8FF" font-family="sans-serif" font-size="14" font-weight="bold" lengthAdjust="spacing" textLength="74" x="1604.5" y="1410.8442">definition</text><text fill="#D9B8FF" font-family="sans-serif" font-size="14" lengthAdjust="spacing" textLength="48" x="1678.5" y="1410.8442">: string</text><text fill="#D9B8FF" font-family="sans-serif" font-size="14" font-weight="bold" lengthAdjust="spacing" textLength="75" x="1604.5" y="1437.1411">examples</text><text fill="#D9B8FF" font-family="sans-serif" font-size="14" lengthAdjust="spacing" textLength="58" x="1679.5" y="1437.1411">: string[]</text><text fill="#D9B8FF" font-family="sans-serif" font-size="14" font-weight="bold" lengthAdjust="spacing" textLength="43" x="1604.5" y="1463.4379">name</text><text fill="#D9B8FF" font-family="sans-serif" font-size="14" lengthAdjust="spacing" textLength="48" x="1647.5" y="1463.4379">: string</text><text fill="#D9B8FF" font-family="sans-serif" font-size="14" font-weight="bold" lengthAdjust="spacing" textLength="35" x="1604.5" y="1489.7348">type</text><text fill="#D9B8FF" font-family="sans-serif" font-size="14" lengthAdjust="spacing" textLength="48" x="1639.5" y="1489.7348">: string</text></g><!--class aws_bedrock_guardrail_topic_policy--><g id="elem_aws_bedrock_guardrail_topic_policy"><rect codeLine="77" fill="#3D176E" height="74.0859" id="aws_bedrock_guardrail_topic_policy" rx="2.5" ry="2.5" style="stroke:#000D19;stroke-width:0.5;" width="339" x="1438" y="1201.83"/><ellipse cx="1453" cy="1221.7245" fill="#ADD1B2" rx="11" ry="11" style="stroke:#181818;stroke-width:1.0;"/><path d="M1455.9688,1227.3652 Q1455.3906,1227.662 1454.75,1227.8027 Q1454.1094,1227.9589 1453.4063,1227.9589 Q1450.9063,1227.9589 1449.5781,1226.3183 Q1448.2656,1224.662 1448.2656,1221.537 Q1448.2656,1218.412 1449.5781,1216.7558 Q1450.9063,1215.0995 1453.4063,1215.0995 Q1454.1094,1215.0995 1454.75,1215.2558 Q1455.4063,1215.412 1455.9688,1215.7089 L1455.9688,1218.4277 Q1455.3438,1217.8495 1454.75,1217.5839 Q1454.1563,1217.3027 1453.5313,1217.3027 Q1452.1875,1217.3027 1451.5,1218.3808 Q1450.8125,1219.4433 1450.8125,1221.537 Q1450.8125,1223.6308 1451.5,1224.7089 Q1452.1875,1225.7714 1453.5313,1225.7714 Q1454.1563,1225.7714 1454.75,1225.5058 Q1455.3438,1225.2245 1455.9688,1224.6464 L1455.9688,1227.3652 Z " fill="#000000"/><text fill="#D9B8FF" font-family="Helvetica" font-size="17" lengthAdjust="spacing" textLength="297" x="1472" y="1227.6098">aws_bedrock_guardrail_topic_policy</text><line style="stroke:#000D19;stroke-width:0.5;" x1="1439" x2="1776" y1="1241.6191" y2="1241.6191"/><text fill="#D9B8FF" font-family="sans-serif" font-size="14" font-weight="bold" lengthAdjust="spacing" textLength="48" x="1449" y="1263.6142">topics</text><text fill="#D9B8FF" font-family="sans-serif" font-size="14" lengthAdjust="spacing" textLength="217" x="1497" y="1263.6142">: aws_bedrock_guardrail_topic[]</text></g><!--class aws_bedrock_guardrail_word_policy--><g id="elem_aws_bedrock_guardrail_word_policy"><rect codeLine="80" fill="#3D176E" height="100.3828" id="aws_bedrock_guardrail_word_policy" rx="2.5" ry="2.5" style="stroke:#000D19;stroke-width:0.5;" width="341" x="1812" y="1188.68"/><ellipse cx="1827" cy="1208.5745" fill="#ADD1B2" rx="11" ry="11" style="stroke:#181818;stroke-width:1.0;"/><path d="M1829.9688,1214.2152 Q1829.3906,1214.512 1828.75,1214.6527 Q1828.1094,1214.8089 1827.4063,1214.8089 Q1824.9063,1214.8089 1823.5781,1213.1683 Q1822.2656,1211.512 1822.2656,1208.387 Q1822.2656,1205.262 1823.5781,1203.6058 Q1824.9063,1201.9495 1827.4063,1201.9495 Q1828.1094,1201.9495 1828.75,1202.1058 Q1829.4063,1202.262 1829.9688,1202.5589 L1829.9688,1205.2777 Q1829.3438,1204.6995 1828.75,1204.4339 Q1828.1563,1204.1527 1827.5313,1204.1527 Q1826.1875,1204.1527 1825.5,1205.2308 Q1824.8125,1206.2933 1824.8125,1208.387 Q1824.8125,1210.4808 1825.5,1211.5589 Q1826.1875,1212.6214 1827.5313,1212.6214 Q1828.1563,1212.6214 1828.75,1212.3558 Q1829.3438,1212.0745 1829.9688,1211.4964 L1829.9688,1214.2152 Z " fill="#000000"/><text fill="#D9B8FF" font-family="Helvetica" font-size="17" lengthAdjust="spacing" textLength="299" x="1846" y="1214.4598">aws_bedrock_guardrail_word_policy</text><line style="stroke:#000D19;stroke-width:0.5;" x1="1813" x2="2152" y1="1228.4691" y2="1228.4691"/><text fill="#D9B8FF" font-family="sans-serif" font-size="14" font-weight="bold" lengthAdjust="spacing" textLength="159" x="1823" y="1250.4642">managed_word_lists</text><text fill="#D9B8FF" font-family="sans-serif" font-size="14" lengthAdjust="spacing" textLength="58" x="1982" y="1250.4642">: string[]</text><text fill="#D9B8FF" font-family="sans-serif" font-size="14" font-weight="bold" lengthAdjust="spacing" textLength="50" x="1823" y="1276.7611">words</text><text fill="#D9B8FF" font-family="sans-serif" font-size="14" lengthAdjust="spacing" textLength="58" x="1873" y="1276.7611">: string[]</text></g><!--class aws_resource--><g id="elem_aws_resource"><rect codeLine="84" fill="#3D176E" height="74.0859" id="aws_resource" rx="2.5" ry="2.5" style="stroke:#000D19;stroke-width:0.5;" width="155" x="1085" y="438.76"/><ellipse cx="1100" cy="458.6545" fill="#ADD1B2" rx="11" ry="11" style="stroke:#181818;stroke-width:1.0;"/><path d="M1102.9688,464.2952 Q1102.3906,464.592 1101.75,464.7327 Q1101.1094,464.8889 1100.4063,464.8889 Q1097.9063,464.8889 1096.5781,463.2483 Q1095.2656,461.592 1095.2656,458.467 Q1095.2656,455.342 1096.5781,453.6858 Q1097.9063,452.0295 1100.4063,452.0295 Q1101.1094,452.0295 1101.75,452.1858 Q1102.4063,452.342 1102.9688,452.6389 L1102.9688,455.3577 Q1102.3438,454.7795 1101.75,454.5139 Q1101.1563,454.2327 1100.5313,454.2327 Q1099.1875,454.2327 1098.5,455.3108 Q1097.8125,456.3733 1097.8125,458.467 Q1097.8125,460.5608 1098.5,461.6389 Q1099.1875,462.7014 1100.5313,462.7014 Q1101.1563,462.7014 1101.75,462.4358 Q1102.3438,462.1545 1102.9688,461.5764 L1102.9688,464.2952 Z " fill="#000000"/><text fill="#D9B8FF" font-family="Helvetica" font-size="17" lengthAdjust="spacing" textLength="113" x="1119" y="464.5398">aws_resource</text><line style="stroke:#000D19;stroke-width:0.5;" x1="1086" x2="1239" y1="478.5491" y2="478.5491"/><text fill="#D9B8FF" font-family="sans-serif" font-size="14" font-weight="bold" lengthAdjust="spacing" textLength="26" x="1096" y="500.5442">arn</text><text fill="#D9B8FF" font-family="sans-serif" font-size="14" lengthAdjust="spacing" textLength="48" x="1122" y="500.5442">: string</text></g><!--class resource--><g id="elem_resource"><rect codeLine="87" fill="#3D176E" height="310.7578" id="resource" rx="2.5" ry="2.5" style="stroke:#000D19;stroke-width:0.5;" width="227" x="1049" y="7"/><ellipse cx="1117.75" cy="26.8945" fill="#ADD1B2" rx="11" ry="11" style="stroke:#181818;stroke-width:1.0;"/><path d="M1120.7188,32.5352 Q1120.1406,32.832 1119.5,32.9727 Q1118.8594,33.1289 1118.1563,33.1289 Q1115.6563,33.1289 1114.3281,31.4883 Q1113.0156,29.832 1113.0156,26.707 Q1113.0156,23.582 1114.3281,21.9258 Q1115.6563,20.2695 1118.1563,20.2695 Q1118.8594,20.2695 1119.5,20.4258 Q1120.1563,20.582 1120.7188,20.8789 L1120.7188,23.5977 Q1120.0938,23.0195 1119.5,22.7539 Q1118.9063,22.4727 1118.2813,22.4727 Q1116.9375,22.4727 1116.25,23.5508 Q1115.5625,24.6133 1115.5625,26.707 Q1115.5625,28.8008 1116.25,29.8789 Q1116.9375,30.9414 1118.2813,30.9414 Q1118.9063,30.9414 1119.5,30.6758 Q1120.0938,30.3945 1120.7188,29.8164 L1120.7188,32.5352 Z " fill="#000000"/><text fill="#D9B8FF" font-family="Helvetica" font-size="17" lengthAdjust="spacing" textLength="71" x="1143.25" y="32.7798">resource</text><line style="stroke:#000D19;stroke-width:0.5;" x1="1050" x2="1275" y1="46.7891" y2="46.7891"/><text fill="#D9B8FF" font-family="sans-serif" font-size="14" font-weight="bold" lengthAdjust="spacing" textLength="29" x="1060" y="68.7842">age</text><text fill="#D9B8FF" font-family="sans-serif" font-size="14" lengthAdjust="spacing" textLength="66" x="1089" y="68.7842">: duration</text><text fill="#D9B8FF" font-family="sans-serif" font-size="14" font-weight="bold" lengthAdjust="spacing" textLength="43" x="1060" y="95.0811">atime</text><text fill="#D9B8FF" font-family="sans-serif" font-size="14" lengthAdjust="spacing" textLength="70" x="1103" y="95.0811">: datetime</text><text fill="#D9B8FF" font-family="sans-serif" font-size="14" font-weight="bold" lengthAdjust="spacing" textLength="43" x="1060" y="121.3779">ctime</text><text fill="#D9B8FF" font-family="sans-serif" font-size="14" lengthAdjust="spacing" textLength="70" x="1103" y="121.3779">: datetime</text><text fill="#D9B8FF" font-family="sans-serif" font-size="14" font-weight="bold" lengthAdjust="spacing" textLength="14" x="1060" y="147.6748">id</text><text fill="#D9B8FF" font-family="sans-serif" font-size="14" lengthAdjust="spacing" textLength="48" x="1074" y="147.6748">: string</text><text fill="#D9B8FF" font-family="sans-serif" font-size="14" font-weight="bold" lengthAdjust="spacing" textLength="33" x="1060" y="173.9717">kind</text><text fill="#D9B8FF" font-family="sans-serif" font-size="14" lengthAdjust="spacing" textLength="48" x="1093" y="173.9717">: string</text><text fill="#D9B8FF" font-family="sans-serif" font-size="14" font-weight="bold" lengthAdjust="spacing" textLength="90" x="1060" y="200.2686">last_access</text><text fill="#D9B8FF" font-family="sans-serif" font-size="14" lengthAdjust="spacing" textLength="66" x="1150" y="200.2686">: duration</text><text fill="#D9B8FF" font-family="sans-serif" font-size="14" font-weight="bold" lengthAdjust="spacing" textLength="90" x="1060" y="226.5654">last_update</text><text fill="#D9B8FF" font-family="sans-serif" font-size="14" lengthAdjust="spacing" textLength="66" x="1150" y="226.5654">: duration</text><text fill="#D9B8FF" font-family="sans-serif" font-size="14" font-weight="bold" lengthAdjust="spacing" textLength="48" x="1060" y="252.8623">mtime</text><text fill="#D9B8FF" font-family="sans-serif" font-size="14" lengthAdjust="spacing" textLength="70" x="1108" y="252.8623">: datetime</text><text fill="#D9B8FF" font-family="sans-serif" font-size="14" font-weight="bold" lengthAdjust="spacing" textLength="43" x="1060" y="279.1592">name</text><text fill="#D9B8FF" font-family="sans-serif" font-size="14" lengthAdjust="spacing" textLength="48" x="1103" y="279.1592">: string</text><text fill="#D9B8FF" font-family="sans-serif" font-size="14" font-weight="bold" lengthAdjust="spacing" textLength="34" x="1060" y="305.4561">tags</text><text fill="#D9B8FF" font-family="sans-serif" font-size="14" lengthAdjust="spacing" textLength="171" x="1094" y="305.4561">: dictionary[string, string]</text></g><!--link aws_bedrock_guardrail to aws_bedrock_guardrail_content_policy--><g id="link_aws_bedrock_guardrail_aws_bedrock_guardrail_content_policy"><path codeLine="99" d="M854.65,994.66 C659.84,1065.78 426.2262,1151.0824 293.9762,1199.3624 " fill="none" id="aws_bedrock_guardrail-to-aws_bedrock_guardrail_content_policy" style="stroke:#FFAF37;stroke-width:2.0;"/><polygon fill="#FFAF37" points="288.34,1201.42,298.166,1202.0911,293.0368,1199.7054,295.4225,1194.5762,288.34,1201.42" style="stroke:#FFAF37;stroke-width:2.0;"/></g><!--link aws_bedrock_guardrail to aws_bedrock_guardrail_contextual_grounding_policy--><g id="link_aws_bedrock_guardrail_aws_bedrock_guardrail_contextual_grounding_policy"><path codeLine="100" d="M854.67,1094 C794.25,1135.56 742.5135,1171.1398 703.4335,1198.0198 " fill="none" id="aws_bedrock_guardrail-to-aws_bedrock_guardrail_contextual_grounding_policy" style="stroke:#FFAF37;stroke-width:2.0;"/><polygon fill="#FFAF37" points="698.49,1201.42,708.1721,1199.6153,702.6096,1198.5865,703.6384,1193.024,698.49,1201.42" style="stroke:#FFAF37;stroke-width:2.0;"/></g><!--link aws_bedrock_guardrail to aws_bedrock_guardrail_sensitive_information_policy--><g id="link_aws_bedrock_guardrail_aws_bedrock_guardrail_sensitive_information_policy"><path codeLine="101" d="M1162.5,1128.76 C1162.5,1150.89 1162.5,1165.34 1162.5,1182.41 " fill="none" id="aws_bedrock_guardrail-to-aws_bedrock_guardrail_sensitive_information_policy" style="stroke:#FFAF37;stroke-width:2.0;"/><polygon fill="#FFAF37" points="1162.5,1188.41,1166.5,1179.41,1162.5,1183.41,1158.5,1179.41,1162.5,1188.41" style="stroke:#FFAF37;stroke-width:2.0;"/></g><!--link aws_bedrock_guardrail to aws_bedrock_guardrail_topic_policy--><g id="link_aws_bedrock_guardrail_aws_bedrock_guardrail_topic_policy"><path codeLine="102" d="M1470.35,1128.28 C1505.77,1156.58 1533.0925,1178.4147 1557.2725,1197.7347 " fill="none" id="aws_bedrock_guardrail-to-aws_bedrock_guardrail_topic_policy" style="stroke:#FFAF37;stroke-width:2.0;"/><polygon fill="#FFAF37" points="1561.96,1201.48,1557.4257,1192.737,1558.0538,1198.3589,1552.4319,1198.987,1561.96,1201.48" style="stroke:#FFAF37;stroke-width:2.0;"/></g><!--link aws_bedrock_guardrail to aws_bedrock_guardrail_word_policy--><g id="link_aws_bedrock_guardrail_aws_bedrock_guardrail_word_policy"><path codeLine="103" d="M1470.46,1015.82 C1609.49,1076.11 1759.7253,1141.2628 1862.5453,1185.8528 " fill="none" id="aws_bedrock_guardrail-to-aws_bedrock_guardrail_word_policy" style="stroke:#FFAF37;stroke-width:2.0;"/><polygon fill="#FFAF37" points="1868.05,1188.24,1861.3845,1180.9894,1863.4628,1186.2507,1858.2015,1188.329,1868.05,1188.24" style="stroke:#FFAF37;stroke-width:2.0;"/></g><!--reverse link aws_resource to aws_bedrock_guardrail--><g id="link_aws_resource_aws_bedrock_guardrail"><path codeLine="104" d="M1162.5,531.32 C1162.5,560.51 1162.5,586.25 1162.5,633.45 " fill="none" id="aws_resource-backto-aws_bedrock_guardrail" style="stroke:#FFAF37;stroke-width:2.0;"/><polygon fill="none" points="1162.5,513.32,1156.5,531.32,1168.5,531.32,1162.5,513.32" style="stroke:#FFAF37;stroke-width:2.0;"/></g><!--link aws_bedrock_guardrail_content_policy to aws_bedrock_guardrail_content_filter--><g id="link_aws_bedrock_guardrail_content_policy_aws_bedrock_guardrail_content_filter"><path codeLine="105" d="M188.5,1276.36 C188.5,1300.75 188.5,1327.46 188.5,1355.95 " fill="none" id="aws_bedrock_guardrail_content_policy-to-aws_bedrock_guardrail_content_filter" style="stroke:#FFAF37;stroke-width:2.0;"/><polygon fill="#FFAF37" points="188.5,1361.95,192.5,1352.95,188.5,1356.95,184.5,1352.95,188.5,1361.95" style="stroke:#FFAF37;stroke-width:2.0;"/></g><!--link aws_bedrock_guardrail_contextual_grounding_policy to aws_bedrock_guardrail_contextual_grounding_filter--><g id="link_aws_bedrock_guardrail_contextual_grounding_policy_aws_bedrock_guardrail_contextual_grounding_filter"><path codeLine="106" d="M644.71,1276.36 C644.1,1304.64 643.3693,1338.1114 642.6993,1369.2014 " fill="none" id="aws_bedrock_guardrail_contextual_grounding_policy-to-aws_bedrock_guardrail_contextual_grounding_filter" style="stroke:#FFAF37;stroke-width:2.0;"/><polygon fill="#FFAF37" points="642.57,1375.2,646.763,1366.2883,642.6777,1370.2012,638.7648,1366.1159,642.57,1375.2" style="stroke:#FFAF37;stroke-width:2.0;"/></g><!--link aws_bedrock_guardrail_sensitive_information_policy to aws_bedrock_guardrail_pii_entity--><g id="link_aws_bedrock_guardrail_sensitive_information_policy_aws_bedrock_guardrail_pii_entity"><path codeLine="107" d="M1138.65,1289.36 C1125.88,1315.86 1112.8055,1343.0053 1100.0255,1369.5153 " fill="none" id="aws_bedrock_guardrail_sensitive_information_policy-to-aws_bedrock_guardrail_pii_entity" style="stroke:#FFAF37;stroke-width:2.0;"/><polygon fill="#FFAF37" points="1097.42,1374.92,1104.9315,1368.5499,1099.5913,1370.416,1097.7251,1365.0759,1097.42,1374.92" style="stroke:#FFAF37;stroke-width:2.0;"/></g><!--link aws_bedrock_guardrail_sensitive_information_policy to aws_bedrock_guardrail_regex--><g id="link_aws_bedrock_guardrail_sensitive_information_policy_aws_bedrock_guardrail_regex"><path codeLine="108" d="M1229.76,1289.36 C1254.59,1307.63 1278.4968,1325.2247 1305.7668,1345.2847 " fill="none" id="aws_bedrock_guardrail_sensitive_information_policy-to-aws_bedrock_guardrail_regex" style="stroke:#FFAF37;stroke-width:2.0;"/><polygon fill="#FFAF37" points="1310.6,1348.84,1305.7204,1340.2849,1306.5723,1345.8772,1300.98,1346.7291,1310.6,1348.84" style="stroke:#FFAF37;stroke-width:2.0;"/></g><!--link aws_bedrock_guardrail_topic_policy to aws_bedrock_guardrail_topic--><g id="link_aws_bedrock_guardrail_topic_policy_aws_bedrock_guardrail_topic"><path codeLine="109" d="M1632.59,1276.36 C1646.83,1297.07 1661.8006,1318.8359 1679.0106,1343.8659 " fill="none" id="aws_bedrock_guardrail_topic_policy-to-aws_bedrock_guardrail_topic" style="stroke:#FFAF37;stroke-width:2.0;"/><polygon fill="#FFAF37" points="1682.41,1348.81,1680.6069,1339.1276,1679.5771,1344.6899,1674.0148,1343.6602,1682.41,1348.81" style="stroke:#FFAF37;stroke-width:2.0;"/></g><!--reverse link resource to aws_resource--><g id="link_resource_aws_resource"><path codeLine="110" d="M1162.5,336.18 C1162.5,381.21 1162.5,408.35 1162.5,438.51 " fill="none" id="resource-backto-aws_resource" style="stroke:#FFAF37;stroke-width:2.0;"/><polygon fill="none" points="1162.5,318.18,1156.5,336.18,1168.5,336.18,1162.5,318.18" style="stroke:#FFAF37;stroke-width:2.0;"/></g><!--SRC=[hLPBQzmm4BxxLnXwMxgGDBH9IYcaWT9UGcbw2yNCIcElM5ioafpDzl7VEvQIhFosGszcvflvvYrl1SSOYz8UuWAB3MeJcPsG9MWeuYkjrVvQvKh7hz8KqhFpjlApadOIS0C5nbymlqSh6BGHFxQ2xIGQ4xy9L9-0xJAjAiczUwj16bAXj07gEWTZhgpLObDP38BXbvkBD6qZsqvVdV7JytVOWIdDKJz2JavE-Ebb6p99DPhtC-9M_CBuD2pQZRBO2RD3uL2ZKTQ88CXEea_wmHY_0UT2Pl7RGFRTnwGbweRyTWjSxMjq2ha9QOn5ZSeUIhpkP8MN5pmzxmL_7G97h2vT37kJR91hnNP9Le7c6aGU_uvMgqrECkG9-QniKj1OGKQ1hLRloRschm2ZAaiWCu1YL1sQjgHKkM27MjNBcZHnJuOFje8yyIcGltbU-ergbnh1KiHWQm-Slgqea1GS3TEYj4B9Hl0f-Qmq9XgPAWgKP48GSyJS_IJKaHvqq_we4RoXs1KcsU6XOs1G6c75FLBbKwKBnpUPzPXLxTI2hKoJnuaeBp3TVAmg1Pia3L5aL9MylxRtT0pRTTtJqaqI1A3exzZ4FizEAdAQVJV0Vd2946LcjmroFw_zkdfh0i4yMX-Ze_KHcEanzq0gzmoAzZm7QTgjHhDLkPikhgfDZY_Aedzb5gJK7-DaVgKG2PL3MCy5hBE2YtBHcE73aAUX9PTqknk24Yp5BcUpZgsV2-OvIu4ZTJpMmcsXosKCxm2J5NPhwgBWc0efEkdZ0nHbZkqZqAdAeaQ4ny4FQYqm4zTaCfdW93Yl1KZ8wEWuUIwCRMTHAvgoa81sHrMQeP-Oteut8Pch0A-qQt4jgOzSw-2n7bdx_0lP512NJO0nUa9R34xZZsjBK_JmTBi6cVSet4A0FjnvtUj7J5sH_l-0zVhZlBVwHUO3Z_HINwDFtr9dZITjgN7uN3M6wyEVzNhTRnJDUbYc6-6lRRJym2ziqYZFw1aS9ZgUlV_hrvt7QCPvcfY7gAUHJwBe7m00]--></g></svg>