<?xml version="1.0" encoding="us-ascii" standalone="no"?><svg xmlns="http://www.w3.org/2000/svg" xmlns:xlink="http://www.w3.org/1999/xlink" contentStyleType="text/css" height="453px" preserveAspectRatio="none" style="width:3863px;height:453px;" version="1.1" viewBox="0 0 3863 453" width="3863px" zoomAndPan="magnify"><defs/><g><!--class azure_authorization_role_assignment--><g id="elem_azure_authorization_role_assignment"><rect codeLine="23" fill="#3D176E" height="39.7891" id="azure_authorization_role_assignment" rx="2.5" ry="2.5" style="stroke:#000D19;stroke-width:0.5;" width="356" x="7" y="106.79"/><ellipse cx="22" cy="126.6845" fill="#ADD1B2" rx="11" ry="11" style="stroke:#181818;stroke-width:1.0;"/><path d="M24.9688,132.3252 Q24.3906,132.622 23.75,132.7627 Q23.1094,132.9189 22.4063,132.9189 Q19.9063,132.9189 18.5781,131.2783 Q17.2656,129.622 17.2656,126.497 Q17.2656,123.372 18.5781,121.7158 Q19.9063,120.0595 22.4063,120.0595 Q23.1094,120.0595 23.75,120.2158 Q24.4063,120.372 24.9688,120.6689 L24.9688,123.3877 Q24.3438,122.8095 23.75,122.5439 Q23.1563,122.2627 22.5313,122.2627 Q21.1875,122.2627 20.5,123.3408 Q19.8125,124.4033 19.8125,126.497 Q19.8125,128.5908 20.5,129.6689 Q21.1875,130.7314 22.5313,130.7314 Q23.1563,130.7314 23.75,130.4658 Q24.3438,130.1845 24.9688,129.6064 L24.9688,132.3252 Z " fill="#000000"/><text fill="#D9B8FF" font-family="Helvetica" font-size="17" lengthAdjust="spacing" textLength="314" x="41" y="132.5698">azure_authorization_role_assignment</text></g><!--class azure_cosmos_db_account--><g id="elem_azure_cosmos_db_account"><rect codeLine="26" fill="#3D176E" height="39.7891" id="azure_cosmos_db_account" rx="2.5" ry="2.5" style="stroke:#000D19;stroke-width:0.5;" width="261" x="520.5" y="206.58"/><ellipse cx="535.5" cy="226.4745" fill="#ADD1B2" rx="11" ry="11" style="stroke:#181818;stroke-width:1.0;"/><path d="M538.4688,232.1152 Q537.8906,232.412 537.25,232.5527 Q536.6094,232.7089 535.9063,232.7089 Q533.4063,232.7089 532.0781,231.0683 Q530.7656,229.412 530.7656,226.287 Q530.7656,223.162 532.0781,221.5058 Q533.4063,219.8495 535.9063,219.8495 Q536.6094,219.8495 537.25,220.0058 Q537.9063,220.162 538.4688,220.4589 L538.4688,223.1777 Q537.8438,222.5995 537.25,222.3339 Q536.6563,222.0527 536.0313,222.0527 Q534.6875,222.0527 534,223.1308 Q533.3125,224.1933 533.3125,226.287 Q533.3125,228.3808 534,229.4589 Q534.6875,230.5214 536.0313,230.5214 Q536.6563,230.5214 537.25,230.2558 Q537.8438,229.9745 538.4688,229.3964 L538.4688,232.1152 Z " fill="#000000"/><text fill="#D9B8FF" font-family="Helvetica" font-size="17" lengthAdjust="spacing" textLength="219" x="554.5" y="232.3598">azure_cosmos_db_account</text></g><!--class azure_machine_learning_batch_endpoint--><g id="elem_azure_machine_learning_batch_endpoint"><rect codeLine="29" fill="#3D176E" height="39.7891" id="azure_machine_learning_batch_endpoint" rx="2.5" ry="2.5" style="stroke:#000D19;stroke-width:0.5;" width="385" x="397.5" y="106.79"/><ellipse cx="412.5" cy="126.6845" fill="#ADD1B2" rx="11" ry="11" style="stroke:#181818;stroke-width:1.0;"/><path d="M415.4688,132.3252 Q414.8906,132.622 414.25,132.7627 Q413.6094,132.9189 412.9063,132.9189 Q410.4063,132.9189 409.0781,131.2783 Q407.7656,129.622 407.7656,126.497 Q407.7656,123.372 409.0781,121.7158 Q410.4063,120.0595 412.9063,120.0595 Q413.6094,120.0595 414.25,120.2158 Q414.9063,120.372 415.4688,120.6689 L415.4688,123.3877 Q414.8438,122.8095 414.25,122.5439 Q413.6563,122.2627 413.0313,122.2627 Q411.6875,122.2627 411,123.3408 Q410.3125,124.4033 410.3125,126.497 Q410.3125,128.5908 411,129.6689 Q411.6875,130.7314 413.0313,130.7314 Q413.6563,130.7314 414.25,130.4658 Q414.8438,130.1845 415.4688,129.6064 L415.4688,132.3252 Z " fill="#000000"/><text fill="#D9B8FF" font-family="Helvetica" font-size="17" lengthAdjust="spacing" textLength="343" x="431.5" y="132.5698">azure_machine_learning_batch_endpoint</text></g><!--class azure_machine_learning_compute--><g id="elem_azure_machine_learning_compute"><rect codeLine="32" fill="#3D176E" height="39.7891" id="azure_machine_learning_compute" rx="2.5" ry="2.5" style="stroke:#000D19;stroke-width:0.5;" width="329" x="887.5" y="106.79"/><ellipse cx="902.5" cy="126.6845" fill="#ADD1B2" rx="11" ry="11" style="stroke:#181818;stroke-width:1.0;"/><path d="M905.4688,132.3252 Q904.8906,132.622 904.25,132.7627 Q903.6094,132.9189 902.9063,132.9189 Q900.4063,132.9189 899.0781,131.2783 Q897.7656,129.622 897.7656,126.497 Q897.7656,123.372 899.0781,121.7158 Q900.4063,120.0595 902.9063,120.0595 Q903.6094,120.0595 904.25,120.2158 Q904.9063,120.372 905.4688,120.6689 L905.4688,123.3877 Q904.8438,122.8095 904.25,122.5439 Q903.6563,122.2627 903.0313,122.2627 Q901.6875,122.2627 901,123.3408 Q900.3125,124.4033 900.3125,126.497 Q900.3125,128.5908 901,129.6689 Q901.6875,130.7314 903.0313,130.7314 Q903.6563,130.7314 904.25,130.4658 Q904.8438,130.1845 905.4688,129.6064 L905.4688,132.3252 Z " fill="#000000"/><text fill="#D9B8FF" font-family="Helvetica" font-size="17" lengthAdjust="spacing" textLength="287" x="921.5" y="132.5698">azure_machine_learning_compute</text></g><!--class azure_machine_learning_online_endpoint--><g id="elem_azure_machine_learning_online_endpoint"><rect codeLine="35" fill="#3D176E" height="39.7891" id="azure_machine_learning_online_endpoint" rx="2.5" ry="2.5" style="stroke:#000D19;stroke-width:0.5;" width="391" x="888.5" y="206.58"/><ellipse cx="903.5" cy="226.4745" fill="#ADD1B2" rx="11" ry="11" style="stroke:#181818;stroke-width:1.0;"/><path d="M906.4688,232.1152 Q905.8906,232.412 905.25,232.5527 Q904.6094,232.7089 903.9063,232.7089 Q901.4063,232.7089 900.0781,231.0683 Q898.7656,229.412 898.7656,226.287 Q898.7656,223.162 900.0781,221.5058 Q901.4063,219.8495 903.9063,219.8495 Q904.6094,219.8495 905.25,220.0058 Q905.9063,220.162 906.4688,220.4589 L906.4688,223.1777 Q905.8438,222.5995 905.25,222.3339 Q904.6563,222.0527 904.0313,222.0527 Q902.6875,222.0527 902,223.1308 Q901.3125,224.1933 901.3125,226.287 Q901.3125,228.3808 902,229.4589 Q902.6875,230.5214 904.0313,230.5214 Q904.6563,230.5214 905.25,230.2558 Q905.8438,229.9745 906.4688,229.3964 L906.4688,232.1152 Z " fill="#000000"/><text fill="#D9B8FF" font-family="Helvetica" font-size="17" lengthAdjust="spacing" textLength="349" x="922.5" y="232.3598">azure_machine_learning_online_endpoint</text></g><!--class azure_machine_learning_private_endpoint_connection--><g id="elem_azure_machine_learning_private_endpoint_connection"><rect codeLine="38" fill="#3D176E" height="39.7891" id="azure_machine_learning_private_endpoint_connection" rx="2.5" ry="2.5" style="stroke:#000D19;stroke-width:0.5;" width="498" x="1251" y="106.79"/><ellipse cx="1266" cy="126.6845" fill="#ADD1B2" rx="11" ry="11" style="stroke:#181818;stroke-width:1.0;"/><path d="M1268.9688,132.3252 Q1268.3906,132.622 1267.75,132.7627 Q1267.1094,132.9189 1266.4063,132.9189 Q1263.9063,132.9189 1262.5781,131.2783 Q1261.2656,129.622 1261.2656,126.497 Q1261.2656,123.372 1262.5781,121.7158 Q1263.9063,120.0595 1266.4063,120.0595 Q1267.1094,120.0595 1267.75,120.2158 Q1268.4063,120.372 1268.9688,120.6689 L1268.9688,123.3877 Q1268.3438,122.8095 1267.75,122.5439 Q1267.1563,122.2627 1266.5313,122.2627 Q1265.1875,122.2627 1264.5,123.3408 Q1263.8125,124.4033 1263.8125,126.497 Q1263.8125,128.5908 1264.5,129.6689 Q1265.1875,130.7314 1266.5313,130.7314 Q1267.1563,130.7314 1267.75,130.4658 Q1268.3438,130.1845 1268.9688,129.6064 L1268.9688,132.3252 Z " fill="#000000"/><text fill="#D9B8FF" font-family="Helvetica" font-size="17" lengthAdjust="spacing" textLength="456" x="1285" y="132.5698">azure_machine_learning_private_endpoint_connection</text></g><!--class azure_machine_learning_private_link--><g id="elem_azure_machine_learning_private_link"><rect codeLine="41" fill="#3D176E" height="39.7891" id="azure_machine_learning_private_link" rx="2.5" ry="2.5" style="stroke:#000D19;stroke-width:0.5;" width="355" x="1784.5" y="106.79"/><ellipse cx="1799.5" cy="126.6845" fill="#ADD1B2" rx="11" ry="11" style="stroke:#181818;stroke-width:1.0;"/><path d="M1802.4688,132.3252 Q1801.8906,132.622 1801.25,132.7627 Q1800.6094,132.9189 1799.9063,132.9189 Q1797.4063,132.9189 1796.0781,131.2783 Q1794.7656,129.622 1794.7656,126.497 Q1794.7656,123.372 1796.0781,121.7158 Q1797.4063,120.0595 1799.9063,120.0595 Q1800.6094,120.0595 1801.25,120.2158 Q1801.9063,120.372 1802.4688,120.6689 L1802.4688,123.3877 Q1801.8438,122.8095 1801.25,122.5439 Q1800.6563,122.2627 1800.0313,122.2627 Q1798.6875,122.2627 1798,123.3408 Q1797.3125,124.4033 1797.3125,126.497 Q1797.3125,128.5908 1798,129.6689 Q1798.6875,130.7314 1800.0313,130.7314 Q1800.6563,130.7314 1801.25,130.4658 Q1801.8438,130.1845 1802.4688,129.6064 L1802.4688,132.3252 Z " fill="#000000"/><text fill="#D9B8FF" font-family="Helvetica" font-size="17" lengthAdjust="spacing" textLength="313" x="1818.5" y="132.5698">azure_machine_learning_private_link</text></g><!--class azure_machine_learning_registry--><g id="elem_azure_machine_learning_registry"><rect codeLine="44" fill="#3D176E" height="39.7891" id="azure_machine_learning_registry" rx="2.5" ry="2.5" style="stroke:#000D19;stroke-width:0.5;" width="320" x="2039" y="206.58"/><ellipse cx="2054" cy="226.4745" fill="#ADD1B2" rx="11" ry="11" style="stroke:#181818;stroke-width:1.0;"/><path d="M2056.9688,232.1152 Q2056.3906,232.412 2055.75,232.5527 Q2055.1094,232.7089 2054.4063,232.7089 Q2051.9063,232.7089 2050.5781,231.0683 Q2049.2656,229.412 2049.2656,226.287 Q2049.2656,223.162 2050.5781,221.5058 Q2051.9063,219.8495 2054.4063,219.8495 Q2055.1094,219.8495 2055.75,220.0058 Q2056.4063,220.162 2056.9688,220.4589 L2056.9688,223.1777 Q2056.3438,222.5995 2055.75,222.3339 Q2055.1563,222.0527 2054.5313,222.0527 Q2053.1875,222.0527 2052.5,223.1308 Q2051.8125,224.1933 2051.8125,226.287 Q2051.8125,228.3808 2052.5,229.4589 Q2053.1875,230.5214 2054.5313,230.5214 Q2055.1563,230.5214 2055.75,230.2558 Q2056.3438,229.9745 2056.9688,229.3964 L2056.9688,232.1152 Z " fill="#000000"/><text fill="#D9B8FF" font-family="Helvetica" font-size="17" lengthAdjust="spacing" textLength="278" x="2073" y="232.3598">azure_machine_learning_registry</text></g><!--class azure_machine_learning_serverless_endpoint--><g id="elem_azure_machine_learning_serverless_endpoint"><rect codeLine="47" fill="#3D176E" height="39.7891" id="azure_machine_learning_serverless_endpoint" rx="2.5" ry="2.5" style="stroke:#000D19;stroke-width:0.5;" width="422" x="2175" y="106.79"/><ellipse cx="2190" cy="126.6845" fill="#ADD1B2" rx="11" ry="11" style="stroke:#181818;stroke-width:1.0;"/><path d="M2192.9688,132.3252 Q2192.3906,132.622 2191.75,132.7627 Q2191.1094,132.9189 2190.4063,132.9189 Q2187.9063,132.9189 2186.5781,131.2783 Q2185.2656,129.622 2185.2656,126.497 Q2185.2656,123.372 2186.5781,121.7158 Q2187.9063,120.0595 2190.4063,120.0595 Q2191.1094,120.0595 2191.75,120.2158 Q2192.4063,120.372 2192.9688,120.6689 L2192.9688,123.3877 Q2192.3438,122.8095 2191.75,122.5439 Q2191.1563,122.2627 2190.5313,122.2627 Q2189.1875,122.2627 2188.5,123.3408 Q2187.8125,124.4033 2187.8125,126.497 Q2187.8125,128.5908 2188.5,129.6689 Q2189.1875,130.7314 2190.5313,130.7314 Q2191.1563,130.7314 2191.75,130.4658 Q2192.3438,130.1845 2192.9688,129.6064 L2192.9688,132.3252 Z " fill="#000000"/><text fill="#D9B8FF" font-family="Helvetica" font-size="17" lengthAdjust="spacing" textLength="380" x="2209" y="132.5698">azure_machine_learning_serverless_endpoint</text></g><!--class azure_machine_learning_workspace--><g id="elem_azure_machine_learning_workspace"><rect codeLine="50" fill="#3D176E" height="39.7891" id="azure_machine_learning_workspace" rx="2.5" ry="2.5" style="stroke:#000D19;stroke-width:0.5;" width="344" x="1328" y="7"/><ellipse cx="1343" cy="26.8945" fill="#ADD1B2" rx="11" ry="11" style="stroke:#181818;stroke-width:1.0;"/><path d="M1345.9688,32.5352 Q1345.3906,32.832 1344.75,32.9727 Q1344.1094,33.1289 1343.4063,33.1289 Q1340.9063,33.1289 1339.5781,31.4883 Q1338.2656,29.832 1338.2656,26.707 Q1338.2656,23.582 1339.5781,21.9258 Q1340.9063,20.2695 1343.4063,20.2695 Q1344.1094,20.2695 1344.75,20.4258 Q1345.4063,20.582 1345.9688,20.8789 L1345.9688,23.5977 Q1345.3438,23.0195 1344.75,22.7539 Q1344.1563,22.4727 1343.5313,22.4727 Q1342.1875,22.4727 1341.5,23.5508 Q1340.8125,24.6133 1340.8125,26.707 Q1340.8125,28.8008 1341.5,29.8789 Q1342.1875,30.9414 1343.5313,30.9414 Q1344.1563,30.9414 1344.75,30.6758 Q1345.3438,30.3945 1345.9688,29.8164 L1345.9688,32.5352 Z " fill="#000000"/><text fill="#D9B8FF" font-family="Helvetica" font-size="17" lengthAdjust="spacing" textLength="302" x="1362" y="32.7798">azure_machine_learning_workspace</text></g><!--class azure_mysql_server--><g id="elem_azure_mysql_server"><rect codeLine="53" fill="#3D176E" height="39.7891" id="azure_mysql_server" rx="2.5" ry="2.5" style="stroke:#000D19;stroke-width:0.5;" width="208" x="2703" y="106.79"/><ellipse cx="2718" cy="126.6845" fill="#ADD1B2" rx="11" ry="11" style="stroke:#181818;stroke-width:1.0;"/><path d="M2720.9688,132.3252 Q2720.3906,132.622 2719.75,132.7627 Q2719.1094,132.9189 2718.4063,132.9189 Q2715.9063,132.9189 2714.5781,131.2783 Q2713.2656,129.622 2713.2656,126.497 Q2713.2656,123.372 2714.5781,121.7158 Q2715.9063,120.0595 2718.4063,120.0595 Q2719.1094,120.0595 2719.75,120.2158 Q2720.4063,120.372 2720.9688,120.6689 L2720.9688,123.3877 Q2720.3438,122.8095 2719.75,122.5439 Q2719.1563,122.2627 2718.5313,122.2627 Q2717.1875,122.2627 2716.5,123.3408 Q2715.8125,124.4033 2715.8125,126.497 Q2715.8125,128.5908 2716.5,129.6689 Q2717.1875,130.7314 2718.5313,130.7314 Q2719.1563,130.7314 2719.75,130.4658 Q2720.3438,130.1845 2720.9688,129.6064 L2720.9688,132.3252 Z " fill="#000000"/><text fill="#D9B8FF" font-family="Helvetica" font-size="17" lengthAdjust="spacing" textLength="166" x="2737" y="132.5698">azure_mysql_server</text></g><!--class azure_mysql_server_ad_administrator--><g id="elem_azure_mysql_server_ad_administrator"><rect codeLine="56" fill="#3D176E" height="39.7891" id="azure_mysql_server_ad_administrator" rx="2.5" ry="2.5" style="stroke:#000D19;stroke-width:0.5;" width="360" x="2394" y="206.58"/><ellipse cx="2409" cy="226.4745" fill="#ADD1B2" rx="11" ry="11" style="stroke:#181818;stroke-width:1.0;"/><path d="M2411.9688,232.1152 Q2411.3906,232.412 2410.75,232.5527 Q2410.1094,232.7089 2409.4063,232.7089 Q2406.9063,232.7089 2405.5781,231.0683 Q2404.2656,229.412 2404.2656,226.287 Q2404.2656,223.162 2405.5781,221.5058 Q2406.9063,219.8495 2409.4063,219.8495 Q2410.1094,219.8495 2410.75,220.0058 Q2411.4063,220.162 2411.9688,220.4589 L2411.9688,223.1777 Q2411.3438,222.5995 2410.75,222.3339 Q2410.1563,222.0527 2409.5313,222.0527 Q2408.1875,222.0527 2407.5,223.1308 Q2406.8125,224.1933 2406.8125,226.287 Q2406.8125,228.3808 2407.5,229.4589 Q2408.1875,230.5214 2409.5313,230.5214 Q2410.1563,230.5214 2410.75,230.2558 Q2411.3438,229.9745 2411.9688,229.3964 L2411.9688,232.1152 Z " fill="#000000"/><text fill="#D9B8FF" font-family="Helvetica" font-size="17" lengthAdjust="spacing" textLength="318" x="2428" y="232.3598">azure_mysql_server_ad_administrator</text></g><!--class azure_postgresql_server--><g id="elem_azure_postgresql_server"><rect codeLine="59" fill="#3D176E" height="39.7891" id="azure_postgresql_server" rx="2.5" ry="2.5" style="stroke:#000D19;stroke-width:0.5;" width="243" x="2860.5" y="206.58"/><ellipse cx="2875.5" cy="226.4745" fill="#ADD1B2" rx="11" ry="11" style="stroke:#181818;stroke-width:1.0;"/><path d="M2878.4688,232.1152 Q2877.8906,232.412 2877.25,232.5527 Q2876.6094,232.7089 2875.9063,232.7089 Q2873.4063,232.7089 2872.0781,231.0683 Q2870.7656,229.412 2870.7656,226.287 Q2870.7656,223.162 2872.0781,221.5058 Q2873.4063,219.8495 2875.9063,219.8495 Q2876.6094,219.8495 2877.25,220.0058 Q2877.9063,220.162 2878.4688,220.4589 L2878.4688,223.1777 Q2877.8438,222.5995 2877.25,222.3339 Q2876.6563,222.0527 2876.0313,222.0527 Q2874.6875,222.0527 2874,223.1308 Q2873.3125,224.1933 2873.3125,226.287 Q2873.3125,228.3808 2874,229.4589 Q2874.6875,230.5214 2876.0313,230.5214 Q2876.6563,230.5214 2877.25,230.2558 Q2877.8438,229.9745 2878.4688,229.3964 L2878.4688,232.1152 Z " fill="#000000"/><text fill="#D9B8FF" font-family="Helvetica" font-size="17" lengthAdjust="spacing" textLength="201" x="2894.5" y="232.3598">azure_postgresql_server</text></g><!--class azure_sql_server--><g id="elem_azure_sql_server"><rect codeLine="62" fill="#3D176E" height="39.7891" id="azure_sql_server" rx="2.5" ry="2.5" style="stroke:#000D19;stroke-width:0.5;" width="181" x="3273.5" y="106.79"/><ellipse cx="3288.5" cy="126.6845" fill="#ADD1B2" rx="11" ry="11" style="stroke:#181818;stroke-width:1.0;"/><path d="M3291.4688,132.3252 Q3290.8906,132.622 3290.25,132.7627 Q3289.6094,132.9189 3288.9063,132.9189 Q3286.4063,132.9189 3285.0781,131.2783 Q3283.7656,129.622 3283.7656,126.497 Q3283.7656,123.372 3285.0781,121.7158 Q3286.4063,120.0595 3288.9063,120.0595 Q3289.6094,120.0595 3290.25,120.2158 Q3290.9063,120.372 3291.4688,120.6689 L3291.4688,123.3877 Q3290.8438,122.8095 3290.25,122.5439 Q3289.6563,122.2627 3289.0313,122.2627 Q3287.6875,122.2627 3287,123.3408 Q3286.3125,124.4033 3286.3125,126.497 Q3286.3125,128.5908 3287,129.6689 Q3287.6875,130.7314 3289.0313,130.7314 Q3289.6563,130.7314 3290.25,130.4658 Q3290.8438,130.1845 3291.4688,129.6064 L3291.4688,132.3252 Z " fill="#000000"/><text fill="#D9B8FF" font-family="Helvetica" font-size="17" lengthAdjust="spacing" textLength="139" x="3307.5" y="132.5698">azure_sql_server</text></g><!--class azure_sql_server_database--><g id="elem_azure_sql_server_database"><rect codeLine="65" fill="#3D176E" height="39.7891" id="azure_sql_server_database" rx="2.5" ry="2.5" style="stroke:#000D19;stroke-width:0.5;" width="265" x="3138.5" y="206.58"/><ellipse cx="3153.5" cy="226.4745" fill="#ADD1B2" rx="11" ry="11" style="stroke:#181818;stroke-width:1.0;"/><path d="M3156.4688,232.1152 Q3155.8906,232.412 3155.25,232.5527 Q3154.6094,232.7089 3153.9063,232.7089 Q3151.4063,232.7089 3150.0781,231.0683 Q3148.7656,229.412 3148.7656,226.287 Q3148.7656,223.162 3150.0781,221.5058 Q3151.4063,219.8495 3153.9063,219.8495 Q3154.6094,219.8495 3155.25,220.0058 Q3155.9063,220.162 3156.4688,220.4589 L3156.4688,223.1777 Q3155.8438,222.5995 3155.25,222.3339 Q3154.6563,222.0527 3154.0313,222.0527 Q3152.6875,222.0527 3152,223.1308 Q3151.3125,224.1933 3151.3125,226.287 Q3151.3125,228.3808 3152,229.4589 Q3152.6875,230.5214 3154.0313,230.5214 Q3154.6563,230.5214 3155.25,230.2558 Q3155.8438,229.9745 3156.4688,229.3964 L3156.4688,232.1152 Z " fill="#000000"/><text fill="#D9B8FF" font-family="Helvetica" font-size="17" lengthAdjust="spacing" textLength="223" x="3172.5" y="232.3598">azure_sql_server_database</text></g><!--class azure_sql_server_managed_instance--><g id="elem_azure_sql_server_managed_instance"><rect codeLine="68" fill="#3D176E" height="39.7891" id="azure_sql_server_managed_instance" rx="2.5" ry="2.5" style="stroke:#000D19;stroke-width:0.5;" width="347" x="3509.5" y="206.58"/><ellipse cx="3524.5" cy="226.4745" fill="#ADD1B2" rx="11" ry="11" style="stroke:#181818;stroke-width:1.0;"/><path d="M3527.4688,232.1152 Q3526.8906,232.412 3526.25,232.5527 Q3525.6094,232.7089 3524.9063,232.7089 Q3522.4063,232.7089 3521.0781,231.0683 Q3519.7656,229.412 3519.7656,226.287 Q3519.7656,223.162 3521.0781,221.5058 Q3522.4063,219.8495 3524.9063,219.8495 Q3525.6094,219.8495 3526.25,220.0058 Q3526.9063,220.162 3527.4688,220.4589 L3527.4688,223.1777 Q3526.8438,222.5995 3526.25,222.3339 Q3525.6563,222.0527 3525.0313,222.0527 Q3523.6875,222.0527 3523,223.1308 Q3522.3125,224.1933 3522.3125,226.287 Q3522.3125,228.3808 3523,229.4589 Q3523.6875,230.5214 3525.0313,230.5214 Q3525.6563,230.5214 3526.25,230.2558 Q3526.8438,229.9745 3527.4688,229.3964 L3527.4688,232.1152 Z " fill="#000000"/><text fill="#D9B8FF" font-family="Helvetica" font-size="17" lengthAdjust="spacing" textLength="305" x="3543.5" y="232.3598">azure_sql_server_managed_instance</text></g><!--class microsoft_graph_group--><g id="elem_microsoft_graph_group"><rect codeLine="71" fill="#3D176E" height="39.7891" id="microsoft_graph_group" rx="2.5" ry="2.5" style="stroke:#000D19;stroke-width:0.5;" width="234" x="120" y="206.58"/><ellipse cx="135" cy="226.4745" fill="#ADD1B2" rx="11" ry="11" style="stroke:#181818;stroke-width:1.0;"/><path d="M137.9688,232.1152 Q137.3906,232.412 136.75,232.5527 Q136.1094,232.7089 135.4063,232.7089 Q132.9063,232.7089 131.5781,231.0683 Q130.2656,229.412 130.2656,226.287 Q130.2656,223.162 131.5781,221.5058 Q132.9063,219.8495 135.4063,219.8495 Q136.1094,219.8495 136.75,220.0058 Q137.4063,220.162 137.9688,220.4589 L137.9688,223.1777 Q137.3438,222.5995 136.75,222.3339 Q136.1563,222.0527 135.5313,222.0527 Q134.1875,222.0527 133.5,223.1308 Q132.8125,224.1933 132.8125,226.287 Q132.8125,228.3808 133.5,229.4589 Q134.1875,230.5214 135.5313,230.5214 Q136.1563,230.5214 136.75,230.2558 Q137.3438,229.9745 137.9688,229.3964 L137.9688,232.1152 Z " fill="#000000"/><text fill="#D9B8FF" font-family="Helvetica" font-size="17" lengthAdjust="spacing" textLength="192" x="154" y="232.3598">microsoft_graph_group</text></g><!--class microsoft_graph_role--><g id="elem_microsoft_graph_role"><rect codeLine="74" fill="#3D176E" height="39.7891" id="microsoft_graph_role" rx="2.5" ry="2.5" style="stroke:#000D19;stroke-width:0.5;" width="218" x="1806" y="406.16"/><ellipse cx="1821" cy="426.0545" fill="#ADD1B2" rx="11" ry="11" style="stroke:#181818;stroke-width:1.0;"/><path d="M1823.9688,431.6952 Q1823.3906,431.992 1822.75,432.1327 Q1822.1094,432.2889 1821.4063,432.2889 Q1818.9063,432.2889 1817.5781,430.6483 Q1816.2656,428.992 1816.2656,425.867 Q1816.2656,422.742 1817.5781,421.0858 Q1818.9063,419.4295 1821.4063,419.4295 Q1822.1094,419.4295 1822.75,419.5858 Q1823.4063,419.742 1823.9688,420.0389 L1823.9688,422.7577 Q1823.3438,422.1795 1822.75,421.9139 Q1822.1563,421.6327 1821.5313,421.6327 Q1820.1875,421.6327 1819.5,422.7108 Q1818.8125,423.7733 1818.8125,425.867 Q1818.8125,427.9608 1819.5,429.0389 Q1820.1875,430.1014 1821.5313,430.1014 Q1822.1563,430.1014 1822.75,429.8358 Q1823.3438,429.5545 1823.9688,428.9764 L1823.9688,431.6952 Z " fill="#000000"/><text fill="#D9B8FF" font-family="Helvetica" font-size="17" lengthAdjust="spacing" textLength="176" x="1840" y="431.9398">microsoft_graph_role</text></g><!--class microsoft_graph_user--><g id="elem_microsoft_graph_user"><rect codeLine="77" fill="#3D176E" height="39.7891" id="microsoft_graph_user" rx="2.5" ry="2.5" style="stroke:#000D19;stroke-width:0.5;" width="222" x="1804" y="306.37"/><ellipse cx="1819" cy="326.2645" fill="#ADD1B2" rx="11" ry="11" style="stroke:#181818;stroke-width:1.0;"/><path d="M1821.9688,331.9052 Q1821.3906,332.202 1820.75,332.3427 Q1820.1094,332.4989 1819.4063,332.4989 Q1816.9063,332.4989 1815.5781,330.8583 Q1814.2656,329.202 1814.2656,326.077 Q1814.2656,322.952 1815.5781,321.2958 Q1816.9063,319.6395 1819.4063,319.6395 Q1820.1094,319.6395 1820.75,319.7958 Q1821.4063,319.952 1821.9688,320.2489 L1821.9688,322.9677 Q1821.3438,322.3895 1820.75,322.1239 Q1820.1563,321.8427 1819.5313,321.8427 Q1818.1875,321.8427 1817.5,322.9208 Q1816.8125,323.9833 1816.8125,326.077 Q1816.8125,328.1708 1817.5,329.2489 Q1818.1875,330.3114 1819.5313,330.3114 Q1820.1563,330.3114 1820.75,330.0458 Q1821.3438,329.7645 1821.9688,329.1864 L1821.9688,331.9052 Z " fill="#000000"/><text fill="#D9B8FF" font-family="Helvetica" font-size="17" lengthAdjust="spacing" textLength="180" x="1838" y="332.1498">microsoft_graph_user</text></g><!--link azure_authorization_role_assignment to microsoft_graph_group--><g id="link_azure_authorization_role_assignment_microsoft_graph_group"><path codeLine="80" d="M195.27,147.01 C204.39,164.15 214.8227,183.7725 223.9327,200.9025 " fill="none" id="azure_authorization_role_assignment-to-microsoft_graph_group" style="stroke:#1A83AF;stroke-width:2.0;"/><polygon fill="#1A83AF" points="226.75,206.2,226.0557,196.3756,224.4023,201.7855,218.9925,200.132,226.75,206.2" style="stroke:#1A83AF;stroke-width:2.0;"/></g><!--link azure_authorization_role_assignment to microsoft_graph_user--><g id="link_azure_authorization_role_assignment_microsoft_graph_user"><path codeLine="81" d="M231.6,147.06 C306.18,177.73 449.43,235.15 503,246.37 C750.74,298.27 1509.3811,317.6332 1797.5611,323.2432 " fill="none" id="azure_authorization_role_assignment-to-microsoft_graph_user" style="stroke:#1A83AF;stroke-width:2.0;"/><polygon fill="#1A83AF" points="1803.56,323.36,1794.6396,319.1856,1798.5609,323.2627,1794.4839,327.1841,1803.56,323.36" style="stroke:#1A83AF;stroke-width:2.0;"/></g><!--link azure_cosmos_db_account to microsoft_graph_user--><g id="link_azure_cosmos_db_account_microsoft_graph_user"><path codeLine="82" d="M782,243.63 C791.13,244.61 800.2,245.53 809,246.37 C1172.38,281.04 1598.2699,307.296 1797.7999,318.756 " fill="none" id="azure_cosmos_db_account-to-microsoft_graph_user" style="stroke:#1A83AF;stroke-width:2.0;"/><polygon fill="#1A83AF" points="1803.79,319.1,1795.0342,314.5905,1798.7982,318.8133,1794.5754,322.5774,1803.79,319.1" style="stroke:#1A83AF;stroke-width:2.0;"/></g><!--link azure_machine_learning_batch_endpoint to microsoft_graph_user--><g id="link_azure_machine_learning_batch_endpoint_microsoft_graph_user"><path codeLine="83" d="M647.68,146.94 C690.17,161.73 749.01,183.48 799,206.58 C832.19,221.92 835.97,235.91 871,246.37 C1043.1,297.76 1565.652,316.6642 1797.752,322.6942 " fill="none" id="azure_machine_learning_batch_endpoint-to-microsoft_graph_user" style="stroke:#1A83AF;stroke-width:2.0;"/><polygon fill="#1A83AF" points="1803.75,322.85,1794.8569,318.6176,1798.7517,322.7201,1794.6492,326.6149,1803.75,322.85" style="stroke:#1A83AF;stroke-width:2.0;"/></g><!--link azure_machine_learning_compute to azure_machine_learning_online_endpoint--><g id="link_azure_machine_learning_compute_azure_machine_learning_online_endpoint"><path codeLine="84" d="M1058.32,147.01 C1063.93,164.15 1070.2126,183.368 1075.8226,200.498 " fill="none" id="azure_machine_learning_compute-to-azure_machine_learning_online_endpoint" style="stroke:#1A83AF;stroke-width:2.0;"/><polygon fill="#1A83AF" points="1077.69,206.2,1078.6903,196.4021,1076.1338,201.4483,1071.0876,198.8919,1077.69,206.2" style="stroke:#1A83AF;stroke-width:2.0;"/></g><!--link azure_machine_learning_compute to microsoft_graph_user--><g id="link_azure_machine_learning_compute_microsoft_graph_user"><path codeLine="85" d="M1136.32,146.99 C1301.3,184.76 1659.2313,266.7112 1824.4913,304.5412 " fill="none" id="azure_machine_learning_compute-to-microsoft_graph_user" style="stroke:#1A83AF;stroke-width:2.0;"/><polygon fill="#1A83AF" points="1830.34,305.88,1822.4595,299.9726,1825.4661,304.7643,1820.6744,307.7709,1830.34,305.88" style="stroke:#1A83AF;stroke-width:2.0;"/></g><!--link azure_machine_learning_online_endpoint to microsoft_graph_user--><g id="link_azure_machine_learning_online_endpoint_microsoft_graph_user"><path codeLine="86" d="M1248.68,246.86 C1413.1,266.2 1655.3111,294.7087 1797.8111,311.4787 " fill="none" id="azure_machine_learning_online_endpoint-to-microsoft_graph_user" style="stroke:#1A83AF;stroke-width:2.0;"/><polygon fill="#1A83AF" points="1803.77,312.18,1795.2992,307.1555,1798.8043,311.5956,1794.3642,315.1007,1803.77,312.18" style="stroke:#1A83AF;stroke-width:2.0;"/></g><!--link azure_machine_learning_private_endpoint_connection to microsoft_graph_user--><g id="link_azure_machine_learning_private_endpoint_connection_microsoft_graph_user"><path codeLine="87" d="M1540.55,146.99 C1619.89,184.76 1789.4025,265.4711 1868.8725,303.3011 " fill="none" id="azure_machine_learning_private_endpoint_connection-to-microsoft_graph_user" style="stroke:#1A83AF;stroke-width:2.0;"/><polygon fill="#1A83AF" points="1874.29,305.88,1867.883,298.4,1869.7754,303.7309,1864.4445,305.6233,1874.29,305.88" style="stroke:#1A83AF;stroke-width:2.0;"/></g><!--link azure_machine_learning_private_link to microsoft_graph_user--><g id="link_azure_machine_learning_private_link_microsoft_graph_user"><path codeLine="88" d="M1936.12,146.93 C1919.17,161.25 1898.46,182.43 1889,206.58 C1875.77,240.36 1889.3363,276.9787 1901.4563,300.8787 " fill="none" id="azure_machine_learning_private_link-to-microsoft_graph_user" style="stroke:#1A83AF;stroke-width:2.0;"/><polygon fill="#1A83AF" points="1904.17,306.23,1903.667,296.394,1901.9086,301.7706,1896.532,300.0122,1904.17,306.23" style="stroke:#1A83AF;stroke-width:2.0;"/></g><!--link azure_machine_learning_registry to microsoft_graph_user--><g id="link_azure_machine_learning_registry_microsoft_graph_user"><path codeLine="89" d="M2142.89,246.8 C2093.1,263.94 2026.4229,286.896 1976.6629,304.036 " fill="none" id="azure_machine_learning_registry-to-microsoft_graph_user" style="stroke:#1A83AF;stroke-width:2.0;"/><polygon fill="#1A83AF" points="1970.99,305.99,1980.802,306.8409,1975.7174,304.3616,1978.1966,299.277,1970.99,305.99" style="stroke:#1A83AF;stroke-width:2.0;"/></g><!--link azure_machine_learning_serverless_endpoint to microsoft_graph_user--><g id="link_azure_machine_learning_serverless_endpoint_microsoft_graph_user"><path codeLine="90" d="M2176.92,147.07 C2086.64,159.27 1993.95,178.23 1960,206.58 C1929.89,231.72 1920.6373,273.3255 1917.3373,299.9755 " fill="none" id="azure_machine_learning_serverless_endpoint-to-microsoft_graph_user" style="stroke:#1A83AF;stroke-width:2.0;"/><polygon fill="#1A83AF" points="1916.6,305.93,1921.6757,297.4898,1917.2144,300.9679,1913.7363,296.5067,1916.6,305.93" style="stroke:#1A83AF;stroke-width:2.0;"/></g><!--link azure_machine_learning_workspace to azure_machine_learning_batch_endpoint--><g id="link_azure_machine_learning_workspace_azure_machine_learning_batch_endpoint"><path codeLine="91" d="M1327.77,46.41 C1168.29,63.54 937.9956,88.2886 776.0556,105.6986 " fill="none" id="azure_machine_learning_workspace-to-azure_machine_learning_batch_endpoint" style="stroke:#1A83AF;stroke-width:2.0;"/><polygon fill="#1A83AF" points="770.09,106.34,779.466,109.355,775.0614,105.8055,778.6109,101.4009,770.09,106.34" style="stroke:#1A83AF;stroke-width:2.0;"/></g><!--link azure_machine_learning_workspace to azure_machine_learning_compute--><g id="link_azure_machine_learning_workspace_azure_machine_learning_compute"><path codeLine="92" d="M1411.22,47.28 C1332.78,64.4 1224.852,87.9605 1146.462,105.0705 " fill="none" id="azure_machine_learning_workspace-to-azure_machine_learning_compute" style="stroke:#1A83AF;stroke-width:2.0;"/><polygon fill="#1A83AF" points="1140.6,106.35,1150.246,108.3388,1145.485,105.2838,1148.54,100.5228,1140.6,106.35" style="stroke:#1A83AF;stroke-width:2.0;"/></g><!--link azure_machine_learning_workspace to azure_machine_learning_online_endpoint--><g id="link_azure_machine_learning_workspace_azure_machine_learning_online_endpoint"><path codeLine="93" d="M1327.58,37.91 C1151.57,49.92 900,72.81 870,106.79 C827.62,154.81 903.5413,185.9663 977.9213,204.6763 " fill="none" id="azure_machine_learning_workspace-to-azure_machine_learning_online_endpoint" style="stroke:#1A83AF;stroke-width:2.0;"/><polygon fill="#1A83AF" points="983.74,206.14,975.9877,200.0653,978.8911,204.9203,974.0361,207.8236,983.74,206.14" style="stroke:#1A83AF;stroke-width:2.0;"/></g><!--link azure_machine_learning_workspace to azure_machine_learning_private_endpoint_connection--><g id="link_azure_machine_learning_workspace_azure_machine_learning_private_endpoint_connection"><path codeLine="94" d="M1500,47.22 C1500,64.36 1500,83.28 1500,100.41 " fill="none" id="azure_machine_learning_workspace-to-azure_machine_learning_private_endpoint_connection" style="stroke:#1A83AF;stroke-width:2.0;"/><polygon fill="#1A83AF" points="1500,106.41,1504,97.41,1500,101.41,1496,97.41,1500,106.41" style="stroke:#1A83AF;stroke-width:2.0;"/></g><!--link azure_machine_learning_workspace to azure_machine_learning_private_link--><g id="link_azure_machine_learning_workspace_azure_machine_learning_private_link"><path codeLine="95" d="M1591.55,47.28 C1672.44,64.4 1783.92,87.9976 1864.76,105.1076 " fill="none" id="azure_machine_learning_workspace-to-azure_machine_learning_private_link" style="stroke:#1A83AF;stroke-width:2.0;"/><polygon fill="#1A83AF" points="1870.63,106.35,1862.6533,100.5731,1865.7384,105.3147,1860.9968,108.3997,1870.63,106.35" style="stroke:#1A83AF;stroke-width:2.0;"/></g><!--link azure_machine_learning_workspace to azure_machine_learning_serverless_endpoint--><g id="link_azure_machine_learning_workspace_azure_machine_learning_serverless_endpoint"><path codeLine="96" d="M1672.41,46.93 C1827.58,64.06 2048.5962,88.452 2204.6762,105.672 " fill="none" id="azure_machine_learning_workspace-to-azure_machine_learning_serverless_endpoint" style="stroke:#1A83AF;stroke-width:2.0;"/><polygon fill="#1A83AF" points="2210.64,106.33,2202.1329,101.3672,2205.6702,105.7817,2201.2556,109.3189,2210.64,106.33" style="stroke:#1A83AF;stroke-width:2.0;"/></g><!--link azure_machine_learning_workspace to microsoft_graph_user--><g id="link_azure_machine_learning_workspace_microsoft_graph_user"><path codeLine="97" d="M1672.31,27.49 C1969.14,28.61 2551.28,39.48 2614,106.79 C2626.05,119.73 2625.86,133.46 2614,146.58 C2525.34,244.68 2139.95,146.81 2022,206.58 C1977.46,229.16 1945.7773,273.5394 1929.0373,300.9494 " fill="none" id="azure_machine_learning_workspace-to-microsoft_graph_user" style="stroke:#1A83AF;stroke-width:2.0;"/><polygon fill="#1A83AF" points="1925.91,306.07,1934.0146,300.474,1928.5161,301.8029,1927.1872,296.3043,1925.91,306.07" style="stroke:#1A83AF;stroke-width:2.0;"/></g><!--link azure_mysql_server to azure_mysql_server_ad_administrator--><g id="link_azure_mysql_server_azure_mysql_server_ad_administrator"><path codeLine="98" d="M2760.97,147.01 C2720.12,164.15 2666.2926,186.7483 2625.4726,203.8783 " fill="none" id="azure_mysql_server-to-azure_mysql_server_ad_administrator" style="stroke:#1A83AF;stroke-width:2.0;"/><polygon fill="#1A83AF" points="2619.94,206.2,2629.7867,206.4058,2624.5505,204.2652,2626.6911,199.029,2619.94,206.2" style="stroke:#1A83AF;stroke-width:2.0;"/></g><!--link azure_mysql_server to microsoft_graph_user--><g id="link_azure_mysql_server_microsoft_graph_user"><path codeLine="99" d="M2807.3,146.83 C2806.57,173.69 2800.87,222.01 2771,246.37 C2714.47,292.47 2251.0663,313.9594 2032.3563,321.6394 " fill="none" id="azure_mysql_server-to-microsoft_graph_user" style="stroke:#1A83AF;stroke-width:2.0;"/><polygon fill="#1A83AF" points="2026.36,321.85,2035.4948,325.5317,2031.3569,321.6745,2035.2141,317.5366,2026.36,321.85" style="stroke:#1A83AF;stroke-width:2.0;"/></g><!--link azure_mysql_server_ad_administrator to microsoft_graph_user--><g id="link_azure_mysql_server_ad_administrator_microsoft_graph_user"><path codeLine="100" d="M2443.41,246.86 C2321.55,264.94 2147.625,290.7494 2032.375,307.8494 " fill="none" id="azure_mysql_server_ad_administrator-to-microsoft_graph_user" style="stroke:#1A83AF;stroke-width:2.0;"/><polygon fill="#1A83AF" points="2026.44,308.73,2035.9296,311.3658,2031.3859,307.9962,2034.7555,303.4524,2026.44,308.73" style="stroke:#1A83AF;stroke-width:2.0;"/></g><!--link azure_postgresql_server to microsoft_graph_user--><g id="link_azure_postgresql_server_microsoft_graph_user"><path codeLine="101" d="M2860.08,243.35 C2850.92,244.41 2841.82,245.43 2833,246.37 C2542.51,277.26 2205.2833,303.7828 2032.4033,316.7028 " fill="none" id="azure_postgresql_server-to-microsoft_graph_user" style="stroke:#1A83AF;stroke-width:2.0;"/><polygon fill="#1A83AF" points="2026.42,317.15,2035.6931,320.4681,2031.4061,316.7774,2035.0969,312.4904,2026.42,317.15" style="stroke:#1A83AF;stroke-width:2.0;"/></g><!--link azure_sql_server to azure_sql_server_database--><g id="link_azure_sql_server_azure_sql_server_database"><path codeLine="102" d="M3345.63,147.01 C3329.32,164.15 3309.7647,184.7221 3293.4747,201.8521 " fill="none" id="azure_sql_server-to-azure_sql_server_database" style="stroke:#1A83AF;stroke-width:2.0;"/><polygon fill="#1A83AF" points="3289.34,206.2,3298.4406,202.4346,3292.7856,202.5767,3292.6434,196.9217,3289.34,206.2" style="stroke:#1A83AF;stroke-width:2.0;"/></g><!--link azure_sql_server to microsoft_graph_user--><g id="link_azure_sql_server_microsoft_graph_user"><path codeLine="103" d="M3385.33,146.67 C3411.37,172.04 3448.69,217.19 3421,246.37 C3373.11,296.83 2372.4592,317.7897 2032.2292,323.4797 " fill="none" id="azure_sql_server-to-microsoft_graph_user" style="stroke:#1A83AF;stroke-width:2.0;"/><polygon fill="#1A83AF" points="2026.23,323.58,2035.2956,327.4289,2031.2293,323.4964,2035.1619,319.4301,2026.23,323.58" style="stroke:#1A83AF;stroke-width:2.0;"/></g><!--link azure_sql_server_database to microsoft_graph_user--><g id="link_azure_sql_server_database_microsoft_graph_user"><path codeLine="104" d="M3138.14,244.64 C3132.35,245.25 3126.62,245.83 3121,246.37 C2718.66,284.84 2244.9932,309.7942 2032.1532,319.9442 " fill="none" id="azure_sql_server_database-to-microsoft_graph_user" style="stroke:#1A83AF;stroke-width:2.0;"/><polygon fill="#1A83AF" points="2026.16,320.23,2035.3403,323.7968,2031.1543,319.9918,2034.9592,315.8058,2026.16,320.23" style="stroke:#1A83AF;stroke-width:2.0;"/></g><!--link azure_sql_server_managed_instance to microsoft_graph_user--><g id="link_azure_sql_server_managed_instance_microsoft_graph_user"><path codeLine="105" d="M3509.05,244.37 C3500.25,245.08 3491.52,245.76 3483,246.37 C2937.25,285.86 2289.206,311.7101 2032.316,321.1301 " fill="none" id="azure_sql_server_managed_instance-to-microsoft_graph_user" style="stroke:#1A83AF;stroke-width:2.0;"/><polygon fill="#1A83AF" points="2026.32,321.35,2035.4605,325.0175,2031.3166,321.1668,2035.1674,317.0229,2026.32,321.35" style="stroke:#1A83AF;stroke-width:2.0;"/></g><!--link microsoft_graph_group to microsoft_graph_user--><g id="link_microsoft_graph_group_microsoft_graph_user"><path codeLine="106" d="M354.22,240.39 C376.38,242.59 399.39,244.69 421,246.37 C937.29,286.49 1549.5742,311.7452 1797.8342,321.0552 " fill="none" id="microsoft_graph_group-to-microsoft_graph_user" style="stroke:#1A83AF;stroke-width:2.0;"/><polygon fill="#1A83AF" points="1803.83,321.28,1794.9862,316.9455,1798.8335,321.0926,1794.6864,324.9399,1803.83,321.28" style="stroke:#1A83AF;stroke-width:2.0;"/></g><!--link microsoft_graph_role to microsoft_graph_role--><g id="link_microsoft_graph_role_microsoft_graph_role"><path codeLine="107" d="M2024.26,408.31 C2044.64,410.49 2059,416.41 2059,426.06 C2059,435.7 2050.6057,440.9789 2030.2257,443.1689 " fill="none" id="microsoft_graph_role-to-microsoft_graph_role" style="stroke:#1A83AF;stroke-width:2.0;"/><polygon fill="#1A83AF" points="2024.26,443.81,2033.6359,446.8255,2029.2314,443.2758,2032.7811,438.8713,2024.26,443.81" style="stroke:#1A83AF;stroke-width:2.0;"/></g><!--link microsoft_graph_user to microsoft_graph_role--><g id="link_microsoft_graph_user_microsoft_graph_role"><path codeLine="108" d="M1915,346.59 C1915,363.73 1915,382.64 1915,399.78 " fill="none" id="microsoft_graph_user-to-microsoft_graph_role" style="stroke:#1A83AF;stroke-width:2.0;"/><polygon fill="#1A83AF" points="1915,405.78,1919,396.78,1915,400.78,1911,396.78,1915,405.78" style="stroke:#1A83AF;stroke-width:2.0;"/></g><!--SRC=[hLN1Zjem4BtdAo9nNWcAMk1IYIAjsikgwlPMLT5WJnABs4x71WHL_xq92xiX2OwJHU92visRDzQRcLHm357czX1Ab6ia4vYDK3aGo719fFShdMaAHt4CyNHM3pvgPJi1Jo0n_8hP3grWK4VyJ0NRA3Gc_509VG6sIKXl5N-XjmJA525Kje9QPM3CqbeIwwt5YXY-MC_Zk8wiauwcV3BxX0sO9evqXep7OpvPr26TfPnzloAUnH73IVNHdhJ5Xin6YHFAgR94L4Gs6ht4Rshy3fmBbOGVAzz-l6WYXNJr_Ja5hlSbEeRCLCiOYuJQ7d9SDRh2nPp7irRmjrlWW9LF5y9nInZ1rgQQn16iq2eYdHMVZ169aeLBmhz1yEyAphIHsaHy7G5Z1NKBH09BXS8eGo1Lz1EjmR8qGiLpBRmIc9PvOKKFf5PP-Ry7TqvY1_OjfIYc5BAo-nxPHTMD1vmm4SRImGDga7P8MJ72VRhPQzeK4ytQtkfW_cHdMdSq0bxyf52bLh2w1PvhOnD25wDVBE9WOGq6dI092XBaaL36WhhkJWf6skZOHWb1daQbmtCNeFIqAxur5ya-4_7mQpHPpgVBnzyFdzkrl9-cL1JScZVVpAun7CnpcSuh0h_vx4NPHrDz3mmcSgs7TvEUjiPWbjTbCfYXRSSC9djRFJv6k3RVVJZFhhaFcQTJ-v4wt7JV0gMpxiFOuf6Un2uJLMzIcnhNLUhay2pSF7U-BCqhw9lfRhlbF7RaUPLwkxK3SXidk9kZ_JBtppiTR6TQYGXQxtXtsdy0]--></g></svg>