<?xml version="1.0" encoding="us-ascii" standalone="no"?><svg xmlns="http://www.w3.org/2000/svg" xmlns:xlink="http://www.w3.org/1999/xlink" contentStyleType="text/css" height="551px" preserveAspectRatio="none" style="width:2128px;height:551px;" version="1.1" viewBox="0 0 2128 551" width="2128px" zoomAndPan="magnify"><defs/><g><!--class aws_backup_job--><g id="elem_aws_backup_job"><rect codeLine="23" fill="#3D176E" height="39.7891" id="aws_backup_job" rx="2.5" ry="2.5" style="stroke:#000D19;stroke-width:0.5;" width="177" x="1036" y="106.78"/><ellipse cx="1051" cy="126.6745" fill="#ADD1B2" rx="11" ry="11" style="stroke:#181818;stroke-width:1.0;"/><path d="M1053.9688,132.3152 Q1053.3906,132.612 1052.75,132.7527 Q1052.1094,132.9089 1051.4063,132.9089 Q1048.9063,132.9089 1047.5781,131.2683 Q1046.2656,129.612 1046.2656,126.487 Q1046.2656,123.362 1047.5781,121.7058 Q1048.9063,120.0495 1051.4063,120.0495 Q1052.1094,120.0495 1052.75,120.2058 Q1053.4063,120.362 1053.9688,120.6589 L1053.9688,123.3777 Q1053.3438,122.7995 1052.75,122.5339 Q1052.1563,122.2527 1051.5313,122.2527 Q1050.1875,122.2527 1049.5,123.3308 Q1048.8125,124.3933 1048.8125,126.487 Q1048.8125,128.5808 1049.5,129.6589 Q1050.1875,130.7214 1051.5313,130.7214 Q1052.1563,130.7214 1052.75,130.4558 Q1053.3438,130.1745 1053.9688,129.5964 L1053.9688,132.3152 Z " fill="#000000"/><text fill="#D9B8FF" font-family="Helvetica" font-size="17" lengthAdjust="spacing" textLength="135" x="1070" y="132.5598">aws_backup_job</text></g><!--class aws_backup_protected_resource--><g id="elem_aws_backup_protected_resource"><rect codeLine="26" fill="#3D176E" height="39.7891" id="aws_backup_protected_resource" rx="2.5" ry="2.5" style="stroke:#000D19;stroke-width:0.5;" width="311" x="1050" y="306.36"/><ellipse cx="1065" cy="326.2545" fill="#ADD1B2" rx="11" ry="11" style="stroke:#181818;stroke-width:1.0;"/><path d="M1067.9688,331.8952 Q1067.3906,332.192 1066.75,332.3327 Q1066.1094,332.4889 1065.4063,332.4889 Q1062.9063,332.4889 1061.5781,330.8483 Q1060.2656,329.192 1060.2656,326.067 Q1060.2656,322.942 1061.5781,321.2858 Q1062.9063,319.6295 1065.4063,319.6295 Q1066.1094,319.6295 1066.75,319.7858 Q1067.4063,319.942 1067.9688,320.2389 L1067.9688,322.9577 Q1067.3438,322.3795 1066.75,322.1139 Q1066.1563,321.8327 1065.5313,321.8327 Q1064.1875,321.8327 1063.5,322.9108 Q1062.8125,323.9733 1062.8125,326.067 Q1062.8125,328.1608 1063.5,329.2389 Q1064.1875,330.3014 1065.5313,330.3014 Q1066.1563,330.3014 1066.75,330.0358 Q1067.3438,329.7545 1067.9688,329.1764 L1067.9688,331.8952 Z " fill="#000000"/><text fill="#D9B8FF" font-family="Helvetica" font-size="17" lengthAdjust="spacing" textLength="269" x="1084" y="332.1398">aws_backup_protected_resource</text></g><!--class aws_backup_recovery_point--><g id="elem_aws_backup_recovery_point"><rect codeLine="29" fill="#3D176E" height="39.7891" id="aws_backup_recovery_point" rx="2.5" ry="2.5" style="stroke:#000D19;stroke-width:0.5;" width="276" x="1067.5" y="206.57"/><ellipse cx="1082.5" cy="226.4645" fill="#ADD1B2" rx="11" ry="11" style="stroke:#181818;stroke-width:1.0;"/><path d="M1085.4688,232.1052 Q1084.8906,232.402 1084.25,232.5427 Q1083.6094,232.6989 1082.9063,232.6989 Q1080.4063,232.6989 1079.0781,231.0583 Q1077.7656,229.402 1077.7656,226.277 Q1077.7656,223.152 1079.0781,221.4958 Q1080.4063,219.8395 1082.9063,219.8395 Q1083.6094,219.8395 1084.25,219.9958 Q1084.9063,220.152 1085.4688,220.4489 L1085.4688,223.1677 Q1084.8438,222.5895 1084.25,222.3239 Q1083.6563,222.0427 1083.0313,222.0427 Q1081.6875,222.0427 1081,223.1208 Q1080.3125,224.1833 1080.3125,226.277 Q1080.3125,228.3708 1081,229.4489 Q1081.6875,230.5114 1083.0313,230.5114 Q1083.6563,230.5114 1084.25,230.2458 Q1084.8438,229.9645 1085.4688,229.3864 L1085.4688,232.1052 Z " fill="#000000"/><text fill="#D9B8FF" font-family="Helvetica" font-size="17" lengthAdjust="spacing" textLength="234" x="1101.5" y="232.3498">aws_backup_recovery_point</text></g><!--class aws_backup_vault--><g id="elem_aws_backup_vault"><rect codeLine="32" fill="#3D176E" height="39.7891" id="aws_backup_vault" rx="2.5" ry="2.5" style="stroke:#000D19;stroke-width:0.5;" width="195" x="1168" y="7"/><ellipse cx="1183" cy="26.8945" fill="#ADD1B2" rx="11" ry="11" style="stroke:#181818;stroke-width:1.0;"/><path d="M1185.9688,32.5352 Q1185.3906,32.832 1184.75,32.9727 Q1184.1094,33.1289 1183.4063,33.1289 Q1180.9063,33.1289 1179.5781,31.4883 Q1178.2656,29.832 1178.2656,26.707 Q1178.2656,23.582 1179.5781,21.9258 Q1180.9063,20.2695 1183.4063,20.2695 Q1184.1094,20.2695 1184.75,20.4258 Q1185.4063,20.582 1185.9688,20.8789 L1185.9688,23.5977 Q1185.3438,23.0195 1184.75,22.7539 Q1184.1563,22.4727 1183.5313,22.4727 Q1182.1875,22.4727 1181.5,23.5508 Q1180.8125,24.6133 1180.8125,26.707 Q1180.8125,28.8008 1181.5,29.8789 Q1182.1875,30.9414 1183.5313,30.9414 Q1184.1563,30.9414 1184.75,30.6758 Q1185.3438,30.3945 1185.9688,29.8164 L1185.9688,32.5352 Z " fill="#000000"/><text fill="#D9B8FF" font-family="Helvetica" font-size="17" lengthAdjust="spacing" textLength="153" x="1202" y="32.7798">aws_backup_vault</text></g><!--class aws_cloudformation_stack--><g id="elem_aws_cloudformation_stack"><rect codeLine="35" fill="#3D176E" height="39.7891" id="aws_cloudformation_stack" rx="2.5" ry="2.5" style="stroke:#000D19;stroke-width:0.5;" width="263" x="7" y="406.15"/><ellipse cx="22" cy="426.0445" fill="#ADD1B2" rx="11" ry="11" style="stroke:#181818;stroke-width:1.0;"/><path d="M24.9688,431.6852 Q24.3906,431.982 23.75,432.1227 Q23.1094,432.2789 22.4063,432.2789 Q19.9063,432.2789 18.5781,430.6383 Q17.2656,428.982 17.2656,425.857 Q17.2656,422.732 18.5781,421.0758 Q19.9063,419.4195 22.4063,419.4195 Q23.1094,419.4195 23.75,419.5758 Q24.4063,419.732 24.9688,420.0289 L24.9688,422.7477 Q24.3438,422.1695 23.75,421.9039 Q23.1563,421.6227 22.5313,421.6227 Q21.1875,421.6227 20.5,422.7008 Q19.8125,423.7633 19.8125,425.857 Q19.8125,427.9508 20.5,429.0289 Q21.1875,430.0914 22.5313,430.0914 Q23.1563,430.0914 23.75,429.8258 Q24.3438,429.5445 24.9688,428.9664 L24.9688,431.6852 Z " fill="#000000"/><text fill="#D9B8FF" font-family="Helvetica" font-size="17" lengthAdjust="spacing" textLength="221" x="41" y="431.9298">aws_cloudformation_stack</text></g><!--class aws_dynamodb_global_table--><g id="elem_aws_dynamodb_global_table"><rect codeLine="38" fill="#3D176E" height="39.7891" id="aws_dynamodb_global_table" rx="2.5" ry="2.5" style="stroke:#000D19;stroke-width:0.5;" width="282" x="305.5" y="406.15"/><ellipse cx="320.5" cy="426.0445" fill="#ADD1B2" rx="11" ry="11" style="stroke:#181818;stroke-width:1.0;"/><path d="M323.4688,431.6852 Q322.8906,431.982 322.25,432.1227 Q321.6094,432.2789 320.9063,432.2789 Q318.4063,432.2789 317.0781,430.6383 Q315.7656,428.982 315.7656,425.857 Q315.7656,422.732 317.0781,421.0758 Q318.4063,419.4195 320.9063,419.4195 Q321.6094,419.4195 322.25,419.5758 Q322.9063,419.732 323.4688,420.0289 L323.4688,422.7477 Q322.8438,422.1695 322.25,421.9039 Q321.6563,421.6227 321.0313,421.6227 Q319.6875,421.6227 319,422.7008 Q318.3125,423.7633 318.3125,425.857 Q318.3125,427.9508 319,429.0289 Q319.6875,430.0914 321.0313,430.0914 Q321.6563,430.0914 322.25,429.8258 Q322.8438,429.5445 323.4688,428.9664 L323.4688,431.6852 Z " fill="#000000"/><text fill="#D9B8FF" font-family="Helvetica" font-size="17" lengthAdjust="spacing" textLength="240" x="339.5" y="431.9298">aws_dynamodb_global_table</text></g><!--class aws_dynamodb_table--><g id="elem_aws_dynamodb_table"><rect codeLine="41" fill="#3D176E" height="39.7891" id="aws_dynamodb_table" rx="2.5" ry="2.5" style="stroke:#000D19;stroke-width:0.5;" width="223" x="623" y="406.15"/><ellipse cx="638" cy="426.0445" fill="#ADD1B2" rx="11" ry="11" style="stroke:#181818;stroke-width:1.0;"/><path d="M640.9688,431.6852 Q640.3906,431.982 639.75,432.1227 Q639.1094,432.2789 638.4063,432.2789 Q635.9063,432.2789 634.5781,430.6383 Q633.2656,428.982 633.2656,425.857 Q633.2656,422.732 634.5781,421.0758 Q635.9063,419.4195 638.4063,419.4195 Q639.1094,419.4195 639.75,419.5758 Q640.4063,419.732 640.9688,420.0289 L640.9688,422.7477 Q640.3438,422.1695 639.75,421.9039 Q639.1563,421.6227 638.5313,421.6227 Q637.1875,421.6227 636.5,422.7008 Q635.8125,423.7633 635.8125,425.857 Q635.8125,427.9508 636.5,429.0289 Q637.1875,430.0914 638.5313,430.0914 Q639.1563,430.0914 639.75,429.8258 Q640.3438,429.5445 640.9688,428.9664 L640.9688,431.6852 Z " fill="#000000"/><text fill="#D9B8FF" font-family="Helvetica" font-size="17" lengthAdjust="spacing" textLength="181" x="657" y="431.9298">aws_dynamodb_table</text></g><!--class aws_ec2_instance--><g id="elem_aws_ec2_instance"><rect codeLine="44" fill="#3D176E" height="39.7891" id="aws_ec2_instance" rx="2.5" ry="2.5" style="stroke:#000D19;stroke-width:0.5;" width="192" x="881.5" y="406.15"/><ellipse cx="896.5" cy="426.0445" fill="#ADD1B2" rx="11" ry="11" style="stroke:#181818;stroke-width:1.0;"/><path d="M899.4688,431.6852 Q898.8906,431.982 898.25,432.1227 Q897.6094,432.2789 896.9063,432.2789 Q894.4063,432.2789 893.0781,430.6383 Q891.7656,428.982 891.7656,425.857 Q891.7656,422.732 893.0781,421.0758 Q894.4063,419.4195 896.9063,419.4195 Q897.6094,419.4195 898.25,419.5758 Q898.9063,419.732 899.4688,420.0289 L899.4688,422.7477 Q898.8438,422.1695 898.25,421.9039 Q897.6563,421.6227 897.0313,421.6227 Q895.6875,421.6227 895,422.7008 Q894.3125,423.7633 894.3125,425.857 Q894.3125,427.9508 895,429.0289 Q895.6875,430.0914 897.0313,430.0914 Q897.6563,430.0914 898.25,429.8258 Q898.8438,429.5445 899.4688,428.9664 L899.4688,431.6852 Z " fill="#000000"/><text fill="#D9B8FF" font-family="Helvetica" font-size="17" lengthAdjust="spacing" textLength="150" x="915.5" y="431.9298">aws_ec2_instance</text></g><!--class aws_ec2_volume--><g id="elem_aws_ec2_volume"><rect codeLine="47" fill="#3D176E" height="39.7891" id="aws_ec2_volume" rx="2.5" ry="2.5" style="stroke:#000D19;stroke-width:0.5;" width="185" x="960" y="505.94"/><ellipse cx="975" cy="525.8345" fill="#ADD1B2" rx="11" ry="11" style="stroke:#181818;stroke-width:1.0;"/><path d="M977.9688,531.4752 Q977.3906,531.772 976.75,531.9127 Q976.1094,532.0689 975.4063,532.0689 Q972.9063,532.0689 971.5781,530.4283 Q970.2656,528.772 970.2656,525.647 Q970.2656,522.522 971.5781,520.8658 Q972.9063,519.2095 975.4063,519.2095 Q976.1094,519.2095 976.75,519.3658 Q977.4063,519.522 977.9688,519.8189 L977.9688,522.5377 Q977.3438,521.9595 976.75,521.6939 Q976.1563,521.4127 975.5313,521.4127 Q974.1875,521.4127 973.5,522.4908 Q972.8125,523.5533 972.8125,525.647 Q972.8125,527.7408 973.5,528.8189 Q974.1875,529.8814 975.5313,529.8814 Q976.1563,529.8814 976.75,529.6158 Q977.3438,529.3345 977.9688,528.7564 L977.9688,531.4752 Z " fill="#000000"/><text fill="#D9B8FF" font-family="Helvetica" font-size="17" lengthAdjust="spacing" textLength="143" x="994" y="531.7198">aws_ec2_volume</text></g><!--class aws_efs_file_system--><g id="elem_aws_efs_file_system"><rect codeLine="50" fill="#3D176E" height="39.7891" id="aws_efs_file_system" rx="2.5" ry="2.5" style="stroke:#000D19;stroke-width:0.5;" width="212" x="1179.5" y="406.15"/><ellipse cx="1194.5" cy="426.0445" fill="#ADD1B2" rx="11" ry="11" style="stroke:#181818;stroke-width:1.0;"/><path d="M1197.4688,431.6852 Q1196.8906,431.982 1196.25,432.1227 Q1195.6094,432.2789 1194.9063,432.2789 Q1192.4063,432.2789 1191.0781,430.6383 Q1189.7656,428.982 1189.7656,425.857 Q1189.7656,422.732 1191.0781,421.0758 Q1192.4063,419.4195 1194.9063,419.4195 Q1195.6094,419.4195 1196.25,419.5758 Q1196.9063,419.732 1197.4688,420.0289 L1197.4688,422.7477 Q1196.8438,422.1695 1196.25,421.9039 Q1195.6563,421.6227 1195.0313,421.6227 Q1193.6875,421.6227 1193,422.7008 Q1192.3125,423.7633 1192.3125,425.857 Q1192.3125,427.9508 1193,429.0289 Q1193.6875,430.0914 1195.0313,430.0914 Q1195.6563,430.0914 1196.25,429.8258 Q1196.8438,429.5445 1197.4688,428.9664 L1197.4688,431.6852 Z " fill="#000000"/><text fill="#D9B8FF" font-family="Helvetica" font-size="17" lengthAdjust="spacing" textLength="170" x="1213.5" y="431.9298">aws_efs_file_system</text></g><!--class aws_rds_cluster--><g id="elem_aws_rds_cluster"><rect codeLine="53" fill="#3D176E" height="39.7891" id="aws_rds_cluster" rx="2.5" ry="2.5" style="stroke:#000D19;stroke-width:0.5;" width="174" x="1426.5" y="406.15"/><ellipse cx="1441.5" cy="426.0445" fill="#ADD1B2" rx="11" ry="11" style="stroke:#181818;stroke-width:1.0;"/><path d="M1444.4688,431.6852 Q1443.8906,431.982 1443.25,432.1227 Q1442.6094,432.2789 1441.9063,432.2789 Q1439.4063,432.2789 1438.0781,430.6383 Q1436.7656,428.982 1436.7656,425.857 Q1436.7656,422.732 1438.0781,421.0758 Q1439.4063,419.4195 1441.9063,419.4195 Q1442.6094,419.4195 1443.25,419.5758 Q1443.9063,419.732 1444.4688,420.0289 L1444.4688,422.7477 Q1443.8438,422.1695 1443.25,421.9039 Q1442.6563,421.6227 1442.0313,421.6227 Q1440.6875,421.6227 1440,422.7008 Q1439.3125,423.7633 1439.3125,425.857 Q1439.3125,427.9508 1440,429.0289 Q1440.6875,430.0914 1442.0313,430.0914 Q1442.6563,430.0914 1443.25,429.8258 Q1443.8438,429.5445 1444.4688,428.9664 L1444.4688,431.6852 Z " fill="#000000"/><text fill="#D9B8FF" font-family="Helvetica" font-size="17" lengthAdjust="spacing" textLength="132" x="1460.5" y="431.9298">aws_rds_cluster</text></g><!--class aws_rds_instance--><g id="elem_aws_rds_instance"><rect codeLine="56" fill="#3D176E" height="39.7891" id="aws_rds_instance" rx="2.5" ry="2.5" style="stroke:#000D19;stroke-width:0.5;" width="188" x="1489.5" y="505.94"/><ellipse cx="1504.5" cy="525.8345" fill="#ADD1B2" rx="11" ry="11" style="stroke:#181818;stroke-width:1.0;"/><path d="M1507.4688,531.4752 Q1506.8906,531.772 1506.25,531.9127 Q1505.6094,532.0689 1504.9063,532.0689 Q1502.4063,532.0689 1501.0781,530.4283 Q1499.7656,528.772 1499.7656,525.647 Q1499.7656,522.522 1501.0781,520.8658 Q1502.4063,519.2095 1504.9063,519.2095 Q1505.6094,519.2095 1506.25,519.3658 Q1506.9063,519.522 1507.4688,519.8189 L1507.4688,522.5377 Q1506.8438,521.9595 1506.25,521.6939 Q1505.6563,521.4127 1505.0313,521.4127 Q1503.6875,521.4127 1503,522.4908 Q1502.3125,523.5533 1502.3125,525.647 Q1502.3125,527.7408 1503,528.8189 Q1503.6875,529.8814 1505.0313,529.8814 Q1505.6563,529.8814 1506.25,529.6158 Q1506.8438,529.3345 1507.4688,528.7564 L1507.4688,531.4752 Z " fill="#000000"/><text fill="#D9B8FF" font-family="Helvetica" font-size="17" lengthAdjust="spacing" textLength="146" x="1523.5" y="531.7198">aws_rds_instance</text></g><!--class aws_redshift_cluster--><g id="elem_aws_redshift_cluster"><rect codeLine="59" fill="#3D176E" height="39.7891" id="aws_redshift_cluster" rx="2.5" ry="2.5" style="stroke:#000D19;stroke-width:0.5;" width="213" x="1706" y="406.15"/><ellipse cx="1721" cy="426.0445" fill="#ADD1B2" rx="11" ry="11" style="stroke:#181818;stroke-width:1.0;"/><path d="M1723.9688,431.6852 Q1723.3906,431.982 1722.75,432.1227 Q1722.1094,432.2789 1721.4063,432.2789 Q1718.9063,432.2789 1717.5781,430.6383 Q1716.2656,428.982 1716.2656,425.857 Q1716.2656,422.732 1717.5781,421.0758 Q1718.9063,419.4195 1721.4063,419.4195 Q1722.1094,419.4195 1722.75,419.5758 Q1723.4063,419.732 1723.9688,420.0289 L1723.9688,422.7477 Q1723.3438,422.1695 1722.75,421.9039 Q1722.1563,421.6227 1721.5313,421.6227 Q1720.1875,421.6227 1719.5,422.7008 Q1718.8125,423.7633 1718.8125,425.857 Q1718.8125,427.9508 1719.5,429.0289 Q1720.1875,430.0914 1721.5313,430.0914 Q1722.1563,430.0914 1722.75,429.8258 Q1723.3438,429.5445 1723.9688,428.9664 L1723.9688,431.6852 Z " fill="#000000"/><text fill="#D9B8FF" font-family="Helvetica" font-size="17" lengthAdjust="spacing" textLength="171" x="1740" y="431.9298">aws_redshift_cluster</text></g><!--class aws_s3_bucket--><g id="elem_aws_s3_bucket"><rect codeLine="62" fill="#3D176E" height="39.7891" id="aws_s3_bucket" rx="2.5" ry="2.5" style="stroke:#000D19;stroke-width:0.5;" width="168" x="1953.5" y="406.15"/><ellipse cx="1968.5" cy="426.0445" fill="#ADD1B2" rx="11" ry="11" style="stroke:#181818;stroke-width:1.0;"/><path d="M1971.4688,431.6852 Q1970.8906,431.982 1970.25,432.1227 Q1969.6094,432.2789 1968.9063,432.2789 Q1966.4063,432.2789 1965.0781,430.6383 Q1963.7656,428.982 1963.7656,425.857 Q1963.7656,422.732 1965.0781,421.0758 Q1966.4063,419.4195 1968.9063,419.4195 Q1969.6094,419.4195 1970.25,419.5758 Q1970.9063,419.732 1971.4688,420.0289 L1971.4688,422.7477 Q1970.8438,422.1695 1970.25,421.9039 Q1969.6563,421.6227 1969.0313,421.6227 Q1967.6875,421.6227 1967,422.7008 Q1966.3125,423.7633 1966.3125,425.857 Q1966.3125,427.9508 1967,429.0289 Q1967.6875,430.0914 1969.0313,430.0914 Q1969.6563,430.0914 1970.25,429.8258 Q1970.8438,429.5445 1971.4688,428.9664 L1971.4688,431.6852 Z " fill="#000000"/><text fill="#D9B8FF" font-family="Helvetica" font-size="17" lengthAdjust="spacing" textLength="126" x="1987.5" y="431.9298">aws_s3_bucket</text></g><!--link aws_backup_job to aws_backup_protected_resource--><g id="link_aws_backup_job_aws_backup_protected_resource"><path codeLine="65" d="M1097.75,146.95 C1068.64,170.38 1028.92,211.17 1050.5,246.36 C1068.26,275.32 1094.7537,291.8807 1125.1437,303.7907 " fill="none" id="aws_backup_job-to-aws_backup_protected_resource" style="stroke:#1A83AF;stroke-width:2.0;"/><polygon fill="#1A83AF" points="1130.73,305.98,1123.8101,298.9718,1126.0747,304.1556,1120.891,306.4203,1130.73,305.98" style="stroke:#1A83AF;stroke-width:2.0;"/></g><!--link aws_backup_job to aws_backup_recovery_point--><g id="link_aws_backup_job_aws_backup_recovery_point"><path codeLine="66" d="M1140.5,147 C1154.7,164.14 1171.5124,184.4394 1185.7024,201.5694 " fill="none" id="aws_backup_job-to-aws_backup_recovery_point" style="stroke:#1A83AF;stroke-width:2.0;"/><polygon fill="#1A83AF" points="1189.53,206.19,1186.8691,196.7074,1186.3404,202.3395,1180.7083,201.8108,1189.53,206.19" style="stroke:#1A83AF;stroke-width:2.0;"/></g><!--link aws_backup_protected_resource to aws_cloudformation_stack--><g id="link_aws_backup_protected_resource_aws_cloudformation_stack"><path codeLine="67" d="M1049.79,338.71 C867.03,352.6 554.93,377.72 287.5,406.15 C281.93,406.74 282.202,406.696 276.452,407.346 " fill="none" id="aws_backup_protected_resource-to-aws_cloudformation_stack" style="stroke:#1A83AF;stroke-width:2.0;"/><polygon fill="#1A83AF" points="270.49,408.02,279.8824,410.9837,275.4584,407.4584,278.9837,403.0344,270.49,408.02" style="stroke:#1A83AF;stroke-width:2.0;"/></g><!--link aws_backup_protected_resource to aws_dynamodb_global_table--><g id="link_aws_backup_protected_resource_aws_dynamodb_global_table"><path codeLine="68" d="M1055.09,346.64 C919.28,364.13 726.8708,388.9234 593.9008,406.0534 " fill="none" id="aws_backup_protected_resource-to-aws_dynamodb_global_table" style="stroke:#1A83AF;stroke-width:2.0;"/><polygon fill="#1A83AF" points="587.95,406.82,597.3873,409.6373,592.909,406.1811,596.3652,401.7029,587.95,406.82" style="stroke:#1A83AF;stroke-width:2.0;"/></g><!--link aws_backup_protected_resource to aws_dynamodb_table--><g id="link_aws_backup_protected_resource_aws_dynamodb_table"><path codeLine="69" d="M1112.16,346.64 C1029.7,363.76 915.9347,387.3803 833.5247,404.4903 " fill="none" id="aws_backup_protected_resource-to-aws_dynamodb_table" style="stroke:#1A83AF;stroke-width:2.0;"/><polygon fill="#1A83AF" points="827.65,405.71,837.2752,407.7969,832.5456,404.6936,835.6489,399.964,827.65,405.71" style="stroke:#1A83AF;stroke-width:2.0;"/></g><!--link aws_backup_protected_resource to aws_ec2_instance--><g id="link_aws_backup_protected_resource_aws_ec2_instance"><path codeLine="70" d="M1160.45,346.58 C1120.48,363.72 1067.9139,386.2643 1027.9639,403.4043 " fill="none" id="aws_backup_protected_resource-to-aws_ec2_instance" style="stroke:#1A83AF;stroke-width:2.0;"/><polygon fill="#1A83AF" points="1022.45,405.77,1032.298,405.8974,1027.045,403.7986,1029.1438,398.5455,1022.45,405.77" style="stroke:#1A83AF;stroke-width:2.0;"/></g><!--link aws_backup_protected_resource to aws_ec2_volume--><g id="link_aws_backup_protected_resource_aws_ec2_volume"><path codeLine="71" d="M1190.55,346.56 C1161.3,384.33 1100.484,462.8764 1071.184,500.7064 " fill="none" id="aws_backup_protected_resource-to-aws_ec2_volume" style="stroke:#1A83AF;stroke-width:2.0;"/><polygon fill="#1A83AF" points="1067.51,505.45,1076.1834,500.7839,1070.5717,501.497,1069.8586,495.8853,1067.51,505.45" style="stroke:#1A83AF;stroke-width:2.0;"/></g><!--link aws_backup_protected_resource to aws_efs_file_system--><g id="link_aws_backup_protected_resource_aws_efs_file_system"><path codeLine="72" d="M1221.31,346.58 C1235.33,363.72 1251.9112,383.9858 1265.9312,401.1258 " fill="none" id="aws_backup_protected_resource-to-aws_efs_file_system" style="stroke:#1A83AF;stroke-width:2.0;"/><polygon fill="#1A83AF" points="1269.73,405.77,1267.1279,396.2711,1266.5643,401.8998,1260.9356,401.3362,1269.73,405.77" style="stroke:#1A83AF;stroke-width:2.0;"/></g><!--link aws_backup_protected_resource to aws_rds_cluster--><g id="link_aws_backup_protected_resource_aws_rds_cluster"><path codeLine="73" d="M1266.35,346.58 C1320.26,363.69 1392.8413,386.7342 1446.7913,403.8642 " fill="none" id="aws_backup_protected_resource-to-aws_rds_cluster" style="stroke:#1A83AF;stroke-width:2.0;"/><polygon fill="#1A83AF" points="1452.51,405.68,1445.1425,399.1439,1447.7445,404.1669,1442.7215,406.7688,1452.51,405.68" style="stroke:#1A83AF;stroke-width:2.0;"/></g><!--link aws_backup_protected_resource to aws_rds_instance--><g id="link_aws_backup_protected_resource_aws_rds_instance"><path codeLine="74" d="M1361.34,336.76 C1464.18,346.66 1585.76,366.56 1618.5,406.15 C1642.6,435.29 1620.5342,475.5968 1602.1942,500.9768 " fill="none" id="aws_backup_protected_resource-to-aws_rds_instance" style="stroke:#1A83AF;stroke-width:2.0;"/><polygon fill="#1A83AF" points="1598.68,505.84,1607.1934,500.8881,1601.6085,501.7874,1600.7092,496.2024,1598.68,505.84" style="stroke:#1A83AF;stroke-width:2.0;"/></g><!--link aws_backup_protected_resource to aws_redshift_cluster--><g id="link_aws_backup_protected_resource_aws_redshift_cluster"><path codeLine="75" d="M1325.79,346.64 C1436.56,364.48 1593.4463,389.7559 1699.7363,406.8759 " fill="none" id="aws_backup_protected_resource-to-aws_redshift_cluster" style="stroke:#1A83AF;stroke-width:2.0;"/><polygon fill="#1A83AF" points="1705.66,407.83,1697.4106,402.4497,1700.7236,407.0349,1696.1384,410.3479,1705.66,407.83" style="stroke:#1A83AF;stroke-width:2.0;"/></g><!--link aws_backup_protected_resource to aws_s3_bucket--><g id="link_aws_backup_protected_resource_aws_s3_bucket"><path codeLine="76" d="M1361.38,340.56 C1509.68,354.04 1738.86,377.05 1936.5,406.15 C1941.97,406.96 1941.6794,406.8772 1947.3394,407.8072 " fill="none" id="aws_backup_protected_resource-to-aws_s3_bucket" style="stroke:#1A83AF;stroke-width:2.0;"/><polygon fill="#1A83AF" points="1953.26,408.78,1945.0276,403.3737,1948.3262,407.9693,1943.7305,411.2678,1953.26,408.78" style="stroke:#1A83AF;stroke-width:2.0;"/></g><!--link aws_backup_recovery_point to aws_backup_protected_resource--><g id="link_aws_backup_recovery_point_aws_backup_protected_resource"><path codeLine="77" d="M1205.5,246.79 C1205.5,263.93 1205.5,282.85 1205.5,299.98 " fill="none" id="aws_backup_recovery_point-to-aws_backup_protected_resource" style="stroke:#1A83AF;stroke-width:2.0;"/><polygon fill="#1A83AF" points="1205.5,305.98,1209.5,296.98,1205.5,300.98,1201.5,296.98,1205.5,305.98" style="stroke:#1A83AF;stroke-width:2.0;"/></g><!--link aws_backup_vault to aws_backup_job--><g id="link_aws_backup_vault_aws_backup_job"><path codeLine="78" d="M1237.64,47.21 C1212.92,64.35 1181.9303,85.8507 1157.2303,102.9807 " fill="none" id="aws_backup_vault-to-aws_backup_job" style="stroke:#1A83AF;stroke-width:2.0;"/><polygon fill="#1A83AF" points="1152.3,106.4,1161.9751,104.5579,1156.4086,103.5506,1157.416,97.9841,1152.3,106.4" style="stroke:#1A83AF;stroke-width:2.0;"/></g><!--link aws_backup_vault to aws_backup_protected_resource--><g id="link_aws_backup_vault_aws_backup_protected_resource"><path codeLine="79" d="M1285.99,47.18 C1325.07,86.37 1402.76,177.43 1360.5,246.36 C1342.74,275.32 1316.2463,291.8807 1285.8563,303.7907 " fill="none" id="aws_backup_vault-to-aws_backup_protected_resource" style="stroke:#1A83AF;stroke-width:2.0;"/><polygon fill="#1A83AF" points="1280.27,305.98,1290.109,306.4203,1284.9253,304.1556,1287.1899,298.9718,1280.27,305.98" style="stroke:#1A83AF;stroke-width:2.0;"/></g><!--link aws_backup_vault to aws_backup_recovery_point--><g id="link_aws_backup_vault_aws_backup_recovery_point"><path codeLine="80" d="M1259.92,47.25 C1253.11,70.77 1241.18,111.65 1230.5,146.57 C1224.24,167.05 1218.6361,184.6978 1213.5061,200.6578 " fill="none" id="aws_backup_vault-to-aws_backup_recovery_point" style="stroke:#1A83AF;stroke-width:2.0;"/><polygon fill="#1A83AF" points="1211.67,206.37,1218.2322,199.0258,1213.2,201.6099,1210.616,196.5777,1211.67,206.37" style="stroke:#1A83AF;stroke-width:2.0;"/></g><!--link aws_ec2_instance to aws_ec2_volume--><g id="link_aws_ec2_instance_aws_ec2_volume"><path codeLine="81" d="M992.32,446.37 C1005.47,463.51 1020.9195,483.6583 1034.0595,500.7983 " fill="none" id="aws_ec2_instance-to-aws_ec2_volume" style="stroke:#1A83AF;stroke-width:2.0;"/><polygon fill="#1A83AF" points="1037.71,505.56,1035.4088,495.9838,1034.6679,501.5919,1029.0598,500.8511,1037.71,505.56" style="stroke:#1A83AF;stroke-width:2.0;"/></g><!--link aws_rds_cluster to aws_rds_instance--><g id="link_aws_rds_cluster_aws_rds_instance"><path codeLine="82" d="M1527.33,446.37 C1539.6,463.51 1553.9493,483.5399 1566.2093,500.6799 " fill="none" id="aws_rds_cluster-to-aws_rds_instance" style="stroke:#1A83AF;stroke-width:2.0;"/><polygon fill="#1A83AF" points="1569.7,505.56,1567.7174,495.9128,1566.7911,501.4933,1561.2106,500.567,1569.7,505.56" style="stroke:#1A83AF;stroke-width:2.0;"/></g><!--SRC=[fPHTQzim58Rl_Ii4kIua3LkIcq4QADjDAMtlnX2oT9HeaNNCaPpWZlttsKjN57-byMxzFk_vjdP60OCi3oNB84k1VEBtnkM2HCRMH7ZSe4LY4ws5dY-QuZswS15u41cmhs0F48mKJU9bP-JUWVViDfBkXDnl2GkdJk432USh2Lo8g8qLtgz389CM0Q9Yr2fTQjqacq4dSpLRV8OMXgI0tf3fTAfcgoPoCTLWt-_4ita5Dek7ze01McMsKlob1gkiYQZ8LgF_zDuQ7uLInctPf-ZRqwacSa1dtvztGk6nfhMmFaxZ0n1WA7FOjBg2rLBfHIVyhGzEP3qw9ewUfnLIvFmdfknNalnkApbLFSe0YXDuB4X23qWWyG1KyXoD2ptGGHIsfKcBXT98cGW67VUXOfkCAft8KALyQp4LbWUHMkY5EbMGjzouAhgJdTe1RP6r5UsvDXQuBwl9PasPL5r_KG-zI-hBHw3ypkZGv_LpdXPo3s-pQcpgvljajbxEr_S_RhuCx-gZplFb9SFxRmNfMk2rCJeNF3h8A7Ty86EyfmEwsdb-ODVQemCSOntRR_E0h_M_7tZI_uICE_FJ4zFdhNw2ZyF_awZZZpfxW2vTKFom36_k3m00]--></g></svg>