<?xml version="1.0" encoding="us-ascii" standalone="no"?><svg xmlns="http://www.w3.org/2000/svg" xmlns:xlink="http://www.w3.org/1999/xlink" contentStyleType="text/css" height="1006px" preserveAspectRatio="none" style="width:494px;height:1006px;" version="1.1" viewBox="0 0 494 1006" width="494px" zoomAndPan="magnify"><defs/><g><!--class aws_iam_virtual_mfa_device--><g id="elem_aws_iam_virtual_mfa_device"><rect codeLine="23" fill="#3D176E" height="100.3828" id="aws_iam_virtual_mfa_device" rx="2.5" ry="2.5" style="stroke:#000D19;stroke-width:0.5;" width="284" x="132.5" y="899.42"/><ellipse cx="147.5" cy="919.3145" fill="#ADD1B2" rx="11" ry="11" style="stroke:#181818;stroke-width:1.0;"/><path d="M150.4688,924.9552 Q149.8906,925.252 149.25,925.3927 Q148.6094,925.5489 147.9063,925.5489 Q145.4063,925.5489 144.0781,923.9083 Q142.7656,922.252 142.7656,919.127 Q142.7656,916.002 144.0781,914.3458 Q145.4063,912.6895 147.9063,912.6895 Q148.6094,912.6895 149.25,912.8458 Q149.9063,913.002 150.4688,913.2989 L150.4688,916.0177 Q149.8438,915.4395 149.25,915.1739 Q148.6563,914.8927 148.0313,914.8927 Q146.6875,914.8927 146,915.9708 Q145.3125,917.0333 145.3125,919.127 Q145.3125,921.2208 146,922.2989 Q146.6875,923.3614 148.0313,923.3614 Q148.6563,923.3614 149.25,923.0958 Q149.8438,922.8145 150.4688,922.2364 L150.4688,924.9552 Z " fill="#000000"/><text fill="#D9B8FF" font-family="Helvetica" font-size="17" lengthAdjust="spacing" textLength="242" x="166.5" y="925.1998">aws_iam_virtual_mfa_device</text><line style="stroke:#000D19;stroke-width:0.5;" x1="133.5" x2="415.5" y1="939.2091" y2="939.2091"/><text fill="#D9B8FF" font-family="sans-serif" font-size="14" font-weight="bold" lengthAdjust="spacing" textLength="95" x="143.5" y="961.2042">enable_date</text><text fill="#D9B8FF" font-family="sans-serif" font-size="14" lengthAdjust="spacing" textLength="70" x="238.5" y="961.2042">: datetime</text><text fill="#D9B8FF" font-family="sans-serif" font-size="14" font-weight="bold" lengthAdjust="spacing" textLength="111" x="143.5" y="987.5011">serial_number</text><text fill="#D9B8FF" font-family="sans-serif" font-size="14" lengthAdjust="spacing" textLength="48" x="254.5" y="987.5011">: string</text></g><!--class aws_resource--><g id="elem_aws_resource"><rect codeLine="27" fill="#3D176E" height="74.0859" id="aws_resource" rx="2.5" ry="2.5" style="stroke:#000D19;stroke-width:0.5;" width="155" x="7" y="438.76"/><ellipse cx="22" cy="458.6545" fill="#ADD1B2" rx="11" ry="11" style="stroke:#181818;stroke-width:1.0;"/><path d="M24.9688,464.2952 Q24.3906,464.592 23.75,464.7327 Q23.1094,464.8889 22.4063,464.8889 Q19.9063,464.8889 18.5781,463.2483 Q17.2656,461.592 17.2656,458.467 Q17.2656,455.342 18.5781,453.6858 Q19.9063,452.0295 22.4063,452.0295 Q23.1094,452.0295 23.75,452.1858 Q24.4063,452.342 24.9688,452.6389 L24.9688,455.3577 Q24.3438,454.7795 23.75,454.5139 Q23.1563,454.2327 22.5313,454.2327 Q21.1875,454.2327 20.5,455.3108 Q19.8125,456.3733 19.8125,458.467 Q19.8125,460.5608 20.5,461.6389 Q21.1875,462.7014 22.5313,462.7014 Q23.1563,462.7014 23.75,462.4358 Q24.3438,462.1545 24.9688,461.5764 L24.9688,464.2952 Z " fill="#000000"/><text fill="#D9B8FF" font-family="Helvetica" font-size="17" lengthAdjust="spacing" textLength="113" x="41" y="464.5398">aws_resource</text><line style="stroke:#000D19;stroke-width:0.5;" x1="8" x2="161" y1="478.5491" y2="478.5491"/><text fill="#D9B8FF" font-family="sans-serif" font-size="14" font-weight="bold" lengthAdjust="spacing" textLength="26" x="18" y="500.5442">arn</text><text fill="#D9B8FF" font-family="sans-serif" font-size="14" lengthAdjust="spacing" textLength="48" x="44" y="500.5442">: string</text></g><!--class aws_root_user--><g id="elem_aws_root_user"><rect codeLine="30" fill="#3D176E" height="205.5703" id="aws_root_user" rx="2.5" ry="2.5" style="stroke:#000D19;stroke-width:0.5;" width="426" x="61.5" y="633.85"/><ellipse cx="204.75" cy="653.7445" fill="#ADD1B2" rx="11" ry="11" style="stroke:#181818;stroke-width:1.0;"/><path d="M207.7188,659.3852 Q207.1406,659.682 206.5,659.8227 Q205.8594,659.9789 205.1563,659.9789 Q202.6563,659.9789 201.3281,658.3383 Q200.0156,656.682 200.0156,653.557 Q200.0156,650.432 201.3281,648.7758 Q202.6563,647.1195 205.1563,647.1195 Q205.8594,647.1195 206.5,647.2758 Q207.1563,647.432 207.7188,647.7289 L207.7188,650.4477 Q207.0938,649.8695 206.5,649.6039 Q205.9063,649.3227 205.2813,649.3227 Q203.9375,649.3227 203.25,650.4008 Q202.5625,651.4633 202.5625,653.557 Q202.5625,655.6508 203.25,656.7289 Q203.9375,657.7914 205.2813,657.7914 Q205.9063,657.7914 206.5,657.5258 Q207.0938,657.2445 207.7188,656.6664 L207.7188,659.3852 Z " fill="#000000"/><text fill="#D9B8FF" font-family="Helvetica" font-size="17" lengthAdjust="spacing" textLength="121" x="230.25" y="659.6298">aws_root_user</text><line style="stroke:#000D19;stroke-width:0.5;" x1="62.5" x2="486.5" y1="673.6391" y2="673.6391"/><text fill="#D9B8FF" font-family="sans-serif" font-size="14" font-weight="bold" lengthAdjust="spacing" textLength="83" x="72.5" y="695.6342">mfa_active</text><text fill="#D9B8FF" font-family="sans-serif" font-size="14" lengthAdjust="spacing" textLength="65" x="155.5" y="695.6342">: boolean</text><text fill="#D9B8FF" font-family="sans-serif" font-size="14" font-weight="bold" lengthAdjust="spacing" textLength="148" x="72.5" y="721.9311">password_enabled</text><text fill="#D9B8FF" font-family="sans-serif" font-size="14" lengthAdjust="spacing" textLength="65" x="220.5" y="721.9311">: boolean</text><text fill="#D9B8FF" font-family="sans-serif" font-size="14" font-weight="bold" lengthAdjust="spacing" textLength="188" x="72.5" y="748.2279">password_last_changed</text><text fill="#D9B8FF" font-family="sans-serif" font-size="14" lengthAdjust="spacing" textLength="70" x="260.5" y="748.2279">: datetime</text><text fill="#D9B8FF" font-family="sans-serif" font-size="14" font-weight="bold" lengthAdjust="spacing" textLength="159" x="72.5" y="774.5248">password_last_used</text><text fill="#D9B8FF" font-family="sans-serif" font-size="14" lengthAdjust="spacing" textLength="70" x="231.5" y="774.5248">: datetime</text><text fill="#D9B8FF" font-family="sans-serif" font-size="14" font-weight="bold" lengthAdjust="spacing" textLength="189" x="72.5" y="800.8217">password_next_rotation</text><text fill="#D9B8FF" font-family="sans-serif" font-size="14" lengthAdjust="spacing" textLength="70" x="261.5" y="800.8217">: datetime</text><text fill="#D9B8FF" font-family="sans-serif" font-size="14" font-weight="bold" lengthAdjust="spacing" textLength="196" x="72.5" y="827.1186">user_virtual_mfa_devices</text><text fill="#D9B8FF" font-family="sans-serif" font-size="14" lengthAdjust="spacing" textLength="208" x="268.5" y="827.1186">: aws_iam_virtual_mfa_device[]</text></g><!--class iam_principal--><g id="elem_iam_principal"><rect codeLine="38" fill="#3D176E" height="39.7891" id="iam_principal" rx="2.5" ry="2.5" style="stroke:#000D19;stroke-width:0.5;" width="154" x="197.5" y="455.91"/><ellipse cx="212.5" cy="475.8045" fill="#ADD1B2" rx="11" ry="11" style="stroke:#181818;stroke-width:1.0;"/><path d="M215.4688,481.4452 Q214.8906,481.742 214.25,481.8827 Q213.6094,482.0389 212.9063,482.0389 Q210.4063,482.0389 209.0781,480.3983 Q207.7656,478.742 207.7656,475.617 Q207.7656,472.492 209.0781,470.8358 Q210.4063,469.1795 212.9063,469.1795 Q213.6094,469.1795 214.25,469.3358 Q214.9063,469.492 215.4688,469.7889 L215.4688,472.5077 Q214.8438,471.9295 214.25,471.6639 Q213.6563,471.3827 213.0313,471.3827 Q211.6875,471.3827 211,472.4608 Q210.3125,473.5233 210.3125,475.617 Q210.3125,477.7108 211,478.7889 Q211.6875,479.8514 213.0313,479.8514 Q213.6563,479.8514 214.25,479.5858 Q214.8438,479.3045 215.4688,478.7264 L215.4688,481.4452 Z " fill="#000000"/><text fill="#D9B8FF" font-family="Helvetica" font-size="17" lengthAdjust="spacing" textLength="112" x="231.5" y="481.6898">iam_principal</text></g><!--class resource--><g id="elem_resource"><rect codeLine="41" fill="#3D176E" height="310.7578" id="resource" rx="2.5" ry="2.5" style="stroke:#000D19;stroke-width:0.5;" width="227" x="161" y="7"/><ellipse cx="229.75" cy="26.8945" fill="#ADD1B2" rx="11" ry="11" style="stroke:#181818;stroke-width:1.0;"/><path d="M232.7188,32.5352 Q232.1406,32.832 231.5,32.9727 Q230.8594,33.1289 230.1563,33.1289 Q227.6563,33.1289 226.3281,31.4883 Q225.0156,29.832 225.0156,26.707 Q225.0156,23.582 226.3281,21.9258 Q227.6563,20.2695 230.1563,20.2695 Q230.8594,20.2695 231.5,20.4258 Q232.1563,20.582 232.7188,20.8789 L232.7188,23.5977 Q232.0938,23.0195 231.5,22.7539 Q230.9063,22.4727 230.2813,22.4727 Q228.9375,22.4727 228.25,23.5508 Q227.5625,24.6133 227.5625,26.707 Q227.5625,28.8008 228.25,29.8789 Q228.9375,30.9414 230.2813,30.9414 Q230.9063,30.9414 231.5,30.6758 Q232.0938,30.3945 232.7188,29.8164 L232.7188,32.5352 Z " fill="#000000"/><text fill="#D9B8FF" font-family="Helvetica" font-size="17" lengthAdjust="spacing" textLength="71" x="255.25" y="32.7798">resource</text><line style="stroke:#000D19;stroke-width:0.5;" x1="162" x2="387" y1="46.7891" y2="46.7891"/><text fill="#D9B8FF" font-family="sans-serif" font-size="14" font-weight="bold" lengthAdjust="spacing" textLength="29" x="172" y="68.7842">age</text><text fill="#D9B8FF" font-family="sans-serif" font-size="14" lengthAdjust="spacing" textLength="66" x="201" y="68.7842">: duration</text><text fill="#D9B8FF" font-family="sans-serif" font-size="14" font-weight="bold" lengthAdjust="spacing" textLength="43" x="172" y="95.0811">atime</text><text fill="#D9B8FF" font-family="sans-serif" font-size="14" lengthAdjust="spacing" textLength="70" x="215" y="95.0811">: datetime</text><text fill="#D9B8FF" font-family="sans-serif" font-size="14" font-weight="bold" lengthAdjust="spacing" textLength="43" x="172" y="121.3779">ctime</text><text fill="#D9B8FF" font-family="sans-serif" font-size="14" lengthAdjust="spacing" textLength="70" x="215" y="121.3779">: datetime</text><text fill="#D9B8FF" font-family="sans-serif" font-size="14" font-weight="bold" lengthAdjust="spacing" textLength="14" x="172" y="147.6748">id</text><text fill="#D9B8FF" font-family="sans-serif" font-size="14" lengthAdjust="spacing" textLength="48" x="186" y="147.6748">: string</text><text fill="#D9B8FF" font-family="sans-serif" font-size="14" font-weight="bold" lengthAdjust="spacing" textLength="33" x="172" y="173.9717">kind</text><text fill="#D9B8FF" font-family="sans-serif" font-size="14" lengthAdjust="spacing" textLength="48" x="205" y="173.9717">: string</text><text fill="#D9B8FF" font-family="sans-serif" font-size="14" font-weight="bold" lengthAdjust="spacing" textLength="90" x="172" y="200.2686">last_access</text><text fill="#D9B8FF" font-family="sans-serif" font-size="14" lengthAdjust="spacing" textLength="66" x="262" y="200.2686">: duration</text><text fill="#D9B8FF" font-family="sans-serif" font-size="14" font-weight="bold" lengthAdjust="spacing" textLength="90" x="172" y="226.5654">last_update</text><text fill="#D9B8FF" font-family="sans-serif" font-size="14" lengthAdjust="spacing" textLength="66" x="262" y="226.5654">: duration</text><text fill="#D9B8FF" font-family="sans-serif" font-size="14" font-weight="bold" lengthAdjust="spacing" textLength="48" x="172" y="252.8623">mtime</text><text fill="#D9B8FF" font-family="sans-serif" font-size="14" lengthAdjust="spacing" textLength="70" x="220" y="252.8623">: datetime</text><text fill="#D9B8FF" font-family="sans-serif" font-size="14" font-weight="bold" lengthAdjust="spacing" textLength="43" x="172" y="279.1592">name</text><text fill="#D9B8FF" font-family="sans-serif" font-size="14" lengthAdjust="spacing" textLength="48" x="215" y="279.1592">: string</text><text fill="#D9B8FF" font-family="sans-serif" font-size="14" font-weight="bold" lengthAdjust="spacing" textLength="34" x="172" y="305.4561">tags</text><text fill="#D9B8FF" font-family="sans-serif" font-size="14" lengthAdjust="spacing" textLength="171" x="206" y="305.4561">: dictionary[string, string]</text></g><!--class user--><g id="elem_user"><rect codeLine="53" fill="#3D176E" height="39.7891" id="user" rx="2.5" ry="2.5" style="stroke:#000D19;stroke-width:0.5;" width="78" x="386.5" y="455.91"/><ellipse cx="401.5" cy="475.8045" fill="#ADD1B2" rx="11" ry="11" style="stroke:#181818;stroke-width:1.0;"/><path d="M404.4688,481.4452 Q403.8906,481.742 403.25,481.8827 Q402.6094,482.0389 401.9063,482.0389 Q399.4063,482.0389 398.0781,480.3983 Q396.7656,478.742 396.7656,475.617 Q396.7656,472.492 398.0781,470.8358 Q399.4063,469.1795 401.9063,469.1795 Q402.6094,469.1795 403.25,469.3358 Q403.9063,469.492 404.4688,469.7889 L404.4688,472.5077 Q403.8438,471.9295 403.25,471.6639 Q402.6563,471.3827 402.0313,471.3827 Q400.6875,471.3827 400,472.4608 Q399.3125,473.5233 399.3125,475.617 Q399.3125,477.7108 400,478.7889 Q400.6875,479.8514 402.0313,479.8514 Q402.6563,479.8514 403.25,479.5858 Q403.8438,479.3045 404.4688,478.7264 L404.4688,481.4452 Z " fill="#000000"/><text fill="#D9B8FF" font-family="Helvetica" font-size="17" lengthAdjust="spacing" textLength="36" x="420.5" y="481.6898">user</text></g><!--reverse link resource to aws_resource--><g id="link_resource_aws_resource"><path codeLine="56" d="M170.6834,333.5449 C143.2034,378.5749 125.05,408.35 106.64,438.52 " fill="none" id="resource-backto-aws_resource" style="stroke:#FFAF37;stroke-width:2.0;"/><polygon fill="none" points="180.06,318.18,165.5618,330.4194,175.8051,336.6704,180.06,318.18" style="stroke:#FFAF37;stroke-width:2.0;"/></g><!--link aws_root_user to aws_iam_virtual_mfa_device--><g id="link_aws_root_user_aws_iam_virtual_mfa_device"><path codeLine="57" d="M274.5,839.72 C274.5,860.34 274.5,875.13 274.5,892.93 " fill="none" id="aws_root_user-to-aws_iam_virtual_mfa_device" style="stroke:#FFAF37;stroke-width:2.0;"/><polygon fill="#FFAF37" points="274.5,898.93,278.5,889.93,274.5,893.93,270.5,889.93,274.5,898.93" style="stroke:#FFAF37;stroke-width:2.0;"/></g><!--reverse link aws_resource to aws_root_user--><g id="link_aws_resource_aws_root_user"><path codeLine="58" d="M121.9714,527.8503 C144.8814,559.0603 168.33,591 199.44,633.38 " fill="none" id="aws_resource-backto-aws_root_user" style="stroke:#FFAF37;stroke-width:2.0;"/><polygon fill="none" points="111.32,513.34,117.1346,531.4007,126.8082,524.2998,111.32,513.34" style="stroke:#FFAF37;stroke-width:2.0;"/></g><!--reverse link iam_principal to aws_root_user--><g id="link_iam_principal_aws_root_user"><path codeLine="59" d="M274.5,513.84 C274.5,542.85 274.5,582.18 274.5,633.52 " fill="none" id="iam_principal-backto-aws_root_user" style="stroke:#FFAF37;stroke-width:2.0;"/><polygon fill="none" points="274.5,495.84,268.5,513.84,280.5,513.84,274.5,495.84" style="stroke:#FFAF37;stroke-width:2.0;"/></g><!--reverse link user to aws_root_user--><g id="link_user_aws_root_user"><path codeLine="60" d="M405.3273,511.3863 C388.3973,540.3963 364.02,582.18 334.07,633.52 " fill="none" id="user-backto-aws_root_user" style="stroke:#FFAF37;stroke-width:2.0;"/><polygon fill="none" points="414.4,495.84,400.1452,508.362,410.5094,514.4105,414.4,495.84" style="stroke:#FFAF37;stroke-width:2.0;"/></g><!--reverse link resource to iam_principal--><g id="link_resource_iam_principal"><path codeLine="61" d="M274.5,336.18 C274.5,390.83 274.5,427.63 274.5,455.65 " fill="none" id="resource-backto-iam_principal" style="stroke:#FFAF37;stroke-width:2.0;"/><polygon fill="none" points="274.5,318.18,268.5,336.18,280.5,336.18,274.5,318.18" style="stroke:#FFAF37;stroke-width:2.0;"/></g><!--reverse link resource to user--><g id="link_resource_user"><path codeLine="62" d="M357.4137,334.3763 C383.9137,389.0263 402.63,427.63 416.21,455.65 " fill="none" id="resource-backto-user" style="stroke:#FFAF37;stroke-width:2.0;"/><polygon fill="none" points="349.56,318.18,352.0149,336.9942,362.8124,331.7584,349.56,318.18" style="stroke:#FFAF37;stroke-width:2.0;"/></g><!--SRC=[XP9RQzj048NVzIiMyYPgi1DQnw4K4aDfNq9f-XQA6EsEvCNIhjWTsNKl_xsxagEiRiwJyPnFCsVEpauAP5XMT68bbYaQ6zczL1KOADczCVgurOKsx2hB8BjP3yNFMj6Rm2EKoBvWSK2I78R4ZvtaUuNMikj0UW2-puskbMZRam5bdOIA0cfRWBNtH4QcDM5WHcpIsomRaiEcLpTYjVw08qmRWUQCB9TBiTeCaJT7NTox8vxaRsIhCBH7JJYoEHhHK1TTUY8mELhqHP_r-0s4a2fdxuFQzzQJKMXwzQST27tqT0Q53STOGeEQJXLkHrlXvbPawqduwnmSSHyTWwDD99J9GHggeKZA31A11ycH_OdY61Ma1IO22EFuZlbVaYKwnQAHZbUrFtMlMNSxAe_-1OqDMbsRSoimQWxJcfBQDMmuxm0uoKCpCTMwG52kNZdyw5ugQJs96TLrfOJlGEKj4bZkCsxWBA3m5pbR12Ir6a3Uw4HSrcFpQJx_x5RsGEL2uBA2mgtS2VsuyZRnsZGcVCKR69ZX4pKfWfpZs1r5lz1i3znPjeC9RIvLzzglIZanHq5RwXeJv6r7oVrdO4xFhVRkpBncS7vjzxzR-kFVnMBHEvkeVnoBnQSB0KUzWmkQlNmVzNEV8fenKyAWRw_JK6m- -0y0]--></g></svg>