<svg xmlns="http://www.w3.org/2000/svg" width="998" height="352" viewBox="0 0 998 352"><rect width="130" height="39.789" x="59" y="306.37" fill="#3D176E" rx="2.5" ry="2.5" style="stroke:#000d19;stroke-width:.5"/><circle cx="74" cy="326.264" r="11" fill="#ADD1B2" style="stroke:#181818;stroke-width:1"/><path d="M76.969 331.905q-.578.297-1.219.438-.64.156-1.344.156-2.5 0-3.828-1.64-1.312-1.657-1.312-4.782t1.312-4.781q1.328-1.656 3.828-1.656.703 0 1.344.156.656.156 1.219.453v2.719q-.625-.579-1.219-.844-.594-.281-1.219-.281-1.344 0-2.031 1.078-.687 1.062-.687 3.156t.687 3.172q.688 1.062 2.031 1.062.625 0 1.219-.265.594-.281 1.219-.86z"/><text x="93" y="332.15" fill="#D9B8FF" font-family="Helvetica" font-size="17" textLength="88">azure_disk</text><rect width="149" height="39.789" x="224.5" y="306.37" fill="#3D176E" rx="2.5" ry="2.5" style="stroke:#000d19;stroke-width:.5"/><circle cx="239.5" cy="326.264" r="11" fill="#ADD1B2" style="stroke:#181818;stroke-width:1"/><path d="M242.469 331.905q-.578.297-1.219.438-.64.156-1.344.156-2.5 0-3.828-1.64-1.312-1.657-1.312-4.782t1.312-4.781q1.328-1.656 3.828-1.656.703 0 1.344.156.656.156 1.219.453v2.719q-.625-.579-1.219-.844-.594-.281-1.219-.281-1.344 0-2.031 1.078-.687 1.062-.687 3.156t.687 3.172q.688 1.062 2.031 1.062.625 0 1.219-.265.594-.281 1.219-.86z"/><text x="258.5" y="332.15" fill="#D9B8FF" font-family="Helvetica" font-size="17" textLength="107">azure_image</text><rect width="212" height="39.789" x="7" y="106.79" fill="#3D176E" rx="2.5" ry="2.5" style="stroke:#000d19;stroke-width:.5"/><circle cx="22" cy="126.684" r="11" fill="#ADD1B2" style="stroke:#181818;stroke-width:1"/><path d="M24.969 132.325q-.578.297-1.219.438-.64.156-1.344.156-2.5 0-3.828-1.64-1.312-1.657-1.312-4.782t1.312-4.781q1.328-1.656 3.828-1.656.703 0 1.344.156.656.156 1.219.453v2.719q-.625-.579-1.219-.844-.594-.281-1.219-.281-1.343 0-2.031 1.078-.687 1.062-.687 3.156t.687 3.172q.688 1.062 2.031 1.062.625 0 1.219-.265.594-.281 1.219-.86z"/><text x="41" y="132.57" fill="#D9B8FF" font-family="Helvetica" font-size="17" textLength="170">azure_load_balancer</text><rect width="250" height="39.789" x="717" y="306.37" fill="#3D176E" rx="2.5" ry="2.5" style="stroke:#000d19;stroke-width:.5"/><circle cx="732" cy="326.264" r="11" fill="#ADD1B2" style="stroke:#181818;stroke-width:1"/><path d="M734.969 331.905q-.578.297-1.219.438-.64.156-1.344.156-2.5 0-3.828-1.64-1.312-1.657-1.312-4.782t1.312-4.781q1.328-1.656 3.828-1.656.703 0 1.344.156.656.156 1.219.453v2.719q-.625-.579-1.219-.844-.594-.281-1.219-.281-1.343 0-2.031 1.078-.687 1.062-.687 3.156t.687 3.172q.688 1.062 2.031 1.062.625 0 1.219-.265.594-.281 1.219-.86z"/><text x="751" y="332.15" fill="#D9B8FF" font-family="Helvetica" font-size="17" textLength="208">azure_network_interface</text><rect width="299" height="39.789" x="692.5" y="106.79" fill="#3D176E" rx="2.5" ry="2.5" style="stroke:#000d19;stroke-width:.5"/><circle cx="707.5" cy="126.684" r="11" fill="#ADD1B2" style="stroke:#181818;stroke-width:1"/><path d="M710.469 132.325q-.578.297-1.219.438-.64.156-1.344.156-2.5 0-3.828-1.64-1.312-1.657-1.312-4.782t1.312-4.781q1.328-1.656 3.828-1.656.703 0 1.344.156.656.156 1.219.453v2.719q-.625-.579-1.219-.844-.594-.281-1.219-.281-1.343 0-2.031 1.078-.687 1.062-.687 3.156t.687 3.172q.688 1.062 2.031 1.062.625 0 1.219-.265.594-.281 1.219-.86z"/><text x="726.5" y="132.57" fill="#D9B8FF" font-family="Helvetica" font-size="17" textLength="257">azure_network_security_group</text><rect width="332" height="39.789" x="325" y="106.79" fill="#3D176E" rx="2.5" ry="2.5" style="stroke:#000d19;stroke-width:.5"/><circle cx="340" cy="126.684" r="11" fill="#ADD1B2" style="stroke:#181818;stroke-width:1"/><path d="M342.969 132.325q-.578.297-1.219.438-.64.156-1.344.156-2.5 0-3.828-1.64-1.312-1.657-1.312-4.782t1.312-4.781q1.328-1.656 3.828-1.656.703 0 1.344.156.656.156 1.219.453v2.719q-.625-.579-1.219-.844-.594-.281-1.219-.281-1.344 0-2.031 1.078-.687 1.062-.687 3.156t.687 3.172q.688 1.062 2.031 1.062.625 0 1.219-.265.594-.281 1.219-.86z"/><text x="359" y="132.57" fill="#D9B8FF" font-family="Helvetica" font-size="17" textLength="290">azure_proximity_placement_group</text><rect width="154" height="39.789" x="195" y="7" fill="#3D176E" rx="2.5" ry="2.5" style="stroke:#000d19;stroke-width:.5"/><circle cx="210" cy="26.895" r="11" fill="#ADD1B2" style="stroke:#181818;stroke-width:1"/><path d="M212.969 32.535q-.578.297-1.219.438-.64.156-1.344.156-2.5 0-3.828-1.64-1.312-1.657-1.312-4.782t1.312-4.781q1.328-1.656 3.828-1.656.703 0 1.344.156.656.156 1.219.453v2.719q-.625-.578-1.219-.844-.594-.281-1.219-.281-1.344 0-2.031 1.078-.687 1.062-.687 3.156t.687 3.172q.688 1.062 2.031 1.062.625 0 1.219-.265.594-.281 1.219-.86z"/><text x="229" y="32.78" fill="#D9B8FF" font-family="Helvetica" font-size="17" textLength="112">azure_subnet</text><rect width="233" height="39.789" x="278.5" y="206.58" fill="#3D176E" rx="2.5" ry="2.5" style="stroke:#000d19;stroke-width:.5"/><circle cx="293.5" cy="226.475" r="11" fill="#ADD1B2" style="stroke:#181818;stroke-width:1"/><path d="M296.469 232.115q-.578.297-1.219.438-.64.156-1.344.156-2.5 0-3.828-1.64-1.312-1.657-1.312-4.782t1.312-4.781q1.328-1.656 3.828-1.656.703 0 1.344.156.656.156 1.219.453v2.719q-.625-.578-1.219-.844-.594-.281-1.219-.281-1.344 0-2.031 1.078-.687 1.062-.687 3.156t.687 3.172q.688 1.062 2.031 1.062.625 0 1.219-.265.594-.281 1.219-.86z"/><text x="312.5" y="232.36" fill="#D9B8FF" font-family="Helvetica" font-size="17" textLength="191">azure_virtual_machine</text><rect width="273" height="39.789" x="408.5" y="306.37" fill="#3D176E" rx="2.5" ry="2.5" style="stroke:#000d19;stroke-width:.5"/><circle cx="423.5" cy="326.264" r="11" fill="#ADD1B2" style="stroke:#181818;stroke-width:1"/><path d="M426.469 331.905q-.578.297-1.219.438-.64.156-1.344.156-2.5 0-3.828-1.64-1.312-1.657-1.312-4.782t1.312-4.781q1.328-1.656 3.828-1.656.703 0 1.344.156.656.156 1.219.453v2.719q-.625-.579-1.219-.844-.594-.281-1.219-.281-1.344 0-2.031 1.078-.687 1.062-.687 3.156t.687 3.172q.688 1.062 2.031 1.062.625 0 1.219-.265.594-.281 1.219-.86z"/><text x="442.5" y="332.15" fill="#D9B8FF" font-family="Helvetica" font-size="17" textLength="231">azure_virtual_machine_size</text><path fill="none" d="M168.71 147.01c49.44 17.14 115.622 40.083 165.021 57.223" style="stroke:#1a83af;stroke-width:2"/><path fill="#1A83AF" d="m339.4 206.2-7.192-6.73 2.468 5.091-5.09 2.468z" style="stroke:#1a83af;stroke-width:2"/><path fill="none" d="M842 146.99v152.89" style="stroke:#1a83af;stroke-width:2"/><path fill="#1A83AF" d="m842 305.88 4-9-4 4-4-4z" style="stroke:#1a83af;stroke-width:2"/><path fill="none" d="M753.42 147.07c-78.26 17.12-185.939 40.678-264.159 57.788" style="stroke:#1a83af;stroke-width:2"/><path fill="#1A83AF" d="m483.4 206.14 9.647 1.984-4.763-3.052 3.053-4.763z" style="stroke:#1a83af;stroke-width:2"/><path fill="none" d="M472.03 147.01c-16.83 17.14-37.077 37.768-53.897 54.908" style="stroke:#1a83af;stroke-width:2"/><path fill="#1A83AF" d="m413.93 206.2 9.159-3.622-5.657.053-.053-5.656z" style="stroke:#1a83af;stroke-width:2"/><path fill="none" d="M240.59 47.22c-27.88 17.14-63.28 38.917-91.13 56.046" style="stroke:#1a83af;stroke-width:2"/><path fill="#1A83AF" d="m144.35 106.41 9.762-1.308-5.503-1.312 1.311-5.502z" style="stroke:#1a83af;stroke-width:2"/><path fill="none" d="M349.47 41.19c97.93 16.8 261.376 44.835 373.707 64.115" style="stroke:#1a83af;stroke-width:2"/><path fill="#1A83AF" d="m729.09 106.32-8.194-5.465 3.266 4.62-4.619 3.265z" style="stroke:#1a83af;stroke-width:2"/><path fill="none" d="M274.55 46.88c3.98 24.59 13.41 68.05 33.45 99.7 15.16 23.95 34.719 41.539 53.798 55.919" style="stroke:#1a83af;stroke-width:2"/><path fill="#1A83AF" d="m366.59 206.11-4.78-8.611.787 5.602-5.602.786z" style="stroke:#1a83af;stroke-width:2"/><path fill="none" d="M341.46 246.8c-47.51 17.14-110.906 40.013-158.386 57.153" style="stroke:#1a83af;stroke-width:2"/><path fill="#1A83AF" d="m177.43 305.99 9.823.706-5.12-2.404 2.404-5.12z" style="stroke:#1a83af;stroke-width:2"/><path fill="none" d="M376.03 246.8c-16.83 17.14-37.077 37.768-53.897 54.908" style="stroke:#1a83af;stroke-width:2"/><path fill="#1A83AF" d="m317.93 305.99 9.159-3.622-5.657.053-.053-5.656z" style="stroke:#1a83af;stroke-width:2"/><path fill="none" d="M483.58 246.85c78.26 17.13 185.939 40.688 264.159 57.798" style="stroke:#1a83af;stroke-width:2"/><path fill="#1A83AF" d="m753.6 305.93-7.937-5.83 3.053 4.762-4.763 3.052z" style="stroke:#1a83af;stroke-width:2"/><path fill="none" d="M424.64 246.8c26.29 17.14 59.484 38.772 85.764 55.912" style="stroke:#1a83af;stroke-width:2"/><path fill="#1A83AF" d="m515.43 305.99-5.353-8.267 1.165 5.536-5.536 1.165z" style="stroke:#1a83af;stroke-width:2"/></svg>