<svg xmlns="http://www.w3.org/2000/svg" width="450" height="773" viewBox="0 0 450 773"><rect width="225" height="39.789" x="109.5" y="727.73" fill="#3D176E" rx="2.5" ry="2.5" style="stroke:#000d19;stroke-width:.5"/><circle cx="124.5" cy="747.625" r="11" fill="#ADD1B2" style="stroke:#181818;stroke-width:1"/><path d="M127.469 753.265q-.578.297-1.219.438-.64.156-1.344.156-2.5 0-3.828-1.64-1.312-1.657-1.312-4.782t1.312-4.781q1.328-1.656 3.828-1.656.703 0 1.344.156.656.156 1.219.453v2.719q-.625-.578-1.219-.844-.594-.281-1.219-.281-1.344 0-2.031 1.078-.687 1.062-.687 3.156t.687 3.172q.688 1.062 2.031 1.062.625 0 1.219-.265.594-.281 1.219-.86z"/><text x="143.5" y="753.51" fill="#D9B8FF" font-family="Helvetica" font-size="17" textLength="183">azure_network_usage</text><rect width="146" height="39.789" x="160" y="467.15" fill="#3D176E" rx="2.5" ry="2.5" style="stroke:#000d19;stroke-width:.5"/><circle cx="175" cy="487.045" r="11" fill="#ADD1B2" style="stroke:#181818;stroke-width:1"/><path d="M177.969 492.685q-.578.297-1.219.438-.64.156-1.344.156-2.5 0-3.828-1.64-1.312-1.657-1.312-4.782t1.312-4.781q1.328-1.656 3.828-1.656.703 0 1.344.156.656.156 1.219.453v2.719q-.625-.578-1.219-.844-.594-.281-1.219-.281-1.344 0-2.031 1.078-.687 1.062-.687 3.156t.687 3.172q.688 1.062 2.031 1.062.625 0 1.219-.265.594-.281 1.219-.86z"/><text x="194" y="492.93" fill="#D9B8FF" font-family="Helvetica" font-size="17" textLength="104">azure_usage</text><rect width="200" height="39.789" x="7" y="267.57" fill="#3D176E" rx="2.5" ry="2.5" style="stroke:#000d19;stroke-width:.5"/><circle cx="22" cy="287.464" r="11" fill="#ADD1B2" style="stroke:#181818;stroke-width:1"/><path d="M24.969 293.105q-.578.297-1.219.438-.64.156-1.344.156-2.5 0-3.828-1.64-1.312-1.657-1.312-4.782t1.312-4.781q1.328-1.656 3.828-1.656.703 0 1.344.156.656.156 1.219.453v2.719q-.625-.579-1.219-.844-.594-.281-1.219-.281-1.343 0-2.031 1.078-.687 1.062-.687 3.156t.687 3.172q.688 1.062 2.031 1.062.625 0 1.219-.265.594-.281 1.219-.86z"/><text x="41" y="293.35" fill="#D9B8FF" font-family="Helvetica" font-size="17" textLength="158">microsoft_resource</text><rect width="169" height="39.789" x="274.5" y="566.94" fill="#3D176E" rx="2.5" ry="2.5" style="stroke:#000d19;stroke-width:.5"/><circle cx="289.5" cy="586.835" r="11" fill="#ADD1B2" style="stroke:#181818;stroke-width:1"/><path d="M292.469 592.475q-.578.297-1.219.438-.64.156-1.344.156-2.5 0-3.828-1.64-1.312-1.657-1.312-4.782t1.312-4.781q1.328-1.656 3.828-1.656.703 0 1.344.156.656.156 1.219.453v2.719q-.625-.578-1.219-.844-.594-.281-1.219-.281-1.344 0-2.031 1.078-.687 1.062-.687 3.156t.687 3.172q.688 1.062 2.031 1.062.625 0 1.219-.265.594-.281 1.219-.86z"/><text x="308.5" y="592.72" fill="#D9B8FF" font-family="Helvetica" font-size="17" textLength="127">network_quota</text><rect width="198" height="39.789" x="161" y="167.79" fill="#3D176E" rx="2.5" ry="2.5" style="stroke:#000d19;stroke-width:.5"/><circle cx="176" cy="187.685" r="11" fill="#ADD1B2" style="stroke:#181818;stroke-width:1"/><path d="M178.969 193.325q-.578.297-1.219.438-.64.156-1.344.156-2.5 0-3.828-1.64-1.312-1.657-1.312-4.782t1.312-4.781q1.328-1.656 3.828-1.656.703 0 1.344.156.656.156 1.219.453v2.719q-.625-.578-1.219-.844-.594-.281-1.219-.281-1.344 0-2.031 1.078-.687 1.062-.687 3.156t.687 3.172q.688 1.062 2.031 1.062.625 0 1.219-.265.594-.281 1.219-.86z"/><text x="195" y="193.57" fill="#D9B8FF" font-family="Helvetica" font-size="17" textLength="156">phantom_resource</text><rect width="90" height="39.789" x="313" y="367.36" fill="#3D176E" rx="2.5" ry="2.5" style="stroke:#000d19;stroke-width:.5"/><circle cx="328" cy="387.255" r="11" fill="#ADD1B2" style="stroke:#181818;stroke-width:1"/><path d="M330.969 392.895q-.578.297-1.219.438-.64.156-1.344.156-2.5 0-3.828-1.64-1.312-1.657-1.312-4.782t1.312-4.781q1.328-1.656 3.828-1.656.703 0 1.344.156.656.156 1.219.453v2.719q-.625-.579-1.219-.844-.594-.281-1.219-.281-1.344 0-2.031 1.078-.687 1.062-.687 3.156t.687 3.172q.688 1.062 2.031 1.062.625 0 1.219-.265.594-.281 1.219-.86z"/><text x="347" y="393.14" fill="#D9B8FF" font-family="Helvetica" font-size="17" textLength="48">quota</text><rect width="113" height="39.789" x="86.5" y="7" fill="#3D176E" rx="2.5" ry="2.5" style="stroke:#000d19;stroke-width:.5"/><circle cx="101.5" cy="26.895" r="11" fill="#ADD1B2" style="stroke:#181818;stroke-width:1"/><path d="M104.469 32.535q-.578.297-1.219.438-.64.156-1.344.156-2.5 0-3.828-1.64-1.312-1.657-1.312-4.782t1.312-4.781q1.328-1.656 3.828-1.656.703 0 1.344.156.656.156 1.219.453v2.719q-.625-.578-1.219-.844-.594-.281-1.219-.281-1.344 0-2.031 1.078-.687 1.062-.687 3.156t.687 3.172q.688 1.062 2.031 1.062.625 0 1.219-.265.594-.281 1.219-.86z"/><text x="120.5" y="32.78" fill="#D9B8FF" font-family="Helvetica" font-size="17" textLength="71">resource</text><g fill="none"><path d="M231.425 525.044c-2.03 47.7-6.555 154.086-8.595 202.186" style="stroke:#ffaf37;stroke-width:2"/><path d="m232.19 507.06-6.76 17.729 11.99.51z" style="stroke:#ffaf37;stroke-width:2"/></g><path fill="none" d="M107 325.82v262.02c0 59.9 54.36 112.49 88.33 139.51M107 307.82l-6 18h12zm223.712 312.799c-26.33 30.52-65.762 76.221-92.132 106.781m103.89-120.41-16.301 9.71 9.086 7.838z" style="stroke:#ffaf37;stroke-width:2"/><g fill="none"><path d="M256.641 225.656c-4.87 53.59-17.001 187.254-21.891 241.114" style="stroke:#ffaf37;stroke-width:2"/><path d="m258.27 207.73-7.604 17.383 11.95 1.086z" style="stroke:#ffaf37;stroke-width:2"/></g><g fill="none"><path d="M137.869 64.728c-6.64 47.71-21.469 154.242-28.169 202.352" style="stroke:#ffaf37;stroke-width:2"/><path d="m140.35 46.9-8.424 17.001 11.886 1.654z" style="stroke:#ffaf37;stroke-width:2"/></g><path fill="none" d="m358.19 425.56.71 140.89m-.8-158.89-5.91 18.03 12-.06z" style="stroke:#ffaf37;stroke-width:2"/><g fill="none"><path d="M167.788 61.53c22.49 30.52 55.532 75.37 78.052 105.93" style="stroke:#ffaf37;stroke-width:2"/><path d="m157.11 47.04 5.848 18.05 9.66-7.119z" style="stroke:#ffaf37;stroke-width:2"/></g><path fill="none" d="M277.575 224.107c18.73 37.78 52.045 104.933 70.815 142.773m-78.81-158.9 2.62 18.792 10.75-5.33z" style="stroke:#ffaf37;stroke-width:2"/></svg>