<?xml version="1.0" encoding="us-ascii" standalone="no"?><svg xmlns="http://www.w3.org/2000/svg" xmlns:xlink="http://www.w3.org/1999/xlink" contentStyleType="text/css" height="1732px" preserveAspectRatio="none" style="width:377px;height:1732px;" version="1.1" viewBox="0 0 377 1732" width="377px" zoomAndPan="magnify"><defs/><g><!--class github_resource--><g id="elem_github_resource"><rect codeLine="23" fill="#3D176E" height="39.7891" id="github_resource" rx="2.5" ry="2.5" style="stroke:#000D19;stroke-width:0.5;" width="176" x="7" y="438.76"/><ellipse cx="22" cy="458.6545" fill="#ADD1B2" rx="11" ry="11" style="stroke:#181818;stroke-width:1.0;"/><path d="M24.9688,464.2952 Q24.3906,464.592 23.75,464.7327 Q23.1094,464.8889 22.4063,464.8889 Q19.9063,464.8889 18.5781,463.2483 Q17.2656,461.592 17.2656,458.467 Q17.2656,455.342 18.5781,453.6858 Q19.9063,452.0295 22.4063,452.0295 Q23.1094,452.0295 23.75,452.1858 Q24.4063,452.342 24.9688,452.6389 L24.9688,455.3577 Q24.3438,454.7795 23.75,454.5139 Q23.1563,454.2327 22.5313,454.2327 Q21.1875,454.2327 20.5,455.3108 Q19.8125,456.3733 19.8125,458.467 Q19.8125,460.5608 20.5,461.6389 Q21.1875,462.7014 22.5313,462.7014 Q23.1563,462.7014 23.75,462.4358 Q24.3438,462.1545 24.9688,461.5764 L24.9688,464.2952 Z " fill="#000000"/><text fill="#D9B8FF" font-family="Helvetica" font-size="17" lengthAdjust="spacing" textLength="134" x="41" y="464.5398">github_resource</text></g><!--class github_user--><g id="elem_github_user"><rect codeLine="26" fill="#3D176E" height="1125.9609" id="github_user" rx="2.5" ry="2.5" style="stroke:#000D19;stroke-width:0.5;" width="235" x="12.5" y="599.55"/><ellipse cx="71.25" cy="619.4445" fill="#ADD1B2" rx="11" ry="11" style="stroke:#181818;stroke-width:1.0;"/><path d="M74.2188,625.0852 Q73.6406,625.382 73,625.5227 Q72.3594,625.6789 71.6563,625.6789 Q69.1563,625.6789 67.8281,624.0383 Q66.5156,622.382 66.5156,619.257 Q66.5156,616.132 67.8281,614.4758 Q69.1563,612.8195 71.6563,612.8195 Q72.3594,612.8195 73,612.9758 Q73.6563,613.132 74.2188,613.4289 L74.2188,616.1477 Q73.5938,615.5695 73,615.3039 Q72.4063,615.0227 71.7813,615.0227 Q70.4375,615.0227 69.75,616.1008 Q69.0625,617.1633 69.0625,619.257 Q69.0625,621.3508 69.75,622.4289 Q70.4375,623.4914 71.7813,623.4914 Q72.4063,623.4914 73,623.2258 Q73.5938,622.9445 74.2188,622.3664 L74.2188,625.0852 Z " fill="#000000"/><text fill="#D9B8FF" font-family="Helvetica" font-size="17" lengthAdjust="spacing" textLength="99" x="96.75" y="625.3298">github_user</text><line style="stroke:#000D19;stroke-width:0.5;" x1="13.5" x2="246.5" y1="639.3391" y2="639.3391"/><text fill="#D9B8FF" font-family="sans-serif" font-size="14" font-weight="bold" lengthAdjust="spacing" textLength="77" x="23.5" y="661.3342">avatar_url</text><text fill="#D9B8FF" font-family="sans-serif" font-size="14" lengthAdjust="spacing" textLength="48" x="100.5" y="661.3342">: string</text><text fill="#D9B8FF" font-family="sans-serif" font-size="14" font-weight="bold" lengthAdjust="spacing" textLength="24" x="23.5" y="687.6311">bio</text><text fill="#D9B8FF" font-family="sans-serif" font-size="14" lengthAdjust="spacing" textLength="48" x="47.5" y="687.6311">: string</text><text fill="#D9B8FF" font-family="sans-serif" font-size="14" font-weight="bold" lengthAdjust="spacing" textLength="34" x="23.5" y="713.9279">blog</text><text fill="#D9B8FF" font-family="sans-serif" font-size="14" lengthAdjust="spacing" textLength="48" x="57.5" y="713.9279">: string</text><text fill="#D9B8FF" font-family="sans-serif" font-size="14" font-weight="bold" lengthAdjust="spacing" textLength="104" x="23.5" y="740.2248">collaborators</text><text fill="#D9B8FF" font-family="sans-serif" font-size="14" lengthAdjust="spacing" textLength="44" x="127.5" y="740.2248">: int64</text><text fill="#D9B8FF" font-family="sans-serif" font-size="14" font-weight="bold" lengthAdjust="spacing" textLength="71" x="23.5" y="766.5217">company</text><text fill="#D9B8FF" font-family="sans-serif" font-size="14" lengthAdjust="spacing" textLength="48" x="94.5" y="766.5217">: string</text><text fill="#D9B8FF" font-family="sans-serif" font-size="14" font-weight="bold" lengthAdjust="spacing" textLength="105" x="23.5" y="792.8186">contributions</text><text fill="#D9B8FF" font-family="sans-serif" font-size="14" lengthAdjust="spacing" textLength="44" x="128.5" y="792.8186">: int64</text><text fill="#D9B8FF" font-family="sans-serif" font-size="14" font-weight="bold" lengthAdjust="spacing" textLength="83" x="23.5" y="819.1154">created_at</text><text fill="#D9B8FF" font-family="sans-serif" font-size="14" lengthAdjust="spacing" textLength="70" x="106.5" y="819.1154">: datetime</text><text fill="#D9B8FF" font-family="sans-serif" font-size="14" font-weight="bold" lengthAdjust="spacing" textLength="87" x="23.5" y="845.4123">disk_usage</text><text fill="#D9B8FF" font-family="sans-serif" font-size="14" lengthAdjust="spacing" textLength="44" x="110.5" y="845.4123">: int64</text><text fill="#D9B8FF" font-family="sans-serif" font-size="14" font-weight="bold" lengthAdjust="spacing" textLength="41" x="23.5" y="871.7092">email</text><text fill="#D9B8FF" font-family="sans-serif" font-size="14" lengthAdjust="spacing" textLength="48" x="64.5" y="871.7092">: string</text><text fill="#D9B8FF" font-family="sans-serif" font-size="14" font-weight="bold" lengthAdjust="spacing" textLength="82" x="23.5" y="898.0061">events_url</text><text fill="#D9B8FF" font-family="sans-serif" font-size="14" lengthAdjust="spacing" textLength="48" x="105.5" y="898.0061">: string</text><text fill="#D9B8FF" font-family="sans-serif" font-size="14" font-weight="bold" lengthAdjust="spacing" textLength="74" x="23.5" y="924.3029">followers</text><text fill="#D9B8FF" font-family="sans-serif" font-size="14" lengthAdjust="spacing" textLength="44" x="97.5" y="924.3029">: int64</text><text fill="#D9B8FF" font-family="sans-serif" font-size="14" font-weight="bold" lengthAdjust="spacing" textLength="102" x="23.5" y="950.5998">followers_url</text><text fill="#D9B8FF" font-family="sans-serif" font-size="14" lengthAdjust="spacing" textLength="48" x="125.5" y="950.5998">: string</text><text fill="#D9B8FF" font-family="sans-serif" font-size="14" font-weight="bold" lengthAdjust="spacing" textLength="72" x="23.5" y="976.8967">following</text><text fill="#D9B8FF" font-family="sans-serif" font-size="14" lengthAdjust="spacing" textLength="44" x="95.5" y="976.8967">: int64</text><text fill="#D9B8FF" font-family="sans-serif" font-size="14" font-weight="bold" lengthAdjust="spacing" textLength="100" x="23.5" y="1003.1936">following_url</text><text fill="#D9B8FF" font-family="sans-serif" font-size="14" lengthAdjust="spacing" textLength="48" x="123.5" y="1003.1936">: string</text><text fill="#D9B8FF" font-family="sans-serif" font-size="14" font-weight="bold" lengthAdjust="spacing" textLength="66" x="23.5" y="1029.4904">gists_url</text><text fill="#D9B8FF" font-family="sans-serif" font-size="14" lengthAdjust="spacing" textLength="48" x="89.5" y="1029.4904">: string</text><text fill="#D9B8FF" font-family="sans-serif" font-size="14" font-weight="bold" lengthAdjust="spacing" textLength="87" x="23.5" y="1055.7873">gravatar_id</text><text fill="#D9B8FF" font-family="sans-serif" font-size="14" lengthAdjust="spacing" textLength="48" x="110.5" y="1055.7873">: string</text><text fill="#D9B8FF" font-family="sans-serif" font-size="14" font-weight="bold" lengthAdjust="spacing" textLength="64" x="23.5" y="1082.0842">hireable</text><text fill="#D9B8FF" font-family="sans-serif" font-size="14" lengthAdjust="spacing" textLength="65" x="87.5" y="1082.0842">: boolean</text><text fill="#D9B8FF" font-family="sans-serif" font-size="14" font-weight="bold" lengthAdjust="spacing" textLength="62" x="23.5" y="1108.3811">html_url</text><text fill="#D9B8FF" font-family="sans-serif" font-size="14" lengthAdjust="spacing" textLength="48" x="85.5" y="1108.3811">: string</text><text fill="#D9B8FF" font-family="sans-serif" font-size="14" font-weight="bold" lengthAdjust="spacing" textLength="155" x="23.5" y="1134.6779">invitation_teams_url</text><text fill="#D9B8FF" font-family="sans-serif" font-size="14" lengthAdjust="spacing" textLength="48" x="178.5" y="1134.6779">: string</text><text fill="#D9B8FF" font-family="sans-serif" font-size="14" font-weight="bold" lengthAdjust="spacing" textLength="38" x="23.5" y="1160.9748">login</text><text fill="#D9B8FF" font-family="sans-serif" font-size="14" lengthAdjust="spacing" textLength="48" x="61.5" y="1160.9748">: string</text><text fill="#D9B8FF" font-family="sans-serif" font-size="14" font-weight="bold" lengthAdjust="spacing" textLength="61" x="23.5" y="1187.2717">node_id</text><text fill="#D9B8FF" font-family="sans-serif" font-size="14" lengthAdjust="spacing" textLength="44" x="84.5" y="1187.2717">: int64</text><text fill="#D9B8FF" font-family="sans-serif" font-size="14" font-weight="bold" lengthAdjust="spacing" textLength="135" x="23.5" y="1213.5686">organizations_url</text><text fill="#D9B8FF" font-family="sans-serif" font-size="14" lengthAdjust="spacing" textLength="48" x="158.5" y="1213.5686">: string</text><text fill="#D9B8FF" font-family="sans-serif" font-size="14" font-weight="bold" lengthAdjust="spacing" textLength="169" x="23.5" y="1239.8654">owned_private_repos</text><text fill="#D9B8FF" font-family="sans-serif" font-size="14" lengthAdjust="spacing" textLength="44" x="192.5" y="1239.8654">: int64</text><text fill="#D9B8FF" font-family="sans-serif" font-size="14" font-weight="bold" lengthAdjust="spacing" textLength="100" x="23.5" y="1266.1623">private_gists</text><text fill="#D9B8FF" font-family="sans-serif" font-size="14" lengthAdjust="spacing" textLength="44" x="123.5" y="1266.1623">: int64</text><text fill="#D9B8FF" font-family="sans-serif" font-size="14" font-weight="bold" lengthAdjust="spacing" textLength="92" x="23.5" y="1292.4592">public_gists</text><text fill="#D9B8FF" font-family="sans-serif" font-size="14" lengthAdjust="spacing" textLength="44" x="115.5" y="1292.4592">: int64</text><text fill="#D9B8FF" font-family="sans-serif" font-size="14" font-weight="bold" lengthAdjust="spacing" textLength="100" x="23.5" y="1318.7561">public_repos</text><text fill="#D9B8FF" font-family="sans-serif" font-size="14" lengthAdjust="spacing" textLength="44" x="123.5" y="1318.7561">: int64</text><text fill="#D9B8FF" font-family="sans-serif" font-size="14" font-weight="bold" lengthAdjust="spacing" textLength="158" x="23.5" y="1345.0529">received_events_url</text><text fill="#D9B8FF" font-family="sans-serif" font-size="14" lengthAdjust="spacing" textLength="48" x="181.5" y="1345.0529">: string</text><text fill="#D9B8FF" font-family="sans-serif" font-size="14" font-weight="bold" lengthAdjust="spacing" textLength="74" x="23.5" y="1371.3498">repos_url</text><text fill="#D9B8FF" font-family="sans-serif" font-size="14" lengthAdjust="spacing" textLength="48" x="97.5" y="1371.3498">: string</text><text fill="#D9B8FF" font-family="sans-serif" font-size="14" font-weight="bold" lengthAdjust="spacing" textLength="31" x="23.5" y="1397.6467">role</text><text fill="#D9B8FF" font-family="sans-serif" font-size="14" lengthAdjust="spacing" textLength="48" x="54.5" y="1397.6467">: string</text><text fill="#D9B8FF" font-family="sans-serif" font-size="14" font-weight="bold" lengthAdjust="spacing" textLength="83" x="23.5" y="1423.9436">site_admin</text><text fill="#D9B8FF" font-family="sans-serif" font-size="14" lengthAdjust="spacing" textLength="65" x="106.5" y="1423.9436">: boolean</text><text fill="#D9B8FF" font-family="sans-serif" font-size="14" font-weight="bold" lengthAdjust="spacing" textLength="86" x="23.5" y="1450.2404">starred_url</text><text fill="#D9B8FF" font-family="sans-serif" font-size="14" lengthAdjust="spacing" textLength="48" x="109.5" y="1450.2404">: string</text><text fill="#D9B8FF" font-family="sans-serif" font-size="14" font-weight="bold" lengthAdjust="spacing" textLength="135" x="23.5" y="1476.5373">subscriptions_url</text><text fill="#D9B8FF" font-family="sans-serif" font-size="14" lengthAdjust="spacing" textLength="48" x="158.5" y="1476.5373">: string</text><text fill="#D9B8FF" font-family="sans-serif" font-size="14" font-weight="bold" lengthAdjust="spacing" textLength="110" x="23.5" y="1502.8342">suspended_at</text><text fill="#D9B8FF" font-family="sans-serif" font-size="14" lengthAdjust="spacing" textLength="70" x="133.5" y="1502.8342">: datetime</text><text fill="#D9B8FF" font-family="sans-serif" font-size="14" font-weight="bold" lengthAdjust="spacing" textLength="91" x="23.5" y="1529.1311">team_count</text><text fill="#D9B8FF" font-family="sans-serif" font-size="14" lengthAdjust="spacing" textLength="44" x="114.5" y="1529.1311">: int64</text><text fill="#D9B8FF" font-family="sans-serif" font-size="14" font-weight="bold" lengthAdjust="spacing" textLength="150" x="23.5" y="1555.4279">total_private_repos</text><text fill="#D9B8FF" font-family="sans-serif" font-size="14" lengthAdjust="spacing" textLength="44" x="173.5" y="1555.4279">: int64</text><text fill="#D9B8FF" font-family="sans-serif" font-size="14" font-weight="bold" lengthAdjust="spacing" textLength="139" x="23.5" y="1581.7248">twitter_username</text><text fill="#D9B8FF" font-family="sans-serif" font-size="14" lengthAdjust="spacing" textLength="48" x="162.5" y="1581.7248">: string</text><text fill="#D9B8FF" font-family="sans-serif" font-size="14" font-weight="bold" lengthAdjust="spacing" textLength="87" x="23.5" y="1608.0217">updated_at</text><text fill="#D9B8FF" font-family="sans-serif" font-size="14" lengthAdjust="spacing" textLength="70" x="110.5" y="1608.0217">: datetime</text><text fill="#D9B8FF" font-family="sans-serif" font-size="14" font-weight="bold" lengthAdjust="spacing" textLength="21" x="23.5" y="1634.3186">url</text><text fill="#D9B8FF" font-family="sans-serif" font-size="14" lengthAdjust="spacing" textLength="48" x="44.5" y="1634.3186">: string</text><text fill="#D9B8FF" font-family="sans-serif" font-size="14" font-weight="bold" lengthAdjust="spacing" textLength="57" x="23.5" y="1660.6154">user_id</text><text fill="#D9B8FF" font-family="sans-serif" font-size="14" lengthAdjust="spacing" textLength="44" x="80.5" y="1660.6154">: int64</text><text fill="#D9B8FF" font-family="sans-serif" font-size="14" font-weight="bold" lengthAdjust="spacing" textLength="105" x="23.5" y="1686.9123">user_location</text><text fill="#D9B8FF" font-family="sans-serif" font-size="14" lengthAdjust="spacing" textLength="48" x="128.5" y="1686.9123">: string</text><text fill="#D9B8FF" font-family="sans-serif" font-size="14" font-weight="bold" lengthAdjust="spacing" textLength="78" x="23.5" y="1713.2092">user_type</text><text fill="#D9B8FF" font-family="sans-serif" font-size="14" lengthAdjust="spacing" textLength="48" x="101.5" y="1713.2092">: string</text></g><!--class resource--><g id="elem_resource"><rect codeLine="69" fill="#3D176E" height="310.7578" id="resource" rx="2.5" ry="2.5" style="stroke:#000D19;stroke-width:0.5;" width="227" x="143.5" y="7"/><ellipse cx="212.25" cy="26.8945" fill="#ADD1B2" rx="11" ry="11" style="stroke:#181818;stroke-width:1.0;"/><path d="M215.2188,32.5352 Q214.6406,32.832 214,32.9727 Q213.3594,33.1289 212.6563,33.1289 Q210.1563,33.1289 208.8281,31.4883 Q207.5156,29.832 207.5156,26.707 Q207.5156,23.582 208.8281,21.9258 Q210.1563,20.2695 212.6563,20.2695 Q213.3594,20.2695 214,20.4258 Q214.6563,20.582 215.2188,20.8789 L215.2188,23.5977 Q214.5938,23.0195 214,22.7539 Q213.4063,22.4727 212.7813,22.4727 Q211.4375,22.4727 210.75,23.5508 Q210.0625,24.6133 210.0625,26.707 Q210.0625,28.8008 210.75,29.8789 Q211.4375,30.9414 212.7813,30.9414 Q213.4063,30.9414 214,30.6758 Q214.5938,30.3945 215.2188,29.8164 L215.2188,32.5352 Z " fill="#000000"/><text fill="#D9B8FF" font-family="Helvetica" font-size="17" lengthAdjust="spacing" textLength="71" x="237.75" y="32.7798">resource</text><line style="stroke:#000D19;stroke-width:0.5;" x1="144.5" x2="369.5" y1="46.7891" y2="46.7891"/><text fill="#D9B8FF" font-family="sans-serif" font-size="14" font-weight="bold" lengthAdjust="spacing" textLength="29" x="154.5" y="68.7842">age</text><text fill="#D9B8FF" font-family="sans-serif" font-size="14" lengthAdjust="spacing" textLength="66" x="183.5" y="68.7842">: duration</text><text fill="#D9B8FF" font-family="sans-serif" font-size="14" font-weight="bold" lengthAdjust="spacing" textLength="43" x="154.5" y="95.0811">atime</text><text fill="#D9B8FF" font-family="sans-serif" font-size="14" lengthAdjust="spacing" textLength="70" x="197.5" y="95.0811">: datetime</text><text fill="#D9B8FF" font-family="sans-serif" font-size="14" font-weight="bold" lengthAdjust="spacing" textLength="43" x="154.5" y="121.3779">ctime</text><text fill="#D9B8FF" font-family="sans-serif" font-size="14" lengthAdjust="spacing" textLength="70" x="197.5" y="121.3779">: datetime</text><text fill="#D9B8FF" font-family="sans-serif" font-size="14" font-weight="bold" lengthAdjust="spacing" textLength="14" x="154.5" y="147.6748">id</text><text fill="#D9B8FF" font-family="sans-serif" font-size="14" lengthAdjust="spacing" textLength="48" x="168.5" y="147.6748">: string</text><text fill="#D9B8FF" font-family="sans-serif" font-size="14" font-weight="bold" lengthAdjust="spacing" textLength="33" x="154.5" y="173.9717">kind</text><text fill="#D9B8FF" font-family="sans-serif" font-size="14" lengthAdjust="spacing" textLength="48" x="187.5" y="173.9717">: string</text><text fill="#D9B8FF" font-family="sans-serif" font-size="14" font-weight="bold" lengthAdjust="spacing" textLength="90" x="154.5" y="200.2686">last_access</text><text fill="#D9B8FF" font-family="sans-serif" font-size="14" lengthAdjust="spacing" textLength="66" x="244.5" y="200.2686">: duration</text><text fill="#D9B8FF" font-family="sans-serif" font-size="14" font-weight="bold" lengthAdjust="spacing" textLength="90" x="154.5" y="226.5654">last_update</text><text fill="#D9B8FF" font-family="sans-serif" font-size="14" lengthAdjust="spacing" textLength="66" x="244.5" y="226.5654">: duration</text><text fill="#D9B8FF" font-family="sans-serif" font-size="14" font-weight="bold" lengthAdjust="spacing" textLength="48" x="154.5" y="252.8623">mtime</text><text fill="#D9B8FF" font-family="sans-serif" font-size="14" lengthAdjust="spacing" textLength="70" x="202.5" y="252.8623">: datetime</text><text fill="#D9B8FF" font-family="sans-serif" font-size="14" font-weight="bold" lengthAdjust="spacing" textLength="43" x="154.5" y="279.1592">name</text><text fill="#D9B8FF" font-family="sans-serif" font-size="14" lengthAdjust="spacing" textLength="48" x="197.5" y="279.1592">: string</text><text fill="#D9B8FF" font-family="sans-serif" font-size="14" font-weight="bold" lengthAdjust="spacing" textLength="34" x="154.5" y="305.4561">tags</text><text fill="#D9B8FF" font-family="sans-serif" font-size="14" lengthAdjust="spacing" textLength="171" x="188.5" y="305.4561">: dictionary[string, string]</text></g><!--class user--><g id="elem_user"><rect codeLine="81" fill="#3D176E" height="39.7891" id="user" rx="2.5" ry="2.5" style="stroke:#000D19;stroke-width:0.5;" width="78" x="218" y="438.76"/><ellipse cx="233" cy="458.6545" fill="#ADD1B2" rx="11" ry="11" style="stroke:#181818;stroke-width:1.0;"/><path d="M235.9688,464.2952 Q235.3906,464.592 234.75,464.7327 Q234.1094,464.8889 233.4063,464.8889 Q230.9063,464.8889 229.5781,463.2483 Q228.2656,461.592 228.2656,458.467 Q228.2656,455.342 229.5781,453.6858 Q230.9063,452.0295 233.4063,452.0295 Q234.1094,452.0295 234.75,452.1858 Q235.4063,452.342 235.9688,452.6389 L235.9688,455.3577 Q235.3438,454.7795 234.75,454.5139 Q234.1563,454.2327 233.5313,454.2327 Q232.1875,454.2327 231.5,455.3108 Q230.8125,456.3733 230.8125,458.467 Q230.8125,460.5608 231.5,461.6389 Q232.1875,462.7014 233.5313,462.7014 Q234.1563,462.7014 234.75,462.4358 Q235.3438,462.1545 235.9688,461.5764 L235.9688,464.2952 Z " fill="#000000"/><text fill="#D9B8FF" font-family="Helvetica" font-size="17" lengthAdjust="spacing" textLength="36" x="252" y="464.5398">user</text></g><!--reverse link github_resource to github_user--><g id="link_github_resource_github_user"><path codeLine="84" d="M96.8489,496.7675 C98.0189,520.1675 99.28,545.4 101.96,599.15 " fill="none" id="github_resource-backto-github_user" style="stroke:#FFAF37;stroke-width:2.0;"/><polygon fill="none" points="95.95,478.79,90.8564,497.0672,102.8414,496.4679,95.95,478.79" style="stroke:#FFAF37;stroke-width:2.0;"/></g><!--reverse link user to github_user--><g id="link_user_github_user"><path codeLine="85" d="M250.3307,496.5016 C246.0907,519.9016 241.49,545.4 231.76,599.15 " fill="none" id="user-backto-github_user" style="stroke:#FFAF37;stroke-width:2.0;"/><polygon fill="none" points="253.54,478.79,244.4269,495.4318,256.2346,497.5714,253.54,478.79" style="stroke:#FFAF37;stroke-width:2.0;"/></g><!--reverse link resource to user--><g id="link_resource_user"><path codeLine="86" d="M257,335.84 C257,384.13 257,413.37 257,438.67 " fill="none" id="resource-backto-user" style="stroke:#FFAF37;stroke-width:2.0;"/><polygon fill="none" points="257,317.84,251,335.84,263,335.84,257,317.84" style="stroke:#FFAF37;stroke-width:2.0;"/></g><!--SRC=[XLLDRzim3BtdLnZOBLY1TjtwCUpI5HYsIp6ikmr3G4kqGyIM38fEa7RxxwFj9BEbfBt5xpsHZnIfBCbYXdKZswp6EaSEix0Yrm13dTqn-yszhpndRue2YilhcFpYdRmgU80QiwzOhL78GApukIIpSXX2zcv4VGQpAjctpWxXXS45fT39I7LVGGXt8anvApWoOs_pcwA8bN7GDvVsuleA4vbdYxoJd9-VsulRMF9ggXVhFYWUwGcpYt7J7hnWOZD9qQjUTDafHYQJGlVyIO_VmLfoPVPXXFqOFB53dk2FIx1-qwaBgC8uJH1azB9jy3wf2czlR75zLFpjb7XckjPb9ScopHUCmRTiC7kUpVvEgJQen-VPV0vh4E15ozLy_b5JiDfKE2S__QvyEG6Choh8FODu3Xr3JgxUzqJTWDj6OZVC87at5JE2e5s0TAZLtq8rAc4fhDGab3YMOmqqzObhdVYGs2_KdT_WrDa1F27NtwbSmKHUKZYIi-HTBybEy2LfaNdL5v9xNo6u3fMwIaAGMvD0rwM58DHf3hq5SXF4UOkxZ7lZdajmzDJ7IKFuZTE6Dqng5dL46ZzfqfxeQvmGRLwHEOadWHWDqbfJdRYY_a2A-g5H1o2GcW5R3sN_xr_GJhD6ZmE4DW-6gJbUV6X3WyuUcxYkuGkZAoNZAiGBLAUx9HiItSf-dPm-5PDaRMEF3tVigZiTtM4FLTxqbvYAkqTWXEwNUxJmkjd3xjYM-o0TqkMFl9WZM3J0-W1D0Sqb2p16_vIY33qpr1qnzP4yISS4oY4YcUuOyFRNmBtTQNuVIjqzOFeTFtQV_foTdOtVkLclJU7eH8_z0m00]--></g></svg>