<?xml version="1.0" encoding="us-ascii" standalone="no"?><svg xmlns="http://www.w3.org/2000/svg" xmlns:xlink="http://www.w3.org/1999/xlink" contentStyleType="text/css" height="1666px" preserveAspectRatio="none" style="width:483px;height:1666px;" version="1.1" viewBox="0 0 483 1666" width="483px" zoomAndPan="magnify"><defs/><g><!--class azure_access_policy--><g id="elem_azure_access_policy"><rect codeLine="23" fill="#3D176E" height="126.6797" id="azure_access_policy" rx="2.5" ry="2.5" style="stroke:#000D19;stroke-width:0.5;" width="206" x="136" y="1533.14"/><ellipse cx="151" cy="1553.0345" fill="#ADD1B2" rx="11" ry="11" style="stroke:#181818;stroke-width:1.0;"/><path d="M153.9688,1558.6752 Q153.3906,1558.972 152.75,1559.1127 Q152.1094,1559.2689 151.4063,1559.2689 Q148.9063,1559.2689 147.5781,1557.6283 Q146.2656,1555.972 146.2656,1552.847 Q146.2656,1549.722 147.5781,1548.0658 Q148.9063,1546.4095 151.4063,1546.4095 Q152.1094,1546.4095 152.75,1546.5658 Q153.4063,1546.722 153.9688,1547.0189 L153.9688,1549.7377 Q153.3438,1549.1595 152.75,1548.8939 Q152.1563,1548.6127 151.5313,1548.6127 Q150.1875,1548.6127 149.5,1549.6908 Q148.8125,1550.7533 148.8125,1552.847 Q148.8125,1554.9408 149.5,1556.0189 Q150.1875,1557.0814 151.5313,1557.0814 Q152.1563,1557.0814 152.75,1556.8158 Q153.3438,1556.5345 153.9688,1555.9564 L153.9688,1558.6752 Z " fill="#000000"/><text fill="#D9B8FF" font-family="Helvetica" font-size="17" lengthAdjust="spacing" textLength="164" x="170" y="1558.9198">azure_access_policy</text><line style="stroke:#000D19;stroke-width:0.5;" x1="137" x2="341" y1="1572.9291" y2="1572.9291"/><text fill="#D9B8FF" font-family="sans-serif" font-size="14" font-weight="bold" lengthAdjust="spacing" textLength="90" x="147" y="1594.9242">expiry_time</text><text fill="#D9B8FF" font-family="sans-serif" font-size="14" lengthAdjust="spacing" textLength="70" x="237" y="1594.9242">: datetime</text><text fill="#D9B8FF" font-family="sans-serif" font-size="14" font-weight="bold" lengthAdjust="spacing" textLength="87" x="147" y="1621.2211">permission</text><text fill="#D9B8FF" font-family="sans-serif" font-size="14" lengthAdjust="spacing" textLength="48" x="234" y="1621.2211">: string</text><text fill="#D9B8FF" font-family="sans-serif" font-size="14" font-weight="bold" lengthAdjust="spacing" textLength="78" x="147" y="1647.5179">start_time</text><text fill="#D9B8FF" font-family="sans-serif" font-size="14" lengthAdjust="spacing" textLength="70" x="225" y="1647.5179">: datetime</text></g><!--class azure_signed_identifier--><g id="elem_azure_signed_identifier"><rect codeLine="28" fill="#3D176E" height="100.3828" id="azure_signed_identifier" rx="2.5" ry="2.5" style="stroke:#000D19;stroke-width:0.5;" width="280" x="99" y="1372.76"/><ellipse cx="133.8" cy="1392.6545" fill="#ADD1B2" rx="11" ry="11" style="stroke:#181818;stroke-width:1.0;"/><path d="M136.7688,1398.2952 Q136.1906,1398.592 135.55,1398.7327 Q134.9094,1398.8889 134.2063,1398.8889 Q131.7063,1398.8889 130.3781,1397.2483 Q129.0656,1395.592 129.0656,1392.467 Q129.0656,1389.342 130.3781,1387.6858 Q131.7063,1386.0295 134.2063,1386.0295 Q134.9094,1386.0295 135.55,1386.1858 Q136.2063,1386.342 136.7688,1386.6389 L136.7688,1389.3577 Q136.1438,1388.7795 135.55,1388.5139 Q134.9563,1388.2327 134.3313,1388.2327 Q132.9875,1388.2327 132.3,1389.3108 Q131.6125,1390.3733 131.6125,1392.467 Q131.6125,1394.5608 132.3,1395.6389 Q132.9875,1396.7014 134.3313,1396.7014 Q134.9563,1396.7014 135.55,1396.4358 Q136.1438,1396.1545 136.7688,1395.5764 L136.7688,1398.2952 Z " fill="#000000"/><text fill="#D9B8FF" font-family="Helvetica" font-size="17" lengthAdjust="spacing" textLength="194" x="157.2" y="1398.5398">azure_signed_identifier</text><line style="stroke:#000D19;stroke-width:0.5;" x1="100" x2="378" y1="1412.5491" y2="1412.5491"/><text fill="#D9B8FF" font-family="sans-serif" font-size="14" font-weight="bold" lengthAdjust="spacing" textLength="108" x="110" y="1434.5442">access_policy</text><text fill="#D9B8FF" font-family="sans-serif" font-size="14" lengthAdjust="spacing" textLength="150" x="218" y="1434.5442">: azure_access_policy</text><text fill="#D9B8FF" font-family="sans-serif" font-size="14" font-weight="bold" lengthAdjust="spacing" textLength="14" x="110" y="1460.8411">id</text><text fill="#D9B8FF" font-family="sans-serif" font-size="14" lengthAdjust="spacing" textLength="48" x="124" y="1460.8411">: string</text></g><!--class azure_storage_file_share--><g id="elem_azure_storage_file_share"><rect codeLine="32" fill="#3D176E" height="547.4297" id="azure_storage_file_share" rx="2.5" ry="2.5" style="stroke:#000D19;stroke-width:0.5;" width="371" x="53.5" y="765.33"/><ellipse cx="126.25" cy="785.2245" fill="#ADD1B2" rx="11" ry="11" style="stroke:#181818;stroke-width:1.0;"/><path d="M129.2188,790.8652 Q128.6406,791.162 128,791.3027 Q127.3594,791.4589 126.6563,791.4589 Q124.1563,791.4589 122.8281,789.8183 Q121.5156,788.162 121.5156,785.037 Q121.5156,781.912 122.8281,780.2558 Q124.1563,778.5995 126.6563,778.5995 Q127.3594,778.5995 128,778.7558 Q128.6563,778.912 129.2188,779.2089 L129.2188,781.9277 Q128.5938,781.3495 128,781.0839 Q127.4063,780.8027 126.7813,780.8027 Q125.4375,780.8027 124.75,781.8808 Q124.0625,782.9433 124.0625,785.037 Q124.0625,787.1308 124.75,788.2089 Q125.4375,789.2714 126.7813,789.2714 Q127.4063,789.2714 128,789.0058 Q128.5938,788.7245 129.2188,788.1464 L129.2188,790.8652 Z " fill="#000000"/><text fill="#D9B8FF" font-family="Helvetica" font-size="17" lengthAdjust="spacing" textLength="207" x="151.75" y="791.1098">azure_storage_file_share</text><line style="stroke:#000D19;stroke-width:0.5;" x1="54.5" x2="423.5" y1="805.1191" y2="805.1191"/><text fill="#D9B8FF" font-family="sans-serif" font-size="14" font-weight="bold" lengthAdjust="spacing" textLength="89" x="64.5" y="827.1142">access_tier</text><text fill="#D9B8FF" font-family="sans-serif" font-size="14" lengthAdjust="spacing" textLength="48" x="153.5" y="827.1142">: string</text><text fill="#D9B8FF" font-family="sans-serif" font-size="14" font-weight="bold" lengthAdjust="spacing" textLength="195" x="64.5" y="853.4111">access_tier_change_time</text><text fill="#D9B8FF" font-family="sans-serif" font-size="14" lengthAdjust="spacing" textLength="70" x="259.5" y="853.4111">: datetime</text><text fill="#D9B8FF" font-family="sans-serif" font-size="14" font-weight="bold" lengthAdjust="spacing" textLength="145" x="64.5" y="879.7079">access_tier_status</text><text fill="#D9B8FF" font-family="sans-serif" font-size="14" lengthAdjust="spacing" textLength="48" x="209.5" y="879.7079">: string</text><text fill="#D9B8FF" font-family="sans-serif" font-size="14" font-weight="bold" lengthAdjust="spacing" textLength="60" x="64.5" y="906.0048">deleted</text><text fill="#D9B8FF" font-family="sans-serif" font-size="14" lengthAdjust="spacing" textLength="65" x="124.5" y="906.0048">: boolean</text><text fill="#D9B8FF" font-family="sans-serif" font-size="14" font-weight="bold" lengthAdjust="spacing" textLength="101" x="64.5" y="932.3017">deleted_time</text><text fill="#D9B8FF" font-family="sans-serif" font-size="14" lengthAdjust="spacing" textLength="70" x="165.5" y="932.3017">: datetime</text><text fill="#D9B8FF" font-family="sans-serif" font-size="14" font-weight="bold" lengthAdjust="spacing" textLength="145" x="64.5" y="958.5986">enabled_protocols</text><text fill="#D9B8FF" font-family="sans-serif" font-size="14" lengthAdjust="spacing" textLength="48" x="209.5" y="958.5986">: string</text><text fill="#D9B8FF" font-family="sans-serif" font-size="14" font-weight="bold" lengthAdjust="spacing" textLength="156" x="64.5" y="984.8954">file_share_metadata</text><text fill="#D9B8FF" font-family="sans-serif" font-size="14" lengthAdjust="spacing" textLength="171" x="220.5" y="984.8954">: dictionary[string, string]</text><text fill="#D9B8FF" font-family="sans-serif" font-size="14" font-weight="bold" lengthAdjust="spacing" textLength="171" x="64.5" y="1011.1923">file_signed_identifiers</text><text fill="#D9B8FF" font-family="sans-serif" font-size="14" lengthAdjust="spacing" textLength="178" x="235.5" y="1011.1923">: azure_signed_identifier[]</text><text fill="#D9B8FF" font-family="sans-serif" font-size="14" font-weight="bold" lengthAdjust="spacing" textLength="144" x="64.5" y="1037.4892">last_modified_time</text><text fill="#D9B8FF" font-family="sans-serif" font-size="14" lengthAdjust="spacing" textLength="70" x="208.5" y="1037.4892">: datetime</text><text fill="#D9B8FF" font-family="sans-serif" font-size="14" font-weight="bold" lengthAdjust="spacing" textLength="115" x="64.5" y="1063.7861">lease_duration</text><text fill="#D9B8FF" font-family="sans-serif" font-size="14" lengthAdjust="spacing" textLength="48" x="179.5" y="1063.7861">: string</text><text fill="#D9B8FF" font-family="sans-serif" font-size="14" font-weight="bold" lengthAdjust="spacing" textLength="89" x="64.5" y="1090.0829">lease_state</text><text fill="#D9B8FF" font-family="sans-serif" font-size="14" lengthAdjust="spacing" textLength="48" x="153.5" y="1090.0829">: string</text><text fill="#D9B8FF" font-family="sans-serif" font-size="14" font-weight="bold" lengthAdjust="spacing" textLength="98" x="64.5" y="1116.3798">lease_status</text><text fill="#D9B8FF" font-family="sans-serif" font-size="14" lengthAdjust="spacing" textLength="48" x="162.5" y="1116.3798">: string</text><text fill="#D9B8FF" font-family="sans-serif" font-size="14" font-weight="bold" lengthAdjust="spacing" textLength="202" x="64.5" y="1142.6767">remaining_retention_days</text><text fill="#D9B8FF" font-family="sans-serif" font-size="14" lengthAdjust="spacing" textLength="44" x="266.5" y="1142.6767">: int64</text><text fill="#D9B8FF" font-family="sans-serif" font-size="14" font-weight="bold" lengthAdjust="spacing" textLength="97" x="64.5" y="1168.9736">root_squash</text><text fill="#D9B8FF" font-family="sans-serif" font-size="14" lengthAdjust="spacing" textLength="48" x="161.5" y="1168.9736">: string</text><text fill="#D9B8FF" font-family="sans-serif" font-size="14" font-weight="bold" lengthAdjust="spacing" textLength="97" x="64.5" y="1195.2704">share_quota</text><text fill="#D9B8FF" font-family="sans-serif" font-size="14" lengthAdjust="spacing" textLength="44" x="161.5" y="1195.2704">: int64</text><text fill="#D9B8FF" font-family="sans-serif" font-size="14" font-weight="bold" lengthAdjust="spacing" textLength="151" x="64.5" y="1221.5673">share_usage_bytes</text><text fill="#D9B8FF" font-family="sans-serif" font-size="14" lengthAdjust="spacing" textLength="44" x="215.5" y="1221.5673">: int64</text><text fill="#D9B8FF" font-family="sans-serif" font-size="14" font-weight="bold" lengthAdjust="spacing" textLength="114" x="64.5" y="1247.8642">snapshot_time</text><text fill="#D9B8FF" font-family="sans-serif" font-size="14" lengthAdjust="spacing" textLength="70" x="178.5" y="1247.8642">: datetime</text><text fill="#D9B8FF" font-family="sans-serif" font-size="14" font-weight="bold" lengthAdjust="spacing" textLength="35" x="64.5" y="1274.1611">type</text><text fill="#D9B8FF" font-family="sans-serif" font-size="14" lengthAdjust="spacing" textLength="48" x="99.5" y="1274.1611">: string</text><text fill="#D9B8FF" font-family="sans-serif" font-size="14" font-weight="bold" lengthAdjust="spacing" textLength="59" x="64.5" y="1300.4579">version</text><text fill="#D9B8FF" font-family="sans-serif" font-size="14" lengthAdjust="spacing" textLength="48" x="123.5" y="1300.4579">: string</text></g><!--class microsoft_resource--><g id="elem_microsoft_resource"><rect codeLine="53" fill="#3D176E" height="100.3828" id="microsoft_resource" rx="2.5" ry="2.5" style="stroke:#000D19;stroke-width:0.5;" width="214" x="7" y="491.35"/><ellipse cx="28.3" cy="511.2445" fill="#ADD1B2" rx="11" ry="11" style="stroke:#181818;stroke-width:1.0;"/><path d="M31.2688,516.8852 Q30.6906,517.182 30.05,517.3227 Q29.4094,517.4789 28.7063,517.4789 Q26.2063,517.4789 24.8781,515.8383 Q23.5656,514.182 23.5656,511.057 Q23.5656,507.932 24.8781,506.2758 Q26.2063,504.6195 28.7063,504.6195 Q29.4094,504.6195 30.05,504.7758 Q30.7063,504.932 31.2688,505.2289 L31.2688,507.9477 Q30.6438,507.3695 30.05,507.1039 Q29.4563,506.8227 28.8313,506.8227 Q27.4875,506.8227 26.8,507.9008 Q26.1125,508.9633 26.1125,511.057 Q26.1125,513.1508 26.8,514.2289 Q27.4875,515.2914 28.8313,515.2914 Q29.4563,515.2914 30.05,515.0258 Q30.6438,514.7445 31.2688,514.1664 L31.2688,516.8852 Z " fill="#000000"/><text fill="#D9B8FF" font-family="Helvetica" font-size="17" lengthAdjust="spacing" textLength="158" x="48.7" y="517.1298">microsoft_resource</text><line style="stroke:#000D19;stroke-width:0.5;" x1="8" x2="220" y1="531.1391" y2="531.1391"/><text fill="#D9B8FF" font-family="sans-serif" font-size="14" font-weight="bold" lengthAdjust="spacing" textLength="35" x="18" y="553.1342">etag</text><text fill="#D9B8FF" font-family="sans-serif" font-size="14" lengthAdjust="spacing" textLength="48" x="53" y="553.1342">: string</text><text fill="#D9B8FF" font-family="sans-serif" font-size="14" font-weight="bold" lengthAdjust="spacing" textLength="144" x="18" y="579.4311">provisioning_state</text><text fill="#D9B8FF" font-family="sans-serif" font-size="14" lengthAdjust="spacing" textLength="48" x="162" y="579.4311">: string</text></g><!--class network_share--><g id="elem_network_share"><rect codeLine="57" fill="#3D176E" height="205.5703" id="network_share" rx="2.5" ry="2.5" style="stroke:#000D19;stroke-width:0.5;" width="220" x="256" y="438.76"/><ellipse cx="294.85" cy="458.6545" fill="#ADD1B2" rx="11" ry="11" style="stroke:#181818;stroke-width:1.0;"/><path d="M297.8188,464.2952 Q297.2406,464.592 296.6,464.7327 Q295.9594,464.8889 295.2563,464.8889 Q292.7563,464.8889 291.4281,463.2483 Q290.1156,461.592 290.1156,458.467 Q290.1156,455.342 291.4281,453.6858 Q292.7563,452.0295 295.2563,452.0295 Q295.9594,452.0295 296.6,452.1858 Q297.2563,452.342 297.8188,452.6389 L297.8188,455.3577 Q297.1938,454.7795 296.6,454.5139 Q296.0063,454.2327 295.3813,454.2327 Q294.0375,454.2327 293.35,455.3108 Q292.6625,456.3733 292.6625,458.467 Q292.6625,460.5608 293.35,461.6389 Q294.0375,462.7014 295.3813,462.7014 Q296.0063,462.7014 296.6,462.4358 Q297.1938,462.1545 297.8188,461.5764 L297.8188,464.2952 Z " fill="#000000"/><text fill="#D9B8FF" font-family="Helvetica" font-size="17" lengthAdjust="spacing" textLength="125" x="319.15" y="464.5398">network_share</text><line style="stroke:#000D19;stroke-width:0.5;" x1="257" x2="475" y1="478.5491" y2="478.5491"/><text fill="#D9B8FF" font-family="sans-serif" font-size="14" font-weight="bold" lengthAdjust="spacing" textLength="133" x="267" y="500.5442">share_encrypted</text><text fill="#D9B8FF" font-family="sans-serif" font-size="14" lengthAdjust="spacing" textLength="65" x="400" y="500.5442">: boolean</text><text fill="#D9B8FF" font-family="sans-serif" font-size="14" font-weight="bold" lengthAdjust="spacing" textLength="85" x="267" y="526.8411">share_iops</text><text fill="#D9B8FF" font-family="sans-serif" font-size="14" lengthAdjust="spacing" textLength="44" x="352" y="526.8411">: int64</text><text fill="#D9B8FF" font-family="sans-serif" font-size="14" font-weight="bold" lengthAdjust="spacing" textLength="84" x="267" y="553.1379">share_size</text><text fill="#D9B8FF" font-family="sans-serif" font-size="14" lengthAdjust="spacing" textLength="44" x="351" y="553.1379">: int64</text><text fill="#D9B8FF" font-family="sans-serif" font-size="14" font-weight="bold" lengthAdjust="spacing" textLength="101" x="267" y="579.4348">share_status</text><text fill="#D9B8FF" font-family="sans-serif" font-size="14" lengthAdjust="spacing" textLength="48" x="368" y="579.4348">: string</text><text fill="#D9B8FF" font-family="sans-serif" font-size="14" font-weight="bold" lengthAdjust="spacing" textLength="141" x="267" y="605.7317">share_throughput</text><text fill="#D9B8FF" font-family="sans-serif" font-size="14" lengthAdjust="spacing" textLength="57" x="408" y="605.7317">: double</text><text fill="#D9B8FF" font-family="sans-serif" font-size="14" font-weight="bold" lengthAdjust="spacing" textLength="87" x="267" y="632.0286">share_type</text><text fill="#D9B8FF" font-family="sans-serif" font-size="14" lengthAdjust="spacing" textLength="48" x="354" y="632.0286">: string</text></g><!--class resource--><g id="elem_resource"><rect codeLine="65" fill="#3D176E" height="310.7578" id="resource" rx="2.5" ry="2.5" style="stroke:#000D19;stroke-width:0.5;" width="227" x="125.5" y="7"/><ellipse cx="194.25" cy="26.8945" fill="#ADD1B2" rx="11" ry="11" style="stroke:#181818;stroke-width:1.0;"/><path d="M197.2188,32.5352 Q196.6406,32.832 196,32.9727 Q195.3594,33.1289 194.6563,33.1289 Q192.1563,33.1289 190.8281,31.4883 Q189.5156,29.832 189.5156,26.707 Q189.5156,23.582 190.8281,21.9258 Q192.1563,20.2695 194.6563,20.2695 Q195.3594,20.2695 196,20.4258 Q196.6563,20.582 197.2188,20.8789 L197.2188,23.5977 Q196.5938,23.0195 196,22.7539 Q195.4063,22.4727 194.7813,22.4727 Q193.4375,22.4727 192.75,23.5508 Q192.0625,24.6133 192.0625,26.707 Q192.0625,28.8008 192.75,29.8789 Q193.4375,30.9414 194.7813,30.9414 Q195.4063,30.9414 196,30.6758 Q196.5938,30.3945 197.2188,29.8164 L197.2188,32.5352 Z " fill="#000000"/><text fill="#D9B8FF" font-family="Helvetica" font-size="17" lengthAdjust="spacing" textLength="71" x="219.75" y="32.7798">resource</text><line style="stroke:#000D19;stroke-width:0.5;" x1="126.5" x2="351.5" y1="46.7891" y2="46.7891"/><text fill="#D9B8FF" font-family="sans-serif" font-size="14" font-weight="bold" lengthAdjust="spacing" textLength="29" x="136.5" y="68.7842">age</text><text fill="#D9B8FF" font-family="sans-serif" font-size="14" lengthAdjust="spacing" textLength="66" x="165.5" y="68.7842">: duration</text><text fill="#D9B8FF" font-family="sans-serif" font-size="14" font-weight="bold" lengthAdjust="spacing" textLength="43" x="136.5" y="95.0811">atime</text><text fill="#D9B8FF" font-family="sans-serif" font-size="14" lengthAdjust="spacing" textLength="70" x="179.5" y="95.0811">: datetime</text><text fill="#D9B8FF" font-family="sans-serif" font-size="14" font-weight="bold" lengthAdjust="spacing" textLength="43" x="136.5" y="121.3779">ctime</text><text fill="#D9B8FF" font-family="sans-serif" font-size="14" lengthAdjust="spacing" textLength="70" x="179.5" y="121.3779">: datetime</text><text fill="#D9B8FF" font-family="sans-serif" font-size="14" font-weight="bold" lengthAdjust="spacing" textLength="14" x="136.5" y="147.6748">id</text><text fill="#D9B8FF" font-family="sans-serif" font-size="14" lengthAdjust="spacing" textLength="48" x="150.5" y="147.6748">: string</text><text fill="#D9B8FF" font-family="sans-serif" font-size="14" font-weight="bold" lengthAdjust="spacing" textLength="33" x="136.5" y="173.9717">kind</text><text fill="#D9B8FF" font-family="sans-serif" font-size="14" lengthAdjust="spacing" textLength="48" x="169.5" y="173.9717">: string</text><text fill="#D9B8FF" font-family="sans-serif" font-size="14" font-weight="bold" lengthAdjust="spacing" textLength="90" x="136.5" y="200.2686">last_access</text><text fill="#D9B8FF" font-family="sans-serif" font-size="14" lengthAdjust="spacing" textLength="66" x="226.5" y="200.2686">: duration</text><text fill="#D9B8FF" font-family="sans-serif" font-size="14" font-weight="bold" lengthAdjust="spacing" textLength="90" x="136.5" y="226.5654">last_update</text><text fill="#D9B8FF" font-family="sans-serif" font-size="14" lengthAdjust="spacing" textLength="66" x="226.5" y="226.5654">: duration</text><text fill="#D9B8FF" font-family="sans-serif" font-size="14" font-weight="bold" lengthAdjust="spacing" textLength="48" x="136.5" y="252.8623">mtime</text><text fill="#D9B8FF" font-family="sans-serif" font-size="14" lengthAdjust="spacing" textLength="70" x="184.5" y="252.8623">: datetime</text><text fill="#D9B8FF" font-family="sans-serif" font-size="14" font-weight="bold" lengthAdjust="spacing" textLength="43" x="136.5" y="279.1592">name</text><text fill="#D9B8FF" font-family="sans-serif" font-size="14" lengthAdjust="spacing" textLength="48" x="179.5" y="279.1592">: string</text><text fill="#D9B8FF" font-family="sans-serif" font-size="14" font-weight="bold" lengthAdjust="spacing" textLength="34" x="136.5" y="305.4561">tags</text><text fill="#D9B8FF" font-family="sans-serif" font-size="14" lengthAdjust="spacing" textLength="171" x="170.5" y="305.4561">: dictionary[string, string]</text></g><!--link azure_signed_identifier to azure_access_policy--><g id="link_azure_signed_identifier_azure_access_policy"><path codeLine="77" d="M239,1473.56 C239,1492.07 239,1507.32 239,1526.84 " fill="none" id="azure_signed_identifier-to-azure_access_policy" style="stroke:#FFAF37;stroke-width:2.0;"/><polygon fill="#FFAF37" points="239,1532.84,243,1523.84,239,1527.84,235,1523.84,239,1532.84" style="stroke:#FFAF37;stroke-width:2.0;"/></g><!--link azure_storage_file_share to azure_signed_identifier--><g id="link_azure_storage_file_share_azure_signed_identifier"><path codeLine="78" d="M239,1313.02 C239,1335.11 239,1349.39 239,1366.31 " fill="none" id="azure_storage_file_share-to-azure_signed_identifier" style="stroke:#FFAF37;stroke-width:2.0;"/><polygon fill="#FFAF37" points="239,1372.31,243,1363.31,239,1367.31,235,1363.31,239,1372.31" style="stroke:#FFAF37;stroke-width:2.0;"/></g><!--reverse link microsoft_resource to azure_storage_file_share--><g id="link_microsoft_resource_azure_storage_file_share"><path codeLine="79" d="M130.8436,609.313 C141.4836,651.483 153.3,698.32 170.14,765.08 " fill="none" id="microsoft_resource-backto-azure_storage_file_share" style="stroke:#FFAF37;stroke-width:2.0;"/><polygon fill="none" points="126.44,591.86,125.0259,610.7809,136.6613,607.8452,126.44,591.86" style="stroke:#FFAF37;stroke-width:2.0;"/></g><!--reverse link network_share to azure_storage_file_share--><g id="link_network_share_azure_storage_file_share"><path codeLine="80" d="M335.372,662.0466 C326.242,697.6766 319.98,722.09 308.99,764.97 " fill="none" id="network_share-backto-azure_storage_file_share" style="stroke:#FFAF37;stroke-width:2.0;"/><polygon fill="none" points="339.84,644.61,329.5597,660.5573,341.1842,663.536,339.84,644.61" style="stroke:#FFAF37;stroke-width:2.0;"/></g><!--reverse link resource to microsoft_resource--><g id="link_resource_microsoft_resource"><path codeLine="81" d="M182.0453,335.2354 C161.5553,397.0354 145.08,446.77 130.47,490.85 " fill="none" id="resource-backto-microsoft_resource" style="stroke:#FFAF37;stroke-width:2.0;"/><polygon fill="none" points="187.71,318.15,176.3501,333.3472,187.7404,337.1236,187.71,318.15" style="stroke:#FFAF37;stroke-width:2.0;"/></g><!--reverse link resource to network_share--><g id="link_resource_network_share"><path codeLine="82" d="M296.8551,335.2086 C310.5151,375.7686 319.16,401.42 331.63,438.46 " fill="none" id="resource-backto-network_share" style="stroke:#FFAF37;stroke-width:2.0;"/><polygon fill="none" points="291.11,318.15,291.1689,337.1236,302.5412,333.2935,291.11,318.15" style="stroke:#FFAF37;stroke-width:2.0;"/></g><!--SRC=[XLHDRvn03BtpAv1oMtMbf6dpKLMLqaXLUucgfhSeGbx6m6XXJ6PCKjBclzS3kra6sEmD_9wVxJUUARJ26AkQsxZ2QeNMHMwjJGqMglZAMdgwff9iV9Hba9sUZy5lPFWWuGOgZBzZ-OYiKnWpVXSwNHjqBdu_WBv2kiujDKRrycp1E87Gy81rNO9pLynMhnh6GJFgSdMHPMFcMFJeL9sSd-64HbQXtL2EZu_LoUMOSh3KctE_CcxrCyOdGzDkY77IvgH4ntgpIyyOD3aPT8llxV4dAALD7dySn7xrFLc3DeZV5g3eoRCpADsmZ6EqIDpMU3sP2YylL7O-I_wnZnobtheOdXkB2QIfh4rIKwdJDluRBHRufzQsJLXNk5XyYXKm-cz1QhILTawJyO2JZJ6vX1s3vId_9QZZT6vG9N9J3EjCo_2-Lb3TPyyq9JIj1WL7kamMSamoNSfF8Siz56Of5FGwY2Tf0KOoPmOTicGwRbmWeh14ngwd5L69O7R1EJaqi2e5gYqnfLI6QhlEameP90-wV9soE0sslUkfxpOfzwyvOqlTpi49TkVJn3TEAb8-CjkfpE8mKOq57fzo3tatS4zyv9B52hIHxyIACSOB9WhQZgGDdttm729Et4C3hWXNghFZeQ7UYosz3pVE7_YgPGoqd87Q5SHpS_dx41Hu5BV22RThLUdKagECfMr7ZKtxXPAJoGC5ESn7xJNyX6DRjc86-OdiUh2O_GXeKjlMantgGKsrcqxjv9cRYKvzxm4kvERdHTrmPmKrie4xCBHZssqmi7ZSPMvsmKTcZ4rdOi5jNIpaQGe3tHRsLsnKeKEQMctC723LJ1q3LNYeSaJkmDLvYVOzHylbbzdNP-ypiqkOY4KpI_JvttAvtFjeHU6c722FHAVLnen0FVeF]--></g></svg>