<svg xmlns="http://www.w3.org/2000/svg" width="1301" height="1290" viewBox="0 0 1301 1290"><rect width="240" height="179.273" x="156.5" y="917.71" fill="#3D176E" rx="2.5" ry="2.5" style="stroke:#000d19;stroke-width:.5"/><circle cx="202.25" cy="937.605" r="11" fill="#ADD1B2" style="stroke:#181818;stroke-width:1"/><path d="M205.219 943.245q-.578.297-1.219.438-.64.156-1.344.156-2.5 0-3.828-1.64-1.312-1.657-1.312-4.782t1.312-4.781q1.328-1.656 3.828-1.656.703 0 1.344.156.656.156 1.219.453v2.719q-.625-.578-1.219-.844-.594-.281-1.219-.281-1.344 0-2.031 1.078-.687 1.062-.687 3.156t.687 3.172q.688 1.062 2.031 1.062.625 0 1.219-.265.594-.281 1.219-.86z"/><text x="227.75" y="943.49" fill="#D9B8FF" font-family="Helvetica" font-size="17" textLength="130">azure_api_error</text><path d="M157.5 957.499h238" style="stroke:#000d19;stroke-width:.5"/><text x="167.5" y="979.494" fill="#D9B8FF" font-family="sans-serif" font-size="14" font-weight="bold" textLength="39">code</text><text x="206.5" y="979.494" fill="#D9B8FF" font-family="sans-serif" font-size="14" textLength="48">: string</text><text x="167.5" y="1005.791" fill="#D9B8FF" font-family="sans-serif" font-size="14" font-weight="bold" textLength="52">details</text><text x="219.5" y="1005.791" fill="#D9B8FF" font-family="sans-serif" font-size="14" textLength="166">: azure_api_error_base[]</text><text x="167.5" y="1032.088" fill="#D9B8FF" font-family="sans-serif" font-size="14" font-weight="bold" textLength="82">innererror</text><text x="249.5" y="1032.088" fill="#D9B8FF" font-family="sans-serif" font-size="14" textLength="130">: azure_inner_error</text><text x="167.5" y="1058.385" fill="#D9B8FF" font-family="sans-serif" font-size="14" font-weight="bold" textLength="71">message</text><text x="238.5" y="1058.385" fill="#D9B8FF" font-family="sans-serif" font-size="14" textLength="48">: string</text><text x="167.5" y="1084.682" fill="#D9B8FF" font-family="sans-serif" font-size="14" font-weight="bold" textLength="48">target</text><text x="215.5" y="1084.682" fill="#D9B8FF" font-family="sans-serif" font-size="14" textLength="48">: string</text><rect width="219" height="126.68" x="7" y="1156.98" fill="#3D176E" rx="2.5" ry="2.5" style="stroke:#000d19;stroke-width:.5"/><circle cx="22" cy="1176.874" r="11" fill="#ADD1B2" style="stroke:#181818;stroke-width:1"/><path d="M24.969 1182.515q-.578.297-1.219.438-.64.156-1.344.156-2.5 0-3.828-1.64-1.312-1.657-1.312-4.782t1.312-4.781q1.328-1.657 3.828-1.657.703 0 1.344.157.656.156 1.219.453v2.719q-.625-.579-1.219-.844-.594-.281-1.219-.281-1.343 0-2.031 1.078-.687 1.062-.687 3.156t.687 3.172q.688 1.062 2.031 1.062.625 0 1.219-.265.594-.282 1.219-.86z"/><text x="41" y="1182.76" fill="#D9B8FF" font-family="Helvetica" font-size="17" textLength="177">azure_api_error_base</text><path d="M8 1196.769h217" style="stroke:#000d19;stroke-width:.5"/><text x="18" y="1218.764" fill="#D9B8FF" font-family="sans-serif" font-size="14" font-weight="bold" textLength="39">code</text><text x="57" y="1218.764" fill="#D9B8FF" font-family="sans-serif" font-size="14" textLength="48">: string</text><text x="18" y="1245.061" fill="#D9B8FF" font-family="sans-serif" font-size="14" font-weight="bold" textLength="71">message</text><text x="89" y="1245.061" fill="#D9B8FF" font-family="sans-serif" font-size="14" textLength="48">: string</text><text x="18" y="1271.358" fill="#D9B8FF" font-family="sans-serif" font-size="14" font-weight="bold" textLength="48">target</text><text x="66" y="1271.358" fill="#D9B8FF" font-family="sans-serif" font-size="14" textLength="48">: string</text><rect width="419" height="258.164" x="469" y="599.54" fill="#3D176E" rx="2.5" ry="2.5" style="stroke:#000d19;stroke-width:.5"/><circle cx="559.25" cy="619.434" r="11" fill="#ADD1B2" style="stroke:#181818;stroke-width:1"/><path d="M562.219 625.075q-.578.297-1.219.438-.64.156-1.344.156-2.5 0-3.828-1.64-1.312-1.657-1.312-4.782t1.312-4.781q1.328-1.657 3.828-1.657.703 0 1.344.157.656.156 1.219.453v2.719q-.625-.579-1.219-.844-.594-.281-1.219-.281-1.343 0-2.031 1.078-.687 1.062-.687 3.156t.687 3.172q.688 1.062 2.031 1.062.625 0 1.219-.265.594-.282 1.219-.86z"/><text x="584.75" y="625.32" fill="#D9B8FF" font-family="Helvetica" font-size="17" textLength="220">azure_disk_encryption_set</text><path d="M470 639.329h417" style="stroke:#000d19;stroke-width:.5"/><text x="480" y="661.324" fill="#D9B8FF" font-family="sans-serif" font-size="14" font-weight="bold" textLength="82">active_key</text><text x="562" y="661.324" fill="#D9B8FF" font-family="sans-serif" font-size="14" textLength="248">: azure_key_for_disk_encryption_set</text><text x="480" y="687.621" fill="#D9B8FF" font-family="sans-serif" font-size="14" font-weight="bold" textLength="187">auto_key_rotation_error</text><text x="667" y="687.621" fill="#D9B8FF" font-family="sans-serif" font-size="14" textLength="115">: azure_api_error</text><text x="480" y="713.918" fill="#D9B8FF" font-family="sans-serif" font-size="14" font-weight="bold" textLength="183">encryption_set_identity</text><text x="663" y="713.918" fill="#D9B8FF" font-family="sans-serif" font-size="14" textLength="214">: azure_encryption_set_identity</text><text x="480" y="740.215" fill="#D9B8FF" font-family="sans-serif" font-size="14" font-weight="bold" textLength="127">encryption_type</text><text x="607" y="740.215" fill="#D9B8FF" font-family="sans-serif" font-size="14" textLength="48">: string</text><text x="480" y="766.512" fill="#D9B8FF" font-family="sans-serif" font-size="14" font-weight="bold" textLength="149">federated_client_id</text><text x="629" y="766.512" fill="#D9B8FF" font-family="sans-serif" font-size="14" textLength="48">: string</text><text x="480" y="792.809" fill="#D9B8FF" font-family="sans-serif" font-size="14" font-weight="bold" textLength="221">last_key_rotation_timestamp</text><text x="701" y="792.809" fill="#D9B8FF" font-family="sans-serif" font-size="14" textLength="70">: datetime</text><text x="480" y="819.105" fill="#D9B8FF" font-family="sans-serif" font-size="14" font-weight="bold" textLength="113">previous_keys</text><text x="593" y="819.105" fill="#D9B8FF" font-family="sans-serif" font-size="14" textLength="258">: azure_key_for_disk_encryption_set[]</text><text x="480" y="845.402" fill="#D9B8FF" font-family="sans-serif" font-size="14" font-weight="bold" textLength="307">rotation_to_latest_key_version_enabled</text><text x="787" y="845.402" fill="#D9B8FF" font-family="sans-serif" font-size="14" textLength="65">: boolean</text><rect width="495" height="152.977" x="431" y="930.86" fill="#3D176E" rx="2.5" ry="2.5" style="stroke:#000d19;stroke-width:.5"/><circle cx="543.25" cy="950.755" r="11" fill="#ADD1B2" style="stroke:#181818;stroke-width:1"/><path d="M546.219 956.395q-.578.297-1.219.438-.64.156-1.344.156-2.5 0-3.828-1.64-1.312-1.657-1.312-4.782t1.312-4.781q1.328-1.656 3.828-1.656.703 0 1.344.156.656.156 1.219.453v2.719q-.625-.578-1.219-.844-.594-.281-1.219-.281-1.343 0-2.031 1.078-.687 1.062-.687 3.156t.687 3.172q.688 1.062 2.031 1.062.625 0 1.219-.265.594-.281 1.219-.86z"/><text x="568.75" y="956.64" fill="#D9B8FF" font-family="Helvetica" font-size="17" textLength="252">azure_encryption_set_identity</text><path d="M432 970.649h493" style="stroke:#000d19;stroke-width:.5"/><text x="442" y="992.644" fill="#D9B8FF" font-family="sans-serif" font-size="14" font-weight="bold" textLength="88">principal_id</text><text x="530" y="992.644" fill="#D9B8FF" font-family="sans-serif" font-size="14" textLength="48">: string</text><text x="442" y="1018.941" fill="#D9B8FF" font-family="sans-serif" font-size="14" font-weight="bold" textLength="72">tenant_id</text><text x="514" y="1018.941" fill="#D9B8FF" font-family="sans-serif" font-size="14" textLength="48">: string</text><text x="442" y="1045.238" fill="#D9B8FF" font-family="sans-serif" font-size="14" font-weight="bold" textLength="35">type</text><text x="477" y="1045.238" fill="#D9B8FF" font-family="sans-serif" font-size="14" textLength="48">: string</text><text x="442" y="1071.535" fill="#D9B8FF" font-family="sans-serif" font-size="14" font-weight="bold" textLength="194">user_assigned_identities</text><text x="636" y="1071.535" fill="#D9B8FF" font-family="sans-serif" font-size="14" textLength="279">: dictionary[string, azure_principal_client]</text><rect width="191" height="100.383" x="261" y="1170.13" fill="#3D176E" rx="2.5" ry="2.5" style="stroke:#000d19;stroke-width:.5"/><circle cx="276" cy="1190.024" r="11" fill="#ADD1B2" style="stroke:#181818;stroke-width:1"/><path d="M278.969 1195.665q-.578.297-1.219.438-.64.156-1.344.156-2.5 0-3.828-1.64-1.312-1.657-1.312-4.782t1.312-4.781q1.328-1.657 3.828-1.657.703 0 1.344.157.656.156 1.219.453v2.719q-.625-.579-1.219-.844-.594-.281-1.219-.281-1.344 0-2.031 1.078-.687 1.062-.687 3.156t.687 3.172q.688 1.062 2.031 1.062.625 0 1.219-.265.594-.282 1.219-.86z"/><text x="295" y="1195.91" fill="#D9B8FF" font-family="Helvetica" font-size="17" textLength="149">azure_inner_error</text><path d="M262 1209.919h189" style="stroke:#000d19;stroke-width:.5"/><text x="272" y="1231.914" fill="#D9B8FF" font-family="sans-serif" font-size="14" font-weight="bold" textLength="84">errordetail</text><text x="356" y="1231.914" fill="#D9B8FF" font-family="sans-serif" font-size="14" textLength="48">: string</text><text x="272" y="1258.211" fill="#D9B8FF" font-family="sans-serif" font-size="14" font-weight="bold" textLength="113">exceptiontype</text><text x="385" y="1258.211" fill="#D9B8FF" font-family="sans-serif" font-size="14" textLength="48">: string</text><rect width="333" height="100.383" x="961" y="957.15" fill="#3D176E" rx="2.5" ry="2.5" style="stroke:#000d19;stroke-width:.5"/><circle cx="976" cy="977.044" r="11" fill="#ADD1B2" style="stroke:#181818;stroke-width:1"/><path d="M978.969 982.685q-.578.297-1.219.438-.64.156-1.344.156-2.5 0-3.828-1.64-1.312-1.657-1.312-4.782t1.312-4.781q1.328-1.657 3.828-1.657.703 0 1.344.157.656.156 1.219.453v2.719q-.625-.579-1.219-.844-.594-.281-1.219-.281-1.343 0-2.031 1.078-.687 1.062-.687 3.156t.687 3.172q.688 1.062 2.031 1.062.625 0 1.219-.265.594-.282 1.219-.86z"/><text x="995" y="982.93" fill="#D9B8FF" font-family="Helvetica" font-size="17" textLength="291">azure_key_for_disk_encryption_set</text><path d="M962 996.939h331" style="stroke:#000d19;stroke-width:.5"/><text x="972" y="1018.934" fill="#D9B8FF" font-family="sans-serif" font-size="14" font-weight="bold" textLength="56">key_url</text><text x="1028" y="1018.934" fill="#D9B8FF" font-family="sans-serif" font-size="14" textLength="48">: string</text><text x="972" y="1045.231" fill="#D9B8FF" font-family="sans-serif" font-size="14" font-weight="bold" textLength="100">source_vault</text><text x="1072" y="1045.231" fill="#D9B8FF" font-family="sans-serif" font-size="14" textLength="48">: string</text><rect width="223" height="100.383" x="567" y="1170.13" fill="#3D176E" rx="2.5" ry="2.5" style="stroke:#000d19;stroke-width:.5"/><circle cx="582" cy="1190.024" r="11" fill="#ADD1B2" style="stroke:#181818;stroke-width:1"/><path d="M584.969 1195.665q-.578.297-1.219.438-.64.156-1.344.156-2.5 0-3.828-1.64-1.312-1.657-1.312-4.782t1.312-4.781q1.328-1.657 3.828-1.657.703 0 1.344.157.656.156 1.219.453v2.719q-.625-.579-1.219-.844-.594-.281-1.219-.281-1.343 0-2.031 1.078-.687 1.062-.687 3.156t.687 3.172q.688 1.062 2.031 1.062.625 0 1.219-.265.594-.282 1.219-.86z"/><text x="601" y="1195.91" fill="#D9B8FF" font-family="Helvetica" font-size="17" textLength="181">azure_principal_client</text><path d="M568 1209.919h221" style="stroke:#000d19;stroke-width:.5"/><text x="578" y="1231.914" fill="#D9B8FF" font-family="sans-serif" font-size="14" font-weight="bold" textLength="64">client_id</text><text x="642" y="1231.914" fill="#D9B8FF" font-family="sans-serif" font-size="14" textLength="48">: string</text><text x="578" y="1258.211" fill="#D9B8FF" font-family="sans-serif" font-size="14" font-weight="bold" textLength="88">principal_id</text><text x="666" y="1258.211" fill="#D9B8FF" font-family="sans-serif" font-size="14" textLength="48">: string</text><rect width="168" height="39.789" x="594.5" y="438.75" fill="#3D176E" rx="2.5" ry="2.5" style="stroke:#000d19;stroke-width:.5"/><circle cx="609.5" cy="458.644" r="11" fill="#ADD1B2" style="stroke:#181818;stroke-width:1"/><path d="M612.469 464.285q-.578.297-1.219.438-.64.156-1.344.156-2.5 0-3.828-1.64-1.312-1.657-1.312-4.782t1.312-4.781q1.328-1.656 3.828-1.656.703 0 1.344.156.656.156 1.219.453v2.719q-.625-.579-1.219-.844-.594-.281-1.219-.281-1.343 0-2.031 1.078-.687 1.062-.687 3.156t.687 3.172q.688 1.062 2.031 1.062.625 0 1.219-.265.594-.281 1.219-.86z"/><text x="628.5" y="464.53" fill="#D9B8FF" font-family="Helvetica" font-size="17" textLength="126">azure_resource</text><rect width="227" height="310.758" x="565" y="7" fill="#3D176E" rx="2.5" ry="2.5" style="stroke:#000d19;stroke-width:.5"/><circle cx="633.75" cy="26.895" r="11" fill="#ADD1B2" style="stroke:#181818;stroke-width:1"/><path d="M636.719 32.535q-.578.297-1.219.438-.64.156-1.344.156-2.5 0-3.828-1.64-1.312-1.657-1.312-4.782t1.312-4.781q1.328-1.656 3.828-1.656.703 0 1.344.156.656.156 1.219.453v2.719q-.625-.578-1.219-.844-.594-.281-1.219-.281-1.343 0-2.031 1.078-.687 1.062-.687 3.156t.687 3.172q.688 1.062 2.031 1.062.625 0 1.219-.265.594-.281 1.219-.86z"/><text x="659.25" y="32.78" fill="#D9B8FF" font-family="Helvetica" font-size="17" textLength="71">resource</text><path d="M566 46.789h225" style="stroke:#000d19;stroke-width:.5"/><text x="576" y="68.784" fill="#D9B8FF" font-family="sans-serif" font-size="14" font-weight="bold" textLength="29">age</text><text x="605" y="68.784" fill="#D9B8FF" font-family="sans-serif" font-size="14" textLength="66">: duration</text><text x="576" y="95.081" fill="#D9B8FF" font-family="sans-serif" font-size="14" font-weight="bold" textLength="43">atime</text><text x="619" y="95.081" fill="#D9B8FF" font-family="sans-serif" font-size="14" textLength="70">: datetime</text><text x="576" y="121.378" fill="#D9B8FF" font-family="sans-serif" font-size="14" font-weight="bold" textLength="43">ctime</text><text x="619" y="121.378" fill="#D9B8FF" font-family="sans-serif" font-size="14" textLength="70">: datetime</text><text x="576" y="147.675" fill="#D9B8FF" font-family="sans-serif" font-size="14" font-weight="bold" textLength="14">id</text><text x="590" y="147.675" fill="#D9B8FF" font-family="sans-serif" font-size="14" textLength="48">: string</text><text x="576" y="173.972" fill="#D9B8FF" font-family="sans-serif" font-size="14" font-weight="bold" textLength="33">kind</text><text x="609" y="173.972" fill="#D9B8FF" font-family="sans-serif" font-size="14" textLength="48">: string</text><text x="576" y="200.269" fill="#D9B8FF" font-family="sans-serif" font-size="14" font-weight="bold" textLength="90">last_access</text><text x="666" y="200.269" fill="#D9B8FF" font-family="sans-serif" font-size="14" textLength="66">: duration</text><text x="576" y="226.565" fill="#D9B8FF" font-family="sans-serif" font-size="14" font-weight="bold" textLength="90">last_update</text><text x="666" y="226.565" fill="#D9B8FF" font-family="sans-serif" font-size="14" textLength="66">: duration</text><text x="576" y="252.862" fill="#D9B8FF" font-family="sans-serif" font-size="14" font-weight="bold" textLength="48">mtime</text><text x="624" y="252.862" fill="#D9B8FF" font-family="sans-serif" font-size="14" textLength="70">: datetime</text><text x="576" y="279.159" fill="#D9B8FF" font-family="sans-serif" font-size="14" font-weight="bold" textLength="43">name</text><text x="619" y="279.159" fill="#D9B8FF" font-family="sans-serif" font-size="14" textLength="48">: string</text><text x="576" y="305.456" fill="#D9B8FF" font-family="sans-serif" font-size="14" font-weight="bold" textLength="34">tags</text><text x="610" y="305.456" fill="#D9B8FF" font-family="sans-serif" font-size="14" textLength="171">: dictionary[string, string]</text><path fill="none" d="M209.11 1097.21c-15.12 19.93-27.225 35.89-41.345 54.51" style="stroke:#ffaf37;stroke-width:2"/><path fill="#FFAF37" d="m164.14 1156.5 8.625-4.754-5.604.77-.77-5.604z" style="stroke:#ffaf37;stroke-width:2"/><path fill="none" d="m310.2 1097.21 25.333 66.82" style="stroke:#ffaf37;stroke-width:2"/><path fill="#FFAF37" d="m337.66 1169.64.55-9.834-2.322 5.159-5.159-2.323z" style="stroke:#ffaf37;stroke-width:2"/><path fill="none" d="M491.92 858.06a776403 776403 0 0 1-90.158 62.058" style="stroke:#ffaf37;stroke-width:2"/><path fill="#FFAF37" d="m396.82 923.52 9.682-1.808-5.563-1.027 1.027-5.563z" style="stroke:#ffaf37;stroke-width:2"/><path fill="none" d="M678.5 857.86v66.72" style="stroke:#ffaf37;stroke-width:2"/><path fill="#FFAF37" d="m678.5 930.58 4-9-4 4-4-4z" style="stroke:#ffaf37;stroke-width:2"/><path fill="none" d="M886.9 858.06c56.84 35.03 109.962 67.772 154.892 95.462" style="stroke:#ffaf37;stroke-width:2"/><path fill="#FFAF37" d="m1046.9 956.67-5.563-8.127 1.306 5.504-5.504 1.306z" style="stroke:#ffaf37;stroke-width:2"/><path fill="none" d="M678.5 496.92v102.12m0-120.12-6 18h12zm0 605.29v79.55" style="stroke:#ffaf37;stroke-width:2"/><path fill="#FFAF37" d="m678.5 1169.76 4-9-4 4-4-4z" style="stroke:#ffaf37;stroke-width:2"/><path fill="none" d="M678.5 335.84v102.83m0-120.83-6 18h12z" style="stroke:#ffaf37;stroke-width:2"/></svg>