<?xml version="1.0" encoding="us-ascii" standalone="no"?><svg xmlns="http://www.w3.org/2000/svg" xmlns:xlink="http://www.w3.org/1999/xlink" contentStyleType="text/css" height="1798px" preserveAspectRatio="none" style="width:1387px;height:1798px;" version="1.1" viewBox="0 0 1387 1798" width="1387px" zoomAndPan="magnify"><defs/><g><!--class gcp_deprecation_status--><g id="elem_gcp_deprecation_status"><rect codeLine="23" fill="#3D176E" height="179.2734" id="gcp_deprecation_status" rx="2.5" ry="2.5" style="stroke:#000D19;stroke-width:0.5;" width="237" x="17.5" y="1307.01"/><ellipse cx="32.5" cy="1326.9045" fill="#ADD1B2" rx="11" ry="11" style="stroke:#181818;stroke-width:1.0;"/><path d="M35.4688,1332.5452 Q34.8906,1332.842 34.25,1332.9827 Q33.6094,1333.1389 32.9063,1333.1389 Q30.4063,1333.1389 29.0781,1331.4983 Q27.7656,1329.842 27.7656,1326.717 Q27.7656,1323.592 29.0781,1321.9358 Q30.4063,1320.2795 32.9063,1320.2795 Q33.6094,1320.2795 34.25,1320.4358 Q34.9063,1320.592 35.4688,1320.8889 L35.4688,1323.6077 Q34.8438,1323.0295 34.25,1322.7639 Q33.6563,1322.4827 33.0313,1322.4827 Q31.6875,1322.4827 31,1323.5608 Q30.3125,1324.6233 30.3125,1326.717 Q30.3125,1328.8108 31,1329.8889 Q31.6875,1330.9514 33.0313,1330.9514 Q33.6563,1330.9514 34.25,1330.6858 Q34.8438,1330.4045 35.4688,1329.8264 L35.4688,1332.5452 Z " fill="#000000"/><text fill="#D9B8FF" font-family="Helvetica" font-size="17" lengthAdjust="spacing" textLength="195" x="51.5" y="1332.7898">gcp_deprecation_status</text><line style="stroke:#000D19;stroke-width:0.5;" x1="18.5" x2="253.5" y1="1346.7991" y2="1346.7991"/><text fill="#D9B8FF" font-family="sans-serif" font-size="14" font-weight="bold" lengthAdjust="spacing" textLength="60" x="28.5" y="1368.7942">deleted</text><text fill="#D9B8FF" font-family="sans-serif" font-size="14" lengthAdjust="spacing" textLength="48" x="88.5" y="1368.7942">: string</text><text fill="#D9B8FF" font-family="sans-serif" font-size="14" font-weight="bold" lengthAdjust="spacing" textLength="91" x="28.5" y="1395.0911">deprecated</text><text fill="#D9B8FF" font-family="sans-serif" font-size="14" lengthAdjust="spacing" textLength="48" x="119.5" y="1395.0911">: string</text><text fill="#D9B8FF" font-family="sans-serif" font-size="14" font-weight="bold" lengthAdjust="spacing" textLength="69" x="28.5" y="1421.3879">obsolete</text><text fill="#D9B8FF" font-family="sans-serif" font-size="14" lengthAdjust="spacing" textLength="48" x="97.5" y="1421.3879">: string</text><text fill="#D9B8FF" font-family="sans-serif" font-size="14" font-weight="bold" lengthAdjust="spacing" textLength="99" x="28.5" y="1447.6848">replacement</text><text fill="#D9B8FF" font-family="sans-serif" font-size="14" lengthAdjust="spacing" textLength="48" x="127.5" y="1447.6848">: string</text><text fill="#D9B8FF" font-family="sans-serif" font-size="14" font-weight="bold" lengthAdjust="spacing" textLength="40" x="28.5" y="1473.9817">state</text><text fill="#D9B8FF" font-family="sans-serif" font-size="14" lengthAdjust="spacing" textLength="48" x="68.5" y="1473.9817">: string</text></g><!--class gcp_details--><g id="elem_gcp_details"><rect codeLine="30" fill="#3D176E" height="39.7891" id="gcp_details" rx="2.5" ry="2.5" style="stroke:#000D19;stroke-width:0.5;" width="134" x="281" y="1694.92"/><ellipse cx="296" cy="1714.8145" fill="#ADD1B2" rx="11" ry="11" style="stroke:#181818;stroke-width:1.0;"/><path d="M298.9688,1720.4552 Q298.3906,1720.752 297.75,1720.8927 Q297.1094,1721.0489 296.4063,1721.0489 Q293.9063,1721.0489 292.5781,1719.4083 Q291.2656,1717.752 291.2656,1714.627 Q291.2656,1711.502 292.5781,1709.8458 Q293.9063,1708.1895 296.4063,1708.1895 Q297.1094,1708.1895 297.75,1708.3458 Q298.4063,1708.502 298.9688,1708.7989 L298.9688,1711.5177 Q298.3438,1710.9395 297.75,1710.6739 Q297.1563,1710.3927 296.5313,1710.3927 Q295.1875,1710.3927 294.5,1711.4708 Q293.8125,1712.5333 293.8125,1714.627 Q293.8125,1716.7208 294.5,1717.7989 Q295.1875,1718.8614 296.5313,1718.8614 Q297.1563,1718.8614 297.75,1718.5958 Q298.3438,1718.3145 298.9688,1717.7364 L298.9688,1720.4552 Z " fill="#000000"/><text fill="#D9B8FF" font-family="Helvetica" font-size="17" lengthAdjust="spacing" textLength="92" x="315" y="1720.6998">gcp_details</text></g><!--class gcp_google_rpc_status--><g id="elem_gcp_google_rpc_status"><rect codeLine="33" fill="#3D176E" height="126.6797" id="gcp_google_rpc_status" rx="2.5" ry="2.5" style="stroke:#000D19;stroke-width:0.5;" width="228" x="290" y="1333.31"/><ellipse cx="305" cy="1353.2045" fill="#ADD1B2" rx="11" ry="11" style="stroke:#181818;stroke-width:1.0;"/><path d="M307.9688,1358.8452 Q307.3906,1359.142 306.75,1359.2827 Q306.1094,1359.4389 305.4063,1359.4389 Q302.9063,1359.4389 301.5781,1357.7983 Q300.2656,1356.142 300.2656,1353.017 Q300.2656,1349.892 301.5781,1348.2358 Q302.9063,1346.5795 305.4063,1346.5795 Q306.1094,1346.5795 306.75,1346.7358 Q307.4063,1346.892 307.9688,1347.1889 L307.9688,1349.9077 Q307.3438,1349.3295 306.75,1349.0639 Q306.1563,1348.7827 305.5313,1348.7827 Q304.1875,1348.7827 303.5,1349.8608 Q302.8125,1350.9233 302.8125,1353.017 Q302.8125,1355.1108 303.5,1356.1889 Q304.1875,1357.2514 305.5313,1357.2514 Q306.1563,1357.2514 306.75,1356.9858 Q307.3438,1356.7045 307.9688,1356.1264 L307.9688,1358.8452 Z " fill="#000000"/><text fill="#D9B8FF" font-family="Helvetica" font-size="17" lengthAdjust="spacing" textLength="186" x="324" y="1359.0898">gcp_google_rpc_status</text><line style="stroke:#000D19;stroke-width:0.5;" x1="291" x2="517" y1="1373.0991" y2="1373.0991"/><text fill="#D9B8FF" font-family="sans-serif" font-size="14" font-weight="bold" lengthAdjust="spacing" textLength="39" x="301" y="1395.0942">code</text><text fill="#D9B8FF" font-family="sans-serif" font-size="14" lengthAdjust="spacing" textLength="44" x="340" y="1395.0942">: int64</text><text fill="#D9B8FF" font-family="sans-serif" font-size="14" font-weight="bold" lengthAdjust="spacing" textLength="52" x="301" y="1421.3911">details</text><text fill="#D9B8FF" font-family="sans-serif" font-size="14" lengthAdjust="spacing" textLength="97" x="353" y="1421.3911">: gcp_details[]</text><text fill="#D9B8FF" font-family="sans-serif" font-size="14" font-weight="bold" lengthAdjust="spacing" textLength="71" x="301" y="1447.6879">message</text><text fill="#D9B8FF" font-family="sans-serif" font-size="14" lengthAdjust="spacing" textLength="48" x="372" y="1447.6879">: string</text></g><!--class gcp_resource--><g id="elem_gcp_resource"><rect codeLine="38" fill="#3D176E" height="152.9766" id="gcp_resource" rx="2.5" ry="2.5" style="stroke:#000D19;stroke-width:0.5;" width="348" x="7" y="438.75"/><ellipse cx="117.75" cy="458.6445" fill="#ADD1B2" rx="11" ry="11" style="stroke:#181818;stroke-width:1.0;"/><path d="M120.7188,464.2852 Q120.1406,464.582 119.5,464.7227 Q118.8594,464.8789 118.1563,464.8789 Q115.6563,464.8789 114.3281,463.2383 Q113.0156,461.582 113.0156,458.457 Q113.0156,455.332 114.3281,453.6758 Q115.6563,452.0195 118.1563,452.0195 Q118.8594,452.0195 119.5,452.1758 Q120.1563,452.332 120.7188,452.6289 L120.7188,455.3477 Q120.0938,454.7695 119.5,454.5039 Q118.9063,454.2227 118.2813,454.2227 Q116.9375,454.2227 116.25,455.3008 Q115.5625,456.3633 115.5625,458.457 Q115.5625,460.5508 116.25,461.6289 Q116.9375,462.6914 118.2813,462.6914 Q118.9063,462.6914 119.5,462.4258 Q120.0938,462.1445 120.7188,461.5664 L120.7188,464.2852 Z " fill="#000000"/><text fill="#D9B8FF" font-family="Helvetica" font-size="17" lengthAdjust="spacing" textLength="108" x="143.25" y="464.5298">gcp_resource</text><line style="stroke:#000D19;stroke-width:0.5;" x1="8" x2="354" y1="478.5391" y2="478.5391"/><text fill="#D9B8FF" font-family="sans-serif" font-size="14" font-weight="bold" lengthAdjust="spacing" textLength="151" x="18" y="500.5342">deprecation_status</text><text fill="#D9B8FF" font-family="sans-serif" font-size="14" lengthAdjust="spacing" textLength="175" x="169" y="500.5342">: gcp_deprecation_status</text><text fill="#D9B8FF" font-family="sans-serif" font-size="14" font-weight="bold" lengthAdjust="spacing" textLength="89" x="18" y="526.8311">description</text><text fill="#D9B8FF" font-family="sans-serif" font-size="14" lengthAdjust="spacing" textLength="48" x="107" y="526.8311">: string</text><text fill="#D9B8FF" font-family="sans-serif" font-size="14" font-weight="bold" lengthAdjust="spacing" textLength="128" x="18" y="553.1279">label_fingerprint</text><text fill="#D9B8FF" font-family="sans-serif" font-size="14" lengthAdjust="spacing" textLength="48" x="146" y="553.1279">: string</text><text fill="#D9B8FF" font-family="sans-serif" font-size="14" font-weight="bold" lengthAdjust="spacing" textLength="27" x="18" y="579.4248">link</text><text fill="#D9B8FF" font-family="sans-serif" font-size="14" lengthAdjust="spacing" textLength="48" x="45" y="579.4248">: string</text></g><!--class gcp_vertex_ai_fraction_split--><g id="elem_gcp_vertex_ai_fraction_split"><rect codeLine="44" fill="#3D176E" height="126.6797" id="gcp_vertex_ai_fraction_split" rx="2.5" ry="2.5" style="stroke:#000D19;stroke-width:0.5;" width="274" x="450" y="1651.47"/><ellipse cx="465" cy="1671.3645" fill="#ADD1B2" rx="11" ry="11" style="stroke:#181818;stroke-width:1.0;"/><path d="M467.9688,1677.0052 Q467.3906,1677.302 466.75,1677.4427 Q466.1094,1677.5989 465.4063,1677.5989 Q462.9063,1677.5989 461.5781,1675.9583 Q460.2656,1674.302 460.2656,1671.177 Q460.2656,1668.052 461.5781,1666.3958 Q462.9063,1664.7395 465.4063,1664.7395 Q466.1094,1664.7395 466.75,1664.8958 Q467.4063,1665.052 467.9688,1665.3489 L467.9688,1668.0677 Q467.3438,1667.4895 466.75,1667.2239 Q466.1563,1666.9427 465.5313,1666.9427 Q464.1875,1666.9427 463.5,1668.0208 Q462.8125,1669.0833 462.8125,1671.177 Q462.8125,1673.2708 463.5,1674.3489 Q464.1875,1675.4114 465.5313,1675.4114 Q466.1563,1675.4114 466.75,1675.1458 Q467.3438,1674.8645 467.9688,1674.2864 L467.9688,1677.0052 Z " fill="#000000"/><text fill="#D9B8FF" font-family="Helvetica" font-size="17" lengthAdjust="spacing" textLength="232" x="484" y="1677.2498">gcp_vertex_ai_fraction_split</text><line style="stroke:#000D19;stroke-width:0.5;" x1="451" x2="723" y1="1691.2591" y2="1691.2591"/><text fill="#D9B8FF" font-family="sans-serif" font-size="14" font-weight="bold" lengthAdjust="spacing" textLength="99" x="461" y="1713.2542">test_fraction</text><text fill="#D9B8FF" font-family="sans-serif" font-size="14" lengthAdjust="spacing" textLength="57" x="560" y="1713.2542">: double</text><text fill="#D9B8FF" font-family="sans-serif" font-size="14" font-weight="bold" lengthAdjust="spacing" textLength="128" x="461" y="1739.5511">training_fraction</text><text fill="#D9B8FF" font-family="sans-serif" font-size="14" lengthAdjust="spacing" textLength="57" x="589" y="1739.5511">: double</text><text fill="#D9B8FF" font-family="sans-serif" font-size="14" font-weight="bold" lengthAdjust="spacing" textLength="143" x="461" y="1765.8479">validation_fraction</text><text fill="#D9B8FF" font-family="sans-serif" font-size="14" lengthAdjust="spacing" textLength="57" x="604" y="1765.8479">: double</text></g><!--class gcp_vertex_ai_input_data_config--><g id="elem_gcp_vertex_ai_input_data_config"><rect codeLine="49" fill="#3D176E" height="363.3516" id="gcp_vertex_ai_input_data_config" rx="2.5" ry="2.5" style="stroke:#000D19;stroke-width:0.5;" width="361" x="665.5" y="1214.97"/><ellipse cx="701.2" cy="1234.8645" fill="#ADD1B2" rx="11" ry="11" style="stroke:#181818;stroke-width:1.0;"/><path d="M704.1688,1240.5052 Q703.5906,1240.802 702.95,1240.9427 Q702.3094,1241.0989 701.6063,1241.0989 Q699.1063,1241.0989 697.7781,1239.4583 Q696.4656,1237.802 696.4656,1234.677 Q696.4656,1231.552 697.7781,1229.8958 Q699.1063,1228.2395 701.6063,1228.2395 Q702.3094,1228.2395 702.95,1228.3958 Q703.6063,1228.552 704.1688,1228.8489 L704.1688,1231.5677 Q703.5438,1230.9895 702.95,1230.7239 Q702.3563,1230.4427 701.7313,1230.4427 Q700.3875,1230.4427 699.7,1231.5208 Q699.0125,1232.5833 699.0125,1234.677 Q699.0125,1236.7708 699.7,1237.8489 Q700.3875,1238.9114 701.7313,1238.9114 Q702.3563,1238.9114 702.95,1238.6458 Q703.5438,1238.3645 704.1688,1237.7864 L704.1688,1240.5052 Z " fill="#000000"/><text fill="#D9B8FF" font-family="Helvetica" font-size="17" lengthAdjust="spacing" textLength="273" x="724.8" y="1240.7498">gcp_vertex_ai_input_data_config</text><line style="stroke:#000D19;stroke-width:0.5;" x1="666.5" x2="1025.5" y1="1254.7591" y2="1254.7591"/><text fill="#D9B8FF" font-family="sans-serif" font-size="14" font-weight="bold" lengthAdjust="spacing" textLength="180" x="676.5" y="1276.7542">annotation_schema_uri</text><text fill="#D9B8FF" font-family="sans-serif" font-size="14" lengthAdjust="spacing" textLength="48" x="856.5" y="1276.7542">: string</text><text fill="#D9B8FF" font-family="sans-serif" font-size="14" font-weight="bold" lengthAdjust="spacing" textLength="137" x="676.5" y="1303.0511">annotations_filter</text><text fill="#D9B8FF" font-family="sans-serif" font-size="14" lengthAdjust="spacing" textLength="48" x="813.5" y="1303.0511">: string</text><text fill="#D9B8FF" font-family="sans-serif" font-size="14" font-weight="bold" lengthAdjust="spacing" textLength="165" x="676.5" y="1329.3479">bigquery_destination</text><text fill="#D9B8FF" font-family="sans-serif" font-size="14" lengthAdjust="spacing" textLength="48" x="841.5" y="1329.3479">: string</text><text fill="#D9B8FF" font-family="sans-serif" font-size="14" font-weight="bold" lengthAdjust="spacing" textLength="80" x="676.5" y="1355.6448">dataset_id</text><text fill="#D9B8FF" font-family="sans-serif" font-size="14" lengthAdjust="spacing" textLength="48" x="756.5" y="1355.6448">: string</text><text fill="#D9B8FF" font-family="sans-serif" font-size="14" font-weight="bold" lengthAdjust="spacing" textLength="77" x="676.5" y="1381.9417">filter_split</text><text fill="#D9B8FF" font-family="sans-serif" font-size="14" lengthAdjust="spacing" textLength="33" x="753.5" y="1381.9417">: any</text><text fill="#D9B8FF" font-family="sans-serif" font-size="14" font-weight="bold" lengthAdjust="spacing" textLength="101" x="676.5" y="1408.2386">fraction_split</text><text fill="#D9B8FF" font-family="sans-serif" font-size="14" lengthAdjust="spacing" textLength="195" x="777.5" y="1408.2386">: gcp_vertex_ai_fraction_split</text><text fill="#D9B8FF" font-family="sans-serif" font-size="14" font-weight="bold" lengthAdjust="spacing" textLength="123" x="676.5" y="1434.5354">gcs_destination</text><text fill="#D9B8FF" font-family="sans-serif" font-size="14" lengthAdjust="spacing" textLength="48" x="799.5" y="1434.5354">: string</text><text fill="#D9B8FF" font-family="sans-serif" font-size="14" font-weight="bold" lengthAdjust="spacing" textLength="214" x="676.5" y="1460.8323">persist_ml_use_assignment</text><text fill="#D9B8FF" font-family="sans-serif" font-size="14" lengthAdjust="spacing" textLength="65" x="890.5" y="1460.8323">: boolean</text><text fill="#D9B8FF" font-family="sans-serif" font-size="14" font-weight="bold" lengthAdjust="spacing" textLength="127" x="676.5" y="1487.1292">predefined_split</text><text fill="#D9B8FF" font-family="sans-serif" font-size="14" lengthAdjust="spacing" textLength="48" x="803.5" y="1487.1292">: string</text><text fill="#D9B8FF" font-family="sans-serif" font-size="14" font-weight="bold" lengthAdjust="spacing" textLength="121" x="676.5" y="1513.4261">saved_query_id</text><text fill="#D9B8FF" font-family="sans-serif" font-size="14" lengthAdjust="spacing" textLength="48" x="797.5" y="1513.4261">: string</text><text fill="#D9B8FF" font-family="sans-serif" font-size="14" font-weight="bold" lengthAdjust="spacing" textLength="111" x="676.5" y="1539.7229">stratified_split</text><text fill="#D9B8FF" font-family="sans-serif" font-size="14" lengthAdjust="spacing" textLength="203" x="787.5" y="1539.7229">: gcp_vertex_ai_stratified_split</text><text fill="#D9B8FF" font-family="sans-serif" font-size="14" font-weight="bold" lengthAdjust="spacing" textLength="122" x="676.5" y="1566.0198">timestamp_split</text><text fill="#D9B8FF" font-family="sans-serif" font-size="14" lengthAdjust="spacing" textLength="217" x="798.5" y="1566.0198">: gcp_vertex_ai_timestamp_split</text></g><!--class gcp_vertex_ai_stratified_split--><g id="elem_gcp_vertex_ai_stratified_split"><rect codeLine="63" fill="#3D176E" height="152.9766" id="gcp_vertex_ai_stratified_split" rx="2.5" ry="2.5" style="stroke:#000D19;stroke-width:0.5;" width="285" x="759.5" y="1638.32"/><ellipse cx="774.5" cy="1658.2145" fill="#ADD1B2" rx="11" ry="11" style="stroke:#181818;stroke-width:1.0;"/><path d="M777.4688,1663.8552 Q776.8906,1664.152 776.25,1664.2927 Q775.6094,1664.4489 774.9063,1664.4489 Q772.4063,1664.4489 771.0781,1662.8083 Q769.7656,1661.152 769.7656,1658.027 Q769.7656,1654.902 771.0781,1653.2458 Q772.4063,1651.5895 774.9063,1651.5895 Q775.6094,1651.5895 776.25,1651.7458 Q776.9063,1651.902 777.4688,1652.1989 L777.4688,1654.9177 Q776.8438,1654.3395 776.25,1654.0739 Q775.6563,1653.7927 775.0313,1653.7927 Q773.6875,1653.7927 773,1654.8708 Q772.3125,1655.9333 772.3125,1658.027 Q772.3125,1660.1208 773,1661.1989 Q773.6875,1662.2614 775.0313,1662.2614 Q775.6563,1662.2614 776.25,1661.9958 Q776.8438,1661.7145 777.4688,1661.1364 L777.4688,1663.8552 Z " fill="#000000"/><text fill="#D9B8FF" font-family="Helvetica" font-size="17" lengthAdjust="spacing" textLength="243" x="793.5" y="1664.0998">gcp_vertex_ai_stratified_split</text><line style="stroke:#000D19;stroke-width:0.5;" x1="760.5" x2="1043.5" y1="1678.1091" y2="1678.1091"/><text fill="#D9B8FF" font-family="sans-serif" font-size="14" font-weight="bold" lengthAdjust="spacing" textLength="28" x="770.5" y="1700.1042">key</text><text fill="#D9B8FF" font-family="sans-serif" font-size="14" lengthAdjust="spacing" textLength="48" x="798.5" y="1700.1042">: string</text><text fill="#D9B8FF" font-family="sans-serif" font-size="14" font-weight="bold" lengthAdjust="spacing" textLength="99" x="770.5" y="1726.4011">test_fraction</text><text fill="#D9B8FF" font-family="sans-serif" font-size="14" lengthAdjust="spacing" textLength="57" x="869.5" y="1726.4011">: double</text><text fill="#D9B8FF" font-family="sans-serif" font-size="14" font-weight="bold" lengthAdjust="spacing" textLength="128" x="770.5" y="1752.6979">training_fraction</text><text fill="#D9B8FF" font-family="sans-serif" font-size="14" lengthAdjust="spacing" textLength="57" x="898.5" y="1752.6979">: double</text><text fill="#D9B8FF" font-family="sans-serif" font-size="14" font-weight="bold" lengthAdjust="spacing" textLength="143" x="770.5" y="1778.9948">validation_fraction</text><text fill="#D9B8FF" font-family="sans-serif" font-size="14" lengthAdjust="spacing" textLength="57" x="913.5" y="1778.9948">: double</text></g><!--class gcp_vertex_ai_timestamp_split--><g id="elem_gcp_vertex_ai_timestamp_split"><rect codeLine="69" fill="#3D176E" height="152.9766" id="gcp_vertex_ai_timestamp_split" rx="2.5" ry="2.5" style="stroke:#000D19;stroke-width:0.5;" width="301" x="1079.5" y="1638.32"/><ellipse cx="1094.5" cy="1658.2145" fill="#ADD1B2" rx="11" ry="11" style="stroke:#181818;stroke-width:1.0;"/><path d="M1097.4688,1663.8552 Q1096.8906,1664.152 1096.25,1664.2927 Q1095.6094,1664.4489 1094.9063,1664.4489 Q1092.4063,1664.4489 1091.0781,1662.8083 Q1089.7656,1661.152 1089.7656,1658.027 Q1089.7656,1654.902 1091.0781,1653.2458 Q1092.4063,1651.5895 1094.9063,1651.5895 Q1095.6094,1651.5895 1096.25,1651.7458 Q1096.9063,1651.902 1097.4688,1652.1989 L1097.4688,1654.9177 Q1096.8438,1654.3395 1096.25,1654.0739 Q1095.6563,1653.7927 1095.0313,1653.7927 Q1093.6875,1653.7927 1093,1654.8708 Q1092.3125,1655.9333 1092.3125,1658.027 Q1092.3125,1660.1208 1093,1661.1989 Q1093.6875,1662.2614 1095.0313,1662.2614 Q1095.6563,1662.2614 1096.25,1661.9958 Q1096.8438,1661.7145 1097.4688,1661.1364 L1097.4688,1663.8552 Z " fill="#000000"/><text fill="#D9B8FF" font-family="Helvetica" font-size="17" lengthAdjust="spacing" textLength="259" x="1113.5" y="1664.0998">gcp_vertex_ai_timestamp_split</text><line style="stroke:#000D19;stroke-width:0.5;" x1="1080.5" x2="1379.5" y1="1678.1091" y2="1678.1091"/><text fill="#D9B8FF" font-family="sans-serif" font-size="14" font-weight="bold" lengthAdjust="spacing" textLength="28" x="1090.5" y="1700.1042">key</text><text fill="#D9B8FF" font-family="sans-serif" font-size="14" lengthAdjust="spacing" textLength="48" x="1118.5" y="1700.1042">: string</text><text fill="#D9B8FF" font-family="sans-serif" font-size="14" font-weight="bold" lengthAdjust="spacing" textLength="99" x="1090.5" y="1726.4011">test_fraction</text><text fill="#D9B8FF" font-family="sans-serif" font-size="14" lengthAdjust="spacing" textLength="57" x="1189.5" y="1726.4011">: double</text><text fill="#D9B8FF" font-family="sans-serif" font-size="14" font-weight="bold" lengthAdjust="spacing" textLength="128" x="1090.5" y="1752.6979">training_fraction</text><text fill="#D9B8FF" font-family="sans-serif" font-size="14" lengthAdjust="spacing" textLength="57" x="1218.5" y="1752.6979">: double</text><text fill="#D9B8FF" font-family="sans-serif" font-size="14" font-weight="bold" lengthAdjust="spacing" textLength="143" x="1090.5" y="1778.9948">validation_fraction</text><text fill="#D9B8FF" font-family="sans-serif" font-size="14" lengthAdjust="spacing" textLength="57" x="1233.5" y="1778.9948">: double</text></g><!--class gcp_vertex_ai_training_pipeline--><g id="elem_gcp_vertex_ai_training_pipeline"><rect codeLine="75" fill="#3D176E" height="442.2422" id="gcp_vertex_ai_training_pipeline" rx="2.5" ry="2.5" style="stroke:#000D19;stroke-width:0.5;" width="389" x="204.5" y="712.73"/><ellipse cx="257.25" cy="732.6245" fill="#ADD1B2" rx="11" ry="11" style="stroke:#181818;stroke-width:1.0;"/><path d="M260.2188,738.2652 Q259.6406,738.562 259,738.7027 Q258.3594,738.8589 257.6563,738.8589 Q255.1563,738.8589 253.8281,737.2183 Q252.5156,735.562 252.5156,732.437 Q252.5156,729.312 253.8281,727.6558 Q255.1563,725.9995 257.6563,725.9995 Q258.3594,725.9995 259,726.1558 Q259.6563,726.312 260.2188,726.6089 L260.2188,729.3277 Q259.5938,728.7495 259,728.4839 Q258.4063,728.2027 257.7813,728.2027 Q256.4375,728.2027 255.75,729.2808 Q255.0625,730.3433 255.0625,732.437 Q255.0625,734.5308 255.75,735.6089 Q256.4375,736.6714 257.7813,736.6714 Q258.4063,736.6714 259,736.4058 Q259.5938,736.1245 260.2188,735.5464 L260.2188,738.2652 Z " fill="#000000"/><text fill="#D9B8FF" font-family="Helvetica" font-size="17" lengthAdjust="spacing" textLength="265" x="282.75" y="738.5098">gcp_vertex_ai_training_pipeline</text><line style="stroke:#000D19;stroke-width:0.5;" x1="205.5" x2="592.5" y1="752.5191" y2="752.5191"/><text fill="#D9B8FF" font-family="sans-serif" font-size="14" font-weight="bold" lengthAdjust="spacing" textLength="92" x="215.5" y="774.5142">create_time</text><text fill="#D9B8FF" font-family="sans-serif" font-size="14" lengthAdjust="spacing" textLength="70" x="307.5" y="774.5142">: datetime</text><text fill="#D9B8FF" font-family="sans-serif" font-size="14" font-weight="bold" lengthAdjust="spacing" textLength="105" x="215.5" y="800.8111">display_name</text><text fill="#D9B8FF" font-family="sans-serif" font-size="14" lengthAdjust="spacing" textLength="48" x="320.5" y="800.8111">: string</text><text fill="#D9B8FF" font-family="sans-serif" font-size="14" font-weight="bold" lengthAdjust="spacing" textLength="130" x="215.5" y="827.1079">encryption_spec</text><text fill="#D9B8FF" font-family="sans-serif" font-size="14" lengthAdjust="spacing" textLength="48" x="345.5" y="827.1079">: string</text><text fill="#D9B8FF" font-family="sans-serif" font-size="14" font-weight="bold" lengthAdjust="spacing" textLength="71" x="215.5" y="853.4048">end_time</text><text fill="#D9B8FF" font-family="sans-serif" font-size="14" lengthAdjust="spacing" textLength="70" x="286.5" y="853.4048">: datetime</text><text fill="#D9B8FF" font-family="sans-serif" font-size="14" font-weight="bold" lengthAdjust="spacing" textLength="137" x="215.5" y="879.7017">input_data_config</text><text fill="#D9B8FF" font-family="sans-serif" font-size="14" lengthAdjust="spacing" textLength="230" x="352.5" y="879.7017">: gcp_vertex_ai_input_data_config</text><text fill="#D9B8FF" font-family="sans-serif" font-size="14" font-weight="bold" lengthAdjust="spacing" textLength="69" x="215.5" y="905.9986">model_id</text><text fill="#D9B8FF" font-family="sans-serif" font-size="14" lengthAdjust="spacing" textLength="48" x="284.5" y="905.9986">: string</text><text fill="#D9B8FF" font-family="sans-serif" font-size="14" font-weight="bold" lengthAdjust="spacing" textLength="131" x="215.5" y="932.2954">model_to_upload</text><text fill="#D9B8FF" font-family="sans-serif" font-size="14" lengthAdjust="spacing" textLength="48" x="346.5" y="932.2954">: string</text><text fill="#D9B8FF" font-family="sans-serif" font-size="14" font-weight="bold" lengthAdjust="spacing" textLength="107" x="215.5" y="958.5923">parent_model</text><text fill="#D9B8FF" font-family="sans-serif" font-size="14" lengthAdjust="spacing" textLength="48" x="322.5" y="958.5923">: string</text><text fill="#D9B8FF" font-family="sans-serif" font-size="14" font-weight="bold" lengthAdjust="spacing" textLength="74" x="215.5" y="984.8892">rpc_error</text><text fill="#D9B8FF" font-family="sans-serif" font-size="14" lengthAdjust="spacing" textLength="169" x="289.5" y="984.8892">: gcp_google_rpc_status</text><text fill="#D9B8FF" font-family="sans-serif" font-size="14" font-weight="bold" lengthAdjust="spacing" textLength="78" x="215.5" y="1011.1861">start_time</text><text fill="#D9B8FF" font-family="sans-serif" font-size="14" lengthAdjust="spacing" textLength="70" x="293.5" y="1011.1861">: datetime</text><text fill="#D9B8FF" font-family="sans-serif" font-size="14" font-weight="bold" lengthAdjust="spacing" textLength="40" x="215.5" y="1037.4829">state</text><text fill="#D9B8FF" font-family="sans-serif" font-size="14" lengthAdjust="spacing" textLength="48" x="255.5" y="1037.4829">: string</text><text fill="#D9B8FF" font-family="sans-serif" font-size="14" font-weight="bold" lengthAdjust="spacing" textLength="181" x="215.5" y="1063.7798">training_task_definition</text><text fill="#D9B8FF" font-family="sans-serif" font-size="14" lengthAdjust="spacing" textLength="48" x="396.5" y="1063.7798">: string</text><text fill="#D9B8FF" font-family="sans-serif" font-size="14" font-weight="bold" lengthAdjust="spacing" textLength="156" x="215.5" y="1090.0767">training_task_inputs</text><text fill="#D9B8FF" font-family="sans-serif" font-size="14" lengthAdjust="spacing" textLength="33" x="371.5" y="1090.0767">: any</text><text fill="#D9B8FF" font-family="sans-serif" font-size="14" font-weight="bold" lengthAdjust="spacing" textLength="180" x="215.5" y="1116.3736">training_task_metadata</text><text fill="#D9B8FF" font-family="sans-serif" font-size="14" lengthAdjust="spacing" textLength="33" x="395.5" y="1116.3736">: any</text><text fill="#D9B8FF" font-family="sans-serif" font-size="14" font-weight="bold" lengthAdjust="spacing" textLength="96" x="215.5" y="1142.6704">update_time</text><text fill="#D9B8FF" font-family="sans-serif" font-size="14" lengthAdjust="spacing" textLength="70" x="311.5" y="1142.6704">: datetime</text></g><!--class resource--><g id="elem_resource"><rect codeLine="92" fill="#3D176E" height="310.7578" id="resource" rx="2.5" ry="2.5" style="stroke:#000D19;stroke-width:0.5;" width="227" x="67.5" y="7"/><ellipse cx="136.25" cy="26.8945" fill="#ADD1B2" rx="11" ry="11" style="stroke:#181818;stroke-width:1.0;"/><path d="M139.2188,32.5352 Q138.6406,32.832 138,32.9727 Q137.3594,33.1289 136.6563,33.1289 Q134.1563,33.1289 132.8281,31.4883 Q131.5156,29.832 131.5156,26.707 Q131.5156,23.582 132.8281,21.9258 Q134.1563,20.2695 136.6563,20.2695 Q137.3594,20.2695 138,20.4258 Q138.6563,20.582 139.2188,20.8789 L139.2188,23.5977 Q138.5938,23.0195 138,22.7539 Q137.4063,22.4727 136.7813,22.4727 Q135.4375,22.4727 134.75,23.5508 Q134.0625,24.6133 134.0625,26.707 Q134.0625,28.8008 134.75,29.8789 Q135.4375,30.9414 136.7813,30.9414 Q137.4063,30.9414 138,30.6758 Q138.5938,30.3945 139.2188,29.8164 L139.2188,32.5352 Z " fill="#000000"/><text fill="#D9B8FF" font-family="Helvetica" font-size="17" lengthAdjust="spacing" textLength="71" x="161.75" y="32.7798">resource</text><line style="stroke:#000D19;stroke-width:0.5;" x1="68.5" x2="293.5" y1="46.7891" y2="46.7891"/><text fill="#D9B8FF" font-family="sans-serif" font-size="14" font-weight="bold" lengthAdjust="spacing" textLength="29" x="78.5" y="68.7842">age</text><text fill="#D9B8FF" font-family="sans-serif" font-size="14" lengthAdjust="spacing" textLength="66" x="107.5" y="68.7842">: duration</text><text fill="#D9B8FF" font-family="sans-serif" font-size="14" font-weight="bold" lengthAdjust="spacing" textLength="43" x="78.5" y="95.0811">atime</text><text fill="#D9B8FF" font-family="sans-serif" font-size="14" lengthAdjust="spacing" textLength="70" x="121.5" y="95.0811">: datetime</text><text fill="#D9B8FF" font-family="sans-serif" font-size="14" font-weight="bold" lengthAdjust="spacing" textLength="43" x="78.5" y="121.3779">ctime</text><text fill="#D9B8FF" font-family="sans-serif" font-size="14" lengthAdjust="spacing" textLength="70" x="121.5" y="121.3779">: datetime</text><text fill="#D9B8FF" font-family="sans-serif" font-size="14" font-weight="bold" lengthAdjust="spacing" textLength="14" x="78.5" y="147.6748">id</text><text fill="#D9B8FF" font-family="sans-serif" font-size="14" lengthAdjust="spacing" textLength="48" x="92.5" y="147.6748">: string</text><text fill="#D9B8FF" font-family="sans-serif" font-size="14" font-weight="bold" lengthAdjust="spacing" textLength="33" x="78.5" y="173.9717">kind</text><text fill="#D9B8FF" font-family="sans-serif" font-size="14" lengthAdjust="spacing" textLength="48" x="111.5" y="173.9717">: string</text><text fill="#D9B8FF" font-family="sans-serif" font-size="14" font-weight="bold" lengthAdjust="spacing" textLength="90" x="78.5" y="200.2686">last_access</text><text fill="#D9B8FF" font-family="sans-serif" font-size="14" lengthAdjust="spacing" textLength="66" x="168.5" y="200.2686">: duration</text><text fill="#D9B8FF" font-family="sans-serif" font-size="14" font-weight="bold" lengthAdjust="spacing" textLength="90" x="78.5" y="226.5654">last_update</text><text fill="#D9B8FF" font-family="sans-serif" font-size="14" lengthAdjust="spacing" textLength="66" x="168.5" y="226.5654">: duration</text><text fill="#D9B8FF" font-family="sans-serif" font-size="14" font-weight="bold" lengthAdjust="spacing" textLength="48" x="78.5" y="252.8623">mtime</text><text fill="#D9B8FF" font-family="sans-serif" font-size="14" lengthAdjust="spacing" textLength="70" x="126.5" y="252.8623">: datetime</text><text fill="#D9B8FF" font-family="sans-serif" font-size="14" font-weight="bold" lengthAdjust="spacing" textLength="43" x="78.5" y="279.1592">name</text><text fill="#D9B8FF" font-family="sans-serif" font-size="14" lengthAdjust="spacing" textLength="48" x="121.5" y="279.1592">: string</text><text fill="#D9B8FF" font-family="sans-serif" font-size="14" font-weight="bold" lengthAdjust="spacing" textLength="34" x="78.5" y="305.4561">tags</text><text fill="#D9B8FF" font-family="sans-serif" font-size="14" lengthAdjust="spacing" textLength="171" x="112.5" y="305.4561">: dictionary[string, string]</text></g><!--link gcp_google_rpc_status to gcp_details--><g id="link_gcp_google_rpc_status_gcp_details"><path codeLine="104" d="M392.94,1460.11 C380.03,1533 360.4656,1643.4118 352.4256,1688.8418 " fill="none" id="gcp_google_rpc_status-to-gcp_details" style="stroke:#FFAF37;stroke-width:2.0;"/><polygon fill="#FFAF37" points="351.38,1694.75,356.8872,1686.5848,352.2513,1689.8265,349.0096,1685.1906,351.38,1694.75" style="stroke:#FFAF37;stroke-width:2.0;"/></g><!--link gcp_resource to gcp_deprecation_status--><g id="link_gcp_resource_gcp_deprecation_status"><path codeLine="105" d="M177.12,591.98 C168.84,753.94 149.7368,1127.2778 140.8668,1300.5178 " fill="none" id="gcp_resource-to-gcp_deprecation_status" style="stroke:#FFAF37;stroke-width:2.0;"/><polygon fill="#FFAF37" points="140.56,1306.51,145.015,1297.7263,140.8157,1301.5165,137.0254,1297.3172,140.56,1306.51" style="stroke:#FFAF37;stroke-width:2.0;"/></g><!--reverse link resource to gcp_resource--><g id="link_resource_gcp_resource"><path codeLine="106" d="M181,336.04 C181,377.74 181,403.03 181,438.31 " fill="none" id="resource-backto-gcp_resource" style="stroke:#FFAF37;stroke-width:2.0;"/><polygon fill="none" points="181,318.04,175,336.04,187,336.04,181,318.04" style="stroke:#FFAF37;stroke-width:2.0;"/></g><!--link gcp_vertex_ai_input_data_config to gcp_vertex_ai_fraction_split--><g id="link_gcp_vertex_ai_input_data_config_gcp_vertex_ai_fraction_split"><path codeLine="107" d="M697.59,1578.81 C676.34,1604.75 659.5927,1625.199 642.0827,1646.569 " fill="none" id="gcp_vertex_ai_input_data_config-to-gcp_vertex_ai_fraction_split" style="stroke:#FFAF37;stroke-width:2.0;"/><polygon fill="#FFAF37" points="638.28,1651.21,647.0781,1646.7836,641.4489,1647.3425,640.8901,1641.7133,638.28,1651.21" style="stroke:#FFAF37;stroke-width:2.0;"/></g><!--link gcp_vertex_ai_input_data_config to gcp_vertex_ai_stratified_split--><g id="link_gcp_vertex_ai_input_data_config_gcp_vertex_ai_stratified_split"><path codeLine="108" d="M878.09,1578.81 C881.78,1599.65 884.3243,1614.0218 887.5543,1632.2718 " fill="none" id="gcp_vertex_ai_input_data_config-to-gcp_vertex_ai_stratified_split" style="stroke:#FFAF37;stroke-width:2.0;"/><polygon fill="#FFAF37" points="888.6,1638.18,890.9703,1628.6206,887.7286,1633.2565,883.0927,1630.0148,888.6,1638.18" style="stroke:#FFAF37;stroke-width:2.0;"/></g><!--link gcp_vertex_ai_input_data_config to gcp_vertex_ai_timestamp_split--><g id="link_gcp_vertex_ai_input_data_config_gcp_vertex_ai_timestamp_split"><path codeLine="109" d="M1026.76,1546.47 C1065.27,1578.18 1099.7585,1606.5756 1133.2585,1634.1656 " fill="none" id="gcp_vertex_ai_input_data_config-to-gcp_vertex_ai_timestamp_split" style="stroke:#FFAF37;stroke-width:2.0;"/><polygon fill="#FFAF37" points="1137.89,1637.98,1133.4857,1629.1708,1134.0304,1634.8013,1128.3999,1635.3461,1137.89,1637.98" style="stroke:#FFAF37;stroke-width:2.0;"/></g><!--link gcp_vertex_ai_training_pipeline to gcp_deprecation_status--><g id="link_gcp_vertex_ai_training_pipeline_gcp_deprecation_status"><path codeLine="110" d="M273.08,1155.46 C242.54,1208.98 214.564,1257.9989 189.824,1301.3489 " fill="none" id="gcp_vertex_ai_training_pipeline-to-gcp_deprecation_status" style="stroke:#FFAF37;stroke-width:2.0;"/><polygon fill="#FFAF37" points="186.85,1306.56,194.785,1300.726,189.3283,1302.2174,187.8369,1296.7607,186.85,1306.56" style="stroke:#FFAF37;stroke-width:2.0;"/></g><!--link gcp_vertex_ai_training_pipeline to gcp_google_rpc_status--><g id="link_gcp_vertex_ai_training_pipeline_gcp_google_rpc_status"><path codeLine="111" d="M401.39,1155.46 C402.1,1220.66 402.7553,1280.9003 403.2553,1327.2603 " fill="none" id="gcp_vertex_ai_training_pipeline-to-gcp_google_rpc_status" style="stroke:#FFAF37;stroke-width:2.0;"/><polygon fill="#FFAF37" points="403.32,1333.26,407.2227,1324.2174,403.2661,1328.2603,399.2232,1324.3037,403.32,1333.26" style="stroke:#FFAF37;stroke-width:2.0;"/></g><!--reverse link gcp_resource to gcp_vertex_ai_training_pipeline--><g id="link_gcp_resource_gcp_vertex_ai_training_pipeline"><path codeLine="112" d="M229.0754,608.1185 C247.0654,642.4985 261.01,669.15 283.67,712.45 " fill="none" id="gcp_resource-backto-gcp_vertex_ai_training_pipeline" style="stroke:#FFAF37;stroke-width:2.0;"/><polygon fill="none" points="220.73,592.17,223.7592,610.9003,234.3915,605.3367,220.73,592.17" style="stroke:#FFAF37;stroke-width:2.0;"/></g><!--link gcp_vertex_ai_training_pipeline to gcp_vertex_ai_input_data_config--><g id="link_gcp_vertex_ai_training_pipeline_gcp_vertex_ai_input_data_config"><path codeLine="113" d="M593.76,1135.62 C619.29,1161.94 641.1417,1184.474 666.3217,1210.424 " fill="none" id="gcp_vertex_ai_training_pipeline-to-gcp_vertex_ai_input_data_config" style="stroke:#FFAF37;stroke-width:2.0;"/><polygon fill="#FFAF37" points="670.5,1214.73,667.1033,1205.4854,667.0181,1211.1416,661.3619,1211.0564,670.5,1214.73" style="stroke:#FFAF37;stroke-width:2.0;"/></g><!--SRC=[nLPDZzGu4BtthuZ4RRGjpS32C6Yr4eoqWWj22pSqYghjIiPgn_QMdM6RZ_zEsUcUZfsa1ovmwzHxhdhruNBVAeaLTYxigWwx3P9V-Qqo3WYwwYMH_NHjjQNgKTD0y-Io1F-n9Zn8U0iTLgzHts5G0ah6XribjWQzhnwFe5SWjYtPtiZ1VI0mdY4qOSIwrk3zon18RVg08p7oQlEyQKfcwVJH4tbn-GmdD4iIQKyvFp-N5rSbvS5G9_E-PxnNdx6w61VjhGquaJa9aLWdLKR6IEGaqGE-gF4TIAbCMpqTsVuTD951okplRq7QJv7TWFRZC3uWeGqxXzUJhF3gkMmkPyblbiWh4KjNjSBL4XsXWA2igNs0qFlgo-hiJAB6WFBix0Nx8zQKR0ErCDkDjv6S6GcT1e4T3rfcZo76p6-Pb01An_YPkRMsrLYJ4sE1mihaHvdmxCyaBXsEff6lZpSCTNmhe5sAIkXjJmBtQPVLE3eiaKJtWfIBnYnB3HlKTSCVI8vjUGsqCji5CNT80V-lGTKDWHY2EQr24XVGXtjxT21jlz4O4G9bsDSyUWTQoK7v33uVdeUf3pMVWbfOqwWsAG1ZRDZNGDnY1tLFAiljoF2Sl-PHpE2DQl_haNPSJX-KWKdbOaIFeLRvZ0skXbf40CmkMhCQ7JgrL4C-q0g_6DdnqbPSu4xNlSUQIw9QSvZVZUKH1nDfX1AvioYFKO_J3NTi7p8iCk0V7BDHutEvsf8H-wfuTWDqRkbCGLXePkavzNABkqpWhvokGlRlrtFmw9H3lfx3CX24lAoIsEI1F-BlEAMATSEkDj3bQm-De9tRpnoA0fDplYOtRThb2IKkDTv_kXoomHXitJjj8SU6LxzEb7nLys95_Wj1Xy2JXJliRGfpyik5FceFt-HjdIwBcjosd9GIzCUBdQCTx_AO_17ldPpjpA6xsKxVhtxPKvgAQ9d9Gyor9gyWlx2oMFCyeY04loz5X8GCAWkacuap6QC0xU1HfVa5sdqSi3_sd1jETVvjNA__7Z-0g-o9EuAJn-oUyzVNzNgTlOohXvw6Wzl5pVlp3YRByETTbBlneIj_eZW_UdHwSxBo7qjxmjaF1pkr7xu3]--></g></svg>