<svg xmlns="http://www.w3.org/2000/svg" width="1618" height="732" viewBox="0 0 1618 732"><rect width="109" height="39.789" x="7" y="686.44" fill="#3D176E" rx="2.5" ry="2.5" style="stroke:#000d19;stroke-width:.5"/><circle cx="22" cy="706.335" r="11" fill="#ADD1B2" style="stroke:#181818;stroke-width:1"/><path d="M24.969 711.975q-.578.297-1.219.438-.64.156-1.344.156-2.5 0-3.828-1.64-1.312-1.657-1.312-4.782t1.312-4.781q1.328-1.656 3.828-1.656.703 0 1.344.156.656.156 1.219.453v2.719q-.625-.578-1.219-.844-.594-.281-1.219-.281-1.343 0-2.031 1.078-.687 1.062-.687 3.156t.687 3.172q.688 1.062 2.031 1.062.625 0 1.219-.265.594-.281 1.219-.86z"/><text x="41" y="712.22" fill="#D9B8FF" font-family="Helvetica" font-size="17" textLength="67">aws_alb</text><rect width="109" height="39.789" x="151" y="686.44" fill="#3D176E" rx="2.5" ry="2.5" style="stroke:#000d19;stroke-width:.5"/><circle cx="166" cy="706.335" r="11" fill="#ADD1B2" style="stroke:#181818;stroke-width:1"/><path d="M168.969 711.975q-.578.297-1.219.438-.64.156-1.344.156-2.5 0-3.828-1.64-1.312-1.657-1.312-4.782t1.312-4.781q1.328-1.656 3.828-1.656.703 0 1.344.156.656.156 1.219.453v2.719q-.625-.578-1.219-.844-.594-.281-1.219-.281-1.344 0-2.031 1.078-.687 1.062-.687 3.156t.687 3.172q.688 1.062 2.031 1.062.625 0 1.219-.265.594-.281 1.219-.86z"/><text x="185" y="712.22" fill="#D9B8FF" font-family="Helvetica" font-size="17" textLength="67">aws_elb</text><rect width="291" height="39.789" x="295" y="686.44" fill="#3D176E" rx="2.5" ry="2.5" style="stroke:#000d19;stroke-width:.5"/><circle cx="310" cy="706.335" r="11" fill="#ADD1B2" style="stroke:#181818;stroke-width:1"/><path d="M312.969 711.975q-.578.297-1.219.438-.64.156-1.344.156-2.5 0-3.828-1.64-1.312-1.657-1.312-4.782t1.312-4.781q1.328-1.656 3.828-1.656.703 0 1.344.156.656.156 1.219.453v2.719q-.625-.578-1.219-.844-.594-.281-1.219-.281-1.344 0-2.031 1.078-.687 1.062-.687 3.156t.687 3.172q.688 1.062 2.031 1.062.625 0 1.219-.265.594-.281 1.219-.86z"/><text x="329" y="712.22" fill="#D9B8FF" font-family="Helvetica" font-size="17" textLength="249">azure_network_load_balancer</text><rect width="267" height="39.789" x="621" y="686.44" fill="#3D176E" rx="2.5" ry="2.5" style="stroke:#000d19;stroke-width:.5"/><circle cx="636" cy="706.335" r="11" fill="#ADD1B2" style="stroke:#181818;stroke-width:1"/><path d="M638.969 711.975q-.578.297-1.219.438-.64.156-1.344.156-2.5 0-3.828-1.64-1.312-1.657-1.312-4.782t1.312-4.781q1.328-1.656 3.828-1.656.703 0 1.344.156.656.156 1.219.453v2.719q-.625-.578-1.219-.844-.594-.281-1.219-.281-1.343 0-2.031 1.078-.687 1.062-.687 3.156t.687 3.172q.688 1.062 2.031 1.062.625 0 1.219-.265.594-.281 1.219-.86z"/><text x="655" y="712.22" fill="#D9B8FF" font-family="Helvetica" font-size="17" textLength="225">digitalocean_load_balancer</text><rect width="212" height="39.789" x="922.5" y="686.44" fill="#3D176E" rx="2.5" ry="2.5" style="stroke:#000d19;stroke-width:.5"/><circle cx="937.5" cy="706.335" r="11" fill="#ADD1B2" style="stroke:#181818;stroke-width:1"/><path d="M940.469 711.975q-.578.297-1.219.438-.64.156-1.344.156-2.5 0-3.828-1.64-1.312-1.657-1.312-4.782t1.312-4.781q1.328-1.656 3.828-1.656.703 0 1.344.156.656.156 1.219.453v2.719q-.625-.578-1.219-.844-.594-.281-1.219-.281-1.343 0-2.031 1.078-.687 1.062-.687 3.156t.687 3.172q.688 1.062 2.031 1.062.625 0 1.219-.265.594-.281 1.219-.86z"/><text x="956.5" y="712.22" fill="#D9B8FF" font-family="Helvetica" font-size="17" textLength="170">gcp_forwarding_rule</text><rect width="204" height="39.789" x="1169.5" y="686.44" fill="#3D176E" rx="2.5" ry="2.5" style="stroke:#000d19;stroke-width:.5"/><circle cx="1184.5" cy="706.335" r="11" fill="#ADD1B2" style="stroke:#181818;stroke-width:1"/><path d="M1187.469 711.975q-.578.297-1.219.438-.64.156-1.344.156-2.5 0-3.828-1.64-1.312-1.657-1.312-4.782t1.312-4.781q1.328-1.656 3.828-1.656.703 0 1.344.156.656.156 1.219.453v2.719q-.625-.578-1.219-.844-.594-.281-1.219-.281-1.343 0-2.031 1.078-.687 1.062-.687 3.156t.687 3.172q.688 1.062 2.031 1.062.625 0 1.219-.265.594-.281 1.219-.86z"/><text x="1203.5" y="712.22" fill="#D9B8FF" font-family="Helvetica" font-size="17" textLength="162">kubernetes_ingress</text><rect width="203" height="39.789" x="1408" y="686.44" fill="#3D176E" rx="2.5" ry="2.5" style="stroke:#000d19;stroke-width:.5"/><circle cx="1423" cy="706.335" r="11" fill="#ADD1B2" style="stroke:#181818;stroke-width:1"/><path d="M1425.969 711.975q-.578.297-1.219.438-.64.156-1.344.156-2.5 0-3.828-1.64-1.312-1.657-1.312-4.782t1.312-4.781q1.328-1.656 3.828-1.656.703 0 1.344.156.656.156 1.219.453v2.719q-.625-.578-1.219-.844-.594-.281-1.219-.281-1.343 0-2.031 1.078-.687 1.062-.687 3.156t.687 3.172q.688 1.062 2.031 1.062.625 0 1.219-.265.594-.281 1.219-.86z"/><text x="1442" y="712.22" fill="#D9B8FF" font-family="Helvetica" font-size="17" textLength="161">kubernetes_service</text><rect width="209" height="126.68" x="650" y="438.76" fill="#3D176E" rx="2.5" ry="2.5" style="stroke:#000d19;stroke-width:.5"/><circle cx="688.4" cy="458.654" r="11" fill="#ADD1B2" style="stroke:#181818;stroke-width:1"/><path d="M691.369 464.295q-.578.297-1.219.438-.64.156-1.344.156-2.5 0-3.828-1.64-1.312-1.657-1.312-4.782t1.312-4.781q1.328-1.656 3.828-1.656.703 0 1.344.156.656.156 1.219.453v2.719q-.625-.579-1.219-.844-.594-.281-1.219-.281-1.344 0-2.031 1.078-.687 1.062-.687 3.156t.687 3.172q.688 1.062 2.031 1.062.625 0 1.219-.265.594-.281 1.219-.86z"/><text x="712.6" y="464.54" fill="#D9B8FF" font-family="Helvetica" font-size="17" textLength="115">load_balancer</text><path d="M651 478.549h207" style="stroke:#000d19;stroke-width:.5"/><text x="661" y="500.544" fill="#D9B8FF" font-family="sans-serif" font-size="14" font-weight="bold" textLength="76">backends</text><text x="737" y="500.544" fill="#D9B8FF" font-family="sans-serif" font-size="14" textLength="58">: string[]</text><text x="661" y="526.841" fill="#D9B8FF" font-family="sans-serif" font-size="14" font-weight="bold" textLength="56">lb_type</text><text x="717" y="526.841" fill="#D9B8FF" font-family="sans-serif" font-size="14" textLength="48">: string</text><text x="661" y="553.138" fill="#D9B8FF" font-family="sans-serif" font-size="14" font-weight="bold" textLength="139">public_ip_address</text><text x="800" y="553.138" fill="#D9B8FF" font-family="sans-serif" font-size="14" textLength="48">: string</text><rect width="227" height="310.758" x="641" y="7" fill="#3D176E" rx="2.5" ry="2.5" style="stroke:#000d19;stroke-width:.5"/><circle cx="709.75" cy="26.895" r="11" fill="#ADD1B2" style="stroke:#181818;stroke-width:1"/><path d="M712.719 32.535q-.578.297-1.219.438-.64.156-1.344.156-2.5 0-3.828-1.64-1.312-1.657-1.312-4.782t1.312-4.781q1.328-1.656 3.828-1.656.703 0 1.344.156.656.156 1.219.453v2.719q-.625-.578-1.219-.844-.594-.281-1.219-.281-1.343 0-2.031 1.078-.687 1.062-.687 3.156t.687 3.172q.688 1.062 2.031 1.062.625 0 1.219-.265.594-.281 1.219-.86z"/><text x="735.25" y="32.78" fill="#D9B8FF" font-family="Helvetica" font-size="17" textLength="71">resource</text><path d="M642 46.789h225" style="stroke:#000d19;stroke-width:.5"/><text x="652" y="68.784" fill="#D9B8FF" font-family="sans-serif" font-size="14" font-weight="bold" textLength="29">age</text><text x="681" y="68.784" fill="#D9B8FF" font-family="sans-serif" font-size="14" textLength="66">: duration</text><text x="652" y="95.081" fill="#D9B8FF" font-family="sans-serif" font-size="14" font-weight="bold" textLength="43">atime</text><text x="695" y="95.081" fill="#D9B8FF" font-family="sans-serif" font-size="14" textLength="70">: datetime</text><text x="652" y="121.378" fill="#D9B8FF" font-family="sans-serif" font-size="14" font-weight="bold" textLength="43">ctime</text><text x="695" y="121.378" fill="#D9B8FF" font-family="sans-serif" font-size="14" textLength="70">: datetime</text><text x="652" y="147.675" fill="#D9B8FF" font-family="sans-serif" font-size="14" font-weight="bold" textLength="14">id</text><text x="666" y="147.675" fill="#D9B8FF" font-family="sans-serif" font-size="14" textLength="48">: string</text><text x="652" y="173.972" fill="#D9B8FF" font-family="sans-serif" font-size="14" font-weight="bold" textLength="33">kind</text><text x="685" y="173.972" fill="#D9B8FF" font-family="sans-serif" font-size="14" textLength="48">: string</text><text x="652" y="200.269" fill="#D9B8FF" font-family="sans-serif" font-size="14" font-weight="bold" textLength="90">last_access</text><text x="742" y="200.269" fill="#D9B8FF" font-family="sans-serif" font-size="14" textLength="66">: duration</text><text x="652" y="226.565" fill="#D9B8FF" font-family="sans-serif" font-size="14" font-weight="bold" textLength="90">last_update</text><text x="742" y="226.565" fill="#D9B8FF" font-family="sans-serif" font-size="14" textLength="66">: duration</text><text x="652" y="252.862" fill="#D9B8FF" font-family="sans-serif" font-size="14" font-weight="bold" textLength="48">mtime</text><text x="700" y="252.862" fill="#D9B8FF" font-family="sans-serif" font-size="14" textLength="70">: datetime</text><text x="652" y="279.159" fill="#D9B8FF" font-family="sans-serif" font-size="14" font-weight="bold" textLength="43">name</text><text x="695" y="279.159" fill="#D9B8FF" font-family="sans-serif" font-size="14" textLength="48">: string</text><text x="652" y="305.456" fill="#D9B8FF" font-family="sans-serif" font-size="14" font-weight="bold" textLength="34">tags</text><text x="686" y="305.456" fill="#D9B8FF" font-family="sans-serif" font-size="14" textLength="171">: dictionary[string, string]</text><path fill="none" d="M632.34 538.752C482.88 582.362 231.27 655.79 116.18 689.38m533.44-155.67-18.96-.718 3.361 11.52z" style="stroke:#ffaf37;stroke-width:2"/><g fill="none"><path d="M632.73 547.961c-117.02 43.1-284.79 104.909-374.64 137.999" style="stroke:#ffaf37;stroke-width:2"/><path d="m649.62 541.74-18.965.59 4.148 11.261z" style="stroke:#ffaf37;stroke-width:2"/></g><g fill="none"><path d="M642.168 575.448c-64.3 41.42-129.208 83.212-171.768 110.632" style="stroke:#ffaf37;stroke-width:2"/><path d="m657.3 565.7-18.381 4.704 6.498 10.088z" style="stroke:#ffaf37;stroke-width:2"/></g><path fill="none" d="M754.5 583.7v102.61m0-120.61-6 18h12zm99.302 10.69c56.11 41.42 111.468 82.27 148.608 109.69M839.32 565.7l10.918 15.517 7.127-9.654zm36.873-14.993L1222.22 686.06M859.43 544.15l14.577 12.145 4.372-11.175zm17.437-8.272C1032.457 577.558 1302.91 650 1437.11 685.94M859.48 531.22l15.834 10.453 3.106-11.591zM754.5 335.91v102.41m0-120.41-6 18h12z" style="stroke:#ffaf37;stroke-width:2"/></svg>