<?xml version="1.0" encoding="us-ascii" standalone="no"?><svg xmlns="http://www.w3.org/2000/svg" xmlns:xlink="http://www.w3.org/1999/xlink" contentStyleType="text/css" height="2011px" preserveAspectRatio="none" style="width:857px;height:2011px;" version="1.1" viewBox="0 0 857 2011" width="857px" zoomAndPan="magnify"><defs/><g><!--class aws_acm_certificate--><g id="elem_aws_acm_certificate"><rect codeLine="23" fill="#3D176E" height="652.6172" id="aws_acm_certificate" rx="2.5" ry="2.5" style="stroke:#000D19;stroke-width:0.5;" width="438" x="7" y="686.44"/><ellipse cx="132.25" cy="706.3345" fill="#ADD1B2" rx="11" ry="11" style="stroke:#181818;stroke-width:1.0;"/><path d="M135.2188,711.9752 Q134.6406,712.272 134,712.4127 Q133.3594,712.5689 132.6563,712.5689 Q130.1563,712.5689 128.8281,710.9283 Q127.5156,709.272 127.5156,706.147 Q127.5156,703.022 128.8281,701.3658 Q130.1563,699.7095 132.6563,699.7095 Q133.3594,699.7095 134,699.8658 Q134.6563,700.022 135.2188,700.3189 L135.2188,703.0377 Q134.5938,702.4595 134,702.1939 Q133.4063,701.9127 132.7813,701.9127 Q131.4375,701.9127 130.75,702.9908 Q130.0625,704.0533 130.0625,706.147 Q130.0625,708.2408 130.75,709.3189 Q131.4375,710.3814 132.7813,710.3814 Q133.4063,710.3814 134,710.1158 Q134.5938,709.8345 135.2188,709.2564 L135.2188,711.9752 Z " fill="#000000"/><text fill="#D9B8FF" font-family="Helvetica" font-size="17" lengthAdjust="spacing" textLength="169" x="157.75" y="712.2198">aws_acm_certificate</text><line style="stroke:#000D19;stroke-width:0.5;" x1="8" x2="444" y1="726.2291" y2="726.2291"/><text fill="#D9B8FF" font-family="sans-serif" font-size="14" font-weight="bold" lengthAdjust="spacing" textLength="191" x="18" y="748.2242">certificate_authority_arn</text><text fill="#D9B8FF" font-family="sans-serif" font-size="14" lengthAdjust="spacing" textLength="48" x="209" y="748.2242">: string</text><text fill="#D9B8FF" font-family="sans-serif" font-size="14" font-weight="bold" lengthAdjust="spacing" textLength="257" x="18" y="774.5211">certificate_transparency_logging</text><text fill="#D9B8FF" font-family="sans-serif" font-size="14" lengthAdjust="spacing" textLength="48" x="275" y="774.5211">: string</text><text fill="#D9B8FF" font-family="sans-serif" font-size="14" font-weight="bold" lengthAdjust="spacing" textLength="205" x="18" y="800.8179">domain_validation_options</text><text fill="#D9B8FF" font-family="sans-serif" font-size="14" lengthAdjust="spacing" textLength="211" x="223" y="800.8179">: aws_acm_domain_validation[]</text><text fill="#D9B8FF" font-family="sans-serif" font-size="14" font-weight="bold" lengthAdjust="spacing" textLength="174" x="18" y="827.1148">extended_key_usages</text><text fill="#D9B8FF" font-family="sans-serif" font-size="14" lengthAdjust="spacing" textLength="236" x="192" y="827.1148">: aws_acm_extended_key_usage[]</text><text fill="#D9B8FF" font-family="sans-serif" font-size="14" font-weight="bold" lengthAdjust="spacing" textLength="112" x="18" y="853.4117">failure_reason</text><text fill="#D9B8FF" font-family="sans-serif" font-size="14" lengthAdjust="spacing" textLength="48" x="130" y="853.4117">: string</text><text fill="#D9B8FF" font-family="sans-serif" font-size="14" font-weight="bold" lengthAdjust="spacing" textLength="93" x="18" y="879.7086">imported_at</text><text fill="#D9B8FF" font-family="sans-serif" font-size="14" lengthAdjust="spacing" textLength="70" x="111" y="879.7086">: datetime</text><text fill="#D9B8FF" font-family="sans-serif" font-size="14" font-weight="bold" lengthAdjust="spacing" textLength="76" x="18" y="906.0054">in_use_by</text><text fill="#D9B8FF" font-family="sans-serif" font-size="14" lengthAdjust="spacing" textLength="58" x="94" y="906.0054">: string[]</text><text fill="#D9B8FF" font-family="sans-serif" font-size="14" font-weight="bold" lengthAdjust="spacing" textLength="74" x="18" y="932.3023">issued_at</text><text fill="#D9B8FF" font-family="sans-serif" font-size="14" lengthAdjust="spacing" textLength="70" x="92" y="932.3023">: datetime</text><text fill="#D9B8FF" font-family="sans-serif" font-size="14" font-weight="bold" lengthAdjust="spacing" textLength="49" x="18" y="958.5992">issuer</text><text fill="#D9B8FF" font-family="sans-serif" font-size="14" lengthAdjust="spacing" textLength="48" x="67" y="958.5992">: string</text><text fill="#D9B8FF" font-family="sans-serif" font-size="14" font-weight="bold" lengthAdjust="spacing" textLength="109" x="18" y="984.8961">key_algorithm</text><text fill="#D9B8FF" font-family="sans-serif" font-size="14" lengthAdjust="spacing" textLength="48" x="127" y="984.8961">: string</text><text fill="#D9B8FF" font-family="sans-serif" font-size="14" font-weight="bold" lengthAdjust="spacing" textLength="92" x="18" y="1011.1929">key_usages</text><text fill="#D9B8FF" font-family="sans-serif" font-size="14" lengthAdjust="spacing" textLength="58" x="110" y="1011.1929">: string[]</text><text fill="#D9B8FF" font-family="sans-serif" font-size="14" font-weight="bold" lengthAdjust="spacing" textLength="71" x="18" y="1037.4898">not_after</text><text fill="#D9B8FF" font-family="sans-serif" font-size="14" lengthAdjust="spacing" textLength="70" x="89" y="1037.4898">: datetime</text><text fill="#D9B8FF" font-family="sans-serif" font-size="14" font-weight="bold" lengthAdjust="spacing" textLength="86" x="18" y="1063.7867">not_before</text><text fill="#D9B8FF" font-family="sans-serif" font-size="14" lengthAdjust="spacing" textLength="70" x="104" y="1063.7867">: datetime</text><text fill="#D9B8FF" font-family="sans-serif" font-size="14" font-weight="bold" lengthAdjust="spacing" textLength="140" x="18" y="1090.0836">renewal_eligibility</text><text fill="#D9B8FF" font-family="sans-serif" font-size="14" lengthAdjust="spacing" textLength="48" x="158" y="1090.0836">: string</text><text fill="#D9B8FF" font-family="sans-serif" font-size="14" font-weight="bold" lengthAdjust="spacing" textLength="143" x="18" y="1116.3804">renewal_summary</text><text fill="#D9B8FF" font-family="sans-serif" font-size="14" lengthAdjust="spacing" textLength="203" x="161" y="1116.3804">: aws_acm_renewal_summary</text><text fill="#D9B8FF" font-family="sans-serif" font-size="14" font-weight="bold" lengthAdjust="spacing" textLength="146" x="18" y="1142.6773">revocation_reason</text><text fill="#D9B8FF" font-family="sans-serif" font-size="14" lengthAdjust="spacing" textLength="48" x="164" y="1142.6773">: string</text><text fill="#D9B8FF" font-family="sans-serif" font-size="14" font-weight="bold" lengthAdjust="spacing" textLength="87" x="18" y="1168.9742">revoked_at</text><text fill="#D9B8FF" font-family="sans-serif" font-size="14" lengthAdjust="spacing" textLength="70" x="105" y="1168.9742">: datetime</text><text fill="#D9B8FF" font-family="sans-serif" font-size="14" font-weight="bold" lengthAdjust="spacing" textLength="43" x="18" y="1195.2711">serial</text><text fill="#D9B8FF" font-family="sans-serif" font-size="14" lengthAdjust="spacing" textLength="48" x="61" y="1195.2711">: string</text><text fill="#D9B8FF" font-family="sans-serif" font-size="14" font-weight="bold" lengthAdjust="spacing" textLength="156" x="18" y="1221.5679">signature_algorithm</text><text fill="#D9B8FF" font-family="sans-serif" font-size="14" lengthAdjust="spacing" textLength="48" x="174" y="1221.5679">: string</text><text fill="#D9B8FF" font-family="sans-serif" font-size="14" font-weight="bold" lengthAdjust="spacing" textLength="49" x="18" y="1247.8648">status</text><text fill="#D9B8FF" font-family="sans-serif" font-size="14" lengthAdjust="spacing" textLength="48" x="67" y="1247.8648">: string</text><text fill="#D9B8FF" font-family="sans-serif" font-size="14" font-weight="bold" lengthAdjust="spacing" textLength="58" x="18" y="1274.1617">subject</text><text fill="#D9B8FF" font-family="sans-serif" font-size="14" lengthAdjust="spacing" textLength="48" x="76" y="1274.1617">: string</text><text fill="#D9B8FF" font-family="sans-serif" font-size="14" font-weight="bold" lengthAdjust="spacing" textLength="208" x="18" y="1300.4586">subject_alternative_names</text><text fill="#D9B8FF" font-family="sans-serif" font-size="14" lengthAdjust="spacing" textLength="58" x="226" y="1300.4586">: string[]</text><text fill="#D9B8FF" font-family="sans-serif" font-size="14" font-weight="bold" lengthAdjust="spacing" textLength="35" x="18" y="1326.7554">type</text><text fill="#D9B8FF" font-family="sans-serif" font-size="14" lengthAdjust="spacing" textLength="48" x="53" y="1326.7554">: string</text></g><!--class aws_acm_domain_validation--><g id="elem_aws_acm_domain_validation"><rect codeLine="48" fill="#3D176E" height="205.5703" id="aws_acm_domain_validation" rx="2.5" ry="2.5" style="stroke:#000D19;stroke-width:0.5;" width="347" x="152.5" y="1612.03"/><ellipse cx="196.3" cy="1631.9245" fill="#ADD1B2" rx="11" ry="11" style="stroke:#181818;stroke-width:1.0;"/><path d="M199.2688,1637.5652 Q198.6906,1637.862 198.05,1638.0027 Q197.4094,1638.1589 196.7063,1638.1589 Q194.2063,1638.1589 192.8781,1636.5183 Q191.5656,1634.862 191.5656,1631.737 Q191.5656,1628.612 192.8781,1626.9558 Q194.2063,1625.2995 196.7063,1625.2995 Q197.4094,1625.2995 198.05,1625.4558 Q198.7063,1625.612 199.2688,1625.9089 L199.2688,1628.6277 Q198.6438,1628.0495 198.05,1627.7839 Q197.4563,1627.5027 196.8313,1627.5027 Q195.4875,1627.5027 194.8,1628.5808 Q194.1125,1629.6433 194.1125,1631.737 Q194.1125,1633.8308 194.8,1634.9089 Q195.4875,1635.9714 196.8313,1635.9714 Q197.4563,1635.9714 198.05,1635.7058 Q198.6438,1635.4245 199.2688,1634.8464 L199.2688,1637.5652 Z " fill="#000000"/><text fill="#D9B8FF" font-family="Helvetica" font-size="17" lengthAdjust="spacing" textLength="241" x="221.7" y="1637.8098">aws_acm_domain_validation</text><line style="stroke:#000D19;stroke-width:0.5;" x1="153.5" x2="498.5" y1="1651.8191" y2="1651.8191"/><text fill="#D9B8FF" font-family="sans-serif" font-size="14" font-weight="bold" lengthAdjust="spacing" textLength="107" x="163.5" y="1673.8142">domain_name</text><text fill="#D9B8FF" font-family="sans-serif" font-size="14" lengthAdjust="spacing" textLength="48" x="270.5" y="1673.8142">: string</text><text fill="#D9B8FF" font-family="sans-serif" font-size="14" font-weight="bold" lengthAdjust="spacing" textLength="132" x="163.5" y="1700.1111">resource_record</text><text fill="#D9B8FF" font-family="sans-serif" font-size="14" lengthAdjust="spacing" textLength="193" x="295.5" y="1700.1111">: aws_acm_resource_record</text><text fill="#D9B8FF" font-family="sans-serif" font-size="14" font-weight="bold" lengthAdjust="spacing" textLength="139" x="163.5" y="1726.4079">validation_domain</text><text fill="#D9B8FF" font-family="sans-serif" font-size="14" lengthAdjust="spacing" textLength="48" x="302.5" y="1726.4079">: string</text><text fill="#D9B8FF" font-family="sans-serif" font-size="14" font-weight="bold" lengthAdjust="spacing" textLength="132" x="163.5" y="1752.7048">validation_emails</text><text fill="#D9B8FF" font-family="sans-serif" font-size="14" lengthAdjust="spacing" textLength="58" x="295.5" y="1752.7048">: string[]</text><text fill="#D9B8FF" font-family="sans-serif" font-size="14" font-weight="bold" lengthAdjust="spacing" textLength="142" x="163.5" y="1779.0017">validation_method</text><text fill="#D9B8FF" font-family="sans-serif" font-size="14" lengthAdjust="spacing" textLength="48" x="305.5" y="1779.0017">: string</text><text fill="#D9B8FF" font-family="sans-serif" font-size="14" font-weight="bold" lengthAdjust="spacing" textLength="131" x="163.5" y="1805.2986">validation_status</text><text fill="#D9B8FF" font-family="sans-serif" font-size="14" lengthAdjust="spacing" textLength="48" x="294.5" y="1805.2986">: string</text></g><!--class aws_acm_extended_key_usage--><g id="elem_aws_acm_extended_key_usage"><rect codeLine="56" fill="#3D176E" height="100.3828" id="aws_acm_extended_key_usage" rx="2.5" ry="2.5" style="stroke:#000D19;stroke-width:0.5;" width="303" x="74.5" y="1425.35"/><ellipse cx="89.5" cy="1445.2445" fill="#ADD1B2" rx="11" ry="11" style="stroke:#181818;stroke-width:1.0;"/><path d="M92.4688,1450.8852 Q91.8906,1451.182 91.25,1451.3227 Q90.6094,1451.4789 89.9063,1451.4789 Q87.4063,1451.4789 86.0781,1449.8383 Q84.7656,1448.182 84.7656,1445.057 Q84.7656,1441.932 86.0781,1440.2758 Q87.4063,1438.6195 89.9063,1438.6195 Q90.6094,1438.6195 91.25,1438.7758 Q91.9063,1438.932 92.4688,1439.2289 L92.4688,1441.9477 Q91.8438,1441.3695 91.25,1441.1039 Q90.6563,1440.8227 90.0313,1440.8227 Q88.6875,1440.8227 88,1441.9008 Q87.3125,1442.9633 87.3125,1445.057 Q87.3125,1447.1508 88,1448.2289 Q88.6875,1449.2914 90.0313,1449.2914 Q90.6563,1449.2914 91.25,1449.0258 Q91.8438,1448.7445 92.4688,1448.1664 L92.4688,1450.8852 Z " fill="#000000"/><text fill="#D9B8FF" font-family="Helvetica" font-size="17" lengthAdjust="spacing" textLength="261" x="108.5" y="1451.1298">aws_acm_extended_key_usage</text><line style="stroke:#000D19;stroke-width:0.5;" x1="75.5" x2="376.5" y1="1465.1391" y2="1465.1391"/><text fill="#D9B8FF" font-family="sans-serif" font-size="14" font-weight="bold" lengthAdjust="spacing" textLength="43" x="85.5" y="1487.1342">name</text><text fill="#D9B8FF" font-family="sans-serif" font-size="14" lengthAdjust="spacing" textLength="48" x="128.5" y="1487.1342">: string</text><text fill="#D9B8FF" font-family="sans-serif" font-size="14" font-weight="bold" lengthAdjust="spacing" textLength="24" x="85.5" y="1513.4311">oid</text><text fill="#D9B8FF" font-family="sans-serif" font-size="14" lengthAdjust="spacing" textLength="48" x="109.5" y="1513.4311">: string</text></g><!--class aws_acm_renewal_summary--><g id="elem_aws_acm_renewal_summary"><rect codeLine="60" fill="#3D176E" height="152.9766" id="aws_acm_renewal_summary" rx="2.5" ry="2.5" style="stroke:#000D19;stroke-width:0.5;" width="438" x="412" y="1399.05"/><ellipse cx="500.25" cy="1418.9445" fill="#ADD1B2" rx="11" ry="11" style="stroke:#181818;stroke-width:1.0;"/><path d="M503.2188,1424.5852 Q502.6406,1424.882 502,1425.0227 Q501.3594,1425.1789 500.6563,1425.1789 Q498.1563,1425.1789 496.8281,1423.5383 Q495.5156,1421.882 495.5156,1418.757 Q495.5156,1415.632 496.8281,1413.9758 Q498.1563,1412.3195 500.6563,1412.3195 Q501.3594,1412.3195 502,1412.4758 Q502.6563,1412.632 503.2188,1412.9289 L503.2188,1415.6477 Q502.5938,1415.0695 502,1414.8039 Q501.4063,1414.5227 500.7813,1414.5227 Q499.4375,1414.5227 498.75,1415.6008 Q498.0625,1416.6633 498.0625,1418.757 Q498.0625,1420.8508 498.75,1421.9289 Q499.4375,1422.9914 500.7813,1422.9914 Q501.4063,1422.9914 502,1422.7258 Q502.5938,1422.4445 503.2188,1421.8664 L503.2188,1424.5852 Z " fill="#000000"/><text fill="#D9B8FF" font-family="Helvetica" font-size="17" lengthAdjust="spacing" textLength="243" x="525.75" y="1424.8298">aws_acm_renewal_summary</text><line style="stroke:#000D19;stroke-width:0.5;" x1="413" x2="849" y1="1438.8391" y2="1438.8391"/><text fill="#D9B8FF" font-family="sans-serif" font-size="14" font-weight="bold" lengthAdjust="spacing" textLength="205" x="423" y="1460.8342">domain_validation_options</text><text fill="#D9B8FF" font-family="sans-serif" font-size="14" lengthAdjust="spacing" textLength="211" x="628" y="1460.8342">: aws_acm_domain_validation[]</text><text fill="#D9B8FF" font-family="sans-serif" font-size="14" font-weight="bold" lengthAdjust="spacing" textLength="120" x="423" y="1487.1311">renewal_status</text><text fill="#D9B8FF" font-family="sans-serif" font-size="14" lengthAdjust="spacing" textLength="48" x="543" y="1487.1311">: string</text><text fill="#D9B8FF" font-family="sans-serif" font-size="14" font-weight="bold" lengthAdjust="spacing" textLength="182" x="423" y="1513.4279">renewal_status_reason</text><text fill="#D9B8FF" font-family="sans-serif" font-size="14" lengthAdjust="spacing" textLength="48" x="605" y="1513.4279">: string</text><text fill="#D9B8FF" font-family="sans-serif" font-size="14" font-weight="bold" lengthAdjust="spacing" textLength="87" x="423" y="1539.7248">updated_at</text><text fill="#D9B8FF" font-family="sans-serif" font-size="14" lengthAdjust="spacing" textLength="70" x="510" y="1539.7248">: datetime</text></g><!--class aws_acm_resource_record--><g id="elem_aws_acm_resource_record"><rect codeLine="66" fill="#3D176E" height="126.6797" id="aws_acm_resource_record" rx="2.5" ry="2.5" style="stroke:#000D19;stroke-width:0.5;" width="260" x="196" y="1877.6"/><ellipse cx="211" cy="1897.4945" fill="#ADD1B2" rx="11" ry="11" style="stroke:#181818;stroke-width:1.0;"/><path d="M213.9688,1903.1352 Q213.3906,1903.432 212.75,1903.5727 Q212.1094,1903.7289 211.4063,1903.7289 Q208.9063,1903.7289 207.5781,1902.0883 Q206.2656,1900.432 206.2656,1897.307 Q206.2656,1894.182 207.5781,1892.5258 Q208.9063,1890.8695 211.4063,1890.8695 Q212.1094,1890.8695 212.75,1891.0258 Q213.4063,1891.182 213.9688,1891.4789 L213.9688,1894.1977 Q213.3438,1893.6195 212.75,1893.3539 Q212.1563,1893.0727 211.5313,1893.0727 Q210.1875,1893.0727 209.5,1894.1508 Q208.8125,1895.2133 208.8125,1897.307 Q208.8125,1899.4008 209.5,1900.4789 Q210.1875,1901.5414 211.5313,1901.5414 Q212.1563,1901.5414 212.75,1901.2758 Q213.3438,1900.9945 213.9688,1900.4164 L213.9688,1903.1352 Z " fill="#000000"/><text fill="#D9B8FF" font-family="Helvetica" font-size="17" lengthAdjust="spacing" textLength="218" x="230" y="1903.3798">aws_acm_resource_record</text><line style="stroke:#000D19;stroke-width:0.5;" x1="197" x2="455" y1="1917.3891" y2="1917.3891"/><text fill="#D9B8FF" font-family="sans-serif" font-size="14" font-weight="bold" lengthAdjust="spacing" textLength="43" x="207" y="1939.3842">name</text><text fill="#D9B8FF" font-family="sans-serif" font-size="14" lengthAdjust="spacing" textLength="48" x="250" y="1939.3842">: string</text><text fill="#D9B8FF" font-family="sans-serif" font-size="14" font-weight="bold" lengthAdjust="spacing" textLength="35" x="207" y="1965.6811">type</text><text fill="#D9B8FF" font-family="sans-serif" font-size="14" lengthAdjust="spacing" textLength="48" x="242" y="1965.6811">: string</text><text fill="#D9B8FF" font-family="sans-serif" font-size="14" font-weight="bold" lengthAdjust="spacing" textLength="42" x="207" y="1991.9779">value</text><text fill="#D9B8FF" font-family="sans-serif" font-size="14" lengthAdjust="spacing" textLength="48" x="249" y="1991.9779">: string</text></g><!--class aws_resource--><g id="elem_aws_resource"><rect codeLine="71" fill="#3D176E" height="74.0859" id="aws_resource" rx="2.5" ry="2.5" style="stroke:#000D19;stroke-width:0.5;" width="155" x="43.5" y="465.05"/><ellipse cx="58.5" cy="484.9445" fill="#ADD1B2" rx="11" ry="11" style="stroke:#181818;stroke-width:1.0;"/><path d="M61.4688,490.5852 Q60.8906,490.882 60.25,491.0227 Q59.6094,491.1789 58.9063,491.1789 Q56.4063,491.1789 55.0781,489.5383 Q53.7656,487.882 53.7656,484.757 Q53.7656,481.632 55.0781,479.9758 Q56.4063,478.3195 58.9063,478.3195 Q59.6094,478.3195 60.25,478.4758 Q60.9063,478.632 61.4688,478.9289 L61.4688,481.6477 Q60.8438,481.0695 60.25,480.8039 Q59.6563,480.5227 59.0313,480.5227 Q57.6875,480.5227 57,481.6008 Q56.3125,482.6633 56.3125,484.757 Q56.3125,486.8508 57,487.9289 Q57.6875,488.9914 59.0313,488.9914 Q59.6563,488.9914 60.25,488.7258 Q60.8438,488.4445 61.4688,487.8664 L61.4688,490.5852 Z " fill="#000000"/><text fill="#D9B8FF" font-family="Helvetica" font-size="17" lengthAdjust="spacing" textLength="113" x="77.5" y="490.8298">aws_resource</text><line style="stroke:#000D19;stroke-width:0.5;" x1="44.5" x2="197.5" y1="504.8391" y2="504.8391"/><text fill="#D9B8FF" font-family="sans-serif" font-size="14" font-weight="bold" lengthAdjust="spacing" textLength="26" x="54.5" y="526.8342">arn</text><text fill="#D9B8FF" font-family="sans-serif" font-size="14" lengthAdjust="spacing" textLength="48" x="80.5" y="526.8342">: string</text></g><!--class certificate--><g id="elem_certificate"><rect codeLine="74" fill="#3D176E" height="126.6797" id="certificate" rx="2.5" ry="2.5" style="stroke:#000D19;stroke-width:0.5;" width="199" x="233.5" y="438.76"/><ellipse cx="282.25" cy="458.6545" fill="#ADD1B2" rx="11" ry="11" style="stroke:#181818;stroke-width:1.0;"/><path d="M285.2188,464.2952 Q284.6406,464.592 284,464.7327 Q283.3594,464.8889 282.6563,464.8889 Q280.1563,464.8889 278.8281,463.2483 Q277.5156,461.592 277.5156,458.467 Q277.5156,455.342 278.8281,453.6858 Q280.1563,452.0295 282.6563,452.0295 Q283.3594,452.0295 284,452.1858 Q284.6563,452.342 285.2188,452.6389 L285.2188,455.3577 Q284.5938,454.7795 284,454.5139 Q283.4063,454.2327 282.7813,454.2327 Q281.4375,454.2327 280.75,455.3108 Q280.0625,456.3733 280.0625,458.467 Q280.0625,460.5608 280.75,461.6389 Q281.4375,462.7014 282.7813,462.7014 Q283.4063,462.7014 284,462.4358 Q284.5938,462.1545 285.2188,461.5764 L285.2188,464.2952 Z " fill="#000000"/><text fill="#D9B8FF" font-family="Helvetica" font-size="17" lengthAdjust="spacing" textLength="83" x="307.75" y="464.5398">certificate</text><line style="stroke:#000D19;stroke-width:0.5;" x1="234.5" x2="431.5" y1="478.5491" y2="478.5491"/><text fill="#D9B8FF" font-family="sans-serif" font-size="14" font-weight="bold" lengthAdjust="spacing" textLength="88" x="244.5" y="500.5442">dns_names</text><text fill="#D9B8FF" font-family="sans-serif" font-size="14" lengthAdjust="spacing" textLength="58" x="332.5" y="500.5442">: string[]</text><text fill="#D9B8FF" font-family="sans-serif" font-size="14" font-weight="bold" lengthAdjust="spacing" textLength="59" x="244.5" y="526.8411">expires</text><text fill="#D9B8FF" font-family="sans-serif" font-size="14" lengthAdjust="spacing" textLength="70" x="303.5" y="526.8411">: datetime</text><text fill="#D9B8FF" font-family="sans-serif" font-size="14" font-weight="bold" lengthAdjust="spacing" textLength="129" x="244.5" y="553.1379">sha1_fingerprint</text><text fill="#D9B8FF" font-family="sans-serif" font-size="14" lengthAdjust="spacing" textLength="48" x="373.5" y="553.1379">: string</text></g><!--class resource--><g id="elem_resource"><rect codeLine="79" fill="#3D176E" height="310.7578" id="resource" rx="2.5" ry="2.5" style="stroke:#000D19;stroke-width:0.5;" width="227" x="112.5" y="7"/><ellipse cx="181.25" cy="26.8945" fill="#ADD1B2" rx="11" ry="11" style="stroke:#181818;stroke-width:1.0;"/><path d="M184.2188,32.5352 Q183.6406,32.832 183,32.9727 Q182.3594,33.1289 181.6563,33.1289 Q179.1563,33.1289 177.8281,31.4883 Q176.5156,29.832 176.5156,26.707 Q176.5156,23.582 177.8281,21.9258 Q179.1563,20.2695 181.6563,20.2695 Q182.3594,20.2695 183,20.4258 Q183.6563,20.582 184.2188,20.8789 L184.2188,23.5977 Q183.5938,23.0195 183,22.7539 Q182.4063,22.4727 181.7813,22.4727 Q180.4375,22.4727 179.75,23.5508 Q179.0625,24.6133 179.0625,26.707 Q179.0625,28.8008 179.75,29.8789 Q180.4375,30.9414 181.7813,30.9414 Q182.4063,30.9414 183,30.6758 Q183.5938,30.3945 184.2188,29.8164 L184.2188,32.5352 Z " fill="#000000"/><text fill="#D9B8FF" font-family="Helvetica" font-size="17" lengthAdjust="spacing" textLength="71" x="206.75" y="32.7798">resource</text><line style="stroke:#000D19;stroke-width:0.5;" x1="113.5" x2="338.5" y1="46.7891" y2="46.7891"/><text fill="#D9B8FF" font-family="sans-serif" font-size="14" font-weight="bold" lengthAdjust="spacing" textLength="29" x="123.5" y="68.7842">age</text><text fill="#D9B8FF" font-family="sans-serif" font-size="14" lengthAdjust="spacing" textLength="66" x="152.5" y="68.7842">: duration</text><text fill="#D9B8FF" font-family="sans-serif" font-size="14" font-weight="bold" lengthAdjust="spacing" textLength="43" x="123.5" y="95.0811">atime</text><text fill="#D9B8FF" font-family="sans-serif" font-size="14" lengthAdjust="spacing" textLength="70" x="166.5" y="95.0811">: datetime</text><text fill="#D9B8FF" font-family="sans-serif" font-size="14" font-weight="bold" lengthAdjust="spacing" textLength="43" x="123.5" y="121.3779">ctime</text><text fill="#D9B8FF" font-family="sans-serif" font-size="14" lengthAdjust="spacing" textLength="70" x="166.5" y="121.3779">: datetime</text><text fill="#D9B8FF" font-family="sans-serif" font-size="14" font-weight="bold" lengthAdjust="spacing" textLength="14" x="123.5" y="147.6748">id</text><text fill="#D9B8FF" font-family="sans-serif" font-size="14" lengthAdjust="spacing" textLength="48" x="137.5" y="147.6748">: string</text><text fill="#D9B8FF" font-family="sans-serif" font-size="14" font-weight="bold" lengthAdjust="spacing" textLength="33" x="123.5" y="173.9717">kind</text><text fill="#D9B8FF" font-family="sans-serif" font-size="14" lengthAdjust="spacing" textLength="48" x="156.5" y="173.9717">: string</text><text fill="#D9B8FF" font-family="sans-serif" font-size="14" font-weight="bold" lengthAdjust="spacing" textLength="90" x="123.5" y="200.2686">last_access</text><text fill="#D9B8FF" font-family="sans-serif" font-size="14" lengthAdjust="spacing" textLength="66" x="213.5" y="200.2686">: duration</text><text fill="#D9B8FF" font-family="sans-serif" font-size="14" font-weight="bold" lengthAdjust="spacing" textLength="90" x="123.5" y="226.5654">last_update</text><text fill="#D9B8FF" font-family="sans-serif" font-size="14" lengthAdjust="spacing" textLength="66" x="213.5" y="226.5654">: duration</text><text fill="#D9B8FF" font-family="sans-serif" font-size="14" font-weight="bold" lengthAdjust="spacing" textLength="48" x="123.5" y="252.8623">mtime</text><text fill="#D9B8FF" font-family="sans-serif" font-size="14" lengthAdjust="spacing" textLength="70" x="171.5" y="252.8623">: datetime</text><text fill="#D9B8FF" font-family="sans-serif" font-size="14" font-weight="bold" lengthAdjust="spacing" textLength="43" x="123.5" y="279.1592">name</text><text fill="#D9B8FF" font-family="sans-serif" font-size="14" lengthAdjust="spacing" textLength="48" x="166.5" y="279.1592">: string</text><text fill="#D9B8FF" font-family="sans-serif" font-size="14" font-weight="bold" lengthAdjust="spacing" textLength="34" x="123.5" y="305.4561">tags</text><text fill="#D9B8FF" font-family="sans-serif" font-size="14" lengthAdjust="spacing" textLength="171" x="157.5" y="305.4561">: dictionary[string, string]</text></g><!--link aws_acm_certificate to aws_acm_domain_validation--><g id="link_aws_acm_certificate_aws_acm_domain_validation"><path codeLine="91" d="M39.13,1339.29 C20.37,1411.77 19.93,1486.49 57,1552.03 C78.93,1590.81 109.1923,1618.1556 147.1623,1641.7256 " fill="none" id="aws_acm_certificate-to-aws_acm_domain_validation" style="stroke:#FFAF37;stroke-width:2.0;"/><polygon fill="#FFAF37" points="152.26,1644.89,146.7231,1636.7449,148.0119,1642.253,142.5038,1643.5418,152.26,1644.89" style="stroke:#FFAF37;stroke-width:2.0;"/></g><!--link aws_acm_certificate to aws_acm_extended_key_usage--><g id="link_aws_acm_certificate_aws_acm_extended_key_usage"><path codeLine="92" d="M226,1339.4 C226,1372.18 226,1395.85 226,1418.97 " fill="none" id="aws_acm_certificate-to-aws_acm_extended_key_usage" style="stroke:#FFAF37;stroke-width:2.0;"/><polygon fill="#FFAF37" points="226,1424.97,230,1415.97,226,1419.97,222,1415.97,226,1424.97" style="stroke:#FFAF37;stroke-width:2.0;"/></g><!--link aws_acm_certificate to aws_acm_renewal_summary--><g id="link_aws_acm_certificate_aws_acm_renewal_summary"><path codeLine="93" d="M445.39,1263.36 C488.77,1312.71 527.1389,1356.3734 560.3989,1394.2134 " fill="none" id="aws_acm_certificate-to-aws_acm_renewal_summary" style="stroke:#FFAF37;stroke-width:2.0;"/><polygon fill="#FFAF37" points="564.36,1398.72,561.4227,1389.3193,561.0591,1394.9645,555.4139,1394.6009,564.36,1398.72" style="stroke:#FFAF37;stroke-width:2.0;"/></g><!--reverse link aws_resource to aws_acm_certificate--><g id="link_aws_resource_aws_acm_certificate"><path codeLine="94" d="M132.1058,556.899 C139.0458,590.549 146.51,626.69 158.78,686.12 " fill="none" id="aws_resource-backto-aws_acm_certificate" style="stroke:#FFAF37;stroke-width:2.0;"/><polygon fill="none" points="128.47,539.27,126.2295,558.1109,137.9821,555.687,128.47,539.27" style="stroke:#FFAF37;stroke-width:2.0;"/></g><!--reverse link certificate to aws_acm_certificate--><g id="link_certificate_aws_acm_certificate"><path codeLine="95" d="M316.1224,583.334 C309.3024,615.734 304.12,640.4 294.52,686.02 " fill="none" id="certificate-backto-aws_acm_certificate" style="stroke:#FFAF37;stroke-width:2.0;"/><polygon fill="none" points="319.83,565.72,310.251,582.0981,321.9937,584.5699,319.83,565.72" style="stroke:#FFAF37;stroke-width:2.0;"/></g><!--link aws_acm_domain_validation to aws_acm_resource_record--><g id="link_aws_acm_domain_validation_aws_acm_resource_record"><path codeLine="96" d="M326,1818.04 C326,1838.24 326,1852.88 326,1871.29 " fill="none" id="aws_acm_domain_validation-to-aws_acm_resource_record" style="stroke:#FFAF37;stroke-width:2.0;"/><polygon fill="#FFAF37" points="326,1877.29,330,1868.29,326,1872.29,322,1868.29,326,1877.29" style="stroke:#FFAF37;stroke-width:2.0;"/></g><!--link aws_acm_renewal_summary to aws_acm_domain_validation--><g id="link_aws_acm_renewal_summary_aws_acm_domain_validation"><path codeLine="97" d="M533.66,1552.27 C509.42,1571.12 487.775,1587.9549 462.205,1607.8549 " fill="none" id="aws_acm_renewal_summary-to-aws_acm_domain_validation" style="stroke:#FFAF37;stroke-width:2.0;"/><polygon fill="#FFAF37" points="457.47,1611.54,467.0292,1609.1691,461.4158,1608.4691,462.1158,1602.8557,457.47,1611.54" style="stroke:#FFAF37;stroke-width:2.0;"/></g><!--reverse link resource to aws_resource--><g id="link_resource_aws_resource"><path codeLine="98" d="M172.6142,335.0979 C155.6542,389.6279 143.42,428.99 132.36,464.56 " fill="none" id="resource-backto-aws_resource" style="stroke:#FFAF37;stroke-width:2.0;"/><polygon fill="none" points="177.96,317.91,166.8849,333.3159,178.3435,336.8798,177.96,317.91" style="stroke:#FFAF37;stroke-width:2.0;"/></g><!--reverse link resource to certificate--><g id="link_resource_certificate"><path codeLine="99" d="M280.3962,335.0695 C293.8762,377.6195 302.31,404.23 313.11,438.32 " fill="none" id="resource-backto-certificate" style="stroke:#FFAF37;stroke-width:2.0;"/><polygon fill="none" points="274.96,317.91,274.6764,336.8815,286.116,333.2574,274.96,317.91" style="stroke:#FFAF37;stroke-width:2.0;"/></g><!--SRC=[dLPTQzim57tFhp3iBIpGh6njnnXqXR6zbB7khHHnBLqxMcp9I79Ix-E_JxARLbzEO4-bzvnxxeUEv6mummBRpWn5Yss9IY_qbeiE5BJ5jL9oVoCRgOfNLGNL-KKCVfR2d2JSGel55snsQ3Y5cF5Zm-bMeDR56m_w17HRAzaBDiaR1K9R28NnM3SDQ7rjZE9bRz1hXbsLbrKLCsFHL-TiVV4E4vfK3DKJvUpiZAslOih9KaVdVcRSyLzOhFsbtKg3IPj9YP5rj4l7y9fC1ZtWipr-0yQug8ktNkpxr9CIg8ButGQOt3js1OtsosY32gKPEhn9fiAhIrPTPCbVvyWBwbPNm5uJe2sXg0olREC6Yz-BvTBxdq1lDb9nCn1GOhbyR-MLRJ5YlVYA3gIHTMqf0Pd95hWWEsWu0yEb8B9pVxHZ7Vf8IFSFDXKV3Gg6Z6nn8Bs66eEa51wpAk1Dhv0e12t3nddRIMLi1XWNjwNigRNe464La9J32tyKurhtMRwBgq3STG5DxLQsQHFafNrFNKX3e3AJaAVkuYLMKc44s3NZ7Xg23QzvoHjxEa6b0wxxjWKr-DkAe96yatGwaiok7BhDZQvHSMW2hkQr0EEMdb-0DXRLOQWlVo8rkPWLiIknWdo7HDZx5Q_DETnB_1kPEZ7JQEsdgDEBvjIoLzJvXTeN8LnP05cov-99Bv3oKBHW4_VjuItQoyNcifDznIEcrXzdJ8QJd1rHYIpXh-b_hkkpN7hQ8PIpMzyvYoLsIriEZYG_TUIFSRNzd6CEYgDK-D8TQF4hoOJE-X8VEwwcg7zVDh0cbUMWwYpLP0g4FTJJhU_Lk5eNSKgHAit4U6We-rq80xQMlLoKsjyAKOKHcOuWGjfCdNJXK4-AdBeqwwNx2Nlzn7cme-Q-EQlLntbJdSn8Ry79bFWL31pmuSzgjSfz6nU-t3nh_W4AMmXVbRdRU7mtcQOFeHZpM_m7]--></g></svg>