<svg xmlns="http://www.w3.org/2000/svg" width="1526" height="1564" viewBox="0 0 1526 1564"><rect width="155" height="74.086" x="560" y="451.9" fill="#3D176E" rx="2.5" ry="2.5" style="stroke:#000d19;stroke-width:.5"/><circle cx="575" cy="471.795" r="11" fill="#ADD1B2" style="stroke:#181818;stroke-width:1"/><path d="M577.969 477.435q-.578.297-1.219.438-.64.156-1.344.156-2.5 0-3.828-1.64-1.312-1.657-1.312-4.782t1.312-4.781q1.328-1.656 3.828-1.656.703 0 1.344.156.656.156 1.219.453v2.719q-.625-.578-1.219-.844-.594-.281-1.219-.281-1.343 0-2.031 1.078-.687 1.062-.687 3.156t.687 3.172q.688 1.062 2.031 1.062.625 0 1.219-.265.594-.281 1.219-.86z"/><text x="594" y="477.68" fill="#D9B8FF" font-family="Helvetica" font-size="17" textLength="113">aws_resource</text><path d="M561 491.689h153" style="stroke:#000d19;stroke-width:.5"/><text x="571" y="513.684" fill="#D9B8FF" font-family="sans-serif" font-size="14" font-weight="bold" textLength="26">arn</text><text x="597" y="513.684" fill="#D9B8FF" font-family="sans-serif" font-size="14" textLength="48">: string</text><rect width="658" height="284.461" x="424.5" y="660.14" fill="#3D176E" rx="2.5" ry="2.5" style="stroke:#000d19;stroke-width:.5"/><circle cx="681.25" cy="680.034" r="11" fill="#ADD1B2" style="stroke:#181818;stroke-width:1"/><path d="M684.219 685.675q-.578.297-1.219.438-.64.156-1.344.156-2.5 0-3.828-1.64-1.312-1.657-1.312-4.782t1.312-4.781q1.328-1.657 3.828-1.657.703 0 1.344.157.656.156 1.219.453v2.719q-.625-.579-1.219-.844-.594-.281-1.219-.281-1.343 0-2.031 1.078-.687 1.062-.687 3.156t.687 3.172q.688 1.062 2.031 1.062.625 0 1.219-.265.594-.282 1.219-.86z"/><text x="706.75" y="685.92" fill="#D9B8FF" font-family="Helvetica" font-size="17" textLength="126">aws_s3_bucket</text><path d="M425.5 699.929h656" style="stroke:#000d19;stroke-width:.5"/><text x="435.5" y="721.924" fill="#D9B8FF" font-family="sans-serif" font-size="14" font-weight="bold" textLength="83">bucket_acl</text><text x="518.5" y="721.924" fill="#D9B8FF" font-family="sans-serif" font-size="14" textLength="141">: aws_s3_bucket_acl</text><text x="435.5" y="748.221" fill="#D9B8FF" font-family="sans-serif" font-size="14" font-weight="bold" textLength="193">bucket_encryption_rules</text><text x="628.5" y="748.221" fill="#D9B8FF" font-family="sans-serif" font-size="14" textLength="269">: aws_s3_server_side_encryption_rule[]</text><text x="435.5" y="774.518" fill="#D9B8FF" font-family="sans-serif" font-size="14" font-weight="bold" textLength="179">bucket_lifecycle_policy</text><text x="614.5" y="774.518" fill="#D9B8FF" font-family="sans-serif" font-size="14" textLength="156">: dictionary[string, any]</text><text x="435.5" y="800.815" fill="#D9B8FF" font-family="sans-serif" font-size="14" font-weight="bold" textLength="123">bucket_location</text><text x="558.5" y="800.815" fill="#D9B8FF" font-family="sans-serif" font-size="14" textLength="48">: string</text><text x="435.5" y="827.112" fill="#D9B8FF" font-family="sans-serif" font-size="14" font-weight="bold" textLength="119">bucket_logging</text><text x="554.5" y="827.112" fill="#D9B8FF" font-family="sans-serif" font-size="14" textLength="118">: aws_s3_logging</text><text x="435.5" y="853.409" fill="#D9B8FF" font-family="sans-serif" font-size="14" font-weight="bold" textLength="147">bucket_mfa_delete</text><text x="582.5" y="853.409" fill="#D9B8FF" font-family="sans-serif" font-size="14" textLength="65">: boolean</text><text x="435.5" y="879.705" fill="#D9B8FF" font-family="sans-serif" font-size="14" font-weight="bold" textLength="107">bucket_policy</text><text x="542.5" y="879.705" fill="#D9B8FF" font-family="sans-serif" font-size="14" textLength="156">: dictionary[string, any]</text><text x="435.5" y="906.002" fill="#D9B8FF" font-family="sans-serif" font-size="14" font-weight="bold" textLength="331">bucket_public_access_block_configuration</text><text x="766.5" y="906.002" fill="#D9B8FF" font-family="sans-serif" font-size="14" textLength="305">: aws_s3_public_access_block_configuration</text><text x="435.5" y="932.299" fill="#D9B8FF" font-family="sans-serif" font-size="14" font-weight="bold" textLength="144">bucket_versioning</text><text x="579.5" y="932.299" fill="#D9B8FF" font-family="sans-serif" font-size="14" textLength="65">: boolean</text><rect width="200" height="100.383" x="185.5" y="1030.89" fill="#3D176E" rx="2.5" ry="2.5" style="stroke:#000d19;stroke-width:.5"/><circle cx="200.5" cy="1050.784" r="11" fill="#ADD1B2" style="stroke:#181818;stroke-width:1"/><path d="M203.469 1056.425q-.578.297-1.219.438-.64.156-1.344.156-2.5 0-3.828-1.64-1.312-1.657-1.312-4.782t1.312-4.781q1.328-1.657 3.828-1.657.703 0 1.344.157.656.156 1.219.453v2.719q-.625-.579-1.219-.844-.594-.281-1.219-.281-1.344 0-2.031 1.078-.687 1.062-.687 3.156t.687 3.172q.688 1.062 2.031 1.062.625 0 1.219-.265.594-.282 1.219-.86z"/><text x="219.5" y="1056.67" fill="#D9B8FF" font-family="Helvetica" font-size="17" textLength="158">aws_s3_bucket_acl</text><path d="M186.5 1070.679h198" style="stroke:#000d19;stroke-width:.5"/><text x="196.5" y="1092.674" fill="#D9B8FF" font-family="sans-serif" font-size="14" font-weight="bold" textLength="51">grants</text><text x="247.5" y="1092.674" fill="#D9B8FF" font-family="sans-serif" font-size="14" textLength="113">: aws_s3_grant[]</text><text x="196.5" y="1118.971" fill="#D9B8FF" font-family="sans-serif" font-size="14" font-weight="bold" textLength="51">owner</text><text x="247.5" y="1118.971" fill="#D9B8FF" font-family="sans-serif" font-size="14" textLength="110">: aws_s3_owner</text><rect width="205" height="100.383" x="7" y="1217.57" fill="#3D176E" rx="2.5" ry="2.5" style="stroke:#000d19;stroke-width:.5"/><circle cx="43.6" cy="1237.465" r="11" fill="#ADD1B2" style="stroke:#181818;stroke-width:1"/><path d="M46.569 1243.105q-.578.297-1.219.438-.64.156-1.344.156-2.5 0-3.828-1.64-1.312-1.657-1.312-4.782t1.312-4.781q1.328-1.657 3.828-1.657.703 0 1.344.157.656.156 1.219.453v2.719q-.625-.578-1.219-.844-.594-.281-1.219-.281-1.343 0-2.031 1.078-.687 1.062-.687 3.156t.687 3.172q.688 1.062 2.031 1.062.625 0 1.219-.265.594-.282 1.219-.86z"/><text x="67.4" y="1243.35" fill="#D9B8FF" font-family="Helvetica" font-size="17" textLength="115">aws_s3_grant</text><path d="M8 1257.359h203" style="stroke:#000d19;stroke-width:.5"/><text x="18" y="1279.354" fill="#D9B8FF" font-family="sans-serif" font-size="14" font-weight="bold" textLength="62">grantee</text><text x="80" y="1279.354" fill="#D9B8FF" font-family="sans-serif" font-size="14" textLength="121">: aws_s3_grantee</text><text x="18" y="1305.651" fill="#D9B8FF" font-family="sans-serif" font-size="14" font-weight="bold" textLength="87">permission</text><text x="105" y="1305.651" fill="#D9B8FF" font-family="sans-serif" font-size="14" textLength="48">: string</text><rect width="182" height="179.273" x="246.5" y="1377.96" fill="#3D176E" rx="2.5" ry="2.5" style="stroke:#000d19;stroke-width:.5"/><circle cx="263.75" cy="1397.854" r="11" fill="#ADD1B2" style="stroke:#181818;stroke-width:1"/><path d="M266.719 1403.495q-.578.297-1.219.438-.64.156-1.344.156-2.5 0-3.828-1.64-1.312-1.657-1.312-4.782t1.312-4.781q1.328-1.657 3.828-1.657.703 0 1.344.157.656.156 1.219.453v2.719q-.625-.579-1.219-.844-.594-.281-1.219-.281-1.344 0-2.031 1.078-.687 1.062-.687 3.156t.687 3.172q.688 1.062 2.031 1.062.625 0 1.219-.265.594-.282 1.219-.86z"/><text x="283.25" y="1403.74" fill="#D9B8FF" font-family="Helvetica" font-size="17" textLength="135">aws_s3_grantee</text><path d="M247.5 1417.749h180" style="stroke:#000d19;stroke-width:.5"/><text x="257.5" y="1439.744" fill="#D9B8FF" font-family="sans-serif" font-size="14" font-weight="bold" textLength="105">display_name</text><text x="362.5" y="1439.744" fill="#D9B8FF" font-family="sans-serif" font-size="14" textLength="48">: string</text><text x="257.5" y="1466.041" fill="#D9B8FF" font-family="sans-serif" font-size="14" font-weight="bold" textLength="112">email_address</text><text x="369.5" y="1466.041" fill="#D9B8FF" font-family="sans-serif" font-size="14" textLength="48">: string</text><text x="257.5" y="1492.338" fill="#D9B8FF" font-family="sans-serif" font-size="14" font-weight="bold" textLength="14">id</text><text x="271.5" y="1492.338" fill="#D9B8FF" font-family="sans-serif" font-size="14" textLength="48">: string</text><text x="257.5" y="1518.635" fill="#D9B8FF" font-family="sans-serif" font-size="14" font-weight="bold" textLength="35">type</text><text x="292.5" y="1518.635" fill="#D9B8FF" font-family="sans-serif" font-size="14" textLength="48">: string</text><text x="257.5" y="1544.932" fill="#D9B8FF" font-family="sans-serif" font-size="14" font-weight="bold" textLength="21">uri</text><text x="278.5" y="1544.932" fill="#D9B8FF" font-family="sans-serif" font-size="14" textLength="48">: string</text><rect width="289" height="126.68" x="421" y="1017.75" fill="#3D176E" rx="2.5" ry="2.5" style="stroke:#000d19;stroke-width:.5"/><circle cx="490.75" cy="1037.645" r="11" fill="#ADD1B2" style="stroke:#181818;stroke-width:1"/><path d="M493.719 1043.285q-.578.297-1.219.438-.64.156-1.344.156-2.5 0-3.828-1.64-1.312-1.657-1.312-4.782t1.312-4.781q1.328-1.656 3.828-1.656.703 0 1.344.156.656.156 1.219.453v2.719q-.625-.578-1.219-.844-.594-.281-1.219-.281-1.344 0-2.031 1.078-.687 1.062-.687 3.156t.687 3.172q.688 1.062 2.031 1.062.625 0 1.219-.265.594-.281 1.219-.86z"/><text x="516.25" y="1043.53" fill="#D9B8FF" font-family="Helvetica" font-size="17" textLength="131">aws_s3_logging</text><path d="M422 1057.539h287" style="stroke:#000d19;stroke-width:.5"/><text x="432" y="1079.534" fill="#D9B8FF" font-family="sans-serif" font-size="14" font-weight="bold" textLength="109">target_bucket</text><text x="541" y="1079.534" fill="#D9B8FF" font-family="sans-serif" font-size="14" textLength="48">: string</text><text x="432" y="1105.831" fill="#D9B8FF" font-family="sans-serif" font-size="14" font-weight="bold" textLength="106">target_grants</text><text x="538" y="1105.831" fill="#D9B8FF" font-family="sans-serif" font-size="14" textLength="161">: aws_s3_target_grant[]</text><text x="432" y="1132.128" fill="#D9B8FF" font-family="sans-serif" font-size="14" font-weight="bold" textLength="101">target_prefix</text><text x="533" y="1132.128" fill="#D9B8FF" font-family="sans-serif" font-size="14" textLength="48">: string</text><rect width="175" height="100.383" x="247" y="1217.57" fill="#3D176E" rx="2.5" ry="2.5" style="stroke:#000d19;stroke-width:.5"/><circle cx="266.5" cy="1237.465" r="11" fill="#ADD1B2" style="stroke:#181818;stroke-width:1"/><path d="M269.469 1243.105q-.578.297-1.219.438-.64.156-1.344.156-2.5 0-3.828-1.64-1.312-1.657-1.312-4.782t1.312-4.781q1.328-1.657 3.828-1.657.703 0 1.344.157.656.156 1.219.453v2.719q-.625-.578-1.219-.844-.594-.281-1.219-.281-1.344 0-2.031 1.078-.687 1.062-.687 3.156t.687 3.172q.688 1.062 2.031 1.062.625 0 1.219-.265.594-.282 1.219-.86z"/><text x="286.5" y="1243.35" fill="#D9B8FF" font-family="Helvetica" font-size="17" textLength="123">aws_s3_owner</text><path d="M248 1257.359h173" style="stroke:#000d19;stroke-width:.5"/><text x="258" y="1279.354" fill="#D9B8FF" font-family="sans-serif" font-size="14" font-weight="bold" textLength="105">display_name</text><text x="363" y="1279.354" fill="#D9B8FF" font-family="sans-serif" font-size="14" textLength="48">: string</text><text x="258" y="1305.651" fill="#D9B8FF" font-family="sans-serif" font-size="14" font-weight="bold" textLength="14">id</text><text x="272" y="1305.651" fill="#D9B8FF" font-family="sans-serif" font-size="14" textLength="48">: string</text><rect width="394" height="152.977" x="744.5" y="1004.6" fill="#3D176E" rx="2.5" ry="2.5" style="stroke:#000d19;stroke-width:.5"/><circle cx="759.5" cy="1024.495" r="11" fill="#ADD1B2" style="stroke:#181818;stroke-width:1"/><path d="M762.469 1030.135q-.578.297-1.219.438-.64.156-1.344.156-2.5 0-3.828-1.64-1.312-1.657-1.312-4.782t1.312-4.781q1.328-1.656 3.828-1.656.703 0 1.344.156.656.156 1.219.453v2.719q-.625-.578-1.219-.844-.594-.281-1.219-.281-1.343 0-2.031 1.078-.687 1.062-.687 3.156t.687 3.172q.688 1.062 2.031 1.062.625 0 1.219-.265.594-.282 1.219-.86z"/><text x="778.5" y="1030.38" fill="#D9B8FF" font-family="Helvetica" font-size="17" textLength="352">aws_s3_public_access_block_configuration</text><path d="M745.5 1044.389h392" style="stroke:#000d19;stroke-width:.5"/><text x="755.5" y="1066.384" fill="#D9B8FF" font-family="sans-serif" font-size="14" font-weight="bold" textLength="134">block_public_acls</text><text x="889.5" y="1066.384" fill="#D9B8FF" font-family="sans-serif" font-size="14" textLength="65">: boolean</text><text x="755.5" y="1092.681" fill="#D9B8FF" font-family="sans-serif" font-size="14" font-weight="bold" textLength="149">block_public_policy</text><text x="904.5" y="1092.681" fill="#D9B8FF" font-family="sans-serif" font-size="14" textLength="65">: boolean</text><text x="755.5" y="1118.978" fill="#D9B8FF" font-family="sans-serif" font-size="14" font-weight="bold" textLength="143">ignore_public_acls</text><text x="898.5" y="1118.978" fill="#D9B8FF" font-family="sans-serif" font-size="14" textLength="65">: boolean</text><text x="755.5" y="1145.275" fill="#D9B8FF" font-family="sans-serif" font-size="14" font-weight="bold" textLength="182">restrict_public_buckets</text><text x="937.5" y="1145.275" fill="#D9B8FF" font-family="sans-serif" font-size="14" textLength="65">: boolean</text><rect width="346" height="126.68" x="1173.5" y="1017.75" fill="#3D176E" rx="2.5" ry="2.5" style="stroke:#000d19;stroke-width:.5"/><circle cx="1188.5" cy="1037.645" r="11" fill="#ADD1B2" style="stroke:#181818;stroke-width:1"/><path d="M1191.469 1043.285q-.578.297-1.219.438-.64.156-1.344.156-2.5 0-3.828-1.64-1.312-1.657-1.312-4.782t1.312-4.781q1.328-1.656 3.828-1.656.703 0 1.344.156.656.156 1.219.453v2.719q-.625-.578-1.219-.844-.594-.281-1.219-.281-1.343 0-2.031 1.078-.687 1.062-.687 3.156t.687 3.172q.688 1.062 2.031 1.062.625 0 1.219-.265.594-.281 1.219-.86z"/><text x="1207.5" y="1043.53" fill="#D9B8FF" font-family="Helvetica" font-size="17" textLength="304">aws_s3_server_side_encryption_rule</text><path d="M1174.5 1057.539h344" style="stroke:#000d19;stroke-width:.5"/><text x="1184.5" y="1079.534" fill="#D9B8FF" font-family="sans-serif" font-size="14" font-weight="bold" textLength="159">bucket_key_enabled</text><text x="1343.5" y="1079.534" fill="#D9B8FF" font-family="sans-serif" font-size="14" textLength="65">: boolean</text><text x="1184.5" y="1105.831" fill="#D9B8FF" font-family="sans-serif" font-size="14" font-weight="bold" textLength="150">kms_master_key_id</text><text x="1334.5" y="1105.831" fill="#D9B8FF" font-family="sans-serif" font-size="14" textLength="48">: string</text><text x="1184.5" y="1132.128" fill="#D9B8FF" font-family="sans-serif" font-size="14" font-weight="bold" textLength="109">sse_algorithm</text><text x="1293.5" y="1132.128" fill="#D9B8FF" font-family="sans-serif" font-size="14" textLength="48">: string</text><rect width="217" height="100.383" x="457" y="1217.57" fill="#3D176E" rx="2.5" ry="2.5" style="stroke:#000d19;stroke-width:.5"/><circle cx="472" cy="1237.465" r="11" fill="#ADD1B2" style="stroke:#181818;stroke-width:1"/><path d="M474.969 1243.105q-.578.297-1.219.438-.64.156-1.344.156-2.5 0-3.828-1.64-1.312-1.657-1.312-4.782t1.312-4.781q1.328-1.657 3.828-1.657.703 0 1.344.157.656.156 1.219.453v2.719q-.625-.578-1.219-.844-.594-.281-1.219-.281-1.344 0-2.031 1.078-.687 1.062-.687 3.156t.687 3.172q.688 1.062 2.031 1.062.625 0 1.219-.265.594-.282 1.219-.86z"/><text x="491" y="1243.35" fill="#D9B8FF" font-family="Helvetica" font-size="17" textLength="175">aws_s3_target_grant</text><path d="M458 1257.359h215" style="stroke:#000d19;stroke-width:.5"/><text x="468" y="1279.354" fill="#D9B8FF" font-family="sans-serif" font-size="14" font-weight="bold" textLength="62">grantee</text><text x="530" y="1279.354" fill="#D9B8FF" font-family="sans-serif" font-size="14" textLength="121">: aws_s3_grantee</text><text x="468" y="1305.651" fill="#D9B8FF" font-family="sans-serif" font-size="14" font-weight="bold" textLength="87">permission</text><text x="555" y="1305.651" fill="#D9B8FF" font-family="sans-serif" font-size="14" textLength="48">: string</text><rect width="242" height="100.383" x="750.5" y="438.75" fill="#3D176E" rx="2.5" ry="2.5" style="stroke:#000d19;stroke-width:.5"/><circle cx="834.25" cy="458.644" r="11" fill="#ADD1B2" style="stroke:#181818;stroke-width:1"/><path d="M837.219 464.285q-.578.297-1.219.438-.64.156-1.344.156-2.5 0-3.828-1.64-1.312-1.657-1.312-4.782t1.312-4.781q1.328-1.656 3.828-1.656.703 0 1.344.156.656.156 1.219.453v2.719q-.625-.579-1.219-.844-.594-.281-1.219-.281-1.343 0-2.031 1.078-.687 1.062-.687 3.156t.687 3.172q.688 1.062 2.031 1.062.625 0 1.219-.265.594-.281 1.219-.86z"/><text x="859.75" y="464.53" fill="#D9B8FF" font-family="Helvetica" font-size="17" textLength="56">bucket</text><path d="M751.5 478.539h240" style="stroke:#000d19;stroke-width:.5"/><text x="761.5" y="500.534" fill="#D9B8FF" font-family="sans-serif" font-size="14" font-weight="bold" textLength="155">encryption_enabled</text><text x="916.5" y="500.534" fill="#D9B8FF" font-family="sans-serif" font-size="14" textLength="65">: boolean</text><text x="761.5" y="526.831" fill="#D9B8FF" font-family="sans-serif" font-size="14" font-weight="bold" textLength="153">versioning_enabled</text><text x="914.5" y="526.831" fill="#D9B8FF" font-family="sans-serif" font-size="14" textLength="65">: boolean</text><rect width="227" height="310.758" x="640" y="7" fill="#3D176E" rx="2.5" ry="2.5" style="stroke:#000d19;stroke-width:.5"/><circle cx="708.75" cy="26.895" r="11" fill="#ADD1B2" style="stroke:#181818;stroke-width:1"/><path d="M711.719 32.535q-.578.297-1.219.438-.64.156-1.344.156-2.5 0-3.828-1.64-1.312-1.657-1.312-4.782t1.312-4.781q1.328-1.656 3.828-1.656.703 0 1.344.156.656.156 1.219.453v2.719q-.625-.578-1.219-.844-.594-.281-1.219-.281-1.343 0-2.031 1.078-.687 1.062-.687 3.156t.687 3.172q.688 1.062 2.031 1.062.625 0 1.219-.265.594-.281 1.219-.86z"/><text x="734.25" y="32.78" fill="#D9B8FF" font-family="Helvetica" font-size="17" textLength="71">resource</text><path d="M641 46.789h225" style="stroke:#000d19;stroke-width:.5"/><text x="651" y="68.784" fill="#D9B8FF" font-family="sans-serif" font-size="14" font-weight="bold" textLength="29">age</text><text x="680" y="68.784" fill="#D9B8FF" font-family="sans-serif" font-size="14" textLength="66">: duration</text><text x="651" y="95.081" fill="#D9B8FF" font-family="sans-serif" font-size="14" font-weight="bold" textLength="43">atime</text><text x="694" y="95.081" fill="#D9B8FF" font-family="sans-serif" font-size="14" textLength="70">: datetime</text><text x="651" y="121.378" fill="#D9B8FF" font-family="sans-serif" font-size="14" font-weight="bold" textLength="43">ctime</text><text x="694" y="121.378" fill="#D9B8FF" font-family="sans-serif" font-size="14" textLength="70">: datetime</text><text x="651" y="147.675" fill="#D9B8FF" font-family="sans-serif" font-size="14" font-weight="bold" textLength="14">id</text><text x="665" y="147.675" fill="#D9B8FF" font-family="sans-serif" font-size="14" textLength="48">: string</text><text x="651" y="173.972" fill="#D9B8FF" font-family="sans-serif" font-size="14" font-weight="bold" textLength="33">kind</text><text x="684" y="173.972" fill="#D9B8FF" font-family="sans-serif" font-size="14" textLength="48">: string</text><text x="651" y="200.269" fill="#D9B8FF" font-family="sans-serif" font-size="14" font-weight="bold" textLength="90">last_access</text><text x="741" y="200.269" fill="#D9B8FF" font-family="sans-serif" font-size="14" textLength="66">: duration</text><text x="651" y="226.565" fill="#D9B8FF" font-family="sans-serif" font-size="14" font-weight="bold" textLength="90">last_update</text><text x="741" y="226.565" fill="#D9B8FF" font-family="sans-serif" font-size="14" textLength="66">: duration</text><text x="651" y="252.862" fill="#D9B8FF" font-family="sans-serif" font-size="14" font-weight="bold" textLength="48">mtime</text><text x="699" y="252.862" fill="#D9B8FF" font-family="sans-serif" font-size="14" textLength="70">: datetime</text><text x="651" y="279.159" fill="#D9B8FF" font-family="sans-serif" font-size="14" font-weight="bold" textLength="43">name</text><text x="694" y="279.159" fill="#D9B8FF" font-family="sans-serif" font-size="14" textLength="48">: string</text><text x="651" y="305.456" fill="#D9B8FF" font-family="sans-serif" font-size="14" font-weight="bold" textLength="34">tags</text><text x="685" y="305.456" fill="#D9B8FF" font-family="sans-serif" font-size="14" textLength="171">: dictionary[string, string]</text><g fill="none"><path d="M692.16 335.01c-17.8 49.79-29.88 83.6-41.64 116.5" style="stroke:#ffaf37;stroke-width:2"/><path d="m698.22 318.06-11.71 14.93 11.3 4.04z" style="stroke:#ffaf37;stroke-width:2"/></g><g fill="none"><path d="M657.317 543.146c12.35 33.13 25.113 67.424 43.453 116.664" style="stroke:#ffaf37;stroke-width:2"/><path d="m651.03 526.28.665 18.962 11.244-4.191z" style="stroke:#ffaf37;stroke-width:2"/></g><path fill="none" d="M504.09 944.84c-33.95 19.81-68.23 40.12-100.59 59.76-13.51 8.2-22.702 13.888-36.462 22.608" style="stroke:#ffaf37;stroke-width:2"/><path fill="#FFAF37" d="m361.97 1030.42 9.743-1.439-5.52-1.237 1.238-5.52z" style="stroke:#ffaf37;stroke-width:2"/><path fill="none" d="M657.3 944.97c-17.26 25.4-31.038 45.687-45.768 67.367" style="stroke:#ffaf37;stroke-width:2"/><path fill="#FFAF37" d="m608.16 1017.3 8.367-5.196-5.557 1.06-1.06-5.556z" style="stroke:#ffaf37;stroke-width:2"/><path fill="none" d="M849.7 944.97c13.92 20.48 24.387 35.898 36.957 54.388" style="stroke:#ffaf37;stroke-width:2"/><path fill="#FFAF37" d="m890.03 1004.32-1.752-9.692-1.06 5.557-5.556-1.06z" style="stroke:#ffaf37;stroke-width:2"/><path fill="none" d="m1056.95 944.97 149.563 69.793" style="stroke:#ffaf37;stroke-width:2"/><path fill="#FFAF37" d="m1211.95 1017.3-6.464-7.43 1.933 5.316-5.316 1.933z" style="stroke:#ffaf37;stroke-width:2"/><path fill="none" d="M846.294 556.463c-12.36 32.63-22.834 60.257-39.124 103.267m45.5-120.1-11.987 14.707 11.222 4.251zm-614.33 591.95c-25.26 26.49-52.13 54.697-77.41 81.217" style="stroke:#ffaf37;stroke-width:2"/><path fill="#FFAF37" d="m156.79 1217.14 9.105-3.755-5.655.136-.136-5.655z" style="stroke:#ffaf37;stroke-width:2"/><path fill="none" d="M298.63 1131.58c7.03 26.49 14.133 53.24 21.163 79.76" style="stroke:#ffaf37;stroke-width:2"/><path fill="#FFAF37" d="m321.33 1217.14 1.56-9.725-2.841 4.892-4.892-2.842z" style="stroke:#ffaf37;stroke-width:2"/><path fill="none" d="M166.74 1318.43c24.01 20.83 47.988 41.637 74.778 64.887" style="stroke:#ffaf37;stroke-width:2"/><path fill="#FFAF37" d="m246.05 1387.25-4.175-8.92.399 5.643-5.643.399z" style="stroke:#ffaf37;stroke-width:2"/><path fill="none" d="M565.5 1144.87v66.4" style="stroke:#ffaf37;stroke-width:2"/><path fill="#FFAF37" d="m565.5 1217.27 4-9-4 4-4-4z" style="stroke:#ffaf37;stroke-width:2"/><path fill="none" d="M508.26 1318.43c-24.01 20.83-47.988 41.637-74.779 64.887" style="stroke:#ffaf37;stroke-width:2"/><path fill="#FFAF37" d="m428.95 1387.25 9.419-2.878-5.643-.4.4-5.642z" style="stroke:#ffaf37;stroke-width:2"/><path fill="none" d="M815.888 334.978c15.84 43.59 25.812 71.002 37.602 103.442m-43.75-120.36.508 18.967 11.279-4.099z" style="stroke:#ffaf37;stroke-width:2"/></svg>