<svg xmlns="http://www.w3.org/2000/svg" width="4829" height="551" viewBox="0 0 4829 551"><rect width="109" height="39.789" x="553" y="306.36" fill="#3D176E" rx="2.5" ry="2.5" style="stroke:#000d19;stroke-width:.5"/><circle cx="568" cy="326.255" r="11" fill="#ADD1B2" style="stroke:#181818;stroke-width:1"/><path d="M570.969 331.895q-.578.297-1.219.438-.64.156-1.344.156-2.5 0-3.828-1.64-1.312-1.657-1.312-4.782t1.312-4.781q1.328-1.656 3.828-1.656.703 0 1.344.156.656.156 1.219.453v2.719q-.625-.579-1.219-.844-.594-.281-1.219-.281-1.343 0-2.031 1.078-.687 1.062-.687 3.156t.687 3.172q.688 1.062 2.031 1.062.625 0 1.219-.265.594-.281 1.219-.86z"/><text x="587" y="332.14" fill="#D9B8FF" font-family="Helvetica" font-size="17" textLength="67">aws_alb</text><rect width="237" height="39.789" x="7" y="7" fill="#3D176E" rx="2.5" ry="2.5" style="stroke:#000d19;stroke-width:.5"/><circle cx="22" cy="26.895" r="11" fill="#ADD1B2" style="stroke:#181818;stroke-width:1"/><path d="M24.969 32.535q-.578.297-1.219.438-.64.156-1.344.156-2.5 0-3.828-1.64-1.312-1.657-1.312-4.782t1.312-4.781q1.328-1.656 3.828-1.656.703 0 1.344.156.656.156 1.219.453v2.719q-.625-.578-1.219-.844-.594-.281-1.219-.281-1.343 0-2.031 1.078-.687 1.062-.687 3.156t.687 3.172q.688 1.062 2.031 1.062.625 0 1.219-.265.594-.281 1.219-.86z"/><text x="41" y="32.78" fill="#D9B8FF" font-family="Helvetica" font-size="17" textLength="195">aws_ec2_ip_permission</text><rect width="194" height="39.789" x="278.5" y="7" fill="#3D176E" rx="2.5" ry="2.5" style="stroke:#000d19;stroke-width:.5"/><circle cx="293.5" cy="26.895" r="11" fill="#ADD1B2" style="stroke:#181818;stroke-width:1"/><path d="M296.469 32.535q-.578.297-1.219.438-.64.156-1.344.156-2.5 0-3.828-1.64-1.312-1.657-1.312-4.782t1.312-4.781q1.328-1.656 3.828-1.656.703 0 1.344.156.656.156 1.219.453v2.719q-.625-.578-1.219-.844-.594-.281-1.219-.281-1.344 0-2.031 1.078-.687 1.062-.687 3.156t.687 3.172q.688 1.062 2.031 1.062.625 0 1.219-.265.594-.281 1.219-.86z"/><text x="312.5" y="32.78" fill="#D9B8FF" font-family="Helvetica" font-size="17" textLength="152">aws_ec2_ip_range</text><rect width="215" height="39.789" x="507" y="7" fill="#3D176E" rx="2.5" ry="2.5" style="stroke:#000d19;stroke-width:.5"/><circle cx="522" cy="26.895" r="11" fill="#ADD1B2" style="stroke:#181818;stroke-width:1"/><path d="M524.969 32.535q-.578.297-1.219.438-.64.156-1.344.156-2.5 0-3.828-1.64-1.312-1.657-1.312-4.782t1.312-4.781q1.328-1.656 3.828-1.656.703 0 1.344.156.656.156 1.219.453v2.719q-.625-.578-1.219-.844-.594-.281-1.219-.281-1.343 0-2.031 1.078-.687 1.062-.687 3.156t.687 3.172q.688 1.062 2.031 1.062.625 0 1.219-.265.594-.281 1.219-.86z"/><text x="541" y="32.78" fill="#D9B8FF" font-family="Helvetica" font-size="17" textLength="173">aws_ec2_ipv6_range</text><rect width="275" height="39.789" x="4532" y="406.15" fill="#3D176E" rx="2.5" ry="2.5" style="stroke:#000d19;stroke-width:.5"/><circle cx="4547" cy="426.045" r="11" fill="#ADD1B2" style="stroke:#181818;stroke-width:1"/><path d="M4549.969 431.685q-.578.297-1.219.438-.64.156-1.344.156-2.5 0-3.828-1.64-1.312-1.657-1.312-4.782t1.312-4.781q1.328-1.656 3.828-1.656.703 0 1.344.156.656.156 1.219.453v2.719q-.625-.578-1.219-.844-.594-.281-1.219-.281-1.343 0-2.031 1.078-.687 1.062-.687 3.156t.687 3.172q.688 1.062 2.031 1.062.625 0 1.219-.265.594-.281 1.219-.86z"/><text x="4566" y="431.93" fill="#D9B8FF" font-family="Helvetica" font-size="17" textLength="233">aws_ec2_network_interface</text><rect width="228" height="39.789" x="11.5" y="106.78" fill="#3D176E" rx="2.5" ry="2.5" style="stroke:#000d19;stroke-width:.5"/><circle cx="26.5" cy="126.674" r="11" fill="#ADD1B2" style="stroke:#181818;stroke-width:1"/><path d="M29.469 132.315q-.578.297-1.219.438-.64.156-1.344.156-2.5 0-3.828-1.64-1.312-1.657-1.312-4.782t1.312-4.781q1.328-1.657 3.828-1.657.703 0 1.344.157.656.156 1.219.453v2.719q-.625-.579-1.219-.844-.594-.281-1.219-.281-1.343 0-2.031 1.078-.687 1.062-.687 3.156t.687 3.172q.688 1.062 2.031 1.062.625 0 1.219-.265.594-.281 1.219-.86z"/><text x="45.5" y="132.56" fill="#D9B8FF" font-family="Helvetica" font-size="17" textLength="186">aws_ec2_prefix_list_id</text><rect width="245" height="39.789" x="2998" y="206.57" fill="#3D176E" rx="2.5" ry="2.5" style="stroke:#000d19;stroke-width:.5"/><circle cx="3013" cy="226.464" r="11" fill="#ADD1B2" style="stroke:#181818;stroke-width:1"/><path d="M3015.969 232.105q-.578.297-1.219.438-.64.156-1.344.156-2.5 0-3.828-1.64-1.312-1.657-1.312-4.782t1.312-4.781q1.328-1.657 3.828-1.657.703 0 1.344.157.656.156 1.219.453v2.719q-.625-.579-1.219-.844-.594-.281-1.219-.281-1.343 0-2.031 1.078-.687 1.062-.687 3.156t.687 3.172q.688 1.062 2.031 1.062.625 0 1.219-.265.594-.282 1.219-.86z"/><text x="3032" y="232.35" fill="#D9B8FF" font-family="Helvetica" font-size="17" textLength="203">aws_ec2_security_group</text><rect width="280" height="39.789" x="274.5" y="106.78" fill="#3D176E" rx="2.5" ry="2.5" style="stroke:#000d19;stroke-width:.5"/><circle cx="289.5" cy="126.674" r="11" fill="#ADD1B2" style="stroke:#181818;stroke-width:1"/><path d="M292.469 132.315q-.578.297-1.219.438-.64.156-1.344.156-2.5 0-3.828-1.64-1.312-1.657-1.312-4.782t1.312-4.781q1.328-1.657 3.828-1.657.703 0 1.344.157.656.156 1.219.453v2.719q-.625-.579-1.219-.844-.594-.281-1.219-.281-1.344 0-2.031 1.078-.687 1.062-.687 3.156t.687 3.172q.688 1.062 2.031 1.062.625 0 1.219-.265.594-.281 1.219-.86z"/><text x="308.5" y="132.56" fill="#D9B8FF" font-family="Helvetica" font-size="17" textLength="238">aws_ec2_user_id_group_pair</text><rect width="177" height="39.789" x="3602" y="306.36" fill="#3D176E" rx="2.5" ry="2.5" style="stroke:#000d19;stroke-width:.5"/><circle cx="3617" cy="326.255" r="11" fill="#ADD1B2" style="stroke:#181818;stroke-width:1"/><path d="M3619.969 331.895q-.578.297-1.219.438-.64.156-1.344.156-2.5 0-3.828-1.64-1.312-1.657-1.312-4.782t1.312-4.781q1.328-1.656 3.828-1.656.703 0 1.344.156.656.156 1.219.453v2.719q-.625-.579-1.219-.844-.594-.281-1.219-.281-1.343 0-2.031 1.078-.687 1.062-.687 3.156t.687 3.172q.688 1.062 2.031 1.062.625 0 1.219-.265.594-.281 1.219-.86z"/><text x="3636" y="332.14" fill="#D9B8FF" font-family="Helvetica" font-size="17" textLength="135">aws_ecs_service</text><rect width="297" height="39.789" x="984" y="306.36" fill="#3D176E" rx="2.5" ry="2.5" style="stroke:#000d19;stroke-width:.5"/><circle cx="999" cy="326.255" r="11" fill="#ADD1B2" style="stroke:#181818;stroke-width:1"/><path d="M1001.969 331.895q-.578.297-1.219.438-.64.156-1.344.156-2.5 0-3.828-1.64-1.312-1.657-1.312-4.782t1.312-4.781q1.328-1.656 3.828-1.656.703 0 1.344.156.656.156 1.219.453v2.719q-.625-.579-1.219-.844-.594-.281-1.219-.281-1.343 0-2.031 1.078-.687 1.062-.687 3.156t.687 3.172q.688 1.062 2.031 1.062.625 0 1.219-.265.594-.281 1.219-.86z"/><text x="1018" y="332.14" fill="#D9B8FF" font-family="Helvetica" font-size="17" textLength="255">aws_elasticache_cache_cluster</text><rect width="109" height="39.789" x="4200" y="406.15" fill="#3D176E" rx="2.5" ry="2.5" style="stroke:#000d19;stroke-width:.5"/><circle cx="4215" cy="426.045" r="11" fill="#ADD1B2" style="stroke:#181818;stroke-width:1"/><path d="M4217.969 431.685q-.578.297-1.219.438-.64.156-1.344.156-2.5 0-3.828-1.64-1.312-1.657-1.312-4.782t1.312-4.781q1.328-1.656 3.828-1.656.703 0 1.344.156.656.156 1.219.453v2.719q-.625-.578-1.219-.844-.594-.281-1.219-.281-1.343 0-2.031 1.078-.687 1.062-.687 3.156t.687 3.172q.688 1.062 2.031 1.062.625 0 1.219-.265.594-.281 1.219-.86z"/><text x="4234" y="431.93" fill="#D9B8FF" font-family="Helvetica" font-size="17" textLength="67">aws_elb</text><rect width="224" height="39.789" x="897.5" y="505.94" fill="#3D176E" rx="2.5" ry="2.5" style="stroke:#000d19;stroke-width:.5"/><circle cx="912.5" cy="525.835" r="11" fill="#ADD1B2" style="stroke:#181818;stroke-width:1"/><path d="M915.469 531.475q-.578.297-1.219.438-.64.156-1.344.156-2.5 0-3.828-1.64-1.312-1.657-1.312-4.782t1.312-4.781q1.328-1.656 3.828-1.656.703 0 1.344.156.656.156 1.219.453v2.719q-.625-.578-1.219-.844-.594-.281-1.219-.281-1.343 0-2.031 1.078-.687 1.062-.687 3.156t.687 3.172q.688 1.062 2.031 1.062.625 0 1.219-.265.594-.281 1.219-.86z"/><text x="931.5" y="531.72" fill="#D9B8FF" font-family="Helvetica" font-size="17" textLength="182">aws_lambda_function</text><rect width="174" height="39.789" x="1387.5" y="306.36" fill="#3D176E" rx="2.5" ry="2.5" style="stroke:#000d19;stroke-width:.5"/><circle cx="1402.5" cy="326.255" r="11" fill="#ADD1B2" style="stroke:#181818;stroke-width:1"/><path d="M1405.469 331.895q-.578.297-1.219.438-.64.156-1.344.156-2.5 0-3.828-1.64-1.312-1.657-1.312-4.782t1.312-4.781q1.328-1.656 3.828-1.656.703 0 1.344.156.656.156 1.219.453v2.719q-.625-.579-1.219-.844-.594-.281-1.219-.281-1.343 0-2.031 1.078-.687 1.062-.687 3.156t.687 3.172q.688 1.062 2.031 1.062.625 0 1.219-.265.594-.281 1.219-.86z"/><text x="1421.5" y="332.14" fill="#D9B8FF" font-family="Helvetica" font-size="17" textLength="132">aws_rds_cluster</text><rect width="188" height="39.789" x="768.5" y="406.15" fill="#3D176E" rx="2.5" ry="2.5" style="stroke:#000d19;stroke-width:.5"/><circle cx="783.5" cy="426.045" r="11" fill="#ADD1B2" style="stroke:#181818;stroke-width:1"/><path d="M786.469 431.685q-.578.297-1.219.438-.64.156-1.344.156-2.5 0-3.828-1.64-1.312-1.657-1.312-4.782t1.312-4.781q1.328-1.656 3.828-1.656.703 0 1.344.156.656.156 1.219.453v2.719q-.625-.578-1.219-.844-.594-.281-1.219-.281-1.343 0-2.031 1.078-.687 1.062-.687 3.156t.687 3.172q.688 1.062 2.031 1.062.625 0 1.219-.265.594-.281 1.219-.86z"/><text x="802.5" y="431.93" fill="#D9B8FF" font-family="Helvetica" font-size="17" textLength="146">aws_rds_instance</text><rect width="213" height="39.789" x="3955" y="306.36" fill="#3D176E" rx="2.5" ry="2.5" style="stroke:#000d19;stroke-width:.5"/><circle cx="3970" cy="326.255" r="11" fill="#ADD1B2" style="stroke:#181818;stroke-width:1"/><path d="M3972.969 331.895q-.578.297-1.219.438-.64.156-1.344.156-2.5 0-3.828-1.64-1.312-1.657-1.312-4.782t1.312-4.781q1.328-1.656 3.828-1.656.703 0 1.344.156.656.156 1.219.453v2.719q-.625-.579-1.219-.844-.594-.281-1.219-.281-1.343 0-2.031 1.078-.687 1.062-.687 3.156t.687 3.172q.688 1.062 2.031 1.062.625 0 1.219-.265.594-.281 1.219-.86z"/><text x="3989" y="332.14" fill="#D9B8FF" font-family="Helvetica" font-size="17" textLength="171">aws_redshift_cluster</text><rect width="137" height="39.789" x="3502" y="7" fill="#3D176E" rx="2.5" ry="2.5" style="stroke:#000d19;stroke-width:.5"/><circle cx="3517" cy="26.895" r="11" fill="#ADD1B2" style="stroke:#181818;stroke-width:1"/><path d="M3519.969 32.535q-.578.297-1.219.438-.64.156-1.344.156-2.5 0-3.828-1.64-1.312-1.657-1.312-4.782t1.312-4.781q1.328-1.656 3.828-1.656.703 0 1.344.156.656.156 1.219.453v2.719q-.625-.578-1.219-.844-.594-.281-1.219-.281-1.343 0-2.031 1.078-.687 1.062-.687 3.156t.687 3.172q.688 1.062 2.031 1.062.625 0 1.219-.265.594-.281 1.219-.86z"/><text x="3536" y="32.78" fill="#D9B8FF" font-family="Helvetica" font-size="17" textLength="95">aws_region</text><rect width="288" height="39.789" x="3208.5" y="306.36" fill="#3D176E" rx="2.5" ry="2.5" style="stroke:#000d19;stroke-width:.5"/><circle cx="3223.5" cy="326.255" r="11" fill="#ADD1B2" style="stroke:#181818;stroke-width:1"/><path d="M3226.469 331.895q-.578.297-1.219.438-.64.156-1.344.156-2.5 0-3.828-1.64-1.312-1.657-1.312-4.782t1.312-4.781q1.328-1.656 3.828-1.656.703 0 1.344.156.656.156 1.219.453v2.719q-.625-.579-1.219-.844-.594-.281-1.219-.281-1.343 0-2.031 1.078-.687 1.062-.687 3.156t.687 3.172q.688 1.062 2.031 1.062.625 0 1.219-.265.594-.281 1.219-.86z"/><text x="3242.5" y="332.14" fill="#D9B8FF" font-family="Helvetica" font-size="17" textLength="246">aws_sagemaker_auto_ml_job</text><rect width="317" height="39.789" x="1941" y="306.36" fill="#3D176E" rx="2.5" ry="2.5" style="stroke:#000d19;stroke-width:.5"/><circle cx="1956" cy="326.255" r="11" fill="#ADD1B2" style="stroke:#181818;stroke-width:1"/><path d="M1958.969 331.895q-.578.297-1.219.438-.64.156-1.344.156-2.5 0-3.828-1.64-1.312-1.657-1.312-4.782t1.312-4.781q1.328-1.656 3.828-1.656.703 0 1.344.156.656.156 1.219.453v2.719q-.625-.579-1.219-.844-.594-.281-1.219-.281-1.343 0-2.031 1.078-.687 1.062-.687 3.156t.687 3.172q.688 1.062 2.031 1.062.625 0 1.219-.265.594-.281 1.219-.86z"/><text x="1975" y="332.14" fill="#D9B8FF" font-family="Helvetica" font-size="17" textLength="275">aws_sagemaker_compilation_job</text><rect width="248" height="39.789" x="2292.5" y="306.36" fill="#3D176E" rx="2.5" ry="2.5" style="stroke:#000d19;stroke-width:.5"/><circle cx="2307.5" cy="326.255" r="11" fill="#ADD1B2" style="stroke:#181818;stroke-width:1"/><path d="M2310.469 331.895q-.578.297-1.219.438-.64.156-1.344.156-2.5 0-3.828-1.64-1.312-1.657-1.312-4.782t1.312-4.781q1.328-1.656 3.828-1.656.703 0 1.344.156.656.156 1.219.453v2.719q-.625-.579-1.219-.844-.594-.281-1.219-.281-1.343 0-2.031 1.078-.687 1.062-.687 3.156t.687 3.172q.688 1.062 2.031 1.062.625 0 1.219-.265.594-.281 1.219-.86z"/><text x="2326.5" y="332.14" fill="#D9B8FF" font-family="Helvetica" font-size="17" textLength="206">aws_sagemaker_domain</text><rect width="428" height="39.789" x="3039.5" y="406.15" fill="#3D176E" rx="2.5" ry="2.5" style="stroke:#000d19;stroke-width:.5"/><circle cx="3054.5" cy="426.045" r="11" fill="#ADD1B2" style="stroke:#181818;stroke-width:1"/><path d="M3057.469 431.685q-.578.297-1.219.438-.64.156-1.344.156-2.5 0-3.828-1.64-1.312-1.657-1.312-4.782t1.312-4.781q1.328-1.656 3.828-1.656.703 0 1.344.156.656.156 1.219.453v2.719q-.625-.578-1.219-.844-.594-.281-1.219-.281-1.343 0-2.031 1.078-.687 1.062-.687 3.156t.687 3.172q.688 1.062 2.031 1.062.625 0 1.219-.265.594-.281 1.219-.86z"/><text x="3073.5" y="431.93" fill="#D9B8FF" font-family="Helvetica" font-size="17" textLength="386">aws_sagemaker_hyper_parameter_tuning_job</text><rect width="457" height="39.789" x="2575" y="306.36" fill="#3D176E" rx="2.5" ry="2.5" style="stroke:#000d19;stroke-width:.5"/><circle cx="2590" cy="326.255" r="11" fill="#ADD1B2" style="stroke:#181818;stroke-width:1"/><path d="M2592.969 331.895q-.578.297-1.219.438-.64.156-1.344.156-2.5 0-3.828-1.64-1.312-1.657-1.312-4.782t1.312-4.781q1.328-1.656 3.828-1.656.703 0 1.344.156.656.156 1.219.453v2.719q-.625-.579-1.219-.844-.594-.281-1.219-.281-1.343 0-2.031 1.078-.687 1.062-.687 3.156t.687 3.172q.688 1.062 2.031 1.062.625 0 1.219-.265.594-.281 1.219-.86z"/><text x="2609" y="332.14" fill="#D9B8FF" font-family="Helvetica" font-size="17" textLength="415">aws_sagemaker_inference_recommendations_job</text><rect width="285" height="39.789" x="1659" y="406.15" fill="#3D176E" rx="2.5" ry="2.5" style="stroke:#000d19;stroke-width:.5"/><circle cx="1674" cy="426.045" r="11" fill="#ADD1B2" style="stroke:#181818;stroke-width:1"/><path d="M1676.969 431.685q-.578.297-1.219.438-.64.156-1.344.156-2.5 0-3.828-1.64-1.312-1.657-1.312-4.782t1.312-4.781q1.328-1.656 3.828-1.656.703 0 1.344.156.656.156 1.219.453v2.719q-.625-.578-1.219-.844-.594-.281-1.219-.281-1.343 0-2.031 1.078-.687 1.062-.687 3.156t.687 3.172q.688 1.062 2.031 1.062.625 0 1.219-.265.594-.281 1.219-.86z"/><text x="1693" y="431.93" fill="#D9B8FF" font-family="Helvetica" font-size="17" textLength="243">aws_sagemaker_labeling_job</text><rect width="237" height="39.789" x="1597" y="306.36" fill="#3D176E" rx="2.5" ry="2.5" style="stroke:#000d19;stroke-width:.5"/><circle cx="1612" cy="326.255" r="11" fill="#ADD1B2" style="stroke:#181818;stroke-width:1"/><path d="M1614.969 331.895q-.578.297-1.219.438-.64.156-1.344.156-2.5 0-3.828-1.64-1.312-1.657-1.312-4.782t1.312-4.781q1.328-1.656 3.828-1.656.703 0 1.344.156.656.156 1.219.453v2.719q-.625-.579-1.219-.844-.594-.281-1.219-.281-1.343 0-2.031 1.078-.687 1.062-.687 3.156t.687 3.172q.688 1.062 2.031 1.062.625 0 1.219-.265.594-.281 1.219-.86z"/><text x="1631" y="332.14" fill="#D9B8FF" font-family="Helvetica" font-size="17" textLength="195">aws_sagemaker_model</text><rect width="263" height="39.789" x="4203" y="306.36" fill="#3D176E" rx="2.5" ry="2.5" style="stroke:#000d19;stroke-width:.5"/><circle cx="4218" cy="326.255" r="11" fill="#ADD1B2" style="stroke:#181818;stroke-width:1"/><path d="M4220.969 331.895q-.578.297-1.219.438-.64.156-1.344.156-2.5 0-3.828-1.64-1.312-1.657-1.312-4.782t1.312-4.781q1.328-1.656 3.828-1.656.703 0 1.344.156.656.156 1.219.453v2.719q-.625-.579-1.219-.844-.594-.281-1.219-.281-1.343 0-2.031 1.078-.687 1.062-.687 3.156t.687 3.172q.688 1.062 2.031 1.062.625 0 1.219-.265.594-.281 1.219-.86z"/><text x="4237" y="332.14" fill="#D9B8FF" font-family="Helvetica" font-size="17" textLength="221">aws_sagemaker_notebook</text><rect width="306" height="39.789" x="3573.5" y="406.15" fill="#3D176E" rx="2.5" ry="2.5" style="stroke:#000d19;stroke-width:.5"/><circle cx="3588.5" cy="426.045" r="11" fill="#ADD1B2" style="stroke:#181818;stroke-width:1"/><path d="M3591.469 431.685q-.578.297-1.219.438-.64.156-1.344.156-2.5 0-3.828-1.64-1.312-1.657-1.312-4.782t1.312-4.781q1.328-1.656 3.828-1.656.703 0 1.344.156.656.156 1.219.453v2.719q-.625-.578-1.219-.844-.594-.281-1.219-.281-1.343 0-2.031 1.078-.687 1.062-.687 3.156t.687 3.172q.688 1.062 2.031 1.062.625 0 1.219-.265.594-.281 1.219-.86z"/><text x="3607.5" y="431.93" fill="#D9B8FF" font-family="Helvetica" font-size="17" textLength="264">aws_sagemaker_processing_job</text><rect width="285" height="39.789" x="3111" y="505.94" fill="#3D176E" rx="2.5" ry="2.5" style="stroke:#000d19;stroke-width:.5"/><circle cx="3126" cy="525.835" r="11" fill="#ADD1B2" style="stroke:#181818;stroke-width:1"/><path d="M3128.969 531.475q-.578.297-1.219.438-.64.156-1.344.156-2.5 0-3.828-1.64-1.312-1.657-1.312-4.782t1.312-4.781q1.328-1.656 3.828-1.656.703 0 1.344.156.656.156 1.219.453v2.719q-.625-.578-1.219-.844-.594-.281-1.219-.281-1.343 0-2.031 1.078-.687 1.062-.687 3.156t.687 3.172q.688 1.062 2.031 1.062.625 0 1.219-.265.594-.281 1.219-.86z"/><text x="3145" y="531.72" fill="#D9B8FF" font-family="Helvetica" font-size="17" textLength="243">aws_sagemaker_training_job</text><rect width="112" height="39.789" x="3514.5" y="106.78" fill="#3D176E" rx="2.5" ry="2.5" style="stroke:#000d19;stroke-width:.5"/><circle cx="3529.5" cy="126.674" r="11" fill="#ADD1B2" style="stroke:#181818;stroke-width:1"/><path d="M3532.469 132.315q-.578.297-1.219.438-.64.156-1.344.156-2.5 0-3.828-1.64-1.312-1.657-1.312-4.782t1.312-4.781q1.328-1.657 3.828-1.657.703 0 1.344.157.656.156 1.219.453v2.719q-.625-.579-1.219-.844-.594-.281-1.219-.281-1.343 0-2.031 1.078-.687 1.062-.687 3.156t.687 3.172q.688 1.062 2.031 1.062.625 0 1.219-.265.594-.281 1.219-.86z"/><text x="3548.5" y="132.56" fill="#D9B8FF" font-family="Helvetica" font-size="17" textLength="70">aws_vpc</text><rect width="195" height="39.789" x="4572" y="306.36" fill="#3D176E" rx="2.5" ry="2.5" style="stroke:#000d19;stroke-width:.5"/><circle cx="4587" cy="326.255" r="11" fill="#ADD1B2" style="stroke:#181818;stroke-width:1"/><path d="M4589.969 331.895q-.578.297-1.219.438-.64.156-1.344.156-2.5 0-3.828-1.64-1.312-1.657-1.312-4.782t1.312-4.781q1.328-1.656 3.828-1.656.703 0 1.344.156.656.156 1.219.453v2.719q-.625-.579-1.219-.844-.594-.281-1.219-.281-1.343 0-2.031 1.078-.687 1.062-.687 3.156t.687 3.172q.688 1.062 2.031 1.062.625 0 1.219-.265.594-.281 1.219-.86z"/><text x="4606" y="332.14" fill="#D9B8FF" font-family="Helvetica" font-size="17" textLength="153">aws_vpc_endpoint</text><path fill="none" d="M2997.63 230.64c-335.53 8.91-1295.55 36.16-2093.13 75.72-84.5 4.19-176.435 10.33-236.025 14.52" style="stroke:#1a83af;stroke-width:2"/><path fill="#1A83AF" d="m662.49 321.3 9.258 3.359-4.27-3.71 3.71-4.27z" style="stroke:#1a83af;stroke-width:2"/><path fill="none" d="M3243.14 234.84c180.06 11.78 506.78 37.09 619.36 71.52 36.08 11.04 38.92 28.73 75 39.79 107.61 33 407.644 57.53 588.124 69.88" style="stroke:#1a83af;stroke-width:2"/><path fill="#1A83AF" d="m4531.61 416.44-8.706-4.605 3.718 4.264-4.264 3.717z" style="stroke:#1a83af;stroke-width:2"/><path fill="none" d="M3233.45 246.85a6931483 6931483 0 0 1 362.236 62.145" style="stroke:#1a83af;stroke-width:2"/><path fill="#1A83AF" d="m3601.6 310.01-8.194-5.465 3.266 4.62-4.619 3.265z" style="stroke:#1a83af;stroke-width:2"/><path fill="none" d="M2997.58 230.13c-292.84 6.93-1054.62 28.41-1689.08 76.23-8.89.67-12.044.892-21.254 1.721" style="stroke:#1a83af;stroke-width:2"/><path fill="#1A83AF" d="m1281.27 308.62 9.323 3.176-4.343-3.625 3.625-4.343z" style="stroke:#1a83af;stroke-width:2"/><path fill="none" d="M3243.31 229.17c137.44 4.78 365.46 21.4 553.19 77.19 38.07 11.31 42.48 26.79 80 39.79 111.64 38.7 242.788 60.677 317.368 71.127" style="stroke:#1a83af;stroke-width:2"/><path fill="#1A83AF" d="m4199.81 418.11-8.358-5.21 3.406 4.516-4.516 3.406z" style="stroke:#1a83af;stroke-width:2"/><path fill="none" d="M2997.65 227.31c-446.41.04-1960.34 5.6-2031.15 79.05-13.88 14.4 21.146 142.592 35.696 193.342" style="stroke:#1a83af;stroke-width:2"/><path fill="#1A83AF" d="m1003.85 505.47 1.365-9.754-2.743 4.948-4.947-2.743z" style="stroke:#1a83af;stroke-width:2"/><path fill="none" d="M2997.71 228.47c-261.61 3.3-892.94 17.43-1418.21 77.89-5.8.67-5.822.598-11.812 1.468" style="stroke:#1a83af;stroke-width:2"/><path fill="#1A83AF" d="m1561.75 308.69 9.482 2.665-4.534-3.384 3.384-4.533z" style="stroke:#1a83af;stroke-width:2"/><path fill="none" d="M2997.51 229.72c-372.58 7.3-1472.83 32.37-1628.01 76.64-34.78 9.93-36.96 27.56-71 39.79-113.66 40.84-245.925 60.617-335.845 70.307" style="stroke:#1a83af;stroke-width:2"/><path fill="#1A83AF" d="m956.69 417.1 9.377 3.013-4.406-3.549 3.549-4.405z" style="stroke:#1a83af;stroke-width:2"/><path fill="none" d="M3243.2 237.76c158.49 13.69 442.85 39.56 685.3 68.6 8.57 1.03 11.492 1.361 20.392 2.541" style="stroke:#1a83af;stroke-width:2"/><path fill="#1A83AF" d="m3954.84 309.69-8.396-5.148 3.44 4.49-4.492 3.44z" style="stroke:#1a83af;stroke-width:2"/><path fill="none" d="M3166.34 246.79c40.67 17.14 94.251 39.73 134.891 56.86" style="stroke:#1a83af;stroke-width:2"/><path fill="#1A83AF" d="m3306.76 305.98-6.74-7.182 2.133 5.24-5.24 2.132z" style="stroke:#1a83af;stroke-width:2"/><path fill="none" d="M2997.65 238.4c-164.5 14.76-465.41 42.2-722.15 67.96-5.66.57-5.452.534-11.262 1.134" style="stroke:#1a83af;stroke-width:2"/><path fill="#1A83AF" d="m2258.27 308.11 9.363 3.054-4.39-3.568 3.568-4.39z" style="stroke:#1a83af;stroke-width:2"/><path fill="none" d="M2997.87 244.5c-128.13 17.8-322.137 44.744-450.957 62.644" style="stroke:#1a83af;stroke-width:2"/><path fill="#1A83AF" d="m2540.97 307.97 9.465 2.723-4.513-3.411 3.412-4.513z" style="stroke:#1a83af;stroke-width:2"/><path fill="none" d="M3131.09 246.84c13.28 23.89 37.14 65.49 60.41 99.31 14.51 21.1 28.976 39.356 41.926 55.016" style="stroke:#1a83af;stroke-width:2"/><path fill="#1A83AF" d="m3237.25 405.79-2.653-9.485-.533 5.632-5.632-.534z" style="stroke:#1a83af;stroke-width:2"/><path fill="none" d="M3057.87 246.79c-55.48 17.11-130.337 40.201-185.867 57.331" style="stroke:#1a83af;stroke-width:2"/><path fill="#1A83AF" d="m2866.27 305.89 9.78 1.17-5.002-2.644 2.643-5.001z" style="stroke:#1a83af;stroke-width:2"/><path fill="none" d="M2997.61 230.76c-285.73 8.35-977.84 32.76-1074.11 75.6-48.86 21.75-86.138 67.183-105.818 94.803" style="stroke:#1a83af;stroke-width:2"/><path fill="#1A83AF" d="m1814.2 406.05 8.48-5.009-5.579.937-.936-5.579z" style="stroke:#1a83af;stroke-width:2"/><path fill="none" d="M2997.87 232.46c-225.39 9.76-720.53 34.01-1136.37 73.9-8.9.86-12.138 1.153-21.388 2.203" style="stroke:#1a83af;stroke-width:2"/><path fill="#1A83AF" d="m1834.15 309.24 9.394 2.96-4.426-3.524 3.523-4.426z" style="stroke:#1a83af;stroke-width:2"/><path fill="none" d="M3243.27 234.47c198.39 11.8 601.64 37.71 942.23 71.89 5.58.56 5.306.506 11.056 1.137" style="stroke:#1a83af;stroke-width:2"/><path fill="#1A83AF" d="m4202.52 308.15-8.51-4.956 3.54 4.411-4.412 3.541z" style="stroke:#1a83af;stroke-width:2"/><path fill="none" d="M3243.1 241.74c79.2 11.7 183.5 31.81 271.4 64.62 33.53 12.52 38.8 22.26 70 39.79 36.39 20.45 72.91 40.715 101.68 56.635" style="stroke:#1a83af;stroke-width:2"/><path fill="#1A83AF" d="m3691.43 405.69-5.938-7.857 1.563 5.436-5.436 1.563z" style="stroke:#1a83af;stroke-width:2"/><path fill="none" d="M3108.29 246.78c-24.31 38.89-77.18 125.78-85.79 159.37-4.39 17.13-10.29 25.41 0 39.79 21.08 29.47 48.16 46.126 82.46 57.806" style="stroke:#1a83af;stroke-width:2"/><path fill="#1A83AF" d="m3110.64 505.68-7.23-6.688 2.497 5.076-5.076 2.497z" style="stroke:#1a83af;stroke-width:2"/><path fill="none" d="M3243.26 232.78c238.99 10.75 783.34 37.17 1240.24 73.58 28.63 2.28 53.731 4.64 82.121 7.54" style="stroke:#1a83af;stroke-width:2"/><path fill="#1A83AF" d="m4571.59 314.51-8.547-4.894 3.573 4.386-4.386 3.573z" style="stroke:#1a83af;stroke-width:2"/><path fill="none" d="M3779.25 342.64c117.88 20.44 316.658 54.905 414.368 71.845" style="stroke:#1a83af;stroke-width:2"/><path fill="#1A83AF" d="m4199.53 415.51-8.184-5.479 3.258 4.625-4.625 3.258z" style="stroke:#1a83af;stroke-width:2"/><path fill="none" d="M1387.06 341.81c-8.97 1.48-17.95 2.95-26.56 4.34-140.63 22.8-297.802 47.56-397.962 63.26" style="stroke:#1a83af;stroke-width:2"/><path fill="#1A83AF" d="m956.61 410.34 9.51 2.558-4.57-3.332 3.332-4.571z" style="stroke:#1a83af;stroke-width:2"/><path fill="none" d="M3995.31 346.58c-58.63 17.11-138.04 40.289-196.72 57.419" style="stroke:#1a83af;stroke-width:2"/><path fill="#1A83AF" d="m3792.83 405.68 9.76 1.318-4.96-2.72 2.718-4.96z" style="stroke:#1a83af;stroke-width:2"/><path fill="none" d="M3501.64 27.85c-423.11-.02-2656.45 3.45-2778.14 78.93-73.54 45.62-101.953 148.907-111.233 193.317" style="stroke:#1a83af;stroke-width:2"/><path fill="#1A83AF" d="m611.04 305.97 5.756-7.992-4.733 3.098-3.097-4.734z" style="stroke:#1a83af;stroke-width:2"/><path fill="none" d="M3639.41 30.87c184.52 8.46 686.71 34.67 847.09 75.91 164.9 42.41 260.98 42.64 327 199.58 6.86 16.3 9.01 24.58 0 39.79-16.93 28.57-42.73 45.175-71.86 57.295" style="stroke:#1a83af;stroke-width:2"/><path fill="#1A83AF" d="m4736.1 405.75 9.846.236-5.23-2.157 2.157-5.23z" style="stroke:#1a83af;stroke-width:2"/><path fill="none" d="M3526.53 47.19c-86.03 37.78-270.216 118.648-356.386 156.488" style="stroke:#1a83af;stroke-width:2"/><path fill="#1A83AF" d="m3164.65 206.09 9.849.044-5.271-2.054 2.054-5.271z" style="stroke:#1a83af;stroke-width:2"/><path fill="none" d="M3639.43 27.74c143.32 1.14 483.02 11.46 758.07 79.04 114.18 28.06 141.8 43.46 245 99.79 67.71 36.96 106.44 31.34 142 99.79 8.15 15.7 11.55 26.4 0 39.79-30.83 35.76-340.05 63.942-469.24 74.272" style="stroke:#1a83af;stroke-width:2"/><path fill="#1A83AF" d="m4309.28 420.9 9.29 3.27-4.306-3.668 3.668-4.307z" style="stroke:#1a83af;stroke-width:2"/><path fill="none" d="M3501.78 27.99c-281.95 1.5-1376.84 17.94-2258.28 178.58-155.77 28.39-228.17-10.27-342 99.79-27.6 26.69-35.143 67.234-37.493 93.404" style="stroke:#1a83af;stroke-width:2"/><path fill="#1A83AF" d="m863.47 405.74 4.789-8.606-4.342 3.626-3.626-4.342z" style="stroke:#1a83af;stroke-width:2"/><path fill="none" d="M3570.5 47.21v53.19" style="stroke:#1a83af;stroke-width:2"/><path fill="#1A83AF" d="m3570.5 106.4 4-9-4 4-4-4z" style="stroke:#1a83af;stroke-width:2"/><path fill="none" d="M3639.39 32.38c204.34 14.44 802.58 65.28 960.11 174.19 35.22 24.36 53.511 66.988 62.471 93.848" style="stroke:#1a83af;stroke-width:2"/><path fill="#1A83AF" d="m4663.87 306.11.947-9.803-2.53 5.06-5.06-2.529z" style="stroke:#1a83af;stroke-width:2"/><path fill="none" d="M3426.39 346.58c65.46 17.11 154.735 40.452 220.245 57.582" style="stroke:#1a83af;stroke-width:2"/><path fill="#1A83AF" d="m3652.44 405.68-7.695-6.147 2.858 4.882-4.882 2.858z" style="stroke:#1a83af;stroke-width:2"/><path fill="none" d="M3403.23 346.49c48.61 21.42 110.58 58.47 81.27 99.45-21.08 29.47-48.16 46.126-82.46 57.806" style="stroke:#1a83af;stroke-width:2"/><path fill="#1A83AF" d="m3396.36 505.68 9.809.885-5.076-2.497 2.497-5.076z" style="stroke:#1a83af;stroke-width:2"/><path fill="none" d="M3253.5 446.37v53.19" style="stroke:#1a83af;stroke-width:2"/><path fill="#1A83AF" d="m3253.5 505.56 4-9-4 4-4-4z" style="stroke:#1a83af;stroke-width:2"/><path fill="none" d="M1658.53 444.7c-153.94 19.01-389.705 48.115-530.645 65.515" style="stroke:#1a83af;stroke-width:2"/><path fill="#1A83AF" d="m1121.93 510.95 9.422 2.867-4.46-3.48 3.48-4.46z" style="stroke:#1a83af;stroke-width:2"/><path fill="none" d="M1944.36 436.67c277.96 18.72 882.554 59.437 1160.414 78.147" style="stroke:#1a83af;stroke-width:2"/><path fill="#1A83AF" d="m3110.76 515.22-8.71-4.596 3.721 4.26-4.26 3.722z" style="stroke:#1a83af;stroke-width:2"/><path fill="none" d="M1732.49 346.58a117695 117695 0 0 1 48.09 54.683" style="stroke:#1a83af;stroke-width:2"/><path fill="#1A83AF" d="m1784.54 405.77-2.936-9.401-.364 5.645-5.645-.365z" style="stroke:#1a83af;stroke-width:2"/><path fill="none" d="M4400.69 346.58c58.63 17.11 138.04 40.289 196.72 57.419" style="stroke:#1a83af;stroke-width:2"/><path fill="#1A83AF" d="m4603.17 405.68-7.519-6.362 2.72 4.96-4.961 2.72z" style="stroke:#1a83af;stroke-width:2"/><path fill="none" d="M3632.77 446.42c-82.82 17.13-197.084 40.755-279.844 57.865" style="stroke:#1a83af;stroke-width:2"/><path fill="#1A83AF" d="m3347.05 505.5 9.623 2.095-4.726-3.107 3.107-4.727z" style="stroke:#1a83af;stroke-width:2"/><path fill="none" d="M3514.11 127.49c-370.64-1.04-2450.99-3.12-2719.61 79.08-66.55 20.37-127.915 67.376-160.825 95.446" style="stroke:#1a83af;stroke-width:2"/><path fill="#1A83AF" d="m629.11 305.91 9.443-2.797-5.639-.448.448-5.639z" style="stroke:#1a83af;stroke-width:2"/><path fill="none" d="M3626.68 128.92c187.13 4.6 787.91 23.36 972.82 77.65 89.64 26.32 137.12 19.57 185 99.79 24.11 40.41-24.527 75-66.447 96.62" style="stroke:#1a83af;stroke-width:2"/><path fill="#1A83AF" d="m4712.72 405.73 9.832-.57-5.388-1.722 1.721-5.388z" style="stroke:#1a83af;stroke-width:2"/><path fill="none" d="M3514.42 139.87c-76.46 16.61-208.367 45.276-299.027 64.976" style="stroke:#1a83af;stroke-width:2"/><path fill="#1A83AF" d="m3209.53 206.12 9.644 1.998-4.758-3.06 3.06-4.758z" style="stroke:#1a83af;stroke-width:2"/><path fill="none" d="M3626.97 129.74c181.83 7.94 746.62 43.12 856.53 176.62 52.72 64.05-84.849 96.582-168.189 110.212" style="stroke:#1a83af;stroke-width:2"/><path fill="#1A83AF" d="m4309.39 417.54 9.528 2.495-4.594-3.302 3.302-4.593z" style="stroke:#1a83af;stroke-width:2"/><path fill="none" d="M3514.07 127.68c-310.5.31-1813.31 5.62-2270.57 78.89-233 37.34-380.55-8.41-492 199.58-35.16 65.62 54.991 94.2 139.721 107.36" style="stroke:#1a83af;stroke-width:2"/><path fill="#1A83AF" d="m897.15 514.43-8.28-5.334 3.34 4.567-4.567 3.338z" style="stroke:#1a83af;stroke-width:2"/><path fill="none" d="M3514.06 128.8c-359.77 7.47-2324.9 53.77-2558.56 177.56-41.64 22.06-68.047 66.398-81.637 93.968" style="stroke:#1a83af;stroke-width:2"/><path fill="#1A83AF" d="m871.21 405.71 7.567-6.304-5.356 1.82-1.82-5.357z" style="stroke:#1a83af;stroke-width:2"/><path fill="none" d="M3618.47 146.98c93.87 37.78 295.274 118.82 389.294 156.65" style="stroke:#1a83af;stroke-width:2"/><path fill="#1A83AF" d="m4013.33 305.87-6.856-7.07 2.217 5.204-5.204 2.217z" style="stroke:#1a83af;stroke-width:2"/><path fill="none" d="M3626.91 127.34c182.21-.33 752.73 4.74 918.59 79.23 48.93 21.98 86.807 66.895 107.087 94.495" style="stroke:#1a83af;stroke-width:2"/><path fill="#1A83AF" d="m4656.14 305.9-2.106-9.621-.855 5.592-5.592-.855z" style="stroke:#1a83af;stroke-width:2"/><path fill="none" d="M4669.5 346.58v53.19" style="stroke:#1a83af;stroke-width:2"/><path fill="#1A83AF" d="m4669.5 405.77 4-9-4 4-4-4z" style="stroke:#1a83af;stroke-width:2"/></svg>