<svg xmlns="http://www.w3.org/2000/svg" width="1047" height="1579" viewBox="0 0 1047 1579"><rect width="446" height="337.055" x="7" y="1022.9" fill="#3D176E" rx="2.5" ry="2.5" style="stroke:#000d19;stroke-width:.5"/><circle cx="114.75" cy="1042.794" r="11" fill="#ADD1B2" style="stroke:#181818;stroke-width:1"/><path d="M117.719 1048.435q-.578.297-1.219.438-.64.156-1.344.156-2.5 0-3.828-1.64-1.312-1.657-1.312-4.782t1.312-4.781q1.328-1.657 3.828-1.657.703 0 1.344.157.656.156 1.219.453v2.719q-.625-.579-1.219-.844-.594-.281-1.219-.281-1.344 0-2.031 1.078-.687 1.062-.687 3.156t.687 3.172q.688 1.062 2.031 1.062.625 0 1.219-.265.594-.282 1.219-.86z"/><text x="140.25" y="1048.68" fill="#D9B8FF" font-family="Helvetica" font-size="17" textLength="212">azure_express_route_link</text><path d="M8 1062.689h444" style="stroke:#000d19;stroke-width:.5"/><text x="18" y="1084.684" fill="#D9B8FF" font-family="sans-serif" font-size="14" font-weight="bold" textLength="94">admin_state</text><text x="112" y="1084.684" fill="#D9B8FF" font-family="sans-serif" font-size="14" textLength="48">: string</text><text x="18" y="1110.981" fill="#D9B8FF" font-family="sans-serif" font-size="14" font-weight="bold" textLength="102">colo_location</text><text x="120" y="1110.981" fill="#D9B8FF" font-family="sans-serif" font-size="14" textLength="48">: string</text><text x="18" y="1137.278" fill="#D9B8FF" font-family="sans-serif" font-size="14" font-weight="bold" textLength="123">connector_type</text><text x="141" y="1137.278" fill="#D9B8FF" font-family="sans-serif" font-size="14" textLength="48">: string</text><text x="18" y="1163.575" fill="#D9B8FF" font-family="sans-serif" font-size="14" font-weight="bold" textLength="35">etag</text><text x="53" y="1163.575" fill="#D9B8FF" font-family="sans-serif" font-size="14" textLength="48">: string</text><text x="18" y="1189.872" fill="#D9B8FF" font-family="sans-serif" font-size="14" font-weight="bold" textLength="121">interface_name</text><text x="139" y="1189.872" fill="#D9B8FF" font-family="sans-serif" font-size="14" textLength="48">: string</text><text x="18" y="1216.169" fill="#D9B8FF" font-family="sans-serif" font-size="14" font-weight="bold" textLength="123">mac_sec_config</text><text x="141" y="1216.169" fill="#D9B8FF" font-family="sans-serif" font-size="14" textLength="301">: azure_express_route_link_mac_sec_config</text><text x="18" y="1242.465" fill="#D9B8FF" font-family="sans-serif" font-size="14" font-weight="bold" textLength="43">name</text><text x="61" y="1242.465" fill="#D9B8FF" font-family="sans-serif" font-size="14" textLength="48">: string</text><text x="18" y="1268.762" fill="#D9B8FF" font-family="sans-serif" font-size="14" font-weight="bold" textLength="115">patch_panel_id</text><text x="133" y="1268.762" fill="#D9B8FF" font-family="sans-serif" font-size="14" textLength="48">: string</text><text x="18" y="1295.059" fill="#D9B8FF" font-family="sans-serif" font-size="14" font-weight="bold" textLength="144">provisioning_state</text><text x="162" y="1295.059" fill="#D9B8FF" font-family="sans-serif" font-size="14" textLength="48">: string</text><text x="18" y="1321.356" fill="#D9B8FF" font-family="sans-serif" font-size="14" font-weight="bold" textLength="55">rack_id</text><text x="73" y="1321.356" fill="#D9B8FF" font-family="sans-serif" font-size="14" textLength="48">: string</text><text x="18" y="1347.653" fill="#D9B8FF" font-family="sans-serif" font-size="14" font-weight="bold" textLength="100">router_name</text><text x="118" y="1347.653" fill="#D9B8FF" font-family="sans-serif" font-size="14" textLength="48">: string</text><rect width="392" height="152.977" x="34" y="1419.95" fill="#3D176E" rx="2.5" ry="2.5" style="stroke:#000d19;stroke-width:.5"/><circle cx="49" cy="1439.844" r="11" fill="#ADD1B2" style="stroke:#181818;stroke-width:1"/><path d="M51.969 1445.485q-.578.297-1.219.438-.64.156-1.344.156-2.5 0-3.828-1.64-1.312-1.657-1.312-4.782t1.312-4.781q1.328-1.657 3.828-1.657.703 0 1.344.157.656.156 1.219.453v2.719q-.625-.579-1.219-.844-.594-.281-1.219-.281-1.343 0-2.031 1.078-.687 1.062-.687 3.156t.687 3.172q.688 1.062 2.031 1.062.625 0 1.219-.265.594-.282 1.219-.86z"/><text x="68" y="1445.73" fill="#D9B8FF" font-family="Helvetica" font-size="17" textLength="350">azure_express_route_link_mac_sec_config</text><path d="M35 1459.739h390" style="stroke:#000d19;stroke-width:.5"/><text x="45" y="1481.734" fill="#D9B8FF" font-family="sans-serif" font-size="14" font-weight="bold" textLength="163">cak_secret_identifier</text><text x="208" y="1481.734" fill="#D9B8FF" font-family="sans-serif" font-size="14" textLength="48">: string</text><text x="45" y="1508.031" fill="#D9B8FF" font-family="sans-serif" font-size="14" font-weight="bold" textLength="50">cipher</text><text x="95" y="1508.031" fill="#D9B8FF" font-family="sans-serif" font-size="14" textLength="48">: string</text><text x="45" y="1534.328" fill="#D9B8FF" font-family="sans-serif" font-size="14" font-weight="bold" textLength="164">ckn_secret_identifier</text><text x="209" y="1534.328" fill="#D9B8FF" font-family="sans-serif" font-size="14" textLength="48">: string</text><text x="45" y="1560.625" fill="#D9B8FF" font-family="sans-serif" font-size="14" font-weight="bold" textLength="69">sci_state</text><text x="114" y="1560.625" fill="#D9B8FF" font-family="sans-serif" font-size="14" textLength="48">: string</text><rect width="329" height="363.352" x="332.5" y="599.55" fill="#3D176E" rx="2.5" ry="2.5" style="stroke:#000d19;stroke-width:.5"/><circle cx="380.25" cy="619.444" r="11" fill="#ADD1B2" style="stroke:#181818;stroke-width:1"/><path d="M383.219 625.085q-.578.297-1.219.438-.64.156-1.344.156-2.5 0-3.828-1.64-1.312-1.657-1.312-4.782t1.312-4.781q1.328-1.657 3.828-1.657.703 0 1.344.157.656.156 1.219.453v2.719q-.625-.579-1.219-.844-.594-.281-1.219-.281-1.344 0-2.031 1.078-.687 1.062-.687 3.156t.687 3.172q.688 1.062 2.031 1.062.625 0 1.219-.265.594-.282 1.219-.86z"/><text x="405.75" y="625.33" fill="#D9B8FF" font-family="Helvetica" font-size="17" textLength="215">azure_express_route_port</text><path d="M333.5 639.339h327" style="stroke:#000d19;stroke-width:.5"/><text x="343.5" y="661.334" fill="#D9B8FF" font-family="sans-serif" font-size="14" font-weight="bold" textLength="117">allocation_date</text><text x="460.5" y="661.334" fill="#D9B8FF" font-family="sans-serif" font-size="14" textLength="48">: string</text><text x="343.5" y="687.631" fill="#D9B8FF" font-family="sans-serif" font-size="14" font-weight="bold" textLength="150">bandwidth_in_gbps</text><text x="493.5" y="687.631" fill="#D9B8FF" font-family="sans-serif" font-size="14" textLength="57">: double</text><text x="343.5" y="713.928" fill="#D9B8FF" font-family="sans-serif" font-size="14" font-weight="bold" textLength="88">billing_type</text><text x="431.5" y="713.928" fill="#D9B8FF" font-family="sans-serif" font-size="14" textLength="48">: string</text><text x="343.5" y="740.225" fill="#D9B8FF" font-family="sans-serif" font-size="14" font-weight="bold" textLength="58">circuits</text><text x="401.5" y="740.225" fill="#D9B8FF" font-family="sans-serif" font-size="14" textLength="58">: string[]</text><text x="343.5" y="766.522" fill="#D9B8FF" font-family="sans-serif" font-size="14" font-weight="bold" textLength="110">encapsulation</text><text x="453.5" y="766.522" fill="#D9B8FF" font-family="sans-serif" font-size="14" textLength="48">: string</text><text x="343.5" y="792.819" fill="#D9B8FF" font-family="sans-serif" font-size="14" font-weight="bold" textLength="85">ether_type</text><text x="428.5" y="792.819" fill="#D9B8FF" font-family="sans-serif" font-size="14" textLength="48">: string</text><text x="343.5" y="819.115" fill="#D9B8FF" font-family="sans-serif" font-size="14" font-weight="bold" textLength="59">identity</text><text x="402.5" y="819.115" fill="#D9B8FF" font-family="sans-serif" font-size="14" textLength="233">: azure_managed_service_identity</text><text x="343.5" y="845.412" fill="#D9B8FF" font-family="sans-serif" font-size="14" font-weight="bold" textLength="36">links</text><text x="379.5" y="845.412" fill="#D9B8FF" font-family="sans-serif" font-size="14" textLength="194">: azure_express_route_link[]</text><text x="343.5" y="871.709" fill="#D9B8FF" font-family="sans-serif" font-size="14" font-weight="bold" textLength="30">mtu</text><text x="373.5" y="871.709" fill="#D9B8FF" font-family="sans-serif" font-size="14" textLength="44">: int64</text><text x="343.5" y="898.006" fill="#D9B8FF" font-family="sans-serif" font-size="14" font-weight="bold" textLength="130">peering_location</text><text x="473.5" y="898.006" fill="#D9B8FF" font-family="sans-serif" font-size="14" textLength="48">: string</text><text x="343.5" y="924.303" fill="#D9B8FF" font-family="sans-serif" font-size="14" font-weight="bold" textLength="250">provisioned_bandwidth_in_gbps</text><text x="593.5" y="924.303" fill="#D9B8FF" font-family="sans-serif" font-size="14" textLength="57">: double</text><text x="343.5" y="950.6" fill="#D9B8FF" font-family="sans-serif" font-size="14" font-weight="bold" textLength="113">resource_guid</text><text x="456.5" y="950.6" fill="#D9B8FF" font-family="sans-serif" font-size="14" textLength="48">: string</text><rect width="552" height="152.977" x="488" y="1114.94" fill="#3D176E" rx="2.5" ry="2.5" style="stroke:#000d19;stroke-width:.5"/><circle cx="617.75" cy="1134.834" r="11" fill="#ADD1B2" style="stroke:#181818;stroke-width:1"/><path d="M620.719 1140.475q-.578.297-1.219.438-.64.156-1.344.156-2.5 0-3.828-1.64-1.312-1.657-1.312-4.782t1.312-4.781q1.328-1.657 3.828-1.657.703 0 1.344.157.656.156 1.219.453v2.719q-.625-.579-1.219-.844-.594-.281-1.219-.281-1.343 0-2.031 1.078-.687 1.062-.687 3.156t.687 3.172q.688 1.062 2.031 1.062.625 0 1.219-.265.594-.282 1.219-.86z"/><text x="643.25" y="1140.72" fill="#D9B8FF" font-family="Helvetica" font-size="17" textLength="274">azure_managed_service_identity</text><path d="M489 1154.729h550" style="stroke:#000d19;stroke-width:.5"/><text x="499" y="1176.724" fill="#D9B8FF" font-family="sans-serif" font-size="14" font-weight="bold" textLength="88">principal_id</text><text x="587" y="1176.724" fill="#D9B8FF" font-family="sans-serif" font-size="14" textLength="48">: string</text><text x="499" y="1203.021" fill="#D9B8FF" font-family="sans-serif" font-size="14" font-weight="bold" textLength="72">tenant_id</text><text x="571" y="1203.021" fill="#D9B8FF" font-family="sans-serif" font-size="14" textLength="48">: string</text><text x="499" y="1229.318" fill="#D9B8FF" font-family="sans-serif" font-size="14" font-weight="bold" textLength="35">type</text><text x="534" y="1229.318" fill="#D9B8FF" font-family="sans-serif" font-size="14" textLength="48">: string</text><text x="499" y="1255.615" fill="#D9B8FF" font-family="sans-serif" font-size="14" font-weight="bold" textLength="194">user_assigned_identities</text><text x="693" y="1255.615" fill="#D9B8FF" font-family="sans-serif" font-size="14" textLength="336">: dictionary[string, azure_user_assigned_identity]</text><rect width="168" height="39.789" x="413" y="438.76" fill="#3D176E" rx="2.5" ry="2.5" style="stroke:#000d19;stroke-width:.5"/><circle cx="428" cy="458.654" r="11" fill="#ADD1B2" style="stroke:#181818;stroke-width:1"/><path d="M430.969 464.295q-.578.297-1.219.438-.64.156-1.344.156-2.5 0-3.828-1.64-1.312-1.657-1.312-4.782t1.312-4.781q1.328-1.656 3.828-1.656.703 0 1.344.156.656.156 1.219.453v2.719q-.625-.579-1.219-.844-.594-.281-1.219-.281-1.344 0-2.031 1.078-.687 1.062-.687 3.156t.687 3.172q.688 1.062 2.031 1.062.625 0 1.219-.265.594-.281 1.219-.86z"/><text x="447" y="464.54" fill="#D9B8FF" font-family="Helvetica" font-size="17" textLength="126">azure_resource</text><rect width="288" height="100.383" x="620" y="1446.25" fill="#3D176E" rx="2.5" ry="2.5" style="stroke:#000d19;stroke-width:.5"/><circle cx="635" cy="1466.145" r="11" fill="#ADD1B2" style="stroke:#181818;stroke-width:1"/><path d="M637.969 1471.785q-.578.297-1.219.438-.64.156-1.344.156-2.5 0-3.828-1.64-1.312-1.657-1.312-4.782t1.312-4.781q1.328-1.656 3.828-1.656.703 0 1.344.156.656.156 1.219.453v2.719q-.625-.578-1.219-.844-.594-.281-1.219-.281-1.343 0-2.031 1.078-.687 1.062-.687 3.156t.687 3.172q.688 1.062 2.031 1.062.625 0 1.219-.265.594-.281 1.219-.86z"/><text x="654" y="1472.03" fill="#D9B8FF" font-family="Helvetica" font-size="17" textLength="246">azure_user_assigned_identity</text><path d="M621 1486.039h286" style="stroke:#000d19;stroke-width:.5"/><text x="631" y="1508.034" fill="#D9B8FF" font-family="sans-serif" font-size="14" font-weight="bold" textLength="64">client_id</text><text x="695" y="1508.034" fill="#D9B8FF" font-family="sans-serif" font-size="14" textLength="48">: string</text><text x="631" y="1534.331" fill="#D9B8FF" font-family="sans-serif" font-size="14" font-weight="bold" textLength="88">principal_id</text><text x="719" y="1534.331" fill="#D9B8FF" font-family="sans-serif" font-size="14" textLength="48">: string</text><rect width="227" height="310.758" x="383.5" y="7" fill="#3D176E" rx="2.5" ry="2.5" style="stroke:#000d19;stroke-width:.5"/><circle cx="452.25" cy="26.895" r="11" fill="#ADD1B2" style="stroke:#181818;stroke-width:1"/><path d="M455.219 32.535q-.578.297-1.219.438-.64.156-1.344.156-2.5 0-3.828-1.64-1.312-1.657-1.312-4.782t1.312-4.781q1.328-1.656 3.828-1.656.703 0 1.344.156.656.156 1.219.453v2.719q-.625-.578-1.219-.844-.594-.281-1.219-.281-1.344 0-2.031 1.078-.687 1.062-.687 3.156t.687 3.172q.688 1.062 2.031 1.062.625 0 1.219-.265.594-.281 1.219-.86z"/><text x="477.75" y="32.78" fill="#D9B8FF" font-family="Helvetica" font-size="17" textLength="71">resource</text><path d="M384.5 46.789h225" style="stroke:#000d19;stroke-width:.5"/><text x="394.5" y="68.784" fill="#D9B8FF" font-family="sans-serif" font-size="14" font-weight="bold" textLength="29">age</text><text x="423.5" y="68.784" fill="#D9B8FF" font-family="sans-serif" font-size="14" textLength="66">: duration</text><text x="394.5" y="95.081" fill="#D9B8FF" font-family="sans-serif" font-size="14" font-weight="bold" textLength="43">atime</text><text x="437.5" y="95.081" fill="#D9B8FF" font-family="sans-serif" font-size="14" textLength="70">: datetime</text><text x="394.5" y="121.378" fill="#D9B8FF" font-family="sans-serif" font-size="14" font-weight="bold" textLength="43">ctime</text><text x="437.5" y="121.378" fill="#D9B8FF" font-family="sans-serif" font-size="14" textLength="70">: datetime</text><text x="394.5" y="147.675" fill="#D9B8FF" font-family="sans-serif" font-size="14" font-weight="bold" textLength="14">id</text><text x="408.5" y="147.675" fill="#D9B8FF" font-family="sans-serif" font-size="14" textLength="48">: string</text><text x="394.5" y="173.972" fill="#D9B8FF" font-family="sans-serif" font-size="14" font-weight="bold" textLength="33">kind</text><text x="427.5" y="173.972" fill="#D9B8FF" font-family="sans-serif" font-size="14" textLength="48">: string</text><text x="394.5" y="200.269" fill="#D9B8FF" font-family="sans-serif" font-size="14" font-weight="bold" textLength="90">last_access</text><text x="484.5" y="200.269" fill="#D9B8FF" font-family="sans-serif" font-size="14" textLength="66">: duration</text><text x="394.5" y="226.565" fill="#D9B8FF" font-family="sans-serif" font-size="14" font-weight="bold" textLength="90">last_update</text><text x="484.5" y="226.565" fill="#D9B8FF" font-family="sans-serif" font-size="14" textLength="66">: duration</text><text x="394.5" y="252.862" fill="#D9B8FF" font-family="sans-serif" font-size="14" font-weight="bold" textLength="48">mtime</text><text x="442.5" y="252.862" fill="#D9B8FF" font-family="sans-serif" font-size="14" textLength="70">: datetime</text><text x="394.5" y="279.159" fill="#D9B8FF" font-family="sans-serif" font-size="14" font-weight="bold" textLength="43">name</text><text x="437.5" y="279.159" fill="#D9B8FF" font-family="sans-serif" font-size="14" textLength="48">: string</text><text x="394.5" y="305.456" fill="#D9B8FF" font-family="sans-serif" font-size="14" font-weight="bold" textLength="34">tags</text><text x="428.5" y="305.456" fill="#D9B8FF" font-family="sans-serif" font-size="14" textLength="171">: dictionary[string, string]</text><path fill="none" d="M230 1360.33v53.44" style="stroke:#ffaf37;stroke-width:2"/><path fill="#FFAF37" d="m230 1419.77 4-9-4 4-4-4z" style="stroke:#ffaf37;stroke-width:2"/><path fill="none" d="M378.53 963.35c-12.89 19.71-22.696 34.689-35.476 54.229" style="stroke:#ffaf37;stroke-width:2"/><path fill="#FFAF37" d="m339.77 1022.6 8.274-5.343-5.537 1.159-1.158-5.538z" style="stroke:#ffaf37;stroke-width:2"/><path fill="none" d="M615.47 963.35c34.78 53.16 67.646 103.419 95.576 146.119" style="stroke:#ffaf37;stroke-width:2"/><path fill="#FFAF37" d="m714.33 1114.49-1.58-9.721-1.157 5.537-5.537-1.158z" style="stroke:#ffaf37;stroke-width:2"/><path fill="none" d="M497 496.75v102.54m0-120.54-6 18h12zm267 789.36v171.7" style="stroke:#ffaf37;stroke-width:2"/><path fill="#FFAF37" d="m764 1445.81 4-9-4 4-4-4z" style="stroke:#ffaf37;stroke-width:2"/><path fill="none" d="M497 335.84v102.83m0-120.83-6 18h12z" style="stroke:#ffaf37;stroke-width:2"/></svg>