<svg xmlns="http://www.w3.org/2000/svg" width="1982" height="890" viewBox="0 0 1982 890"><rect width="174" height="39.789" x="7" y="844.22" fill="#3D176E" rx="2.5" ry="2.5" style="stroke:#000d19;stroke-width:.5"/><circle cx="22" cy="864.115" r="11" fill="#ADD1B2" style="stroke:#181818;stroke-width:1"/><path d="M24.969 869.755q-.578.297-1.219.438-.64.156-1.344.156-2.5 0-3.828-1.64-1.312-1.657-1.312-4.782t1.312-4.781q1.328-1.656 3.828-1.656.703 0 1.344.156.656.156 1.219.453v2.719q-.625-.578-1.219-.844-.594-.281-1.219-.281-1.343 0-2.031 1.078-.687 1.062-.687 3.156t.687 3.172q.688 1.062 2.031 1.062.625 0 1.219-.265.594-.281 1.219-.86z"/><text x="41" y="870" fill="#D9B8FF" font-family="Helvetica" font-size="17" textLength="132">aws_rds_cluster</text><rect width="188" height="39.789" x="216" y="844.22" fill="#3D176E" rx="2.5" ry="2.5" style="stroke:#000d19;stroke-width:.5"/><circle cx="231" cy="864.115" r="11" fill="#ADD1B2" style="stroke:#181818;stroke-width:1"/><path d="M233.969 869.755q-.578.297-1.219.438-.64.156-1.344.156-2.5 0-3.828-1.64-1.312-1.657-1.312-4.782t1.312-4.781q1.328-1.656 3.828-1.656.703 0 1.344.156.656.156 1.219.453v2.719q-.625-.578-1.219-.844-.594-.281-1.219-.281-1.344 0-2.031 1.078-.687 1.062-.687 3.156t.687 3.172q.688 1.062 2.031 1.062.625 0 1.219-.265.594-.281 1.219-.86z"/><text x="250" y="870" fill="#D9B8FF" font-family="Helvetica" font-size="17" textLength="146">aws_rds_instance</text><rect width="208" height="39.789" x="439" y="844.22" fill="#3D176E" rx="2.5" ry="2.5" style="stroke:#000d19;stroke-width:.5"/><circle cx="454" cy="864.115" r="11" fill="#ADD1B2" style="stroke:#181818;stroke-width:1"/><path d="M456.969 869.755q-.578.297-1.219.438-.64.156-1.344.156-2.5 0-3.828-1.64-1.312-1.657-1.312-4.782t1.312-4.781q1.328-1.656 3.828-1.656.703 0 1.344.156.656.156 1.219.453v2.719q-.625-.578-1.219-.844-.594-.281-1.219-.281-1.344 0-2.031 1.078-.687 1.062-.687 3.156t.687 3.172q.688 1.062 2.031 1.062.625 0 1.219-.265.594-.281 1.219-.86z"/><text x="473" y="870" fill="#D9B8FF" font-family="Helvetica" font-size="17" textLength="166">azure_mysql_server</text><rect width="265" height="39.789" x="682.5" y="844.22" fill="#3D176E" rx="2.5" ry="2.5" style="stroke:#000d19;stroke-width:.5"/><circle cx="697.5" cy="864.115" r="11" fill="#ADD1B2" style="stroke:#181818;stroke-width:1"/><path d="M700.469 869.755q-.578.297-1.219.438-.64.156-1.344.156-2.5 0-3.828-1.64-1.312-1.657-1.312-4.782t1.312-4.781q1.328-1.656 3.828-1.656.703 0 1.344.156.656.156 1.219.453v2.719q-.625-.578-1.219-.844-.594-.281-1.219-.281-1.343 0-2.031 1.078-.687 1.062-.687 3.156t.687 3.172q.688 1.062 2.031 1.062.625 0 1.219-.265.594-.281 1.219-.86z"/><text x="716.5" y="870" fill="#D9B8FF" font-family="Helvetica" font-size="17" textLength="223">azure_sql_server_database</text><rect width="431" height="39.789" x="982.5" y="844.22" fill="#3D176E" rx="2.5" ry="2.5" style="stroke:#000d19;stroke-width:.5"/><circle cx="997.5" cy="864.115" r="11" fill="#ADD1B2" style="stroke:#181818;stroke-width:1"/><path d="M1000.469 869.755q-.578.297-1.219.438-.64.156-1.344.156-2.5 0-3.828-1.64-1.312-1.657-1.312-4.782t1.312-4.781q1.328-1.656 3.828-1.656.703 0 1.344.156.656.156 1.219.453v2.719q-.625-.578-1.219-.844-.594-.281-1.219-.281-1.343 0-2.031 1.078-.687 1.062-.687 3.156t.687 3.172q.688 1.062 2.031 1.062.625 0 1.219-.265.594-.281 1.219-.86z"/><text x="1016.5" y="870" fill="#D9B8FF" font-family="Helvetica" font-size="17" textLength="389">azure_sql_server_managed_instance_database</text><rect width="287" height="284.461" x="671.5" y="438.76" fill="#3D176E" rx="2.5" ry="2.5" style="stroke:#000d19;stroke-width:.5"/><circle cx="768.25" cy="458.654" r="11" fill="#ADD1B2" style="stroke:#181818;stroke-width:1"/><path d="M771.219 464.295q-.578.297-1.219.438-.64.156-1.344.156-2.5 0-3.828-1.64-1.312-1.657-1.312-4.782t1.312-4.781q1.328-1.656 3.828-1.656.703 0 1.344.156.656.156 1.219.453v2.719q-.625-.579-1.219-.844-.594-.281-1.219-.281-1.343 0-2.031 1.078-.687 1.062-.687 3.156t.687 3.172q.688 1.062 2.031 1.062.625 0 1.219-.265.594-.281 1.219-.86z"/><text x="793.75" y="464.54" fill="#D9B8FF" font-family="Helvetica" font-size="17" textLength="75">database</text><path d="M672.5 478.549h285" style="stroke:#000d19;stroke-width:.5"/><text x="682.5" y="500.544" fill="#D9B8FF" font-family="sans-serif" font-size="14" font-weight="bold" textLength="97">db_endpoint</text><text x="779.5" y="500.544" fill="#D9B8FF" font-family="sans-serif" font-size="14" textLength="48">: string</text><text x="682.5" y="526.841" fill="#D9B8FF" font-family="sans-serif" font-size="14" font-weight="bold" textLength="177">db_publicly_accessible</text><text x="859.5" y="526.841" fill="#D9B8FF" font-family="sans-serif" font-size="14" textLength="65">: boolean</text><text x="682.5" y="553.138" fill="#D9B8FF" font-family="sans-serif" font-size="14" font-weight="bold" textLength="76">db_status</text><text x="758.5" y="553.138" fill="#D9B8FF" font-family="sans-serif" font-size="14" textLength="189">: database_instance_status</text><text x="682.5" y="579.435" fill="#D9B8FF" font-family="sans-serif" font-size="14" font-weight="bold" textLength="62">db_type</text><text x="744.5" y="579.435" fill="#D9B8FF" font-family="sans-serif" font-size="14" textLength="48">: string</text><text x="682.5" y="605.732" fill="#D9B8FF" font-family="sans-serif" font-size="14" font-weight="bold" textLength="86">db_version</text><text x="768.5" y="605.732" fill="#D9B8FF" font-family="sans-serif" font-size="14" textLength="48">: string</text><text x="682.5" y="632.029" fill="#D9B8FF" font-family="sans-serif" font-size="14" font-weight="bold" textLength="109">instance_type</text><text x="791.5" y="632.029" fill="#D9B8FF" font-family="sans-serif" font-size="14" textLength="48">: string</text><text x="682.5" y="658.325" fill="#D9B8FF" font-family="sans-serif" font-size="14" font-weight="bold" textLength="145">volume_encrypted</text><text x="827.5" y="658.325" fill="#D9B8FF" font-family="sans-serif" font-size="14" textLength="65">: boolean</text><text x="682.5" y="684.622" fill="#D9B8FF" font-family="sans-serif" font-size="14" font-weight="bold" textLength="97">volume_iops</text><text x="779.5" y="684.622" fill="#D9B8FF" font-family="sans-serif" font-size="14" textLength="44">: int64</text><text x="682.5" y="710.919" fill="#D9B8FF" font-family="sans-serif" font-size="14" font-weight="bold" textLength="96">volume_size</text><text x="778.5" y="710.919" fill="#D9B8FF" font-family="sans-serif" font-size="14" textLength="44">: int64</text><rect width="227" height="39.789" x="1448.5" y="844.22" fill="#3D176E" rx="2.5" ry="2.5" style="stroke:#000d19;stroke-width:.5"/><circle cx="1463.5" cy="864.115" r="11" fill="#ADD1B2" style="stroke:#181818;stroke-width:1"/><path d="M1466.469 869.755q-.578.297-1.219.438-.64.156-1.344.156-2.5 0-3.828-1.64-1.312-1.657-1.312-4.782t1.312-4.781q1.328-1.656 3.828-1.656.703 0 1.344.156.656.156 1.219.453v2.719q-.625-.578-1.219-.844-.594-.281-1.219-.281-1.343 0-2.031 1.078-.687 1.062-.687 3.156t.687 3.172q.688 1.062 2.031 1.062.625 0 1.219-.265.594-.281 1.219-.86z"/><text x="1482.5" y="870" fill="#D9B8FF" font-family="Helvetica" font-size="17" textLength="185">digitalocean_database</text><rect width="265" height="39.789" x="1710.5" y="844.22" fill="#3D176E" rx="2.5" ry="2.5" style="stroke:#000d19;stroke-width:.5"/><circle cx="1725.5" cy="864.115" r="11" fill="#ADD1B2" style="stroke:#181818;stroke-width:1"/><path d="M1728.469 869.755q-.578.297-1.219.438-.64.156-1.344.156-2.5 0-3.828-1.64-1.312-1.657-1.312-4.782t1.312-4.781q1.328-1.656 3.828-1.656.703 0 1.344.156.656.156 1.219.453v2.719q-.625-.578-1.219-.844-.594-.281-1.219-.281-1.343 0-2.031 1.078-.687 1.062-.687 3.156t.687 3.172q.688 1.062 2.031 1.062.625 0 1.219-.265.594-.281 1.219-.86z"/><text x="1744.5" y="870" fill="#D9B8FF" font-family="Helvetica" font-size="17" textLength="223">gcp_sql_database_instance</text><rect width="227" height="310.758" x="701.5" y="7" fill="#3D176E" rx="2.5" ry="2.5" style="stroke:#000d19;stroke-width:.5"/><circle cx="770.25" cy="26.895" r="11" fill="#ADD1B2" style="stroke:#181818;stroke-width:1"/><path d="M773.219 32.535q-.578.297-1.219.438-.64.156-1.344.156-2.5 0-3.828-1.64-1.312-1.657-1.312-4.782t1.312-4.781q1.328-1.656 3.828-1.656.703 0 1.344.156.656.156 1.219.453v2.719q-.625-.578-1.219-.844-.594-.281-1.219-.281-1.343 0-2.031 1.078-.687 1.062-.687 3.156t.687 3.172q.688 1.062 2.031 1.062.625 0 1.219-.265.594-.281 1.219-.86z"/><text x="795.75" y="32.78" fill="#D9B8FF" font-family="Helvetica" font-size="17" textLength="71">resource</text><path d="M702.5 46.789h225" style="stroke:#000d19;stroke-width:.5"/><text x="712.5" y="68.784" fill="#D9B8FF" font-family="sans-serif" font-size="14" font-weight="bold" textLength="29">age</text><text x="741.5" y="68.784" fill="#D9B8FF" font-family="sans-serif" font-size="14" textLength="66">: duration</text><text x="712.5" y="95.081" fill="#D9B8FF" font-family="sans-serif" font-size="14" font-weight="bold" textLength="43">atime</text><text x="755.5" y="95.081" fill="#D9B8FF" font-family="sans-serif" font-size="14" textLength="70">: datetime</text><text x="712.5" y="121.378" fill="#D9B8FF" font-family="sans-serif" font-size="14" font-weight="bold" textLength="43">ctime</text><text x="755.5" y="121.378" fill="#D9B8FF" font-family="sans-serif" font-size="14" textLength="70">: datetime</text><text x="712.5" y="147.675" fill="#D9B8FF" font-family="sans-serif" font-size="14" font-weight="bold" textLength="14">id</text><text x="726.5" y="147.675" fill="#D9B8FF" font-family="sans-serif" font-size="14" textLength="48">: string</text><text x="712.5" y="173.972" fill="#D9B8FF" font-family="sans-serif" font-size="14" font-weight="bold" textLength="33">kind</text><text x="745.5" y="173.972" fill="#D9B8FF" font-family="sans-serif" font-size="14" textLength="48">: string</text><text x="712.5" y="200.269" fill="#D9B8FF" font-family="sans-serif" font-size="14" font-weight="bold" textLength="90">last_access</text><text x="802.5" y="200.269" fill="#D9B8FF" font-family="sans-serif" font-size="14" textLength="66">: duration</text><text x="712.5" y="226.565" fill="#D9B8FF" font-family="sans-serif" font-size="14" font-weight="bold" textLength="90">last_update</text><text x="802.5" y="226.565" fill="#D9B8FF" font-family="sans-serif" font-size="14" textLength="66">: duration</text><text x="712.5" y="252.862" fill="#D9B8FF" font-family="sans-serif" font-size="14" font-weight="bold" textLength="48">mtime</text><text x="760.5" y="252.862" fill="#D9B8FF" font-family="sans-serif" font-size="14" textLength="70">: datetime</text><text x="712.5" y="279.159" fill="#D9B8FF" font-family="sans-serif" font-size="14" font-weight="bold" textLength="43">name</text><text x="755.5" y="279.159" fill="#D9B8FF" font-family="sans-serif" font-size="14" textLength="48">: string</text><text x="712.5" y="305.456" fill="#D9B8FF" font-family="sans-serif" font-size="14" font-weight="bold" textLength="34">tags</text><text x="746.5" y="305.456" fill="#D9B8FF" font-family="sans-serif" font-size="14" textLength="171">: dictionary[string, string]</text><path fill="none" d="M654.49 644.579 143.6 843.78m527.66-205.74-18.95.949 4.36 11.18z" style="stroke:#ffaf37;stroke-width:2"/><g fill="none"><path d="M655.573 670.745C543.173 733.315 410.94 806.93 344.68 843.81" style="stroke:#ffaf37;stroke-width:2"/><path d="m671.3 661.99-18.646 3.513 5.837 10.484z" style="stroke:#ffaf37;stroke-width:2"/></g><g fill="none"><path d="M665.685 736.317c-46.03 47.58-79.435 82.093-104.125 107.613" style="stroke:#ffaf37;stroke-width:2"/><path d="m678.2 723.38-16.828 8.765 8.625 8.344z" style="stroke:#ffaf37;stroke-width:2"/></g><path fill="none" d="M815 741.38v102.55m0-120.55-6 18h12zm158.49-25.059 198.37 145.609M958.98 687.67l10.96 15.488 7.1-9.674zM815 336.21V438.3m0-120.09-6 18h12z" style="stroke:#ffaf37;stroke-width:2"/><g fill="none"><path d="M975.436 642.37c168.67 63.48 422.884 159.15 535.224 201.43" style="stroke:#ffaf37;stroke-width:2"/><path d="m958.59 636.03 14.733 11.956 4.227-11.231z" style="stroke:#ffaf37;stroke-width:2"/></g><path fill="none" d="M976.113 626.048c223.57 61.14 628.897 171.982 796.177 217.732M958.75 621.3l15.78 10.536 3.165-11.575z" style="stroke:#ffaf37;stroke-width:2"/></svg>