<?xml version="1.0" encoding="us-ascii" standalone="no"?><svg xmlns="http://www.w3.org/2000/svg" xmlns:xlink="http://www.w3.org/1999/xlink" contentStyleType="text/css" height="1556px" preserveAspectRatio="none" style="width:1200px;height:1556px;" version="1.1" viewBox="0 0 1200 1556" width="1200px" zoomAndPan="magnify"><defs/><g><!--class azure_container--><g id="elem_azure_container"><rect codeLine="22" fill="#3D176E" height="39.7891" id="azure_container" rx="2.5" ry="2.5" style="stroke:#000D19;stroke-width:0.5;" width="176" x="7" y="1213.57"/><ellipse cx="22" cy="1233.4645" fill="#ADD1B2" rx="11" ry="11" style="stroke:#181818;stroke-width:1.0;"/><path d="M24.9688,1239.1052 Q24.3906,1239.402 23.75,1239.5427 Q23.1094,1239.6989 22.4063,1239.6989 Q19.9063,1239.6989 18.5781,1238.0583 Q17.2656,1236.402 17.2656,1233.277 Q17.2656,1230.152 18.5781,1228.4958 Q19.9063,1226.8395 22.4063,1226.8395 Q23.1094,1226.8395 23.75,1226.9958 Q24.4063,1227.152 24.9688,1227.4489 L24.9688,1230.1677 Q24.3438,1229.5895 23.75,1229.3239 Q23.1563,1229.0427 22.5313,1229.0427 Q21.1875,1229.0427 20.5,1230.1208 Q19.8125,1231.1833 19.8125,1233.277 Q19.8125,1235.3708 20.5,1236.4489 Q21.1875,1237.5114 22.5313,1237.5114 Q23.1563,1237.5114 23.75,1237.2458 Q24.3438,1236.9645 24.9688,1236.3864 L24.9688,1239.1052 Z " fill="#000000"/><text fill="#D9B8FF" font-family="Helvetica" font-size="17" lengthAdjust="spacing" textLength="134" x="41" y="1239.3498">azure_container</text></g><!--class azure_container_network_interface--><g id="elem_azure_container_network_interface"><rect codeLine="24" fill="#3D176E" height="231.8672" id="azure_container_network_interface" rx="2.5" ry="2.5" style="stroke:#000D19;stroke-width:0.5;" width="707" x="154.5" y="838.82"/><ellipse cx="350.75" cy="858.7145" fill="#ADD1B2" rx="11" ry="11" style="stroke:#181818;stroke-width:1.0;"/><path d="M353.7188,864.3552 Q353.1406,864.652 352.5,864.7927 Q351.8594,864.9489 351.1563,864.9489 Q348.6563,864.9489 347.3281,863.3083 Q346.0156,861.652 346.0156,858.527 Q346.0156,855.402 347.3281,853.7458 Q348.6563,852.0895 351.1563,852.0895 Q351.8594,852.0895 352.5,852.2458 Q353.1563,852.402 353.7188,852.6989 L353.7188,855.4177 Q353.0938,854.8395 352.5,854.5739 Q351.9063,854.2927 351.2813,854.2927 Q349.9375,854.2927 349.25,855.3708 Q348.5625,856.4333 348.5625,858.527 Q348.5625,860.6208 349.25,861.6989 Q349.9375,862.7614 351.2813,862.7614 Q351.9063,862.7614 352.5,862.4958 Q353.0938,862.2145 353.7188,861.6364 L353.7188,864.3552 Z " fill="#000000"/><text fill="#D9B8FF" font-family="Helvetica" font-size="17" lengthAdjust="spacing" textLength="296" x="376.25" y="864.5998">azure_container_network_interface</text><line style="stroke:#000D19;stroke-width:0.5;" x1="155.5" x2="860.5" y1="878.6091" y2="878.6091"/><text fill="#D9B8FF" font-family="sans-serif" font-size="14" font-weight="bold" lengthAdjust="spacing" textLength="75" x="165.5" y="900.6042">container</text><text fill="#D9B8FF" font-family="sans-serif" font-size="14" lengthAdjust="spacing" textLength="120" x="240.5" y="900.6042">: azure_container</text><text fill="#D9B8FF" font-family="sans-serif" font-size="14" font-weight="bold" lengthAdjust="spacing" textLength="338" x="165.5" y="926.9011">container_network_interface_configuration</text><text fill="#D9B8FF" font-family="sans-serif" font-size="14" lengthAdjust="spacing" textLength="347" x="503.5" y="926.9011">: azure_container_network_interface_configuration</text><text fill="#D9B8FF" font-family="sans-serif" font-size="14" font-weight="bold" lengthAdjust="spacing" textLength="35" x="165.5" y="953.1979">etag</text><text fill="#D9B8FF" font-family="sans-serif" font-size="14" lengthAdjust="spacing" textLength="48" x="200.5" y="953.1979">: string</text><text fill="#D9B8FF" font-family="sans-serif" font-size="14" font-weight="bold" lengthAdjust="spacing" textLength="135" x="165.5" y="979.4948">ip_configurations</text><text fill="#D9B8FF" font-family="sans-serif" font-size="14" lengthAdjust="spacing" textLength="376" x="300.5" y="979.4948">: azure_container_network_interface_ip_configuration[]</text><text fill="#D9B8FF" font-family="sans-serif" font-size="14" font-weight="bold" lengthAdjust="spacing" textLength="43" x="165.5" y="1005.7917">name</text><text fill="#D9B8FF" font-family="sans-serif" font-size="14" lengthAdjust="spacing" textLength="48" x="208.5" y="1005.7917">: string</text><text fill="#D9B8FF" font-family="sans-serif" font-size="14" font-weight="bold" lengthAdjust="spacing" textLength="144" x="165.5" y="1032.0886">provisioning_state</text><text fill="#D9B8FF" font-family="sans-serif" font-size="14" lengthAdjust="spacing" textLength="48" x="309.5" y="1032.0886">: string</text><text fill="#D9B8FF" font-family="sans-serif" font-size="14" font-weight="bold" lengthAdjust="spacing" textLength="35" x="165.5" y="1058.3854">type</text><text fill="#D9B8FF" font-family="sans-serif" font-size="14" lengthAdjust="spacing" textLength="48" x="200.5" y="1058.3854">: string</text></g><!--class azure_container_network_interface_configuration--><g id="elem_azure_container_network_interface_configuration"><rect codeLine="33" fill="#3D176E" height="205.5703" id="azure_container_network_interface_configuration" rx="2.5" ry="2.5" style="stroke:#000D19;stroke-width:0.5;" width="458" x="735" y="1130.68"/><ellipse cx="750" cy="1150.5745" fill="#ADD1B2" rx="11" ry="11" style="stroke:#181818;stroke-width:1.0;"/><path d="M752.9688,1156.2152 Q752.3906,1156.512 751.75,1156.6527 Q751.1094,1156.8089 750.4063,1156.8089 Q747.9063,1156.8089 746.5781,1155.1683 Q745.2656,1153.512 745.2656,1150.387 Q745.2656,1147.262 746.5781,1145.6058 Q747.9063,1143.9495 750.4063,1143.9495 Q751.1094,1143.9495 751.75,1144.1058 Q752.4063,1144.262 752.9688,1144.5589 L752.9688,1147.2777 Q752.3438,1146.6995 751.75,1146.4339 Q751.1563,1146.1527 750.5313,1146.1527 Q749.1875,1146.1527 748.5,1147.2308 Q747.8125,1148.2933 747.8125,1150.387 Q747.8125,1152.4808 748.5,1153.5589 Q749.1875,1154.6214 750.5313,1154.6214 Q751.1563,1154.6214 751.75,1154.3558 Q752.3438,1154.0745 752.9688,1153.4964 L752.9688,1156.2152 Z " fill="#000000"/><text fill="#D9B8FF" font-family="Helvetica" font-size="17" lengthAdjust="spacing" textLength="416" x="769" y="1156.4598">azure_container_network_interface_configuration</text><line style="stroke:#000D19;stroke-width:0.5;" x1="736" x2="1192" y1="1170.4691" y2="1170.4691"/><text fill="#D9B8FF" font-family="sans-serif" font-size="14" font-weight="bold" lengthAdjust="spacing" textLength="235" x="746" y="1192.4642">container_network_interfaces</text><text fill="#D9B8FF" font-family="sans-serif" font-size="14" lengthAdjust="spacing" textLength="58" x="981" y="1192.4642">: string[]</text><text fill="#D9B8FF" font-family="sans-serif" font-size="14" font-weight="bold" lengthAdjust="spacing" textLength="35" x="746" y="1218.7611">etag</text><text fill="#D9B8FF" font-family="sans-serif" font-size="14" lengthAdjust="spacing" textLength="48" x="781" y="1218.7611">: string</text><text fill="#D9B8FF" font-family="sans-serif" font-size="14" font-weight="bold" lengthAdjust="spacing" textLength="135" x="746" y="1245.0579">ip_configurations</text><text fill="#D9B8FF" font-family="sans-serif" font-size="14" lengthAdjust="spacing" textLength="223" x="881" y="1245.0579">: azure_ip_configuration_profile[]</text><text fill="#D9B8FF" font-family="sans-serif" font-size="14" font-weight="bold" lengthAdjust="spacing" textLength="43" x="746" y="1271.3548">name</text><text fill="#D9B8FF" font-family="sans-serif" font-size="14" lengthAdjust="spacing" textLength="48" x="789" y="1271.3548">: string</text><text fill="#D9B8FF" font-family="sans-serif" font-size="14" font-weight="bold" lengthAdjust="spacing" textLength="144" x="746" y="1297.6517">provisioning_state</text><text fill="#D9B8FF" font-family="sans-serif" font-size="14" lengthAdjust="spacing" textLength="48" x="890" y="1297.6517">: string</text><text fill="#D9B8FF" font-family="sans-serif" font-size="14" font-weight="bold" lengthAdjust="spacing" textLength="35" x="746" y="1323.9486">type</text><text fill="#D9B8FF" font-family="sans-serif" font-size="14" lengthAdjust="spacing" textLength="48" x="781" y="1323.9486">: string</text></g><!--class azure_container_network_interface_ip_configuration--><g id="elem_azure_container_network_interface_ip_configuration"><rect codeLine="41" fill="#3D176E" height="152.9766" id="azure_container_network_interface_ip_configuration" rx="2.5" ry="2.5" style="stroke:#000D19;stroke-width:0.5;" width="482" x="218" y="1156.98"/><ellipse cx="233" cy="1176.8745" fill="#ADD1B2" rx="11" ry="11" style="stroke:#181818;stroke-width:1.0;"/><path d="M235.9688,1182.5152 Q235.3906,1182.812 234.75,1182.9527 Q234.1094,1183.1089 233.4063,1183.1089 Q230.9063,1183.1089 229.5781,1181.4683 Q228.2656,1179.812 228.2656,1176.687 Q228.2656,1173.562 229.5781,1171.9058 Q230.9063,1170.2495 233.4063,1170.2495 Q234.1094,1170.2495 234.75,1170.4058 Q235.4063,1170.562 235.9688,1170.8589 L235.9688,1173.5777 Q235.3438,1172.9995 234.75,1172.7339 Q234.1563,1172.4527 233.5313,1172.4527 Q232.1875,1172.4527 231.5,1173.5308 Q230.8125,1174.5933 230.8125,1176.687 Q230.8125,1178.7808 231.5,1179.8589 Q232.1875,1180.9214 233.5313,1180.9214 Q234.1563,1180.9214 234.75,1180.6558 Q235.3438,1180.3745 235.9688,1179.7964 L235.9688,1182.5152 Z " fill="#000000"/><text fill="#D9B8FF" font-family="Helvetica" font-size="17" lengthAdjust="spacing" textLength="440" x="252" y="1182.7598">azure_container_network_interface_ip_configuration</text><line style="stroke:#000D19;stroke-width:0.5;" x1="219" x2="699" y1="1196.7691" y2="1196.7691"/><text fill="#D9B8FF" font-family="sans-serif" font-size="14" font-weight="bold" lengthAdjust="spacing" textLength="35" x="229" y="1218.7642">etag</text><text fill="#D9B8FF" font-family="sans-serif" font-size="14" lengthAdjust="spacing" textLength="48" x="264" y="1218.7642">: string</text><text fill="#D9B8FF" font-family="sans-serif" font-size="14" font-weight="bold" lengthAdjust="spacing" textLength="43" x="229" y="1245.0611">name</text><text fill="#D9B8FF" font-family="sans-serif" font-size="14" lengthAdjust="spacing" textLength="48" x="272" y="1245.0611">: string</text><text fill="#D9B8FF" font-family="sans-serif" font-size="14" font-weight="bold" lengthAdjust="spacing" textLength="83" x="229" y="1271.3579">properties</text><text fill="#D9B8FF" font-family="sans-serif" font-size="14" lengthAdjust="spacing" textLength="48" x="312" y="1271.3579">: string</text><text fill="#D9B8FF" font-family="sans-serif" font-size="14" font-weight="bold" lengthAdjust="spacing" textLength="35" x="229" y="1297.6548">type</text><text fill="#D9B8FF" font-family="sans-serif" font-size="14" lengthAdjust="spacing" textLength="48" x="264" y="1297.6548">: string</text></g><!--class azure_ip_configuration_profile--><g id="elem_azure_ip_configuration_profile"><rect codeLine="47" fill="#3D176E" height="152.9766" id="azure_ip_configuration_profile" rx="2.5" ry="2.5" style="stroke:#000D19;stroke-width:0.5;" width="294" x="817" y="1396.25"/><ellipse cx="832" cy="1416.1445" fill="#ADD1B2" rx="11" ry="11" style="stroke:#181818;stroke-width:1.0;"/><path d="M834.9688,1421.7852 Q834.3906,1422.082 833.75,1422.2227 Q833.1094,1422.3789 832.4063,1422.3789 Q829.9063,1422.3789 828.5781,1420.7383 Q827.2656,1419.082 827.2656,1415.957 Q827.2656,1412.832 828.5781,1411.1758 Q829.9063,1409.5195 832.4063,1409.5195 Q833.1094,1409.5195 833.75,1409.6758 Q834.4063,1409.832 834.9688,1410.1289 L834.9688,1412.8477 Q834.3438,1412.2695 833.75,1412.0039 Q833.1563,1411.7227 832.5313,1411.7227 Q831.1875,1411.7227 830.5,1412.8008 Q829.8125,1413.8633 829.8125,1415.957 Q829.8125,1418.0508 830.5,1419.1289 Q831.1875,1420.1914 832.5313,1420.1914 Q833.1563,1420.1914 833.75,1419.9258 Q834.3438,1419.6445 834.9688,1419.0664 L834.9688,1421.7852 Z " fill="#000000"/><text fill="#D9B8FF" font-family="Helvetica" font-size="17" lengthAdjust="spacing" textLength="252" x="851" y="1422.0298">azure_ip_configuration_profile</text><line style="stroke:#000D19;stroke-width:0.5;" x1="818" x2="1110" y1="1436.0391" y2="1436.0391"/><text fill="#D9B8FF" font-family="sans-serif" font-size="14" font-weight="bold" lengthAdjust="spacing" textLength="35" x="828" y="1458.0342">etag</text><text fill="#D9B8FF" font-family="sans-serif" font-size="14" lengthAdjust="spacing" textLength="48" x="863" y="1458.0342">: string</text><text fill="#D9B8FF" font-family="sans-serif" font-size="14" font-weight="bold" lengthAdjust="spacing" textLength="43" x="828" y="1484.3311">name</text><text fill="#D9B8FF" font-family="sans-serif" font-size="14" lengthAdjust="spacing" textLength="48" x="871" y="1484.3311">: string</text><text fill="#D9B8FF" font-family="sans-serif" font-size="14" font-weight="bold" lengthAdjust="spacing" textLength="83" x="828" y="1510.6279">properties</text><text fill="#D9B8FF" font-family="sans-serif" font-size="14" lengthAdjust="spacing" textLength="48" x="911" y="1510.6279">: string</text><text fill="#D9B8FF" font-family="sans-serif" font-size="14" font-weight="bold" lengthAdjust="spacing" textLength="35" x="828" y="1536.9248">type</text><text fill="#D9B8FF" font-family="sans-serif" font-size="14" lengthAdjust="spacing" textLength="48" x="863" y="1536.9248">: string</text></g><!--class azure_network_profile--><g id="elem_azure_network_profile"><rect codeLine="53" fill="#3D176E" height="179.2734" id="azure_network_profile" rx="2.5" ry="2.5" style="stroke:#000D19;stroke-width:0.5;" width="726" x="348" y="599.54"/><ellipse cx="608.25" cy="619.4345" fill="#ADD1B2" rx="11" ry="11" style="stroke:#181818;stroke-width:1.0;"/><path d="M611.2188,625.0752 Q610.6406,625.372 610,625.5127 Q609.3594,625.6689 608.6563,625.6689 Q606.1563,625.6689 604.8281,624.0283 Q603.5156,622.372 603.5156,619.247 Q603.5156,616.122 604.8281,614.4658 Q606.1563,612.8095 608.6563,612.8095 Q609.3594,612.8095 610,612.9658 Q610.6563,613.122 611.2188,613.4189 L611.2188,616.1377 Q610.5938,615.5595 610,615.2939 Q609.4063,615.0127 608.7813,615.0127 Q607.4375,615.0127 606.75,616.0908 Q606.0625,617.1533 606.0625,619.247 Q606.0625,621.3408 606.75,622.4189 Q607.4375,623.4814 608.7813,623.4814 Q609.4063,623.4814 610,623.2158 Q610.5938,622.9345 611.2188,622.3564 L611.2188,625.0752 Z " fill="#000000"/><text fill="#D9B8FF" font-family="Helvetica" font-size="17" lengthAdjust="spacing" textLength="187" x="633.75" y="625.3198">azure_network_profile</text><line style="stroke:#000D19;stroke-width:0.5;" x1="349" x2="1073" y1="639.3291" y2="639.3291"/><text fill="#D9B8FF" font-family="sans-serif" font-size="14" font-weight="bold" lengthAdjust="spacing" textLength="347" x="359" y="661.3242">container_network_interface_configurations</text><text fill="#D9B8FF" font-family="sans-serif" font-size="14" lengthAdjust="spacing" textLength="357" x="706" y="661.3242">: azure_container_network_interface_configuration[]</text><text fill="#D9B8FF" font-family="sans-serif" font-size="14" font-weight="bold" lengthAdjust="spacing" textLength="235" x="359" y="687.6211">container_network_interfaces</text><text fill="#D9B8FF" font-family="sans-serif" font-size="14" lengthAdjust="spacing" textLength="260" x="594" y="687.6211">: azure_container_network_interface[]</text><text fill="#D9B8FF" font-family="sans-serif" font-size="14" font-weight="bold" lengthAdjust="spacing" textLength="35" x="359" y="713.9179">etag</text><text fill="#D9B8FF" font-family="sans-serif" font-size="14" lengthAdjust="spacing" textLength="48" x="394" y="713.9179">: string</text><text fill="#D9B8FF" font-family="sans-serif" font-size="14" font-weight="bold" lengthAdjust="spacing" textLength="144" x="359" y="740.2148">provisioning_state</text><text fill="#D9B8FF" font-family="sans-serif" font-size="14" lengthAdjust="spacing" textLength="48" x="503" y="740.2148">: string</text><text fill="#D9B8FF" font-family="sans-serif" font-size="14" font-weight="bold" lengthAdjust="spacing" textLength="113" x="359" y="766.5117">resource_guid</text><text fill="#D9B8FF" font-family="sans-serif" font-size="14" lengthAdjust="spacing" textLength="48" x="472" y="766.5117">: string</text></g><!--class azure_resource--><g id="elem_azure_resource"><rect codeLine="60" fill="#3D176E" height="39.7891" id="azure_resource" rx="2.5" ry="2.5" style="stroke:#000D19;stroke-width:0.5;" width="168" x="627" y="438.75"/><ellipse cx="642" cy="458.6445" fill="#ADD1B2" rx="11" ry="11" style="stroke:#181818;stroke-width:1.0;"/><path d="M644.9688,464.2852 Q644.3906,464.582 643.75,464.7227 Q643.1094,464.8789 642.4063,464.8789 Q639.9063,464.8789 638.5781,463.2383 Q637.2656,461.582 637.2656,458.457 Q637.2656,455.332 638.5781,453.6758 Q639.9063,452.0195 642.4063,452.0195 Q643.1094,452.0195 643.75,452.1758 Q644.4063,452.332 644.9688,452.6289 L644.9688,455.3477 Q644.3438,454.7695 643.75,454.5039 Q643.1563,454.2227 642.5313,454.2227 Q641.1875,454.2227 640.5,455.3008 Q639.8125,456.3633 639.8125,458.457 Q639.8125,460.5508 640.5,461.6289 Q641.1875,462.6914 642.5313,462.6914 Q643.1563,462.6914 643.75,462.4258 Q644.3438,462.1445 644.9688,461.5664 L644.9688,464.2852 Z " fill="#000000"/><text fill="#D9B8FF" font-family="Helvetica" font-size="17" lengthAdjust="spacing" textLength="126" x="661" y="464.5298">azure_resource</text></g><!--class resource--><g id="elem_resource"><rect codeLine="62" fill="#3D176E" height="310.7578" id="resource" rx="2.5" ry="2.5" style="stroke:#000D19;stroke-width:0.5;" width="227" x="597.5" y="7"/><ellipse cx="666.25" cy="26.8945" fill="#ADD1B2" rx="11" ry="11" style="stroke:#181818;stroke-width:1.0;"/><path d="M669.2188,32.5352 Q668.6406,32.832 668,32.9727 Q667.3594,33.1289 666.6563,33.1289 Q664.1563,33.1289 662.8281,31.4883 Q661.5156,29.832 661.5156,26.707 Q661.5156,23.582 662.8281,21.9258 Q664.1563,20.2695 666.6563,20.2695 Q667.3594,20.2695 668,20.4258 Q668.6563,20.582 669.2188,20.8789 L669.2188,23.5977 Q668.5938,23.0195 668,22.7539 Q667.4063,22.4727 666.7813,22.4727 Q665.4375,22.4727 664.75,23.5508 Q664.0625,24.6133 664.0625,26.707 Q664.0625,28.8008 664.75,29.8789 Q665.4375,30.9414 666.7813,30.9414 Q667.4063,30.9414 668,30.6758 Q668.5938,30.3945 669.2188,29.8164 L669.2188,32.5352 Z " fill="#000000"/><text fill="#D9B8FF" font-family="Helvetica" font-size="17" lengthAdjust="spacing" textLength="71" x="691.75" y="32.7798">resource</text><line style="stroke:#000D19;stroke-width:0.5;" x1="598.5" x2="823.5" y1="46.7891" y2="46.7891"/><text fill="#D9B8FF" font-family="sans-serif" font-size="14" font-weight="bold" lengthAdjust="spacing" textLength="29" x="608.5" y="68.7842">age</text><text fill="#D9B8FF" font-family="sans-serif" font-size="14" lengthAdjust="spacing" textLength="66" x="637.5" y="68.7842">: duration</text><text fill="#D9B8FF" font-family="sans-serif" font-size="14" font-weight="bold" lengthAdjust="spacing" textLength="43" x="608.5" y="95.0811">atime</text><text fill="#D9B8FF" font-family="sans-serif" font-size="14" lengthAdjust="spacing" textLength="70" x="651.5" y="95.0811">: datetime</text><text fill="#D9B8FF" font-family="sans-serif" font-size="14" font-weight="bold" lengthAdjust="spacing" textLength="43" x="608.5" y="121.3779">ctime</text><text fill="#D9B8FF" font-family="sans-serif" font-size="14" lengthAdjust="spacing" textLength="70" x="651.5" y="121.3779">: datetime</text><text fill="#D9B8FF" font-family="sans-serif" font-size="14" font-weight="bold" lengthAdjust="spacing" textLength="14" x="608.5" y="147.6748">id</text><text fill="#D9B8FF" font-family="sans-serif" font-size="14" lengthAdjust="spacing" textLength="48" x="622.5" y="147.6748">: string</text><text fill="#D9B8FF" font-family="sans-serif" font-size="14" font-weight="bold" lengthAdjust="spacing" textLength="33" x="608.5" y="173.9717">kind</text><text fill="#D9B8FF" font-family="sans-serif" font-size="14" lengthAdjust="spacing" textLength="48" x="641.5" y="173.9717">: string</text><text fill="#D9B8FF" font-family="sans-serif" font-size="14" font-weight="bold" lengthAdjust="spacing" textLength="90" x="608.5" y="200.2686">last_access</text><text fill="#D9B8FF" font-family="sans-serif" font-size="14" lengthAdjust="spacing" textLength="66" x="698.5" y="200.2686">: duration</text><text fill="#D9B8FF" font-family="sans-serif" font-size="14" font-weight="bold" lengthAdjust="spacing" textLength="90" x="608.5" y="226.5654">last_update</text><text fill="#D9B8FF" font-family="sans-serif" font-size="14" lengthAdjust="spacing" textLength="66" x="698.5" y="226.5654">: duration</text><text fill="#D9B8FF" font-family="sans-serif" font-size="14" font-weight="bold" lengthAdjust="spacing" textLength="48" x="608.5" y="252.8623">mtime</text><text fill="#D9B8FF" font-family="sans-serif" font-size="14" lengthAdjust="spacing" textLength="70" x="656.5" y="252.8623">: datetime</text><text fill="#D9B8FF" font-family="sans-serif" font-size="14" font-weight="bold" lengthAdjust="spacing" textLength="43" x="608.5" y="279.1592">name</text><text fill="#D9B8FF" font-family="sans-serif" font-size="14" lengthAdjust="spacing" textLength="48" x="651.5" y="279.1592">: string</text><text fill="#D9B8FF" font-family="sans-serif" font-size="14" font-weight="bold" lengthAdjust="spacing" textLength="34" x="608.5" y="305.4561">tags</text><text fill="#D9B8FF" font-family="sans-serif" font-size="14" lengthAdjust="spacing" textLength="171" x="642.5" y="305.4561">: dictionary[string, string]</text></g><!--link azure_container_network_interface to azure_container--><g id="link_azure_container_network_interface_azure_container"><path codeLine="74" d="M289.85,1071.09 C259.23,1089.84 228.77,1109.94 201,1130.68 C166.86,1156.18 136.2345,1187.3256 116.2245,1208.9556 " fill="none" id="azure_container_network_interface-to-azure_container" style="stroke:#FFAF37;stroke-width:2.0;"/><polygon fill="#FFAF37" points="112.15,1213.36,121.198,1209.4698,115.5454,1209.6897,115.3255,1204.0371,112.15,1213.36" style="stroke:#FFAF37;stroke-width:2.0;"/></g><!--link azure_container_network_interface to azure_container_network_interface_configuration--><g id="link_azure_container_network_interface_azure_container_network_interface_configuration"><path codeLine="75" d="M698.08,1071.1 C730.46,1090.75 758.7599,1107.9284 790.5299,1127.1984 " fill="none" id="azure_container_network_interface-to-azure_container_network_interface_configuration" style="stroke:#FFAF37;stroke-width:2.0;"/><polygon fill="#FFAF37" points="795.66,1130.31,790.0393,1122.2225,791.3849,1127.717,785.8905,1129.0626,795.66,1130.31" style="stroke:#FFAF37;stroke-width:2.0;"/></g><!--link azure_container_network_interface to azure_container_network_interface_ip_configuration--><g id="link_azure_container_network_interface_azure_container_network_interface_ip_configuration"><path codeLine="76" d="M487.57,1071.1 C482.45,1100.02 478.1362,1124.4119 473.4562,1150.8419 " fill="none" id="azure_container_network_interface-to-azure_container_network_interface_ip_configuration" style="stroke:#FFAF37;stroke-width:2.0;"/><polygon fill="#FFAF37" points="472.41,1156.75,477.918,1148.5853,473.2818,1151.8266,470.0405,1147.1904,472.41,1156.75" style="stroke:#FFAF37;stroke-width:2.0;"/></g><!--link azure_container_network_interface_configuration to azure_ip_configuration_profile--><g id="link_azure_container_network_interface_configuration_azure_ip_configuration_profile"><path codeLine="77" d="M964,1336.47 C964,1356.44 964,1371.05 964,1389.98 " fill="none" id="azure_container_network_interface_configuration-to-azure_ip_configuration_profile" style="stroke:#FFAF37;stroke-width:2.0;"/><polygon fill="#FFAF37" points="964,1395.98,968,1386.98,964,1390.98,960,1386.98,964,1395.98" style="stroke:#FFAF37;stroke-width:2.0;"/></g><!--link azure_network_profile to azure_container_network_interface--><g id="link_azure_network_profile_azure_container_network_interface"><path codeLine="78" d="M642.56,779.04 C627.82,798.17 615.7122,813.9073 600.3322,833.8673 " fill="none" id="azure_network_profile-to-azure_container_network_interface" style="stroke:#FFAF37;stroke-width:2.0;"/><polygon fill="#FFAF37" points="596.67,838.62,605.3318,833.9324,599.7218,834.6594,598.9948,829.0495,596.67,838.62" style="stroke:#FFAF37;stroke-width:2.0;"/></g><!--link azure_network_profile to azure_container_network_interface_configuration--><g id="link_azure_network_profile_azure_container_network_interface_configuration"><path codeLine="79" d="M831.5,779.29 C849.61,797.26 866.41,817.31 879,838.82 C931.54,928.57 951.1692,1040.9553 958.8592,1124.3653 " fill="none" id="azure_network_profile-to-azure_container_network_interface_configuration" style="stroke:#FFAF37;stroke-width:2.0;"/><polygon fill="#FFAF37" points="959.41,1130.34,962.5669,1121.0108,958.951,1125.3611,954.6006,1121.7452,959.41,1130.34" style="stroke:#FFAF37;stroke-width:2.0;"/></g><!--reverse link azure_resource to azure_network_profile--><g id="link_azure_resource_azure_network_profile"><path codeLine="80" d="M711,496.74 C711,523.24 711,554.91 711,599.23 " fill="none" id="azure_resource-backto-azure_network_profile" style="stroke:#FFAF37;stroke-width:2.0;"/><polygon fill="none" points="711,478.74,705,496.74,717,496.74,711,478.74" style="stroke:#FFAF37;stroke-width:2.0;"/></g><!--reverse link resource to azure_resource--><g id="link_resource_azure_resource"><path codeLine="81" d="M711,335.84 C711,384.13 711,413.36 711,438.67 " fill="none" id="resource-backto-azure_resource" style="stroke:#FFAF37;stroke-width:2.0;"/><polygon fill="none" points="711,317.84,705,335.84,717,335.84,711,317.84" style="stroke:#FFAF37;stroke-width:2.0;"/></g><!--SRC=[lLJBRjim4BphAmJa9bI0tQ1rN1G5KWD5UmcAfhSW46Xn9HEMI659nN3Q_dj9-KMHLEIaZvFbdTdTcIMvAqOXXhfHsxY6UWae8xbcl258wlWQKMmMeX8ONnG5AIvdBlX9S3LAk24rn9-XUW35Sk8olgzOlkOWPVpQWZwIV5sYQ3dTbLT8kDGGS6Mn5XMHybefPCjMWIM6pfTNHU4otQ8NbtGwUmiUJI05t5CcamcTpbtAQAidVHyPj-mHugazj1kXm9FfjUXOJweq34kaP_I03shyIYXbl8pVMB5lEqt80NlnsnMXOcFO1QcatKOgG11gsy32SmNpArhCWkGlG-JSJ2ucZor2bclvX1ajFw9VOIJZe3O2rndZkdP1Sj3S93dYIVBEJR5XFztm2bQsI1GJF90-bgBBWoAboPJwsl9I1rZJvyZpwhffT_Uw5jVdsIlUe7XWKiFwRoOLKNtOJDiAd3t7Vkl-L7ssFBNeL3vd12wKQKS5g-3_sdLLT8uz6o4v3Q1YzWJ6P0mP_eSj3txjJcSVldp1C-WER-p2ZDOCtwMHAu0WHOjQKDaoEZYH0ylQBLOeIKZPLQMdPwr_ToT1TKVpRHm6OhscIQAtNp-WUwcCv7e6qkdG8Mr3zuuif0xqyIw6djEk8ijD6i7jtGvxjUVSQwlZ2pHDFtWxyqLPewloRrLr7rJqtErsQZFqDgFmEpfBtv_a1eqTB-hxdscQXfzu52GTWhy1]--></g></svg>