<?xml version="1.0" encoding="us-ascii" standalone="no"?><svg xmlns="http://www.w3.org/2000/svg" xmlns:xlink="http://www.w3.org/1999/xlink" contentStyleType="text/css" height="1453px" preserveAspectRatio="none" style="width:1087px;height:1453px;" version="1.1" viewBox="0 0 1087 1453" width="1087px" zoomAndPan="magnify"><defs/><g><!--class gcp_deprecation_status--><g id="elem_gcp_deprecation_status"><rect codeLine="23" fill="#3D176E" height="179.2734" id="gcp_deprecation_status" rx="2.5" ry="2.5" style="stroke:#000D19;stroke-width:0.5;" width="237" x="13.5" y="1267.57"/><ellipse cx="28.5" cy="1287.4645" fill="#ADD1B2" rx="11" ry="11" style="stroke:#181818;stroke-width:1.0;"/><path d="M31.4688,1293.1052 Q30.8906,1293.402 30.25,1293.5427 Q29.6094,1293.6989 28.9063,1293.6989 Q26.4063,1293.6989 25.0781,1292.0583 Q23.7656,1290.402 23.7656,1287.277 Q23.7656,1284.152 25.0781,1282.4958 Q26.4063,1280.8395 28.9063,1280.8395 Q29.6094,1280.8395 30.25,1280.9958 Q30.9063,1281.152 31.4688,1281.4489 L31.4688,1284.1677 Q30.8438,1283.5895 30.25,1283.3239 Q29.6563,1283.0427 29.0313,1283.0427 Q27.6875,1283.0427 27,1284.1208 Q26.3125,1285.1833 26.3125,1287.277 Q26.3125,1289.3708 27,1290.4489 Q27.6875,1291.5114 29.0313,1291.5114 Q29.6563,1291.5114 30.25,1291.2458 Q30.8438,1290.9645 31.4688,1290.3864 L31.4688,1293.1052 Z " fill="#000000"/><text fill="#D9B8FF" font-family="Helvetica" font-size="17" lengthAdjust="spacing" textLength="195" x="47.5" y="1293.3498">gcp_deprecation_status</text><line style="stroke:#000D19;stroke-width:0.5;" x1="14.5" x2="249.5" y1="1307.3591" y2="1307.3591"/><text fill="#D9B8FF" font-family="sans-serif" font-size="14" font-weight="bold" lengthAdjust="spacing" textLength="60" x="24.5" y="1329.3542">deleted</text><text fill="#D9B8FF" font-family="sans-serif" font-size="14" lengthAdjust="spacing" textLength="48" x="84.5" y="1329.3542">: string</text><text fill="#D9B8FF" font-family="sans-serif" font-size="14" font-weight="bold" lengthAdjust="spacing" textLength="91" x="24.5" y="1355.6511">deprecated</text><text fill="#D9B8FF" font-family="sans-serif" font-size="14" lengthAdjust="spacing" textLength="48" x="115.5" y="1355.6511">: string</text><text fill="#D9B8FF" font-family="sans-serif" font-size="14" font-weight="bold" lengthAdjust="spacing" textLength="69" x="24.5" y="1381.9479">obsolete</text><text fill="#D9B8FF" font-family="sans-serif" font-size="14" lengthAdjust="spacing" textLength="48" x="93.5" y="1381.9479">: string</text><text fill="#D9B8FF" font-family="sans-serif" font-size="14" font-weight="bold" lengthAdjust="spacing" textLength="99" x="24.5" y="1408.2448">replacement</text><text fill="#D9B8FF" font-family="sans-serif" font-size="14" lengthAdjust="spacing" textLength="48" x="123.5" y="1408.2448">: string</text><text fill="#D9B8FF" font-family="sans-serif" font-size="14" font-weight="bold" lengthAdjust="spacing" textLength="40" x="24.5" y="1434.5417">state</text><text fill="#D9B8FF" font-family="sans-serif" font-size="14" lengthAdjust="spacing" textLength="48" x="64.5" y="1434.5417">: string</text></g><!--class gcp_resource--><g id="elem_gcp_resource"><rect codeLine="30" fill="#3D176E" height="152.9766" id="gcp_resource" rx="2.5" ry="2.5" style="stroke:#000D19;stroke-width:0.5;" width="348" x="7" y="438.75"/><ellipse cx="117.75" cy="458.6445" fill="#ADD1B2" rx="11" ry="11" style="stroke:#181818;stroke-width:1.0;"/><path d="M120.7188,464.2852 Q120.1406,464.582 119.5,464.7227 Q118.8594,464.8789 118.1563,464.8789 Q115.6563,464.8789 114.3281,463.2383 Q113.0156,461.582 113.0156,458.457 Q113.0156,455.332 114.3281,453.6758 Q115.6563,452.0195 118.1563,452.0195 Q118.8594,452.0195 119.5,452.1758 Q120.1563,452.332 120.7188,452.6289 L120.7188,455.3477 Q120.0938,454.7695 119.5,454.5039 Q118.9063,454.2227 118.2813,454.2227 Q116.9375,454.2227 116.25,455.3008 Q115.5625,456.3633 115.5625,458.457 Q115.5625,460.5508 116.25,461.6289 Q116.9375,462.6914 118.2813,462.6914 Q118.9063,462.6914 119.5,462.4258 Q120.0938,462.1445 120.7188,461.5664 L120.7188,464.2852 Z " fill="#000000"/><text fill="#D9B8FF" font-family="Helvetica" font-size="17" lengthAdjust="spacing" textLength="108" x="143.25" y="464.5298">gcp_resource</text><line style="stroke:#000D19;stroke-width:0.5;" x1="8" x2="354" y1="478.5391" y2="478.5391"/><text fill="#D9B8FF" font-family="sans-serif" font-size="14" font-weight="bold" lengthAdjust="spacing" textLength="151" x="18" y="500.5342">deprecation_status</text><text fill="#D9B8FF" font-family="sans-serif" font-size="14" lengthAdjust="spacing" textLength="175" x="169" y="500.5342">: gcp_deprecation_status</text><text fill="#D9B8FF" font-family="sans-serif" font-size="14" font-weight="bold" lengthAdjust="spacing" textLength="89" x="18" y="526.8311">description</text><text fill="#D9B8FF" font-family="sans-serif" font-size="14" lengthAdjust="spacing" textLength="48" x="107" y="526.8311">: string</text><text fill="#D9B8FF" font-family="sans-serif" font-size="14" font-weight="bold" lengthAdjust="spacing" textLength="128" x="18" y="553.1279">label_fingerprint</text><text fill="#D9B8FF" font-family="sans-serif" font-size="14" lengthAdjust="spacing" textLength="48" x="146" y="553.1279">: string</text><text fill="#D9B8FF" font-family="sans-serif" font-size="14" font-weight="bold" lengthAdjust="spacing" textLength="27" x="18" y="579.4248">link</text><text fill="#D9B8FF" font-family="sans-serif" font-size="14" lengthAdjust="spacing" textLength="48" x="45" y="579.4248">: string</text></g><!--class gcp_vertex_ai_create_pipeline_job_request--><g id="elem_gcp_vertex_ai_create_pipeline_job_request"><rect codeLine="36" fill="#3D176E" height="126.6797" id="gcp_vertex_ai_create_pipeline_job_request" rx="2.5" ry="2.5" style="stroke:#000D19;stroke-width:0.5;" width="399" x="285.5" y="1293.86"/><ellipse cx="300.5" cy="1313.7545" fill="#ADD1B2" rx="11" ry="11" style="stroke:#181818;stroke-width:1.0;"/><path d="M303.4688,1319.3952 Q302.8906,1319.692 302.25,1319.8327 Q301.6094,1319.9889 300.9063,1319.9889 Q298.4063,1319.9889 297.0781,1318.3483 Q295.7656,1316.692 295.7656,1313.567 Q295.7656,1310.442 297.0781,1308.7858 Q298.4063,1307.1295 300.9063,1307.1295 Q301.6094,1307.1295 302.25,1307.2858 Q302.9063,1307.442 303.4688,1307.7389 L303.4688,1310.4577 Q302.8438,1309.8795 302.25,1309.6139 Q301.6563,1309.3327 301.0313,1309.3327 Q299.6875,1309.3327 299,1310.4108 Q298.3125,1311.4733 298.3125,1313.567 Q298.3125,1315.6608 299,1316.7389 Q299.6875,1317.8014 301.0313,1317.8014 Q301.6563,1317.8014 302.25,1317.5358 Q302.8438,1317.2545 303.4688,1316.6764 L303.4688,1319.3952 Z " fill="#000000"/><text fill="#D9B8FF" font-family="Helvetica" font-size="17" lengthAdjust="spacing" textLength="357" x="319.5" y="1319.6398">gcp_vertex_ai_create_pipeline_job_request</text><line style="stroke:#000D19;stroke-width:0.5;" x1="286.5" x2="683.5" y1="1333.6491" y2="1333.6491"/><text fill="#D9B8FF" font-family="sans-serif" font-size="14" font-weight="bold" lengthAdjust="spacing" textLength="52" x="296.5" y="1355.6442">parent</text><text fill="#D9B8FF" font-family="sans-serif" font-size="14" lengthAdjust="spacing" textLength="48" x="348.5" y="1355.6442">: string</text><text fill="#D9B8FF" font-family="sans-serif" font-size="14" font-weight="bold" lengthAdjust="spacing" textLength="93" x="296.5" y="1381.9411">pipeline_job</text><text fill="#D9B8FF" font-family="sans-serif" font-size="14" lengthAdjust="spacing" textLength="48" x="389.5" y="1381.9411">: string</text><text fill="#D9B8FF" font-family="sans-serif" font-size="14" font-weight="bold" lengthAdjust="spacing" textLength="114" x="296.5" y="1408.2379">pipeline_job_id</text><text fill="#D9B8FF" font-family="sans-serif" font-size="14" lengthAdjust="spacing" textLength="48" x="410.5" y="1408.2379">: string</text></g><!--class gcp_vertex_ai_schedule--><g id="elem_gcp_vertex_ai_schedule"><rect codeLine="41" fill="#3D176E" height="494.8359" id="gcp_vertex_ai_schedule" rx="2.5" ry="2.5" style="stroke:#000D19;stroke-width:0.5;" width="545" x="205.5" y="712.73"/><ellipse cx="370.25" cy="732.6245" fill="#ADD1B2" rx="11" ry="11" style="stroke:#181818;stroke-width:1.0;"/><path d="M373.2188,738.2652 Q372.6406,738.562 372,738.7027 Q371.3594,738.8589 370.6563,738.8589 Q368.1563,738.8589 366.8281,737.2183 Q365.5156,735.562 365.5156,732.437 Q365.5156,729.312 366.8281,727.6558 Q368.1563,725.9995 370.6563,725.9995 Q371.3594,725.9995 372,726.1558 Q372.6563,726.312 373.2188,726.6089 L373.2188,729.3277 Q372.5938,728.7495 372,728.4839 Q371.4063,728.2027 370.7813,728.2027 Q369.4375,728.2027 368.75,729.2808 Q368.0625,730.3433 368.0625,732.437 Q368.0625,734.5308 368.75,735.6089 Q369.4375,736.6714 370.7813,736.6714 Q371.4063,736.6714 372,736.4058 Q372.5938,736.1245 373.2188,735.5464 L373.2188,738.2652 Z " fill="#000000"/><text fill="#D9B8FF" font-family="Helvetica" font-size="17" lengthAdjust="spacing" textLength="197" x="395.75" y="738.5098">gcp_vertex_ai_schedule</text><line style="stroke:#000D19;stroke-width:0.5;" x1="206.5" x2="749.5" y1="752.5191" y2="752.5191"/><text fill="#D9B8FF" font-family="sans-serif" font-size="14" font-weight="bold" lengthAdjust="spacing" textLength="122" x="216.5" y="774.5142">allow_queueing</text><text fill="#D9B8FF" font-family="sans-serif" font-size="14" lengthAdjust="spacing" textLength="65" x="338.5" y="774.5142">: boolean</text><text fill="#D9B8FF" font-family="sans-serif" font-size="14" font-weight="bold" lengthAdjust="spacing" textLength="70" x="216.5" y="800.8111">catch_up</text><text fill="#D9B8FF" font-family="sans-serif" font-size="14" lengthAdjust="spacing" textLength="65" x="286.5" y="800.8111">: boolean</text><text fill="#D9B8FF" font-family="sans-serif" font-size="14" font-weight="bold" lengthAdjust="spacing" textLength="220" x="216.5" y="827.1079">create_pipeline_job_request</text><text fill="#D9B8FF" font-family="sans-serif" font-size="14" lengthAdjust="spacing" textLength="303" x="436.5" y="827.1079">: gcp_vertex_ai_create_pipeline_job_request</text><text fill="#D9B8FF" font-family="sans-serif" font-size="14" font-weight="bold" lengthAdjust="spacing" textLength="92" x="216.5" y="853.4048">create_time</text><text fill="#D9B8FF" font-family="sans-serif" font-size="14" lengthAdjust="spacing" textLength="70" x="308.5" y="853.4048">: datetime</text><text fill="#D9B8FF" font-family="sans-serif" font-size="14" font-weight="bold" lengthAdjust="spacing" textLength="36" x="216.5" y="879.7017">cron</text><text fill="#D9B8FF" font-family="sans-serif" font-size="14" lengthAdjust="spacing" textLength="48" x="252.5" y="879.7017">: string</text><text fill="#D9B8FF" font-family="sans-serif" font-size="14" font-weight="bold" lengthAdjust="spacing" textLength="105" x="216.5" y="905.9986">display_name</text><text fill="#D9B8FF" font-family="sans-serif" font-size="14" lengthAdjust="spacing" textLength="48" x="321.5" y="905.9986">: string</text><text fill="#D9B8FF" font-family="sans-serif" font-size="14" font-weight="bold" lengthAdjust="spacing" textLength="71" x="216.5" y="932.2954">end_time</text><text fill="#D9B8FF" font-family="sans-serif" font-size="14" lengthAdjust="spacing" textLength="70" x="287.5" y="932.2954">: datetime</text><text fill="#D9B8FF" font-family="sans-serif" font-size="14" font-weight="bold" lengthAdjust="spacing" textLength="124" x="216.5" y="958.5923">last_pause_time</text><text fill="#D9B8FF" font-family="sans-serif" font-size="14" lengthAdjust="spacing" textLength="70" x="340.5" y="958.5923">: datetime</text><text fill="#D9B8FF" font-family="sans-serif" font-size="14" font-weight="bold" lengthAdjust="spacing" textLength="136" x="216.5" y="984.8892">last_resume_time</text><text fill="#D9B8FF" font-family="sans-serif" font-size="14" lengthAdjust="spacing" textLength="70" x="352.5" y="984.8892">: datetime</text><text fill="#D9B8FF" font-family="sans-serif" font-size="14" font-weight="bold" lengthAdjust="spacing" textLength="233" x="216.5" y="1011.1861">last_scheduled_run_response</text><text fill="#D9B8FF" font-family="sans-serif" font-size="14" lengthAdjust="spacing" textLength="276" x="449.5" y="1011.1861">: gcp_vertex_ai_schedule_run_response</text><text fill="#D9B8FF" font-family="sans-serif" font-size="14" font-weight="bold" lengthAdjust="spacing" textLength="213" x="216.5" y="1037.4829">max_concurrent_run_count</text><text fill="#D9B8FF" font-family="sans-serif" font-size="14" lengthAdjust="spacing" textLength="48" x="429.5" y="1037.4829">: string</text><text fill="#D9B8FF" font-family="sans-serif" font-size="14" font-weight="bold" lengthAdjust="spacing" textLength="118" x="216.5" y="1063.7798">max_run_count</text><text fill="#D9B8FF" font-family="sans-serif" font-size="14" lengthAdjust="spacing" textLength="48" x="334.5" y="1063.7798">: string</text><text fill="#D9B8FF" font-family="sans-serif" font-size="14" font-weight="bold" lengthAdjust="spacing" textLength="110" x="216.5" y="1090.0767">next_run_time</text><text fill="#D9B8FF" font-family="sans-serif" font-size="14" lengthAdjust="spacing" textLength="70" x="326.5" y="1090.0767">: datetime</text><text fill="#D9B8FF" font-family="sans-serif" font-size="14" font-weight="bold" lengthAdjust="spacing" textLength="78" x="216.5" y="1116.3736">start_time</text><text fill="#D9B8FF" font-family="sans-serif" font-size="14" lengthAdjust="spacing" textLength="70" x="294.5" y="1116.3736">: datetime</text><text fill="#D9B8FF" font-family="sans-serif" font-size="14" font-weight="bold" lengthAdjust="spacing" textLength="143" x="216.5" y="1142.6704">started_run_count</text><text fill="#D9B8FF" font-family="sans-serif" font-size="14" lengthAdjust="spacing" textLength="48" x="359.5" y="1142.6704">: string</text><text fill="#D9B8FF" font-family="sans-serif" font-size="14" font-weight="bold" lengthAdjust="spacing" textLength="40" x="216.5" y="1168.9673">state</text><text fill="#D9B8FF" font-family="sans-serif" font-size="14" lengthAdjust="spacing" textLength="48" x="256.5" y="1168.9673">: string</text><text fill="#D9B8FF" font-family="sans-serif" font-size="14" font-weight="bold" lengthAdjust="spacing" textLength="96" x="216.5" y="1195.2642">update_time</text><text fill="#D9B8FF" font-family="sans-serif" font-size="14" lengthAdjust="spacing" textLength="70" x="312.5" y="1195.2642">: datetime</text></g><!--class gcp_vertex_ai_schedule_run_response--><g id="elem_gcp_vertex_ai_schedule_run_response"><rect codeLine="60" fill="#3D176E" height="100.3828" id="gcp_vertex_ai_schedule_run_response" rx="2.5" ry="2.5" style="stroke:#000D19;stroke-width:0.5;" width="360" x="720" y="1307.01"/><ellipse cx="735" cy="1326.9045" fill="#ADD1B2" rx="11" ry="11" style="stroke:#181818;stroke-width:1.0;"/><path d="M737.9688,1332.5452 Q737.3906,1332.842 736.75,1332.9827 Q736.1094,1333.1389 735.4063,1333.1389 Q732.9063,1333.1389 731.5781,1331.4983 Q730.2656,1329.842 730.2656,1326.717 Q730.2656,1323.592 731.5781,1321.9358 Q732.9063,1320.2795 735.4063,1320.2795 Q736.1094,1320.2795 736.75,1320.4358 Q737.4063,1320.592 737.9688,1320.8889 L737.9688,1323.6077 Q737.3438,1323.0295 736.75,1322.7639 Q736.1563,1322.4827 735.5313,1322.4827 Q734.1875,1322.4827 733.5,1323.5608 Q732.8125,1324.6233 732.8125,1326.717 Q732.8125,1328.8108 733.5,1329.8889 Q734.1875,1330.9514 735.5313,1330.9514 Q736.1563,1330.9514 736.75,1330.6858 Q737.3438,1330.4045 737.9688,1329.8264 L737.9688,1332.5452 Z " fill="#000000"/><text fill="#D9B8FF" font-family="Helvetica" font-size="17" lengthAdjust="spacing" textLength="318" x="754" y="1332.7898">gcp_vertex_ai_schedule_run_response</text><line style="stroke:#000D19;stroke-width:0.5;" x1="721" x2="1079" y1="1346.7991" y2="1346.7991"/><text fill="#D9B8FF" font-family="sans-serif" font-size="14" font-weight="bold" lengthAdjust="spacing" textLength="109" x="731" y="1368.7942">run_response</text><text fill="#D9B8FF" font-family="sans-serif" font-size="14" lengthAdjust="spacing" textLength="48" x="840" y="1368.7942">: string</text><text fill="#D9B8FF" font-family="sans-serif" font-size="14" font-weight="bold" lengthAdjust="spacing" textLength="157" x="731" y="1395.0911">scheduled_run_time</text><text fill="#D9B8FF" font-family="sans-serif" font-size="14" lengthAdjust="spacing" textLength="70" x="888" y="1395.0911">: datetime</text></g><!--class resource--><g id="elem_resource"><rect codeLine="64" fill="#3D176E" height="310.7578" id="resource" rx="2.5" ry="2.5" style="stroke:#000D19;stroke-width:0.5;" width="227" x="67.5" y="7"/><ellipse cx="136.25" cy="26.8945" fill="#ADD1B2" rx="11" ry="11" style="stroke:#181818;stroke-width:1.0;"/><path d="M139.2188,32.5352 Q138.6406,32.832 138,32.9727 Q137.3594,33.1289 136.6563,33.1289 Q134.1563,33.1289 132.8281,31.4883 Q131.5156,29.832 131.5156,26.707 Q131.5156,23.582 132.8281,21.9258 Q134.1563,20.2695 136.6563,20.2695 Q137.3594,20.2695 138,20.4258 Q138.6563,20.582 139.2188,20.8789 L139.2188,23.5977 Q138.5938,23.0195 138,22.7539 Q137.4063,22.4727 136.7813,22.4727 Q135.4375,22.4727 134.75,23.5508 Q134.0625,24.6133 134.0625,26.707 Q134.0625,28.8008 134.75,29.8789 Q135.4375,30.9414 136.7813,30.9414 Q137.4063,30.9414 138,30.6758 Q138.5938,30.3945 139.2188,29.8164 L139.2188,32.5352 Z " fill="#000000"/><text fill="#D9B8FF" font-family="Helvetica" font-size="17" lengthAdjust="spacing" textLength="71" x="161.75" y="32.7798">resource</text><line style="stroke:#000D19;stroke-width:0.5;" x1="68.5" x2="293.5" y1="46.7891" y2="46.7891"/><text fill="#D9B8FF" font-family="sans-serif" font-size="14" font-weight="bold" lengthAdjust="spacing" textLength="29" x="78.5" y="68.7842">age</text><text fill="#D9B8FF" font-family="sans-serif" font-size="14" lengthAdjust="spacing" textLength="66" x="107.5" y="68.7842">: duration</text><text fill="#D9B8FF" font-family="sans-serif" font-size="14" font-weight="bold" lengthAdjust="spacing" textLength="43" x="78.5" y="95.0811">atime</text><text fill="#D9B8FF" font-family="sans-serif" font-size="14" lengthAdjust="spacing" textLength="70" x="121.5" y="95.0811">: datetime</text><text fill="#D9B8FF" font-family="sans-serif" font-size="14" font-weight="bold" lengthAdjust="spacing" textLength="43" x="78.5" y="121.3779">ctime</text><text fill="#D9B8FF" font-family="sans-serif" font-size="14" lengthAdjust="spacing" textLength="70" x="121.5" y="121.3779">: datetime</text><text fill="#D9B8FF" font-family="sans-serif" font-size="14" font-weight="bold" lengthAdjust="spacing" textLength="14" x="78.5" y="147.6748">id</text><text fill="#D9B8FF" font-family="sans-serif" font-size="14" lengthAdjust="spacing" textLength="48" x="92.5" y="147.6748">: string</text><text fill="#D9B8FF" font-family="sans-serif" font-size="14" font-weight="bold" lengthAdjust="spacing" textLength="33" x="78.5" y="173.9717">kind</text><text fill="#D9B8FF" font-family="sans-serif" font-size="14" lengthAdjust="spacing" textLength="48" x="111.5" y="173.9717">: string</text><text fill="#D9B8FF" font-family="sans-serif" font-size="14" font-weight="bold" lengthAdjust="spacing" textLength="90" x="78.5" y="200.2686">last_access</text><text fill="#D9B8FF" font-family="sans-serif" font-size="14" lengthAdjust="spacing" textLength="66" x="168.5" y="200.2686">: duration</text><text fill="#D9B8FF" font-family="sans-serif" font-size="14" font-weight="bold" lengthAdjust="spacing" textLength="90" x="78.5" y="226.5654">last_update</text><text fill="#D9B8FF" font-family="sans-serif" font-size="14" lengthAdjust="spacing" textLength="66" x="168.5" y="226.5654">: duration</text><text fill="#D9B8FF" font-family="sans-serif" font-size="14" font-weight="bold" lengthAdjust="spacing" textLength="48" x="78.5" y="252.8623">mtime</text><text fill="#D9B8FF" font-family="sans-serif" font-size="14" lengthAdjust="spacing" textLength="70" x="126.5" y="252.8623">: datetime</text><text fill="#D9B8FF" font-family="sans-serif" font-size="14" font-weight="bold" lengthAdjust="spacing" textLength="43" x="78.5" y="279.1592">name</text><text fill="#D9B8FF" font-family="sans-serif" font-size="14" lengthAdjust="spacing" textLength="48" x="121.5" y="279.1592">: string</text><text fill="#D9B8FF" font-family="sans-serif" font-size="14" font-weight="bold" lengthAdjust="spacing" textLength="34" x="78.5" y="305.4561">tags</text><text fill="#D9B8FF" font-family="sans-serif" font-size="14" lengthAdjust="spacing" textLength="171" x="112.5" y="305.4561">: dictionary[string, string]</text></g><!--link gcp_resource to gcp_deprecation_status--><g id="link_gcp_resource_gcp_deprecation_status"><path codeLine="76" d="M176.59,591.89 C167.53,747.15 147.2292,1095.0902 137.5492,1261.1202 " fill="none" id="gcp_resource-to-gcp_deprecation_status" style="stroke:#FFAF37;stroke-width:2.0;"/><polygon fill="#FFAF37" points="137.2,1267.11,141.7171,1258.3581,137.491,1262.1185,133.7306,1257.8924,137.2,1267.11" style="stroke:#FFAF37;stroke-width:2.0;"/></g><!--reverse link resource to gcp_resource--><g id="link_resource_gcp_resource"><path codeLine="77" d="M181,336.04 C181,377.74 181,403.03 181,438.31 " fill="none" id="resource-backto-gcp_resource" style="stroke:#FFAF37;stroke-width:2.0;"/><polygon fill="none" points="181,318.04,175,336.04,187,336.04,181,318.04" style="stroke:#FFAF37;stroke-width:2.0;"/></g><!--link gcp_vertex_ai_schedule to gcp_deprecation_status--><g id="link_gcp_vertex_ai_schedule_gcp_deprecation_status"><path codeLine="78" d="M261.82,1207.98 C243.52,1228.88 229.8522,1244.4756 213.8222,1262.7856 " fill="none" id="gcp_vertex_ai_schedule-to-gcp_deprecation_status" style="stroke:#FFAF37;stroke-width:2.0;"/><polygon fill="#FFAF37" points="209.87,1267.3,218.808,1263.1632,213.1635,1263.538,212.7888,1257.8936,209.87,1267.3" style="stroke:#FFAF37;stroke-width:2.0;"/></g><!--reverse link gcp_resource to gcp_vertex_ai_schedule--><g id="link_gcp_resource_gcp_vertex_ai_schedule"><path codeLine="79" d="M241.914,607.0806 C264.784,641.1906 283.19,668.63 312.51,712.35 " fill="none" id="gcp_resource-backto-gcp_vertex_ai_schedule" style="stroke:#FFAF37;stroke-width:2.0;"/><polygon fill="none" points="231.89,592.13,236.9305,610.4219,246.8975,603.7392,231.89,592.13" style="stroke:#FFAF37;stroke-width:2.0;"/></g><!--link gcp_vertex_ai_schedule to gcp_vertex_ai_create_pipeline_job_request--><g id="link_gcp_vertex_ai_schedule_gcp_vertex_ai_create_pipeline_job_request"><path codeLine="80" d="M482.37,1207.98 C482.93,1239.48 483.3545,1263.2009 483.7845,1287.6409 " fill="none" id="gcp_vertex_ai_schedule-to-gcp_vertex_ai_create_pipeline_job_request" style="stroke:#FFAF37;stroke-width:2.0;"/><polygon fill="#FFAF37" points="483.89,1293.64,487.7311,1284.571,483.802,1288.6408,479.7323,1284.7118,483.89,1293.64" style="stroke:#FFAF37;stroke-width:2.0;"/></g><!--link gcp_vertex_ai_schedule to gcp_vertex_ai_schedule_run_response--><g id="link_gcp_vertex_ai_schedule_gcp_vertex_ai_schedule_run_response"><path codeLine="81" d="M741.66,1207.98 C781.65,1245.41 814.5597,1276.2196 842.8897,1302.7396 " fill="none" id="gcp_vertex_ai_schedule-to-gcp_vertex_ai_schedule_run_response" style="stroke:#FFAF37;stroke-width:2.0;"/><polygon fill="#FFAF37" points="847.27,1306.84,843.4332,1297.7692,843.6198,1303.423,837.966,1303.6096,847.27,1306.84" style="stroke:#FFAF37;stroke-width:2.0;"/></g><!--SRC=[ZLLDRzim3BtdLnZeBLY0PiNM3mm3kWB3TYc6TRTX46Y9JhJOaaP9RREF_px9JbfBjfFUOhwdnqUALDPIO86DSTkYmQP4iZExaSe0GLDS4-c76rrhAawg2ggpynpyg9KxIhY51ejFMD-ZannonhUrv1k5rXQlUz07u9iLQQz49-y8b0qGAjTZtTHWxRLp94lli6T6N9ONLPKpSz6JCx4yVui3cYQ1jAESdfwAvMLEEPhgODrFZ3lv6ujblsctsk70vY15opheCZ9w9WU5xl59Zrz02AbMnPjUx6ldYHHI4hzRWz0FaLr1RVjfh4D2xRO6RmPLuUM5gCv7oP-do3CUMrUik6423I479xLYre7pjlWpcyy5rkXGpETNGO-2fpRMKREmBgsEv2H8Q6hWs8H1I-8nHP_vhsU5q6fF77S6Sb_nrBZZbcuvIHE3IRuQIgnP5JwGJ8YbRcgfDXDcxf4SFZAGZ1C6pyn8Wu6FxASkWzLV7grhdNRhbEZskPC0a-9eRilNA7pTjGJgMZ-maDXZE17FbZfq7bJ0GZ_ucdcJHQUjxxlveZgVfPniskiJuIF-Rf6ivqBQSFbRfg19XmAL61C8TJjcm5kSHCDe-6OQthT9CF8gaerM5eSbxda9BOWqyCYuLjnJlCeMvM5hqakDf754uMDtQCHVc51oay3EyL0otvFvt1inUW671oUfj9sYl4FFAPCcJkP9jXHM7SbJkuynCZOX8p6PFYBXzHBPuePx1Sx3FrgMeKMwRcH8Cv9dC8GELfsYvF4OqFPxXxtQSNw4KfFdQB5uF_NmF77U_Lqi5iahDflOv0DgITPdnQ78CUsNBVMBHSRNvZy0]--></g></svg>