<?xml version="1.0" encoding="us-ascii" standalone="no"?><svg xmlns="http://www.w3.org/2000/svg" xmlns:xlink="http://www.w3.org/1999/xlink" contentStyleType="text/css" height="1760px" preserveAspectRatio="none" style="width:616px;height:1760px;" version="1.1" viewBox="0 0 616 1760" width="616px" zoomAndPan="magnify"><defs/><g><!--class gcp_accelerators--><g id="elem_gcp_accelerators"><rect codeLine="23" fill="#3D176E" height="100.3828" id="gcp_accelerators" rx="2.5" ry="2.5" style="stroke:#000D19;stroke-width:0.5;" width="260" x="335" y="1613.3"/><ellipse cx="387.25" cy="1633.1945" fill="#ADD1B2" rx="11" ry="11" style="stroke:#181818;stroke-width:1.0;"/><path d="M390.2188,1638.8352 Q389.6406,1639.132 389,1639.2727 Q388.3594,1639.4289 387.6563,1639.4289 Q385.1563,1639.4289 383.8281,1637.7883 Q382.5156,1636.132 382.5156,1633.007 Q382.5156,1629.882 383.8281,1628.2258 Q385.1563,1626.5695 387.6563,1626.5695 Q388.3594,1626.5695 389,1626.7258 Q389.6563,1626.882 390.2188,1627.1789 L390.2188,1629.8977 Q389.5938,1629.3195 389,1629.0539 Q388.4063,1628.7727 387.7813,1628.7727 Q386.4375,1628.7727 385.75,1629.8508 Q385.0625,1630.9133 385.0625,1633.007 Q385.0625,1635.1008 385.75,1636.1789 Q386.4375,1637.2414 387.7813,1637.2414 Q388.4063,1637.2414 389,1636.9758 Q389.5938,1636.6945 390.2188,1636.1164 L390.2188,1638.8352 Z " fill="#000000"/><text fill="#D9B8FF" font-family="Helvetica" font-size="17" lengthAdjust="spacing" textLength="137" x="412.75" y="1639.0798">gcp_accelerators</text><line style="stroke:#000D19;stroke-width:0.5;" x1="336" x2="594" y1="1653.0891" y2="1653.0891"/><text fill="#D9B8FF" font-family="sans-serif" font-size="14" font-weight="bold" lengthAdjust="spacing" textLength="194" x="346" y="1675.0842">guest_accelerator_count</text><text fill="#D9B8FF" font-family="sans-serif" font-size="14" lengthAdjust="spacing" textLength="44" x="540" y="1675.0842">: int64</text><text fill="#D9B8FF" font-family="sans-serif" font-size="14" font-weight="bold" lengthAdjust="spacing" textLength="184" x="346" y="1701.3811">guest_accelerator_type</text><text fill="#D9B8FF" font-family="sans-serif" font-size="14" lengthAdjust="spacing" textLength="48" x="530" y="1701.3811">: string</text></g><!--class gcp_deprecation_status--><g id="elem_gcp_deprecation_status"><rect codeLine="27" fill="#3D176E" height="179.2734" id="gcp_deprecation_status" rx="2.5" ry="2.5" style="stroke:#000D19;stroke-width:0.5;" width="237" x="62.5" y="1573.86"/><ellipse cx="77.5" cy="1593.7545" fill="#ADD1B2" rx="11" ry="11" style="stroke:#181818;stroke-width:1.0;"/><path d="M80.4688,1599.3952 Q79.8906,1599.692 79.25,1599.8327 Q78.6094,1599.9889 77.9063,1599.9889 Q75.4063,1599.9889 74.0781,1598.3483 Q72.7656,1596.692 72.7656,1593.567 Q72.7656,1590.442 74.0781,1588.7858 Q75.4063,1587.1295 77.9063,1587.1295 Q78.6094,1587.1295 79.25,1587.2858 Q79.9063,1587.442 80.4688,1587.7389 L80.4688,1590.4577 Q79.8438,1589.8795 79.25,1589.6139 Q78.6563,1589.3327 78.0313,1589.3327 Q76.6875,1589.3327 76,1590.4108 Q75.3125,1591.4733 75.3125,1593.567 Q75.3125,1595.6608 76,1596.7389 Q76.6875,1597.8014 78.0313,1597.8014 Q78.6563,1597.8014 79.25,1597.5358 Q79.8438,1597.2545 80.4688,1596.6764 L80.4688,1599.3952 Z " fill="#000000"/><text fill="#D9B8FF" font-family="Helvetica" font-size="17" lengthAdjust="spacing" textLength="195" x="96.5" y="1599.6398">gcp_deprecation_status</text><line style="stroke:#000D19;stroke-width:0.5;" x1="63.5" x2="298.5" y1="1613.6491" y2="1613.6491"/><text fill="#D9B8FF" font-family="sans-serif" font-size="14" font-weight="bold" lengthAdjust="spacing" textLength="60" x="73.5" y="1635.6442">deleted</text><text fill="#D9B8FF" font-family="sans-serif" font-size="14" lengthAdjust="spacing" textLength="48" x="133.5" y="1635.6442">: string</text><text fill="#D9B8FF" font-family="sans-serif" font-size="14" font-weight="bold" lengthAdjust="spacing" textLength="91" x="73.5" y="1661.9411">deprecated</text><text fill="#D9B8FF" font-family="sans-serif" font-size="14" lengthAdjust="spacing" textLength="48" x="164.5" y="1661.9411">: string</text><text fill="#D9B8FF" font-family="sans-serif" font-size="14" font-weight="bold" lengthAdjust="spacing" textLength="69" x="73.5" y="1688.2379">obsolete</text><text fill="#D9B8FF" font-family="sans-serif" font-size="14" lengthAdjust="spacing" textLength="48" x="142.5" y="1688.2379">: string</text><text fill="#D9B8FF" font-family="sans-serif" font-size="14" font-weight="bold" lengthAdjust="spacing" textLength="99" x="73.5" y="1714.5348">replacement</text><text fill="#D9B8FF" font-family="sans-serif" font-size="14" lengthAdjust="spacing" textLength="48" x="172.5" y="1714.5348">: string</text><text fill="#D9B8FF" font-family="sans-serif" font-size="14" font-weight="bold" lengthAdjust="spacing" textLength="40" x="73.5" y="1740.8317">state</text><text fill="#D9B8FF" font-family="sans-serif" font-size="14" lengthAdjust="spacing" textLength="48" x="113.5" y="1740.8317">: string</text></g><!--class gcp_machine_type--><g id="elem_gcp_machine_type"><rect codeLine="34" fill="#3D176E" height="205.5703" id="gcp_machine_type" rx="2.5" ry="2.5" style="stroke:#000D19;stroke-width:0.5;" width="346" x="263" y="1308.29"/><ellipse cx="349.25" cy="1328.1845" fill="#ADD1B2" rx="11" ry="11" style="stroke:#181818;stroke-width:1.0;"/><path d="M352.2188,1333.8252 Q351.6406,1334.122 351,1334.2627 Q350.3594,1334.4189 349.6563,1334.4189 Q347.1563,1334.4189 345.8281,1332.7783 Q344.5156,1331.122 344.5156,1327.997 Q344.5156,1324.872 345.8281,1323.2158 Q347.1563,1321.5595 349.6563,1321.5595 Q350.3594,1321.5595 351,1321.7158 Q351.6563,1321.872 352.2188,1322.1689 L352.2188,1324.8877 Q351.5938,1324.3095 351,1324.0439 Q350.4063,1323.7627 349.7813,1323.7627 Q348.4375,1323.7627 347.75,1324.8408 Q347.0625,1325.9033 347.0625,1327.997 Q347.0625,1330.0908 347.75,1331.1689 Q348.4375,1332.2314 349.7813,1332.2314 Q350.4063,1332.2314 351,1331.9658 Q351.5938,1331.6845 352.2188,1331.1064 L352.2188,1333.8252 Z " fill="#000000"/><text fill="#D9B8FF" font-family="Helvetica" font-size="17" lengthAdjust="spacing" textLength="155" x="374.75" y="1334.0698">gcp_machine_type</text><line style="stroke:#000D19;stroke-width:0.5;" x1="264" x2="608" y1="1348.0791" y2="1348.0791"/><text fill="#D9B8FF" font-family="sans-serif" font-size="14" font-weight="bold" lengthAdjust="spacing" textLength="99" x="274" y="1370.0742">accelerators</text><text fill="#D9B8FF" font-family="sans-serif" font-size="14" lengthAdjust="spacing" textLength="137" x="373" y="1370.0742">: gcp_accelerators[]</text><text fill="#D9B8FF" font-family="sans-serif" font-size="14" font-weight="bold" lengthAdjust="spacing" textLength="128" x="274" y="1396.3711">image_space_gb</text><text fill="#D9B8FF" font-family="sans-serif" font-size="14" lengthAdjust="spacing" textLength="44" x="402" y="1396.3711">: int64</text><text fill="#D9B8FF" font-family="sans-serif" font-size="14" font-weight="bold" lengthAdjust="spacing" textLength="111" x="274" y="1422.6679">is_shared_cpu</text><text fill="#D9B8FF" font-family="sans-serif" font-size="14" lengthAdjust="spacing" textLength="65" x="385" y="1422.6679">: boolean</text><text fill="#D9B8FF" font-family="sans-serif" font-size="14" font-weight="bold" lengthAdjust="spacing" textLength="210" x="274" y="1448.9648">maximum_persistent_disks</text><text fill="#D9B8FF" font-family="sans-serif" font-size="14" lengthAdjust="spacing" textLength="44" x="484" y="1448.9648">: int64</text><text fill="#D9B8FF" font-family="sans-serif" font-size="14" font-weight="bold" lengthAdjust="spacing" textLength="276" x="274" y="1475.2617">maximum_persistent_disks_size_gb</text><text fill="#D9B8FF" font-family="sans-serif" font-size="14" lengthAdjust="spacing" textLength="48" x="550" y="1475.2617">: string</text><text fill="#D9B8FF" font-family="sans-serif" font-size="14" font-weight="bold" lengthAdjust="spacing" textLength="107" x="274" y="1501.5586">scratch_disks</text><text fill="#D9B8FF" font-family="sans-serif" font-size="14" lengthAdjust="spacing" textLength="54" x="381" y="1501.5586">: int64[]</text></g><!--class gcp_resource--><g id="elem_gcp_resource"><rect codeLine="42" fill="#3D176E" height="152.9766" id="gcp_resource" rx="2.5" ry="2.5" style="stroke:#000D19;stroke-width:0.5;" width="348" x="7" y="1021.16"/><ellipse cx="117.75" cy="1041.0545" fill="#ADD1B2" rx="11" ry="11" style="stroke:#181818;stroke-width:1.0;"/><path d="M120.7188,1046.6952 Q120.1406,1046.992 119.5,1047.1327 Q118.8594,1047.2889 118.1563,1047.2889 Q115.6563,1047.2889 114.3281,1045.6483 Q113.0156,1043.992 113.0156,1040.867 Q113.0156,1037.742 114.3281,1036.0858 Q115.6563,1034.4295 118.1563,1034.4295 Q118.8594,1034.4295 119.5,1034.5858 Q120.1563,1034.742 120.7188,1035.0389 L120.7188,1037.7577 Q120.0938,1037.1795 119.5,1036.9139 Q118.9063,1036.6327 118.2813,1036.6327 Q116.9375,1036.6327 116.25,1037.7108 Q115.5625,1038.7733 115.5625,1040.867 Q115.5625,1042.9608 116.25,1044.0389 Q116.9375,1045.1014 118.2813,1045.1014 Q118.9063,1045.1014 119.5,1044.8358 Q120.0938,1044.5545 120.7188,1043.9764 L120.7188,1046.6952 Z " fill="#000000"/><text fill="#D9B8FF" font-family="Helvetica" font-size="17" lengthAdjust="spacing" textLength="108" x="143.25" y="1046.9398">gcp_resource</text><line style="stroke:#000D19;stroke-width:0.5;" x1="8" x2="354" y1="1060.9491" y2="1060.9491"/><text fill="#D9B8FF" font-family="sans-serif" font-size="14" font-weight="bold" lengthAdjust="spacing" textLength="151" x="18" y="1082.9442">deprecation_status</text><text fill="#D9B8FF" font-family="sans-serif" font-size="14" lengthAdjust="spacing" textLength="175" x="169" y="1082.9442">: gcp_deprecation_status</text><text fill="#D9B8FF" font-family="sans-serif" font-size="14" font-weight="bold" lengthAdjust="spacing" textLength="89" x="18" y="1109.2411">description</text><text fill="#D9B8FF" font-family="sans-serif" font-size="14" lengthAdjust="spacing" textLength="48" x="107" y="1109.2411">: string</text><text fill="#D9B8FF" font-family="sans-serif" font-size="14" font-weight="bold" lengthAdjust="spacing" textLength="128" x="18" y="1135.5379">label_fingerprint</text><text fill="#D9B8FF" font-family="sans-serif" font-size="14" lengthAdjust="spacing" textLength="48" x="146" y="1135.5379">: string</text><text fill="#D9B8FF" font-family="sans-serif" font-size="14" font-weight="bold" lengthAdjust="spacing" textLength="27" x="18" y="1161.8348">link</text><text fill="#D9B8FF" font-family="sans-serif" font-size="14" lengthAdjust="spacing" textLength="48" x="45" y="1161.8348">: string</text></g><!--class instance_type--><g id="elem_instance_type"><rect codeLine="48" fill="#3D176E" height="179.2734" id="instance_type" rx="2.5" ry="2.5" style="stroke:#000D19;stroke-width:0.5;" width="217" x="389.5" y="1008.01"/><ellipse cx="431.05" cy="1027.9045" fill="#ADD1B2" rx="11" ry="11" style="stroke:#181818;stroke-width:1.0;"/><path d="M434.0188,1033.5452 Q433.4406,1033.842 432.8,1033.9827 Q432.1594,1034.1389 431.4563,1034.1389 Q428.9563,1034.1389 427.6281,1032.4983 Q426.3156,1030.842 426.3156,1027.717 Q426.3156,1024.592 427.6281,1022.9358 Q428.9563,1021.2795 431.4563,1021.2795 Q432.1594,1021.2795 432.8,1021.4358 Q433.4563,1021.592 434.0188,1021.8889 L434.0188,1024.6077 Q433.3938,1024.0295 432.8,1023.7639 Q432.2063,1023.4827 431.5813,1023.4827 Q430.2375,1023.4827 429.55,1024.5608 Q428.8625,1025.6233 428.8625,1027.717 Q428.8625,1029.8108 429.55,1030.8889 Q430.2375,1031.9514 431.5813,1031.9514 Q432.2063,1031.9514 432.8,1031.6858 Q433.3938,1031.4045 434.0188,1030.8264 L434.0188,1033.5452 Z " fill="#000000"/><text fill="#D9B8FF" font-family="Helvetica" font-size="17" lengthAdjust="spacing" textLength="116" x="455.95" y="1033.7898">instance_type</text><line style="stroke:#000D19;stroke-width:0.5;" x1="390.5" x2="605.5" y1="1047.7991" y2="1047.7991"/><text fill="#D9B8FF" font-family="sans-serif" font-size="14" font-weight="bold" lengthAdjust="spacing" textLength="119" x="400.5" y="1069.7942">instance_cores</text><text fill="#D9B8FF" font-family="sans-serif" font-size="14" lengthAdjust="spacing" textLength="57" x="519.5" y="1069.7942">: double</text><text fill="#D9B8FF" font-family="sans-serif" font-size="14" font-weight="bold" lengthAdjust="spacing" textLength="138" x="400.5" y="1096.0911">instance_memory</text><text fill="#D9B8FF" font-family="sans-serif" font-size="14" lengthAdjust="spacing" textLength="57" x="538.5" y="1096.0911">: double</text><text fill="#D9B8FF" font-family="sans-serif" font-size="14" font-weight="bold" lengthAdjust="spacing" textLength="109" x="400.5" y="1122.3879">instance_type</text><text fill="#D9B8FF" font-family="sans-serif" font-size="14" lengthAdjust="spacing" textLength="48" x="509.5" y="1122.3879">: string</text><text fill="#D9B8FF" font-family="sans-serif" font-size="14" font-weight="bold" lengthAdjust="spacing" textLength="124" x="400.5" y="1148.6848">ondemand_cost</text><text fill="#D9B8FF" font-family="sans-serif" font-size="14" lengthAdjust="spacing" textLength="57" x="524.5" y="1148.6848">: double</text><text fill="#D9B8FF" font-family="sans-serif" font-size="14" font-weight="bold" lengthAdjust="spacing" textLength="100" x="400.5" y="1174.9817">reservations</text><text fill="#D9B8FF" font-family="sans-serif" font-size="14" lengthAdjust="spacing" textLength="44" x="500.5" y="1174.9817">: int64</text></g><!--class phantom_resource--><g id="elem_phantom_resource"><rect codeLine="55" fill="#3D176E" height="39.7891" id="phantom_resource" rx="2.5" ry="2.5" style="stroke:#000D19;stroke-width:0.5;" width="198" x="326" y="438.75"/><ellipse cx="341" cy="458.6445" fill="#ADD1B2" rx="11" ry="11" style="stroke:#181818;stroke-width:1.0;"/><path d="M343.9688,464.2852 Q343.3906,464.582 342.75,464.7227 Q342.1094,464.8789 341.4063,464.8789 Q338.9063,464.8789 337.5781,463.2383 Q336.2656,461.582 336.2656,458.457 Q336.2656,455.332 337.5781,453.6758 Q338.9063,452.0195 341.4063,452.0195 Q342.1094,452.0195 342.75,452.1758 Q343.4063,452.332 343.9688,452.6289 L343.9688,455.3477 Q343.3438,454.7695 342.75,454.5039 Q342.1563,454.2227 341.5313,454.2227 Q340.1875,454.2227 339.5,455.3008 Q338.8125,456.3633 338.8125,458.457 Q338.8125,460.5508 339.5,461.6289 Q340.1875,462.6914 341.5313,462.6914 Q342.1563,462.6914 342.75,462.4258 Q343.3438,462.1445 343.9688,461.5664 L343.9688,464.2852 Z " fill="#000000"/><text fill="#D9B8FF" font-family="Helvetica" font-size="17" lengthAdjust="spacing" textLength="156" x="360" y="464.5298">phantom_resource</text></g><!--class quota--><g id="elem_quota"><rect codeLine="58" fill="#3D176E" height="126.6797" id="quota" rx="2.5" ry="2.5" style="stroke:#000D19;stroke-width:0.5;" width="157" x="372.5" y="599.54"/><ellipse cx="417.75" cy="619.4345" fill="#ADD1B2" rx="11" ry="11" style="stroke:#181818;stroke-width:1.0;"/><path d="M420.7188,625.0752 Q420.1406,625.372 419.5,625.5127 Q418.8594,625.6689 418.1563,625.6689 Q415.6563,625.6689 414.3281,624.0283 Q413.0156,622.372 413.0156,619.247 Q413.0156,616.122 414.3281,614.4658 Q415.6563,612.8095 418.1563,612.8095 Q418.8594,612.8095 419.5,612.9658 Q420.1563,613.122 420.7188,613.4189 L420.7188,616.1377 Q420.0938,615.5595 419.5,615.2939 Q418.9063,615.0127 418.2813,615.0127 Q416.9375,615.0127 416.25,616.0908 Q415.5625,617.1533 415.5625,619.247 Q415.5625,621.3408 416.25,622.4189 Q416.9375,623.4814 418.2813,623.4814 Q418.9063,623.4814 419.5,623.2158 Q420.0938,622.9345 420.7188,622.3564 L420.7188,625.0752 Z " fill="#000000"/><text fill="#D9B8FF" font-family="Helvetica" font-size="17" lengthAdjust="spacing" textLength="48" x="443.25" y="625.3198">quota</text><line style="stroke:#000D19;stroke-width:0.5;" x1="373.5" x2="528.5" y1="639.3291" y2="639.3291"/><text fill="#D9B8FF" font-family="sans-serif" font-size="14" font-weight="bold" lengthAdjust="spacing" textLength="45" x="383.5" y="661.3242">quota</text><text fill="#D9B8FF" font-family="sans-serif" font-size="14" lengthAdjust="spacing" textLength="57" x="428.5" y="661.3242">: double</text><text fill="#D9B8FF" font-family="sans-serif" font-size="14" font-weight="bold" lengthAdjust="spacing" textLength="87" x="383.5" y="687.6211">quota_type</text><text fill="#D9B8FF" font-family="sans-serif" font-size="14" lengthAdjust="spacing" textLength="48" x="470.5" y="687.6211">: string</text><text fill="#D9B8FF" font-family="sans-serif" font-size="14" font-weight="bold" lengthAdjust="spacing" textLength="48" x="383.5" y="713.9179">usage</text><text fill="#D9B8FF" font-family="sans-serif" font-size="14" lengthAdjust="spacing" textLength="57" x="431.5" y="713.9179">: double</text></g><!--class resource--><g id="elem_resource"><rect codeLine="63" fill="#3D176E" height="310.7578" id="resource" rx="2.5" ry="2.5" style="stroke:#000D19;stroke-width:0.5;" width="227" x="184.5" y="7"/><ellipse cx="253.25" cy="26.8945" fill="#ADD1B2" rx="11" ry="11" style="stroke:#181818;stroke-width:1.0;"/><path d="M256.2188,32.5352 Q255.6406,32.832 255,32.9727 Q254.3594,33.1289 253.6563,33.1289 Q251.1563,33.1289 249.8281,31.4883 Q248.5156,29.832 248.5156,26.707 Q248.5156,23.582 249.8281,21.9258 Q251.1563,20.2695 253.6563,20.2695 Q254.3594,20.2695 255,20.4258 Q255.6563,20.582 256.2188,20.8789 L256.2188,23.5977 Q255.5938,23.0195 255,22.7539 Q254.4063,22.4727 253.7813,22.4727 Q252.4375,22.4727 251.75,23.5508 Q251.0625,24.6133 251.0625,26.707 Q251.0625,28.8008 251.75,29.8789 Q252.4375,30.9414 253.7813,30.9414 Q254.4063,30.9414 255,30.6758 Q255.5938,30.3945 256.2188,29.8164 L256.2188,32.5352 Z " fill="#000000"/><text fill="#D9B8FF" font-family="Helvetica" font-size="17" lengthAdjust="spacing" textLength="71" x="278.75" y="32.7798">resource</text><line style="stroke:#000D19;stroke-width:0.5;" x1="185.5" x2="410.5" y1="46.7891" y2="46.7891"/><text fill="#D9B8FF" font-family="sans-serif" font-size="14" font-weight="bold" lengthAdjust="spacing" textLength="29" x="195.5" y="68.7842">age</text><text fill="#D9B8FF" font-family="sans-serif" font-size="14" lengthAdjust="spacing" textLength="66" x="224.5" y="68.7842">: duration</text><text fill="#D9B8FF" font-family="sans-serif" font-size="14" font-weight="bold" lengthAdjust="spacing" textLength="43" x="195.5" y="95.0811">atime</text><text fill="#D9B8FF" font-family="sans-serif" font-size="14" lengthAdjust="spacing" textLength="70" x="238.5" y="95.0811">: datetime</text><text fill="#D9B8FF" font-family="sans-serif" font-size="14" font-weight="bold" lengthAdjust="spacing" textLength="43" x="195.5" y="121.3779">ctime</text><text fill="#D9B8FF" font-family="sans-serif" font-size="14" lengthAdjust="spacing" textLength="70" x="238.5" y="121.3779">: datetime</text><text fill="#D9B8FF" font-family="sans-serif" font-size="14" font-weight="bold" lengthAdjust="spacing" textLength="14" x="195.5" y="147.6748">id</text><text fill="#D9B8FF" font-family="sans-serif" font-size="14" lengthAdjust="spacing" textLength="48" x="209.5" y="147.6748">: string</text><text fill="#D9B8FF" font-family="sans-serif" font-size="14" font-weight="bold" lengthAdjust="spacing" textLength="33" x="195.5" y="173.9717">kind</text><text fill="#D9B8FF" font-family="sans-serif" font-size="14" lengthAdjust="spacing" textLength="48" x="228.5" y="173.9717">: string</text><text fill="#D9B8FF" font-family="sans-serif" font-size="14" font-weight="bold" lengthAdjust="spacing" textLength="90" x="195.5" y="200.2686">last_access</text><text fill="#D9B8FF" font-family="sans-serif" font-size="14" lengthAdjust="spacing" textLength="66" x="285.5" y="200.2686">: duration</text><text fill="#D9B8FF" font-family="sans-serif" font-size="14" font-weight="bold" lengthAdjust="spacing" textLength="90" x="195.5" y="226.5654">last_update</text><text fill="#D9B8FF" font-family="sans-serif" font-size="14" lengthAdjust="spacing" textLength="66" x="285.5" y="226.5654">: duration</text><text fill="#D9B8FF" font-family="sans-serif" font-size="14" font-weight="bold" lengthAdjust="spacing" textLength="48" x="195.5" y="252.8623">mtime</text><text fill="#D9B8FF" font-family="sans-serif" font-size="14" lengthAdjust="spacing" textLength="70" x="243.5" y="252.8623">: datetime</text><text fill="#D9B8FF" font-family="sans-serif" font-size="14" font-weight="bold" lengthAdjust="spacing" textLength="43" x="195.5" y="279.1592">name</text><text fill="#D9B8FF" font-family="sans-serif" font-size="14" lengthAdjust="spacing" textLength="48" x="238.5" y="279.1592">: string</text><text fill="#D9B8FF" font-family="sans-serif" font-size="14" font-weight="bold" lengthAdjust="spacing" textLength="34" x="195.5" y="305.4561">tags</text><text fill="#D9B8FF" font-family="sans-serif" font-size="14" lengthAdjust="spacing" textLength="171" x="229.5" y="305.4561">: dictionary[string, string]</text></g><!--class type--><g id="elem_type"><rect codeLine="75" fill="#3D176E" height="39.7891" id="type" rx="2.5" ry="2.5" style="stroke:#000D19;stroke-width:0.5;" width="79" x="455.5" y="847.22"/><ellipse cx="470.5" cy="867.1145" fill="#ADD1B2" rx="11" ry="11" style="stroke:#181818;stroke-width:1.0;"/><path d="M473.4688,872.7552 Q472.8906,873.052 472.25,873.1927 Q471.6094,873.3489 470.9063,873.3489 Q468.4063,873.3489 467.0781,871.7083 Q465.7656,870.052 465.7656,866.927 Q465.7656,863.802 467.0781,862.1458 Q468.4063,860.4895 470.9063,860.4895 Q471.6094,860.4895 472.25,860.6458 Q472.9063,860.802 473.4688,861.0989 L473.4688,863.8177 Q472.8438,863.2395 472.25,862.9739 Q471.6563,862.6927 471.0313,862.6927 Q469.6875,862.6927 469,863.7708 Q468.3125,864.8333 468.3125,866.927 Q468.3125,869.0208 469,870.0989 Q469.6875,871.1614 471.0313,871.1614 Q471.6563,871.1614 472.25,870.8958 Q472.8438,870.6145 473.4688,870.0364 L473.4688,872.7552 Z " fill="#000000"/><text fill="#D9B8FF" font-family="Helvetica" font-size="17" lengthAdjust="spacing" textLength="37" x="489.5" y="872.9998">type</text></g><!--link gcp_machine_type to gcp_accelerators--><g id="link_gcp_machine_type_gcp_accelerators"><path codeLine="78" d="M447.84,1514.29 C451.78,1548.37 455.3094,1578.8399 458.5794,1607.0599 " fill="none" id="gcp_machine_type-to-gcp_accelerators" style="stroke:#FFAF37;stroke-width:2.0;"/><polygon fill="#FFAF37" points="459.27,1613.02,462.2075,1603.6194,458.6945,1608.0532,454.2606,1604.5402,459.27,1613.02" style="stroke:#FFAF37;stroke-width:2.0;"/></g><!--link gcp_machine_type to gcp_deprecation_status--><g id="link_gcp_machine_type_gcp_deprecation_status"><path codeLine="79" d="M331.91,1514.29 C311.95,1533.9 295.4609,1550.086 275.9609,1569.236 " fill="none" id="gcp_machine_type-to-gcp_deprecation_status" style="stroke:#FFAF37;stroke-width:2.0;"/><polygon fill="#FFAF37" points="271.68,1573.44,280.904,1569.9879,275.2474,1569.9366,275.2986,1564.28,271.68,1573.44" style="stroke:#FFAF37;stroke-width:2.0;"/></g><!--reverse link gcp_resource to gcp_machine_type--><g id="link_gcp_resource_gcp_machine_type"><path codeLine="80" d="M254.4545,1188.3561 C287.3345,1228.5061 316.77,1264.46 352.4,1307.97 " fill="none" id="gcp_resource-backto-gcp_machine_type" style="stroke:#FFAF37;stroke-width:2.0;"/><polygon fill="none" points="243.05,1174.43,249.8125,1192.1576,259.0966,1184.5546,243.05,1174.43" style="stroke:#FFAF37;stroke-width:2.0;"/></g><!--reverse link instance_type to gcp_machine_type--><g id="link_instance_type_gcp_machine_type"><path codeLine="81" d="M476.8062,1205.1237 C469.3262,1242.7037 464.08,1269.04 456.33,1307.94 " fill="none" id="instance_type-backto-gcp_machine_type" style="stroke:#FFAF37;stroke-width:2.0;"/><polygon fill="none" points="480.32,1187.47,470.9216,1203.9524,482.6907,1206.295,480.32,1187.47" style="stroke:#FFAF37;stroke-width:2.0;"/></g><!--link gcp_resource to gcp_deprecation_status--><g id="link_gcp_resource_gcp_deprecation_status"><path codeLine="82" d="M181,1174.4 C181,1278.02 181,1457.61 181,1567.66 " fill="none" id="gcp_resource-to-gcp_deprecation_status" style="stroke:#FFAF37;stroke-width:2.0;"/><polygon fill="#FFAF37" points="181,1573.66,185,1564.66,181,1568.66,177,1564.66,181,1573.66" style="stroke:#FFAF37;stroke-width:2.0;"/></g><!--reverse link resource to gcp_resource--><g id="link_resource_gcp_resource"><path codeLine="83" d="M270.4803,335.8475 C265.0003,380.7675 263,412.12 263,457.65 C263,457.65 263,457.65 263,868.12 C263,921.23 243.14,977.42 222.96,1020.79 " fill="none" id="resource-backto-gcp_resource" style="stroke:#FFAF37;stroke-width:2.0;"/><polygon fill="none" points="272.66,317.98,264.5244,335.121,276.4361,336.5741,272.66,317.98" style="stroke:#FFAF37;stroke-width:2.0;"/></g><!--reverse link type to instance_type--><g id="link_type_instance_type"><path codeLine="84" d="M495.4877,905.2084 C495.8377,931.7084 496.25,963.38 496.83,1007.7 " fill="none" id="type-backto-instance_type" style="stroke:#FFAF37;stroke-width:2.0;"/><polygon fill="none" points="495.25,887.21,489.4882,905.2877,501.4872,905.1292,495.25,887.21" style="stroke:#FFAF37;stroke-width:2.0;"/></g><!--reverse link resource to phantom_resource--><g id="link_resource_phantom_resource"><path codeLine="85" d="M371.7922,334.3667 C392.6322,382.6567 405.89,413.36 416.81,438.67 " fill="none" id="resource-backto-phantom_resource" style="stroke:#FFAF37;stroke-width:2.0;"/><polygon fill="none" points="364.66,317.84,366.2833,336.7441,377.3011,331.9893,364.66,317.84" style="stroke:#FFAF37;stroke-width:2.0;"/></g><!--reverse link phantom_resource to quota--><g id="link_phantom_resource_quota"><path codeLine="86" d="M429.7898,496.8925 C433.3298,524.3725 437.65,558.07 442.97,599.44 " fill="none" id="phantom_resource-backto-quota" style="stroke:#FFAF37;stroke-width:2.0;"/><polygon fill="none" points="427.49,479.04,423.8389,497.6591,435.7406,496.1259,427.49,479.04" style="stroke:#FFAF37;stroke-width:2.0;"/></g><!--reverse link quota to type--><g id="link_quota_type"><path codeLine="87" d="M468.4485,744.0781 C477.4885,785.6081 484.91,819.74 490.86,847.09 " fill="none" id="quota-backto-type" style="stroke:#FFAF37;stroke-width:2.0;"/><polygon fill="none" points="464.62,726.49,462.5858,745.3543,474.3112,742.802,464.62,726.49" style="stroke:#FFAF37;stroke-width:2.0;"/></g><!--SRC=[XLHDRvmm4BtpAv1oMtMbf6cJR5LLIYDLxIMgcjwY2Wts0DPYczecwVRZltSCxCOsR7A3Ds_clHbcQ0J776NdThb4MQAncTqArO41cLyRenzlTAjDVb9LK9rVfi5FMhaN2RSWCV-CxGCwmI1bV6y4sogqDdyTX3u2szP6zugFvPq1PIc4oWMicnQilNREYB9t69ZXc_Aggb9cMlJad9zTNk2CfWr7Cr5EJq_vsIQbl2ZrRDy7nftuZVbPEBHRxN1cSoOni9vrwHc1oLcZ-_XHZr-1Sw7g_6s0VHiz6OKcmkyQuFhHiojeRIXZ7HhKRjVXpQmht5pnwdAH_EKOEMD-T7dDkW8OmnODE6ri_YTRhUeUhGlXWb41jrgzouLo5syMALxDCopjaAgpVu40nyuW0oUqAgm3ruyod78TyY39OoCrWNLfjIT7eC6k1OOIHsi7t4iSioA1DKBXu7Om4JRlSzA1tFyWaf1GOq5Nmx2eot0EmXQseMFY1Ujw7oWr6GL58Gc_XEnbqT6lGD0NKQxWmcvjc7wCKrZQvqdggIz6bbYJL263OOC6hUuDmsd2wU3tBSuZ0vqaHEV1IBY54jkYeXSq7M7nk5kXjWlJ5ehgAXQC-e0mJIvz2jTzsM8Oeb-dDhlbMB9Xj1MAemH5izVMHJbK7yt3q5umxxsrhW7bj0ndTOZzxBM3mUxm55KTaBcDtj9s1CHzgUXJx2cz6Lnvn0avOhIk_famje29-1Jeo7doTQPBj3PH629znwTp229oGKU1ZFjoK8yL1VDfO7RtO-pLn7dQlEaRq_lioDRh3xEZEivQsCjegz__NQ_NiqlEucKxGeeAFIEu8BQ7ig1-f9acfIkMpNPkv0qhbOrBDo93jVy0]--></g></svg>