<svg xmlns="http://www.w3.org/2000/svg" width="2514" height="252" viewBox="0 0 2514 252"><rect width="317" height="39.789" x="40.5" y="7" fill="#3D176E" rx="2.5" ry="2.5" style="stroke:#000d19;stroke-width:.5"/><circle cx="55.5" cy="26.895" r="11" fill="#ADD1B2" style="stroke:#181818;stroke-width:1"/><path d="M58.469 32.535q-.578.297-1.219.438-.64.156-1.344.156-2.5 0-3.828-1.64-1.312-1.657-1.312-4.782t1.312-4.781q1.328-1.656 3.828-1.656.703 0 1.344.156.656.156 1.219.453v2.719q-.625-.578-1.219-.844-.594-.281-1.219-.281-1.343 0-2.031 1.078-.687 1.062-.687 3.156T54 29.879q.688 1.062 2.031 1.062.625 0 1.219-.265.594-.281 1.219-.86z"/><text x="74.5" y="32.78" fill="#D9B8FF" font-family="Helvetica" font-size="17" textLength="275">aws_autoscaling_enabled_metric</text><rect width="236" height="39.789" x="1917" y="106.79" fill="#3D176E" rx="2.5" ry="2.5" style="stroke:#000d19;stroke-width:.5"/><circle cx="1932" cy="126.684" r="11" fill="#ADD1B2" style="stroke:#181818;stroke-width:1"/><path d="M1934.969 132.325q-.578.297-1.219.438-.64.156-1.344.156-2.5 0-3.828-1.64-1.312-1.657-1.312-4.782t1.312-4.781q1.328-1.656 3.828-1.656.703 0 1.344.156.656.156 1.219.453v2.719q-.625-.579-1.219-.844-.594-.281-1.219-.281-1.343 0-2.031 1.078-.687 1.062-.687 3.156t.687 3.172q.688 1.062 2.031 1.062.625 0 1.219-.265.594-.281 1.219-.86z"/><text x="1951" y="132.57" fill="#D9B8FF" font-family="Helvetica" font-size="17" textLength="194">aws_autoscaling_group</text><rect width="258" height="39.789" x="392" y="7" fill="#3D176E" rx="2.5" ry="2.5" style="stroke:#000d19;stroke-width:.5"/><circle cx="407" cy="26.895" r="11" fill="#ADD1B2" style="stroke:#181818;stroke-width:1"/><path d="M409.969 32.535q-.578.297-1.219.438-.64.156-1.344.156-2.5 0-3.828-1.64-1.312-1.657-1.312-4.782t1.312-4.781q1.328-1.656 3.828-1.656.703 0 1.344.156.656.156 1.219.453v2.719q-.625-.578-1.219-.844-.594-.281-1.219-.281-1.344 0-2.031 1.078-.687 1.062-.687 3.156t.687 3.172q.688 1.062 2.031 1.062.625 0 1.219-.265.594-.281 1.219-.86z"/><text x="426" y="32.78" fill="#D9B8FF" font-family="Helvetica" font-size="17" textLength="216">aws_autoscaling_instance</text><rect width="380" height="39.789" x="685" y="7" fill="#3D176E" rx="2.5" ry="2.5" style="stroke:#000d19;stroke-width:.5"/><circle cx="700" cy="26.895" r="11" fill="#ADD1B2" style="stroke:#181818;stroke-width:1"/><path d="M702.969 32.535q-.578.297-1.219.438-.64.156-1.344.156-2.5 0-3.828-1.64-1.312-1.657-1.312-4.782t1.312-4.781q1.328-1.656 3.828-1.656.703 0 1.344.156.656.156 1.219.453v2.719q-.625-.578-1.219-.844-.594-.281-1.219-.281-1.343 0-2.031 1.078-.687 1.062-.687 3.156t.687 3.172q.688 1.062 2.031 1.062.625 0 1.219-.265.594-.281 1.219-.86z"/><text x="719" y="32.78" fill="#D9B8FF" font-family="Helvetica" font-size="17" textLength="338">aws_autoscaling_instance_requirements</text><rect width="371" height="39.789" x="1100.5" y="7" fill="#3D176E" rx="2.5" ry="2.5" style="stroke:#000d19;stroke-width:.5"/><circle cx="1115.5" cy="26.895" r="11" fill="#ADD1B2" style="stroke:#181818;stroke-width:1"/><path d="M1118.469 32.535q-.578.297-1.219.438-.64.156-1.344.156-2.5 0-3.828-1.64-1.312-1.657-1.312-4.782t1.312-4.781q1.328-1.656 3.828-1.656.703 0 1.344.156.656.156 1.219.453v2.719q-.625-.578-1.219-.844-.594-.281-1.219-.281-1.343 0-2.031 1.078-.687 1.062-.687 3.156t.687 3.172q.688 1.062 2.031 1.062.625 0 1.219-.265.594-.281 1.219-.86z"/><text x="1134.5" y="32.78" fill="#D9B8FF" font-family="Helvetica" font-size="17" textLength="329">aws_autoscaling_instances_distribution</text><rect width="329" height="39.789" x="34.5" y="106.79" fill="#3D176E" rx="2.5" ry="2.5" style="stroke:#000d19;stroke-width:.5"/><circle cx="49.5" cy="126.684" r="11" fill="#ADD1B2" style="stroke:#181818;stroke-width:1"/><path d="M52.469 132.325q-.578.297-1.219.438-.64.156-1.344.156-2.5 0-3.828-1.64-1.312-1.657-1.312-4.782t1.312-4.781q1.328-1.656 3.828-1.656.703 0 1.344.156.656.156 1.219.453v2.719q-.625-.579-1.219-.844-.594-.281-1.219-.281-1.343 0-2.031 1.078-.687 1.062-.687 3.156t.687 3.172q.688 1.062 2.031 1.062.625 0 1.219-.265.594-.281 1.219-.86z"/><text x="68.5" y="132.57" fill="#D9B8FF" font-family="Helvetica" font-size="17" textLength="287">aws_autoscaling_launch_template</text><rect width="415" height="39.789" x="398.5" y="106.79" fill="#3D176E" rx="2.5" ry="2.5" style="stroke:#000d19;stroke-width:.5"/><circle cx="413.5" cy="126.684" r="11" fill="#ADD1B2" style="stroke:#181818;stroke-width:1"/><path d="M416.469 132.325q-.578.297-1.219.438-.64.156-1.344.156-2.5 0-3.828-1.64-1.312-1.657-1.312-4.782t1.312-4.781q1.328-1.656 3.828-1.656.703 0 1.344.156.656.156 1.219.453v2.719q-.625-.579-1.219-.844-.594-.281-1.219-.281-1.344 0-2.031 1.078-.687 1.062-.687 3.156t.687 3.172q.688 1.062 2.031 1.062.625 0 1.219-.265.594-.281 1.219-.86z"/><text x="432.5" y="132.57" fill="#D9B8FF" font-family="Helvetica" font-size="17" textLength="373">aws_autoscaling_launch_template_overrides</text><rect width="441" height="39.789" x="848.5" y="106.79" fill="#3D176E" rx="2.5" ry="2.5" style="stroke:#000d19;stroke-width:.5"/><circle cx="863.5" cy="126.684" r="11" fill="#ADD1B2" style="stroke:#181818;stroke-width:1"/><path d="M866.469 132.325q-.578.297-1.219.438-.64.156-1.344.156-2.5 0-3.828-1.64-1.312-1.657-1.312-4.782t1.312-4.781q1.328-1.656 3.828-1.656.703 0 1.344.156.656.156 1.219.453v2.719q-.625-.579-1.219-.844-.594-.281-1.219-.281-1.343 0-2.031 1.078-.687 1.062-.687 3.156t.687 3.172q.688 1.062 2.031 1.062.625 0 1.219-.265.594-.281 1.219-.86z"/><text x="882.5" y="132.57" fill="#D9B8FF" font-family="Helvetica" font-size="17" textLength="399">aws_autoscaling_launch_template_specification</text><rect width="267" height="39.789" x="1324.5" y="106.79" fill="#3D176E" rx="2.5" ry="2.5" style="stroke:#000d19;stroke-width:.5"/><circle cx="1339.5" cy="126.684" r="11" fill="#ADD1B2" style="stroke:#181818;stroke-width:1"/><path d="M1342.469 132.325q-.578.297-1.219.438-.64.156-1.344.156-2.5 0-3.828-1.64-1.312-1.657-1.312-4.782t1.312-4.781q1.328-1.656 3.828-1.656.703 0 1.344.156.656.156 1.219.453v2.719q-.625-.579-1.219-.844-.594-.281-1.219-.281-1.343 0-2.031 1.078-.687 1.062-.687 3.156t.687 3.172q.688 1.062 2.031 1.062.625 0 1.219-.265.594-.281 1.219-.86z"/><text x="1358.5" y="132.57" fill="#D9B8FF" font-family="Helvetica" font-size="17" textLength="225">aws_autoscaling_min_max</text><rect width="384" height="39.789" x="7" y="206.58" fill="#3D176E" rx="2.5" ry="2.5" style="stroke:#000d19;stroke-width:.5"/><circle cx="22" cy="226.475" r="11" fill="#ADD1B2" style="stroke:#181818;stroke-width:1"/><path d="M24.969 232.115q-.578.297-1.219.438-.64.156-1.344.156-2.5 0-3.828-1.64-1.312-1.657-1.312-4.782t1.312-4.781q1.328-1.656 3.828-1.656.703 0 1.344.156.656.156 1.219.453v2.719q-.625-.578-1.219-.844-.594-.281-1.219-.281-1.343 0-2.031 1.078-.687 1.062-.687 3.156t.687 3.172q.688 1.062 2.031 1.062.625 0 1.219-.265.594-.281 1.219-.86z"/><text x="41" y="232.36" fill="#D9B8FF" font-family="Helvetica" font-size="17" textLength="342">aws_autoscaling_mixed_instances_policy</text><rect width="346" height="39.789" x="426" y="206.58" fill="#3D176E" rx="2.5" ry="2.5" style="stroke:#000d19;stroke-width:.5"/><circle cx="441" cy="226.475" r="11" fill="#ADD1B2" style="stroke:#181818;stroke-width:1"/><path d="M443.969 232.115q-.578.297-1.219.438-.64.156-1.344.156-2.5 0-3.828-1.64-1.312-1.657-1.312-4.782t1.312-4.781q1.328-1.656 3.828-1.656.703 0 1.344.156.656.156 1.219.453v2.719q-.625-.578-1.219-.844-.594-.281-1.219-.281-1.344 0-2.031 1.078-.687 1.062-.687 3.156t.687 3.172q.688 1.062 2.031 1.062.625 0 1.219-.265.594-.281 1.219-.86z"/><text x="460" y="232.36" fill="#D9B8FF" font-family="Helvetica" font-size="17" textLength="304">aws_autoscaling_suspended_process</text><rect width="401" height="39.789" x="807.5" y="206.58" fill="#3D176E" rx="2.5" ry="2.5" style="stroke:#000d19;stroke-width:.5"/><circle cx="822.5" cy="226.475" r="11" fill="#ADD1B2" style="stroke:#181818;stroke-width:1"/><path d="M825.469 232.115q-.578.297-1.219.438-.64.156-1.344.156-2.5 0-3.828-1.64-1.312-1.657-1.312-4.782t1.312-4.781q1.328-1.656 3.828-1.656.703 0 1.344.156.656.156 1.219.453v2.719q-.625-.578-1.219-.844-.594-.281-1.219-.281-1.343 0-2.031 1.078-.687 1.062-.687 3.156t.687 3.172q.688 1.062 2.031 1.062.625 0 1.219-.265.594-.281 1.219-.86z"/><text x="841.5" y="232.36" fill="#D9B8FF" font-family="Helvetica" font-size="17" textLength="359">aws_autoscaling_warm_pool_configuration</text><rect width="283" height="39.789" x="1506.5" y="7" fill="#3D176E" rx="2.5" ry="2.5" style="stroke:#000d19;stroke-width:.5"/><circle cx="1521.5" cy="26.895" r="11" fill="#ADD1B2" style="stroke:#181818;stroke-width:1"/><path d="M1524.469 32.535q-.578.297-1.219.438-.64.156-1.344.156-2.5 0-3.828-1.64-1.312-1.657-1.312-4.782t1.312-4.781q1.328-1.656 3.828-1.656.703 0 1.344.156.656.156 1.219.453v2.719q-.625-.578-1.219-.844-.594-.281-1.219-.281-1.343 0-2.031 1.078-.687 1.062-.687 3.156t.687 3.172q.688 1.062 2.031 1.062.625 0 1.219-.265.594-.281 1.219-.86z"/><text x="1540.5" y="32.78" fill="#D9B8FF" font-family="Helvetica" font-size="17" textLength="241">aws_beanstalk_environment</text><rect width="192" height="39.789" x="1807" y="206.58" fill="#3D176E" rx="2.5" ry="2.5" style="stroke:#000d19;stroke-width:.5"/><circle cx="1822" cy="226.475" r="11" fill="#ADD1B2" style="stroke:#181818;stroke-width:1"/><path d="M1824.969 232.115q-.578.297-1.219.438-.64.156-1.344.156-2.5 0-3.828-1.64-1.312-1.657-1.312-4.782t1.312-4.781q1.328-1.656 3.828-1.656.703 0 1.344.156.656.156 1.219.453v2.719q-.625-.578-1.219-.844-.594-.281-1.219-.281-1.343 0-2.031 1.078-.687 1.062-.687 3.156t.687 3.172q.688 1.062 2.031 1.062.625 0 1.219-.265.594-.281 1.219-.86z"/><text x="1841" y="232.36" fill="#D9B8FF" font-family="Helvetica" font-size="17" textLength="150">aws_ec2_instance</text><rect width="263" height="39.789" x="2034.5" y="206.58" fill="#3D176E" rx="2.5" ry="2.5" style="stroke:#000d19;stroke-width:.5"/><circle cx="2049.5" cy="226.475" r="11" fill="#ADD1B2" style="stroke:#181818;stroke-width:1"/><path d="M2052.469 232.115q-.578.297-1.219.438-.64.156-1.344.156-2.5 0-3.828-1.64-1.312-1.657-1.312-4.782t1.312-4.781q1.328-1.656 3.828-1.656.703 0 1.344.156.656.156 1.219.453v2.719q-.625-.578-1.219-.844-.594-.281-1.219-.281-1.343 0-2.031 1.078-.687 1.062-.687 3.156t.687 3.172q.688 1.062 2.031 1.062.625 0 1.219-.265.594-.281 1.219-.86z"/><text x="2068.5" y="232.36" fill="#D9B8FF" font-family="Helvetica" font-size="17" textLength="221">aws_ec2_launch_template</text><rect width="265" height="39.789" x="1824.5" y="7" fill="#3D176E" rx="2.5" ry="2.5" style="stroke:#000d19;stroke-width:.5"/><circle cx="1839.5" cy="26.895" r="11" fill="#ADD1B2" style="stroke:#181818;stroke-width:1"/><path d="M1842.469 32.535q-.578.297-1.219.438-.64.156-1.344.156-2.5 0-3.828-1.64-1.312-1.657-1.312-4.782t1.312-4.781q1.328-1.656 3.828-1.656.703 0 1.344.156.656.156 1.219.453v2.719q-.625-.578-1.219-.844-.594-.281-1.219-.281-1.343 0-2.031 1.078-.687 1.062-.687 3.156t.687 3.172q.688 1.062 2.031 1.062.625 0 1.219-.265.594-.281 1.219-.86z"/><text x="1858.5" y="32.78" fill="#D9B8FF" font-family="Helvetica" font-size="17" textLength="223">aws_ecs_capacity_provider</text><rect width="210" height="39.789" x="2125" y="7" fill="#3D176E" rx="2.5" ry="2.5" style="stroke:#000d19;stroke-width:.5"/><circle cx="2140" cy="26.895" r="11" fill="#ADD1B2" style="stroke:#181818;stroke-width:1"/><path d="M2142.969 32.535q-.578.297-1.219.438-.64.156-1.344.156-2.5 0-3.828-1.64-1.312-1.657-1.312-4.782t1.312-4.781q1.328-1.656 3.828-1.656.703 0 1.344.156.656.156 1.219.453v2.719q-.625-.578-1.219-.844-.594-.281-1.219-.281-1.343 0-2.031 1.078-.687 1.062-.687 3.156t.687 3.172q.688 1.062 2.031 1.062.625 0 1.219-.265.594-.281 1.219-.86z"/><text x="2159" y="32.78" fill="#D9B8FF" font-family="Helvetica" font-size="17" textLength="168">aws_eks_nodegroup</text><rect width="137" height="39.789" x="2370.5" y="7" fill="#3D176E" rx="2.5" ry="2.5" style="stroke:#000d19;stroke-width:.5"/><circle cx="2385.5" cy="26.895" r="11" fill="#ADD1B2" style="stroke:#181818;stroke-width:1"/><path d="M2388.469 32.535q-.578.297-1.219.438-.64.156-1.344.156-2.5 0-3.828-1.64-1.312-1.657-1.312-4.782t1.312-4.781q1.328-1.656 3.828-1.656.703 0 1.344.156.656.156 1.219.453v2.719q-.625-.578-1.219-.844-.594-.281-1.219-.281-1.343 0-2.031 1.078-.687 1.062-.687 3.156t.687 3.172q.688 1.062 2.031 1.062.625 0 1.219-.265.594-.281 1.219-.86z"/><text x="2404.5" y="32.78" fill="#D9B8FF" font-family="Helvetica" font-size="17" textLength="95">aws_region</text><path fill="none" d="M2008.92 147.01c-23.14 17.14-51.95 38.478-75.08 55.618" style="stroke:#1a83af;stroke-width:2"/><path fill="#1A83AF" d="m1929.02 206.2 9.612-2.145-5.595-.832.832-5.595z" style="stroke:#1a83af;stroke-width:2"/><path fill="none" d="M2060.88 147.01c22.97 17.14 51.533 38.46 74.483 55.6" style="stroke:#1a83af;stroke-width:2"/><path fill="#1A83AF" d="m2140.17 206.2-4.817-8.59.81 5.598-5.597.811z" style="stroke:#1a83af;stroke-width:2"/><path fill="none" d="M1724.46 47.22c67.74 17.11 160.303 40.5 228.093 57.63" style="stroke:#1a83af;stroke-width:2"/><path fill="#1A83AF" d="m1958.37 106.32-7.746-6.083 2.898 4.858-4.858 2.898z" style="stroke:#1a83af;stroke-width:2"/><path fill="none" d="M1672.91 47.2c48.75 37.77 151.497 117.385 200.327 155.215" style="stroke:#1a83af;stroke-width:2"/><path fill="#1A83AF" d="m1877.98 206.09-4.665-8.674.712 5.612-5.611.712z" style="stroke:#1a83af;stroke-width:2"/><path fill="none" d="M1972.41 47.22c13.67 17.14 29.81 37.358 43.47 54.498" style="stroke:#1a83af;stroke-width:2"/><path fill="#1A83AF" d="m2019.62 106.41-2.481-9.531-.635 5.62-5.621-.634z" style="stroke:#1a83af;stroke-width:2"/><path fill="none" d="M2191.47 47.22c-34.18 17.14-78.497 39.36-112.657 56.5" style="stroke:#1a83af;stroke-width:2"/><path fill="#1A83AF" d="m2073.45 106.41 9.838-.461-5.369-1.781 1.781-5.37z" style="stroke:#1a83af;stroke-width:2"/><path fill="none" d="M2370.01 44.6c-70.77 17.13-174.898 42.328-249.378 60.358" style="stroke:#1a83af;stroke-width:2"/><path fill="#1A83AF" d="m2114.8 106.37 9.688 1.77-4.828-2.946 2.946-4.83z" style="stroke:#1a83af;stroke-width:2"/><path fill="none" d="M2399.71 47.24c-51.65 24.98-145.58 68.85-228.71 99.34-63.98 23.47-132.657 43.379-186.837 57.979" style="stroke:#1a83af;stroke-width:2"/><path fill="#1A83AF" d="m1978.37 206.12 9.73 1.52-4.902-2.821 2.821-4.903z" style="stroke:#1a83af;stroke-width:2"/></svg>