<svg xmlns="http://www.w3.org/2000/svg" width="2957" height="451" viewBox="0 0 2957 451"><rect width="245" height="39.789" x="1731" y="7" fill="#3D176E" rx="2.5" ry="2.5" style="stroke:#000d19;stroke-width:.5"/><circle cx="1746" cy="26.895" r="11" fill="#ADD1B2" style="stroke:#181818;stroke-width:1"/><path d="M1748.969 32.535q-.578.297-1.219.438-.64.156-1.344.156-2.5 0-3.828-1.64-1.312-1.657-1.312-4.782t1.312-4.781q1.328-1.656 3.828-1.656.703 0 1.344.156.656.156 1.219.453v2.719q-.625-.578-1.219-.844-.594-.281-1.219-.281-1.343 0-2.031 1.078-.687 1.062-.687 3.156t.687 3.172q.688 1.062 2.031 1.062.625 0 1.219-.265.594-.281 1.219-.86z"/><text x="1765" y="32.78" fill="#D9B8FF" font-family="Helvetica" font-size="17" textLength="203">aws_ec2_security_group</text><rect width="179" height="39.789" x="2011" y="7" fill="#3D176E" rx="2.5" ry="2.5" style="stroke:#000d19;stroke-width:.5"/><circle cx="2026" cy="26.895" r="11" fill="#ADD1B2" style="stroke:#181818;stroke-width:1"/><path d="M2028.969 32.535q-.578.297-1.219.438-.64.156-1.344.156-2.5 0-3.828-1.64-1.312-1.657-1.312-4.782t1.312-4.781q1.328-1.656 3.828-1.656.703 0 1.344.156.656.156 1.219.453v2.719q-.625-.578-1.219-.844-.594-.281-1.219-.281-1.343 0-2.031 1.078-.687 1.062-.687 3.156t.687 3.172q.688 1.062 2.031 1.062.625 0 1.219-.265.594-.281 1.219-.86z"/><text x="2045" y="32.78" fill="#D9B8FF" font-family="Helvetica" font-size="17" textLength="137">aws_ec2_subnet</text><rect width="157" height="39.789" x="2225" y="7" fill="#3D176E" rx="2.5" ry="2.5" style="stroke:#000d19;stroke-width:.5"/><circle cx="2240" cy="26.895" r="11" fill="#ADD1B2" style="stroke:#181818;stroke-width:1"/><path d="M2242.969 32.535q-.578.297-1.219.438-.64.156-1.344.156-2.5 0-3.828-1.64-1.312-1.657-1.312-4.782t1.312-4.781q1.328-1.656 3.828-1.656.703 0 1.344.156.656.156 1.219.453v2.719q-.625-.578-1.219-.844-.594-.281-1.219-.281-1.343 0-2.031 1.078-.687 1.062-.687 3.156t.687 3.172q.688 1.062 2.031 1.062.625 0 1.219-.265.594-.281 1.219-.86z"/><text x="2259" y="32.78" fill="#D9B8FF" font-family="Helvetica" font-size="17" textLength="115">aws_iam_role</text><rect width="158" height="39.789" x="2064.5" y="406.16" fill="#3D176E" rx="2.5" ry="2.5" style="stroke:#000d19;stroke-width:.5"/><circle cx="2079.5" cy="426.055" r="11" fill="#ADD1B2" style="stroke:#181818;stroke-width:1"/><path d="M2082.469 431.695q-.578.297-1.219.438-.64.156-1.344.156-2.5 0-3.828-1.64-1.312-1.657-1.312-4.782t1.312-4.781q1.328-1.656 3.828-1.656.703 0 1.344.156.656.156 1.219.453v2.719q-.625-.578-1.219-.844-.594-.281-1.219-.281-1.343 0-2.031 1.078-.687 1.062-.687 3.156t.687 3.172q.688 1.062 2.031 1.062.625 0 1.219-.265.594-.281 1.219-.86z"/><text x="2098.5" y="431.94" fill="#D9B8FF" font-family="Helvetica" font-size="17" textLength="116">aws_kms_key</text><rect width="224" height="39.789" x="1662.5" y="306.37" fill="#3D176E" rx="2.5" ry="2.5" style="stroke:#000d19;stroke-width:.5"/><circle cx="1677.5" cy="326.264" r="11" fill="#ADD1B2" style="stroke:#181818;stroke-width:1"/><path d="M1680.469 331.905q-.578.297-1.219.438-.64.156-1.344.156-2.5 0-3.828-1.64-1.312-1.657-1.312-4.782t1.312-4.781q1.328-1.656 3.828-1.656.703 0 1.344.156.656.156 1.219.453v2.719q-.625-.579-1.219-.844-.594-.281-1.219-.281-1.343 0-2.031 1.078-.687 1.062-.687 3.156t.687 3.172q.688 1.062 2.031 1.062.625 0 1.219-.265.594-.281 1.219-.86z"/><text x="1696.5" y="332.15" fill="#D9B8FF" font-family="Helvetica" font-size="17" textLength="182">aws_lambda_function</text><rect width="168" height="39.789" x="2555.5" y="406.16" fill="#3D176E" rx="2.5" ry="2.5" style="stroke:#000d19;stroke-width:.5"/><circle cx="2570.5" cy="426.055" r="11" fill="#ADD1B2" style="stroke:#181818;stroke-width:1"/><path d="M2573.469 431.695q-.578.297-1.219.438-.64.156-1.344.156-2.5 0-3.828-1.64-1.312-1.657-1.312-4.782t1.312-4.781q1.328-1.656 3.828-1.656.703 0 1.344.156.656.156 1.219.453v2.719q-.625-.578-1.219-.844-.594-.281-1.219-.281-1.343 0-2.031 1.078-.687 1.062-.687 3.156t.687 3.172q.688 1.062 2.031 1.062.625 0 1.219-.265.594-.281 1.219-.86z"/><text x="2589.5" y="431.94" fill="#D9B8FF" font-family="Helvetica" font-size="17" textLength="126">aws_s3_bucket</text><rect width="348" height="39.789" x="62.5" y="7" fill="#3D176E" rx="2.5" ry="2.5" style="stroke:#000d19;stroke-width:.5"/><circle cx="77.5" cy="26.895" r="11" fill="#ADD1B2" style="stroke:#181818;stroke-width:1"/><path d="M80.469 32.535q-.578.297-1.219.438-.64.156-1.344.156-2.5 0-3.828-1.64-1.312-1.657-1.312-4.782t1.312-4.781q1.328-1.656 3.828-1.656.703 0 1.344.156.656.156 1.219.453v2.719q-.625-.578-1.219-.844-.594-.281-1.219-.281-1.344 0-2.031 1.078-.687 1.062-.687 3.156T76 29.879q.688 1.062 2.031 1.062.625 0 1.219-.265.594-.281 1.219-.86z"/><text x="96.5" y="32.78" fill="#D9B8FF" font-family="Helvetica" font-size="17" textLength="306">aws_sagemaker_human_task_config</text><rect width="306" height="39.789" x="445.5" y="7" fill="#3D176E" rx="2.5" ry="2.5" style="stroke:#000d19;stroke-width:.5"/><circle cx="460.5" cy="26.895" r="11" fill="#ADD1B2" style="stroke:#181818;stroke-width:1"/><path d="M463.469 32.535q-.578.297-1.219.438-.64.156-1.344.156-2.5 0-3.828-1.64-1.312-1.657-1.312-4.782t1.312-4.781q1.328-1.656 3.828-1.656.703 0 1.344.156.656.156 1.219.453v2.719q-.625-.578-1.219-.844-.594-.281-1.219-.281-1.344 0-2.031 1.078-.687 1.062-.687 3.156t.687 3.172q.688 1.062 2.031 1.062.625 0 1.219-.265.594-.281 1.219-.86z"/><text x="479.5" y="32.78" fill="#D9B8FF" font-family="Helvetica" font-size="17" textLength="264">aws_sagemaker_label_counters</text><rect width="285" height="39.789" x="2149" y="206.58" fill="#3D176E" rx="2.5" ry="2.5" style="stroke:#000d19;stroke-width:.5"/><circle cx="2164" cy="226.475" r="11" fill="#ADD1B2" style="stroke:#181818;stroke-width:1"/><path d="M2166.969 232.115q-.578.297-1.219.438-.64.156-1.344.156-2.5 0-3.828-1.64-1.312-1.657-1.312-4.782t1.312-4.781q1.328-1.656 3.828-1.656.703 0 1.344.156.656.156 1.219.453v2.719q-.625-.578-1.219-.844-.594-.281-1.219-.281-1.343 0-2.031 1.078-.687 1.062-.687 3.156t.687 3.172q.688 1.062 2.031 1.062.625 0 1.219-.265.594-.281 1.219-.86z"/><text x="2183" y="232.36" fill="#D9B8FF" font-family="Helvetica" font-size="17" textLength="243">aws_sagemaker_labeling_job</text><rect width="443" height="39.789" x="787" y="7" fill="#3D176E" rx="2.5" ry="2.5" style="stroke:#000d19;stroke-width:.5"/><circle cx="802" cy="26.895" r="11" fill="#ADD1B2" style="stroke:#181818;stroke-width:1"/><path d="M804.969 32.535q-.578.297-1.219.438-.64.156-1.344.156-2.5 0-3.828-1.64-1.312-1.657-1.312-4.782t1.312-4.781q1.328-1.656 3.828-1.656.703 0 1.344.156.656.156 1.219.453v2.719q-.625-.578-1.219-.844-.594-.281-1.219-.281-1.343 0-2.031 1.078-.687 1.062-.687 3.156t.687 3.172q.688 1.062 2.031 1.062.625 0 1.219-.265.594-.281 1.219-.86z"/><text x="821" y="32.78" fill="#D9B8FF" font-family="Helvetica" font-size="17" textLength="401">aws_sagemaker_labeling_job_algorithms_config</text><rect width="394" height="39.789" x="1265.5" y="7" fill="#3D176E" rx="2.5" ry="2.5" style="stroke:#000d19;stroke-width:.5"/><circle cx="1280.5" cy="26.895" r="11" fill="#ADD1B2" style="stroke:#181818;stroke-width:1"/><path d="M1283.469 32.535q-.578.297-1.219.438-.64.156-1.344.156-2.5 0-3.828-1.64-1.312-1.657-1.312-4.782t1.312-4.781q1.328-1.656 3.828-1.656.703 0 1.344.156.656.156 1.219.453v2.719q-.625-.578-1.219-.844-.594-.281-1.219-.281-1.343 0-2.031 1.078-.687 1.062-.687 3.156t.687 3.172q.688 1.062 2.031 1.062.625 0 1.219-.265.594-.281 1.219-.86z"/><text x="1299.5" y="32.78" fill="#D9B8FF" font-family="Helvetica" font-size="17" textLength="352">aws_sagemaker_labeling_job_data_source</text><rect width="397" height="39.789" x="38" y="106.79" fill="#3D176E" rx="2.5" ry="2.5" style="stroke:#000d19;stroke-width:.5"/><circle cx="53" cy="126.684" r="11" fill="#ADD1B2" style="stroke:#181818;stroke-width:1"/><path d="M55.969 132.325q-.578.297-1.219.438-.64.156-1.344.156-2.5 0-3.828-1.64-1.312-1.657-1.312-4.782t1.312-4.781q1.328-1.656 3.828-1.656.703 0 1.344.156.656.156 1.219.453v2.719q-.625-.579-1.219-.844-.594-.281-1.219-.281-1.343 0-2.031 1.078-.687 1.062-.687 3.156t.687 3.172q.688 1.062 2.031 1.062.625 0 1.219-.265.594-.281 1.219-.86z"/><text x="72" y="132.57" fill="#D9B8FF" font-family="Helvetica" font-size="17" textLength="355">aws_sagemaker_labeling_job_input_config</text><rect width="350" height="39.789" x="470.5" y="106.79" fill="#3D176E" rx="2.5" ry="2.5" style="stroke:#000d19;stroke-width:.5"/><circle cx="485.5" cy="126.684" r="11" fill="#ADD1B2" style="stroke:#181818;stroke-width:1"/><path d="M488.469 132.325q-.578.297-1.219.438-.64.156-1.344.156-2.5 0-3.828-1.64-1.312-1.657-1.312-4.782t1.312-4.781q1.328-1.656 3.828-1.656.703 0 1.344.156.656.156 1.219.453v2.719q-.625-.579-1.219-.844-.594-.281-1.219-.281-1.344 0-2.031 1.078-.687 1.062-.687 3.156t.687 3.172q.688 1.062 2.031 1.062.625 0 1.219-.265.594-.281 1.219-.86z"/><text x="504.5" y="132.57" fill="#D9B8FF" font-family="Helvetica" font-size="17" textLength="308">aws_sagemaker_labeling_job_output</text><rect width="409" height="39.789" x="856" y="106.79" fill="#3D176E" rx="2.5" ry="2.5" style="stroke:#000d19;stroke-width:.5"/><circle cx="871" cy="126.684" r="11" fill="#ADD1B2" style="stroke:#181818;stroke-width:1"/><path d="M873.969 132.325q-.578.297-1.219.438-.64.156-1.344.156-2.5 0-3.828-1.64-1.312-1.657-1.312-4.782t1.312-4.781q1.328-1.656 3.828-1.656.703 0 1.344.156.656.156 1.219.453v2.719q-.625-.579-1.219-.844-.594-.281-1.219-.281-1.343 0-2.031 1.078-.687 1.062-.687 3.156t.687 3.172q.688 1.062 2.031 1.062.625 0 1.219-.265.594-.281 1.219-.86z"/><text x="890" y="132.57" fill="#D9B8FF" font-family="Helvetica" font-size="17" textLength="367">aws_sagemaker_labeling_job_output_config</text><rect width="424" height="39.789" x="1300.5" y="106.79" fill="#3D176E" rx="2.5" ry="2.5" style="stroke:#000d19;stroke-width:.5"/><circle cx="1315.5" cy="126.684" r="11" fill="#ADD1B2" style="stroke:#181818;stroke-width:1"/><path d="M1318.469 132.325q-.578.297-1.219.438-.64.156-1.344.156-2.5 0-3.828-1.64-1.312-1.657-1.312-4.782t1.312-4.781q1.328-1.656 3.828-1.656.703 0 1.344.156.656.156 1.219.453v2.719q-.625-.579-1.219-.844-.594-.281-1.219-.281-1.343 0-2.031 1.078-.687 1.062-.687 3.156t.687 3.172q.688 1.062 2.031 1.062.625 0 1.219-.265.594-.281 1.219-.86z"/><text x="1334.5" y="132.57" fill="#D9B8FF" font-family="Helvetica" font-size="17" textLength="382">aws_sagemaker_labeling_job_resource_config</text><rect width="459" height="39.789" x="7" y="206.58" fill="#3D176E" rx="2.5" ry="2.5" style="stroke:#000d19;stroke-width:.5"/><circle cx="22" cy="226.475" r="11" fill="#ADD1B2" style="stroke:#181818;stroke-width:1"/><path d="M24.969 232.115q-.578.297-1.219.438-.64.156-1.344.156-2.5 0-3.828-1.64-1.312-1.657-1.312-4.782t1.312-4.781q1.328-1.656 3.828-1.656.703 0 1.344.156.656.156 1.219.453v2.719q-.625-.578-1.219-.844-.594-.281-1.219-.281-1.343 0-2.031 1.078-.687 1.062-.687 3.156t.687 3.172q.688 1.062 2.031 1.062.625 0 1.219-.265.594-.281 1.219-.86z"/><text x="41" y="232.36" fill="#D9B8FF" font-family="Helvetica" font-size="17" textLength="417">aws_sagemaker_labeling_job_stopping_conditions</text><rect width="237" height="39.789" x="1978" y="106.79" fill="#3D176E" rx="2.5" ry="2.5" style="stroke:#000d19;stroke-width:.5"/><circle cx="1993" cy="126.684" r="11" fill="#ADD1B2" style="stroke:#181818;stroke-width:1"/><path d="M1995.969 132.325q-.578.297-1.219.438-.64.156-1.344.156-2.5 0-3.828-1.64-1.312-1.657-1.312-4.782t1.312-4.781q1.328-1.656 3.828-1.656.703 0 1.344.156.656.156 1.219.453v2.719q-.625-.579-1.219-.844-.594-.281-1.219-.281-1.343 0-2.031 1.078-.687 1.062-.687 3.156t.687 3.172q.688 1.062 2.031 1.062.625 0 1.219-.265.594-.281 1.219-.86z"/><text x="2012" y="132.57" fill="#D9B8FF" font-family="Helvetica" font-size="17" textLength="195">aws_sagemaker_model</text><rect width="419" height="39.789" x="501" y="206.58" fill="#3D176E" rx="2.5" ry="2.5" style="stroke:#000d19;stroke-width:.5"/><circle cx="516" cy="226.475" r="11" fill="#ADD1B2" style="stroke:#181818;stroke-width:1"/><path d="M518.969 232.115q-.578.297-1.219.438-.64.156-1.344.156-2.5 0-3.828-1.64-1.312-1.657-1.312-4.782t1.312-4.781q1.328-1.656 3.828-1.656.703 0 1.344.156.656.156 1.219.453v2.719q-.625-.578-1.219-.844-.594-.281-1.219-.281-1.343 0-2.031 1.078-.687 1.062-.687 3.156t.687 3.172q.688 1.062 2.031 1.062.625 0 1.219-.265.594-.281 1.219-.86z"/><text x="535" y="232.36" fill="#D9B8FF" font-family="Helvetica" font-size="17" textLength="377">aws_sagemaker_public_workforce_task_price</text><rect width="285" height="39.789" x="2595" y="306.37" fill="#3D176E" rx="2.5" ry="2.5" style="stroke:#000d19;stroke-width:.5"/><circle cx="2610" cy="326.264" r="11" fill="#ADD1B2" style="stroke:#181818;stroke-width:1"/><path d="M2612.969 331.905q-.578.297-1.219.438-.64.156-1.344.156-2.5 0-3.828-1.64-1.312-1.657-1.312-4.782t1.312-4.781q1.328-1.656 3.828-1.656.703 0 1.344.156.656.156 1.219.453v2.719q-.625-.579-1.219-.844-.594-.281-1.219-.281-1.343 0-2.031 1.078-.687 1.062-.687 3.156t.687 3.172q.688 1.062 2.031 1.062.625 0 1.219-.265.594-.281 1.219-.86z"/><text x="2629" y="332.15" fill="#D9B8FF" font-family="Helvetica" font-size="17" textLength="243">aws_sagemaker_training_job</text><rect width="302" height="39.789" x="1992.5" y="306.37" fill="#3D176E" rx="2.5" ry="2.5" style="stroke:#000d19;stroke-width:.5"/><circle cx="2007.5" cy="326.264" r="11" fill="#ADD1B2" style="stroke:#181818;stroke-width:1"/><path d="M2010.469 331.905q-.578.297-1.219.438-.64.156-1.344.156-2.5 0-3.828-1.64-1.312-1.657-1.312-4.782t1.312-4.781q1.328-1.656 3.828-1.656.703 0 1.344.156.656.156 1.219.453v2.719q-.625-.579-1.219-.844-.594-.281-1.219-.281-1.343 0-2.031 1.078-.687 1.062-.687 3.156t.687 3.172q.688 1.062 2.031 1.062.625 0 1.219-.265.594-.281 1.219-.86z"/><text x="2026.5" y="332.15" fill="#D9B8FF" font-family="Helvetica" font-size="17" textLength="260">aws_sagemaker_transform_job</text><rect width="260" height="39.789" x="954.5" y="206.58" fill="#3D176E" rx="2.5" ry="2.5" style="stroke:#000d19;stroke-width:.5"/><circle cx="969.5" cy="226.475" r="11" fill="#ADD1B2" style="stroke:#181818;stroke-width:1"/><path d="M972.469 232.115q-.578.297-1.219.438-.64.156-1.344.156-2.5 0-3.828-1.64-1.312-1.657-1.312-4.782t1.312-4.781q1.328-1.656 3.828-1.656.703 0 1.344.156.656.156 1.219.453v2.719q-.625-.578-1.219-.844-.594-.281-1.219-.281-1.343 0-2.031 1.078-.687 1.062-.687 3.156t.687 3.172q.688 1.062 2.031 1.062.625 0 1.219-.265.594-.281 1.219-.86z"/><text x="988.5" y="232.36" fill="#D9B8FF" font-family="Helvetica" font-size="17" textLength="218">aws_sagemaker_ui_config</text><rect width="214" height="39.789" x="1249.5" y="206.58" fill="#3D176E" rx="2.5" ry="2.5" style="stroke:#000d19;stroke-width:.5"/><circle cx="1264.5" cy="226.475" r="11" fill="#ADD1B2" style="stroke:#181818;stroke-width:1"/><path d="M1267.469 232.115q-.578.297-1.219.438-.64.156-1.344.156-2.5 0-3.828-1.64-1.312-1.657-1.312-4.782t1.312-4.781q1.328-1.656 3.828-1.656.703 0 1.344.156.656.156 1.219.453v2.719q-.625-.578-1.219-.844-.594-.281-1.219-.281-1.343 0-2.031 1.078-.687 1.062-.687 3.156t.687 3.172q.688 1.062 2.031 1.062.625 0 1.219-.265.594-.281 1.219-.86z"/><text x="1283.5" y="232.36" fill="#D9B8FF" font-family="Helvetica" font-size="17" textLength="172">aws_sagemaker_usd</text><rect width="272" height="39.789" x="100.5" y="306.37" fill="#3D176E" rx="2.5" ry="2.5" style="stroke:#000d19;stroke-width:.5"/><circle cx="115.5" cy="326.264" r="11" fill="#ADD1B2" style="stroke:#181818;stroke-width:1"/><path d="M118.469 331.905q-.578.297-1.219.438-.64.156-1.344.156-2.5 0-3.828-1.64-1.312-1.657-1.312-4.782t1.312-4.781q1.328-1.656 3.828-1.656.703 0 1.344.156.656.156 1.219.453v2.719q-.625-.579-1.219-.844-.594-.281-1.219-.281-1.344 0-2.031 1.078-.687 1.062-.687 3.156t.687 3.172q.688 1.062 2.031 1.062.625 0 1.219-.265.594-.281 1.219-.86z"/><text x="134.5" y="332.15" fill="#D9B8FF" font-family="Helvetica" font-size="17" textLength="230">aws_sagemaker_vpc_config</text><rect width="271" height="39.789" x="2464" y="106.79" fill="#3D176E" rx="2.5" ry="2.5" style="stroke:#000d19;stroke-width:.5"/><circle cx="2479" cy="126.684" r="11" fill="#ADD1B2" style="stroke:#181818;stroke-width:1"/><path d="M2481.969 132.325q-.578.297-1.219.438-.64.156-1.344.156-2.5 0-3.828-1.64-1.312-1.657-1.312-4.782t1.312-4.781q1.328-1.656 3.828-1.656.703 0 1.344.156.656.156 1.219.453v2.719q-.625-.579-1.219-.844-.594-.281-1.219-.281-1.343 0-2.031 1.078-.687 1.062-.687 3.156t.687 3.172q.688 1.062 2.031 1.062.625 0 1.219-.265.594-.281 1.219-.86z"/><text x="2498" y="132.57" fill="#D9B8FF" font-family="Helvetica" font-size="17" textLength="229">aws_sagemaker_workteam</text><rect width="160" height="39.789" x="2329.5" y="306.37" fill="#3D176E" rx="2.5" ry="2.5" style="stroke:#000d19;stroke-width:.5"/><circle cx="2344.5" cy="326.264" r="11" fill="#ADD1B2" style="stroke:#181818;stroke-width:1"/><path d="M2347.469 331.905q-.578.297-1.219.438-.64.156-1.344.156-2.5 0-3.828-1.64-1.312-1.657-1.312-4.782t1.312-4.781q1.328-1.656 3.828-1.656.703 0 1.344.156.656.156 1.219.453v2.719q-.625-.579-1.219-.844-.594-.281-1.219-.281-1.343 0-2.031 1.078-.687 1.062-.687 3.156t.687 3.172q.688 1.062 2.031 1.062.625 0 1.219-.265.594-.281 1.219-.86z"/><text x="2363.5" y="332.15" fill="#D9B8FF" font-family="Helvetica" font-size="17" textLength="118">aws_sns_topic</text><path fill="none" d="M1848.44 46.95c-14.24 53.59-52.97 199.381-67.28 253.241" style="stroke:#1a83af;stroke-width:2"/><path fill="#1A83AF" d="m1779.62 305.99 6.177-7.671-4.893 2.839-2.839-4.893z" style="stroke:#1a83af;stroke-width:2"/><path fill="none" d="M1865.42 47.22c17.47 26.63 52.61 74.16 95.08 99.36 56.77 33.69 121.146 51.932 182.326 63.002" style="stroke:#1a83af;stroke-width:2"/><path fill="#1A83AF" d="m2148.73 210.65-8.144-5.538 3.224 4.648-4.648 3.224z" style="stroke:#1a83af;stroke-width:2"/><path fill="none" d="M1901.51 47.22c42.6 17.14 98.944 39.82 141.514 56.95" style="stroke:#1a83af;stroke-width:2"/><path fill="#1A83AF" d="m2048.59 106.41-6.856-7.07 2.217 5.203-5.204 2.218z" style="stroke:#1a83af;stroke-width:2"/><path fill="none" d="M1976.31 46.94c74.98 13.23 172.26 33.27 256.19 59.85 180.99 57.34 379.992 154.61 462.331 196.47" style="stroke:#1a83af;stroke-width:2"/><path fill="#1A83AF" d="m2700.18 305.98-6.21-7.644 1.753 5.378-5.378 1.753z" style="stroke:#1a83af;stroke-width:2"/><path fill="none" d="M2057.31 47.28c-29.02 14.17-67.21 35.11-96.81 59.51-75.92 62.58-142.013 153.677-169.803 194.317" style="stroke:#1a83af;stroke-width:2"/><path fill="#1A83AF" d="m1787.31 306.06 8.382-5.171-5.56 1.044-1.044-5.56z" style="stroke:#1a83af;stroke-width:2"/><path fill="none" d="M2146.56 47.29c27.66 13.47 62 33.64 85.94 59.5 27.35 29.56 42.997 68.473 51.347 93.743" style="stroke:#1a83af;stroke-width:2"/><path fill="#1A83AF" d="m2285.73 206.23.974-9.8-2.543 5.052-5.053-2.543z" style="stroke:#1a83af;stroke-width:2"/><path fill="none" d="m2099.71 47.22-2.175 53.195" style="stroke:#1a83af;stroke-width:2"/><path fill="#1A83AF" d="m2097.29 106.41 4.364-8.83-4.16 3.834-3.833-4.16z" style="stroke:#1a83af;stroke-width:2"/><path fill="none" d="M2190.34 44.2c5.8.92 11.56 1.79 17.16 2.59 120.61 17.27 463.69-30.74 545 60 50.49 56.35 15.89 151.642-3.12 193.722" style="stroke:#1a83af;stroke-width:2"/><path fill="#1A83AF" d="m2746.91 305.98 7.35-6.555-5.292 1.998-1.998-5.292z" style="stroke:#1a83af;stroke-width:2"/><path fill="none" d="M2302.33 47.2c-2.3 37.78-6.986 115.071-9.286 152.901" style="stroke:#1a83af;stroke-width:2"/><path fill="#1A83AF" d="m2292.68 206.09 4.539-8.74-4.236 3.75-3.75-4.236z" style="stroke:#1a83af;stroke-width:2"/><path fill="none" d="M2262.6 47.22c-36.29 17.14-83.595 39.498-119.865 56.628" style="stroke:#1a83af;stroke-width:2"/><path fill="#1A83AF" d="m2137.31 106.41 9.846-.227-5.325-1.908 1.909-5.325z" style="stroke:#1a83af;stroke-width:2"/><path fill="none" d="M2382.28 30.02c115.94 4.96 323.84 21.54 370.22 76.77 48.53 57.8 15.21 151.834-3.3 193.624" style="stroke:#1a83af;stroke-width:2"/><path fill="#1A83AF" d="m2746.77 305.9 7.302-6.609-5.277 2.037-2.037-5.277z" style="stroke:#1a83af;stroke-width:2"/><path fill="none" d="M1847.4 346.59c64.59 17.11 152.6 40.433 217.23 57.563" style="stroke:#1a83af;stroke-width:2"/><path fill="#1A83AF" d="m2070.43 405.69-7.675-6.172 2.842 4.891-4.891 2.842z" style="stroke:#1a83af;stroke-width:2"/><path fill="none" d="M2148.92 245.76c-73.07 12.6-151.27 32.26-173.42 60.61-34.73 44.47 31.708 77.362 92.028 97.472" style="stroke:#1a83af;stroke-width:2"/><path fill="#1A83AF" d="m2073.22 405.74-7.273-6.641 2.53 5.06-5.06 2.53z" style="stroke:#1a83af;stroke-width:2"/><path fill="none" d="M2189.05 246.86c-90.52 17.12-215.945 40.845-306.405 57.955" style="stroke:#1a83af;stroke-width:2"/><path fill="#1A83AF" d="m1876.75 305.93 9.587 2.258-4.674-3.187 3.187-4.674z" style="stroke:#1a83af;stroke-width:2"/><path fill="none" d="M2364.76 246.84c43.08 13.17 97.58 33.05 141.74 59.53 46.71 28.01 87.99 69.191 111.77 94.951" style="stroke:#1a83af;stroke-width:2"/><path fill="#1A83AF" d="m2622.34 405.73-3.166-9.326-.226 5.652-5.652-.226z" style="stroke:#1a83af;stroke-width:2"/><path fill="none" d="M2379.88 246.86c78.09 17.12 185.52 40.675 263.55 57.785" style="stroke:#1a83af;stroke-width:2"/><path fill="#1A83AF" d="m2649.29 305.93-7.934-5.835 3.05 4.764-4.764 3.05z" style="stroke:#1a83af;stroke-width:2"/><path fill="none" d="M2262.26 246.8c-25.95 17.14-58.645 38.741-84.575 55.881" style="stroke:#1a83af;stroke-width:2"/><path fill="#1A83AF" d="m2172.68 305.99 9.714-1.626-5.543-1.131 1.131-5.543z" style="stroke:#1a83af;stroke-width:2"/><path fill="none" d="M2314.81 246.8c20.69 17.14 46.13 38.221 66.81 55.361" style="stroke:#1a83af;stroke-width:2"/><path fill="#1A83AF" d="m2386.24 305.99-4.377-8.823.527 5.632-5.632.528z" style="stroke:#1a83af;stroke-width:2"/><path fill="none" d="M2215.48 136.44c201.89 17.59 597.9 64.91 682.02 169.93 52.63 65.71-73.789 95.721-167.769 108.991" style="stroke:#1a83af;stroke-width:2"/><path fill="#1A83AF" d="m2723.79 416.2 9.47 2.702-4.52-3.401 3.402-4.52z" style="stroke:#1a83af;stroke-width:2"/><path fill="none" d="M2135.03 147.01c34.18 17.14 78.497 39.37 112.657 56.5" style="stroke:#1a83af;stroke-width:2"/><path fill="#1A83AF" d="m2253.05 206.2-6.252-7.61 1.783 5.369-5.37 1.782z" style="stroke:#1a83af;stroke-width:2"/><path fill="none" d="M2101.09 146.99c8.99 37.77 27.411 115.223 36.411 153.053" style="stroke:#1a83af;stroke-width:2"/><path fill="#1A83AF" d="m2138.89 305.88 1.808-9.681-2.965 4.817-4.817-2.966z" style="stroke:#1a83af;stroke-width:2"/><path fill="none" d="M2619.79 346.64c-117.7 19.38-289.52 47.665-391.3 64.425" style="stroke:#1a83af;stroke-width:2"/><path fill="#1A83AF" d="m2222.57 412.04 9.53 2.484-4.596-3.296 3.296-4.597z" style="stroke:#1a83af;stroke-width:2"/><path fill="none" d="M2718.14 346.59c-17.18 17.14-37.904 37.811-55.074 54.951" style="stroke:#1a83af;stroke-width:2"/><path fill="#1A83AF" d="m2658.82 405.78 9.195-3.527-5.656-.005.005-5.657z" style="stroke:#1a83af;stroke-width:2"/><path fill="none" d="M2143.5 346.59v53.19" style="stroke:#1a83af;stroke-width:2"/><path fill="#1A83AF" d="m2143.5 405.78 4-9-4 4-4-4z" style="stroke:#1a83af;stroke-width:2"/><path fill="none" d="M2241.79 346.64c91.5 18.05 220.573 43.49 307.343 60.6" style="stroke:#1a83af;stroke-width:2"/><path fill="#1A83AF" d="m2555.02 408.4-8.056-5.666 3.15 4.699-4.698 3.15z" style="stroke:#1a83af;stroke-width:2"/><path fill="none" d="M2538.65 147.01c-53.91 17.11-126.491 40.154-180.441 57.284" style="stroke:#1a83af;stroke-width:2"/><path fill="#1A83AF" d="m2352.49 206.11 9.789 1.089-5.023-2.602 2.602-5.023z" style="stroke:#1a83af;stroke-width:2"/><path fill="none" d="M2580.94 146.99c-36.33 37.77-112.261 116.735-148.641 154.565" style="stroke:#1a83af;stroke-width:2"/><path fill="#1A83AF" d="m2428.14 305.88 9.122-3.714-5.656.11-.11-5.656z" style="stroke:#1a83af;stroke-width:2"/><path fill="none" d="M2356.95 346.59a661893 661893 0 0 0-155.379 57.119" style="stroke:#1a83af;stroke-width:2"/><path fill="#1A83AF" d="m2195.94 405.78 9.828.647-5.135-2.373 2.373-5.135z" style="stroke:#1a83af;stroke-width:2"/></svg>