<svg xmlns="http://www.w3.org/2000/svg" width="1808" height="1932" viewBox="0 0 1808 1932"><rect width="227" height="74.086" x="886.5" y="672.64" fill="#3D176E" rx="2.5" ry="2.5" style="stroke:#000d19;stroke-width:.5"/><circle cx="966.25" cy="692.534" r="11" fill="#ADD1B2" style="stroke:#181818;stroke-width:1"/><path d="M969.219 698.175q-.578.297-1.219.438-.64.156-1.344.156-2.5 0-3.828-1.64-1.312-1.657-1.312-4.782t1.312-4.781q1.328-1.657 3.828-1.657.703 0 1.344.157.656.156 1.219.453v2.719q-.625-.579-1.219-.844-.594-.281-1.219-.281-1.343 0-2.031 1.078-.687 1.062-.687 3.156t.687 3.172q.688 1.062 2.031 1.062.625 0 1.219-.265.594-.282 1.219-.86z"/><text x="991.75" y="698.42" fill="#D9B8FF" font-family="Helvetica" font-size="17" textLength="49">ai_job</text><path d="M887.5 712.429h225" style="stroke:#000d19;stroke-width:.5"/><text x="897.5" y="734.424" fill="#D9B8FF" font-family="sans-serif" font-size="14" font-weight="bold" textLength="100">ai_job_status</text><text x="997.5" y="734.424" fill="#D9B8FF" font-family="sans-serif" font-size="14" textLength="105">: a_i_job_status</text><rect width="137" height="39.789" x="953.5" y="438.76" fill="#3D176E" rx="2.5" ry="2.5" style="stroke:#000d19;stroke-width:.5"/><circle cx="968.5" cy="458.654" r="11" fill="#ADD1B2" style="stroke:#181818;stroke-width:1"/><path d="M971.469 464.295q-.578.297-1.219.438-.64.156-1.344.156-2.5 0-3.828-1.64-1.312-1.657-1.312-4.782t1.312-4.781q1.328-1.656 3.828-1.656.703 0 1.344.156.656.156 1.219.453v2.719q-.625-.579-1.219-.844-.594-.281-1.219-.281-1.343 0-2.031 1.078-.687 1.062-.687 3.156t.687 3.172q.688 1.062 2.031 1.062.625 0 1.219-.265.594-.281 1.219-.86z"/><text x="987.5" y="464.54" fill="#D9B8FF" font-family="Helvetica" font-size="17" textLength="95">ai_resource</text><rect width="548" height="74.086" x="7" y="1477.75" fill="#3D176E" rx="2.5" ry="2.5" style="stroke:#000d19;stroke-width:.5"/><circle cx="89.25" cy="1497.645" r="11" fill="#ADD1B2" style="stroke:#181818;stroke-width:1"/><path d="M92.219 1503.285q-.578.297-1.219.438-.64.156-1.344.156-2.5 0-3.828-1.64-1.312-1.657-1.312-4.782t1.312-4.781q1.328-1.656 3.828-1.656.703 0 1.344.156.656.156 1.219.453v2.719q-.625-.578-1.219-.844-.594-.281-1.219-.281-1.344 0-2.031 1.078-.687 1.062-.687 3.156t.687 3.172q.688 1.062 2.031 1.062.625 0 1.219-.265.594-.281 1.219-.86z"/><text x="114.75" y="1503.53" fill="#D9B8FF" font-family="Helvetica" font-size="17" textLength="365">aws_bedrock_automated_evaluation_config</text><path d="M8 1517.539h546" style="stroke:#000d19;stroke-width:.5"/><text x="18" y="1539.534" fill="#D9B8FF" font-family="sans-serif" font-size="14" font-weight="bold" textLength="181">dataset_metric_configs</text><text x="199" y="1539.534" fill="#D9B8FF" font-family="sans-serif" font-size="14" textLength="345">: aws_bedrock_evaluation_dataset_metric_config[]</text><rect width="382" height="100.383" x="1419" y="1651.29" fill="#3D176E" rx="2.5" ry="2.5" style="stroke:#000d19;stroke-width:.5"/><circle cx="1434" cy="1671.185" r="11" fill="#ADD1B2" style="stroke:#181818;stroke-width:1"/><path d="M1436.969 1676.825q-.578.297-1.219.438-.64.156-1.344.156-2.5 0-3.828-1.64-1.312-1.657-1.312-4.782t1.312-4.781q1.328-1.656 3.828-1.656.703 0 1.344.156.656.156 1.219.453v2.719q-.625-.578-1.219-.844-.594-.281-1.219-.281-1.343 0-2.031 1.078-.687 1.062-.687 3.156t.687 3.172q.688 1.062 2.031 1.062.625 0 1.219-.265.594-.281 1.219-.86z"/><text x="1453" y="1677.07" fill="#D9B8FF" font-family="Helvetica" font-size="17" textLength="340">aws_bedrock_evaluation_bedrock_model</text><path d="M1420 1691.079h380" style="stroke:#000d19;stroke-width:.5"/><text x="1430" y="1713.074" fill="#D9B8FF" font-family="sans-serif" font-size="14" font-weight="bold" textLength="141">inference_params</text><text x="1571" y="1713.074" fill="#D9B8FF" font-family="sans-serif" font-size="14" textLength="48">: string</text><text x="1430" y="1739.371" fill="#D9B8FF" font-family="sans-serif" font-size="14" font-weight="bold" textLength="126">model_identifier</text><text x="1556" y="1739.371" fill="#D9B8FF" font-family="sans-serif" font-size="14" textLength="48">: string</text><rect width="414" height="100.383" x="657" y="1291.07" fill="#3D176E" rx="2.5" ry="2.5" style="stroke:#000d19;stroke-width:.5"/><circle cx="722.75" cy="1310.965" r="11" fill="#ADD1B2" style="stroke:#181818;stroke-width:1"/><path d="M725.719 1316.605q-.578.297-1.219.438-.64.156-1.344.156-2.5 0-3.828-1.64-1.312-1.657-1.312-4.782t1.312-4.781q1.328-1.657 3.828-1.657.703 0 1.344.157.656.156 1.219.453v2.719q-.625-.578-1.219-.844-.594-.281-1.219-.281-1.343 0-2.031 1.078-.687 1.062-.687 3.156t.687 3.172q.688 1.062 2.031 1.062.625 0 1.219-.265.594-.282 1.219-.86z"/><text x="748.25" y="1316.85" fill="#D9B8FF" font-family="Helvetica" font-size="17" textLength="264">aws_bedrock_evaluation_config</text><path d="M658 1330.859h412" style="stroke:#000d19;stroke-width:.5"/><text x="668" y="1352.854" fill="#D9B8FF" font-family="sans-serif" font-size="14" font-weight="bold" textLength="84">automated</text><text x="752" y="1352.854" fill="#D9B8FF" font-family="sans-serif" font-size="14" textLength="308">: aws_bedrock_automated_evaluation_config</text><text x="668" y="1379.151" fill="#D9B8FF" font-family="sans-serif" font-size="14" font-weight="bold" textLength="53">human</text><text x="721" y="1379.151" fill="#D9B8FF" font-family="sans-serif" font-size="14" textLength="281">: aws_bedrock_human_evaluation_config</text><rect width="318" height="100.383" x="122" y="1824.82" fill="#3D176E" rx="2.5" ry="2.5" style="stroke:#000d19;stroke-width:.5"/><circle cx="137" cy="1844.715" r="11" fill="#ADD1B2" style="stroke:#181818;stroke-width:1"/><path d="M139.969 1850.355q-.578.297-1.219.438-.64.156-1.344.156-2.5 0-3.828-1.64-1.312-1.657-1.312-4.782t1.312-4.781q1.328-1.657 3.828-1.657.703 0 1.344.157.656.156 1.219.453v2.719q-.625-.578-1.219-.844-.594-.281-1.219-.281-1.344 0-2.031 1.078-.687 1.062-.687 3.156t.687 3.172q.688 1.062 2.031 1.062.625 0 1.219-.265.594-.282 1.219-.86z"/><text x="156" y="1850.6" fill="#D9B8FF" font-family="Helvetica" font-size="17" textLength="276">aws_bedrock_evaluation_dataset</text><path d="M123 1864.609h316" style="stroke:#000d19;stroke-width:.5"/><text x="133" y="1886.604" fill="#D9B8FF" font-family="sans-serif" font-size="14" font-weight="bold" textLength="128">dataset_location</text><text x="261" y="1886.604" fill="#D9B8FF" font-family="sans-serif" font-size="14" textLength="48">: string</text><text x="133" y="1912.901" fill="#D9B8FF" font-family="sans-serif" font-size="14" font-weight="bold" textLength="43">name</text><text x="176" y="1912.901" fill="#D9B8FF" font-family="sans-serif" font-size="14" textLength="48">: string</text><rect width="440" height="126.68" x="61" y="1638.14" fill="#3D176E" rx="2.5" ry="2.5" style="stroke:#000d19;stroke-width:.5"/><circle cx="76" cy="1658.034" r="11" fill="#ADD1B2" style="stroke:#181818;stroke-width:1"/><path d="M78.969 1663.675q-.578.297-1.219.438-.64.156-1.344.156-2.5 0-3.828-1.64-1.312-1.657-1.312-4.782t1.312-4.781q1.328-1.657 3.828-1.657.703 0 1.344.157.656.156 1.219.453v2.719q-.625-.579-1.219-.844-.594-.281-1.219-.281-1.344 0-2.031 1.078-.687 1.062-.687 3.156t.687 3.172q.688 1.062 2.031 1.062.625 0 1.219-.265.594-.282 1.219-.86z"/><text x="95" y="1663.92" fill="#D9B8FF" font-family="Helvetica" font-size="17" textLength="398">aws_bedrock_evaluation_dataset_metric_config</text><path d="M62 1677.929h438" style="stroke:#000d19;stroke-width:.5"/><text x="72" y="1699.924" fill="#D9B8FF" font-family="sans-serif" font-size="14" font-weight="bold" textLength="59">dataset</text><text x="131" y="1699.924" fill="#D9B8FF" font-family="sans-serif" font-size="14" textLength="236">: aws_bedrock_evaluation_dataset</text><text x="72" y="1726.221" fill="#D9B8FF" font-family="sans-serif" font-size="14" font-weight="bold" textLength="109">metric_names</text><text x="181" y="1726.221" fill="#D9B8FF" font-family="sans-serif" font-size="14" textLength="58">: string[]</text><text x="72" y="1752.518" fill="#D9B8FF" font-family="sans-serif" font-size="14" font-weight="bold" textLength="75">task_type</text><text x="147" y="1752.518" fill="#D9B8FF" font-family="sans-serif" font-size="14" textLength="48">: string</text><rect width="393" height="74.086" x="1204.5" y="1304.22" fill="#3D176E" rx="2.5" ry="2.5" style="stroke:#000d19;stroke-width:.5"/><circle cx="1219.5" cy="1324.114" r="11" fill="#ADD1B2" style="stroke:#181818;stroke-width:1"/><path d="M1222.469 1329.755q-.578.297-1.219.438-.64.156-1.344.156-2.5 0-3.828-1.64-1.312-1.657-1.312-4.782t1.312-4.781q1.328-1.657 3.828-1.657.703 0 1.344.157.656.156 1.219.453v2.719q-.625-.579-1.219-.844-.594-.281-1.219-.281-1.343 0-2.031 1.078-.687 1.062-.687 3.156t.687 3.172q.688 1.062 2.031 1.062.625 0 1.219-.265.594-.282 1.219-.86z"/><text x="1238.5" y="1330" fill="#D9B8FF" font-family="Helvetica" font-size="17" textLength="351">aws_bedrock_evaluation_inference_config</text><path d="M1205.5 1344.009h391" style="stroke:#000d19;stroke-width:.5"/><text x="1215.5" y="1366.004" fill="#D9B8FF" font-family="sans-serif" font-size="14" font-weight="bold" textLength="57">models</text><text x="1272.5" y="1366.004" fill="#D9B8FF" font-family="sans-serif" font-size="14" textLength="286">: aws_bedrock_evaluation_model_config[]</text><rect width="483" height="363.352" x="841.5" y="867.72" fill="#3D176E" rx="2.5" ry="2.5" style="stroke:#000d19;stroke-width:.5"/><circle cx="954.25" cy="887.615" r="11" fill="#ADD1B2" style="stroke:#181818;stroke-width:1"/><path d="M957.219 893.255q-.578.297-1.219.438-.64.156-1.344.156-2.5 0-3.828-1.64-1.312-1.657-1.312-4.782t1.312-4.781q1.328-1.656 3.828-1.656.703 0 1.344.156.656.156 1.219.453v2.719q-.625-.578-1.219-.844-.594-.281-1.219-.281-1.343 0-2.031 1.078-.687 1.062-.687 3.156t.687 3.172q.688 1.062 2.031 1.062.625 0 1.219-.265.594-.281 1.219-.86z"/><text x="979.75" y="893.5" fill="#D9B8FF" font-family="Helvetica" font-size="17" textLength="239">aws_bedrock_evaluation_job</text><path d="M842.5 907.509h481" style="stroke:#000d19;stroke-width:.5"/><text x="852.5" y="929.504" fill="#D9B8FF" font-family="sans-serif" font-size="14" font-weight="bold" textLength="106">creation_time</text><text x="958.5" y="929.504" fill="#D9B8FF" font-family="sans-serif" font-size="14" textLength="70">: datetime</text><text x="852.5" y="955.801" fill="#D9B8FF" font-family="sans-serif" font-size="14" font-weight="bold" textLength="235">customer_encryption_key_arn</text><text x="1087.5" y="955.801" fill="#D9B8FF" font-family="sans-serif" font-size="14" textLength="48">: string</text><text x="852.5" y="982.098" fill="#D9B8FF" font-family="sans-serif" font-size="14" font-weight="bold" textLength="137">evaluation_config</text><text x="989.5" y="982.098" fill="#D9B8FF" font-family="sans-serif" font-size="14" textLength="226">: aws_bedrock_evaluation_config</text><text x="852.5" y="1008.395" fill="#D9B8FF" font-family="sans-serif" font-size="14" font-weight="bold" textLength="137">failure_messages</text><text x="989.5" y="1008.395" fill="#D9B8FF" font-family="sans-serif" font-size="14" textLength="58">: string[]</text><text x="852.5" y="1034.692" fill="#D9B8FF" font-family="sans-serif" font-size="14" font-weight="bold" textLength="57">job_arn</text><text x="909.5" y="1034.692" fill="#D9B8FF" font-family="sans-serif" font-size="14" textLength="48">: string</text><text x="852.5" y="1060.989" fill="#D9B8FF" font-family="sans-serif" font-size="14" font-weight="bold" textLength="120">job_description</text><text x="972.5" y="1060.989" fill="#D9B8FF" font-family="sans-serif" font-size="14" textLength="48">: string</text><text x="852.5" y="1087.285" fill="#D9B8FF" font-family="sans-serif" font-size="14" font-weight="bold" textLength="163">job_inference_config</text><text x="1015.5" y="1087.285" fill="#D9B8FF" font-family="sans-serif" font-size="14" textLength="298">: aws_bedrock_evaluation_inference_config</text><text x="852.5" y="1113.582" fill="#D9B8FF" font-family="sans-serif" font-size="14" font-weight="bold" textLength="74">job_name</text><text x="926.5" y="1113.582" fill="#D9B8FF" font-family="sans-serif" font-size="14" textLength="48">: string</text><text x="852.5" y="1139.879" fill="#D9B8FF" font-family="sans-serif" font-size="14" font-weight="bold" textLength="66">job_type</text><text x="918.5" y="1139.879" fill="#D9B8FF" font-family="sans-serif" font-size="14" textLength="48">: string</text><text x="852.5" y="1166.176" fill="#D9B8FF" font-family="sans-serif" font-size="14" font-weight="bold" textLength="144">last_modified_time</text><text x="996.5" y="1166.176" fill="#D9B8FF" font-family="sans-serif" font-size="14" textLength="70">: datetime</text><text x="852.5" y="1192.473" fill="#D9B8FF" font-family="sans-serif" font-size="14" font-weight="bold" textLength="149">output_data_config</text><text x="1001.5" y="1192.473" fill="#D9B8FF" font-family="sans-serif" font-size="14" textLength="48">: string</text><text x="852.5" y="1218.77" fill="#D9B8FF" font-family="sans-serif" font-size="14" font-weight="bold" textLength="64">role_arn</text><text x="916.5" y="1218.77" fill="#D9B8FF" font-family="sans-serif" font-size="14" textLength="48">: string</text><rect width="433" height="74.086" x="1283.5" y="1477.75" fill="#3D176E" rx="2.5" ry="2.5" style="stroke:#000d19;stroke-width:.5"/><circle cx="1328.25" cy="1497.645" r="11" fill="#ADD1B2" style="stroke:#181818;stroke-width:1"/><path d="M1331.219 1503.285q-.578.297-1.219.438-.64.156-1.344.156-2.5 0-3.828-1.64-1.312-1.657-1.312-4.782t1.312-4.781q1.328-1.656 3.828-1.656.703 0 1.344.156.656.156 1.219.453v2.719q-.625-.578-1.219-.844-.594-.281-1.219-.281-1.343 0-2.031 1.078-.687 1.062-.687 3.156t.687 3.172q.688 1.062 2.031 1.062.625 0 1.219-.265.594-.281 1.219-.86z"/><text x="1353.75" y="1503.53" fill="#D9B8FF" font-family="Helvetica" font-size="17" textLength="325">aws_bedrock_evaluation_model_config</text><path d="M1284.5 1517.539h431" style="stroke:#000d19;stroke-width:.5"/><text x="1294.5" y="1539.534" fill="#D9B8FF" font-family="sans-serif" font-size="14" font-weight="bold" textLength="120">bedrock_model</text><text x="1414.5" y="1539.534" fill="#D9B8FF" font-family="sans-serif" font-size="14" textLength="291">: aws_bedrock_evaluation_bedrock_model</text><rect width="548" height="126.68" x="590" y="1451.46" fill="#3D176E" rx="2.5" ry="2.5" style="stroke:#000d19;stroke-width:.5"/><circle cx="688.25" cy="1471.354" r="11" fill="#ADD1B2" style="stroke:#181818;stroke-width:1"/><path d="M691.219 1476.995q-.578.297-1.219.438-.64.156-1.344.156-2.5 0-3.828-1.64-1.312-1.657-1.312-4.782t1.312-4.781q1.328-1.657 3.828-1.657.703 0 1.344.157.656.156 1.219.453v2.719q-.625-.579-1.219-.844-.594-.281-1.219-.281-1.343 0-2.031 1.078-.687 1.062-.687 3.156t.687 3.172q.688 1.062 2.031 1.062.625 0 1.219-.265.594-.282 1.219-.86z"/><text x="713.75" y="1477.24" fill="#D9B8FF" font-family="Helvetica" font-size="17" textLength="333">aws_bedrock_human_evaluation_config</text><path d="M591 1491.249h546" style="stroke:#000d19;stroke-width:.5"/><text x="601" y="1513.244" fill="#D9B8FF" font-family="sans-serif" font-size="14" font-weight="bold" textLength="124">custom_metrics</text><text x="725" y="1513.244" fill="#D9B8FF" font-family="sans-serif" font-size="14" textLength="351">: aws_bedrock_human_evaluation_custom_metric[]</text><text x="601" y="1539.541" fill="#D9B8FF" font-family="sans-serif" font-size="14" font-weight="bold" textLength="181">dataset_metric_configs</text><text x="782" y="1539.541" fill="#D9B8FF" font-family="sans-serif" font-size="14" textLength="345">: aws_bedrock_evaluation_dataset_metric_config[]</text><text x="601" y="1565.838" fill="#D9B8FF" font-family="sans-serif" font-size="14" font-weight="bold" textLength="190">human_workflow_config</text><text x="791" y="1565.838" fill="#D9B8FF" font-family="sans-serif" font-size="14" textLength="271">: aws_bedrock_human_workflow_config</text><rect width="449" height="126.68" x="535.5" y="1638.14" fill="#3D176E" rx="2.5" ry="2.5" style="stroke:#000d19;stroke-width:.5"/><circle cx="550.5" cy="1658.034" r="11" fill="#ADD1B2" style="stroke:#181818;stroke-width:1"/><path d="M553.469 1663.675q-.578.297-1.219.438-.64.156-1.344.156-2.5 0-3.828-1.64-1.312-1.657-1.312-4.782t1.312-4.781q1.328-1.657 3.828-1.657.703 0 1.344.157.656.156 1.219.453v2.719q-.625-.579-1.219-.844-.594-.281-1.219-.281-1.343 0-2.031 1.078-.687 1.062-.687 3.156t.687 3.172q.688 1.062 2.031 1.062.625 0 1.219-.265.594-.282 1.219-.86z"/><text x="569.5" y="1663.92" fill="#D9B8FF" font-family="Helvetica" font-size="17" textLength="407">aws_bedrock_human_evaluation_custom_metric</text><path d="M536.5 1677.929h447" style="stroke:#000d19;stroke-width:.5"/><text x="546.5" y="1699.924" fill="#D9B8FF" font-family="sans-serif" font-size="14" font-weight="bold" textLength="89">description</text><text x="635.5" y="1699.924" fill="#D9B8FF" font-family="sans-serif" font-size="14" textLength="48">: string</text><text x="546.5" y="1726.221" fill="#D9B8FF" font-family="sans-serif" font-size="14" font-weight="bold" textLength="43">name</text><text x="589.5" y="1726.221" fill="#D9B8FF" font-family="sans-serif" font-size="14" textLength="48">: string</text><text x="546.5" y="1752.518" fill="#D9B8FF" font-family="sans-serif" font-size="14" font-weight="bold" textLength="113">rating_method</text><text x="659.5" y="1752.518" fill="#D9B8FF" font-family="sans-serif" font-size="14" textLength="48">: string</text><rect width="364" height="100.383" x="1020" y="1651.29" fill="#3D176E" rx="2.5" ry="2.5" style="stroke:#000d19;stroke-width:.5"/><circle cx="1035" cy="1671.185" r="11" fill="#ADD1B2" style="stroke:#181818;stroke-width:1"/><path d="M1037.969 1676.825q-.578.297-1.219.438-.64.156-1.344.156-2.5 0-3.828-1.64-1.312-1.657-1.312-4.782t1.312-4.781q1.328-1.656 3.828-1.656.703 0 1.344.156.656.156 1.219.453v2.719q-.625-.578-1.219-.844-.594-.281-1.219-.281-1.343 0-2.031 1.078-.687 1.062-.687 3.156t.687 3.172q.688 1.062 2.031 1.062.625 0 1.219-.265.594-.281 1.219-.86z"/><text x="1054" y="1677.07" fill="#D9B8FF" font-family="Helvetica" font-size="17" textLength="322">aws_bedrock_human_workflow_config</text><path d="M1021 1691.079h362" style="stroke:#000d19;stroke-width:.5"/><text x="1031" y="1713.074" fill="#D9B8FF" font-family="sans-serif" font-size="14" font-weight="bold" textLength="148">flow_definition_arn</text><text x="1179" y="1713.074" fill="#D9B8FF" font-family="sans-serif" font-size="14" textLength="48">: string</text><text x="1031" y="1739.371" fill="#D9B8FF" font-family="sans-serif" font-size="14" font-weight="bold" textLength="94">instructions</text><text x="1125" y="1739.371" fill="#D9B8FF" font-family="sans-serif" font-size="14" textLength="48">: string</text><rect width="155" height="74.086" x="1080.5" y="538.55" fill="#3D176E" rx="2.5" ry="2.5" style="stroke:#000d19;stroke-width:.5"/><circle cx="1095.5" cy="558.444" r="11" fill="#ADD1B2" style="stroke:#181818;stroke-width:1"/><path d="M1098.469 564.085q-.578.297-1.219.438-.64.156-1.344.156-2.5 0-3.828-1.64-1.312-1.657-1.312-4.782t1.312-4.781q1.328-1.657 3.828-1.657.703 0 1.344.157.656.156 1.219.453v2.719q-.625-.579-1.219-.844-.594-.281-1.219-.281-1.343 0-2.031 1.078-.687 1.062-.687 3.156t.687 3.172q.688 1.062 2.031 1.062.625 0 1.219-.265.594-.282 1.219-.86z"/><text x="1114.5" y="564.33" fill="#D9B8FF" font-family="Helvetica" font-size="17" textLength="113">aws_resource</text><path d="M1081.5 578.339h153" style="stroke:#000d19;stroke-width:.5"/><text x="1091.5" y="600.334" fill="#D9B8FF" font-family="sans-serif" font-size="14" font-weight="bold" textLength="26">arn</text><text x="1117.5" y="600.334" fill="#D9B8FF" font-family="sans-serif" font-size="14" textLength="48">: string</text><rect width="227" height="310.758" x="971.5" y="7" fill="#3D176E" rx="2.5" ry="2.5" style="stroke:#000d19;stroke-width:.5"/><circle cx="1040.25" cy="26.895" r="11" fill="#ADD1B2" style="stroke:#181818;stroke-width:1"/><path d="M1043.219 32.535q-.578.297-1.219.438-.64.156-1.344.156-2.5 0-3.828-1.64-1.312-1.657-1.312-4.782t1.312-4.781q1.328-1.656 3.828-1.656.703 0 1.344.156.656.156 1.219.453v2.719q-.625-.578-1.219-.844-.594-.281-1.219-.281-1.343 0-2.031 1.078-.687 1.062-.687 3.156t.687 3.172q.688 1.062 2.031 1.062.625 0 1.219-.265.594-.281 1.219-.86z"/><text x="1065.75" y="32.78" fill="#D9B8FF" font-family="Helvetica" font-size="17" textLength="71">resource</text><path d="M972.5 46.789h225" style="stroke:#000d19;stroke-width:.5"/><text x="982.5" y="68.784" fill="#D9B8FF" font-family="sans-serif" font-size="14" font-weight="bold" textLength="29">age</text><text x="1011.5" y="68.784" fill="#D9B8FF" font-family="sans-serif" font-size="14" textLength="66">: duration</text><text x="982.5" y="95.081" fill="#D9B8FF" font-family="sans-serif" font-size="14" font-weight="bold" textLength="43">atime</text><text x="1025.5" y="95.081" fill="#D9B8FF" font-family="sans-serif" font-size="14" textLength="70">: datetime</text><text x="982.5" y="121.378" fill="#D9B8FF" font-family="sans-serif" font-size="14" font-weight="bold" textLength="43">ctime</text><text x="1025.5" y="121.378" fill="#D9B8FF" font-family="sans-serif" font-size="14" textLength="70">: datetime</text><text x="982.5" y="147.675" fill="#D9B8FF" font-family="sans-serif" font-size="14" font-weight="bold" textLength="14">id</text><text x="996.5" y="147.675" fill="#D9B8FF" font-family="sans-serif" font-size="14" textLength="48">: string</text><text x="982.5" y="173.972" fill="#D9B8FF" font-family="sans-serif" font-size="14" font-weight="bold" textLength="33">kind</text><text x="1015.5" y="173.972" fill="#D9B8FF" font-family="sans-serif" font-size="14" textLength="48">: string</text><text x="982.5" y="200.269" fill="#D9B8FF" font-family="sans-serif" font-size="14" font-weight="bold" textLength="90">last_access</text><text x="1072.5" y="200.269" fill="#D9B8FF" font-family="sans-serif" font-size="14" textLength="66">: duration</text><text x="982.5" y="226.565" fill="#D9B8FF" font-family="sans-serif" font-size="14" font-weight="bold" textLength="90">last_update</text><text x="1072.5" y="226.565" fill="#D9B8FF" font-family="sans-serif" font-size="14" textLength="66">: duration</text><text x="982.5" y="252.862" fill="#D9B8FF" font-family="sans-serif" font-size="14" font-weight="bold" textLength="48">mtime</text><text x="1030.5" y="252.862" fill="#D9B8FF" font-family="sans-serif" font-size="14" textLength="70">: datetime</text><text x="982.5" y="279.159" fill="#D9B8FF" font-family="sans-serif" font-size="14" font-weight="bold" textLength="43">name</text><text x="1025.5" y="279.159" fill="#D9B8FF" font-family="sans-serif" font-size="14" textLength="48">: string</text><text x="982.5" y="305.456" fill="#D9B8FF" font-family="sans-serif" font-size="14" font-weight="bold" textLength="34">tags</text><text x="1016.5" y="305.456" fill="#D9B8FF" font-family="sans-serif" font-size="14" textLength="171">: dictionary[string, string]</text><g fill="none"><path d="M1018.727 496.71c-3.66 41.46-10.797 122.24-15.537 175.84" style="stroke:#ffaf37;stroke-width:2"/><path d="m1020.31 478.78-7.56 17.403 11.954 1.055z" style="stroke:#ffaf37;stroke-width:2"/></g><g fill="none"><path d="M1048.161 335.451c-10.34 48.29-16.681 77.919-22.101 103.229" style="stroke:#ffaf37;stroke-width:2"/><path d="m1051.93 317.85-9.636 16.345 11.734 2.512z" style="stroke:#ffaf37;stroke-width:2"/></g><path fill="none" d="M281 1552.28v79.59" style="stroke:#ffaf37;stroke-width:2"/><path fill="#FFAF37" d="m281 1637.87 4-9-4 4-4-4z" style="stroke:#ffaf37;stroke-width:2"/><path fill="none" d="M695.37 1391.88c-92.81 27.31-200.224 58.906-284.814 83.796" style="stroke:#ffaf37;stroke-width:2"/><path fill="#FFAF37" d="m404.8 1477.37 9.763 1.297-4.966-2.708 2.708-4.967z" style="stroke:#ffaf37;stroke-width:2"/><path fill="none" d="M864 1391.88v53.28" style="stroke:#ffaf37;stroke-width:2"/><path fill="#FFAF37" d="m864 1451.16 4-9-4 4-4-4z" style="stroke:#ffaf37;stroke-width:2"/><path fill="none" d="M281 1764.89v53.65" style="stroke:#ffaf37;stroke-width:2"/><path fill="#FFAF37" d="m281 1824.54 4-9-4 4-4-4z" style="stroke:#ffaf37;stroke-width:2"/><path fill="none" d="M1422 1378.64c16.8 29.11 37.24 64.543 54.03 93.633" style="stroke:#ffaf37;stroke-width:2"/><path fill="#FFAF37" d="m1479.03 1477.47-1.035-9.794-1.464 5.464-5.464-1.465z" style="stroke:#ffaf37;stroke-width:2"/><path fill="none" d="M1013.258 764.62c7.34 29.85 14.012 57.01 25.272 102.84m-29.57-120.32-1.528 18.912 11.653-2.865zm-62.79 484.37c-16.25 21.51-28.033 37.103-41.013 54.283" style="stroke:#ffaf37;stroke-width:2"/><path fill="#FFAF37" d="m901.54 1290.58 8.617-4.77-5.603.78-.78-5.602z" style="stroke:#ffaf37;stroke-width:2"/><path fill="none" d="M1281.68 1231.51c30.01 27.35 53.566 48.817 74.886 68.257" style="stroke:#ffaf37;stroke-width:2"/><path fill="#FFAF37" d="m1361 1303.81-3.955-9.02.26 5.651-5.65.26z" style="stroke:#ffaf37;stroke-width:2"/><g fill="none"><path d="M1149.392 630.878c-5.46 34.45-11.072 69.772-18.392 115.842-6.2 39.02-12.86 80.88-19.18 120.62" style="stroke:#ffaf37;stroke-width:2"/><path d="m1152.21 613.1-8.744 16.839 11.852 1.878z" style="stroke:#ffaf37;stroke-width:2"/></g><path fill="none" d="M1521.73 1552.28c16.85 28.28 37.279 62.596 55.809 93.696" style="stroke:#ffaf37;stroke-width:2"/><path fill="#FFAF37" d="m1580.61 1651.13-1.17-9.78-1.39 5.485-5.483-1.39z" style="stroke:#ffaf37;stroke-width:2"/><path fill="none" d="M665.81 1578.58c-60.24 19.08-120.71 38.238-180.95 57.318" style="stroke:#ffaf37;stroke-width:2"/><path fill="#FFAF37" d="m479.14 1637.71 9.788 1.096-5.021-2.606 2.605-5.02z" style="stroke:#ffaf37;stroke-width:2"/><path fill="none" d="M828.65 1578.58c-10.78 19.14-19.677 34.932-30.447 54.062" style="stroke:#ffaf37;stroke-width:2"/><path fill="#FFAF37" d="m795.26 1637.87 7.9-5.88-5.447 1.523-1.523-5.448z" style="stroke:#ffaf37;stroke-width:2"/><path fill="none" d="M978.9 1578.58c43.16 23.58 86.315 47.152 126.985 69.382" style="stroke:#ffaf37;stroke-width:2"/><path fill="#FFAF37" d="m1111.15 1650.84-5.979-7.826 1.592 5.428-5.429 1.591z" style="stroke:#ffaf37;stroke-width:2"/><g fill="none"><path d="M1115.637 335.983c14.19 79.91 27.163 153.007 35.903 202.217" style="stroke:#ffaf37;stroke-width:2"/><path d="m1112.49 318.26-2.76 18.772 11.815-2.098z" style="stroke:#ffaf37;stroke-width:2"/></g></svg>