<svg xmlns="http://www.w3.org/2000/svg" width="1095" height="352" viewBox="0 0 1095 352"><rect width="311" height="39.789" x="109" y="7" fill="#3D176E" rx="2.5" ry="2.5" style="stroke:#000d19;stroke-width:.5"/><circle cx="124" cy="26.895" r="11" fill="#ADD1B2" style="stroke:#181818;stroke-width:1"/><path d="M126.969 32.535q-.578.297-1.219.438-.64.156-1.344.156-2.5 0-3.828-1.64-1.312-1.657-1.312-4.782t1.312-4.781q1.328-1.656 3.828-1.656.703 0 1.344.156.656.156 1.219.453v2.719q-.625-.578-1.219-.844-.594-.281-1.219-.281-1.344 0-2.031 1.078-.687 1.062-.687 3.156t.687 3.172q.688 1.062 2.031 1.062.625 0 1.219-.265.594-.281 1.219-.86z"/><text x="143" y="32.78" fill="#D9B8FF" font-family="Helvetica" font-size="17" textLength="269">aws_backup_protected_resource</text><rect width="353" height="39.789" x="455" y="7" fill="#3D176E" rx="2.5" ry="2.5" style="stroke:#000d19;stroke-width:.5"/><circle cx="470" cy="26.895" r="11" fill="#ADD1B2" style="stroke:#181818;stroke-width:1"/><path d="M472.969 32.535q-.578.297-1.219.438-.64.156-1.344.156-2.5 0-3.828-1.64-1.312-1.657-1.312-4.782t1.312-4.781q1.328-1.656 3.828-1.656.703 0 1.344.156.656.156 1.219.453v2.719q-.625-.578-1.219-.844-.594-.281-1.219-.281-1.344 0-2.031 1.078-.687 1.062-.687 3.156t.687 3.172q.688 1.062 2.031 1.062.625 0 1.219-.265.594-.281 1.219-.86z"/><text x="489" y="32.78" fill="#D9B8FF" font-family="Helvetica" font-size="17" textLength="311">aws_bedrock_agent_knowledge_base</text><rect width="245" height="39.789" x="843" y="7" fill="#3D176E" rx="2.5" ry="2.5" style="stroke:#000d19;stroke-width:.5"/><circle cx="858" cy="26.895" r="11" fill="#ADD1B2" style="stroke:#181818;stroke-width:1"/><path d="M860.969 32.535q-.578.297-1.219.438-.64.156-1.344.156-2.5 0-3.828-1.64-1.312-1.657-1.312-4.782t1.312-4.781q1.328-1.656 3.828-1.656.703 0 1.344.156.656.156 1.219.453v2.719q-.625-.578-1.219-.844-.594-.281-1.219-.281-1.343 0-2.031 1.078-.687 1.062-.687 3.156t.687 3.172q.688 1.062 2.031 1.062.625 0 1.219-.265.594-.281 1.219-.86z"/><text x="877" y="32.78" fill="#D9B8FF" font-family="Helvetica" font-size="17" textLength="203">aws_ec2_security_group</text><rect width="209" height="39.789" x="7" y="206.58" fill="#3D176E" rx="2.5" ry="2.5" style="stroke:#000d19;stroke-width:.5"/><circle cx="22" cy="226.475" r="11" fill="#ADD1B2" style="stroke:#181818;stroke-width:1"/><path d="M24.969 232.115q-.578.297-1.219.438-.64.156-1.344.156-2.5 0-3.828-1.64-1.312-1.657-1.312-4.782t1.312-4.781q1.328-1.656 3.828-1.656.703 0 1.344.156.656.156 1.219.453v2.719q-.625-.578-1.219-.844-.594-.281-1.219-.281-1.343 0-2.031 1.078-.687 1.062-.687 3.156t.687 3.172q.688 1.062 2.031 1.062.625 0 1.219-.265.594-.281 1.219-.86z"/><text x="41" y="232.36" fill="#D9B8FF" font-family="Helvetica" font-size="17" textLength="167">aws_kinesis_stream</text><rect width="158" height="39.789" x="281.5" y="306.37" fill="#3D176E" rx="2.5" ry="2.5" style="stroke:#000d19;stroke-width:.5"/><circle cx="296.5" cy="326.264" r="11" fill="#ADD1B2" style="stroke:#181818;stroke-width:1"/><path d="M299.469 331.905q-.578.297-1.219.438-.64.156-1.344.156-2.5 0-3.828-1.64-1.312-1.657-1.312-4.782t1.312-4.781q1.328-1.656 3.828-1.656.703 0 1.344.156.656.156 1.219.453v2.719q-.625-.579-1.219-.844-.594-.281-1.219-.281-1.344 0-2.031 1.078-.687 1.062-.687 3.156t.687 3.172q.688 1.062 2.031 1.062.625 0 1.219-.265.594-.281 1.219-.86z"/><text x="315.5" y="332.15" fill="#D9B8FF" font-family="Helvetica" font-size="17" textLength="116">aws_kms_key</text><rect width="174" height="39.789" x="364.5" y="106.79" fill="#3D176E" rx="2.5" ry="2.5" style="stroke:#000d19;stroke-width:.5"/><circle cx="379.5" cy="126.684" r="11" fill="#ADD1B2" style="stroke:#181818;stroke-width:1"/><path d="M382.469 132.325q-.578.297-1.219.438-.64.156-1.344.156-2.5 0-3.828-1.64-1.312-1.657-1.312-4.782t1.312-4.781q1.328-1.656 3.828-1.656.703 0 1.344.156.656.156 1.219.453v2.719q-.625-.579-1.219-.844-.594-.281-1.219-.281-1.344 0-2.031 1.078-.687 1.062-.687 3.156t.687 3.172q.688 1.062 2.031 1.062.625 0 1.219-.265.594-.281 1.219-.86z"/><text x="398.5" y="132.57" fill="#D9B8FF" font-family="Helvetica" font-size="17" textLength="132">aws_rds_cluster</text><rect width="258" height="39.789" x="322.5" y="206.58" fill="#3D176E" rx="2.5" ry="2.5" style="stroke:#000d19;stroke-width:.5"/><circle cx="337.5" cy="226.475" r="11" fill="#ADD1B2" style="stroke:#181818;stroke-width:1"/><path d="M340.469 232.115q-.578.297-1.219.438-.64.156-1.344.156-2.5 0-3.828-1.64-1.312-1.657-1.312-4.782t1.312-4.781q1.328-1.656 3.828-1.656.703 0 1.344.156.656.156 1.219.453v2.719q-.625-.578-1.219-.844-.594-.281-1.219-.281-1.344 0-2.031 1.078-.687 1.062-.687 3.156t.687 3.172q.688 1.062 2.031 1.062.625 0 1.219-.265.594-.281 1.219-.86z"/><text x="356.5" y="232.36" fill="#D9B8FF" font-family="Helvetica" font-size="17" textLength="216">aws_rds_cluster_snapshot</text><rect width="188" height="39.789" x="615.5" y="206.58" fill="#3D176E" rx="2.5" ry="2.5" style="stroke:#000d19;stroke-width:.5"/><circle cx="630.5" cy="226.475" r="11" fill="#ADD1B2" style="stroke:#181818;stroke-width:1"/><path d="M633.469 232.115q-.578.297-1.219.438-.64.156-1.344.156-2.5 0-3.828-1.64-1.312-1.657-1.312-4.782t1.312-4.781q1.328-1.656 3.828-1.656.703 0 1.344.156.656.156 1.219.453v2.719q-.625-.578-1.219-.844-.594-.281-1.219-.281-1.343 0-2.031 1.078-.687 1.062-.687 3.156t.687 3.172q.688 1.062 2.031 1.062.625 0 1.219-.265.594-.281 1.219-.86z"/><text x="649.5" y="232.36" fill="#D9B8FF" font-family="Helvetica" font-size="17" textLength="146">aws_rds_instance</text><path fill="none" d="M301.45 47.22c32.78 17.14 75.103 39.28 107.863 56.41" style="stroke:#1a83af;stroke-width:2"/><path fill="#1A83AF" d="m414.63 106.41-6.122-7.715 1.691 5.398-5.398 1.691z" style="stroke:#1a83af;stroke-width:2"/><path fill="none" d="M376.41 47.27c55.99 12.35 123.68 31.44 180.09 59.52 53.27 26.52 101.68 68.957 129.16 95.187" style="stroke:#1a83af;stroke-width:2"/><path fill="#1A83AF" d="m690 206.12-3.749-9.108.132 5.656-5.655.131z" style="stroke:#1a83af;stroke-width:2"/><path fill="none" d="M595.94 47.22c-31.56 17.14-72.148 39.196-103.678 56.326" style="stroke:#1a83af;stroke-width:2"/><path fill="#1A83AF" d="m486.99 106.41 9.818-.782-5.424-1.605 1.605-5.424z" style="stroke:#1a83af;stroke-width:2"/><path fill="none" d="M639.12 47.2c14.91 37.77 45.586 115.48 60.526 153.31" style="stroke:#1a83af;stroke-width:2"/><path fill="#1A83AF" d="m701.85 206.09.414-9.84-2.25 5.19-5.19-2.252z" style="stroke:#1a83af;stroke-width:2"/><path fill="none" d="M863.64 47.28c-94.97 18.07-229.216 43.609-319.116 60.709" style="stroke:#1a83af;stroke-width:2"/><path fill="#1A83AF" d="m538.63 109.11 9.589 2.248-4.677-3.182 3.182-4.677z" style="stroke:#1a83af;stroke-width:2"/><path fill="none" d="M940.49 47.2c-48.94 37.77-152.1 117.395-201.13 155.225" style="stroke:#1a83af;stroke-width:2"/><path fill="#1A83AF" d="m734.61 206.09 9.569-2.33-5.61-.724.723-5.61z" style="stroke:#1a83af;stroke-width:2"/><path fill="none" d="M160.69 246.8a554284 554284 0 0 1 145.136 56.996" style="stroke:#1a83af;stroke-width:2"/><path fill="#1A83AF" d="m311.41 305.99-6.914-7.014 2.26 5.185-5.185 2.26z" style="stroke:#1a83af;stroke-width:2"/><path fill="none" d="M384.33 147.01c-59.51 17.11-140.184 40.312-199.744 57.442" style="stroke:#1a83af;stroke-width:2"/><path fill="#1A83AF" d="m178.82 206.11 9.755 1.356-4.95-2.738 2.739-4.95z" style="stroke:#1a83af;stroke-width:2"/><path fill="none" d="M383.24 147.07c-29.31 12.08-60.7 30.93-77.74 59.51-20.01 33.55 7.55 71.256 30.51 95.236" style="stroke:#1a83af;stroke-width:2"/><path fill="#1A83AF" d="m340.16 306.15-3.335-9.267-.123 5.656-5.655-.123z" style="stroke:#1a83af;stroke-width:2"/><path fill="none" d="M451.5 147.01v53.19" style="stroke:#1a83af;stroke-width:2"/><path fill="#1A83AF" d="m451.5 206.2 4-9-4 4-4-4z" style="stroke:#1a83af;stroke-width:2"/><path fill="none" d="M502.47 147.01a812631 812631 0 0 1 150.55 57.063" style="stroke:#1a83af;stroke-width:2"/><path fill="#1A83AF" d="m658.63 206.2-6.997-6.931 2.322 5.158-5.159 2.322z" style="stroke:#1a83af;stroke-width:2"/><path fill="none" d="M433.52 246.8c-15.95 17.14-35.054 37.656-50.994 54.796" style="stroke:#1a83af;stroke-width:2"/><path fill="#1A83AF" d="m378.44 305.99 9.058-3.867-5.653.206-.205-5.654z" style="stroke:#1a83af;stroke-width:2"/><path fill="none" d="M640.55 246.8c-61.09 17.11-144.032 40.351-205.162 57.481" style="stroke:#1a83af;stroke-width:2"/><path fill="#1A83AF" d="m429.61 305.9 9.745 1.423-4.93-2.772 2.772-4.931z" style="stroke:#1a83af;stroke-width:2"/></svg>