<svg xmlns="http://www.w3.org/2000/svg" width="2067" height="893" viewBox="0 0 2067 893"><rect width="137" height="39.789" x="7" y="847.23" fill="#3D176E" rx="2.5" ry="2.5" style="stroke:#000d19;stroke-width:.5"/><circle cx="22" cy="867.125" r="11" fill="#ADD1B2" style="stroke:#181818;stroke-width:1"/><path d="M24.969 872.765q-.578.297-1.219.438-.64.156-1.344.156-2.5 0-3.828-1.64-1.312-1.657-1.312-4.782t1.312-4.781q1.328-1.656 3.828-1.656.703 0 1.344.156.656.156 1.219.453v2.719q-.625-.578-1.219-.844-.594-.281-1.219-.281-1.343 0-2.031 1.078-.687 1.062-.687 3.156t.687 3.172q.688 1.062 2.031 1.062.625 0 1.219-.265.594-.281 1.219-.86z"/><text x="41" y="873.01" fill="#D9B8FF" font-family="Helvetica" font-size="17" textLength="95">aws_region</text><rect width="163" height="39.789" x="179" y="847.23" fill="#3D176E" rx="2.5" ry="2.5" style="stroke:#000d19;stroke-width:.5"/><circle cx="194" cy="867.125" r="11" fill="#ADD1B2" style="stroke:#181818;stroke-width:1"/><path d="M196.969 872.765q-.578.297-1.219.438-.64.156-1.344.156-2.5 0-3.828-1.64-1.312-1.657-1.312-4.782t1.312-4.781q1.328-1.656 3.828-1.656.703 0 1.344.156.656.156 1.219.453v2.719q-.625-.578-1.219-.844-.594-.281-1.219-.281-1.344 0-2.031 1.078-.687 1.062-.687 3.156t.687 3.172q.688 1.062 2.031 1.062.625 0 1.219-.265.594-.281 1.219-.86z"/><text x="213" y="873.01" fill="#D9B8FF" font-family="Helvetica" font-size="17" textLength="121">azure_location</text><rect width="205" height="39.789" x="377" y="847.23" fill="#3D176E" rx="2.5" ry="2.5" style="stroke:#000d19;stroke-width:.5"/><circle cx="392" cy="867.125" r="11" fill="#ADD1B2" style="stroke:#181818;stroke-width:1"/><path d="M394.969 872.765q-.578.297-1.219.438-.64.156-1.344.156-2.5 0-3.828-1.64-1.312-1.657-1.312-4.782t1.312-4.781q1.328-1.656 3.828-1.656.703 0 1.344.156.656.156 1.219.453v2.719q-.625-.578-1.219-.844-.594-.281-1.219-.281-1.344 0-2.031 1.078-.687 1.062-.687 3.156t.687 3.172q.688 1.062 2.031 1.062.625 0 1.219-.265.594-.281 1.219-.86z"/><text x="411" y="873.01" fill="#D9B8FF" font-family="Helvetica" font-size="17" textLength="163">digitalocean_region</text><rect width="132" height="39.789" x="616.5" y="847.23" fill="#3D176E" rx="2.5" ry="2.5" style="stroke:#000d19;stroke-width:.5"/><circle cx="631.5" cy="867.125" r="11" fill="#ADD1B2" style="stroke:#181818;stroke-width:1"/><path d="M634.469 872.765q-.578.297-1.219.438-.64.156-1.344.156-2.5 0-3.828-1.64-1.312-1.657-1.312-4.782t1.312-4.781q1.328-1.656 3.828-1.656.703 0 1.344.156.656.156 1.219.453v2.719q-.625-.578-1.219-.844-.594-.281-1.219-.281-1.343 0-2.031 1.078-.687 1.062-.687 3.156t.687 3.172q.688 1.062 2.031 1.062.625 0 1.219-.265.594-.281 1.219-.86z"/><text x="650.5" y="873.01" fill="#D9B8FF" font-family="Helvetica" font-size="17" textLength="90">gcp_region</text><rect width="158" height="39.789" x="783.5" y="847.23" fill="#3D176E" rx="2.5" ry="2.5" style="stroke:#000d19;stroke-width:.5"/><circle cx="798.5" cy="867.125" r="11" fill="#ADD1B2" style="stroke:#181818;stroke-width:1"/><path d="M801.469 872.765q-.578.297-1.219.438-.64.156-1.344.156-2.5 0-3.828-1.64-1.312-1.657-1.312-4.782t1.312-4.781q1.328-1.656 3.828-1.656.703 0 1.344.156.656.156 1.219.453v2.719q-.625-.578-1.219-.844-.594-.281-1.219-.281-1.343 0-2.031 1.078-.687 1.062-.687 3.156t.687 3.172q.688 1.062 2.031 1.062.625 0 1.219-.265.594-.281 1.219-.86z"/><text x="817.5" y="873.01" fill="#D9B8FF" font-family="Helvetica" font-size="17" textLength="116">github_region</text><rect width="239" height="39.789" x="976" y="847.23" fill="#3D176E" rx="2.5" ry="2.5" style="stroke:#000d19;stroke-width:.5"/><circle cx="991" cy="867.125" r="11" fill="#ADD1B2" style="stroke:#181818;stroke-width:1"/><path d="M993.969 872.765q-.578.297-1.219.438-.64.156-1.344.156-2.5 0-3.828-1.64-1.312-1.657-1.312-4.782t1.312-4.781q1.328-1.656 3.828-1.656.703 0 1.344.156.656.156 1.219.453v2.719q-.625-.578-1.219-.844-.594-.281-1.219-.281-1.343 0-2.031 1.078-.687 1.062-.687 3.156t.687 3.172q.688 1.062 2.031 1.062.625 0 1.219-.265.594-.281 1.219-.86z"/><text x="1010" y="873.01" fill="#D9B8FF" font-family="Helvetica" font-size="17" textLength="197">kubernetes_namespace</text><rect width="176" height="39.789" x="1249.5" y="847.23" fill="#3D176E" rx="2.5" ry="2.5" style="stroke:#000d19;stroke-width:.5"/><circle cx="1264.5" cy="867.125" r="11" fill="#ADD1B2" style="stroke:#181818;stroke-width:1"/><path d="M1267.469 872.765q-.578.297-1.219.438-.64.156-1.344.156-2.5 0-3.828-1.64-1.312-1.657-1.312-4.782t1.312-4.781q1.328-1.656 3.828-1.656.703 0 1.344.156.656.156 1.219.453v2.719q-.625-.578-1.219-.844-.594-.281-1.219-.281-1.343 0-2.031 1.078-.687 1.062-.687 3.156t.687 3.172q.688 1.062 2.031 1.062.625 0 1.219-.265.594-.281 1.219-.86z"/><text x="1283.5" y="873.01" fill="#D9B8FF" font-family="Helvetica" font-size="17" textLength="134">onelogin_region</text><rect width="169" height="39.789" x="1460" y="847.23" fill="#3D176E" rx="2.5" ry="2.5" style="stroke:#000d19;stroke-width:.5"/><circle cx="1475" cy="867.125" r="11" fill="#ADD1B2" style="stroke:#181818;stroke-width:1"/><path d="M1477.969 872.765q-.578.297-1.219.438-.64.156-1.344.156-2.5 0-3.828-1.64-1.312-1.657-1.312-4.782t1.312-4.781q1.328-1.656 3.828-1.656.703 0 1.344.156.656.156 1.219.453v2.719q-.625-.578-1.219-.844-.594-.281-1.219-.281-1.343 0-2.031 1.078-.687 1.062-.687 3.156t.687 3.172q.688 1.062 2.031 1.062.625 0 1.219-.265.594-.281 1.219-.86z"/><text x="1494" y="873.01" fill="#D9B8FF" font-family="Helvetica" font-size="17" textLength="127">onprem_region</text><rect width="198" height="39.789" x="879.5" y="438.76" fill="#3D176E" rx="2.5" ry="2.5" style="stroke:#000d19;stroke-width:.5"/><circle cx="894.5" cy="458.654" r="11" fill="#ADD1B2" style="stroke:#181818;stroke-width:1"/><path d="M897.469 464.295q-.578.297-1.219.438-.64.156-1.344.156-2.5 0-3.828-1.64-1.312-1.657-1.312-4.782t1.312-4.781q1.328-1.656 3.828-1.656.703 0 1.344.156.656.156 1.219.453v2.719q-.625-.579-1.219-.844-.594-.281-1.219-.281-1.343 0-2.031 1.078-.687 1.062-.687 3.156t.687 3.172q.688 1.062 2.031 1.062.625 0 1.219-.265.594-.281 1.219-.86z"/><text x="913.5" y="464.54" fill="#D9B8FF" font-family="Helvetica" font-size="17" textLength="156">phantom_resource</text><rect width="154" height="126.68" x="901.5" y="599.55" fill="#3D176E" rx="2.5" ry="2.5" style="stroke:#000d19;stroke-width:.5"/><circle cx="943.05" cy="619.444" r="11" fill="#ADD1B2" style="stroke:#181818;stroke-width:1"/><path d="M946.019 625.085q-.578.297-1.219.438-.64.156-1.344.156-2.5 0-3.828-1.64-1.312-1.657-1.312-4.782t1.312-4.781q1.328-1.657 3.828-1.657.703 0 1.344.157.656.156 1.219.453v2.719q-.625-.579-1.219-.844-.594-.281-1.219-.281-1.344 0-2.031 1.078-.687 1.062-.687 3.156t.687 3.172q.688 1.062 2.031 1.062.625 0 1.219-.265.594-.282 1.219-.86z"/><text x="967.95" y="625.33" fill="#D9B8FF" font-family="Helvetica" font-size="17" textLength="53">region</text><path d="M902.5 639.339h152" style="stroke:#000d19;stroke-width:.5"/><text x="912.5" y="661.334" fill="#D9B8FF" font-family="sans-serif" font-size="14" font-weight="bold" textLength="59">latitude</text><text x="971.5" y="661.334" fill="#D9B8FF" font-family="sans-serif" font-size="14" textLength="57">: double</text><text x="912.5" y="687.631" fill="#D9B8FF" font-family="sans-serif" font-size="14" font-weight="bold" textLength="84">long_name</text><text x="996.5" y="687.631" fill="#D9B8FF" font-family="sans-serif" font-size="14" textLength="48">: string</text><text x="912.5" y="713.928" fill="#D9B8FF" font-family="sans-serif" font-size="14" font-weight="bold" textLength="74">longitude</text><text x="986.5" y="713.928" fill="#D9B8FF" font-family="sans-serif" font-size="14" textLength="57">: double</text><rect width="227" height="310.758" x="865" y="7" fill="#3D176E" rx="2.5" ry="2.5" style="stroke:#000d19;stroke-width:.5"/><circle cx="933.75" cy="26.895" r="11" fill="#ADD1B2" style="stroke:#181818;stroke-width:1"/><path d="M936.719 32.535q-.578.297-1.219.438-.64.156-1.344.156-2.5 0-3.828-1.64-1.312-1.657-1.312-4.782t1.312-4.781q1.328-1.656 3.828-1.656.703 0 1.344.156.656.156 1.219.453v2.719q-.625-.578-1.219-.844-.594-.281-1.219-.281-1.343 0-2.031 1.078-.687 1.062-.687 3.156t.687 3.172q.688 1.062 2.031 1.062.625 0 1.219-.265.594-.281 1.219-.86z"/><text x="959.25" y="32.78" fill="#D9B8FF" font-family="Helvetica" font-size="17" textLength="71">resource</text><path d="M866 46.789h225" style="stroke:#000d19;stroke-width:.5"/><text x="876" y="68.784" fill="#D9B8FF" font-family="sans-serif" font-size="14" font-weight="bold" textLength="29">age</text><text x="905" y="68.784" fill="#D9B8FF" font-family="sans-serif" font-size="14" textLength="66">: duration</text><text x="876" y="95.081" fill="#D9B8FF" font-family="sans-serif" font-size="14" font-weight="bold" textLength="43">atime</text><text x="919" y="95.081" fill="#D9B8FF" font-family="sans-serif" font-size="14" textLength="70">: datetime</text><text x="876" y="121.378" fill="#D9B8FF" font-family="sans-serif" font-size="14" font-weight="bold" textLength="43">ctime</text><text x="919" y="121.378" fill="#D9B8FF" font-family="sans-serif" font-size="14" textLength="70">: datetime</text><text x="876" y="147.675" fill="#D9B8FF" font-family="sans-serif" font-size="14" font-weight="bold" textLength="14">id</text><text x="890" y="147.675" fill="#D9B8FF" font-family="sans-serif" font-size="14" textLength="48">: string</text><text x="876" y="173.972" fill="#D9B8FF" font-family="sans-serif" font-size="14" font-weight="bold" textLength="33">kind</text><text x="909" y="173.972" fill="#D9B8FF" font-family="sans-serif" font-size="14" textLength="48">: string</text><text x="876" y="200.269" fill="#D9B8FF" font-family="sans-serif" font-size="14" font-weight="bold" textLength="90">last_access</text><text x="966" y="200.269" fill="#D9B8FF" font-family="sans-serif" font-size="14" textLength="66">: duration</text><text x="876" y="226.565" fill="#D9B8FF" font-family="sans-serif" font-size="14" font-weight="bold" textLength="90">last_update</text><text x="966" y="226.565" fill="#D9B8FF" font-family="sans-serif" font-size="14" textLength="66">: duration</text><text x="876" y="252.862" fill="#D9B8FF" font-family="sans-serif" font-size="14" font-weight="bold" textLength="48">mtime</text><text x="924" y="252.862" fill="#D9B8FF" font-family="sans-serif" font-size="14" textLength="70">: datetime</text><text x="876" y="279.159" fill="#D9B8FF" font-family="sans-serif" font-size="14" font-weight="bold" textLength="43">name</text><text x="919" y="279.159" fill="#D9B8FF" font-family="sans-serif" font-size="14" textLength="48">: string</text><text x="876" y="305.456" fill="#D9B8FF" font-family="sans-serif" font-size="14" font-weight="bold" textLength="34">tags</text><text x="910" y="305.456" fill="#D9B8FF" font-family="sans-serif" font-size="14" textLength="171">: dictionary[string, string]</text><rect width="145" height="39.789" x="1664" y="847.23" fill="#3D176E" rx="2.5" ry="2.5" style="stroke:#000d19;stroke-width:.5"/><circle cx="1679" cy="867.125" r="11" fill="#ADD1B2" style="stroke:#181818;stroke-width:1"/><path d="M1681.969 872.765q-.578.297-1.219.438-.64.156-1.344.156-2.5 0-3.828-1.64-1.312-1.657-1.312-4.782t1.312-4.781q1.328-1.656 3.828-1.656.703 0 1.344.156.656.156 1.219.453v2.719q-.625-.578-1.219-.844-.594-.281-1.219-.281-1.343 0-2.031 1.078-.687 1.062-.687 3.156t.687 3.172q.688 1.062 2.031 1.062.625 0 1.219-.265.594-.281 1.219-.86z"/><text x="1698" y="873.01" fill="#D9B8FF" font-family="Helvetica" font-size="17" textLength="103">slack_region</text><rect width="216" height="39.789" x="1844.5" y="847.23" fill="#3D176E" rx="2.5" ry="2.5" style="stroke:#000d19;stroke-width:.5"/><circle cx="1859.5" cy="867.125" r="11" fill="#ADD1B2" style="stroke:#181818;stroke-width:1"/><path d="M1862.469 872.765q-.578.297-1.219.438-.64.156-1.344.156-2.5 0-3.828-1.64-1.312-1.657-1.312-4.782t1.312-4.781q1.328-1.656 3.828-1.656.703 0 1.344.156.656.156 1.219.453v2.719q-.625-.578-1.219-.844-.594-.281-1.219-.281-1.343 0-2.031 1.078-.687 1.062-.687 3.156t.687 3.172q.688 1.062 2.031 1.062.625 0 1.219-.265.594-.281 1.219-.86z"/><text x="1878.5" y="873.01" fill="#D9B8FF" font-family="Helvetica" font-size="17" textLength="174">vsphere_data_center</text><path fill="none" d="M883.555 685.154C710.025 724.014 309.65 813.69 144.41 850.69m756.71-169.47-18.876-1.922 2.622 11.71z" style="stroke:#ffaf37;stroke-width:2"/><path fill="none" d="M883.994 690.51C743.104 730.19 463.72 808.89 329.29 846.75m572.03-161.12-18.953-.896 3.254 11.551z" style="stroke:#ffaf37;stroke-width:2"/><g fill="none"><path d="M884.398 702.03C779.958 744.35 613.78 811.7 527.35 846.73" style="stroke:#ffaf37;stroke-width:2"/><path d="m901.08 695.27-18.936 1.2 4.507 11.12z" style="stroke:#ffaf37;stroke-width:2"/></g><path fill="none" d="M886.257 726.914C823.727 769.634 754.11 817.2 710.75 846.82m190.37-130.06-18.247 5.2 6.77 9.908zm32.514 25.344c-23.82 41.53-44.534 77.636-60.224 104.996m69.18-120.61-14.16 12.629 10.41 5.97zm81.142 15.582c24.02 41.53 44.938 77.668 60.758 105.028m-69.77-120.61 3.818 18.586 10.388-6.009zm56.922-10.134c76.88 43.32 175.488 98.864 231.868 130.624m-247.55-139.46 12.736 14.064 5.891-10.455z" style="stroke:#ffaf37;stroke-width:2"/><g fill="none"><path d="M1072.67 697.537c116.31 41.56 316.63 113.133 417.63 149.223" style="stroke:#ffaf37;stroke-width:2"/><path d="m1055.72 691.48 14.931 11.707 4.038-11.3z" style="stroke:#ffaf37;stroke-width:2"/></g><path fill="none" d="M978.5 335.85v102.83m0-120.83-6 18h12zm0 179.2v102.4m0-120.4-6 18h12zm94.592 210.08c146.98 39.21 447.658 119.43 590.898 157.65M1055.7 684.49l15.845 10.437 3.093-11.595z" style="stroke:#ffaf37;stroke-width:2"/><g fill="none"><path d="M1073.364 683.589c177.17 36.78 594.576 123.451 786.076 163.211" style="stroke:#ffaf37;stroke-width:2"/><path d="m1055.74 679.93 16.405 9.534 2.439-11.75z" style="stroke:#ffaf37;stroke-width:2"/></g></svg>