<svg xmlns="http://www.w3.org/2000/svg" width="718" height="1193" viewBox="0 0 718 1193"><rect width="237" height="179.273" x="62.5" y="846.82" fill="#3D176E" rx="2.5" ry="2.5" style="stroke:#000d19;stroke-width:.5"/><circle cx="77.5" cy="866.715" r="11" fill="#ADD1B2" style="stroke:#181818;stroke-width:1"/><path d="M80.469 872.355q-.578.297-1.219.438-.64.156-1.344.156-2.5 0-3.828-1.64-1.312-1.657-1.312-4.782t1.312-4.781q1.328-1.656 3.828-1.656.703 0 1.344.156.656.156 1.219.453v2.719q-.625-.578-1.219-.844-.594-.281-1.219-.281-1.344 0-2.031 1.078-.687 1.062-.687 3.156t.687 3.172q.688 1.062 2.031 1.062.625 0 1.219-.265.594-.281 1.219-.86z"/><text x="96.5" y="872.6" fill="#D9B8FF" font-family="Helvetica" font-size="17" textLength="195">gcp_deprecation_status</text><path d="M63.5 886.609h235" style="stroke:#000d19;stroke-width:.5"/><text x="73.5" y="908.604" fill="#D9B8FF" font-family="sans-serif" font-size="14" font-weight="bold" textLength="60">deleted</text><text x="133.5" y="908.604" fill="#D9B8FF" font-family="sans-serif" font-size="14" textLength="48">: string</text><text x="73.5" y="934.901" fill="#D9B8FF" font-family="sans-serif" font-size="14" font-weight="bold" textLength="91">deprecated</text><text x="164.5" y="934.901" fill="#D9B8FF" font-family="sans-serif" font-size="14" textLength="48">: string</text><text x="73.5" y="961.198" fill="#D9B8FF" font-family="sans-serif" font-size="14" font-weight="bold" textLength="69">obsolete</text><text x="142.5" y="961.198" fill="#D9B8FF" font-family="sans-serif" font-size="14" textLength="48">: string</text><text x="73.5" y="987.495" fill="#D9B8FF" font-family="sans-serif" font-size="14" font-weight="bold" textLength="99">replacement</text><text x="172.5" y="987.495" fill="#D9B8FF" font-family="sans-serif" font-size="14" textLength="48">: string</text><text x="73.5" y="1013.792" fill="#D9B8FF" font-family="sans-serif" font-size="14" font-weight="bold" textLength="40">state</text><text x="113.5" y="1013.792" fill="#D9B8FF" font-family="sans-serif" font-size="14" textLength="48">: string</text><rect width="150" height="100.383" x="448" y="1086.1" fill="#3D176E" rx="2.5" ry="2.5" style="stroke:#000d19;stroke-width:.5"/><circle cx="463" cy="1105.995" r="11" fill="#ADD1B2" style="stroke:#181818;stroke-width:1"/><path d="M465.969 1111.635q-.578.297-1.219.438-.64.156-1.344.156-2.5 0-3.828-1.64-1.312-1.657-1.312-4.782t1.312-4.781q1.328-1.657 3.828-1.657.703 0 1.344.157.656.156 1.219.453v2.719q-.625-.579-1.219-.844-.594-.281-1.219-.281-1.344 0-2.031 1.078-.687 1.062-.687 3.156t.687 3.172q.688 1.062 2.031 1.062.625 0 1.219-.265.594-.282 1.219-.86z"/><text x="482" y="1111.88" fill="#D9B8FF" font-family="Helvetica" font-size="17" textLength="108">gcp_duration</text><path d="M449 1125.889h148" style="stroke:#000d19;stroke-width:.5"/><text x="459" y="1147.884" fill="#D9B8FF" font-family="sans-serif" font-size="14" font-weight="bold" textLength="48">nanos</text><text x="507" y="1147.884" fill="#D9B8FF" font-family="sans-serif" font-size="14" textLength="44">: int64</text><text x="459" y="1174.181" fill="#D9B8FF" font-family="sans-serif" font-size="14" font-weight="bold" textLength="67">seconds</text><text x="526" y="1174.181" fill="#D9B8FF" font-family="sans-serif" font-size="14" textLength="48">: string</text><rect width="416" height="74.086" x="257" y="712.74" fill="#3D176E" rx="2.5" ry="2.5" style="stroke:#000d19;stroke-width:.5"/><circle cx="348.25" cy="732.635" r="11" fill="#ADD1B2" style="stroke:#181818;stroke-width:1"/><path d="M351.219 738.275q-.578.297-1.219.438-.64.156-1.344.156-2.5 0-3.828-1.64-1.312-1.657-1.312-4.782t1.312-4.781q1.328-1.657 3.828-1.657.703 0 1.344.157.656.156 1.219.453v2.719q-.625-.578-1.219-.844-.594-.281-1.219-.281-1.344 0-2.031 1.078-.687 1.062-.687 3.156t.687 3.172q.688 1.062 2.031 1.062.625 0 1.219-.265.594-.282 1.219-.86z"/><text x="373.75" y="738.52" fill="#D9B8FF" font-family="Helvetica" font-size="17" textLength="215">gcp_notification_endpoint</text><path d="M258 752.529h414" style="stroke:#000d19;stroke-width:.5"/><text x="268" y="774.524" fill="#D9B8FF" font-family="sans-serif" font-size="14" font-weight="bold" textLength="107">grpc_settings</text><text x="375" y="774.524" fill="#D9B8FF" font-family="sans-serif" font-size="14" textLength="287">: gcp_notification_endpoint_grpc_settings</text><rect width="376" height="179.273" x="335" y="846.82" fill="#3D176E" rx="2.5" ry="2.5" style="stroke:#000d19;stroke-width:.5"/><circle cx="350" cy="866.715" r="11" fill="#ADD1B2" style="stroke:#181818;stroke-width:1"/><path d="M352.969 872.355q-.578.297-1.219.438-.64.156-1.344.156-2.5 0-3.828-1.64-1.312-1.657-1.312-4.782t1.312-4.781q1.328-1.656 3.828-1.656.703 0 1.344.156.656.156 1.219.453v2.719q-.625-.578-1.219-.844-.594-.281-1.219-.281-1.344 0-2.031 1.078-.687 1.062-.687 3.156t.687 3.172q.688 1.062 2.031 1.062.625 0 1.219-.265.594-.281 1.219-.86z"/><text x="369" y="872.6" fill="#D9B8FF" font-family="Helvetica" font-size="17" textLength="334">gcp_notification_endpoint_grpc_settings</text><path d="M336 886.609h374" style="stroke:#000d19;stroke-width:.5"/><text x="346" y="908.604" fill="#D9B8FF" font-family="sans-serif" font-size="14" font-weight="bold" textLength="71">authority</text><text x="417" y="908.604" fill="#D9B8FF" font-family="sans-serif" font-size="14" textLength="48">: string</text><text x="346" y="934.901" fill="#D9B8FF" font-family="sans-serif" font-size="14" font-weight="bold" textLength="70">endpoint</text><text x="416" y="934.901" fill="#D9B8FF" font-family="sans-serif" font-size="14" textLength="48">: string</text><text x="346" y="961.198" fill="#D9B8FF" font-family="sans-serif" font-size="14" font-weight="bold" textLength="111">payload_name</text><text x="457" y="961.198" fill="#D9B8FF" font-family="sans-serif" font-size="14" textLength="48">: string</text><text x="346" y="987.495" fill="#D9B8FF" font-family="sans-serif" font-size="14" font-weight="bold" textLength="122">resend_interval</text><text x="468" y="987.495" fill="#D9B8FF" font-family="sans-serif" font-size="14" textLength="99">: gcp_duration</text><text x="346" y="1013.792" fill="#D9B8FF" font-family="sans-serif" font-size="14" font-weight="bold" textLength="147">retry_duration_sec</text><text x="493" y="1013.792" fill="#D9B8FF" font-family="sans-serif" font-size="14" textLength="44">: int64</text><rect width="348" height="152.977" x="7" y="438.76" fill="#3D176E" rx="2.5" ry="2.5" style="stroke:#000d19;stroke-width:.5"/><circle cx="117.75" cy="458.654" r="11" fill="#ADD1B2" style="stroke:#181818;stroke-width:1"/><path d="M120.719 464.295q-.578.297-1.219.438-.64.156-1.344.156-2.5 0-3.828-1.64-1.312-1.657-1.312-4.782t1.312-4.781q1.328-1.656 3.828-1.656.703 0 1.344.156.656.156 1.219.453v2.719q-.625-.579-1.219-.844-.594-.281-1.219-.281-1.344 0-2.031 1.078-.687 1.062-.687 3.156t.687 3.172q.688 1.062 2.031 1.062.625 0 1.219-.265.594-.281 1.219-.86z"/><text x="143.25" y="464.54" fill="#D9B8FF" font-family="Helvetica" font-size="17" textLength="108">gcp_resource</text><path d="M8 478.549h346" style="stroke:#000d19;stroke-width:.5"/><text x="18" y="500.544" fill="#D9B8FF" font-family="sans-serif" font-size="14" font-weight="bold" textLength="151">deprecation_status</text><text x="169" y="500.544" fill="#D9B8FF" font-family="sans-serif" font-size="14" textLength="175">: gcp_deprecation_status</text><text x="18" y="526.841" fill="#D9B8FF" font-family="sans-serif" font-size="14" font-weight="bold" textLength="89">description</text><text x="107" y="526.841" fill="#D9B8FF" font-family="sans-serif" font-size="14" textLength="48">: string</text><text x="18" y="553.138" fill="#D9B8FF" font-family="sans-serif" font-size="14" font-weight="bold" textLength="128">label_fingerprint</text><text x="146" y="553.138" fill="#D9B8FF" font-family="sans-serif" font-size="14" textLength="48">: string</text><text x="18" y="579.435" fill="#D9B8FF" font-family="sans-serif" font-size="14" font-weight="bold" textLength="27">link</text><text x="45" y="579.435" fill="#D9B8FF" font-family="sans-serif" font-size="14" textLength="48">: string</text><rect width="198" height="39.789" x="390" y="495.36" fill="#3D176E" rx="2.5" ry="2.5" style="stroke:#000d19;stroke-width:.5"/><circle cx="405" cy="515.255" r="11" fill="#ADD1B2" style="stroke:#181818;stroke-width:1"/><path d="M407.969 520.895q-.578.297-1.219.438-.64.156-1.344.156-2.5 0-3.828-1.64-1.312-1.657-1.312-4.782t1.312-4.781q1.328-1.656 3.828-1.656.703 0 1.344.156.656.156 1.219.453v2.719q-.625-.579-1.219-.844-.594-.281-1.219-.281-1.344 0-2.031 1.078-.687 1.062-.687 3.156t.687 3.172q.688 1.062 2.031 1.062.625 0 1.219-.265.594-.281 1.219-.86z"/><text x="424" y="521.14" fill="#D9B8FF" font-family="Helvetica" font-size="17" textLength="156">phantom_resource</text><rect width="227" height="310.758" x="220.5" y="7" fill="#3D176E" rx="2.5" ry="2.5" style="stroke:#000d19;stroke-width:.5"/><circle cx="289.25" cy="26.895" r="11" fill="#ADD1B2" style="stroke:#181818;stroke-width:1"/><path d="M292.219 32.535q-.578.297-1.219.438-.64.156-1.344.156-2.5 0-3.828-1.64-1.312-1.657-1.312-4.782t1.312-4.781q1.328-1.656 3.828-1.656.703 0 1.344.156.656.156 1.219.453v2.719q-.625-.578-1.219-.844-.594-.281-1.219-.281-1.344 0-2.031 1.078-.687 1.062-.687 3.156t.687 3.172q.688 1.062 2.031 1.062.625 0 1.219-.265.594-.281 1.219-.86z"/><text x="314.75" y="32.78" fill="#D9B8FF" font-family="Helvetica" font-size="17" textLength="71">resource</text><path d="M221.5 46.789h225" style="stroke:#000d19;stroke-width:.5"/><text x="231.5" y="68.784" fill="#D9B8FF" font-family="sans-serif" font-size="14" font-weight="bold" textLength="29">age</text><text x="260.5" y="68.784" fill="#D9B8FF" font-family="sans-serif" font-size="14" textLength="66">: duration</text><text x="231.5" y="95.081" fill="#D9B8FF" font-family="sans-serif" font-size="14" font-weight="bold" textLength="43">atime</text><text x="274.5" y="95.081" fill="#D9B8FF" font-family="sans-serif" font-size="14" textLength="70">: datetime</text><text x="231.5" y="121.378" fill="#D9B8FF" font-family="sans-serif" font-size="14" font-weight="bold" textLength="43">ctime</text><text x="274.5" y="121.378" fill="#D9B8FF" font-family="sans-serif" font-size="14" textLength="70">: datetime</text><text x="231.5" y="147.675" fill="#D9B8FF" font-family="sans-serif" font-size="14" font-weight="bold" textLength="14">id</text><text x="245.5" y="147.675" fill="#D9B8FF" font-family="sans-serif" font-size="14" textLength="48">: string</text><text x="231.5" y="173.972" fill="#D9B8FF" font-family="sans-serif" font-size="14" font-weight="bold" textLength="33">kind</text><text x="264.5" y="173.972" fill="#D9B8FF" font-family="sans-serif" font-size="14" textLength="48">: string</text><text x="231.5" y="200.269" fill="#D9B8FF" font-family="sans-serif" font-size="14" font-weight="bold" textLength="90">last_access</text><text x="321.5" y="200.269" fill="#D9B8FF" font-family="sans-serif" font-size="14" textLength="66">: duration</text><text x="231.5" y="226.565" fill="#D9B8FF" font-family="sans-serif" font-size="14" font-weight="bold" textLength="90">last_update</text><text x="321.5" y="226.565" fill="#D9B8FF" font-family="sans-serif" font-size="14" textLength="66">: duration</text><text x="231.5" y="252.862" fill="#D9B8FF" font-family="sans-serif" font-size="14" font-weight="bold" textLength="48">mtime</text><text x="279.5" y="252.862" fill="#D9B8FF" font-family="sans-serif" font-size="14" textLength="70">: datetime</text><text x="231.5" y="279.159" fill="#D9B8FF" font-family="sans-serif" font-size="14" font-weight="bold" textLength="43">name</text><text x="274.5" y="279.159" fill="#D9B8FF" font-family="sans-serif" font-size="14" textLength="48">: string</text><text x="231.5" y="305.456" fill="#D9B8FF" font-family="sans-serif" font-size="14" font-weight="bold" textLength="34">tags</text><text x="265.5" y="305.456" fill="#D9B8FF" font-family="sans-serif" font-size="14" textLength="171">: dictionary[string, string]</text><path fill="none" d="M408.89 787.27c-31.2 20.29-66.23 43.07-104.04 67.65" style="stroke:#ffaf37;stroke-width:2"/><path fill="#FFAF37" d="m299.82 858.19 9.726-1.552-5.534-1.173 1.173-5.534z" style="stroke:#ffaf37;stroke-width:2"/><path fill="none" d="M476.46 787.27c5.38 17.13 10.251 32.656 16.851 53.656" style="stroke:#ffaf37;stroke-width:2"/><path fill="#FFAF37" d="m495.11 846.65 1.118-9.785-2.617 5.015-5.015-2.617z" style="stroke:#ffaf37;stroke-width:2"/><path fill="none" d="M287.528 603.473c49.37 40.42 93.912 76.887 133.122 108.997M273.6 592.07l10.127 16.045 7.602-9.285zm211.59-38.885c-4 38.72-11.29 109.335-16.45 159.385m18.3-177.29-7.818 17.288 11.937 1.233zM523 1026.54v53.12" style="stroke:#ffaf37;stroke-width:2"/><path fill="#FFAF37" d="m523 1085.66 4-9-4 4-4-4z" style="stroke:#ffaf37;stroke-width:2"/><path fill="none" d="M181 592.17v248.49" style="stroke:#ffaf37;stroke-width:2"/><path fill="#FFAF37" d="m181 846.66 4-9-4 4-4-4z" style="stroke:#ffaf37;stroke-width:2"/><path fill="none" d="M259.365 334.54c-18.19 41.71-29.875 68.5-45.255 103.77m52.45-120.27-12.695 14.1 11 4.798z" style="stroke:#ffaf37;stroke-width:2"/><g fill="none"><path d="M409.593 334.505c30.6 69.27 55.857 126.445 70.887 160.465" style="stroke:#ffaf37;stroke-width:2"/><path d="m402.32 318.04 1.785 18.89 10.977-4.85z" style="stroke:#ffaf37;stroke-width:2"/></g></svg>