<svg xmlns="http://www.w3.org/2000/svg" width="9845" height="1288" viewBox="0 0 9845 1288"><rect width="238" height="39.789" x="5265" y="1081.91" fill="#3D176E" rx="2.5" ry="2.5" style="stroke:#000d19;stroke-width:.5"/><circle cx="5280" cy="1101.804" r="11" fill="#ADD1B2" style="stroke:#181818;stroke-width:1"/><path d="M5282.969 1107.445q-.578.297-1.219.438-.64.156-1.344.156-2.5 0-3.828-1.64-1.312-1.657-1.312-4.782t1.312-4.781q1.328-1.657 3.828-1.657.703 0 1.344.157.656.156 1.219.453v2.719q-.625-.579-1.219-.844-.594-.281-1.219-.281-1.343 0-2.031 1.078-.687 1.062-.687 3.156t.687 3.172q.688 1.062 2.031 1.062.625 0 1.219-.265.594-.282 1.219-.86z"/><text x="5299" y="1107.69" fill="#D9B8FF" font-family="Helvetica" font-size="17" textLength="196">aws_ec2_instance_type</text><rect width="231" height="39.789" x="7190.5" y="1081.91" fill="#3D176E" rx="2.5" ry="2.5" style="stroke:#000d19;stroke-width:.5"/><circle cx="7205.5" cy="1101.804" r="11" fill="#ADD1B2" style="stroke:#181818;stroke-width:1"/><path d="M7208.469 1107.445q-.578.297-1.219.438-.64.156-1.344.156-2.5 0-3.828-1.64-1.312-1.657-1.312-4.782t1.312-4.781q1.328-1.657 3.828-1.657.703 0 1.344.157.656.156 1.219.453v2.719q-.625-.579-1.219-.844-.594-.281-1.219-.281-1.343 0-2.031 1.078-.687 1.062-.687 3.156t.687 3.172q.688 1.062 2.031 1.062.625 0 1.219-.265.594-.282 1.219-.86z"/><text x="7224.5" y="1107.69" fill="#D9B8FF" font-family="Helvetica" font-size="17" textLength="189">aws_ec2_volume_type</text><rect width="137" height="39.789" x="7055.5" y="760.33" fill="#3D176E" rx="2.5" ry="2.5" style="stroke:#000d19;stroke-width:.5"/><circle cx="7070.5" cy="780.225" r="11" fill="#ADD1B2" style="stroke:#181818;stroke-width:1"/><path d="M7073.469 785.865q-.578.297-1.219.438-.64.156-1.344.156-2.5 0-3.828-1.64-1.312-1.657-1.312-4.782t1.312-4.781q1.328-1.656 3.828-1.656.703 0 1.344.156.656.156 1.219.453v2.719q-.625-.578-1.219-.844-.594-.281-1.219-.281-1.343 0-2.031 1.078-.687 1.062-.687 3.156t.687 3.172q.688 1.062 2.031 1.062.625 0 1.219-.265.594-.281 1.219-.86z"/><text x="7089.5" y="786.11" fill="#D9B8FF" font-family="Helvetica" font-size="17" textLength="95">aws_region</text><rect width="252" height="39.789" x="7" y="599.54" fill="#3D176E" rx="2.5" ry="2.5" style="stroke:#000d19;stroke-width:.5"/><circle cx="22" cy="619.434" r="11" fill="#ADD1B2" style="stroke:#181818;stroke-width:1"/><path d="M24.969 625.075q-.578.297-1.219.438-.64.156-1.344.156-2.5 0-3.828-1.64-1.312-1.657-1.312-4.782t1.312-4.781q1.328-1.657 3.828-1.657.703 0 1.344.157.656.156 1.219.453v2.719q-.625-.579-1.219-.844-.594-.281-1.219-.281-1.343 0-2.031 1.078-.687 1.062-.687 3.156t.687 3.172q.688 1.062 2.031 1.062.625 0 1.219-.265.594-.282 1.219-.86z"/><text x="41" y="625.32" fill="#D9B8FF" font-family="Helvetica" font-size="17" textLength="210">aws_s3_account_settings</text><rect width="199" height="39.789" x="5128.5" y="760.33" fill="#3D176E" rx="2.5" ry="2.5" style="stroke:#000d19;stroke-width:.5"/><circle cx="5143.5" cy="780.225" r="11" fill="#ADD1B2" style="stroke:#181818;stroke-width:1"/><path d="M5146.469 785.865q-.578.297-1.219.438-.64.156-1.344.156-2.5 0-3.828-1.64-1.312-1.657-1.312-4.782t1.312-4.781q1.328-1.656 3.828-1.656.703 0 1.344.156.656.156 1.219.453v2.719q-.625-.578-1.219-.844-.594-.281-1.219-.281-1.343 0-2.031 1.078-.687 1.062-.687 3.156t.687 3.172q.688 1.062 2.031 1.062.625 0 1.219-.265.594-.281 1.219-.86z"/><text x="5162.5" y="786.11" fill="#D9B8FF" font-family="Helvetica" font-size="17" textLength="157">aws_service_quota</text><rect width="339" height="39.789" x="293.5" y="599.54" fill="#3D176E" rx="2.5" ry="2.5" style="stroke:#000d19;stroke-width:.5"/><circle cx="308.5" cy="619.434" r="11" fill="#ADD1B2" style="stroke:#181818;stroke-width:1"/><path d="M311.469 625.075q-.578.297-1.219.438-.64.156-1.344.156-2.5 0-3.828-1.64-1.312-1.657-1.312-4.782t1.312-4.781q1.328-1.657 3.828-1.657.703 0 1.344.157.656.156 1.219.453v2.719q-.625-.579-1.219-.844-.594-.281-1.219-.281-1.344 0-2.031 1.078-.687 1.062-.687 3.156t.687 3.172q.688 1.062 2.031 1.062.625 0 1.219-.265.594-.282 1.219-.86z"/><text x="327.5" y="625.32" fill="#D9B8FF" font-family="Helvetica" font-size="17" textLength="297">azure_authorization_role_definition</text><rect width="258" height="39.789" x="7456" y="1081.91" fill="#3D176E" rx="2.5" ry="2.5" style="stroke:#000d19;stroke-width:.5"/><circle cx="7471" cy="1101.804" r="11" fill="#ADD1B2" style="stroke:#181818;stroke-width:1"/><path d="M7473.969 1107.445q-.578.297-1.219.438-.64.156-1.344.156-2.5 0-3.828-1.64-1.312-1.657-1.312-4.782t1.312-4.781q1.328-1.657 3.828-1.657.703 0 1.344.157.656.156 1.219.453v2.719q-.625-.579-1.219-.844-.594-.281-1.219-.281-1.343 0-2.031 1.078-.687 1.062-.687 3.156t.687 3.172q.688 1.062 2.031 1.062.625 0 1.219-.265.594-.282 1.219-.86z"/><text x="7490" y="1107.69" fill="#D9B8FF" font-family="Helvetica" font-size="17" textLength="216">azure_compute_disk_type</text><rect width="355" height="39.789" x="5538.5" y="1081.91" fill="#3D176E" rx="2.5" ry="2.5" style="stroke:#000d19;stroke-width:.5"/><circle cx="5553.5" cy="1101.804" r="11" fill="#ADD1B2" style="stroke:#181818;stroke-width:1"/><path d="M5556.469 1107.445q-.578.297-1.219.438-.64.156-1.344.156-2.5 0-3.828-1.64-1.312-1.657-1.312-4.782t1.312-4.781q1.328-1.657 3.828-1.657.703 0 1.344.157.656.156 1.219.453v2.719q-.625-.579-1.219-.844-.594-.281-1.219-.281-1.343 0-2.031 1.078-.687 1.062-.687 3.156t.687 3.172q.688 1.062 2.031 1.062.625 0 1.219-.265.594-.282 1.219-.86z"/><text x="5572.5" y="1107.69" fill="#D9B8FF" font-family="Helvetica" font-size="17" textLength="313">azure_compute_virtual_machine_size</text><rect width="319" height="39.789" x="3917.5" y="760.33" fill="#3D176E" rx="2.5" ry="2.5" style="stroke:#000d19;stroke-width:.5"/><circle cx="3932.5" cy="780.225" r="11" fill="#ADD1B2" style="stroke:#181818;stroke-width:1"/><path d="M3935.469 785.865q-.578.297-1.219.438-.64.156-1.344.156-2.5 0-3.828-1.64-1.312-1.657-1.312-4.782t1.312-4.781q1.328-1.656 3.828-1.656.703 0 1.344.156.656.156 1.219.453v2.719q-.625-.578-1.219-.844-.594-.281-1.219-.281-1.343 0-2.031 1.078-.687 1.062-.687 3.156t.687 3.172q.688 1.062 2.031 1.062.625 0 1.219-.265.594-.281 1.219-.86z"/><text x="3951.5" y="786.11" fill="#D9B8FF" font-family="Helvetica" font-size="17" textLength="277">azure_cosmos_db_account_usage</text><rect width="262" height="39.789" x="667" y="599.54" fill="#3D176E" rx="2.5" ry="2.5" style="stroke:#000d19;stroke-width:.5"/><circle cx="682" cy="619.434" r="11" fill="#ADD1B2" style="stroke:#181818;stroke-width:1"/><path d="M684.969 625.075q-.578.297-1.219.438-.64.156-1.344.156-2.5 0-3.828-1.64-1.312-1.657-1.312-4.782t1.312-4.781q1.328-1.657 3.828-1.657.703 0 1.344.157.656.156 1.219.453v2.719q-.625-.579-1.219-.844-.594-.281-1.219-.281-1.343 0-2.031 1.078-.687 1.062-.687 3.156t.687 3.172q.688 1.062 2.031 1.062.625 0 1.219-.265.594-.282 1.219-.86z"/><text x="701" y="625.32" fill="#D9B8FF" font-family="Helvetica" font-size="17" textLength="220">azure_cosmos_db_location</text><rect width="163" height="39.789" x="7227.5" y="760.33" fill="#3D176E" rx="2.5" ry="2.5" style="stroke:#000d19;stroke-width:.5"/><circle cx="7242.5" cy="780.225" r="11" fill="#ADD1B2" style="stroke:#181818;stroke-width:1"/><path d="M7245.469 785.865q-.578.297-1.219.438-.64.156-1.344.156-2.5 0-3.828-1.64-1.312-1.657-1.312-4.782t1.312-4.781q1.328-1.656 3.828-1.656.703 0 1.344.156.656.156 1.219.453v2.719q-.625-.578-1.219-.844-.594-.281-1.219-.281-1.343 0-2.031 1.078-.687 1.062-.687 3.156t.687 3.172q.688 1.062 2.031 1.062.625 0 1.219-.265.594-.281 1.219-.86z"/><text x="7261.5" y="786.11" fill="#D9B8FF" font-family="Helvetica" font-size="17" textLength="121">azure_location</text><rect width="482" height="39.789" x="964" y="599.54" fill="#3D176E" rx="2.5" ry="2.5" style="stroke:#000d19;stroke-width:.5"/><circle cx="979" cy="619.434" r="11" fill="#ADD1B2" style="stroke:#181818;stroke-width:1"/><path d="M981.969 625.075q-.578.297-1.219.438-.64.156-1.344.156-2.5 0-3.828-1.64-1.312-1.657-1.312-4.782t1.312-4.781q1.328-1.657 3.828-1.657.703 0 1.344.157.656.156 1.219.453v2.719q-.625-.579-1.219-.844-.594-.281-1.219-.281-1.343 0-2.031 1.078-.687 1.062-.687 3.156t.687 3.172q.688 1.062 2.031 1.062.625 0 1.219-.265.594-.282 1.219-.86z"/><text x="998" y="625.32" fill="#D9B8FF" font-family="Helvetica" font-size="17" textLength="440">azure_machine_learning_environment_version_base</text><rect width="304" height="39.789" x="1481" y="599.54" fill="#3D176E" rx="2.5" ry="2.5" style="stroke:#000d19;stroke-width:.5"/><circle cx="1496" cy="619.434" r="11" fill="#ADD1B2" style="stroke:#181818;stroke-width:1"/><path d="M1498.969 625.075q-.578.297-1.219.438-.64.156-1.344.156-2.5 0-3.828-1.64-1.312-1.657-1.312-4.782t1.312-4.781q1.328-1.657 3.828-1.657.703 0 1.344.157.656.156 1.219.453v2.719q-.625-.579-1.219-.844-.594-.281-1.219-.281-1.343 0-2.031 1.078-.687 1.062-.687 3.156t.687 3.172q.688 1.062 2.031 1.062.625 0 1.219-.265.594-.282 1.219-.86z"/><text x="1515" y="625.32" fill="#D9B8FF" font-family="Helvetica" font-size="17" textLength="262">azure_machine_learning_quota</text><rect width="508" height="39.789" x="673" y="760.33" fill="#3D176E" rx="2.5" ry="2.5" style="stroke:#000d19;stroke-width:.5"/><circle cx="688" cy="780.225" r="11" fill="#ADD1B2" style="stroke:#181818;stroke-width:1"/><path d="M690.969 785.865q-.578.297-1.219.438-.64.156-1.344.156-2.5 0-3.828-1.64-1.312-1.657-1.312-4.782t1.312-4.781q1.328-1.656 3.828-1.656.703 0 1.344.156.656.156 1.219.453v2.719q-.625-.578-1.219-.844-.594-.281-1.219-.281-1.343 0-2.031 1.078-.687 1.062-.687 3.156t.687 3.172q.688 1.062 2.031 1.062.625 0 1.219-.265.594-.281 1.219-.86z"/><text x="707" y="786.11" fill="#D9B8FF" font-family="Helvetica" font-size="17" textLength="466">azure_machine_learning_registry_environment_version</text><rect width="305" height="39.789" x="4271.5" y="760.33" fill="#3D176E" rx="2.5" ry="2.5" style="stroke:#000d19;stroke-width:.5"/><circle cx="4286.5" cy="780.225" r="11" fill="#ADD1B2" style="stroke:#181818;stroke-width:1"/><path d="M4289.469 785.865q-.578.297-1.219.438-.64.156-1.344.156-2.5 0-3.828-1.64-1.312-1.657-1.312-4.782t1.312-4.781q1.328-1.656 3.828-1.656.703 0 1.344.156.656.156 1.219.453v2.719q-.625-.578-1.219-.844-.594-.281-1.219-.281-1.343 0-2.031 1.078-.687 1.062-.687 3.156t.687 3.172q.688 1.062 2.031 1.062.625 0 1.219-.265.594-.281 1.219-.86z"/><text x="4305.5" y="786.11" fill="#D9B8FF" font-family="Helvetica" font-size="17" textLength="263">azure_machine_learning_usage</text><rect width="432" height="39.789" x="5929" y="1081.91" fill="#3D176E" rx="2.5" ry="2.5" style="stroke:#000d19;stroke-width:.5"/><circle cx="5944" cy="1101.804" r="11" fill="#ADD1B2" style="stroke:#181818;stroke-width:1"/><path d="M5946.969 1107.445q-.578.297-1.219.438-.64.156-1.344.156-2.5 0-3.828-1.64-1.312-1.657-1.312-4.782t1.312-4.781q1.328-1.657 3.828-1.657.703 0 1.344.157.656.156 1.219.453v2.719q-.625-.579-1.219-.844-.594-.281-1.219-.281-1.343 0-2.031 1.078-.687 1.062-.687 3.156t.687 3.172q.688 1.062 2.031 1.062.625 0 1.219-.265.594-.282 1.219-.86z"/><text x="5963" y="1107.69" fill="#D9B8FF" font-family="Helvetica" font-size="17" textLength="390">azure_machine_learning_virtual_machine_size</text><rect width="532" height="39.789" x="1216" y="760.33" fill="#3D176E" rx="2.5" ry="2.5" style="stroke:#000d19;stroke-width:.5"/><circle cx="1231" cy="780.225" r="11" fill="#ADD1B2" style="stroke:#181818;stroke-width:1"/><path d="M1233.969 785.865q-.578.297-1.219.438-.64.156-1.344.156-2.5 0-3.828-1.64-1.312-1.657-1.312-4.782t1.312-4.781q1.328-1.656 3.828-1.656.703 0 1.344.156.656.156 1.219.453v2.719q-.625-.578-1.219-.844-.594-.281-1.219-.281-1.343 0-2.031 1.078-.687 1.062-.687 3.156t.687 3.172q.688 1.062 2.031 1.062.625 0 1.219-.265.594-.281 1.219-.86z"/><text x="1250" y="786.11" fill="#D9B8FF" font-family="Helvetica" font-size="17" textLength="490">azure_machine_learning_workspace_environment_version</text><rect width="254" height="39.789" x="6236" y="1242.7" fill="#3D176E" rx="2.5" ry="2.5" style="stroke:#000d19;stroke-width:.5"/><circle cx="6251" cy="1262.594" r="11" fill="#ADD1B2" style="stroke:#181818;stroke-width:1"/><path d="M6253.969 1268.235q-.578.297-1.219.438-.64.156-1.344.156-2.5 0-3.828-1.64-1.312-1.657-1.312-4.782t1.312-4.781q1.328-1.657 3.828-1.657.703 0 1.344.157.656.156 1.219.453v2.719q-.625-.579-1.219-.844-.594-.281-1.219-.281-1.343 0-2.031 1.078-.687 1.062-.687 3.156t.687 3.172q.688 1.062 2.031 1.062.625 0 1.219-.265.594-.282 1.219-.86z"/><text x="6270" y="1268.48" fill="#D9B8FF" font-family="Helvetica" font-size="17" textLength="212">azure_mysql_server_type</text><rect width="496" height="39.789" x="1820" y="599.54" fill="#3D176E" rx="2.5" ry="2.5" style="stroke:#000d19;stroke-width:.5"/><circle cx="1835" cy="619.434" r="11" fill="#ADD1B2" style="stroke:#181818;stroke-width:1"/><path d="M1837.969 625.075q-.578.297-1.219.438-.64.156-1.344.156-2.5 0-3.828-1.64-1.312-1.657-1.312-4.782t1.312-4.781q1.328-1.657 3.828-1.657.703 0 1.344.157.656.156 1.219.453v2.719q-.625-.579-1.219-.844-.594-.281-1.219-.281-1.343 0-2.031 1.078-.687 1.062-.687 3.156t.687 3.172q.688 1.062 2.031 1.062.625 0 1.219-.265.594-.282 1.219-.86z"/><text x="1854" y="625.32" fill="#D9B8FF" font-family="Helvetica" font-size="17" textLength="454">azure_network_application_gateway_firewall_rule_set</text><rect width="419" height="39.789" x="2350.5" y="599.54" fill="#3D176E" rx="2.5" ry="2.5" style="stroke:#000d19;stroke-width:.5"/><circle cx="2365.5" cy="619.434" r="11" fill="#ADD1B2" style="stroke:#181818;stroke-width:1"/><path d="M2368.469 625.075q-.578.297-1.219.438-.64.156-1.344.156-2.5 0-3.828-1.64-1.312-1.657-1.312-4.782t1.312-4.781q1.328-1.657 3.828-1.657.703 0 1.344.157.656.156 1.219.453v2.719q-.625-.579-1.219-.844-.594-.281-1.219-.281-1.343 0-2.031 1.078-.687 1.062-.687 3.156t.687 3.172q.688 1.062 2.031 1.062.625 0 1.219-.265.594-.282 1.219-.86z"/><text x="2384.5" y="625.32" fill="#D9B8FF" font-family="Helvetica" font-size="17" textLength="377">azure_network_express_route_ports_location</text><rect width="391" height="39.789" x="2804.5" y="599.54" fill="#3D176E" rx="2.5" ry="2.5" style="stroke:#000d19;stroke-width:.5"/><circle cx="2819.5" cy="619.434" r="11" fill="#ADD1B2" style="stroke:#181818;stroke-width:1"/><path d="M2822.469 625.075q-.578.297-1.219.438-.64.156-1.344.156-2.5 0-3.828-1.64-1.312-1.657-1.312-4.782t1.312-4.781q1.328-1.657 3.828-1.657.703 0 1.344.157.656.156 1.219.453v2.719q-.625-.579-1.219-.844-.594-.281-1.219-.281-1.343 0-2.031 1.078-.687 1.062-.687 3.156t.687 3.172q.688 1.062 2.031 1.062.625 0 1.219-.265.594-.282 1.219-.86z"/><text x="2838.5" y="625.32" fill="#D9B8FF" font-family="Helvetica" font-size="17" textLength="349">azure_network_security_partner_provider</text><rect width="225" height="39.789" x="5151.5" y="921.12" fill="#3D176E" rx="2.5" ry="2.5" style="stroke:#000d19;stroke-width:.5"/><circle cx="5166.5" cy="941.014" r="11" fill="#ADD1B2" style="stroke:#181818;stroke-width:1"/><path d="M5169.469 946.655q-.578.297-1.219.438-.64.156-1.344.156-2.5 0-3.828-1.64-1.312-1.657-1.312-4.782t1.312-4.781q1.328-1.657 3.828-1.657.703 0 1.344.157.656.156 1.219.453v2.719q-.625-.578-1.219-.844-.594-.281-1.219-.281-1.343 0-2.031 1.078-.687 1.062-.687 3.156t.687 3.172q.688 1.062 2.031 1.062.625 0 1.219-.265.594-.282 1.219-.86z"/><text x="5185.5" y="946.9" fill="#D9B8FF" font-family="Helvetica" font-size="17" textLength="183">azure_network_usage</text><rect width="357" height="39.789" x="3230.5" y="599.54" fill="#3D176E" rx="2.5" ry="2.5" style="stroke:#000d19;stroke-width:.5"/><circle cx="3245.5" cy="619.434" r="11" fill="#ADD1B2" style="stroke:#181818;stroke-width:1"/><path d="M3248.469 625.075q-.578.297-1.219.438-.64.156-1.344.156-2.5 0-3.828-1.64-1.312-1.657-1.312-4.782t1.312-4.781q1.328-1.657 3.828-1.657.703 0 1.344.157.656.156 1.219.453v2.719q-.625-.579-1.219-.844-.594-.281-1.219-.281-1.343 0-2.031 1.078-.687 1.062-.687 3.156t.687 3.172q.688 1.062 2.031 1.062.625 0 1.219-.265.594-.282 1.219-.86z"/><text x="3264.5" y="625.32" fill="#D9B8FF" font-family="Helvetica" font-size="17" textLength="315">azure_network_virtual_appliance_sku</text><rect width="289" height="39.789" x="6525.5" y="1242.7" fill="#3D176E" rx="2.5" ry="2.5" style="stroke:#000d19;stroke-width:.5"/><circle cx="6540.5" cy="1262.594" r="11" fill="#ADD1B2" style="stroke:#181818;stroke-width:1"/><path d="M6543.469 1268.235q-.578.297-1.219.438-.64.156-1.344.156-2.5 0-3.828-1.64-1.312-1.657-1.312-4.782t1.312-4.781q1.328-1.657 3.828-1.657.703 0 1.344.157.656.156 1.219.453v2.719q-.625-.579-1.219-.844-.594-.281-1.219-.281-1.343 0-2.031 1.078-.687 1.062-.687 3.156t.687 3.172q.688 1.062 2.031 1.062.625 0 1.219-.265.594-.282 1.219-.86z"/><text x="6559.5" y="1268.48" fill="#D9B8FF" font-family="Helvetica" font-size="17" textLength="247">azure_postgresql_server_type</text><rect width="269" height="39.789" x="3622.5" y="599.54" fill="#3D176E" rx="2.5" ry="2.5" style="stroke:#000d19;stroke-width:.5"/><circle cx="3637.5" cy="619.434" r="11" fill="#ADD1B2" style="stroke:#181818;stroke-width:1"/><path d="M3640.469 625.075q-.578.297-1.219.438-.64.156-1.344.156-2.5 0-3.828-1.64-1.312-1.657-1.312-4.782t1.312-4.781q1.328-1.657 3.828-1.657.703 0 1.344.157.656.156 1.219.453v2.719q-.625-.579-1.219-.844-.594-.281-1.219-.281-1.343 0-2.031 1.078-.687 1.062-.687 3.156t.687 3.172q.688 1.062 2.031 1.062.625 0 1.219-.265.594-.282 1.219-.86z"/><text x="3656.5" y="625.32" fill="#D9B8FF" font-family="Helvetica" font-size="17" textLength="227">azure_security_assessment</text><rect width="228" height="39.789" x="3927" y="599.54" fill="#3D176E" rx="2.5" ry="2.5" style="stroke:#000d19;stroke-width:.5"/><circle cx="3942" cy="619.434" r="11" fill="#ADD1B2" style="stroke:#181818;stroke-width:1"/><path d="M3944.969 625.075q-.578.297-1.219.438-.64.156-1.344.156-2.5 0-3.828-1.64-1.312-1.657-1.312-4.782t1.312-4.781q1.328-1.657 3.828-1.657.703 0 1.344.157.656.156 1.219.453v2.719q-.625-.579-1.219-.844-.594-.281-1.219-.281-1.343 0-2.031 1.078-.687 1.062-.687 3.156t.687 3.172q.688 1.062 2.031 1.062.625 0 1.219-.265.594-.282 1.219-.86z"/><text x="3961" y="625.32" fill="#D9B8FF" font-family="Helvetica" font-size="17" textLength="186">azure_security_pricing</text><rect width="304" height="39.789" x="4190" y="599.54" fill="#3D176E" rx="2.5" ry="2.5" style="stroke:#000d19;stroke-width:.5"/><circle cx="4205" cy="619.434" r="11" fill="#ADD1B2" style="stroke:#181818;stroke-width:1"/><path d="M4207.969 625.075q-.578.297-1.219.438-.64.156-1.344.156-2.5 0-3.828-1.64-1.312-1.657-1.312-4.782t1.312-4.781q1.328-1.657 3.828-1.657.703 0 1.344.157.656.156 1.219.453v2.719q-.625-.579-1.219-.844-.594-.281-1.219-.281-1.343 0-2.031 1.078-.687 1.062-.687 3.156t.687 3.172q.688 1.062 2.031 1.062.625 0 1.219-.265.594-.282 1.219-.86z"/><text x="4224" y="625.32" fill="#D9B8FF" font-family="Helvetica" font-size="17" textLength="262">azure_storage_account_deleted</text><rect width="291" height="39.789" x="4682.5" y="760.33" fill="#3D176E" rx="2.5" ry="2.5" style="stroke:#000d19;stroke-width:.5"/><circle cx="4697.5" cy="780.225" r="11" fill="#ADD1B2" style="stroke:#181818;stroke-width:1"/><path d="M4700.469 785.865q-.578.297-1.219.438-.64.156-1.344.156-2.5 0-3.828-1.64-1.312-1.657-1.312-4.782t1.312-4.781q1.328-1.656 3.828-1.656.703 0 1.344.156.656.156 1.219.453v2.719q-.625-.578-1.219-.844-.594-.281-1.219-.281-1.343 0-2.031 1.078-.687 1.062-.687 3.156t.687 3.172q.688 1.062 2.031 1.062.625 0 1.219-.265.594-.281 1.219-.86z"/><text x="4716.5" y="786.11" fill="#D9B8FF" font-family="Helvetica" font-size="17" textLength="249">azure_storage_account_usage</text><rect width="197" height="39.789" x="4528.5" y="599.54" fill="#3D176E" rx="2.5" ry="2.5" style="stroke:#000d19;stroke-width:.5"/><circle cx="4543.5" cy="619.434" r="11" fill="#ADD1B2" style="stroke:#181818;stroke-width:1"/><path d="M4546.469 625.075q-.578.297-1.219.438-.64.156-1.344.156-2.5 0-3.828-1.64-1.312-1.657-1.312-4.782t1.312-4.781q1.328-1.657 3.828-1.657.703 0 1.344.157.656.156 1.219.453v2.719q-.625-.579-1.219-.844-.594-.281-1.219-.281-1.343 0-2.031 1.078-.687 1.062-.687 3.156t.687 3.172q.688 1.062 2.031 1.062.625 0 1.219-.265.594-.282 1.219-.86z"/><text x="4562.5" y="625.32" fill="#D9B8FF" font-family="Helvetica" font-size="17" textLength="155">azure_storage_sku</text><rect width="146" height="39.789" x="4761" y="599.54" fill="#3D176E" rx="2.5" ry="2.5" style="stroke:#000d19;stroke-width:.5"/><circle cx="4776" cy="619.434" r="11" fill="#ADD1B2" style="stroke:#181818;stroke-width:1"/><path d="M4778.969 625.075q-.578.297-1.219.438-.64.156-1.344.156-2.5 0-3.828-1.64-1.312-1.657-1.312-4.782t1.312-4.781q1.328-1.657 3.828-1.657.703 0 1.344.157.656.156 1.219.453v2.719q-.625-.579-1.219-.844-.594-.281-1.219-.281-1.343 0-2.031 1.078-.687 1.062-.687 3.156t.687 3.172q.688 1.062 2.031 1.062.625 0 1.219-.265.594-.282 1.219-.86z"/><text x="4795" y="625.32" fill="#D9B8FF" font-family="Helvetica" font-size="17" textLength="104">azure_usage</text><rect width="133" height="39.789" x="4942.5" y="599.54" fill="#3D176E" rx="2.5" ry="2.5" style="stroke:#000d19;stroke-width:.5"/><circle cx="4957.5" cy="619.434" r="11" fill="#ADD1B2" style="stroke:#181818;stroke-width:1"/><path d="M4960.469 625.075q-.578.297-1.219.438-.64.156-1.344.156-2.5 0-3.828-1.64-1.312-1.657-1.312-4.782t1.312-4.781q1.328-1.657 3.828-1.657.703 0 1.344.157.656.156 1.219.453v2.719q-.625-.579-1.219-.844-.594-.281-1.219-.281-1.343 0-2.031 1.078-.687 1.062-.687 3.156t.687 3.172q.688 1.062 2.031 1.062.625 0 1.219-.265.594-.282 1.219-.86z"/><text x="4976.5" y="625.32" fill="#D9B8FF" font-family="Helvetica" font-size="17" textLength="91">base_cloud</text><rect width="155" height="39.789" x="5362.5" y="760.33" fill="#3D176E" rx="2.5" ry="2.5" style="stroke:#000d19;stroke-width:.5"/><circle cx="5377.5" cy="780.225" r="11" fill="#ADD1B2" style="stroke:#181818;stroke-width:1"/><path d="M5380.469 785.865q-.578.297-1.219.438-.64.156-1.344.156-2.5 0-3.828-1.64-1.312-1.657-1.312-4.782t1.312-4.781q1.328-1.656 3.828-1.656.703 0 1.344.156.656.156 1.219.453v2.719q-.625-.578-1.219-.844-.594-.281-1.219-.281-1.343 0-2.031 1.078-.687 1.062-.687 3.156t.687 3.172q.688 1.062 2.031 1.062.625 0 1.219-.265.594-.281 1.219-.86z"/><text x="5396.5" y="786.11" fill="#D9B8FF" font-family="Helvetica" font-size="17" textLength="113">bucket_quota</text><rect width="182" height="39.789" x="5553" y="760.33" fill="#3D176E" rx="2.5" ry="2.5" style="stroke:#000d19;stroke-width:.5"/><circle cx="5568" cy="780.225" r="11" fill="#ADD1B2" style="stroke:#181818;stroke-width:1"/><path d="M5570.969 785.865q-.578.297-1.219.438-.64.156-1.344.156-2.5 0-3.828-1.64-1.312-1.657-1.312-4.782t1.312-4.781q1.328-1.656 3.828-1.656.703 0 1.344.156.656.156 1.219.453v2.719q-.625-.578-1.219-.844-.594-.281-1.219-.281-1.343 0-2.031 1.078-.687 1.062-.687 3.156t.687 3.172q.688 1.062 2.031 1.062.625 0 1.219-.265.594-.281 1.219-.86z"/><text x="5587" y="786.11" fill="#D9B8FF" font-family="Helvetica" font-size="17" textLength="140">certificate_quota</text><rect width="86" height="39.789" x="5008" y="760.33" fill="#3D176E" rx="2.5" ry="2.5" style="stroke:#000d19;stroke-width:.5"/><circle cx="5023" cy="780.225" r="11" fill="#ADD1B2" style="stroke:#181818;stroke-width:1"/><path d="M5025.969 785.865q-.578.297-1.219.438-.64.156-1.344.156-2.5 0-3.828-1.64-1.312-1.657-1.312-4.782t1.312-4.781q1.328-1.656 3.828-1.656.703 0 1.344.156.656.156 1.219.453v2.719q-.625-.578-1.219-.844-.594-.281-1.219-.281-1.343 0-2.031 1.078-.687 1.062-.687 3.156t.687 3.172q.688 1.062 2.031 1.062.625 0 1.219-.265.594-.281 1.219-.86z"/><text x="5042" y="786.11" fill="#D9B8FF" font-family="Helvetica" font-size="17" textLength="44">cloud</text><rect width="242" height="39.789" x="6396" y="1081.91" fill="#3D176E" rx="2.5" ry="2.5" style="stroke:#000d19;stroke-width:.5"/><circle cx="6411" cy="1101.804" r="11" fill="#ADD1B2" style="stroke:#181818;stroke-width:1"/><path d="M6413.969 1107.445q-.578.297-1.219.438-.64.156-1.344.156-2.5 0-3.828-1.64-1.312-1.657-1.312-4.782t1.312-4.781q1.328-1.657 3.828-1.657.703 0 1.344.157.656.156 1.219.453v2.719q-.625-.579-1.219-.844-.594-.281-1.219-.281-1.343 0-2.031 1.078-.687 1.062-.687 3.156t.687 3.172q.688 1.062 2.031 1.062.625 0 1.219-.265.594-.282 1.219-.86z"/><text x="6430" y="1107.69" fill="#D9B8FF" font-family="Helvetica" font-size="17" textLength="200">database_instance_type</text><rect width="335" height="39.789" x="5110.5" y="599.54" fill="#3D176E" rx="2.5" ry="2.5" style="stroke:#000d19;stroke-width:.5"/><circle cx="5125.5" cy="619.434" r="11" fill="#ADD1B2" style="stroke:#181818;stroke-width:1"/><path d="M5128.469 625.075q-.578.297-1.219.438-.64.156-1.344.156-2.5 0-3.828-1.64-1.312-1.657-1.312-4.782t1.312-4.781q1.328-1.657 3.828-1.657.703 0 1.344.157.656.156 1.219.453v2.719q-.625-.579-1.219-.844-.594-.281-1.219-.281-1.343 0-2.031 1.078-.687 1.062-.687 3.156t.687 3.172q.688 1.062 2.031 1.062.625 0 1.219-.265.594-.282 1.219-.86z"/><text x="5144.5" y="625.32" fill="#D9B8FF" font-family="Helvetica" font-size="17" textLength="293">digitalocean_droplet_neighborhood</text><rect width="251" height="39.789" x="6672.5" y="1081.91" fill="#3D176E" rx="2.5" ry="2.5" style="stroke:#000d19;stroke-width:.5"/><circle cx="6687.5" cy="1101.804" r="11" fill="#ADD1B2" style="stroke:#181818;stroke-width:1"/><path d="M6690.469 1107.445q-.578.297-1.219.438-.64.156-1.344.156-2.5 0-3.828-1.64-1.312-1.657-1.312-4.782t1.312-4.781q1.328-1.657 3.828-1.657.703 0 1.344.157.656.156 1.219.453v2.719q-.625-.579-1.219-.844-.594-.281-1.219-.281-1.343 0-2.031 1.078-.687 1.062-.687 3.156t.687 3.172q.688 1.062 2.031 1.062.625 0 1.219-.265.594-.282 1.219-.86z"/><text x="6706.5" y="1107.69" fill="#D9B8FF" font-family="Helvetica" font-size="17" textLength="209">digitalocean_droplet_size</text><rect width="205" height="39.789" x="7425.5" y="760.33" fill="#3D176E" rx="2.5" ry="2.5" style="stroke:#000d19;stroke-width:.5"/><circle cx="7440.5" cy="780.225" r="11" fill="#ADD1B2" style="stroke:#181818;stroke-width:1"/><path d="M7443.469 785.865q-.578.297-1.219.438-.64.156-1.344.156-2.5 0-3.828-1.64-1.312-1.657-1.312-4.782t1.312-4.781q1.328-1.656 3.828-1.656.703 0 1.344.156.656.156 1.219.453v2.719q-.625-.578-1.219-.844-.594-.281-1.219-.281-1.343 0-2.031 1.078-.687 1.062-.687 3.156t.687 3.172q.688 1.062 2.031 1.062.625 0 1.219-.265.594-.281 1.219-.86z"/><text x="7459.5" y="786.11" fill="#D9B8FF" font-family="Helvetica" font-size="17" textLength="163">digitalocean_region</text><rect width="171" height="39.789" x="5770.5" y="760.33" fill="#3D176E" rx="2.5" ry="2.5" style="stroke:#000d19;stroke-width:.5"/><circle cx="5785.5" cy="780.225" r="11" fill="#ADD1B2" style="stroke:#181818;stroke-width:1"/><path d="M5788.469 785.865q-.578.297-1.219.438-.64.156-1.344.156-2.5 0-3.828-1.64-1.312-1.657-1.312-4.782t1.312-4.781q1.328-1.656 3.828-1.656.703 0 1.344.156.656.156 1.219.453v2.719q-.625-.578-1.219-.844-.594-.281-1.219-.281-1.343 0-2.031 1.078-.687 1.062-.687 3.156t.687 3.172q.688 1.062 2.031 1.062.625 0 1.219-.265.594-.281 1.219-.86z"/><text x="5804.5" y="786.11" fill="#D9B8FF" font-family="Helvetica" font-size="17" textLength="129">gateway_quota</text><rect width="158" height="39.789" x="7749" y="1081.91" fill="#3D176E" rx="2.5" ry="2.5" style="stroke:#000d19;stroke-width:.5"/><circle cx="7764" cy="1101.804" r="11" fill="#ADD1B2" style="stroke:#181818;stroke-width:1"/><path d="M7766.969 1107.445q-.578.297-1.219.438-.64.156-1.344.156-2.5 0-3.828-1.64-1.312-1.657-1.312-4.782t1.312-4.781q1.328-1.657 3.828-1.657.703 0 1.344.157.656.156 1.219.453v2.719q-.625-.579-1.219-.844-.594-.281-1.219-.281-1.343 0-2.031 1.078-.687 1.062-.687 3.156t.687 3.172q.688 1.062 2.031 1.062.625 0 1.219-.265.594-.282 1.219-.86z"/><text x="7783" y="1107.69" fill="#D9B8FF" font-family="Helvetica" font-size="17" textLength="116">gcp_disk_type</text><rect width="259" height="39.789" x="5480.5" y="599.54" fill="#3D176E" rx="2.5" ry="2.5" style="stroke:#000d19;stroke-width:.5"/><circle cx="5495.5" cy="619.434" r="11" fill="#ADD1B2" style="stroke:#181818;stroke-width:1"/><path d="M5498.469 625.075q-.578.297-1.219.438-.64.156-1.344.156-2.5 0-3.828-1.64-1.312-1.657-1.312-4.782t1.312-4.781q1.328-1.657 3.828-1.657.703 0 1.344.157.656.156 1.219.453v2.719q-.625-.579-1.219-.844-.594-.281-1.219-.281-1.343 0-2.031 1.078-.687 1.062-.687 3.156t.687 3.172q.688 1.062 2.031 1.062.625 0 1.219-.265.594-.282 1.219-.86z"/><text x="5514.5" y="625.32" fill="#D9B8FF" font-family="Helvetica" font-size="17" textLength="217">gcp_interconnect_location</text><rect width="197" height="39.789" x="6958.5" y="1081.91" fill="#3D176E" rx="2.5" ry="2.5" style="stroke:#000d19;stroke-width:.5"/><circle cx="6973.5" cy="1101.804" r="11" fill="#ADD1B2" style="stroke:#181818;stroke-width:1"/><path d="M6976.469 1107.445q-.578.297-1.219.438-.64.156-1.344.156-2.5 0-3.828-1.64-1.312-1.657-1.312-4.782t1.312-4.781q1.328-1.657 3.828-1.657.703 0 1.344.157.656.156 1.219.453v2.719q-.625-.579-1.219-.844-.594-.281-1.219-.281-1.343 0-2.031 1.078-.687 1.062-.687 3.156t.687 3.172q.688 1.062 2.031 1.062.625 0 1.219-.265.594-.282 1.219-.86z"/><text x="6992.5" y="1107.69" fill="#D9B8FF" font-family="Helvetica" font-size="17" textLength="155">gcp_machine_type</text><rect width="132" height="39.789" x="7665" y="760.33" fill="#3D176E" rx="2.5" ry="2.5" style="stroke:#000d19;stroke-width:.5"/><circle cx="7680" cy="780.225" r="11" fill="#ADD1B2" style="stroke:#181818;stroke-width:1"/><path d="M7682.969 785.865q-.578.297-1.219.438-.64.156-1.344.156-2.5 0-3.828-1.64-1.312-1.657-1.312-4.782t1.312-4.781q1.328-1.656 3.828-1.656.703 0 1.344.156.656.156 1.219.453v2.719q-.625-.578-1.219-.844-.594-.281-1.219-.281-1.343 0-2.031 1.078-.687 1.062-.687 3.156t.687 3.172q.688 1.062 2.031 1.062.625 0 1.219-.265.594-.281 1.219-.86z"/><text x="7699" y="786.11" fill="#D9B8FF" font-family="Helvetica" font-size="17" textLength="90">gcp_region</text><rect width="189" height="39.789" x="5774.5" y="599.54" fill="#3D176E" rx="2.5" ry="2.5" style="stroke:#000d19;stroke-width:.5"/><circle cx="5789.5" cy="619.434" r="11" fill="#ADD1B2" style="stroke:#181818;stroke-width:1"/><path d="M5792.469 625.075q-.578.297-1.219.438-.64.156-1.344.156-2.5 0-3.828-1.64-1.312-1.657-1.312-4.782t1.312-4.781q1.328-1.657 3.828-1.657.703 0 1.344.157.656.156 1.219.453v2.719q-.625-.579-1.219-.844-.594-.281-1.219-.281-1.343 0-2.031 1.078-.687 1.062-.687 3.156t.687 3.172q.688 1.062 2.031 1.062.625 0 1.219-.265.594-.282 1.219-.86z"/><text x="5808.5" y="625.32" fill="#D9B8FF" font-family="Helvetica" font-size="17" textLength="147">gcp_region_quota</text><rect width="118" height="39.789" x="9512" y="760.33" fill="#3D176E" rx="2.5" ry="2.5" style="stroke:#000d19;stroke-width:.5"/><circle cx="9527" cy="780.225" r="11" fill="#ADD1B2" style="stroke:#181818;stroke-width:1"/><path d="M9529.969 785.865q-.578.297-1.219.438-.64.156-1.344.156-2.5 0-3.828-1.64-1.312-1.657-1.312-4.782t1.312-4.781q1.328-1.656 3.828-1.656.703 0 1.344.156.656.156 1.219.453v2.719q-.625-.578-1.219-.844-.594-.281-1.219-.281-1.344 0-2.031 1.078-.687 1.062-.687 3.156t.687 3.172q.688 1.062 2.031 1.062.625 0 1.219-.265.594-.281 1.219-.86z"/><text x="9546" y="786.11" fill="#D9B8FF" font-family="Helvetica" font-size="17" textLength="76">gcp_zone</text><rect width="158" height="39.789" x="7832" y="760.33" fill="#3D176E" rx="2.5" ry="2.5" style="stroke:#000d19;stroke-width:.5"/><circle cx="7847" cy="780.225" r="11" fill="#ADD1B2" style="stroke:#181818;stroke-width:1"/><path d="M7849.969 785.865q-.578.297-1.219.438-.64.156-1.344.156-2.5 0-3.828-1.64-1.312-1.657-1.312-4.782t1.312-4.781q1.328-1.656 3.828-1.656.703 0 1.344.156.656.156 1.219.453v2.719q-.625-.578-1.219-.844-.594-.281-1.219-.281-1.343 0-2.031 1.078-.687 1.062-.687 3.156t.687 3.172q.688 1.062 2.031 1.062.625 0 1.219-.265.594-.281 1.219-.86z"/><text x="7866" y="786.11" fill="#D9B8FF" font-family="Helvetica" font-size="17" textLength="116">github_region</text><rect width="169" height="39.789" x="5976.5" y="760.33" fill="#3D176E" rx="2.5" ry="2.5" style="stroke:#000d19;stroke-width:.5"/><circle cx="5991.5" cy="780.225" r="11" fill="#ADD1B2" style="stroke:#181818;stroke-width:1"/><path d="M5994.469 785.865q-.578.297-1.219.438-.64.156-1.344.156-2.5 0-3.828-1.64-1.312-1.657-1.312-4.782t1.312-4.781q1.328-1.656 3.828-1.656.703 0 1.344.156.656.156 1.219.453v2.719q-.625-.578-1.219-.844-.594-.281-1.219-.281-1.343 0-2.031 1.078-.687 1.062-.687 3.156t.687 3.172q.688 1.062 2.031 1.062.625 0 1.219-.265.594-.281 1.219-.86z"/><text x="6010.5" y="786.11" fill="#D9B8FF" font-family="Helvetica" font-size="17" textLength="127">instance_quota</text><rect width="158" height="39.789" x="6438" y="921.12" fill="#3D176E" rx="2.5" ry="2.5" style="stroke:#000d19;stroke-width:.5"/><circle cx="6453" cy="941.014" r="11" fill="#ADD1B2" style="stroke:#181818;stroke-width:1"/><path d="M6455.969 946.655q-.578.297-1.219.438-.64.156-1.344.156-2.5 0-3.828-1.64-1.312-1.657-1.312-4.782t1.312-4.781q1.328-1.657 3.828-1.657.703 0 1.344.157.656.156 1.219.453v2.719q-.625-.578-1.219-.844-.594-.281-1.219-.281-1.343 0-2.031 1.078-.687 1.062-.687 3.156t.687 3.172q.688 1.062 2.031 1.062.625 0 1.219-.265.594-.282 1.219-.86z"/><text x="6472" y="946.9" fill="#D9B8FF" font-family="Helvetica" font-size="17" textLength="116">instance_type</text><rect width="239" height="39.789" x="8024.5" y="760.33" fill="#3D176E" rx="2.5" ry="2.5" style="stroke:#000d19;stroke-width:.5"/><circle cx="8039.5" cy="780.225" r="11" fill="#ADD1B2" style="stroke:#181818;stroke-width:1"/><path d="M8042.469 785.865q-.578.297-1.219.438-.64.156-1.344.156-2.5 0-3.828-1.64-1.312-1.657-1.312-4.782t1.312-4.781q1.328-1.656 3.828-1.656.703 0 1.344.156.656.156 1.219.453v2.719q-.625-.578-1.219-.844-.594-.281-1.219-.281-1.343 0-2.031 1.078-.687 1.062-.687 3.156t.687 3.172q.688 1.062 2.031 1.062.625 0 1.219-.265.594-.281 1.219-.86z"/><text x="8058.5" y="786.11" fill="#D9B8FF" font-family="Helvetica" font-size="17" textLength="197">kubernetes_namespace</text><rect width="273" height="39.789" x="6180.5" y="760.33" fill="#3D176E" rx="2.5" ry="2.5" style="stroke:#000d19;stroke-width:.5"/><circle cx="6195.5" cy="780.225" r="11" fill="#ADD1B2" style="stroke:#181818;stroke-width:1"/><path d="M6198.469 785.865q-.578.297-1.219.438-.64.156-1.344.156-2.5 0-3.828-1.64-1.312-1.657-1.312-4.782t1.312-4.781q1.328-1.656 3.828-1.656.703 0 1.344.156.656.156 1.219.453v2.719q-.625-.578-1.219-.844-.594-.281-1.219-.281-1.343 0-2.031 1.078-.687 1.062-.687 3.156t.687 3.172q.688 1.062 2.031 1.062.625 0 1.219-.265.594-.281 1.219-.86z"/><text x="6214.5" y="786.11" fill="#D9B8FF" font-family="Helvetica" font-size="17" textLength="231">kubernetes_resource_quota</text><rect width="214" height="39.789" x="6489" y="760.33" fill="#3D176E" rx="2.5" ry="2.5" style="stroke:#000d19;stroke-width:.5"/><circle cx="6504" cy="780.225" r="11" fill="#ADD1B2" style="stroke:#181818;stroke-width:1"/><path d="M6506.969 785.865q-.578.297-1.219.438-.64.156-1.344.156-2.5 0-3.828-1.64-1.312-1.657-1.312-4.782t1.312-4.781q1.328-1.656 3.828-1.656.703 0 1.344.156.656.156 1.219.453v2.719q-.625-.578-1.219-.844-.594-.281-1.219-.281-1.343 0-2.031 1.078-.687 1.062-.687 3.156t.687 3.172q.688 1.062 2.031 1.062.625 0 1.219-.265.594-.281 1.219-.86z"/><text x="6523" y="786.11" fill="#D9B8FF" font-family="Helvetica" font-size="17" textLength="172">load_balancer_quota</text><rect width="333" height="39.789" x="8298.5" y="760.33" fill="#3D176E" rx="2.5" ry="2.5" style="stroke:#000d19;stroke-width:.5"/><circle cx="8313.5" cy="780.225" r="11" fill="#ADD1B2" style="stroke:#181818;stroke-width:1"/><path d="M8316.469 785.865q-.578.297-1.219.438-.64.156-1.344.156-2.5 0-3.828-1.64-1.312-1.657-1.312-4.782t1.312-4.781q1.328-1.656 3.828-1.656.703 0 1.344.156.656.156 1.219.453v2.719q-.625-.578-1.219-.844-.594-.281-1.219-.281-1.344 0-2.031 1.078-.687 1.062-.687 3.156t.687 3.172q.688 1.062 2.031 1.062.625 0 1.219-.265.594-.281 1.219-.86z"/><text x="8332.5" y="786.11" fill="#D9B8FF" font-family="Helvetica" font-size="17" textLength="291">microsoft_graph_organization_root</text><rect width="169" height="39.789" x="6737.5" y="760.33" fill="#3D176E" rx="2.5" ry="2.5" style="stroke:#000d19;stroke-width:.5"/><circle cx="6752.5" cy="780.225" r="11" fill="#ADD1B2" style="stroke:#181818;stroke-width:1"/><path d="M6755.469 785.865q-.578.297-1.219.438-.64.156-1.344.156-2.5 0-3.828-1.64-1.312-1.657-1.312-4.782t1.312-4.781q1.328-1.656 3.828-1.656.703 0 1.344.156.656.156 1.219.453v2.719q-.625-.578-1.219-.844-.594-.281-1.219-.281-1.343 0-2.031 1.078-.687 1.062-.687 3.156t.687 3.172q.688 1.062 2.031 1.062.625 0 1.219-.265.594-.281 1.219-.86z"/><text x="6771.5" y="786.11" fill="#D9B8FF" font-family="Helvetica" font-size="17" textLength="127">network_quota</text><rect width="176" height="39.789" x="8666" y="760.33" fill="#3D176E" rx="2.5" ry="2.5" style="stroke:#000d19;stroke-width:.5"/><circle cx="8681" cy="780.225" r="11" fill="#ADD1B2" style="stroke:#181818;stroke-width:1"/><path d="M8683.969 785.865q-.578.297-1.219.438-.64.156-1.344.156-2.5 0-3.828-1.64-1.312-1.657-1.312-4.782t1.312-4.781q1.328-1.656 3.828-1.656.703 0 1.344.156.656.156 1.219.453v2.719q-.625-.578-1.219-.844-.594-.281-1.219-.281-1.344 0-2.031 1.078-.687 1.062-.687 3.156t.687 3.172q.688 1.062 2.031 1.062.625 0 1.219-.265.594-.281 1.219-.86z"/><text x="8700" y="786.11" fill="#D9B8FF" font-family="Helvetica" font-size="17" textLength="134">onelogin_region</text><rect width="169" height="39.789" x="8876.5" y="760.33" fill="#3D176E" rx="2.5" ry="2.5" style="stroke:#000d19;stroke-width:.5"/><circle cx="8891.5" cy="780.225" r="11" fill="#ADD1B2" style="stroke:#181818;stroke-width:1"/><path d="M8894.469 785.865q-.578.297-1.219.438-.64.156-1.344.156-2.5 0-3.828-1.64-1.312-1.657-1.312-4.782t1.312-4.781q1.328-1.656 3.828-1.656.703 0 1.344.156.656.156 1.219.453v2.719q-.625-.578-1.219-.844-.594-.281-1.219-.281-1.344 0-2.031 1.078-.687 1.062-.687 3.156t.687 3.172q.688 1.062 2.031 1.062.625 0 1.219-.265.594-.281 1.219-.86z"/><text x="8910.5" y="786.11" fill="#D9B8FF" font-family="Helvetica" font-size="17" textLength="127">onprem_region</text><rect width="198" height="39.789" x="3942" y="438.76" fill="#3D176E" rx="2.5" ry="2.5" style="stroke:#000d19;stroke-width:.5"/><circle cx="3957" cy="458.654" r="11" fill="#ADD1B2" style="stroke:#181818;stroke-width:1"/><path d="M3959.969 464.295q-.578.297-1.219.438-.64.156-1.344.156-2.5 0-3.828-1.64-1.312-1.657-1.312-4.782t1.312-4.781q1.328-1.656 3.828-1.656.703 0 1.344.156.656.156 1.219.453v2.719q-.625-.579-1.219-.844-.594-.281-1.219-.281-1.343 0-2.031 1.078-.687 1.062-.687 3.156t.687 3.172q.688 1.062 2.031 1.062.625 0 1.219-.265.594-.281 1.219-.86z"/><text x="3976" y="464.54" fill="#D9B8FF" font-family="Helvetica" font-size="17" textLength="156">phantom_resource</text><rect width="90" height="39.789" x="6010" y="599.54" fill="#3D176E" rx="2.5" ry="2.5" style="stroke:#000d19;stroke-width:.5"/><circle cx="6025" cy="619.434" r="11" fill="#ADD1B2" style="stroke:#181818;stroke-width:1"/><path d="M6027.969 625.075q-.578.297-1.219.438-.64.156-1.344.156-2.5 0-3.828-1.64-1.312-1.657-1.312-4.782t1.312-4.781q1.328-1.657 3.828-1.657.703 0 1.344.157.656.156 1.219.453v2.719q-.625-.579-1.219-.844-.594-.281-1.219-.281-1.343 0-2.031 1.078-.687 1.062-.687 3.156t.687 3.172q.688 1.062 2.031 1.062.625 0 1.219-.265.594-.282 1.219-.86z"/><text x="6044" y="625.32" fill="#D9B8FF" font-family="Helvetica" font-size="17" textLength="48">quota</text><rect width="95" height="39.789" x="7980.5" y="599.54" fill="#3D176E" rx="2.5" ry="2.5" style="stroke:#000d19;stroke-width:.5"/><circle cx="7995.5" cy="619.434" r="11" fill="#ADD1B2" style="stroke:#181818;stroke-width:1"/><path d="M7998.469 625.075q-.578.297-1.219.438-.64.156-1.344.156-2.5 0-3.828-1.64-1.312-1.657-1.312-4.782t1.312-4.781q1.328-1.657 3.828-1.657.703 0 1.344.157.656.156 1.219.453v2.719q-.625-.579-1.219-.844-.594-.281-1.219-.281-1.343 0-2.031 1.078-.687 1.062-.687 3.156t.687 3.172q.688 1.062 2.031 1.062.625 0 1.219-.265.594-.282 1.219-.86z"/><text x="8014.5" y="625.32" fill="#D9B8FF" font-family="Helvetica" font-size="17" textLength="53">region</text><rect width="227" height="310.758" x="3927.5" y="7" fill="#3D176E" rx="2.5" ry="2.5" style="stroke:#000d19;stroke-width:.5"/><circle cx="3996.25" cy="26.895" r="11" fill="#ADD1B2" style="stroke:#181818;stroke-width:1"/><path d="M3999.219 32.535q-.578.297-1.219.438-.64.156-1.344.156-2.5 0-3.828-1.64-1.312-1.657-1.312-4.782t1.312-4.781q1.328-1.656 3.828-1.656.703 0 1.344.156.656.156 1.219.453v2.719q-.625-.578-1.219-.844-.594-.281-1.219-.281-1.343 0-2.031 1.078-.687 1.062-.687 3.156t.687 3.172q.688 1.062 2.031 1.062.625 0 1.219-.265.594-.281 1.219-.86z"/><text x="4021.75" y="32.78" fill="#D9B8FF" font-family="Helvetica" font-size="17" textLength="71">resource</text><path d="M3928.5 46.789h225" style="stroke:#000d19;stroke-width:.5"/><text x="3938.5" y="68.784" fill="#D9B8FF" font-family="sans-serif" font-size="14" font-weight="bold" textLength="29">age</text><text x="3967.5" y="68.784" fill="#D9B8FF" font-family="sans-serif" font-size="14" textLength="66">: duration</text><text x="3938.5" y="95.081" fill="#D9B8FF" font-family="sans-serif" font-size="14" font-weight="bold" textLength="43">atime</text><text x="3981.5" y="95.081" fill="#D9B8FF" font-family="sans-serif" font-size="14" textLength="70">: datetime</text><text x="3938.5" y="121.378" fill="#D9B8FF" font-family="sans-serif" font-size="14" font-weight="bold" textLength="43">ctime</text><text x="3981.5" y="121.378" fill="#D9B8FF" font-family="sans-serif" font-size="14" textLength="70">: datetime</text><text x="3938.5" y="147.675" fill="#D9B8FF" font-family="sans-serif" font-size="14" font-weight="bold" textLength="14">id</text><text x="3952.5" y="147.675" fill="#D9B8FF" font-family="sans-serif" font-size="14" textLength="48">: string</text><text x="3938.5" y="173.972" fill="#D9B8FF" font-family="sans-serif" font-size="14" font-weight="bold" textLength="33">kind</text><text x="3971.5" y="173.972" fill="#D9B8FF" font-family="sans-serif" font-size="14" textLength="48">: string</text><text x="3938.5" y="200.269" fill="#D9B8FF" font-family="sans-serif" font-size="14" font-weight="bold" textLength="90">last_access</text><text x="4028.5" y="200.269" fill="#D9B8FF" font-family="sans-serif" font-size="14" textLength="66">: duration</text><text x="3938.5" y="226.565" fill="#D9B8FF" font-family="sans-serif" font-size="14" font-weight="bold" textLength="90">last_update</text><text x="4028.5" y="226.565" fill="#D9B8FF" font-family="sans-serif" font-size="14" textLength="66">: duration</text><text x="3938.5" y="252.862" fill="#D9B8FF" font-family="sans-serif" font-size="14" font-weight="bold" textLength="48">mtime</text><text x="3986.5" y="252.862" fill="#D9B8FF" font-family="sans-serif" font-size="14" textLength="70">: datetime</text><text x="3938.5" y="279.159" fill="#D9B8FF" font-family="sans-serif" font-size="14" font-weight="bold" textLength="43">name</text><text x="3981.5" y="279.159" fill="#D9B8FF" font-family="sans-serif" font-size="14" textLength="48">: string</text><text x="3938.5" y="305.456" fill="#D9B8FF" font-family="sans-serif" font-size="14" font-weight="bold" textLength="34">tags</text><text x="3972.5" y="305.456" fill="#D9B8FF" font-family="sans-serif" font-size="14" textLength="171">: dictionary[string, string]</text><rect width="145" height="39.789" x="9080.5" y="760.33" fill="#3D176E" rx="2.5" ry="2.5" style="stroke:#000d19;stroke-width:.5"/><circle cx="9095.5" cy="780.225" r="11" fill="#ADD1B2" style="stroke:#181818;stroke-width:1"/><path d="M9098.469 785.865q-.578.297-1.219.438-.64.156-1.344.156-2.5 0-3.828-1.64-1.312-1.657-1.312-4.782t1.312-4.781q1.328-1.656 3.828-1.656.703 0 1.344.156.656.156 1.219.453v2.719q-.625-.578-1.219-.844-.594-.281-1.219-.281-1.344 0-2.031 1.078-.687 1.062-.687 3.156t.687 3.172q.688 1.062 2.031 1.062.625 0 1.219-.265.594-.281 1.219-.86z"/><text x="9114.5" y="786.11" fill="#D9B8FF" font-family="Helvetica" font-size="17" textLength="103">slack_region</text><rect width="79" height="39.789" x="6941.5" y="760.33" fill="#3D176E" rx="2.5" ry="2.5" style="stroke:#000d19;stroke-width:.5"/><circle cx="6956.5" cy="780.225" r="11" fill="#ADD1B2" style="stroke:#181818;stroke-width:1"/><path d="M6959.469 785.865q-.578.297-1.219.438-.64.156-1.344.156-2.5 0-3.828-1.64-1.312-1.657-1.312-4.782t1.312-4.781q1.328-1.656 3.828-1.656.703 0 1.344.156.656.156 1.219.453v2.719q-.625-.578-1.219-.844-.594-.281-1.219-.281-1.343 0-2.031 1.078-.687 1.062-.687 3.156t.687 3.172q.688 1.062 2.031 1.062.625 0 1.219-.265.594-.281 1.219-.86z"/><text x="6975.5" y="786.11" fill="#D9B8FF" font-family="Helvetica" font-size="17" textLength="37">type</text><rect width="151" height="39.789" x="7369.5" y="921.12" fill="#3D176E" rx="2.5" ry="2.5" style="stroke:#000d19;stroke-width:.5"/><circle cx="7384.5" cy="941.014" r="11" fill="#ADD1B2" style="stroke:#181818;stroke-width:1"/><path d="M7387.469 946.655q-.578.297-1.219.438-.64.156-1.344.156-2.5 0-3.828-1.64-1.312-1.657-1.312-4.782t1.312-4.781q1.328-1.657 3.828-1.657.703 0 1.344.157.656.156 1.219.453v2.719q-.625-.578-1.219-.844-.594-.281-1.219-.281-1.343 0-2.031 1.078-.687 1.062-.687 3.156t.687 3.172q.688 1.062 2.031 1.062.625 0 1.219-.265.594-.282 1.219-.86z"/><text x="7403.5" y="946.9" fill="#D9B8FF" font-family="Helvetica" font-size="17" textLength="109">volume_type</text><rect width="173" height="39.789" x="9665.5" y="760.33" fill="#3D176E" rx="2.5" ry="2.5" style="stroke:#000d19;stroke-width:.5"/><circle cx="9680.5" cy="780.225" r="11" fill="#ADD1B2" style="stroke:#181818;stroke-width:1"/><path d="M9683.469 785.865q-.578.297-1.219.438-.64.156-1.344.156-2.5 0-3.828-1.64-1.312-1.657-1.312-4.782t1.312-4.781q1.328-1.656 3.828-1.656.703 0 1.344.156.656.156 1.219.453v2.719q-.625-.578-1.219-.844-.594-.281-1.219-.281-1.344 0-2.031 1.078-.687 1.062-.687 3.156t.687 3.172q.688 1.062 2.031 1.062.625 0 1.219-.265.594-.281 1.219-.86z"/><text x="9699.5" y="786.11" fill="#D9B8FF" font-family="Helvetica" font-size="17" textLength="131">vsphere_cluster</text><rect width="216" height="39.789" x="9261" y="760.33" fill="#3D176E" rx="2.5" ry="2.5" style="stroke:#000d19;stroke-width:.5"/><circle cx="9276" cy="780.225" r="11" fill="#ADD1B2" style="stroke:#181818;stroke-width:1"/><path d="M9278.969 785.865q-.578.297-1.219.438-.64.156-1.344.156-2.5 0-3.828-1.64-1.312-1.657-1.312-4.782t1.312-4.781q1.328-1.656 3.828-1.656.703 0 1.344.156.656.156 1.219.453v2.719q-.625-.578-1.219-.844-.594-.281-1.219-.281-1.344 0-2.031 1.078-.687 1.062-.687 3.156t.687 3.172q.688 1.062 2.031 1.062.625 0 1.219-.265.594-.281 1.219-.86z"/><text x="9295" y="786.11" fill="#D9B8FF" font-family="Helvetica" font-size="17" textLength="174">vsphere_data_center</text><rect width="81" height="39.789" x="9530.5" y="599.54" fill="#3D176E" rx="2.5" ry="2.5" style="stroke:#000d19;stroke-width:.5"/><circle cx="9545.5" cy="619.434" r="11" fill="#ADD1B2" style="stroke:#181818;stroke-width:1"/><path d="M9548.469 625.075q-.578.297-1.219.438-.64.156-1.344.156-2.5 0-3.828-1.64-1.312-1.657-1.312-4.782t1.312-4.781q1.328-1.657 3.828-1.657.703 0 1.344.157.656.156 1.219.453v2.719q-.625-.579-1.219-.844-.594-.281-1.219-.281-1.344 0-2.031 1.078-.687 1.062-.687 3.156t.687 3.172q.688 1.062 2.031 1.062.625 0 1.219-.265.594-.282 1.219-.86z"/><text x="9564.5" y="625.32" fill="#D9B8FF" font-family="Helvetica" font-size="17" textLength="39">zone</text><path fill="none" d="M6419.954 955.618c-195.58 27.41-684.434 95.922-916.584 128.462m934.41-130.96-18.658-3.444 1.665 11.884z" style="stroke:#ffaf37;stroke-width:2"/><g fill="none"><path d="M7416.376 974.715c-26.71 30.52-66.796 76.305-93.546 106.865" style="stroke:#ffaf37;stroke-width:2"/><path d="m7428.23 961.17-16.37 9.594 9.03 7.903z" style="stroke:#ffaf37;stroke-width:2"/></g><g fill="none"><path d="M7962.584 630.548C7836.534 650.168 7501.65 703.39 7210 760.33c-5.55 1.09-11.29 2.25-17.06 3.45" style="stroke:#ffaf37;stroke-width:2"/><path d="m7980.37 627.78-18.709-3.16 1.846 11.857z" style="stroke:#ffaf37;stroke-width:2"/></g><path fill="none" d="M3923.76 463.55c-314.82 10.49-1301.3 43.68-2132.76 74.99-673.4 25.37-843.6 3.25-1515 61-5.49.48-11.09 1.01-16.75 1.58m3682.5-138.17-18.19-5.397.4 11.993zm2050.514 173.952c-9.46 2.38-1.944.378-11.264 2.428-232.76 51.28-508.74 99.34-653.3 123.54m682.02-130.36-18.92-1.427 2.928 11.637z" style="stroke:#ffaf37;stroke-width:2"/><g fill="none"><path d="M3923.538 463.047c-314.38 9.2-1296.728 38.983-2124.538 75.493-511.33 22.56-639.69 21.57-1150 61-5.34.42-10.76.86-16.24 1.31" style="stroke:#ffaf37;stroke-width:2"/><path d="m3941.53 462.52-18.168-5.47.351 11.994z" style="stroke:#ffaf37;stroke-width:2"/></g><g fill="none"><path d="M7473.794 974.671c26.91 30.52 67.316 76.349 94.256 106.909" style="stroke:#ffaf37;stroke-width:2"/><path d="m7461.89 961.17 7.404 17.47 9-7.937z" style="stroke:#ffaf37;stroke-width:2"/></g><g fill="none"><path d="M6419.984 961.25c-147.51 29.24-445.804 88.38-606.214 120.18" style="stroke:#ffaf37;stroke-width:2"/><path d="m6437.64 957.75-18.823-2.386 2.333 11.771z" style="stroke:#ffaf37;stroke-width:2"/></g><path fill="none" d="M4743.113 639.505c-138.68 29.09-421.613 88.435-573.813 120.365m591.43-124.06-18.848-2.177 2.463 11.745z" style="stroke:#ffaf37;stroke-width:2"/><g fill="none"><path d="M3923.633 461.533C3538.133 468.233 2122.59 498.6 947 599.54c-5.85.51-11.81 1.07-17.84 1.67" style="stroke:#ffaf37;stroke-width:2"/><path d="m3941.63 461.22-18.102-5.686.209 11.998z" style="stroke:#ffaf37;stroke-width:2"/></g><path fill="none" d="M7962.693 634.861c-120.6 26.63-421.063 92.989-571.983 126.319m589.56-130.2-18.87-1.978 2.587 11.718zM3923.78 465.233C3580.42 481.713 2429.01 538.16 1464 599.54c-5.85.38-11.77.76-17.75 1.15m2495.51-136.32-18.267-5.13.575 11.986z" style="stroke:#ffaf37;stroke-width:2"/><g fill="none"><path d="M3923.58 464.95c-314.27 14.52-1296.1 62.7-2121.58 134.59-5.44.48-10.98.98-16.57 1.51" style="stroke:#ffaf37;stroke-width:2"/><path d="m3941.56 464.12-18.258-5.163.554 11.987z" style="stroke:#ffaf37;stroke-width:2"/></g><path fill="none" d="M1155.56 648.677c-53.54 30.58-141.59 80.873-194.98 111.373m210.61-120.3-18.606 3.717 5.952 10.42zm3584.34 5.49c-46.87 15.13-95.73 31.77-152.53 54.09-48.3 18.99-102.58 43.7-138.57 60.59m308.23-120.21-18.973-.18 3.687 11.42z" style="stroke:#ffaf37;stroke-width:2"/><g fill="none"><path d="M6455.205 968.396c-71.55 30.54-193.455 82.574-264.985 113.104" style="stroke:#ffaf37;stroke-width:2"/><path d="m6471.76 961.33-18.91 1.548 4.71 11.037z" style="stroke:#ffaf37;stroke-width:2"/></g><path fill="none" d="M1254.307 648.701c53.35 30.58 141.033 80.849 194.243 111.349m-209.86-120.3 12.633 14.157 5.967-10.411zm5247.198 495.131c-29.6 30.52-74.608 76.929-104.248 107.489m116.78-120.41-16.839 8.744 8.614 8.354zM3923.868 469.074c-299.09 24.07-1180.228 94.986-1615.098 129.986m1633.04-131.43-18.423-4.537.962 11.962z" style="stroke:#ffaf37;stroke-width:2"/><path fill="none" d="M3923.633 472.239A93319537 93319537 0 0 0 2740.85 599.05m1200.68-128.73-18.537-4.047 1.28 11.932z" style="stroke:#ffaf37;stroke-width:2"/><g fill="none"><path d="M3923.866 477.515c-190.07 29-587.126 89.555-796.936 121.565" style="stroke:#ffaf37;stroke-width:2"/><path d="m3941.66 474.8-18.7-3.216 1.81 11.862z" style="stroke:#ffaf37;stroke-width:2"/></g><g fill="none"><path d="M4774.957 647.723c-64.87 31.9-159.267 90.247-109.957 152.397 59.53 75.04 329.72 113.6 486.13 129.97" style="stroke:#ffaf37;stroke-width:2"/><path d="m4791.11 639.78-18.8 2.559 5.295 10.768z" style="stroke:#ffaf37;stroke-width:2"/></g><path fill="none" d="M6719.436 800.365C6220.886 870.355 5621.88 915.6 5376.74 932.56m1360.47-135.04-18.722-3.08 1.897 11.85z" style="stroke:#ffaf37;stroke-width:2"/><g fill="none"><path d="M3946.363 483.426c-121.67 30.57-339.233 85.234-460.633 115.734" style="stroke:#ffaf37;stroke-width:2"/><path d="m3963.82 479.04-18.92-1.433 2.925 11.638z" style="stroke:#ffaf37;stroke-width:2"/></g><path fill="none" d="M6547.948 1134.924c29.4 30.52 74.082 76.886 103.532 107.446m-116.02-120.41 8.167 17.126 8.642-8.325z" style="stroke:#ffaf37;stroke-width:2"/><g fill="none"><path d="M3990.749 487.744c-54.7 30.58-144.899 81.016-199.449 111.516" style="stroke:#ffaf37;stroke-width:2"/><path d="m4006.46 478.96-18.64 3.546 5.856 10.475z" style="stroke:#ffaf37;stroke-width:2"/></g><path fill="none" d="M4041 496.8v102.42m0-120.42-6 18h12z" style="stroke:#ffaf37;stroke-width:2"/><g fill="none"><path d="M4093.53 487.358c57.97 30.58 154.31 81.402 212.12 111.902" style="stroke:#ffaf37;stroke-width:2"/><path d="m4077.61 478.96 13.121 13.705 5.6-10.614z" style="stroke:#ffaf37;stroke-width:2"/></g><g fill="none"><path d="M4832.596 657.577c-1.16 30.52-2.716 71.863-3.866 102.433" style="stroke:#ffaf37;stroke-width:2"/><path d="m4833.28 639.59-6.68 17.76 11.992.455z" style="stroke:#ffaf37;stroke-width:2"/></g><path fill="none" d="M4129.934 483.748c112.82 30.57 313.356 84.912 425.916 115.412m-443.29-120.12 15.804 10.499 3.139-11.583z" style="stroke:#ffaf37;stroke-width:2"/><g fill="none"><path d="M4157.24 482.52c135.87 26.78 370.67 73.26 585.76 117.02 5.69 1.16 11.58 2.37 17.5 3.59" style="stroke:#ffaf37;stroke-width:2"/><path d="m4139.58 479.04 16.5 9.368 2.32-11.774z" style="stroke:#ffaf37;stroke-width:2"/></g><path fill="none" d="M4158.287 475.751c164.01 22.92 483.423 69.579 766.713 123.789 5.58 1.07 11.35 2.24 17.14 3.45m-801.68-129.73 16.996 8.433 1.661-11.884z" style="stroke:#ffaf37;stroke-width:2"/><g fill="none"><path d="M5992.102 636.68c-105.04 27.12-347.982 89.85-477.072 123.18" style="stroke:#ffaf37;stroke-width:2"/><path d="m6009.53 632.18-18.928-1.31 3 11.62z" style="stroke:#ffaf37;stroke-width:2"/></g><g fill="none"><path d="M5993.05 644.377c-77.47 29.93-218.33 84.353-299.02 115.523" style="stroke:#ffaf37;stroke-width:2"/><path d="m6009.84 637.89-18.953.89 4.325 11.194z" style="stroke:#ffaf37;stroke-width:2"/></g><path fill="none" d="M5018.671 656.992c8.07 30.52 19.159 72.448 27.249 103.018m-31.85-120.42-1.2 18.936 11.602-3.068zM6517 979.17v102.41m0-120.41-6 18h12z" style="stroke:#ffaf37;stroke-width:2"/><g fill="none"><path d="M4158.254 474.702c216.17 27.75 712.316 91.438 968.796 124.358" style="stroke:#ffaf37;stroke-width:2"/><path d="m4140.4 472.41 17.09 8.243 1.528-11.902z" style="stroke:#ffaf37;stroke-width:2"/></g><g fill="none"><path d="M6566.85 970.186c54.11 30.58 143.24 80.944 197.21 111.444" style="stroke:#ffaf37;stroke-width:2"/><path d="m6551.18 961.33 12.719 14.08 5.904-10.447z" style="stroke:#ffaf37;stroke-width:2"/></g><g fill="none"><path d="M7962.905 641.11c-91.42 29.04-273.335 86.81-374.005 118.78" style="stroke:#ffaf37;stroke-width:2"/><path d="m7980.06 635.66-18.972-.269 3.633 11.437z" style="stroke:#ffaf37;stroke-width:2"/></g><g fill="none"><path d="M6016.93 650.817c-38.25 30.52-98.54 78.623-136.84 109.193" style="stroke:#ffaf37;stroke-width:2"/><path d="m6031 639.59-17.812 6.537 7.484 9.38z" style="stroke:#ffaf37;stroke-width:2"/></g><path fill="none" d="M7508.208 968.224c73.66 30.54 199.592 82.746 273.232 113.276m-289.86-120.17 14.33 12.436 4.596-11.085zM4158.17 469.986c231.78 20.63 808.78 73.294 1304.83 129.554 5.62.64 11.37 1.31 17.17 2M4140.24 468.39l17.397 7.572 1.064-11.953z" style="stroke:#ffaf37;stroke-width:2"/><g fill="none"><path d="M6600.209 966.488c103.97 30.57 287.501 84.542 391.231 115.042" style="stroke:#ffaf37;stroke-width:2"/><path d="m6582.94 961.41 15.577 10.834 3.385-11.513z" style="stroke:#ffaf37;stroke-width:2"/></g><g fill="none"><path d="M7976.006 648.236A3834697 3834697 0 0 0 7766.87 760.05" style="stroke:#ffaf37;stroke-width:2"/><path d="m7991.88 639.75-18.703 3.195 5.658 10.583z" style="stroke:#ffaf37;stroke-width:2"/></g><g fill="none"><path d="M4158.414 465.738C4422.464 479.958 5144.89 523.1 5757 599.54c5.58.7 11.3 1.48 17.07 2.3" style="stroke:#ffaf37;stroke-width:2"/><path d="m4140.44 464.77 17.651 6.96.646-11.983z" style="stroke:#ffaf37;stroke-width:2"/></g><path fill="none" d="M9571 657.59v102.42m0-120.42-6 18h12z" style="stroke:#ffaf37;stroke-width:2"/><g fill="none"><path d="M8003.212 654.08c-22.49 30.52-55.532 75.36-78.052 105.93" style="stroke:#ffaf37;stroke-width:2"/><path d="m8013.89 639.59-15.508 10.931 9.66 7.119z" style="stroke:#ffaf37;stroke-width:2"/></g><path fill="none" d="M6056.404 657.577c1.16 30.52 2.716 71.863 3.866 102.433m-4.55-120.42-5.312 18.215 11.991-.456z" style="stroke:#ffaf37;stroke-width:2"/><g fill="none"><path d="M6924.52 805.085c-40.48 16.9-88.53 36.225-145.52 56.035-64.39 22.39-138.91 44.47-191.98 59.55" style="stroke:#ffaf37;stroke-width:2"/><path d="m6941.13 798.15-18.922 1.398 4.623 11.074z" style="stroke:#ffaf37;stroke-width:2"/></g><path fill="none" d="M8052.61 654.124c22.3 30.52 55.02 75.316 77.35 105.886m-87.97-120.42 5.775 18.073 9.689-7.079zm-1939.736 9.489c50.46 30.58 132.786 80.471 183.106 110.971m-198.5-120.3 12.284 14.46 6.22-10.262zm30.601-.98c95.62 28.07 301.449 88.48 412.829 121.17m-430.1-126.24 15.581 10.827 3.38-11.514z" style="stroke:#ffaf37;stroke-width:2"/><g fill="none"><path d="M8092.517 643.879c82.18 29.87 233.193 84.741 319.173 115.981" style="stroke:#ffaf37;stroke-width:2"/><path d="m8075.6 637.73 14.868 11.788 4.099-11.278z" style="stroke:#ffaf37;stroke-width:2"/></g><g fill="none"><path d="M6118.026 633.489c124.78 25.83 456.804 94.571 619.154 128.181" style="stroke:#ffaf37;stroke-width:2"/><path d="m6100.4 629.84 16.41 9.524 2.433-11.75z" style="stroke:#ffaf37;stroke-width:2"/></g><path fill="none" d="M8093.504 634.766c120.03 26.25 417.446 91.304 572.166 125.144m-589.75-128.99 16.302 9.707 2.564-11.723z" style="stroke:#ffaf37;stroke-width:2"/><g fill="none"><path d="M8093.586 631.104C8221.016 651.864 8561.5 707.74 8859 760.33c5.59.99 11.34 2.02 17.14 3.07" style="stroke:#ffaf37;stroke-width:2"/><path d="m8075.82 628.21 16.801 8.816 1.93-11.844z" style="stroke:#ffaf37;stroke-width:2"/></g><path fill="none" d="M4041 335.84v102.83m0-120.83-6 18h12z" style="stroke:#ffaf37;stroke-width:2"/><g fill="none"><path d="M4158.423 467.165c201.36 12.95 653.737 42.465 1048.577 71.375 344.15 25.21 433.58 4.56 774 61 9.42 1.57 19.39 3.74 28.86 6.07" style="stroke:#ffaf37;stroke-width:2"/><path d="m4140.46 466.01 17.578 7.143.77-11.975z" style="stroke:#ffaf37;stroke-width:2"/></g><g fill="none"><path d="M4158.036 464.316c571.38 22.75 3416.854 136.074 3822.214 152.224" style="stroke:#ffaf37;stroke-width:2"/><path d="m4140.05 463.6 17.747 6.711.478-11.99z" style="stroke:#ffaf37;stroke-width:2"/></g><g fill="none"><path d="M8093.79 627.643C8241.42 644.003 8684.4 695.1 9063 760.33c5.66.98 11.52 2.05 17.39 3.18" style="stroke:#ffaf37;stroke-width:2"/><path d="m8075.9 625.66 17.23 7.946 1.321-11.927z" style="stroke:#ffaf37;stroke-width:2"/></g><g fill="none"><path d="M6118.176 627.06c129.69 13.99 495.224 57.31 805.824 133.27 5.57 1.37 11.38 3.01 17.06 4.76" style="stroke:#ffaf37;stroke-width:2"/><path d="m6100.28 625.13 17.253 7.896 1.287-11.93z" style="stroke:#ffaf37;stroke-width:2"/></g><path fill="none" d="M7037.99 800.729c82.66 28.29 255.57 87.461 350.64 120.001M7020.96 794.9l15.087 11.505 3.886-11.353z" style="stroke:#ffaf37;stroke-width:2"/><g fill="none"><path d="M9606.361 651.46c34.79 30.52 88.889 77.98 123.729 108.55" style="stroke:#ffaf37;stroke-width:2"/><path d="m9592.83 639.59 9.574 16.38 7.914-9.02z" style="stroke:#ffaf37;stroke-width:2"/></g><g fill="none"><path d="M8093.734 627.203c163.31 16.9 695.916 73.057 1149.266 133.127 5.81.77 11.77 1.59 17.78 2.43" style="stroke:#ffaf37;stroke-width:2"/><path d="m8075.83 625.35 17.287 7.82 1.235-11.935z" style="stroke:#ffaf37;stroke-width:2"/></g><path fill="none" d="M4158.213 463.017C4862.073 483.227 9068.07 604 9530.01 617.26M4140.22 462.5l17.82 6.514.345-11.995z" style="stroke:#ffaf37;stroke-width:2"/></svg>