<svg xmlns="http://www.w3.org/2000/svg" width="3379" height="2253" viewBox="0 0 3379 2253"><rect width="286" height="126.68" x="7" y="2041.19" fill="#3D176E" rx="2.5" ry="2.5" style="stroke:#000d19;stroke-width:.5"/><circle cx="42.25" cy="2061.084" r="11" fill="#ADD1B2" style="stroke:#181818;stroke-width:1"/><path d="M45.219 2066.725q-.578.297-1.219.438-.64.156-1.344.156-2.5 0-3.828-1.64-1.312-1.657-1.312-4.782t1.312-4.781q1.328-1.657 3.828-1.657.703 0 1.344.157.656.156 1.219.453v2.719q-.625-.579-1.219-.844-.594-.281-1.219-.281-1.343 0-2.031 1.078-.687 1.062-.687 3.156t.687 3.172q.688 1.062 2.031 1.062.625 0 1.219-.265.594-.282 1.219-.86z"/><text x="65.75" y="2066.97" fill="#D9B8FF" font-family="Helvetica" font-size="17" textLength="199">microsoft_graph_add_in</text><path d="M8 2080.979h284" style="stroke:#000d19;stroke-width:.5"/><text x="18" y="2102.974" fill="#D9B8FF" font-family="sans-serif" font-size="14" font-weight="bold" textLength="14">id</text><text x="32" y="2102.974" fill="#D9B8FF" font-family="sans-serif" font-size="14" textLength="48">: string</text><text x="18" y="2129.271" fill="#D9B8FF" font-family="sans-serif" font-size="14" font-weight="bold" textLength="83">properties</text><text x="101" y="2129.271" fill="#D9B8FF" font-family="sans-serif" font-size="14" textLength="181">: dictionary[string, string][]</text><text x="18" y="2155.568" fill="#D9B8FF" font-family="sans-serif" font-size="14" font-weight="bold" textLength="35">type</text><text x="53" y="2155.568" fill="#D9B8FF" font-family="sans-serif" font-size="14" textLength="48">: string</text><rect width="264" height="231.867" x="328" y="1988.6" fill="#3D176E" rx="2.5" ry="2.5" style="stroke:#000d19;stroke-width:.5"/><circle cx="346.15" cy="2008.495" r="11" fill="#ADD1B2" style="stroke:#181818;stroke-width:1"/><path d="M349.119 2014.135q-.578.297-1.219.438-.64.156-1.344.156-2.5 0-3.828-1.64-1.312-1.657-1.312-4.782t1.312-4.781q1.328-1.657 3.828-1.657.703 0 1.344.157.656.156 1.219.453v2.719q-.625-.579-1.219-.844-.594-.281-1.219-.281-1.344 0-2.031 1.078-.687 1.062-.687 3.156t.687 3.172q.688 1.062 2.031 1.062.625 0 1.219-.265.594-.282 1.219-.86z"/><text x="365.85" y="2014.38" fill="#D9B8FF" font-family="Helvetica" font-size="17" textLength="215">microsoft_graph_app_role</text><path d="M329 2028.389h262" style="stroke:#000d19;stroke-width:.5"/><text x="339" y="2050.384" fill="#D9B8FF" font-family="sans-serif" font-size="14" font-weight="bold" textLength="184">allowed_member_types</text><text x="523" y="2050.384" fill="#D9B8FF" font-family="sans-serif" font-size="14" textLength="58">: string[]</text><text x="339" y="2076.681" fill="#D9B8FF" font-family="sans-serif" font-size="14" font-weight="bold" textLength="89">description</text><text x="428" y="2076.681" fill="#D9B8FF" font-family="sans-serif" font-size="14" textLength="48">: string</text><text x="339" y="2102.978" fill="#D9B8FF" font-family="sans-serif" font-size="14" font-weight="bold" textLength="105">display_name</text><text x="444" y="2102.978" fill="#D9B8FF" font-family="sans-serif" font-size="14" textLength="48">: string</text><text x="339" y="2129.275" fill="#D9B8FF" font-family="sans-serif" font-size="14" font-weight="bold" textLength="14">id</text><text x="353" y="2129.275" fill="#D9B8FF" font-family="sans-serif" font-size="14" textLength="48">: string</text><text x="339" y="2155.572" fill="#D9B8FF" font-family="sans-serif" font-size="14" font-weight="bold" textLength="83">is_enabled</text><text x="422" y="2155.572" fill="#D9B8FF" font-family="sans-serif" font-size="14" textLength="65">: boolean</text><text x="339" y="2181.869" fill="#D9B8FF" font-family="sans-serif" font-size="14" font-weight="bold" textLength="45">origin</text><text x="384" y="2181.869" fill="#D9B8FF" font-family="sans-serif" font-size="14" textLength="48">: string</text><text x="339" y="2208.165" fill="#D9B8FF" font-family="sans-serif" font-size="14" font-weight="bold" textLength="42">value</text><text x="381" y="2208.165" fill="#D9B8FF" font-family="sans-serif" font-size="14" textLength="48">: string</text><rect width="236" height="74.086" x="1397" y="660.14" fill="#3D176E" rx="2.5" ry="2.5" style="stroke:#000d19;stroke-width:.5"/><circle cx="1412" cy="680.034" r="11" fill="#ADD1B2" style="stroke:#181818;stroke-width:1"/><path d="M1414.969 685.675q-.578.297-1.219.438-.64.156-1.344.156-2.5 0-3.828-1.64-1.312-1.657-1.312-4.782t1.312-4.781q1.328-1.657 3.828-1.657.703 0 1.344.157.656.156 1.219.453v2.719q-.625-.579-1.219-.844-.594-.281-1.219-.281-1.343 0-2.031 1.078-.687 1.062-.687 3.156t.687 3.172q.688 1.062 2.031 1.062.625 0 1.219-.265.594-.282 1.219-.86z"/><text x="1431" y="685.92" fill="#D9B8FF" font-family="Helvetica" font-size="17" textLength="194">microsoft_graph_entity</text><path d="M1398 699.929h234" style="stroke:#000d19;stroke-width:.5"/><text x="1408" y="721.924" fill="#D9B8FF" font-family="sans-serif" font-size="14" font-weight="bold" textLength="143">deleted_date_time</text><text x="1551" y="721.924" fill="#D9B8FF" font-family="sans-serif" font-size="14" textLength="70">: datetime</text><rect width="332" height="179.273" x="627" y="2014.89" fill="#3D176E" rx="2.5" ry="2.5" style="stroke:#000d19;stroke-width:.5"/><circle cx="642" cy="2034.784" r="11" fill="#ADD1B2" style="stroke:#181818;stroke-width:1"/><path d="M644.969 2040.425q-.578.297-1.219.438-.64.156-1.344.156-2.5 0-3.828-1.64-1.312-1.657-1.312-4.782t1.312-4.781q1.328-1.657 3.828-1.657.703 0 1.344.157.656.156 1.219.453v2.719q-.625-.579-1.219-.844-.594-.281-1.219-.281-1.343 0-2.031 1.078-.687 1.062-.687 3.156t.687 3.172q.688 1.062 2.031 1.062.625 0 1.219-.265.594-.282 1.219-.86z"/><text x="661" y="2040.67" fill="#D9B8FF" font-family="Helvetica" font-size="17" textLength="290">microsoft_graph_informational_url</text><path d="M628 2054.679h330" style="stroke:#000d19;stroke-width:.5"/><text x="638" y="2076.674" fill="#D9B8FF" font-family="sans-serif" font-size="14" font-weight="bold" textLength="62">logo_url</text><text x="700" y="2076.674" fill="#D9B8FF" font-family="sans-serif" font-size="14" textLength="48">: string</text><text x="638" y="2102.971" fill="#D9B8FF" font-family="sans-serif" font-size="14" font-weight="bold" textLength="107">marketing_url</text><text x="745" y="2102.971" fill="#D9B8FF" font-family="sans-serif" font-size="14" textLength="48">: string</text><text x="638" y="2129.268" fill="#D9B8FF" font-family="sans-serif" font-size="14" font-weight="bold" textLength="172">privacy_statement_url</text><text x="810" y="2129.268" fill="#D9B8FF" font-family="sans-serif" font-size="14" textLength="48">: string</text><text x="638" y="2155.565" fill="#D9B8FF" font-family="sans-serif" font-size="14" font-weight="bold" textLength="90">support_url</text><text x="728" y="2155.565" fill="#D9B8FF" font-family="sans-serif" font-size="14" textLength="48">: string</text><text x="638" y="2181.862" fill="#D9B8FF" font-family="sans-serif" font-size="14" font-weight="bold" textLength="162">terms_of_service_url</text><text x="800" y="2181.862" fill="#D9B8FF" font-family="sans-serif" font-size="14" textLength="48">: string</text><rect width="308" height="258.164" x="994" y="1975.45" fill="#3D176E" rx="2.5" ry="2.5" style="stroke:#000d19;stroke-width:.5"/><circle cx="1009" cy="1995.344" r="11" fill="#ADD1B2" style="stroke:#181818;stroke-width:1"/><path d="M1011.969 2000.985q-.578.297-1.219.438-.64.156-1.344.156-2.5 0-3.828-1.64-1.312-1.657-1.312-4.782t1.312-4.781q1.328-1.657 3.828-1.657.703 0 1.344.157.656.156 1.219.453v2.719q-.625-.579-1.219-.844-.594-.281-1.219-.281-1.343 0-2.031 1.078-.687 1.062-.687 3.156t.687 3.172q.688 1.062 2.031 1.062.625 0 1.219-.265.594-.282 1.219-.86z"/><text x="1028" y="2001.23" fill="#D9B8FF" font-family="Helvetica" font-size="17" textLength="266">microsoft_graph_key_credential</text><path d="M995 2015.239h306" style="stroke:#000d19;stroke-width:.5"/><text x="1005" y="2037.234" fill="#D9B8FF" font-family="sans-serif" font-size="14" font-weight="bold" textLength="171">custom_key_identifier</text><text x="1176" y="2037.234" fill="#D9B8FF" font-family="sans-serif" font-size="14" textLength="48">: string</text><text x="1005" y="2063.531" fill="#D9B8FF" font-family="sans-serif" font-size="14" font-weight="bold" textLength="105">display_name</text><text x="1110" y="2063.531" fill="#D9B8FF" font-family="sans-serif" font-size="14" textLength="48">: string</text><text x="1005" y="2089.828" fill="#D9B8FF" font-family="sans-serif" font-size="14" font-weight="bold" textLength="113">end_date_time</text><text x="1118" y="2089.828" fill="#D9B8FF" font-family="sans-serif" font-size="14" textLength="70">: datetime</text><text x="1005" y="2116.125" fill="#D9B8FF" font-family="sans-serif" font-size="14" font-weight="bold" textLength="28">key</text><text x="1033" y="2116.125" fill="#D9B8FF" font-family="sans-serif" font-size="14" textLength="48">: string</text><text x="1005" y="2142.422" fill="#D9B8FF" font-family="sans-serif" font-size="14" font-weight="bold" textLength="49">key_id</text><text x="1054" y="2142.422" fill="#D9B8FF" font-family="sans-serif" font-size="14" textLength="48">: string</text><text x="1005" y="2168.719" fill="#D9B8FF" font-family="sans-serif" font-size="14" font-weight="bold" textLength="120">start_date_time</text><text x="1125" y="2168.719" fill="#D9B8FF" font-family="sans-serif" font-size="14" textLength="70">: datetime</text><text x="1005" y="2195.015" fill="#D9B8FF" font-family="sans-serif" font-size="14" font-weight="bold" textLength="35">type</text><text x="1040" y="2195.015" fill="#D9B8FF" font-family="sans-serif" font-size="14" textLength="48">: string</text><text x="1005" y="2221.312" fill="#D9B8FF" font-family="sans-serif" font-size="14" font-weight="bold" textLength="48">usage</text><text x="1053" y="2221.312" fill="#D9B8FF" font-family="sans-serif" font-size="14" textLength="48">: string</text><rect width="356" height="231.867" x="1337" y="1988.6" fill="#3D176E" rx="2.5" ry="2.5" style="stroke:#000d19;stroke-width:.5"/><circle cx="1352" cy="2008.495" r="11" fill="#ADD1B2" style="stroke:#181818;stroke-width:1"/><path d="M1354.969 2014.135q-.578.297-1.219.438-.64.156-1.344.156-2.5 0-3.828-1.64-1.312-1.657-1.312-4.782t1.312-4.781q1.328-1.657 3.828-1.657.703 0 1.344.157.656.156 1.219.453v2.719q-.625-.579-1.219-.844-.594-.281-1.219-.281-1.343 0-2.031 1.078-.687 1.062-.687 3.156t.687 3.172q.688 1.062 2.031 1.062.625 0 1.219-.265.594-.282 1.219-.86z"/><text x="1371" y="2014.38" fill="#D9B8FF" font-family="Helvetica" font-size="17" textLength="314">microsoft_graph_password_credential</text><path d="M1338 2028.389h354" style="stroke:#000d19;stroke-width:.5"/><text x="1348" y="2050.384" fill="#D9B8FF" font-family="sans-serif" font-size="14" font-weight="bold" textLength="171">custom_key_identifier</text><text x="1519" y="2050.384" fill="#D9B8FF" font-family="sans-serif" font-size="14" textLength="48">: string</text><text x="1348" y="2076.681" fill="#D9B8FF" font-family="sans-serif" font-size="14" font-weight="bold" textLength="105">display_name</text><text x="1453" y="2076.681" fill="#D9B8FF" font-family="sans-serif" font-size="14" textLength="48">: string</text><text x="1348" y="2102.978" fill="#D9B8FF" font-family="sans-serif" font-size="14" font-weight="bold" textLength="113">end_date_time</text><text x="1461" y="2102.978" fill="#D9B8FF" font-family="sans-serif" font-size="14" textLength="70">: datetime</text><text x="1348" y="2129.275" fill="#D9B8FF" font-family="sans-serif" font-size="14" font-weight="bold" textLength="30">hint</text><text x="1378" y="2129.275" fill="#D9B8FF" font-family="sans-serif" font-size="14" textLength="48">: string</text><text x="1348" y="2155.572" fill="#D9B8FF" font-family="sans-serif" font-size="14" font-weight="bold" textLength="49">key_id</text><text x="1397" y="2155.572" fill="#D9B8FF" font-family="sans-serif" font-size="14" textLength="48">: string</text><text x="1348" y="2181.869" fill="#D9B8FF" font-family="sans-serif" font-size="14" font-weight="bold" textLength="89">secret_text</text><text x="1437" y="2181.869" fill="#D9B8FF" font-family="sans-serif" font-size="14" textLength="48">: string</text><text x="1348" y="2208.165" fill="#D9B8FF" font-family="sans-serif" font-size="14" font-weight="bold" textLength="120">start_date_time</text><text x="1468" y="2208.165" fill="#D9B8FF" font-family="sans-serif" font-size="14" textLength="70">: datetime</text><rect width="440" height="152.977" x="1728" y="2028.04" fill="#3D176E" rx="2.5" ry="2.5" style="stroke:#000d19;stroke-width:.5"/><circle cx="1743" cy="2047.935" r="11" fill="#ADD1B2" style="stroke:#181818;stroke-width:1"/><path d="M1745.969 2053.575q-.578.297-1.219.438-.64.156-1.344.156-2.5 0-3.828-1.64-1.312-1.657-1.312-4.782t1.312-4.781q1.328-1.656 3.828-1.656.703 0 1.344.156.656.156 1.219.453v2.719q-.625-.578-1.219-.844-.594-.281-1.219-.281-1.343 0-2.031 1.078-.687 1.062-.687 3.156t.687 3.172q.688 1.062 2.031 1.062.625 0 1.219-.265.594-.282 1.219-.86z"/><text x="1762" y="2053.82" fill="#D9B8FF" font-family="Helvetica" font-size="17" textLength="398">microsoft_graph_password_single_sign_on_field</text><path d="M1729 2067.829h438" style="stroke:#000d19;stroke-width:.5"/><text x="1739" y="2089.824" fill="#D9B8FF" font-family="sans-serif" font-size="14" font-weight="bold" textLength="135">customized_label</text><text x="1874" y="2089.824" fill="#D9B8FF" font-family="sans-serif" font-size="14" textLength="48">: string</text><text x="1739" y="2116.121" fill="#D9B8FF" font-family="sans-serif" font-size="14" font-weight="bold" textLength="99">default_label</text><text x="1838" y="2116.121" fill="#D9B8FF" font-family="sans-serif" font-size="14" textLength="48">: string</text><text x="1739" y="2142.418" fill="#D9B8FF" font-family="sans-serif" font-size="14" font-weight="bold" textLength="55">field_id</text><text x="1794" y="2142.418" fill="#D9B8FF" font-family="sans-serif" font-size="14" textLength="48">: string</text><text x="1739" y="2168.715" fill="#D9B8FF" font-family="sans-serif" font-size="14" font-weight="bold" textLength="35">type</text><text x="1774" y="2168.715" fill="#D9B8FF" font-family="sans-serif" font-size="14" textLength="48">: string</text><rect width="332" height="284.461" x="2203" y="1962.3" fill="#3D176E" rx="2.5" ry="2.5" style="stroke:#000d19;stroke-width:.5"/><circle cx="2218" cy="1982.195" r="11" fill="#ADD1B2" style="stroke:#181818;stroke-width:1"/><path d="M2220.969 1987.835q-.578.297-1.219.438-.64.156-1.344.156-2.5 0-3.828-1.64-1.312-1.657-1.312-4.782t1.312-4.781q1.328-1.657 3.828-1.657.703 0 1.344.157.656.156 1.219.453v2.719q-.625-.578-1.219-.844-.594-.281-1.219-.281-1.343 0-2.031 1.078-.687 1.062-.687 3.156t.687 3.172q.688 1.062 2.031 1.062.625 0 1.219-.265.594-.282 1.219-.86z"/><text x="2237" y="1988.08" fill="#D9B8FF" font-family="Helvetica" font-size="17" textLength="290">microsoft_graph_permission_scope</text><path d="M2204 2002.089h330" style="stroke:#000d19;stroke-width:.5"/><text x="2214" y="2024.084" fill="#D9B8FF" font-family="sans-serif" font-size="14" font-weight="bold" textLength="214">admin_consent_description</text><text x="2428" y="2024.084" fill="#D9B8FF" font-family="sans-serif" font-size="14" textLength="48">: string</text><text x="2214" y="2050.381" fill="#D9B8FF" font-family="sans-serif" font-size="14" font-weight="bold" textLength="230">admin_consent_display_name</text><text x="2444" y="2050.381" fill="#D9B8FF" font-family="sans-serif" font-size="14" textLength="48">: string</text><text x="2214" y="2076.678" fill="#D9B8FF" font-family="sans-serif" font-size="14" font-weight="bold" textLength="14">id</text><text x="2228" y="2076.678" fill="#D9B8FF" font-family="sans-serif" font-size="14" textLength="48">: string</text><text x="2214" y="2102.975" fill="#D9B8FF" font-family="sans-serif" font-size="14" font-weight="bold" textLength="83">is_enabled</text><text x="2297" y="2102.975" fill="#D9B8FF" font-family="sans-serif" font-size="14" textLength="65">: boolean</text><text x="2214" y="2129.272" fill="#D9B8FF" font-family="sans-serif" font-size="14" font-weight="bold" textLength="45">origin</text><text x="2259" y="2129.272" fill="#D9B8FF" font-family="sans-serif" font-size="14" textLength="48">: string</text><text x="2214" y="2155.569" fill="#D9B8FF" font-family="sans-serif" font-size="14" font-weight="bold" textLength="35">type</text><text x="2249" y="2155.569" fill="#D9B8FF" font-family="sans-serif" font-size="14" textLength="48">: string</text><text x="2214" y="2181.865" fill="#D9B8FF" font-family="sans-serif" font-size="14" font-weight="bold" textLength="203">user_consent_description</text><text x="2417" y="2181.865" fill="#D9B8FF" font-family="sans-serif" font-size="14" textLength="48">: string</text><text x="2214" y="2208.162" fill="#D9B8FF" font-family="sans-serif" font-size="14" font-weight="bold" textLength="219">user_consent_display_name</text><text x="2433" y="2208.162" fill="#D9B8FF" font-family="sans-serif" font-size="14" textLength="48">: string</text><text x="2214" y="2234.459" fill="#D9B8FF" font-family="sans-serif" font-size="14" font-weight="bold" textLength="42">value</text><text x="2256" y="2234.459" fill="#D9B8FF" font-family="sans-serif" font-size="14" textLength="48">: string</text><rect width="432" height="74.086" x="2570" y="2067.49" fill="#3D176E" rx="2.5" ry="2.5" style="stroke:#000d19;stroke-width:.5"/><circle cx="2585" cy="2087.385" r="11" fill="#ADD1B2" style="stroke:#181818;stroke-width:1"/><path d="M2587.969 2093.025q-.578.297-1.219.438-.64.156-1.344.156-2.5 0-3.828-1.64-1.312-1.657-1.312-4.782t1.312-4.781q1.328-1.657 3.828-1.657.703 0 1.344.157.656.156 1.219.453v2.719q-.625-.579-1.219-.844-.594-.281-1.219-.281-1.343 0-2.031 1.078-.687 1.062-.687 3.156t.687 3.172q.688 1.062 2.031 1.062.625 0 1.219-.265.594-.282 1.219-.86z"/><text x="2604" y="2093.27" fill="#D9B8FF" font-family="Helvetica" font-size="17" textLength="390">microsoft_graph_saml_single_sign_on_settings</text><path d="M2571 2107.279h430" style="stroke:#000d19;stroke-width:.5"/><text x="2581" y="2129.274" fill="#D9B8FF" font-family="sans-serif" font-size="14" font-weight="bold" textLength="86">relay_state</text><text x="2667" y="2129.274" fill="#D9B8FF" font-family="sans-serif" font-size="14" textLength="48">: string</text><rect width="640" height="1047.07" x="1195" y="855.23" fill="#3D176E" rx="2.5" ry="2.5" style="stroke:#000d19;stroke-width:.5"/><circle cx="1364.75" cy="875.125" r="11" fill="#ADD1B2" style="stroke:#181818;stroke-width:1"/><path d="M1367.719 880.765q-.578.297-1.219.438-.64.156-1.344.156-2.5 0-3.828-1.64-1.312-1.657-1.312-4.782t1.312-4.781q1.328-1.656 3.828-1.656.703 0 1.344.156.656.156 1.219.453v2.719q-.625-.578-1.219-.844-.594-.281-1.219-.281-1.343 0-2.031 1.078-.687 1.062-.687 3.156t.687 3.172q.688 1.062 2.031 1.062.625 0 1.219-.265.594-.281 1.219-.86z"/><text x="1390.25" y="881.01" fill="#D9B8FF" font-family="Helvetica" font-size="17" textLength="282">microsoft_graph_service_principal</text><path d="M1196 895.019h638" style="stroke:#000d19;stroke-width:.5"/><text x="1206" y="917.014" fill="#D9B8FF" font-family="sans-serif" font-size="14" font-weight="bold" textLength="133">account_enabled</text><text x="1339" y="917.014" fill="#D9B8FF" font-family="sans-serif" font-size="14" textLength="65">: boolean</text><text x="1206" y="943.311" fill="#D9B8FF" font-family="sans-serif" font-size="14" font-weight="bold" textLength="59">add_ins</text><text x="1265" y="943.311" fill="#D9B8FF" font-family="sans-serif" font-size="14" textLength="182">: microsoft_graph_add_in[]</text><text x="1206" y="969.608" fill="#D9B8FF" font-family="sans-serif" font-size="14" font-weight="bold" textLength="143">alternative_names</text><text x="1349" y="969.608" fill="#D9B8FF" font-family="sans-serif" font-size="14" textLength="58">: string[]</text><text x="1206" y="995.905" fill="#D9B8FF" font-family="sans-serif" font-size="14" font-weight="bold" textLength="125">app_description</text><text x="1331" y="995.905" fill="#D9B8FF" font-family="sans-serif" font-size="14" textLength="48">: string</text><text x="1206" y="1022.202" fill="#D9B8FF" font-family="sans-serif" font-size="14" font-weight="bold" textLength="141">app_display_name</text><text x="1347" y="1022.202" fill="#D9B8FF" font-family="sans-serif" font-size="14" textLength="48">: string</text><text x="1206" y="1048.499" fill="#D9B8FF" font-family="sans-serif" font-size="14" font-weight="bold" textLength="50">app_id</text><text x="1256" y="1048.499" fill="#D9B8FF" font-family="sans-serif" font-size="14" textLength="48">: string</text><text x="1206" y="1074.795" fill="#D9B8FF" font-family="sans-serif" font-size="14" font-weight="bold" textLength="213">app_owner_organization_id</text><text x="1419" y="1074.795" fill="#D9B8FF" font-family="sans-serif" font-size="14" textLength="48">: string</text><text x="1206" y="1101.092" fill="#D9B8FF" font-family="sans-serif" font-size="14" font-weight="bold" textLength="240">app_role_assignment_required</text><text x="1446" y="1101.092" fill="#D9B8FF" font-family="sans-serif" font-size="14" textLength="65">: boolean</text><text x="1206" y="1127.389" fill="#D9B8FF" font-family="sans-serif" font-size="14" font-weight="bold" textLength="76">app_roles</text><text x="1282" y="1127.389" fill="#D9B8FF" font-family="sans-serif" font-size="14" textLength="196">: microsoft_graph_app_role[]</text><text x="1206" y="1153.686" fill="#D9B8FF" font-family="sans-serif" font-size="14" font-weight="bold" textLength="182">application_template_id</text><text x="1388" y="1153.686" fill="#D9B8FF" font-family="sans-serif" font-size="14" textLength="48">: string</text><text x="1206" y="1179.983" fill="#D9B8FF" font-family="sans-serif" font-size="14" font-weight="bold" textLength="213">custom_security_attributes</text><text x="1419" y="1179.983" fill="#D9B8FF" font-family="sans-serif" font-size="14" textLength="171">: dictionary[string, string]</text><text x="1206" y="1206.28" fill="#D9B8FF" font-family="sans-serif" font-size="14" font-weight="bold" textLength="89">description</text><text x="1295" y="1206.28" fill="#D9B8FF" font-family="sans-serif" font-size="14" textLength="48">: string</text><text x="1206" y="1232.577" fill="#D9B8FF" font-family="sans-serif" font-size="14" font-weight="bold" textLength="93">device_tags</text><text x="1299" y="1232.577" fill="#D9B8FF" font-family="sans-serif" font-size="14" textLength="58">: string[]</text><text x="1206" y="1258.874" fill="#D9B8FF" font-family="sans-serif" font-size="14" font-weight="bold" textLength="230">disabled_by_microsoft_status</text><text x="1436" y="1258.874" fill="#D9B8FF" font-family="sans-serif" font-size="14" textLength="48">: string</text><text x="1206" y="1285.17" fill="#D9B8FF" font-family="sans-serif" font-size="14" font-weight="bold" textLength="105">display_name</text><text x="1311" y="1285.17" fill="#D9B8FF" font-family="sans-serif" font-size="14" textLength="48">: string</text><text x="1206" y="1311.467" fill="#D9B8FF" font-family="sans-serif" font-size="14" font-weight="bold" textLength="69">error_url</text><text x="1275" y="1311.467" fill="#D9B8FF" font-family="sans-serif" font-size="14" textLength="48">: string</text><text x="1206" y="1337.764" fill="#D9B8FF" font-family="sans-serif" font-size="14" font-weight="bold" textLength="83">homepage</text><text x="1289" y="1337.764" fill="#D9B8FF" font-family="sans-serif" font-size="14" textLength="48">: string</text><text x="1206" y="1364.061" fill="#D9B8FF" font-family="sans-serif" font-size="14" font-weight="bold" textLength="30">info</text><text x="1236" y="1364.061" fill="#D9B8FF" font-family="sans-serif" font-size="14" textLength="239">: microsoft_graph_informational_url</text><text x="1206" y="1390.358" fill="#D9B8FF" font-family="sans-serif" font-size="14" font-weight="bold" textLength="123">key_credentials</text><text x="1329" y="1390.358" fill="#D9B8FF" font-family="sans-serif" font-size="14" textLength="236">: microsoft_graph_key_credential[]</text><text x="1206" y="1416.655" fill="#D9B8FF" font-family="sans-serif" font-size="14" font-weight="bold" textLength="66">login_url</text><text x="1272" y="1416.655" fill="#D9B8FF" font-family="sans-serif" font-size="14" textLength="48">: string</text><text x="1206" y="1442.952" fill="#D9B8FF" font-family="sans-serif" font-size="14" font-weight="bold" textLength="78">logout_url</text><text x="1284" y="1442.952" fill="#D9B8FF" font-family="sans-serif" font-size="14" textLength="48">: string</text><text x="1206" y="1469.249" fill="#D9B8FF" font-family="sans-serif" font-size="14" font-weight="bold" textLength="45">notes</text><text x="1251" y="1469.249" fill="#D9B8FF" font-family="sans-serif" font-size="14" textLength="48">: string</text><text x="1206" y="1495.545" fill="#D9B8FF" font-family="sans-serif" font-size="14" font-weight="bold" textLength="226">notification_email_addresses</text><text x="1432" y="1495.545" fill="#D9B8FF" font-family="sans-serif" font-size="14" textLength="58">: string[]</text><text x="1206" y="1521.842" fill="#D9B8FF" font-family="sans-serif" font-size="14" font-weight="bold" textLength="173">password_credentials</text><text x="1379" y="1521.842" fill="#D9B8FF" font-family="sans-serif" font-size="14" textLength="279">: microsoft_graph_password_credential[]</text><text x="1206" y="1548.139" fill="#D9B8FF" font-family="sans-serif" font-size="14" font-weight="bold" textLength="270">password_single_sign_on_settings</text><text x="1476" y="1548.139" fill="#D9B8FF" font-family="sans-serif" font-size="14" textLength="348">: microsoft_graph_password_single_sign_on_field[]</text><text x="1206" y="1574.436" fill="#D9B8FF" font-family="sans-serif" font-size="14" font-weight="bold" textLength="249">preferred_single_sign_on_mode</text><text x="1455" y="1574.436" fill="#D9B8FF" font-family="sans-serif" font-size="14" textLength="48">: string</text><text x="1206" y="1600.733" fill="#D9B8FF" font-family="sans-serif" font-size="14" font-weight="bold" textLength="348">preferred_token_signing_key_end_date_time</text><text x="1554" y="1600.733" fill="#D9B8FF" font-family="sans-serif" font-size="14" textLength="70">: datetime</text><text x="1206" y="1627.03" fill="#D9B8FF" font-family="sans-serif" font-size="14" font-weight="bold" textLength="322">preferred_token_signing_key_thumbprint</text><text x="1528" y="1627.03" fill="#D9B8FF" font-family="sans-serif" font-size="14" textLength="48">: string</text><text x="1206" y="1653.327" fill="#D9B8FF" font-family="sans-serif" font-size="14" font-weight="bold" textLength="235">published_permission_scopes</text><text x="1441" y="1653.327" fill="#D9B8FF" font-family="sans-serif" font-size="14" textLength="263">: microsoft_graph_permission_scope[]</text><text x="1206" y="1679.624" fill="#D9B8FF" font-family="sans-serif" font-size="14" font-weight="bold" textLength="124">publisher_name</text><text x="1330" y="1679.624" fill="#D9B8FF" font-family="sans-serif" font-size="14" textLength="48">: string</text><text x="1206" y="1705.92" fill="#D9B8FF" font-family="sans-serif" font-size="14" font-weight="bold" textLength="77">reply_urls</text><text x="1283" y="1705.92" fill="#D9B8FF" font-family="sans-serif" font-size="14" textLength="58">: string[]</text><text x="1206" y="1732.217" fill="#D9B8FF" font-family="sans-serif" font-size="14" font-weight="bold" textLength="144">saml_metadata_url</text><text x="1350" y="1732.217" fill="#D9B8FF" font-family="sans-serif" font-size="14" textLength="48">: string</text><text x="1206" y="1758.514" fill="#D9B8FF" font-family="sans-serif" font-size="14" font-weight="bold" textLength="228">saml_single_sign_on_settings</text><text x="1434" y="1758.514" fill="#D9B8FF" font-family="sans-serif" font-size="14" textLength="331">: microsoft_graph_saml_single_sign_on_settings</text><text x="1206" y="1784.811" fill="#D9B8FF" font-family="sans-serif" font-size="14" font-weight="bold" textLength="191">service_principal_names</text><text x="1397" y="1784.811" fill="#D9B8FF" font-family="sans-serif" font-size="14" textLength="58">: string[]</text><text x="1206" y="1811.108" fill="#D9B8FF" font-family="sans-serif" font-size="14" font-weight="bold" textLength="174">service_principal_type</text><text x="1380" y="1811.108" fill="#D9B8FF" font-family="sans-serif" font-size="14" textLength="48">: string</text><text x="1206" y="1837.405" fill="#D9B8FF" font-family="sans-serif" font-size="14" font-weight="bold" textLength="133">sign_in_audience</text><text x="1339" y="1837.405" fill="#D9B8FF" font-family="sans-serif" font-size="14" textLength="48">: string</text><text x="1206" y="1863.702" fill="#D9B8FF" font-family="sans-serif" font-size="14" font-weight="bold" textLength="193">token_encryption_key_id</text><text x="1399" y="1863.702" fill="#D9B8FF" font-family="sans-serif" font-size="14" textLength="48">: string</text><text x="1206" y="1889.999" fill="#D9B8FF" font-family="sans-serif" font-size="14" font-weight="bold" textLength="141">verified_publisher</text><text x="1347" y="1889.999" fill="#D9B8FF" font-family="sans-serif" font-size="14" textLength="247">: microsoft_graph_verified_publisher</text><rect width="335" height="126.68" x="3037.5" y="2041.19" fill="#3D176E" rx="2.5" ry="2.5" style="stroke:#000d19;stroke-width:.5"/><circle cx="3052.5" cy="2061.084" r="11" fill="#ADD1B2" style="stroke:#181818;stroke-width:1"/><path d="M3055.469 2066.725q-.578.297-1.219.438-.64.156-1.344.156-2.5 0-3.828-1.64-1.312-1.657-1.312-4.782t1.312-4.781q1.328-1.657 3.828-1.657.703 0 1.344.157.656.156 1.219.453v2.719q-.625-.579-1.219-.844-.594-.281-1.219-.281-1.343 0-2.031 1.078-.687 1.062-.687 3.156t.687 3.172q.688 1.062 2.031 1.062.625 0 1.219-.265.594-.282 1.219-.86z"/><text x="3071.5" y="2066.97" fill="#D9B8FF" font-family="Helvetica" font-size="17" textLength="293">microsoft_graph_verified_publisher</text><path d="M3038.5 2080.979h333" style="stroke:#000d19;stroke-width:.5"/><text x="3048.5" y="2102.974" fill="#D9B8FF" font-family="sans-serif" font-size="14" font-weight="bold" textLength="132">added_date_time</text><text x="3180.5" y="2102.974" fill="#D9B8FF" font-family="sans-serif" font-size="14" textLength="70">: datetime</text><text x="3048.5" y="2129.271" fill="#D9B8FF" font-family="sans-serif" font-size="14" font-weight="bold" textLength="105">display_name</text><text x="3153.5" y="2129.271" fill="#D9B8FF" font-family="sans-serif" font-size="14" textLength="48">: string</text><text x="3048.5" y="2155.568" fill="#D9B8FF" font-family="sans-serif" font-size="14" font-weight="bold" textLength="162">verified_publisher_id</text><text x="3210.5" y="2155.568" fill="#D9B8FF" font-family="sans-serif" font-size="14" textLength="48">: string</text><rect width="214" height="100.383" x="1408" y="438.76" fill="#3D176E" rx="2.5" ry="2.5" style="stroke:#000d19;stroke-width:.5"/><circle cx="1429.3" cy="458.654" r="11" fill="#ADD1B2" style="stroke:#181818;stroke-width:1"/><path d="M1432.269 464.295q-.578.297-1.219.438-.64.156-1.344.156-2.5 0-3.828-1.64-1.312-1.657-1.312-4.782t1.312-4.781q1.328-1.656 3.828-1.656.703 0 1.344.156.656.156 1.219.453v2.719q-.625-.579-1.219-.844-.594-.281-1.219-.281-1.343 0-2.031 1.078-.687 1.062-.687 3.156t.687 3.172q.688 1.062 2.031 1.062.625 0 1.219-.265.594-.281 1.219-.86z"/><text x="1449.7" y="464.54" fill="#D9B8FF" font-family="Helvetica" font-size="17" textLength="158">microsoft_resource</text><path d="M1409 478.549h212" style="stroke:#000d19;stroke-width:.5"/><text x="1419" y="500.544" fill="#D9B8FF" font-family="sans-serif" font-size="14" font-weight="bold" textLength="35">etag</text><text x="1454" y="500.544" fill="#D9B8FF" font-family="sans-serif" font-size="14" textLength="48">: string</text><text x="1419" y="526.841" fill="#D9B8FF" font-family="sans-serif" font-size="14" font-weight="bold" textLength="144">provisioning_state</text><text x="1563" y="526.841" fill="#D9B8FF" font-family="sans-serif" font-size="14" textLength="48">: string</text><rect width="227" height="310.758" x="1401.5" y="7" fill="#3D176E" rx="2.5" ry="2.5" style="stroke:#000d19;stroke-width:.5"/><circle cx="1470.25" cy="26.895" r="11" fill="#ADD1B2" style="stroke:#181818;stroke-width:1"/><path d="M1473.219 32.535q-.578.297-1.219.438-.64.156-1.344.156-2.5 0-3.828-1.64-1.312-1.657-1.312-4.782t1.312-4.781q1.328-1.656 3.828-1.656.703 0 1.344.156.656.156 1.219.453v2.719q-.625-.578-1.219-.844-.594-.281-1.219-.281-1.343 0-2.031 1.078-.687 1.062-.687 3.156t.687 3.172q.688 1.062 2.031 1.062.625 0 1.219-.265.594-.281 1.219-.86z"/><text x="1495.75" y="32.78" fill="#D9B8FF" font-family="Helvetica" font-size="17" textLength="71">resource</text><path d="M1402.5 46.789h225" style="stroke:#000d19;stroke-width:.5"/><text x="1412.5" y="68.784" fill="#D9B8FF" font-family="sans-serif" font-size="14" font-weight="bold" textLength="29">age</text><text x="1441.5" y="68.784" fill="#D9B8FF" font-family="sans-serif" font-size="14" textLength="66">: duration</text><text x="1412.5" y="95.081" fill="#D9B8FF" font-family="sans-serif" font-size="14" font-weight="bold" textLength="43">atime</text><text x="1455.5" y="95.081" fill="#D9B8FF" font-family="sans-serif" font-size="14" textLength="70">: datetime</text><text x="1412.5" y="121.378" fill="#D9B8FF" font-family="sans-serif" font-size="14" font-weight="bold" textLength="43">ctime</text><text x="1455.5" y="121.378" fill="#D9B8FF" font-family="sans-serif" font-size="14" textLength="70">: datetime</text><text x="1412.5" y="147.675" fill="#D9B8FF" font-family="sans-serif" font-size="14" font-weight="bold" textLength="14">id</text><text x="1426.5" y="147.675" fill="#D9B8FF" font-family="sans-serif" font-size="14" textLength="48">: string</text><text x="1412.5" y="173.972" fill="#D9B8FF" font-family="sans-serif" font-size="14" font-weight="bold" textLength="33">kind</text><text x="1445.5" y="173.972" fill="#D9B8FF" font-family="sans-serif" font-size="14" textLength="48">: string</text><text x="1412.5" y="200.269" fill="#D9B8FF" font-family="sans-serif" font-size="14" font-weight="bold" textLength="90">last_access</text><text x="1502.5" y="200.269" fill="#D9B8FF" font-family="sans-serif" font-size="14" textLength="66">: duration</text><text x="1412.5" y="226.565" fill="#D9B8FF" font-family="sans-serif" font-size="14" font-weight="bold" textLength="90">last_update</text><text x="1502.5" y="226.565" fill="#D9B8FF" font-family="sans-serif" font-size="14" textLength="66">: duration</text><text x="1412.5" y="252.862" fill="#D9B8FF" font-family="sans-serif" font-size="14" font-weight="bold" textLength="48">mtime</text><text x="1460.5" y="252.862" fill="#D9B8FF" font-family="sans-serif" font-size="14" textLength="70">: datetime</text><text x="1412.5" y="279.159" fill="#D9B8FF" font-family="sans-serif" font-size="14" font-weight="bold" textLength="43">name</text><text x="1455.5" y="279.159" fill="#D9B8FF" font-family="sans-serif" font-size="14" textLength="48">: string</text><text x="1412.5" y="305.456" fill="#D9B8FF" font-family="sans-serif" font-size="14" font-weight="bold" textLength="34">tags</text><text x="1446.5" y="305.456" fill="#D9B8FF" font-family="sans-serif" font-size="14" textLength="171">: dictionary[string, string]</text><path fill="none" d="M1515 557.61v102.27m0-120.27-6 18h12zm-320.41 966.62C944.12 1611.69 592.27 1774.63 310 1962.3c-34.25 22.77-64.482 48.26-92.721 74.46" style="stroke:#ffaf37;stroke-width:2"/><path fill="#FFAF37" d="m212.88 2040.84 9.318-3.189-5.653-.212.212-5.653z" style="stroke:#ffaf37;stroke-width:2"/><path fill="none" d="M1194.58 1566.15C1016.94 1674.32 795.19 1817.5 610 1962.3c-10.43 8.15-16.429 12.978-26.839 21.968" style="stroke:#ffaf37;stroke-width:2"/><path fill="#FFAF37" d="m578.62 1988.19 9.426-2.855-5.642-.413.413-5.642z" style="stroke:#ffaf37;stroke-width:2"/><path fill="none" d="M1515 752.72v102.13m0-120.13-6 18h12zm-320.36 966.19c-114.39 114.67-230.053 230.612-308.743 309.492" style="stroke:#ffaf37;stroke-width:2"/><path fill="#FFAF37" d="m881.66 2014.65 9.188-3.547-5.657.007-.007-5.657z" style="stroke:#ffaf37;stroke-width:2"/><path fill="none" d="m1249.99 1902.4-34.106 67.249" style="stroke:#ffaf37;stroke-width:2"/><path fill="#FFAF37" d="m1213.17 1975 7.638-6.217-5.376 1.758-1.759-5.377z" style="stroke:#ffaf37;stroke-width:2"/><path fill="none" d="M1515 1902.4v79.93" style="stroke:#ffaf37;stroke-width:2"/><path fill="#FFAF37" d="m1515 1988.33 4-9-4 4-4-4z" style="stroke:#ffaf37;stroke-width:2"/><path fill="none" d="M1827.67 1902.4c28.75 48.05 51.58 86.21 71.92 120.22" style="stroke:#ffaf37;stroke-width:2"/><path fill="#FFAF37" d="m1902.67 2027.77-1.187-9.777-1.38 5.486-5.485-1.38z" style="stroke:#ffaf37;stroke-width:2"/><path fill="none" d="M1835.43 1651.33c124.95 105.89 258.323 218.93 362.653 307.35" style="stroke:#ffaf37;stroke-width:2"/><path fill="#FFAF37" d="m2202.66 1962.56-4.28-8.87.466 5.637-5.638.466z" style="stroke:#ffaf37;stroke-width:2"/><path fill="none" d="M1835.31 1556.32c205.69 114.2 478.03 266.97 716.69 405.98 59.86 34.87 122.441 72.77 169.561 101.59" style="stroke:#ffaf37;stroke-width:2"/><path fill="#FFAF37" d="m2726.68 2067.02-5.59-8.108 1.325 5.5-5.5 1.324z" style="stroke:#ffaf37;stroke-width:2"/><path fill="none" d="M1835.41 1474.56c312.95 99.24 797.32 270.78 1184.59 487.74 39.48 22.12 75.16 48.154 108.05 74.674" style="stroke:#ffaf37;stroke-width:2"/><path fill="#FFAF37" d="m3132.72 2040.74-4.495-8.763.603 5.624-5.625.604z" style="stroke:#ffaf37;stroke-width:2"/><path fill="none" d="M1515 336.06v102.36m0-120.36-6 18h12z" style="stroke:#ffaf37;stroke-width:2"/></svg>