<?xml version="1.0" encoding="us-ascii" standalone="no"?><svg xmlns="http://www.w3.org/2000/svg" xmlns:xlink="http://www.w3.org/1999/xlink" contentStyleType="text/css" height="1409px" preserveAspectRatio="none" style="width:839px;height:1409px;" version="1.1" viewBox="0 0 839 1409" width="839px" zoomAndPan="magnify"><defs/><g><!--class azure_auto_upgrade_policy_resource--><g id="elem_azure_auto_upgrade_policy_resource"><rect codeLine="23" fill="#3D176E" height="74.0859" id="azure_auto_upgrade_policy_resource" rx="2.5" ry="2.5" style="stroke:#000D19;stroke-width:0.5;" width="412" x="25.5" y="1167.58"/><ellipse cx="68.85" cy="1187.4745" fill="#ADD1B2" rx="11" ry="11" style="stroke:#181818;stroke-width:1.0;"/><path d="M71.8188,1193.1152 Q71.2406,1193.412 70.6,1193.5527 Q69.9594,1193.7089 69.2563,1193.7089 Q66.7563,1193.7089 65.4281,1192.0683 Q64.1156,1190.412 64.1156,1187.287 Q64.1156,1184.162 65.4281,1182.5058 Q66.7563,1180.8495 69.2563,1180.8495 Q69.9594,1180.8495 70.6,1181.0058 Q71.2563,1181.162 71.8188,1181.4589 L71.8188,1184.1777 Q71.1938,1183.5995 70.6,1183.3339 Q70.0063,1183.0527 69.3813,1183.0527 Q68.0375,1183.0527 67.35,1184.1308 Q66.6625,1185.1933 66.6625,1187.287 Q66.6625,1189.3808 67.35,1190.4589 Q68.0375,1191.5214 69.3813,1191.5214 Q70.0063,1191.5214 70.6,1191.2558 Q71.1938,1190.9745 71.8188,1190.3964 L71.8188,1193.1152 Z " fill="#000000"/><text fill="#D9B8FF" font-family="Helvetica" font-size="17" lengthAdjust="spacing" textLength="307" x="94.15" y="1193.3598">azure_auto_upgrade_policy_resource</text><line style="stroke:#000D19;stroke-width:0.5;" x1="26.5" x2="436.5" y1="1207.3691" y2="1207.3691"/><text fill="#D9B8FF" font-family="sans-serif" font-size="14" font-weight="bold" lengthAdjust="spacing" textLength="142" x="36.5" y="1229.3642">throughput_policy</text><text fill="#D9B8FF" font-family="sans-serif" font-size="14" lengthAdjust="spacing" textLength="248" x="178.5" y="1229.3642">: azure_throughput_policy_resource</text></g><!--class azure_autoscale_settings_resource--><g id="elem_azure_autoscale_settings_resource"><rect codeLine="26" fill="#3D176E" height="126.6797" id="azure_autoscale_settings_resource" rx="2.5" ry="2.5" style="stroke:#000D19;stroke-width:0.5;" width="449" x="7" y="980.9"/><ellipse cx="77.75" cy="1000.7945" fill="#ADD1B2" rx="11" ry="11" style="stroke:#181818;stroke-width:1.0;"/><path d="M80.7188,1006.4352 Q80.1406,1006.732 79.5,1006.8727 Q78.8594,1007.0289 78.1563,1007.0289 Q75.6563,1007.0289 74.3281,1005.3883 Q73.0156,1003.732 73.0156,1000.607 Q73.0156,997.482 74.3281,995.8258 Q75.6563,994.1695 78.1563,994.1695 Q78.8594,994.1695 79.5,994.3258 Q80.1563,994.482 80.7188,994.7789 L80.7188,997.4977 Q80.0938,996.9195 79.5,996.6539 Q78.9063,996.3727 78.2813,996.3727 Q76.9375,996.3727 76.25,997.4508 Q75.5625,998.5133 75.5625,1000.607 Q75.5625,1002.7008 76.25,1003.7789 Q76.9375,1004.8414 78.2813,1004.8414 Q78.9063,1004.8414 79.5,1004.5758 Q80.0938,1004.2945 80.7188,1003.7164 L80.7188,1006.4352 Z " fill="#000000"/><text fill="#D9B8FF" font-family="Helvetica" font-size="17" lengthAdjust="spacing" textLength="289" x="103.25" y="1006.6798">azure_autoscale_settings_resource</text><line style="stroke:#000D19;stroke-width:0.5;" x1="8" x2="455" y1="1020.6891" y2="1020.6891"/><text fill="#D9B8FF" font-family="sans-serif" font-size="14" font-weight="bold" lengthAdjust="spacing" textLength="161" x="18" y="1042.6842">auto_upgrade_policy</text><text fill="#D9B8FF" font-family="sans-serif" font-size="14" lengthAdjust="spacing" textLength="266" x="179" y="1042.6842">: azure_auto_upgrade_policy_resource</text><text fill="#D9B8FF" font-family="sans-serif" font-size="14" font-weight="bold" lengthAdjust="spacing" textLength="128" x="18" y="1068.9811">max_throughput</text><text fill="#D9B8FF" font-family="sans-serif" font-size="14" lengthAdjust="spacing" textLength="44" x="146" y="1068.9811">: int64</text><text fill="#D9B8FF" font-family="sans-serif" font-size="14" font-weight="bold" lengthAdjust="spacing" textLength="183" x="18" y="1095.2779">target_max_throughput</text><text fill="#D9B8FF" font-family="sans-serif" font-size="14" lengthAdjust="spacing" textLength="44" x="201" y="1095.2779">: int64</text></g><!--class azure_colls_users--><g id="elem_azure_colls_users"><rect codeLine="31" fill="#3D176E" height="100.3828" id="azure_colls_users" rx="2.5" ry="2.5" style="stroke:#000D19;stroke-width:0.5;" width="186" x="353.5" y="820.52"/><ellipse cx="368.5" cy="840.4145" fill="#ADD1B2" rx="11" ry="11" style="stroke:#181818;stroke-width:1.0;"/><path d="M371.4688,846.0552 Q370.8906,846.352 370.25,846.4927 Q369.6094,846.6489 368.9063,846.6489 Q366.4063,846.6489 365.0781,845.0083 Q363.7656,843.352 363.7656,840.227 Q363.7656,837.102 365.0781,835.4458 Q366.4063,833.7895 368.9063,833.7895 Q369.6094,833.7895 370.25,833.9458 Q370.9063,834.102 371.4688,834.3989 L371.4688,837.1177 Q370.8438,836.5395 370.25,836.2739 Q369.6563,835.9927 369.0313,835.9927 Q367.6875,835.9927 367,837.0708 Q366.3125,838.1333 366.3125,840.227 Q366.3125,842.3208 367,843.3989 Q367.6875,844.4614 369.0313,844.4614 Q369.6563,844.4614 370.25,844.1958 Q370.8438,843.9145 371.4688,843.3364 L371.4688,846.0552 Z " fill="#000000"/><text fill="#D9B8FF" font-family="Helvetica" font-size="17" lengthAdjust="spacing" textLength="144" x="387.5" y="846.2998">azure_colls_users</text><line style="stroke:#000D19;stroke-width:0.5;" x1="354.5" x2="538.5" y1="860.3091" y2="860.3091"/><text fill="#D9B8FF" font-family="sans-serif" font-size="14" font-weight="bold" lengthAdjust="spacing" textLength="36" x="364.5" y="882.3042">colls</text><text fill="#D9B8FF" font-family="sans-serif" font-size="14" lengthAdjust="spacing" textLength="48" x="400.5" y="882.3042">: string</text><text fill="#D9B8FF" font-family="sans-serif" font-size="14" font-weight="bold" lengthAdjust="spacing" textLength="45" x="364.5" y="908.6011">users</text><text fill="#D9B8FF" font-family="sans-serif" font-size="14" lengthAdjust="spacing" textLength="48" x="409.5" y="908.6011">: string</text></g><!--class azure_cosmos_db_sql_database--><g id="elem_azure_cosmos_db_sql_database"><rect codeLine="35" fill="#3D176E" height="100.3828" id="azure_cosmos_db_sql_database" rx="2.5" ry="2.5" style="stroke:#000D19;stroke-width:0.5;" width="303" x="418" y="660.14"/><ellipse cx="433" cy="680.0345" fill="#ADD1B2" rx="11" ry="11" style="stroke:#181818;stroke-width:1.0;"/><path d="M435.9688,685.6752 Q435.3906,685.972 434.75,686.1127 Q434.1094,686.2689 433.4063,686.2689 Q430.9063,686.2689 429.5781,684.6283 Q428.2656,682.972 428.2656,679.847 Q428.2656,676.722 429.5781,675.0658 Q430.9063,673.4095 433.4063,673.4095 Q434.1094,673.4095 434.75,673.5658 Q435.4063,673.722 435.9688,674.0189 L435.9688,676.7377 Q435.3438,676.1595 434.75,675.8939 Q434.1563,675.6127 433.5313,675.6127 Q432.1875,675.6127 431.5,676.6908 Q430.8125,677.7533 430.8125,679.847 Q430.8125,681.9408 431.5,683.0189 Q432.1875,684.0814 433.5313,684.0814 Q434.1563,684.0814 434.75,683.8158 Q435.3438,683.5345 435.9688,682.9564 L435.9688,685.6752 Z " fill="#000000"/><text fill="#D9B8FF" font-family="Helvetica" font-size="17" lengthAdjust="spacing" textLength="261" x="452" y="685.9198">azure_cosmos_db_sql_database</text><line style="stroke:#000D19;stroke-width:0.5;" x1="419" x2="720" y1="699.9291" y2="699.9291"/><text fill="#D9B8FF" font-family="sans-serif" font-size="14" font-weight="bold" lengthAdjust="spacing" textLength="102" x="429" y="721.9242">sql_database</text><text fill="#D9B8FF" font-family="sans-serif" font-size="14" lengthAdjust="spacing" textLength="132" x="531" y="721.9242">: azure_colls_users</text><text fill="#D9B8FF" font-family="sans-serif" font-size="14" font-weight="bold" lengthAdjust="spacing" textLength="89" x="429" y="748.2211">sql_options</text><text fill="#D9B8FF" font-family="sans-serif" font-size="14" lengthAdjust="spacing" textLength="176" x="518" y="748.2211">: azure_options_resource</text></g><!--class azure_options_resource--><g id="elem_azure_options_resource"><rect codeLine="39" fill="#3D176E" height="100.3828" id="azure_options_resource" rx="2.5" ry="2.5" style="stroke:#000D19;stroke-width:0.5;" width="238" x="574.5" y="820.52"/><ellipse cx="589.5" cy="840.4145" fill="#ADD1B2" rx="11" ry="11" style="stroke:#181818;stroke-width:1.0;"/><path d="M592.4688,846.0552 Q591.8906,846.352 591.25,846.4927 Q590.6094,846.6489 589.9063,846.6489 Q587.4063,846.6489 586.0781,845.0083 Q584.7656,843.352 584.7656,840.227 Q584.7656,837.102 586.0781,835.4458 Q587.4063,833.7895 589.9063,833.7895 Q590.6094,833.7895 591.25,833.9458 Q591.9063,834.102 592.4688,834.3989 L592.4688,837.1177 Q591.8438,836.5395 591.25,836.2739 Q590.6563,835.9927 590.0313,835.9927 Q588.6875,835.9927 588,837.0708 Q587.3125,838.1333 587.3125,840.227 Q587.3125,842.3208 588,843.3989 Q588.6875,844.4614 590.0313,844.4614 Q590.6563,844.4614 591.25,844.1958 Q591.8438,843.9145 592.4688,843.3364 L592.4688,846.0552 Z " fill="#000000"/><text fill="#D9B8FF" font-family="Helvetica" font-size="17" lengthAdjust="spacing" textLength="196" x="608.5" y="846.2998">azure_options_resource</text><line style="stroke:#000D19;stroke-width:0.5;" x1="575.5" x2="811.5" y1="860.3091" y2="860.3091"/><text fill="#D9B8FF" font-family="sans-serif" font-size="14" font-weight="bold" lengthAdjust="spacing" textLength="147" x="585.5" y="882.3042">autoscale_settings</text><text fill="#D9B8FF" font-family="sans-serif" font-size="14" lengthAdjust="spacing" textLength="44" x="732.5" y="882.3042">: int64</text><text fill="#D9B8FF" font-family="sans-serif" font-size="14" font-weight="bold" lengthAdjust="spacing" textLength="89" x="585.5" y="908.6011">throughput</text><text fill="#D9B8FF" font-family="sans-serif" font-size="14" lengthAdjust="spacing" textLength="44" x="674.5" y="908.6011">: int64</text></g><!--class azure_resource_restore_parameters--><g id="elem_azure_resource_restore_parameters"><rect codeLine="43" fill="#3D176E" height="39.7891" id="azure_resource_restore_parameters" rx="2.5" ry="2.5" style="stroke:#000D19;stroke-width:0.5;" width="341" x="491" y="1024.35"/><ellipse cx="506" cy="1044.2445" fill="#ADD1B2" rx="11" ry="11" style="stroke:#181818;stroke-width:1.0;"/><path d="M508.9688,1049.8852 Q508.3906,1050.182 507.75,1050.3227 Q507.1094,1050.4789 506.4063,1050.4789 Q503.9063,1050.4789 502.5781,1048.8383 Q501.2656,1047.182 501.2656,1044.057 Q501.2656,1040.932 502.5781,1039.2758 Q503.9063,1037.6195 506.4063,1037.6195 Q507.1094,1037.6195 507.75,1037.7758 Q508.4063,1037.932 508.9688,1038.2289 L508.9688,1040.9477 Q508.3438,1040.3695 507.75,1040.1039 Q507.1563,1039.8227 506.5313,1039.8227 Q505.1875,1039.8227 504.5,1040.9008 Q503.8125,1041.9633 503.8125,1044.057 Q503.8125,1046.1508 504.5,1047.2289 Q505.1875,1048.2914 506.5313,1048.2914 Q507.1563,1048.2914 507.75,1048.0258 Q508.3438,1047.7445 508.9688,1047.1664 L508.9688,1049.8852 Z " fill="#000000"/><text fill="#D9B8FF" font-family="Helvetica" font-size="17" lengthAdjust="spacing" textLength="299" x="525" y="1050.1298">azure_resource_restore_parameters</text></g><!--class azure_throughput_policy_resource--><g id="elem_azure_throughput_policy_resource"><rect codeLine="46" fill="#3D176E" height="100.3828" id="azure_throughput_policy_resource" rx="2.5" ry="2.5" style="stroke:#000D19;stroke-width:0.5;" width="329" x="67" y="1301.67"/><ellipse cx="82" cy="1321.5645" fill="#ADD1B2" rx="11" ry="11" style="stroke:#181818;stroke-width:1.0;"/><path d="M84.9688,1327.2052 Q84.3906,1327.502 83.75,1327.6427 Q83.1094,1327.7989 82.4063,1327.7989 Q79.9063,1327.7989 78.5781,1326.1583 Q77.2656,1324.502 77.2656,1321.377 Q77.2656,1318.252 78.5781,1316.5958 Q79.9063,1314.9395 82.4063,1314.9395 Q83.1094,1314.9395 83.75,1315.0958 Q84.4063,1315.252 84.9688,1315.5489 L84.9688,1318.2677 Q84.3438,1317.6895 83.75,1317.4239 Q83.1563,1317.1427 82.5313,1317.1427 Q81.1875,1317.1427 80.5,1318.2208 Q79.8125,1319.2833 79.8125,1321.377 Q79.8125,1323.4708 80.5,1324.5489 Q81.1875,1325.6114 82.5313,1325.6114 Q83.1563,1325.6114 83.75,1325.3458 Q84.3438,1325.0645 84.9688,1324.4864 L84.9688,1327.2052 Z " fill="#000000"/><text fill="#D9B8FF" font-family="Helvetica" font-size="17" lengthAdjust="spacing" textLength="287" x="101" y="1327.4498">azure_throughput_policy_resource</text><line style="stroke:#000D19;stroke-width:0.5;" x1="68" x2="395" y1="1341.4591" y2="1341.4591"/><text fill="#D9B8FF" font-family="sans-serif" font-size="14" font-weight="bold" lengthAdjust="spacing" textLength="149" x="78" y="1363.4542">increment_percent</text><text fill="#D9B8FF" font-family="sans-serif" font-size="14" lengthAdjust="spacing" textLength="44" x="227" y="1363.4542">: int64</text><text fill="#D9B8FF" font-family="sans-serif" font-size="14" font-weight="bold" lengthAdjust="spacing" textLength="83" x="78" y="1389.7511">is_enabled</text><text fill="#D9B8FF" font-family="sans-serif" font-size="14" lengthAdjust="spacing" textLength="65" x="161" y="1389.7511">: boolean</text></g><!--class microsoft_resource--><g id="elem_microsoft_resource"><rect codeLine="50" fill="#3D176E" height="100.3828" id="microsoft_resource" rx="2.5" ry="2.5" style="stroke:#000D19;stroke-width:0.5;" width="214" x="462.5" y="438.75"/><ellipse cx="483.8" cy="458.6445" fill="#ADD1B2" rx="11" ry="11" style="stroke:#181818;stroke-width:1.0;"/><path d="M486.7688,464.2852 Q486.1906,464.582 485.55,464.7227 Q484.9094,464.8789 484.2063,464.8789 Q481.7063,464.8789 480.3781,463.2383 Q479.0656,461.582 479.0656,458.457 Q479.0656,455.332 480.3781,453.6758 Q481.7063,452.0195 484.2063,452.0195 Q484.9094,452.0195 485.55,452.1758 Q486.2063,452.332 486.7688,452.6289 L486.7688,455.3477 Q486.1438,454.7695 485.55,454.5039 Q484.9563,454.2227 484.3313,454.2227 Q482.9875,454.2227 482.3,455.3008 Q481.6125,456.3633 481.6125,458.457 Q481.6125,460.5508 482.3,461.6289 Q482.9875,462.6914 484.3313,462.6914 Q484.9563,462.6914 485.55,462.4258 Q486.1438,462.1445 486.7688,461.5664 L486.7688,464.2852 Z " fill="#000000"/><text fill="#D9B8FF" font-family="Helvetica" font-size="17" lengthAdjust="spacing" textLength="158" x="504.2" y="464.5298">microsoft_resource</text><line style="stroke:#000D19;stroke-width:0.5;" x1="463.5" x2="675.5" y1="478.5391" y2="478.5391"/><text fill="#D9B8FF" font-family="sans-serif" font-size="14" font-weight="bold" lengthAdjust="spacing" textLength="35" x="473.5" y="500.5342">etag</text><text fill="#D9B8FF" font-family="sans-serif" font-size="14" lengthAdjust="spacing" textLength="48" x="508.5" y="500.5342">: string</text><text fill="#D9B8FF" font-family="sans-serif" font-size="14" font-weight="bold" lengthAdjust="spacing" textLength="144" x="473.5" y="526.8311">provisioning_state</text><text fill="#D9B8FF" font-family="sans-serif" font-size="14" lengthAdjust="spacing" textLength="48" x="617.5" y="526.8311">: string</text></g><!--class resource--><g id="elem_resource"><rect codeLine="54" fill="#3D176E" height="310.7578" id="resource" rx="2.5" ry="2.5" style="stroke:#000D19;stroke-width:0.5;" width="227" x="456" y="7"/><ellipse cx="524.75" cy="26.8945" fill="#ADD1B2" rx="11" ry="11" style="stroke:#181818;stroke-width:1.0;"/><path d="M527.7188,32.5352 Q527.1406,32.832 526.5,32.9727 Q525.8594,33.1289 525.1563,33.1289 Q522.6563,33.1289 521.3281,31.4883 Q520.0156,29.832 520.0156,26.707 Q520.0156,23.582 521.3281,21.9258 Q522.6563,20.2695 525.1563,20.2695 Q525.8594,20.2695 526.5,20.4258 Q527.1563,20.582 527.7188,20.8789 L527.7188,23.5977 Q527.0938,23.0195 526.5,22.7539 Q525.9063,22.4727 525.2813,22.4727 Q523.9375,22.4727 523.25,23.5508 Q522.5625,24.6133 522.5625,26.707 Q522.5625,28.8008 523.25,29.8789 Q523.9375,30.9414 525.2813,30.9414 Q525.9063,30.9414 526.5,30.6758 Q527.0938,30.3945 527.7188,29.8164 L527.7188,32.5352 Z " fill="#000000"/><text fill="#D9B8FF" font-family="Helvetica" font-size="17" lengthAdjust="spacing" textLength="71" x="550.25" y="32.7798">resource</text><line style="stroke:#000D19;stroke-width:0.5;" x1="457" x2="682" y1="46.7891" y2="46.7891"/><text fill="#D9B8FF" font-family="sans-serif" font-size="14" font-weight="bold" lengthAdjust="spacing" textLength="29" x="467" y="68.7842">age</text><text fill="#D9B8FF" font-family="sans-serif" font-size="14" lengthAdjust="spacing" textLength="66" x="496" y="68.7842">: duration</text><text fill="#D9B8FF" font-family="sans-serif" font-size="14" font-weight="bold" lengthAdjust="spacing" textLength="43" x="467" y="95.0811">atime</text><text fill="#D9B8FF" font-family="sans-serif" font-size="14" lengthAdjust="spacing" textLength="70" x="510" y="95.0811">: datetime</text><text fill="#D9B8FF" font-family="sans-serif" font-size="14" font-weight="bold" lengthAdjust="spacing" textLength="43" x="467" y="121.3779">ctime</text><text fill="#D9B8FF" font-family="sans-serif" font-size="14" lengthAdjust="spacing" textLength="70" x="510" y="121.3779">: datetime</text><text fill="#D9B8FF" font-family="sans-serif" font-size="14" font-weight="bold" lengthAdjust="spacing" textLength="14" x="467" y="147.6748">id</text><text fill="#D9B8FF" font-family="sans-serif" font-size="14" lengthAdjust="spacing" textLength="48" x="481" y="147.6748">: string</text><text fill="#D9B8FF" font-family="sans-serif" font-size="14" font-weight="bold" lengthAdjust="spacing" textLength="33" x="467" y="173.9717">kind</text><text fill="#D9B8FF" font-family="sans-serif" font-size="14" lengthAdjust="spacing" textLength="48" x="500" y="173.9717">: string</text><text fill="#D9B8FF" font-family="sans-serif" font-size="14" font-weight="bold" lengthAdjust="spacing" textLength="90" x="467" y="200.2686">last_access</text><text fill="#D9B8FF" font-family="sans-serif" font-size="14" lengthAdjust="spacing" textLength="66" x="557" y="200.2686">: duration</text><text fill="#D9B8FF" font-family="sans-serif" font-size="14" font-weight="bold" lengthAdjust="spacing" textLength="90" x="467" y="226.5654">last_update</text><text fill="#D9B8FF" font-family="sans-serif" font-size="14" lengthAdjust="spacing" textLength="66" x="557" y="226.5654">: duration</text><text fill="#D9B8FF" font-family="sans-serif" font-size="14" font-weight="bold" lengthAdjust="spacing" textLength="48" x="467" y="252.8623">mtime</text><text fill="#D9B8FF" font-family="sans-serif" font-size="14" lengthAdjust="spacing" textLength="70" x="515" y="252.8623">: datetime</text><text fill="#D9B8FF" font-family="sans-serif" font-size="14" font-weight="bold" lengthAdjust="spacing" textLength="43" x="467" y="279.1592">name</text><text fill="#D9B8FF" font-family="sans-serif" font-size="14" lengthAdjust="spacing" textLength="48" x="510" y="279.1592">: string</text><text fill="#D9B8FF" font-family="sans-serif" font-size="14" font-weight="bold" lengthAdjust="spacing" textLength="34" x="467" y="305.4561">tags</text><text fill="#D9B8FF" font-family="sans-serif" font-size="14" lengthAdjust="spacing" textLength="171" x="501" y="305.4561">: dictionary[string, string]</text></g><!--link azure_auto_upgrade_policy_resource to azure_throughput_policy_resource--><g id="link_azure_auto_upgrade_policy_resource_azure_throughput_policy_resource"><path codeLine="66" d="M231.5,1241.9 C231.5,1259.88 231.5,1275.86 231.5,1295.36 " fill="none" id="azure_auto_upgrade_policy_resource-to-azure_throughput_policy_resource" style="stroke:#FFAF37;stroke-width:2.0;"/><polygon fill="#FFAF37" points="231.5,1301.36,235.5,1292.36,231.5,1296.36,227.5,1292.36,231.5,1301.36" style="stroke:#FFAF37;stroke-width:2.0;"/></g><!--link azure_autoscale_settings_resource to azure_auto_upgrade_policy_resource--><g id="link_azure_autoscale_settings_resource_azure_auto_upgrade_policy_resource"><path codeLine="67" d="M231.5,1107.84 C231.5,1128.07 231.5,1143.82 231.5,1161.47 " fill="none" id="azure_autoscale_settings_resource-to-azure_auto_upgrade_policy_resource" style="stroke:#FFAF37;stroke-width:2.0;"/><polygon fill="#FFAF37" points="231.5,1167.47,235.5,1158.47,231.5,1162.47,227.5,1158.47,231.5,1167.47" style="stroke:#FFAF37;stroke-width:2.0;"/></g><!--link azure_colls_users to azure_autoscale_settings_resource--><g id="link_azure_colls_users_azure_autoscale_settings_resource"><path codeLine="68" d="M384.31,921.32 C361.12,939.83 339.1804,957.3384 314.7104,976.8584 " fill="none" id="azure_colls_users-to-azure_autoscale_settings_resource" style="stroke:#FFAF37;stroke-width:2.0;"/><polygon fill="#FFAF37" points="310.02,980.6,319.5501,978.1145,313.9287,977.482,314.5613,971.8606,310.02,980.6" style="stroke:#FFAF37;stroke-width:2.0;"/></g><!--link azure_colls_users to azure_resource_restore_parameters--><g id="link_azure_colls_users_azure_resource_restore_parameters"><path codeLine="69" d="M508.69,921.32 C551.6,955.56 601.6098,995.4581 632.5698,1020.1581 " fill="none" id="azure_colls_users-to-azure_resource_restore_parameters" style="stroke:#FFAF37;stroke-width:2.0;"/><polygon fill="#FFAF37" points="637.26,1023.9,632.7192,1015.1603,633.3515,1020.7818,627.7301,1021.414,637.26,1023.9" style="stroke:#FFAF37;stroke-width:2.0;"/></g><!--link azure_cosmos_db_sql_database to azure_colls_users--><g id="link_azure_cosmos_db_sql_database_azure_colls_users"><path codeLine="70" d="M530.92,761.01 C516.27,779.88 503.2707,796.6116 488.6207,815.4716 " fill="none" id="azure_cosmos_db_sql_database-to-azure_colls_users" style="stroke:#FFAF37;stroke-width:2.0;"/><polygon fill="#FFAF37" points="484.94,820.21,493.62,815.5562,488.0072,816.2613,487.3021,810.6486,484.94,820.21" style="stroke:#FFAF37;stroke-width:2.0;"/></g><!--link azure_cosmos_db_sql_database to azure_options_resource--><g id="link_azure_cosmos_db_sql_database_azure_options_resource"><path codeLine="71" d="M608.39,761.01 C623.17,779.88 636.2822,796.625 651.0422,815.485 " fill="none" id="azure_cosmos_db_sql_database-to-azure_options_resource" style="stroke:#FFAF37;stroke-width:2.0;"/><polygon fill="#FFAF37" points="654.74,820.21,652.3432,810.6572,651.6585,816.2725,646.0432,815.5877,654.74,820.21" style="stroke:#FFAF37;stroke-width:2.0;"/></g><!--reverse link microsoft_resource to azure_cosmos_db_sql_database--><g id="link_microsoft_resource_azure_cosmos_db_sql_database"><path codeLine="72" d="M569.5,557.45 C569.5,593.47 569.5,624.02 569.5,660 " fill="none" id="microsoft_resource-backto-azure_cosmos_db_sql_database" style="stroke:#FFAF37;stroke-width:2.0;"/><polygon fill="none" points="569.5,539.45,563.5,557.45,575.5,557.45,569.5,539.45" style="stroke:#FFAF37;stroke-width:2.0;"/></g><!--reverse link resource to microsoft_resource--><g id="link_resource_microsoft_resource"><path codeLine="73" d="M569.5,336.05 C569.5,379.65 569.5,405.98 569.5,438.42 " fill="none" id="resource-backto-microsoft_resource" style="stroke:#FFAF37;stroke-width:2.0;"/><polygon fill="none" points="569.5,318.05,563.5,336.05,575.5,336.05,569.5,318.05" style="stroke:#FFAF37;stroke-width:2.0;"/></g><!--SRC=[ZLHHRzCm47xFhuYqjufAAuDrHGXfL4BmCY766qBMnRwaLXCxs9UD3lZls4dMsacRxYtvxhlllZlxl942KwngsgKLLXaQczYjL3KOgD9RO_JZMfVQf1Tv3ldLSXZyf1MT9Tn1XUbdB1-G98SXu_j6ygr2QzFNGUWZy6rXTAD49qy6b7KXL1ImrYLOUqjaPDOG1cR4Ahl9yo5pA7fn9HRBQnpHj15eUihbvQLOh8QKiwKc-zupxkKJfejmQ7UQS6HpLA9bJRhqZC3agD7d-4cFNq48gOhqRO1zwpmPXIR2xpSWzADdvr3Qi8mbDAXfL-Dwr1MkRaI-F4h-SegSS3-w59uQWmmQqgof2mC2MQrBoNVCeDMDuPZ-IMOpsZY9ObCtr8TditTzxYYqpqp-ZOfO3YKoYqIkHnlNE6BYK6NAeSkju7TWnAT9HTTll7Cm1H8xHOWjSbsMbZNMBMzhgVttPEiMGnKEQMC1CiotbRPCPCp-Afa0WWnirrq87DeA2lOSNPFKoXueFN1ggiFmVfJngAEHd9t3ivZ_8Es0zbeXTNCPa4zVWDQBLDnWvLuRLgF3L7GwqZ9Ka9KeF9ffNIAelNubkT5MvnGh8a4H7Kfjz8EqRWpkbra2mYCd50-eQ2cYCU37vn6ILOUvTF_jZ_y89aLKsgrS3BXQn81pzmmFAhIHfXQzlI1I7QcZeC98s3NTAKhkqy3iVdInLptdfslr1UiydtyulxddD_OWCxcQuxsA4q_8J-PDtCvaSWyF4k7UlJ1bj8T7RkVxl_FvVF8jI0RSiKZo7m00]--></g></svg>