<?xml version="1.0" encoding="us-ascii" standalone="no"?><svg xmlns="http://www.w3.org/2000/svg" xmlns:xlink="http://www.w3.org/1999/xlink" contentStyleType="text/css" height="2008px" preserveAspectRatio="none" style="width:2291px;height:2008px;" version="1.1" viewBox="0 0 2291 2008" width="2291px" zoomAndPan="magnify"><defs/><g><!--class azure_managed_instance_external_administrator--><g id="elem_azure_managed_instance_external_administrator"><rect codeLine="23" fill="#3D176E" height="205.5703" id="azure_managed_instance_external_administrator" rx="2.5" ry="2.5" style="stroke:#000D19;stroke-width:0.5;" width="456" x="7" y="1609.43"/><ellipse cx="22" cy="1629.3245" fill="#ADD1B2" rx="11" ry="11" style="stroke:#181818;stroke-width:1.0;"/><path d="M24.9688,1634.9652 Q24.3906,1635.262 23.75,1635.4027 Q23.1094,1635.5589 22.4063,1635.5589 Q19.9063,1635.5589 18.5781,1633.9183 Q17.2656,1632.262 17.2656,1629.137 Q17.2656,1626.012 18.5781,1624.3558 Q19.9063,1622.6995 22.4063,1622.6995 Q23.1094,1622.6995 23.75,1622.8558 Q24.4063,1623.012 24.9688,1623.3089 L24.9688,1626.0277 Q24.3438,1625.4495 23.75,1625.1839 Q23.1563,1624.9027 22.5313,1624.9027 Q21.1875,1624.9027 20.5,1625.9808 Q19.8125,1627.0433 19.8125,1629.137 Q19.8125,1631.2308 20.5,1632.3089 Q21.1875,1633.3714 22.5313,1633.3714 Q23.1563,1633.3714 23.75,1633.1058 Q24.3438,1632.8245 24.9688,1632.2464 L24.9688,1634.9652 Z " fill="#000000"/><text fill="#D9B8FF" font-family="Helvetica" font-size="17" lengthAdjust="spacing" textLength="414" x="41" y="1635.2098">azure_managed_instance_external_administrator</text><line style="stroke:#000D19;stroke-width:0.5;" x1="8" x2="462" y1="1649.2191" y2="1649.2191"/><text fill="#D9B8FF" font-family="sans-serif" font-size="14" font-weight="bold" lengthAdjust="spacing" textLength="147" x="18" y="1671.2142">administrator_type</text><text fill="#D9B8FF" font-family="sans-serif" font-size="14" lengthAdjust="spacing" textLength="48" x="165" y="1671.2142">: string</text><text fill="#D9B8FF" font-family="sans-serif" font-size="14" font-weight="bold" lengthAdjust="spacing" textLength="231" x="18" y="1697.5111">azure_ad_only_authentication</text><text fill="#D9B8FF" font-family="sans-serif" font-size="14" lengthAdjust="spacing" textLength="65" x="249" y="1697.5111">: boolean</text><text fill="#D9B8FF" font-family="sans-serif" font-size="14" font-weight="bold" lengthAdjust="spacing" textLength="38" x="18" y="1723.8079">login</text><text fill="#D9B8FF" font-family="sans-serif" font-size="14" lengthAdjust="spacing" textLength="48" x="56" y="1723.8079">: string</text><text fill="#D9B8FF" font-family="sans-serif" font-size="14" font-weight="bold" lengthAdjust="spacing" textLength="109" x="18" y="1750.1048">principal_type</text><text fill="#D9B8FF" font-family="sans-serif" font-size="14" lengthAdjust="spacing" textLength="48" x="127" y="1750.1048">: string</text><text fill="#D9B8FF" font-family="sans-serif" font-size="14" font-weight="bold" lengthAdjust="spacing" textLength="23" x="18" y="1776.4017">sid</text><text fill="#D9B8FF" font-family="sans-serif" font-size="14" lengthAdjust="spacing" textLength="48" x="41" y="1776.4017">: string</text><text fill="#D9B8FF" font-family="sans-serif" font-size="14" font-weight="bold" lengthAdjust="spacing" textLength="72" x="18" y="1802.6986">tenant_id</text><text fill="#D9B8FF" font-family="sans-serif" font-size="14" lengthAdjust="spacing" textLength="48" x="90" y="1802.6986">: string</text></g><!--class azure_managed_instance_pec_property--><g id="elem_azure_managed_instance_pec_property"><rect codeLine="31" fill="#3D176E" height="152.9766" id="azure_managed_instance_pec_property" rx="2.5" ry="2.5" style="stroke:#000D19;stroke-width:0.5;" width="835" x="497.5" y="1635.73"/><ellipse cx="741.25" cy="1655.6245" fill="#ADD1B2" rx="11" ry="11" style="stroke:#181818;stroke-width:1.0;"/><path d="M744.2188,1661.2652 Q743.6406,1661.562 743,1661.7027 Q742.3594,1661.8589 741.6563,1661.8589 Q739.1563,1661.8589 737.8281,1660.2183 Q736.5156,1658.562 736.5156,1655.437 Q736.5156,1652.312 737.8281,1650.6558 Q739.1563,1648.9995 741.6563,1648.9995 Q742.3594,1648.9995 743,1649.1558 Q743.6563,1649.312 744.2188,1649.6089 L744.2188,1652.3277 Q743.5938,1651.7495 743,1651.4839 Q742.4063,1651.2027 741.7813,1651.2027 Q740.4375,1651.2027 739.75,1652.2808 Q739.0625,1653.3433 739.0625,1655.437 Q739.0625,1657.5308 739.75,1658.6089 Q740.4375,1659.6714 741.7813,1659.6714 Q742.4063,1659.6714 743,1659.4058 Q743.5938,1659.1245 744.2188,1658.5464 L744.2188,1661.2652 Z " fill="#000000"/><text fill="#D9B8FF" font-family="Helvetica" font-size="17" lengthAdjust="spacing" textLength="329" x="766.75" y="1661.5098">azure_managed_instance_pec_property</text><line style="stroke:#000D19;stroke-width:0.5;" x1="498.5" x2="1331.5" y1="1675.5191" y2="1675.5191"/><text fill="#D9B8FF" font-family="sans-serif" font-size="14" font-weight="bold" lengthAdjust="spacing" textLength="14" x="508.5" y="1697.5142">id</text><text fill="#D9B8FF" font-family="sans-serif" font-size="14" lengthAdjust="spacing" textLength="48" x="522.5" y="1697.5142">: string</text><text fill="#D9B8FF" font-family="sans-serif" font-size="14" font-weight="bold" lengthAdjust="spacing" textLength="153" x="508.5" y="1723.8111">private_endpoint_id</text><text fill="#D9B8FF" font-family="sans-serif" font-size="14" lengthAdjust="spacing" textLength="48" x="661.5" y="1723.8111">: string</text><text fill="#D9B8FF" font-family="sans-serif" font-size="14" font-weight="bold" lengthAdjust="spacing" textLength="296" x="508.5" y="1750.1079">private_link_service_connection_state</text><text fill="#D9B8FF" font-family="sans-serif" font-size="14" lengthAdjust="spacing" textLength="517" x="804.5" y="1750.1079">: azure_managed_instance_private_link_service_connection_state_property</text><text fill="#D9B8FF" font-family="sans-serif" font-size="14" font-weight="bold" lengthAdjust="spacing" textLength="144" x="508.5" y="1776.4048">provisioning_state</text><text fill="#D9B8FF" font-family="sans-serif" font-size="14" lengthAdjust="spacing" textLength="48" x="652.5" y="1776.4048">: string</text></g><!--class azure_managed_instance_private_link_service_connection_state_property--><g id="elem_azure_managed_instance_private_link_service_connection_state_property"><rect codeLine="37" fill="#3D176E" height="126.6797" id="azure_managed_instance_private_link_service_connection_state_property" rx="2.5" ry="2.5" style="stroke:#000D19;stroke-width:0.5;" width="660" x="585" y="1875"/><ellipse cx="600" cy="1894.8945" fill="#ADD1B2" rx="11" ry="11" style="stroke:#181818;stroke-width:1.0;"/><path d="M602.9688,1900.5352 Q602.3906,1900.832 601.75,1900.9727 Q601.1094,1901.1289 600.4063,1901.1289 Q597.9063,1901.1289 596.5781,1899.4883 Q595.2656,1897.832 595.2656,1894.707 Q595.2656,1891.582 596.5781,1889.9258 Q597.9063,1888.2695 600.4063,1888.2695 Q601.1094,1888.2695 601.75,1888.4258 Q602.4063,1888.582 602.9688,1888.8789 L602.9688,1891.5977 Q602.3438,1891.0195 601.75,1890.7539 Q601.1563,1890.4727 600.5313,1890.4727 Q599.1875,1890.4727 598.5,1891.5508 Q597.8125,1892.6133 597.8125,1894.707 Q597.8125,1896.8008 598.5,1897.8789 Q599.1875,1898.9414 600.5313,1898.9414 Q601.1563,1898.9414 601.75,1898.6758 Q602.3438,1898.3945 602.9688,1897.8164 L602.9688,1900.5352 Z " fill="#000000"/><text fill="#D9B8FF" font-family="Helvetica" font-size="17" lengthAdjust="spacing" textLength="618" x="619" y="1900.7798">azure_managed_instance_private_link_service_connection_state_property</text><line style="stroke:#000D19;stroke-width:0.5;" x1="586" x2="1244" y1="1914.7891" y2="1914.7891"/><text fill="#D9B8FF" font-family="sans-serif" font-size="14" font-weight="bold" lengthAdjust="spacing" textLength="132" x="596" y="1936.7842">actions_required</text><text fill="#D9B8FF" font-family="sans-serif" font-size="14" lengthAdjust="spacing" textLength="48" x="728" y="1936.7842">: string</text><text fill="#D9B8FF" font-family="sans-serif" font-size="14" font-weight="bold" lengthAdjust="spacing" textLength="89" x="596" y="1963.0811">description</text><text fill="#D9B8FF" font-family="sans-serif" font-size="14" lengthAdjust="spacing" textLength="48" x="685" y="1963.0811">: string</text><text fill="#D9B8FF" font-family="sans-serif" font-size="14" font-weight="bold" lengthAdjust="spacing" textLength="49" x="596" y="1989.3779">status</text><text fill="#D9B8FF" font-family="sans-serif" font-size="14" lengthAdjust="spacing" textLength="48" x="645" y="1989.3779">: string</text></g><!--class azure_resource_identity--><g id="elem_azure_resource_identity"><rect codeLine="42" fill="#3D176E" height="152.9766" id="azure_resource_identity" rx="2.5" ry="2.5" style="stroke:#000D19;stroke-width:0.5;" width="482" x="1367" y="1635.73"/><ellipse cx="1498.75" cy="1655.6245" fill="#ADD1B2" rx="11" ry="11" style="stroke:#181818;stroke-width:1.0;"/><path d="M1501.7188,1661.2652 Q1501.1406,1661.562 1500.5,1661.7027 Q1499.8594,1661.8589 1499.1563,1661.8589 Q1496.6563,1661.8589 1495.3281,1660.2183 Q1494.0156,1658.562 1494.0156,1655.437 Q1494.0156,1652.312 1495.3281,1650.6558 Q1496.6563,1648.9995 1499.1563,1648.9995 Q1499.8594,1648.9995 1500.5,1649.1558 Q1501.1563,1649.312 1501.7188,1649.6089 L1501.7188,1652.3277 Q1501.0938,1651.7495 1500.5,1651.4839 Q1499.9063,1651.2027 1499.2813,1651.2027 Q1497.9375,1651.2027 1497.25,1652.2808 Q1496.5625,1653.3433 1496.5625,1655.437 Q1496.5625,1657.5308 1497.25,1658.6089 Q1497.9375,1659.6714 1499.2813,1659.6714 Q1499.9063,1659.6714 1500.5,1659.4058 Q1501.0938,1659.1245 1501.7188,1658.5464 L1501.7188,1661.2652 Z " fill="#000000"/><text fill="#D9B8FF" font-family="Helvetica" font-size="17" lengthAdjust="spacing" textLength="200" x="1524.25" y="1661.5098">azure_resource_identity</text><line style="stroke:#000D19;stroke-width:0.5;" x1="1368" x2="1848" y1="1675.5191" y2="1675.5191"/><text fill="#D9B8FF" font-family="sans-serif" font-size="14" font-weight="bold" lengthAdjust="spacing" textLength="88" x="1378" y="1697.5142">principal_id</text><text fill="#D9B8FF" font-family="sans-serif" font-size="14" lengthAdjust="spacing" textLength="48" x="1466" y="1697.5142">: string</text><text fill="#D9B8FF" font-family="sans-serif" font-size="14" font-weight="bold" lengthAdjust="spacing" textLength="72" x="1378" y="1723.8111">tenant_id</text><text fill="#D9B8FF" font-family="sans-serif" font-size="14" lengthAdjust="spacing" textLength="48" x="1450" y="1723.8111">: string</text><text fill="#D9B8FF" font-family="sans-serif" font-size="14" font-weight="bold" lengthAdjust="spacing" textLength="35" x="1378" y="1750.1079">type</text><text fill="#D9B8FF" font-family="sans-serif" font-size="14" lengthAdjust="spacing" textLength="48" x="1413" y="1750.1079">: string</text><text fill="#D9B8FF" font-family="sans-serif" font-size="14" font-weight="bold" lengthAdjust="spacing" textLength="194" x="1378" y="1776.4048">user_assigned_identities</text><text fill="#D9B8FF" font-family="sans-serif" font-size="14" lengthAdjust="spacing" textLength="266" x="1572" y="1776.4048">: dictionary[string, azure_user_identity]</text></g><!--class azure_service_principal--><g id="elem_azure_service_principal"><rect codeLine="48" fill="#3D176E" height="152.9766" id="azure_service_principal" rx="2.5" ry="2.5" style="stroke:#000D19;stroke-width:0.5;" width="235" x="1883.5" y="1635.73"/><ellipse cx="1898.5" cy="1655.6245" fill="#ADD1B2" rx="11" ry="11" style="stroke:#181818;stroke-width:1.0;"/><path d="M1901.4688,1661.2652 Q1900.8906,1661.562 1900.25,1661.7027 Q1899.6094,1661.8589 1898.9063,1661.8589 Q1896.4063,1661.8589 1895.0781,1660.2183 Q1893.7656,1658.562 1893.7656,1655.437 Q1893.7656,1652.312 1895.0781,1650.6558 Q1896.4063,1648.9995 1898.9063,1648.9995 Q1899.6094,1648.9995 1900.25,1649.1558 Q1900.9063,1649.312 1901.4688,1649.6089 L1901.4688,1652.3277 Q1900.8438,1651.7495 1900.25,1651.4839 Q1899.6563,1651.2027 1899.0313,1651.2027 Q1897.6875,1651.2027 1897,1652.2808 Q1896.3125,1653.3433 1896.3125,1655.437 Q1896.3125,1657.5308 1897,1658.6089 Q1897.6875,1659.6714 1899.0313,1659.6714 Q1899.6563,1659.6714 1900.25,1659.4058 Q1900.8438,1659.1245 1901.4688,1658.5464 L1901.4688,1661.2652 Z " fill="#000000"/><text fill="#D9B8FF" font-family="Helvetica" font-size="17" lengthAdjust="spacing" textLength="193" x="1917.5" y="1661.5098">azure_service_principal</text><line style="stroke:#000D19;stroke-width:0.5;" x1="1884.5" x2="2117.5" y1="1675.5191" y2="1675.5191"/><text fill="#D9B8FF" font-family="sans-serif" font-size="14" font-weight="bold" lengthAdjust="spacing" textLength="64" x="1894.5" y="1697.5142">client_id</text><text fill="#D9B8FF" font-family="sans-serif" font-size="14" lengthAdjust="spacing" textLength="48" x="1958.5" y="1697.5142">: string</text><text fill="#D9B8FF" font-family="sans-serif" font-size="14" font-weight="bold" lengthAdjust="spacing" textLength="88" x="1894.5" y="1723.8111">principal_id</text><text fill="#D9B8FF" font-family="sans-serif" font-size="14" lengthAdjust="spacing" textLength="48" x="1982.5" y="1723.8111">: string</text><text fill="#D9B8FF" font-family="sans-serif" font-size="14" font-weight="bold" lengthAdjust="spacing" textLength="72" x="1894.5" y="1750.1079">tenant_id</text><text fill="#D9B8FF" font-family="sans-serif" font-size="14" lengthAdjust="spacing" textLength="48" x="1966.5" y="1750.1079">: string</text><text fill="#D9B8FF" font-family="sans-serif" font-size="14" font-weight="bold" lengthAdjust="spacing" textLength="35" x="1894.5" y="1776.4048">type</text><text fill="#D9B8FF" font-family="sans-serif" font-size="14" lengthAdjust="spacing" textLength="48" x="1929.5" y="1776.4048">: string</text></g><!--class azure_sku--><g id="elem_azure_sku"><rect codeLine="54" fill="#3D176E" height="179.2734" id="azure_sku" rx="2.5" ry="2.5" style="stroke:#000D19;stroke-width:0.5;" width="131" x="2153.5" y="1622.58"/><ellipse cx="2170.75" cy="1642.4745" fill="#ADD1B2" rx="11" ry="11" style="stroke:#181818;stroke-width:1.0;"/><path d="M2173.7188,1648.1152 Q2173.1406,1648.412 2172.5,1648.5527 Q2171.8594,1648.7089 2171.1563,1648.7089 Q2168.6563,1648.7089 2167.3281,1647.0683 Q2166.0156,1645.412 2166.0156,1642.287 Q2166.0156,1639.162 2167.3281,1637.5058 Q2168.6563,1635.8495 2171.1563,1635.8495 Q2171.8594,1635.8495 2172.5,1636.0058 Q2173.1563,1636.162 2173.7188,1636.4589 L2173.7188,1639.1777 Q2173.0938,1638.5995 2172.5,1638.3339 Q2171.9063,1638.0527 2171.2813,1638.0527 Q2169.9375,1638.0527 2169.25,1639.1308 Q2168.5625,1640.1933 2168.5625,1642.287 Q2168.5625,1644.3808 2169.25,1645.4589 Q2169.9375,1646.5214 2171.2813,1646.5214 Q2171.9063,1646.5214 2172.5,1646.2558 Q2173.0938,1645.9745 2173.7188,1645.3964 L2173.7188,1648.1152 Z " fill="#000000"/><text fill="#D9B8FF" font-family="Helvetica" font-size="17" lengthAdjust="spacing" textLength="84" x="2190.25" y="1648.3598">azure_sku</text><line style="stroke:#000D19;stroke-width:0.5;" x1="2154.5" x2="2283.5" y1="1662.3691" y2="1662.3691"/><text fill="#D9B8FF" font-family="sans-serif" font-size="14" font-weight="bold" lengthAdjust="spacing" textLength="65" x="2164.5" y="1684.3642">capacity</text><text fill="#D9B8FF" font-family="sans-serif" font-size="14" lengthAdjust="spacing" textLength="44" x="2229.5" y="1684.3642">: int64</text><text fill="#D9B8FF" font-family="sans-serif" font-size="14" font-weight="bold" lengthAdjust="spacing" textLength="46" x="2164.5" y="1710.6611">family</text><text fill="#D9B8FF" font-family="sans-serif" font-size="14" lengthAdjust="spacing" textLength="48" x="2210.5" y="1710.6611">: string</text><text fill="#D9B8FF" font-family="sans-serif" font-size="14" font-weight="bold" lengthAdjust="spacing" textLength="43" x="2164.5" y="1736.9579">name</text><text fill="#D9B8FF" font-family="sans-serif" font-size="14" lengthAdjust="spacing" textLength="48" x="2207.5" y="1736.9579">: string</text><text fill="#D9B8FF" font-family="sans-serif" font-size="14" font-weight="bold" lengthAdjust="spacing" textLength="32" x="2164.5" y="1763.2548">size</text><text fill="#D9B8FF" font-family="sans-serif" font-size="14" lengthAdjust="spacing" textLength="48" x="2196.5" y="1763.2548">: string</text><text fill="#D9B8FF" font-family="sans-serif" font-size="14" font-weight="bold" lengthAdjust="spacing" textLength="27" x="2164.5" y="1789.5517">tier</text><text fill="#D9B8FF" font-family="sans-serif" font-size="14" lengthAdjust="spacing" textLength="48" x="2191.5" y="1789.5517">: string</text></g><!--class azure_sql_server_managed_instance--><g id="elem_azure_sql_server_managed_instance"><rect codeLine="61" fill="#3D176E" height="889.2891" id="azure_sql_server_managed_instance" rx="2.5" ry="2.5" style="stroke:#000D19;stroke-width:0.5;" width="634" x="1291" y="660.14"/><ellipse cx="1446.25" cy="680.0345" fill="#ADD1B2" rx="11" ry="11" style="stroke:#181818;stroke-width:1.0;"/><path d="M1449.2188,685.6752 Q1448.6406,685.972 1448,686.1127 Q1447.3594,686.2689 1446.6563,686.2689 Q1444.1563,686.2689 1442.8281,684.6283 Q1441.5156,682.972 1441.5156,679.847 Q1441.5156,676.722 1442.8281,675.0658 Q1444.1563,673.4095 1446.6563,673.4095 Q1447.3594,673.4095 1448,673.5658 Q1448.6563,673.722 1449.2188,674.0189 L1449.2188,676.7377 Q1448.5938,676.1595 1448,675.8939 Q1447.4063,675.6127 1446.7813,675.6127 Q1445.4375,675.6127 1444.75,676.6908 Q1444.0625,677.7533 1444.0625,679.847 Q1444.0625,681.9408 1444.75,683.0189 Q1445.4375,684.0814 1446.7813,684.0814 Q1447.4063,684.0814 1448,683.8158 Q1448.5938,683.5345 1449.2188,682.9564 L1449.2188,685.6752 Z " fill="#000000"/><text fill="#D9B8FF" font-family="Helvetica" font-size="17" lengthAdjust="spacing" textLength="305" x="1471.75" y="685.9198">azure_sql_server_managed_instance</text><line style="stroke:#000D19;stroke-width:0.5;" x1="1292" x2="1924" y1="699.9291" y2="699.9291"/><text fill="#D9B8FF" font-family="sans-serif" font-size="14" font-weight="bold" lengthAdjust="spacing" textLength="150" x="1302" y="721.9242">administrator_login</text><text fill="#D9B8FF" font-family="sans-serif" font-size="14" lengthAdjust="spacing" textLength="48" x="1452" y="721.9242">: string</text><text fill="#D9B8FF" font-family="sans-serif" font-size="14" font-weight="bold" lengthAdjust="spacing" textLength="235" x="1302" y="748.2211">administrator_login_password</text><text fill="#D9B8FF" font-family="sans-serif" font-size="14" lengthAdjust="spacing" textLength="48" x="1537" y="748.2211">: string</text><text fill="#D9B8FF" font-family="sans-serif" font-size="14" font-weight="bold" lengthAdjust="spacing" textLength="66" x="1302" y="774.5179">collation</text><text fill="#D9B8FF" font-family="sans-serif" font-size="14" lengthAdjust="spacing" textLength="48" x="1368" y="774.5179">: string</text><text fill="#D9B8FF" font-family="sans-serif" font-size="14" font-weight="bold" lengthAdjust="spacing" textLength="292" x="1302" y="800.8148">current_backup_storage_redundancy</text><text fill="#D9B8FF" font-family="sans-serif" font-size="14" lengthAdjust="spacing" textLength="48" x="1594" y="800.8148">: string</text><text fill="#D9B8FF" font-family="sans-serif" font-size="14" font-weight="bold" lengthAdjust="spacing" textLength="75" x="1302" y="827.1117">dns_zone</text><text fill="#D9B8FF" font-family="sans-serif" font-size="14" lengthAdjust="spacing" textLength="48" x="1377" y="827.1117">: string</text><text fill="#D9B8FF" font-family="sans-serif" font-size="14" font-weight="bold" lengthAdjust="spacing" textLength="141" x="1302" y="853.4086">dns_zone_partner</text><text fill="#D9B8FF" font-family="sans-serif" font-size="14" lengthAdjust="spacing" textLength="48" x="1443" y="853.4086">: string</text><text fill="#D9B8FF" font-family="sans-serif" font-size="14" font-weight="bold" lengthAdjust="spacing" textLength="221" x="1302" y="879.7054">fully_qualified_domain_name</text><text fill="#D9B8FF" font-family="sans-serif" font-size="14" lengthAdjust="spacing" textLength="48" x="1523" y="879.7054">: string</text><text fill="#D9B8FF" font-family="sans-serif" font-size="14" font-weight="bold" lengthAdjust="spacing" textLength="129" x="1302" y="906.0023">instance_pool_id</text><text fill="#D9B8FF" font-family="sans-serif" font-size="14" lengthAdjust="spacing" textLength="48" x="1431" y="906.0023">: string</text><text fill="#D9B8FF" font-family="sans-serif" font-size="14" font-weight="bold" lengthAdjust="spacing" textLength="310" x="1302" y="932.2992">instance_private_endpoint_connections</text><text fill="#D9B8FF" font-family="sans-serif" font-size="14" lengthAdjust="spacing" textLength="294" x="1612" y="932.2992">: azure_managed_instance_pec_property[]</text><text fill="#D9B8FF" font-family="sans-serif" font-size="14" font-weight="bold" lengthAdjust="spacing" textLength="49" x="1302" y="958.5961">key_id</text><text fill="#D9B8FF" font-family="sans-serif" font-size="14" lengthAdjust="spacing" textLength="48" x="1351" y="958.5961">: string</text><text fill="#D9B8FF" font-family="sans-serif" font-size="14" font-weight="bold" lengthAdjust="spacing" textLength="98" x="1302" y="984.8929">license_type</text><text fill="#D9B8FF" font-family="sans-serif" font-size="14" lengthAdjust="spacing" textLength="48" x="1400" y="984.8929">: string</text><text fill="#D9B8FF" font-family="sans-serif" font-size="14" font-weight="bold" lengthAdjust="spacing" textLength="62" x="1302" y="1011.1898">location</text><text fill="#D9B8FF" font-family="sans-serif" font-size="14" lengthAdjust="spacing" textLength="48" x="1364" y="1011.1898">: string</text><text fill="#D9B8FF" font-family="sans-serif" font-size="14" font-weight="bold" lengthAdjust="spacing" textLength="234" x="1302" y="1037.4867">maintenance_configuration_id</text><text fill="#D9B8FF" font-family="sans-serif" font-size="14" lengthAdjust="spacing" textLength="48" x="1536" y="1037.4867">: string</text><text fill="#D9B8FF" font-family="sans-serif" font-size="14" font-weight="bold" lengthAdjust="spacing" textLength="267" x="1302" y="1063.7836">managed_instance_administrators</text><text fill="#D9B8FF" font-family="sans-serif" font-size="14" lengthAdjust="spacing" textLength="345" x="1569" y="1063.7836">: azure_managed_instance_external_administrator</text><text fill="#D9B8FF" font-family="sans-serif" font-size="14" font-weight="bold" lengthAdjust="spacing" textLength="255" x="1302" y="1090.0804">managed_instance_create_mode</text><text fill="#D9B8FF" font-family="sans-serif" font-size="14" lengthAdjust="spacing" textLength="48" x="1557" y="1090.0804">: string</text><text fill="#D9B8FF" font-family="sans-serif" font-size="14" font-weight="bold" lengthAdjust="spacing" textLength="212" x="1302" y="1116.3773">managed_instance_identity</text><text fill="#D9B8FF" font-family="sans-serif" font-size="14" lengthAdjust="spacing" textLength="174" x="1514" y="1116.3773">: azure_resource_identity</text><text fill="#D9B8FF" font-family="sans-serif" font-size="14" font-weight="bold" lengthAdjust="spacing" textLength="181" x="1302" y="1142.6742">managed_instance_sku</text><text fill="#D9B8FF" font-family="sans-serif" font-size="14" lengthAdjust="spacing" textLength="80" x="1483" y="1142.6742">: azure_sku</text><text fill="#D9B8FF" font-family="sans-serif" font-size="14" font-weight="bold" lengthAdjust="spacing" textLength="151" x="1302" y="1168.9711">minimal_tls_version</text><text fill="#D9B8FF" font-family="sans-serif" font-size="14" lengthAdjust="spacing" textLength="48" x="1453" y="1168.9711">: string</text><text fill="#D9B8FF" font-family="sans-serif" font-size="14" font-weight="bold" lengthAdjust="spacing" textLength="268" x="1302" y="1195.2679">primary_user_assigned_identity_id</text><text fill="#D9B8FF" font-family="sans-serif" font-size="14" lengthAdjust="spacing" textLength="48" x="1570" y="1195.2679">: string</text><text fill="#D9B8FF" font-family="sans-serif" font-size="14" font-weight="bold" lengthAdjust="spacing" textLength="119" x="1302" y="1221.5648">proxy_override</text><text fill="#D9B8FF" font-family="sans-serif" font-size="14" lengthAdjust="spacing" textLength="48" x="1421" y="1221.5648">: string</text><text fill="#D9B8FF" font-family="sans-serif" font-size="14" font-weight="bold" lengthAdjust="spacing" textLength="235" x="1302" y="1247.8617">public_data_endpoint_enabled</text><text fill="#D9B8FF" font-family="sans-serif" font-size="14" lengthAdjust="spacing" textLength="65" x="1537" y="1247.8617">: boolean</text><text fill="#D9B8FF" font-family="sans-serif" font-size="14" font-weight="bold" lengthAdjust="spacing" textLength="315" x="1302" y="1274.1586">requested_backup_storage_redundancy</text><text fill="#D9B8FF" font-family="sans-serif" font-size="14" lengthAdjust="spacing" textLength="48" x="1617" y="1274.1586">: string</text><text fill="#D9B8FF" font-family="sans-serif" font-size="14" font-weight="bold" lengthAdjust="spacing" textLength="168" x="1302" y="1300.4554">restore_point_in_time</text><text fill="#D9B8FF" font-family="sans-serif" font-size="14" lengthAdjust="spacing" textLength="70" x="1470" y="1300.4554">: datetime</text><text fill="#D9B8FF" font-family="sans-serif" font-size="14" font-weight="bold" lengthAdjust="spacing" textLength="132" x="1302" y="1326.7523">service_principal</text><text fill="#D9B8FF" font-family="sans-serif" font-size="14" lengthAdjust="spacing" textLength="168" x="1434" y="1326.7523">: azure_service_principal</text><text fill="#D9B8FF" font-family="sans-serif" font-size="14" font-weight="bold" lengthAdjust="spacing" textLength="229" x="1302" y="1353.0492">source_managed_instance_id</text><text fill="#D9B8FF" font-family="sans-serif" font-size="14" lengthAdjust="spacing" textLength="48" x="1531" y="1353.0492">: string</text><text fill="#D9B8FF" font-family="sans-serif" font-size="14" font-weight="bold" lengthAdjust="spacing" textLength="40" x="1302" y="1379.3461">state</text><text fill="#D9B8FF" font-family="sans-serif" font-size="14" lengthAdjust="spacing" textLength="48" x="1342" y="1379.3461">: string</text><text fill="#D9B8FF" font-family="sans-serif" font-size="14" font-weight="bold" lengthAdjust="spacing" textLength="148" x="1302" y="1405.6429">storage_size_in_gb</text><text fill="#D9B8FF" font-family="sans-serif" font-size="14" lengthAdjust="spacing" textLength="44" x="1450" y="1405.6429">: int64</text><text fill="#D9B8FF" font-family="sans-serif" font-size="14" font-weight="bold" lengthAdjust="spacing" textLength="76" x="1302" y="1431.9398">subnet_id</text><text fill="#D9B8FF" font-family="sans-serif" font-size="14" lengthAdjust="spacing" textLength="48" x="1378" y="1431.9398">: string</text><text fill="#D9B8FF" font-family="sans-serif" font-size="14" font-weight="bold" lengthAdjust="spacing" textLength="94" x="1302" y="1458.2367">timezone_id</text><text fill="#D9B8FF" font-family="sans-serif" font-size="14" lengthAdjust="spacing" textLength="48" x="1396" y="1458.2367">: string</text><text fill="#D9B8FF" font-family="sans-serif" font-size="14" font-weight="bold" lengthAdjust="spacing" textLength="35" x="1302" y="1484.5336">type</text><text fill="#D9B8FF" font-family="sans-serif" font-size="14" lengthAdjust="spacing" textLength="48" x="1337" y="1484.5336">: string</text><text fill="#D9B8FF" font-family="sans-serif" font-size="14" font-weight="bold" lengthAdjust="spacing" textLength="61" x="1302" y="1510.8304">v_cores</text><text fill="#D9B8FF" font-family="sans-serif" font-size="14" lengthAdjust="spacing" textLength="44" x="1363" y="1510.8304">: int64</text><text fill="#D9B8FF" font-family="sans-serif" font-size="14" font-weight="bold" lengthAdjust="spacing" textLength="128" x="1302" y="1537.1273">zone_redundant</text><text fill="#D9B8FF" font-family="sans-serif" font-size="14" lengthAdjust="spacing" textLength="65" x="1430" y="1537.1273">: boolean</text></g><!--class azure_user_identity--><g id="elem_azure_user_identity"><rect codeLine="95" fill="#3D176E" height="100.3828" id="azure_user_identity" rx="2.5" ry="2.5" style="stroke:#000D19;stroke-width:0.5;" width="207" x="1504.5" y="1888.15"/><ellipse cx="1519.5" cy="1908.0445" fill="#ADD1B2" rx="11" ry="11" style="stroke:#181818;stroke-width:1.0;"/><path d="M1522.4688,1913.6852 Q1521.8906,1913.982 1521.25,1914.1227 Q1520.6094,1914.2789 1519.9063,1914.2789 Q1517.4063,1914.2789 1516.0781,1912.6383 Q1514.7656,1910.982 1514.7656,1907.857 Q1514.7656,1904.732 1516.0781,1903.0758 Q1517.4063,1901.4195 1519.9063,1901.4195 Q1520.6094,1901.4195 1521.25,1901.5758 Q1521.9063,1901.732 1522.4688,1902.0289 L1522.4688,1904.7477 Q1521.8438,1904.1695 1521.25,1903.9039 Q1520.6563,1903.6227 1520.0313,1903.6227 Q1518.6875,1903.6227 1518,1904.7008 Q1517.3125,1905.7633 1517.3125,1907.857 Q1517.3125,1909.9508 1518,1911.0289 Q1518.6875,1912.0914 1520.0313,1912.0914 Q1520.6563,1912.0914 1521.25,1911.8258 Q1521.8438,1911.5445 1522.4688,1910.9664 L1522.4688,1913.6852 Z " fill="#000000"/><text fill="#D9B8FF" font-family="Helvetica" font-size="17" lengthAdjust="spacing" textLength="165" x="1538.5" y="1913.9298">azure_user_identity</text><line style="stroke:#000D19;stroke-width:0.5;" x1="1505.5" x2="1710.5" y1="1927.9391" y2="1927.9391"/><text fill="#D9B8FF" font-family="sans-serif" font-size="14" font-weight="bold" lengthAdjust="spacing" textLength="64" x="1515.5" y="1949.9342">client_id</text><text fill="#D9B8FF" font-family="sans-serif" font-size="14" lengthAdjust="spacing" textLength="48" x="1579.5" y="1949.9342">: string</text><text fill="#D9B8FF" font-family="sans-serif" font-size="14" font-weight="bold" lengthAdjust="spacing" textLength="88" x="1515.5" y="1976.2311">principal_id</text><text fill="#D9B8FF" font-family="sans-serif" font-size="14" lengthAdjust="spacing" textLength="48" x="1603.5" y="1976.2311">: string</text></g><!--class microsoft_resource--><g id="elem_microsoft_resource"><rect codeLine="99" fill="#3D176E" height="100.3828" id="microsoft_resource" rx="2.5" ry="2.5" style="stroke:#000D19;stroke-width:0.5;" width="214" x="1501" y="438.76"/><ellipse cx="1522.3" cy="458.6545" fill="#ADD1B2" rx="11" ry="11" style="stroke:#181818;stroke-width:1.0;"/><path d="M1525.2688,464.2952 Q1524.6906,464.592 1524.05,464.7327 Q1523.4094,464.8889 1522.7063,464.8889 Q1520.2063,464.8889 1518.8781,463.2483 Q1517.5656,461.592 1517.5656,458.467 Q1517.5656,455.342 1518.8781,453.6858 Q1520.2063,452.0295 1522.7063,452.0295 Q1523.4094,452.0295 1524.05,452.1858 Q1524.7063,452.342 1525.2688,452.6389 L1525.2688,455.3577 Q1524.6438,454.7795 1524.05,454.5139 Q1523.4563,454.2327 1522.8313,454.2327 Q1521.4875,454.2327 1520.8,455.3108 Q1520.1125,456.3733 1520.1125,458.467 Q1520.1125,460.5608 1520.8,461.6389 Q1521.4875,462.7014 1522.8313,462.7014 Q1523.4563,462.7014 1524.05,462.4358 Q1524.6438,462.1545 1525.2688,461.5764 L1525.2688,464.2952 Z " fill="#000000"/><text fill="#D9B8FF" font-family="Helvetica" font-size="17" lengthAdjust="spacing" textLength="158" x="1542.7" y="464.5398">microsoft_resource</text><line style="stroke:#000D19;stroke-width:0.5;" x1="1502" x2="1714" y1="478.5491" y2="478.5491"/><text fill="#D9B8FF" font-family="sans-serif" font-size="14" font-weight="bold" lengthAdjust="spacing" textLength="35" x="1512" y="500.5442">etag</text><text fill="#D9B8FF" font-family="sans-serif" font-size="14" lengthAdjust="spacing" textLength="48" x="1547" y="500.5442">: string</text><text fill="#D9B8FF" font-family="sans-serif" font-size="14" font-weight="bold" lengthAdjust="spacing" textLength="144" x="1512" y="526.8411">provisioning_state</text><text fill="#D9B8FF" font-family="sans-serif" font-size="14" lengthAdjust="spacing" textLength="48" x="1656" y="526.8411">: string</text></g><!--class resource--><g id="elem_resource"><rect codeLine="103" fill="#3D176E" height="310.7578" id="resource" rx="2.5" ry="2.5" style="stroke:#000D19;stroke-width:0.5;" width="227" x="1494.5" y="7"/><ellipse cx="1563.25" cy="26.8945" fill="#ADD1B2" rx="11" ry="11" style="stroke:#181818;stroke-width:1.0;"/><path d="M1566.2188,32.5352 Q1565.6406,32.832 1565,32.9727 Q1564.3594,33.1289 1563.6563,33.1289 Q1561.1563,33.1289 1559.8281,31.4883 Q1558.5156,29.832 1558.5156,26.707 Q1558.5156,23.582 1559.8281,21.9258 Q1561.1563,20.2695 1563.6563,20.2695 Q1564.3594,20.2695 1565,20.4258 Q1565.6563,20.582 1566.2188,20.8789 L1566.2188,23.5977 Q1565.5938,23.0195 1565,22.7539 Q1564.4063,22.4727 1563.7813,22.4727 Q1562.4375,22.4727 1561.75,23.5508 Q1561.0625,24.6133 1561.0625,26.707 Q1561.0625,28.8008 1561.75,29.8789 Q1562.4375,30.9414 1563.7813,30.9414 Q1564.4063,30.9414 1565,30.6758 Q1565.5938,30.3945 1566.2188,29.8164 L1566.2188,32.5352 Z " fill="#000000"/><text fill="#D9B8FF" font-family="Helvetica" font-size="17" lengthAdjust="spacing" textLength="71" x="1588.75" y="32.7798">resource</text><line style="stroke:#000D19;stroke-width:0.5;" x1="1495.5" x2="1720.5" y1="46.7891" y2="46.7891"/><text fill="#D9B8FF" font-family="sans-serif" font-size="14" font-weight="bold" lengthAdjust="spacing" textLength="29" x="1505.5" y="68.7842">age</text><text fill="#D9B8FF" font-family="sans-serif" font-size="14" lengthAdjust="spacing" textLength="66" x="1534.5" y="68.7842">: duration</text><text fill="#D9B8FF" font-family="sans-serif" font-size="14" font-weight="bold" lengthAdjust="spacing" textLength="43" x="1505.5" y="95.0811">atime</text><text fill="#D9B8FF" font-family="sans-serif" font-size="14" lengthAdjust="spacing" textLength="70" x="1548.5" y="95.0811">: datetime</text><text fill="#D9B8FF" font-family="sans-serif" font-size="14" font-weight="bold" lengthAdjust="spacing" textLength="43" x="1505.5" y="121.3779">ctime</text><text fill="#D9B8FF" font-family="sans-serif" font-size="14" lengthAdjust="spacing" textLength="70" x="1548.5" y="121.3779">: datetime</text><text fill="#D9B8FF" font-family="sans-serif" font-size="14" font-weight="bold" lengthAdjust="spacing" textLength="14" x="1505.5" y="147.6748">id</text><text fill="#D9B8FF" font-family="sans-serif" font-size="14" lengthAdjust="spacing" textLength="48" x="1519.5" y="147.6748">: string</text><text fill="#D9B8FF" font-family="sans-serif" font-size="14" font-weight="bold" lengthAdjust="spacing" textLength="33" x="1505.5" y="173.9717">kind</text><text fill="#D9B8FF" font-family="sans-serif" font-size="14" lengthAdjust="spacing" textLength="48" x="1538.5" y="173.9717">: string</text><text fill="#D9B8FF" font-family="sans-serif" font-size="14" font-weight="bold" lengthAdjust="spacing" textLength="90" x="1505.5" y="200.2686">last_access</text><text fill="#D9B8FF" font-family="sans-serif" font-size="14" lengthAdjust="spacing" textLength="66" x="1595.5" y="200.2686">: duration</text><text fill="#D9B8FF" font-family="sans-serif" font-size="14" font-weight="bold" lengthAdjust="spacing" textLength="90" x="1505.5" y="226.5654">last_update</text><text fill="#D9B8FF" font-family="sans-serif" font-size="14" lengthAdjust="spacing" textLength="66" x="1595.5" y="226.5654">: duration</text><text fill="#D9B8FF" font-family="sans-serif" font-size="14" font-weight="bold" lengthAdjust="spacing" textLength="48" x="1505.5" y="252.8623">mtime</text><text fill="#D9B8FF" font-family="sans-serif" font-size="14" lengthAdjust="spacing" textLength="70" x="1553.5" y="252.8623">: datetime</text><text fill="#D9B8FF" font-family="sans-serif" font-size="14" font-weight="bold" lengthAdjust="spacing" textLength="43" x="1505.5" y="279.1592">name</text><text fill="#D9B8FF" font-family="sans-serif" font-size="14" lengthAdjust="spacing" textLength="48" x="1548.5" y="279.1592">: string</text><text fill="#D9B8FF" font-family="sans-serif" font-size="14" font-weight="bold" lengthAdjust="spacing" textLength="34" x="1505.5" y="305.4561">tags</text><text fill="#D9B8FF" font-family="sans-serif" font-size="14" lengthAdjust="spacing" textLength="171" x="1539.5" y="305.4561">: dictionary[string, string]</text></g><!--link azure_managed_instance_pec_property to azure_managed_instance_private_link_service_connection_state_property--><g id="link_azure_managed_instance_pec_property_azure_managed_instance_private_link_service_connection_state_property"><path codeLine="115" d="M915,1789.09 C915,1816.91 915,1842.05 915,1868.58 " fill="none" id="azure_managed_instance_pec_property-to-azure_managed_instance_private_link_service_connection_state_property" style="stroke:#FFAF37;stroke-width:2.0;"/><polygon fill="#FFAF37" points="915,1874.58,919,1865.58,915,1869.58,911,1865.58,915,1874.58" style="stroke:#FFAF37;stroke-width:2.0;"/></g><!--link azure_resource_identity to azure_user_identity--><g id="link_azure_resource_identity_azure_user_identity"><path codeLine="116" d="M1608,1789.09 C1608,1821.73 1608,1852.96 1608,1881.94 " fill="none" id="azure_resource_identity-to-azure_user_identity" style="stroke:#FFAF37;stroke-width:2.0;"/><polygon fill="#FFAF37" points="1608,1887.94,1612,1878.94,1608,1882.94,1604,1878.94,1608,1887.94" style="stroke:#FFAF37;stroke-width:2.0;"/></g><!--link azure_sql_server_managed_instance to azure_managed_instance_external_administrator--><g id="link_azure_sql_server_managed_instance_azure_managed_instance_external_administrator"><path codeLine="117" d="M1290.85,1245.63 C1037.9,1357.17 695.18,1508.2993 468.97,1608.0393 " fill="none" id="azure_sql_server_managed_instance-to-azure_managed_instance_external_administrator" style="stroke:#FFAF37;stroke-width:2.0;"/><polygon fill="#FFAF37" points="463.48,1610.46,473.3288,1610.489,468.055,1608.4428,470.1013,1603.169,463.48,1610.46" style="stroke:#FFAF37;stroke-width:2.0;"/></g><!--link azure_sql_server_managed_instance to azure_managed_instance_pec_property--><g id="link_azure_sql_server_managed_instance_azure_managed_instance_pec_property"><path codeLine="118" d="M1290.65,1383.03 C1184.67,1475.62 1079.5386,1567.4725 1006.2686,1631.4825 " fill="none" id="azure_sql_server_managed_instance-to-azure_managed_instance_pec_property" style="stroke:#FFAF37;stroke-width:2.0;"/><polygon fill="#FFAF37" points="1001.75,1635.43,1011.1595,1632.5211,1005.5155,1632.1404,1005.8962,1626.4964,1001.75,1635.43" style="stroke:#FFAF37;stroke-width:2.0;"/></g><!--link azure_sql_server_managed_instance to azure_resource_identity--><g id="link_azure_sql_server_managed_instance_azure_resource_identity"><path codeLine="119" d="M1608,1549.77 C1608,1581.73 1608,1604.98 1608,1629.54 " fill="none" id="azure_sql_server_managed_instance-to-azure_resource_identity" style="stroke:#FFAF37;stroke-width:2.0;"/><polygon fill="#FFAF37" points="1608,1635.54,1612,1626.54,1608,1630.54,1604,1626.54,1608,1635.54" style="stroke:#FFAF37;stroke-width:2.0;"/></g><!--link azure_sql_server_managed_instance to azure_service_principal--><g id="link_azure_sql_server_managed_instance_azure_service_principal"><path codeLine="120" d="M1896.2,1549.77 C1916.94,1581.73 1932.6621,1605.948 1948.6121,1630.508 " fill="none" id="azure_sql_server_managed_instance-to-azure_service_principal" style="stroke:#FFAF37;stroke-width:2.0;"/><polygon fill="#FFAF37" points="1951.88,1635.54,1950.3328,1625.8134,1949.1567,1631.3467,1943.6235,1630.1707,1951.88,1635.54" style="stroke:#FFAF37;stroke-width:2.0;"/></g><!--link azure_sql_server_managed_instance to azure_sku--><g id="link_azure_sql_server_managed_instance_azure_sku"><path codeLine="121" d="M1925.31,1396.13 C1996.32,1464.46 2070.08,1538.18 2136,1609.43 C2141.65,1615.54 2143.4496,1617.4466 2149.1196,1623.9866 " fill="none" id="azure_sql_server_managed_instance-to-azure_sku" style="stroke:#FFAF37;stroke-width:2.0;"/><polygon fill="#FFAF37" points="2153.05,1628.52,2150.1767,1619.0996,2149.7747,1624.7421,2144.1321,1624.3401,2153.05,1628.52" style="stroke:#FFAF37;stroke-width:2.0;"/></g><!--reverse link microsoft_resource to azure_sql_server_managed_instance--><g id="link_microsoft_resource_azure_sql_server_managed_instance"><path codeLine="122" d="M1608,557.4 C1608,587.82 1608,612.09 1608,659.95 " fill="none" id="microsoft_resource-backto-azure_sql_server_managed_instance" style="stroke:#FFAF37;stroke-width:2.0;"/><polygon fill="none" points="1608,539.4,1602,557.4,1614,557.4,1608,539.4" style="stroke:#FFAF37;stroke-width:2.0;"/></g><!--reverse link resource to microsoft_resource--><g id="link_resource_microsoft_resource"><path codeLine="123" d="M1608,336.06 C1608,379.65 1608,405.98 1608,438.42 " fill="none" id="resource-backto-microsoft_resource" style="stroke:#FFAF37;stroke-width:2.0;"/><polygon fill="none" points="1608,318.06,1602,336.06,1614,336.06,1608,318.06" style="stroke:#FFAF37;stroke-width:2.0;"/></g><!--SRC=[hLPRRzGw47xVNn69jugLMcwb22519GGl2C5vGyYQs9EjjOwTsiwMBUVyzpDsTZU9dRq9dhRrZEVxvlOvTr9WWNNZrqMDTOdMpTnIwWOirCLxQyt3hL765a-g2ghdrwdnez7-gCCNgB7uX6g5Nd98FVwvatofqRdYsS3q0VXoOKshHHVUMz2EJAZzmEjMWNFllRUoR3qEo8YRydLLfPvfq2VFnTNrAypSZ1LeDowNbvVYwYPrEGfrCE-TntVvYCNLi6XVZCUCPWOHlGwo31u3abcYM_jUZbz12AaNnSl1sRUEazLeH-VVxq2OX-1TWN936EVHel7h1c-phF3cjQYk9vq_xtEUyL2w0XvRYwm63GiKJ6hdGNDa-8iYQ50CH2srT3GqdYx_dbrSZ4vOmBYuU4E8bbW7Smm8WXcjrWnQVqU3HWNnqkZWM1gZ43HvAhEGUdIteLyk6uBDmZefHlzxrA0z6vt-TpYd1Zbhh6dGqeg6J9AGXBu2JxbhqHYP1k_jIkebSsXNae9oepNoa1mZ61z9xyC_vVwEOGGqA-d8HFXzz1EJFGkiQsoqE6RnlfKMnyaBTDpAPjl5lYyKftLxULbqfhK4JU98Ox11wljyGbVfD1s6bX9Y128NEkJSXPOOQGWPqm2x_j7vFzrGYPUsD7ucFBSLsZ6BFBcIE3a7Vy0-mLss7H8qm8bNSAJHU_M2pYgefLgFOcdIc6Gj7iS7L0Qx7-rUnKof4Ed0JAnslfyJTjPG-0SIq94ZDqf1DYkyjU7LOIL9KjlG21fB76X61AaJaHZdAcWK7ut6oKE2jLwFKgM2jOeavxu59Ij9kGbJ0p7CYjOl2MbHsgviWtPoq6-FExJb0vNvyPC2Bd6TOYWQDUqmLpbbU5wsa4GShMw3AxbeRVHAmsPSHlqwH7fQxgT2SekXABKHU1XxksazQgO5KzTe8VeRz4_m8KPrU1EKOpIwBgqFDQgcTMUJgh3EjzVyMZD3WQnCScZQaZh317Zekqw5BrKdXltJ5IGIwP4L9yuofKuEOU3YkwAPbzrC4XQ6lyCgfn8qg4Dg2kvTBIVgdkbp8XaRga4w0fL5EHGTrvOQSmqZYd7jZYdpYYRKTaAyZHZlRUlYXtKSYzD8dy-NtssmMd9hdAdyRjvYBFImIEVW-ECw2a55YotRR5yucMWZdpXBCg3Fj4GFm7a6dDEdUu8GBMqZDlG6bde29rCwIdhVezZzXdVmbC-b-VpTN_gisVTTq2EC1c5s_EKwm6sFhlrHp65TpegKwzyvjtCDEEisAUd4PhpzTpwV7_yuc2KNyaYp_m40]--></g></svg>