<?xml version="1.0" encoding="us-ascii" standalone="no"?><svg xmlns="http://www.w3.org/2000/svg" xmlns:xlink="http://www.w3.org/1999/xlink" contentStyleType="text/css" height="2166px" preserveAspectRatio="none" style="width:1656px;height:2166px;" version="1.1" viewBox="0 0 1656 2166" width="1656px" zoomAndPan="magnify"><defs/><g><!--class azure_network_access_control_entry--><g id="elem_azure_network_access_control_entry"><rect codeLine="23" fill="#3D176E" height="152.9766" id="azure_network_access_control_entry" rx="2.5" ry="2.5" style="stroke:#000D19;stroke-width:0.5;" width="349" x="7" y="1662.02"/><ellipse cx="22" cy="1681.9145" fill="#ADD1B2" rx="11" ry="11" style="stroke:#181818;stroke-width:1.0;"/><path d="M24.9688,1687.5552 Q24.3906,1687.852 23.75,1687.9927 Q23.1094,1688.1489 22.4063,1688.1489 Q19.9063,1688.1489 18.5781,1686.5083 Q17.2656,1684.852 17.2656,1681.727 Q17.2656,1678.602 18.5781,1676.9458 Q19.9063,1675.2895 22.4063,1675.2895 Q23.1094,1675.2895 23.75,1675.4458 Q24.4063,1675.602 24.9688,1675.8989 L24.9688,1678.6177 Q24.3438,1678.0395 23.75,1677.7739 Q23.1563,1677.4927 22.5313,1677.4927 Q21.1875,1677.4927 20.5,1678.5708 Q19.8125,1679.6333 19.8125,1681.727 Q19.8125,1683.8208 20.5,1684.8989 Q21.1875,1685.9614 22.5313,1685.9614 Q23.1563,1685.9614 23.75,1685.6958 Q24.3438,1685.4145 24.9688,1684.8364 L24.9688,1687.5552 Z " fill="#000000"/><text fill="#D9B8FF" font-family="Helvetica" font-size="17" lengthAdjust="spacing" textLength="307" x="41" y="1687.7998">azure_network_access_control_entry</text><line style="stroke:#000D19;stroke-width:0.5;" x1="8" x2="355" y1="1701.8091" y2="1701.8091"/><text fill="#D9B8FF" font-family="sans-serif" font-size="14" font-weight="bold" lengthAdjust="spacing" textLength="48" x="18" y="1723.8042">action</text><text fill="#D9B8FF" font-family="sans-serif" font-size="14" lengthAdjust="spacing" textLength="48" x="66" y="1723.8042">: string</text><text fill="#D9B8FF" font-family="sans-serif" font-size="14" font-weight="bold" lengthAdjust="spacing" textLength="89" x="18" y="1750.1011">description</text><text fill="#D9B8FF" font-family="sans-serif" font-size="14" lengthAdjust="spacing" textLength="48" x="107" y="1750.1011">: string</text><text fill="#D9B8FF" font-family="sans-serif" font-size="14" font-weight="bold" lengthAdjust="spacing" textLength="44" x="18" y="1776.3979">order</text><text fill="#D9B8FF" font-family="sans-serif" font-size="14" lengthAdjust="spacing" textLength="44" x="62" y="1776.3979">: int64</text><text fill="#D9B8FF" font-family="sans-serif" font-size="14" font-weight="bold" lengthAdjust="spacing" textLength="119" x="18" y="1802.6948">remote_subnet</text><text fill="#D9B8FF" font-family="sans-serif" font-size="14" lengthAdjust="spacing" textLength="48" x="137" y="1802.6948">: string</text></g><!--class azure_sku--><g id="elem_azure_sku"><rect codeLine="29" fill="#3D176E" height="179.2734" id="azure_sku" rx="2.5" ry="2.5" style="stroke:#000D19;stroke-width:0.5;" width="131" x="1470" y="1980.19"/><ellipse cx="1487.25" cy="2000.0845" fill="#ADD1B2" rx="11" ry="11" style="stroke:#181818;stroke-width:1.0;"/><path d="M1490.2188,2005.7252 Q1489.6406,2006.022 1489,2006.1627 Q1488.3594,2006.3189 1487.6563,2006.3189 Q1485.1563,2006.3189 1483.8281,2004.6783 Q1482.5156,2003.022 1482.5156,1999.897 Q1482.5156,1996.772 1483.8281,1995.1158 Q1485.1563,1993.4595 1487.6563,1993.4595 Q1488.3594,1993.4595 1489,1993.6158 Q1489.6563,1993.772 1490.2188,1994.0689 L1490.2188,1996.7877 Q1489.5938,1996.2095 1489,1995.9439 Q1488.4063,1995.6627 1487.7813,1995.6627 Q1486.4375,1995.6627 1485.75,1996.7408 Q1485.0625,1997.8033 1485.0625,1999.897 Q1485.0625,2001.9908 1485.75,2003.0689 Q1486.4375,2004.1314 1487.7813,2004.1314 Q1488.4063,2004.1314 1489,2003.8658 Q1489.5938,2003.5845 1490.2188,2003.0064 L1490.2188,2005.7252 Z " fill="#000000"/><text fill="#D9B8FF" font-family="Helvetica" font-size="17" lengthAdjust="spacing" textLength="84" x="1506.75" y="2005.9698">azure_sku</text><line style="stroke:#000D19;stroke-width:0.5;" x1="1471" x2="1600" y1="2019.9791" y2="2019.9791"/><text fill="#D9B8FF" font-family="sans-serif" font-size="14" font-weight="bold" lengthAdjust="spacing" textLength="65" x="1481" y="2041.9742">capacity</text><text fill="#D9B8FF" font-family="sans-serif" font-size="14" lengthAdjust="spacing" textLength="44" x="1546" y="2041.9742">: int64</text><text fill="#D9B8FF" font-family="sans-serif" font-size="14" font-weight="bold" lengthAdjust="spacing" textLength="46" x="1481" y="2068.2711">family</text><text fill="#D9B8FF" font-family="sans-serif" font-size="14" lengthAdjust="spacing" textLength="48" x="1527" y="2068.2711">: string</text><text fill="#D9B8FF" font-family="sans-serif" font-size="14" font-weight="bold" lengthAdjust="spacing" textLength="43" x="1481" y="2094.5679">name</text><text fill="#D9B8FF" font-family="sans-serif" font-size="14" lengthAdjust="spacing" textLength="48" x="1524" y="2094.5679">: string</text><text fill="#D9B8FF" font-family="sans-serif" font-size="14" font-weight="bold" lengthAdjust="spacing" textLength="32" x="1481" y="2120.8648">size</text><text fill="#D9B8FF" font-family="sans-serif" font-size="14" lengthAdjust="spacing" textLength="48" x="1513" y="2120.8648">: string</text><text fill="#D9B8FF" font-family="sans-serif" font-size="14" font-weight="bold" lengthAdjust="spacing" textLength="27" x="1481" y="2147.1617">tier</text><text fill="#D9B8FF" font-family="sans-serif" font-size="14" lengthAdjust="spacing" textLength="48" x="1508" y="2147.1617">: string</text></g><!--class azure_stamp_capacity--><g id="elem_azure_stamp_capacity"><rect codeLine="36" fill="#3D176E" height="310.7578" id="azure_stamp_capacity" rx="2.5" ry="2.5" style="stroke:#000D19;stroke-width:0.5;" width="376" x="390.5" y="1583.13"/><ellipse cx="477.25" cy="1603.0245" fill="#ADD1B2" rx="11" ry="11" style="stroke:#181818;stroke-width:1.0;"/><path d="M480.2188,1608.6652 Q479.6406,1608.962 479,1609.1027 Q478.3594,1609.2589 477.6563,1609.2589 Q475.1563,1609.2589 473.8281,1607.6183 Q472.5156,1605.962 472.5156,1602.837 Q472.5156,1599.712 473.8281,1598.0558 Q475.1563,1596.3995 477.6563,1596.3995 Q478.3594,1596.3995 479,1596.5558 Q479.6563,1596.712 480.2188,1597.0089 L480.2188,1599.7277 Q479.5938,1599.1495 479,1598.8839 Q478.4063,1598.6027 477.7813,1598.6027 Q476.4375,1598.6027 475.75,1599.6808 Q475.0625,1600.7433 475.0625,1602.837 Q475.0625,1604.9308 475.75,1606.0089 Q476.4375,1607.0714 477.7813,1607.0714 Q478.4063,1607.0714 479,1606.8058 Q479.5938,1606.5245 480.2188,1605.9464 L480.2188,1608.6652 Z " fill="#000000"/><text fill="#D9B8FF" font-family="Helvetica" font-size="17" lengthAdjust="spacing" textLength="184" x="502.75" y="1608.9098">azure_stamp_capacity</text><line style="stroke:#000D19;stroke-width:0.5;" x1="391.5" x2="765.5" y1="1622.9191" y2="1622.9191"/><text fill="#D9B8FF" font-family="sans-serif" font-size="14" font-weight="bold" lengthAdjust="spacing" textLength="140" x="401.5" y="1644.9142">available_capacity</text><text fill="#D9B8FF" font-family="sans-serif" font-size="14" lengthAdjust="spacing" textLength="44" x="541.5" y="1644.9142">: int64</text><text fill="#D9B8FF" font-family="sans-serif" font-size="14" font-weight="bold" lengthAdjust="spacing" textLength="120" x="401.5" y="1671.2111">compute_mode</text><text fill="#D9B8FF" font-family="sans-serif" font-size="14" lengthAdjust="spacing" textLength="48" x="521.5" y="1671.2111">: string</text><text fill="#D9B8FF" font-family="sans-serif" font-size="14" font-weight="bold" lengthAdjust="spacing" textLength="260" x="401.5" y="1697.5079">exclude_from_capacity_allocation</text><text fill="#D9B8FF" font-family="sans-serif" font-size="14" lengthAdjust="spacing" textLength="65" x="661.5" y="1697.5079">: boolean</text><text fill="#D9B8FF" font-family="sans-serif" font-size="14" font-weight="bold" lengthAdjust="spacing" textLength="289" x="401.5" y="1723.8048">is_applicable_for_all_compute_modes</text><text fill="#D9B8FF" font-family="sans-serif" font-size="14" lengthAdjust="spacing" textLength="65" x="690.5" y="1723.8048">: boolean</text><text fill="#D9B8FF" font-family="sans-serif" font-size="14" font-weight="bold" lengthAdjust="spacing" textLength="43" x="401.5" y="1750.1017">name</text><text fill="#D9B8FF" font-family="sans-serif" font-size="14" lengthAdjust="spacing" textLength="48" x="444.5" y="1750.1017">: string</text><text fill="#D9B8FF" font-family="sans-serif" font-size="14" font-weight="bold" lengthAdjust="spacing" textLength="80" x="401.5" y="1776.3986">site_mode</text><text fill="#D9B8FF" font-family="sans-serif" font-size="14" lengthAdjust="spacing" textLength="48" x="481.5" y="1776.3986">: string</text><text fill="#D9B8FF" font-family="sans-serif" font-size="14" font-weight="bold" lengthAdjust="spacing" textLength="107" x="401.5" y="1802.6954">total_capacity</text><text fill="#D9B8FF" font-family="sans-serif" font-size="14" lengthAdjust="spacing" textLength="44" x="508.5" y="1802.6954">: int64</text><text fill="#D9B8FF" font-family="sans-serif" font-size="14" font-weight="bold" lengthAdjust="spacing" textLength="30" x="401.5" y="1828.9923">unit</text><text fill="#D9B8FF" font-family="sans-serif" font-size="14" lengthAdjust="spacing" textLength="48" x="431.5" y="1828.9923">: string</text><text fill="#D9B8FF" font-family="sans-serif" font-size="14" font-weight="bold" lengthAdjust="spacing" textLength="96" x="401.5" y="1855.2892">worker_size</text><text fill="#D9B8FF" font-family="sans-serif" font-size="14" lengthAdjust="spacing" textLength="48" x="497.5" y="1855.2892">: string</text><text fill="#D9B8FF" font-family="sans-serif" font-size="14" font-weight="bold" lengthAdjust="spacing" textLength="117" x="401.5" y="1881.5861">worker_size_id</text><text fill="#D9B8FF" font-family="sans-serif" font-size="14" lengthAdjust="spacing" textLength="44" x="518.5" y="1881.5861">: int64</text></g><!--class azure_virtual_ip_mapping--><g id="elem_azure_virtual_ip_mapping"><rect codeLine="48" fill="#3D176E" height="152.9766" id="azure_virtual_ip_mapping" rx="2.5" ry="2.5" style="stroke:#000D19;stroke-width:0.5;" width="258" x="801.5" y="1662.02"/><ellipse cx="816.5" cy="1681.9145" fill="#ADD1B2" rx="11" ry="11" style="stroke:#181818;stroke-width:1.0;"/><path d="M819.4688,1687.5552 Q818.8906,1687.852 818.25,1687.9927 Q817.6094,1688.1489 816.9063,1688.1489 Q814.4063,1688.1489 813.0781,1686.5083 Q811.7656,1684.852 811.7656,1681.727 Q811.7656,1678.602 813.0781,1676.9458 Q814.4063,1675.2895 816.9063,1675.2895 Q817.6094,1675.2895 818.25,1675.4458 Q818.9063,1675.602 819.4688,1675.8989 L819.4688,1678.6177 Q818.8438,1678.0395 818.25,1677.7739 Q817.6563,1677.4927 817.0313,1677.4927 Q815.6875,1677.4927 815,1678.5708 Q814.3125,1679.6333 814.3125,1681.727 Q814.3125,1683.8208 815,1684.8989 Q815.6875,1685.9614 817.0313,1685.9614 Q817.6563,1685.9614 818.25,1685.6958 Q818.8438,1685.4145 819.4688,1684.8364 L819.4688,1687.5552 Z " fill="#000000"/><text fill="#D9B8FF" font-family="Helvetica" font-size="17" lengthAdjust="spacing" textLength="216" x="835.5" y="1687.7998">azure_virtual_ip_mapping</text><line style="stroke:#000D19;stroke-width:0.5;" x1="802.5" x2="1058.5" y1="1701.8091" y2="1701.8091"/><text fill="#D9B8FF" font-family="sans-serif" font-size="14" font-weight="bold" lengthAdjust="spacing" textLength="50" x="812.5" y="1723.8042">in_use</text><text fill="#D9B8FF" font-family="sans-serif" font-size="14" lengthAdjust="spacing" textLength="65" x="862.5" y="1723.8042">: boolean</text><text fill="#D9B8FF" font-family="sans-serif" font-size="14" font-weight="bold" lengthAdjust="spacing" textLength="139" x="812.5" y="1750.1011">internal_http_port</text><text fill="#D9B8FF" font-family="sans-serif" font-size="14" lengthAdjust="spacing" textLength="44" x="951.5" y="1750.1011">: int64</text><text fill="#D9B8FF" font-family="sans-serif" font-size="14" font-weight="bold" lengthAdjust="spacing" textLength="148" x="812.5" y="1776.3979">internal_https_port</text><text fill="#D9B8FF" font-family="sans-serif" font-size="14" lengthAdjust="spacing" textLength="44" x="960.5" y="1776.3979">: int64</text><text fill="#D9B8FF" font-family="sans-serif" font-size="14" font-weight="bold" lengthAdjust="spacing" textLength="70" x="812.5" y="1802.6948">virtual_ip</text><text fill="#D9B8FF" font-family="sans-serif" font-size="14" lengthAdjust="spacing" textLength="48" x="882.5" y="1802.6948">: string</text></g><!--class azure_virtual_network_profile--><g id="elem_azure_virtual_network_profile"><rect codeLine="54" fill="#3D176E" height="152.9766" id="azure_virtual_network_profile" rx="2.5" ry="2.5" style="stroke:#000D19;stroke-width:0.5;" width="293" x="1094" y="1662.02"/><ellipse cx="1109" cy="1681.9145" fill="#ADD1B2" rx="11" ry="11" style="stroke:#181818;stroke-width:1.0;"/><path d="M1111.9688,1687.5552 Q1111.3906,1687.852 1110.75,1687.9927 Q1110.1094,1688.1489 1109.4063,1688.1489 Q1106.9063,1688.1489 1105.5781,1686.5083 Q1104.2656,1684.852 1104.2656,1681.727 Q1104.2656,1678.602 1105.5781,1676.9458 Q1106.9063,1675.2895 1109.4063,1675.2895 Q1110.1094,1675.2895 1110.75,1675.4458 Q1111.4063,1675.602 1111.9688,1675.8989 L1111.9688,1678.6177 Q1111.3438,1678.0395 1110.75,1677.7739 Q1110.1563,1677.4927 1109.5313,1677.4927 Q1108.1875,1677.4927 1107.5,1678.5708 Q1106.8125,1679.6333 1106.8125,1681.727 Q1106.8125,1683.8208 1107.5,1684.8989 Q1108.1875,1685.9614 1109.5313,1685.9614 Q1110.1563,1685.9614 1110.75,1685.6958 Q1111.3438,1685.4145 1111.9688,1684.8364 L1111.9688,1687.5552 Z " fill="#000000"/><text fill="#D9B8FF" font-family="Helvetica" font-size="17" lengthAdjust="spacing" textLength="251" x="1128" y="1687.7998">azure_virtual_network_profile</text><line style="stroke:#000D19;stroke-width:0.5;" x1="1095" x2="1386" y1="1701.8091" y2="1701.8091"/><text fill="#D9B8FF" font-family="sans-serif" font-size="14" font-weight="bold" lengthAdjust="spacing" textLength="14" x="1105" y="1723.8042">id</text><text fill="#D9B8FF" font-family="sans-serif" font-size="14" lengthAdjust="spacing" textLength="48" x="1119" y="1723.8042">: string</text><text fill="#D9B8FF" font-family="sans-serif" font-size="14" font-weight="bold" lengthAdjust="spacing" textLength="43" x="1105" y="1750.1011">name</text><text fill="#D9B8FF" font-family="sans-serif" font-size="14" lengthAdjust="spacing" textLength="48" x="1148" y="1750.1011">: string</text><text fill="#D9B8FF" font-family="sans-serif" font-size="14" font-weight="bold" lengthAdjust="spacing" textLength="55" x="1105" y="1776.3979">subnet</text><text fill="#D9B8FF" font-family="sans-serif" font-size="14" lengthAdjust="spacing" textLength="48" x="1160" y="1776.3979">: string</text><text fill="#D9B8FF" font-family="sans-serif" font-size="14" font-weight="bold" lengthAdjust="spacing" textLength="35" x="1105" y="1802.6948">type</text><text fill="#D9B8FF" font-family="sans-serif" font-size="14" lengthAdjust="spacing" textLength="48" x="1140" y="1802.6948">: string</text></g><!--class azure_web_hosting_environment--><g id="elem_azure_web_hosting_environment"><rect codeLine="60" fill="#3D176E" height="836.6953" id="azure_web_hosting_environment" rx="2.5" ry="2.5" style="stroke:#000D19;stroke-width:0.5;" width="524" x="668.5" y="660.14"/><ellipse cx="781.75" cy="680.0345" fill="#ADD1B2" rx="11" ry="11" style="stroke:#181818;stroke-width:1.0;"/><path d="M784.7188,685.6752 Q784.1406,685.972 783.5,686.1127 Q782.8594,686.2689 782.1563,686.2689 Q779.6563,686.2689 778.3281,684.6283 Q777.0156,682.972 777.0156,679.847 Q777.0156,676.722 778.3281,675.0658 Q779.6563,673.4095 782.1563,673.4095 Q782.8594,673.4095 783.5,673.5658 Q784.1563,673.722 784.7188,674.0189 L784.7188,676.7377 Q784.0938,676.1595 783.5,675.8939 Q782.9063,675.6127 782.2813,675.6127 Q780.9375,675.6127 780.25,676.6908 Q779.5625,677.7533 779.5625,679.847 Q779.5625,681.9408 780.25,683.0189 Q780.9375,684.0814 782.2813,684.0814 Q782.9063,684.0814 783.5,683.8158 Q784.0938,683.5345 784.7188,682.9564 L784.7188,685.6752 Z " fill="#000000"/><text fill="#D9B8FF" font-family="Helvetica" font-size="17" lengthAdjust="spacing" textLength="279" x="807.25" y="685.9198">azure_web_hosting_environment</text><line style="stroke:#000D19;stroke-width:0.5;" x1="669.5" x2="1191.5" y1="699.9291" y2="699.9291"/><text fill="#D9B8FF" font-family="sans-serif" font-size="14" font-weight="bold" lengthAdjust="spacing" textLength="154" x="679.5" y="721.9242">allowed_multi_sizes</text><text fill="#D9B8FF" font-family="sans-serif" font-size="14" lengthAdjust="spacing" textLength="48" x="833.5" y="721.9242">: string</text><text fill="#D9B8FF" font-family="sans-serif" font-size="14" font-weight="bold" lengthAdjust="spacing" textLength="173" x="679.5" y="748.2211">allowed_worker_sizes</text><text fill="#D9B8FF" font-family="sans-serif" font-size="14" lengthAdjust="spacing" textLength="48" x="852.5" y="748.2211">: string</text><text fill="#D9B8FF" font-family="sans-serif" font-size="14" font-weight="bold" lengthAdjust="spacing" textLength="223" x="679.5" y="774.5179">api_management_account_id</text><text fill="#D9B8FF" font-family="sans-serif" font-size="14" lengthAdjust="spacing" textLength="48" x="902.5" y="774.5179">: string</text><text fill="#D9B8FF" font-family="sans-serif" font-size="14" font-weight="bold" lengthAdjust="spacing" textLength="85" x="679.5" y="800.8148">azure_kind</text><text fill="#D9B8FF" font-family="sans-serif" font-size="14" lengthAdjust="spacing" textLength="48" x="764.5" y="800.8148">: string</text><text fill="#D9B8FF" font-family="sans-serif" font-size="14" font-weight="bold" lengthAdjust="spacing" textLength="133" x="679.5" y="827.1117">database_edition</text><text fill="#D9B8FF" font-family="sans-serif" font-size="14" lengthAdjust="spacing" textLength="48" x="812.5" y="827.1117">: string</text><text fill="#D9B8FF" font-family="sans-serif" font-size="14" font-weight="bold" lengthAdjust="spacing" textLength="216" x="679.5" y="853.4086">database_service_objective</text><text fill="#D9B8FF" font-family="sans-serif" font-size="14" lengthAdjust="spacing" textLength="48" x="895.5" y="853.4086">: string</text><text fill="#D9B8FF" font-family="sans-serif" font-size="14" font-weight="bold" lengthAdjust="spacing" textLength="80" x="679.5" y="879.7054">dns_suffix</text><text fill="#D9B8FF" font-family="sans-serif" font-size="14" lengthAdjust="spacing" textLength="48" x="759.5" y="879.7054">: string</text><text fill="#D9B8FF" font-family="sans-serif" font-size="14" font-weight="bold" lengthAdjust="spacing" textLength="186" x="679.5" y="906.0023">environment_capacities</text><text fill="#D9B8FF" font-family="sans-serif" font-size="14" lengthAdjust="spacing" textLength="171" x="865.5" y="906.0023">: azure_stamp_capacity[]</text><text fill="#D9B8FF" font-family="sans-serif" font-size="14" font-weight="bold" lengthAdjust="spacing" textLength="185" x="679.5" y="932.2992">environment_is_healthy</text><text fill="#D9B8FF" font-family="sans-serif" font-size="14" lengthAdjust="spacing" textLength="65" x="864.5" y="932.2992">: boolean</text><text fill="#D9B8FF" font-family="sans-serif" font-size="14" font-weight="bold" lengthAdjust="spacing" textLength="156" x="679.5" y="958.5961">environment_status</text><text fill="#D9B8FF" font-family="sans-serif" font-size="14" lengthAdjust="spacing" textLength="48" x="835.5" y="958.5961">: string</text><text fill="#D9B8FF" font-family="sans-serif" font-size="14" font-weight="bold" lengthAdjust="spacing" textLength="299" x="679.5" y="984.8929">hosting_environment_cluster_settings</text><text fill="#D9B8FF" font-family="sans-serif" font-size="14" lengthAdjust="spacing" textLength="156" x="978.5" y="984.8929">: dictionary[string, any]</text><text fill="#D9B8FF" font-family="sans-serif" font-size="14" font-weight="bold" lengthAdjust="spacing" textLength="295" x="679.5" y="1011.1898">hosting_environment_virtual_network</text><text fill="#D9B8FF" font-family="sans-serif" font-size="14" lengthAdjust="spacing" textLength="207" x="974.5" y="1011.1898">: azure_virtual_network_profile</text><text fill="#D9B8FF" font-family="sans-serif" font-size="14" font-weight="bold" lengthAdjust="spacing" textLength="233" x="679.5" y="1037.4867">internal_load_balancing_mode</text><text fill="#D9B8FF" font-family="sans-serif" font-size="14" lengthAdjust="spacing" textLength="48" x="912.5" y="1037.4867">: string</text><text fill="#D9B8FF" font-family="sans-serif" font-size="14" font-weight="bold" lengthAdjust="spacing" textLength="159" x="679.5" y="1063.7836">ipssl_address_count</text><text fill="#D9B8FF" font-family="sans-serif" font-size="14" lengthAdjust="spacing" textLength="44" x="838.5" y="1063.7836">: int64</text><text fill="#D9B8FF" font-family="sans-serif" font-size="14" font-weight="bold" lengthAdjust="spacing" textLength="83" x="679.5" y="1090.0804">last_action</text><text fill="#D9B8FF" font-family="sans-serif" font-size="14" lengthAdjust="spacing" textLength="48" x="762.5" y="1090.0804">: string</text><text fill="#D9B8FF" font-family="sans-serif" font-size="14" font-weight="bold" lengthAdjust="spacing" textLength="136" x="679.5" y="1116.3773">last_action_result</text><text fill="#D9B8FF" font-family="sans-serif" font-size="14" lengthAdjust="spacing" textLength="48" x="815.5" y="1116.3773">: string</text><text fill="#D9B8FF" font-family="sans-serif" font-size="14" font-weight="bold" lengthAdjust="spacing" textLength="247" x="679.5" y="1142.6742">maximum_number_of_machines</text><text fill="#D9B8FF" font-family="sans-serif" font-size="14" lengthAdjust="spacing" textLength="44" x="926.5" y="1142.6742">: int64</text><text fill="#D9B8FF" font-family="sans-serif" font-size="14" font-weight="bold" lengthAdjust="spacing" textLength="128" x="679.5" y="1168.9711">multi_role_count</text><text fill="#D9B8FF" font-family="sans-serif" font-size="14" lengthAdjust="spacing" textLength="44" x="807.5" y="1168.9711">: int64</text><text fill="#D9B8FF" font-family="sans-serif" font-size="14" font-weight="bold" lengthAdjust="spacing" textLength="77" x="679.5" y="1195.2679">multi_size</text><text fill="#D9B8FF" font-family="sans-serif" font-size="14" lengthAdjust="spacing" textLength="48" x="756.5" y="1195.2679">: string</text><text fill="#D9B8FF" font-family="sans-serif" font-size="14" font-weight="bold" lengthAdjust="spacing" textLength="221" x="679.5" y="1221.5648">network_access_control_list</text><text fill="#D9B8FF" font-family="sans-serif" font-size="14" lengthAdjust="spacing" textLength="274" x="900.5" y="1221.5648">: azure_network_access_control_entry[]</text><text fill="#D9B8FF" font-family="sans-serif" font-size="14" font-weight="bold" lengthAdjust="spacing" textLength="126" x="679.5" y="1247.8617">resource_group</text><text fill="#D9B8FF" font-family="sans-serif" font-size="14" lengthAdjust="spacing" textLength="48" x="805.5" y="1247.8617">: string</text><text fill="#D9B8FF" font-family="sans-serif" font-size="14" font-weight="bold" lengthAdjust="spacing" textLength="49" x="679.5" y="1274.1586">status</text><text fill="#D9B8FF" font-family="sans-serif" font-size="14" lengthAdjust="spacing" textLength="48" x="728.5" y="1274.1586">: string</text><text fill="#D9B8FF" font-family="sans-serif" font-size="14" font-weight="bold" lengthAdjust="spacing" textLength="119" x="679.5" y="1300.4554">subscription_id</text><text fill="#D9B8FF" font-family="sans-serif" font-size="14" lengthAdjust="spacing" textLength="48" x="798.5" y="1300.4554">: string</text><text fill="#D9B8FF" font-family="sans-serif" font-size="14" font-weight="bold" lengthAdjust="spacing" textLength="88" x="679.5" y="1326.7523">suspended</text><text fill="#D9B8FF" font-family="sans-serif" font-size="14" lengthAdjust="spacing" textLength="65" x="767.5" y="1326.7523">: boolean</text><text fill="#D9B8FF" font-family="sans-serif" font-size="14" font-weight="bold" lengthAdjust="spacing" textLength="139" x="679.5" y="1353.0492">upgrade_domains</text><text fill="#D9B8FF" font-family="sans-serif" font-size="14" lengthAdjust="spacing" textLength="44" x="818.5" y="1353.0492">: int64</text><text fill="#D9B8FF" font-family="sans-serif" font-size="14" font-weight="bold" lengthAdjust="spacing" textLength="106" x="679.5" y="1379.3461">vip_mappings</text><text fill="#D9B8FF" font-family="sans-serif" font-size="14" lengthAdjust="spacing" textLength="191" x="785.5" y="1379.3461">: azure_virtual_ip_mapping[]</text><text fill="#D9B8FF" font-family="sans-serif" font-size="14" font-weight="bold" lengthAdjust="spacing" textLength="85" x="679.5" y="1405.6429">vnet_name</text><text fill="#D9B8FF" font-family="sans-serif" font-size="14" lengthAdjust="spacing" textLength="48" x="764.5" y="1405.6429">: string</text><text fill="#D9B8FF" font-family="sans-serif" font-size="14" font-weight="bold" lengthAdjust="spacing" textLength="218" x="679.5" y="1431.9398">vnet_resource_group_name</text><text fill="#D9B8FF" font-family="sans-serif" font-size="14" lengthAdjust="spacing" textLength="48" x="897.5" y="1431.9398">: string</text><text fill="#D9B8FF" font-family="sans-serif" font-size="14" font-weight="bold" lengthAdjust="spacing" textLength="147" x="679.5" y="1458.2367">vnet_subnet_name</text><text fill="#D9B8FF" font-family="sans-serif" font-size="14" lengthAdjust="spacing" textLength="48" x="826.5" y="1458.2367">: string</text><text fill="#D9B8FF" font-family="sans-serif" font-size="14" font-weight="bold" lengthAdjust="spacing" textLength="107" x="679.5" y="1484.5336">worker_pools</text><text fill="#D9B8FF" font-family="sans-serif" font-size="14" lengthAdjust="spacing" textLength="149" x="786.5" y="1484.5336">: azure_worker_pool[]</text></g><!--class azure_worker_pool--><g id="elem_azure_worker_pool"><rect codeLine="92" fill="#3D176E" height="363.3516" id="azure_worker_pool" rx="2.5" ry="2.5" style="stroke:#000D19;stroke-width:0.5;" width="227" x="1422" y="1556.84"/><ellipse cx="1449.15" cy="1576.7345" fill="#ADD1B2" rx="11" ry="11" style="stroke:#181818;stroke-width:1.0;"/><path d="M1452.1188,1582.3752 Q1451.5406,1582.672 1450.9,1582.8127 Q1450.2594,1582.9689 1449.5563,1582.9689 Q1447.0563,1582.9689 1445.7281,1581.3283 Q1444.4156,1579.672 1444.4156,1576.547 Q1444.4156,1573.422 1445.7281,1571.7658 Q1447.0563,1570.1095 1449.5563,1570.1095 Q1450.2594,1570.1095 1450.9,1570.2658 Q1451.5563,1570.422 1452.1188,1570.7189 L1452.1188,1573.4377 Q1451.4938,1572.8595 1450.9,1572.5939 Q1450.3063,1572.3127 1449.6813,1572.3127 Q1448.3375,1572.3127 1447.65,1573.3908 Q1446.9625,1574.4533 1446.9625,1576.547 Q1446.9625,1578.6408 1447.65,1579.7189 Q1448.3375,1580.7814 1449.6813,1580.7814 Q1450.3063,1580.7814 1450.9,1580.5158 Q1451.4938,1580.2345 1452.1188,1579.6564 L1452.1188,1582.3752 Z " fill="#000000"/><text fill="#D9B8FF" font-family="Helvetica" font-size="17" lengthAdjust="spacing" textLength="158" x="1470.85" y="1582.6198">azure_worker_pool</text><line style="stroke:#000D19;stroke-width:0.5;" x1="1423" x2="1648" y1="1596.6291" y2="1596.6291"/><text fill="#D9B8FF" font-family="sans-serif" font-size="14" font-weight="bold" lengthAdjust="spacing" textLength="85" x="1433" y="1618.6242">azure_kind</text><text fill="#D9B8FF" font-family="sans-serif" font-size="14" lengthAdjust="spacing" textLength="48" x="1518" y="1618.6242">: string</text><text fill="#D9B8FF" font-family="sans-serif" font-size="14" font-weight="bold" lengthAdjust="spacing" textLength="80" x="1433" y="1644.9211">azure_sku</text><text fill="#D9B8FF" font-family="sans-serif" font-size="14" lengthAdjust="spacing" textLength="80" x="1513" y="1644.9211">: azure_sku</text><text fill="#D9B8FF" font-family="sans-serif" font-size="14" font-weight="bold" lengthAdjust="spacing" textLength="120" x="1433" y="1671.2179">compute_mode</text><text fill="#D9B8FF" font-family="sans-serif" font-size="14" lengthAdjust="spacing" textLength="48" x="1553" y="1671.2179">: string</text><text fill="#D9B8FF" font-family="sans-serif" font-size="14" font-weight="bold" lengthAdjust="spacing" textLength="14" x="1433" y="1697.5148">id</text><text fill="#D9B8FF" font-family="sans-serif" font-size="14" lengthAdjust="spacing" textLength="48" x="1447" y="1697.5148">: string</text><text fill="#D9B8FF" font-family="sans-serif" font-size="14" font-weight="bold" lengthAdjust="spacing" textLength="126" x="1433" y="1723.8117">instance_names</text><text fill="#D9B8FF" font-family="sans-serif" font-size="14" lengthAdjust="spacing" textLength="58" x="1559" y="1723.8117">: string[]</text><text fill="#D9B8FF" font-family="sans-serif" font-size="14" font-weight="bold" lengthAdjust="spacing" textLength="62" x="1433" y="1750.1086">location</text><text fill="#D9B8FF" font-family="sans-serif" font-size="14" lengthAdjust="spacing" textLength="48" x="1495" y="1750.1086">: string</text><text fill="#D9B8FF" font-family="sans-serif" font-size="14" font-weight="bold" lengthAdjust="spacing" textLength="43" x="1433" y="1776.4054">name</text><text fill="#D9B8FF" font-family="sans-serif" font-size="14" lengthAdjust="spacing" textLength="48" x="1476" y="1776.4054">: string</text><text fill="#D9B8FF" font-family="sans-serif" font-size="14" font-weight="bold" lengthAdjust="spacing" textLength="34" x="1433" y="1802.7023">tags</text><text fill="#D9B8FF" font-family="sans-serif" font-size="14" lengthAdjust="spacing" textLength="171" x="1467" y="1802.7023">: dictionary[string, string]</text><text fill="#D9B8FF" font-family="sans-serif" font-size="14" font-weight="bold" lengthAdjust="spacing" textLength="35" x="1433" y="1828.9992">type</text><text fill="#D9B8FF" font-family="sans-serif" font-size="14" lengthAdjust="spacing" textLength="48" x="1468" y="1828.9992">: string</text><text fill="#D9B8FF" font-family="sans-serif" font-size="14" font-weight="bold" lengthAdjust="spacing" textLength="109" x="1433" y="1855.2961">worker_count</text><text fill="#D9B8FF" font-family="sans-serif" font-size="14" lengthAdjust="spacing" textLength="44" x="1542" y="1855.2961">: int64</text><text fill="#D9B8FF" font-family="sans-serif" font-size="14" font-weight="bold" lengthAdjust="spacing" textLength="96" x="1433" y="1881.5929">worker_size</text><text fill="#D9B8FF" font-family="sans-serif" font-size="14" lengthAdjust="spacing" textLength="48" x="1529" y="1881.5929">: string</text><text fill="#D9B8FF" font-family="sans-serif" font-size="14" font-weight="bold" lengthAdjust="spacing" textLength="117" x="1433" y="1907.8898">worker_size_id</text><text fill="#D9B8FF" font-family="sans-serif" font-size="14" lengthAdjust="spacing" textLength="44" x="1550" y="1907.8898">: int64</text></g><!--class microsoft_resource--><g id="elem_microsoft_resource"><rect codeLine="106" fill="#3D176E" height="100.3828" id="microsoft_resource" rx="2.5" ry="2.5" style="stroke:#000D19;stroke-width:0.5;" width="214" x="823.5" y="438.76"/><ellipse cx="844.8" cy="458.6545" fill="#ADD1B2" rx="11" ry="11" style="stroke:#181818;stroke-width:1.0;"/><path d="M847.7688,464.2952 Q847.1906,464.592 846.55,464.7327 Q845.9094,464.8889 845.2063,464.8889 Q842.7063,464.8889 841.3781,463.2483 Q840.0656,461.592 840.0656,458.467 Q840.0656,455.342 841.3781,453.6858 Q842.7063,452.0295 845.2063,452.0295 Q845.9094,452.0295 846.55,452.1858 Q847.2063,452.342 847.7688,452.6389 L847.7688,455.3577 Q847.1438,454.7795 846.55,454.5139 Q845.9563,454.2327 845.3313,454.2327 Q843.9875,454.2327 843.3,455.3108 Q842.6125,456.3733 842.6125,458.467 Q842.6125,460.5608 843.3,461.6389 Q843.9875,462.7014 845.3313,462.7014 Q845.9563,462.7014 846.55,462.4358 Q847.1438,462.1545 847.7688,461.5764 L847.7688,464.2952 Z " fill="#000000"/><text fill="#D9B8FF" font-family="Helvetica" font-size="17" lengthAdjust="spacing" textLength="158" x="865.2" y="464.5398">microsoft_resource</text><line style="stroke:#000D19;stroke-width:0.5;" x1="824.5" x2="1036.5" y1="478.5491" y2="478.5491"/><text fill="#D9B8FF" font-family="sans-serif" font-size="14" font-weight="bold" lengthAdjust="spacing" textLength="35" x="834.5" y="500.5442">etag</text><text fill="#D9B8FF" font-family="sans-serif" font-size="14" lengthAdjust="spacing" textLength="48" x="869.5" y="500.5442">: string</text><text fill="#D9B8FF" font-family="sans-serif" font-size="14" font-weight="bold" lengthAdjust="spacing" textLength="144" x="834.5" y="526.8411">provisioning_state</text><text fill="#D9B8FF" font-family="sans-serif" font-size="14" lengthAdjust="spacing" textLength="48" x="978.5" y="526.8411">: string</text></g><!--class resource--><g id="elem_resource"><rect codeLine="110" fill="#3D176E" height="310.7578" id="resource" rx="2.5" ry="2.5" style="stroke:#000D19;stroke-width:0.5;" width="227" x="817" y="7"/><ellipse cx="885.75" cy="26.8945" fill="#ADD1B2" rx="11" ry="11" style="stroke:#181818;stroke-width:1.0;"/><path d="M888.7188,32.5352 Q888.1406,32.832 887.5,32.9727 Q886.8594,33.1289 886.1563,33.1289 Q883.6563,33.1289 882.3281,31.4883 Q881.0156,29.832 881.0156,26.707 Q881.0156,23.582 882.3281,21.9258 Q883.6563,20.2695 886.1563,20.2695 Q886.8594,20.2695 887.5,20.4258 Q888.1563,20.582 888.7188,20.8789 L888.7188,23.5977 Q888.0938,23.0195 887.5,22.7539 Q886.9063,22.4727 886.2813,22.4727 Q884.9375,22.4727 884.25,23.5508 Q883.5625,24.6133 883.5625,26.707 Q883.5625,28.8008 884.25,29.8789 Q884.9375,30.9414 886.2813,30.9414 Q886.9063,30.9414 887.5,30.6758 Q888.0938,30.3945 888.7188,29.8164 L888.7188,32.5352 Z " fill="#000000"/><text fill="#D9B8FF" font-family="Helvetica" font-size="17" lengthAdjust="spacing" textLength="71" x="911.25" y="32.7798">resource</text><line style="stroke:#000D19;stroke-width:0.5;" x1="818" x2="1043" y1="46.7891" y2="46.7891"/><text fill="#D9B8FF" font-family="sans-serif" font-size="14" font-weight="bold" lengthAdjust="spacing" textLength="29" x="828" y="68.7842">age</text><text fill="#D9B8FF" font-family="sans-serif" font-size="14" lengthAdjust="spacing" textLength="66" x="857" y="68.7842">: duration</text><text fill="#D9B8FF" font-family="sans-serif" font-size="14" font-weight="bold" lengthAdjust="spacing" textLength="43" x="828" y="95.0811">atime</text><text fill="#D9B8FF" font-family="sans-serif" font-size="14" lengthAdjust="spacing" textLength="70" x="871" y="95.0811">: datetime</text><text fill="#D9B8FF" font-family="sans-serif" font-size="14" font-weight="bold" lengthAdjust="spacing" textLength="43" x="828" y="121.3779">ctime</text><text fill="#D9B8FF" font-family="sans-serif" font-size="14" lengthAdjust="spacing" textLength="70" x="871" y="121.3779">: datetime</text><text fill="#D9B8FF" font-family="sans-serif" font-size="14" font-weight="bold" lengthAdjust="spacing" textLength="14" x="828" y="147.6748">id</text><text fill="#D9B8FF" font-family="sans-serif" font-size="14" lengthAdjust="spacing" textLength="48" x="842" y="147.6748">: string</text><text fill="#D9B8FF" font-family="sans-serif" font-size="14" font-weight="bold" lengthAdjust="spacing" textLength="33" x="828" y="173.9717">kind</text><text fill="#D9B8FF" font-family="sans-serif" font-size="14" lengthAdjust="spacing" textLength="48" x="861" y="173.9717">: string</text><text fill="#D9B8FF" font-family="sans-serif" font-size="14" font-weight="bold" lengthAdjust="spacing" textLength="90" x="828" y="200.2686">last_access</text><text fill="#D9B8FF" font-family="sans-serif" font-size="14" lengthAdjust="spacing" textLength="66" x="918" y="200.2686">: duration</text><text fill="#D9B8FF" font-family="sans-serif" font-size="14" font-weight="bold" lengthAdjust="spacing" textLength="90" x="828" y="226.5654">last_update</text><text fill="#D9B8FF" font-family="sans-serif" font-size="14" lengthAdjust="spacing" textLength="66" x="918" y="226.5654">: duration</text><text fill="#D9B8FF" font-family="sans-serif" font-size="14" font-weight="bold" lengthAdjust="spacing" textLength="48" x="828" y="252.8623">mtime</text><text fill="#D9B8FF" font-family="sans-serif" font-size="14" lengthAdjust="spacing" textLength="70" x="876" y="252.8623">: datetime</text><text fill="#D9B8FF" font-family="sans-serif" font-size="14" font-weight="bold" lengthAdjust="spacing" textLength="43" x="828" y="279.1592">name</text><text fill="#D9B8FF" font-family="sans-serif" font-size="14" lengthAdjust="spacing" textLength="48" x="871" y="279.1592">: string</text><text fill="#D9B8FF" font-family="sans-serif" font-size="14" font-weight="bold" lengthAdjust="spacing" textLength="34" x="828" y="305.4561">tags</text><text fill="#D9B8FF" font-family="sans-serif" font-size="14" lengthAdjust="spacing" textLength="171" x="862" y="305.4561">: dictionary[string, string]</text></g><!--link azure_web_hosting_environment to azure_network_access_control_entry--><g id="link_azure_web_hosting_environment_azure_network_access_control_entry"><path codeLine="122" d="M668.33,1299.83 C574.5,1379.83 468.49,1471.52 373.5,1556.84 C335.7,1590.78 298.9317,1625.1293 264.4817,1657.8293 " fill="none" id="azure_web_hosting_environment-to-azure_network_access_control_entry" style="stroke:#FFAF37;stroke-width:2.0;"/><polygon fill="#FFAF37" points="260.13,1661.96,269.4114,1658.6651,263.7564,1658.5178,263.9038,1652.8628,260.13,1661.96" style="stroke:#FFAF37;stroke-width:2.0;"/></g><!--link azure_web_hosting_environment to azure_stamp_capacity--><g id="link_azure_web_hosting_environment_azure_stamp_capacity"><path codeLine="123" d="M707.07,1497.16 C691.02,1527.16 678.3701,1550.8094 664.0501,1577.5794 " fill="none" id="azure_web_hosting_environment-to-azure_stamp_capacity" style="stroke:#FFAF37;stroke-width:2.0;"/><polygon fill="#FFAF37" points="661.22,1582.87,668.9922,1576.8208,663.5784,1578.4612,661.9381,1573.0474,661.22,1582.87" style="stroke:#FFAF37;stroke-width:2.0;"/></g><!--link azure_web_hosting_environment to azure_virtual_ip_mapping--><g id="link_azure_web_hosting_environment_azure_virtual_ip_mapping"><path codeLine="124" d="M930.5,1497.16 C930.5,1560.09 930.5,1612.34 930.5,1655.73 " fill="none" id="azure_web_hosting_environment-to-azure_virtual_ip_mapping" style="stroke:#FFAF37;stroke-width:2.0;"/><polygon fill="#FFAF37" points="930.5,1661.73,934.5,1652.73,930.5,1656.73,926.5,1652.73,930.5,1661.73" style="stroke:#FFAF37;stroke-width:2.0;"/></g><!--link azure_web_hosting_environment to azure_virtual_network_profile--><g id="link_azure_web_hosting_environment_azure_virtual_network_profile"><path codeLine="125" d="M1127.27,1497.16 C1156.91,1560.09 1181.803,1612.9121 1202.243,1656.3021 " fill="none" id="azure_web_hosting_environment-to-azure_virtual_network_profile" style="stroke:#FFAF37;stroke-width:2.0;"/><polygon fill="#FFAF37" points="1204.8,1661.73,1204.5832,1651.8835,1202.6692,1657.2068,1197.346,1655.2928,1204.8,1661.73" style="stroke:#FFAF37;stroke-width:2.0;"/></g><!--link azure_web_hosting_environment to azure_worker_pool--><g id="link_azure_web_hosting_environment_azure_worker_pool"><path codeLine="126" d="M1192.97,1329.26 C1263.95,1400.65 1339.16,1479.98 1404.5,1556.84 C1410.27,1563.62 1412.2983,1565.9756 1418.0683,1573.1456 " fill="none" id="azure_web_hosting_environment-to-azure_worker_pool" style="stroke:#FFAF37;stroke-width:2.0;"/><polygon fill="#FFAF37" points="1421.83,1577.82,1419.3037,1568.3006,1418.6953,1573.9247,1413.0712,1573.3162,1421.83,1577.82" style="stroke:#FFAF37;stroke-width:2.0;"/></g><!--reverse link microsoft_resource to azure_web_hosting_environment--><g id="link_microsoft_resource_azure_web_hosting_environment"><path codeLine="127" d="M930.5,557.54 C930.5,588.04 930.5,612.35 930.5,659.96 " fill="none" id="microsoft_resource-backto-azure_web_hosting_environment" style="stroke:#FFAF37;stroke-width:2.0;"/><polygon fill="none" points="930.5,539.54,924.5,557.54,936.5,557.54,930.5,539.54" style="stroke:#FFAF37;stroke-width:2.0;"/></g><!--link azure_worker_pool to azure_sku--><g id="link_azure_worker_pool_azure_sku"><path codeLine="128" d="M1535.5,1920.54 C1535.5,1941.17 1535.5,1955.45 1535.5,1974.07 " fill="none" id="azure_worker_pool-to-azure_sku" style="stroke:#FFAF37;stroke-width:2.0;"/><polygon fill="#FFAF37" points="1535.5,1980.07,1539.5,1971.07,1535.5,1975.07,1531.5,1971.07,1535.5,1980.07" style="stroke:#FFAF37;stroke-width:2.0;"/></g><!--reverse link resource to microsoft_resource--><g id="link_resource_microsoft_resource"><path codeLine="129" d="M930.5,336.06 C930.5,379.65 930.5,405.98 930.5,438.42 " fill="none" id="resource-backto-microsoft_resource" style="stroke:#FFAF37;stroke-width:2.0;"/><polygon fill="none" points="930.5,318.06,924.5,336.06,936.5,336.06,930.5,318.06" style="stroke:#FFAF37;stroke-width:2.0;"/></g><!--SRC=[dLRRRXit47tNLooGDwC2x2IDuo08a1e8sfUWQFeM6CJiSjPYnHjuaQoq-VSETos9NAva9qysPcRdSkQSeLQ2OuFAXbsZKBNe_CAlXRRWG3KVdJFRMoEDQrxqFVIlhgVEJqQ79mC-WyBcTvGR3AA3QSJVAz6jDNhVlCnSlq6tldScQZwc3mwq9nVga4NTIl3-OmXEj35WrWo_QT_s_JHoclJ5Atvr_GQhCECukiUGoyjBVdKp3NcorDcv3n5Vn3TihdBGFfk0LPjLYI7gR9Sf8cko6dJlFzdZdy2vqFVDhvdjhx4dfz4LzYyhu6QRedkGFY_Z0peqOMVnjfeARzxo_des-8zJmOikGTV0j-YGQGnRuzOCkexempeQnnd9Y29kr_oxkBY0BWYZBoxUKMf7xP69e- -Si9Lz03DPX0vlNfF1eIA8c8yjbSb2lnSj-7KSAdLWeHDXbsVeGGcvAwfeGhimU290OGXYR6E-MW1bsRxMEE86X8HM8fjheJFAaZ2OChmiWm-TZ1nPxumwVCb0IjF17flM68cWALfu1jPA8aWgr1kN8bcUt9SVpCmvrqKm0UHiur6BK8IcHQDZ5LwPdGb-J542jn4kH2ebB5CqIM9g0aze5ZrEPjN4Gasngn0iiyQ5lA_2woltiSx97Uv3zkIrplH2ujWFVu8jKp8IXAIMaxMssBALyO4yf0ggRBGYTOp4eLrlaJCLPH03Vhv8lFTd04y2h20mDTnZofb4I78DR3B3s0X9l3Hp2D22HuPSr1hTEpswZUYGcVOV92blIZIuzYJFlXSF9RMFW-wf9SRMvqJqzMxo2N5zXI33QbVo8e-X526MQCp0p4XYwQJH627vXW-u66uIkDtNyTjV6j2xknCP9cGv3d62HJb3fG7EMf2WkvIs4f-mtaj6LzwDnvEMbrEPQ9IMMYqdipFwajXJk1Ky21KLqp7zc62c9uvqAw773UoJZwIZOurruICXIp7C7tifV3Z2Skv563PD7PleY5BfSR6bkEgbajuEhyMKs3vwYveZBsaIxRq3EgpSA13QbyVXS7rylScZSsXqGwEmwW0CrdA64q7ZgQYTZtAsr73MH6QbwfCZSlIDXsDUqOVtC5FQEfvxWoQ04bg1k8f3pzaU1ZZoT-dqVGnmKcJZtxlwOXuWgOZuiq-E4fqptlJ7JGsu8NLNv27DReIdFfCy4_lc3dcHWcxjC5vq0nZ94iI80TrCJFydm6Ti4wohxJsgEgbcKc7mHCiVsyiyQgREpwpa- -ByQxLSVdY6l9-TfBp_p_wirkaFVpezri_zFbFWOePSx_zRBfVdN_n5BUKC49Bf95bTPV4_]--></g></svg>