<?xml version="1.0" encoding="us-ascii" standalone="no"?><svg xmlns="http://www.w3.org/2000/svg" xmlns:xlink="http://www.w3.org/1999/xlink" contentStyleType="text/css" height="1482px" preserveAspectRatio="none" style="width:1367px;height:1482px;" version="1.1" viewBox="0 0 1367 1482" width="1367px" zoomAndPan="magnify"><defs/><g><!--class azure_bgp_settings--><g id="elem_azure_bgp_settings"><rect codeLine="23" fill="#3D176E" height="152.9766" id="azure_bgp_settings" rx="2.5" ry="2.5" style="stroke:#000D19;stroke-width:0.5;" width="541" x="7" y="1030.9"/><ellipse cx="188.25" cy="1050.7945" fill="#ADD1B2" rx="11" ry="11" style="stroke:#181818;stroke-width:1.0;"/><path d="M191.2188,1056.4352 Q190.6406,1056.732 190,1056.8727 Q189.3594,1057.0289 188.6563,1057.0289 Q186.1563,1057.0289 184.8281,1055.3883 Q183.5156,1053.732 183.5156,1050.607 Q183.5156,1047.482 184.8281,1045.8258 Q186.1563,1044.1695 188.6563,1044.1695 Q189.3594,1044.1695 190,1044.3258 Q190.6563,1044.482 191.2188,1044.7789 L191.2188,1047.4977 Q190.5938,1046.9195 190,1046.6539 Q189.4063,1046.3727 188.7813,1046.3727 Q187.4375,1046.3727 186.75,1047.4508 Q186.0625,1048.5133 186.0625,1050.607 Q186.0625,1052.7008 186.75,1053.7789 Q187.4375,1054.8414 188.7813,1054.8414 Q189.4063,1054.8414 190,1054.5758 Q190.5938,1054.2945 191.2188,1053.7164 L191.2188,1056.4352 Z " fill="#000000"/><text fill="#D9B8FF" font-family="Helvetica" font-size="17" lengthAdjust="spacing" textLength="160" x="213.75" y="1056.6798">azure_bgp_settings</text><line style="stroke:#000D19;stroke-width:0.5;" x1="8" x2="547" y1="1070.6891" y2="1070.6891"/><text fill="#D9B8FF" font-family="sans-serif" font-size="14" font-weight="bold" lengthAdjust="spacing" textLength="28" x="18" y="1092.6842">asn</text><text fill="#D9B8FF" font-family="sans-serif" font-size="14" lengthAdjust="spacing" textLength="44" x="46" y="1092.6842">: int64</text><text fill="#D9B8FF" font-family="sans-serif" font-size="14" font-weight="bold" lengthAdjust="spacing" textLength="169" x="18" y="1118.9811">bgp_peering_address</text><text fill="#D9B8FF" font-family="sans-serif" font-size="14" lengthAdjust="spacing" textLength="48" x="187" y="1118.9811">: string</text><text fill="#D9B8FF" font-family="sans-serif" font-size="14" font-weight="bold" lengthAdjust="spacing" textLength="188" x="18" y="1145.2779">bgp_peering_addresses</text><text fill="#D9B8FF" font-family="sans-serif" font-size="14" lengthAdjust="spacing" textLength="331" x="206" y="1145.2779">: azure_ip_configuration_bgp_peering_address[]</text><text fill="#D9B8FF" font-family="sans-serif" font-size="14" font-weight="bold" lengthAdjust="spacing" textLength="98" x="18" y="1171.5748">peer_weight</text><text fill="#D9B8FF" font-family="sans-serif" font-size="14" lengthAdjust="spacing" textLength="44" x="116" y="1171.5748">: int64</text></g><!--class azure_ip_configuration_bgp_peering_address--><g id="elem_azure_ip_configuration_bgp_peering_address"><rect codeLine="29" fill="#3D176E" height="152.9766" id="azure_ip_configuration_bgp_peering_address" rx="2.5" ry="2.5" style="stroke:#000D19;stroke-width:0.5;" width="415" x="70" y="1322.76"/><ellipse cx="85" cy="1342.6545" fill="#ADD1B2" rx="11" ry="11" style="stroke:#181818;stroke-width:1.0;"/><path d="M87.9688,1348.2952 Q87.3906,1348.592 86.75,1348.7327 Q86.1094,1348.8889 85.4063,1348.8889 Q82.9063,1348.8889 81.5781,1347.2483 Q80.2656,1345.592 80.2656,1342.467 Q80.2656,1339.342 81.5781,1337.6858 Q82.9063,1336.0295 85.4063,1336.0295 Q86.1094,1336.0295 86.75,1336.1858 Q87.4063,1336.342 87.9688,1336.6389 L87.9688,1339.3577 Q87.3438,1338.7795 86.75,1338.5139 Q86.1563,1338.2327 85.5313,1338.2327 Q84.1875,1338.2327 83.5,1339.3108 Q82.8125,1340.3733 82.8125,1342.467 Q82.8125,1344.5608 83.5,1345.6389 Q84.1875,1346.7014 85.5313,1346.7014 Q86.1563,1346.7014 86.75,1346.4358 Q87.3438,1346.1545 87.9688,1345.5764 L87.9688,1348.2952 Z " fill="#000000"/><text fill="#D9B8FF" font-family="Helvetica" font-size="17" lengthAdjust="spacing" textLength="373" x="104" y="1348.5398">azure_ip_configuration_bgp_peering_address</text><line style="stroke:#000D19;stroke-width:0.5;" x1="71" x2="484" y1="1362.5491" y2="1362.5491"/><text fill="#D9B8FF" font-family="sans-serif" font-size="14" font-weight="bold" lengthAdjust="spacing" textLength="206" x="81" y="1384.5442">custom_bgp_ip_addresses</text><text fill="#D9B8FF" font-family="sans-serif" font-size="14" lengthAdjust="spacing" textLength="58" x="287" y="1384.5442">: string[]</text><text fill="#D9B8FF" font-family="sans-serif" font-size="14" font-weight="bold" lengthAdjust="spacing" textLength="203" x="81" y="1410.8411">default_bgp_ip_addresses</text><text fill="#D9B8FF" font-family="sans-serif" font-size="14" lengthAdjust="spacing" textLength="58" x="284" y="1410.8411">: string[]</text><text fill="#D9B8FF" font-family="sans-serif" font-size="14" font-weight="bold" lengthAdjust="spacing" textLength="140" x="81" y="1437.1379">ipconfiguration_id</text><text fill="#D9B8FF" font-family="sans-serif" font-size="14" lengthAdjust="spacing" textLength="48" x="221" y="1437.1379">: string</text><text fill="#D9B8FF" font-family="sans-serif" font-size="14" font-weight="bold" lengthAdjust="spacing" textLength="161" x="81" y="1463.4348">tunnel_ip_addresses</text><text fill="#D9B8FF" font-family="sans-serif" font-size="14" lengthAdjust="spacing" textLength="58" x="242" y="1463.4348">: string[]</text></g><!--class azure_network_virtual_wan_vpn_gateway--><g id="elem_azure_network_virtual_wan_vpn_gateway"><rect codeLine="35" fill="#3D176E" height="231.8672" id="azure_network_virtual_wan_vpn_gateway" rx="2.5" ry="2.5" style="stroke:#000D19;stroke-width:0.5;" width="501" x="509" y="660.14"/><ellipse cx="572.75" cy="680.0345" fill="#ADD1B2" rx="11" ry="11" style="stroke:#181818;stroke-width:1.0;"/><path d="M575.7188,685.6752 Q575.1406,685.972 574.5,686.1127 Q573.8594,686.2689 573.1563,686.2689 Q570.6563,686.2689 569.3281,684.6283 Q568.0156,682.972 568.0156,679.847 Q568.0156,676.722 569.3281,675.0658 Q570.6563,673.4095 573.1563,673.4095 Q573.8594,673.4095 574.5,673.5658 Q575.1563,673.722 575.7188,674.0189 L575.7188,676.7377 Q575.0938,676.1595 574.5,675.8939 Q573.9063,675.6127 573.2813,675.6127 Q571.9375,675.6127 571.25,676.6908 Q570.5625,677.7533 570.5625,679.847 Q570.5625,681.9408 571.25,683.0189 Q571.9375,684.0814 573.2813,684.0814 Q573.9063,684.0814 574.5,683.8158 Q575.0938,683.5345 575.7188,682.9564 L575.7188,685.6752 Z " fill="#000000"/><text fill="#D9B8FF" font-family="Helvetica" font-size="17" lengthAdjust="spacing" textLength="355" x="598.25" y="685.9198">azure_network_virtual_wan_vpn_gateway</text><line style="stroke:#000D19;stroke-width:0.5;" x1="510" x2="1009" y1="699.9291" y2="699.9291"/><text fill="#D9B8FF" font-family="sans-serif" font-size="14" font-weight="bold" lengthAdjust="spacing" textLength="101" x="520" y="721.9242">bgp_settings</text><text fill="#D9B8FF" font-family="sans-serif" font-size="14" lengthAdjust="spacing" textLength="145" x="621" y="721.9242">: azure_bgp_settings</text><text fill="#D9B8FF" font-family="sans-serif" font-size="14" font-weight="bold" lengthAdjust="spacing" textLength="293" x="520" y="748.2211">enable_bgp_route_translation_for_nat</text><text fill="#D9B8FF" font-family="sans-serif" font-size="14" lengthAdjust="spacing" textLength="65" x="813" y="748.2211">: boolean</text><text fill="#D9B8FF" font-family="sans-serif" font-size="14" font-weight="bold" lengthAdjust="spacing" textLength="209" x="520" y="774.5179">gateway_ip_configurations</text><text fill="#D9B8FF" font-family="sans-serif" font-size="14" lengthAdjust="spacing" textLength="270" x="729" y="774.5179">: azure_vpn_gateway_ip_configuration[]</text><text fill="#D9B8FF" font-family="sans-serif" font-size="14" font-weight="bold" lengthAdjust="spacing" textLength="243" x="520" y="800.8148">is_routing_preference_internet</text><text fill="#D9B8FF" font-family="sans-serif" font-size="14" lengthAdjust="spacing" textLength="65" x="763" y="800.8148">: boolean</text><text fill="#D9B8FF" font-family="sans-serif" font-size="14" font-weight="bold" lengthAdjust="spacing" textLength="86" x="520" y="827.1117">virtual_hub</text><text fill="#D9B8FF" font-family="sans-serif" font-size="14" lengthAdjust="spacing" textLength="48" x="606" y="827.1117">: string</text><text fill="#D9B8FF" font-family="sans-serif" font-size="14" font-weight="bold" lengthAdjust="spacing" textLength="188" x="520" y="853.4086">vpn_gateway_scale_unit</text><text fill="#D9B8FF" font-family="sans-serif" font-size="14" lengthAdjust="spacing" textLength="44" x="708" y="853.4086">: int64</text><text fill="#D9B8FF" font-family="sans-serif" font-size="14" font-weight="bold" lengthAdjust="spacing" textLength="186" x="520" y="879.7054">wan_gateway_nat_rules</text><text fill="#D9B8FF" font-family="sans-serif" font-size="14" lengthAdjust="spacing" textLength="216" x="706" y="879.7054">: azure_vpn_gateway_nat_rule[]</text></g><!--class azure_vpn_gateway_ip_configuration--><g id="elem_azure_vpn_gateway_ip_configuration"><rect codeLine="44" fill="#3D176E" height="126.6797" id="azure_vpn_gateway_ip_configuration" rx="2.5" ry="2.5" style="stroke:#000D19;stroke-width:0.5;" width="353" x="583" y="1044.04"/><ellipse cx="598" cy="1063.9345" fill="#ADD1B2" rx="11" ry="11" style="stroke:#181818;stroke-width:1.0;"/><path d="M600.9688,1069.5752 Q600.3906,1069.872 599.75,1070.0127 Q599.1094,1070.1689 598.4063,1070.1689 Q595.9063,1070.1689 594.5781,1068.5283 Q593.2656,1066.872 593.2656,1063.747 Q593.2656,1060.622 594.5781,1058.9658 Q595.9063,1057.3095 598.4063,1057.3095 Q599.1094,1057.3095 599.75,1057.4658 Q600.4063,1057.622 600.9688,1057.9189 L600.9688,1060.6377 Q600.3438,1060.0595 599.75,1059.7939 Q599.1563,1059.5127 598.5313,1059.5127 Q597.1875,1059.5127 596.5,1060.5908 Q595.8125,1061.6533 595.8125,1063.747 Q595.8125,1065.8408 596.5,1066.9189 Q597.1875,1067.9814 598.5313,1067.9814 Q599.1563,1067.9814 599.75,1067.7158 Q600.3438,1067.4345 600.9688,1066.8564 L600.9688,1069.5752 Z " fill="#000000"/><text fill="#D9B8FF" font-family="Helvetica" font-size="17" lengthAdjust="spacing" textLength="311" x="617" y="1069.8198">azure_vpn_gateway_ip_configuration</text><line style="stroke:#000D19;stroke-width:0.5;" x1="584" x2="935" y1="1083.8291" y2="1083.8291"/><text fill="#D9B8FF" font-family="sans-serif" font-size="14" font-weight="bold" lengthAdjust="spacing" textLength="14" x="594" y="1105.8242">id</text><text fill="#D9B8FF" font-family="sans-serif" font-size="14" lengthAdjust="spacing" textLength="48" x="608" y="1105.8242">: string</text><text fill="#D9B8FF" font-family="sans-serif" font-size="14" font-weight="bold" lengthAdjust="spacing" textLength="147" x="594" y="1132.1211">private_ip_address</text><text fill="#D9B8FF" font-family="sans-serif" font-size="14" lengthAdjust="spacing" textLength="48" x="741" y="1132.1211">: string</text><text fill="#D9B8FF" font-family="sans-serif" font-size="14" font-weight="bold" lengthAdjust="spacing" textLength="139" x="594" y="1158.4179">public_ip_address</text><text fill="#D9B8FF" font-family="sans-serif" font-size="14" lengthAdjust="spacing" textLength="48" x="733" y="1158.4179">: string</text></g><!--class azure_vpn_gateway_nat_rule--><g id="elem_azure_vpn_gateway_nat_rule"><rect codeLine="49" fill="#3D176E" height="310.7578" id="azure_vpn_gateway_nat_rule" rx="2.5" ry="2.5" style="stroke:#000D19;stroke-width:0.5;" width="389" x="971" y="952.01"/><ellipse cx="1033.25" cy="971.9045" fill="#ADD1B2" rx="11" ry="11" style="stroke:#181818;stroke-width:1.0;"/><path d="M1036.2188,977.5452 Q1035.6406,977.842 1035,977.9827 Q1034.3594,978.1389 1033.6563,978.1389 Q1031.1563,978.1389 1029.8281,976.4983 Q1028.5156,974.842 1028.5156,971.717 Q1028.5156,968.592 1029.8281,966.9358 Q1031.1563,965.2795 1033.6563,965.2795 Q1034.3594,965.2795 1035,965.4358 Q1035.6563,965.592 1036.2188,965.8889 L1036.2188,968.6077 Q1035.5938,968.0295 1035,967.7639 Q1034.4063,967.4827 1033.7813,967.4827 Q1032.4375,967.4827 1031.75,968.5608 Q1031.0625,969.6233 1031.0625,971.717 Q1031.0625,973.8108 1031.75,974.8889 Q1032.4375,975.9514 1033.7813,975.9514 Q1034.4063,975.9514 1035,975.6858 Q1035.5938,975.4045 1036.2188,974.8264 L1036.2188,977.5452 Z " fill="#000000"/><text fill="#D9B8FF" font-family="Helvetica" font-size="17" lengthAdjust="spacing" textLength="246" x="1058.75" y="977.7898">azure_vpn_gateway_nat_rule</text><line style="stroke:#000D19;stroke-width:0.5;" x1="972" x2="1359" y1="991.7991" y2="991.7991"/><text fill="#D9B8FF" font-family="sans-serif" font-size="14" font-weight="bold" lengthAdjust="spacing" textLength="265" x="982" y="1013.7942">egress_vpn_site_link_connections</text><text fill="#D9B8FF" font-family="sans-serif" font-size="14" lengthAdjust="spacing" textLength="58" x="1247" y="1013.7942">: string[]</text><text fill="#D9B8FF" font-family="sans-serif" font-size="14" font-weight="bold" lengthAdjust="spacing" textLength="35" x="982" y="1040.0911">etag</text><text fill="#D9B8FF" font-family="sans-serif" font-size="14" lengthAdjust="spacing" textLength="48" x="1017" y="1040.0911">: string</text><text fill="#D9B8FF" font-family="sans-serif" font-size="14" font-weight="bold" lengthAdjust="spacing" textLength="148" x="982" y="1066.3879">external_mappings</text><text fill="#D9B8FF" font-family="sans-serif" font-size="14" lengthAdjust="spacing" textLength="219" x="1130" y="1066.3879">: azure_vpn_nat_rule_mapping[]</text><text fill="#D9B8FF" font-family="sans-serif" font-size="14" font-weight="bold" lengthAdjust="spacing" textLength="269" x="982" y="1092.6848">ingress_vpn_site_link_connections</text><text fill="#D9B8FF" font-family="sans-serif" font-size="14" lengthAdjust="spacing" textLength="58" x="1251" y="1092.6848">: string[]</text><text fill="#D9B8FF" font-family="sans-serif" font-size="14" font-weight="bold" lengthAdjust="spacing" textLength="143" x="982" y="1118.9817">internal_mappings</text><text fill="#D9B8FF" font-family="sans-serif" font-size="14" lengthAdjust="spacing" textLength="219" x="1125" y="1118.9817">: azure_vpn_nat_rule_mapping[]</text><text fill="#D9B8FF" font-family="sans-serif" font-size="14" font-weight="bold" lengthAdjust="spacing" textLength="147" x="982" y="1145.2786">ip_configuration_id</text><text fill="#D9B8FF" font-family="sans-serif" font-size="14" lengthAdjust="spacing" textLength="48" x="1129" y="1145.2786">: string</text><text fill="#D9B8FF" font-family="sans-serif" font-size="14" font-weight="bold" lengthAdjust="spacing" textLength="44" x="982" y="1171.5754">mode</text><text fill="#D9B8FF" font-family="sans-serif" font-size="14" lengthAdjust="spacing" textLength="48" x="1026" y="1171.5754">: string</text><text fill="#D9B8FF" font-family="sans-serif" font-size="14" font-weight="bold" lengthAdjust="spacing" textLength="43" x="982" y="1197.8723">name</text><text fill="#D9B8FF" font-family="sans-serif" font-size="14" lengthAdjust="spacing" textLength="48" x="1025" y="1197.8723">: string</text><text fill="#D9B8FF" font-family="sans-serif" font-size="14" font-weight="bold" lengthAdjust="spacing" textLength="144" x="982" y="1224.1692">provisioning_state</text><text fill="#D9B8FF" font-family="sans-serif" font-size="14" lengthAdjust="spacing" textLength="48" x="1126" y="1224.1692">: string</text><text fill="#D9B8FF" font-family="sans-serif" font-size="14" font-weight="bold" lengthAdjust="spacing" textLength="35" x="982" y="1250.4661">type</text><text fill="#D9B8FF" font-family="sans-serif" font-size="14" lengthAdjust="spacing" textLength="48" x="1017" y="1250.4661">: string</text></g><!--class azure_vpn_nat_rule_mapping--><g id="elem_azure_vpn_nat_rule_mapping"><rect codeLine="61" fill="#3D176E" height="100.3828" id="azure_vpn_nat_rule_mapping" rx="2.5" ry="2.5" style="stroke:#000D19;stroke-width:0.5;" width="289" x="1021" y="1349.06"/><ellipse cx="1036" cy="1368.9545" fill="#ADD1B2" rx="11" ry="11" style="stroke:#181818;stroke-width:1.0;"/><path d="M1038.9688,1374.5952 Q1038.3906,1374.892 1037.75,1375.0327 Q1037.1094,1375.1889 1036.4063,1375.1889 Q1033.9063,1375.1889 1032.5781,1373.5483 Q1031.2656,1371.892 1031.2656,1368.767 Q1031.2656,1365.642 1032.5781,1363.9858 Q1033.9063,1362.3295 1036.4063,1362.3295 Q1037.1094,1362.3295 1037.75,1362.4858 Q1038.4063,1362.642 1038.9688,1362.9389 L1038.9688,1365.6577 Q1038.3438,1365.0795 1037.75,1364.8139 Q1037.1563,1364.5327 1036.5313,1364.5327 Q1035.1875,1364.5327 1034.5,1365.6108 Q1033.8125,1366.6733 1033.8125,1368.767 Q1033.8125,1370.8608 1034.5,1371.9389 Q1035.1875,1373.0014 1036.5313,1373.0014 Q1037.1563,1373.0014 1037.75,1372.7358 Q1038.3438,1372.4545 1038.9688,1371.8764 L1038.9688,1374.5952 Z " fill="#000000"/><text fill="#D9B8FF" font-family="Helvetica" font-size="17" lengthAdjust="spacing" textLength="247" x="1055" y="1374.8398">azure_vpn_nat_rule_mapping</text><line style="stroke:#000D19;stroke-width:0.5;" x1="1022" x2="1309" y1="1388.8491" y2="1388.8491"/><text fill="#D9B8FF" font-family="sans-serif" font-size="14" font-weight="bold" lengthAdjust="spacing" textLength="118" x="1032" y="1410.8442">address_space</text><text fill="#D9B8FF" font-family="sans-serif" font-size="14" lengthAdjust="spacing" textLength="48" x="1150" y="1410.8442">: string</text><text fill="#D9B8FF" font-family="sans-serif" font-size="14" font-weight="bold" lengthAdjust="spacing" textLength="86" x="1032" y="1437.1411">port_range</text><text fill="#D9B8FF" font-family="sans-serif" font-size="14" lengthAdjust="spacing" textLength="48" x="1118" y="1437.1411">: string</text></g><!--class gateway--><g id="elem_gateway"><rect codeLine="65" fill="#3D176E" height="39.7891" id="gateway" rx="2.5" ry="2.5" style="stroke:#000D19;stroke-width:0.5;" width="114" x="603.5" y="469.05"/><ellipse cx="618.5" cy="488.9445" fill="#ADD1B2" rx="11" ry="11" style="stroke:#181818;stroke-width:1.0;"/><path d="M621.4688,494.5852 Q620.8906,494.882 620.25,495.0227 Q619.6094,495.1789 618.9063,495.1789 Q616.4063,495.1789 615.0781,493.5383 Q613.7656,491.882 613.7656,488.757 Q613.7656,485.632 615.0781,483.9758 Q616.4063,482.3195 618.9063,482.3195 Q619.6094,482.3195 620.25,482.4758 Q620.9063,482.632 621.4688,482.9289 L621.4688,485.6477 Q620.8438,485.0695 620.25,484.8039 Q619.6563,484.5227 619.0313,484.5227 Q617.6875,484.5227 617,485.6008 Q616.3125,486.6633 616.3125,488.757 Q616.3125,490.8508 617,491.9289 Q617.6875,492.9914 619.0313,492.9914 Q619.6563,492.9914 620.25,492.7258 Q620.8438,492.4445 621.4688,491.8664 L621.4688,494.5852 Z " fill="#000000"/><text fill="#D9B8FF" font-family="Helvetica" font-size="17" lengthAdjust="spacing" textLength="72" x="637.5" y="494.8298">gateway</text></g><!--class microsoft_resource--><g id="elem_microsoft_resource"><rect codeLine="68" fill="#3D176E" height="100.3828" id="microsoft_resource" rx="2.5" ry="2.5" style="stroke:#000D19;stroke-width:0.5;" width="214" x="752.5" y="438.76"/><ellipse cx="773.8" cy="458.6545" fill="#ADD1B2" rx="11" ry="11" style="stroke:#181818;stroke-width:1.0;"/><path d="M776.7688,464.2952 Q776.1906,464.592 775.55,464.7327 Q774.9094,464.8889 774.2063,464.8889 Q771.7063,464.8889 770.3781,463.2483 Q769.0656,461.592 769.0656,458.467 Q769.0656,455.342 770.3781,453.6858 Q771.7063,452.0295 774.2063,452.0295 Q774.9094,452.0295 775.55,452.1858 Q776.2063,452.342 776.7688,452.6389 L776.7688,455.3577 Q776.1438,454.7795 775.55,454.5139 Q774.9563,454.2327 774.3313,454.2327 Q772.9875,454.2327 772.3,455.3108 Q771.6125,456.3733 771.6125,458.467 Q771.6125,460.5608 772.3,461.6389 Q772.9875,462.7014 774.3313,462.7014 Q774.9563,462.7014 775.55,462.4358 Q776.1438,462.1545 776.7688,461.5764 L776.7688,464.2952 Z " fill="#000000"/><text fill="#D9B8FF" font-family="Helvetica" font-size="17" lengthAdjust="spacing" textLength="158" x="794.2" y="464.5398">microsoft_resource</text><line style="stroke:#000D19;stroke-width:0.5;" x1="753.5" x2="965.5" y1="478.5491" y2="478.5491"/><text fill="#D9B8FF" font-family="sans-serif" font-size="14" font-weight="bold" lengthAdjust="spacing" textLength="35" x="763.5" y="500.5442">etag</text><text fill="#D9B8FF" font-family="sans-serif" font-size="14" lengthAdjust="spacing" textLength="48" x="798.5" y="500.5442">: string</text><text fill="#D9B8FF" font-family="sans-serif" font-size="14" font-weight="bold" lengthAdjust="spacing" textLength="144" x="763.5" y="526.8411">provisioning_state</text><text fill="#D9B8FF" font-family="sans-serif" font-size="14" lengthAdjust="spacing" textLength="48" x="907.5" y="526.8411">: string</text></g><!--class resource--><g id="elem_resource"><rect codeLine="72" fill="#3D176E" height="310.7578" id="resource" rx="2.5" ry="2.5" style="stroke:#000D19;stroke-width:0.5;" width="227" x="646" y="7"/><ellipse cx="714.75" cy="26.8945" fill="#ADD1B2" rx="11" ry="11" style="stroke:#181818;stroke-width:1.0;"/><path d="M717.7188,32.5352 Q717.1406,32.832 716.5,32.9727 Q715.8594,33.1289 715.1563,33.1289 Q712.6563,33.1289 711.3281,31.4883 Q710.0156,29.832 710.0156,26.707 Q710.0156,23.582 711.3281,21.9258 Q712.6563,20.2695 715.1563,20.2695 Q715.8594,20.2695 716.5,20.4258 Q717.1563,20.582 717.7188,20.8789 L717.7188,23.5977 Q717.0938,23.0195 716.5,22.7539 Q715.9063,22.4727 715.2813,22.4727 Q713.9375,22.4727 713.25,23.5508 Q712.5625,24.6133 712.5625,26.707 Q712.5625,28.8008 713.25,29.8789 Q713.9375,30.9414 715.2813,30.9414 Q715.9063,30.9414 716.5,30.6758 Q717.0938,30.3945 717.7188,29.8164 L717.7188,32.5352 Z " fill="#000000"/><text fill="#D9B8FF" font-family="Helvetica" font-size="17" lengthAdjust="spacing" textLength="71" x="740.25" y="32.7798">resource</text><line style="stroke:#000D19;stroke-width:0.5;" x1="647" x2="872" y1="46.7891" y2="46.7891"/><text fill="#D9B8FF" font-family="sans-serif" font-size="14" font-weight="bold" lengthAdjust="spacing" textLength="29" x="657" y="68.7842">age</text><text fill="#D9B8FF" font-family="sans-serif" font-size="14" lengthAdjust="spacing" textLength="66" x="686" y="68.7842">: duration</text><text fill="#D9B8FF" font-family="sans-serif" font-size="14" font-weight="bold" lengthAdjust="spacing" textLength="43" x="657" y="95.0811">atime</text><text fill="#D9B8FF" font-family="sans-serif" font-size="14" lengthAdjust="spacing" textLength="70" x="700" y="95.0811">: datetime</text><text fill="#D9B8FF" font-family="sans-serif" font-size="14" font-weight="bold" lengthAdjust="spacing" textLength="43" x="657" y="121.3779">ctime</text><text fill="#D9B8FF" font-family="sans-serif" font-size="14" lengthAdjust="spacing" textLength="70" x="700" y="121.3779">: datetime</text><text fill="#D9B8FF" font-family="sans-serif" font-size="14" font-weight="bold" lengthAdjust="spacing" textLength="14" x="657" y="147.6748">id</text><text fill="#D9B8FF" font-family="sans-serif" font-size="14" lengthAdjust="spacing" textLength="48" x="671" y="147.6748">: string</text><text fill="#D9B8FF" font-family="sans-serif" font-size="14" font-weight="bold" lengthAdjust="spacing" textLength="33" x="657" y="173.9717">kind</text><text fill="#D9B8FF" font-family="sans-serif" font-size="14" lengthAdjust="spacing" textLength="48" x="690" y="173.9717">: string</text><text fill="#D9B8FF" font-family="sans-serif" font-size="14" font-weight="bold" lengthAdjust="spacing" textLength="90" x="657" y="200.2686">last_access</text><text fill="#D9B8FF" font-family="sans-serif" font-size="14" lengthAdjust="spacing" textLength="66" x="747" y="200.2686">: duration</text><text fill="#D9B8FF" font-family="sans-serif" font-size="14" font-weight="bold" lengthAdjust="spacing" textLength="90" x="657" y="226.5654">last_update</text><text fill="#D9B8FF" font-family="sans-serif" font-size="14" lengthAdjust="spacing" textLength="66" x="747" y="226.5654">: duration</text><text fill="#D9B8FF" font-family="sans-serif" font-size="14" font-weight="bold" lengthAdjust="spacing" textLength="48" x="657" y="252.8623">mtime</text><text fill="#D9B8FF" font-family="sans-serif" font-size="14" lengthAdjust="spacing" textLength="70" x="705" y="252.8623">: datetime</text><text fill="#D9B8FF" font-family="sans-serif" font-size="14" font-weight="bold" lengthAdjust="spacing" textLength="43" x="657" y="279.1592">name</text><text fill="#D9B8FF" font-family="sans-serif" font-size="14" lengthAdjust="spacing" textLength="48" x="700" y="279.1592">: string</text><text fill="#D9B8FF" font-family="sans-serif" font-size="14" font-weight="bold" lengthAdjust="spacing" textLength="34" x="657" y="305.4561">tags</text><text fill="#D9B8FF" font-family="sans-serif" font-size="14" lengthAdjust="spacing" textLength="171" x="691" y="305.4561">: dictionary[string, string]</text></g><!--link azure_bgp_settings to azure_ip_configuration_bgp_peering_address--><g id="link_azure_bgp_settings_azure_ip_configuration_bgp_peering_address"><path codeLine="84" d="M277.5,1184.17 C277.5,1226.77 277.5,1273.79 277.5,1316.41 " fill="none" id="azure_bgp_settings-to-azure_ip_configuration_bgp_peering_address" style="stroke:#FFAF37;stroke-width:2.0;"/><polygon fill="#FFAF37" points="277.5,1322.41,281.5,1313.41,277.5,1317.41,273.5,1313.41,277.5,1322.41" style="stroke:#FFAF37;stroke-width:2.0;"/></g><!--link azure_network_virtual_wan_vpn_gateway to azure_bgp_settings--><g id="link_azure_network_virtual_wan_vpn_gateway_azure_bgp_settings"><path codeLine="85" d="M590.58,892.48 C523.55,938.28 453.2842,986.2853 393.3742,1027.2153 " fill="none" id="azure_network_virtual_wan_vpn_gateway-to-azure_bgp_settings" style="stroke:#FFAF37;stroke-width:2.0;"/><polygon fill="#FFAF37" points="388.42,1030.6,398.1077,1028.8258,392.5485,1027.7794,393.5949,1022.2202,388.42,1030.6" style="stroke:#FFAF37;stroke-width:2.0;"/></g><!--link azure_network_virtual_wan_vpn_gateway to azure_vpn_gateway_ip_configuration--><g id="link_azure_network_virtual_wan_vpn_gateway_azure_vpn_gateway_ip_configuration"><path codeLine="86" d="M759.5,892.25 C759.5,943.26 759.5,995.25 759.5,1038 " fill="none" id="azure_network_virtual_wan_vpn_gateway-to-azure_vpn_gateway_ip_configuration" style="stroke:#FFAF37;stroke-width:2.0;"/><polygon fill="#FFAF37" points="759.5,1044,763.5,1035,759.5,1039,755.5,1035,759.5,1044" style="stroke:#FFAF37;stroke-width:2.0;"/></g><!--link azure_network_virtual_wan_vpn_gateway to azure_vpn_gateway_nat_rule--><g id="link_azure_network_virtual_wan_vpn_gateway_azure_vpn_gateway_nat_rule"><path codeLine="87" d="M901.78,892.48 C925.33,911.58 945.4101,927.8704 969.9201,947.7504 " fill="none" id="azure_network_virtual_wan_vpn_gateway-to-azure_vpn_gateway_nat_rule" style="stroke:#FFAF37;stroke-width:2.0;"/><polygon fill="#FFAF37" points="974.58,951.53,970.1099,942.754,970.6968,948.3803,965.0704,948.9672,974.58,951.53" style="stroke:#FFAF37;stroke-width:2.0;"/></g><!--reverse link gateway to azure_network_virtual_wan_vpn_gateway--><g id="link_gateway_azure_network_virtual_wan_vpn_gateway"><path codeLine="88" d="M673.055,526.1038 C683.765,556.9438 699.73,602.92 719.5,659.86 " fill="none" id="gateway-backto-azure_network_virtual_wan_vpn_gateway" style="stroke:#FFAF37;stroke-width:2.0;"/><polygon fill="none" points="667.15,509.1,667.3871,528.0722,678.723,524.1355,667.15,509.1" style="stroke:#FFAF37;stroke-width:2.0;"/></g><!--reverse link microsoft_resource to azure_network_virtual_wan_vpn_gateway--><g id="link_microsoft_resource_azure_network_virtual_wan_vpn_gateway"><path codeLine="89" d="M836.123,556.5957 C824.483,589.7857 814.63,617.88 799.96,659.72 " fill="none" id="microsoft_resource-backto-azure_network_virtual_wan_vpn_gateway" style="stroke:#FFAF37;stroke-width:2.0;"/><polygon fill="none" points="842.08,539.61,830.4611,554.61,841.7849,558.5814,842.08,539.61" style="stroke:#FFAF37;stroke-width:2.0;"/></g><!--link azure_vpn_gateway_nat_rule to azure_vpn_nat_rule_mapping--><g id="link_azure_vpn_gateway_nat_rule_azure_vpn_nat_rule_mapping"><path codeLine="90" d="M1165.5,1263.08 C1165.5,1294.11 1165.5,1318.54 1165.5,1342.64 " fill="none" id="azure_vpn_gateway_nat_rule-to-azure_vpn_nat_rule_mapping" style="stroke:#FFAF37;stroke-width:2.0;"/><polygon fill="#FFAF37" points="1165.5,1348.64,1169.5,1339.64,1165.5,1343.64,1161.5,1339.64,1165.5,1348.64" style="stroke:#FFAF37;stroke-width:2.0;"/></g><!--reverse link resource to gateway--><g id="link_resource_gateway"><path codeLine="91" d="M707.068,335.2767 C688.838,395.0367 675.44,438.95 666.29,468.96 " fill="none" id="resource-backto-gateway" style="stroke:#FFAF37;stroke-width:2.0;"/><polygon fill="none" points="712.32,318.06,701.3291,333.5261,712.8069,337.0274,712.32,318.06" style="stroke:#FFAF37;stroke-width:2.0;"/></g><!--reverse link resource to microsoft_resource--><g id="link_resource_microsoft_resource"><path codeLine="92" d="M812.4599,335.2621 C825.8899,378.8521 834.25,405.98 844.24,438.42 " fill="none" id="resource-backto-microsoft_resource" style="stroke:#FFAF37;stroke-width:2.0;"/><polygon fill="none" points="807.16,318.06,806.7259,337.0287,818.1939,333.4954,807.16,318.06" style="stroke:#FFAF37;stroke-width:2.0;"/></g><!--SRC=[fLLDRzim3BtxLnZeBLY0TjtwCGm3kWB3TYc6TRUY46I9TeJOaY79oT9j_tsK5JUIxAGDTal89xx7HqfU20uvDAtTv0qq1MYJcQMGBTMqoM-qLkjRLIkTdvGbBSylq-GN9UsBW3lQGFuLwXLOmMYA-BaGR2d1cFnjaFfCsRBIgfFSbxUQIeCfa3P0tTRKc1jhjIWw2u4OVbrSbMMAJ8kUdFEpomiOmPJceBUGqzDJVdQTGbwaEjZtC-9UF45-5ffsfooCP8ueUjH1bGuHY1mrEkJtQlnEEHUoojy7iHzUavQWe_ZzWdArTkYIrYQaCHOqABjfuNRK5LnVyV9o4lnj7pXZphgSFdKQI56rn82rI6potzbiHesSpJxaGjgBT_ZNvLi0ZNc2tMZSCPSsraMcyz0ZV7dH4gPaAQfEKokK91FuXqUius9a3Q9Qs1tztqZgQshrBR3EMDNqQJmJgVAwUqOE9Urg-n9Cj36fu57_jfCIwlq5uXOasBNIIx8IsdQq9cigoQgLfA8MrdJJgmydiZCoZ28892rg7yK9Mo3ztQwzn59f8cdlOw5K3LJYYIt5oCM08r0oWdalJC_c_6urbBXfak5S9EuSTXRp3IqkkY8oB2GnZ68JdHGsN3bdoe30DeZkQjYZSaYFZ3xKIkzoCiPMYnN2Wpd6wQwe1PlExYSUrFM4KBbpVTu8PAg5N3fT4jZp68Ar0qkhI0BySYwZeGrjstWtNCs1QqZxUSdZIFqaZ-H8RsNYRACuH069hsNYlLe9WqVTNXcBviKt3D-oWtQdilmpvkT4y7l74Zgb4KzbDLLrTn6VGurWMXbLuY4mgjDiEyzqG0VR68f59QYNmBVEkOWLtXoEnzrlzvfDn1AFyVMF0yXb2MLikwa1Gv_fMhwL5sIQ2PxHhB1fNr7q2qJrvi7dtcmnxY9EV5dcyqz7lEBPwrxBNT7eTJpsyA6tuh-A3OkP3R2FV-Rp-Ui-1Td4sXrp_C1h58jDRq-Mq0q5a_1ONlOF]--></g></svg>