<?xml version="1.0" encoding="us-ascii" standalone="no"?><svg xmlns="http://www.w3.org/2000/svg" xmlns:xlink="http://www.w3.org/1999/xlink" contentStyleType="text/css" height="352px" preserveAspectRatio="none" style="width:2026px;height:352px;" version="1.1" viewBox="0 0 2026 352" width="2026px" zoomAndPan="magnify"><defs/><g><!--class azure_sql_server--><g id="elem_azure_sql_server"><rect codeLine="23" fill="#3D176E" height="39.7891" id="azure_sql_server" rx="2.5" ry="2.5" style="stroke:#000D19;stroke-width:0.5;" width="181" x="750.5" y="7"/><ellipse cx="765.5" cy="26.8945" fill="#ADD1B2" rx="11" ry="11" style="stroke:#181818;stroke-width:1.0;"/><path d="M768.4688,32.5352 Q767.8906,32.832 767.25,32.9727 Q766.6094,33.1289 765.9063,33.1289 Q763.4063,33.1289 762.0781,31.4883 Q760.7656,29.832 760.7656,26.707 Q760.7656,23.582 762.0781,21.9258 Q763.4063,20.2695 765.9063,20.2695 Q766.6094,20.2695 767.25,20.4258 Q767.9063,20.582 768.4688,20.8789 L768.4688,23.5977 Q767.8438,23.0195 767.25,22.7539 Q766.6563,22.4727 766.0313,22.4727 Q764.6875,22.4727 764,23.5508 Q763.3125,24.6133 763.3125,26.707 Q763.3125,28.8008 764,29.8789 Q764.6875,30.9414 766.0313,30.9414 Q766.6563,30.9414 767.25,30.6758 Q767.8438,30.3945 768.4688,29.8164 L768.4688,32.5352 Z " fill="#000000"/><text fill="#D9B8FF" font-family="Helvetica" font-size="17" lengthAdjust="spacing" textLength="139" x="784.5" y="32.7798">azure_sql_server</text></g><!--class azure_sql_server_advisor--><g id="elem_azure_sql_server_advisor"><rect codeLine="26" fill="#3D176E" height="39.7891" id="azure_sql_server_advisor" rx="2.5" ry="2.5" style="stroke:#000D19;stroke-width:0.5;" width="250" x="7" y="306.37"/><ellipse cx="22" cy="326.2645" fill="#ADD1B2" rx="11" ry="11" style="stroke:#181818;stroke-width:1.0;"/><path d="M24.9688,331.9052 Q24.3906,332.202 23.75,332.3427 Q23.1094,332.4989 22.4063,332.4989 Q19.9063,332.4989 18.5781,330.8583 Q17.2656,329.202 17.2656,326.077 Q17.2656,322.952 18.5781,321.2958 Q19.9063,319.6395 22.4063,319.6395 Q23.1094,319.6395 23.75,319.7958 Q24.4063,319.952 24.9688,320.2489 L24.9688,322.9677 Q24.3438,322.3895 23.75,322.1239 Q23.1563,321.8427 22.5313,321.8427 Q21.1875,321.8427 20.5,322.9208 Q19.8125,323.9833 19.8125,326.077 Q19.8125,328.1708 20.5,329.2489 Q21.1875,330.3114 22.5313,330.3114 Q23.1563,330.3114 23.75,330.0458 Q24.3438,329.7645 24.9688,329.1864 L24.9688,331.9052 Z " fill="#000000"/><text fill="#D9B8FF" font-family="Helvetica" font-size="17" lengthAdjust="spacing" textLength="208" x="41" y="332.1498">azure_sql_server_advisor</text></g><!--class azure_sql_server_database--><g id="elem_azure_sql_server_database"><rect codeLine="29" fill="#3D176E" height="39.7891" id="azure_sql_server_database" rx="2.5" ry="2.5" style="stroke:#000D19;stroke-width:0.5;" width="265" x="481.5" y="206.58"/><ellipse cx="496.5" cy="226.4745" fill="#ADD1B2" rx="11" ry="11" style="stroke:#181818;stroke-width:1.0;"/><path d="M499.4688,232.1152 Q498.8906,232.412 498.25,232.5527 Q497.6094,232.7089 496.9063,232.7089 Q494.4063,232.7089 493.0781,231.0683 Q491.7656,229.412 491.7656,226.287 Q491.7656,223.162 493.0781,221.5058 Q494.4063,219.8495 496.9063,219.8495 Q497.6094,219.8495 498.25,220.0058 Q498.9063,220.162 499.4688,220.4589 L499.4688,223.1777 Q498.8438,222.5995 498.25,222.3339 Q497.6563,222.0527 497.0313,222.0527 Q495.6875,222.0527 495,223.1308 Q494.3125,224.1933 494.3125,226.287 Q494.3125,228.3808 495,229.4589 Q495.6875,230.5214 497.0313,230.5214 Q497.6563,230.5214 498.25,230.2558 Q498.8438,229.9745 499.4688,229.3964 L499.4688,232.1152 Z " fill="#000000"/><text fill="#D9B8FF" font-family="Helvetica" font-size="17" lengthAdjust="spacing" textLength="223" x="515.5" y="232.3598">azure_sql_server_database</text></g><!--class azure_sql_server_elastic_pool--><g id="elem_azure_sql_server_elastic_pool"><rect codeLine="32" fill="#3D176E" height="39.7891" id="azure_sql_server_elastic_pool" rx="2.5" ry="2.5" style="stroke:#000D19;stroke-width:0.5;" width="287" x="430.5" y="106.79"/><ellipse cx="445.5" cy="126.6845" fill="#ADD1B2" rx="11" ry="11" style="stroke:#181818;stroke-width:1.0;"/><path d="M448.4688,132.3252 Q447.8906,132.622 447.25,132.7627 Q446.6094,132.9189 445.9063,132.9189 Q443.4063,132.9189 442.0781,131.2783 Q440.7656,129.622 440.7656,126.497 Q440.7656,123.372 442.0781,121.7158 Q443.4063,120.0595 445.9063,120.0595 Q446.6094,120.0595 447.25,120.2158 Q447.9063,120.372 448.4688,120.6689 L448.4688,123.3877 Q447.8438,122.8095 447.25,122.5439 Q446.6563,122.2627 446.0313,122.2627 Q444.6875,122.2627 444,123.3408 Q443.3125,124.4033 443.3125,126.497 Q443.3125,128.5908 444,129.6689 Q444.6875,130.7314 446.0313,130.7314 Q446.6563,130.7314 447.25,130.4658 Q447.8438,130.1845 448.4688,129.6064 L448.4688,132.3252 Z " fill="#000000"/><text fill="#D9B8FF" font-family="Helvetica" font-size="17" lengthAdjust="spacing" textLength="245" x="464.5" y="132.5698">azure_sql_server_elastic_pool</text></g><!--class azure_sql_server_failover_group--><g id="elem_azure_sql_server_failover_group"><rect codeLine="35" fill="#3D176E" height="39.7891" id="azure_sql_server_failover_group" rx="2.5" ry="2.5" style="stroke:#000D19;stroke-width:0.5;" width="310" x="292" y="306.37"/><ellipse cx="307" cy="326.2645" fill="#ADD1B2" rx="11" ry="11" style="stroke:#181818;stroke-width:1.0;"/><path d="M309.9688,331.9052 Q309.3906,332.202 308.75,332.3427 Q308.1094,332.4989 307.4063,332.4989 Q304.9063,332.4989 303.5781,330.8583 Q302.2656,329.202 302.2656,326.077 Q302.2656,322.952 303.5781,321.2958 Q304.9063,319.6395 307.4063,319.6395 Q308.1094,319.6395 308.75,319.7958 Q309.4063,319.952 309.9688,320.2489 L309.9688,322.9677 Q309.3438,322.3895 308.75,322.1239 Q308.1563,321.8427 307.5313,321.8427 Q306.1875,321.8427 305.5,322.9208 Q304.8125,323.9833 304.8125,326.077 Q304.8125,328.1708 305.5,329.2489 Q306.1875,330.3114 307.5313,330.3114 Q308.1563,330.3114 308.75,330.0458 Q309.3438,329.7645 309.9688,329.1864 L309.9688,331.9052 Z " fill="#000000"/><text fill="#D9B8FF" font-family="Helvetica" font-size="17" lengthAdjust="spacing" textLength="268" x="326" y="332.1498">azure_sql_server_failover_group</text></g><!--class azure_sql_server_firewall_rule--><g id="elem_azure_sql_server_firewall_rule"><rect codeLine="38" fill="#3D176E" height="39.7891" id="azure_sql_server_firewall_rule" rx="2.5" ry="2.5" style="stroke:#000D19;stroke-width:0.5;" width="295" x="964.5" y="106.79"/><ellipse cx="979.5" cy="126.6845" fill="#ADD1B2" rx="11" ry="11" style="stroke:#181818;stroke-width:1.0;"/><path d="M982.4688,132.3252 Q981.8906,132.622 981.25,132.7627 Q980.6094,132.9189 979.9063,132.9189 Q977.4063,132.9189 976.0781,131.2783 Q974.7656,129.622 974.7656,126.497 Q974.7656,123.372 976.0781,121.7158 Q977.4063,120.0595 979.9063,120.0595 Q980.6094,120.0595 981.25,120.2158 Q981.9063,120.372 982.4688,120.6689 L982.4688,123.3877 Q981.8438,122.8095 981.25,122.5439 Q980.6563,122.2627 980.0313,122.2627 Q978.6875,122.2627 978,123.3408 Q977.3125,124.4033 977.3125,126.497 Q977.3125,128.5908 978,129.6689 Q978.6875,130.7314 980.0313,130.7314 Q980.6563,130.7314 981.25,130.4658 Q981.8438,130.1845 982.4688,129.6064 L982.4688,132.3252 Z " fill="#000000"/><text fill="#D9B8FF" font-family="Helvetica" font-size="17" lengthAdjust="spacing" textLength="253" x="998.5" y="132.5698">azure_sql_server_firewall_rule</text></g><!--class azure_sql_server_job_agent--><g id="elem_azure_sql_server_job_agent"><rect codeLine="41" fill="#3D176E" height="39.7891" id="azure_sql_server_job_agent" rx="2.5" ry="2.5" style="stroke:#000D19;stroke-width:0.5;" width="272" x="637" y="306.37"/><ellipse cx="652" cy="326.2645" fill="#ADD1B2" rx="11" ry="11" style="stroke:#181818;stroke-width:1.0;"/><path d="M654.9688,331.9052 Q654.3906,332.202 653.75,332.3427 Q653.1094,332.4989 652.4063,332.4989 Q649.9063,332.4989 648.5781,330.8583 Q647.2656,329.202 647.2656,326.077 Q647.2656,322.952 648.5781,321.2958 Q649.9063,319.6395 652.4063,319.6395 Q653.1094,319.6395 653.75,319.7958 Q654.4063,319.952 654.9688,320.2489 L654.9688,322.9677 Q654.3438,322.3895 653.75,322.1239 Q653.1563,321.8427 652.5313,321.8427 Q651.1875,321.8427 650.5,322.9208 Q649.8125,323.9833 649.8125,326.077 Q649.8125,328.1708 650.5,329.2489 Q651.1875,330.3114 652.5313,330.3114 Q653.1563,330.3114 653.75,330.0458 Q654.3438,329.7645 654.9688,329.1864 L654.9688,331.9052 Z " fill="#000000"/><text fill="#D9B8FF" font-family="Helvetica" font-size="17" lengthAdjust="spacing" textLength="230" x="671" y="332.1498">azure_sql_server_job_agent</text></g><!--class azure_sql_server_virtual_network_rule--><g id="elem_azure_sql_server_virtual_network_rule"><rect codeLine="44" fill="#3D176E" height="39.7891" id="azure_sql_server_virtual_network_rule" rx="2.5" ry="2.5" style="stroke:#000D19;stroke-width:0.5;" width="366" x="1294" y="106.79"/><ellipse cx="1309" cy="126.6845" fill="#ADD1B2" rx="11" ry="11" style="stroke:#181818;stroke-width:1.0;"/><path d="M1311.9688,132.3252 Q1311.3906,132.622 1310.75,132.7627 Q1310.1094,132.9189 1309.4063,132.9189 Q1306.9063,132.9189 1305.5781,131.2783 Q1304.2656,129.622 1304.2656,126.497 Q1304.2656,123.372 1305.5781,121.7158 Q1306.9063,120.0595 1309.4063,120.0595 Q1310.1094,120.0595 1310.75,120.2158 Q1311.4063,120.372 1311.9688,120.6689 L1311.9688,123.3877 Q1311.3438,122.8095 1310.75,122.5439 Q1310.1563,122.2627 1309.5313,122.2627 Q1308.1875,122.2627 1307.5,123.3408 Q1306.8125,124.4033 1306.8125,126.497 Q1306.8125,128.5908 1307.5,129.6689 Q1308.1875,130.7314 1309.5313,130.7314 Q1310.1563,130.7314 1310.75,130.4658 Q1311.3438,130.1845 1311.9688,129.6064 L1311.9688,132.3252 Z " fill="#000000"/><text fill="#D9B8FF" font-family="Helvetica" font-size="17" lengthAdjust="spacing" textLength="324" x="1328" y="132.5698">azure_sql_server_virtual_network_rule</text></g><!--class microsoft_graph_service_principal--><g id="elem_microsoft_graph_service_principal"><rect codeLine="47" fill="#3D176E" height="39.7891" id="microsoft_graph_service_principal" rx="2.5" ry="2.5" style="stroke:#000D19;stroke-width:0.5;" width="324" x="1695" y="106.79"/><ellipse cx="1710" cy="126.6845" fill="#ADD1B2" rx="11" ry="11" style="stroke:#181818;stroke-width:1.0;"/><path d="M1712.9688,132.3252 Q1712.3906,132.622 1711.75,132.7627 Q1711.1094,132.9189 1710.4063,132.9189 Q1707.9063,132.9189 1706.5781,131.2783 Q1705.2656,129.622 1705.2656,126.497 Q1705.2656,123.372 1706.5781,121.7158 Q1707.9063,120.0595 1710.4063,120.0595 Q1711.1094,120.0595 1711.75,120.2158 Q1712.4063,120.372 1712.9688,120.6689 L1712.9688,123.3877 Q1712.3438,122.8095 1711.75,122.5439 Q1711.1563,122.2627 1710.5313,122.2627 Q1709.1875,122.2627 1708.5,123.3408 Q1707.8125,124.4033 1707.8125,126.497 Q1707.8125,128.5908 1708.5,129.6689 Q1709.1875,130.7314 1710.5313,130.7314 Q1711.1563,130.7314 1711.75,130.4658 Q1712.3438,130.1845 1712.9688,129.6064 L1712.9688,132.3252 Z " fill="#000000"/><text fill="#D9B8FF" font-family="Helvetica" font-size="17" lengthAdjust="spacing" textLength="282" x="1729" y="132.5698">microsoft_graph_service_principal</text></g><!--class microsoft_graph_user--><g id="elem_microsoft_graph_user"><rect codeLine="50" fill="#3D176E" height="39.7891" id="microsoft_graph_user" rx="2.5" ry="2.5" style="stroke:#000D19;stroke-width:0.5;" width="222" x="944" y="306.37"/><ellipse cx="959" cy="326.2645" fill="#ADD1B2" rx="11" ry="11" style="stroke:#181818;stroke-width:1.0;"/><path d="M961.9688,331.9052 Q961.3906,332.202 960.75,332.3427 Q960.1094,332.4989 959.4063,332.4989 Q956.9063,332.4989 955.5781,330.8583 Q954.2656,329.202 954.2656,326.077 Q954.2656,322.952 955.5781,321.2958 Q956.9063,319.6395 959.4063,319.6395 Q960.1094,319.6395 960.75,319.7958 Q961.4063,319.952 961.9688,320.2489 L961.9688,322.9677 Q961.3438,322.3895 960.75,322.1239 Q960.1563,321.8427 959.5313,321.8427 Q958.1875,321.8427 957.5,322.9208 Q956.8125,323.9833 956.8125,326.077 Q956.8125,328.1708 957.5,329.2489 Q958.1875,330.3114 959.5313,330.3114 Q960.1563,330.3114 960.75,330.0458 Q961.3438,329.7645 961.9688,329.1864 L961.9688,331.9052 Z " fill="#000000"/><text fill="#D9B8FF" font-family="Helvetica" font-size="17" lengthAdjust="spacing" textLength="180" x="978" y="332.1498">microsoft_graph_user</text></g><!--link azure_sql_server to azure_sql_server_advisor--><g id="link_azure_sql_server_azure_sql_server_advisor"><path codeLine="53" d="M750.18,29.64 C655.37,34.59 504.43,51.48 387,106.79 C281.26,156.6 188.608,257.8217 151.728,301.3617 " fill="none" id="azure_sql_server-to-azure_sql_server_advisor" style="stroke:#1A83AF;stroke-width:2.0;"/><polygon fill="#1A83AF" points="147.85,305.94,156.7192,301.6579,151.0817,302.1247,150.6148,296.4872,147.85,305.94" style="stroke:#1A83AF;stroke-width:2.0;"/></g><!--link azure_sql_server to azure_sql_server_database--><g id="link_azure_sql_server_azure_sql_server_database"><path codeLine="54" d="M826.56,46.99 C807.33,71.68 771.46,115.26 735,146.58 C708.08,169.71 679.1356,188.3346 653.9856,203.0846 " fill="none" id="azure_sql_server-to-azure_sql_server_database" style="stroke:#1A83AF;stroke-width:2.0;"/><polygon fill="#1A83AF" points="648.81,206.12,658.5969,205.0173,653.123,203.5905,654.5498,198.1166,648.81,206.12" style="stroke:#1A83AF;stroke-width:2.0;"/></g><!--link azure_sql_server to azure_sql_server_elastic_pool--><g id="link_azure_sql_server_azure_sql_server_elastic_pool"><path codeLine="55" d="M788.25,47.22 C741.44,64.36 679.0541,87.2169 632.2741,104.3469 " fill="none" id="azure_sql_server-to-azure_sql_server_elastic_pool" style="stroke:#1A83AF;stroke-width:2.0;"/><polygon fill="#1A83AF" points="626.64,106.41,636.4666,107.0714,631.3351,104.6907,633.7158,99.5592,626.64,106.41" style="stroke:#1A83AF;stroke-width:2.0;"/></g><!--link azure_sql_server to azure_sql_server_failover_group--><g id="link_azure_sql_server_azure_sql_server_failover_group"><path codeLine="56" d="M750.34,31.45 C637.67,37.98 455.06,56.27 413,106.79 C364.25,165.35 408.5668,259.2385 432.2768,300.7985 " fill="none" id="azure_sql_server-to-azure_sql_server_failover_group" style="stroke:#1A83AF;stroke-width:2.0;"/><polygon fill="#1A83AF" points="435.25,306.01,434.2646,296.2106,432.7723,301.667,427.3159,300.1748,435.25,306.01" style="stroke:#1A83AF;stroke-width:2.0;"/></g><!--link azure_sql_server to azure_sql_server_firewall_rule--><g id="link_azure_sql_server_azure_sql_server_firewall_rule"><path codeLine="57" d="M894.54,47.22 C942.05,64.36 1005.4461,87.2438 1052.9261,104.3738 " fill="none" id="azure_sql_server-to-azure_sql_server_firewall_rule" style="stroke:#1A83AF;stroke-width:2.0;"/><polygon fill="#1A83AF" points="1058.57,106.41,1051.4616,99.593,1053.8667,104.7131,1048.7466,107.1183,1058.57,106.41" style="stroke:#1A83AF;stroke-width:2.0;"/></g><!--link azure_sql_server to azure_sql_server_job_agent--><g id="link_azure_sql_server_azure_sql_server_job_agent"><path codeLine="58" d="M836.64,46.95 C824.39,100.53 791.0569,246.2808 778.7469,300.1408 " fill="none" id="azure_sql_server-to-azure_sql_server_job_agent" style="stroke:#1A83AF;stroke-width:2.0;"/><polygon fill="#1A83AF" points="777.41,305.99,783.3147,298.1075,778.5241,301.1157,775.5158,296.325,777.41,305.99" style="stroke:#1A83AF;stroke-width:2.0;"/></g><!--link azure_sql_server to azure_sql_server_virtual_network_rule--><g id="link_azure_sql_server_azure_sql_server_virtual_network_rule"><path codeLine="59" d="M931.79,41.86 C1041.7,58.76 1221.4897,86.3981 1345.1797,105.4181 " fill="none" id="azure_sql_server-to-azure_sql_server_virtual_network_rule" style="stroke:#1A83AF;stroke-width:2.0;"/><polygon fill="#1A83AF" points="1351.11,106.33,1342.8225,101.0086,1346.1681,105.5701,1341.6066,108.9157,1351.11,106.33" style="stroke:#1A83AF;stroke-width:2.0;"/></g><!--link azure_sql_server to microsoft_graph_service_principal--><g id="link_azure_sql_server_microsoft_graph_service_principal"><path codeLine="60" d="M931.95,36.17 C1085.55,50.2 1406.09,79.79 1677,106.79 C1682.78,107.37 1682.7003,107.358 1688.6503,107.958 " fill="none" id="azure_sql_server-to-microsoft_graph_service_principal" style="stroke:#1A83AF;stroke-width:2.0;"/><polygon fill="#1A83AF" points="1694.62,108.56,1686.0667,103.6772,1689.6452,108.0583,1685.2641,111.6368,1694.62,108.56" style="stroke:#1A83AF;stroke-width:2.0;"/></g><!--link azure_sql_server to microsoft_graph_user--><g id="link_azure_sql_server_microsoft_graph_user"><path codeLine="61" d="M854.71,46.95 C893.27,100.53 998.8653,247.26 1037.6253,301.12 " fill="none" id="azure_sql_server-to-microsoft_graph_user" style="stroke:#1A83AF;stroke-width:2.0;"/><polygon fill="#1A83AF" points="1041.13,305.99,1039.1197,296.3485,1038.2094,301.9316,1032.6263,301.0214,1041.13,305.99" style="stroke:#1A83AF;stroke-width:2.0;"/></g><!--link azure_sql_server_database to azure_sql_server_advisor--><g id="link_azure_sql_server_database_azure_sql_server_advisor"><path codeLine="62" d="M518.48,246.85 C434.09,263.98 317.5402,287.6269 233.2102,304.7369 " fill="none" id="azure_sql_server_database-to-azure_sql_server_advisor" style="stroke:#1A83AF;stroke-width:2.0;"/><polygon fill="#1A83AF" points="227.33,305.93,236.9457,308.0605,232.2302,304.9358,235.3549,300.2203,227.33,305.93" style="stroke:#1A83AF;stroke-width:2.0;"/></g><!--link azure_sql_server_database to azure_sql_server_failover_group--><g id="link_azure_sql_server_database_azure_sql_server_failover_group"><path codeLine="63" d="M581.01,246.8 C551.73,263.94 514.3567,285.8165 485.1067,302.9565 " fill="none" id="azure_sql_server_database-to-azure_sql_server_failover_group" style="stroke:#1A83AF;stroke-width:2.0;"/><polygon fill="#1A83AF" points="479.93,305.99,489.7173,304.8909,484.2439,303.4621,485.6727,297.9887,479.93,305.99" style="stroke:#1A83AF;stroke-width:2.0;"/></g><!--link azure_sql_server_database to azure_sql_server_job_agent--><g id="link_azure_sql_server_database_azure_sql_server_job_agent"><path codeLine="64" d="M645.41,246.8 C673.29,263.94 708.6902,285.7052 736.5402,302.8452 " fill="none" id="azure_sql_server_database-to-azure_sql_server_job_agent" style="stroke:#1A83AF;stroke-width:2.0;"/><polygon fill="#1A83AF" points="741.65,305.99,736.0818,297.8663,737.3918,303.3693,731.8887,304.6794,741.65,305.99" style="stroke:#1A83AF;stroke-width:2.0;"/></g><!--link azure_sql_server_database to microsoft_graph_user--><g id="link_azure_sql_server_database_microsoft_graph_user"><path codeLine="65" d="M701.39,246.85 C778.61,263.98 884.7623,287.5211 961.9223,304.6311 " fill="none" id="azure_sql_server_database-to-microsoft_graph_user" style="stroke:#1A83AF;stroke-width:2.0;"/><polygon fill="#1A83AF" points="967.78,305.93,959.8594,300.0765,962.8986,304.8476,958.1275,307.8867,967.78,305.93" style="stroke:#1A83AF;stroke-width:2.0;"/></g><!--link azure_sql_server_elastic_pool to azure_sql_server_database--><g id="link_azure_sql_server_elastic_pool_azure_sql_server_database"><path codeLine="66" d="M581.9,147.01 C588.92,164.15 596.8415,183.5054 603.8415,200.6454 " fill="none" id="azure_sql_server_elastic_pool-to-azure_sql_server_database" style="stroke:#1A83AF;stroke-width:2.0;"/><polygon fill="#1A83AF" points="606.11,206.2,606.4103,196.3557,604.2196,201.5711,599.0041,199.3804,606.11,206.2" style="stroke:#1A83AF;stroke-width:2.0;"/></g><!--SRC=[dPHDRzf048Rl_XKhSOu4HIrmgKIGelOIHKbkLMMDlREmPRtZpAv1ITN_NZifqMB7QzmRsddU-Nh7xBH4WKNfdqM1HORi4hVNjWI6GgoPwRWXGomcIe6QBzh16x9-4BY50iKtD0VqEeSsyRZJ-TwYS-9J4Bg6VBzbggnyI-yPhAj3Q7r0RGmuj_QUTLPv39gHgsofL9ji9vtCvMpn1JiOiKJ-XqodKpbRjP71Kj6vtua7_O9Y5YxjbZnsskoKUAMYNJP4q6Hdq5EyjySxa5BRhVWSlDs_zSGM-UpzOGUIZWsjmBYmZFF8IFwvn4rdAbmjfLfy27_lWvEyMPs0buenTKycTSY7kflVIVAd9vQ2F6X7SKQ2XmmSHY6id-ijfIMHYO8AjA7cHpD26KSrun6CIRaoyUg_A4jXMzz_b3fezXMOrA8_4kyxQGkTCpbIlkuDojshJEUObgnjhaimCRXofrLt3BZwCPcjb_FrpS-hhxqMZ9MTN1ch2uqQgpttRhGwj7Ei-DtXiSAFJ1_8CNW78_NDQIJzdzN_dSUb-W7FBatJl_-U39SjuUnluyA3_mi0]--></g></svg>