<svg xmlns="http://www.w3.org/2000/svg" width="2952" height="1829" viewBox="0 0 2952 1829"><rect width="412" height="74.086" x="25.5" y="1522.59" fill="#3D176E" rx="2.5" ry="2.5" style="stroke:#000d19;stroke-width:.5"/><circle cx="68.85" cy="1542.485" r="11" fill="#ADD1B2" style="stroke:#181818;stroke-width:1"/><path d="M71.819 1548.125q-.578.297-1.219.438-.64.156-1.344.156-2.5 0-3.828-1.64-1.312-1.657-1.312-4.782t1.312-4.781q1.328-1.657 3.828-1.657.703 0 1.344.157.656.156 1.219.453v2.719q-.625-.579-1.219-.844-.594-.281-1.219-.281-1.344 0-2.031 1.078-.687 1.062-.687 3.156t.687 3.172q.688 1.062 2.031 1.062.625 0 1.219-.265.594-.282 1.219-.86z"/><text x="94.15" y="1548.37" fill="#D9B8FF" font-family="Helvetica" font-size="17" textLength="307">azure_auto_upgrade_policy_resource</text><path d="M26.5 1562.379h410" style="stroke:#000d19;stroke-width:.5"/><text x="36.5" y="1584.374" fill="#D9B8FF" font-family="sans-serif" font-size="14" font-weight="bold" textLength="142">throughput_policy</text><text x="178.5" y="1584.374" fill="#D9B8FF" font-family="sans-serif" font-size="14" textLength="248">: azure_throughput_policy_resource</text><rect width="449" height="126.68" x="7" y="1257.02" fill="#3D176E" rx="2.5" ry="2.5" style="stroke:#000d19;stroke-width:.5"/><circle cx="77.75" cy="1276.915" r="11" fill="#ADD1B2" style="stroke:#181818;stroke-width:1"/><path d="M80.719 1282.555q-.578.297-1.219.438-.64.156-1.344.156-2.5 0-3.828-1.64-1.312-1.657-1.312-4.782t1.312-4.781q1.328-1.656 3.828-1.656.703 0 1.344.156.656.156 1.219.453v2.719q-.625-.578-1.219-.844-.594-.281-1.219-.281-1.344 0-2.031 1.078-.687 1.062-.687 3.156t.687 3.172q.688 1.062 2.031 1.062.625 0 1.219-.265.594-.281 1.219-.86z"/><text x="103.25" y="1282.8" fill="#D9B8FF" font-family="Helvetica" font-size="17" textLength="289">azure_autoscale_settings_resource</text><path d="M8 1296.809h447" style="stroke:#000d19;stroke-width:.5"/><text x="18" y="1318.804" fill="#D9B8FF" font-family="sans-serif" font-size="14" font-weight="bold" textLength="161">auto_upgrade_policy</text><text x="179" y="1318.804" fill="#D9B8FF" font-family="sans-serif" font-size="14" textLength="266">: azure_auto_upgrade_policy_resource</text><text x="18" y="1345.101" fill="#D9B8FF" font-family="sans-serif" font-size="14" font-weight="bold" textLength="128">max_throughput</text><text x="146" y="1345.101" fill="#D9B8FF" font-family="sans-serif" font-size="14" textLength="44">: int64</text><text x="18" y="1371.398" fill="#D9B8FF" font-family="sans-serif" font-size="14" font-weight="bold" textLength="183">target_max_throughput</text><text x="201" y="1371.398" fill="#D9B8FF" font-family="sans-serif" font-size="14" textLength="44">: int64</text><rect width="367" height="152.977" x="521" y="1483.14" fill="#3D176E" rx="2.5" ry="2.5" style="stroke:#000d19;stroke-width:.5"/><circle cx="536" cy="1503.034" r="11" fill="#ADD1B2" style="stroke:#181818;stroke-width:1"/><path d="M538.969 1508.675q-.578.297-1.219.438-.64.156-1.344.156-2.5 0-3.828-1.64-1.312-1.657-1.312-4.782t1.312-4.781q1.328-1.657 3.828-1.657.703 0 1.344.157.656.156 1.219.453v2.719q-.625-.579-1.219-.844-.594-.281-1.219-.281-1.343 0-2.031 1.078-.687 1.062-.687 3.156t.687 3.172q.688 1.062 2.031 1.062.625 0 1.219-.265.594-.282 1.219-.86z"/><text x="555" y="1508.92" fill="#D9B8FF" font-family="Helvetica" font-size="17" textLength="325">azure_client_encryption_included_path</text><path d="M522 1522.929h365" style="stroke:#000d19;stroke-width:.5"/><text x="532" y="1544.924" fill="#D9B8FF" font-family="sans-serif" font-size="14" font-weight="bold" textLength="191">client_encryption_key_id</text><text x="723" y="1544.924" fill="#D9B8FF" font-family="sans-serif" font-size="14" textLength="48">: string</text><text x="532" y="1571.221" fill="#D9B8FF" font-family="sans-serif" font-size="14" font-weight="bold" textLength="166">encryption_algorithm</text><text x="698" y="1571.221" fill="#D9B8FF" font-family="sans-serif" font-size="14" textLength="48">: string</text><text x="532" y="1597.518" fill="#D9B8FF" font-family="sans-serif" font-size="14" font-weight="bold" textLength="127">encryption_type</text><text x="659" y="1597.518" fill="#D9B8FF" font-family="sans-serif" font-size="14" textLength="48">: string</text><text x="532" y="1623.815" fill="#D9B8FF" font-family="sans-serif" font-size="14" font-weight="bold" textLength="35">path</text><text x="567" y="1623.815" fill="#D9B8FF" font-family="sans-serif" font-size="14" textLength="48">: string</text><rect width="426" height="100.383" x="491.5" y="1270.17" fill="#3D176E" rx="2.5" ry="2.5" style="stroke:#000d19;stroke-width:.5"/><circle cx="567.25" cy="1290.064" r="11" fill="#ADD1B2" style="stroke:#181818;stroke-width:1"/><path d="M570.219 1295.705q-.578.297-1.219.438-.64.156-1.344.156-2.5 0-3.828-1.64-1.312-1.657-1.312-4.782t1.312-4.781q1.328-1.657 3.828-1.657.703 0 1.344.157.656.156 1.219.453v2.719q-.625-.579-1.219-.844-.594-.281-1.219-.281-1.343 0-2.031 1.078-.687 1.062-.687 3.156t.687 3.172q.688 1.062 2.031 1.062.625 0 1.219-.265.594-.282 1.219-.86z"/><text x="592.75" y="1295.95" fill="#D9B8FF" font-family="Helvetica" font-size="17" textLength="256">azure_client_encryption_policy</text><path d="M492.5 1309.959h424" style="stroke:#000d19;stroke-width:.5"/><text x="502.5" y="1331.954" fill="#D9B8FF" font-family="sans-serif" font-size="14" font-weight="bold" textLength="118">included_paths</text><text x="620.5" y="1331.954" fill="#D9B8FF" font-family="sans-serif" font-size="14" textLength="286">: azure_client_encryption_included_path[]</text><text x="502.5" y="1358.251" fill="#D9B8FF" font-family="sans-serif" font-size="14" font-weight="bold" textLength="171">policy_format_version</text><text x="673.5" y="1358.251" fill="#D9B8FF" font-family="sans-serif" font-size="14" textLength="44">: int64</text><rect width="229" height="100.383" x="1724" y="1509.44" fill="#3D176E" rx="2.5" ry="2.5" style="stroke:#000d19;stroke-width:.5"/><circle cx="1739" cy="1529.334" r="11" fill="#ADD1B2" style="stroke:#181818;stroke-width:1"/><path d="M1741.969 1534.975q-.578.297-1.219.438-.64.156-1.344.156-2.5 0-3.828-1.64-1.312-1.657-1.312-4.782t1.312-4.781q1.328-1.657 3.828-1.657.703 0 1.344.157.656.156 1.219.453v2.719q-.625-.579-1.219-.844-.594-.281-1.219-.281-1.343 0-2.031 1.078-.687 1.062-.687 3.156t.687 3.172q.688 1.062 2.031 1.062.625 0 1.219-.265.594-.282 1.219-.86z"/><text x="1758" y="1535.22" fill="#D9B8FF" font-family="Helvetica" font-size="17" textLength="187">azure_composite_path</text><path d="M1725 1549.229h227" style="stroke:#000d19;stroke-width:.5"/><text x="1735" y="1571.224" fill="#D9B8FF" font-family="sans-serif" font-size="14" font-weight="bold" textLength="44">order</text><text x="1779" y="1571.224" fill="#D9B8FF" font-family="sans-serif" font-size="14" textLength="48">: string</text><text x="1735" y="1597.521" fill="#D9B8FF" font-family="sans-serif" font-size="14" font-weight="bold" textLength="35">path</text><text x="1770" y="1597.521" fill="#D9B8FF" font-family="sans-serif" font-size="14" textLength="48">: string</text><rect width="260" height="100.383" x="952.5" y="1270.17" fill="#3D176E" rx="2.5" ry="2.5" style="stroke:#000d19;stroke-width:.5"/><circle cx="967.5" cy="1290.064" r="11" fill="#ADD1B2" style="stroke:#181818;stroke-width:1"/><path d="M970.469 1295.705q-.578.297-1.219.438-.64.156-1.344.156-2.5 0-3.828-1.64-1.312-1.657-1.312-4.782t1.312-4.781q1.328-1.657 3.828-1.657.703 0 1.344.157.656.156 1.219.453v2.719q-.625-.579-1.219-.844-.594-.281-1.219-.281-1.343 0-2.031 1.078-.687 1.062-.687 3.156t.687 3.172q.688 1.062 2.031 1.062.625 0 1.219-.265.594-.282 1.219-.86z"/><text x="986.5" y="1295.95" fill="#D9B8FF" font-family="Helvetica" font-size="17" textLength="218">azure_computed_property</text><path d="M953.5 1309.959h258" style="stroke:#000d19;stroke-width:.5"/><text x="963.5" y="1331.954" fill="#D9B8FF" font-family="sans-serif" font-size="14" font-weight="bold" textLength="43">name</text><text x="1006.5" y="1331.954" fill="#D9B8FF" font-family="sans-serif" font-size="14" textLength="48">: string</text><text x="963.5" y="1358.251" fill="#D9B8FF" font-family="sans-serif" font-size="14" font-weight="bold" textLength="46">query</text><text x="1009.5" y="1358.251" fill="#D9B8FF" font-family="sans-serif" font-size="14" textLength="48">: string</text><rect width="307" height="126.68" x="1248" y="1257.02" fill="#3D176E" rx="2.5" ry="2.5" style="stroke:#000d19;stroke-width:.5"/><circle cx="1263" cy="1276.915" r="11" fill="#ADD1B2" style="stroke:#181818;stroke-width:1"/><path d="M1265.969 1282.555q-.578.297-1.219.438-.64.156-1.344.156-2.5 0-3.828-1.64-1.312-1.657-1.312-4.782t1.312-4.781q1.328-1.656 3.828-1.656.703 0 1.344.156.656.156 1.219.453v2.719q-.625-.578-1.219-.844-.594-.281-1.219-.281-1.343 0-2.031 1.078-.687 1.062-.687 3.156t.687 3.172q.688 1.062 2.031 1.062.625 0 1.219-.265.594-.281 1.219-.86z"/><text x="1282" y="1282.8" fill="#D9B8FF" font-family="Helvetica" font-size="17" textLength="265">azure_conflict_resolution_policy</text><path d="M1249 1296.809h305" style="stroke:#000d19;stroke-width:.5"/><text x="1259" y="1318.804" fill="#D9B8FF" font-family="sans-serif" font-size="14" font-weight="bold" textLength="187">conflict_resolution_path</text><text x="1446" y="1318.804" fill="#D9B8FF" font-family="sans-serif" font-size="14" textLength="48">: string</text><text x="1259" y="1345.101" fill="#D9B8FF" font-family="sans-serif" font-size="14" font-weight="bold" textLength="235">conflict_resolution_procedure</text><text x="1494" y="1345.101" fill="#D9B8FF" font-family="sans-serif" font-size="14" textLength="48">: string</text><text x="1259" y="1371.398" fill="#D9B8FF" font-family="sans-serif" font-size="14" font-weight="bold" textLength="44">mode</text><text x="1303" y="1371.398" fill="#D9B8FF" font-family="sans-serif" font-size="14" textLength="48">: string</text><rect width="296" height="152.977" x="1590.5" y="1243.87" fill="#3D176E" rx="2.5" ry="2.5" style="stroke:#000d19;stroke-width:.5"/><circle cx="1605.5" cy="1263.764" r="11" fill="#ADD1B2" style="stroke:#181818;stroke-width:1"/><path d="M1608.469 1269.405q-.578.297-1.219.438-.64.156-1.344.156-2.5 0-3.828-1.64-1.312-1.657-1.312-4.782t1.312-4.781q1.328-1.657 3.828-1.657.703 0 1.344.157.656.156 1.219.453v2.719q-.625-.579-1.219-.844-.594-.281-1.219-.281-1.343 0-2.031 1.078-.687 1.062-.687 3.156t.687 3.172q.688 1.062 2.031 1.062.625 0 1.219-.265.594-.282 1.219-.86z"/><text x="1624.5" y="1269.65" fill="#D9B8FF" font-family="Helvetica" font-size="17" textLength="254">azure_container_partition_key</text><path d="M1591.5 1283.659h294" style="stroke:#000d19;stroke-width:.5"/><text x="1601.5" y="1305.654" fill="#D9B8FF" font-family="sans-serif" font-size="14" font-weight="bold" textLength="44">paths</text><text x="1645.5" y="1305.654" fill="#D9B8FF" font-family="sans-serif" font-size="14" textLength="58">: string[]</text><text x="1601.5" y="1331.951" fill="#D9B8FF" font-family="sans-serif" font-size="14" font-weight="bold" textLength="112">resource_kind</text><text x="1713.5" y="1331.951" fill="#D9B8FF" font-family="sans-serif" font-size="14" textLength="48">: string</text><text x="1601.5" y="1358.248" fill="#D9B8FF" font-family="sans-serif" font-size="14" font-weight="bold" textLength="92">system_key</text><text x="1693.5" y="1358.248" fill="#D9B8FF" font-family="sans-serif" font-size="14" textLength="65">: boolean</text><text x="1601.5" y="1384.545" fill="#D9B8FF" font-family="sans-serif" font-size="14" font-weight="bold" textLength="59">version</text><text x="1660.5" y="1384.545" fill="#D9B8FF" font-family="sans-serif" font-size="14" textLength="44">: int64</text><rect width="448" height="100.383" x="1156.5" y="660.14" fill="#3D176E" rx="2.5" ry="2.5" style="stroke:#000d19;stroke-width:.5"/><circle cx="1197.15" cy="680.034" r="11" fill="#ADD1B2" style="stroke:#181818;stroke-width:1"/><path d="M1200.119 685.675q-.578.297-1.219.438-.64.156-1.344.156-2.5 0-3.828-1.64-1.312-1.657-1.312-4.782t1.312-4.781q1.328-1.657 3.828-1.657.703 0 1.344.157.656.156 1.219.453v2.719q-.625-.579-1.219-.844-.594-.281-1.219-.281-1.343 0-2.031 1.078-.687 1.062-.687 3.156t.687 3.172q.688 1.062 2.031 1.062.625 0 1.219-.265.594-.282 1.219-.86z"/><text x="1221.85" y="685.92" fill="#D9B8FF" font-family="Helvetica" font-size="17" textLength="349">azure_cosmos_db_sql_database_container</text><path d="M1157.5 699.929h446" style="stroke:#000d19;stroke-width:.5"/><text x="1167.5" y="721.924" fill="#D9B8FF" font-family="sans-serif" font-size="14" font-weight="bold" textLength="184">sql_database_container</text><text x="1351.5" y="721.924" fill="#D9B8FF" font-family="sans-serif" font-size="14" textLength="147">: azure_sql_container</text><text x="1167.5" y="748.221" fill="#D9B8FF" font-family="sans-serif" font-size="14" font-weight="bold" textLength="250">sql_database_container_options</text><text x="1417.5" y="748.221" fill="#D9B8FF" font-family="sans-serif" font-size="14" textLength="176">: azure_options_resource</text><rect width="214" height="100.383" x="1988.5" y="1509.44" fill="#3D176E" rx="2.5" ry="2.5" style="stroke:#000d19;stroke-width:.5"/><circle cx="2003.5" cy="1529.334" r="11" fill="#ADD1B2" style="stroke:#181818;stroke-width:1"/><path d="M2006.469 1534.975q-.578.297-1.219.438-.64.156-1.344.156-2.5 0-3.828-1.64-1.312-1.657-1.312-4.782t1.312-4.781q1.328-1.657 3.828-1.657.703 0 1.344.157.656.156 1.219.453v2.719q-.625-.579-1.219-.844-.594-.281-1.219-.281-1.343 0-2.031 1.078-.687 1.062-.687 3.156t.687 3.172q.688 1.062 2.031 1.062.625 0 1.219-.265.594-.282 1.219-.86z"/><text x="2022.5" y="1535.22" fill="#D9B8FF" font-family="Helvetica" font-size="17" textLength="172">azure_included_path</text><path d="M1989.5 1549.229h212" style="stroke:#000d19;stroke-width:.5"/><text x="1999.5" y="1571.224" fill="#D9B8FF" font-family="sans-serif" font-size="14" font-weight="bold" textLength="62">indexes</text><text x="2061.5" y="1571.224" fill="#D9B8FF" font-family="sans-serif" font-size="14" textLength="119">: azure_indexes[]</text><text x="1999.5" y="1597.521" fill="#D9B8FF" font-family="sans-serif" font-size="14" font-weight="bold" textLength="35">path</text><text x="2034.5" y="1597.521" fill="#D9B8FF" font-family="sans-serif" font-size="14" textLength="48">: string</text><rect width="182" height="126.68" x="2004.5" y="1696.12" fill="#3D176E" rx="2.5" ry="2.5" style="stroke:#000d19;stroke-width:.5"/><circle cx="2028.95" cy="1716.014" r="11" fill="#ADD1B2" style="stroke:#181818;stroke-width:1"/><path d="M2031.919 1721.655q-.578.297-1.219.438-.64.156-1.344.156-2.5 0-3.828-1.64-1.312-1.657-1.312-4.782t1.312-4.781q1.328-1.657 3.828-1.657.703 0 1.344.157.656.156 1.219.453v2.719q-.625-.579-1.219-.844-.594-.281-1.219-.281-1.343 0-2.031 1.078-.687 1.062-.687 3.156t.687 3.172q.688 1.062 2.031 1.062.625 0 1.219-.265.594-.282 1.219-.86z"/><text x="2050.05" y="1721.9" fill="#D9B8FF" font-family="Helvetica" font-size="17" textLength="119">azure_indexes</text><path d="M2005.5 1735.909h180" style="stroke:#000d19;stroke-width:.5"/><text x="2015.5" y="1757.904" fill="#D9B8FF" font-family="sans-serif" font-size="14" font-weight="bold" textLength="76">data_type</text><text x="2091.5" y="1757.904" fill="#D9B8FF" font-family="sans-serif" font-size="14" textLength="48">: string</text><text x="2015.5" y="1784.201" fill="#D9B8FF" font-family="sans-serif" font-size="14" font-weight="bold" textLength="73">precision</text><text x="2088.5" y="1784.201" fill="#D9B8FF" font-family="sans-serif" font-size="14" textLength="44">: int64</text><text x="2015.5" y="1810.498" fill="#D9B8FF" font-family="sans-serif" font-size="14" font-weight="bold" textLength="112">resource_kind</text><text x="2127.5" y="1810.498" fill="#D9B8FF" font-family="sans-serif" font-size="14" textLength="48">: string</text><rect width="349" height="205.57" x="1921" y="1217.57" fill="#3D176E" rx="2.5" ry="2.5" style="stroke:#000d19;stroke-width:.5"/><circle cx="1994.25" cy="1237.465" r="11" fill="#ADD1B2" style="stroke:#181818;stroke-width:1"/><path d="M1997.219 1243.105q-.578.297-1.219.438-.64.156-1.344.156-2.5 0-3.828-1.64-1.312-1.657-1.312-4.782t1.312-4.781q1.328-1.657 3.828-1.657.703 0 1.344.157.656.156 1.219.453v2.719q-.625-.578-1.219-.844-.594-.281-1.219-.281-1.343 0-2.031 1.078-.687 1.062-.687 3.156t.687 3.172q.688 1.062 2.031 1.062.625 0 1.219-.265.594-.282 1.219-.86z"/><text x="2019.75" y="1243.35" fill="#D9B8FF" font-family="Helvetica" font-size="17" textLength="184">azure_indexing_policy</text><path d="M1922 1257.359h347" style="stroke:#000d19;stroke-width:.5"/><text x="1932" y="1279.354" fill="#D9B8FF" font-family="sans-serif" font-size="14" font-weight="bold" textLength="77">automatic</text><text x="2009" y="1279.354" fill="#D9B8FF" font-family="sans-serif" font-size="14" textLength="65">: boolean</text><text x="1932" y="1305.651" fill="#D9B8FF" font-family="sans-serif" font-size="14" font-weight="bold" textLength="151">composite_indexes</text><text x="2083" y="1305.651" fill="#D9B8FF" font-family="sans-serif" font-size="14" textLength="176">: azure_composite_path[]</text><text x="1932" y="1331.948" fill="#D9B8FF" font-family="sans-serif" font-size="14" font-weight="bold" textLength="123">excluded_paths</text><text x="2055" y="1331.948" fill="#D9B8FF" font-family="sans-serif" font-size="14" textLength="58">: string[]</text><text x="1932" y="1358.245" fill="#D9B8FF" font-family="sans-serif" font-size="14" font-weight="bold" textLength="118">included_paths</text><text x="2050" y="1358.245" fill="#D9B8FF" font-family="sans-serif" font-size="14" textLength="162">: azure_included_path[]</text><text x="1932" y="1384.542" fill="#D9B8FF" font-family="sans-serif" font-size="14" font-weight="bold" textLength="118">indexing_mode</text><text x="2050" y="1384.542" fill="#D9B8FF" font-family="sans-serif" font-size="14" textLength="48">: string</text><text x="1932" y="1410.839" fill="#D9B8FF" font-family="sans-serif" font-size="14" font-weight="bold" textLength="120">spatial_indexes</text><text x="2052" y="1410.839" fill="#D9B8FF" font-family="sans-serif" font-size="14" textLength="150">: azure_spatial_spec[]</text><rect width="238" height="100.383" x="1073.5" y="938.85" fill="#3D176E" rx="2.5" ry="2.5" style="stroke:#000d19;stroke-width:.5"/><circle cx="1088.5" cy="958.745" r="11" fill="#ADD1B2" style="stroke:#181818;stroke-width:1"/><path d="M1091.469 964.385q-.578.297-1.219.438-.64.156-1.344.156-2.5 0-3.828-1.64-1.312-1.657-1.312-4.782t1.312-4.781q1.328-1.656 3.828-1.656.703 0 1.344.156.656.156 1.219.453v2.719q-.625-.578-1.219-.844-.594-.281-1.219-.281-1.343 0-2.031 1.078-.687 1.062-.687 3.156t.687 3.172q.688 1.062 2.031 1.062.625 0 1.219-.265.594-.281 1.219-.86z"/><text x="1107.5" y="964.63" fill="#D9B8FF" font-family="Helvetica" font-size="17" textLength="196">azure_options_resource</text><path d="M1074.5 978.639h236" style="stroke:#000d19;stroke-width:.5"/><text x="1084.5" y="1000.634" fill="#D9B8FF" font-family="sans-serif" font-size="14" font-weight="bold" textLength="147">autoscale_settings</text><text x="1231.5" y="1000.634" fill="#D9B8FF" font-family="sans-serif" font-size="14" textLength="44">: int64</text><text x="1084.5" y="1026.931" fill="#D9B8FF" font-family="sans-serif" font-size="14" font-weight="bold" textLength="89">throughput</text><text x="1173.5" y="1026.931" fill="#D9B8FF" font-family="sans-serif" font-size="14" textLength="44">: int64</text><rect width="341" height="39.789" x="2305" y="1300.46" fill="#3D176E" rx="2.5" ry="2.5" style="stroke:#000d19;stroke-width:.5"/><circle cx="2320" cy="1320.354" r="11" fill="#ADD1B2" style="stroke:#181818;stroke-width:1"/><path d="M2322.969 1325.995q-.578.297-1.219.438-.64.156-1.344.156-2.5 0-3.828-1.64-1.312-1.657-1.312-4.782t1.312-4.781q1.328-1.657 3.828-1.657.703 0 1.344.157.656.156 1.219.453v2.719q-.625-.579-1.219-.844-.594-.281-1.219-.281-1.343 0-2.031 1.078-.687 1.062-.687 3.156t.687 3.172q.688 1.062 2.031 1.062.625 0 1.219-.265.594-.282 1.219-.86z"/><text x="2339" y="1326.24" fill="#D9B8FF" font-family="Helvetica" font-size="17" textLength="299">azure_resource_restore_parameters</text><rect width="197" height="100.383" x="2237" y="1509.44" fill="#3D176E" rx="2.5" ry="2.5" style="stroke:#000d19;stroke-width:.5"/><circle cx="2252" cy="1529.334" r="11" fill="#ADD1B2" style="stroke:#181818;stroke-width:1"/><path d="M2254.969 1534.975q-.578.297-1.219.438-.64.156-1.344.156-2.5 0-3.828-1.64-1.312-1.657-1.312-4.782t1.312-4.781q1.328-1.657 3.828-1.657.703 0 1.344.157.656.156 1.219.453v2.719q-.625-.579-1.219-.844-.594-.281-1.219-.281-1.343 0-2.031 1.078-.687 1.062-.687 3.156t.687 3.172q.688 1.062 2.031 1.062.625 0 1.219-.265.594-.282 1.219-.86z"/><text x="2271" y="1535.22" fill="#D9B8FF" font-family="Helvetica" font-size="17" textLength="155">azure_spatial_spec</text><path d="M2238 1549.229h195" style="stroke:#000d19;stroke-width:.5"/><text x="2248" y="1571.224" fill="#D9B8FF" font-family="sans-serif" font-size="14" font-weight="bold" textLength="35">path</text><text x="2283" y="1571.224" fill="#D9B8FF" font-family="sans-serif" font-size="14" textLength="48">: string</text><text x="2248" y="1597.521" fill="#D9B8FF" font-family="sans-serif" font-size="14" font-weight="bold" textLength="44">types</text><text x="2292" y="1597.521" fill="#D9B8FF" font-family="sans-serif" font-size="14" textLength="58">: string[]</text><rect width="446" height="337.055" x="1346.5" y="820.52" fill="#3D176E" rx="2.5" ry="2.5" style="stroke:#000d19;stroke-width:.5"/><circle cx="1477.25" cy="840.414" r="11" fill="#ADD1B2" style="stroke:#181818;stroke-width:1"/><path d="M1480.219 846.055q-.578.297-1.219.438-.64.156-1.344.156-2.5 0-3.828-1.64-1.312-1.657-1.312-4.782t1.312-4.781q1.328-1.657 3.828-1.657.703 0 1.344.157.656.156 1.219.453v2.719q-.625-.579-1.219-.844-.594-.281-1.219-.281-1.343 0-2.031 1.078-.687 1.062-.687 3.156t.687 3.172q.688 1.062 2.031 1.062.625 0 1.219-.265.594-.282 1.219-.86z"/><text x="1502.75" y="846.3" fill="#D9B8FF" font-family="Helvetica" font-size="17" textLength="166">azure_sql_container</text><path d="M1347.5 860.309h444" style="stroke:#000d19;stroke-width:.5"/><text x="1357.5" y="882.304" fill="#D9B8FF" font-family="sans-serif" font-size="14" font-weight="bold" textLength="164">analytical_storage_ttl</text><text x="1521.5" y="882.304" fill="#D9B8FF" font-family="sans-serif" font-size="14" textLength="44">: int64</text><text x="1357.5" y="908.601" fill="#D9B8FF" font-family="sans-serif" font-size="14" font-weight="bold" textLength="188">client_encryption_policy</text><text x="1545.5" y="908.601" fill="#D9B8FF" font-family="sans-serif" font-size="14" textLength="218">: azure_client_encryption_policy</text><text x="1357.5" y="934.898" fill="#D9B8FF" font-family="sans-serif" font-size="14" font-weight="bold" textLength="169">computed_properties</text><text x="1526.5" y="934.898" fill="#D9B8FF" font-family="sans-serif" font-size="14" textLength="201">: azure_computed_property[]</text><text x="1357.5" y="961.195" fill="#D9B8FF" font-family="sans-serif" font-size="14" font-weight="bold" textLength="198">conflict_resolution_policy</text><text x="1555.5" y="961.195" fill="#D9B8FF" font-family="sans-serif" font-size="14" textLength="226">: azure_conflict_resolution_policy</text><text x="1357.5" y="987.492" fill="#D9B8FF" font-family="sans-serif" font-size="14" font-weight="bold" textLength="102">create_mode</text><text x="1459.5" y="987.492" fill="#D9B8FF" font-family="sans-serif" font-size="14" textLength="48">: string</text><text x="1357.5" y="1013.789" fill="#D9B8FF" font-family="sans-serif" font-size="14" font-weight="bold" textLength="78">default_ttl</text><text x="1435.5" y="1013.789" fill="#D9B8FF" font-family="sans-serif" font-size="14" textLength="44">: int64</text><text x="1357.5" y="1040.085" fill="#D9B8FF" font-family="sans-serif" font-size="14" font-weight="bold" textLength="14">id</text><text x="1371.5" y="1040.085" fill="#D9B8FF" font-family="sans-serif" font-size="14" textLength="48">: string</text><text x="1357.5" y="1066.382" fill="#D9B8FF" font-family="sans-serif" font-size="14" font-weight="bold" textLength="120">indexing_policy</text><text x="1477.5" y="1066.382" fill="#D9B8FF" font-family="sans-serif" font-size="14" textLength="159">: azure_indexing_policy</text><text x="1357.5" y="1092.679" fill="#D9B8FF" font-family="sans-serif" font-size="14" font-weight="bold" textLength="101">partition_key</text><text x="1458.5" y="1092.679" fill="#D9B8FF" font-family="sans-serif" font-size="14" textLength="214">: azure_container_partition_key</text><text x="1357.5" y="1118.976" fill="#D9B8FF" font-family="sans-serif" font-size="14" font-weight="bold" textLength="157">restore_parameters</text><text x="1514.5" y="1118.976" fill="#D9B8FF" font-family="sans-serif" font-size="14" textLength="260">: azure_resource_restore_parameters</text><text x="1357.5" y="1145.273" fill="#D9B8FF" font-family="sans-serif" font-size="14" font-weight="bold" textLength="142">unique_key_policy</text><text x="1499.5" y="1145.273" fill="#D9B8FF" font-family="sans-serif" font-size="14" textLength="180">: azure_unique_key_policy</text><rect width="329" height="100.383" x="67" y="1709.27" fill="#3D176E" rx="2.5" ry="2.5" style="stroke:#000d19;stroke-width:.5"/><circle cx="82" cy="1729.165" r="11" fill="#ADD1B2" style="stroke:#181818;stroke-width:1"/><path d="M84.969 1734.805q-.578.297-1.219.438-.64.156-1.344.156-2.5 0-3.828-1.64-1.312-1.657-1.312-4.782t1.312-4.781q1.328-1.656 3.828-1.656.703 0 1.344.156.656.156 1.219.453v2.719q-.625-.578-1.219-.844-.594-.281-1.219-.281-1.344 0-2.031 1.078-.687 1.062-.687 3.156t.687 3.172q.688 1.062 2.031 1.062.625 0 1.219-.265.594-.281 1.219-.86z"/><text x="101" y="1735.05" fill="#D9B8FF" font-family="Helvetica" font-size="17" textLength="287">azure_throughput_policy_resource</text><path d="M68 1749.059h327" style="stroke:#000d19;stroke-width:.5"/><text x="78" y="1771.054" fill="#D9B8FF" font-family="sans-serif" font-size="14" font-weight="bold" textLength="149">increment_percent</text><text x="227" y="1771.054" fill="#D9B8FF" font-family="sans-serif" font-size="14" textLength="44">: int64</text><text x="78" y="1797.351" fill="#D9B8FF" font-family="sans-serif" font-size="14" font-weight="bold" textLength="83">is_enabled</text><text x="161" y="1797.351" fill="#D9B8FF" font-family="sans-serif" font-size="14" textLength="65">: boolean</text><rect width="194" height="74.086" x="2716.5" y="1522.59" fill="#3D176E" rx="2.5" ry="2.5" style="stroke:#000d19;stroke-width:.5"/><circle cx="2731.5" cy="1542.485" r="11" fill="#ADD1B2" style="stroke:#181818;stroke-width:1"/><path d="M2734.469 1548.125q-.578.297-1.219.438-.64.156-1.344.156-2.5 0-3.828-1.64-1.312-1.657-1.312-4.782t1.312-4.781q1.328-1.657 3.828-1.657.703 0 1.344.157.656.156 1.219.453v2.719q-.625-.579-1.219-.844-.594-.281-1.219-.281-1.343 0-2.031 1.078-.687 1.062-.687 3.156t.687 3.172q.688 1.062 2.031 1.062.625 0 1.219-.265.594-.282 1.219-.86z"/><text x="2750.5" y="1548.37" fill="#D9B8FF" font-family="Helvetica" font-size="17" textLength="152">azure_unique_key</text><path d="M2717.5 1562.379h192" style="stroke:#000d19;stroke-width:.5"/><text x="2727.5" y="1584.374" fill="#D9B8FF" font-family="sans-serif" font-size="14" font-weight="bold" textLength="44">paths</text><text x="2771.5" y="1584.374" fill="#D9B8FF" font-family="sans-serif" font-size="14" textLength="58">: string[]</text><rect width="264" height="74.086" x="2681.5" y="1283.32" fill="#3D176E" rx="2.5" ry="2.5" style="stroke:#000d19;stroke-width:.5"/><circle cx="2702.35" cy="1303.215" r="11" fill="#ADD1B2" style="stroke:#181818;stroke-width:1"/><path d="M2705.319 1308.855q-.578.297-1.219.438-.64.156-1.344.156-2.5 0-3.828-1.64-1.312-1.657-1.312-4.782t1.312-4.781q1.328-1.657 3.828-1.657.703 0 1.344.157.656.156 1.219.453v2.719q-.625-.578-1.219-.844-.594-.281-1.219-.281-1.343 0-2.031 1.078-.687 1.062-.687 3.156t.687 3.172q.688 1.062 2.031 1.062.625 0 1.219-.265.594-.282 1.219-.86z"/><text x="2722.65" y="1309.1" fill="#D9B8FF" font-family="Helvetica" font-size="17" textLength="209">azure_unique_key_policy</text><path d="M2682.5 1323.109h262" style="stroke:#000d19;stroke-width:.5"/><text x="2692.5" y="1345.104" fill="#D9B8FF" font-family="sans-serif" font-size="14" font-weight="bold" textLength="98">unique_keys</text><text x="2790.5" y="1345.104" fill="#D9B8FF" font-family="sans-serif" font-size="14" textLength="144">: azure_unique_key[]</text><rect width="214" height="100.383" x="1273.5" y="438.75" fill="#3D176E" rx="2.5" ry="2.5" style="stroke:#000d19;stroke-width:.5"/><circle cx="1294.8" cy="458.644" r="11" fill="#ADD1B2" style="stroke:#181818;stroke-width:1"/><path d="M1297.769 464.285q-.578.297-1.219.438-.64.156-1.344.156-2.5 0-3.828-1.64-1.312-1.657-1.312-4.782t1.312-4.781q1.328-1.656 3.828-1.656.703 0 1.344.156.656.156 1.219.453v2.719q-.625-.579-1.219-.844-.594-.281-1.219-.281-1.343 0-2.031 1.078-.687 1.062-.687 3.156t.687 3.172q.688 1.062 2.031 1.062.625 0 1.219-.265.594-.281 1.219-.86z"/><text x="1315.2" y="464.53" fill="#D9B8FF" font-family="Helvetica" font-size="17" textLength="158">microsoft_resource</text><path d="M1274.5 478.539h212" style="stroke:#000d19;stroke-width:.5"/><text x="1284.5" y="500.534" fill="#D9B8FF" font-family="sans-serif" font-size="14" font-weight="bold" textLength="35">etag</text><text x="1319.5" y="500.534" fill="#D9B8FF" font-family="sans-serif" font-size="14" textLength="48">: string</text><text x="1284.5" y="526.831" fill="#D9B8FF" font-family="sans-serif" font-size="14" font-weight="bold" textLength="144">provisioning_state</text><text x="1428.5" y="526.831" fill="#D9B8FF" font-family="sans-serif" font-size="14" textLength="48">: string</text><rect width="227" height="310.758" x="1267" y="7" fill="#3D176E" rx="2.5" ry="2.5" style="stroke:#000d19;stroke-width:.5"/><circle cx="1335.75" cy="26.895" r="11" fill="#ADD1B2" style="stroke:#181818;stroke-width:1"/><path d="M1338.719 32.535q-.578.297-1.219.438-.64.156-1.344.156-2.5 0-3.828-1.64-1.312-1.657-1.312-4.782t1.312-4.781q1.328-1.656 3.828-1.656.703 0 1.344.156.656.156 1.219.453v2.719q-.625-.578-1.219-.844-.594-.281-1.219-.281-1.343 0-2.031 1.078-.687 1.062-.687 3.156t.687 3.172q.688 1.062 2.031 1.062.625 0 1.219-.265.594-.281 1.219-.86z"/><text x="1361.25" y="32.78" fill="#D9B8FF" font-family="Helvetica" font-size="17" textLength="71">resource</text><path d="M1268 46.789h225" style="stroke:#000d19;stroke-width:.5"/><text x="1278" y="68.784" fill="#D9B8FF" font-family="sans-serif" font-size="14" font-weight="bold" textLength="29">age</text><text x="1307" y="68.784" fill="#D9B8FF" font-family="sans-serif" font-size="14" textLength="66">: duration</text><text x="1278" y="95.081" fill="#D9B8FF" font-family="sans-serif" font-size="14" font-weight="bold" textLength="43">atime</text><text x="1321" y="95.081" fill="#D9B8FF" font-family="sans-serif" font-size="14" textLength="70">: datetime</text><text x="1278" y="121.378" fill="#D9B8FF" font-family="sans-serif" font-size="14" font-weight="bold" textLength="43">ctime</text><text x="1321" y="121.378" fill="#D9B8FF" font-family="sans-serif" font-size="14" textLength="70">: datetime</text><text x="1278" y="147.675" fill="#D9B8FF" font-family="sans-serif" font-size="14" font-weight="bold" textLength="14">id</text><text x="1292" y="147.675" fill="#D9B8FF" font-family="sans-serif" font-size="14" textLength="48">: string</text><text x="1278" y="173.972" fill="#D9B8FF" font-family="sans-serif" font-size="14" font-weight="bold" textLength="33">kind</text><text x="1311" y="173.972" fill="#D9B8FF" font-family="sans-serif" font-size="14" textLength="48">: string</text><text x="1278" y="200.269" fill="#D9B8FF" font-family="sans-serif" font-size="14" font-weight="bold" textLength="90">last_access</text><text x="1368" y="200.269" fill="#D9B8FF" font-family="sans-serif" font-size="14" textLength="66">: duration</text><text x="1278" y="226.565" fill="#D9B8FF" font-family="sans-serif" font-size="14" font-weight="bold" textLength="90">last_update</text><text x="1368" y="226.565" fill="#D9B8FF" font-family="sans-serif" font-size="14" textLength="66">: duration</text><text x="1278" y="252.862" fill="#D9B8FF" font-family="sans-serif" font-size="14" font-weight="bold" textLength="48">mtime</text><text x="1326" y="252.862" fill="#D9B8FF" font-family="sans-serif" font-size="14" textLength="70">: datetime</text><text x="1278" y="279.159" fill="#D9B8FF" font-family="sans-serif" font-size="14" font-weight="bold" textLength="43">name</text><text x="1321" y="279.159" fill="#D9B8FF" font-family="sans-serif" font-size="14" textLength="48">: string</text><text x="1278" y="305.456" fill="#D9B8FF" font-family="sans-serif" font-size="14" font-weight="bold" textLength="34">tags</text><text x="1312" y="305.456" fill="#D9B8FF" font-family="sans-serif" font-size="14" textLength="171">: dictionary[string, string]</text><path fill="none" d="M231.5 1596.92v106.07" style="stroke:#ffaf37;stroke-width:2"/><path fill="#FFAF37" d="m231.5 1708.99 4-9-4 4-4-4z" style="stroke:#ffaf37;stroke-width:2"/><path fill="none" d="M231.5 1384.01v132.25" style="stroke:#ffaf37;stroke-width:2"/><path fill="#FFAF37" d="m231.5 1522.26 4-9-4 4-4-4z" style="stroke:#ffaf37;stroke-width:2"/><path fill="none" d="M704.5 1370.81v106.26" style="stroke:#ffaf37;stroke-width:2"/><path fill="#FFAF37" d="m704.5 1483.07 4-9-4 4-4-4z" style="stroke:#ffaf37;stroke-width:2"/><path fill="none" d="M1346.89 760.8c-34.11 50.21-83.259 122.547-117.379 172.777" style="stroke:#ffaf37;stroke-width:2"/><path fill="#FFAF37" d="m1226.14 938.54 8.366-5.197-5.557 1.061-1.06-5.556z" style="stroke:#ffaf37;stroke-width:2"/><path fill="none" d="M1414.29 760.8c11.84 17.33 22.495 32.936 37.225 54.496" style="stroke:#ffaf37;stroke-width:2"/><path fill="#FFAF37" d="m1454.9 820.25-1.774-9.688-1.047 5.56-5.559-1.047z" style="stroke:#ffaf37;stroke-width:2"/><path fill="none" d="M1380.5 557.45V660m0-120.55-6 18h12zm715 1070.85v79.33" style="stroke:#ffaf37;stroke-width:2"/><path fill="#FFAF37" d="m2095.5 1695.63 4-9-4 4-4-4z" style="stroke:#ffaf37;stroke-width:2"/><path fill="none" d="M1985.02 1423.36c-32.25 29.77-61.62 56.89-88.62 81.81" style="stroke:#ffaf37;stroke-width:2"/><path fill="#FFAF37" d="m1891.99 1509.24 9.326-3.165-5.652-.226.227-5.652z" style="stroke:#ffaf37;stroke-width:2"/><path fill="none" d="M2095.5 1423.36v79.88" style="stroke:#ffaf37;stroke-width:2"/><path fill="#FFAF37" d="m2095.5 1509.24 4-9-4 4-4-4z" style="stroke:#ffaf37;stroke-width:2"/><path fill="none" d="M2198.67 1423.36c30.11 29.77 57.404 56.741 82.604 81.661" style="stroke:#ffaf37;stroke-width:2"/><path fill="#FFAF37" d="m2285.54 1509.24-3.587-9.172.032 5.656-5.657.032z" style="stroke:#ffaf37;stroke-width:2"/><path fill="none" d="M1346.34 1151.11c-5.59 2.31-11.21 4.47-16.84 6.46-359.59 127.08-485.02-28.45-856 60-38.35 9.15-72.883 21.395-109.123 36.705" style="stroke:#ffaf37;stroke-width:2"/><path fill="#FFAF37" d="m358.85 1256.61 9.847.182-5.241-2.128 2.128-5.241z" style="stroke:#ffaf37;stroke-width:2"/><path fill="none" d="M1346.11 1150.5c-5.53 2.49-11.07 4.86-16.61 7.07-164.48 65.75-223.92 10.53-394 60-45.34 13.19-88.002 30.775-128.502 49.655" style="stroke:#ffaf37;stroke-width:2"/><path fill="#FFAF37" d="m801.56 1269.76 9.847-.177-5.315-1.936 1.935-5.315z" style="stroke:#ffaf37;stroke-width:2"/><path fill="none" d="M1346.26 1146.58c-5.63 3.72-11.22 7.39-16.76 10.99-43.12 28.08-55.79 32.08-99 60-25.67 16.59-48.436 31.976-72.856 48.876" style="stroke:#ffaf37;stroke-width:2"/><path fill="#FFAF37" d="m1152.71 1269.86 9.677-1.832-5.566-1.013 1.013-5.566z" style="stroke:#ffaf37;stroke-width:2"/><path fill="none" d="M1484.02 1157.6c-18.07 35.43-33.334 65.335-47.874 93.845" style="stroke:#ffaf37;stroke-width:2"/><path fill="#FFAF37" d="m1433.42 1256.79 7.652-6.2-5.38 1.746-1.746-5.38z" style="stroke:#ffaf37;stroke-width:2"/><path fill="none" d="M1655.49 1157.6c15.49 30.19 28.17 54.913 41.45 80.773" style="stroke:#ffaf37;stroke-width:2"/><path fill="#FFAF37" d="m1699.68 1243.71-.553-9.833-1.731 5.385-5.386-1.73z" style="stroke:#ffaf37;stroke-width:2"/><path fill="none" d="M1792.95 1129.94c46.73 29.26 90.074 56.396 134.134 83.976" style="stroke:#ffaf37;stroke-width:2"/><path fill="#FFAF37" d="m1932.17 1217.1-5.506-8.166 1.268 5.513-5.513 1.268z" style="stroke:#ffaf37;stroke-width:2"/><path fill="none" d="M1792.99 1049.04c143.71 40.81 333.08 99.98 494.51 168.53 57.22 24.3 114.91 57.285 151.51 79.325" style="stroke:#ffaf37;stroke-width:2"/><path fill="#FFAF37" d="m2444.15 1299.99-5.647-8.07 1.364 5.49-5.49 1.364z" style="stroke:#ffaf37;stroke-width:2"/><path fill="none" d="M1792.95 1010.72c226.62 26.82 583.84 85.42 870.55 206.85 38.69 16.39 73.07 39.694 101.66 61.764" style="stroke:#ffaf37;stroke-width:2"/><path fill="#FFAF37" d="m2769.91 1283-4.68-8.666.722 5.61-5.61.723z" style="stroke:#ffaf37;stroke-width:2"/><path fill="none" d="M2813.5 1357.65v158.69" style="stroke:#ffaf37;stroke-width:2"/><path fill="#FFAF37" d="m2813.5 1522.34 4-9-4 4-4-4z" style="stroke:#ffaf37;stroke-width:2"/><path fill="none" d="M1380.5 336.05v102.37m0-120.37-6 18h12z" style="stroke:#ffaf37;stroke-width:2"/></svg>