<svg xmlns="http://www.w3.org/2000/svg" width="6763" height="551" viewBox="0 0 6763 551"><rect width="179" height="39.789" x="2545.96" y="106.78" fill="#3D176E" rx="2.5" ry="2.5" style="stroke:#000d19;stroke-width:.5"/><circle cx="2560.96" cy="126.674" r="11" fill="#ADD1B2" style="stroke:#181818;stroke-width:1"/><path d="M2563.929 132.315q-.578.297-1.219.438-.64.156-1.344.156-2.5 0-3.828-1.64-1.312-1.657-1.312-4.782t1.312-4.781q1.328-1.657 3.828-1.657.703 0 1.344.157.656.156 1.219.453v2.719q-.625-.579-1.219-.844-.594-.281-1.219-.281-1.343 0-2.031 1.078-.687 1.062-.687 3.156t.687 3.172q.688 1.062 2.031 1.062.625 0 1.219-.265.594-.281 1.219-.86z"/><text x="2579.96" y="132.56" fill="#D9B8FF" font-family="Helvetica" font-size="17" textLength="137">azure_key_vault</text><rect width="385" height="39.789" x="3892.96" y="406.15" fill="#3D176E" rx="2.5" ry="2.5" style="stroke:#000d19;stroke-width:.5"/><circle cx="3907.96" cy="426.045" r="11" fill="#ADD1B2" style="stroke:#181818;stroke-width:1"/><path d="M3910.929 431.685q-.578.297-1.219.438-.64.156-1.344.156-2.5 0-3.828-1.64-1.312-1.657-1.312-4.782t1.312-4.781q1.328-1.656 3.828-1.656.703 0 1.344.156.656.156 1.219.453v2.719q-.625-.578-1.219-.844-.594-.281-1.219-.281-1.343 0-2.031 1.078-.687 1.062-.687 3.156t.687 3.172q.688 1.062 2.031 1.062.625 0 1.219-.265.594-.281 1.219-.86z"/><text x="3926.96" y="431.93" fill="#D9B8FF" font-family="Helvetica" font-size="17" textLength="343">azure_machine_learning_batch_endpoint</text><rect width="329" height="39.789" x="1946.96" y="306.36" fill="#3D176E" rx="2.5" ry="2.5" style="stroke:#000d19;stroke-width:.5"/><circle cx="1961.96" cy="326.255" r="11" fill="#ADD1B2" style="stroke:#181818;stroke-width:1"/><path d="M1964.929 331.895q-.578.297-1.219.438-.64.156-1.344.156-2.5 0-3.828-1.64-1.312-1.657-1.312-4.782t1.312-4.781q1.328-1.656 3.828-1.656.703 0 1.344.156.656.156 1.219.453v2.719q-.625-.579-1.219-.844-.594-.281-1.219-.281-1.343 0-2.031 1.078-.687 1.062-.687 3.156t.687 3.172q.688 1.062 2.031 1.062.625 0 1.219-.265.594-.281 1.219-.86z"/><text x="1980.96" y="332.14" fill="#D9B8FF" font-family="Helvetica" font-size="17" textLength="287">azure_machine_learning_compute</text><rect width="335" height="39.789" x="206.96" y="306.36" fill="#3D176E" rx="2.5" ry="2.5" style="stroke:#000d19;stroke-width:.5"/><circle cx="221.96" cy="326.255" r="11" fill="#ADD1B2" style="stroke:#181818;stroke-width:1"/><path d="M224.929 331.895q-.578.297-1.219.438-.64.156-1.344.156-2.5 0-3.828-1.64-1.312-1.657-1.312-4.782t1.312-4.781q1.328-1.656 3.828-1.656.703 0 1.344.156.656.156 1.219.453v2.719q-.625-.579-1.219-.844-.594-.281-1.219-.281-1.344 0-2.031 1.078-.687 1.062-.687 3.156t.687 3.172q.688 1.062 2.031 1.062.625 0 1.219-.265.594-.281 1.219-.86z"/><text x="240.96" y="332.14" fill="#D9B8FF" font-family="Helvetica" font-size="17" textLength="293">azure_machine_learning_datastore</text><rect width="330" height="39.789" x="576.46" y="306.36" fill="#3D176E" rx="2.5" ry="2.5" style="stroke:#000d19;stroke-width:.5"/><circle cx="591.46" cy="326.255" r="11" fill="#ADD1B2" style="stroke:#181818;stroke-width:1"/><path d="M594.429 331.895q-.578.297-1.219.438-.64.156-1.344.156-2.5 0-3.828-1.64-1.312-1.657-1.312-4.782t1.312-4.781q1.328-1.656 3.828-1.656.703 0 1.344.156.656.156 1.219.453v2.719q-.625-.579-1.219-.844-.594-.281-1.219-.281-1.343 0-2.031 1.078-.687 1.062-.687 3.156t.687 3.172q.688 1.062 2.031 1.062.625 0 1.219-.265.594-.281 1.219-.86z"/><text x="610.46" y="332.14" fill="#D9B8FF" font-family="Helvetica" font-size="17" textLength="288">azure_machine_learning_endpoint</text><rect width="430" height="39.789" x="941.46" y="306.36" fill="#3D176E" rx="2.5" ry="2.5" style="stroke:#000d19;stroke-width:.5"/><circle cx="956.46" cy="326.255" r="11" fill="#ADD1B2" style="stroke:#181818;stroke-width:1"/><path d="M959.429 331.895q-.578.297-1.219.438-.64.156-1.344.156-2.5 0-3.828-1.64-1.312-1.657-1.312-4.782t1.312-4.781q1.328-1.656 3.828-1.656.703 0 1.344.156.656.156 1.219.453v2.719q-.625-.579-1.219-.844-.594-.281-1.219-.281-1.343 0-2.031 1.078-.687 1.062-.687 3.156t.687 3.172q.688 1.062 2.031 1.062.625 0 1.219-.265.594-.281 1.219-.86z"/><text x="975.46" y="332.14" fill="#D9B8FF" font-family="Helvetica" font-size="17" textLength="388">azure_machine_learning_featureset_container</text><rect width="506" height="39.789" x="1406.46" y="306.36" fill="#3D176E" rx="2.5" ry="2.5" style="stroke:#000d19;stroke-width:.5"/><circle cx="1421.46" cy="326.255" r="11" fill="#ADD1B2" style="stroke:#181818;stroke-width:1"/><path d="M1424.429 331.895q-.578.297-1.219.438-.64.156-1.344.156-2.5 0-3.828-1.64-1.312-1.657-1.312-4.782t1.312-4.781q1.328-1.656 3.828-1.656.703 0 1.344.156.656.156 1.219.453v2.719q-.625-.579-1.219-.844-.594-.281-1.219-.281-1.343 0-2.031 1.078-.687 1.062-.687 3.156t.687 3.172q.688 1.062 2.031 1.062.625 0 1.219-.265.594-.281 1.219-.86z"/><text x="1440.46" y="332.14" fill="#D9B8FF" font-family="Helvetica" font-size="17" textLength="464">azure_machine_learning_featurestore_entity_container</text><rect width="281" height="39.789" x="930.96" y="406.15" fill="#3D176E" rx="2.5" ry="2.5" style="stroke:#000d19;stroke-width:.5"/><circle cx="945.96" cy="426.045" r="11" fill="#ADD1B2" style="stroke:#181818;stroke-width:1"/><path d="M948.929 431.685q-.578.297-1.219.438-.64.156-1.344.156-2.5 0-3.828-1.64-1.312-1.657-1.312-4.782t1.312-4.781q1.328-1.656 3.828-1.656.703 0 1.344.156.656.156 1.219.453v2.719q-.625-.578-1.219-.844-.594-.281-1.219-.281-1.343 0-2.031 1.078-.687 1.062-.687 3.156t.687 3.172q.688 1.062 2.031 1.062.625 0 1.219-.265.594-.281 1.219-.86z"/><text x="964.96" y="431.93" fill="#D9B8FF" font-family="Helvetica" font-size="17" textLength="239">azure_machine_learning_job</text><rect width="356" height="39.789" x="2310.46" y="306.36" fill="#3D176E" rx="2.5" ry="2.5" style="stroke:#000d19;stroke-width:.5"/><circle cx="2325.46" cy="326.255" r="11" fill="#ADD1B2" style="stroke:#181818;stroke-width:1"/><path d="M2328.429 331.895q-.578.297-1.219.438-.64.156-1.344.156-2.5 0-3.828-1.64-1.312-1.657-1.312-4.782t1.312-4.781q1.328-1.656 3.828-1.656.703 0 1.344.156.656.156 1.219.453v2.719q-.625-.579-1.219-.844-.594-.281-1.219-.281-1.343 0-2.031 1.078-.687 1.062-.687 3.156t.687 3.172q.688 1.062 2.031 1.062.625 0 1.219-.265.594-.281 1.219-.86z"/><text x="2344.46" y="332.14" fill="#D9B8FF" font-family="Helvetica" font-size="17" textLength="314">azure_machine_learning_labeling_job</text><rect width="391" height="39.789" x="2014.96" y="406.15" fill="#3D176E" rx="2.5" ry="2.5" style="stroke:#000d19;stroke-width:.5"/><circle cx="2029.96" cy="426.045" r="11" fill="#ADD1B2" style="stroke:#181818;stroke-width:1"/><path d="M2032.929 431.685q-.578.297-1.219.438-.64.156-1.344.156-2.5 0-3.828-1.64-1.312-1.657-1.312-4.782t1.312-4.781q1.328-1.656 3.828-1.656.703 0 1.344.156.656.156 1.219.453v2.719q-.625-.578-1.219-.844-.594-.281-1.219-.281-1.343 0-2.031 1.078-.687 1.062-.687 3.156t.687 3.172q.688 1.062 2.031 1.062.625 0 1.219-.265.594-.281 1.219-.86z"/><text x="2048.96" y="431.93" fill="#D9B8FF" font-family="Helvetica" font-size="17" textLength="349">azure_machine_learning_online_endpoint</text><rect width="498" height="39.789" x="2441.46" y="406.15" fill="#3D176E" rx="2.5" ry="2.5" style="stroke:#000d19;stroke-width:.5"/><circle cx="2456.46" cy="426.045" r="11" fill="#ADD1B2" style="stroke:#181818;stroke-width:1"/><path d="M2459.429 431.685q-.578.297-1.219.438-.64.156-1.344.156-2.5 0-3.828-1.64-1.312-1.657-1.312-4.782t1.312-4.781q1.328-1.656 3.828-1.656.703 0 1.344.156.656.156 1.219.453v2.719q-.625-.578-1.219-.844-.594-.281-1.219-.281-1.343 0-2.031 1.078-.687 1.062-.687 3.156t.687 3.172q.688 1.062 2.031 1.062.625 0 1.219-.265.594-.281 1.219-.86z"/><text x="2475.46" y="431.93" fill="#D9B8FF" font-family="Helvetica" font-size="17" textLength="456">azure_machine_learning_private_endpoint_connection</text><rect width="355" height="39.789" x="2974.96" y="406.15" fill="#3D176E" rx="2.5" ry="2.5" style="stroke:#000d19;stroke-width:.5"/><circle cx="2989.96" cy="426.045" r="11" fill="#ADD1B2" style="stroke:#181818;stroke-width:1"/><path d="M2992.929 431.685q-.578.297-1.219.438-.64.156-1.344.156-2.5 0-3.828-1.64-1.312-1.657-1.312-4.782t1.312-4.781q1.328-1.656 3.828-1.656.703 0 1.344.156.656.156 1.219.453v2.719q-.625-.578-1.219-.844-.594-.281-1.219-.281-1.343 0-2.031 1.078-.687 1.062-.687 3.156t.687 3.172q.688 1.062 2.031 1.062.625 0 1.219-.265.594-.281 1.219-.86z"/><text x="3008.96" y="431.93" fill="#D9B8FF" font-family="Helvetica" font-size="17" textLength="313">azure_machine_learning_private_link</text><rect width="329" height="39.789" x="2913.96" y="306.36" fill="#3D176E" rx="2.5" ry="2.5" style="stroke:#000d19;stroke-width:.5"/><circle cx="2928.96" cy="326.255" r="11" fill="#ADD1B2" style="stroke:#181818;stroke-width:1"/><path d="M2931.929 331.895q-.578.297-1.219.438-.64.156-1.344.156-2.5 0-3.828-1.64-1.312-1.657-1.312-4.782t1.312-4.781q1.328-1.656 3.828-1.656.703 0 1.344.156.656.156 1.219.453v2.719q-.625-.579-1.219-.844-.594-.281-1.219-.281-1.343 0-2.031 1.078-.687 1.062-.687 3.156t.687 3.172q.688 1.062 2.031 1.062.625 0 1.219-.265.594-.281 1.219-.86z"/><text x="2947.96" y="332.14" fill="#D9B8FF" font-family="Helvetica" font-size="17" textLength="287">azure_machine_learning_schedule</text><rect width="422" height="39.789" x="3365.46" y="406.15" fill="#3D176E" rx="2.5" ry="2.5" style="stroke:#000d19;stroke-width:.5"/><circle cx="3380.46" cy="426.045" r="11" fill="#ADD1B2" style="stroke:#181818;stroke-width:1"/><path d="M3383.429 431.685q-.578.297-1.219.438-.64.156-1.344.156-2.5 0-3.828-1.64-1.312-1.657-1.312-4.782t1.312-4.781q1.328-1.656 3.828-1.656.703 0 1.344.156.656.156 1.219.453v2.719q-.625-.578-1.219-.844-.594-.281-1.219-.281-1.343 0-2.031 1.078-.687 1.062-.687 3.156t.687 3.172q.688 1.062 2.031 1.062.625 0 1.219-.265.594-.281 1.219-.86z"/><text x="3399.46" y="431.93" fill="#D9B8FF" font-family="Helvetica" font-size="17" textLength="380">azure_machine_learning_serverless_endpoint</text><rect width="344" height="39.789" x="2689.46" y="206.57" fill="#3D176E" rx="2.5" ry="2.5" style="stroke:#000d19;stroke-width:.5"/><circle cx="2704.46" cy="226.464" r="11" fill="#ADD1B2" style="stroke:#181818;stroke-width:1"/><path d="M2707.429 232.105q-.578.297-1.219.438-.64.156-1.344.156-2.5 0-3.828-1.64-1.312-1.657-1.312-4.782t1.312-4.781q1.328-1.657 3.828-1.657.703 0 1.344.157.656.156 1.219.453v2.719q-.625-.579-1.219-.844-.594-.281-1.219-.281-1.343 0-2.031 1.078-.687 1.062-.687 3.156t.687 3.172q.688 1.062 2.031 1.062.625 0 1.219-.265.594-.282 1.219-.86z"/><text x="2723.46" y="232.35" fill="#D9B8FF" font-family="Helvetica" font-size="17" textLength="302">azure_machine_learning_workspace</text><rect width="479" height="39.789" x="3348.96" y="306.36" fill="#3D176E" rx="2.5" ry="2.5" style="stroke:#000d19;stroke-width:.5"/><circle cx="3363.96" cy="326.255" r="11" fill="#ADD1B2" style="stroke:#181818;stroke-width:1"/><path d="M3366.929 331.895q-.578.297-1.219.438-.64.156-1.344.156-2.5 0-3.828-1.64-1.312-1.657-1.312-4.782t1.312-4.781q1.328-1.656 3.828-1.656.703 0 1.344.156.656.156 1.219.453v2.719q-.625-.579-1.219-.844-.594-.281-1.219-.281-1.343 0-2.031 1.078-.687 1.062-.687 3.156t.687 3.172q.688 1.062 2.031 1.062.625 0 1.219-.265.594-.281 1.219-.86z"/><text x="3382.96" y="332.14" fill="#D9B8FF" font-family="Helvetica" font-size="17" textLength="437">azure_machine_learning_workspace_code_container</text><rect width="535" height="39.789" x="3862.96" y="306.36" fill="#3D176E" rx="2.5" ry="2.5" style="stroke:#000d19;stroke-width:.5"/><circle cx="3877.96" cy="326.255" r="11" fill="#ADD1B2" style="stroke:#181818;stroke-width:1"/><path d="M3880.929 331.895q-.578.297-1.219.438-.64.156-1.344.156-2.5 0-3.828-1.64-1.312-1.657-1.312-4.782t1.312-4.781q1.328-1.656 3.828-1.656.703 0 1.344.156.656.156 1.219.453v2.719q-.625-.579-1.219-.844-.594-.281-1.219-.281-1.343 0-2.031 1.078-.687 1.062-.687 3.156t.687 3.172q.688 1.062 2.031 1.062.625 0 1.219-.265.594-.281 1.219-.86z"/><text x="3896.96" y="332.14" fill="#D9B8FF" font-family="Helvetica" font-size="17" textLength="493">azure_machine_learning_workspace_component_container</text><rect width="444" height="39.789" x="4433.46" y="306.36" fill="#3D176E" rx="2.5" ry="2.5" style="stroke:#000d19;stroke-width:.5"/><circle cx="4448.46" cy="326.255" r="11" fill="#ADD1B2" style="stroke:#181818;stroke-width:1"/><path d="M4451.429 331.895q-.578.297-1.219.438-.64.156-1.344.156-2.5 0-3.828-1.64-1.312-1.657-1.312-4.782t1.312-4.781q1.328-1.656 3.828-1.656.703 0 1.344.156.656.156 1.219.453v2.719q-.625-.579-1.219-.844-.594-.281-1.219-.281-1.343 0-2.031 1.078-.687 1.062-.687 3.156t.687 3.172q.688 1.062 2.031 1.062.625 0 1.219-.265.594-.281 1.219-.86z"/><text x="4467.46" y="332.14" fill="#D9B8FF" font-family="Helvetica" font-size="17" textLength="402">azure_machine_learning_workspace_connection</text><rect width="478" height="39.789" x="4912.46" y="306.36" fill="#3D176E" rx="2.5" ry="2.5" style="stroke:#000d19;stroke-width:.5"/><circle cx="4927.46" cy="326.255" r="11" fill="#ADD1B2" style="stroke:#181818;stroke-width:1"/><path d="M4930.429 331.895q-.578.297-1.219.438-.64.156-1.344.156-2.5 0-3.828-1.64-1.312-1.657-1.312-4.782t1.312-4.781q1.328-1.656 3.828-1.656.703 0 1.344.156.656.156 1.219.453v2.719q-.625-.579-1.219-.844-.594-.281-1.219-.281-1.343 0-2.031 1.078-.687 1.062-.687 3.156t.687 3.172q.688 1.062 2.031 1.062.625 0 1.219-.265.594-.281 1.219-.86z"/><text x="4946.46" y="332.14" fill="#D9B8FF" font-family="Helvetica" font-size="17" textLength="436">azure_machine_learning_workspace_data_container</text><rect width="550" height="39.789" x="5425.46" y="306.36" fill="#3D176E" rx="2.5" ry="2.5" style="stroke:#000d19;stroke-width:.5"/><circle cx="5440.46" cy="326.255" r="11" fill="#ADD1B2" style="stroke:#181818;stroke-width:1"/><path d="M5443.429 331.895q-.578.297-1.219.438-.64.156-1.344.156-2.5 0-3.828-1.64-1.312-1.657-1.312-4.782t1.312-4.781q1.328-1.656 3.828-1.656.703 0 1.344.156.656.156 1.219.453v2.719q-.625-.579-1.219-.844-.594-.281-1.219-.281-1.343 0-2.031 1.078-.687 1.062-.687 3.156t.687 3.172q.688 1.062 2.031 1.062.625 0 1.219-.265.594-.281 1.219-.86z"/><text x="5459.46" y="332.14" fill="#D9B8FF" font-family="Helvetica" font-size="17" textLength="508">azure_machine_learning_workspace_environment_container</text><rect width="493" height="39.789" x="6009.96" y="306.36" fill="#3D176E" rx="2.5" ry="2.5" style="stroke:#000d19;stroke-width:.5"/><circle cx="6024.96" cy="326.255" r="11" fill="#ADD1B2" style="stroke:#181818;stroke-width:1"/><path d="M6027.929 331.895q-.578.297-1.219.438-.64.156-1.344.156-2.5 0-3.828-1.64-1.312-1.657-1.312-4.782t1.312-4.781q1.328-1.656 3.828-1.656.703 0 1.344.156.656.156 1.219.453v2.719q-.625-.579-1.219-.844-.594-.281-1.219-.281-1.343 0-2.031 1.078-.687 1.062-.687 3.156t.687 3.172q.688 1.062 2.031 1.062.625 0 1.219-.265.594-.281 1.219-.86z"/><text x="6043.96" y="332.14" fill="#D9B8FF" font-family="Helvetica" font-size="17" textLength="451">azure_machine_learning_workspace_model_container</text><rect width="233" height="39.789" x="2829.96" y="106.78" fill="#3D176E" rx="2.5" ry="2.5" style="stroke:#000d19;stroke-width:.5"/><circle cx="2844.96" cy="126.674" r="11" fill="#ADD1B2" style="stroke:#181818;stroke-width:1"/><path d="M2847.929 132.315q-.578.297-1.219.438-.64.156-1.344.156-2.5 0-3.828-1.64-1.312-1.657-1.312-4.782t1.312-4.781q1.328-1.657 3.828-1.657.703 0 1.344.157.656.156 1.219.453v2.719q-.625-.579-1.219-.844-.594-.281-1.219-.281-1.343 0-2.031 1.078-.687 1.062-.687 3.156t.687 3.172q.688 1.062 2.031 1.062.625 0 1.219-.265.594-.281 1.219-.86z"/><text x="2863.96" y="132.56" fill="#D9B8FF" font-family="Helvetica" font-size="17" textLength="191">azure_network_subnet</text><rect width="310" height="39.789" x="2706.46" y="7" fill="#3D176E" rx="2.5" ry="2.5" style="stroke:#000d19;stroke-width:.5"/><circle cx="2721.46" cy="26.895" r="11" fill="#ADD1B2" style="stroke:#181818;stroke-width:1"/><path d="M2724.429 32.535q-.578.297-1.219.438-.64.156-1.344.156-2.5 0-3.828-1.64-1.312-1.657-1.312-4.782t1.312-4.781q1.328-1.656 3.828-1.656.703 0 1.344.156.656.156 1.219.453v2.719q-.625-.578-1.219-.844-.594-.281-1.219-.281-1.343 0-2.031 1.078-.687 1.062-.687 3.156t.687 3.172q.688 1.062 2.031 1.062.625 0 1.219-.265.594-.281 1.219-.86z"/><text x="2740.46" y="32.78" fill="#D9B8FF" font-family="Helvetica" font-size="17" textLength="268">azure_network_virtual_network</text><rect width="233" height="39.789" x="3097.96" y="106.78" fill="#3D176E" rx="2.5" ry="2.5" style="stroke:#000d19;stroke-width:.5"/><circle cx="3112.96" cy="126.674" r="11" fill="#ADD1B2" style="stroke:#181818;stroke-width:1"/><path d="M3115.929 132.315q-.578.297-1.219.438-.64.156-1.344.156-2.5 0-3.828-1.64-1.312-1.657-1.312-4.782t1.312-4.781q1.328-1.657 3.828-1.657.703 0 1.344.157.656.156 1.219.453v2.719q-.625-.579-1.219-.844-.594-.281-1.219-.281-1.343 0-2.031 1.078-.687 1.062-.687 3.156t.687 3.172q.688 1.062 2.031 1.062.625 0 1.219-.265.594-.281 1.219-.86z"/><text x="3131.96" y="132.56" fill="#D9B8FF" font-family="Helvetica" font-size="17" textLength="191">azure_storage_account</text><rect width="324" height="39.789" x="2528.46" y="505.94" fill="#3D176E" rx="2.5" ry="2.5" style="stroke:#000d19;stroke-width:.5"/><circle cx="2543.46" cy="525.835" r="11" fill="#ADD1B2" style="stroke:#181818;stroke-width:1"/><path d="M2546.429 531.475q-.578.297-1.219.438-.64.156-1.344.156-2.5 0-3.828-1.64-1.312-1.657-1.312-4.782t1.312-4.781q1.328-1.656 3.828-1.656.703 0 1.344.156.656.156 1.219.453v2.719q-.625-.578-1.219-.844-.594-.281-1.219-.281-1.343 0-2.031 1.078-.687 1.062-.687 3.156t.687 3.172q.688 1.062 2.031 1.062.625 0 1.219-.265.594-.281 1.219-.86z"/><text x="2562.46" y="531.72" fill="#D9B8FF" font-family="Helvetica" font-size="17" textLength="282">microsoft_graph_service_principal</text><rect width="222" height="39.789" x="3465.46" y="505.94" fill="#3D176E" rx="2.5" ry="2.5" style="stroke:#000d19;stroke-width:.5"/><circle cx="3480.46" cy="525.835" r="11" fill="#ADD1B2" style="stroke:#181818;stroke-width:1"/><path d="M3483.429 531.475q-.578.297-1.219.438-.64.156-1.344.156-2.5 0-3.828-1.64-1.312-1.657-1.312-4.782t1.312-4.781q1.328-1.656 3.828-1.656.703 0 1.344.156.656.156 1.219.453v2.719q-.625-.578-1.219-.844-.594-.281-1.219-.281-1.343 0-2.031 1.078-.687 1.062-.687 3.156t.687 3.172q.688 1.062 2.031 1.062.625 0 1.219-.265.594-.281 1.219-.86z"/><text x="3499.46" y="531.72" fill="#D9B8FF" font-family="Helvetica" font-size="17" textLength="180">microsoft_graph_user</text><path fill="none" d="M2680.11 147c39.62 17.14 91.683 39.678 131.283 56.808" style="stroke:#1a83af;stroke-width:2"/><path fill="#1A83AF" d="m2816.9 206.19-6.672-7.244 2.083 5.259-5.26 2.083z" style="stroke:#1a83af;stroke-width:2"/><path fill="none" d="M3892.59 440.57c-276.67 19.39-775.275 54.34-1033.885 72.47" style="stroke:#1a83af;stroke-width:2"/><path fill="#1A83AF" d="m2852.72 513.46 9.258 3.36-4.27-3.71 3.71-4.27z" style="stroke:#1a83af;stroke-width:2"/><path fill="none" d="M3984.59 446.42c-89.12 17.13-212.518 40.838-301.578 57.948" style="stroke:#1a83af;stroke-width:2"/><path fill="#1A83AF" d="m3677.12 505.5 9.593 2.23-4.683-3.173 3.174-4.683z" style="stroke:#1a83af;stroke-width:2"/><path fill="none" d="M1946.72 344.54c-5.49.55-10.92 1.09-16.26 1.61-253.01 24.82-542.194 50.89-712.363 65.99" style="stroke:#1a83af;stroke-width:2"/><path fill="#1A83AF" d="m1212.12 412.67 9.318 3.189-4.338-3.63 3.631-4.339z" style="stroke:#1a83af;stroke-width:2"/><path fill="none" d="M2131.01 346.58c17.36 17.14 38.312 37.833 55.662 54.973" style="stroke:#1a83af;stroke-width:2"/><path fill="#1A83AF" d="m2190.94 405.77-3.591-9.17.034 5.656-5.657.035z" style="stroke:#1a83af;stroke-width:2"/><path fill="none" d="M2069.76 346.58c-44.48 23.15-104.46 63.34-72.3 99.36 34.74 38.93 330.899 60.878 524.599 71.278" style="stroke:#1a83af;stroke-width:2"/><path fill="#1A83AF" d="m2528.05 517.54-8.773-4.477 3.78 4.209-4.208 3.78z" style="stroke:#1a83af;stroke-width:2"/><path fill="none" d="M2276.09 344.82c5.86.48 11.66.92 17.37 1.33 83.79 6.01 1452.78-.57 1511 60 46.38 48.26-34.028 79.351-113.408 97.951" style="stroke:#1a83af;stroke-width:2"/><path fill="#1A83AF" d="m3685.21 505.47 9.675 1.841-4.807-2.982 2.982-4.807z" style="stroke:#1a83af;stroke-width:2"/><path fill="none" d="M2305.57 446.42c84.05 17.13 200.09 40.772 284.07 57.882" style="stroke:#1a83af;stroke-width:2"/><path fill="#1A83AF" d="m2595.52 505.5-8.02-5.716 3.12 4.718-4.717 3.12z" style="stroke:#1a83af;stroke-width:2"/><path fill="none" d="M2406.3 444.57c5.78.47 11.51.93 17.16 1.37 382.04 30.01 829.842 58.786 1035.652 71.646" style="stroke:#1a83af;stroke-width:2"/><path fill="#1A83AF" d="m3465.1 517.96-8.733-4.553 3.743 4.241-4.242 3.743z" style="stroke:#1a83af;stroke-width:2"/><path fill="none" d="M2690.46 446.37v53.19" style="stroke:#1a83af;stroke-width:2"/><path fill="#1A83AF" d="m2690.46 505.56 4-9-4 4-4-4z" style="stroke:#1a83af;stroke-width:2"/><path fill="none" d="M2866.03 446.42c178.08 19.66 442.336 48.822 592.996 65.452" style="stroke:#1a83af;stroke-width:2"/><path fill="#1A83AF" d="m3464.99 512.53-8.507-4.963 3.537 4.414-4.414 3.537z" style="stroke:#1a83af;stroke-width:2"/><path fill="none" d="M3060.9 446.42c-80.89 17.13-192.37 40.727-273.2 57.837" style="stroke:#1a83af;stroke-width:2"/><path fill="#1A83AF" d="m2781.83 505.5 9.633 2.05-4.741-3.086 3.084-4.741z" style="stroke:#1a83af;stroke-width:2"/><path fill="none" d="M3236.48 446.42c74.24 17.13 176.084 40.622 250.273 57.732" style="stroke:#1a83af;stroke-width:2"/><path fill="#1A83AF" d="m3492.6 505.5-7.87-5.92 2.998 4.796-4.797 3z" style="stroke:#1a83af;stroke-width:2"/><path fill="none" d="M3400.88 446.42c-159.54 17.61-387.076 42.732-542.296 59.862" style="stroke:#1a83af;stroke-width:2"/><path fill="#1A83AF" d="m2852.62 506.94 9.385 2.989-4.415-3.537 3.537-4.415z" style="stroke:#1a83af;stroke-width:2"/><path fill="none" d="M3576.46 446.37v53.19" style="stroke:#1a83af;stroke-width:2"/><path fill="#1A83AF" d="m3576.46 505.56 4-9-4 4-4-4z" style="stroke:#1a83af;stroke-width:2"/><path fill="none" d="M3033.76 227.94c716.41 2.35 3425.01 15.39 3486.7 78.42 12.36 12.64 12.3 27.09 0 39.79-38.87 40.14-1667.14 67.691-2236.12 76.111" style="stroke:#1a83af;stroke-width:2"/><path fill="#1A83AF" d="m4278.34 422.35 9.058 3.866-4.059-3.94 3.94-4.059z" style="stroke:#1a83af;stroke-width:2"/><path fill="none" d="M2712.83 246.85c-131.21 17.1-315.56 41.144-446.78 58.254" style="stroke:#1a83af;stroke-width:2"/><path fill="#1A83AF" d="m2260.1 305.88 9.442 2.803-4.484-3.45 3.45-4.483z" style="stroke:#1a83af;stroke-width:2"/><path fill="none" d="M2689.07 229.4c-383.26 5.17-1334.93 22.83-2129.61 76.96-5.64.39-5.388.345-11.178.795" style="stroke:#1a83af;stroke-width:2"/><path fill="#1A83AF" d="m542.3 307.62 9.283 3.29-4.298-3.677 3.678-4.298z" style="stroke:#1a83af;stroke-width:2"/><path fill="none" d="M2689.26 230.89c-338.48 7.52-1114.18 28.68-1764.8 75.47-5.9.43-5.92.406-11.97.896" style="stroke:#1a83af;stroke-width:2"/><path fill="#1A83AF" d="m906.51 307.74 9.293 3.26-4.31-3.664 3.665-4.31z" style="stroke:#1a83af;stroke-width:2"/><path fill="none" d="M2689.01 235.15c-275.14 12.61-830.41 39.48-1300.55 71.21-5.45.37-4.975.33-10.535.72" style="stroke:#1a83af;stroke-width:2"/><path fill="#1A83AF" d="m1371.94 307.5 9.258 3.36-4.27-3.71 3.71-4.27z" style="stroke:#1a83af;stroke-width:2"/><path fill="none" d="M2689.24 241.48c-207.73 16.9-552.08 44.913-785.61 63.913" style="stroke:#1a83af;stroke-width:2"/><path fill="#1A83AF" d="m1897.65 305.88 9.295 3.257-4.312-3.663 3.663-4.31z" style="stroke:#1a83af;stroke-width:2"/><path fill="none" d="M2689.08 229.36c-584.29 6.8-2455.99 32.06-2499.62 77-12.32 12.69-11.94 26.74 0 39.79 48.92 53.5 498.582 70.85 735.042 76.36" style="stroke:#1a83af;stroke-width:2"/><path fill="#1A83AF" d="m930.5 422.65-8.904-4.209 3.905 4.093-4.092 3.905z" style="stroke:#1a83af;stroke-width:2"/><path fill="none" d="M2787.76 246.79c-65.28 17.11-154.306 40.448-219.646 57.578" style="stroke:#1a83af;stroke-width:2"/><path fill="#1A83AF" d="m2562.31 305.89 9.72 1.587-4.884-2.855 2.855-4.884z" style="stroke:#1a83af;stroke-width:2"/><path fill="none" d="M2835.68 246.63c-41.12 30.23-120.19 86.85-152.22 99.52-55.79 22.07-192.733 43.508-306.972 58.718" style="stroke:#1a83af;stroke-width:2"/><path fill="#1A83AF" d="m2370.54 405.66 9.45 2.777-4.494-3.437 3.437-4.493z" style="stroke:#1a83af;stroke-width:2"/><path fill="none" d="M2844.75 246.77c-32.69 37.77-100.843 116.524-133.593 154.354" style="stroke:#1a83af;stroke-width:2"/><path fill="#1A83AF" d="m2707.23 405.66 8.915-4.186-5.642.406-.407-5.642z" style="stroke:#1a83af;stroke-width:2"/><path fill="none" d="M2861.76 246.67c1.47 26.05 7.97 72.43 34.7 99.48 29.08 29.45 63.133 46.259 102.683 57.879" style="stroke:#1a83af;stroke-width:2"/><path fill="#1A83AF" d="m3004.9 405.72-7.508-6.375 2.71 4.965-4.965 2.71z" style="stroke:#1a83af;stroke-width:2"/><path fill="none" d="M2904.33 246.79c38.04 17.14 87.86 39.595 125.87 56.725" style="stroke:#1a83af;stroke-width:2"/><path fill="#1A83AF" d="m3035.67 305.98-6.562-7.345 2.003 5.29-5.29 2.004z" style="stroke:#1a83af;stroke-width:2"/><path fill="none" d="M3018.53 246.8c74.78 12.15 164.57 31.06 241.93 59.56 33.94 12.51 37.84 25.33 71 39.79 56.21 24.51 116.8 43.773 166.27 57.893" style="stroke:#1a83af;stroke-width:2"/><path fill="#1A83AF" d="m3503.5 405.69-7.557-6.317 2.749 4.945-4.944 2.748z" style="stroke:#1a83af;stroke-width:2"/><path fill="none" d="M3005.52 246.85c127.19 17.1 305.704 41.12 432.894 58.23" style="stroke:#1a83af;stroke-width:2"/><path fill="#1A83AF" d="m3444.36 305.88-8.386-5.164 3.43 4.497-4.497 3.431z" style="stroke:#1a83af;stroke-width:2"/><path fill="none" d="M3033.92 240.76c217.96 16.79 588.798 45.37 838.888 64.64" style="stroke:#1a83af;stroke-width:2"/><path fill="#1A83AF" d="m3878.79 305.86-8.666-4.68 3.68 4.296-4.295 3.68z" style="stroke:#1a83af;stroke-width:2"/><path fill="none" d="M3033.73 234.65c286.77 12.3 880.15 39.24 1381.73 71.71 5.83.38 5.764.359 11.734.769" style="stroke:#1a83af;stroke-width:2"/><path fill="#1A83AF" d="m4433.18 307.54-8.705-4.607 3.717 4.264-4.265 3.717z" style="stroke:#1a83af;stroke-width:2"/><path fill="none" d="M3033.66 232.12c350.6 9.92 1172.45 35.45 1861.8 74.24 5.45.31 4.97.274 10.53.604" style="stroke:#1a83af;stroke-width:2"/><path fill="#1A83AF" d="m4911.98 307.32-8.747-4.526 3.756 4.23-4.23 3.756z" style="stroke:#1a83af;stroke-width:2"/><path fill="none" d="M3033.71 230.8c411.03 8.4 1481.57 32.84 2374.75 75.56 5.45.26 4.968.238 10.528.518" style="stroke:#1a83af;stroke-width:2"/><path fill="#1A83AF" d="m5424.98 307.18-8.787-4.448 3.793 4.196-4.196 3.794z" style="stroke:#1a83af;stroke-width:2"/><path fill="none" d="M3033.86 229c473.13 4.8 1831.6 22.67 2959.6 77.36 5.37.26 4.808.223 10.288.513" style="stroke:#1a83af;stroke-width:2"/><path fill="#1A83AF" d="m6009.74 307.19-8.776-4.47 3.783 4.206-4.206 3.783z" style="stroke:#1a83af;stroke-width:2"/><path fill="none" d="M2689 229.32c-586.85 6.72-2472.6 31.79-2516.54 77.04C6 477.78 1939.6 515.583 2521.97 523.063" style="stroke:#1a83af;stroke-width:2"/><path fill="#1A83AF" d="m2527.97 523.14-8.948-4.115 3.948 4.05-4.05 3.95z" style="stroke:#1a83af;stroke-width:2"/><path fill="none" d="M3033.66 227.9c719.95 2.23 3454.55 14.87 3516.8 78.46 205.79 210.25-2292.69 219.386-2856.58 218.786" style="stroke:#1a83af;stroke-width:2"/><path fill="#1A83AF" d="m3687.88 525.14 8.996 4.01-3.996-4.005 4.004-3.995z" style="stroke:#1a83af;stroke-width:2"/><path fill="none" d="M2929.66 147c-14.9 17.14-32.624 37.532-47.514 54.662" style="stroke:#1a83af;stroke-width:2"/><path fill="#1A83AF" d="m2878.21 206.19 8.923-4.168-5.643.394-.395-5.643z" style="stroke:#1a83af;stroke-width:2"/><path fill="none" d="M2845.18 47.16c-11.65 15.13-26.36 37.3-32.72 59.62-4.86 17.01-4.86 22.79 0 39.79 6.36 22.33 17.41 39.746 29.06 54.876" style="stroke:#1a83af;stroke-width:2"/><path fill="#1A83AF" d="m2845.18 206.2-2.322-9.571-.729 5.61-5.61-.73z" style="stroke:#1a83af;stroke-width:2"/><path fill="none" d="M2878.25 47.21c14.9 17.14 32.624 37.532 47.514 54.662" style="stroke:#1a83af;stroke-width:2"/><path fill="#1A83AF" d="m2929.7 106.4-2.885-9.417-.395 5.643-5.643-.394z" style="stroke:#1a83af;stroke-width:2"/><path fill="none" d="M3144.71 147c-61.78 17.12-145.738 40.38-207.577 57.5" style="stroke:#1a83af;stroke-width:2"/><path fill="#1A83AF" d="m2931.35 206.1 9.741 1.454-4.922-2.788 2.787-4.922z" style="stroke:#1a83af;stroke-width:2"/></svg>