<svg xmlns="http://www.w3.org/2000/svg" width="2466" height="152" viewBox="0 0 2466 152"><rect width="346" height="39.789" x="1195" y="7" fill="#3D176E" rx="2.5" ry="2.5" style="stroke:#000d19;stroke-width:.5"/><circle cx="1210" cy="26.895" r="11" fill="#ADD1B2" style="stroke:#181818;stroke-width:1"/><path d="M1212.969 32.535q-.578.297-1.219.438-.64.156-1.344.156-2.5 0-3.828-1.64-1.312-1.657-1.312-4.782t1.312-4.781q1.328-1.656 3.828-1.656.703 0 1.344.156.656.156 1.219.453v2.719q-.625-.578-1.219-.844-.594-.281-1.219-.281-1.343 0-2.031 1.078-.687 1.062-.687 3.156t.687 3.172q.688 1.062 2.031 1.062.625 0 1.219-.265.594-.281 1.219-.86z"/><text x="1229" y="32.78" fill="#D9B8FF" font-family="Helvetica" font-size="17" textLength="304">azure_cosmos_db_postgresql_cluster</text><rect width="466" height="39.789" x="7" y="106.79" fill="#3D176E" rx="2.5" ry="2.5" style="stroke:#000d19;stroke-width:.5"/><circle cx="22" cy="126.684" r="11" fill="#ADD1B2" style="stroke:#181818;stroke-width:1"/><path d="M24.969 132.325q-.578.297-1.219.438-.64.156-1.344.156-2.5 0-3.828-1.64-1.312-1.657-1.312-4.782t1.312-4.781q1.328-1.656 3.828-1.656.703 0 1.344.156.656.156 1.219.453v2.719q-.625-.579-1.219-.844-.594-.281-1.219-.281-1.343 0-2.031 1.078-.687 1.062-.687 3.156t.687 3.172q.688 1.062 2.031 1.062.625 0 1.219-.265.594-.281 1.219-.86z"/><text x="41" y="132.57" fill="#D9B8FF" font-family="Helvetica" font-size="17" textLength="424">azure_cosmos_db_postgresql_cluster_configuration</text><rect width="597" height="39.789" x="508.5" y="106.79" fill="#3D176E" rx="2.5" ry="2.5" style="stroke:#000d19;stroke-width:.5"/><circle cx="523.5" cy="126.684" r="11" fill="#ADD1B2" style="stroke:#181818;stroke-width:1"/><path d="M526.469 132.325q-.578.297-1.219.438-.64.156-1.344.156-2.5 0-3.828-1.64-1.312-1.657-1.312-4.782t1.312-4.781q1.328-1.656 3.828-1.656.703 0 1.344.156.656.156 1.219.453v2.719q-.625-.579-1.219-.844-.594-.281-1.219-.281-1.343 0-2.031 1.078-.687 1.062-.687 3.156t.687 3.172q.688 1.062 2.031 1.062.625 0 1.219-.265.594-.281 1.219-.86z"/><text x="542.5" y="132.57" fill="#D9B8FF" font-family="Helvetica" font-size="17" textLength="555">azure_cosmos_db_postgresql_cluster_private_endpoint_connection</text><rect width="454" height="39.789" x="1141" y="106.79" fill="#3D176E" rx="2.5" ry="2.5" style="stroke:#000d19;stroke-width:.5"/><circle cx="1156" cy="126.684" r="11" fill="#ADD1B2" style="stroke:#181818;stroke-width:1"/><path d="M1158.969 132.325q-.578.297-1.219.438-.64.156-1.344.156-2.5 0-3.828-1.64-1.312-1.657-1.312-4.782t1.312-4.781q1.328-1.656 3.828-1.656.703 0 1.344.156.656.156 1.219.453v2.719q-.625-.579-1.219-.844-.594-.281-1.219-.281-1.343 0-2.031 1.078-.687 1.062-.687 3.156t.687 3.172q.688 1.062 2.031 1.062.625 0 1.219-.265.594-.281 1.219-.86z"/><text x="1175" y="132.57" fill="#D9B8FF" font-family="Helvetica" font-size="17" textLength="412">azure_cosmos_db_postgresql_cluster_private_link</text><rect width="387" height="39.789" x="1630.5" y="106.79" fill="#3D176E" rx="2.5" ry="2.5" style="stroke:#000d19;stroke-width:.5"/><circle cx="1645.5" cy="126.684" r="11" fill="#ADD1B2" style="stroke:#181818;stroke-width:1"/><path d="M1648.469 132.325q-.578.297-1.219.438-.64.156-1.344.156-2.5 0-3.828-1.64-1.312-1.657-1.312-4.782t1.312-4.781q1.328-1.656 3.828-1.656.703 0 1.344.156.656.156 1.219.453v2.719q-.625-.579-1.219-.844-.594-.281-1.219-.281-1.343 0-2.031 1.078-.687 1.062-.687 3.156t.687 3.172q.688 1.062 2.031 1.062.625 0 1.219-.265.594-.281 1.219-.86z"/><text x="1664.5" y="132.57" fill="#D9B8FF" font-family="Helvetica" font-size="17" textLength="345">azure_cosmos_db_postgresql_cluster_role</text><rect width="407" height="39.789" x="2052.5" y="106.79" fill="#3D176E" rx="2.5" ry="2.5" style="stroke:#000d19;stroke-width:.5"/><circle cx="2067.5" cy="126.684" r="11" fill="#ADD1B2" style="stroke:#181818;stroke-width:1"/><path d="M2070.469 132.325q-.578.297-1.219.438-.64.156-1.344.156-2.5 0-3.828-1.64-1.312-1.657-1.312-4.782t1.312-4.781q1.328-1.656 3.828-1.656.703 0 1.344.156.656.156 1.219.453v2.719q-.625-.579-1.219-.844-.594-.281-1.219-.281-1.343 0-2.031 1.078-.687 1.062-.687 3.156t.687 3.172q.688 1.062 2.031 1.062.625 0 1.219-.265.594-.281 1.219-.86z"/><text x="2086.5" y="132.57" fill="#D9B8FF" font-family="Helvetica" font-size="17" textLength="365">azure_cosmos_db_postgresql_cluster_server</text><path fill="none" d="M1194.53 42.93c-196.15 17.01-510.112 44.232-724.882 62.842" style="stroke:#1a83af;stroke-width:2"/><path fill="#1A83AF" d="m463.67 106.29 9.312 3.208-4.33-3.64 3.64-4.33z" style="stroke:#1a83af;stroke-width:2"/><path fill="none" d="M1256.83 47.27c-98.23 17.13-234.81 40.94-332.97 58.05" style="stroke:#1a83af;stroke-width:2"/><path fill="#1A83AF" d="m917.95 106.35 9.553 2.395-4.627-3.254 3.253-4.627z" style="stroke:#1a83af;stroke-width:2"/><path fill="none" d="M1368 47.22v53.19" style="stroke:#1a83af;stroke-width:2"/><path fill="#1A83AF" d="m1368 106.41 4-9-4 4-4-4z" style="stroke:#1a83af;stroke-width:2"/><path fill="none" d="M1458.36 47.27c79.84 17.13 189.803 40.712 269.593 57.822" style="stroke:#1a83af;stroke-width:2"/><path fill="#1A83AF" d="m1733.82 106.35-7.961-5.798 3.072 4.75-4.75 3.072z" style="stroke:#1a83af;stroke-width:2"/><path fill="none" d="M1541.32 46.98c155.46 17.12 376.546 41.474 532.796 58.674" style="stroke:#1a83af;stroke-width:2"/><path fill="#1A83AF" d="m2080.08 106.31-8.508-4.96 3.538 4.413-4.414 3.538z" style="stroke:#1a83af;stroke-width:2"/></svg>