<?xml version="1.0" encoding="us-ascii" standalone="no"?><svg xmlns="http://www.w3.org/2000/svg" xmlns:xlink="http://www.w3.org/1999/xlink" contentStyleType="text/css" height="1085px" preserveAspectRatio="none" style="width:718px;height:1085px;" version="1.1" viewBox="0 0 718 1085" width="718px" zoomAndPan="magnify"><defs/><g><!--class azure_cosmos_db_postgresql_cluster_private_endpoint_connection--><g id="elem_azure_cosmos_db_postgresql_cluster_private_endpoint_connection"><rect codeLine="23" fill="#3D176E" height="152.9766" id="azure_cosmos_db_postgresql_cluster_private_endpoint_connection" rx="2.5" ry="2.5" style="stroke:#000D19;stroke-width:0.5;" width="632" x="79" y="660.14"/><ellipse cx="109.75" cy="680.0345" fill="#ADD1B2" rx="11" ry="11" style="stroke:#181818;stroke-width:1.0;"/><path d="M112.7188,685.6752 Q112.1406,685.972 111.5,686.1127 Q110.8594,686.2689 110.1563,686.2689 Q107.6563,686.2689 106.3281,684.6283 Q105.0156,682.972 105.0156,679.847 Q105.0156,676.722 106.3281,675.0658 Q107.6563,673.4095 110.1563,673.4095 Q110.8594,673.4095 111.5,673.5658 Q112.1563,673.722 112.7188,674.0189 L112.7188,676.7377 Q112.0938,676.1595 111.5,675.8939 Q110.9063,675.6127 110.2813,675.6127 Q108.9375,675.6127 108.25,676.6908 Q107.5625,677.7533 107.5625,679.847 Q107.5625,681.9408 108.25,683.0189 Q108.9375,684.0814 110.2813,684.0814 Q110.9063,684.0814 111.5,683.8158 Q112.0938,683.5345 112.7188,682.9564 L112.7188,685.6752 Z " fill="#000000"/><text fill="#D9B8FF" font-family="Helvetica" font-size="17" lengthAdjust="spacing" textLength="555" x="132.25" y="685.9198">azure_cosmos_db_postgresql_cluster_private_endpoint_connection</text><line style="stroke:#000D19;stroke-width:0.5;" x1="80" x2="710" y1="699.9291" y2="699.9291"/><text fill="#D9B8FF" font-family="sans-serif" font-size="14" font-weight="bold" lengthAdjust="spacing" textLength="77" x="90" y="721.9242">group_ids</text><text fill="#D9B8FF" font-family="sans-serif" font-size="14" lengthAdjust="spacing" textLength="58" x="167" y="721.9242">: string[]</text><text fill="#D9B8FF" font-family="sans-serif" font-size="14" font-weight="bold" lengthAdjust="spacing" textLength="153" x="90" y="748.2211">private_endpoint_id</text><text fill="#D9B8FF" font-family="sans-serif" font-size="14" lengthAdjust="spacing" textLength="48" x="243" y="748.2211">: string</text><text fill="#D9B8FF" font-family="sans-serif" font-size="14" font-weight="bold" lengthAdjust="spacing" textLength="296" x="90" y="774.5179">private_link_service_connection_state</text><text fill="#D9B8FF" font-family="sans-serif" font-size="14" lengthAdjust="spacing" textLength="314" x="386" y="774.5179">: azure_private_link_service_connection_state</text><text fill="#D9B8FF" font-family="sans-serif" font-size="14" font-weight="bold" lengthAdjust="spacing" textLength="98" x="90" y="800.8148">system_data</text><text fill="#D9B8FF" font-family="sans-serif" font-size="14" lengthAdjust="spacing" textLength="142" x="188" y="800.8148">: azure_system_data</text></g><!--class azure_private_link_service_connection_state--><g id="elem_azure_private_link_service_connection_state"><rect codeLine="29" fill="#3D176E" height="126.6797" id="azure_private_link_service_connection_state" rx="2.5" ry="2.5" style="stroke:#000D19;stroke-width:0.5;" width="414" x="7" y="912.57"/><ellipse cx="22" cy="932.4645" fill="#ADD1B2" rx="11" ry="11" style="stroke:#181818;stroke-width:1.0;"/><path d="M24.9688,938.1052 Q24.3906,938.402 23.75,938.5427 Q23.1094,938.6989 22.4063,938.6989 Q19.9063,938.6989 18.5781,937.0583 Q17.2656,935.402 17.2656,932.277 Q17.2656,929.152 18.5781,927.4958 Q19.9063,925.8395 22.4063,925.8395 Q23.1094,925.8395 23.75,925.9958 Q24.4063,926.152 24.9688,926.4489 L24.9688,929.1677 Q24.3438,928.5895 23.75,928.3239 Q23.1563,928.0427 22.5313,928.0427 Q21.1875,928.0427 20.5,929.1208 Q19.8125,930.1833 19.8125,932.277 Q19.8125,934.3708 20.5,935.4489 Q21.1875,936.5114 22.5313,936.5114 Q23.1563,936.5114 23.75,936.2458 Q24.3438,935.9645 24.9688,935.3864 L24.9688,938.1052 Z " fill="#000000"/><text fill="#D9B8FF" font-family="Helvetica" font-size="17" lengthAdjust="spacing" textLength="372" x="41" y="938.3498">azure_private_link_service_connection_state</text><line style="stroke:#000D19;stroke-width:0.5;" x1="8" x2="420" y1="952.3591" y2="952.3591"/><text fill="#D9B8FF" font-family="sans-serif" font-size="14" font-weight="bold" lengthAdjust="spacing" textLength="132" x="18" y="974.3542">actions_required</text><text fill="#D9B8FF" font-family="sans-serif" font-size="14" lengthAdjust="spacing" textLength="48" x="150" y="974.3542">: string</text><text fill="#D9B8FF" font-family="sans-serif" font-size="14" font-weight="bold" lengthAdjust="spacing" textLength="89" x="18" y="1000.6511">description</text><text fill="#D9B8FF" font-family="sans-serif" font-size="14" lengthAdjust="spacing" textLength="48" x="107" y="1000.6511">: string</text><text fill="#D9B8FF" font-family="sans-serif" font-size="14" font-weight="bold" lengthAdjust="spacing" textLength="49" x="18" y="1026.9479">status</text><text fill="#D9B8FF" font-family="sans-serif" font-size="14" lengthAdjust="spacing" textLength="48" x="67" y="1026.9479">: string</text></g><!--class azure_system_data--><g id="elem_azure_system_data"><rect codeLine="34" fill="#3D176E" height="205.5703" id="azure_system_data" rx="2.5" ry="2.5" style="stroke:#000D19;stroke-width:0.5;" width="241" x="455.5" y="873.12"/><ellipse cx="487.6" cy="893.0145" fill="#ADD1B2" rx="11" ry="11" style="stroke:#181818;stroke-width:1.0;"/><path d="M490.5688,898.6552 Q489.9906,898.952 489.35,899.0927 Q488.7094,899.2489 488.0063,899.2489 Q485.5063,899.2489 484.1781,897.6083 Q482.8656,895.952 482.8656,892.827 Q482.8656,889.702 484.1781,888.0458 Q485.5063,886.3895 488.0063,886.3895 Q488.7094,886.3895 489.35,886.5458 Q490.0063,886.702 490.5688,886.9989 L490.5688,889.7177 Q489.9438,889.1395 489.35,888.8739 Q488.7563,888.5927 488.1313,888.5927 Q486.7875,888.5927 486.1,889.6708 Q485.4125,890.7333 485.4125,892.827 Q485.4125,894.9208 486.1,895.9989 Q486.7875,897.0614 488.1313,897.0614 Q488.7563,897.0614 489.35,896.7958 Q489.9438,896.5145 490.5688,895.9364 L490.5688,898.6552 Z " fill="#000000"/><text fill="#D9B8FF" font-family="Helvetica" font-size="17" lengthAdjust="spacing" textLength="161" x="510.4" y="898.8998">azure_system_data</text><line style="stroke:#000D19;stroke-width:0.5;" x1="456.5" x2="695.5" y1="912.9091" y2="912.9091"/><text fill="#D9B8FF" font-family="sans-serif" font-size="14" font-weight="bold" lengthAdjust="spacing" textLength="83" x="466.5" y="934.9042">created_at</text><text fill="#D9B8FF" font-family="sans-serif" font-size="14" lengthAdjust="spacing" textLength="70" x="549.5" y="934.9042">: datetime</text><text fill="#D9B8FF" font-family="sans-serif" font-size="14" font-weight="bold" lengthAdjust="spacing" textLength="87" x="466.5" y="961.2011">created_by</text><text fill="#D9B8FF" font-family="sans-serif" font-size="14" lengthAdjust="spacing" textLength="48" x="553.5" y="961.2011">: string</text><text fill="#D9B8FF" font-family="sans-serif" font-size="14" font-weight="bold" lengthAdjust="spacing" textLength="129" x="466.5" y="987.4979">created_by_type</text><text fill="#D9B8FF" font-family="sans-serif" font-size="14" lengthAdjust="spacing" textLength="48" x="595.5" y="987.4979">: string</text><text fill="#D9B8FF" font-family="sans-serif" font-size="14" font-weight="bold" lengthAdjust="spacing" textLength="125" x="466.5" y="1013.7948">last_modified_at</text><text fill="#D9B8FF" font-family="sans-serif" font-size="14" lengthAdjust="spacing" textLength="70" x="591.5" y="1013.7948">: datetime</text><text fill="#D9B8FF" font-family="sans-serif" font-size="14" font-weight="bold" lengthAdjust="spacing" textLength="129" x="466.5" y="1040.0917">last_modified_by</text><text fill="#D9B8FF" font-family="sans-serif" font-size="14" lengthAdjust="spacing" textLength="48" x="595.5" y="1040.0917">: string</text><text fill="#D9B8FF" font-family="sans-serif" font-size="14" font-weight="bold" lengthAdjust="spacing" textLength="171" x="466.5" y="1066.3886">last_modified_by_type</text><text fill="#D9B8FF" font-family="sans-serif" font-size="14" lengthAdjust="spacing" textLength="48" x="637.5" y="1066.3886">: string</text></g><!--class microsoft_resource--><g id="elem_microsoft_resource"><rect codeLine="42" fill="#3D176E" height="100.3828" id="microsoft_resource" rx="2.5" ry="2.5" style="stroke:#000D19;stroke-width:0.5;" width="214" x="288" y="438.76"/><ellipse cx="309.3" cy="458.6545" fill="#ADD1B2" rx="11" ry="11" style="stroke:#181818;stroke-width:1.0;"/><path d="M312.2688,464.2952 Q311.6906,464.592 311.05,464.7327 Q310.4094,464.8889 309.7063,464.8889 Q307.2063,464.8889 305.8781,463.2483 Q304.5656,461.592 304.5656,458.467 Q304.5656,455.342 305.8781,453.6858 Q307.2063,452.0295 309.7063,452.0295 Q310.4094,452.0295 311.05,452.1858 Q311.7063,452.342 312.2688,452.6389 L312.2688,455.3577 Q311.6438,454.7795 311.05,454.5139 Q310.4563,454.2327 309.8313,454.2327 Q308.4875,454.2327 307.8,455.3108 Q307.1125,456.3733 307.1125,458.467 Q307.1125,460.5608 307.8,461.6389 Q308.4875,462.7014 309.8313,462.7014 Q310.4563,462.7014 311.05,462.4358 Q311.6438,462.1545 312.2688,461.5764 L312.2688,464.2952 Z " fill="#000000"/><text fill="#D9B8FF" font-family="Helvetica" font-size="17" lengthAdjust="spacing" textLength="158" x="329.7" y="464.5398">microsoft_resource</text><line style="stroke:#000D19;stroke-width:0.5;" x1="289" x2="501" y1="478.5491" y2="478.5491"/><text fill="#D9B8FF" font-family="sans-serif" font-size="14" font-weight="bold" lengthAdjust="spacing" textLength="35" x="299" y="500.5442">etag</text><text fill="#D9B8FF" font-family="sans-serif" font-size="14" lengthAdjust="spacing" textLength="48" x="334" y="500.5442">: string</text><text fill="#D9B8FF" font-family="sans-serif" font-size="14" font-weight="bold" lengthAdjust="spacing" textLength="144" x="299" y="526.8411">provisioning_state</text><text fill="#D9B8FF" font-family="sans-serif" font-size="14" lengthAdjust="spacing" textLength="48" x="443" y="526.8411">: string</text></g><!--class resource--><g id="elem_resource"><rect codeLine="46" fill="#3D176E" height="310.7578" id="resource" rx="2.5" ry="2.5" style="stroke:#000D19;stroke-width:0.5;" width="227" x="281.5" y="7"/><ellipse cx="350.25" cy="26.8945" fill="#ADD1B2" rx="11" ry="11" style="stroke:#181818;stroke-width:1.0;"/><path d="M353.2188,32.5352 Q352.6406,32.832 352,32.9727 Q351.3594,33.1289 350.6563,33.1289 Q348.1563,33.1289 346.8281,31.4883 Q345.5156,29.832 345.5156,26.707 Q345.5156,23.582 346.8281,21.9258 Q348.1563,20.2695 350.6563,20.2695 Q351.3594,20.2695 352,20.4258 Q352.6563,20.582 353.2188,20.8789 L353.2188,23.5977 Q352.5938,23.0195 352,22.7539 Q351.4063,22.4727 350.7813,22.4727 Q349.4375,22.4727 348.75,23.5508 Q348.0625,24.6133 348.0625,26.707 Q348.0625,28.8008 348.75,29.8789 Q349.4375,30.9414 350.7813,30.9414 Q351.4063,30.9414 352,30.6758 Q352.5938,30.3945 353.2188,29.8164 L353.2188,32.5352 Z " fill="#000000"/><text fill="#D9B8FF" font-family="Helvetica" font-size="17" lengthAdjust="spacing" textLength="71" x="375.75" y="32.7798">resource</text><line style="stroke:#000D19;stroke-width:0.5;" x1="282.5" x2="507.5" y1="46.7891" y2="46.7891"/><text fill="#D9B8FF" font-family="sans-serif" font-size="14" font-weight="bold" lengthAdjust="spacing" textLength="29" x="292.5" y="68.7842">age</text><text fill="#D9B8FF" font-family="sans-serif" font-size="14" lengthAdjust="spacing" textLength="66" x="321.5" y="68.7842">: duration</text><text fill="#D9B8FF" font-family="sans-serif" font-size="14" font-weight="bold" lengthAdjust="spacing" textLength="43" x="292.5" y="95.0811">atime</text><text fill="#D9B8FF" font-family="sans-serif" font-size="14" lengthAdjust="spacing" textLength="70" x="335.5" y="95.0811">: datetime</text><text fill="#D9B8FF" font-family="sans-serif" font-size="14" font-weight="bold" lengthAdjust="spacing" textLength="43" x="292.5" y="121.3779">ctime</text><text fill="#D9B8FF" font-family="sans-serif" font-size="14" lengthAdjust="spacing" textLength="70" x="335.5" y="121.3779">: datetime</text><text fill="#D9B8FF" font-family="sans-serif" font-size="14" font-weight="bold" lengthAdjust="spacing" textLength="14" x="292.5" y="147.6748">id</text><text fill="#D9B8FF" font-family="sans-serif" font-size="14" lengthAdjust="spacing" textLength="48" x="306.5" y="147.6748">: string</text><text fill="#D9B8FF" font-family="sans-serif" font-size="14" font-weight="bold" lengthAdjust="spacing" textLength="33" x="292.5" y="173.9717">kind</text><text fill="#D9B8FF" font-family="sans-serif" font-size="14" lengthAdjust="spacing" textLength="48" x="325.5" y="173.9717">: string</text><text fill="#D9B8FF" font-family="sans-serif" font-size="14" font-weight="bold" lengthAdjust="spacing" textLength="90" x="292.5" y="200.2686">last_access</text><text fill="#D9B8FF" font-family="sans-serif" font-size="14" lengthAdjust="spacing" textLength="66" x="382.5" y="200.2686">: duration</text><text fill="#D9B8FF" font-family="sans-serif" font-size="14" font-weight="bold" lengthAdjust="spacing" textLength="90" x="292.5" y="226.5654">last_update</text><text fill="#D9B8FF" font-family="sans-serif" font-size="14" lengthAdjust="spacing" textLength="66" x="382.5" y="226.5654">: duration</text><text fill="#D9B8FF" font-family="sans-serif" font-size="14" font-weight="bold" lengthAdjust="spacing" textLength="48" x="292.5" y="252.8623">mtime</text><text fill="#D9B8FF" font-family="sans-serif" font-size="14" lengthAdjust="spacing" textLength="70" x="340.5" y="252.8623">: datetime</text><text fill="#D9B8FF" font-family="sans-serif" font-size="14" font-weight="bold" lengthAdjust="spacing" textLength="43" x="292.5" y="279.1592">name</text><text fill="#D9B8FF" font-family="sans-serif" font-size="14" lengthAdjust="spacing" textLength="48" x="335.5" y="279.1592">: string</text><text fill="#D9B8FF" font-family="sans-serif" font-size="14" font-weight="bold" lengthAdjust="spacing" textLength="34" x="292.5" y="305.4561">tags</text><text fill="#D9B8FF" font-family="sans-serif" font-size="14" lengthAdjust="spacing" textLength="171" x="326.5" y="305.4561">: dictionary[string, string]</text></g><!--link azure_cosmos_db_postgresql_cluster_private_endpoint_connection to azure_private_link_service_connection_state--><g id="link_azure_cosmos_db_postgresql_cluster_private_endpoint_connection_azure_private_link_service_connection_state"><path codeLine="58" d="M337.23,813.36 C312.92,845.23 288.5992,877.1096 265.4692,907.4296 " fill="none" id="azure_cosmos_db_postgresql_cluster_private_endpoint_connection-to-azure_private_link_service_connection_state" style="stroke:#FFAF37;stroke-width:2.0;"/><polygon fill="#FFAF37" points="261.83,912.2,270.469,907.4705,264.8626,908.2247,264.1085,902.6183,261.83,912.2" style="stroke:#FFAF37;stroke-width:2.0;"/></g><!--link azure_cosmos_db_postgresql_cluster_private_endpoint_connection to azure_system_data--><g id="link_azure_cosmos_db_postgresql_cluster_private_endpoint_connection_azure_system_data"><path codeLine="59" d="M452.77,813.36 C467.15,832.21 479.161,847.9595 494.341,867.8595 " fill="none" id="azure_cosmos_db_postgresql_cluster_private_endpoint_connection-to-azure_system_data" style="stroke:#FFAF37;stroke-width:2.0;"/><polygon fill="#FFAF37" points="497.98,872.63,495.7018,863.0483,494.9475,868.6546,489.3412,867.9003,497.98,872.63" style="stroke:#FFAF37;stroke-width:2.0;"/></g><!--reverse link microsoft_resource to azure_cosmos_db_postgresql_cluster_private_endpoint_connection--><g id="link_microsoft_resource_azure_cosmos_db_postgresql_cluster_private_endpoint_connection"><path codeLine="60" d="M395,557.37 C395,591.84 395,620.5 395,659.67 " fill="none" id="microsoft_resource-backto-azure_cosmos_db_postgresql_cluster_private_endpoint_connection" style="stroke:#FFAF37;stroke-width:2.0;"/><polygon fill="none" points="395,539.37,389,557.37,401,557.37,395,539.37" style="stroke:#FFAF37;stroke-width:2.0;"/></g><!--reverse link resource to microsoft_resource--><g id="link_resource_microsoft_resource"><path codeLine="61" d="M395,336.06 C395,379.66 395,405.98 395,438.42 " fill="none" id="resource-backto-microsoft_resource" style="stroke:#FFAF37;stroke-width:2.0;"/><polygon fill="none" points="395,318.06,389,336.06,401,336.06,395,318.06" style="stroke:#FFAF37;stroke-width:2.0;"/></g><!--SRC=[hLHTQzim57tthp3qBIoGh6nfnXXqWR6zbB7khHHn8rqx8fRaNiafwRR_FibE6rbsFqRtw7lEFUVSAyaRAJ17LRjzhb2jaMncjrBNGA3oSo9pkpALeVoaAA0uNQJW5wFTiuGBK9X_nMg7Jd986JytacyrMfk_ZQ3FmBSbcKQBJjuHQEiXr2vYhIgmzjmvakl6OHH6BDTdHP4oKz6JKp5VlCS1pP10Eb1civcOBrFAirPFplt0k9HtcC_ZfLqOXuEO0ukMzMJAm8X23WQznn_D-1s4aBhCtqMr7rqcqaYz-kK6XBaDx08g6zjOXuJ6xMjS3QR2vPae5gFaRu-HCnvMbyDTGyYuiSfO9jQiDjQLXFQcOhngWWwhIUx08KCjQYErysojaJjfTFuhcqo2Uisai9F91-zCFltLjQyF-gGuCYAyadhBBD9ESeoqcNKU3HrTnXVHlQpT-zIA2N1mR8wAsP_Uw2-IRUU4jc0PuKqZ2Vl32BISP1qOlNfeRwBD9EvHhjQ34texmS255b_sbqbX1AptFVbZcONJxc7UnZ5bX2pac68VJdHJC5M_dq99JiQQmlcjMDCGxrQ53ihahCrEMhyS_tays4Ii9m5bIn4DGLXgg8JWwLf6Qiaryuz236S3plsFCd5eaQOMXtWHeaPyDAZ-mltGdQ9iRmhG_gh3tXmurtxKLpwuwVJJFxs7_sONlw2HK__uUpgTll9laYLgGvliBm00]--></g></svg>