<?xml version="1.0" encoding="us-ascii" standalone="no"?><svg xmlns="http://www.w3.org/2000/svg" xmlns:xlink="http://www.w3.org/1999/xlink" contentStyleType="text/css" height="1243px" preserveAspectRatio="none" style="width:911px;height:1243px;" version="1.1" viewBox="0 0 911 1243" width="911px" zoomAndPan="magnify"><defs/><g><!--class gcp_deprecation_status--><g id="elem_gcp_deprecation_status"><rect codeLine="23" fill="#3D176E" height="179.2734" id="gcp_deprecation_status" rx="2.5" ry="2.5" style="stroke:#000D19;stroke-width:0.5;" width="237" x="7" y="1057.2"/><ellipse cx="22" cy="1077.0945" fill="#ADD1B2" rx="11" ry="11" style="stroke:#181818;stroke-width:1.0;"/><path d="M24.9688,1082.7352 Q24.3906,1083.032 23.75,1083.1727 Q23.1094,1083.3289 22.4063,1083.3289 Q19.9063,1083.3289 18.5781,1081.6883 Q17.2656,1080.032 17.2656,1076.907 Q17.2656,1073.782 18.5781,1072.1258 Q19.9063,1070.4695 22.4063,1070.4695 Q23.1094,1070.4695 23.75,1070.6258 Q24.4063,1070.782 24.9688,1071.0789 L24.9688,1073.7977 Q24.3438,1073.2195 23.75,1072.9539 Q23.1563,1072.6727 22.5313,1072.6727 Q21.1875,1072.6727 20.5,1073.7508 Q19.8125,1074.8133 19.8125,1076.907 Q19.8125,1079.0008 20.5,1080.0789 Q21.1875,1081.1414 22.5313,1081.1414 Q23.1563,1081.1414 23.75,1080.8758 Q24.3438,1080.5945 24.9688,1080.0164 L24.9688,1082.7352 Z " fill="#000000"/><text fill="#D9B8FF" font-family="Helvetica" font-size="17" lengthAdjust="spacing" textLength="195" x="41" y="1082.9798">gcp_deprecation_status</text><line style="stroke:#000D19;stroke-width:0.5;" x1="8" x2="243" y1="1096.9891" y2="1096.9891"/><text fill="#D9B8FF" font-family="sans-serif" font-size="14" font-weight="bold" lengthAdjust="spacing" textLength="60" x="18" y="1118.9842">deleted</text><text fill="#D9B8FF" font-family="sans-serif" font-size="14" lengthAdjust="spacing" textLength="48" x="78" y="1118.9842">: string</text><text fill="#D9B8FF" font-family="sans-serif" font-size="14" font-weight="bold" lengthAdjust="spacing" textLength="91" x="18" y="1145.2811">deprecated</text><text fill="#D9B8FF" font-family="sans-serif" font-size="14" lengthAdjust="spacing" textLength="48" x="109" y="1145.2811">: string</text><text fill="#D9B8FF" font-family="sans-serif" font-size="14" font-weight="bold" lengthAdjust="spacing" textLength="69" x="18" y="1171.5779">obsolete</text><text fill="#D9B8FF" font-family="sans-serif" font-size="14" lengthAdjust="spacing" textLength="48" x="87" y="1171.5779">: string</text><text fill="#D9B8FF" font-family="sans-serif" font-size="14" font-weight="bold" lengthAdjust="spacing" textLength="99" x="18" y="1197.8748">replacement</text><text fill="#D9B8FF" font-family="sans-serif" font-size="14" lengthAdjust="spacing" textLength="48" x="117" y="1197.8748">: string</text><text fill="#D9B8FF" font-family="sans-serif" font-size="14" font-weight="bold" lengthAdjust="spacing" textLength="40" x="18" y="1224.1717">state</text><text fill="#D9B8FF" font-family="sans-serif" font-size="14" lengthAdjust="spacing" textLength="48" x="58" y="1224.1717">: string</text></g><!--class gcp_resource--><g id="elem_gcp_resource"><rect codeLine="30" fill="#3D176E" height="152.9766" id="gcp_resource" rx="2.5" ry="2.5" style="stroke:#000D19;stroke-width:0.5;" width="348" x="14.5" y="438.76"/><ellipse cx="125.25" cy="458.6545" fill="#ADD1B2" rx="11" ry="11" style="stroke:#181818;stroke-width:1.0;"/><path d="M128.2188,464.2952 Q127.6406,464.592 127,464.7327 Q126.3594,464.8889 125.6563,464.8889 Q123.1563,464.8889 121.8281,463.2483 Q120.5156,461.592 120.5156,458.467 Q120.5156,455.342 121.8281,453.6858 Q123.1563,452.0295 125.6563,452.0295 Q126.3594,452.0295 127,452.1858 Q127.6563,452.342 128.2188,452.6389 L128.2188,455.3577 Q127.5938,454.7795 127,454.5139 Q126.4063,454.2327 125.7813,454.2327 Q124.4375,454.2327 123.75,455.3108 Q123.0625,456.3733 123.0625,458.467 Q123.0625,460.5608 123.75,461.6389 Q124.4375,462.7014 125.7813,462.7014 Q126.4063,462.7014 127,462.4358 Q127.5938,462.1545 128.2188,461.5764 L128.2188,464.2952 Z " fill="#000000"/><text fill="#D9B8FF" font-family="Helvetica" font-size="17" lengthAdjust="spacing" textLength="108" x="150.75" y="464.5398">gcp_resource</text><line style="stroke:#000D19;stroke-width:0.5;" x1="15.5" x2="361.5" y1="478.5491" y2="478.5491"/><text fill="#D9B8FF" font-family="sans-serif" font-size="14" font-weight="bold" lengthAdjust="spacing" textLength="151" x="25.5" y="500.5442">deprecation_status</text><text fill="#D9B8FF" font-family="sans-serif" font-size="14" lengthAdjust="spacing" textLength="175" x="176.5" y="500.5442">: gcp_deprecation_status</text><text fill="#D9B8FF" font-family="sans-serif" font-size="14" font-weight="bold" lengthAdjust="spacing" textLength="89" x="25.5" y="526.8411">description</text><text fill="#D9B8FF" font-family="sans-serif" font-size="14" lengthAdjust="spacing" textLength="48" x="114.5" y="526.8411">: string</text><text fill="#D9B8FF" font-family="sans-serif" font-size="14" font-weight="bold" lengthAdjust="spacing" textLength="128" x="25.5" y="553.1379">label_fingerprint</text><text fill="#D9B8FF" font-family="sans-serif" font-size="14" lengthAdjust="spacing" textLength="48" x="153.5" y="553.1379">: string</text><text fill="#D9B8FF" font-family="sans-serif" font-size="14" font-weight="bold" lengthAdjust="spacing" textLength="27" x="25.5" y="579.4348">link</text><text fill="#D9B8FF" font-family="sans-serif" font-size="14" lengthAdjust="spacing" textLength="48" x="52.5" y="579.4348">: string</text></g><!--class gcp_vertex_ai_deployed_index_ref--><g id="elem_gcp_vertex_ai_deployed_index_ref"><rect codeLine="36" fill="#3D176E" height="126.6797" id="gcp_vertex_ai_deployed_index_ref" rx="2.5" ry="2.5" style="stroke:#000D19;stroke-width:0.5;" width="328" x="279.5" y="1083.49"/><ellipse cx="294.5" cy="1103.3845" fill="#ADD1B2" rx="11" ry="11" style="stroke:#181818;stroke-width:1.0;"/><path d="M297.4688,1109.0252 Q296.8906,1109.322 296.25,1109.4627 Q295.6094,1109.6189 294.9063,1109.6189 Q292.4063,1109.6189 291.0781,1107.9783 Q289.7656,1106.322 289.7656,1103.197 Q289.7656,1100.072 291.0781,1098.4158 Q292.4063,1096.7595 294.9063,1096.7595 Q295.6094,1096.7595 296.25,1096.9158 Q296.9063,1097.072 297.4688,1097.3689 L297.4688,1100.0877 Q296.8438,1099.5095 296.25,1099.2439 Q295.6563,1098.9627 295.0313,1098.9627 Q293.6875,1098.9627 293,1100.0408 Q292.3125,1101.1033 292.3125,1103.197 Q292.3125,1105.2908 293,1106.3689 Q293.6875,1107.4314 295.0313,1107.4314 Q295.6563,1107.4314 296.25,1107.1658 Q296.8438,1106.8845 297.4688,1106.3064 L297.4688,1109.0252 Z " fill="#000000"/><text fill="#D9B8FF" font-family="Helvetica" font-size="17" lengthAdjust="spacing" textLength="286" x="313.5" y="1109.2698">gcp_vertex_ai_deployed_index_ref</text><line style="stroke:#000D19;stroke-width:0.5;" x1="280.5" x2="606.5" y1="1123.2791" y2="1123.2791"/><text fill="#D9B8FF" font-family="sans-serif" font-size="14" font-weight="bold" lengthAdjust="spacing" textLength="144" x="290.5" y="1145.2742">deployed_index_id</text><text fill="#D9B8FF" font-family="sans-serif" font-size="14" lengthAdjust="spacing" textLength="48" x="434.5" y="1145.2742">: string</text><text fill="#D9B8FF" font-family="sans-serif" font-size="14" font-weight="bold" lengthAdjust="spacing" textLength="105" x="290.5" y="1171.5711">display_name</text><text fill="#D9B8FF" font-family="sans-serif" font-size="14" lengthAdjust="spacing" textLength="48" x="395.5" y="1171.5711">: string</text><text fill="#D9B8FF" font-family="sans-serif" font-size="14" font-weight="bold" lengthAdjust="spacing" textLength="120" x="290.5" y="1197.8679">index_endpoint</text><text fill="#D9B8FF" font-family="sans-serif" font-size="14" lengthAdjust="spacing" textLength="48" x="410.5" y="1197.8679">: string</text></g><!--class gcp_vertex_ai_index--><g id="elem_gcp_vertex_ai_index"><rect codeLine="41" fill="#3D176E" height="284.4609" id="gcp_vertex_ai_index" rx="2.5" ry="2.5" style="stroke:#000D19;stroke-width:0.5;" width="416" x="220.5" y="712.74"/><ellipse cx="334.25" cy="732.6345" fill="#ADD1B2" rx="11" ry="11" style="stroke:#181818;stroke-width:1.0;"/><path d="M337.2188,738.2752 Q336.6406,738.572 336,738.7127 Q335.3594,738.8689 334.6563,738.8689 Q332.1563,738.8689 330.8281,737.2283 Q329.5156,735.572 329.5156,732.447 Q329.5156,729.322 330.8281,727.6658 Q332.1563,726.0095 334.6563,726.0095 Q335.3594,726.0095 336,726.1658 Q336.6563,726.322 337.2188,726.6189 L337.2188,729.3377 Q336.5938,728.7595 336,728.4939 Q335.4063,728.2127 334.7813,728.2127 Q333.4375,728.2127 332.75,729.2908 Q332.0625,730.3533 332.0625,732.447 Q332.0625,734.5408 332.75,735.6189 Q333.4375,736.6814 334.7813,736.6814 Q335.4063,736.6814 336,736.4158 Q336.5938,736.1345 337.2188,735.5564 L337.2188,738.2752 Z " fill="#000000"/><text fill="#D9B8FF" font-family="Helvetica" font-size="17" lengthAdjust="spacing" textLength="170" x="359.75" y="738.5198">gcp_vertex_ai_index</text><line style="stroke:#000D19;stroke-width:0.5;" x1="221.5" x2="635.5" y1="752.5291" y2="752.5291"/><text fill="#D9B8FF" font-family="sans-serif" font-size="14" font-weight="bold" lengthAdjust="spacing" textLength="92" x="231.5" y="774.5242">create_time</text><text fill="#D9B8FF" font-family="sans-serif" font-size="14" lengthAdjust="spacing" textLength="70" x="323.5" y="774.5242">: datetime</text><text fill="#D9B8FF" font-family="sans-serif" font-size="14" font-weight="bold" lengthAdjust="spacing" textLength="142" x="231.5" y="800.8211">deployed_indexes</text><text fill="#D9B8FF" font-family="sans-serif" font-size="14" lengthAdjust="spacing" textLength="252" x="373.5" y="800.8211">: gcp_vertex_ai_deployed_index_ref[]</text><text fill="#D9B8FF" font-family="sans-serif" font-size="14" font-weight="bold" lengthAdjust="spacing" textLength="105" x="231.5" y="827.1179">display_name</text><text fill="#D9B8FF" font-family="sans-serif" font-size="14" lengthAdjust="spacing" textLength="48" x="336.5" y="827.1179">: string</text><text fill="#D9B8FF" font-family="sans-serif" font-size="14" font-weight="bold" lengthAdjust="spacing" textLength="130" x="231.5" y="853.4148">encryption_spec</text><text fill="#D9B8FF" font-family="sans-serif" font-size="14" lengthAdjust="spacing" textLength="48" x="361.5" y="853.4148">: string</text><text fill="#D9B8FF" font-family="sans-serif" font-size="14" font-weight="bold" lengthAdjust="spacing" textLength="35" x="231.5" y="879.7117">etag</text><text fill="#D9B8FF" font-family="sans-serif" font-size="14" lengthAdjust="spacing" textLength="48" x="266.5" y="879.7117">: string</text><text fill="#D9B8FF" font-family="sans-serif" font-size="14" font-weight="bold" lengthAdjust="spacing" textLength="89" x="231.5" y="906.0086">index_stats</text><text fill="#D9B8FF" font-family="sans-serif" font-size="14" lengthAdjust="spacing" textLength="187" x="320.5" y="906.0086">: gcp_vertex_ai_index_stats</text><text fill="#D9B8FF" font-family="sans-serif" font-size="14" font-weight="bold" lengthAdjust="spacing" textLength="172" x="231.5" y="932.3054">index_update_method</text><text fill="#D9B8FF" font-family="sans-serif" font-size="14" lengthAdjust="spacing" textLength="48" x="403.5" y="932.3054">: string</text><text fill="#D9B8FF" font-family="sans-serif" font-size="14" font-weight="bold" lengthAdjust="spacing" textLength="169" x="231.5" y="958.6023">metadata_schema_uri</text><text fill="#D9B8FF" font-family="sans-serif" font-size="14" lengthAdjust="spacing" textLength="48" x="400.5" y="958.6023">: string</text><text fill="#D9B8FF" font-family="sans-serif" font-size="14" font-weight="bold" lengthAdjust="spacing" textLength="96" x="231.5" y="984.8992">update_time</text><text fill="#D9B8FF" font-family="sans-serif" font-size="14" lengthAdjust="spacing" textLength="70" x="327.5" y="984.8992">: datetime</text></g><!--class gcp_vertex_ai_index_stats--><g id="elem_gcp_vertex_ai_index_stats"><rect codeLine="52" fill="#3D176E" height="126.6797" id="gcp_vertex_ai_index_stats" rx="2.5" ry="2.5" style="stroke:#000D19;stroke-width:0.5;" width="261" x="643" y="1083.49"/><ellipse cx="658" cy="1103.3845" fill="#ADD1B2" rx="11" ry="11" style="stroke:#181818;stroke-width:1.0;"/><path d="M660.9688,1109.0252 Q660.3906,1109.322 659.75,1109.4627 Q659.1094,1109.6189 658.4063,1109.6189 Q655.9063,1109.6189 654.5781,1107.9783 Q653.2656,1106.322 653.2656,1103.197 Q653.2656,1100.072 654.5781,1098.4158 Q655.9063,1096.7595 658.4063,1096.7595 Q659.1094,1096.7595 659.75,1096.9158 Q660.4063,1097.072 660.9688,1097.3689 L660.9688,1100.0877 Q660.3438,1099.5095 659.75,1099.2439 Q659.1563,1098.9627 658.5313,1098.9627 Q657.1875,1098.9627 656.5,1100.0408 Q655.8125,1101.1033 655.8125,1103.197 Q655.8125,1105.2908 656.5,1106.3689 Q657.1875,1107.4314 658.5313,1107.4314 Q659.1563,1107.4314 659.75,1107.1658 Q660.3438,1106.8845 660.9688,1106.3064 L660.9688,1109.0252 Z " fill="#000000"/><text fill="#D9B8FF" font-family="Helvetica" font-size="17" lengthAdjust="spacing" textLength="219" x="677" y="1109.2698">gcp_vertex_ai_index_stats</text><line style="stroke:#000D19;stroke-width:0.5;" x1="644" x2="903" y1="1123.2791" y2="1123.2791"/><text fill="#D9B8FF" font-family="sans-serif" font-size="14" font-weight="bold" lengthAdjust="spacing" textLength="106" x="654" y="1145.2742">shards_count</text><text fill="#D9B8FF" font-family="sans-serif" font-size="14" lengthAdjust="spacing" textLength="44" x="760" y="1145.2742">: int64</text><text fill="#D9B8FF" font-family="sans-serif" font-size="14" font-weight="bold" lengthAdjust="spacing" textLength="173" x="654" y="1171.5711">sparse_vectors_count</text><text fill="#D9B8FF" font-family="sans-serif" font-size="14" lengthAdjust="spacing" textLength="48" x="827" y="1171.5711">: string</text><text fill="#D9B8FF" font-family="sans-serif" font-size="14" font-weight="bold" lengthAdjust="spacing" textLength="112" x="654" y="1197.8679">vectors_count</text><text fill="#D9B8FF" font-family="sans-serif" font-size="14" lengthAdjust="spacing" textLength="48" x="766" y="1197.8679">: string</text></g><!--class resource--><g id="elem_resource"><rect codeLine="57" fill="#3D176E" height="310.7578" id="resource" rx="2.5" ry="2.5" style="stroke:#000D19;stroke-width:0.5;" width="227" x="75" y="7"/><ellipse cx="143.75" cy="26.8945" fill="#ADD1B2" rx="11" ry="11" style="stroke:#181818;stroke-width:1.0;"/><path d="M146.7188,32.5352 Q146.1406,32.832 145.5,32.9727 Q144.8594,33.1289 144.1563,33.1289 Q141.6563,33.1289 140.3281,31.4883 Q139.0156,29.832 139.0156,26.707 Q139.0156,23.582 140.3281,21.9258 Q141.6563,20.2695 144.1563,20.2695 Q144.8594,20.2695 145.5,20.4258 Q146.1563,20.582 146.7188,20.8789 L146.7188,23.5977 Q146.0938,23.0195 145.5,22.7539 Q144.9063,22.4727 144.2813,22.4727 Q142.9375,22.4727 142.25,23.5508 Q141.5625,24.6133 141.5625,26.707 Q141.5625,28.8008 142.25,29.8789 Q142.9375,30.9414 144.2813,30.9414 Q144.9063,30.9414 145.5,30.6758 Q146.0938,30.3945 146.7188,29.8164 L146.7188,32.5352 Z " fill="#000000"/><text fill="#D9B8FF" font-family="Helvetica" font-size="17" lengthAdjust="spacing" textLength="71" x="169.25" y="32.7798">resource</text><line style="stroke:#000D19;stroke-width:0.5;" x1="76" x2="301" y1="46.7891" y2="46.7891"/><text fill="#D9B8FF" font-family="sans-serif" font-size="14" font-weight="bold" lengthAdjust="spacing" textLength="29" x="86" y="68.7842">age</text><text fill="#D9B8FF" font-family="sans-serif" font-size="14" lengthAdjust="spacing" textLength="66" x="115" y="68.7842">: duration</text><text fill="#D9B8FF" font-family="sans-serif" font-size="14" font-weight="bold" lengthAdjust="spacing" textLength="43" x="86" y="95.0811">atime</text><text fill="#D9B8FF" font-family="sans-serif" font-size="14" lengthAdjust="spacing" textLength="70" x="129" y="95.0811">: datetime</text><text fill="#D9B8FF" font-family="sans-serif" font-size="14" font-weight="bold" lengthAdjust="spacing" textLength="43" x="86" y="121.3779">ctime</text><text fill="#D9B8FF" font-family="sans-serif" font-size="14" lengthAdjust="spacing" textLength="70" x="129" y="121.3779">: datetime</text><text fill="#D9B8FF" font-family="sans-serif" font-size="14" font-weight="bold" lengthAdjust="spacing" textLength="14" x="86" y="147.6748">id</text><text fill="#D9B8FF" font-family="sans-serif" font-size="14" lengthAdjust="spacing" textLength="48" x="100" y="147.6748">: string</text><text fill="#D9B8FF" font-family="sans-serif" font-size="14" font-weight="bold" lengthAdjust="spacing" textLength="33" x="86" y="173.9717">kind</text><text fill="#D9B8FF" font-family="sans-serif" font-size="14" lengthAdjust="spacing" textLength="48" x="119" y="173.9717">: string</text><text fill="#D9B8FF" font-family="sans-serif" font-size="14" font-weight="bold" lengthAdjust="spacing" textLength="90" x="86" y="200.2686">last_access</text><text fill="#D9B8FF" font-family="sans-serif" font-size="14" lengthAdjust="spacing" textLength="66" x="176" y="200.2686">: duration</text><text fill="#D9B8FF" font-family="sans-serif" font-size="14" font-weight="bold" lengthAdjust="spacing" textLength="90" x="86" y="226.5654">last_update</text><text fill="#D9B8FF" font-family="sans-serif" font-size="14" lengthAdjust="spacing" textLength="66" x="176" y="226.5654">: duration</text><text fill="#D9B8FF" font-family="sans-serif" font-size="14" font-weight="bold" lengthAdjust="spacing" textLength="48" x="86" y="252.8623">mtime</text><text fill="#D9B8FF" font-family="sans-serif" font-size="14" lengthAdjust="spacing" textLength="70" x="134" y="252.8623">: datetime</text><text fill="#D9B8FF" font-family="sans-serif" font-size="14" font-weight="bold" lengthAdjust="spacing" textLength="43" x="86" y="279.1592">name</text><text fill="#D9B8FF" font-family="sans-serif" font-size="14" lengthAdjust="spacing" textLength="48" x="129" y="279.1592">: string</text><text fill="#D9B8FF" font-family="sans-serif" font-size="14" font-weight="bold" lengthAdjust="spacing" textLength="34" x="86" y="305.4561">tags</text><text fill="#D9B8FF" font-family="sans-serif" font-size="14" lengthAdjust="spacing" textLength="171" x="120" y="305.4561">: dictionary[string, string]</text></g><!--link gcp_resource to gcp_deprecation_status--><g id="link_gcp_resource_gcp_deprecation_status"><path codeLine="69" d="M180.9,592.19 C169.21,709.03 147.4574,926.3998 135.0174,1050.7298 " fill="none" id="gcp_resource-to-gcp_deprecation_status" style="stroke:#FFAF37;stroke-width:2.0;"/><polygon fill="#FFAF37" points="134.42,1056.7,139.2962,1048.143,134.9178,1051.7248,131.3359,1047.3465,134.42,1056.7" style="stroke:#FFAF37;stroke-width:2.0;"/></g><!--reverse link resource to gcp_resource--><g id="link_resource_gcp_resource"><path codeLine="70" d="M188.5,336.04 C188.5,377.75 188.5,403.04 188.5,438.31 " fill="none" id="resource-backto-gcp_resource" style="stroke:#FFAF37;stroke-width:2.0;"/><polygon fill="none" points="188.5,318.04,182.5,336.04,194.5,336.04,188.5,318.04" style="stroke:#FFAF37;stroke-width:2.0;"/></g><!--link gcp_vertex_ai_index to gcp_deprecation_status--><g id="link_gcp_vertex_ai_index_gcp_deprecation_status"><path codeLine="71" d="M280.55,997.5 C259.37,1017.77 242.4251,1033.9719 222.7251,1052.8219 " fill="none" id="gcp_vertex_ai_index-to-gcp_deprecation_status" style="stroke:#FFAF37;stroke-width:2.0;"/><polygon fill="#FFAF37" points="218.39,1056.97,227.6581,1053.638,222.0026,1053.5133,222.1273,1047.8578,218.39,1056.97" style="stroke:#FFAF37;stroke-width:2.0;"/></g><!--reverse link gcp_resource to gcp_vertex_ai_index--><g id="link_gcp_resource_gcp_vertex_ai_index"><path codeLine="72" d="M252.7867,606.7126 C278.0067,642.2026 298.47,671 327.79,712.25 " fill="none" id="gcp_resource-backto-gcp_vertex_ai_index" style="stroke:#FFAF37;stroke-width:2.0;"/><polygon fill="none" points="242.36,592.04,247.8958,610.1881,257.6775,603.237,242.36,592.04" style="stroke:#FFAF37;stroke-width:2.0;"/></g><!--link gcp_vertex_ai_index to gcp_vertex_ai_deployed_index_ref--><g id="link_gcp_vertex_ai_index_gcp_vertex_ai_deployed_index_ref"><path codeLine="73" d="M435.82,997.5 C437.38,1027.54 438.6293,1051.7781 439.9393,1077.0381 " fill="none" id="gcp_vertex_ai_index-to-gcp_vertex_ai_deployed_index_ref" style="stroke:#FFAF37;stroke-width:2.0;"/><polygon fill="#FFAF37" points="440.25,1083.03,443.7785,1073.8349,439.991,1078.0367,435.7892,1074.2492,440.25,1083.03" style="stroke:#FFAF37;stroke-width:2.0;"/></g><!--link gcp_vertex_ai_index to gcp_vertex_ai_index_stats--><g id="link_gcp_vertex_ai_index_gcp_vertex_ai_index_stats"><path codeLine="74" d="M596.96,997.5 C632.71,1027.54 664.0965,1053.91 694.1565,1079.17 " fill="none" id="gcp_vertex_ai_index-to-gcp_vertex_ai_index_stats" style="stroke:#FFAF37;stroke-width:2.0;"/><polygon fill="#FFAF37" points="698.75,1083.03,694.4331,1074.1776,694.9221,1079.8133,689.2864,1080.3023,698.75,1083.03" style="stroke:#FFAF37;stroke-width:2.0;"/></g><!--SRC=[ZLJBRjim4BpxAmJaPjH0tBHnN1G5KWD5UmcAfhSW8DRaoY8iaSAIIge-_hsaPBia9IkzMJF3dU5oruKKc65LspQhiDeYcPdPIrK3GPNT4kddZIurPHTv3ldLAYK_QMLV5Dn1XTbdB9_GIWwfudiX-LwXCTdhWFe8VByZtIZHbxS4oZWAbGrKcnACkRMMvBQn68GHw-rDdgVAjEZ5bLYkhd4WqoIG3fBBoqknNAUI5wqcxtrItCkVc2t3fjrfYuEO0ujEDPdIAuAGWuiU-RCPlu8GKksojm7shSz42Yd2xmiG-jchSoXDQ6Ci4chRrhWPt0hNDo9VZOg_d1FFk6zTjkCr4rWJSh1IAsOisCPalsRpkS0IBOhv_9shHovJX_NI1DPRexqu0Wdh4ZXMRj0Yt5k4oZz154AZ6-9u293cygV64tTomqdM7epyIjXYoNBtWLGxB4vJIhK_4-O9oU8F1jBxbRf5mQGI3Y7CZm53M2QzaiOre6NA3KP4z6fKejPncd7pJjxvSKBNEcPbNr2u3_zxa0HFZPgwmiFZL4XKdDgwxt2DFEOix4Pkv5zYn3aWJzAczk5PXRRGSTSS18u3PdY15R26PCGVJWvwCD6xthlhe2c0X67SxKFNUDV_wpSUTtjZq1taLbF0dspFCKVRQ71XrsThg1jHZuoy6H_1aX5o2osIMJQM0UVkJpvnw9Y-EGbJZVWCdjkzQ5zHSdyCg7tekLS7pQExQhIXYyM7Sxjuqhp_lLWieiMUZStsHAd8yb-vfC9arQaT-C-3uGZ_1G00]--></g></svg>