<svg xmlns="http://www.w3.org/2000/svg" width="755" height="1298" viewBox="0 0 755 1298"><rect width="155" height="74.086" x="206" y="438.75" fill="#3D176E" rx="2.5" ry="2.5" style="stroke:#000d19;stroke-width:.5"/><circle cx="221" cy="458.644" r="11" fill="#ADD1B2" style="stroke:#181818;stroke-width:1"/><path d="M223.969 464.285q-.578.297-1.219.438-.64.156-1.344.156-2.5 0-3.828-1.64-1.312-1.657-1.312-4.782t1.312-4.781q1.328-1.656 3.828-1.656.703 0 1.344.156.656.156 1.219.453v2.719q-.625-.579-1.219-.844-.594-.281-1.219-.281-1.344 0-2.031 1.078-.687 1.062-.687 3.156t.687 3.172q.688 1.062 2.031 1.062.625 0 1.219-.265.594-.281 1.219-.86z"/><text x="240" y="464.53" fill="#D9B8FF" font-family="Helvetica" font-size="17" textLength="113">aws_resource</text><path d="M207 478.539h153" style="stroke:#000d19;stroke-width:.5"/><text x="217" y="500.534" fill="#D9B8FF" font-family="sans-serif" font-size="14" font-weight="bold" textLength="26">arn</text><text x="243" y="500.534" fill="#D9B8FF" font-family="sans-serif" font-size="14" textLength="48">: string</text><rect width="577" height="258.164" x="79" y="633.84" fill="#3D176E" rx="2.5" ry="2.5" style="stroke:#000d19;stroke-width:.5"/><circle cx="323.25" cy="653.735" r="11" fill="#ADD1B2" style="stroke:#181818;stroke-width:1"/><path d="M326.219 659.375q-.578.297-1.219.438-.64.156-1.344.156-2.5 0-3.828-1.64-1.312-1.657-1.312-4.782t1.312-4.781q1.328-1.656 3.828-1.656.703 0 1.344.156.656.156 1.219.453v2.719q-.625-.578-1.219-.844-.594-.281-1.219-.281-1.344 0-2.031 1.078-.687 1.062-.687 3.156t.687 3.172q.688 1.062 2.031 1.062.625 0 1.219-.265.594-.281 1.219-.86z"/><text x="348.75" y="659.62" fill="#D9B8FF" font-family="Helvetica" font-size="17" textLength="70">aws_vpc</text><path d="M80 673.629h575" style="stroke:#000d19;stroke-width:.5"/><text x="90" y="695.624" fill="#D9B8FF" font-family="sans-serif" font-size="14" font-weight="bold" textLength="114">vpc_cidr_block</text><text x="204" y="695.624" fill="#D9B8FF" font-family="sans-serif" font-size="14" textLength="48">: string</text><text x="90" y="721.921" fill="#D9B8FF" font-family="sans-serif" font-size="14" font-weight="bold" textLength="242">vpc_cidr_block_association_set</text><text x="332" y="721.921" fill="#D9B8FF" font-family="sans-serif" font-size="14" textLength="238">: aws_vpc_cidr_block_association[]</text><text x="90" y="748.218" fill="#D9B8FF" font-family="sans-serif" font-size="14" font-weight="bold" textLength="161">vpc_dhcp_options_id</text><text x="251" y="748.218" fill="#D9B8FF" font-family="sans-serif" font-size="14" textLength="48">: string</text><text x="90" y="774.515" fill="#D9B8FF" font-family="sans-serif" font-size="14" font-weight="bold" textLength="85">vpc_in_use</text><text x="175" y="774.515" fill="#D9B8FF" font-family="sans-serif" font-size="14" textLength="65">: boolean</text><text x="90" y="800.812" fill="#D9B8FF" font-family="sans-serif" font-size="14" font-weight="bold" textLength="172">vpc_instance_tenancy</text><text x="262" y="800.812" fill="#D9B8FF" font-family="sans-serif" font-size="14" textLength="48">: string</text><text x="90" y="827.109" fill="#D9B8FF" font-family="sans-serif" font-size="14" font-weight="bold" textLength="282">vpc_ipv6_cidr_block_association_set</text><text x="372" y="827.109" fill="#D9B8FF" font-family="sans-serif" font-size="14" textLength="273">: aws_vpc_ipv6_cidr_block_association[]</text><text x="90" y="853.405" fill="#D9B8FF" font-family="sans-serif" font-size="14" font-weight="bold" textLength="110">vpc_is_default</text><text x="200" y="853.405" fill="#D9B8FF" font-family="sans-serif" font-size="14" textLength="65">: boolean</text><text x="90" y="879.702" fill="#D9B8FF" font-family="sans-serif" font-size="14" font-weight="bold" textLength="75">vpc_state</text><text x="165" y="879.702" fill="#D9B8FF" font-family="sans-serif" font-size="14" textLength="48">: string</text><rect width="333" height="126.68" x="7" y="978.3" fill="#3D176E" rx="2.5" ry="2.5" style="stroke:#000d19;stroke-width:.5"/><circle cx="35.05" cy="998.194" r="11" fill="#ADD1B2" style="stroke:#181818;stroke-width:1"/><path d="M38.019 1003.835q-.578.297-1.219.438-.64.156-1.344.156-2.5 0-3.828-1.64-1.312-1.657-1.312-4.782t1.312-4.781q1.328-1.657 3.828-1.657.703 0 1.344.157.656.156 1.219.453v2.719q-.625-.579-1.219-.844-.594-.281-1.219-.281-1.344 0-2.031 1.078-.687 1.062-.687 3.156t.687 3.172q.688 1.062 2.031 1.062.625 0 1.219-.265.594-.282 1.219-.86z"/><text x="56.95" y="1004.08" fill="#D9B8FF" font-family="Helvetica" font-size="17" textLength="262">aws_vpc_cidr_block_association</text><path d="M8 1018.089h331" style="stroke:#000d19;stroke-width:.5"/><text x="18" y="1040.084" fill="#D9B8FF" font-family="sans-serif" font-size="14" font-weight="bold" textLength="110">association_id</text><text x="128" y="1040.084" fill="#D9B8FF" font-family="sans-serif" font-size="14" textLength="48">: string</text><text x="18" y="1066.381" fill="#D9B8FF" font-family="sans-serif" font-size="14" font-weight="bold" textLength="79">cidr_block</text><text x="97" y="1066.381" fill="#D9B8FF" font-family="sans-serif" font-size="14" textLength="48">: string</text><text x="18" y="1092.678" fill="#D9B8FF" font-family="sans-serif" font-size="14" font-weight="bold" textLength="126">cidr_block_state</text><text x="144" y="1092.678" fill="#D9B8FF" font-family="sans-serif" font-size="14" textLength="185">: aws_vpc_cidr_block_state</text><rect width="254" height="100.383" x="240.5" y="1191.28" fill="#3D176E" rx="2.5" ry="2.5" style="stroke:#000d19;stroke-width:.5"/><circle cx="255.5" cy="1211.175" r="11" fill="#ADD1B2" style="stroke:#181818;stroke-width:1"/><path d="M258.469 1216.815q-.578.297-1.219.438-.64.156-1.344.156-2.5 0-3.828-1.64-1.312-1.657-1.312-4.782t1.312-4.781q1.328-1.656 3.828-1.656.703 0 1.344.156.656.156 1.219.453v2.719q-.625-.578-1.219-.844-.594-.281-1.219-.281-1.344 0-2.031 1.078-.687 1.062-.687 3.156t.687 3.172q.688 1.062 2.031 1.062.625 0 1.219-.265.594-.281 1.219-.86z"/><text x="274.5" y="1217.06" fill="#D9B8FF" font-family="Helvetica" font-size="17" textLength="212">aws_vpc_cidr_block_state</text><path d="M241.5 1231.069h252" style="stroke:#000d19;stroke-width:.5"/><text x="251.5" y="1253.064" fill="#D9B8FF" font-family="sans-serif" font-size="14" font-weight="bold" textLength="40">state</text><text x="291.5" y="1253.064" fill="#D9B8FF" font-family="sans-serif" font-size="14" textLength="48">: string</text><text x="251.5" y="1279.361" fill="#D9B8FF" font-family="sans-serif" font-size="14" font-weight="bold" textLength="127">status_message</text><text x="378.5" y="1279.361" fill="#D9B8FF" font-family="sans-serif" font-size="14" textLength="48">: string</text><rect width="373" height="179.273" x="375" y="952" fill="#3D176E" rx="2.5" ry="2.5" style="stroke:#000d19;stroke-width:.5"/><circle cx="400.8" cy="971.894" r="11" fill="#ADD1B2" style="stroke:#181818;stroke-width:1"/><path d="M403.769 977.535q-.578.297-1.219.438-.64.156-1.344.156-2.5 0-3.828-1.64-1.312-1.657-1.312-4.782t1.312-4.781q1.328-1.657 3.828-1.657.703 0 1.344.157.656.156 1.219.453v2.719q-.625-.578-1.219-.844-.594-.281-1.219-.281-1.344 0-2.031 1.078-.687 1.062-.687 3.156t.687 3.172q.688 1.062 2.031 1.062.625 0 1.219-.265.594-.282 1.219-.86z"/><text x="422.2" y="977.78" fill="#D9B8FF" font-family="Helvetica" font-size="17" textLength="307">aws_vpc_ipv6_cidr_block_association</text><path d="M376 991.789h371" style="stroke:#000d19;stroke-width:.5"/><text x="386" y="1013.784" fill="#D9B8FF" font-family="sans-serif" font-size="14" font-weight="bold" textLength="110">association_id</text><text x="496" y="1013.784" fill="#D9B8FF" font-family="sans-serif" font-size="14" textLength="48">: string</text><text x="386" y="1040.081" fill="#D9B8FF" font-family="sans-serif" font-size="14" font-weight="bold" textLength="119">ipv6_cidr_block</text><text x="505" y="1040.081" fill="#D9B8FF" font-family="sans-serif" font-size="14" textLength="48">: string</text><text x="386" y="1066.378" fill="#D9B8FF" font-family="sans-serif" font-size="14" font-weight="bold" textLength="166">ipv6_cidr_block_state</text><text x="552" y="1066.378" fill="#D9B8FF" font-family="sans-serif" font-size="14" textLength="185">: aws_vpc_cidr_block_state</text><text x="386" y="1092.675" fill="#D9B8FF" font-family="sans-serif" font-size="14" font-weight="bold" textLength="74">ipv6_pool</text><text x="460" y="1092.675" fill="#D9B8FF" font-family="sans-serif" font-size="14" textLength="48">: string</text><text x="386" y="1118.972" fill="#D9B8FF" font-family="sans-serif" font-size="14" font-weight="bold" textLength="181">network_border_group</text><text x="567" y="1118.972" fill="#D9B8FF" font-family="sans-serif" font-size="14" textLength="48">: string</text><rect width="112" height="39.789" x="396.5" y="455.9" fill="#3D176E" rx="2.5" ry="2.5" style="stroke:#000d19;stroke-width:.5"/><circle cx="411.5" cy="475.795" r="11" fill="#ADD1B2" style="stroke:#181818;stroke-width:1"/><path d="M414.469 481.435q-.578.297-1.219.438-.64.156-1.344.156-2.5 0-3.828-1.64-1.312-1.657-1.312-4.782t1.312-4.781q1.328-1.656 3.828-1.656.703 0 1.344.156.656.156 1.219.453v2.719q-.625-.578-1.219-.844-.594-.281-1.219-.281-1.344 0-2.031 1.078-.687 1.062-.687 3.156t.687 3.172q.688 1.062 2.031 1.062.625 0 1.219-.265.594-.281 1.219-.86z"/><text x="430.5" y="481.68" fill="#D9B8FF" font-family="Helvetica" font-size="17" textLength="70">network</text><rect width="227" height="310.758" x="254" y="7" fill="#3D176E" rx="2.5" ry="2.5" style="stroke:#000d19;stroke-width:.5"/><circle cx="322.75" cy="26.895" r="11" fill="#ADD1B2" style="stroke:#181818;stroke-width:1"/><path d="M325.719 32.535q-.578.297-1.219.438-.64.156-1.344.156-2.5 0-3.828-1.64-1.312-1.657-1.312-4.782t1.312-4.781q1.328-1.656 3.828-1.656.703 0 1.344.156.656.156 1.219.453v2.719q-.625-.578-1.219-.844-.594-.281-1.219-.281-1.344 0-2.031 1.078-.687 1.062-.687 3.156t.687 3.172q.688 1.062 2.031 1.062.625 0 1.219-.265.594-.281 1.219-.86z"/><text x="348.25" y="32.78" fill="#D9B8FF" font-family="Helvetica" font-size="17" textLength="71">resource</text><path d="M255 46.789h225" style="stroke:#000d19;stroke-width:.5"/><text x="265" y="68.784" fill="#D9B8FF" font-family="sans-serif" font-size="14" font-weight="bold" textLength="29">age</text><text x="294" y="68.784" fill="#D9B8FF" font-family="sans-serif" font-size="14" textLength="66">: duration</text><text x="265" y="95.081" fill="#D9B8FF" font-family="sans-serif" font-size="14" font-weight="bold" textLength="43">atime</text><text x="308" y="95.081" fill="#D9B8FF" font-family="sans-serif" font-size="14" textLength="70">: datetime</text><text x="265" y="121.378" fill="#D9B8FF" font-family="sans-serif" font-size="14" font-weight="bold" textLength="43">ctime</text><text x="308" y="121.378" fill="#D9B8FF" font-family="sans-serif" font-size="14" textLength="70">: datetime</text><text x="265" y="147.675" fill="#D9B8FF" font-family="sans-serif" font-size="14" font-weight="bold" textLength="14">id</text><text x="279" y="147.675" fill="#D9B8FF" font-family="sans-serif" font-size="14" textLength="48">: string</text><text x="265" y="173.972" fill="#D9B8FF" font-family="sans-serif" font-size="14" font-weight="bold" textLength="33">kind</text><text x="298" y="173.972" fill="#D9B8FF" font-family="sans-serif" font-size="14" textLength="48">: string</text><text x="265" y="200.269" fill="#D9B8FF" font-family="sans-serif" font-size="14" font-weight="bold" textLength="90">last_access</text><text x="355" y="200.269" fill="#D9B8FF" font-family="sans-serif" font-size="14" textLength="66">: duration</text><text x="265" y="226.565" fill="#D9B8FF" font-family="sans-serif" font-size="14" font-weight="bold" textLength="90">last_update</text><text x="355" y="226.565" fill="#D9B8FF" font-family="sans-serif" font-size="14" textLength="66">: duration</text><text x="265" y="252.862" fill="#D9B8FF" font-family="sans-serif" font-size="14" font-weight="bold" textLength="48">mtime</text><text x="313" y="252.862" fill="#D9B8FF" font-family="sans-serif" font-size="14" textLength="70">: datetime</text><text x="265" y="279.159" fill="#D9B8FF" font-family="sans-serif" font-size="14" font-weight="bold" textLength="43">name</text><text x="308" y="279.159" fill="#D9B8FF" font-family="sans-serif" font-size="14" textLength="48">: string</text><text x="265" y="305.456" fill="#D9B8FF" font-family="sans-serif" font-size="14" font-weight="bold" textLength="34">tags</text><text x="299" y="305.456" fill="#D9B8FF" font-family="sans-serif" font-size="14" textLength="171">: dictionary[string, string]</text><path fill="none" d="M321.062 335.549c-12.15 45.04-19.632 72.791-27.772 102.961m32.46-120.34-10.481 15.816 11.586 3.125z" style="stroke:#ffaf37;stroke-width:2"/><g fill="none"><path d="M299.312 530.465c9.03 30.62 17.398 59.065 30.338 102.975" style="stroke:#ffaf37;stroke-width:2"/><path d="m294.22 513.2-.663 18.962 11.51-3.394z" style="stroke:#ffaf37;stroke-width:2"/></g><path fill="none" d="M277.6 892.16c-20.91 29.83-38.825 55.377-56.705 80.877" style="stroke:#ffaf37;stroke-width:2"/><path fill="#FFAF37" d="m217.45 977.95 8.442-5.073-5.571.98-.98-5.572z" style="stroke:#ffaf37;stroke-width:2"/><path fill="none" d="M457.4 892.16c14.08 20.07 24.907 35.516 38.187 54.466" style="stroke:#ffaf37;stroke-width:2"/><path fill="#FFAF37" d="m499.03 951.54-1.89-9.666-.98 5.571-5.57-.98z" style="stroke:#ffaf37;stroke-width:2"/><path fill="none" d="M441.646 513.2c-8.49 28.47-19.996 67.07-35.856 120.28m41-137.53-10.894 15.535 11.5 3.429zm-211.91 609.28c27.09 27.62 54.279 55.346 79.719 81.286" style="stroke:#ffaf37;stroke-width:2"/><path fill="#FFAF37" d="m318.8 1190.8-3.446-9.226-.055 5.656-5.656-.055z" style="stroke:#ffaf37;stroke-width:2"/><path fill="none" d="M474.15 1131.72c-19.92 20.3-36.18 36.886-53.78 54.836" style="stroke:#ffaf37;stroke-width:2"/><path fill="#FFAF37" d="m416.17 1190.84 9.157-3.626-5.656.056-.056-5.657z" style="stroke:#ffaf37;stroke-width:2"/><g fill="none"><path d="M414.49 335.535c14.92 54.65 25.13 92.085 32.78 120.105" style="stroke:#ffaf37;stroke-width:2"/><path d="m409.75 318.17-1.048 18.945 11.577-3.16z" style="stroke:#ffaf37;stroke-width:2"/></g></svg>