<?xml version="1.0" encoding="us-ascii" standalone="no"?><svg xmlns="http://www.w3.org/2000/svg" xmlns:xlink="http://www.w3.org/1999/xlink" contentStyleType="text/css" height="1614px" preserveAspectRatio="none" style="width:2631px;height:1614px;" version="1.1" viewBox="0 0 2631 1614" width="2631px" zoomAndPan="magnify"><defs/><g><!--class azure_delegation_properties--><g id="elem_azure_delegation_properties"><rect codeLine="23" fill="#3D176E" height="100.3828" id="azure_delegation_properties" rx="2.5" ry="2.5" style="stroke:#000D19;stroke-width:0.5;" width="278" x="7" y="1254.43"/><ellipse cx="22" cy="1274.3245" fill="#ADD1B2" rx="11" ry="11" style="stroke:#181818;stroke-width:1.0;"/><path d="M24.9688,1279.9652 Q24.3906,1280.262 23.75,1280.4027 Q23.1094,1280.5589 22.4063,1280.5589 Q19.9063,1280.5589 18.5781,1278.9183 Q17.2656,1277.262 17.2656,1274.137 Q17.2656,1271.012 18.5781,1269.3558 Q19.9063,1267.6995 22.4063,1267.6995 Q23.1094,1267.6995 23.75,1267.8558 Q24.4063,1268.012 24.9688,1268.3089 L24.9688,1271.0277 Q24.3438,1270.4495 23.75,1270.1839 Q23.1563,1269.9027 22.5313,1269.9027 Q21.1875,1269.9027 20.5,1270.9808 Q19.8125,1272.0433 19.8125,1274.137 Q19.8125,1276.2308 20.5,1277.3089 Q21.1875,1278.3714 22.5313,1278.3714 Q23.1563,1278.3714 23.75,1278.1058 Q24.3438,1277.8245 24.9688,1277.2464 L24.9688,1279.9652 Z " fill="#000000"/><text fill="#D9B8FF" font-family="Helvetica" font-size="17" lengthAdjust="spacing" textLength="236" x="41" y="1280.2098">azure_delegation_properties</text><line style="stroke:#000D19;stroke-width:0.5;" x1="8" x2="284" y1="1294.2191" y2="1294.2191"/><text fill="#D9B8FF" font-family="sans-serif" font-size="14" font-weight="bold" lengthAdjust="spacing" textLength="144" x="18" y="1316.2142">provisioning_state</text><text fill="#D9B8FF" font-family="sans-serif" font-size="14" lengthAdjust="spacing" textLength="48" x="162" y="1316.2142">: string</text><text fill="#D9B8FF" font-family="sans-serif" font-size="14" font-weight="bold" lengthAdjust="spacing" textLength="108" x="18" y="1342.5111">service_name</text><text fill="#D9B8FF" font-family="sans-serif" font-size="14" lengthAdjust="spacing" textLength="48" x="126" y="1342.5111">: string</text></g><!--class azure_identity--><g id="elem_azure_identity"><rect codeLine="27" fill="#3D176E" height="179.2734" id="azure_identity" rx="2.5" ry="2.5" style="stroke:#000D19;stroke-width:0.5;" width="552" x="320" y="1214.98"/><ellipse cx="526.75" cy="1234.8745" fill="#ADD1B2" rx="11" ry="11" style="stroke:#181818;stroke-width:1.0;"/><path d="M529.7188,1240.5152 Q529.1406,1240.812 528.5,1240.9527 Q527.8594,1241.1089 527.1563,1241.1089 Q524.6563,1241.1089 523.3281,1239.4683 Q522.0156,1237.812 522.0156,1234.687 Q522.0156,1231.562 523.3281,1229.9058 Q524.6563,1228.2495 527.1563,1228.2495 Q527.8594,1228.2495 528.5,1228.4058 Q529.1563,1228.562 529.7188,1228.8589 L529.7188,1231.5777 Q529.0938,1230.9995 528.5,1230.7339 Q527.9063,1230.4527 527.2813,1230.4527 Q525.9375,1230.4527 525.25,1231.5308 Q524.5625,1232.5933 524.5625,1234.687 Q524.5625,1236.7808 525.25,1237.8589 Q525.9375,1238.9214 527.2813,1238.9214 Q527.9063,1238.9214 528.5,1238.6558 Q529.0938,1238.3745 529.7188,1237.7964 L529.7188,1240.5152 Z " fill="#000000"/><text fill="#D9B8FF" font-family="Helvetica" font-size="17" lengthAdjust="spacing" textLength="120" x="552.25" y="1240.7598">azure_identity</text><line style="stroke:#000D19;stroke-width:0.5;" x1="321" x2="871" y1="1254.7691" y2="1254.7691"/><text fill="#D9B8FF" font-family="sans-serif" font-size="14" font-weight="bold" lengthAdjust="spacing" textLength="64" x="331" y="1276.7642">client_id</text><text fill="#D9B8FF" font-family="sans-serif" font-size="14" lengthAdjust="spacing" textLength="48" x="395" y="1276.7642">: string</text><text fill="#D9B8FF" font-family="sans-serif" font-size="14" font-weight="bold" lengthAdjust="spacing" textLength="88" x="331" y="1303.0611">principal_id</text><text fill="#D9B8FF" font-family="sans-serif" font-size="14" lengthAdjust="spacing" textLength="48" x="419" y="1303.0611">: string</text><text fill="#D9B8FF" font-family="sans-serif" font-size="14" font-weight="bold" lengthAdjust="spacing" textLength="72" x="331" y="1329.3579">tenant_id</text><text fill="#D9B8FF" font-family="sans-serif" font-size="14" lengthAdjust="spacing" textLength="48" x="403" y="1329.3579">: string</text><text fill="#D9B8FF" font-family="sans-serif" font-size="14" font-weight="bold" lengthAdjust="spacing" textLength="35" x="331" y="1355.6548">type</text><text fill="#D9B8FF" font-family="sans-serif" font-size="14" lengthAdjust="spacing" textLength="48" x="366" y="1355.6548">: string</text><text fill="#D9B8FF" font-family="sans-serif" font-size="14" font-weight="bold" lengthAdjust="spacing" textLength="194" x="331" y="1381.9517">user_assigned_identities</text><text fill="#D9B8FF" font-family="sans-serif" font-size="14" lengthAdjust="spacing" textLength="336" x="525" y="1381.9517">: dictionary[string, azure_user_assigned_identity]</text></g><!--class azure_network_virtual_appliance--><g id="elem_azure_network_virtual_appliance"><rect codeLine="34" fill="#3D176E" height="494.8359" id="azure_network_virtual_appliance" rx="2.5" ry="2.5" style="stroke:#000D19;stroke-width:0.5;" width="563" x="1070.5" y="660.14"/><ellipse cx="1204.25" cy="680.0345" fill="#ADD1B2" rx="11" ry="11" style="stroke:#181818;stroke-width:1.0;"/><path d="M1207.2188,685.6752 Q1206.6406,685.972 1206,686.1127 Q1205.3594,686.2689 1204.6563,686.2689 Q1202.1563,686.2689 1200.8281,684.6283 Q1199.5156,682.972 1199.5156,679.847 Q1199.5156,676.722 1200.8281,675.0658 Q1202.1563,673.4095 1204.6563,673.4095 Q1205.3594,673.4095 1206,673.5658 Q1206.6563,673.722 1207.2188,674.0189 L1207.2188,676.7377 Q1206.5938,676.1595 1206,675.8939 Q1205.4063,675.6127 1204.7813,675.6127 Q1203.4375,675.6127 1202.75,676.6908 Q1202.0625,677.7533 1202.0625,679.847 Q1202.0625,681.9408 1202.75,683.0189 Q1203.4375,684.0814 1204.7813,684.0814 Q1205.4063,684.0814 1206,683.8158 Q1206.5938,683.5345 1207.2188,682.9564 L1207.2188,685.6752 Z " fill="#000000"/><text fill="#D9B8FF" font-family="Helvetica" font-size="17" lengthAdjust="spacing" textLength="277" x="1229.75" y="685.9198">azure_network_virtual_appliance</text><line style="stroke:#000D19;stroke-width:0.5;" x1="1071.5" x2="1632.5" y1="699.9291" y2="699.9291"/><text fill="#D9B8FF" font-family="sans-serif" font-size="14" font-weight="bold" lengthAdjust="spacing" textLength="115" x="1081.5" y="721.9242">additional_nics</text><text fill="#D9B8FF" font-family="sans-serif" font-size="14" lengthAdjust="spacing" textLength="356" x="1196.5" y="721.9242">: azure_virtual_appliance_additional_nic_properties[]</text><text fill="#D9B8FF" font-family="sans-serif" font-size="14" font-weight="bold" lengthAdjust="spacing" textLength="117" x="1081.5" y="748.2211">address_prefix</text><text fill="#D9B8FF" font-family="sans-serif" font-size="14" lengthAdjust="spacing" textLength="48" x="1198.5" y="748.2211">: string</text><text fill="#D9B8FF" font-family="sans-serif" font-size="14" font-weight="bold" lengthAdjust="spacing" textLength="246" x="1081.5" y="774.5179">boot_strap_configuration_blobs</text><text fill="#D9B8FF" font-family="sans-serif" font-size="14" lengthAdjust="spacing" textLength="58" x="1327.5" y="774.5179">: string[]</text><text fill="#D9B8FF" font-family="sans-serif" font-size="14" font-weight="bold" lengthAdjust="spacing" textLength="186" x="1081.5" y="800.8148">cloud_init_configuration</text><text fill="#D9B8FF" font-family="sans-serif" font-size="14" lengthAdjust="spacing" textLength="48" x="1267.5" y="800.8148">: string</text><text fill="#D9B8FF" font-family="sans-serif" font-size="14" font-weight="bold" lengthAdjust="spacing" textLength="236" x="1081.5" y="827.1117">cloud_init_configuration_blobs</text><text fill="#D9B8FF" font-family="sans-serif" font-size="14" lengthAdjust="spacing" textLength="58" x="1317.5" y="827.1117">: string[]</text><text fill="#D9B8FF" font-family="sans-serif" font-size="14" font-weight="bold" lengthAdjust="spacing" textLength="83" x="1081.5" y="853.4086">delegation</text><text fill="#D9B8FF" font-family="sans-serif" font-size="14" lengthAdjust="spacing" textLength="206" x="1164.5" y="853.4086">: azure_delegation_properties</text><text fill="#D9B8FF" font-family="sans-serif" font-size="14" font-weight="bold" lengthAdjust="spacing" textLength="135" x="1081.5" y="879.7054">deployment_type</text><text fill="#D9B8FF" font-family="sans-serif" font-size="14" lengthAdjust="spacing" textLength="48" x="1216.5" y="879.7054">: string</text><text fill="#D9B8FF" font-family="sans-serif" font-size="14" font-weight="bold" lengthAdjust="spacing" textLength="59" x="1081.5" y="906.0023">identity</text><text fill="#D9B8FF" font-family="sans-serif" font-size="14" lengthAdjust="spacing" textLength="105" x="1140.5" y="906.0023">: azure_identity</text><text fill="#D9B8FF" font-family="sans-serif" font-size="14" font-weight="bold" lengthAdjust="spacing" textLength="182" x="1081.5" y="932.2992">inbound_security_rules</text><text fill="#D9B8FF" font-family="sans-serif" font-size="14" lengthAdjust="spacing" textLength="58" x="1263.5" y="932.2992">: string[]</text><text fill="#D9B8FF" font-family="sans-serif" font-size="14" font-weight="bold" lengthAdjust="spacing" textLength="63" x="1081.5" y="958.5961">nva_sku</text><text fill="#D9B8FF" font-family="sans-serif" font-size="14" lengthAdjust="spacing" textLength="278" x="1144.5" y="958.5961">: azure_virtual_appliance_sku_properties</text><text fill="#D9B8FF" font-family="sans-serif" font-size="14" font-weight="bold" lengthAdjust="spacing" textLength="217" x="1081.5" y="984.8929">partner_managed_resource</text><text fill="#D9B8FF" font-family="sans-serif" font-size="14" lengthAdjust="spacing" textLength="324" x="1298.5" y="984.8929">: azure_partner_managed_resource_properties</text><text fill="#D9B8FF" font-family="sans-serif" font-size="14" font-weight="bold" lengthAdjust="spacing" textLength="117" x="1081.5" y="1011.1898">ssh_public_key</text><text fill="#D9B8FF" font-family="sans-serif" font-size="14" lengthAdjust="spacing" textLength="48" x="1198.5" y="1011.1898">: string</text><text fill="#D9B8FF" font-family="sans-serif" font-size="14" font-weight="bold" lengthAdjust="spacing" textLength="166" x="1081.5" y="1037.4867">virtual_appliance_asn</text><text fill="#D9B8FF" font-family="sans-serif" font-size="14" lengthAdjust="spacing" textLength="44" x="1247.5" y="1037.4867">: int64</text><text fill="#D9B8FF" font-family="sans-serif" font-size="14" font-weight="bold" lengthAdjust="spacing" textLength="235" x="1081.5" y="1063.7836">virtual_appliance_connections</text><text fill="#D9B8FF" font-family="sans-serif" font-size="14" lengthAdjust="spacing" textLength="58" x="1316.5" y="1063.7836">: string[]</text><text fill="#D9B8FF" font-family="sans-serif" font-size="14" font-weight="bold" lengthAdjust="spacing" textLength="170" x="1081.5" y="1090.0804">virtual_appliance_nics</text><text fill="#D9B8FF" font-family="sans-serif" font-size="14" lengthAdjust="spacing" textLength="283" x="1251.5" y="1090.0804">: azure_virtual_appliance_nic_properties[]</text><text fill="#D9B8FF" font-family="sans-serif" font-size="14" font-weight="bold" lengthAdjust="spacing" textLength="176" x="1081.5" y="1116.3773">virtual_appliance_sites</text><text fill="#D9B8FF" font-family="sans-serif" font-size="14" lengthAdjust="spacing" textLength="58" x="1257.5" y="1116.3773">: string[]</text><text fill="#D9B8FF" font-family="sans-serif" font-size="14" font-weight="bold" lengthAdjust="spacing" textLength="86" x="1081.5" y="1142.6742">virtual_hub</text><text fill="#D9B8FF" font-family="sans-serif" font-size="14" lengthAdjust="spacing" textLength="48" x="1167.5" y="1142.6742">: string</text></g><!--class azure_partner_managed_resource_properties--><g id="elem_azure_partner_managed_resource_properties"><rect codeLine="53" fill="#3D176E" height="126.6797" id="azure_partner_managed_resource_properties" rx="2.5" ry="2.5" style="stroke:#000D19;stroke-width:0.5;" width="419" x="906.5" y="1241.28"/><ellipse cx="921.5" cy="1261.1745" fill="#ADD1B2" rx="11" ry="11" style="stroke:#181818;stroke-width:1.0;"/><path d="M924.4688,1266.8152 Q923.8906,1267.112 923.25,1267.2527 Q922.6094,1267.4089 921.9063,1267.4089 Q919.4063,1267.4089 918.0781,1265.7683 Q916.7656,1264.112 916.7656,1260.987 Q916.7656,1257.862 918.0781,1256.2058 Q919.4063,1254.5495 921.9063,1254.5495 Q922.6094,1254.5495 923.25,1254.7058 Q923.9063,1254.862 924.4688,1255.1589 L924.4688,1257.8777 Q923.8438,1257.2995 923.25,1257.0339 Q922.6563,1256.7527 922.0313,1256.7527 Q920.6875,1256.7527 920,1257.8308 Q919.3125,1258.8933 919.3125,1260.987 Q919.3125,1263.0808 920,1264.1589 Q920.6875,1265.2214 922.0313,1265.2214 Q922.6563,1265.2214 923.25,1264.9558 Q923.8438,1264.6745 924.4688,1264.0964 L924.4688,1266.8152 Z " fill="#000000"/><text fill="#D9B8FF" font-family="Helvetica" font-size="17" lengthAdjust="spacing" textLength="377" x="940.5" y="1267.0598">azure_partner_managed_resource_properties</text><line style="stroke:#000D19;stroke-width:0.5;" x1="907.5" x2="1324.5" y1="1281.0691" y2="1281.0691"/><text fill="#D9B8FF" font-family="sans-serif" font-size="14" font-weight="bold" lengthAdjust="spacing" textLength="14" x="917.5" y="1303.0642">id</text><text fill="#D9B8FF" font-family="sans-serif" font-size="14" lengthAdjust="spacing" textLength="48" x="931.5" y="1303.0642">: string</text><text fill="#D9B8FF" font-family="sans-serif" font-size="14" font-weight="bold" lengthAdjust="spacing" textLength="196" x="917.5" y="1329.3611">internal_load_balancer_id</text><text fill="#D9B8FF" font-family="sans-serif" font-size="14" lengthAdjust="spacing" textLength="48" x="1113.5" y="1329.3611">: string</text><text fill="#D9B8FF" font-family="sans-serif" font-size="14" font-weight="bold" lengthAdjust="spacing" textLength="206" x="917.5" y="1355.6579">standard_load_balancer_id</text><text fill="#D9B8FF" font-family="sans-serif" font-size="14" lengthAdjust="spacing" textLength="48" x="1123.5" y="1355.6579">: string</text></g><!--class azure_user_assigned_identity--><g id="elem_azure_user_assigned_identity"><rect codeLine="58" fill="#3D176E" height="152.9766" id="azure_user_assigned_identity" rx="2.5" ry="2.5" style="stroke:#000D19;stroke-width:0.5;" width="288" x="452" y="1454.25"/><ellipse cx="467" cy="1474.1445" fill="#ADD1B2" rx="11" ry="11" style="stroke:#181818;stroke-width:1.0;"/><path d="M469.9688,1479.7852 Q469.3906,1480.082 468.75,1480.2227 Q468.1094,1480.3789 467.4063,1480.3789 Q464.9063,1480.3789 463.5781,1478.7383 Q462.2656,1477.082 462.2656,1473.957 Q462.2656,1470.832 463.5781,1469.1758 Q464.9063,1467.5195 467.4063,1467.5195 Q468.1094,1467.5195 468.75,1467.6758 Q469.4063,1467.832 469.9688,1468.1289 L469.9688,1470.8477 Q469.3438,1470.2695 468.75,1470.0039 Q468.1563,1469.7227 467.5313,1469.7227 Q466.1875,1469.7227 465.5,1470.8008 Q464.8125,1471.8633 464.8125,1473.957 Q464.8125,1476.0508 465.5,1477.1289 Q466.1875,1478.1914 467.5313,1478.1914 Q468.1563,1478.1914 468.75,1477.9258 Q469.3438,1477.6445 469.9688,1477.0664 L469.9688,1479.7852 Z " fill="#000000"/><text fill="#D9B8FF" font-family="Helvetica" font-size="17" lengthAdjust="spacing" textLength="246" x="486" y="1480.0298">azure_user_assigned_identity</text><line style="stroke:#000D19;stroke-width:0.5;" x1="453" x2="739" y1="1494.0391" y2="1494.0391"/><text fill="#D9B8FF" font-family="sans-serif" font-size="14" font-weight="bold" lengthAdjust="spacing" textLength="64" x="463" y="1516.0342">client_id</text><text fill="#D9B8FF" font-family="sans-serif" font-size="14" lengthAdjust="spacing" textLength="48" x="527" y="1516.0342">: string</text><text fill="#D9B8FF" font-family="sans-serif" font-size="14" font-weight="bold" lengthAdjust="spacing" textLength="70" x="463" y="1542.3311">object_id</text><text fill="#D9B8FF" font-family="sans-serif" font-size="14" lengthAdjust="spacing" textLength="48" x="533" y="1542.3311">: string</text><text fill="#D9B8FF" font-family="sans-serif" font-size="14" font-weight="bold" lengthAdjust="spacing" textLength="88" x="463" y="1568.6279">principal_id</text><text fill="#D9B8FF" font-family="sans-serif" font-size="14" lengthAdjust="spacing" textLength="48" x="551" y="1568.6279">: string</text><text fill="#D9B8FF" font-family="sans-serif" font-size="14" font-weight="bold" lengthAdjust="spacing" textLength="93" x="463" y="1594.9248">resource_id</text><text fill="#D9B8FF" font-family="sans-serif" font-size="14" lengthAdjust="spacing" textLength="48" x="556" y="1594.9248">: string</text></g><!--class azure_virtual_appliance_additional_nic_properties--><g id="elem_azure_virtual_appliance_additional_nic_properties"><rect codeLine="64" fill="#3D176E" height="100.3828" id="azure_virtual_appliance_additional_nic_properties" rx="2.5" ry="2.5" style="stroke:#000D19;stroke-width:0.5;" width="458" x="1360" y="1254.43"/><ellipse cx="1375" cy="1274.3245" fill="#ADD1B2" rx="11" ry="11" style="stroke:#181818;stroke-width:1.0;"/><path d="M1377.9688,1279.9652 Q1377.3906,1280.262 1376.75,1280.4027 Q1376.1094,1280.5589 1375.4063,1280.5589 Q1372.9063,1280.5589 1371.5781,1278.9183 Q1370.2656,1277.262 1370.2656,1274.137 Q1370.2656,1271.012 1371.5781,1269.3558 Q1372.9063,1267.6995 1375.4063,1267.6995 Q1376.1094,1267.6995 1376.75,1267.8558 Q1377.4063,1268.012 1377.9688,1268.3089 L1377.9688,1271.0277 Q1377.3438,1270.4495 1376.75,1270.1839 Q1376.1563,1269.9027 1375.5313,1269.9027 Q1374.1875,1269.9027 1373.5,1270.9808 Q1372.8125,1272.0433 1372.8125,1274.137 Q1372.8125,1276.2308 1373.5,1277.3089 Q1374.1875,1278.3714 1375.5313,1278.3714 Q1376.1563,1278.3714 1376.75,1278.1058 Q1377.3438,1277.8245 1377.9688,1277.2464 L1377.9688,1279.9652 Z " fill="#000000"/><text fill="#D9B8FF" font-family="Helvetica" font-size="17" lengthAdjust="spacing" textLength="416" x="1394" y="1280.2098">azure_virtual_appliance_additional_nic_properties</text><line style="stroke:#000D19;stroke-width:0.5;" x1="1361" x2="1817" y1="1294.2191" y2="1294.2191"/><text fill="#D9B8FF" font-family="sans-serif" font-size="14" font-weight="bold" lengthAdjust="spacing" textLength="103" x="1371" y="1316.2142">has_public_ip</text><text fill="#D9B8FF" font-family="sans-serif" font-size="14" lengthAdjust="spacing" textLength="65" x="1474" y="1316.2142">: boolean</text><text fill="#D9B8FF" font-family="sans-serif" font-size="14" font-weight="bold" lengthAdjust="spacing" textLength="43" x="1371" y="1342.5111">name</text><text fill="#D9B8FF" font-family="sans-serif" font-size="14" lengthAdjust="spacing" textLength="48" x="1414" y="1342.5111">: string</text></g><!--class azure_virtual_appliance_nic_properties--><g id="elem_azure_virtual_appliance_nic_properties"><rect codeLine="68" fill="#3D176E" height="152.9766" id="azure_virtual_appliance_nic_properties" rx="2.5" ry="2.5" style="stroke:#000D19;stroke-width:0.5;" width="366" x="1853" y="1228.13"/><ellipse cx="1868" cy="1248.0245" fill="#ADD1B2" rx="11" ry="11" style="stroke:#181818;stroke-width:1.0;"/><path d="M1870.9688,1253.6652 Q1870.3906,1253.962 1869.75,1254.1027 Q1869.1094,1254.2589 1868.4063,1254.2589 Q1865.9063,1254.2589 1864.5781,1252.6183 Q1863.2656,1250.962 1863.2656,1247.837 Q1863.2656,1244.712 1864.5781,1243.0558 Q1865.9063,1241.3995 1868.4063,1241.3995 Q1869.1094,1241.3995 1869.75,1241.5558 Q1870.4063,1241.712 1870.9688,1242.0089 L1870.9688,1244.7277 Q1870.3438,1244.1495 1869.75,1243.8839 Q1869.1563,1243.6027 1868.5313,1243.6027 Q1867.1875,1243.6027 1866.5,1244.6808 Q1865.8125,1245.7433 1865.8125,1247.837 Q1865.8125,1249.9308 1866.5,1251.0089 Q1867.1875,1252.0714 1868.5313,1252.0714 Q1869.1563,1252.0714 1869.75,1251.8058 Q1870.3438,1251.5245 1870.9688,1250.9464 L1870.9688,1253.6652 Z " fill="#000000"/><text fill="#D9B8FF" font-family="Helvetica" font-size="17" lengthAdjust="spacing" textLength="324" x="1887" y="1253.9098">azure_virtual_appliance_nic_properties</text><line style="stroke:#000D19;stroke-width:0.5;" x1="1854" x2="2218" y1="1267.9191" y2="1267.9191"/><text fill="#D9B8FF" font-family="sans-serif" font-size="14" font-weight="bold" lengthAdjust="spacing" textLength="117" x="1864" y="1289.9142">instance_name</text><text fill="#D9B8FF" font-family="sans-serif" font-size="14" lengthAdjust="spacing" textLength="48" x="1981" y="1289.9142">: string</text><text fill="#D9B8FF" font-family="sans-serif" font-size="14" font-weight="bold" lengthAdjust="spacing" textLength="43" x="1864" y="1316.2111">name</text><text fill="#D9B8FF" font-family="sans-serif" font-size="14" lengthAdjust="spacing" textLength="48" x="1907" y="1316.2111">: string</text><text fill="#D9B8FF" font-family="sans-serif" font-size="14" font-weight="bold" lengthAdjust="spacing" textLength="147" x="1864" y="1342.5079">private_ip_address</text><text fill="#D9B8FF" font-family="sans-serif" font-size="14" lengthAdjust="spacing" textLength="48" x="2011" y="1342.5079">: string</text><text fill="#D9B8FF" font-family="sans-serif" font-size="14" font-weight="bold" lengthAdjust="spacing" textLength="139" x="1864" y="1368.8048">public_ip_address</text><text fill="#D9B8FF" font-family="sans-serif" font-size="14" lengthAdjust="spacing" textLength="48" x="2003" y="1368.8048">: string</text></g><!--class azure_virtual_appliance_sku_properties--><g id="elem_azure_virtual_appliance_sku_properties"><rect codeLine="74" fill="#3D176E" height="126.6797" id="azure_virtual_appliance_sku_properties" rx="2.5" ry="2.5" style="stroke:#000D19;stroke-width:0.5;" width="371" x="2253.5" y="1241.28"/><ellipse cx="2268.5" cy="1261.1745" fill="#ADD1B2" rx="11" ry="11" style="stroke:#181818;stroke-width:1.0;"/><path d="M2271.4688,1266.8152 Q2270.8906,1267.112 2270.25,1267.2527 Q2269.6094,1267.4089 2268.9063,1267.4089 Q2266.4063,1267.4089 2265.0781,1265.7683 Q2263.7656,1264.112 2263.7656,1260.987 Q2263.7656,1257.862 2265.0781,1256.2058 Q2266.4063,1254.5495 2268.9063,1254.5495 Q2269.6094,1254.5495 2270.25,1254.7058 Q2270.9063,1254.862 2271.4688,1255.1589 L2271.4688,1257.8777 Q2270.8438,1257.2995 2270.25,1257.0339 Q2269.6563,1256.7527 2269.0313,1256.7527 Q2267.6875,1256.7527 2267,1257.8308 Q2266.3125,1258.8933 2266.3125,1260.987 Q2266.3125,1263.0808 2267,1264.1589 Q2267.6875,1265.2214 2269.0313,1265.2214 Q2269.6563,1265.2214 2270.25,1264.9558 Q2270.8438,1264.6745 2271.4688,1264.0964 L2271.4688,1266.8152 Z " fill="#000000"/><text fill="#D9B8FF" font-family="Helvetica" font-size="17" lengthAdjust="spacing" textLength="329" x="2287.5" y="1267.0598">azure_virtual_appliance_sku_properties</text><line style="stroke:#000D19;stroke-width:0.5;" x1="2254.5" x2="2623.5" y1="1281.0691" y2="1281.0691"/><text fill="#D9B8FF" font-family="sans-serif" font-size="14" font-weight="bold" lengthAdjust="spacing" textLength="149" x="2264.5" y="1303.0642">bundled_scale_unit</text><text fill="#D9B8FF" font-family="sans-serif" font-size="14" lengthAdjust="spacing" textLength="48" x="2413.5" y="1303.0642">: string</text><text fill="#D9B8FF" font-family="sans-serif" font-size="14" font-weight="bold" lengthAdjust="spacing" textLength="170" x="2264.5" y="1329.3611">market_place_version</text><text fill="#D9B8FF" font-family="sans-serif" font-size="14" lengthAdjust="spacing" textLength="48" x="2434.5" y="1329.3611">: string</text><text fill="#D9B8FF" font-family="sans-serif" font-size="14" font-weight="bold" lengthAdjust="spacing" textLength="56" x="2264.5" y="1355.6579">vendor</text><text fill="#D9B8FF" font-family="sans-serif" font-size="14" lengthAdjust="spacing" textLength="48" x="2320.5" y="1355.6579">: string</text></g><!--class microsoft_resource--><g id="elem_microsoft_resource"><rect codeLine="79" fill="#3D176E" height="100.3828" id="microsoft_resource" rx="2.5" ry="2.5" style="stroke:#000D19;stroke-width:0.5;" width="214" x="1245" y="438.76"/><ellipse cx="1266.3" cy="458.6545" fill="#ADD1B2" rx="11" ry="11" style="stroke:#181818;stroke-width:1.0;"/><path d="M1269.2688,464.2952 Q1268.6906,464.592 1268.05,464.7327 Q1267.4094,464.8889 1266.7063,464.8889 Q1264.2063,464.8889 1262.8781,463.2483 Q1261.5656,461.592 1261.5656,458.467 Q1261.5656,455.342 1262.8781,453.6858 Q1264.2063,452.0295 1266.7063,452.0295 Q1267.4094,452.0295 1268.05,452.1858 Q1268.7063,452.342 1269.2688,452.6389 L1269.2688,455.3577 Q1268.6438,454.7795 1268.05,454.5139 Q1267.4563,454.2327 1266.8313,454.2327 Q1265.4875,454.2327 1264.8,455.3108 Q1264.1125,456.3733 1264.1125,458.467 Q1264.1125,460.5608 1264.8,461.6389 Q1265.4875,462.7014 1266.8313,462.7014 Q1267.4563,462.7014 1268.05,462.4358 Q1268.6438,462.1545 1269.2688,461.5764 L1269.2688,464.2952 Z " fill="#000000"/><text fill="#D9B8FF" font-family="Helvetica" font-size="17" lengthAdjust="spacing" textLength="158" x="1286.7" y="464.5398">microsoft_resource</text><line style="stroke:#000D19;stroke-width:0.5;" x1="1246" x2="1458" y1="478.5491" y2="478.5491"/><text fill="#D9B8FF" font-family="sans-serif" font-size="14" font-weight="bold" lengthAdjust="spacing" textLength="35" x="1256" y="500.5442">etag</text><text fill="#D9B8FF" font-family="sans-serif" font-size="14" lengthAdjust="spacing" textLength="48" x="1291" y="500.5442">: string</text><text fill="#D9B8FF" font-family="sans-serif" font-size="14" font-weight="bold" lengthAdjust="spacing" textLength="144" x="1256" y="526.8411">provisioning_state</text><text fill="#D9B8FF" font-family="sans-serif" font-size="14" lengthAdjust="spacing" textLength="48" x="1400" y="526.8411">: string</text></g><!--class resource--><g id="elem_resource"><rect codeLine="83" fill="#3D176E" height="310.7578" id="resource" rx="2.5" ry="2.5" style="stroke:#000D19;stroke-width:0.5;" width="227" x="1238.5" y="7"/><ellipse cx="1307.25" cy="26.8945" fill="#ADD1B2" rx="11" ry="11" style="stroke:#181818;stroke-width:1.0;"/><path d="M1310.2188,32.5352 Q1309.6406,32.832 1309,32.9727 Q1308.3594,33.1289 1307.6563,33.1289 Q1305.1563,33.1289 1303.8281,31.4883 Q1302.5156,29.832 1302.5156,26.707 Q1302.5156,23.582 1303.8281,21.9258 Q1305.1563,20.2695 1307.6563,20.2695 Q1308.3594,20.2695 1309,20.4258 Q1309.6563,20.582 1310.2188,20.8789 L1310.2188,23.5977 Q1309.5938,23.0195 1309,22.7539 Q1308.4063,22.4727 1307.7813,22.4727 Q1306.4375,22.4727 1305.75,23.5508 Q1305.0625,24.6133 1305.0625,26.707 Q1305.0625,28.8008 1305.75,29.8789 Q1306.4375,30.9414 1307.7813,30.9414 Q1308.4063,30.9414 1309,30.6758 Q1309.5938,30.3945 1310.2188,29.8164 L1310.2188,32.5352 Z " fill="#000000"/><text fill="#D9B8FF" font-family="Helvetica" font-size="17" lengthAdjust="spacing" textLength="71" x="1332.75" y="32.7798">resource</text><line style="stroke:#000D19;stroke-width:0.5;" x1="1239.5" x2="1464.5" y1="46.7891" y2="46.7891"/><text fill="#D9B8FF" font-family="sans-serif" font-size="14" font-weight="bold" lengthAdjust="spacing" textLength="29" x="1249.5" y="68.7842">age</text><text fill="#D9B8FF" font-family="sans-serif" font-size="14" lengthAdjust="spacing" textLength="66" x="1278.5" y="68.7842">: duration</text><text fill="#D9B8FF" font-family="sans-serif" font-size="14" font-weight="bold" lengthAdjust="spacing" textLength="43" x="1249.5" y="95.0811">atime</text><text fill="#D9B8FF" font-family="sans-serif" font-size="14" lengthAdjust="spacing" textLength="70" x="1292.5" y="95.0811">: datetime</text><text fill="#D9B8FF" font-family="sans-serif" font-size="14" font-weight="bold" lengthAdjust="spacing" textLength="43" x="1249.5" y="121.3779">ctime</text><text fill="#D9B8FF" font-family="sans-serif" font-size="14" lengthAdjust="spacing" textLength="70" x="1292.5" y="121.3779">: datetime</text><text fill="#D9B8FF" font-family="sans-serif" font-size="14" font-weight="bold" lengthAdjust="spacing" textLength="14" x="1249.5" y="147.6748">id</text><text fill="#D9B8FF" font-family="sans-serif" font-size="14" lengthAdjust="spacing" textLength="48" x="1263.5" y="147.6748">: string</text><text fill="#D9B8FF" font-family="sans-serif" font-size="14" font-weight="bold" lengthAdjust="spacing" textLength="33" x="1249.5" y="173.9717">kind</text><text fill="#D9B8FF" font-family="sans-serif" font-size="14" lengthAdjust="spacing" textLength="48" x="1282.5" y="173.9717">: string</text><text fill="#D9B8FF" font-family="sans-serif" font-size="14" font-weight="bold" lengthAdjust="spacing" textLength="90" x="1249.5" y="200.2686">last_access</text><text fill="#D9B8FF" font-family="sans-serif" font-size="14" lengthAdjust="spacing" textLength="66" x="1339.5" y="200.2686">: duration</text><text fill="#D9B8FF" font-family="sans-serif" font-size="14" font-weight="bold" lengthAdjust="spacing" textLength="90" x="1249.5" y="226.5654">last_update</text><text fill="#D9B8FF" font-family="sans-serif" font-size="14" lengthAdjust="spacing" textLength="66" x="1339.5" y="226.5654">: duration</text><text fill="#D9B8FF" font-family="sans-serif" font-size="14" font-weight="bold" lengthAdjust="spacing" textLength="48" x="1249.5" y="252.8623">mtime</text><text fill="#D9B8FF" font-family="sans-serif" font-size="14" lengthAdjust="spacing" textLength="70" x="1297.5" y="252.8623">: datetime</text><text fill="#D9B8FF" font-family="sans-serif" font-size="14" font-weight="bold" lengthAdjust="spacing" textLength="43" x="1249.5" y="279.1592">name</text><text fill="#D9B8FF" font-family="sans-serif" font-size="14" lengthAdjust="spacing" textLength="48" x="1292.5" y="279.1592">: string</text><text fill="#D9B8FF" font-family="sans-serif" font-size="14" font-weight="bold" lengthAdjust="spacing" textLength="34" x="1249.5" y="305.4561">tags</text><text fill="#D9B8FF" font-family="sans-serif" font-size="14" lengthAdjust="spacing" textLength="171" x="1283.5" y="305.4561">: dictionary[string, string]</text></g><!--link azure_identity to azure_user_assigned_identity--><g id="link_azure_identity_azure_user_assigned_identity"><path codeLine="95" d="M596,1394.52 C596,1414.2 596,1428.87 596,1447.97 " fill="none" id="azure_identity-to-azure_user_assigned_identity" style="stroke:#FFAF37;stroke-width:2.0;"/><polygon fill="#FFAF37" points="596,1453.97,600,1444.97,596,1448.97,592,1444.97,596,1453.97" style="stroke:#FFAF37;stroke-width:2.0;"/></g><!--link azure_network_virtual_appliance to azure_delegation_properties--><g id="link_azure_network_virtual_appliance_azure_delegation_properties"><path codeLine="96" d="M1070.09,971.86 C855.1,1024.64 554.05,1108.32 302,1214.98 C276.04,1225.97 254.1432,1237.2723 229.9532,1251.1623 " fill="none" id="azure_network_virtual_appliance-to-azure_delegation_properties" style="stroke:#FFAF37;stroke-width:2.0;"/><polygon fill="#FFAF37" points="224.75,1254.15,234.5466,1253.1372,229.086,1251.6602,230.563,1246.1996,224.75,1254.15" style="stroke:#FFAF37;stroke-width:2.0;"/></g><!--link azure_network_virtual_appliance to azure_identity--><g id="link_azure_network_virtual_appliance_azure_identity"><path codeLine="97" d="M1070.22,1055.81 C968.13,1109.16 861.3279,1164.9715 771.7379,1211.7815 " fill="none" id="azure_network_virtual_appliance-to-azure_identity" style="stroke:#FFAF37;stroke-width:2.0;"/><polygon fill="#FFAF37" points="766.42,1214.56,776.2492,1213.9374,770.8516,1212.2446,772.5444,1206.8469,766.42,1214.56" style="stroke:#FFAF37;stroke-width:2.0;"/></g><!--link azure_network_virtual_appliance to azure_partner_managed_resource_properties--><g id="link_azure_network_virtual_appliance_azure_partner_managed_resource_properties"><path codeLine="98" d="M1204.55,1155.39 C1185.73,1186.89 1171.0455,1211.4582 1156.4555,1235.8982 " fill="none" id="azure_network_virtual_appliance-to-azure_partner_managed_resource_properties" style="stroke:#FFAF37;stroke-width:2.0;"/><polygon fill="#FFAF37" points="1153.38,1241.05,1161.4278,1235.3726,1155.9429,1236.7568,1154.5587,1231.2719,1153.38,1241.05" style="stroke:#FFAF37;stroke-width:2.0;"/></g><!--link azure_network_virtual_appliance to azure_virtual_appliance_additional_nic_properties--><g id="link_azure_network_virtual_appliance_azure_virtual_appliance_additional_nic_properties"><path codeLine="99" d="M1500.08,1155.39 C1522.53,1192.82 1540.3827,1222.5852 1556.3027,1249.1152 " fill="none" id="azure_network_virtual_appliance-to-azure_virtual_appliance_additional_nic_properties" style="stroke:#FFAF37;stroke-width:2.0;"/><polygon fill="#FFAF37" points="1559.39,1254.26,1558.189,1244.4846,1556.8173,1249.9727,1551.3293,1248.601,1559.39,1254.26" style="stroke:#FFAF37;stroke-width:2.0;"/></g><!--link azure_network_virtual_appliance to azure_virtual_appliance_nic_properties--><g id="link_azure_network_virtual_appliance_azure_virtual_appliance_nic_properties"><path codeLine="100" d="M1633.66,1071.24 C1727.56,1125.47 1822.5342,1180.3294 1899.4342,1224.7394 " fill="none" id="azure_network_virtual_appliance-to-azure_virtual_appliance_nic_properties" style="stroke:#FFAF37;stroke-width:2.0;"/><polygon fill="#FFAF37" points="1904.63,1227.74,1898.8367,1219.7752,1900.3002,1225.2395,1894.8359,1226.703,1904.63,1227.74" style="stroke:#FFAF37;stroke-width:2.0;"/></g><!--link azure_network_virtual_appliance to azure_virtual_appliance_sku_properties--><g id="link_azure_network_virtual_appliance_azure_virtual_appliance_sku_properties"><path codeLine="101" d="M1633.73,999.97 C1808.39,1058.18 2036.69,1137.06 2236,1214.98 C2256.5,1223 2272.4685,1229.512 2293.4685,1238.442 " fill="none" id="azure_network_virtual_appliance-to-azure_virtual_appliance_sku_properties" style="stroke:#FFAF37;stroke-width:2.0;"/><polygon fill="#FFAF37" points="2298.99,1240.79,2292.273,1233.5871,2294.3887,1238.8334,2289.1424,1240.9491,2298.99,1240.79" style="stroke:#FFAF37;stroke-width:2.0;"/></g><!--reverse link microsoft_resource to azure_network_virtual_appliance--><g id="link_microsoft_resource_azure_network_virtual_appliance"><path codeLine="102" d="M1352,557.38 C1352,588.74 1352,613.93 1352,659.69 " fill="none" id="microsoft_resource-backto-azure_network_virtual_appliance" style="stroke:#FFAF37;stroke-width:2.0;"/><polygon fill="none" points="1352,539.38,1346,557.38,1358,557.38,1352,539.38" style="stroke:#FFAF37;stroke-width:2.0;"/></g><!--reverse link resource to microsoft_resource--><g id="link_resource_microsoft_resource"><path codeLine="103" d="M1352,336.06 C1352,379.66 1352,405.98 1352,438.43 " fill="none" id="resource-backto-microsoft_resource" style="stroke:#FFAF37;stroke-width:2.0;"/><polygon fill="none" points="1352,318.06,1346,336.06,1358,336.06,1352,318.06" style="stroke:#FFAF37;stroke-width:2.0;"/></g><!--SRC=[hLRRZjis47ttLmZ8sw86TdFRR50KI1S8cfUWQFeM1CI87DciAL8OKjuwJVwzGybUYvGiEvSdMvoZCsUkr5ehBB1kmgweiIwH_C9lj6s0e2xU4Bc7UsSS5K-g2gfdjxdnhRFXBE0zr5ZyWMQBGKl84N-ljTnOzBvuEZ3z3dAp8jTQrTC70klPX3OCKFS6l7yJ0kco3JWGe-xALrML8tFI9y_KpUrB7C4SAQGzvFhwMjtSvP2phcRZVaHyq9-nk1acxRqBE98vSj6XPbL6n43aAD23_QJ6Fq4fRLV5Yy7PNxqciaZ9-OSrAFSGqHKOFtJZ0nAwi6lmVXGLthrIrUqa-Dqfy4B6r1NmkIKK2Wsk86XdHKEkGGeQVV7VukgA7xVQiu4r2HyWuDNLQ-OdVcQpHzfgYS9oy0F3ruIT1yC6pNCH2QNH_CHd2K_3lr8tO793G0jZU8miEMXPY62FUcLH7Hno316aj8oH0Uq-zlXVzhecNzfzojHR30-EDcAhARGi49h6QB0Ikt1YRJjs8woMdR_-jH5SfD11eZz-wec8HvUFiTB_9i6LpWNEFK4ZfBELNhNKrweqhlH7QCSZZMiv6Aj32auOJu4c6O_DSOnkic4wR6FSheuL7jNeaE0Zo-4a6cqPUrHub2tnaQ3MOAx4Ra7uJJkNP3QdYdWW0a-PgC72YilCINOjIJoId4AaFDwlHTEMXYktmLqIs4IfVPShRSFBvvC0phh5hYtp6CVOStqrqKmJUT41JxbQj-N9sRqWETqSP0FAaIF5JZSEb2Z1H16KZp7l4wk0r1mgbJCziZEBnPN_S9ulNZUFuSre-8R9xeIjmHywHpUHbUVP8DZOq7Dhyrob-xpRcCJn1XvnTq5lUN-p2B5VDgdv8772UavOEdMTi9AdsN2Dl0J3TUDLatYhWJOOH6E0Nz_onrA-ehPebQC93RMMvBohmcClTlumm2eBT-RcEf0b5DpWtNsnNuRn9EW-YOfVZ_zZdqsSPLt4zt1wmBw202dtMHruw2nje_Ro1fPwmi-efXpqgJkk_ustMNOBBvU_pKxJujozToIOlWOkV_yxN5wohIzd-uPP_Y7MdqYLtN0Ju_3hb-LoUUxhPP71npoB_m40]--></g></svg>