<?xml version="1.0" encoding="us-ascii" standalone="no"?><svg xmlns="http://www.w3.org/2000/svg" xmlns:xlink="http://www.w3.org/1999/xlink" contentStyleType="text/css" height="1529px" preserveAspectRatio="none" style="width:1488px;height:1529px;" version="1.1" viewBox="0 0 1488 1529" width="1488px" zoomAndPan="magnify"><defs/><g><!--class azure_resource--><g id="elem_azure_resource"><rect codeLine="22" fill="#3D176E" height="39.7891" id="azure_resource" rx="2.5" ry="2.5" style="stroke:#000D19;stroke-width:0.5;" width="168" x="427.39" y="438.76"/><ellipse cx="442.39" cy="458.6545" fill="#ADD1B2" rx="11" ry="11" style="stroke:#181818;stroke-width:1.0;"/><path d="M445.3588,464.2952 Q444.7806,464.592 444.14,464.7327 Q443.4994,464.8889 442.7963,464.8889 Q440.2963,464.8889 438.9681,463.2483 Q437.6556,461.592 437.6556,458.467 Q437.6556,455.342 438.9681,453.6858 Q440.2963,452.0295 442.7963,452.0295 Q443.4994,452.0295 444.14,452.1858 Q444.7963,452.342 445.3588,452.6389 L445.3588,455.3577 Q444.7338,454.7795 444.14,454.5139 Q443.5463,454.2327 442.9213,454.2327 Q441.5775,454.2327 440.89,455.3108 Q440.2025,456.3733 440.2025,458.467 Q440.2025,460.5608 440.89,461.6389 Q441.5775,462.7014 442.9213,462.7014 Q443.5463,462.7014 444.14,462.4358 Q444.7338,462.1545 445.3588,461.5764 L445.3588,464.2952 Z " fill="#000000"/><text fill="#D9B8FF" font-family="Helvetica" font-size="17" lengthAdjust="spacing" textLength="126" x="461.39" y="464.5398">azure_resource</text></g><!--class azure_resource_sku--><g id="elem_azure_resource_sku"><rect codeLine="24" fill="#3D176E" height="363.3516" id="azure_resource_sku" rx="2.5" ry="2.5" style="stroke:#000D19;stroke-width:0.5;" width="373" x="324.89" y="599.55"/><ellipse cx="420.14" cy="619.4445" fill="#ADD1B2" rx="11" ry="11" style="stroke:#181818;stroke-width:1.0;"/><path d="M423.1088,625.0852 Q422.5306,625.382 421.89,625.5227 Q421.2494,625.6789 420.5463,625.6789 Q418.0463,625.6789 416.7181,624.0383 Q415.4056,622.382 415.4056,619.257 Q415.4056,616.132 416.7181,614.4758 Q418.0463,612.8195 420.5463,612.8195 Q421.2494,612.8195 421.89,612.9758 Q422.5463,613.132 423.1088,613.4289 L423.1088,616.1477 Q422.4838,615.5695 421.89,615.3039 Q421.2963,615.0227 420.6713,615.0227 Q419.3275,615.0227 418.64,616.1008 Q417.9525,617.1633 417.9525,619.257 Q417.9525,621.3508 418.64,622.4289 Q419.3275,623.4914 420.6713,623.4914 Q421.2963,623.4914 421.89,623.2258 Q422.4838,622.9445 423.1088,622.3664 L423.1088,625.0852 Z " fill="#000000"/><text fill="#D9B8FF" font-family="Helvetica" font-size="17" lengthAdjust="spacing" textLength="164" x="445.64" y="625.3298">azure_resource_sku</text><line style="stroke:#000D19;stroke-width:0.5;" x1="325.89" x2="696.89" y1="639.3391" y2="639.3391"/><text fill="#D9B8FF" font-family="sans-serif" font-size="14" font-weight="bold" lengthAdjust="spacing" textLength="98" x="335.89" y="661.3342">api_versions</text><text fill="#D9B8FF" font-family="sans-serif" font-size="14" lengthAdjust="spacing" textLength="58" x="433.89" y="661.3342">: string[]</text><text fill="#D9B8FF" font-family="sans-serif" font-size="14" font-weight="bold" lengthAdjust="spacing" textLength="88" x="335.89" y="687.6311">capabilities</text><text fill="#D9B8FF" font-family="sans-serif" font-size="14" lengthAdjust="spacing" textLength="242" x="423.89" y="687.6311">: azure_resource_sku_capabilities[]</text><text fill="#D9B8FF" font-family="sans-serif" font-size="14" font-weight="bold" lengthAdjust="spacing" textLength="43" x="335.89" y="713.9279">costs</text><text fill="#D9B8FF" font-family="sans-serif" font-size="14" lengthAdjust="spacing" textLength="204" x="378.89" y="713.9279">: azure_resource_sku_costs[]</text><text fill="#D9B8FF" font-family="sans-serif" font-size="14" font-weight="bold" lengthAdjust="spacing" textLength="46" x="335.89" y="740.2248">family</text><text fill="#D9B8FF" font-family="sans-serif" font-size="14" lengthAdjust="spacing" textLength="48" x="381.89" y="740.2248">: string</text><text fill="#D9B8FF" font-family="sans-serif" font-size="14" font-weight="bold" lengthAdjust="spacing" textLength="99" x="335.89" y="766.5217">location_info</text><text fill="#D9B8FF" font-family="sans-serif" font-size="14" lengthAdjust="spacing" textLength="252" x="434.89" y="766.5217">: azure_resource_sku_location_info[]</text><text fill="#D9B8FF" font-family="sans-serif" font-size="14" font-weight="bold" lengthAdjust="spacing" textLength="71" x="335.89" y="792.8186">locations</text><text fill="#D9B8FF" font-family="sans-serif" font-size="14" lengthAdjust="spacing" textLength="58" x="406.89" y="792.8186">: string[]</text><text fill="#D9B8FF" font-family="sans-serif" font-size="14" font-weight="bold" lengthAdjust="spacing" textLength="114" x="335.89" y="819.1154">resource_type</text><text fill="#D9B8FF" font-family="sans-serif" font-size="14" lengthAdjust="spacing" textLength="48" x="449.89" y="819.1154">: string</text><text fill="#D9B8FF" font-family="sans-serif" font-size="14" font-weight="bold" lengthAdjust="spacing" textLength="91" x="335.89" y="845.4123">restrictions</text><text fill="#D9B8FF" font-family="sans-serif" font-size="14" lengthAdjust="spacing" textLength="243" x="426.89" y="845.4123">: azure_resource_sku_restrictions[]</text><text fill="#D9B8FF" font-family="sans-serif" font-size="14" font-weight="bold" lengthAdjust="spacing" textLength="100" x="335.89" y="871.7092">sku_capacity</text><text fill="#D9B8FF" font-family="sans-serif" font-size="14" lengthAdjust="spacing" textLength="212" x="435.89" y="871.7092">: azure_resource_sku_capacity</text><text fill="#D9B8FF" font-family="sans-serif" font-size="14" font-weight="bold" lengthAdjust="spacing" textLength="68" x="335.89" y="898.0061">sku_kind</text><text fill="#D9B8FF" font-family="sans-serif" font-size="14" lengthAdjust="spacing" textLength="48" x="403.89" y="898.0061">: string</text><text fill="#D9B8FF" font-family="sans-serif" font-size="14" font-weight="bold" lengthAdjust="spacing" textLength="67" x="335.89" y="924.3029">sku_size</text><text fill="#D9B8FF" font-family="sans-serif" font-size="14" lengthAdjust="spacing" textLength="48" x="402.89" y="924.3029">: string</text><text fill="#D9B8FF" font-family="sans-serif" font-size="14" font-weight="bold" lengthAdjust="spacing" textLength="62" x="335.89" y="950.5998">sku_tier</text><text fill="#D9B8FF" font-family="sans-serif" font-size="14" lengthAdjust="spacing" textLength="48" x="397.89" y="950.5998">: string</text></g><!--class azure_resource_sku_capabilities--><g id="elem_azure_resource_sku_capabilities"><rect codeLine="38" fill="#3D176E" height="100.3828" id="azure_resource_sku_capabilities" rx="2.5" ry="2.5" style="stroke:#000D19;stroke-width:0.5;" width="308" x="282.39" y="1422.56"/><ellipse cx="297.39" cy="1442.4545" fill="#ADD1B2" rx="11" ry="11" style="stroke:#181818;stroke-width:1.0;"/><path d="M300.3588,1448.0952 Q299.7806,1448.392 299.14,1448.5327 Q298.4994,1448.6889 297.7963,1448.6889 Q295.2963,1448.6889 293.9681,1447.0483 Q292.6556,1445.392 292.6556,1442.267 Q292.6556,1439.142 293.9681,1437.4858 Q295.2963,1435.8295 297.7963,1435.8295 Q298.4994,1435.8295 299.14,1435.9858 Q299.7963,1436.142 300.3588,1436.4389 L300.3588,1439.1577 Q299.7338,1438.5795 299.14,1438.3139 Q298.5463,1438.0327 297.9213,1438.0327 Q296.5775,1438.0327 295.89,1439.1108 Q295.2025,1440.1733 295.2025,1442.267 Q295.2025,1444.3608 295.89,1445.4389 Q296.5775,1446.5014 297.9213,1446.5014 Q298.5463,1446.5014 299.14,1446.2358 Q299.7338,1445.9545 300.3588,1445.3764 L300.3588,1448.0952 Z " fill="#000000"/><text fill="#D9B8FF" font-family="Helvetica" font-size="17" lengthAdjust="spacing" textLength="266" x="316.39" y="1448.3398">azure_resource_sku_capabilities</text><line style="stroke:#000D19;stroke-width:0.5;" x1="283.39" x2="589.39" y1="1462.3491" y2="1462.3491"/><text fill="#D9B8FF" font-family="sans-serif" font-size="14" font-weight="bold" lengthAdjust="spacing" textLength="43" x="293.39" y="1484.3442">name</text><text fill="#D9B8FF" font-family="sans-serif" font-size="14" lengthAdjust="spacing" textLength="48" x="336.39" y="1484.3442">: string</text><text fill="#D9B8FF" font-family="sans-serif" font-size="14" font-weight="bold" lengthAdjust="spacing" textLength="42" x="293.39" y="1510.6411">value</text><text fill="#D9B8FF" font-family="sans-serif" font-size="14" lengthAdjust="spacing" textLength="48" x="335.39" y="1510.6411">: string</text></g><!--class azure_resource_sku_capacity--><g id="elem_azure_resource_sku_capacity"><rect codeLine="42" fill="#3D176E" height="152.9766" id="azure_resource_sku_capacity" rx="2.5" ry="2.5" style="stroke:#000D19;stroke-width:0.5;" width="283" x="64.89" y="1036.05"/><ellipse cx="79.89" cy="1055.9445" fill="#ADD1B2" rx="11" ry="11" style="stroke:#181818;stroke-width:1.0;"/><path d="M82.8588,1061.5852 Q82.2806,1061.882 81.64,1062.0227 Q80.9994,1062.1789 80.2963,1062.1789 Q77.7963,1062.1789 76.4681,1060.5383 Q75.1556,1058.882 75.1556,1055.757 Q75.1556,1052.632 76.4681,1050.9758 Q77.7963,1049.3195 80.2963,1049.3195 Q80.9994,1049.3195 81.64,1049.4758 Q82.2963,1049.632 82.8588,1049.9289 L82.8588,1052.6477 Q82.2338,1052.0695 81.64,1051.8039 Q81.0463,1051.5227 80.4213,1051.5227 Q79.0775,1051.5227 78.39,1052.6008 Q77.7025,1053.6633 77.7025,1055.757 Q77.7025,1057.8508 78.39,1058.9289 Q79.0775,1059.9914 80.4213,1059.9914 Q81.0463,1059.9914 81.64,1059.7258 Q82.2338,1059.4445 82.8588,1058.8664 L82.8588,1061.5852 Z " fill="#000000"/><text fill="#D9B8FF" font-family="Helvetica" font-size="17" lengthAdjust="spacing" textLength="241" x="98.89" y="1061.8298">azure_resource_sku_capacity</text><line style="stroke:#000D19;stroke-width:0.5;" x1="65.89" x2="346.89" y1="1075.8391" y2="1075.8391"/><text fill="#D9B8FF" font-family="sans-serif" font-size="14" font-weight="bold" lengthAdjust="spacing" textLength="55" x="75.89" y="1097.8342">default</text><text fill="#D9B8FF" font-family="sans-serif" font-size="14" lengthAdjust="spacing" textLength="44" x="130.89" y="1097.8342">: int64</text><text fill="#D9B8FF" font-family="sans-serif" font-size="14" font-weight="bold" lengthAdjust="spacing" textLength="74" x="75.89" y="1124.1311">maximum</text><text fill="#D9B8FF" font-family="sans-serif" font-size="14" lengthAdjust="spacing" textLength="44" x="149.89" y="1124.1311">: int64</text><text fill="#D9B8FF" font-family="sans-serif" font-size="14" font-weight="bold" lengthAdjust="spacing" textLength="70" x="75.89" y="1150.4279">minimum</text><text fill="#D9B8FF" font-family="sans-serif" font-size="14" lengthAdjust="spacing" textLength="44" x="145.89" y="1150.4279">: int64</text><text fill="#D9B8FF" font-family="sans-serif" font-size="14" font-weight="bold" lengthAdjust="spacing" textLength="83" x="75.89" y="1176.7248">scale_type</text><text fill="#D9B8FF" font-family="sans-serif" font-size="14" lengthAdjust="spacing" textLength="48" x="158.89" y="1176.7248">: string</text></g><!--class azure_resource_sku_costs--><g id="elem_azure_resource_sku_costs"><rect codeLine="48" fill="#3D176E" height="126.6797" id="azure_resource_sku_costs" rx="2.5" ry="2.5" style="stroke:#000D19;stroke-width:0.5;" width="256" x="383.39" y="1049.2"/><ellipse cx="398.39" cy="1069.0945" fill="#ADD1B2" rx="11" ry="11" style="stroke:#181818;stroke-width:1.0;"/><path d="M401.3588,1074.7352 Q400.7806,1075.032 400.14,1075.1727 Q399.4994,1075.3289 398.7963,1075.3289 Q396.2963,1075.3289 394.9681,1073.6883 Q393.6556,1072.032 393.6556,1068.907 Q393.6556,1065.782 394.9681,1064.1258 Q396.2963,1062.4695 398.7963,1062.4695 Q399.4994,1062.4695 400.14,1062.6258 Q400.7963,1062.782 401.3588,1063.0789 L401.3588,1065.7977 Q400.7338,1065.2195 400.14,1064.9539 Q399.5463,1064.6727 398.9213,1064.6727 Q397.5775,1064.6727 396.89,1065.7508 Q396.2025,1066.8133 396.2025,1068.907 Q396.2025,1071.0008 396.89,1072.0789 Q397.5775,1073.1414 398.9213,1073.1414 Q399.5463,1073.1414 400.14,1072.8758 Q400.7338,1072.5945 401.3588,1072.0164 L401.3588,1074.7352 Z " fill="#000000"/><text fill="#D9B8FF" font-family="Helvetica" font-size="17" lengthAdjust="spacing" textLength="214" x="417.39" y="1074.9798">azure_resource_sku_costs</text><line style="stroke:#000D19;stroke-width:0.5;" x1="384.39" x2="638.39" y1="1088.9891" y2="1088.9891"/><text fill="#D9B8FF" font-family="sans-serif" font-size="14" font-weight="bold" lengthAdjust="spacing" textLength="112" x="394.39" y="1110.9842">extended_unit</text><text fill="#D9B8FF" font-family="sans-serif" font-size="14" lengthAdjust="spacing" textLength="48" x="506.39" y="1110.9842">: string</text><text fill="#D9B8FF" font-family="sans-serif" font-size="14" font-weight="bold" lengthAdjust="spacing" textLength="68" x="394.39" y="1137.2811">meter_id</text><text fill="#D9B8FF" font-family="sans-serif" font-size="14" lengthAdjust="spacing" textLength="48" x="462.39" y="1137.2811">: string</text><text fill="#D9B8FF" font-family="sans-serif" font-size="14" font-weight="bold" lengthAdjust="spacing" textLength="64" x="394.39" y="1163.5779">quantity</text><text fill="#D9B8FF" font-family="sans-serif" font-size="14" lengthAdjust="spacing" textLength="44" x="458.39" y="1163.5779">: int64</text></g><!--class azure_resource_sku_location_info--><g id="elem_azure_resource_sku_location_info"><rect codeLine="53" fill="#3D176E" height="179.2734" id="azure_resource_sku_location_info" rx="2.5" ry="2.5" style="stroke:#000D19;stroke-width:0.5;" width="373" x="674.89" y="1022.9"/><ellipse cx="712.84" cy="1042.7945" fill="#ADD1B2" rx="11" ry="11" style="stroke:#181818;stroke-width:1.0;"/><path d="M715.8088,1048.4352 Q715.2306,1048.732 714.59,1048.8727 Q713.9494,1049.0289 713.2463,1049.0289 Q710.7463,1049.0289 709.4181,1047.3883 Q708.1056,1045.732 708.1056,1042.607 Q708.1056,1039.482 709.4181,1037.8258 Q710.7463,1036.1695 713.2463,1036.1695 Q713.9494,1036.1695 714.59,1036.3258 Q715.2463,1036.482 715.8088,1036.7789 L715.8088,1039.4977 Q715.1838,1038.9195 714.59,1038.6539 Q713.9963,1038.3727 713.3713,1038.3727 Q712.0275,1038.3727 711.34,1039.4508 Q710.6525,1040.5133 710.6525,1042.607 Q710.6525,1044.7008 711.34,1045.7789 Q712.0275,1046.8414 713.3713,1046.8414 Q713.9963,1046.8414 714.59,1046.5758 Q715.1838,1046.2945 715.8088,1045.7164 L715.8088,1048.4352 Z " fill="#000000"/><text fill="#D9B8FF" font-family="Helvetica" font-size="17" lengthAdjust="spacing" textLength="280" x="736.94" y="1048.6798">azure_resource_sku_location_info</text><line style="stroke:#000D19;stroke-width:0.5;" x1="675.89" x2="1046.89" y1="1062.6891" y2="1062.6891"/><text fill="#D9B8FF" font-family="sans-serif" font-size="14" font-weight="bold" lengthAdjust="spacing" textLength="153" x="685.89" y="1084.6842">extended_locations</text><text fill="#D9B8FF" font-family="sans-serif" font-size="14" lengthAdjust="spacing" textLength="58" x="838.89" y="1084.6842">: string[]</text><text fill="#D9B8FF" font-family="sans-serif" font-size="14" font-weight="bold" lengthAdjust="spacing" textLength="62" x="685.89" y="1110.9811">location</text><text fill="#D9B8FF" font-family="sans-serif" font-size="14" lengthAdjust="spacing" textLength="48" x="747.89" y="1110.9811">: string</text><text fill="#D9B8FF" font-family="sans-serif" font-size="14" font-weight="bold" lengthAdjust="spacing" textLength="35" x="685.89" y="1137.2779">type</text><text fill="#D9B8FF" font-family="sans-serif" font-size="14" lengthAdjust="spacing" textLength="48" x="720.89" y="1137.2779">: string</text><text fill="#D9B8FF" font-family="sans-serif" font-size="14" font-weight="bold" lengthAdjust="spacing" textLength="98" x="685.89" y="1163.5748">zone_details</text><text fill="#D9B8FF" font-family="sans-serif" font-size="14" lengthAdjust="spacing" textLength="253" x="783.89" y="1163.5748">: azure_resource_sku_zone_details[]</text><text fill="#D9B8FF" font-family="sans-serif" font-size="14" font-weight="bold" lengthAdjust="spacing" textLength="48" x="685.89" y="1189.8717">zones</text><text fill="#D9B8FF" font-family="sans-serif" font-size="14" lengthAdjust="spacing" textLength="58" x="733.89" y="1189.8717">: string[]</text></g><!--class azure_resource_sku_restriction_info--><g id="elem_azure_resource_sku_restriction_info"><rect codeLine="60" fill="#3D176E" height="100.3828" id="azure_resource_sku_restriction_info" rx="2.5" ry="2.5" style="stroke:#000D19;stroke-width:0.5;" width="341" x="1111.89" y="1262.17"/><ellipse cx="1126.89" cy="1282.0645" fill="#ADD1B2" rx="11" ry="11" style="stroke:#181818;stroke-width:1.0;"/><path d="M1129.8587,1287.7052 Q1129.2806,1288.002 1128.64,1288.1427 Q1127.9994,1288.2989 1127.2962,1288.2989 Q1124.7962,1288.2989 1123.4681,1286.6583 Q1122.1556,1285.002 1122.1556,1281.877 Q1122.1556,1278.752 1123.4681,1277.0958 Q1124.7962,1275.4395 1127.2962,1275.4395 Q1127.9994,1275.4395 1128.64,1275.5958 Q1129.2962,1275.752 1129.8587,1276.0489 L1129.8587,1278.7677 Q1129.2337,1278.1895 1128.64,1277.9239 Q1128.0462,1277.6427 1127.4212,1277.6427 Q1126.0775,1277.6427 1125.39,1278.7208 Q1124.7025,1279.7833 1124.7025,1281.877 Q1124.7025,1283.9708 1125.39,1285.0489 Q1126.0775,1286.1114 1127.4212,1286.1114 Q1128.0462,1286.1114 1128.64,1285.8458 Q1129.2337,1285.5645 1129.8587,1284.9864 L1129.8587,1287.7052 Z " fill="#000000"/><text fill="#D9B8FF" font-family="Helvetica" font-size="17" lengthAdjust="spacing" textLength="299" x="1145.89" y="1287.9498">azure_resource_sku_restriction_info</text><line style="stroke:#000D19;stroke-width:0.5;" x1="1112.89" x2="1451.89" y1="1301.9591" y2="1301.9591"/><text fill="#D9B8FF" font-family="sans-serif" font-size="14" font-weight="bold" lengthAdjust="spacing" textLength="71" x="1122.89" y="1323.9542">locations</text><text fill="#D9B8FF" font-family="sans-serif" font-size="14" lengthAdjust="spacing" textLength="58" x="1193.89" y="1323.9542">: string[]</text><text fill="#D9B8FF" font-family="sans-serif" font-size="14" font-weight="bold" lengthAdjust="spacing" textLength="48" x="1122.89" y="1350.2511">zones</text><text fill="#D9B8FF" font-family="sans-serif" font-size="14" lengthAdjust="spacing" textLength="58" x="1170.89" y="1350.2511">: string[]</text></g><!--class azure_resource_sku_restrictions--><g id="elem_azure_resource_sku_restrictions"><rect codeLine="64" fill="#3D176E" height="152.9766" id="azure_resource_sku_restrictions" rx="2.5" ry="2.5" style="stroke:#000D19;stroke-width:0.5;" width="398" x="1083.39" y="1036.05"/><ellipse cx="1140.14" cy="1055.9445" fill="#ADD1B2" rx="11" ry="11" style="stroke:#181818;stroke-width:1.0;"/><path d="M1143.1087,1061.5852 Q1142.5306,1061.882 1141.89,1062.0227 Q1141.2494,1062.1789 1140.5462,1062.1789 Q1138.0462,1062.1789 1136.7181,1060.5383 Q1135.4056,1058.882 1135.4056,1055.757 Q1135.4056,1052.632 1136.7181,1050.9758 Q1138.0462,1049.3195 1140.5462,1049.3195 Q1141.2494,1049.3195 1141.89,1049.4758 Q1142.5462,1049.632 1143.1087,1049.9289 L1143.1087,1052.6477 Q1142.4837,1052.0695 1141.89,1051.8039 Q1141.2962,1051.5227 1140.6712,1051.5227 Q1139.3275,1051.5227 1138.64,1052.6008 Q1137.9525,1053.6633 1137.9525,1055.757 Q1137.9525,1057.8508 1138.64,1058.9289 Q1139.3275,1059.9914 1140.6712,1059.9914 Q1141.2962,1059.9914 1141.89,1059.7258 Q1142.4837,1059.4445 1143.1087,1058.8664 L1143.1087,1061.5852 Z " fill="#000000"/><text fill="#D9B8FF" font-family="Helvetica" font-size="17" lengthAdjust="spacing" textLength="266" x="1165.64" y="1061.8298">azure_resource_sku_restrictions</text><line style="stroke:#000D19;stroke-width:0.5;" x1="1084.39" x2="1480.39" y1="1075.8391" y2="1075.8391"/><text fill="#D9B8FF" font-family="sans-serif" font-size="14" font-weight="bold" lengthAdjust="spacing" textLength="101" x="1094.39" y="1097.8342">reason_code</text><text fill="#D9B8FF" font-family="sans-serif" font-size="14" lengthAdjust="spacing" textLength="48" x="1195.39" y="1097.8342">: string</text><text fill="#D9B8FF" font-family="sans-serif" font-size="14" font-weight="bold" lengthAdjust="spacing" textLength="119" x="1094.39" y="1124.1311">restriction_info</text><text fill="#D9B8FF" font-family="sans-serif" font-size="14" lengthAdjust="spacing" textLength="257" x="1213.39" y="1124.1311">: azure_resource_sku_restriction_info</text><text fill="#D9B8FF" font-family="sans-serif" font-size="14" font-weight="bold" lengthAdjust="spacing" textLength="35" x="1094.39" y="1150.4279">type</text><text fill="#D9B8FF" font-family="sans-serif" font-size="14" lengthAdjust="spacing" textLength="48" x="1129.39" y="1150.4279">: string</text><text fill="#D9B8FF" font-family="sans-serif" font-size="14" font-weight="bold" lengthAdjust="spacing" textLength="51" x="1094.39" y="1176.7248">values</text><text fill="#D9B8FF" font-family="sans-serif" font-size="14" lengthAdjust="spacing" textLength="58" x="1145.39" y="1176.7248">: string[]</text></g><!--class azure_resource_sku_zone_details--><g id="elem_azure_resource_sku_zone_details"><rect codeLine="70" fill="#3D176E" height="100.3828" id="azure_resource_sku_zone_details" rx="2.5" ry="2.5" style="stroke:#000D19;stroke-width:0.5;" width="352" x="473.39" y="1262.17"/><ellipse cx="503.69" cy="1282.0645" fill="#ADD1B2" rx="11" ry="11" style="stroke:#181818;stroke-width:1.0;"/><path d="M506.6588,1287.7052 Q506.0806,1288.002 505.44,1288.1427 Q504.7994,1288.2989 504.0963,1288.2989 Q501.5963,1288.2989 500.2681,1286.6583 Q498.9556,1285.002 498.9556,1281.877 Q498.9556,1278.752 500.2681,1277.0958 Q501.5963,1275.4395 504.0963,1275.4395 Q504.7994,1275.4395 505.44,1275.5958 Q506.0963,1275.752 506.6588,1276.0489 L506.6588,1278.7677 Q506.0338,1278.1895 505.44,1277.9239 Q504.8463,1277.6427 504.2213,1277.6427 Q502.8775,1277.6427 502.19,1278.7208 Q501.5025,1279.7833 501.5025,1281.877 Q501.5025,1283.9708 502.19,1285.0489 Q502.8775,1286.1114 504.2213,1286.1114 Q504.8463,1286.1114 505.44,1285.8458 Q506.0338,1285.5645 506.6588,1284.9864 L506.6588,1287.7052 Z " fill="#000000"/><text fill="#D9B8FF" font-family="Helvetica" font-size="17" lengthAdjust="spacing" textLength="276" x="526.09" y="1287.9498">azure_resource_sku_zone_details</text><line style="stroke:#000D19;stroke-width:0.5;" x1="474.39" x2="824.39" y1="1301.9591" y2="1301.9591"/><text fill="#D9B8FF" font-family="sans-serif" font-size="14" font-weight="bold" lengthAdjust="spacing" textLength="88" x="484.39" y="1323.9542">capabilities</text><text fill="#D9B8FF" font-family="sans-serif" font-size="14" lengthAdjust="spacing" textLength="242" x="572.39" y="1323.9542">: azure_resource_sku_capabilities[]</text><text fill="#D9B8FF" font-family="sans-serif" font-size="14" font-weight="bold" lengthAdjust="spacing" textLength="43" x="484.39" y="1350.2511">name</text><text fill="#D9B8FF" font-family="sans-serif" font-size="14" lengthAdjust="spacing" textLength="58" x="527.39" y="1350.2511">: string[]</text></g><!--class resource--><g id="elem_resource"><rect codeLine="74" fill="#3D176E" height="310.7578" id="resource" rx="2.5" ry="2.5" style="stroke:#000D19;stroke-width:0.5;" width="227" x="397.89" y="7"/><ellipse cx="466.64" cy="26.8945" fill="#ADD1B2" rx="11" ry="11" style="stroke:#181818;stroke-width:1.0;"/><path d="M469.6088,32.5352 Q469.0306,32.832 468.39,32.9727 Q467.7494,33.1289 467.0463,33.1289 Q464.5463,33.1289 463.2181,31.4883 Q461.9056,29.832 461.9056,26.707 Q461.9056,23.582 463.2181,21.9258 Q464.5463,20.2695 467.0463,20.2695 Q467.7494,20.2695 468.39,20.4258 Q469.0463,20.582 469.6088,20.8789 L469.6088,23.5977 Q468.9838,23.0195 468.39,22.7539 Q467.7963,22.4727 467.1713,22.4727 Q465.8275,22.4727 465.14,23.5508 Q464.4525,24.6133 464.4525,26.707 Q464.4525,28.8008 465.14,29.8789 Q465.8275,30.9414 467.1713,30.9414 Q467.7963,30.9414 468.39,30.6758 Q468.9838,30.3945 469.6088,29.8164 L469.6088,32.5352 Z " fill="#000000"/><text fill="#D9B8FF" font-family="Helvetica" font-size="17" lengthAdjust="spacing" textLength="71" x="492.14" y="32.7798">resource</text><line style="stroke:#000D19;stroke-width:0.5;" x1="398.89" x2="623.89" y1="46.7891" y2="46.7891"/><text fill="#D9B8FF" font-family="sans-serif" font-size="14" font-weight="bold" lengthAdjust="spacing" textLength="29" x="408.89" y="68.7842">age</text><text fill="#D9B8FF" font-family="sans-serif" font-size="14" lengthAdjust="spacing" textLength="66" x="437.89" y="68.7842">: duration</text><text fill="#D9B8FF" font-family="sans-serif" font-size="14" font-weight="bold" lengthAdjust="spacing" textLength="43" x="408.89" y="95.0811">atime</text><text fill="#D9B8FF" font-family="sans-serif" font-size="14" lengthAdjust="spacing" textLength="70" x="451.89" y="95.0811">: datetime</text><text fill="#D9B8FF" font-family="sans-serif" font-size="14" font-weight="bold" lengthAdjust="spacing" textLength="43" x="408.89" y="121.3779">ctime</text><text fill="#D9B8FF" font-family="sans-serif" font-size="14" lengthAdjust="spacing" textLength="70" x="451.89" y="121.3779">: datetime</text><text fill="#D9B8FF" font-family="sans-serif" font-size="14" font-weight="bold" lengthAdjust="spacing" textLength="14" x="408.89" y="147.6748">id</text><text fill="#D9B8FF" font-family="sans-serif" font-size="14" lengthAdjust="spacing" textLength="48" x="422.89" y="147.6748">: string</text><text fill="#D9B8FF" font-family="sans-serif" font-size="14" font-weight="bold" lengthAdjust="spacing" textLength="33" x="408.89" y="173.9717">kind</text><text fill="#D9B8FF" font-family="sans-serif" font-size="14" lengthAdjust="spacing" textLength="48" x="441.89" y="173.9717">: string</text><text fill="#D9B8FF" font-family="sans-serif" font-size="14" font-weight="bold" lengthAdjust="spacing" textLength="90" x="408.89" y="200.2686">last_access</text><text fill="#D9B8FF" font-family="sans-serif" font-size="14" lengthAdjust="spacing" textLength="66" x="498.89" y="200.2686">: duration</text><text fill="#D9B8FF" font-family="sans-serif" font-size="14" font-weight="bold" lengthAdjust="spacing" textLength="90" x="408.89" y="226.5654">last_update</text><text fill="#D9B8FF" font-family="sans-serif" font-size="14" lengthAdjust="spacing" textLength="66" x="498.89" y="226.5654">: duration</text><text fill="#D9B8FF" font-family="sans-serif" font-size="14" font-weight="bold" lengthAdjust="spacing" textLength="48" x="408.89" y="252.8623">mtime</text><text fill="#D9B8FF" font-family="sans-serif" font-size="14" lengthAdjust="spacing" textLength="70" x="456.89" y="252.8623">: datetime</text><text fill="#D9B8FF" font-family="sans-serif" font-size="14" font-weight="bold" lengthAdjust="spacing" textLength="43" x="408.89" y="279.1592">name</text><text fill="#D9B8FF" font-family="sans-serif" font-size="14" lengthAdjust="spacing" textLength="48" x="451.89" y="279.1592">: string</text><text fill="#D9B8FF" font-family="sans-serif" font-size="14" font-weight="bold" lengthAdjust="spacing" textLength="34" x="408.89" y="305.4561">tags</text><text fill="#D9B8FF" font-family="sans-serif" font-size="14" lengthAdjust="spacing" textLength="171" x="442.89" y="305.4561">: dictionary[string, string]</text></g><!--reverse link resource to azure_resource--><g id="link_resource_azure_resource"><path codeLine="86" d="M511.39,335.84 C511.39,384.13 511.39,413.37 511.39,438.67 " fill="none" id="resource-backto-azure_resource" style="stroke:#FFAF37;stroke-width:2.0;"/><polygon fill="none" points="511.39,317.84,505.39,335.84,517.39,335.84,511.39,317.84" style="stroke:#FFAF37;stroke-width:2.0;"/></g><!--reverse link azure_resource to azure_resource_sku--><g id="link_azure_resource_azure_resource_sku"><path codeLine="87" d="M511.39,496.75 C511.39,521.75 511.39,550.21 511.39,599.3 " fill="none" id="azure_resource-backto-azure_resource_sku" style="stroke:#FFAF37;stroke-width:2.0;"/><polygon fill="none" points="511.39,478.75,505.39,496.75,517.39,496.75,511.39,478.75" style="stroke:#FFAF37;stroke-width:2.0;"/></g><!--link azure_resource_sku to azure_resource_sku_capabilities--><g id="link_azure_resource_sku_azure_resource_sku_capabilities"><path codeLine="88" d="M324.64,828.12 C223.72,863.47 107.72,923.64 47.39,1022.9 C6,1090.99 10.43,1131.59 47.39,1202.17 C102.18,1306.81 212.6671,1376.3626 303.7871,1419.5026 " fill="none" id="azure_resource_sku-to-azure_resource_sku_capabilities" style="stroke:#FFAF37;stroke-width:2.0;"/><polygon fill="#FFAF37" points="309.21,1422.07,302.7872,1414.6035,304.6909,1419.9305,299.364,1421.8341,309.21,1422.07" style="stroke:#FFAF37;stroke-width:2.0;"/></g><!--link azure_resource_sku to azure_resource_sku_capacity--><g id="link_azure_resource_sku_azure_resource_sku_capacity"><path codeLine="89" d="M343.72,963.26 C320.05,988.82 300.9464,1009.4374 280.5764,1031.4374 " fill="none" id="azure_resource_sku-to-azure_resource_sku_capacity" style="stroke:#FFAF37;stroke-width:2.0;"/><polygon fill="#FFAF37" points="276.5,1035.84,285.5497,1031.9537,279.897,1032.1712,279.6795,1026.5185,276.5,1035.84" style="stroke:#FFAF37;stroke-width:2.0;"/></g><!--link azure_resource_sku to azure_resource_sku_costs--><g id="link_azure_resource_sku_azure_resource_sku_costs"><path codeLine="90" d="M511.39,963.26 C511.39,994.05 511.39,1018.06 511.39,1042.95 " fill="none" id="azure_resource_sku-to-azure_resource_sku_costs" style="stroke:#FFAF37;stroke-width:2.0;"/><polygon fill="#FFAF37" points="511.39,1048.95,515.39,1039.95,511.39,1043.95,507.39,1039.95,511.39,1048.95" style="stroke:#FFAF37;stroke-width:2.0;"/></g><!--link azure_resource_sku to azure_resource_sku_location_info--><g id="link_azure_resource_sku_azure_resource_sku_location_info"><path codeLine="91" d="M698.17,957.97 C721.95,980.35 741.0798,998.3388 762.5098,1018.4988 " fill="none" id="azure_resource_sku-to-azure_resource_sku_location_info" style="stroke:#FFAF37;stroke-width:2.0;"/><polygon fill="#FFAF37" points="766.88,1022.61,763.0655,1013.5298,763.2382,1019.184,757.584,1019.3567,766.88,1022.61" style="stroke:#FFAF37;stroke-width:2.0;"/></g><!--link azure_resource_sku to azure_resource_sku_restrictions--><g id="link_azure_resource_sku_azure_resource_sku_restrictions"><path codeLine="92" d="M698.03,861.94 C821.7,914.77 977.4523,981.2932 1099.2423,1033.3132 " fill="none" id="azure_resource_sku-to-azure_resource_sku_restrictions" style="stroke:#FFAF37;stroke-width:2.0;"/><polygon fill="#FFAF37" points="1104.76,1035.67,1098.0546,1028.4563,1100.1619,1033.706,1094.9122,1035.8133,1104.76,1035.67" style="stroke:#FFAF37;stroke-width:2.0;"/></g><!--link azure_resource_sku_location_info to azure_resource_sku_zone_details--><g id="link_azure_resource_sku_location_info_azure_resource_sku_zone_details"><path codeLine="93" d="M765.93,1202.61 C744.17,1222.92 726.196,1239.6858 706.956,1257.6458 " fill="none" id="azure_resource_sku_location_info-to-azure_resource_sku_zone_details" style="stroke:#FFAF37;stroke-width:2.0;"/><polygon fill="#FFAF37" points="702.57,1261.74,711.8785,1258.5227,706.225,1258.3281,706.4196,1252.6746,702.57,1261.74" style="stroke:#FFAF37;stroke-width:2.0;"/></g><!--link azure_resource_sku_restrictions to azure_resource_sku_restriction_info--><g id="link_azure_resource_sku_restrictions_azure_resource_sku_restriction_info"><path codeLine="94" d="M1282.39,1189.46 C1282.39,1213.76 1282.39,1234.01 1282.39,1255.92 " fill="none" id="azure_resource_sku_restrictions-to-azure_resource_sku_restriction_info" style="stroke:#FFAF37;stroke-width:2.0;"/><polygon fill="#FFAF37" points="1282.39,1261.92,1286.39,1252.92,1282.39,1256.92,1278.39,1252.92,1282.39,1261.92" style="stroke:#FFAF37;stroke-width:2.0;"/></g><!--link azure_resource_sku_zone_details to azure_resource_sku_capabilities--><g id="link_azure_resource_sku_zone_details_azure_resource_sku_capabilities"><path codeLine="95" d="M582.58,1363.04 C557.2,1381.91 533.1345,1399.8095 507.7745,1418.6695 " fill="none" id="azure_resource_sku_zone_details-to-azure_resource_sku_capabilities" style="stroke:#FFAF37;stroke-width:2.0;"/><polygon fill="#FFAF37" points="502.96,1422.25,512.5688,1420.0889,506.9721,1419.2662,507.7948,1413.6695,502.96,1422.25" style="stroke:#FFAF37;stroke-width:2.0;"/></g><!--SRC=[dLLDRnCn4BtdLwpKMqIabaBR88HK8Y6uL8Xogz1gOiycLdRjOC-sJO7_ZkrDKjlxaQQtrSoRUM-Unzwbu9XXjQPDLc4rHsr6PYNa6ZHKsRNMwc6cIgMpawA0ulmoJNvHaWu2Rg32x2kMzqY2GOhukHHi9T6Ox6sG-WnijT2gbhnfJngaiIcK5A1c9HXpJQJ5l2OCnF3f_AeeKcJQzEISdrrUO0kcD4UzXPoUdlApQGevI3KuznvnAvumEmjDkr64BPaj2eyQLEaGWSZMeBjyhyRlmBcGY-nz4FlHQD8ITHI_NG9N3mvTG6b26aEeKT5cZRFML3YzuiLb9_XR7vWvvp9ugZNc6esgDSFip-XVPo8tgzecnsDOY_pUhhPGqep77ooHjcBlVjaKWpNCHIb8e4-rE-GXfAbHXdh1BkTH1LIYt3pJsL2f690LaGjPg9u64SOtsaLIwViovrZ4OpFsa-sBEcX2YE-scvG9sWmOuT9Rj3qt7j6weB4RtGfQvtGGx3-jo6j_TDBkPzJl7ieQNzxCwVMDE1PGb-GgXQIBTpPKmQEewYeA2Pc638EovV4Ggzi0JucFX98ZpsifA1gYGhlgkOZj-rs3fAtx3Va0IxGcCLlVlkpY4MbhTvwKn9mZWIZxTYU4-Cuk4BCDA0ysxrbyd-RNTcuEG2COoy8KxxqVGrSnXNNPvTVnnGf3vxp2rpm_yPK828C7qRvv2m_YjVR6kWY9ff03eVjs_1snP2rRrznoKGwCsLzsmk0pzThrIZ9L1q_hQXCicewDvw0tTqtkpHRZHjqF-V7lP39931ibVuOkZ3DrrF6Zc4m-7RB_o3B_LXvHuXwE8_3H4t14NNXDHWUVbfucuIQF3jt5mqBwPeXlp0kEw3y0]--></g></svg>