<svg xmlns="http://www.w3.org/2000/svg" width="581" height="1301" viewBox="0 0 581 1301"><rect width="348" height="152.977" x="108" y="660.15" fill="#3D176E" rx="2.5" ry="2.5" style="stroke:#000d19;stroke-width:.5"/><circle cx="178.25" cy="680.044" r="11" fill="#ADD1B2" style="stroke:#181818;stroke-width:1"/><path d="M181.219 685.685q-.578.297-1.219.438-.64.156-1.344.156-2.5 0-3.828-1.64-1.312-1.657-1.312-4.782t1.312-4.781q1.328-1.657 3.828-1.657.703 0 1.344.157.656.156 1.219.453v2.719q-.625-.579-1.219-.844-.594-.281-1.219-.281-1.344 0-2.031 1.078-.687 1.062-.687 3.156t.687 3.172q.688 1.062 2.031 1.062.625 0 1.219-.265.594-.282 1.219-.86z"/><text x="203.75" y="685.93" fill="#D9B8FF" font-family="Helvetica" font-size="17" textLength="189">azure_compute_image</text><path d="M109 699.939h346" style="stroke:#000d19;stroke-width:.5"/><text x="119" y="721.934" fill="#D9B8FF" font-family="sans-serif" font-size="14" font-weight="bold" textLength="144">extended_location</text><text x="263" y="721.934" fill="#D9B8FF" font-family="sans-serif" font-size="14" textLength="182">: azure_extended_location</text><text x="119" y="748.231" fill="#D9B8FF" font-family="sans-serif" font-size="14" font-weight="bold" textLength="155">hyper_v_generation</text><text x="274" y="748.231" fill="#D9B8FF" font-family="sans-serif" font-size="14" textLength="48">: string</text><text x="119" y="774.528" fill="#D9B8FF" font-family="sans-serif" font-size="14" font-weight="bold" textLength="184">source_virtual_machine</text><text x="303" y="774.528" fill="#D9B8FF" font-family="sans-serif" font-size="14" textLength="48">: string</text><text x="119" y="800.825" fill="#D9B8FF" font-family="sans-serif" font-size="14" font-weight="bold" textLength="119">storage_profile</text><text x="238" y="800.825" fill="#D9B8FF" font-family="sans-serif" font-size="14" textLength="206">: azure_image_storage_profile</text><rect width="250" height="100.383" x="7" y="886.27" fill="#3D176E" rx="2.5" ry="2.5" style="stroke:#000d19;stroke-width:.5"/><circle cx="22" cy="906.164" r="11" fill="#ADD1B2" style="stroke:#181818;stroke-width:1"/><path d="M24.969 911.805q-.578.297-1.219.438-.64.156-1.344.156-2.5 0-3.828-1.64-1.312-1.657-1.312-4.782t1.312-4.781q1.328-1.657 3.828-1.657.703 0 1.344.157.656.156 1.219.453v2.719q-.625-.579-1.219-.844-.594-.281-1.219-.281-1.343 0-2.031 1.078-.687 1.062-.687 3.156t.687 3.172q.688 1.062 2.031 1.062.625 0 1.219-.265.594-.282 1.219-.86z"/><text x="41" y="912.05" fill="#D9B8FF" font-family="Helvetica" font-size="17" textLength="208">azure_extended_location</text><path d="M8 926.059h248" style="stroke:#000d19;stroke-width:.5"/><text x="18" y="948.054" fill="#D9B8FF" font-family="sans-serif" font-size="14" font-weight="bold" textLength="43">name</text><text x="61" y="948.054" fill="#D9B8FF" font-family="sans-serif" font-size="14" textLength="48">: string</text><text x="18" y="974.351" fill="#D9B8FF" font-family="sans-serif" font-size="14" font-weight="bold" textLength="35">type</text><text x="53" y="974.351" fill="#D9B8FF" font-family="sans-serif" font-size="14" textLength="48">: string</text><rect width="218" height="100.383" x="324" y="1059.8" fill="#3D176E" rx="2.5" ry="2.5" style="stroke:#000d19;stroke-width:.5"/><circle cx="339" cy="1079.695" r="11" fill="#ADD1B2" style="stroke:#181818;stroke-width:1"/><path d="M341.969 1085.335q-.578.297-1.219.438-.64.156-1.344.156-2.5 0-3.828-1.64-1.312-1.657-1.312-4.782t1.312-4.781q1.328-1.657 3.828-1.657.703 0 1.344.157.656.156 1.219.453v2.719q-.625-.578-1.219-.844-.594-.281-1.219-.281-1.344 0-2.031 1.078-.687 1.062-.687 3.156t.687 3.172q.688 1.062 2.031 1.062.625 0 1.219-.265.594-.282 1.219-.86z"/><text x="358" y="1085.58" fill="#D9B8FF" font-family="Helvetica" font-size="17" textLength="176">azure_image_os_disk</text><path d="M325 1099.589h216" style="stroke:#000d19;stroke-width:.5"/><text x="335" y="1121.584" fill="#D9B8FF" font-family="sans-serif" font-size="14" font-weight="bold" textLength="66">os_state</text><text x="401" y="1121.584" fill="#D9B8FF" font-family="sans-serif" font-size="14" textLength="48">: string</text><text x="335" y="1147.881" fill="#D9B8FF" font-family="sans-serif" font-size="14" font-weight="bold" textLength="61">os_type</text><text x="396" y="1147.881" fill="#D9B8FF" font-family="sans-serif" font-size="14" textLength="48">: string</text><rect width="282" height="126.68" x="292" y="873.12" fill="#3D176E" rx="2.5" ry="2.5" style="stroke:#000d19;stroke-width:.5"/><circle cx="307" cy="893.014" r="11" fill="#ADD1B2" style="stroke:#181818;stroke-width:1"/><path d="M309.969 898.655q-.578.297-1.219.438-.64.156-1.344.156-2.5 0-3.828-1.64-1.312-1.657-1.312-4.782t1.312-4.781q1.328-1.657 3.828-1.657.703 0 1.344.157.656.156 1.219.453v2.719q-.625-.578-1.219-.844-.594-.281-1.219-.281-1.344 0-2.031 1.078-.687 1.062-.687 3.156t.687 3.172q.688 1.062 2.031 1.062.625 0 1.219-.265.594-.282 1.219-.86z"/><text x="326" y="898.9" fill="#D9B8FF" font-family="Helvetica" font-size="17" textLength="240">azure_image_storage_profile</text><path d="M293 912.909h280" style="stroke:#000d19;stroke-width:.5"/><text x="303" y="934.904" fill="#D9B8FF" font-family="sans-serif" font-size="14" font-weight="bold" textLength="82">data_disks</text><text x="385" y="934.904" fill="#D9B8FF" font-family="sans-serif" font-size="14" textLength="54">: int64[]</text><text x="303" y="961.201" fill="#D9B8FF" font-family="sans-serif" font-size="14" font-weight="bold" textLength="58">os_disk</text><text x="361" y="961.201" fill="#D9B8FF" font-family="sans-serif" font-size="14" textLength="156">: azure_image_os_disk</text><text x="303" y="987.498" fill="#D9B8FF" font-family="sans-serif" font-size="14" font-weight="bold" textLength="110">zone_resilient</text><text x="413" y="987.498" fill="#D9B8FF" font-family="sans-serif" font-size="14" textLength="65">: boolean</text><rect width="206" height="74.086" x="330" y="1220.18" fill="#3D176E" rx="2.5" ry="2.5" style="stroke:#000d19;stroke-width:.5"/><circle cx="345" cy="1240.074" r="11" fill="#ADD1B2" style="stroke:#181818;stroke-width:1"/><path d="M347.969 1245.715q-.578.297-1.219.438-.64.156-1.344.156-2.5 0-3.828-1.64-1.312-1.657-1.312-4.782t1.312-4.781q1.328-1.657 3.828-1.657.703 0 1.344.157.656.156 1.219.453v2.719q-.625-.579-1.219-.844-.594-.281-1.219-.281-1.344 0-2.031 1.078-.687 1.062-.687 3.156t.687 3.172q.688 1.062 2.031 1.062.625 0 1.219-.265.594-.282 1.219-.86z"/><text x="364" y="1245.96" fill="#D9B8FF" font-family="Helvetica" font-size="17" textLength="164">azure_sub_resource</text><path d="M331 1259.969h204" style="stroke:#000d19;stroke-width:.5"/><text x="341" y="1281.964" fill="#D9B8FF" font-family="sans-serif" font-size="14" font-weight="bold" textLength="14">id</text><text x="355" y="1281.964" fill="#D9B8FF" font-family="sans-serif" font-size="14" textLength="48">: string</text><rect width="214" height="100.383" x="175" y="438.76" fill="#3D176E" rx="2.5" ry="2.5" style="stroke:#000d19;stroke-width:.5"/><circle cx="196.3" cy="458.654" r="11" fill="#ADD1B2" style="stroke:#181818;stroke-width:1"/><path d="M199.269 464.295q-.578.297-1.219.438-.64.156-1.344.156-2.5 0-3.828-1.64-1.312-1.657-1.312-4.782t1.312-4.781q1.328-1.656 3.828-1.656.703 0 1.344.156.656.156 1.219.453v2.719q-.625-.579-1.219-.844-.594-.281-1.219-.281-1.343 0-2.031 1.078-.687 1.062-.687 3.156t.687 3.172q.688 1.062 2.031 1.062.625 0 1.219-.265.594-.281 1.219-.86z"/><text x="216.7" y="464.54" fill="#D9B8FF" font-family="Helvetica" font-size="17" textLength="158">microsoft_resource</text><path d="M176 478.549h212" style="stroke:#000d19;stroke-width:.5"/><text x="186" y="500.544" fill="#D9B8FF" font-family="sans-serif" font-size="14" font-weight="bold" textLength="35">etag</text><text x="221" y="500.544" fill="#D9B8FF" font-family="sans-serif" font-size="14" textLength="48">: string</text><text x="186" y="526.841" fill="#D9B8FF" font-family="sans-serif" font-size="14" font-weight="bold" textLength="144">provisioning_state</text><text x="330" y="526.841" fill="#D9B8FF" font-family="sans-serif" font-size="14" textLength="48">: string</text><rect width="227" height="310.758" x="168.5" y="7" fill="#3D176E" rx="2.5" ry="2.5" style="stroke:#000d19;stroke-width:.5"/><circle cx="237.25" cy="26.895" r="11" fill="#ADD1B2" style="stroke:#181818;stroke-width:1"/><path d="M240.219 32.535q-.578.297-1.219.438-.64.156-1.344.156-2.5 0-3.828-1.64-1.312-1.657-1.312-4.782t1.312-4.781q1.328-1.656 3.828-1.656.703 0 1.344.156.656.156 1.219.453v2.719q-.625-.578-1.219-.844-.594-.281-1.219-.281-1.344 0-2.031 1.078-.687 1.062-.687 3.156t.687 3.172q.688 1.062 2.031 1.062.625 0 1.219-.265.594-.281 1.219-.86z"/><text x="262.75" y="32.78" fill="#D9B8FF" font-family="Helvetica" font-size="17" textLength="71">resource</text><path d="M169.5 46.789h225" style="stroke:#000d19;stroke-width:.5"/><text x="179.5" y="68.784" fill="#D9B8FF" font-family="sans-serif" font-size="14" font-weight="bold" textLength="29">age</text><text x="208.5" y="68.784" fill="#D9B8FF" font-family="sans-serif" font-size="14" textLength="66">: duration</text><text x="179.5" y="95.081" fill="#D9B8FF" font-family="sans-serif" font-size="14" font-weight="bold" textLength="43">atime</text><text x="222.5" y="95.081" fill="#D9B8FF" font-family="sans-serif" font-size="14" textLength="70">: datetime</text><text x="179.5" y="121.378" fill="#D9B8FF" font-family="sans-serif" font-size="14" font-weight="bold" textLength="43">ctime</text><text x="222.5" y="121.378" fill="#D9B8FF" font-family="sans-serif" font-size="14" textLength="70">: datetime</text><text x="179.5" y="147.675" fill="#D9B8FF" font-family="sans-serif" font-size="14" font-weight="bold" textLength="14">id</text><text x="193.5" y="147.675" fill="#D9B8FF" font-family="sans-serif" font-size="14" textLength="48">: string</text><text x="179.5" y="173.972" fill="#D9B8FF" font-family="sans-serif" font-size="14" font-weight="bold" textLength="33">kind</text><text x="212.5" y="173.972" fill="#D9B8FF" font-family="sans-serif" font-size="14" textLength="48">: string</text><text x="179.5" y="200.269" fill="#D9B8FF" font-family="sans-serif" font-size="14" font-weight="bold" textLength="90">last_access</text><text x="269.5" y="200.269" fill="#D9B8FF" font-family="sans-serif" font-size="14" textLength="66">: duration</text><text x="179.5" y="226.565" fill="#D9B8FF" font-family="sans-serif" font-size="14" font-weight="bold" textLength="90">last_update</text><text x="269.5" y="226.565" fill="#D9B8FF" font-family="sans-serif" font-size="14" textLength="66">: duration</text><text x="179.5" y="252.862" fill="#D9B8FF" font-family="sans-serif" font-size="14" font-weight="bold" textLength="48">mtime</text><text x="227.5" y="252.862" fill="#D9B8FF" font-family="sans-serif" font-size="14" textLength="70">: datetime</text><text x="179.5" y="279.159" fill="#D9B8FF" font-family="sans-serif" font-size="14" font-weight="bold" textLength="43">name</text><text x="222.5" y="279.159" fill="#D9B8FF" font-family="sans-serif" font-size="14" textLength="48">: string</text><text x="179.5" y="305.456" fill="#D9B8FF" font-family="sans-serif" font-size="14" font-weight="bold" textLength="34">tags</text><text x="213.5" y="305.456" fill="#D9B8FF" font-family="sans-serif" font-size="14" textLength="171">: dictionary[string, string]</text><path fill="none" d="M224.44 813.55c-18.43 24.3-34.714 45.78-51.324 67.68" style="stroke:#ffaf37;stroke-width:2"/><path fill="#FFAF37" d="m169.49 886.01 8.626-4.754-5.605.77-.77-5.604z" style="stroke:#ffaf37;stroke-width:2"/><path fill="none" d="M339.95 813.55c14.97 19.62 27.268 35.742 41.658 54.582" style="stroke:#ffaf37;stroke-width:2"/><path fill="#FFAF37" d="m385.25 872.9-2.284-9.58-.751 5.606-5.607-.75z" style="stroke:#ffaf37;stroke-width:2"/><path fill="none" d="M282 557.38v102.29m0-120.29-6 18h12zm151 621.19v53.14" style="stroke:#ffaf37;stroke-width:2"/><path fill="#FFAF37" d="m433 1219.71 4-9-4 4-4-4z" style="stroke:#ffaf37;stroke-width:2"/><path fill="none" d="M433 999.87v53.66" style="stroke:#ffaf37;stroke-width:2"/><path fill="#FFAF37" d="m433 1059.53 4-9-4 4-4-4z" style="stroke:#ffaf37;stroke-width:2"/><path fill="none" d="M282 336.06v102.37m0-120.37-6 18h12z" style="stroke:#ffaf37;stroke-width:2"/></svg>