<?xml version="1.0" encoding="us-ascii" standalone="no"?><svg xmlns="http://www.w3.org/2000/svg" xmlns:xlink="http://www.w3.org/1999/xlink" contentStyleType="text/css" height="1033px" preserveAspectRatio="none" style="width:531px;height:1033px;" version="1.1" viewBox="0 0 531 1033" width="531px" zoomAndPan="magnify"><defs/><g><!--class azure_postgresql_server_database--><g id="elem_azure_postgresql_server_database"><rect codeLine="23" fill="#3D176E" height="100.3828" id="azure_postgresql_server_database" rx="2.5" ry="2.5" style="stroke:#000D19;stroke-width:0.5;" width="327" x="191.5" y="660.14"/><ellipse cx="206.5" cy="680.0345" fill="#ADD1B2" rx="11" ry="11" style="stroke:#181818;stroke-width:1.0;"/><path d="M209.4688,685.6752 Q208.8906,685.972 208.25,686.1127 Q207.6094,686.2689 206.9063,686.2689 Q204.4063,686.2689 203.0781,684.6283 Q201.7656,682.972 201.7656,679.847 Q201.7656,676.722 203.0781,675.0658 Q204.4063,673.4095 206.9063,673.4095 Q207.6094,673.4095 208.25,673.5658 Q208.9063,673.722 209.4688,674.0189 L209.4688,676.7377 Q208.8438,676.1595 208.25,675.8939 Q207.6563,675.6127 207.0313,675.6127 Q205.6875,675.6127 205,676.6908 Q204.3125,677.7533 204.3125,679.847 Q204.3125,681.9408 205,683.0189 Q205.6875,684.0814 207.0313,684.0814 Q207.6563,684.0814 208.25,683.8158 Q208.8438,683.5345 209.4688,682.9564 L209.4688,685.6752 Z " fill="#000000"/><text fill="#D9B8FF" font-family="Helvetica" font-size="17" lengthAdjust="spacing" textLength="285" x="225.5" y="685.9198">azure_postgresql_server_database</text><line style="stroke:#000D19;stroke-width:0.5;" x1="192.5" x2="517.5" y1="699.9291" y2="699.9291"/><text fill="#D9B8FF" font-family="sans-serif" font-size="14" font-weight="bold" lengthAdjust="spacing" textLength="60" x="202.5" y="721.9242">charset</text><text fill="#D9B8FF" font-family="sans-serif" font-size="14" lengthAdjust="spacing" textLength="48" x="262.5" y="721.9242">: string</text><text fill="#D9B8FF" font-family="sans-serif" font-size="14" font-weight="bold" lengthAdjust="spacing" textLength="66" x="202.5" y="748.2211">collation</text><text fill="#D9B8FF" font-family="sans-serif" font-size="14" lengthAdjust="spacing" textLength="48" x="268.5" y="748.2211">: string</text></g><!--class azure_proxy_resource--><g id="elem_azure_proxy_resource"><rect codeLine="27" fill="#3D176E" height="100.3828" id="azure_proxy_resource" rx="2.5" ry="2.5" style="stroke:#000D19;stroke-width:0.5;" width="262" x="7" y="438.75"/><ellipse cx="39.1" cy="458.6445" fill="#ADD1B2" rx="11" ry="11" style="stroke:#181818;stroke-width:1.0;"/><path d="M42.0688,464.2852 Q41.4906,464.582 40.85,464.7227 Q40.2094,464.8789 39.5063,464.8789 Q37.0063,464.8789 35.6781,463.2383 Q34.3656,461.582 34.3656,458.457 Q34.3656,455.332 35.6781,453.6758 Q37.0063,452.0195 39.5063,452.0195 Q40.2094,452.0195 40.85,452.1758 Q41.5063,452.332 42.0688,452.6289 L42.0688,455.3477 Q41.4438,454.7695 40.85,454.5039 Q40.2563,454.2227 39.6313,454.2227 Q38.2875,454.2227 37.6,455.3008 Q36.9125,456.3633 36.9125,458.457 Q36.9125,460.5508 37.6,461.6289 Q38.2875,462.6914 39.6313,462.6914 Q40.2563,462.6914 40.85,462.4258 Q41.4438,462.1445 42.0688,461.5664 L42.0688,464.2852 Z " fill="#000000"/><text fill="#D9B8FF" font-family="Helvetica" font-size="17" lengthAdjust="spacing" textLength="182" x="61.9" y="464.5298">azure_proxy_resource</text><line style="stroke:#000D19;stroke-width:0.5;" x1="8" x2="268" y1="478.5391" y2="478.5391"/><text fill="#D9B8FF" font-family="sans-serif" font-size="14" font-weight="bold" lengthAdjust="spacing" textLength="98" x="18" y="500.5342">system_data</text><text fill="#D9B8FF" font-family="sans-serif" font-size="14" lengthAdjust="spacing" textLength="142" x="116" y="500.5342">: azure_system_data</text><text fill="#D9B8FF" font-family="sans-serif" font-size="14" font-weight="bold" lengthAdjust="spacing" textLength="35" x="18" y="526.8311">type</text><text fill="#D9B8FF" font-family="sans-serif" font-size="14" lengthAdjust="spacing" textLength="48" x="53" y="526.8311">: string</text></g><!--class azure_system_data--><g id="elem_azure_system_data"><rect codeLine="31" fill="#3D176E" height="205.5703" id="azure_system_data" rx="2.5" ry="2.5" style="stroke:#000D19;stroke-width:0.5;" width="241" x="125.5" y="820.52"/><ellipse cx="157.6" cy="840.4145" fill="#ADD1B2" rx="11" ry="11" style="stroke:#181818;stroke-width:1.0;"/><path d="M160.5688,846.0552 Q159.9906,846.352 159.35,846.4927 Q158.7094,846.6489 158.0063,846.6489 Q155.5063,846.6489 154.1781,845.0083 Q152.8656,843.352 152.8656,840.227 Q152.8656,837.102 154.1781,835.4458 Q155.5063,833.7895 158.0063,833.7895 Q158.7094,833.7895 159.35,833.9458 Q160.0063,834.102 160.5688,834.3989 L160.5688,837.1177 Q159.9438,836.5395 159.35,836.2739 Q158.7563,835.9927 158.1313,835.9927 Q156.7875,835.9927 156.1,837.0708 Q155.4125,838.1333 155.4125,840.227 Q155.4125,842.3208 156.1,843.3989 Q156.7875,844.4614 158.1313,844.4614 Q158.7563,844.4614 159.35,844.1958 Q159.9438,843.9145 160.5688,843.3364 L160.5688,846.0552 Z " fill="#000000"/><text fill="#D9B8FF" font-family="Helvetica" font-size="17" lengthAdjust="spacing" textLength="161" x="180.4" y="846.2998">azure_system_data</text><line style="stroke:#000D19;stroke-width:0.5;" x1="126.5" x2="365.5" y1="860.3091" y2="860.3091"/><text fill="#D9B8FF" font-family="sans-serif" font-size="14" font-weight="bold" lengthAdjust="spacing" textLength="83" x="136.5" y="882.3042">created_at</text><text fill="#D9B8FF" font-family="sans-serif" font-size="14" lengthAdjust="spacing" textLength="70" x="219.5" y="882.3042">: datetime</text><text fill="#D9B8FF" font-family="sans-serif" font-size="14" font-weight="bold" lengthAdjust="spacing" textLength="87" x="136.5" y="908.6011">created_by</text><text fill="#D9B8FF" font-family="sans-serif" font-size="14" lengthAdjust="spacing" textLength="48" x="223.5" y="908.6011">: string</text><text fill="#D9B8FF" font-family="sans-serif" font-size="14" font-weight="bold" lengthAdjust="spacing" textLength="129" x="136.5" y="934.8979">created_by_type</text><text fill="#D9B8FF" font-family="sans-serif" font-size="14" lengthAdjust="spacing" textLength="48" x="265.5" y="934.8979">: string</text><text fill="#D9B8FF" font-family="sans-serif" font-size="14" font-weight="bold" lengthAdjust="spacing" textLength="125" x="136.5" y="961.1948">last_modified_at</text><text fill="#D9B8FF" font-family="sans-serif" font-size="14" lengthAdjust="spacing" textLength="70" x="261.5" y="961.1948">: datetime</text><text fill="#D9B8FF" font-family="sans-serif" font-size="14" font-weight="bold" lengthAdjust="spacing" textLength="129" x="136.5" y="987.4917">last_modified_by</text><text fill="#D9B8FF" font-family="sans-serif" font-size="14" lengthAdjust="spacing" textLength="48" x="265.5" y="987.4917">: string</text><text fill="#D9B8FF" font-family="sans-serif" font-size="14" font-weight="bold" lengthAdjust="spacing" textLength="171" x="136.5" y="1013.7886">last_modified_by_type</text><text fill="#D9B8FF" font-family="sans-serif" font-size="14" lengthAdjust="spacing" textLength="48" x="307.5" y="1013.7886">: string</text></g><!--class microsoft_resource--><g id="elem_microsoft_resource"><rect codeLine="39" fill="#3D176E" height="100.3828" id="microsoft_resource" rx="2.5" ry="2.5" style="stroke:#000D19;stroke-width:0.5;" width="214" x="304" y="438.75"/><ellipse cx="325.3" cy="458.6445" fill="#ADD1B2" rx="11" ry="11" style="stroke:#181818;stroke-width:1.0;"/><path d="M328.2688,464.2852 Q327.6906,464.582 327.05,464.7227 Q326.4094,464.8789 325.7063,464.8789 Q323.2063,464.8789 321.8781,463.2383 Q320.5656,461.582 320.5656,458.457 Q320.5656,455.332 321.8781,453.6758 Q323.2063,452.0195 325.7063,452.0195 Q326.4094,452.0195 327.05,452.1758 Q327.7063,452.332 328.2688,452.6289 L328.2688,455.3477 Q327.6438,454.7695 327.05,454.5039 Q326.4563,454.2227 325.8313,454.2227 Q324.4875,454.2227 323.8,455.3008 Q323.1125,456.3633 323.1125,458.457 Q323.1125,460.5508 323.8,461.6289 Q324.4875,462.6914 325.8313,462.6914 Q326.4563,462.6914 327.05,462.4258 Q327.6438,462.1445 328.2688,461.5664 L328.2688,464.2852 Z " fill="#000000"/><text fill="#D9B8FF" font-family="Helvetica" font-size="17" lengthAdjust="spacing" textLength="158" x="345.7" y="464.5298">microsoft_resource</text><line style="stroke:#000D19;stroke-width:0.5;" x1="305" x2="517" y1="478.5391" y2="478.5391"/><text fill="#D9B8FF" font-family="sans-serif" font-size="14" font-weight="bold" lengthAdjust="spacing" textLength="35" x="315" y="500.5342">etag</text><text fill="#D9B8FF" font-family="sans-serif" font-size="14" lengthAdjust="spacing" textLength="48" x="350" y="500.5342">: string</text><text fill="#D9B8FF" font-family="sans-serif" font-size="14" font-weight="bold" lengthAdjust="spacing" textLength="144" x="315" y="526.8311">provisioning_state</text><text fill="#D9B8FF" font-family="sans-serif" font-size="14" lengthAdjust="spacing" textLength="48" x="459" y="526.8311">: string</text></g><!--class resource--><g id="elem_resource"><rect codeLine="43" fill="#3D176E" height="310.7578" id="resource" rx="2.5" ry="2.5" style="stroke:#000D19;stroke-width:0.5;" width="227" x="297.5" y="7"/><ellipse cx="366.25" cy="26.8945" fill="#ADD1B2" rx="11" ry="11" style="stroke:#181818;stroke-width:1.0;"/><path d="M369.2188,32.5352 Q368.6406,32.832 368,32.9727 Q367.3594,33.1289 366.6563,33.1289 Q364.1563,33.1289 362.8281,31.4883 Q361.5156,29.832 361.5156,26.707 Q361.5156,23.582 362.8281,21.9258 Q364.1563,20.2695 366.6563,20.2695 Q367.3594,20.2695 368,20.4258 Q368.6563,20.582 369.2188,20.8789 L369.2188,23.5977 Q368.5938,23.0195 368,22.7539 Q367.4063,22.4727 366.7813,22.4727 Q365.4375,22.4727 364.75,23.5508 Q364.0625,24.6133 364.0625,26.707 Q364.0625,28.8008 364.75,29.8789 Q365.4375,30.9414 366.7813,30.9414 Q367.4063,30.9414 368,30.6758 Q368.5938,30.3945 369.2188,29.8164 L369.2188,32.5352 Z " fill="#000000"/><text fill="#D9B8FF" font-family="Helvetica" font-size="17" lengthAdjust="spacing" textLength="71" x="391.75" y="32.7798">resource</text><line style="stroke:#000D19;stroke-width:0.5;" x1="298.5" x2="523.5" y1="46.7891" y2="46.7891"/><text fill="#D9B8FF" font-family="sans-serif" font-size="14" font-weight="bold" lengthAdjust="spacing" textLength="29" x="308.5" y="68.7842">age</text><text fill="#D9B8FF" font-family="sans-serif" font-size="14" lengthAdjust="spacing" textLength="66" x="337.5" y="68.7842">: duration</text><text fill="#D9B8FF" font-family="sans-serif" font-size="14" font-weight="bold" lengthAdjust="spacing" textLength="43" x="308.5" y="95.0811">atime</text><text fill="#D9B8FF" font-family="sans-serif" font-size="14" lengthAdjust="spacing" textLength="70" x="351.5" y="95.0811">: datetime</text><text fill="#D9B8FF" font-family="sans-serif" font-size="14" font-weight="bold" lengthAdjust="spacing" textLength="43" x="308.5" y="121.3779">ctime</text><text fill="#D9B8FF" font-family="sans-serif" font-size="14" lengthAdjust="spacing" textLength="70" x="351.5" y="121.3779">: datetime</text><text fill="#D9B8FF" font-family="sans-serif" font-size="14" font-weight="bold" lengthAdjust="spacing" textLength="14" x="308.5" y="147.6748">id</text><text fill="#D9B8FF" font-family="sans-serif" font-size="14" lengthAdjust="spacing" textLength="48" x="322.5" y="147.6748">: string</text><text fill="#D9B8FF" font-family="sans-serif" font-size="14" font-weight="bold" lengthAdjust="spacing" textLength="33" x="308.5" y="173.9717">kind</text><text fill="#D9B8FF" font-family="sans-serif" font-size="14" lengthAdjust="spacing" textLength="48" x="341.5" y="173.9717">: string</text><text fill="#D9B8FF" font-family="sans-serif" font-size="14" font-weight="bold" lengthAdjust="spacing" textLength="90" x="308.5" y="200.2686">last_access</text><text fill="#D9B8FF" font-family="sans-serif" font-size="14" lengthAdjust="spacing" textLength="66" x="398.5" y="200.2686">: duration</text><text fill="#D9B8FF" font-family="sans-serif" font-size="14" font-weight="bold" lengthAdjust="spacing" textLength="90" x="308.5" y="226.5654">last_update</text><text fill="#D9B8FF" font-family="sans-serif" font-size="14" lengthAdjust="spacing" textLength="66" x="398.5" y="226.5654">: duration</text><text fill="#D9B8FF" font-family="sans-serif" font-size="14" font-weight="bold" lengthAdjust="spacing" textLength="48" x="308.5" y="252.8623">mtime</text><text fill="#D9B8FF" font-family="sans-serif" font-size="14" lengthAdjust="spacing" textLength="70" x="356.5" y="252.8623">: datetime</text><text fill="#D9B8FF" font-family="sans-serif" font-size="14" font-weight="bold" lengthAdjust="spacing" textLength="43" x="308.5" y="279.1592">name</text><text fill="#D9B8FF" font-family="sans-serif" font-size="14" lengthAdjust="spacing" textLength="48" x="351.5" y="279.1592">: string</text><text fill="#D9B8FF" font-family="sans-serif" font-size="14" font-weight="bold" lengthAdjust="spacing" textLength="34" x="308.5" y="305.4561">tags</text><text fill="#D9B8FF" font-family="sans-serif" font-size="14" lengthAdjust="spacing" textLength="171" x="342.5" y="305.4561">: dictionary[string, string]</text></g><!--reverse link azure_proxy_resource to azure_postgresql_server_database--><g id="link_azure_proxy_resource_azure_postgresql_server_database"><path codeLine="55" d="M199.6285,552.247 C235.2585,588.267 270.62,624.03 306.21,660 " fill="none" id="azure_proxy_resource-backto-azure_postgresql_server_database" style="stroke:#FFAF37;stroke-width:2.0;"/><polygon fill="none" points="186.97,539.45,195.3628,556.4665,203.8941,548.0275,186.97,539.45" style="stroke:#FFAF37;stroke-width:2.0;"/></g><!--link azure_postgresql_server_database to azure_system_data--><g id="link_azure_postgresql_server_database_azure_system_data"><path codeLine="56" d="M329.44,760.79 C320.19,778.7 312.1329,794.2988 301.4129,815.0588 " fill="none" id="azure_postgresql_server_database-to-azure_system_data" style="stroke:#FFAF37;stroke-width:2.0;"/><polygon fill="#FFAF37" points="298.66,820.39,306.3435,814.2285,300.9541,815.9473,299.2352,810.558,298.66,820.39" style="stroke:#FFAF37;stroke-width:2.0;"/></g><!--reverse link microsoft_resource to azure_postgresql_server_database--><g id="link_microsoft_resource_azure_postgresql_server_database"><path codeLine="57" d="M393.9101,556.8913 C384.7201,592.9113 376.77,624.03 367.59,660 " fill="none" id="microsoft_resource-backto-azure_postgresql_server_database" style="stroke:#FFAF37;stroke-width:2.0;"/><polygon fill="none" points="398.36,539.45,388.0963,555.408,399.7239,558.3746,398.36,539.45" style="stroke:#FFAF37;stroke-width:2.0;"/></g><!--link azure_proxy_resource to azure_system_data--><g id="link_azure_proxy_resource_azure_system_data"><path codeLine="58" d="M140.32,539.19 C143.87,594.08 152.67,685.05 174,760.52 C179.6,780.34 184.8924,795.3357 193.0624,814.8457 " fill="none" id="azure_proxy_resource-to-azure_system_data" style="stroke:#FFAF37;stroke-width:2.0;"/><polygon fill="#FFAF37" points="195.38,820.38,195.5932,810.5335,193.4487,815.768,188.2141,813.6235,195.38,820.38" style="stroke:#FFAF37;stroke-width:2.0;"/></g><!--reverse link resource to microsoft_resource--><g id="link_resource_microsoft_resource"><path codeLine="59" d="M411,336.06 C411,379.65 411,405.98 411,438.42 " fill="none" id="resource-backto-microsoft_resource" style="stroke:#FFAF37;stroke-width:2.0;"/><polygon fill="none" points="411,318.06,405,336.06,417,336.06,411,318.06" style="stroke:#FFAF37;stroke-width:2.0;"/></g><!--SRC=[bLJHZjCm47pFLrYwjuX8BIVe5I6aenA2bnFYU4CesjYRr6eSXxNJ8mVyEqvIJhQJNiLZPYOpivjLzb8WGzNQdYbK1P99p44sBH0eTaka7tQwriIkoXBAwqrCVj2DlIYu0uNi8zP7j993hFYwb_pGe37ifKUz1tweI7UDcEmjGMCSXOtrLBiQZBcrbcJHMVJAY6rnKvQnCZQzkXRhpMkSoJG9f9DajLg9zJQMN8nwTkudnRryHBRsbtQdBSvgpY96rRCj1uLNSZReF_vinyyWX6mgzih3laoTg44AyFiz2Fqmg4keZHzZB19gsxUucqs5snjHRXR5dyw94pwiZi5ZHvYtsjYAqFoeSuDqHCe5M2Z08FkLf2dV0ncqQVh6EPDhDs2whi5AtNZedz2KzCy-Twww8puPcTurKwFvyDgayq0d6KgVjVIaKp52i2Xo6BivsErUeKSKVLZw2SwZd3HrCJPNMiXIBZc6TEGRa_cPAPJaf8qkRRWMj505VcvrHsdSSjrZRgnhiM0MM40rIaH7uqSPaA5ul9O5J8eWsjsGcCy6dBl_IfGmCbqhJlKyHYtaDA32XRkX9qV9XzU0-cyJz-Aa-Uv6NJobjx-pBBjukid5sywoTmitkF2H_YymBBiS4bdFCvE_]--></g></svg>