<?xml version="1.0" encoding="us-ascii" standalone="no"?><svg xmlns="http://www.w3.org/2000/svg" xmlns:xlink="http://www.w3.org/1999/xlink" contentStyleType="text/css" height="453px" preserveAspectRatio="none" style="width:3533px;height:453px;" version="1.1" viewBox="0 0 3533 453" width="3533px" zoomAndPan="magnify"><defs/><g><!--class azure_authorization_role_assignment--><g id="elem_azure_authorization_role_assignment"><rect codeLine="23" fill="#3D176E" height="39.7891" id="azure_authorization_role_assignment" rx="2.5" ry="2.5" style="stroke:#000D19;stroke-width:0.5;" width="356" x="7" y="106.79"/><ellipse cx="22" cy="126.6845" fill="#ADD1B2" rx="11" ry="11" style="stroke:#181818;stroke-width:1.0;"/><path d="M24.9688,132.3252 Q24.3906,132.622 23.75,132.7627 Q23.1094,132.9189 22.4063,132.9189 Q19.9063,132.9189 18.5781,131.2783 Q17.2656,129.622 17.2656,126.497 Q17.2656,123.372 18.5781,121.7158 Q19.9063,120.0595 22.4063,120.0595 Q23.1094,120.0595 23.75,120.2158 Q24.4063,120.372 24.9688,120.6689 L24.9688,123.3877 Q24.3438,122.8095 23.75,122.5439 Q23.1563,122.2627 22.5313,122.2627 Q21.1875,122.2627 20.5,123.3408 Q19.8125,124.4033 19.8125,126.497 Q19.8125,128.5908 20.5,129.6689 Q21.1875,130.7314 22.5313,130.7314 Q23.1563,130.7314 23.75,130.4658 Q24.3438,130.1845 24.9688,129.6064 L24.9688,132.3252 Z " fill="#000000"/><text fill="#D9B8FF" font-family="Helvetica" font-size="17" lengthAdjust="spacing" textLength="314" x="41" y="132.5698">azure_authorization_role_assignment</text></g><!--class azure_cosmos_db_account--><g id="elem_azure_cosmos_db_account"><rect codeLine="26" fill="#3D176E" height="39.7891" id="azure_cosmos_db_account" rx="2.5" ry="2.5" style="stroke:#000D19;stroke-width:0.5;" width="261" x="422.5" y="106.79"/><ellipse cx="437.5" cy="126.6845" fill="#ADD1B2" rx="11" ry="11" style="stroke:#181818;stroke-width:1.0;"/><path d="M440.4688,132.3252 Q439.8906,132.622 439.25,132.7627 Q438.6094,132.9189 437.9063,132.9189 Q435.4063,132.9189 434.0781,131.2783 Q432.7656,129.622 432.7656,126.497 Q432.7656,123.372 434.0781,121.7158 Q435.4063,120.0595 437.9063,120.0595 Q438.6094,120.0595 439.25,120.2158 Q439.9063,120.372 440.4688,120.6689 L440.4688,123.3877 Q439.8438,122.8095 439.25,122.5439 Q438.6563,122.2627 438.0313,122.2627 Q436.6875,122.2627 436,123.3408 Q435.3125,124.4033 435.3125,126.497 Q435.3125,128.5908 436,129.6689 Q436.6875,130.7314 438.0313,130.7314 Q438.6563,130.7314 439.25,130.4658 Q439.8438,130.1845 440.4688,129.6064 L440.4688,132.3252 Z " fill="#000000"/><text fill="#D9B8FF" font-family="Helvetica" font-size="17" lengthAdjust="spacing" textLength="219" x="456.5" y="132.5698">azure_cosmos_db_account</text></g><!--class azure_cosmos_db_cassandra_cluster--><g id="elem_azure_cosmos_db_cassandra_cluster"><rect codeLine="29" fill="#3D176E" height="39.7891" id="azure_cosmos_db_cassandra_cluster" rx="2.5" ry="2.5" style="stroke:#000D19;stroke-width:0.5;" width="343" x="855.5" y="206.58"/><ellipse cx="870.5" cy="226.4745" fill="#ADD1B2" rx="11" ry="11" style="stroke:#181818;stroke-width:1.0;"/><path d="M873.4688,232.1152 Q872.8906,232.412 872.25,232.5527 Q871.6094,232.7089 870.9063,232.7089 Q868.4063,232.7089 867.0781,231.0683 Q865.7656,229.412 865.7656,226.287 Q865.7656,223.162 867.0781,221.5058 Q868.4063,219.8495 870.9063,219.8495 Q871.6094,219.8495 872.25,220.0058 Q872.9063,220.162 873.4688,220.4589 L873.4688,223.1777 Q872.8438,222.5995 872.25,222.3339 Q871.6563,222.0527 871.0313,222.0527 Q869.6875,222.0527 869,223.1308 Q868.3125,224.1933 868.3125,226.287 Q868.3125,228.3808 869,229.4589 Q869.6875,230.5214 871.0313,230.5214 Q871.6563,230.5214 872.25,230.2558 Q872.8438,229.9745 873.4688,229.3964 L873.4688,232.1152 Z " fill="#000000"/><text fill="#D9B8FF" font-family="Helvetica" font-size="17" lengthAdjust="spacing" textLength="301" x="889.5" y="232.3598">azure_cosmos_db_cassandra_cluster</text></g><!--class azure_cosmos_db_sql_role_assignment--><g id="elem_azure_cosmos_db_sql_role_assignment"><rect codeLine="32" fill="#3D176E" height="39.7891" id="azure_cosmos_db_sql_role_assignment" rx="2.5" ry="2.5" style="stroke:#000D19;stroke-width:0.5;" width="366" x="383" y="206.58"/><ellipse cx="398" cy="226.4745" fill="#ADD1B2" rx="11" ry="11" style="stroke:#181818;stroke-width:1.0;"/><path d="M400.9688,232.1152 Q400.3906,232.412 399.75,232.5527 Q399.1094,232.7089 398.4063,232.7089 Q395.9063,232.7089 394.5781,231.0683 Q393.2656,229.412 393.2656,226.287 Q393.2656,223.162 394.5781,221.5058 Q395.9063,219.8495 398.4063,219.8495 Q399.1094,219.8495 399.75,220.0058 Q400.4063,220.162 400.9688,220.4589 L400.9688,223.1777 Q400.3438,222.5995 399.75,222.3339 Q399.1563,222.0527 398.5313,222.0527 Q397.1875,222.0527 396.5,223.1308 Q395.8125,224.1933 395.8125,226.287 Q395.8125,228.3808 396.5,229.4589 Q397.1875,230.5214 398.5313,230.5214 Q399.1563,230.5214 399.75,230.2558 Q400.3438,229.9745 400.9688,229.3964 L400.9688,232.1152 Z " fill="#000000"/><text fill="#D9B8FF" font-family="Helvetica" font-size="17" lengthAdjust="spacing" textLength="324" x="417" y="232.3598">azure_cosmos_db_sql_role_assignment</text></g><!--class azure_machine_learning_batch_endpoint--><g id="elem_azure_machine_learning_batch_endpoint"><rect codeLine="35" fill="#3D176E" height="39.7891" id="azure_machine_learning_batch_endpoint" rx="2.5" ry="2.5" style="stroke:#000D19;stroke-width:0.5;" width="385" x="718.5" y="106.79"/><ellipse cx="733.5" cy="126.6845" fill="#ADD1B2" rx="11" ry="11" style="stroke:#181818;stroke-width:1.0;"/><path d="M736.4688,132.3252 Q735.8906,132.622 735.25,132.7627 Q734.6094,132.9189 733.9063,132.9189 Q731.4063,132.9189 730.0781,131.2783 Q728.7656,129.622 728.7656,126.497 Q728.7656,123.372 730.0781,121.7158 Q731.4063,120.0595 733.9063,120.0595 Q734.6094,120.0595 735.25,120.2158 Q735.9063,120.372 736.4688,120.6689 L736.4688,123.3877 Q735.8438,122.8095 735.25,122.5439 Q734.6563,122.2627 734.0313,122.2627 Q732.6875,122.2627 732,123.3408 Q731.3125,124.4033 731.3125,126.497 Q731.3125,128.5908 732,129.6689 Q732.6875,130.7314 734.0313,130.7314 Q734.6563,130.7314 735.25,130.4658 Q735.8438,130.1845 736.4688,129.6064 L736.4688,132.3252 Z " fill="#000000"/><text fill="#D9B8FF" font-family="Helvetica" font-size="17" lengthAdjust="spacing" textLength="343" x="752.5" y="132.5698">azure_machine_learning_batch_endpoint</text></g><!--class azure_machine_learning_compute--><g id="elem_azure_machine_learning_compute"><rect codeLine="38" fill="#3D176E" height="39.7891" id="azure_machine_learning_compute" rx="2.5" ry="2.5" style="stroke:#000D19;stroke-width:0.5;" width="329" x="1208.5" y="106.79"/><ellipse cx="1223.5" cy="126.6845" fill="#ADD1B2" rx="11" ry="11" style="stroke:#181818;stroke-width:1.0;"/><path d="M1226.4688,132.3252 Q1225.8906,132.622 1225.25,132.7627 Q1224.6094,132.9189 1223.9063,132.9189 Q1221.4063,132.9189 1220.0781,131.2783 Q1218.7656,129.622 1218.7656,126.497 Q1218.7656,123.372 1220.0781,121.7158 Q1221.4063,120.0595 1223.9063,120.0595 Q1224.6094,120.0595 1225.25,120.2158 Q1225.9063,120.372 1226.4688,120.6689 L1226.4688,123.3877 Q1225.8438,122.8095 1225.25,122.5439 Q1224.6563,122.2627 1224.0313,122.2627 Q1222.6875,122.2627 1222,123.3408 Q1221.3125,124.4033 1221.3125,126.497 Q1221.3125,128.5908 1222,129.6689 Q1222.6875,130.7314 1224.0313,130.7314 Q1224.6563,130.7314 1225.25,130.4658 Q1225.8438,130.1845 1226.4688,129.6064 L1226.4688,132.3252 Z " fill="#000000"/><text fill="#D9B8FF" font-family="Helvetica" font-size="17" lengthAdjust="spacing" textLength="287" x="1242.5" y="132.5698">azure_machine_learning_compute</text></g><!--class azure_machine_learning_online_endpoint--><g id="elem_azure_machine_learning_online_endpoint"><rect codeLine="41" fill="#3D176E" height="39.7891" id="azure_machine_learning_online_endpoint" rx="2.5" ry="2.5" style="stroke:#000D19;stroke-width:0.5;" width="391" x="1305.5" y="206.58"/><ellipse cx="1320.5" cy="226.4745" fill="#ADD1B2" rx="11" ry="11" style="stroke:#181818;stroke-width:1.0;"/><path d="M1323.4688,232.1152 Q1322.8906,232.412 1322.25,232.5527 Q1321.6094,232.7089 1320.9063,232.7089 Q1318.4063,232.7089 1317.0781,231.0683 Q1315.7656,229.412 1315.7656,226.287 Q1315.7656,223.162 1317.0781,221.5058 Q1318.4063,219.8495 1320.9063,219.8495 Q1321.6094,219.8495 1322.25,220.0058 Q1322.9063,220.162 1323.4688,220.4589 L1323.4688,223.1777 Q1322.8438,222.5995 1322.25,222.3339 Q1321.6563,222.0527 1321.0313,222.0527 Q1319.6875,222.0527 1319,223.1308 Q1318.3125,224.1933 1318.3125,226.287 Q1318.3125,228.3808 1319,229.4589 Q1319.6875,230.5214 1321.0313,230.5214 Q1321.6563,230.5214 1322.25,230.2558 Q1322.8438,229.9745 1323.4688,229.3964 L1323.4688,232.1152 Z " fill="#000000"/><text fill="#D9B8FF" font-family="Helvetica" font-size="17" lengthAdjust="spacing" textLength="349" x="1339.5" y="232.3598">azure_machine_learning_online_endpoint</text></g><!--class azure_machine_learning_private_endpoint_connection--><g id="elem_azure_machine_learning_private_endpoint_connection"><rect codeLine="44" fill="#3D176E" height="39.7891" id="azure_machine_learning_private_endpoint_connection" rx="2.5" ry="2.5" style="stroke:#000D19;stroke-width:0.5;" width="498" x="1572" y="106.79"/><ellipse cx="1587" cy="126.6845" fill="#ADD1B2" rx="11" ry="11" style="stroke:#181818;stroke-width:1.0;"/><path d="M1589.9688,132.3252 Q1589.3906,132.622 1588.75,132.7627 Q1588.1094,132.9189 1587.4063,132.9189 Q1584.9063,132.9189 1583.5781,131.2783 Q1582.2656,129.622 1582.2656,126.497 Q1582.2656,123.372 1583.5781,121.7158 Q1584.9063,120.0595 1587.4063,120.0595 Q1588.1094,120.0595 1588.75,120.2158 Q1589.4063,120.372 1589.9688,120.6689 L1589.9688,123.3877 Q1589.3438,122.8095 1588.75,122.5439 Q1588.1563,122.2627 1587.5313,122.2627 Q1586.1875,122.2627 1585.5,123.3408 Q1584.8125,124.4033 1584.8125,126.497 Q1584.8125,128.5908 1585.5,129.6689 Q1586.1875,130.7314 1587.5313,130.7314 Q1588.1563,130.7314 1588.75,130.4658 Q1589.3438,130.1845 1589.9688,129.6064 L1589.9688,132.3252 Z " fill="#000000"/><text fill="#D9B8FF" font-family="Helvetica" font-size="17" lengthAdjust="spacing" textLength="456" x="1606" y="132.5698">azure_machine_learning_private_endpoint_connection</text></g><!--class azure_machine_learning_private_link--><g id="elem_azure_machine_learning_private_link"><rect codeLine="47" fill="#3D176E" height="39.7891" id="azure_machine_learning_private_link" rx="2.5" ry="2.5" style="stroke:#000D19;stroke-width:0.5;" width="355" x="2105.5" y="106.79"/><ellipse cx="2120.5" cy="126.6845" fill="#ADD1B2" rx="11" ry="11" style="stroke:#181818;stroke-width:1.0;"/><path d="M2123.4688,132.3252 Q2122.8906,132.622 2122.25,132.7627 Q2121.6094,132.9189 2120.9063,132.9189 Q2118.4063,132.9189 2117.0781,131.2783 Q2115.7656,129.622 2115.7656,126.497 Q2115.7656,123.372 2117.0781,121.7158 Q2118.4063,120.0595 2120.9063,120.0595 Q2121.6094,120.0595 2122.25,120.2158 Q2122.9063,120.372 2123.4688,120.6689 L2123.4688,123.3877 Q2122.8438,122.8095 2122.25,122.5439 Q2121.6563,122.2627 2121.0313,122.2627 Q2119.6875,122.2627 2119,123.3408 Q2118.3125,124.4033 2118.3125,126.497 Q2118.3125,128.5908 2119,129.6689 Q2119.6875,130.7314 2121.0313,130.7314 Q2121.6563,130.7314 2122.25,130.4658 Q2122.8438,130.1845 2123.4688,129.6064 L2123.4688,132.3252 Z " fill="#000000"/><text fill="#D9B8FF" font-family="Helvetica" font-size="17" lengthAdjust="spacing" textLength="313" x="2139.5" y="132.5698">azure_machine_learning_private_link</text></g><!--class azure_machine_learning_registry--><g id="elem_azure_machine_learning_registry"><rect codeLine="50" fill="#3D176E" height="39.7891" id="azure_machine_learning_registry" rx="2.5" ry="2.5" style="stroke:#000D19;stroke-width:0.5;" width="320" x="2087" y="206.58"/><ellipse cx="2102" cy="226.4745" fill="#ADD1B2" rx="11" ry="11" style="stroke:#181818;stroke-width:1.0;"/><path d="M2104.9688,232.1152 Q2104.3906,232.412 2103.75,232.5527 Q2103.1094,232.7089 2102.4063,232.7089 Q2099.9063,232.7089 2098.5781,231.0683 Q2097.2656,229.412 2097.2656,226.287 Q2097.2656,223.162 2098.5781,221.5058 Q2099.9063,219.8495 2102.4063,219.8495 Q2103.1094,219.8495 2103.75,220.0058 Q2104.4063,220.162 2104.9688,220.4589 L2104.9688,223.1777 Q2104.3438,222.5995 2103.75,222.3339 Q2103.1563,222.0527 2102.5313,222.0527 Q2101.1875,222.0527 2100.5,223.1308 Q2099.8125,224.1933 2099.8125,226.287 Q2099.8125,228.3808 2100.5,229.4589 Q2101.1875,230.5214 2102.5313,230.5214 Q2103.1563,230.5214 2103.75,230.2558 Q2104.3438,229.9745 2104.9688,229.3964 L2104.9688,232.1152 Z " fill="#000000"/><text fill="#D9B8FF" font-family="Helvetica" font-size="17" lengthAdjust="spacing" textLength="278" x="2121" y="232.3598">azure_machine_learning_registry</text></g><!--class azure_machine_learning_serverless_endpoint--><g id="elem_azure_machine_learning_serverless_endpoint"><rect codeLine="53" fill="#3D176E" height="39.7891" id="azure_machine_learning_serverless_endpoint" rx="2.5" ry="2.5" style="stroke:#000D19;stroke-width:0.5;" width="422" x="2496" y="106.79"/><ellipse cx="2511" cy="126.6845" fill="#ADD1B2" rx="11" ry="11" style="stroke:#181818;stroke-width:1.0;"/><path d="M2513.9688,132.3252 Q2513.3906,132.622 2512.75,132.7627 Q2512.1094,132.9189 2511.4063,132.9189 Q2508.9063,132.9189 2507.5781,131.2783 Q2506.2656,129.622 2506.2656,126.497 Q2506.2656,123.372 2507.5781,121.7158 Q2508.9063,120.0595 2511.4063,120.0595 Q2512.1094,120.0595 2512.75,120.2158 Q2513.4063,120.372 2513.9688,120.6689 L2513.9688,123.3877 Q2513.3438,122.8095 2512.75,122.5439 Q2512.1563,122.2627 2511.5313,122.2627 Q2510.1875,122.2627 2509.5,123.3408 Q2508.8125,124.4033 2508.8125,126.497 Q2508.8125,128.5908 2509.5,129.6689 Q2510.1875,130.7314 2511.5313,130.7314 Q2512.1563,130.7314 2512.75,130.4658 Q2513.3438,130.1845 2513.9688,129.6064 L2513.9688,132.3252 Z " fill="#000000"/><text fill="#D9B8FF" font-family="Helvetica" font-size="17" lengthAdjust="spacing" textLength="380" x="2530" y="132.5698">azure_machine_learning_serverless_endpoint</text></g><!--class azure_machine_learning_workspace--><g id="elem_azure_machine_learning_workspace"><rect codeLine="56" fill="#3D176E" height="39.7891" id="azure_machine_learning_workspace" rx="2.5" ry="2.5" style="stroke:#000D19;stroke-width:0.5;" width="344" x="1649" y="7"/><ellipse cx="1664" cy="26.8945" fill="#ADD1B2" rx="11" ry="11" style="stroke:#181818;stroke-width:1.0;"/><path d="M1666.9688,32.5352 Q1666.3906,32.832 1665.75,32.9727 Q1665.1094,33.1289 1664.4063,33.1289 Q1661.9063,33.1289 1660.5781,31.4883 Q1659.2656,29.832 1659.2656,26.707 Q1659.2656,23.582 1660.5781,21.9258 Q1661.9063,20.2695 1664.4063,20.2695 Q1665.1094,20.2695 1665.75,20.4258 Q1666.4063,20.582 1666.9688,20.8789 L1666.9688,23.5977 Q1666.3438,23.0195 1665.75,22.7539 Q1665.1563,22.4727 1664.5313,22.4727 Q1663.1875,22.4727 1662.5,23.5508 Q1661.8125,24.6133 1661.8125,26.707 Q1661.8125,28.8008 1662.5,29.8789 Q1663.1875,30.9414 1664.5313,30.9414 Q1665.1563,30.9414 1665.75,30.6758 Q1666.3438,30.3945 1666.9688,29.8164 L1666.9688,32.5352 Z " fill="#000000"/><text fill="#D9B8FF" font-family="Helvetica" font-size="17" lengthAdjust="spacing" textLength="302" x="1683" y="32.7798">azure_machine_learning_workspace</text></g><!--class azure_mysql_server--><g id="elem_azure_mysql_server"><rect codeLine="59" fill="#3D176E" height="39.7891" id="azure_mysql_server" rx="2.5" ry="2.5" style="stroke:#000D19;stroke-width:0.5;" width="208" x="2442" y="206.58"/><ellipse cx="2457" cy="226.4745" fill="#ADD1B2" rx="11" ry="11" style="stroke:#181818;stroke-width:1.0;"/><path d="M2459.9688,232.1152 Q2459.3906,232.412 2458.75,232.5527 Q2458.1094,232.7089 2457.4063,232.7089 Q2454.9063,232.7089 2453.5781,231.0683 Q2452.2656,229.412 2452.2656,226.287 Q2452.2656,223.162 2453.5781,221.5058 Q2454.9063,219.8495 2457.4063,219.8495 Q2458.1094,219.8495 2458.75,220.0058 Q2459.4063,220.162 2459.9688,220.4589 L2459.9688,223.1777 Q2459.3438,222.5995 2458.75,222.3339 Q2458.1563,222.0527 2457.5313,222.0527 Q2456.1875,222.0527 2455.5,223.1308 Q2454.8125,224.1933 2454.8125,226.287 Q2454.8125,228.3808 2455.5,229.4589 Q2456.1875,230.5214 2457.5313,230.5214 Q2458.1563,230.5214 2458.75,230.2558 Q2459.3438,229.9745 2459.9688,229.3964 L2459.9688,232.1152 Z " fill="#000000"/><text fill="#D9B8FF" font-family="Helvetica" font-size="17" lengthAdjust="spacing" textLength="166" x="2476" y="232.3598">azure_mysql_server</text></g><!--class azure_postgresql_server--><g id="elem_azure_postgresql_server"><rect codeLine="62" fill="#3D176E" height="39.7891" id="azure_postgresql_server" rx="2.5" ry="2.5" style="stroke:#000D19;stroke-width:0.5;" width="243" x="2685.5" y="206.58"/><ellipse cx="2700.5" cy="226.4745" fill="#ADD1B2" rx="11" ry="11" style="stroke:#181818;stroke-width:1.0;"/><path d="M2703.4688,232.1152 Q2702.8906,232.412 2702.25,232.5527 Q2701.6094,232.7089 2700.9063,232.7089 Q2698.4063,232.7089 2697.0781,231.0683 Q2695.7656,229.412 2695.7656,226.287 Q2695.7656,223.162 2697.0781,221.5058 Q2698.4063,219.8495 2700.9063,219.8495 Q2701.6094,219.8495 2702.25,220.0058 Q2702.9063,220.162 2703.4688,220.4589 L2703.4688,223.1777 Q2702.8438,222.5995 2702.25,222.3339 Q2701.6563,222.0527 2701.0313,222.0527 Q2699.6875,222.0527 2699,223.1308 Q2698.3125,224.1933 2698.3125,226.287 Q2698.3125,228.3808 2699,229.4589 Q2699.6875,230.5214 2701.0313,230.5214 Q2701.6563,230.5214 2702.25,230.2558 Q2702.8438,229.9745 2703.4688,229.3964 L2703.4688,232.1152 Z " fill="#000000"/><text fill="#D9B8FF" font-family="Helvetica" font-size="17" lengthAdjust="spacing" textLength="201" x="2719.5" y="232.3598">azure_postgresql_server</text></g><!--class azure_sql_server--><g id="elem_azure_sql_server"><rect codeLine="65" fill="#3D176E" height="39.7891" id="azure_sql_server" rx="2.5" ry="2.5" style="stroke:#000D19;stroke-width:0.5;" width="181" x="2963.5" y="206.58"/><ellipse cx="2978.5" cy="226.4745" fill="#ADD1B2" rx="11" ry="11" style="stroke:#181818;stroke-width:1.0;"/><path d="M2981.4688,232.1152 Q2980.8906,232.412 2980.25,232.5527 Q2979.6094,232.7089 2978.9063,232.7089 Q2976.4063,232.7089 2975.0781,231.0683 Q2973.7656,229.412 2973.7656,226.287 Q2973.7656,223.162 2975.0781,221.5058 Q2976.4063,219.8495 2978.9063,219.8495 Q2979.6094,219.8495 2980.25,220.0058 Q2980.9063,220.162 2981.4688,220.4589 L2981.4688,223.1777 Q2980.8438,222.5995 2980.25,222.3339 Q2979.6563,222.0527 2979.0313,222.0527 Q2977.6875,222.0527 2977,223.1308 Q2976.3125,224.1933 2976.3125,226.287 Q2976.3125,228.3808 2977,229.4589 Q2977.6875,230.5214 2979.0313,230.5214 Q2979.6563,230.5214 2980.25,230.2558 Q2980.8438,229.9745 2981.4688,229.3964 L2981.4688,232.1152 Z " fill="#000000"/><text fill="#D9B8FF" font-family="Helvetica" font-size="17" lengthAdjust="spacing" textLength="139" x="2997.5" y="232.3598">azure_sql_server</text></g><!--class azure_sql_server_managed_instance--><g id="elem_azure_sql_server_managed_instance"><rect codeLine="68" fill="#3D176E" height="39.7891" id="azure_sql_server_managed_instance" rx="2.5" ry="2.5" style="stroke:#000D19;stroke-width:0.5;" width="347" x="3179.5" y="206.58"/><ellipse cx="3194.5" cy="226.4745" fill="#ADD1B2" rx="11" ry="11" style="stroke:#181818;stroke-width:1.0;"/><path d="M3197.4688,232.1152 Q3196.8906,232.412 3196.25,232.5527 Q3195.6094,232.7089 3194.9063,232.7089 Q3192.4063,232.7089 3191.0781,231.0683 Q3189.7656,229.412 3189.7656,226.287 Q3189.7656,223.162 3191.0781,221.5058 Q3192.4063,219.8495 3194.9063,219.8495 Q3195.6094,219.8495 3196.25,220.0058 Q3196.9063,220.162 3197.4688,220.4589 L3197.4688,223.1777 Q3196.8438,222.5995 3196.25,222.3339 Q3195.6563,222.0527 3195.0313,222.0527 Q3193.6875,222.0527 3193,223.1308 Q3192.3125,224.1933 3192.3125,226.287 Q3192.3125,228.3808 3193,229.4589 Q3193.6875,230.5214 3195.0313,230.5214 Q3195.6563,230.5214 3196.25,230.2558 Q3196.8438,229.9745 3197.4688,229.3964 L3197.4688,232.1152 Z " fill="#000000"/><text fill="#D9B8FF" font-family="Helvetica" font-size="17" lengthAdjust="spacing" textLength="305" x="3213.5" y="232.3598">azure_sql_server_managed_instance</text></g><!--class microsoft_graph_group--><g id="elem_microsoft_graph_group"><rect codeLine="71" fill="#3D176E" height="39.7891" id="microsoft_graph_group" rx="2.5" ry="2.5" style="stroke:#000D19;stroke-width:0.5;" width="234" x="43" y="206.58"/><ellipse cx="58" cy="226.4745" fill="#ADD1B2" rx="11" ry="11" style="stroke:#181818;stroke-width:1.0;"/><path d="M60.9688,232.1152 Q60.3906,232.412 59.75,232.5527 Q59.1094,232.7089 58.4063,232.7089 Q55.9063,232.7089 54.5781,231.0683 Q53.2656,229.412 53.2656,226.287 Q53.2656,223.162 54.5781,221.5058 Q55.9063,219.8495 58.4063,219.8495 Q59.1094,219.8495 59.75,220.0058 Q60.4063,220.162 60.9688,220.4589 L60.9688,223.1777 Q60.3438,222.5995 59.75,222.3339 Q59.1563,222.0527 58.5313,222.0527 Q57.1875,222.0527 56.5,223.1308 Q55.8125,224.1933 55.8125,226.287 Q55.8125,228.3808 56.5,229.4589 Q57.1875,230.5214 58.5313,230.5214 Q59.1563,230.5214 59.75,230.2558 Q60.3438,229.9745 60.9688,229.3964 L60.9688,232.1152 Z " fill="#000000"/><text fill="#D9B8FF" font-family="Helvetica" font-size="17" lengthAdjust="spacing" textLength="192" x="77" y="232.3598">microsoft_graph_group</text></g><!--class microsoft_graph_role--><g id="elem_microsoft_graph_role"><rect codeLine="74" fill="#3D176E" height="39.7891" id="microsoft_graph_role" rx="2.5" ry="2.5" style="stroke:#000D19;stroke-width:0.5;" width="218" x="1712" y="406.16"/><ellipse cx="1727" cy="426.0545" fill="#ADD1B2" rx="11" ry="11" style="stroke:#181818;stroke-width:1.0;"/><path d="M1729.9688,431.6952 Q1729.3906,431.992 1728.75,432.1327 Q1728.1094,432.2889 1727.4063,432.2889 Q1724.9063,432.2889 1723.5781,430.6483 Q1722.2656,428.992 1722.2656,425.867 Q1722.2656,422.742 1723.5781,421.0858 Q1724.9063,419.4295 1727.4063,419.4295 Q1728.1094,419.4295 1728.75,419.5858 Q1729.4063,419.742 1729.9688,420.0389 L1729.9688,422.7577 Q1729.3438,422.1795 1728.75,421.9139 Q1728.1563,421.6327 1727.5313,421.6327 Q1726.1875,421.6327 1725.5,422.7108 Q1724.8125,423.7733 1724.8125,425.867 Q1724.8125,427.9608 1725.5,429.0389 Q1726.1875,430.1014 1727.5313,430.1014 Q1728.1563,430.1014 1728.75,429.8358 Q1729.3438,429.5545 1729.9688,428.9764 L1729.9688,431.6952 Z " fill="#000000"/><text fill="#D9B8FF" font-family="Helvetica" font-size="17" lengthAdjust="spacing" textLength="176" x="1746" y="431.9398">microsoft_graph_role</text></g><!--class microsoft_graph_service_principal--><g id="elem_microsoft_graph_service_principal"><rect codeLine="77" fill="#3D176E" height="39.7891" id="microsoft_graph_service_principal" rx="2.5" ry="2.5" style="stroke:#000D19;stroke-width:0.5;" width="324" x="1659" y="306.37"/><ellipse cx="1674" cy="326.2645" fill="#ADD1B2" rx="11" ry="11" style="stroke:#181818;stroke-width:1.0;"/><path d="M1676.9688,331.9052 Q1676.3906,332.202 1675.75,332.3427 Q1675.1094,332.4989 1674.4063,332.4989 Q1671.9063,332.4989 1670.5781,330.8583 Q1669.2656,329.202 1669.2656,326.077 Q1669.2656,322.952 1670.5781,321.2958 Q1671.9063,319.6395 1674.4063,319.6395 Q1675.1094,319.6395 1675.75,319.7958 Q1676.4063,319.952 1676.9688,320.2489 L1676.9688,322.9677 Q1676.3438,322.3895 1675.75,322.1239 Q1675.1563,321.8427 1674.5313,321.8427 Q1673.1875,321.8427 1672.5,322.9208 Q1671.8125,323.9833 1671.8125,326.077 Q1671.8125,328.1708 1672.5,329.2489 Q1673.1875,330.3114 1674.5313,330.3114 Q1675.1563,330.3114 1675.75,330.0458 Q1676.3438,329.7645 1676.9688,329.1864 L1676.9688,331.9052 Z " fill="#000000"/><text fill="#D9B8FF" font-family="Helvetica" font-size="17" lengthAdjust="spacing" textLength="282" x="1693" y="332.1498">microsoft_graph_service_principal</text></g><!--link azure_authorization_role_assignment to microsoft_graph_group--><g id="link_azure_authorization_role_assignment_microsoft_graph_group"><path codeLine="80" d="M180.06,147.01 C175.68,164.15 170.7963,183.257 166.4163,200.387 " fill="none" id="azure_authorization_role_assignment-to-microsoft_graph_group" style="stroke:#1A83AF;stroke-width:2.0;"/><polygon fill="#1A83AF" points="164.93,206.2,171.0348,198.4714,166.1686,201.3558,163.2842,196.4896,164.93,206.2" style="stroke:#1A83AF;stroke-width:2.0;"/></g><!--link azure_authorization_role_assignment to microsoft_graph_service_principal--><g id="link_azure_authorization_role_assignment_microsoft_graph_service_principal"><path codeLine="81" d="M210.75,147.01 C252.29,177.76 332.8,235.47 366,246.37 C486.02,285.78 1298.5922,311.559 1652.5122,321.059 " fill="none" id="azure_authorization_role_assignment-to-microsoft_graph_service_principal" style="stroke:#1A83AF;stroke-width:2.0;"/><polygon fill="#1A83AF" points="1658.51,321.22,1649.6206,316.9799,1653.5118,321.0858,1649.4059,324.9771,1658.51,321.22" style="stroke:#1A83AF;stroke-width:2.0;"/></g><!--link azure_cosmos_db_account to azure_cosmos_db_sql_role_assignment--><g id="link_azure_cosmos_db_account_azure_cosmos_db_sql_role_assignment"><path codeLine="82" d="M555.57,147.01 C557.85,164.15 560.3684,183.1225 562.6484,200.2525 " fill="none" id="azure_cosmos_db_account-to-azure_cosmos_db_sql_role_assignment" style="stroke:#1A83AF;stroke-width:2.0;"/><polygon fill="#1A83AF" points="563.44,206.2,566.2176,196.7509,562.7803,201.2437,558.2875,197.8064,563.44,206.2" style="stroke:#1A83AF;stroke-width:2.0;"/></g><!--link azure_cosmos_db_account to microsoft_graph_service_principal--><g id="link_azure_cosmos_db_account_microsoft_graph_service_principal"><path codeLine="83" d="M612.27,146.96 C655.55,161.68 715.28,183.33 766,206.58 C799.24,221.82 802.99,235.83 838,246.37 C987.08,291.26 1414.4937,311.9801 1652.9837,320.3301 " fill="none" id="azure_cosmos_db_account-to-microsoft_graph_service_principal" style="stroke:#1A83AF;stroke-width:2.0;"/><polygon fill="#1A83AF" points="1658.98,320.54,1650.1255,316.2275,1653.9831,320.365,1649.8455,324.2226,1658.98,320.54" style="stroke:#1A83AF;stroke-width:2.0;"/></g><!--link azure_cosmos_db_cassandra_cluster to microsoft_graph_service_principal--><g id="link_azure_cosmos_db_cassandra_cluster_microsoft_graph_service_principal"><path codeLine="84" d="M1184.34,246.86 C1323.25,263.96 1518.7549,288.047 1657.6749,305.147 " fill="none" id="azure_cosmos_db_cassandra_cluster-to-microsoft_graph_service_principal" style="stroke:#1A83AF;stroke-width:2.0;"/><polygon fill="#1A83AF" points="1663.63,305.88,1655.1861,300.8104,1658.6675,305.2691,1654.2087,308.7505,1663.63,305.88" style="stroke:#1A83AF;stroke-width:2.0;"/></g><!--link azure_cosmos_db_sql_role_assignment to microsoft_graph_service_principal--><g id="link_azure_cosmos_db_sql_role_assignment_microsoft_graph_service_principal"><path codeLine="85" d="M749.24,244.12 C758.29,244.89 767.24,245.65 776,246.37 C1088.32,272.21 1447.4654,298.5701 1652.9454,313.3301 " fill="none" id="azure_cosmos_db_sql_role_assignment-to-microsoft_graph_service_principal" style="stroke:#1A83AF;stroke-width:2.0;"/><polygon fill="#1A83AF" points="1658.93,313.76,1650.2397,309.1255,1653.9428,313.4018,1649.6665,317.1049,1658.93,313.76" style="stroke:#1A83AF;stroke-width:2.0;"/></g><!--link azure_machine_learning_batch_endpoint to microsoft_graph_service_principal--><g id="link_azure_machine_learning_batch_endpoint_microsoft_graph_service_principal"><path codeLine="86" d="M1011.57,147.02 C1072.03,160.27 1149.82,180.23 1216,206.58 C1249.97,220.11 1253.36,234.67 1288,246.37 C1408.41,287.07 1545.1736,306.2588 1652.6236,315.8088 " fill="none" id="azure_machine_learning_batch_endpoint-to-microsoft_graph_service_principal" style="stroke:#1A83AF;stroke-width:2.0;"/><polygon fill="#1A83AF" points="1658.6,316.34,1649.9895,311.5589,1653.6196,315.8974,1649.2812,319.5275,1658.6,316.34" style="stroke:#1A83AF;stroke-width:2.0;"/></g><!--link azure_machine_learning_compute to azure_machine_learning_online_endpoint--><g id="link_azure_machine_learning_compute_azure_machine_learning_online_endpoint"><path codeLine="87" d="M1398.29,147.01 C1420.73,164.15 1448.5723,185.4273 1470.9923,202.5573 " fill="none" id="azure_machine_learning_compute-to-azure_machine_learning_online_endpoint" style="stroke:#1A83AF;stroke-width:2.0;"/><polygon fill="#1A83AF" points="1475.76,206.2,1471.037,197.5575,1471.787,203.1644,1466.18,203.9143,1475.76,206.2" style="stroke:#1A83AF;stroke-width:2.0;"/></g><!--link azure_machine_learning_compute to microsoft_graph_service_principal--><g id="link_azure_machine_learning_compute_microsoft_graph_service_principal"><path codeLine="88" d="M1537.62,145.01 C1596.25,156.4 1660.85,175.28 1714,206.58 C1756.55,231.64 1788.3771,274.2078 1805.8171,300.8878 " fill="none" id="azure_machine_learning_compute-to-microsoft_graph_service_principal" style="stroke:#1A83AF;stroke-width:2.0;"/><polygon fill="#1A83AF" points="1809.1,305.91,1807.5238,296.1881,1806.3643,301.7248,1800.8275,300.5653,1809.1,305.91" style="stroke:#1A83AF;stroke-width:2.0;"/></g><!--link azure_machine_learning_online_endpoint to microsoft_graph_service_principal--><g id="link_azure_machine_learning_online_endpoint_microsoft_graph_service_principal"><path codeLine="89" d="M1564.22,246.8 C1620.23,263.91 1695.8419,287.0166 1751.9019,304.1466 " fill="none" id="azure_machine_learning_online_endpoint-to-microsoft_graph_service_principal" style="stroke:#1A83AF;stroke-width:2.0;"/><polygon fill="#1A83AF" points="1757.64,305.9,1750.2018,299.4446,1752.8583,304.4389,1747.864,307.0954,1757.64,305.9" style="stroke:#1A83AF;stroke-width:2.0;"/></g><!--link azure_machine_learning_private_endpoint_connection to microsoft_graph_service_principal--><g id="link_azure_machine_learning_private_endpoint_connection_microsoft_graph_service_principal"><path codeLine="90" d="M1821,146.99 C1821,184.76 1821,262.05 1821,299.88 " fill="none" id="azure_machine_learning_private_endpoint_connection-to-microsoft_graph_service_principal" style="stroke:#1A83AF;stroke-width:2.0;"/><polygon fill="#1A83AF" points="1821,305.88,1825,296.88,1821,300.88,1817,296.88,1821,305.88" style="stroke:#1A83AF;stroke-width:2.0;"/></g><!--link azure_machine_learning_private_link to microsoft_graph_service_principal--><g id="link_azure_machine_learning_private_link_microsoft_graph_service_principal"><path codeLine="91" d="M2110.49,147.04 C2052.73,158.6 1989.68,177.08 1937,206.58 C1892.25,231.64 1857.175,274.3747 1837.805,301.0547 " fill="none" id="azure_machine_learning_private_link-to-microsoft_graph_service_principal" style="stroke:#1A83AF;stroke-width:2.0;"/><polygon fill="#1A83AF" points="1834.28,305.91,1842.8044,300.977,1837.2175,301.8639,1836.3307,296.277,1834.28,305.91" style="stroke:#1A83AF;stroke-width:2.0;"/></g><!--link azure_machine_learning_registry to microsoft_graph_service_principal--><g id="link_azure_machine_learning_registry_microsoft_graph_service_principal"><path codeLine="92" d="M2162.58,246.86 C2087.99,263.98 1985.6379,287.4777 1911.0979,304.5877 " fill="none" id="azure_machine_learning_registry-to-microsoft_graph_service_principal" style="stroke:#1A83AF;stroke-width:2.0;"/><polygon fill="#1A83AF" points="1905.25,305.93,1914.9168,307.8151,1910.1233,304.8114,1913.127,300.0179,1905.25,305.93" style="stroke:#1A83AF;stroke-width:2.0;"/></g><!--link azure_machine_learning_serverless_endpoint to microsoft_graph_service_principal--><g id="link_azure_machine_learning_serverless_endpoint_microsoft_graph_service_principal"><path codeLine="93" d="M2495.88,146.68 C2307.08,164.46 2053.31,190.61 2008,206.58 C1990.91,212.61 1902.5925,270.782 1854.5725,302.792 " fill="none" id="azure_machine_learning_serverless_endpoint-to-microsoft_graph_service_principal" style="stroke:#1A83AF;stroke-width:2.0;"/><polygon fill="#1A83AF" points="1849.58,306.12,1859.2873,304.4564,1853.7404,303.3467,1854.8501,297.7998,1849.58,306.12" style="stroke:#1A83AF;stroke-width:2.0;"/></g><!--link azure_machine_learning_workspace to azure_machine_learning_batch_endpoint--><g id="link_azure_machine_learning_workspace_azure_machine_learning_batch_endpoint"><path codeLine="94" d="M1648.77,46.41 C1489.29,63.54 1258.9956,88.2886 1097.0556,105.6986 " fill="none" id="azure_machine_learning_workspace-to-azure_machine_learning_batch_endpoint" style="stroke:#1A83AF;stroke-width:2.0;"/><polygon fill="#1A83AF" points="1091.09,106.34,1100.466,109.355,1096.0614,105.8055,1099.6109,101.4009,1091.09,106.34" style="stroke:#1A83AF;stroke-width:2.0;"/></g><!--link azure_machine_learning_workspace to azure_machine_learning_compute--><g id="link_azure_machine_learning_workspace_azure_machine_learning_compute"><path codeLine="95" d="M1732.22,47.28 C1653.78,64.4 1545.852,87.9605 1467.462,105.0705 " fill="none" id="azure_machine_learning_workspace-to-azure_machine_learning_compute" style="stroke:#1A83AF;stroke-width:2.0;"/><polygon fill="#1A83AF" points="1461.6,106.35,1471.246,108.3388,1466.485,105.2838,1469.54,100.5228,1461.6,106.35" style="stroke:#1A83AF;stroke-width:2.0;"/></g><!--link azure_machine_learning_workspace to azure_machine_learning_online_endpoint--><g id="link_azure_machine_learning_workspace_azure_machine_learning_online_endpoint"><path codeLine="96" d="M1648.58,37.91 C1472.57,49.92 1221,72.81 1191,106.79 C1142.95,161.24 1211.3972,189.7642 1299.2972,205.7842 " fill="none" id="azure_machine_learning_workspace-to-azure_machine_learning_online_endpoint" style="stroke:#1A83AF;stroke-width:2.0;"/><polygon fill="#1A83AF" points="1305.2,206.86,1297.063,201.3111,1300.281,205.9635,1295.6287,209.1815,1305.2,206.86" style="stroke:#1A83AF;stroke-width:2.0;"/></g><!--link azure_machine_learning_workspace to azure_machine_learning_private_endpoint_connection--><g id="link_azure_machine_learning_workspace_azure_machine_learning_private_endpoint_connection"><path codeLine="97" d="M1821,47.22 C1821,64.36 1821,83.28 1821,100.41 " fill="none" id="azure_machine_learning_workspace-to-azure_machine_learning_private_endpoint_connection" style="stroke:#1A83AF;stroke-width:2.0;"/><polygon fill="#1A83AF" points="1821,106.41,1825,97.41,1821,101.41,1817,97.41,1821,106.41" style="stroke:#1A83AF;stroke-width:2.0;"/></g><!--link azure_machine_learning_workspace to azure_machine_learning_private_link--><g id="link_azure_machine_learning_workspace_azure_machine_learning_private_link"><path codeLine="98" d="M1912.55,47.28 C1993.44,64.4 2104.92,87.9976 2185.76,105.1076 " fill="none" id="azure_machine_learning_workspace-to-azure_machine_learning_private_link" style="stroke:#1A83AF;stroke-width:2.0;"/><polygon fill="#1A83AF" points="2191.63,106.35,2183.6533,100.5731,2186.7384,105.3147,2181.9968,108.3997,2191.63,106.35" style="stroke:#1A83AF;stroke-width:2.0;"/></g><!--link azure_machine_learning_workspace to azure_machine_learning_serverless_endpoint--><g id="link_azure_machine_learning_workspace_azure_machine_learning_serverless_endpoint"><path codeLine="99" d="M1993.41,46.93 C2148.58,64.06 2369.5962,88.452 2525.6762,105.672 " fill="none" id="azure_machine_learning_workspace-to-azure_machine_learning_serverless_endpoint" style="stroke:#1A83AF;stroke-width:2.0;"/><polygon fill="#1A83AF" points="2531.64,106.33,2523.1329,101.3672,2526.6702,105.7817,2522.2556,109.3189,2531.64,106.33" style="stroke:#1A83AF;stroke-width:2.0;"/></g><!--link azure_machine_learning_workspace to microsoft_graph_service_principal--><g id="link_azure_machine_learning_workspace_microsoft_graph_service_principal"><path codeLine="100" d="M1993.31,27.49 C2290.14,28.61 2872.28,39.48 2935,106.79 C3066.9,248.37 2254.89,149.52 2070,206.58 C2036.54,216.91 2033.22,230.51 2002,246.37 C1958,268.74 1911.7816,288.624 1874.9016,303.744 " fill="none" id="azure_machine_learning_workspace-to-microsoft_graph_service_principal" style="stroke:#1A83AF;stroke-width:2.0;"/><polygon fill="#1A83AF" points="1869.35,306.02,1879.1947,306.307,1873.9763,304.1233,1876.16,298.9049,1869.35,306.02" style="stroke:#1A83AF;stroke-width:2.0;"/></g><!--link azure_mysql_server to microsoft_graph_service_principal--><g id="link_azure_mysql_server_microsoft_graph_service_principal"><path codeLine="101" d="M2441.54,243.82 C2435.61,244.7 2429.73,245.55 2424,246.37 C2272.32,268.04 2104.7727,289.738 1982.9527,305.128 " fill="none" id="azure_mysql_server-to-microsoft_graph_service_principal" style="stroke:#1A83AF;stroke-width:2.0;"/><polygon fill="#1A83AF" points="1977,305.88,1986.4304,308.7204,1981.9606,305.2533,1985.4277,300.7835,1977,305.88" style="stroke:#1A83AF;stroke-width:2.0;"/></g><!--link azure_postgresql_server to microsoft_graph_service_principal--><g id="link_azure_postgresql_server_microsoft_graph_service_principal"><path codeLine="102" d="M2685.37,244.31 C2679.5,245.03 2673.69,245.72 2668,246.37 C2430.12,273.61 2159.8093,297.4917 1989.1693,311.7117 " fill="none" id="azure_postgresql_server-to-microsoft_graph_service_principal" style="stroke:#1A83AF;stroke-width:2.0;"/><polygon fill="#1A83AF" points="1983.19,312.21,1992.4911,315.4488,1988.1727,311.7948,1991.8267,307.4764,1983.19,312.21" style="stroke:#1A83AF;stroke-width:2.0;"/></g><!--link azure_sql_server to microsoft_graph_service_principal--><g id="link_azure_sql_server_microsoft_graph_service_principal"><path codeLine="103" d="M2963.06,244.08 C2957.3,244.92 2951.57,245.69 2946,246.37 C2604.68,288.08 2208.1944,309.4414 1989.1144,318.8914 " fill="none" id="azure_sql_server-to-microsoft_graph_service_principal" style="stroke:#1A83AF;stroke-width:2.0;"/><polygon fill="#1A83AF" points="1983.12,319.15,1992.284,322.7584,1988.1154,318.9345,1991.9393,314.7659,1983.12,319.15" style="stroke:#1A83AF;stroke-width:2.0;"/></g><!--link azure_sql_server_managed_instance to microsoft_graph_service_principal--><g id="link_azure_sql_server_managed_instance_microsoft_graph_service_principal"><path codeLine="104" d="M3179.18,244.97 C3173.39,245.46 3167.65,245.93 3162,246.37 C2737.26,279.86 2241.8132,305.4434 1989.4332,317.5134 " fill="none" id="azure_sql_server_managed_instance-to-microsoft_graph_service_principal" style="stroke:#1A83AF;stroke-width:2.0;"/><polygon fill="#1A83AF" points="1983.44,317.8,1992.6208,321.3655,1988.4343,317.5611,1992.2386,313.3746,1983.44,317.8" style="stroke:#1A83AF;stroke-width:2.0;"/></g><!--link microsoft_graph_group to microsoft_graph_service_principal--><g id="link_microsoft_graph_group_microsoft_graph_service_principal"><path codeLine="105" d="M277.4,243.66 C286.39,244.66 295.34,245.58 304,246.37 C796.26,291.4 1374.9226,312.6024 1652.7826,320.8324 " fill="none" id="microsoft_graph_group-to-microsoft_graph_service_principal" style="stroke:#1A83AF;stroke-width:2.0;"/><polygon fill="#1A83AF" points="1658.78,321.01,1649.9024,316.7453,1653.7822,320.862,1649.6655,324.7418,1658.78,321.01" style="stroke:#1A83AF;stroke-width:2.0;"/></g><!--link microsoft_graph_role to microsoft_graph_role--><g id="link_microsoft_graph_role_microsoft_graph_role"><path codeLine="106" d="M1930.26,408.31 C1950.64,410.49 1965,416.41 1965,426.06 C1965,435.7 1956.6057,440.9789 1936.2257,443.1689 " fill="none" id="microsoft_graph_role-to-microsoft_graph_role" style="stroke:#1A83AF;stroke-width:2.0;"/><polygon fill="#1A83AF" points="1930.26,443.81,1939.6359,446.8255,1935.2314,443.2758,1938.7811,438.8713,1930.26,443.81" style="stroke:#1A83AF;stroke-width:2.0;"/></g><!--link microsoft_graph_service_principal to microsoft_graph_role--><g id="link_microsoft_graph_service_principal_microsoft_graph_role"><path codeLine="107" d="M1821,346.59 C1821,363.73 1821,382.64 1821,399.78 " fill="none" id="microsoft_graph_service_principal-to-microsoft_graph_role" style="stroke:#1A83AF;stroke-width:2.0;"/><polygon fill="#1A83AF" points="1821,405.78,1825,396.78,1821,400.78,1817,396.78,1821,405.78" style="stroke:#1A83AF;stroke-width:2.0;"/></g><!--SRC=[hPPDZzem48Rl-HMHEAy4HIrmgKIHLkrbLNLxgwfei2U9HMAdOmE2gl-zDkn7I48-mCTuNZ_psXvFd0gE8UQ5EOGvvcia7UYDa0KGvE6IIErNAbCKZk8Oukci6dnKqdGAdY37y2jcEpI2GLNnCnLi8r7hy4Cfz0NO9Y6rbVoCDmHIsn1AKrAjCj1wQGo9zTPWoGnVhETnN5LMeQCfdym-OKscY2EzICRZCPyigfBELAthVbCyYoE6a_AcFIc3DPkr52TLgqkdA9ciBVGrVjNZT-1So2JyM1hxSVP44kbY_3a5hlPE7KEcoscqGK9b3WMkQgl2nPp7iqRnjslYWBcj2-6u9OnWQr95uWX6A1cHokoGrYAHkQsIy6yG_BkGCwLpfIE-Ze0nYswLC3i8aXD4BDiwOsrY_IVhJfy3IuN4A4CWQVSgMeDXQOII5qhqci1KNjWoxw5KCdFV0zW5YHsOzoascPJ8tCuEc6spRdh82HEX3HrwI3NI3YcpxM78QlQADhPRiAQzEhZJEcFhqK9fan2sIVh5h2S92V98I6r0NZh91IEbLMoYXA188rVfHPl05LTRtEKK3DqvI2OAoCxYFjVauTTeifnFbu-_7put6xiVKxCNNBkH5vWUrwmVQBYV-lM_4zZK8cv2ThKHFz3NLjDm7btDPX3oPeFL3kU7sjO5_MOuTKe_oBTkwWVNr77zaD-xSf-okgnhFyoN6lG3wrdtmw0j5UWtWIj0FyI6WXa8xbrHvN_tJOJw__qcZB_vzNV2G63pM-9EoEczqSfmYg3x6TBD-0y0]--></g></svg>