<?xml version="1.0" encoding="us-ascii" standalone="no"?><svg xmlns="http://www.w3.org/2000/svg" xmlns:xlink="http://www.w3.org/1999/xlink" contentStyleType="text/css" height="352px" preserveAspectRatio="none" style="width:2754px;height:352px;" version="1.1" viewBox="0 0 2754 352" width="2754px" zoomAndPan="magnify"><defs/><g><!--class azure_application_gateway--><g id="elem_azure_application_gateway"><rect codeLine="22" fill="#3D176E" height="39.7891" id="azure_application_gateway" rx="2.5" ry="2.5" style="stroke:#000D19;stroke-width:0.5;" width="269" x="483" y="206.58"/><ellipse cx="498" cy="226.4745" fill="#ADD1B2" rx="11" ry="11" style="stroke:#181818;stroke-width:1.0;"/><path d="M500.9688,232.1152 Q500.3906,232.412 499.75,232.5527 Q499.1094,232.7089 498.4063,232.7089 Q495.9063,232.7089 494.5781,231.0683 Q493.2656,229.412 493.2656,226.287 Q493.2656,223.162 494.5781,221.5058 Q495.9063,219.8495 498.4063,219.8495 Q499.1094,219.8495 499.75,220.0058 Q500.4063,220.162 500.9688,220.4589 L500.9688,223.1777 Q500.3438,222.5995 499.75,222.3339 Q499.1563,222.0527 498.5313,222.0527 Q497.1875,222.0527 496.5,223.1308 Q495.8125,224.1933 495.8125,226.287 Q495.8125,228.3808 496.5,229.4589 Q497.1875,230.5214 498.5313,230.5214 Q499.1563,230.5214 499.75,230.2558 Q500.3438,229.9745 500.9688,229.3964 L500.9688,232.1152 Z " fill="#000000"/><text fill="#D9B8FF" font-family="Helvetica" font-size="17" lengthAdjust="spacing" textLength="227" x="517" y="232.3598">azure_application_gateway</text></g><!--class azure_bastion_host--><g id="elem_azure_bastion_host"><rect codeLine="24" fill="#3D176E" height="39.7891" id="azure_bastion_host" rx="2.5" ry="2.5" style="stroke:#000D19;stroke-width:0.5;" width="203" x="7" y="206.58"/><ellipse cx="22" cy="226.4745" fill="#ADD1B2" rx="11" ry="11" style="stroke:#181818;stroke-width:1.0;"/><path d="M24.9688,232.1152 Q24.3906,232.412 23.75,232.5527 Q23.1094,232.7089 22.4063,232.7089 Q19.9063,232.7089 18.5781,231.0683 Q17.2656,229.412 17.2656,226.287 Q17.2656,223.162 18.5781,221.5058 Q19.9063,219.8495 22.4063,219.8495 Q23.1094,219.8495 23.75,220.0058 Q24.4063,220.162 24.9688,220.4589 L24.9688,223.1777 Q24.3438,222.5995 23.75,222.3339 Q23.1563,222.0527 22.5313,222.0527 Q21.1875,222.0527 20.5,223.1308 Q19.8125,224.1933 19.8125,226.287 Q19.8125,228.3808 20.5,229.4589 Q21.1875,230.5214 22.5313,230.5214 Q23.1563,230.5214 23.75,230.2558 Q24.3438,229.9745 24.9688,229.3964 L24.9688,232.1152 Z " fill="#000000"/><text fill="#D9B8FF" font-family="Helvetica" font-size="17" lengthAdjust="spacing" textLength="161" x="41" y="232.3598">azure_bastion_host</text></g><!--class azure_dscp_configuration--><g id="elem_azure_dscp_configuration"><rect codeLine="26" fill="#3D176E" height="39.7891" id="azure_dscp_configuration" rx="2.5" ry="2.5" style="stroke:#000D19;stroke-width:0.5;" width="253" x="1122" y="206.58"/><ellipse cx="1137" cy="226.4745" fill="#ADD1B2" rx="11" ry="11" style="stroke:#181818;stroke-width:1.0;"/><path d="M1139.9688,232.1152 Q1139.3906,232.412 1138.75,232.5527 Q1138.1094,232.7089 1137.4063,232.7089 Q1134.9063,232.7089 1133.5781,231.0683 Q1132.2656,229.412 1132.2656,226.287 Q1132.2656,223.162 1133.5781,221.5058 Q1134.9063,219.8495 1137.4063,219.8495 Q1138.1094,219.8495 1138.75,220.0058 Q1139.4063,220.162 1139.9688,220.4589 L1139.9688,223.1777 Q1139.3438,222.5995 1138.75,222.3339 Q1138.1563,222.0527 1137.5313,222.0527 Q1136.1875,222.0527 1135.5,223.1308 Q1134.8125,224.1933 1134.8125,226.287 Q1134.8125,228.3808 1135.5,229.4589 Q1136.1875,230.5214 1137.5313,230.5214 Q1138.1563,230.5214 1138.75,230.2558 Q1139.3438,229.9745 1139.9688,229.3964 L1139.9688,232.1152 Z " fill="#000000"/><text fill="#D9B8FF" font-family="Helvetica" font-size="17" lengthAdjust="spacing" textLength="211" x="1156" y="232.3598">azure_dscp_configuration</text></g><!--class azure_firewall--><g id="elem_azure_firewall"><rect codeLine="28" fill="#3D176E" height="39.7891" id="azure_firewall" rx="2.5" ry="2.5" style="stroke:#000D19;stroke-width:0.5;" width="160" x="1409.5" y="206.58"/><ellipse cx="1424.5" cy="226.4745" fill="#ADD1B2" rx="11" ry="11" style="stroke:#181818;stroke-width:1.0;"/><path d="M1427.4688,232.1152 Q1426.8906,232.412 1426.25,232.5527 Q1425.6094,232.7089 1424.9063,232.7089 Q1422.4063,232.7089 1421.0781,231.0683 Q1419.7656,229.412 1419.7656,226.287 Q1419.7656,223.162 1421.0781,221.5058 Q1422.4063,219.8495 1424.9063,219.8495 Q1425.6094,219.8495 1426.25,220.0058 Q1426.9063,220.162 1427.4688,220.4589 L1427.4688,223.1777 Q1426.8438,222.5995 1426.25,222.3339 Q1425.6563,222.0527 1425.0313,222.0527 Q1423.6875,222.0527 1423,223.1308 Q1422.3125,224.1933 1422.3125,226.287 Q1422.3125,228.3808 1423,229.4589 Q1423.6875,230.5214 1425.0313,230.5214 Q1425.6563,230.5214 1426.25,230.2558 Q1426.8438,229.9745 1427.4688,229.3964 L1427.4688,232.1152 Z " fill="#000000"/><text fill="#D9B8FF" font-family="Helvetica" font-size="17" lengthAdjust="spacing" textLength="118" x="1443.5" y="232.3598">azure_firewall</text></g><!--class azure_ip_allocation--><g id="elem_azure_ip_allocation"><rect codeLine="30" fill="#3D176E" height="39.7891" id="azure_ip_allocation" rx="2.5" ry="2.5" style="stroke:#000D19;stroke-width:0.5;" width="202" x="245.5" y="206.58"/><ellipse cx="260.5" cy="226.4745" fill="#ADD1B2" rx="11" ry="11" style="stroke:#181818;stroke-width:1.0;"/><path d="M263.4688,232.1152 Q262.8906,232.412 262.25,232.5527 Q261.6094,232.7089 260.9063,232.7089 Q258.4063,232.7089 257.0781,231.0683 Q255.7656,229.412 255.7656,226.287 Q255.7656,223.162 257.0781,221.5058 Q258.4063,219.8495 260.9063,219.8495 Q261.6094,219.8495 262.25,220.0058 Q262.9063,220.162 263.4688,220.4589 L263.4688,223.1777 Q262.8438,222.5995 262.25,222.3339 Q261.6563,222.0527 261.0313,222.0527 Q259.6875,222.0527 259,223.1308 Q258.3125,224.1933 258.3125,226.287 Q258.3125,228.3808 259,229.4589 Q259.6875,230.5214 261.0313,230.5214 Q261.6563,230.5214 262.25,230.2558 Q262.8438,229.9745 263.4688,229.3964 L263.4688,232.1152 Z " fill="#000000"/><text fill="#D9B8FF" font-family="Helvetica" font-size="17" lengthAdjust="spacing" textLength="160" x="279.5" y="232.3598">azure_ip_allocation</text></g><!--class azure_load_balancer--><g id="elem_azure_load_balancer"><rect codeLine="32" fill="#3D176E" height="39.7891" id="azure_load_balancer" rx="2.5" ry="2.5" style="stroke:#000D19;stroke-width:0.5;" width="212" x="2535.5" y="206.58"/><ellipse cx="2550.5" cy="226.4745" fill="#ADD1B2" rx="11" ry="11" style="stroke:#181818;stroke-width:1.0;"/><path d="M2553.4688,232.1152 Q2552.8906,232.412 2552.25,232.5527 Q2551.6094,232.7089 2550.9063,232.7089 Q2548.4063,232.7089 2547.0781,231.0683 Q2545.7656,229.412 2545.7656,226.287 Q2545.7656,223.162 2547.0781,221.5058 Q2548.4063,219.8495 2550.9063,219.8495 Q2551.6094,219.8495 2552.25,220.0058 Q2552.9063,220.162 2553.4688,220.4589 L2553.4688,223.1777 Q2552.8438,222.5995 2552.25,222.3339 Q2551.6563,222.0527 2551.0313,222.0527 Q2549.6875,222.0527 2549,223.1308 Q2548.3125,224.1933 2548.3125,226.287 Q2548.3125,228.3808 2549,229.4589 Q2549.6875,230.5214 2551.0313,230.5214 Q2551.6563,230.5214 2552.25,230.2558 Q2552.8438,229.9745 2553.4688,229.3964 L2553.4688,232.1152 Z " fill="#000000"/><text fill="#D9B8FF" font-family="Helvetica" font-size="17" lengthAdjust="spacing" textLength="170" x="2569.5" y="232.3598">azure_load_balancer</text></g><!--class azure_nat_gateway--><g id="elem_azure_nat_gateway"><rect codeLine="34" fill="#3D176E" height="39.7891" id="azure_nat_gateway" rx="2.5" ry="2.5" style="stroke:#000D19;stroke-width:0.5;" width="206" x="1939.5" y="206.58"/><ellipse cx="1954.5" cy="226.4745" fill="#ADD1B2" rx="11" ry="11" style="stroke:#181818;stroke-width:1.0;"/><path d="M1957.4688,232.1152 Q1956.8906,232.412 1956.25,232.5527 Q1955.6094,232.7089 1954.9063,232.7089 Q1952.4063,232.7089 1951.0781,231.0683 Q1949.7656,229.412 1949.7656,226.287 Q1949.7656,223.162 1951.0781,221.5058 Q1952.4063,219.8495 1954.9063,219.8495 Q1955.6094,219.8495 1956.25,220.0058 Q1956.9063,220.162 1957.4688,220.4589 L1957.4688,223.1777 Q1956.8438,222.5995 1956.25,222.3339 Q1955.6563,222.0527 1955.0313,222.0527 Q1953.6875,222.0527 1953,223.1308 Q1952.3125,224.1933 1952.3125,226.287 Q1952.3125,228.3808 1953,229.4589 Q1953.6875,230.5214 1955.0313,230.5214 Q1955.6563,230.5214 1956.25,230.2558 Q1956.8438,229.9745 1957.4688,229.3964 L1957.4688,232.1152 Z " fill="#000000"/><text fill="#D9B8FF" font-family="Helvetica" font-size="17" lengthAdjust="spacing" textLength="164" x="1973.5" y="232.3598">azure_nat_gateway</text></g><!--class azure_network_profile--><g id="elem_azure_network_profile"><rect codeLine="36" fill="#3D176E" height="39.7891" id="azure_network_profile" rx="2.5" ry="2.5" style="stroke:#000D19;stroke-width:0.5;" width="229" x="858" y="206.58"/><ellipse cx="873" cy="226.4745" fill="#ADD1B2" rx="11" ry="11" style="stroke:#181818;stroke-width:1.0;"/><path d="M875.9688,232.1152 Q875.3906,232.412 874.75,232.5527 Q874.1094,232.7089 873.4063,232.7089 Q870.9063,232.7089 869.5781,231.0683 Q868.2656,229.412 868.2656,226.287 Q868.2656,223.162 869.5781,221.5058 Q870.9063,219.8495 873.4063,219.8495 Q874.1094,219.8495 874.75,220.0058 Q875.4063,220.162 875.9688,220.4589 L875.9688,223.1777 Q875.3438,222.5995 874.75,222.3339 Q874.1563,222.0527 873.5313,222.0527 Q872.1875,222.0527 871.5,223.1308 Q870.8125,224.1933 870.8125,226.287 Q870.8125,228.3808 871.5,229.4589 Q872.1875,230.5214 873.5313,230.5214 Q874.1563,230.5214 874.75,230.2558 Q875.3438,229.9745 875.9688,229.3964 L875.9688,232.1152 Z " fill="#000000"/><text fill="#D9B8FF" font-family="Helvetica" font-size="17" lengthAdjust="spacing" textLength="187" x="892" y="232.3598">azure_network_profile</text></g><!--class azure_network_security_group--><g id="elem_azure_network_security_group"><rect codeLine="38" fill="#3D176E" height="39.7891" id="azure_network_security_group" rx="2.5" ry="2.5" style="stroke:#000D19;stroke-width:0.5;" width="299" x="1605" y="206.58"/><ellipse cx="1620" cy="226.4745" fill="#ADD1B2" rx="11" ry="11" style="stroke:#181818;stroke-width:1.0;"/><path d="M1622.9688,232.1152 Q1622.3906,232.412 1621.75,232.5527 Q1621.1094,232.7089 1620.4063,232.7089 Q1617.9063,232.7089 1616.5781,231.0683 Q1615.2656,229.412 1615.2656,226.287 Q1615.2656,223.162 1616.5781,221.5058 Q1617.9063,219.8495 1620.4063,219.8495 Q1621.1094,219.8495 1621.75,220.0058 Q1622.4063,220.162 1622.9688,220.4589 L1622.9688,223.1777 Q1622.3438,222.5995 1621.75,222.3339 Q1621.1563,222.0527 1620.5313,222.0527 Q1619.1875,222.0527 1618.5,223.1308 Q1617.8125,224.1933 1617.8125,226.287 Q1617.8125,228.3808 1618.5,229.4589 Q1619.1875,230.5214 1620.5313,230.5214 Q1621.1563,230.5214 1621.75,230.2558 Q1622.3438,229.9745 1622.9688,229.3964 L1622.9688,232.1152 Z " fill="#000000"/><text fill="#D9B8FF" font-family="Helvetica" font-size="17" lengthAdjust="spacing" textLength="257" x="1639" y="232.3598">azure_network_security_group</text></g><!--class azure_network_virtual_appliance--><g id="elem_azure_network_virtual_appliance"><rect codeLine="40" fill="#3D176E" height="39.7891" id="azure_network_virtual_appliance" rx="2.5" ry="2.5" style="stroke:#000D19;stroke-width:0.5;" width="319" x="2181" y="206.58"/><ellipse cx="2196" cy="226.4745" fill="#ADD1B2" rx="11" ry="11" style="stroke:#181818;stroke-width:1.0;"/><path d="M2198.9688,232.1152 Q2198.3906,232.412 2197.75,232.5527 Q2197.1094,232.7089 2196.4063,232.7089 Q2193.9063,232.7089 2192.5781,231.0683 Q2191.2656,229.412 2191.2656,226.287 Q2191.2656,223.162 2192.5781,221.5058 Q2193.9063,219.8495 2196.4063,219.8495 Q2197.1094,219.8495 2197.75,220.0058 Q2198.4063,220.162 2198.9688,220.4589 L2198.9688,223.1777 Q2198.3438,222.5995 2197.75,222.3339 Q2197.1563,222.0527 2196.5313,222.0527 Q2195.1875,222.0527 2194.5,223.1308 Q2193.8125,224.1933 2193.8125,226.287 Q2193.8125,228.3808 2194.5,229.4589 Q2195.1875,230.5214 2196.5313,230.5214 Q2197.1563,230.5214 2197.75,230.2558 Q2198.3438,229.9745 2198.9688,229.3964 L2198.9688,232.1152 Z " fill="#000000"/><text fill="#D9B8FF" font-family="Helvetica" font-size="17" lengthAdjust="spacing" textLength="277" x="2215" y="232.3598">azure_network_virtual_appliance</text></g><!--class azure_subnet--><g id="elem_azure_subnet"><rect codeLine="42" fill="#3D176E" height="39.7891" id="azure_subnet" rx="2.5" ry="2.5" style="stroke:#000D19;stroke-width:0.5;" width="154" x="1033.5" y="106.79"/><ellipse cx="1048.5" cy="126.6845" fill="#ADD1B2" rx="11" ry="11" style="stroke:#181818;stroke-width:1.0;"/><path d="M1051.4688,132.3252 Q1050.8906,132.622 1050.25,132.7627 Q1049.6094,132.9189 1048.9063,132.9189 Q1046.4063,132.9189 1045.0781,131.2783 Q1043.7656,129.622 1043.7656,126.497 Q1043.7656,123.372 1045.0781,121.7158 Q1046.4063,120.0595 1048.9063,120.0595 Q1049.6094,120.0595 1050.25,120.2158 Q1050.9063,120.372 1051.4688,120.6689 L1051.4688,123.3877 Q1050.8438,122.8095 1050.25,122.5439 Q1049.6563,122.2627 1049.0313,122.2627 Q1047.6875,122.2627 1047,123.3408 Q1046.3125,124.4033 1046.3125,126.497 Q1046.3125,128.5908 1047,129.6689 Q1047.6875,130.7314 1049.0313,130.7314 Q1049.6563,130.7314 1050.25,130.4658 Q1050.8438,130.1845 1051.4688,129.6064 L1051.4688,132.3252 Z " fill="#000000"/><text fill="#D9B8FF" font-family="Helvetica" font-size="17" lengthAdjust="spacing" textLength="112" x="1067.5" y="132.5698">azure_subnet</text></g><!--class azure_virtual_machine--><g id="elem_azure_virtual_machine"><rect codeLine="44" fill="#3D176E" height="39.7891" id="azure_virtual_machine" rx="2.5" ry="2.5" style="stroke:#000D19;stroke-width:0.5;" width="233" x="1247" y="306.37"/><ellipse cx="1262" cy="326.2645" fill="#ADD1B2" rx="11" ry="11" style="stroke:#181818;stroke-width:1.0;"/><path d="M1264.9688,331.9052 Q1264.3906,332.202 1263.75,332.3427 Q1263.1094,332.4989 1262.4063,332.4989 Q1259.9063,332.4989 1258.5781,330.8583 Q1257.2656,329.202 1257.2656,326.077 Q1257.2656,322.952 1258.5781,321.2958 Q1259.9063,319.6395 1262.4063,319.6395 Q1263.1094,319.6395 1263.75,319.7958 Q1264.4063,319.952 1264.9688,320.2489 L1264.9688,322.9677 Q1264.3438,322.3895 1263.75,322.1239 Q1263.1563,321.8427 1262.5313,321.8427 Q1261.1875,321.8427 1260.5,322.9208 Q1259.8125,323.9833 1259.8125,326.077 Q1259.8125,328.1708 1260.5,329.2489 Q1261.1875,330.3114 1262.5313,330.3114 Q1263.1563,330.3114 1263.75,330.0458 Q1264.3438,329.7645 1264.9688,329.1864 L1264.9688,331.9052 Z " fill="#000000"/><text fill="#D9B8FF" font-family="Helvetica" font-size="17" lengthAdjust="spacing" textLength="191" x="1281" y="332.1498">azure_virtual_machine</text></g><!--class azure_virtual_network--><g id="elem_azure_virtual_network"><rect codeLine="46" fill="#3D176E" height="39.7891" id="azure_virtual_network" rx="2.5" ry="2.5" style="stroke:#000D19;stroke-width:0.5;" width="231" x="769" y="7"/><ellipse cx="784" cy="26.8945" fill="#ADD1B2" rx="11" ry="11" style="stroke:#181818;stroke-width:1.0;"/><path d="M786.9688,32.5352 Q786.3906,32.832 785.75,32.9727 Q785.1094,33.1289 784.4063,33.1289 Q781.9063,33.1289 780.5781,31.4883 Q779.2656,29.832 779.2656,26.707 Q779.2656,23.582 780.5781,21.9258 Q781.9063,20.2695 784.4063,20.2695 Q785.1094,20.2695 785.75,20.4258 Q786.4063,20.582 786.9688,20.8789 L786.9688,23.5977 Q786.3438,23.0195 785.75,22.7539 Q785.1563,22.4727 784.5313,22.4727 Q783.1875,22.4727 782.5,23.5508 Q781.8125,24.6133 781.8125,26.707 Q781.8125,28.8008 782.5,29.8789 Q783.1875,30.9414 784.5313,30.9414 Q785.1563,30.9414 785.75,30.6758 Q786.3438,30.3945 786.9688,29.8164 L786.9688,32.5352 Z " fill="#000000"/><text fill="#D9B8FF" font-family="Helvetica" font-size="17" lengthAdjust="spacing" textLength="189" x="803" y="32.7798">azure_virtual_network</text></g><!--link azure_load_balancer to azure_virtual_machine--><g id="link_azure_load_balancer_azure_virtual_machine"><path codeLine="48" d="M2535.04,244.28 C2529.11,245.04 2523.24,245.74 2517.5,246.37 C2139.49,288.02 1695.2441,310.9541 1486.4841,320.2141 " fill="none" id="azure_load_balancer-to-azure_virtual_machine" style="stroke:#1A83AF;stroke-width:2.0;"/><polygon fill="#1A83AF" points="1480.49,320.48,1489.6584,324.0772,1485.4851,320.2584,1489.3039,316.0851,1480.49,320.48" style="stroke:#1A83AF;stroke-width:2.0;"/></g><!--link azure_network_profile to azure_virtual_machine--><g id="link_azure_network_profile_azure_virtual_machine"><path codeLine="49" d="M1049.75,246.8 C1118.19,263.91 1211.7693,287.3142 1280.2593,304.4442 " fill="none" id="azure_network_profile-to-azure_virtual_machine" style="stroke:#1A83AF;stroke-width:2.0;"/><polygon fill="#1A83AF" points="1286.08,305.9,1278.3195,299.8358,1281.2294,304.6868,1276.3784,307.5967,1286.08,305.9" style="stroke:#1A83AF;stroke-width:2.0;"/></g><!--link azure_network_security_group to azure_virtual_machine--><g id="link_azure_network_security_group_azure_virtual_machine"><path codeLine="50" d="M1677.25,246.8 C1608.81,263.91 1515.2307,287.3142 1446.7407,304.4442 " fill="none" id="azure_network_security_group-to-azure_virtual_machine" style="stroke:#1A83AF;stroke-width:2.0;"/><polygon fill="#1A83AF" points="1440.92,305.9,1450.6216,307.5967,1445.7706,304.6868,1448.6805,299.8358,1440.92,305.9" style="stroke:#1A83AF;stroke-width:2.0;"/></g><!--link azure_subnet to azure_application_gateway--><g id="link_azure_subnet_azure_application_gateway"><path codeLine="51" d="M1033.2,143.02 C947.29,160.06 814.2954,186.4428 720.9654,204.9528 " fill="none" id="azure_subnet-to-azure_application_gateway" style="stroke:#1A83AF;stroke-width:2.0;"/><polygon fill="#1A83AF" points="715.08,206.12,724.6862,208.2927,719.9845,205.1473,723.1299,200.4456,715.08,206.12" style="stroke:#1A83AF;stroke-width:2.0;"/></g><!--link azure_subnet to azure_bastion_host--><g id="link_azure_subnet_azure_bastion_host"><path codeLine="52" d="M1033.24,132.81 C879.49,143.39 524.39,169.79 227.5,206.58 C221.89,207.28 222.0923,207.2001 216.2923,208.0101 " fill="none" id="azure_subnet-to-azure_bastion_host" style="stroke:#1A83AF;stroke-width:2.0;"/><polygon fill="#1A83AF" points="210.35,208.84,219.8167,211.5567,215.3019,208.1484,218.7102,203.6336,210.35,208.84" style="stroke:#1A83AF;stroke-width:2.0;"/></g><!--link azure_subnet to azure_dscp_configuration--><g id="link_azure_subnet_azure_dscp_configuration"><path codeLine="53" d="M1137.76,147.01 C1161.96,164.15 1192.2257,185.5893 1216.3957,202.7293 " fill="none" id="azure_subnet-to-azure_dscp_configuration" style="stroke:#1A83AF;stroke-width:2.0;"/><polygon fill="#1A83AF" points="1221.29,206.2,1216.2624,197.731,1217.2114,203.3077,1211.6348,204.2567,1221.29,206.2" style="stroke:#1A83AF;stroke-width:2.0;"/></g><!--link azure_subnet to azure_firewall--><g id="link_azure_subnet_azure_firewall"><path codeLine="54" d="M1185.38,147.01 C1251.71,164.12 1342.2603,187.4808 1408.6403,204.6108 " fill="none" id="azure_subnet-to-azure_firewall" style="stroke:#1A83AF;stroke-width:2.0;"/><polygon fill="#1A83AF" points="1414.45,206.11,1406.735,199.988,1409.6086,204.8606,1404.736,207.7343,1414.45,206.11" style="stroke:#1A83AF;stroke-width:2.0;"/></g><!--link azure_subnet to azure_ip_allocation--><g id="link_azure_subnet_azure_ip_allocation"><path codeLine="55" d="M1033.44,136.21 C912.35,149.81 670.22,177.82 465.5,206.58 C459.7,207.4 459.6751,207.3796 453.6751,208.2696 " fill="none" id="azure_subnet-to-azure_ip_allocation" style="stroke:#1A83AF;stroke-width:2.0;"/><polygon fill="#1A83AF" points="447.74,209.15,457.2295,211.7862,452.6859,208.4164,456.0557,203.8727,447.74,209.15" style="stroke:#1A83AF;stroke-width:2.0;"/></g><!--link azure_subnet to azure_load_balancer--><g id="link_azure_subnet_azure_load_balancer"><path codeLine="56" d="M1187.73,129.44 C1400.33,134.81 2011.96,154.01 2517.5,206.58 C2523.24,207.18 2523.1662,207.107 2529.0962,207.847 " fill="none" id="azure_subnet-to-azure_load_balancer" style="stroke:#1A83AF;stroke-width:2.0;"/><polygon fill="#1A83AF" points="2535.05,208.59,2526.6146,203.5063,2530.0885,207.9709,2525.624,211.4448,2535.05,208.59" style="stroke:#1A83AF;stroke-width:2.0;"/></g><!--link azure_subnet to azure_nat_gateway--><g id="link_azure_subnet_azure_nat_gateway"><path codeLine="57" d="M1187.82,133.71 C1332.26,145.29 1652.74,172.55 1921.5,206.58 C1927.3,207.32 1927.3066,207.2878 1933.3066,208.1178 " fill="none" id="azure_subnet-to-azure_nat_gateway" style="stroke:#1A83AF;stroke-width:2.0;"/><polygon fill="#1A83AF" points="1939.25,208.94,1930.883,203.7445,1934.2972,208.2549,1929.7868,211.669,1939.25,208.94" style="stroke:#1A83AF;stroke-width:2.0;"/></g><!--link azure_subnet to azure_network_profile--><g id="link_azure_subnet_azure_network_profile"><path codeLine="58" d="M1083.24,147.01 C1059.04,164.15 1028.7743,185.5893 1004.6043,202.7293 " fill="none" id="azure_subnet-to-azure_network_profile" style="stroke:#1A83AF;stroke-width:2.0;"/><polygon fill="#1A83AF" points="999.71,206.2,1009.3652,204.2567,1003.7886,203.3077,1004.7376,197.731,999.71,206.2" style="stroke:#1A83AF;stroke-width:2.0;"/></g><!--link azure_subnet to azure_network_security_group--><g id="link_azure_subnet_azure_network_security_group"><path codeLine="59" d="M1187.86,139.43 C1296.64,155.95 1490.198,185.339 1621.088,205.219 " fill="none" id="azure_subnet-to-azure_network_security_group" style="stroke:#1A83AF;stroke-width:2.0;"/><polygon fill="#1A83AF" points="1627.02,206.12,1618.7227,200.8139,1622.0767,205.3692,1617.5214,208.7232,1627.02,206.12" style="stroke:#1A83AF;stroke-width:2.0;"/></g><!--link azure_subnet to azure_network_virtual_appliance--><g id="link_azure_subnet_azure_network_virtual_appliance"><path codeLine="60" d="M1187.78,132.66 C1361.9,144.05 1798.15,173.59 2162.5,206.58 C2168.54,207.13 2168.7069,207.1325 2174.9169,207.7225 " fill="none" id="azure_subnet-to-azure_network_virtual_appliance" style="stroke:#1A83AF;stroke-width:2.0;"/><polygon fill="#1A83AF" points="2180.89,208.29,2172.3087,203.4567,2175.9124,207.8171,2171.552,211.4208,2180.89,208.29" style="stroke:#1A83AF;stroke-width:2.0;"/></g><!--link azure_subnet to azure_virtual_machine--><g id="link_azure_subnet_azure_virtual_machine"><path codeLine="61" d="M1033.18,134.89 C933.95,147.06 781.22,177.48 840.5,246.37 C891.82,306.01 1102.8119,321.0081 1240.6619,324.4981 " fill="none" id="azure_subnet-to-azure_virtual_machine" style="stroke:#1A83AF;stroke-width:2.0;"/><polygon fill="#1A83AF" points="1246.66,324.65,1237.7641,320.4235,1241.6616,324.5235,1237.5616,328.4209,1246.66,324.65" style="stroke:#1A83AF;stroke-width:2.0;"/></g><!--link azure_virtual_network to azure_bastion_host--><g id="link_azure_virtual_network_azure_bastion_host"><path codeLine="62" d="M802.66,47.21 C736.66,62.91 641.49,85.81 558.5,106.79 C424.55,140.66 274.5638,180.6805 185.8838,204.5505 " fill="none" id="azure_virtual_network-to-azure_bastion_host" style="stroke:#1A83AF;stroke-width:2.0;"/><polygon fill="#1A83AF" points="180.09,206.11,189.8203,207.6333,184.9182,204.8104,187.741,199.9082,180.09,206.11" style="stroke:#1A83AF;stroke-width:2.0;"/></g><!--link azure_virtual_network to azure_ip_allocation--><g id="link_azure_virtual_network_azure_ip_allocation"><path codeLine="63" d="M831.93,47.2 C729.08,84.97 507.9323,166.1918 404.9123,204.0218 " fill="none" id="azure_virtual_network-to-azure_ip_allocation" style="stroke:#1A83AF;stroke-width:2.0;"/><polygon fill="#1A83AF" points="399.28,206.09,409.1072,206.7425,403.9736,204.3665,406.3496,199.2328,399.28,206.09" style="stroke:#1A83AF;stroke-width:2.0;"/></g><!--link azure_virtual_network to azure_load_balancer--><g id="link_azure_virtual_network_azure_load_balancer"><path codeLine="64" d="M1000.03,38.85 C1267.42,64.56 1949.45,132.26 2517.5,206.58 C2523.22,207.33 2523.1467,207.3068 2529.0667,208.1268 " fill="none" id="azure_virtual_network-to-azure_load_balancer" style="stroke:#1A83AF;stroke-width:2.0;"/><polygon fill="#1A83AF" points="2535.01,208.95,2526.6439,203.753,2530.0573,208.264,2525.5463,211.6773,2535.01,208.95" style="stroke:#1A83AF;stroke-width:2.0;"/></g><!--link azure_virtual_network to azure_subnet--><g id="link_azure_virtual_network_azure_subnet"><path codeLine="65" d="M929.15,47.22 C968.77,64.36 1020.8434,86.8974 1060.4334,104.0274 " fill="none" id="azure_virtual_network-to-azure_subnet" style="stroke:#1A83AF;stroke-width:2.0;"/><polygon fill="#1A83AF" points="1065.94,106.41,1059.2685,99.165,1061.3511,104.4245,1056.0916,106.5071,1065.94,106.41" style="stroke:#1A83AF;stroke-width:2.0;"/></g><!--SRC=[bP9DYzim48Rl-HM2d1UIXZR9fP0DBErbATtUIZ5ZQHIBo98PoHkofV-zTZwARSahzphlyyvteGGoB2j_PYMMEPARkQCo5H2KR4TaJtkhBR6vb21Nww7uP8rF0izG8lk2-XMzuZ0aVXIA7mqwnpvqf4VWnmFPseXhUazWN2EXyHrghy6vdVUayjfZfncnpJTI3ibXqlbABDUVCC0i2QGRibWin78xH9Abtftx7_6Ytf0jkqjxjXw3DeCI5-hTBbkYqsGmw5qVxV4R2A7CWNtinBvVUoA3r8k_523igQKbQDSjupmIMd-kS1zCXTkDaEie_7KCvktc6BpLX1bKbMvwzigQx00UJt1clsT_UamExg8Nrlb058vN6RT6gaDDbpm18XKrURKE15LbJTZok4rR44rj3OOtgngg1lnemmRzoT8ngyXAfN5KTyXhKlwSjLkgHh5NHRu6VTrLsqr0kZflu21yDvR02sLmLByLkkYnsHz-pfUxpMhtzElXSpprB3xuVni76vdiloqWmaSUBEdfFbmI3XymQRa_P1BiFMYIxXqjINSUECtsxpgPxvzpiYru-AGp_XN3_vvswWcks5qcs687cc2xZlqN]--></g></svg>