<svg xmlns="http://www.w3.org/2000/svg" width="952" height="551" viewBox="0 0 952 551"><rect width="311" height="39.789" x="287" y="206.57" fill="#3D176E" rx="2.5" ry="2.5" style="stroke:#000d19;stroke-width:.5"/><circle cx="302" cy="226.464" r="11" fill="#ADD1B2" style="stroke:#181818;stroke-width:1"/><path d="M304.969 232.105q-.578.297-1.219.438-.64.156-1.344.156-2.5 0-3.828-1.64-1.312-1.657-1.312-4.782t1.312-4.781q1.328-1.657 3.828-1.657.703 0 1.344.157.656.156 1.219.453v2.719q-.625-.579-1.219-.844-.594-.281-1.219-.281-1.344 0-2.031 1.078-.687 1.062-.687 3.156t.687 3.172q.688 1.062 2.031 1.062.625 0 1.219-.265.594-.282 1.219-.86z"/><text x="321" y="232.35" fill="#D9B8FF" font-family="Helvetica" font-size="17" textLength="269">aws_backup_protected_resource</text><rect width="245" height="39.789" x="7" y="206.57" fill="#3D176E" rx="2.5" ry="2.5" style="stroke:#000d19;stroke-width:.5"/><circle cx="22" cy="226.464" r="11" fill="#ADD1B2" style="stroke:#181818;stroke-width:1"/><path d="M24.969 232.105q-.578.297-1.219.438-.64.156-1.344.156-2.5 0-3.828-1.64-1.312-1.657-1.312-4.782t1.312-4.781q1.328-1.657 3.828-1.657.703 0 1.344.157.656.156 1.219.453v2.719q-.625-.579-1.219-.844-.594-.281-1.219-.281-1.343 0-2.031 1.078-.687 1.062-.687 3.156t.687 3.172q.688 1.062 2.031 1.062.625 0 1.219-.265.594-.282 1.219-.86z"/><text x="41" y="232.35" fill="#D9B8FF" font-family="Helvetica" font-size="17" textLength="203">aws_ec2_security_group</text><rect width="179" height="39.789" x="703" y="206.57" fill="#3D176E" rx="2.5" ry="2.5" style="stroke:#000d19;stroke-width:.5"/><circle cx="718" cy="226.464" r="11" fill="#ADD1B2" style="stroke:#181818;stroke-width:1"/><path d="M720.969 232.105q-.578.297-1.219.438-.64.156-1.344.156-2.5 0-3.828-1.64-1.312-1.657-1.312-4.782t1.312-4.781q1.328-1.657 3.828-1.657.703 0 1.344.157.656.156 1.219.453v2.719q-.625-.579-1.219-.844-.594-.281-1.219-.281-1.343 0-2.031 1.078-.687 1.062-.687 3.156t.687 3.172q.688 1.062 2.031 1.062.625 0 1.219-.265.594-.282 1.219-.86z"/><text x="737" y="232.35" fill="#D9B8FF" font-family="Helvetica" font-size="17" textLength="137">aws_ec2_subnet</text><rect width="158" height="39.789" x="433.5" y="505.94" fill="#3D176E" rx="2.5" ry="2.5" style="stroke:#000d19;stroke-width:.5"/><circle cx="448.5" cy="525.835" r="11" fill="#ADD1B2" style="stroke:#181818;stroke-width:1"/><path d="M451.469 531.475q-.578.297-1.219.438-.64.156-1.344.156-2.5 0-3.828-1.64-1.312-1.657-1.312-4.782t1.312-4.781q1.328-1.656 3.828-1.656.703 0 1.344.156.656.156 1.219.453v2.719q-.625-.578-1.219-.844-.594-.281-1.219-.281-1.344 0-2.031 1.078-.687 1.062-.687 3.156t.687 3.172q.688 1.062 2.031 1.062.625 0 1.219-.265.594-.281 1.219-.86z"/><text x="467.5" y="531.72" fill="#D9B8FF" font-family="Helvetica" font-size="17" textLength="116">aws_kms_key</text><rect width="174" height="39.789" x="352.5" y="306.36" fill="#3D176E" rx="2.5" ry="2.5" style="stroke:#000d19;stroke-width:.5"/><circle cx="367.5" cy="326.255" r="11" fill="#ADD1B2" style="stroke:#181818;stroke-width:1"/><path d="M370.469 331.895q-.578.297-1.219.438-.64.156-1.344.156-2.5 0-3.828-1.64-1.312-1.657-1.312-4.782t1.312-4.781q1.328-1.656 3.828-1.656.703 0 1.344.156.656.156 1.219.453v2.719q-.625-.579-1.219-.844-.594-.281-1.219-.281-1.344 0-2.031 1.078-.687 1.062-.687 3.156t.687 3.172q.688 1.062 2.031 1.062.625 0 1.219-.265.594-.281 1.219-.86z"/><text x="386.5" y="332.14" fill="#D9B8FF" font-family="Helvetica" font-size="17" textLength="132">aws_rds_cluster</text><rect width="188" height="39.789" x="492.5" y="406.15" fill="#3D176E" rx="2.5" ry="2.5" style="stroke:#000d19;stroke-width:.5"/><circle cx="507.5" cy="426.045" r="11" fill="#ADD1B2" style="stroke:#181818;stroke-width:1"/><path d="M510.469 431.685q-.578.297-1.219.438-.64.156-1.344.156-2.5 0-3.828-1.64-1.312-1.657-1.312-4.782t1.312-4.781q1.328-1.656 3.828-1.656.703 0 1.344.156.656.156 1.219.453v2.719q-.625-.578-1.219-.844-.594-.281-1.219-.281-1.344 0-2.031 1.078-.687 1.062-.687 3.156t.687 3.172q.688 1.062 2.031 1.062.625 0 1.219-.265.594-.281 1.219-.86z"/><text x="526.5" y="431.93" fill="#D9B8FF" font-family="Helvetica" font-size="17" textLength="146">aws_rds_instance</text><rect width="137" height="39.789" x="661" y="7" fill="#3D176E" rx="2.5" ry="2.5" style="stroke:#000d19;stroke-width:.5"/><circle cx="676" cy="26.895" r="11" fill="#ADD1B2" style="stroke:#181818;stroke-width:1"/><path d="M678.969 32.535q-.578.297-1.219.438-.64.156-1.344.156-2.5 0-3.828-1.64-1.312-1.657-1.312-4.782t1.312-4.781q1.328-1.656 3.828-1.656.703 0 1.344.156.656.156 1.219.453v2.719q-.625-.578-1.219-.844-.594-.281-1.219-.281-1.343 0-2.031 1.078-.687 1.062-.687 3.156t.687 3.172q.688 1.062 2.031 1.062.625 0 1.219-.265.594-.281 1.219-.86z"/><text x="695" y="32.78" fill="#D9B8FF" font-family="Helvetica" font-size="17" textLength="95">aws_region</text><rect width="112" height="39.789" x="602.5" y="106.78" fill="#3D176E" rx="2.5" ry="2.5" style="stroke:#000d19;stroke-width:.5"/><circle cx="617.5" cy="126.674" r="11" fill="#ADD1B2" style="stroke:#181818;stroke-width:1"/><path d="M620.469 132.315q-.578.297-1.219.438-.64.156-1.344.156-2.5 0-3.828-1.64-1.312-1.657-1.312-4.782t1.312-4.781q1.328-1.657 3.828-1.657.703 0 1.344.157.656.156 1.219.453v2.719q-.625-.579-1.219-.844-.594-.281-1.219-.281-1.343 0-2.031 1.078-.687 1.062-.687 3.156t.687 3.172q.688 1.062 2.031 1.062.625 0 1.219-.265.594-.281 1.219-.86z"/><text x="636.5" y="132.56" fill="#D9B8FF" font-family="Helvetica" font-size="17" textLength="70">aws_vpc</text><path fill="none" d="M441.91 246.79c-.53 17.14-1.104 36.063-1.634 53.193" style="stroke:#1a83af;stroke-width:2"/><path fill="#1A83AF" d="m440.09 305.98 4.276-8.872-4.121 3.874-3.875-4.121z" style="stroke:#1a83af;stroke-width:2"/><path fill="none" d="M476.48 246.65c22.09 14.02 50.04 34.86 68.02 59.71 22.29 30.82 32.495 68.688 37.505 93.558" style="stroke:#1a83af;stroke-width:2"/><path fill="#1A83AF" d="m583.19 405.8 2.144-9.613-3.131 4.712-4.712-3.132z" style="stroke:#1a83af;stroke-width:2"/><path fill="none" d="M190.75 246.79c54.26 17.11 127.348 40.165 181.648 57.295" style="stroke:#1a83af;stroke-width:2"/><path fill="#1A83AF" d="m378.12 305.89-7.38-6.522 2.612 5.018-5.018 2.611z" style="stroke:#1a83af;stroke-width:2"/><path fill="none" d="M157.96 246.68c38.64 25.43 110.47 70.43 176.54 99.47 56.87 25 118.353 44.044 169.073 57.944" style="stroke:#1a83af;stroke-width:2"/><path fill="#1A83AF" d="m509.36 405.68-7.623-6.237 2.8 4.916-4.914 2.8z" style="stroke:#1a83af;stroke-width:2"/><path fill="none" d="M774.46 246.83c-22.45 23.87-62.19 65.44-97.96 99.32-22.18 21.01-43.99 40.013-62.44 55.703" style="stroke:#1a83af;stroke-width:2"/><path fill="#1A83AF" d="m609.49 405.74 9.447-2.783-5.638-.456.456-5.639z" style="stroke:#1a83af;stroke-width:2"/><path fill="none" d="M444.41 346.45c6.27 23.71 17.9 65.12 31.09 99.49 8.02 20.9 16.442 38.65 24.382 54.42" style="stroke:#1a83af;stroke-width:2"/><path fill="#1A83AF" d="m502.58 505.72-.475-9.837-1.774 5.371-5.371-1.774z" style="stroke:#1a83af;stroke-width:2"/><path fill="none" d="M468.54 346.58c25.77 17.14 58.235 38.725 83.985 55.865" style="stroke:#1a83af;stroke-width:2"/><path fill="#1A83AF" d="m557.52 405.77-5.276-8.317 1.114 5.547-5.546 1.113z" style="stroke:#1a83af;stroke-width:2"/><path fill="none" d="M571.88 446.37c-12.97 17.14-28.211 37.264-41.171 54.404" style="stroke:#1a83af;stroke-width:2"/><path fill="#1A83AF" d="m527.09 505.56 8.619-4.766-5.603.778-.779-5.603z" style="stroke:#1a83af;stroke-width:2"/><path fill="none" d="M670.88 47.19C556.17 84.97 308.959 166.373 194.059 204.213" style="stroke:#1a83af;stroke-width:2"/><path fill="#1A83AF" d="m188.36 206.09 9.8.984-5.05-2.548 2.547-5.05z" style="stroke:#1a83af;stroke-width:2"/><path fill="none" d="M735.66 47.19c12.04 37.78 36.778 115.343 48.838 153.183" style="stroke:#1a83af;stroke-width:2"/><path fill="#1A83AF" d="m786.32 206.09 1.078-9.79-2.596 5.026-5.026-2.596z" style="stroke:#1a83af;stroke-width:2"/><path fill="none" d="M764.75 47.06c62.29 36.51 181.08 119.5 134.75 199.3-50.74 87.39-156.307 133.838-231.557 157.538" style="stroke:#1a83af;stroke-width:2"/><path fill="#1A83AF" d="m662.22 405.7 9.786 1.112-5.017-2.614 2.614-5.017z" style="stroke:#1a83af;stroke-width:2"/><path fill="none" d="M715.47 47.21c-12.44 17.14-27.004 37.205-39.444 54.335" style="stroke:#1a83af;stroke-width:2"/><path fill="#1A83AF" d="m672.5 106.4 8.525-4.932-5.587.886-.886-5.587z" style="stroke:#1a83af;stroke-width:2"/><path fill="none" d="M602.39 138.05c-87.42 16.16-251.64 46.52-362.22 66.96" style="stroke:#1a83af;stroke-width:2"/><path fill="#1A83AF" d="m234.27 206.1 9.577 2.298-4.66-3.207 3.206-4.66z" style="stroke:#1a83af;stroke-width:2"/><path fill="none" d="M684.97 147c23.5 17.14 52.794 38.523 76.264 55.653" style="stroke:#1a83af;stroke-width:2"/><path fill="#1A83AF" d="m766.08 206.19-4.912-8.537.873 5.59-5.589.872z" style="stroke:#1a83af;stroke-width:2"/><path fill="none" d="M653.89 146.73c-12.98 53.59-48.268 199.349-61.308 253.209" style="stroke:#1a83af;stroke-width:2"/><path fill="#1A83AF" d="m591.17 405.77 6.006-7.806-4.83 2.946-2.946-4.829z" style="stroke:#1a83af;stroke-width:2"/></svg>