<svg xmlns="http://www.w3.org/2000/svg" width="2585" height="2773" viewBox="0 0 2585 2773"><rect width="227" height="74.086" x="886.55" y="638.99" fill="#3D176E" rx="2.5" ry="2.5" style="stroke:#000d19;stroke-width:.5"/><circle cx="966.3" cy="658.885" r="11" fill="#ADD1B2" style="stroke:#181818;stroke-width:1"/><path d="M969.269 664.525q-.578.297-1.219.438-.64.156-1.344.156-2.5 0-3.828-1.64-1.312-1.657-1.312-4.782t1.312-4.781q1.328-1.657 3.828-1.657.703 0 1.344.157.656.156 1.219.453v2.719q-.625-.578-1.219-.844-.594-.281-1.219-.281-1.344 0-2.031 1.078-.687 1.062-.687 3.156t.687 3.172q.688 1.062 2.031 1.062.625 0 1.219-.265.594-.282 1.219-.86z"/><text x="991.8" y="664.77" fill="#D9B8FF" font-family="Helvetica" font-size="17" textLength="49">ai_job</text><path d="M887.55 678.779h225" style="stroke:#000d19;stroke-width:.5"/><text x="897.55" y="700.774" fill="#D9B8FF" font-family="sans-serif" font-size="14" font-weight="bold" textLength="100">ai_job_status</text><text x="997.55" y="700.774" fill="#D9B8FF" font-family="sans-serif" font-size="14" textLength="105">: a_i_job_status</text><rect width="137" height="39.789" x="1081.55" y="438.76" fill="#3D176E" rx="2.5" ry="2.5" style="stroke:#000d19;stroke-width:.5"/><circle cx="1096.55" cy="458.654" r="11" fill="#ADD1B2" style="stroke:#181818;stroke-width:1"/><path d="M1099.519 464.295q-.578.297-1.219.438-.64.156-1.344.156-2.5 0-3.828-1.64-1.312-1.657-1.312-4.782t1.312-4.781q1.328-1.656 3.828-1.656.703 0 1.344.156.656.156 1.219.453v2.719q-.625-.579-1.219-.844-.594-.281-1.219-.281-1.343 0-2.031 1.078-.687 1.062-.687 3.156t.687 3.172q.688 1.062 2.031 1.062.625 0 1.219-.265.594-.281 1.219-.86z"/><text x="1115.55" y="464.54" fill="#D9B8FF" font-family="Helvetica" font-size="17" textLength="95">ai_resource</text><rect width="237" height="179.273" x="1634.55" y="1428.36" fill="#3D176E" rx="2.5" ry="2.5" style="stroke:#000d19;stroke-width:.5"/><circle cx="1649.55" cy="1448.255" r="11" fill="#ADD1B2" style="stroke:#181818;stroke-width:1"/><path d="M1652.519 1453.895q-.578.297-1.219.438-.64.156-1.344.156-2.5 0-3.828-1.64-1.312-1.657-1.312-4.782t1.312-4.781q1.328-1.657 3.828-1.657.703 0 1.344.157.656.156 1.219.453v2.719q-.625-.579-1.219-.844-.594-.281-1.219-.281-1.343 0-2.031 1.078-.687 1.062-.687 3.156t.687 3.172q.688 1.062 2.031 1.062.625 0 1.219-.265.594-.282 1.219-.86z"/><text x="1668.55" y="1454.14" fill="#D9B8FF" font-family="Helvetica" font-size="17" textLength="195">gcp_deprecation_status</text><path d="M1635.55 1468.149h235" style="stroke:#000d19;stroke-width:.5"/><text x="1645.55" y="1490.144" fill="#D9B8FF" font-family="sans-serif" font-size="14" font-weight="bold" textLength="60">deleted</text><text x="1705.55" y="1490.144" fill="#D9B8FF" font-family="sans-serif" font-size="14" textLength="48">: string</text><text x="1645.55" y="1516.441" fill="#D9B8FF" font-family="sans-serif" font-size="14" font-weight="bold" textLength="91">deprecated</text><text x="1736.55" y="1516.441" fill="#D9B8FF" font-family="sans-serif" font-size="14" textLength="48">: string</text><text x="1645.55" y="1542.738" fill="#D9B8FF" font-family="sans-serif" font-size="14" font-weight="bold" textLength="69">obsolete</text><text x="1714.55" y="1542.738" fill="#D9B8FF" font-family="sans-serif" font-size="14" textLength="48">: string</text><text x="1645.55" y="1569.035" fill="#D9B8FF" font-family="sans-serif" font-size="14" font-weight="bold" textLength="99">replacement</text><text x="1744.55" y="1569.035" fill="#D9B8FF" font-family="sans-serif" font-size="14" textLength="48">: string</text><text x="1645.55" y="1595.332" fill="#D9B8FF" font-family="sans-serif" font-size="14" font-weight="bold" textLength="40">state</text><text x="1685.55" y="1595.332" fill="#D9B8FF" font-family="sans-serif" font-size="14" textLength="48">: string</text><rect width="134" height="39.789" x="554.05" y="2727.31" fill="#3D176E" rx="2.5" ry="2.5" style="stroke:#000d19;stroke-width:.5"/><circle cx="569.05" cy="2747.204" r="11" fill="#ADD1B2" style="stroke:#181818;stroke-width:1"/><path d="M572.019 2752.845q-.578.297-1.219.438-.64.156-1.344.156-2.5 0-3.828-1.64-1.312-1.657-1.312-4.782t1.312-4.781q1.328-1.657 3.828-1.657.703 0 1.344.157.656.156 1.219.453v2.719q-.625-.579-1.219-.844-.594-.281-1.219-.281-1.344 0-2.031 1.078-.687 1.062-.687 3.156t.687 3.172q.688 1.062 2.031 1.062.625 0 1.219-.265.594-.282 1.219-.86z"/><text x="588.05" y="2753.09" fill="#D9B8FF" font-family="Helvetica" font-size="17" textLength="92">gcp_details</text><rect width="228" height="126.68" x="507.05" y="2474.89" fill="#3D176E" rx="2.5" ry="2.5" style="stroke:#000d19;stroke-width:.5"/><circle cx="522.05" cy="2494.785" r="11" fill="#ADD1B2" style="stroke:#181818;stroke-width:1"/><path d="M525.019 2500.425q-.578.297-1.219.438-.64.156-1.344.156-2.5 0-3.828-1.64-1.312-1.657-1.312-4.782t1.312-4.781q1.328-1.656 3.828-1.656.703 0 1.344.156.656.156 1.219.453v2.719q-.625-.578-1.219-.844-.594-.281-1.219-.281-1.344 0-2.031 1.078-.687 1.062-.687 3.156t.687 3.172q.688 1.062 2.031 1.062.625 0 1.219-.265.594-.281 1.219-.86z"/><text x="541.05" y="2500.67" fill="#D9B8FF" font-family="Helvetica" font-size="17" textLength="186">gcp_google_rpc_status</text><path d="M508.05 2514.679h226" style="stroke:#000d19;stroke-width:.5"/><text x="518.05" y="2536.674" fill="#D9B8FF" font-family="sans-serif" font-size="14" font-weight="bold" textLength="39">code</text><text x="557.05" y="2536.674" fill="#D9B8FF" font-family="sans-serif" font-size="14" textLength="44">: int64</text><text x="518.05" y="2562.971" fill="#D9B8FF" font-family="sans-serif" font-size="14" font-weight="bold" textLength="52">details</text><text x="570.05" y="2562.971" fill="#D9B8FF" font-family="sans-serif" font-size="14" textLength="97">: gcp_details[]</text><text x="518.05" y="2589.268" fill="#D9B8FF" font-family="sans-serif" font-size="14" font-weight="bold" textLength="71">message</text><text x="589.05" y="2589.268" fill="#D9B8FF" font-family="sans-serif" font-size="14" textLength="48">: string</text><rect width="221" height="39.789" x="1107.55" y="1842.56" fill="#3D176E" rx="2.5" ry="2.5" style="stroke:#000d19;stroke-width:.5"/><circle cx="1122.55" cy="1862.455" r="11" fill="#ADD1B2" style="stroke:#181818;stroke-width:1"/><path d="M1125.519 1868.095q-.578.297-1.219.438-.64.156-1.344.156-2.5 0-3.828-1.64-1.312-1.657-1.312-4.782t1.312-4.781q1.328-1.657 3.828-1.657.703 0 1.344.157.656.156 1.219.453v2.719q-.625-.578-1.219-.844-.594-.281-1.219-.281-1.343 0-2.031 1.078-.687 1.062-.687 3.156t.687 3.172q.688 1.062 2.031 1.062.625 0 1.219-.265.594-.282 1.219-.86z"/><text x="1141.55" y="1868.34" fill="#D9B8FF" font-family="Helvetica" font-size="17" textLength="179">gcp_parametervalues</text><rect width="181" height="39.789" x="328.55" y="1498.1" fill="#3D176E" rx="2.5" ry="2.5" style="stroke:#000d19;stroke-width:.5"/><circle cx="343.55" cy="1517.995" r="11" fill="#ADD1B2" style="stroke:#181818;stroke-width:1"/><path d="M346.519 1523.635q-.578.297-1.219.438-.64.156-1.344.156-2.5 0-3.828-1.64-1.312-1.657-1.312-4.782t1.312-4.781q1.328-1.657 3.828-1.657.703 0 1.344.157.656.156 1.219.453v2.719q-.625-.579-1.219-.844-.594-.281-1.219-.281-1.344 0-2.031 1.078-.687 1.062-.687 3.156t.687 3.172q.688 1.062 2.031 1.062.625 0 1.219-.265.594-.282 1.219-.86z"/><text x="362.55" y="1523.88" fill="#D9B8FF" font-family="Helvetica" font-size="17" textLength="139">gcp_pipelinespec</text><rect width="348" height="152.977" x="1148.05" y="599.55" fill="#3D176E" rx="2.5" ry="2.5" style="stroke:#000d19;stroke-width:.5"/><circle cx="1258.8" cy="619.444" r="11" fill="#ADD1B2" style="stroke:#181818;stroke-width:1"/><path d="M1261.769 625.085q-.578.297-1.219.438-.64.156-1.344.156-2.5 0-3.828-1.64-1.312-1.657-1.312-4.782t1.312-4.781q1.328-1.657 3.828-1.657.703 0 1.344.157.656.156 1.219.453v2.719q-.625-.579-1.219-.844-.594-.281-1.219-.281-1.343 0-2.031 1.078-.687 1.062-.687 3.156t.687 3.172q.688 1.062 2.031 1.062.625 0 1.219-.265.594-.282 1.219-.86z"/><text x="1284.3" y="625.33" fill="#D9B8FF" font-family="Helvetica" font-size="17" textLength="108">gcp_resource</text><path d="M1149.05 639.339h346" style="stroke:#000d19;stroke-width:.5"/><text x="1159.05" y="661.334" fill="#D9B8FF" font-family="sans-serif" font-size="14" font-weight="bold" textLength="151">deprecation_status</text><text x="1310.05" y="661.334" fill="#D9B8FF" font-family="sans-serif" font-size="14" textLength="175">: gcp_deprecation_status</text><text x="1159.05" y="687.631" fill="#D9B8FF" font-family="sans-serif" font-size="14" font-weight="bold" textLength="89">description</text><text x="1248.05" y="687.631" fill="#D9B8FF" font-family="sans-serif" font-size="14" textLength="48">: string</text><text x="1159.05" y="713.928" fill="#D9B8FF" font-family="sans-serif" font-size="14" font-weight="bold" textLength="128">label_fingerprint</text><text x="1287.05" y="713.928" fill="#D9B8FF" font-family="sans-serif" font-size="14" textLength="48">: string</text><text x="1159.05" y="740.225" fill="#D9B8FF" font-family="sans-serif" font-size="14" font-weight="bold" textLength="27">link</text><text x="1186.05" y="740.225" fill="#D9B8FF" font-family="sans-serif" font-size="14" textLength="48">: string</text><rect width="226" height="258.164" x="1087.05" y="2409.15" fill="#3D176E" rx="2.5" ry="2.5" style="stroke:#000d19;stroke-width:.5"/><circle cx="1102.05" cy="2429.044" r="11" fill="#ADD1B2" style="stroke:#181818;stroke-width:1"/><path d="M1105.019 2434.685q-.578.297-1.219.438-.64.156-1.344.156-2.5 0-3.828-1.64-1.312-1.657-1.312-4.782t1.312-4.781q1.328-1.657 3.828-1.657.703 0 1.344.157.656.156 1.219.453v2.719q-.625-.579-1.219-.844-.594-.281-1.219-.281-1.343 0-2.031 1.078-.687 1.062-.687 3.156t.687 3.172q.688 1.062 2.031 1.062.625 0 1.219-.265.594-.282 1.219-.86z"/><text x="1121.05" y="2434.93" fill="#D9B8FF" font-family="Helvetica" font-size="17" textLength="184">gcp_vertex_ai_artifact</text><path d="M1088.05 2448.939h224" style="stroke:#000d19;stroke-width:.5"/><text x="1098.05" y="2470.934" fill="#D9B8FF" font-family="sans-serif" font-size="14" font-weight="bold" textLength="92">create_time</text><text x="1190.05" y="2470.934" fill="#D9B8FF" font-family="sans-serif" font-size="14" textLength="70">: datetime</text><text x="1098.05" y="2497.231" fill="#D9B8FF" font-family="sans-serif" font-size="14" font-weight="bold" textLength="105">display_name</text><text x="1203.05" y="2497.231" fill="#D9B8FF" font-family="sans-serif" font-size="14" textLength="48">: string</text><text x="1098.05" y="2523.528" fill="#D9B8FF" font-family="sans-serif" font-size="14" font-weight="bold" textLength="35">etag</text><text x="1133.05" y="2523.528" fill="#D9B8FF" font-family="sans-serif" font-size="14" textLength="48">: string</text><text x="1098.05" y="2549.825" fill="#D9B8FF" font-family="sans-serif" font-size="14" font-weight="bold" textLength="98">schema_title</text><text x="1196.05" y="2549.825" fill="#D9B8FF" font-family="sans-serif" font-size="14" textLength="48">: string</text><text x="1098.05" y="2576.122" fill="#D9B8FF" font-family="sans-serif" font-size="14" font-weight="bold" textLength="127">schema_version</text><text x="1225.05" y="2576.122" fill="#D9B8FF" font-family="sans-serif" font-size="14" textLength="48">: string</text><text x="1098.05" y="2602.419" fill="#D9B8FF" font-family="sans-serif" font-size="14" font-weight="bold" textLength="40">state</text><text x="1138.05" y="2602.419" fill="#D9B8FF" font-family="sans-serif" font-size="14" textLength="48">: string</text><text x="1098.05" y="2628.715" fill="#D9B8FF" font-family="sans-serif" font-size="14" font-weight="bold" textLength="96">update_time</text><text x="1194.05" y="2628.715" fill="#D9B8FF" font-family="sans-serif" font-size="14" textLength="70">: datetime</text><text x="1098.05" y="2655.012" fill="#D9B8FF" font-family="sans-serif" font-size="14" font-weight="bold" textLength="21">uri</text><text x="1119.05" y="2655.012" fill="#D9B8FF" font-family="sans-serif" font-size="14" textLength="48">: string</text><rect width="229" height="231.867" x="228.55" y="1746.52" fill="#3D176E" rx="2.5" ry="2.5" style="stroke:#000d19;stroke-width:.5"/><circle cx="243.55" cy="1766.415" r="11" fill="#ADD1B2" style="stroke:#181818;stroke-width:1"/><path d="M246.519 1772.055q-.578.297-1.219.438-.64.156-1.344.156-2.5 0-3.828-1.64-1.312-1.657-1.312-4.782t1.312-4.781q1.328-1.656 3.828-1.656.703 0 1.344.156.656.156 1.219.453v2.719q-.625-.578-1.219-.844-.594-.281-1.219-.281-1.343 0-2.031 1.078-.687 1.062-.687 3.156t.687 3.172q.688 1.062 2.031 1.062.625 0 1.219-.265.594-.281 1.219-.86z"/><text x="262.55" y="1772.3" fill="#D9B8FF" font-family="Helvetica" font-size="17" textLength="187">gcp_vertex_ai_context</text><path d="M229.55 1786.309h227" style="stroke:#000d19;stroke-width:.5"/><text x="239.55" y="1808.304" fill="#D9B8FF" font-family="sans-serif" font-size="14" font-weight="bold" textLength="92">create_time</text><text x="331.55" y="1808.304" fill="#D9B8FF" font-family="sans-serif" font-size="14" textLength="70">: datetime</text><text x="239.55" y="1834.601" fill="#D9B8FF" font-family="sans-serif" font-size="14" font-weight="bold" textLength="105">display_name</text><text x="344.55" y="1834.601" fill="#D9B8FF" font-family="sans-serif" font-size="14" textLength="48">: string</text><text x="239.55" y="1860.898" fill="#D9B8FF" font-family="sans-serif" font-size="14" font-weight="bold" textLength="35">etag</text><text x="274.55" y="1860.898" fill="#D9B8FF" font-family="sans-serif" font-size="14" textLength="48">: string</text><text x="239.55" y="1887.195" fill="#D9B8FF" font-family="sans-serif" font-size="14" font-weight="bold" textLength="128">parent_contexts</text><text x="367.55" y="1887.195" fill="#D9B8FF" font-family="sans-serif" font-size="14" textLength="58">: string[]</text><text x="239.55" y="1913.492" fill="#D9B8FF" font-family="sans-serif" font-size="14" font-weight="bold" textLength="98">schema_title</text><text x="337.55" y="1913.492" fill="#D9B8FF" font-family="sans-serif" font-size="14" textLength="48">: string</text><text x="239.55" y="1939.789" fill="#D9B8FF" font-family="sans-serif" font-size="14" font-weight="bold" textLength="127">schema_version</text><text x="366.55" y="1939.789" fill="#D9B8FF" font-family="sans-serif" font-size="14" textLength="48">: string</text><text x="239.55" y="1966.085" fill="#D9B8FF" font-family="sans-serif" font-size="14" font-weight="bold" textLength="96">update_time</text><text x="335.55" y="1966.085" fill="#D9B8FF" font-family="sans-serif" font-size="14" textLength="70">: datetime</text><rect width="248" height="231.867" x="83.05" y="2117.28" fill="#3D176E" rx="2.5" ry="2.5" style="stroke:#000d19;stroke-width:.5"/><circle cx="98.05" cy="2137.175" r="11" fill="#ADD1B2" style="stroke:#181818;stroke-width:1"/><path d="M101.019 2142.815q-.578.297-1.219.438-.64.156-1.344.156-2.5 0-3.828-1.64-1.312-1.657-1.312-4.782t1.312-4.781q1.328-1.657 3.828-1.657.703 0 1.344.157.656.156 1.219.453v2.719q-.625-.579-1.219-.844-.594-.281-1.219-.281-1.344 0-2.031 1.078-.687 1.062-.687 3.156t.687 3.172q.688 1.062 2.031 1.062.625 0 1.219-.265.594-.282 1.219-.86z"/><text x="117.05" y="2143.06" fill="#D9B8FF" font-family="Helvetica" font-size="17" textLength="206">gcp_vertex_ai_execution</text><path d="M84.05 2157.069h246" style="stroke:#000d19;stroke-width:.5"/><text x="94.05" y="2179.064" fill="#D9B8FF" font-family="sans-serif" font-size="14" font-weight="bold" textLength="92">create_time</text><text x="186.05" y="2179.064" fill="#D9B8FF" font-family="sans-serif" font-size="14" textLength="70">: datetime</text><text x="94.05" y="2205.361" fill="#D9B8FF" font-family="sans-serif" font-size="14" font-weight="bold" textLength="105">display_name</text><text x="199.05" y="2205.361" fill="#D9B8FF" font-family="sans-serif" font-size="14" textLength="48">: string</text><text x="94.05" y="2231.658" fill="#D9B8FF" font-family="sans-serif" font-size="14" font-weight="bold" textLength="35">etag</text><text x="129.05" y="2231.658" fill="#D9B8FF" font-family="sans-serif" font-size="14" textLength="48">: string</text><text x="94.05" y="2257.955" fill="#D9B8FF" font-family="sans-serif" font-size="14" font-weight="bold" textLength="98">schema_title</text><text x="192.05" y="2257.955" fill="#D9B8FF" font-family="sans-serif" font-size="14" textLength="48">: string</text><text x="94.05" y="2284.252" fill="#D9B8FF" font-family="sans-serif" font-size="14" font-weight="bold" textLength="127">schema_version</text><text x="221.05" y="2284.252" fill="#D9B8FF" font-family="sans-serif" font-size="14" textLength="48">: string</text><text x="94.05" y="2310.549" fill="#D9B8FF" font-family="sans-serif" font-size="14" font-weight="bold" textLength="40">state</text><text x="134.05" y="2310.549" fill="#D9B8FF" font-family="sans-serif" font-size="14" textLength="48">: string</text><text x="94.05" y="2336.845" fill="#D9B8FF" font-family="sans-serif" font-size="14" font-weight="bold" textLength="96">update_time</text><text x="190.05" y="2336.845" fill="#D9B8FF" font-family="sans-serif" font-size="14" textLength="70">: datetime</text><rect width="439" height="494.836" x="780.55" y="873.52" fill="#3D176E" rx="2.5" ry="2.5" style="stroke:#000d19;stroke-width:.5"/><circle cx="878.8" cy="893.414" r="11" fill="#ADD1B2" style="stroke:#181818;stroke-width:1"/><path d="M881.769 899.055q-.578.297-1.219.438-.64.156-1.344.156-2.5 0-3.828-1.64-1.312-1.657-1.312-4.782t1.312-4.781q1.328-1.657 3.828-1.657.703 0 1.344.157.656.156 1.219.453v2.719q-.625-.579-1.219-.844-.594-.281-1.219-.281-1.344 0-2.031 1.078-.687 1.062-.687 3.156t.687 3.172q.688 1.062 2.031 1.062.625 0 1.219-.265.594-.282 1.219-.86z"/><text x="904.3" y="899.3" fill="#D9B8FF" font-family="Helvetica" font-size="17" textLength="224">gcp_vertex_ai_pipeline_job</text><path d="M781.55 913.309h437" style="stroke:#000d19;stroke-width:.5"/><text x="791.55" y="935.304" fill="#D9B8FF" font-family="sans-serif" font-size="14" font-weight="bold" textLength="92">create_time</text><text x="883.55" y="935.304" fill="#D9B8FF" font-family="sans-serif" font-size="14" textLength="70">: datetime</text><text x="791.55" y="961.601" fill="#D9B8FF" font-family="sans-serif" font-size="14" font-weight="bold" textLength="105">display_name</text><text x="896.55" y="961.601" fill="#D9B8FF" font-family="sans-serif" font-size="14" textLength="48">: string</text><text x="791.55" y="987.898" fill="#D9B8FF" font-family="sans-serif" font-size="14" font-weight="bold" textLength="130">encryption_spec</text><text x="921.55" y="987.898" fill="#D9B8FF" font-family="sans-serif" font-size="14" textLength="48">: string</text><text x="791.55" y="1014.195" fill="#D9B8FF" font-family="sans-serif" font-size="14" font-weight="bold" textLength="71">end_time</text><text x="862.55" y="1014.195" fill="#D9B8FF" font-family="sans-serif" font-size="14" textLength="70">: datetime</text><text x="791.55" y="1040.492" fill="#D9B8FF" font-family="sans-serif" font-size="14" font-weight="bold" textLength="74">job_detail</text><text x="865.55" y="1040.492" fill="#D9B8FF" font-family="sans-serif" font-size="14" textLength="235">: gcp_vertex_ai_pipeline_job_detail</text><text x="791.55" y="1066.789" fill="#D9B8FF" font-family="sans-serif" font-size="14" font-weight="bold" textLength="66">network</text><text x="857.55" y="1066.789" fill="#D9B8FF" font-family="sans-serif" font-size="14" textLength="48">: string</text><text x="791.55" y="1093.085" fill="#D9B8FF" font-family="sans-serif" font-size="14" font-weight="bold" textLength="107">pipeline_spec</text><text x="898.55" y="1093.085" fill="#D9B8FF" font-family="sans-serif" font-size="14" textLength="130">: gcp_pipelinespec</text><text x="791.55" y="1119.382" fill="#D9B8FF" font-family="sans-serif" font-size="14" font-weight="bold" textLength="158">preflight_validations</text><text x="949.55" y="1119.382" fill="#D9B8FF" font-family="sans-serif" font-size="14" textLength="65">: boolean</text><text x="791.55" y="1145.679" fill="#D9B8FF" font-family="sans-serif" font-size="14" font-weight="bold" textLength="155">reserved_ip_ranges</text><text x="946.55" y="1145.679" fill="#D9B8FF" font-family="sans-serif" font-size="14" textLength="58">: string[]</text><text x="791.55" y="1171.976" fill="#D9B8FF" font-family="sans-serif" font-size="14" font-weight="bold" textLength="74">rpc_error</text><text x="865.55" y="1171.976" fill="#D9B8FF" font-family="sans-serif" font-size="14" textLength="169">: gcp_google_rpc_status</text><text x="791.55" y="1198.273" fill="#D9B8FF" font-family="sans-serif" font-size="14" font-weight="bold" textLength="117">runtime_config</text><text x="908.55" y="1198.273" fill="#D9B8FF" font-family="sans-serif" font-size="14" textLength="300">: gcp_vertex_ai_pipeline_job_runtime_config</text><text x="791.55" y="1224.57" fill="#D9B8FF" font-family="sans-serif" font-size="14" font-weight="bold" textLength="122">schedule_name</text><text x="913.55" y="1224.57" fill="#D9B8FF" font-family="sans-serif" font-size="14" textLength="48">: string</text><text x="791.55" y="1250.867" fill="#D9B8FF" font-family="sans-serif" font-size="14" font-weight="bold" textLength="128">service_account</text><text x="919.55" y="1250.867" fill="#D9B8FF" font-family="sans-serif" font-size="14" textLength="48">: string</text><text x="791.55" y="1277.164" fill="#D9B8FF" font-family="sans-serif" font-size="14" font-weight="bold" textLength="78">start_time</text><text x="869.55" y="1277.164" fill="#D9B8FF" font-family="sans-serif" font-size="14" textLength="70">: datetime</text><text x="791.55" y="1303.46" fill="#D9B8FF" font-family="sans-serif" font-size="14" font-weight="bold" textLength="149">template_metadata</text><text x="940.55" y="1303.46" fill="#D9B8FF" font-family="sans-serif" font-size="14" textLength="48">: string</text><text x="791.55" y="1329.757" fill="#D9B8FF" font-family="sans-serif" font-size="14" font-weight="bold" textLength="97">template_uri</text><text x="888.55" y="1329.757" fill="#D9B8FF" font-family="sans-serif" font-size="14" textLength="48">: string</text><text x="791.55" y="1356.054" fill="#D9B8FF" font-family="sans-serif" font-size="14" font-weight="bold" textLength="96">update_time</text><text x="887.55" y="1356.054" fill="#D9B8FF" font-family="sans-serif" font-size="14" textLength="70">: datetime</text><rect width="367" height="126.68" x="544.55" y="1454.65" fill="#3D176E" rx="2.5" ry="2.5" style="stroke:#000d19;stroke-width:.5"/><circle cx="579.8" cy="1474.544" r="11" fill="#ADD1B2" style="stroke:#181818;stroke-width:1"/><path d="M582.769 1480.185q-.578.297-1.219.438-.64.156-1.344.156-2.5 0-3.828-1.64-1.312-1.657-1.312-4.782t1.312-4.781q1.328-1.657 3.828-1.657.703 0 1.344.157.656.156 1.219.453v2.719q-.625-.579-1.219-.844-.594-.281-1.219-.281-1.344 0-2.031 1.078-.687 1.062-.687 3.156t.687 3.172q.688 1.062 2.031 1.062.625 0 1.219-.265.594-.282 1.219-.86z"/><text x="603.3" y="1480.43" fill="#D9B8FF" font-family="Helvetica" font-size="17" textLength="280">gcp_vertex_ai_pipeline_job_detail</text><path d="M545.55 1494.439h365" style="stroke:#000d19;stroke-width:.5"/><text x="555.55" y="1516.434" fill="#D9B8FF" font-family="sans-serif" font-size="14" font-weight="bold" textLength="129">pipeline_context</text><text x="684.55" y="1516.434" fill="#D9B8FF" font-family="sans-serif" font-size="14" textLength="161">: gcp_vertex_ai_context</text><text x="555.55" y="1542.731" fill="#D9B8FF" font-family="sans-serif" font-size="14" font-weight="bold" textLength="163">pipeline_run_context</text><text x="718.55" y="1542.731" fill="#D9B8FF" font-family="sans-serif" font-size="14" textLength="161">: gcp_vertex_ai_context</text><text x="555.55" y="1569.028" fill="#D9B8FF" font-family="sans-serif" font-size="14" font-weight="bold" textLength="92">task_details</text><text x="647.55" y="1569.028" fill="#D9B8FF" font-family="sans-serif" font-size="14" textLength="253">: gcp_vertex_ai_pipeline_task_detail[]</text><rect width="652" height="179.273" x="947.05" y="1428.36" fill="#3D176E" rx="2.5" ry="2.5" style="stroke:#000d19;stroke-width:.5"/><circle cx="1083.8" cy="1448.255" r="11" fill="#ADD1B2" style="stroke:#181818;stroke-width:1"/><path d="M1086.769 1453.895q-.578.297-1.219.438-.64.156-1.344.156-2.5 0-3.828-1.64-1.312-1.657-1.312-4.782t1.312-4.781q1.328-1.657 3.828-1.657.703 0 1.344.157.656.156 1.219.453v2.719q-.625-.579-1.219-.844-.594-.281-1.219-.281-1.343 0-2.031 1.078-.687 1.062-.687 3.156t.687 3.172q.688 1.062 2.031 1.062.625 0 1.219-.265.594-.282 1.219-.86z"/><text x="1109.3" y="1454.14" fill="#D9B8FF" font-family="Helvetica" font-size="17" textLength="360">gcp_vertex_ai_pipeline_job_runtime_config</text><path d="M948.05 1468.149h650" style="stroke:#000d19;stroke-width:.5"/><text x="958.05" y="1490.144" fill="#D9B8FF" font-family="sans-serif" font-size="14" font-weight="bold" textLength="103">failure_policy</text><text x="1061.05" y="1490.144" fill="#D9B8FF" font-family="sans-serif" font-size="14" textLength="48">: string</text><text x="958.05" y="1516.441" fill="#D9B8FF" font-family="sans-serif" font-size="14" font-weight="bold" textLength="166">gcs_output_directory</text><text x="1124.05" y="1516.441" fill="#D9B8FF" font-family="sans-serif" font-size="14" textLength="48">: string</text><text x="958.05" y="1542.738" fill="#D9B8FF" font-family="sans-serif" font-size="14" font-weight="bold" textLength="112">input_artifacts</text><text x="1070.05" y="1542.738" fill="#D9B8FF" font-family="sans-serif" font-size="14" textLength="518">: dictionary[string, gcp_vertex_ai_pipeline_job_runtime_config_input_artifact]</text><text x="958.05" y="1569.035" fill="#D9B8FF" font-family="sans-serif" font-size="14" font-weight="bold" textLength="140">parameter_values</text><text x="1098.05" y="1569.035" fill="#D9B8FF" font-family="sans-serif" font-size="14" textLength="157">: gcp_parametervalues</text><text x="958.05" y="1595.332" fill="#D9B8FF" font-family="sans-serif" font-size="14" font-weight="bold" textLength="91">parameters</text><text x="1049.05" y="1595.332" fill="#D9B8FF" font-family="sans-serif" font-size="14" textLength="268">: dictionary[string, gcp_vertex_ai_value]</text><rect width="524" height="74.086" x="1363.05" y="1825.41" fill="#3D176E" rx="2.5" ry="2.5" style="stroke:#000d19;stroke-width:.5"/><circle cx="1378.05" cy="1845.304" r="11" fill="#ADD1B2" style="stroke:#181818;stroke-width:1"/><path d="M1381.019 1850.945q-.578.297-1.219.438-.64.156-1.344.156-2.5 0-3.828-1.64-1.312-1.657-1.312-4.782t1.312-4.781q1.328-1.657 3.828-1.657.703 0 1.344.157.656.156 1.219.453v2.719q-.625-.579-1.219-.844-.594-.281-1.219-.281-1.343 0-2.031 1.078-.687 1.062-.687 3.156t.687 3.172q.688 1.062 2.031 1.062.625 0 1.219-.265.594-.282 1.219-.86z"/><text x="1397.05" y="1851.19" fill="#D9B8FF" font-family="Helvetica" font-size="17" textLength="482">gcp_vertex_ai_pipeline_job_runtime_config_input_artifact</text><path d="M1364.05 1865.199h522" style="stroke:#000d19;stroke-width:.5"/><text x="1374.05" y="1887.194" fill="#D9B8FF" font-family="sans-serif" font-size="14" font-weight="bold" textLength="77">artifact_id</text><text x="1451.05" y="1887.194" fill="#D9B8FF" font-family="sans-serif" font-size="14" textLength="48">: string</text><rect width="580" height="389.648" x="493.05" y="1667.63" fill="#3D176E" rx="2.5" ry="2.5" style="stroke:#000d19;stroke-width:.5"/><circle cx="628.8" cy="1687.524" r="11" fill="#ADD1B2" style="stroke:#181818;stroke-width:1"/><path d="M631.769 1693.165q-.578.297-1.219.438-.64.156-1.344.156-2.5 0-3.828-1.64-1.312-1.657-1.312-4.782t1.312-4.781q1.328-1.657 3.828-1.657.703 0 1.344.157.656.156 1.219.453v2.719q-.625-.579-1.219-.844-.594-.281-1.219-.281-1.344 0-2.031 1.078-.687 1.062-.687 3.156t.687 3.172q.688 1.062 2.031 1.062.625 0 1.219-.265.594-.282 1.219-.86z"/><text x="654.3" y="1693.41" fill="#D9B8FF" font-family="Helvetica" font-size="17" textLength="290">gcp_vertex_ai_pipeline_task_detail</text><path d="M494.05 1707.419h578" style="stroke:#000d19;stroke-width:.5"/><text x="504.05" y="1729.414" fill="#D9B8FF" font-family="sans-serif" font-size="14" font-weight="bold" textLength="92">create_time</text><text x="596.05" y="1729.414" fill="#D9B8FF" font-family="sans-serif" font-size="14" textLength="70">: datetime</text><text x="504.05" y="1755.711" fill="#D9B8FF" font-family="sans-serif" font-size="14" font-weight="bold" textLength="71">end_time</text><text x="575.05" y="1755.711" fill="#D9B8FF" font-family="sans-serif" font-size="14" textLength="70">: datetime</text><text x="504.05" y="1782.008" fill="#D9B8FF" font-family="sans-serif" font-size="14" font-weight="bold" textLength="78">execution</text><text x="582.05" y="1782.008" fill="#D9B8FF" font-family="sans-serif" font-size="14" textLength="177">: gcp_vertex_ai_execution</text><text x="504.05" y="1808.305" fill="#D9B8FF" font-family="sans-serif" font-size="14" font-weight="bold" textLength="121">executor_detail</text><text x="625.05" y="1808.305" fill="#D9B8FF" font-family="sans-serif" font-size="14" textLength="311">: gcp_vertex_ai_pipeline_task_executor_detail</text><text x="504.05" y="1834.602" fill="#D9B8FF" font-family="sans-serif" font-size="14" font-weight="bold" textLength="49">inputs</text><text x="553.05" y="1834.602" fill="#D9B8FF" font-family="sans-serif" font-size="14" textLength="445">: dictionary[string, gcp_vertex_ai_pipeline_task_detail_artifact_list]</text><text x="504.05" y="1860.899" fill="#D9B8FF" font-family="sans-serif" font-size="14" font-weight="bold" textLength="61">outputs</text><text x="565.05" y="1860.899" fill="#D9B8FF" font-family="sans-serif" font-size="14" textLength="445">: dictionary[string, gcp_vertex_ai_pipeline_task_detail_artifact_list]</text><text x="504.05" y="1887.195" fill="#D9B8FF" font-family="sans-serif" font-size="14" font-weight="bold" textLength="113">parent_task_id</text><text x="617.05" y="1887.195" fill="#D9B8FF" font-family="sans-serif" font-size="14" textLength="48">: string</text><text x="504.05" y="1913.492" fill="#D9B8FF" font-family="sans-serif" font-size="14" font-weight="bold" textLength="158">pipeline_task_status</text><text x="662.05" y="1913.492" fill="#D9B8FF" font-family="sans-serif" font-size="14" textLength="400">: gcp_vertex_ai_pipeline_task_detail_pipeline_task_status[]</text><text x="504.05" y="1939.789" fill="#D9B8FF" font-family="sans-serif" font-size="14" font-weight="bold" textLength="74">rpc_error</text><text x="578.05" y="1939.789" fill="#D9B8FF" font-family="sans-serif" font-size="14" textLength="169">: gcp_google_rpc_status</text><text x="504.05" y="1966.086" fill="#D9B8FF" font-family="sans-serif" font-size="14" font-weight="bold" textLength="78">start_time</text><text x="582.05" y="1966.086" fill="#D9B8FF" font-family="sans-serif" font-size="14" textLength="70">: datetime</text><text x="504.05" y="1992.383" fill="#D9B8FF" font-family="sans-serif" font-size="14" font-weight="bold" textLength="40">state</text><text x="544.05" y="1992.383" fill="#D9B8FF" font-family="sans-serif" font-size="14" textLength="48">: string</text><text x="504.05" y="2018.68" fill="#D9B8FF" font-family="sans-serif" font-size="14" font-weight="bold" textLength="54">task_id</text><text x="558.05" y="2018.68" fill="#D9B8FF" font-family="sans-serif" font-size="14" textLength="48">: string</text><text x="504.05" y="2044.977" fill="#D9B8FF" font-family="sans-serif" font-size="14" font-weight="bold" textLength="83">task_name</text><text x="587.05" y="2044.977" fill="#D9B8FF" font-family="sans-serif" font-size="14" textLength="48">: string</text><rect width="435" height="74.086" x="982.55" y="2196.17" fill="#3D176E" rx="2.5" ry="2.5" style="stroke:#000d19;stroke-width:.5"/><circle cx="997.55" cy="2216.064" r="11" fill="#ADD1B2" style="stroke:#181818;stroke-width:1"/><path d="M1000.519 2221.705q-.578.297-1.219.438-.64.156-1.344.156-2.5 0-3.828-1.64-1.312-1.657-1.312-4.782t1.312-4.781q1.328-1.657 3.828-1.657.703 0 1.344.157.656.156 1.219.453v2.719q-.625-.579-1.219-.844-.594-.281-1.219-.281-1.344 0-2.031 1.078-.687 1.062-.687 3.156t.687 3.172q.688 1.062 2.031 1.062.625 0 1.219-.265.594-.282 1.219-.86z"/><text x="1016.55" y="2221.95" fill="#D9B8FF" font-family="Helvetica" font-size="17" textLength="393">gcp_vertex_ai_pipeline_task_detail_artifact_list</text><path d="M983.55 2235.959h433" style="stroke:#000d19;stroke-width:.5"/><text x="993.55" y="2257.954" fill="#D9B8FF" font-family="sans-serif" font-size="14" font-weight="bold" textLength="65">artifacts</text><text x="1058.55" y="2257.954" fill="#D9B8FF" font-family="sans-serif" font-size="14" textLength="165">: gcp_vertex_ai_artifact[]</text><rect width="511" height="126.68" x="365.55" y="2169.87" fill="#3D176E" rx="2.5" ry="2.5" style="stroke:#000d19;stroke-width:.5"/><circle cx="380.55" cy="2189.765" r="11" fill="#ADD1B2" style="stroke:#181818;stroke-width:1"/><path d="M383.519 2195.405q-.578.297-1.219.438-.64.156-1.344.156-2.5 0-3.828-1.64-1.312-1.657-1.312-4.782t1.312-4.781q1.328-1.656 3.828-1.656.703 0 1.344.156.656.156 1.219.453v2.719q-.625-.578-1.219-.844-.594-.281-1.219-.281-1.344 0-2.031 1.078-.687 1.062-.687 3.156t.687 3.172q.688 1.062 2.031 1.062.625 0 1.219-.265.594-.281 1.219-.86z"/><text x="399.55" y="2195.65" fill="#D9B8FF" font-family="Helvetica" font-size="17" textLength="469">gcp_vertex_ai_pipeline_task_detail_pipeline_task_status</text><path d="M366.55 2209.659h509" style="stroke:#000d19;stroke-width:.5"/><text x="376.55" y="2231.654" fill="#D9B8FF" font-family="sans-serif" font-size="14" font-weight="bold" textLength="74">rpc_error</text><text x="450.55" y="2231.654" fill="#D9B8FF" font-family="sans-serif" font-size="14" textLength="169">: gcp_google_rpc_status</text><text x="376.55" y="2257.951" fill="#D9B8FF" font-family="sans-serif" font-size="14" font-weight="bold" textLength="40">state</text><text x="416.55" y="2257.951" fill="#D9B8FF" font-family="sans-serif" font-size="14" textLength="48">: string</text><text x="376.55" y="2284.248" fill="#D9B8FF" font-family="sans-serif" font-size="14" font-weight="bold" textLength="96">update_time</text><text x="472.55" y="2284.248" fill="#D9B8FF" font-family="sans-serif" font-size="14" textLength="70">: datetime</text><rect width="603" height="100.383" x="1452.55" y="2183.02" fill="#3D176E" rx="2.5" ry="2.5" style="stroke:#000d19;stroke-width:.5"/><circle cx="1558.8" cy="2202.914" r="11" fill="#ADD1B2" style="stroke:#181818;stroke-width:1"/><path d="M1561.769 2208.555q-.578.297-1.219.438-.64.156-1.344.156-2.5 0-3.828-1.64-1.312-1.657-1.312-4.782t1.312-4.781q1.328-1.657 3.828-1.657.703 0 1.344.157.656.156 1.219.453v2.719q-.625-.579-1.219-.844-.594-.281-1.219-.281-1.343 0-2.031 1.078-.687 1.062-.687 3.156t.687 3.172q.688 1.062 2.031 1.062.625 0 1.219-.265.594-.282 1.219-.86z"/><text x="1584.3" y="2208.8" fill="#D9B8FF" font-family="Helvetica" font-size="17" textLength="372">gcp_vertex_ai_pipeline_task_executor_detail</text><path d="M1453.55 2222.809h601" style="stroke:#000d19;stroke-width:.5"/><text x="1463.55" y="2244.804" fill="#D9B8FF" font-family="sans-serif" font-size="14" font-weight="bold" textLength="125">container_detail</text><text x="1588.55" y="2244.804" fill="#D9B8FF" font-family="sans-serif" font-size="14" textLength="427">: gcp_vertex_ai_pipeline_task_executor_detail_container_detail</text><text x="1463.55" y="2271.101" fill="#D9B8FF" font-family="sans-serif" font-size="14" font-weight="bold" textLength="139">custom_job_detail</text><text x="1602.55" y="2271.101" fill="#D9B8FF" font-family="sans-serif" font-size="14" textLength="442">: gcp_vertex_ai_pipeline_task_executor_detail_custom_job_detail</text><rect width="558" height="152.977" x="1411.05" y="2461.74" fill="#3D176E" rx="2.5" ry="2.5" style="stroke:#000d19;stroke-width:.5"/><circle cx="1426.05" cy="2481.635" r="11" fill="#ADD1B2" style="stroke:#181818;stroke-width:1"/><path d="M1429.019 2487.275q-.578.297-1.219.438-.64.156-1.344.156-2.5 0-3.828-1.64-1.312-1.657-1.312-4.782t1.312-4.781q1.328-1.657 3.828-1.657.703 0 1.344.157.656.156 1.219.453v2.719q-.625-.579-1.219-.844-.594-.281-1.219-.281-1.343 0-2.031 1.078-.687 1.062-.687 3.156t.687 3.172q.688 1.062 2.031 1.062.625 0 1.219-.265.594-.282 1.219-.86z"/><text x="1445.05" y="2487.52" fill="#D9B8FF" font-family="Helvetica" font-size="17" textLength="516">gcp_vertex_ai_pipeline_task_executor_detail_container_detail</text><path d="M1412.05 2501.529h556" style="stroke:#000d19;stroke-width:.5"/><text x="1422.05" y="2523.524" fill="#D9B8FF" font-family="sans-serif" font-size="14" font-weight="bold" textLength="127">failed_main_jobs</text><text x="1549.05" y="2523.524" fill="#D9B8FF" font-family="sans-serif" font-size="14" textLength="58">: string[]</text><text x="1422.05" y="2549.821" fill="#D9B8FF" font-family="sans-serif" font-size="14" font-weight="bold" textLength="239">failed_pre_caching_check_jobs</text><text x="1661.05" y="2549.821" fill="#D9B8FF" font-family="sans-serif" font-size="14" textLength="58">: string[]</text><text x="1422.05" y="2576.118" fill="#D9B8FF" font-family="sans-serif" font-size="14" font-weight="bold" textLength="68">main_job</text><text x="1490.05" y="2576.118" fill="#D9B8FF" font-family="sans-serif" font-size="14" textLength="48">: string</text><text x="1422.05" y="2602.415" fill="#D9B8FF" font-family="sans-serif" font-size="14" font-weight="bold" textLength="180">pre_caching_check_job</text><text x="1602.05" y="2602.415" fill="#D9B8FF" font-family="sans-serif" font-size="14" textLength="48">: string</text><rect width="574" height="100.383" x="2004.05" y="2488.04" fill="#3D176E" rx="2.5" ry="2.5" style="stroke:#000d19;stroke-width:.5"/><circle cx="2019.05" cy="2507.934" r="11" fill="#ADD1B2" style="stroke:#181818;stroke-width:1"/><path d="M2022.019 2513.575q-.578.297-1.219.438-.64.156-1.344.156-2.5 0-3.828-1.64-1.312-1.657-1.312-4.782t1.312-4.781q1.328-1.657 3.828-1.657.703 0 1.344.157.656.156 1.219.453v2.719q-.625-.579-1.219-.844-.594-.281-1.219-.281-1.343 0-2.031 1.078-.687 1.062-.687 3.156t.687 3.172q.688 1.062 2.031 1.062.625 0 1.219-.265.594-.282 1.219-.86z"/><text x="2038.05" y="2513.82" fill="#D9B8FF" font-family="Helvetica" font-size="17" textLength="532">gcp_vertex_ai_pipeline_task_executor_detail_custom_job_detail</text><path d="M2005.05 2527.829h572" style="stroke:#000d19;stroke-width:.5"/><text x="2015.05" y="2549.824" fill="#D9B8FF" font-family="sans-serif" font-size="14" font-weight="bold" textLength="83">failed_jobs</text><text x="2098.05" y="2549.824" fill="#D9B8FF" font-family="sans-serif" font-size="14" textLength="58">: string[]</text><text x="2015.05" y="2576.121" fill="#D9B8FF" font-family="sans-serif" font-size="14" font-weight="bold" textLength="24">job</text><text x="2039.05" y="2576.121" fill="#D9B8FF" font-family="sans-serif" font-size="14" textLength="48">: string</text><rect width="212" height="126.68" x="1922.05" y="1799.12" fill="#3D176E" rx="2.5" ry="2.5" style="stroke:#000d19;stroke-width:.5"/><circle cx="1937.05" cy="1819.014" r="11" fill="#ADD1B2" style="stroke:#181818;stroke-width:1"/><path d="M1940.019 1824.655q-.578.297-1.219.438-.64.156-1.344.156-2.5 0-3.828-1.64-1.312-1.657-1.312-4.782t1.312-4.781q1.328-1.657 3.828-1.657.703 0 1.344.157.656.156 1.219.453v2.719q-.625-.579-1.219-.844-.594-.281-1.219-.281-1.343 0-2.031 1.078-.687 1.062-.687 3.156t.687 3.172q.688 1.062 2.031 1.062.625 0 1.219-.265.594-.282 1.219-.86z"/><text x="1956.05" y="1824.9" fill="#D9B8FF" font-family="Helvetica" font-size="17" textLength="170">gcp_vertex_ai_value</text><path d="M1923.05 1838.909h210" style="stroke:#000d19;stroke-width:.5"/><text x="1933.05" y="1860.904" fill="#D9B8FF" font-family="sans-serif" font-size="14" font-weight="bold" textLength="103">double_value</text><text x="2036.05" y="1860.904" fill="#D9B8FF" font-family="sans-serif" font-size="14" textLength="57">: double</text><text x="1933.05" y="1887.201" fill="#D9B8FF" font-family="sans-serif" font-size="14" font-weight="bold" textLength="69">int_value</text><text x="2002.05" y="1887.201" fill="#D9B8FF" font-family="sans-serif" font-size="14" textLength="48">: string</text><text x="1933.05" y="1913.498" fill="#D9B8FF" font-family="sans-serif" font-size="14" font-weight="bold" textLength="95">string_value</text><text x="2028.05" y="1913.498" fill="#D9B8FF" font-family="sans-serif" font-size="14" textLength="48">: string</text><rect width="227" height="310.758" x="1122.55" y="7" fill="#3D176E" rx="2.5" ry="2.5" style="stroke:#000d19;stroke-width:.5"/><circle cx="1191.3" cy="26.895" r="11" fill="#ADD1B2" style="stroke:#181818;stroke-width:1"/><path d="M1194.269 32.535q-.578.297-1.219.438-.64.156-1.344.156-2.5 0-3.828-1.64-1.312-1.657-1.312-4.782t1.312-4.781q1.328-1.656 3.828-1.656.703 0 1.344.156.656.156 1.219.453v2.719q-.625-.578-1.219-.844-.594-.281-1.219-.281-1.343 0-2.031 1.078-.687 1.062-.687 3.156t.687 3.172q.688 1.062 2.031 1.062.625 0 1.219-.265.594-.281 1.219-.86z"/><text x="1216.8" y="32.78" fill="#D9B8FF" font-family="Helvetica" font-size="17" textLength="71">resource</text><path d="M1123.55 46.789h225" style="stroke:#000d19;stroke-width:.5"/><text x="1133.55" y="68.784" fill="#D9B8FF" font-family="sans-serif" font-size="14" font-weight="bold" textLength="29">age</text><text x="1162.55" y="68.784" fill="#D9B8FF" font-family="sans-serif" font-size="14" textLength="66">: duration</text><text x="1133.55" y="95.081" fill="#D9B8FF" font-family="sans-serif" font-size="14" font-weight="bold" textLength="43">atime</text><text x="1176.55" y="95.081" fill="#D9B8FF" font-family="sans-serif" font-size="14" textLength="70">: datetime</text><text x="1133.55" y="121.378" fill="#D9B8FF" font-family="sans-serif" font-size="14" font-weight="bold" textLength="43">ctime</text><text x="1176.55" y="121.378" fill="#D9B8FF" font-family="sans-serif" font-size="14" textLength="70">: datetime</text><text x="1133.55" y="147.675" fill="#D9B8FF" font-family="sans-serif" font-size="14" font-weight="bold" textLength="14">id</text><text x="1147.55" y="147.675" fill="#D9B8FF" font-family="sans-serif" font-size="14" textLength="48">: string</text><text x="1133.55" y="173.972" fill="#D9B8FF" font-family="sans-serif" font-size="14" font-weight="bold" textLength="33">kind</text><text x="1166.55" y="173.972" fill="#D9B8FF" font-family="sans-serif" font-size="14" textLength="48">: string</text><text x="1133.55" y="200.269" fill="#D9B8FF" font-family="sans-serif" font-size="14" font-weight="bold" textLength="90">last_access</text><text x="1223.55" y="200.269" fill="#D9B8FF" font-family="sans-serif" font-size="14" textLength="66">: duration</text><text x="1133.55" y="226.565" fill="#D9B8FF" font-family="sans-serif" font-size="14" font-weight="bold" textLength="90">last_update</text><text x="1223.55" y="226.565" fill="#D9B8FF" font-family="sans-serif" font-size="14" textLength="66">: duration</text><text x="1133.55" y="252.862" fill="#D9B8FF" font-family="sans-serif" font-size="14" font-weight="bold" textLength="48">mtime</text><text x="1181.55" y="252.862" fill="#D9B8FF" font-family="sans-serif" font-size="14" textLength="70">: datetime</text><text x="1133.55" y="279.159" fill="#D9B8FF" font-family="sans-serif" font-size="14" font-weight="bold" textLength="43">name</text><text x="1176.55" y="279.159" fill="#D9B8FF" font-family="sans-serif" font-size="14" textLength="48">: string</text><text x="1133.55" y="305.456" fill="#D9B8FF" font-family="sans-serif" font-size="14" font-weight="bold" textLength="34">tags</text><text x="1167.55" y="305.456" fill="#D9B8FF" font-family="sans-serif" font-size="14" textLength="171">: dictionary[string, string]</text><path fill="none" d="M1126.454 493.532c-24.95 35.83-68.844 98.858-100.994 145.018m111.28-159.79-15.21 11.343 9.848 6.857zm49.122-143.642c-14.11 48.29-22.872 78.242-30.262 103.552m35.31-120.83-10.808 15.595 11.519 3.365zM621.05 2601.89v119.04" style="stroke:#ffaf37;stroke-width:2"/><path fill="#FFAF37" d="m621.05 2726.93 4-9-4 4-4-4z" style="stroke:#ffaf37;stroke-width:2"/><path fill="none" d="M1360.87 752.68c79.66 155.26 258.53 503.852 343.72 669.882" style="stroke:#ffaf37;stroke-width:2"/><path fill="#FFAF37" d="m1707.33 1427.9-.55-9.834-1.733 5.385-5.385-1.732z" style="stroke:#ffaf37;stroke-width:2"/><g fill="none"><path d="M1265.014 335.681c15.65 93.11 31.896 189.819 44.306 263.649" style="stroke:#ffaf37;stroke-width:2"/><path d="m1262.03 317.93-2.933 18.745 11.834-1.988z" style="stroke:#ffaf37;stroke-width:2"/></g><path fill="none" d="M1000.05 731.28v141.96m0-159.96-6 18h12zm219.92 570.3c49.6 31.4 103.25 61.69 156.08 84.78 101.14 44.21 139.8 15.92 241 60 5.68 2.47 6.047 2.47 11.737 5.35" style="stroke:#ffaf37;stroke-width:2"/><path fill="#FFAF37" d="m1634.14 1436.42-6.224-7.633 1.763 5.375-5.375 1.763z" style="stroke:#ffaf37;stroke-width:2"/><path fill="none" d="M780.37 1173.67c-149.22 45.13-341.88 124.34-469.32 254.69-82.64 84.53-233.84 617.97-245 688.92-16.01 101.8-60.05 148.12 0 231.87 100.11 139.62 303.665 176.46 434.705 185.65" style="stroke:#ffaf37;stroke-width:2"/><path fill="#FFAF37" d="m506.74 2535.22-8.698-4.62 3.71 4.27-4.27 3.71z" style="stroke:#ffaf37;stroke-width:2"/><path fill="none" d="M780.26 1257.08c-80.95 51.64-172.53 112.32-253.21 171.28-30.95 22.61-60.288 47.15-81.698 65.63" style="stroke:#ffaf37;stroke-width:2"/><path fill="#FFAF37" d="m440.81 1497.91 9.427-2.853-5.642-.414.414-5.642z" style="stroke:#ffaf37;stroke-width:2"/><path fill="none" d="M1256.295 767.479c-24.8 34.11-45.035 61.941-76.825 105.661m87.41-120.22-15.438 11.03 9.706 7.057zm-436.77 615.85c-21.7 31.5-38.758 56.277-55.578 80.717" style="stroke:#ffaf37;stroke-width:2"/><path fill="#FFAF37" d="m771.13 1454.43 8.397-5.146-5.562 1.027-1.028-5.563z" style="stroke:#ffaf37;stroke-width:2"/><path fill="none" d="M1170.62 1368.77c14.44 20.9 24.93 36.073 37.58 54.383" style="stroke:#ffaf37;stroke-width:2"/><path fill="#FFAF37" d="m1211.61 1428.09-1.825-9.678-1.017 5.564-5.565-1.017z" style="stroke:#ffaf37;stroke-width:2"/><path fill="none" d="M596.3 1581.82c-41.49 23.45-85.72 52.58-121.25 85.81-24.38 22.81-43.285 45.95-62.335 73.59" style="stroke:#ffaf37;stroke-width:2"/><path fill="#FFAF37" d="m409.31 1746.16 8.4-5.14-5.563 1.023-1.023-5.563z" style="stroke:#ffaf37;stroke-width:2"/><path fill="none" d="M738.14 1581.81c3.97 24.71 7.81 48.626 12.76 79.476" style="stroke:#ffaf37;stroke-width:2"/><path fill="#FFAF37" d="m751.85 1667.21 2.524-9.52-3.316 4.583-4.583-3.316z" style="stroke:#ffaf37;stroke-width:2"/><path fill="none" d="M1258.74 1608.08c-12.76 79.47-29.538 183.956-36.628 228.096" style="stroke:#ffaf37;stroke-width:2"/><path fill="#FFAF37" d="m1221.16 1842.1 5.377-8.252-4.584 3.315-3.315-4.583z" style="stroke:#ffaf37;stroke-width:2"/><path fill="none" d="M1364.61 1608.08c72.73 70.75 166.35 161.836 218.98 213.036" style="stroke:#ffaf37;stroke-width:2"/><path fill="#FFAF37" d="m1587.89 1825.3-3.662-9.143.078 5.657-5.656.077z" style="stroke:#ffaf37;stroke-width:2"/><path fill="none" d="M1599.33 1603.47c5.95 1.41 11.86 2.8 17.72 4.16 127.34 29.65 180.49-14.4 288 60 46.37 32.09 76.56 82.466 96.52 125.996" style="stroke:#ffaf37;stroke-width:2"/><path fill="#FFAF37" d="m2004.07 1799.08-.115-9.848-1.969 5.303-5.303-1.969z" style="stroke:#ffaf37;stroke-width:2"/><path fill="none" d="M887.09 2057.7c34.81 92.24 54.13 201.67 6.96 291.45-33.6 63.94-94.542 107.611-153.372 138.351" style="stroke:#ffaf37;stroke-width:2"/><path fill="#FFAF37" d="m735.36 2490.28 9.83-.623-5.399-1.693 1.693-5.397z" style="stroke:#ffaf37;stroke-width:2"/><path fill="none" d="M492.61 2047.53c-5.89 3.31-11.74 6.56-17.56 9.75-54.74 30.01-74.2 26.7-127 60-5.61 3.54-6.308 3.867-11.928 7.737" style="stroke:#ffaf37;stroke-width:2"/><path fill="#FFAF37" d="m331.18 2128.42 9.681-1.81-5.563-1.026 1.026-5.563z" style="stroke:#ffaf37;stroke-width:2"/><path fill="none" d="M1002.54 2057.55c60.04 53.1 114.365 101.146 151.985 134.406" style="stroke:#ffaf37;stroke-width:2"/><path fill="#FFAF37" d="m1159.02 2195.93-4.093-8.958.347 5.646-5.646.347z" style="stroke:#ffaf37;stroke-width:2"/><path fill="none" d="M697.78 2057.55c-17.84 40.61-32.986 75.087-46.796 106.517" style="stroke:#ffaf37;stroke-width:2"/><path fill="#FFAF37" d="m648.57 2169.56 7.282-6.63-5.27 2.052-2.054-5.27z" style="stroke:#ffaf37;stroke-width:2"/><path fill="none" d="M1073.27 2050.51c5.6 2.36 11.19 4.62 16.78 6.77 145.23 55.94 194.56 20.14 345 60 66.15 17.53 132.394 40.702 191.134 63.102" style="stroke:#ffaf37;stroke-width:2"/><path fill="#FFAF37" d="m1631.79 2182.52-6.984-6.944 2.312 5.162-5.163 2.313z" style="stroke:#ffaf37;stroke-width:2"/><path fill="none" d="M1200.05 2270.46v132.47" style="stroke:#ffaf37;stroke-width:2"/><path fill="#FFAF37" d="m1200.05 2408.93 4-9-4 4-4-4z" style="stroke:#ffaf37;stroke-width:2"/><path fill="none" d="M621.05 2297v171.52" style="stroke:#ffaf37;stroke-width:2"/><path fill="#FFAF37" d="m621.05 2474.52 4-9-4 4-4-4z" style="stroke:#ffaf37;stroke-width:2"/><path fill="none" d="M1743.62 2283.57c-10.18 48.22-24.58 116.39-36.34 172.06" style="stroke:#ffaf37;stroke-width:2"/><path fill="#FFAF37" d="m1706.04 2461.5 5.774-7.979-4.74 3.087-3.088-4.74z" style="stroke:#ffaf37;stroke-width:2"/><path fill="none" d="M1841.82 2283.74c99.77 56.3 256.455 144.711 356.225 201.011" style="stroke:#ffaf37;stroke-width:2"/><path fill="#FFAF37" d="m2203.27 2487.7-5.872-7.907 1.517 5.45-5.449 1.518z" style="stroke:#ffaf37;stroke-width:2"/></svg>