<svg xmlns="http://www.w3.org/2000/svg" width="665" height="1603" viewBox="0 0 665 1603"><rect width="327" height="100.383" x="7" y="1217.33" fill="#3D176E" rx="2.5" ry="2.5" style="stroke:#000d19;stroke-width:.5"/><circle cx="22" cy="1237.225" r="11" fill="#ADD1B2" style="stroke:#181818;stroke-width:1"/><path d="M24.969 1242.865q-.578.297-1.219.438-.64.156-1.344.156-2.5 0-3.828-1.64-1.312-1.657-1.312-4.782t1.312-4.781q1.328-1.657 3.828-1.657.703 0 1.344.157.656.156 1.219.453v2.719q-.625-.579-1.219-.844-.594-.281-1.219-.281-1.343 0-2.031 1.078-.687 1.062-.687 3.156t.687 3.172q.688 1.062 2.031 1.062.625 0 1.219-.265.594-.282 1.219-.86z"/><text x="41" y="1243.11" fill="#D9B8FF" font-family="Helvetica" font-size="17" textLength="285">azure_availability_zone_mappings</text><path d="M8 1257.119h325" style="stroke:#000d19;stroke-width:.5"/><text x="18" y="1279.114" fill="#D9B8FF" font-family="sans-serif" font-size="14" font-weight="bold" textLength="96">logical_zone</text><text x="114" y="1279.114" fill="#D9B8FF" font-family="sans-serif" font-size="14" textLength="48">: string</text><text x="18" y="1305.411" fill="#D9B8FF" font-family="sans-serif" font-size="14" font-weight="bold" textLength="110">physical_zone</text><text x="128" y="1305.411" fill="#D9B8FF" font-family="sans-serif" font-size="14" textLength="48">: string</text><rect width="481" height="179.273" x="101" y="886.02" fill="#3D176E" rx="2.5" ry="2.5" style="stroke:#000d19;stroke-width:.5"/><circle cx="271.75" cy="905.914" r="11" fill="#ADD1B2" style="stroke:#181818;stroke-width:1"/><path d="M274.719 911.555q-.578.297-1.219.438-.64.156-1.344.156-2.5 0-3.828-1.64-1.312-1.657-1.312-4.782t1.312-4.781q1.328-1.657 3.828-1.657.703 0 1.344.157.656.156 1.219.453v2.719q-.625-.579-1.219-.844-.594-.281-1.219-.281-1.344 0-2.031 1.078-.687 1.062-.687 3.156t.687 3.172q.688 1.062 2.031 1.062.625 0 1.219-.265.594-.282 1.219-.86z"/><text x="297.25" y="911.8" fill="#D9B8FF" font-family="Helvetica" font-size="17" textLength="121">azure_location</text><path d="M102 925.809h479" style="stroke:#000d19;stroke-width:.5"/><text x="112" y="947.804" fill="#D9B8FF" font-family="sans-serif" font-size="14" font-weight="bold" textLength="210">availability_zone_mappings</text><text x="322" y="947.804" fill="#D9B8FF" font-family="sans-serif" font-size="14" textLength="249">: azure_availability_zone_mappings[]</text><text x="112" y="974.101" fill="#D9B8FF" font-family="sans-serif" font-size="14" font-weight="bold" textLength="105">display_name</text><text x="217" y="974.101" fill="#D9B8FF" font-family="sans-serif" font-size="14" textLength="48">: string</text><text x="112" y="1000.398" fill="#D9B8FF" font-family="sans-serif" font-size="14" font-weight="bold" textLength="142">location_metadata</text><text x="254" y="1000.398" fill="#D9B8FF" font-family="sans-serif" font-size="14" textLength="181">: azure_location_metadata</text><text x="112" y="1026.695" fill="#D9B8FF" font-family="sans-serif" font-size="14" font-weight="bold" textLength="176">regional_display_name</text><text x="288" y="1026.695" fill="#D9B8FF" font-family="sans-serif" font-size="14" textLength="48">: string</text><text x="112" y="1052.992" fill="#D9B8FF" font-family="sans-serif" font-size="14" font-weight="bold" textLength="119">subscription_id</text><text x="231" y="1052.992" fill="#D9B8FF" font-family="sans-serif" font-size="14" textLength="48">: string</text><rect width="289" height="284.461" x="369" y="1125.29" fill="#3D176E" rx="2.5" ry="2.5" style="stroke:#000d19;stroke-width:.5"/><circle cx="400.2" cy="1145.185" r="11" fill="#ADD1B2" style="stroke:#181818;stroke-width:1"/><path d="M403.169 1150.825q-.578.297-1.219.438-.64.156-1.344.156-2.5 0-3.828-1.64-1.312-1.657-1.312-4.782t1.312-4.781q1.328-1.656 3.828-1.656.703 0 1.344.156.656.156 1.219.453v2.719q-.625-.578-1.219-.844-.594-.281-1.219-.281-1.344 0-2.031 1.078-.687 1.062-.687 3.156t.687 3.172q.688 1.062 2.031 1.062.625 0 1.219-.265.594-.281 1.219-.86z"/><text x="422.8" y="1151.07" fill="#D9B8FF" font-family="Helvetica" font-size="17" textLength="211">azure_location_metadata</text><path d="M370 1165.079h287" style="stroke:#000d19;stroke-width:.5"/><text x="380" y="1187.074" fill="#D9B8FF" font-family="sans-serif" font-size="14" font-weight="bold" textLength="85">geography</text><text x="465" y="1187.074" fill="#D9B8FF" font-family="sans-serif" font-size="14" textLength="48">: string</text><text x="380" y="1213.371" fill="#D9B8FF" font-family="sans-serif" font-size="14" font-weight="bold" textLength="139">geography_group</text><text x="519" y="1213.371" fill="#D9B8FF" font-family="sans-serif" font-size="14" textLength="48">: string</text><text x="380" y="1239.668" fill="#D9B8FF" font-family="sans-serif" font-size="14" font-weight="bold" textLength="113">home_location</text><text x="493" y="1239.668" fill="#D9B8FF" font-family="sans-serif" font-size="14" textLength="48">: string</text><text x="380" y="1265.965" fill="#D9B8FF" font-family="sans-serif" font-size="14" font-weight="bold" textLength="59">latitude</text><text x="439" y="1265.965" fill="#D9B8FF" font-family="sans-serif" font-size="14" textLength="48">: string</text><text x="380" y="1292.262" fill="#D9B8FF" font-family="sans-serif" font-size="14" font-weight="bold" textLength="74">longitude</text><text x="454" y="1292.262" fill="#D9B8FF" font-family="sans-serif" font-size="14" textLength="48">: string</text><text x="380" y="1318.559" fill="#D9B8FF" font-family="sans-serif" font-size="14" font-weight="bold" textLength="108">paired_region</text><text x="488" y="1318.559" fill="#D9B8FF" font-family="sans-serif" font-size="14" textLength="159">: azure_paired_region[]</text><text x="380" y="1344.855" fill="#D9B8FF" font-family="sans-serif" font-size="14" font-weight="bold" textLength="133">physical_location</text><text x="513" y="1344.855" fill="#D9B8FF" font-family="sans-serif" font-size="14" textLength="48">: string</text><text x="380" y="1371.152" fill="#D9B8FF" font-family="sans-serif" font-size="14" font-weight="bold" textLength="128">region_category</text><text x="508" y="1371.152" fill="#D9B8FF" font-family="sans-serif" font-size="14" textLength="48">: string</text><text x="380" y="1397.449" fill="#D9B8FF" font-family="sans-serif" font-size="14" font-weight="bold" textLength="93">region_type</text><text x="473" y="1397.449" fill="#D9B8FF" font-family="sans-serif" font-size="14" textLength="48">: string</text><rect width="211" height="126.68" x="408" y="1469.75" fill="#3D176E" rx="2.5" ry="2.5" style="stroke:#000d19;stroke-width:.5"/><circle cx="423" cy="1489.645" r="11" fill="#ADD1B2" style="stroke:#181818;stroke-width:1"/><path d="M425.969 1495.285q-.578.297-1.219.438-.64.156-1.344.156-2.5 0-3.828-1.64-1.312-1.657-1.312-4.782t1.312-4.781q1.328-1.656 3.828-1.656.703 0 1.344.156.656.156 1.219.453v2.719q-.625-.578-1.219-.844-.594-.281-1.219-.281-1.344 0-2.031 1.078-.687 1.062-.687 3.156t.687 3.172q.688 1.062 2.031 1.062.625 0 1.219-.265.594-.281 1.219-.86z"/><text x="442" y="1495.53" fill="#D9B8FF" font-family="Helvetica" font-size="17" textLength="169">azure_paired_region</text><path d="M409 1509.539h209" style="stroke:#000d19;stroke-width:.5"/><text x="419" y="1531.534" fill="#D9B8FF" font-family="sans-serif" font-size="14" font-weight="bold" textLength="14">id</text><text x="433" y="1531.534" fill="#D9B8FF" font-family="sans-serif" font-size="14" textLength="48">: string</text><text x="419" y="1557.831" fill="#D9B8FF" font-family="sans-serif" font-size="14" font-weight="bold" textLength="43">name</text><text x="462" y="1557.831" fill="#D9B8FF" font-family="sans-serif" font-size="14" textLength="48">: string</text><text x="419" y="1584.128" fill="#D9B8FF" font-family="sans-serif" font-size="14" font-weight="bold" textLength="119">subscription_id</text><text x="538" y="1584.128" fill="#D9B8FF" font-family="sans-serif" font-size="14" textLength="48">: string</text><rect width="200" height="39.789" x="195.5" y="538.55" fill="#3D176E" rx="2.5" ry="2.5" style="stroke:#000d19;stroke-width:.5"/><circle cx="210.5" cy="558.444" r="11" fill="#ADD1B2" style="stroke:#181818;stroke-width:1"/><path d="M213.469 564.085q-.578.297-1.219.438-.64.156-1.344.156-2.5 0-3.828-1.64-1.312-1.657-1.312-4.782t1.312-4.781q1.328-1.657 3.828-1.657.703 0 1.344.157.656.156 1.219.453v2.719q-.625-.579-1.219-.844-.594-.281-1.219-.281-1.344 0-2.031 1.078-.687 1.062-.687 3.156t.687 3.172q.688 1.062 2.031 1.062.625 0 1.219-.265.594-.282 1.219-.86z"/><text x="229.5" y="564.33" fill="#D9B8FF" font-family="Helvetica" font-size="17" textLength="158">microsoft_resource</text><rect width="198" height="39.789" x="348.5" y="438.76" fill="#3D176E" rx="2.5" ry="2.5" style="stroke:#000d19;stroke-width:.5"/><circle cx="363.5" cy="458.654" r="11" fill="#ADD1B2" style="stroke:#181818;stroke-width:1"/><path d="M366.469 464.295q-.578.297-1.219.438-.64.156-1.344.156-2.5 0-3.828-1.64-1.312-1.657-1.312-4.782t1.312-4.781q1.328-1.656 3.828-1.656.703 0 1.344.156.656.156 1.219.453v2.719q-.625-.579-1.219-.844-.594-.281-1.219-.281-1.344 0-2.031 1.078-.687 1.062-.687 3.156t.687 3.172q.688 1.062 2.031 1.062.625 0 1.219-.265.594-.281 1.219-.86z"/><text x="382.5" y="464.54" fill="#D9B8FF" font-family="Helvetica" font-size="17" textLength="156">phantom_resource</text><rect width="154" height="126.68" x="365.5" y="638.34" fill="#3D176E" rx="2.5" ry="2.5" style="stroke:#000d19;stroke-width:.5"/><circle cx="407.05" cy="658.235" r="11" fill="#ADD1B2" style="stroke:#181818;stroke-width:1"/><path d="M410.019 663.875q-.578.297-1.219.438-.64.156-1.344.156-2.5 0-3.828-1.64-1.312-1.657-1.312-4.782t1.312-4.781q1.328-1.656 3.828-1.656.703 0 1.344.156.656.156 1.219.453v2.719q-.625-.578-1.219-.844-.594-.281-1.219-.281-1.344 0-2.031 1.078-.687 1.062-.687 3.156t.687 3.172q.688 1.062 2.031 1.062.625 0 1.219-.265.594-.281 1.219-.86z"/><text x="431.95" y="664.12" fill="#D9B8FF" font-family="Helvetica" font-size="17" textLength="53">region</text><path d="M366.5 678.129h152" style="stroke:#000d19;stroke-width:.5"/><text x="376.5" y="700.124" fill="#D9B8FF" font-family="sans-serif" font-size="14" font-weight="bold" textLength="59">latitude</text><text x="435.5" y="700.124" fill="#D9B8FF" font-family="sans-serif" font-size="14" textLength="57">: double</text><text x="376.5" y="726.421" fill="#D9B8FF" font-family="sans-serif" font-size="14" font-weight="bold" textLength="84">long_name</text><text x="460.5" y="726.421" fill="#D9B8FF" font-family="sans-serif" font-size="14" textLength="48">: string</text><text x="376.5" y="752.718" fill="#D9B8FF" font-family="sans-serif" font-size="14" font-weight="bold" textLength="74">longitude</text><text x="450.5" y="752.718" fill="#D9B8FF" font-family="sans-serif" font-size="14" textLength="57">: double</text><rect width="227" height="310.758" x="217" y="7" fill="#3D176E" rx="2.5" ry="2.5" style="stroke:#000d19;stroke-width:.5"/><circle cx="285.75" cy="26.895" r="11" fill="#ADD1B2" style="stroke:#181818;stroke-width:1"/><path d="M288.719 32.535q-.578.297-1.219.438-.64.156-1.344.156-2.5 0-3.828-1.64-1.312-1.657-1.312-4.782t1.312-4.781q1.328-1.656 3.828-1.656.703 0 1.344.156.656.156 1.219.453v2.719q-.625-.578-1.219-.844-.594-.281-1.219-.281-1.344 0-2.031 1.078-.687 1.062-.687 3.156t.687 3.172q.688 1.062 2.031 1.062.625 0 1.219-.265.594-.281 1.219-.86z"/><text x="311.25" y="32.78" fill="#D9B8FF" font-family="Helvetica" font-size="17" textLength="71">resource</text><path d="M218 46.789h225" style="stroke:#000d19;stroke-width:.5"/><text x="228" y="68.784" fill="#D9B8FF" font-family="sans-serif" font-size="14" font-weight="bold" textLength="29">age</text><text x="257" y="68.784" fill="#D9B8FF" font-family="sans-serif" font-size="14" textLength="66">: duration</text><text x="228" y="95.081" fill="#D9B8FF" font-family="sans-serif" font-size="14" font-weight="bold" textLength="43">atime</text><text x="271" y="95.081" fill="#D9B8FF" font-family="sans-serif" font-size="14" textLength="70">: datetime</text><text x="228" y="121.378" fill="#D9B8FF" font-family="sans-serif" font-size="14" font-weight="bold" textLength="43">ctime</text><text x="271" y="121.378" fill="#D9B8FF" font-family="sans-serif" font-size="14" textLength="70">: datetime</text><text x="228" y="147.675" fill="#D9B8FF" font-family="sans-serif" font-size="14" font-weight="bold" textLength="14">id</text><text x="242" y="147.675" fill="#D9B8FF" font-family="sans-serif" font-size="14" textLength="48">: string</text><text x="228" y="173.972" fill="#D9B8FF" font-family="sans-serif" font-size="14" font-weight="bold" textLength="33">kind</text><text x="261" y="173.972" fill="#D9B8FF" font-family="sans-serif" font-size="14" textLength="48">: string</text><text x="228" y="200.269" fill="#D9B8FF" font-family="sans-serif" font-size="14" font-weight="bold" textLength="90">last_access</text><text x="318" y="200.269" fill="#D9B8FF" font-family="sans-serif" font-size="14" textLength="66">: duration</text><text x="228" y="226.565" fill="#D9B8FF" font-family="sans-serif" font-size="14" font-weight="bold" textLength="90">last_update</text><text x="318" y="226.565" fill="#D9B8FF" font-family="sans-serif" font-size="14" textLength="66">: duration</text><text x="228" y="252.862" fill="#D9B8FF" font-family="sans-serif" font-size="14" font-weight="bold" textLength="48">mtime</text><text x="276" y="252.862" fill="#D9B8FF" font-family="sans-serif" font-size="14" textLength="70">: datetime</text><text x="228" y="279.159" fill="#D9B8FF" font-family="sans-serif" font-size="14" font-weight="bold" textLength="43">name</text><text x="271" y="279.159" fill="#D9B8FF" font-family="sans-serif" font-size="14" textLength="48">: string</text><text x="228" y="305.456" fill="#D9B8FF" font-family="sans-serif" font-size="14" font-weight="bold" textLength="34">tags</text><text x="262" y="305.456" fill="#D9B8FF" font-family="sans-serif" font-size="14" textLength="171">: dictionary[string, string]</text><path fill="none" d="M289.03 1065.59c-29.35 49.76-61.802 104.762-86.252 146.212" style="stroke:#ffaf37;stroke-width:2"/><path fill="#FFAF37" d="m199.73 1216.97 8.018-5.72-5.478 1.413-1.413-5.477z" style="stroke:#ffaf37;stroke-width:2"/><path fill="none" d="M394.27 1065.59c11.16 18.81 20.139 33.94 32.129 54.15" style="stroke:#ffaf37;stroke-width:2"/><path fill="#FFAF37" d="m429.46 1124.9-1.152-9.781-1.4 5.48-5.48-1.398z" style="stroke:#ffaf37;stroke-width:2"/><g fill="none"><path d="M299.61 596.53c5.94 53.66 21.04 189.96 32.06 289.35" style="stroke:#ffaf37;stroke-width:2"/><path d="m297.63 578.64-3.983 18.55 11.927-1.32z" style="stroke:#ffaf37;stroke-width:2"/></g><path fill="none" d="M412.935 782.285c-13.25 35.69-23.805 64.105-38.395 103.405m44.66-120.28-11.89 14.786 11.25 4.177zm94.3 644.54v53.56" style="stroke:#ffaf37;stroke-width:2"/><path fill="#FFAF37" d="m513.5 1469.51 4-9-4 4-4-4z" style="stroke:#ffaf37;stroke-width:2"/><path fill="none" d="M315.177 335.92c-7.51 84.53-14.397 162.05-17.957 202.16m19.55-220.09-7.57 17.398 11.954 1.062z" style="stroke:#ffaf37;stroke-width:2"/><g fill="none"><path d="M398.56 334.566c19.2 48.29 31.33 78.804 41.39 104.104" style="stroke:#ffaf37;stroke-width:2"/><path d="m391.91 317.84 1.075 18.943 11.15-4.433z" style="stroke:#ffaf37;stroke-width:2"/></g><g fill="none"><path d="M446.725 496.966c-.71 34.07-1.825 88.224-2.925 141.004" style="stroke:#ffaf37;stroke-width:2"/><path d="m447.1 478.97-6.374 17.871 11.998.25z" style="stroke:#ffaf37;stroke-width:2"/></g></svg>