<?xml version="1.0" encoding="us-ascii" standalone="no"?><svg xmlns="http://www.w3.org/2000/svg" xmlns:xlink="http://www.w3.org/1999/xlink" contentStyleType="text/css" height="1348px" preserveAspectRatio="none" style="width:568px;height:1348px;" version="1.1" viewBox="0 0 568 1348" width="568px" zoomAndPan="magnify"><defs/><g><!--class azure_authorization_deny_assignment--><g id="elem_azure_authorization_deny_assignment"><rect codeLine="23" fill="#3D176E" height="415.9453" id="azure_authorization_deny_assignment" rx="2.5" ry="2.5" style="stroke:#000D19;stroke-width:0.5;" width="388" x="132" y="660.14"/><ellipse cx="157.35" cy="680.0345" fill="#ADD1B2" rx="11" ry="11" style="stroke:#181818;stroke-width:1.0;"/><path d="M160.3188,685.6752 Q159.7406,685.972 159.1,686.1127 Q158.4594,686.2689 157.7563,686.2689 Q155.2563,686.2689 153.9281,684.6283 Q152.6156,682.972 152.6156,679.847 Q152.6156,676.722 153.9281,675.0658 Q155.2563,673.4095 157.7563,673.4095 Q158.4594,673.4095 159.1,673.5658 Q159.7563,673.722 160.3188,674.0189 L160.3188,676.7377 Q159.6938,676.1595 159.1,675.8939 Q158.5063,675.6127 157.8813,675.6127 Q156.5375,675.6127 155.85,676.6908 Q155.1625,677.7533 155.1625,679.847 Q155.1625,681.9408 155.85,683.0189 Q156.5375,684.0814 157.8813,684.0814 Q158.5063,684.0814 159.1,683.8158 Q159.6938,683.5345 160.3188,682.9564 L160.3188,685.6752 Z " fill="#000000"/><text fill="#D9B8FF" font-family="Helvetica" font-size="17" lengthAdjust="spacing" textLength="323" x="178.65" y="685.9198">azure_authorization_deny_assignment</text><line style="stroke:#000D19;stroke-width:0.5;" x1="133" x2="519" y1="699.9291" y2="699.9291"/><text fill="#D9B8FF" font-family="sans-serif" font-size="14" font-weight="bold" lengthAdjust="spacing" textLength="73" x="143" y="721.9242">condition</text><text fill="#D9B8FF" font-family="sans-serif" font-size="14" lengthAdjust="spacing" textLength="48" x="216" y="721.9242">: string</text><text fill="#D9B8FF" font-family="sans-serif" font-size="14" font-weight="bold" lengthAdjust="spacing" textLength="139" x="143" y="748.2211">condition_version</text><text fill="#D9B8FF" font-family="sans-serif" font-size="14" lengthAdjust="spacing" textLength="48" x="282" y="748.2211">: string</text><text fill="#D9B8FF" font-family="sans-serif" font-size="14" font-weight="bold" lengthAdjust="spacing" textLength="87" x="143" y="774.5179">created_by</text><text fill="#D9B8FF" font-family="sans-serif" font-size="14" lengthAdjust="spacing" textLength="48" x="230" y="774.5179">: string</text><text fill="#D9B8FF" font-family="sans-serif" font-size="14" font-weight="bold" lengthAdjust="spacing" textLength="88" x="143" y="800.8148">created_on</text><text fill="#D9B8FF" font-family="sans-serif" font-size="14" lengthAdjust="spacing" textLength="70" x="231" y="800.8148">: datetime</text><text fill="#D9B8FF" font-family="sans-serif" font-size="14" font-weight="bold" lengthAdjust="spacing" textLength="187" x="143" y="827.1117">deny_assignment_name</text><text fill="#D9B8FF" font-family="sans-serif" font-size="14" lengthAdjust="spacing" textLength="48" x="330" y="827.1117">: string</text><text fill="#D9B8FF" font-family="sans-serif" font-size="14" font-weight="bold" lengthAdjust="spacing" textLength="89" x="143" y="853.4086">description</text><text fill="#D9B8FF" font-family="sans-serif" font-size="14" lengthAdjust="spacing" textLength="48" x="232" y="853.4086">: string</text><text fill="#D9B8FF" font-family="sans-serif" font-size="14" font-weight="bold" lengthAdjust="spacing" textLength="233" x="143" y="879.7054">do_not_apply_to_child_scopes</text><text fill="#D9B8FF" font-family="sans-serif" font-size="14" lengthAdjust="spacing" textLength="65" x="376" y="879.7054">: boolean</text><text fill="#D9B8FF" font-family="sans-serif" font-size="14" font-weight="bold" lengthAdjust="spacing" textLength="145" x="143" y="906.0023">exclude_principals</text><text fill="#D9B8FF" font-family="sans-serif" font-size="14" lengthAdjust="spacing" textLength="122" x="288" y="906.0023">: azure_principal[]</text><text fill="#D9B8FF" font-family="sans-serif" font-size="14" font-weight="bold" lengthAdjust="spacing" textLength="162" x="143" y="932.2992">is_system_protected</text><text fill="#D9B8FF" font-family="sans-serif" font-size="14" lengthAdjust="spacing" textLength="65" x="305" y="932.2992">: boolean</text><text fill="#D9B8FF" font-family="sans-serif" font-size="14" font-weight="bold" lengthAdjust="spacing" textLength="96" x="143" y="958.5961">permissions</text><text fill="#D9B8FF" font-family="sans-serif" font-size="14" lengthAdjust="spacing" textLength="270" x="239" y="958.5961">: azure_deny_assignment_permission[]</text><text fill="#D9B8FF" font-family="sans-serif" font-size="14" font-weight="bold" lengthAdjust="spacing" textLength="76" x="143" y="984.8929">principals</text><text fill="#D9B8FF" font-family="sans-serif" font-size="14" lengthAdjust="spacing" textLength="122" x="219" y="984.8929">: azure_principal[]</text><text fill="#D9B8FF" font-family="sans-serif" font-size="14" font-weight="bold" lengthAdjust="spacing" textLength="48" x="143" y="1011.1898">scope</text><text fill="#D9B8FF" font-family="sans-serif" font-size="14" lengthAdjust="spacing" textLength="48" x="191" y="1011.1898">: string</text><text fill="#D9B8FF" font-family="sans-serif" font-size="14" font-weight="bold" lengthAdjust="spacing" textLength="91" x="143" y="1037.4867">updated_by</text><text fill="#D9B8FF" font-family="sans-serif" font-size="14" lengthAdjust="spacing" textLength="48" x="234" y="1037.4867">: string</text><text fill="#D9B8FF" font-family="sans-serif" font-size="14" font-weight="bold" lengthAdjust="spacing" textLength="92" x="143" y="1063.7836">updated_on</text><text fill="#D9B8FF" font-family="sans-serif" font-size="14" lengthAdjust="spacing" textLength="70" x="235" y="1063.7836">: datetime</text></g><!--class azure_deny_assignment_permission--><g id="elem_azure_deny_assignment_permission"><rect codeLine="39" fill="#3D176E" height="205.5703" id="azure_deny_assignment_permission" rx="2.5" ry="2.5" style="stroke:#000D19;stroke-width:0.5;" width="344" x="7" y="1136.09"/><ellipse cx="22" cy="1155.9845" fill="#ADD1B2" rx="11" ry="11" style="stroke:#181818;stroke-width:1.0;"/><path d="M24.9688,1161.6252 Q24.3906,1161.922 23.75,1162.0627 Q23.1094,1162.2189 22.4063,1162.2189 Q19.9063,1162.2189 18.5781,1160.5783 Q17.2656,1158.922 17.2656,1155.797 Q17.2656,1152.672 18.5781,1151.0158 Q19.9063,1149.3595 22.4063,1149.3595 Q23.1094,1149.3595 23.75,1149.5158 Q24.4063,1149.672 24.9688,1149.9689 L24.9688,1152.6877 Q24.3438,1152.1095 23.75,1151.8439 Q23.1563,1151.5627 22.5313,1151.5627 Q21.1875,1151.5627 20.5,1152.6408 Q19.8125,1153.7033 19.8125,1155.797 Q19.8125,1157.8908 20.5,1158.9689 Q21.1875,1160.0314 22.5313,1160.0314 Q23.1563,1160.0314 23.75,1159.7658 Q24.3438,1159.4845 24.9688,1158.9064 L24.9688,1161.6252 Z " fill="#000000"/><text fill="#D9B8FF" font-family="Helvetica" font-size="17" lengthAdjust="spacing" textLength="302" x="41" y="1161.8698">azure_deny_assignment_permission</text><line style="stroke:#000D19;stroke-width:0.5;" x1="8" x2="350" y1="1175.8791" y2="1175.8791"/><text fill="#D9B8FF" font-family="sans-serif" font-size="14" font-weight="bold" lengthAdjust="spacing" textLength="57" x="18" y="1197.8742">actions</text><text fill="#D9B8FF" font-family="sans-serif" font-size="14" lengthAdjust="spacing" textLength="58" x="75" y="1197.8742">: string[]</text><text fill="#D9B8FF" font-family="sans-serif" font-size="14" font-weight="bold" lengthAdjust="spacing" textLength="73" x="18" y="1224.1711">condition</text><text fill="#D9B8FF" font-family="sans-serif" font-size="14" lengthAdjust="spacing" textLength="48" x="91" y="1224.1711">: string</text><text fill="#D9B8FF" font-family="sans-serif" font-size="14" font-weight="bold" lengthAdjust="spacing" textLength="139" x="18" y="1250.4679">condition_version</text><text fill="#D9B8FF" font-family="sans-serif" font-size="14" lengthAdjust="spacing" textLength="48" x="157" y="1250.4679">: string</text><text fill="#D9B8FF" font-family="sans-serif" font-size="14" font-weight="bold" lengthAdjust="spacing" textLength="98" x="18" y="1276.7648">data_actions</text><text fill="#D9B8FF" font-family="sans-serif" font-size="14" lengthAdjust="spacing" textLength="58" x="116" y="1276.7648">: string[]</text><text fill="#D9B8FF" font-family="sans-serif" font-size="14" font-weight="bold" lengthAdjust="spacing" textLength="90" x="18" y="1303.0617">not_actions</text><text fill="#D9B8FF" font-family="sans-serif" font-size="14" lengthAdjust="spacing" textLength="58" x="108" y="1303.0617">: string[]</text><text fill="#D9B8FF" font-family="sans-serif" font-size="14" font-weight="bold" lengthAdjust="spacing" textLength="131" x="18" y="1329.3586">not_data_actions</text><text fill="#D9B8FF" font-family="sans-serif" font-size="14" lengthAdjust="spacing" textLength="58" x="149" y="1329.3586">: string[]</text></g><!--class azure_principal--><g id="elem_azure_principal"><rect codeLine="47" fill="#3D176E" height="152.9766" id="azure_principal" rx="2.5" ry="2.5" style="stroke:#000D19;stroke-width:0.5;" width="175" x="386.5" y="1162.39"/><ellipse cx="404.65" cy="1182.2845" fill="#ADD1B2" rx="11" ry="11" style="stroke:#181818;stroke-width:1.0;"/><path d="M407.6188,1187.9252 Q407.0406,1188.222 406.4,1188.3627 Q405.7594,1188.5189 405.0563,1188.5189 Q402.5563,1188.5189 401.2281,1186.8783 Q399.9156,1185.222 399.9156,1182.097 Q399.9156,1178.972 401.2281,1177.3158 Q402.5563,1175.6595 405.0563,1175.6595 Q405.7594,1175.6595 406.4,1175.8158 Q407.0563,1175.972 407.6188,1176.2689 L407.6188,1178.9877 Q406.9938,1178.4095 406.4,1178.1439 Q405.8063,1177.8627 405.1813,1177.8627 Q403.8375,1177.8627 403.15,1178.9408 Q402.4625,1180.0033 402.4625,1182.097 Q402.4625,1184.1908 403.15,1185.2689 Q403.8375,1186.3314 405.1813,1186.3314 Q405.8063,1186.3314 406.4,1186.0658 Q406.9938,1185.7845 407.6188,1185.2064 L407.6188,1187.9252 Z " fill="#000000"/><text fill="#D9B8FF" font-family="Helvetica" font-size="17" lengthAdjust="spacing" textLength="126" x="424.35" y="1188.1698">azure_principal</text><line style="stroke:#000D19;stroke-width:0.5;" x1="387.5" x2="560.5" y1="1202.1791" y2="1202.1791"/><text fill="#D9B8FF" font-family="sans-serif" font-size="14" font-weight="bold" lengthAdjust="spacing" textLength="105" x="397.5" y="1224.1742">display_name</text><text fill="#D9B8FF" font-family="sans-serif" font-size="14" lengthAdjust="spacing" textLength="48" x="502.5" y="1224.1742">: string</text><text fill="#D9B8FF" font-family="sans-serif" font-size="14" font-weight="bold" lengthAdjust="spacing" textLength="41" x="397.5" y="1250.4711">email</text><text fill="#D9B8FF" font-family="sans-serif" font-size="14" lengthAdjust="spacing" textLength="48" x="438.5" y="1250.4711">: string</text><text fill="#D9B8FF" font-family="sans-serif" font-size="14" font-weight="bold" lengthAdjust="spacing" textLength="14" x="397.5" y="1276.7679">id</text><text fill="#D9B8FF" font-family="sans-serif" font-size="14" lengthAdjust="spacing" textLength="48" x="411.5" y="1276.7679">: string</text><text fill="#D9B8FF" font-family="sans-serif" font-size="14" font-weight="bold" lengthAdjust="spacing" textLength="35" x="397.5" y="1303.0648">type</text><text fill="#D9B8FF" font-family="sans-serif" font-size="14" lengthAdjust="spacing" textLength="48" x="432.5" y="1303.0648">: string</text></g><!--class microsoft_resource--><g id="elem_microsoft_resource"><rect codeLine="53" fill="#3D176E" height="100.3828" id="microsoft_resource" rx="2.5" ry="2.5" style="stroke:#000D19;stroke-width:0.5;" width="214" x="219" y="438.76"/><ellipse cx="240.3" cy="458.6545" fill="#ADD1B2" rx="11" ry="11" style="stroke:#181818;stroke-width:1.0;"/><path d="M243.2688,464.2952 Q242.6906,464.592 242.05,464.7327 Q241.4094,464.8889 240.7063,464.8889 Q238.2063,464.8889 236.8781,463.2483 Q235.5656,461.592 235.5656,458.467 Q235.5656,455.342 236.8781,453.6858 Q238.2063,452.0295 240.7063,452.0295 Q241.4094,452.0295 242.05,452.1858 Q242.7063,452.342 243.2688,452.6389 L243.2688,455.3577 Q242.6438,454.7795 242.05,454.5139 Q241.4563,454.2327 240.8313,454.2327 Q239.4875,454.2327 238.8,455.3108 Q238.1125,456.3733 238.1125,458.467 Q238.1125,460.5608 238.8,461.6389 Q239.4875,462.7014 240.8313,462.7014 Q241.4563,462.7014 242.05,462.4358 Q242.6438,462.1545 243.2688,461.5764 L243.2688,464.2952 Z " fill="#000000"/><text fill="#D9B8FF" font-family="Helvetica" font-size="17" lengthAdjust="spacing" textLength="158" x="260.7" y="464.5398">microsoft_resource</text><line style="stroke:#000D19;stroke-width:0.5;" x1="220" x2="432" y1="478.5491" y2="478.5491"/><text fill="#D9B8FF" font-family="sans-serif" font-size="14" font-weight="bold" lengthAdjust="spacing" textLength="35" x="230" y="500.5442">etag</text><text fill="#D9B8FF" font-family="sans-serif" font-size="14" lengthAdjust="spacing" textLength="48" x="265" y="500.5442">: string</text><text fill="#D9B8FF" font-family="sans-serif" font-size="14" font-weight="bold" lengthAdjust="spacing" textLength="144" x="230" y="526.8411">provisioning_state</text><text fill="#D9B8FF" font-family="sans-serif" font-size="14" lengthAdjust="spacing" textLength="48" x="374" y="526.8411">: string</text></g><!--class resource--><g id="elem_resource"><rect codeLine="57" fill="#3D176E" height="310.7578" id="resource" rx="2.5" ry="2.5" style="stroke:#000D19;stroke-width:0.5;" width="227" x="212.5" y="7"/><ellipse cx="281.25" cy="26.8945" fill="#ADD1B2" rx="11" ry="11" style="stroke:#181818;stroke-width:1.0;"/><path d="M284.2188,32.5352 Q283.6406,32.832 283,32.9727 Q282.3594,33.1289 281.6563,33.1289 Q279.1563,33.1289 277.8281,31.4883 Q276.5156,29.832 276.5156,26.707 Q276.5156,23.582 277.8281,21.9258 Q279.1563,20.2695 281.6563,20.2695 Q282.3594,20.2695 283,20.4258 Q283.6563,20.582 284.2188,20.8789 L284.2188,23.5977 Q283.5938,23.0195 283,22.7539 Q282.4063,22.4727 281.7813,22.4727 Q280.4375,22.4727 279.75,23.5508 Q279.0625,24.6133 279.0625,26.707 Q279.0625,28.8008 279.75,29.8789 Q280.4375,30.9414 281.7813,30.9414 Q282.4063,30.9414 283,30.6758 Q283.5938,30.3945 284.2188,29.8164 L284.2188,32.5352 Z " fill="#000000"/><text fill="#D9B8FF" font-family="Helvetica" font-size="17" lengthAdjust="spacing" textLength="71" x="306.75" y="32.7798">resource</text><line style="stroke:#000D19;stroke-width:0.5;" x1="213.5" x2="438.5" y1="46.7891" y2="46.7891"/><text fill="#D9B8FF" font-family="sans-serif" font-size="14" font-weight="bold" lengthAdjust="spacing" textLength="29" x="223.5" y="68.7842">age</text><text fill="#D9B8FF" font-family="sans-serif" font-size="14" lengthAdjust="spacing" textLength="66" x="252.5" y="68.7842">: duration</text><text fill="#D9B8FF" font-family="sans-serif" font-size="14" font-weight="bold" lengthAdjust="spacing" textLength="43" x="223.5" y="95.0811">atime</text><text fill="#D9B8FF" font-family="sans-serif" font-size="14" lengthAdjust="spacing" textLength="70" x="266.5" y="95.0811">: datetime</text><text fill="#D9B8FF" font-family="sans-serif" font-size="14" font-weight="bold" lengthAdjust="spacing" textLength="43" x="223.5" y="121.3779">ctime</text><text fill="#D9B8FF" font-family="sans-serif" font-size="14" lengthAdjust="spacing" textLength="70" x="266.5" y="121.3779">: datetime</text><text fill="#D9B8FF" font-family="sans-serif" font-size="14" font-weight="bold" lengthAdjust="spacing" textLength="14" x="223.5" y="147.6748">id</text><text fill="#D9B8FF" font-family="sans-serif" font-size="14" lengthAdjust="spacing" textLength="48" x="237.5" y="147.6748">: string</text><text fill="#D9B8FF" font-family="sans-serif" font-size="14" font-weight="bold" lengthAdjust="spacing" textLength="33" x="223.5" y="173.9717">kind</text><text fill="#D9B8FF" font-family="sans-serif" font-size="14" lengthAdjust="spacing" textLength="48" x="256.5" y="173.9717">: string</text><text fill="#D9B8FF" font-family="sans-serif" font-size="14" font-weight="bold" lengthAdjust="spacing" textLength="90" x="223.5" y="200.2686">last_access</text><text fill="#D9B8FF" font-family="sans-serif" font-size="14" lengthAdjust="spacing" textLength="66" x="313.5" y="200.2686">: duration</text><text fill="#D9B8FF" font-family="sans-serif" font-size="14" font-weight="bold" lengthAdjust="spacing" textLength="90" x="223.5" y="226.5654">last_update</text><text fill="#D9B8FF" font-family="sans-serif" font-size="14" lengthAdjust="spacing" textLength="66" x="313.5" y="226.5654">: duration</text><text fill="#D9B8FF" font-family="sans-serif" font-size="14" font-weight="bold" lengthAdjust="spacing" textLength="48" x="223.5" y="252.8623">mtime</text><text fill="#D9B8FF" font-family="sans-serif" font-size="14" lengthAdjust="spacing" textLength="70" x="271.5" y="252.8623">: datetime</text><text fill="#D9B8FF" font-family="sans-serif" font-size="14" font-weight="bold" lengthAdjust="spacing" textLength="43" x="223.5" y="279.1592">name</text><text fill="#D9B8FF" font-family="sans-serif" font-size="14" lengthAdjust="spacing" textLength="48" x="266.5" y="279.1592">: string</text><text fill="#D9B8FF" font-family="sans-serif" font-size="14" font-weight="bold" lengthAdjust="spacing" textLength="34" x="223.5" y="305.4561">tags</text><text fill="#D9B8FF" font-family="sans-serif" font-size="14" lengthAdjust="spacing" textLength="171" x="257.5" y="305.4561">: dictionary[string, string]</text></g><!--link azure_authorization_deny_assignment to azure_deny_assignment_permission--><g id="link_azure_authorization_deny_assignment_azure_deny_assignment_permission"><path codeLine="69" d="M243.37,1076.4 C235.2,1096.9 229.4006,1111.4361 221.9506,1130.1361 " fill="none" id="azure_authorization_deny_assignment-to-azure_deny_assignment_permission" style="stroke:#FFAF37;stroke-width:2.0;"/><polygon fill="#FFAF37" points="219.73,1135.71,226.7769,1128.8295,221.5805,1131.0651,219.345,1125.8687,219.73,1135.71" style="stroke:#FFAF37;stroke-width:2.0;"/></g><!--link azure_authorization_deny_assignment to azure_principal--><g id="link_azure_authorization_deny_assignment_azure_principal"><path codeLine="70" d="M409.19,1076.4 C421.43,1106.9 431.0952,1130.9817 441.2852,1156.3717 " fill="none" id="azure_authorization_deny_assignment-to-azure_principal" style="stroke:#FFAF37;stroke-width:2.0;"/><polygon fill="#FFAF37" points="443.52,1161.94,443.88,1152.0977,441.6577,1157.2998,436.4557,1155.0774,443.52,1161.94" style="stroke:#FFAF37;stroke-width:2.0;"/></g><!--reverse link microsoft_resource to azure_authorization_deny_assignment--><g id="link_microsoft_resource_azure_authorization_deny_assignment"><path codeLine="71" d="M326,557.26 C326,589.01 326,614.66 326,659.75 " fill="none" id="microsoft_resource-backto-azure_authorization_deny_assignment" style="stroke:#FFAF37;stroke-width:2.0;"/><polygon fill="none" points="326,539.26,320,557.26,332,557.26,326,539.26" style="stroke:#FFAF37;stroke-width:2.0;"/></g><!--reverse link resource to microsoft_resource--><g id="link_resource_microsoft_resource"><path codeLine="72" d="M326,336.06 C326,379.66 326,405.99 326,438.43 " fill="none" id="resource-backto-microsoft_resource" style="stroke:#FFAF37;stroke-width:2.0;"/><polygon fill="none" points="326,318.06,320,336.06,332,336.06,326,318.06" style="stroke:#FFAF37;stroke-width:2.0;"/></g><!--SRC=[dLHTRzCm57tFhuYqjufABHDqcn3Ig8JWPKACjmbPj_PDQpMs8zlfI87_phMpbiH9ry5RSi_nkUT-s1ifC4TL-IPNg5PeNUQsKbTWGUMtrfh7fIcDpI-A0ehBHGf-DDgV9To1mlmJbZlqaaFA-BQHVAlHkVnr1_e0VBksfjQYbVSMj2C8jU-mbYKuT-kzbQlQOyUCk5vT5KNAJ4KlBiLyyHO7D6C5sYVAR3OJy-kKSZRLitKV6VToZ_cysxGxut5WSv0Yifvr6HWTauD23_X9Zrz02AdN-PjEx6lhoMgqlVZz1eHv3Em2IjTDupnQDBwfS3ce2g-lHB4O9Ny-HSvuQ5qE-zeYWzflZ9LxyD9e9b0tZ42vregs9F-PJIRSQ243EfdSaBmbYzqesz6-3r2Bu56mLJCQRjc2lhrKI42IbsdgQE-aGCUjh0OsX67QU0PLLJRC6yOtiXJCSLEX2yILCIM29YR-u6Kja5LqaikAUXpmjWd7sCDtOah7N4DzL1Id2NDot9Ugq2hfGj4TZRI4lwGeUZvjDDqhhgx4M1SFuQIBltjpFMqd3XMuFzXlTQE5_narvGSsBXSdSn8vUR1VoB59qRUGhYgX6Iu8Af1bBo95xpTSYKxWa4H9ReqpXMSMdQajnvW7FQnxnsaLTZ8KJx_CUMhwY5XF0jQH8ceRxrQ8X3abcyz7Oebpkjlz0EKAZUNqtYSP8jBkHuAeaJo39bBHhQACOm7RFBJOgoTE6CvBtetfzFtPFVn7eUCUP2CZU_ThEfs-v4NBaYD3hUmF]--></g></svg>