<?xml version="1.0" encoding="us-ascii" standalone="no"?><svg xmlns="http://www.w3.org/2000/svg" xmlns:xlink="http://www.w3.org/1999/xlink" contentStyleType="text/css" height="1293px" preserveAspectRatio="none" style="width:430px;height:1293px;" version="1.1" viewBox="0 0 430 1293" width="430px" zoomAndPan="magnify"><defs/><g><!--class aws_rds_cluster_snapshot--><g id="elem_aws_rds_cluster_snapshot"><rect codeLine="22" fill="#3D176E" height="652.6172" id="aws_rds_cluster_snapshot" rx="2.5" ry="2.5" style="stroke:#000D19;stroke-width:0.5;" width="416" x="7" y="633.84"/><ellipse cx="97.75" cy="653.7345" fill="#ADD1B2" rx="11" ry="11" style="stroke:#181818;stroke-width:1.0;"/><path d="M100.7188,659.3752 Q100.1406,659.672 99.5,659.8127 Q98.8594,659.9689 98.1563,659.9689 Q95.6563,659.9689 94.3281,658.3283 Q93.0156,656.672 93.0156,653.547 Q93.0156,650.422 94.3281,648.7658 Q95.6563,647.1095 98.1563,647.1095 Q98.8594,647.1095 99.5,647.2658 Q100.1563,647.422 100.7188,647.7189 L100.7188,650.4377 Q100.0938,649.8595 99.5,649.5939 Q98.9063,649.3127 98.2813,649.3127 Q96.9375,649.3127 96.25,650.3908 Q95.5625,651.4533 95.5625,653.547 Q95.5625,655.6408 96.25,656.7189 Q96.9375,657.7814 98.2813,657.7814 Q98.9063,657.7814 99.5,657.5158 Q100.0938,657.2345 100.7188,656.6564 L100.7188,659.3752 Z " fill="#000000"/><text fill="#D9B8FF" font-family="Helvetica" font-size="17" lengthAdjust="spacing" textLength="216" x="123.25" y="659.6198">aws_rds_cluster_snapshot</text><line style="stroke:#000D19;stroke-width:0.5;" x1="8" x2="422" y1="673.6291" y2="673.6291"/><text fill="#D9B8FF" font-family="sans-serif" font-size="14" font-weight="bold" lengthAdjust="spacing" textLength="172" x="18" y="695.6242">rds_allocated_storage</text><text fill="#D9B8FF" font-family="sans-serif" font-size="14" lengthAdjust="spacing" textLength="44" x="190" y="695.6242">: int64</text><text fill="#D9B8FF" font-family="sans-serif" font-size="14" font-weight="bold" lengthAdjust="spacing" textLength="110" x="18" y="721.9211">rds_attributes</text><text fill="#D9B8FF" font-family="sans-serif" font-size="14" lengthAdjust="spacing" textLength="181" x="128" y="721.9211">: dictionary[string, string[]]</text><text fill="#D9B8FF" font-family="sans-serif" font-size="14" font-weight="bold" lengthAdjust="spacing" textLength="169" x="18" y="748.2179">rds_availability_zones</text><text fill="#D9B8FF" font-family="sans-serif" font-size="14" lengthAdjust="spacing" textLength="58" x="187" y="748.2179">: string[]</text><text fill="#D9B8FF" font-family="sans-serif" font-size="14" font-weight="bold" lengthAdjust="spacing" textLength="187" x="18" y="774.5148">rds_cluster_create_time</text><text fill="#D9B8FF" font-family="sans-serif" font-size="14" lengthAdjust="spacing" textLength="70" x="205" y="774.5148">: datetime</text><text fill="#D9B8FF" font-family="sans-serif" font-size="14" font-weight="bold" lengthAdjust="spacing" textLength="193" x="18" y="800.8117">rds_db_cluster_identifier</text><text fill="#D9B8FF" font-family="sans-serif" font-size="14" lengthAdjust="spacing" textLength="48" x="211" y="800.8117">: string</text><text fill="#D9B8FF" font-family="sans-serif" font-size="14" font-weight="bold" lengthAdjust="spacing" textLength="215" x="18" y="827.1086">rds_db_cluster_resource_id</text><text fill="#D9B8FF" font-family="sans-serif" font-size="14" lengthAdjust="spacing" textLength="48" x="233" y="827.1086">: string</text><text fill="#D9B8FF" font-family="sans-serif" font-size="14" font-weight="bold" lengthAdjust="spacing" textLength="228" x="18" y="853.4054">rds_db_cluster_snapshot_arn</text><text fill="#D9B8FF" font-family="sans-serif" font-size="14" lengthAdjust="spacing" textLength="48" x="246" y="853.4054">: string</text><text fill="#D9B8FF" font-family="sans-serif" font-size="14" font-weight="bold" lengthAdjust="spacing" textLength="138" x="18" y="879.7023">rds_db_system_id</text><text fill="#D9B8FF" font-family="sans-serif" font-size="14" lengthAdjust="spacing" textLength="48" x="156" y="879.7023">: string</text><text fill="#D9B8FF" font-family="sans-serif" font-size="14" font-weight="bold" lengthAdjust="spacing" textLength="87" x="18" y="905.9992">rds_engine</text><text fill="#D9B8FF" font-family="sans-serif" font-size="14" lengthAdjust="spacing" textLength="48" x="105" y="905.9992">: string</text><text fill="#D9B8FF" font-family="sans-serif" font-size="14" font-weight="bold" lengthAdjust="spacing" textLength="138" x="18" y="932.2961">rds_engine_mode</text><text fill="#D9B8FF" font-family="sans-serif" font-size="14" lengthAdjust="spacing" textLength="48" x="156" y="932.2961">: string</text><text fill="#D9B8FF" font-family="sans-serif" font-size="14" font-weight="bold" lengthAdjust="spacing" textLength="153" x="18" y="958.5929">rds_engine_version</text><text fill="#D9B8FF" font-family="sans-serif" font-size="14" lengthAdjust="spacing" textLength="48" x="171" y="958.5929">: string</text><text fill="#D9B8FF" font-family="sans-serif" font-size="14" font-weight="bold" lengthAdjust="spacing" textLength="329" x="18" y="984.8898">rds_iam_database_authentication_enabled</text><text fill="#D9B8FF" font-family="sans-serif" font-size="14" lengthAdjust="spacing" textLength="65" x="347" y="984.8898">: boolean</text><text fill="#D9B8FF" font-family="sans-serif" font-size="14" font-weight="bold" lengthAdjust="spacing" textLength="121" x="18" y="1011.1867">rds_kms_key_id</text><text fill="#D9B8FF" font-family="sans-serif" font-size="14" lengthAdjust="spacing" textLength="48" x="139" y="1011.1867">: string</text><text fill="#D9B8FF" font-family="sans-serif" font-size="14" font-weight="bold" lengthAdjust="spacing" textLength="144" x="18" y="1037.4836">rds_license_model</text><text fill="#D9B8FF" font-family="sans-serif" font-size="14" lengthAdjust="spacing" textLength="48" x="162" y="1037.4836">: string</text><text fill="#D9B8FF" font-family="sans-serif" font-size="14" font-weight="bold" lengthAdjust="spacing" textLength="174" x="18" y="1063.7804">rds_master_username</text><text fill="#D9B8FF" font-family="sans-serif" font-size="14" lengthAdjust="spacing" textLength="48" x="192" y="1063.7804">: string</text><text fill="#D9B8FF" font-family="sans-serif" font-size="14" font-weight="bold" lengthAdjust="spacing" textLength="174" x="18" y="1090.0773">rds_percent_progress</text><text fill="#D9B8FF" font-family="sans-serif" font-size="14" lengthAdjust="spacing" textLength="44" x="192" y="1090.0773">: int64</text><text fill="#D9B8FF" font-family="sans-serif" font-size="14" font-weight="bold" lengthAdjust="spacing" textLength="66" x="18" y="1116.3742">rds_port</text><text fill="#D9B8FF" font-family="sans-serif" font-size="14" lengthAdjust="spacing" textLength="44" x="84" y="1116.3742">: int64</text><text fill="#D9B8FF" font-family="sans-serif" font-size="14" font-weight="bold" lengthAdjust="spacing" textLength="148" x="18" y="1142.6711">rds_snapshot_type</text><text fill="#D9B8FF" font-family="sans-serif" font-size="14" lengthAdjust="spacing" textLength="48" x="166" y="1142.6711">: string</text><text fill="#D9B8FF" font-family="sans-serif" font-size="14" font-weight="bold" lengthAdjust="spacing" textLength="290" x="18" y="1168.9679">rds_source_db_cluster_snapshot_arn</text><text fill="#D9B8FF" font-family="sans-serif" font-size="14" lengthAdjust="spacing" textLength="48" x="308" y="1168.9679">: string</text><text fill="#D9B8FF" font-family="sans-serif" font-size="14" font-weight="bold" lengthAdjust="spacing" textLength="82" x="18" y="1195.2648">rds_status</text><text fill="#D9B8FF" font-family="sans-serif" font-size="14" lengthAdjust="spacing" textLength="48" x="100" y="1195.2648">: string</text><text fill="#D9B8FF" font-family="sans-serif" font-size="14" font-weight="bold" lengthAdjust="spacing" textLength="182" x="18" y="1221.5617">rds_storage_encrypted</text><text fill="#D9B8FF" font-family="sans-serif" font-size="14" lengthAdjust="spacing" textLength="65" x="200" y="1221.5617">: boolean</text><text fill="#D9B8FF" font-family="sans-serif" font-size="14" font-weight="bold" lengthAdjust="spacing" textLength="136" x="18" y="1247.8586">rds_storage_type</text><text fill="#D9B8FF" font-family="sans-serif" font-size="14" lengthAdjust="spacing" textLength="48" x="154" y="1247.8586">: string</text><text fill="#D9B8FF" font-family="sans-serif" font-size="14" font-weight="bold" lengthAdjust="spacing" textLength="82" x="18" y="1274.1554">rds_vpc_id</text><text fill="#D9B8FF" font-family="sans-serif" font-size="14" lengthAdjust="spacing" textLength="48" x="100" y="1274.1554">: string</text></g><!--class aws_resource--><g id="elem_aws_resource"><rect codeLine="47" fill="#3D176E" height="74.0859" id="aws_resource" rx="2.5" ry="2.5" style="stroke:#000D19;stroke-width:0.5;" width="155" x="137.5" y="438.76"/><ellipse cx="152.5" cy="458.6545" fill="#ADD1B2" rx="11" ry="11" style="stroke:#181818;stroke-width:1.0;"/><path d="M155.4688,464.2952 Q154.8906,464.592 154.25,464.7327 Q153.6094,464.8889 152.9063,464.8889 Q150.4063,464.8889 149.0781,463.2483 Q147.7656,461.592 147.7656,458.467 Q147.7656,455.342 149.0781,453.6858 Q150.4063,452.0295 152.9063,452.0295 Q153.6094,452.0295 154.25,452.1858 Q154.9063,452.342 155.4688,452.6389 L155.4688,455.3577 Q154.8438,454.7795 154.25,454.5139 Q153.6563,454.2327 153.0313,454.2327 Q151.6875,454.2327 151,455.3108 Q150.3125,456.3733 150.3125,458.467 Q150.3125,460.5608 151,461.6389 Q151.6875,462.7014 153.0313,462.7014 Q153.6563,462.7014 154.25,462.4358 Q154.8438,462.1545 155.4688,461.5764 L155.4688,464.2952 Z " fill="#000000"/><text fill="#D9B8FF" font-family="Helvetica" font-size="17" lengthAdjust="spacing" textLength="113" x="171.5" y="464.5398">aws_resource</text><line style="stroke:#000D19;stroke-width:0.5;" x1="138.5" x2="291.5" y1="478.5491" y2="478.5491"/><text fill="#D9B8FF" font-family="sans-serif" font-size="14" font-weight="bold" lengthAdjust="spacing" textLength="26" x="148.5" y="500.5442">arn</text><text fill="#D9B8FF" font-family="sans-serif" font-size="14" lengthAdjust="spacing" textLength="48" x="174.5" y="500.5442">: string</text></g><!--class resource--><g id="elem_resource"><rect codeLine="50" fill="#3D176E" height="310.7578" id="resource" rx="2.5" ry="2.5" style="stroke:#000D19;stroke-width:0.5;" width="227" x="101.5" y="7"/><ellipse cx="170.25" cy="26.8945" fill="#ADD1B2" rx="11" ry="11" style="stroke:#181818;stroke-width:1.0;"/><path d="M173.2188,32.5352 Q172.6406,32.832 172,32.9727 Q171.3594,33.1289 170.6563,33.1289 Q168.1563,33.1289 166.8281,31.4883 Q165.5156,29.832 165.5156,26.707 Q165.5156,23.582 166.8281,21.9258 Q168.1563,20.2695 170.6563,20.2695 Q171.3594,20.2695 172,20.4258 Q172.6563,20.582 173.2188,20.8789 L173.2188,23.5977 Q172.5938,23.0195 172,22.7539 Q171.4063,22.4727 170.7813,22.4727 Q169.4375,22.4727 168.75,23.5508 Q168.0625,24.6133 168.0625,26.707 Q168.0625,28.8008 168.75,29.8789 Q169.4375,30.9414 170.7813,30.9414 Q171.4063,30.9414 172,30.6758 Q172.5938,30.3945 173.2188,29.8164 L173.2188,32.5352 Z " fill="#000000"/><text fill="#D9B8FF" font-family="Helvetica" font-size="17" lengthAdjust="spacing" textLength="71" x="195.75" y="32.7798">resource</text><line style="stroke:#000D19;stroke-width:0.5;" x1="102.5" x2="327.5" y1="46.7891" y2="46.7891"/><text fill="#D9B8FF" font-family="sans-serif" font-size="14" font-weight="bold" lengthAdjust="spacing" textLength="29" x="112.5" y="68.7842">age</text><text fill="#D9B8FF" font-family="sans-serif" font-size="14" lengthAdjust="spacing" textLength="66" x="141.5" y="68.7842">: duration</text><text fill="#D9B8FF" font-family="sans-serif" font-size="14" font-weight="bold" lengthAdjust="spacing" textLength="43" x="112.5" y="95.0811">atime</text><text fill="#D9B8FF" font-family="sans-serif" font-size="14" lengthAdjust="spacing" textLength="70" x="155.5" y="95.0811">: datetime</text><text fill="#D9B8FF" font-family="sans-serif" font-size="14" font-weight="bold" lengthAdjust="spacing" textLength="43" x="112.5" y="121.3779">ctime</text><text fill="#D9B8FF" font-family="sans-serif" font-size="14" lengthAdjust="spacing" textLength="70" x="155.5" y="121.3779">: datetime</text><text fill="#D9B8FF" font-family="sans-serif" font-size="14" font-weight="bold" lengthAdjust="spacing" textLength="14" x="112.5" y="147.6748">id</text><text fill="#D9B8FF" font-family="sans-serif" font-size="14" lengthAdjust="spacing" textLength="48" x="126.5" y="147.6748">: string</text><text fill="#D9B8FF" font-family="sans-serif" font-size="14" font-weight="bold" lengthAdjust="spacing" textLength="33" x="112.5" y="173.9717">kind</text><text fill="#D9B8FF" font-family="sans-serif" font-size="14" lengthAdjust="spacing" textLength="48" x="145.5" y="173.9717">: string</text><text fill="#D9B8FF" font-family="sans-serif" font-size="14" font-weight="bold" lengthAdjust="spacing" textLength="90" x="112.5" y="200.2686">last_access</text><text fill="#D9B8FF" font-family="sans-serif" font-size="14" lengthAdjust="spacing" textLength="66" x="202.5" y="200.2686">: duration</text><text fill="#D9B8FF" font-family="sans-serif" font-size="14" font-weight="bold" lengthAdjust="spacing" textLength="90" x="112.5" y="226.5654">last_update</text><text fill="#D9B8FF" font-family="sans-serif" font-size="14" lengthAdjust="spacing" textLength="66" x="202.5" y="226.5654">: duration</text><text fill="#D9B8FF" font-family="sans-serif" font-size="14" font-weight="bold" lengthAdjust="spacing" textLength="48" x="112.5" y="252.8623">mtime</text><text fill="#D9B8FF" font-family="sans-serif" font-size="14" lengthAdjust="spacing" textLength="70" x="160.5" y="252.8623">: datetime</text><text fill="#D9B8FF" font-family="sans-serif" font-size="14" font-weight="bold" lengthAdjust="spacing" textLength="43" x="112.5" y="279.1592">name</text><text fill="#D9B8FF" font-family="sans-serif" font-size="14" lengthAdjust="spacing" textLength="48" x="155.5" y="279.1592">: string</text><text fill="#D9B8FF" font-family="sans-serif" font-size="14" font-weight="bold" lengthAdjust="spacing" textLength="34" x="112.5" y="305.4561">tags</text><text fill="#D9B8FF" font-family="sans-serif" font-size="14" lengthAdjust="spacing" textLength="171" x="146.5" y="305.4561">: dictionary[string, string]</text></g><!--reverse link aws_resource to aws_rds_cluster_snapshot--><g id="link_aws_resource_aws_rds_cluster_snapshot"><path codeLine="62" d="M215,531.05 C215,559.76 215,584.97 215,633.4 " fill="none" id="aws_resource-backto-aws_rds_cluster_snapshot" style="stroke:#FFAF37;stroke-width:2.0;"/><polygon fill="none" points="215,513.05,209,531.05,221,531.05,215,513.05" style="stroke:#FFAF37;stroke-width:2.0;"/></g><!--reverse link resource to aws_resource--><g id="link_resource_aws_resource"><path codeLine="63" d="M215,336.18 C215,381.21 215,408.34 215,438.51 " fill="none" id="resource-backto-aws_resource" style="stroke:#FFAF37;stroke-width:2.0;"/><polygon fill="none" points="215,318.18,209,336.18,221,336.18,215,318.18" style="stroke:#FFAF37;stroke-width:2.0;"/></g><!--SRC=[ZPHDRzf048Rl_0fBkQ4YGTE6KFMI8bNj9QgQtY9aZNV7PiL-MBDZaDFsltTjR69iGtgmC3FFxhppxgotIcA49kSoCcWI93_nEsLp833H0v4xh9rs5DsaAQItotxogxFy9l081gDlgFV8Ia2V-BLLOcVH- -Xz9_K5n2uZLrXvt9u9h0yfjDoXrXgyVs0cbHIC7J5obTodQP_iRtfpAnVBEnnWZYHIWypdSxbOzP4tIrtj-qGygHUC5btJ7XtZGEQWH4rTLLaH7P63HjlyHOq_G4fbi-XZ9_Rpg8aiqbdyQGlI7Iew1UsxPJmZeUCon_MWArpTotGv2d-_18lAkGWEFYRfOw6BQatiBUH-wpZwFPbEgmHexGGmojYp8yXmElqKASjt7rgWdHbVPQGIh9m5AfzzYDliNNJyVTvisWLxK1eIfHMNyOkpnuKjrK2j7a4OYiUiJ5rOXZ_LUqF9v0I6osTPfGhfTRSXHUXTGG83VWrhNOY1x1Zdou2PiKtGPihYXN1idBoOsuSFHd1ka5PWuj0s9E0nXeAtLP_XH08RbaAYiLQHEASHRBDePyA3vPX2hGHQVzIY1ra3jG65Hx9WXc9p3EvPZdDoMJ3JzwSXTyJzsCdDQXu7EpO7yh_kUmOk_4Yu7ixWYA0ovp5FMcHKnJuNvsRzxLwGPchgIt4kgiNEaUCjaGNLnrH5HWPOZCHwvnNkytaWr0gs2D4utwbGPugysgkNCIDr1cVBa5s_lvlGwfaNd__CPhEBtu_96DU4_W40]--></g></svg>